<?xml version="1.0" encoding="UTF-8" standalone="no"?>
<!DOCTYPE svg PUBLIC "-//W3C//DTD SVG 1.1//EN"
 "http://www.w3.org/Graphics/SVG/1.1/DTD/svg11.dtd">
<!-- Generated by graphviz version 2.47.1 (20210421.1823)
 -->
<!-- Title: include/GameLogic/Units/AllUnits.h Pages: 1 -->
<svg width="1360pt" height="666pt"
 viewBox="0.00 0.00 1360.00 666.00" xmlns="http://www.w3.org/2000/svg" xmlns:xlink="http://www.w3.org/1999/xlink">
<g id="graph0" class="graph" transform="scale(1 1) rotate(0) translate(4 662)">
<title>include/GameLogic/Units/AllUnits.h</title>
<polygon fill="white" stroke="transparent" points="-4,4 -4,-662 1356,-662 1356,4 -4,4"/>
<!-- Node1 -->
<g id="node1" class="node">
<title>Node1</title>
<g id="a_node1"><a xlink:title=" ">
<polygon fill="#bfbfbf" stroke="black" points="603.5,-627.5 603.5,-657.5 730.5,-657.5 730.5,-627.5 603.5,-627.5"/>
<text text-anchor="start" x="611.5" y="-645.5" font-family="Helvetica,sans-Serif" font-size="10.00">include/GameLogic/Units</text>
<text text-anchor="middle" x="667" y="-634.5" font-family="Helvetica,sans-Serif" font-size="10.00">/AllUnits.h</text>
</a>
</g>
</g>
<!-- Node2 -->
<g id="node2" class="node">
<title>Node2</title>
<g id="a_node2"><a xlink:href="_factory_8h.html" target="_top" xlink:title=" ">
<polygon fill="white" stroke="black" points="695,-571.5 695,-590.5 751,-590.5 751,-571.5 695,-571.5"/>
<text text-anchor="middle" x="723" y="-578.5" font-family="Helvetica,sans-Serif" font-size="10.00">Factory.h</text>
</a>
</g>
</g>
<!-- Node1&#45;&gt;Node2 -->
<g id="edge1" class="edge">
<title>Node1&#45;&gt;Node2</title>
<path fill="none" stroke="midnightblue" d="M680.27,-627.4C688.58,-618.58 699.3,-607.18 707.92,-598.02"/>
<polygon fill="midnightblue" stroke="midnightblue" points="710.55,-600.34 714.85,-590.66 705.45,-595.54 710.55,-600.34"/>
</g>
<!-- Node3 -->
<g id="node3" class="node">
<title>Node3</title>
<g id="a_node3"><a xlink:title=" ">
<polygon fill="white" stroke="#bfbfbf" points="1232.5,-168.5 1232.5,-187.5 1273.5,-187.5 1273.5,-168.5 1232.5,-168.5"/>
<text text-anchor="middle" x="1253" y="-175.5" font-family="Helvetica,sans-Serif" font-size="10.00">string</text>
</a>
</g>
</g>
<!-- Node2&#45;&gt;Node3 -->
<g id="edge2" class="edge">
<title>Node2&#45;&gt;Node3</title>
<path fill="none" stroke="midnightblue" d="M751.11,-577.79C868.56,-568.2 1314,-527.99 1314,-470 1314,-470 1314,-470 1314,-289 1314,-251.57 1286.66,-214.96 1268.59,-194.84"/>
<polygon fill="midnightblue" stroke="midnightblue" points="1271.12,-192.43 1261.74,-187.51 1266.01,-197.21 1271.12,-192.43"/>
</g>
<!-- Node4 -->
<g id="node4" class="node">
<title>Node4</title>
<g id="a_node4"><a xlink:href="_cell_8h.html" target="_top" xlink:title=" ">
<polygon fill="white" stroke="black" points="674.5,-515.5 674.5,-534.5 715.5,-534.5 715.5,-515.5 674.5,-515.5"/>
<text text-anchor="middle" x="695" y="-522.5" font-family="Helvetica,sans-Serif" font-size="10.00">Cell.h</text>
</a>
</g>
</g>
<!-- Node2&#45;&gt;Node4 -->
<g id="edge3" class="edge">
<title>Node2&#45;&gt;Node4</title>
<path fill="none" stroke="midnightblue" d="M718.38,-571.08C714.54,-563.69 708.98,-552.95 704.24,-543.81"/>
<polygon fill="midnightblue" stroke="midnightblue" points="707.25,-542.02 699.54,-534.75 701.03,-545.24 707.25,-542.02"/>
</g>
<!-- Node23 -->
<g id="node23" class="node">
<title>Node23</title>
<g id="a_node23"><a xlink:href="_unit_8h.html" target="_top" xlink:title=" ">
<polygon fill="white" stroke="black" points="1120,-342 1120,-361 1242,-361 1242,-342 1120,-342"/>
<text text-anchor="middle" x="1181" y="-349" font-family="Helvetica,sans-Serif" font-size="10.00">GameLogic/Units/Unit.h</text>
</a>
</g>
</g>
<!-- Node2&#45;&gt;Node23 -->
<g id="edge80" class="edge">
<title>Node2&#45;&gt;Node23</title>
<path fill="none" stroke="midnightblue" d="M751.13,-579.62C819.04,-577.34 994.59,-563.12 1106,-479 1143.23,-450.89 1165.53,-398.45 1175.24,-370.74"/>
<polygon fill="midnightblue" stroke="midnightblue" points="1178.6,-371.72 1178.44,-361.13 1171.96,-369.51 1178.6,-371.72"/>
</g>
<!-- Node4&#45;&gt;Node1 -->
<g id="edge65" class="edge">
<title>Node4&#45;&gt;Node1</title>
<path fill="none" stroke="midnightblue" d="M692.9,-534.67C688.68,-552.06 679.06,-591.76 672.8,-617.56"/>
<polygon fill="midnightblue" stroke="midnightblue" points="669.39,-616.79 670.43,-627.34 676.19,-618.44 669.39,-616.79"/>
</g>
<!-- Node5 -->
<g id="node5" class="node">
<title>Node5</title>
<g id="a_node5"><a xlink:href="gameplay_clickable_game_object_8h.html" target="_top" xlink:title=" ">
<polygon fill="white" stroke="black" points="628.5,-336.5 628.5,-366.5 757.5,-366.5 757.5,-336.5 628.5,-336.5"/>
<text text-anchor="start" x="636.5" y="-354.5" font-family="Helvetica,sans-Serif" font-size="10.00">engine/gameplayClickable</text>
<text text-anchor="middle" x="693" y="-343.5" font-family="Helvetica,sans-Serif" font-size="10.00">GameObject.h</text>
</a>
</g>
</g>
<!-- Node4&#45;&gt;Node5 -->
<g id="edge4" class="edge">
<title>Node4&#45;&gt;Node5</title>
<path fill="none" stroke="midnightblue" d="M704.02,-515.34C712.07,-506.93 723.3,-493.36 728,-479 739.69,-443.28 721.79,-401.08 707.58,-375.58"/>
<polygon fill="midnightblue" stroke="midnightblue" points="710.44,-373.54 702.38,-366.67 704.39,-377.07 710.44,-373.54"/>
</g>
<!-- Node8 -->
<g id="node8" class="node">
<title>Node8</title>
<g id="a_node8"><a xlink:href="config_8h.html" target="_top" xlink:title=" ">
<polygon fill="white" stroke="black" points="1102.5,-112.5 1102.5,-131.5 1183.5,-131.5 1183.5,-112.5 1102.5,-112.5"/>
<text text-anchor="middle" x="1143" y="-119.5" font-family="Helvetica,sans-Serif" font-size="10.00">engine/config.h</text>
</a>
</g>
</g>
<!-- Node4&#45;&gt;Node8 -->
<g id="edge24" class="edge">
<title>Node4&#45;&gt;Node8</title>
<path fill="none" stroke="midnightblue" d="M715.68,-523.2C788.66,-520.15 1033.7,-507.95 1106,-479 1233.75,-427.86 1352,-428.61 1352,-291 1352,-291 1352,-291 1352,-233 1352,-161.73 1255.64,-136.53 1193.78,-127.69"/>
<polygon fill="midnightblue" stroke="midnightblue" points="1194.17,-124.22 1183.79,-126.37 1193.24,-131.15 1194.17,-124.22"/>
</g>
<!-- Node11 -->
<g id="node11" class="node">
<title>Node11</title>
<g id="a_node11"><a xlink:href="_facade_8h.html" target="_top" xlink:title=" ">
<polygon fill="white" stroke="black" points="988,-0.5 988,-19.5 1044,-19.5 1044,-0.5 988,-0.5"/>
<text text-anchor="middle" x="1016" y="-7.5" font-family="Helvetica,sans-Serif" font-size="10.00">Facade.h</text>
</a>
</g>
</g>
<!-- Node4&#45;&gt;Node11 -->
<g id="edge25" class="edge">
<title>Node4&#45;&gt;Node11</title>
<path fill="none" stroke="midnightblue" d="M715.51,-522.81C796.8,-517.53 1092,-492.94 1092,-414 1092,-414 1092,-414 1092,-289 1092,-275.58 1038.57,-89.23 1021.31,-29.37"/>
<polygon fill="midnightblue" stroke="midnightblue" points="1024.67,-28.37 1018.53,-19.74 1017.94,-30.32 1024.67,-28.37"/>
</g>
<!-- Node14 -->
<g id="node14" class="node">
<title>Node14</title>
<g id="a_node14"><a xlink:title=" ">
<polygon fill="white" stroke="#bfbfbf" points="83,-56.5 83,-75.5 137,-75.5 137,-56.5 83,-56.5"/>
<text text-anchor="middle" x="110" y="-63.5" font-family="Helvetica,sans-Serif" font-size="10.00">iostream</text>
</a>
</g>
</g>
<!-- Node4&#45;&gt;Node14 -->
<g id="edge46" class="edge">
<title>Node4&#45;&gt;Node14</title>
<path fill="none" stroke="midnightblue" d="M674.39,-523.5C570.99,-520.86 111.38,-507.59 55,-479 21.25,-461.88 0,-451.84 0,-414 0,-414 0,-414 0,-177 0,-130.91 48.88,-97.39 81.47,-80.16"/>
<polygon fill="midnightblue" stroke="midnightblue" points="83.25,-83.18 90.59,-75.54 80.09,-76.94 83.25,-83.18"/>
</g>
<!-- Node16 -->
<g id="node16" class="node">
<title>Node16</title>
<g id="a_node16"><a xlink:href="cellgen_8h.html" target="_top" xlink:title=" ">
<polygon fill="white" stroke="black" points="264.5,-403.5 264.5,-422.5 335.5,-422.5 335.5,-403.5 264.5,-403.5"/>
<text text-anchor="middle" x="300" y="-410.5" font-family="Helvetica,sans-Serif" font-size="10.00">util/cellgen.h</text>
</a>
</g>
</g>
<!-- Node4&#45;&gt;Node16 -->
<g id="edge15" class="edge">
<title>Node4&#45;&gt;Node16</title>
<path fill="none" stroke="midnightblue" d="M674.37,-521.8C632.82,-517 536.41,-503.96 459,-479 438.94,-472.53 435.39,-467.26 416,-459 388.18,-447.15 356.09,-434.8 332.73,-426.04"/>
<polygon fill="midnightblue" stroke="midnightblue" points="333.88,-422.74 323.29,-422.52 331.44,-429.3 333.88,-422.74"/>
</g>
<!-- Node18 -->
<g id="node18" class="node">
<title>Node18</title>
<g id="a_node18"><a xlink:title=" ">
<polygon fill="white" stroke="#bfbfbf" points="66.5,-342 66.5,-361 101.5,-361 101.5,-342 66.5,-342"/>
<text text-anchor="middle" x="84" y="-349" font-family="Helvetica,sans-Serif" font-size="10.00">map</text>
</a>
</g>
</g>
<!-- Node4&#45;&gt;Node18 -->
<g id="edge45" class="edge">
<title>Node4&#45;&gt;Node18</title>
<path fill="none" stroke="midnightblue" d="M674.45,-521.93C627.91,-516.98 511.14,-503.02 416,-479 342.54,-460.45 326.09,-449.18 255,-423 190.56,-399.27 173.36,-395.74 111,-367 110.15,-366.61 109.3,-366.21 108.44,-365.79"/>
<polygon fill="midnightblue" stroke="midnightblue" points="109.76,-362.53 99.26,-361.11 106.58,-368.77 109.76,-362.53"/>
</g>
<!-- Node20 -->
<g id="node20" class="node">
<title>Node20</title>
<g id="a_node20"><a xlink:href="_all_flags_8h.html" target="_top" xlink:title=" ">
<polygon fill="white" stroke="black" points="966.5,-280.5 966.5,-299.5 1025.5,-299.5 1025.5,-280.5 966.5,-280.5"/>
<text text-anchor="middle" x="996" y="-287.5" font-family="Helvetica,sans-Serif" font-size="10.00">AllFlags.h</text>
</a>
</g>
</g>
<!-- Node4&#45;&gt;Node20 -->
<g id="edge19" class="edge">
<title>Node4&#45;&gt;Node20</title>
<path fill="none" stroke="midnightblue" d="M715.71,-522.17C750.22,-518.4 820.87,-507.57 873,-479 936.69,-444.09 961.45,-432.89 992,-367 1000.32,-349.06 1000.28,-326.12 998.81,-310.16"/>
<polygon fill="midnightblue" stroke="midnightblue" points="1002.25,-309.45 997.59,-299.94 995.3,-310.28 1002.25,-309.45"/>
</g>
<!-- Node22 -->
<g id="node22" class="node">
<title>Node22</title>
<g id="a_node22"><a xlink:href="_squad_8h.html" target="_top" xlink:title=" ">
<polygon fill="white" stroke="black" points="856,-403.5 856,-422.5 908,-422.5 908,-403.5 856,-403.5"/>
<text text-anchor="middle" x="882" y="-410.5" font-family="Helvetica,sans-Serif" font-size="10.00">Squad.h</text>
</a>
</g>
</g>
<!-- Node4&#45;&gt;Node22 -->
<g id="edge26" class="edge">
<title>Node4&#45;&gt;Node22</title>
<path fill="none" stroke="midnightblue" d="M715.66,-521.19C744.3,-516.78 795.72,-505.76 831,-479 847.33,-466.61 859.12,-445.9 867.88,-431.19"/>
<polygon fill="midnightblue" stroke="midnightblue" points="870.94,-432.88 873.21,-422.53 864.99,-429.21 870.94,-432.88"/>
</g>
<!-- Node29 -->
<g id="node29" class="node">
<title>Node29</title>
<g id="a_node29"><a xlink:href="geometry_8h.html" target="_top" xlink:title=" ">
<polygon fill="white" stroke="black" points="468,-459.5 468,-478.5 548,-478.5 548,-459.5 468,-459.5"/>
<text text-anchor="middle" x="508" y="-466.5" font-family="Helvetica,sans-Serif" font-size="10.00">util/geometry.h</text>
</a>
</g>
</g>
<!-- Node4&#45;&gt;Node29 -->
<g id="edge47" class="edge">
<title>Node4&#45;&gt;Node29</title>
<path fill="none" stroke="midnightblue" d="M674.27,-518.01C643.81,-509.22 586.37,-492.63 547.64,-481.45"/>
<polygon fill="midnightblue" stroke="midnightblue" points="548.31,-478 537.74,-478.59 546.37,-484.72 548.31,-478"/>
</g>
<!-- Node30 -->
<g id="node30" class="node">
<title>Node30</title>
<g id="a_node30"><a xlink:href="_none_8h.html" target="_top" xlink:title=" ">
<polygon fill="white" stroke="black" points="78.5,-168.5 78.5,-187.5 191.5,-187.5 191.5,-168.5 78.5,-168.5"/>
<text text-anchor="middle" x="135" y="-175.5" font-family="Helvetica,sans-Serif" font-size="10.00">engine/actions/None.h</text>
</a>
</g>
</g>
<!-- Node4&#45;&gt;Node30 -->
<g id="edge50" class="edge">
<title>Node4&#45;&gt;Node30</title>
<path fill="none" stroke="midnightblue" d="M674.21,-523.92C607.11,-523.26 390.63,-518.03 217,-479 134.42,-460.44 38,-498.64 38,-414 38,-414 38,-414 38,-289 38,-245.35 81.51,-210.83 110.24,-192.79"/>
<polygon fill="midnightblue" stroke="midnightblue" points="112.23,-195.68 118.98,-187.52 108.61,-189.68 112.23,-195.68"/>
</g>
<!-- Node31 -->
<g id="node31" class="node">
<title>Node31</title>
<g id="a_node31"><a xlink:href="game_controller_8h.html" target="_top" xlink:title=" ">
<polygon fill="white" stroke="black" points="725.5,-280.5 725.5,-299.5 846.5,-299.5 846.5,-280.5 725.5,-280.5"/>
<text text-anchor="middle" x="786" y="-287.5" font-family="Helvetica,sans-Serif" font-size="10.00">engine/gameController.h</text>
</a>
</g>
</g>
<!-- Node4&#45;&gt;Node31 -->
<g id="edge52" class="edge">
<title>Node4&#45;&gt;Node31</title>
<path fill="none" stroke="midnightblue" d="M708.34,-515.28C719.59,-507.22 735.22,-494.2 744,-479 776.16,-423.32 783.71,-345.23 785.47,-309.8"/>
<polygon fill="midnightblue" stroke="midnightblue" points="788.98,-309.65 785.87,-299.52 781.98,-309.37 788.98,-309.65"/>
</g>
<!-- Node35 -->
<g id="node35" class="node">
<title>Node35</title>
<g id="a_node35"><a xlink:href="_set_squad_path_8h.html" target="_top" xlink:title=" ">
<polygon fill="white" stroke="black" points="566.5,-459.5 566.5,-478.5 719.5,-478.5 719.5,-459.5 566.5,-459.5"/>
<text text-anchor="middle" x="643" y="-466.5" font-family="Helvetica,sans-Serif" font-size="10.00">engine/actions/SetSquadPath.h</text>
</a>
</g>
</g>
<!-- Node4&#45;&gt;Node35 -->
<g id="edge61" class="edge">
<title>Node4&#45;&gt;Node35</title>
<path fill="none" stroke="midnightblue" d="M681.53,-515.32C672.48,-507.65 661.11,-496.25 652.88,-486.8"/>
<polygon fill="midnightblue" stroke="midnightblue" points="655.4,-484.36 646.36,-478.83 649.98,-488.79 655.4,-484.36"/>
</g>
<!-- Node36 -->
<g id="node36" class="node">
<title>Node36</title>
<g id="a_node36"><a xlink:href="_all_squad_templates_8h.html" target="_top" xlink:title=" ">
<polygon fill="white" stroke="black" points="226.5,-459.5 226.5,-478.5 335.5,-478.5 335.5,-459.5 226.5,-459.5"/>
<text text-anchor="middle" x="281" y="-466.5" font-family="Helvetica,sans-Serif" font-size="10.00">AllSquadTemplates.h</text>
</a>
</g>
</g>
<!-- Node4&#45;&gt;Node36 -->
<g id="edge66" class="edge">
<title>Node4&#45;&gt;Node36</title>
<path fill="none" stroke="midnightblue" d="M674.47,-521.32C615.12,-513.58 441.51,-490.94 345.94,-478.47"/>
<polygon fill="midnightblue" stroke="midnightblue" points="346.18,-474.97 335.81,-477.15 345.27,-481.91 346.18,-474.97"/>
</g>
<!-- Node6 -->
<g id="node6" class="node">
<title>Node6</title>
<g id="a_node6"><a xlink:href="game_object_8h.html" target="_top" xlink:title=" ">
<polygon fill="white" stroke="black" points="414.5,-168.5 414.5,-187.5 491.5,-187.5 491.5,-168.5 414.5,-168.5"/>
<text text-anchor="middle" x="453" y="-175.5" font-family="Helvetica,sans-Serif" font-size="10.00">gameObject.h</text>
</a>
</g>
</g>
<!-- Node5&#45;&gt;Node6 -->
<g id="edge5" class="edge">
<title>Node5&#45;&gt;Node6</title>
<path fill="none" stroke="midnightblue" d="M674.02,-336.46C652.4,-320.98 615.57,-296.12 581,-280 533.61,-257.9 504.66,-282.24 469,-244 457.49,-231.66 453.89,-212.41 452.93,-198.06"/>
<polygon fill="midnightblue" stroke="midnightblue" points="456.42,-197.71 452.62,-187.82 449.42,-197.92 456.42,-197.71"/>
</g>
<!-- Node7 -->
<g id="node7" class="node">
<title>Node7</title>
<g id="a_node7"><a xlink:title=" ">
<polygon fill="white" stroke="#bfbfbf" points="438.5,-112.5 438.5,-131.5 467.5,-131.5 467.5,-112.5 438.5,-112.5"/>
<text text-anchor="middle" x="453" y="-119.5" font-family="Helvetica,sans-Serif" font-size="10.00">list</text>
</a>
</g>
</g>
<!-- Node6&#45;&gt;Node7 -->
<g id="edge6" class="edge">
<title>Node6&#45;&gt;Node7</title>
<path fill="none" stroke="midnightblue" d="M453,-168.08C453,-161.01 453,-150.86 453,-141.99"/>
<polygon fill="midnightblue" stroke="midnightblue" points="456.5,-141.75 453,-131.75 449.5,-141.75 456.5,-141.75"/>
</g>
<!-- Node6&#45;&gt;Node8 -->
<g id="edge7" class="edge">
<title>Node6&#45;&gt;Node8</title>
<path fill="none" stroke="midnightblue" d="M491.57,-171.41C500.87,-170.17 510.78,-168.95 520,-168 732.18,-146.11 986.1,-131.29 1092.36,-125.6"/>
<polygon fill="midnightblue" stroke="midnightblue" points="1092.67,-129.09 1102.47,-125.06 1092.3,-122.1 1092.67,-129.09"/>
</g>
<!-- Node13 -->
<g id="node13" class="node">
<title>Node13</title>
<g id="a_node13"><a xlink:href="engine_2_action_8h.html" target="_top" xlink:title=" ">
<polygon fill="white" stroke="black" points="178.5,-112.5 178.5,-131.5 261.5,-131.5 261.5,-112.5 178.5,-112.5"/>
<text text-anchor="middle" x="220" y="-119.5" font-family="Helvetica,sans-Serif" font-size="10.00">engine/Action.h</text>
</a>
</g>
</g>
<!-- Node6&#45;&gt;Node13 -->
<g id="edge12" class="edge">
<title>Node6&#45;&gt;Node13</title>
<path fill="none" stroke="midnightblue" d="M416.08,-168.44C375.6,-159.06 310.58,-143.99 266.62,-133.8"/>
<polygon fill="midnightblue" stroke="midnightblue" points="267.28,-130.36 256.75,-131.52 265.7,-137.18 267.28,-130.36"/>
</g>
<!-- Node9 -->
<g id="node9" class="node">
<title>Node9</title>
<g id="a_node9"><a xlink:href="_s_f_m_l_facade_8h.html" target="_top" xlink:title=" ">
<polygon fill="white" stroke="black" points="1160.5,-56.5 1160.5,-75.5 1283.5,-75.5 1283.5,-56.5 1160.5,-56.5"/>
<text text-anchor="middle" x="1222" y="-63.5" font-family="Helvetica,sans-Serif" font-size="10.00">graphics/SFMLFacade.h</text>
</a>
</g>
</g>
<!-- Node8&#45;&gt;Node9 -->
<g id="edge8" class="edge">
<title>Node8&#45;&gt;Node9</title>
<path fill="none" stroke="midnightblue" d="M1155.69,-112.32C1167.9,-103.98 1186.58,-91.21 1201,-81.35"/>
<polygon fill="midnightblue" stroke="midnightblue" points="1203.06,-84.19 1209.34,-75.65 1199.11,-78.41 1203.06,-84.19"/>
</g>
<!-- Node12 -->
<g id="node12" class="node">
<title>Node12</title>
<g id="a_node12"><a xlink:title=" ">
<polygon fill="white" stroke="#bfbfbf" points="1044,-56.5 1044,-75.5 1142,-75.5 1142,-56.5 1044,-56.5"/>
<text text-anchor="middle" x="1093" y="-63.5" font-family="Helvetica,sans-Serif" font-size="10.00">nlohmann/json.hpp</text>
</a>
</g>
</g>
<!-- Node8&#45;&gt;Node12 -->
<g id="edge11" class="edge">
<title>Node8&#45;&gt;Node12</title>
<path fill="none" stroke="midnightblue" d="M1134.74,-112.08C1127.54,-104.3 1116.89,-92.8 1108.15,-83.37"/>
<polygon fill="midnightblue" stroke="midnightblue" points="1110.47,-80.71 1101.1,-75.75 1105.33,-85.47 1110.47,-80.71"/>
</g>
<!-- Node10 -->
<g id="node10" class="node">
<title>Node10</title>
<g id="a_node10"><a xlink:title=" ">
<polygon fill="white" stroke="#bfbfbf" points="1170,-0.5 1170,-19.5 1274,-19.5 1274,-0.5 1170,-0.5"/>
<text text-anchor="middle" x="1222" y="-7.5" font-family="Helvetica,sans-Serif" font-size="10.00">SFML/Graphics.hpp</text>
</a>
</g>
</g>
<!-- Node9&#45;&gt;Node10 -->
<g id="edge9" class="edge">
<title>Node9&#45;&gt;Node10</title>
<path fill="none" stroke="midnightblue" d="M1222,-56.08C1222,-49.01 1222,-38.86 1222,-29.99"/>
<polygon fill="midnightblue" stroke="midnightblue" points="1225.5,-29.75 1222,-19.75 1218.5,-29.75 1225.5,-29.75"/>
</g>
<!-- Node9&#45;&gt;Node11 -->
<g id="edge10" class="edge">
<title>Node9&#45;&gt;Node11</title>
<path fill="none" stroke="midnightblue" d="M1189.36,-56.44C1152.6,-46.81 1092.93,-31.17 1054.07,-20.98"/>
<polygon fill="midnightblue" stroke="midnightblue" points="1054.75,-17.54 1044.19,-18.39 1052.97,-24.31 1054.75,-17.54"/>
</g>
<!-- Node13&#45;&gt;Node14 -->
<g id="edge13" class="edge">
<title>Node13&#45;&gt;Node14</title>
<path fill="none" stroke="midnightblue" d="M202.33,-112.32C184.61,-103.62 157.1,-90.12 136.71,-80.11"/>
<polygon fill="midnightblue" stroke="midnightblue" points="138.15,-76.92 127.63,-75.65 135.06,-83.2 138.15,-76.92"/>
</g>
<!-- Node15 -->
<g id="node15" class="node">
<title>Node15</title>
<g id="a_node15"><a xlink:title=" ">
<polygon fill="white" stroke="#bfbfbf" points="534.5,-56.5 534.5,-75.5 585.5,-75.5 585.5,-56.5 534.5,-56.5"/>
<text text-anchor="middle" x="560" y="-63.5" font-family="Helvetica,sans-Serif" font-size="10.00">memory</text>
</a>
</g>
</g>
<!-- Node13&#45;&gt;Node15 -->
<g id="edge14" class="edge">
<title>Node13&#45;&gt;Node15</title>
<path fill="none" stroke="midnightblue" d="M261.69,-114.38C329.22,-103.65 461.31,-82.67 524.58,-72.63"/>
<polygon fill="midnightblue" stroke="midnightblue" points="525.15,-76.08 534.48,-71.05 524.05,-69.17 525.15,-76.08"/>
</g>
<!-- Node17 -->
<g id="node17" class="node">
<title>Node17</title>
<g id="a_node17"><a xlink:title=" ">
<polygon fill="white" stroke="#bfbfbf" points="712,-168.5 712,-187.5 756,-187.5 756,-168.5 712,-168.5"/>
<text text-anchor="middle" x="734" y="-175.5" font-family="Helvetica,sans-Serif" font-size="10.00">vector</text>
</a>
</g>
</g>
<!-- Node16&#45;&gt;Node17 -->
<g id="edge16" class="edge">
<title>Node16&#45;&gt;Node17</title>
<path fill="none" stroke="midnightblue" d="M299.01,-403.26C296.83,-379.36 294.46,-312.59 331,-280 382.43,-234.14 574.46,-268.16 639,-244 647.16,-240.94 688.31,-211.87 713.7,-193.66"/>
<polygon fill="midnightblue" stroke="midnightblue" points="715.87,-196.41 721.94,-187.73 711.78,-190.73 715.87,-196.41"/>
</g>
<!-- Node16&#45;&gt;Node18 -->
<g id="edge17" class="edge">
<title>Node16&#45;&gt;Node18</title>
<path fill="none" stroke="midnightblue" d="M264.29,-404.65C217.67,-394.86 138.74,-377.55 111,-367 109.8,-366.54 108.58,-366.04 107.36,-365.51"/>
<polygon fill="midnightblue" stroke="midnightblue" points="108.77,-362.3 98.25,-361.04 105.68,-368.59 108.77,-362.3"/>
</g>
<!-- Node19 -->
<g id="node19" class="node">
<title>Node19</title>
<g id="a_node19"><a xlink:title=" ">
<polygon fill="white" stroke="#bfbfbf" points="120,-342 120,-361 248,-361 248,-342 120,-342"/>
<text text-anchor="middle" x="184" y="-349" font-family="Helvetica,sans-Serif" font-size="10.00">scanline_triangulation.hpp</text>
</a>
</g>
</g>
<!-- Node16&#45;&gt;Node19 -->
<g id="edge18" class="edge">
<title>Node16&#45;&gt;Node19</title>
<path fill="none" stroke="midnightblue" d="M283.38,-403.48C264.08,-393.58 232.04,-377.14 209.57,-365.62"/>
<polygon fill="midnightblue" stroke="midnightblue" points="211.08,-362.46 200.59,-361.01 207.89,-368.69 211.08,-362.46"/>
</g>
<!-- Node20&#45;&gt;Node15 -->
<g id="edge23" class="edge">
<title>Node20&#45;&gt;Node15</title>
<path fill="none" stroke="midnightblue" d="M984.15,-280.26C955.16,-259.13 877.91,-204.34 808,-168 734.68,-129.89 643.61,-96.01 594.79,-78.86"/>
<polygon fill="midnightblue" stroke="midnightblue" points="595.92,-75.54 585.32,-75.56 593.61,-82.15 595.92,-75.54"/>
</g>
<!-- Node21 -->
<g id="node21" class="node">
<title>Node21</title>
<g id="a_node21"><a xlink:href="_flag_8h.html" target="_top" xlink:title=" ">
<polygon fill="white" stroke="black" points="982.5,-224.5 982.5,-243.5 1025.5,-243.5 1025.5,-224.5 982.5,-224.5"/>
<text text-anchor="middle" x="1004" y="-231.5" font-family="Helvetica,sans-Serif" font-size="10.00">Flag.h</text>
</a>
</g>
</g>
<!-- Node20&#45;&gt;Node21 -->
<g id="edge20" class="edge">
<title>Node20&#45;&gt;Node21</title>
<path fill="none" stroke="midnightblue" d="M997.32,-280.08C998.38,-272.93 999.91,-262.64 1001.23,-253.69"/>
<polygon fill="midnightblue" stroke="midnightblue" points="1004.7,-254.16 1002.7,-243.75 997.78,-253.13 1004.7,-254.16"/>
</g>
<!-- Node21&#45;&gt;Node3 -->
<g id="edge22" class="edge">
<title>Node21&#45;&gt;Node3</title>
<path fill="none" stroke="midnightblue" d="M1025.66,-228.3C1070.05,-218.68 1171.44,-196.69 1222.47,-185.62"/>
<polygon fill="midnightblue" stroke="midnightblue" points="1223.24,-189.04 1232.27,-183.5 1221.75,-182.2 1223.24,-189.04"/>
</g>
<!-- Node21&#45;&gt;Node17 -->
<g id="edge21" class="edge">
<title>Node21&#45;&gt;Node17</title>
<path fill="none" stroke="midnightblue" d="M982.36,-228.67C934.98,-219.2 821.87,-196.57 766.15,-185.43"/>
<polygon fill="midnightblue" stroke="midnightblue" points="766.61,-181.95 756.12,-183.42 765.24,-188.82 766.61,-181.95"/>
</g>
<!-- Node22&#45;&gt;Node4 -->
<g id="edge27" class="edge">
<title>Node22&#45;&gt;Node4</title>
<path fill="none" stroke="midnightblue" d="M884.31,-422.53C882.06,-436.43 868.91,-463.9 849,-479 812.71,-506.53 759.35,-517.4 725.73,-521.55"/>
<polygon fill="midnightblue" stroke="midnightblue" points="725.1,-518.1 715.55,-522.68 725.87,-525.06 725.1,-518.1"/>
</g>
<!-- Node22&#45;&gt;Node5 -->
<g id="edge39" class="edge">
<title>Node22&#45;&gt;Node5</title>
<path fill="none" stroke="midnightblue" d="M855.72,-403.73C827.81,-394.94 782.91,-380.81 747.34,-369.61"/>
<polygon fill="midnightblue" stroke="midnightblue" points="748.16,-366.2 737.57,-366.53 746.06,-372.87 748.16,-366.2"/>
</g>
<!-- Node22&#45;&gt;Node8 -->
<g id="edge43" class="edge">
<title>Node22&#45;&gt;Node8</title>
<path fill="none" stroke="midnightblue" d="M908.12,-406.43C956.24,-394.45 1054,-361.46 1054,-291 1054,-291 1054,-291 1054,-233 1054,-202.77 1055.81,-192.14 1074,-168 1084.21,-154.45 1099.77,-143.8 1113.54,-136.26"/>
<polygon fill="midnightblue" stroke="midnightblue" points="1115.4,-139.24 1122.69,-131.55 1112.2,-133.02 1115.4,-139.24"/>
</g>
<!-- Node22&#45;&gt;Node11 -->
<g id="edge44" class="edge">
<title>Node22&#45;&gt;Node11</title>
<path fill="none" stroke="midnightblue" d="M908.08,-404.38C925.88,-397.66 948.13,-385.94 959,-367 973.83,-341.16 957.83,-329.78 957,-300 956.75,-291.11 956.12,-288.85 957,-280 967.05,-178.95 976.88,-154.39 1002,-56 1004.28,-47.07 1007.26,-37.29 1009.89,-29.13"/>
<polygon fill="midnightblue" stroke="midnightblue" points="1013.24,-30.14 1013.05,-19.55 1006.59,-27.95 1013.24,-30.14"/>
</g>
<!-- Node22&#45;&gt;Node23 -->
<g id="edge28" class="edge">
<title>Node22&#45;&gt;Node23</title>
<path fill="none" stroke="midnightblue" d="M908.04,-405.97C955.85,-395.87 1058.22,-375.44 1123.16,-362.96"/>
<polygon fill="midnightblue" stroke="midnightblue" points="1124.09,-366.34 1133.25,-361.03 1122.77,-359.47 1124.09,-366.34"/>
</g>
<!-- Node28 -->
<g id="node28" class="node">
<title>Node28</title>
<g id="a_node28"><a xlink:href="_game_logic_2_squad_2_action_8h.html" target="_top" xlink:title=" ">
<polygon fill="white" stroke="black" points="814,-342 814,-361 950,-361 950,-342 814,-342"/>
<text text-anchor="middle" x="882" y="-349" font-family="Helvetica,sans-Serif" font-size="10.00">GameLogic/Squad/Action.h</text>
</a>
</g>
</g>
<!-- Node22&#45;&gt;Node28 -->
<g id="edge40" class="edge">
<title>Node22&#45;&gt;Node28</title>
<path fill="none" stroke="midnightblue" d="M877.1,-403.48C875.27,-395.08 874.8,-381.98 875.69,-371.16"/>
<polygon fill="midnightblue" stroke="midnightblue" points="879.19,-371.4 877.1,-361.01 872.25,-370.43 879.19,-371.4"/>
</g>
<!-- Node23&#45;&gt;Node20 -->
<g id="edge34" class="edge">
<title>Node23&#45;&gt;Node20</title>
<path fill="none" stroke="midnightblue" d="M1154.49,-341.98C1122.35,-331.64 1068.01,-314.16 1032.07,-302.6"/>
<polygon fill="midnightblue" stroke="midnightblue" points="1033.05,-299.24 1022.46,-299.51 1030.9,-305.9 1033.05,-299.24"/>
</g>
<!-- Node23&#45;&gt;Node22 -->
<g id="edge33" class="edge">
<title>Node23&#45;&gt;Node22</title>
<path fill="none" stroke="midnightblue" d="M1143.13,-361.01C1085.11,-373.08 975.31,-394.9 918.26,-405.65"/>
<polygon fill="midnightblue" stroke="midnightblue" points="917.43,-402.25 908.25,-407.53 918.72,-409.13 917.43,-402.25"/>
</g>
<!-- Node24 -->
<g id="node24" class="node">
<title>Node24</title>
<g id="a_node24"><a xlink:title=" ">
<polygon fill="white" stroke="#bfbfbf" points="1120.5,-280.5 1120.5,-299.5 1163.5,-299.5 1163.5,-280.5 1120.5,-280.5"/>
<text text-anchor="middle" x="1142" y="-287.5" font-family="Helvetica,sans-Serif" font-size="10.00">cstdio</text>
</a>
</g>
</g>
<!-- Node23&#45;&gt;Node24 -->
<g id="edge29" class="edge">
<title>Node23&#45;&gt;Node24</title>
<path fill="none" stroke="midnightblue" d="M1175.41,-341.98C1169.62,-333.14 1160.41,-319.09 1153.13,-307.98"/>
<polygon fill="midnightblue" stroke="midnightblue" points="1155.99,-305.95 1147.58,-299.51 1150.13,-309.79 1155.99,-305.95"/>
</g>
<!-- Node25 -->
<g id="node25" class="node">
<title>Node25</title>
<g id="a_node25"><a xlink:href="_unit_order_8h.html" target="_top" xlink:title=" ">
<polygon fill="white" stroke="black" points="1220,-280.5 1220,-299.5 1286,-299.5 1286,-280.5 1220,-280.5"/>
<text text-anchor="middle" x="1253" y="-287.5" font-family="Helvetica,sans-Serif" font-size="10.00">UnitOrder.h</text>
</a>
</g>
</g>
<!-- Node23&#45;&gt;Node25 -->
<g id="edge30" class="edge">
<title>Node23&#45;&gt;Node25</title>
<path fill="none" stroke="midnightblue" d="M1186.42,-341.98C1195.79,-332.52 1214.12,-317.1 1229.31,-305.69"/>
<polygon fill="midnightblue" stroke="midnightblue" points="1231.78,-308.22 1237.81,-299.51 1227.66,-302.56 1231.78,-308.22"/>
</g>
<!-- Node26 -->
<g id="node26" class="node">
<title>Node26</title>
<g id="a_node26"><a xlink:href="_textures_8h.html" target="_top" xlink:title=" ">
<polygon fill="white" stroke="black" points="1122.5,-224.5 1122.5,-243.5 1223.5,-243.5 1223.5,-224.5 1122.5,-224.5"/>
<text text-anchor="middle" x="1173" y="-231.5" font-family="Helvetica,sans-Serif" font-size="10.00">graphics/Textures.h</text>
</a>
</g>
</g>
<!-- Node23&#45;&gt;Node26 -->
<g id="edge35" class="edge">
<title>Node23&#45;&gt;Node26</title>
<path fill="none" stroke="midnightblue" d="M1180.4,-341.82C1179.11,-323.26 1176.07,-279.34 1174.31,-253.97"/>
<polygon fill="midnightblue" stroke="midnightblue" points="1177.79,-253.52 1173.61,-243.78 1170.81,-254 1177.79,-253.52"/>
</g>
<!-- Node25&#45;&gt;Node3 -->
<g id="edge31" class="edge">
<title>Node25&#45;&gt;Node3</title>
<path fill="none" stroke="midnightblue" d="M1253,-280.37C1253,-262.62 1253,-221.67 1253,-197.6"/>
<polygon fill="midnightblue" stroke="midnightblue" points="1256.5,-197.59 1253,-187.59 1249.5,-197.59 1256.5,-197.59"/>
</g>
<!-- Node25&#45;&gt;Node23 -->
<g id="edge32" class="edge">
<title>Node25&#45;&gt;Node23</title>
<path fill="none" stroke="midnightblue" d="M1247.6,-299.51C1238.23,-308.96 1219.91,-324.38 1204.71,-335.79"/>
<polygon fill="midnightblue" stroke="midnightblue" points="1202.24,-333.26 1196.22,-341.98 1206.36,-338.92 1202.24,-333.26"/>
</g>
<!-- Node26&#45;&gt;Node8 -->
<g id="edge36" class="edge">
<title>Node26&#45;&gt;Node8</title>
<path fill="none" stroke="midnightblue" d="M1175.06,-224.33C1177.68,-211.63 1181.18,-187.36 1175,-168 1171.66,-157.54 1164.9,-147.43 1158.45,-139.45"/>
<polygon fill="midnightblue" stroke="midnightblue" points="1160.94,-136.98 1151.75,-131.71 1155.65,-141.56 1160.94,-136.98"/>
</g>
<!-- Node26&#45;&gt;Node17 -->
<g id="edge37" class="edge">
<title>Node26&#45;&gt;Node17</title>
<path fill="none" stroke="midnightblue" d="M1122.21,-226.75C1031.22,-215.56 842.81,-192.38 766.83,-183.04"/>
<polygon fill="midnightblue" stroke="midnightblue" points="766.81,-179.51 756.46,-181.76 765.96,-186.46 766.81,-179.51"/>
</g>
<!-- Node27 -->
<g id="node27" class="node">
<title>Node27</title>
<g id="a_node27"><a xlink:title=" ">
<polygon fill="white" stroke="#bfbfbf" points="1082.5,-168.5 1082.5,-187.5 1165.5,-187.5 1165.5,-168.5 1082.5,-168.5"/>
<text text-anchor="middle" x="1124" y="-175.5" font-family="Helvetica,sans-Serif" font-size="10.00">unordered_map</text>
</a>
</g>
</g>
<!-- Node26&#45;&gt;Node27 -->
<g id="edge38" class="edge">
<title>Node26&#45;&gt;Node27</title>
<path fill="none" stroke="midnightblue" d="M1164.91,-224.08C1157.84,-216.3 1147.41,-204.8 1138.85,-195.37"/>
<polygon fill="midnightblue" stroke="midnightblue" points="1141.25,-192.8 1131.94,-187.75 1136.07,-197.51 1141.25,-192.8"/>
</g>
<!-- Node28&#45;&gt;Node4 -->
<g id="edge42" class="edge">
<title>Node28&#45;&gt;Node4</title>
<path fill="none" stroke="midnightblue" d="M875.66,-361.34C868.54,-371.35 856.7,-388.19 847,-403 825.24,-436.22 830.09,-453.08 800,-479 778.37,-497.63 747.86,-509.54 725.3,-516.39"/>
<polygon fill="midnightblue" stroke="midnightblue" points="724.2,-513.07 715.56,-519.19 726.14,-519.79 724.2,-513.07"/>
</g>
<!-- Node28&#45;&gt;Node22 -->
<g id="edge41" class="edge">
<title>Node28&#45;&gt;Node22</title>
<path fill="none" stroke="midnightblue" d="M886.9,-361.01C888.73,-369.4 889.2,-382.5 888.32,-393.32"/>
<polygon fill="midnightblue" stroke="midnightblue" points="884.81,-393.09 886.9,-403.48 891.75,-394.05 884.81,-393.09"/>
</g>
<!-- Node29&#45;&gt;Node16 -->
<g id="edge49" class="edge">
<title>Node29&#45;&gt;Node16</title>
<path fill="none" stroke="midnightblue" d="M475.04,-459.44C439.21,-450.14 381.84,-435.25 342.61,-425.06"/>
<polygon fill="midnightblue" stroke="midnightblue" points="343.36,-421.64 332.8,-422.52 341.6,-428.42 343.36,-421.64"/>
</g>
<!-- Node29&#45;&gt;Node17 -->
<g id="edge48" class="edge">
<title>Node29&#45;&gt;Node17</title>
<path fill="none" stroke="midnightblue" d="M514.18,-459.42C530.14,-437.54 574.62,-378.4 619,-336 638.02,-317.82 646.37,-317.52 666,-300 691.8,-276.98 703.74,-274.51 720,-244 727.72,-229.52 731.18,-211.07 732.74,-197.53"/>
<polygon fill="midnightblue" stroke="midnightblue" points="736.23,-197.78 733.64,-187.51 729.26,-197.15 736.23,-197.78"/>
</g>
<!-- Node30&#45;&gt;Node13 -->
<g id="edge51" class="edge">
<title>Node30&#45;&gt;Node13</title>
<path fill="none" stroke="midnightblue" d="M148.66,-168.32C161.92,-159.9 182.27,-146.97 197.85,-137.07"/>
<polygon fill="midnightblue" stroke="midnightblue" points="199.81,-139.97 206.38,-131.65 196.06,-134.06 199.81,-139.97"/>
</g>
<!-- Node31&#45;&gt;Node6 -->
<g id="edge54" class="edge">
<title>Node31&#45;&gt;Node6</title>
<path fill="none" stroke="midnightblue" d="M725.42,-285.86C650.46,-280.94 528.18,-269.25 491,-244 474.81,-233.01 464.57,-212.65 458.84,-197.64"/>
<polygon fill="midnightblue" stroke="midnightblue" points="462.04,-196.16 455.46,-187.86 455.42,-198.45 462.04,-196.16"/>
</g>
<!-- Node31&#45;&gt;Node7 -->
<g id="edge53" class="edge">
<title>Node31&#45;&gt;Node7</title>
<path fill="none" stroke="midnightblue" d="M809.69,-280.36C835.71,-269.41 872.09,-248.92 858,-224 834.26,-182 810.44,-184.21 765,-168 662.77,-131.53 531.67,-124.56 477.8,-123.27"/>
<polygon fill="midnightblue" stroke="midnightblue" points="477.86,-119.77 467.8,-123.08 477.73,-126.77 477.86,-119.77"/>
</g>
<!-- Node32 -->
<g id="node32" class="node">
<title>Node32</title>
<g id="a_node32"><a xlink:href="_network_manager_8h.html" target="_top" xlink:title=" ">
<polygon fill="white" stroke="black" points="500,-224.5 500,-243.5 630,-243.5 630,-224.5 500,-224.5"/>
<text text-anchor="middle" x="565" y="-231.5" font-family="Helvetica,sans-Serif" font-size="10.00">engine/NetworkManager.h</text>
</a>
</g>
</g>
<!-- Node31&#45;&gt;Node32 -->
<g id="edge55" class="edge">
<title>Node31&#45;&gt;Node32</title>
<path fill="none" stroke="midnightblue" d="M750.98,-280.44C712.75,-271.1 651.43,-256.12 609.74,-245.93"/>
<polygon fill="midnightblue" stroke="midnightblue" points="610.4,-242.49 599.85,-243.52 608.74,-249.29 610.4,-242.49"/>
</g>
<!-- Node34 -->
<g id="node34" class="node">
<title>Node34</title>
<g id="a_node34"><a xlink:title=" ">
<polygon fill="white" stroke="#bfbfbf" points="800.5,-224.5 800.5,-243.5 849.5,-243.5 849.5,-224.5 800.5,-224.5"/>
<text text-anchor="middle" x="825" y="-231.5" font-family="Helvetica,sans-Serif" font-size="10.00">random</text>
</a>
</g>
</g>
<!-- Node31&#45;&gt;Node34 -->
<g id="edge60" class="edge">
<title>Node31&#45;&gt;Node34</title>
<path fill="none" stroke="midnightblue" d="M792.44,-280.08C797.95,-272.46 806.03,-261.26 812.76,-251.94"/>
<polygon fill="midnightblue" stroke="midnightblue" points="815.66,-253.91 818.68,-243.75 809.99,-249.81 815.66,-253.91"/>
</g>
<!-- Node32&#45;&gt;Node6 -->
<g id="edge56" class="edge">
<title>Node32&#45;&gt;Node6</title>
<path fill="none" stroke="midnightblue" d="M547.01,-224.32C528.96,-215.62 500.95,-202.12 480.2,-192.11"/>
<polygon fill="midnightblue" stroke="midnightblue" points="481.48,-188.84 470.95,-187.65 478.44,-195.15 481.48,-188.84"/>
</g>
<!-- Node32&#45;&gt;Node17 -->
<g id="edge58" class="edge">
<title>Node32&#45;&gt;Node17</title>
<path fill="none" stroke="midnightblue" d="M591.78,-224.44C621.76,-214.86 670.31,-199.35 702.2,-189.16"/>
<polygon fill="midnightblue" stroke="midnightblue" points="703.46,-192.43 711.92,-186.05 701.33,-185.76 703.46,-192.43"/>
</g>
<!-- Node32&#45;&gt;Node30 -->
<g id="edge57" class="edge">
<title>Node32&#45;&gt;Node30</title>
<path fill="none" stroke="midnightblue" d="M499.69,-224.8C419.14,-214.68 282.95,-197.58 201.75,-187.38"/>
<polygon fill="midnightblue" stroke="midnightblue" points="202,-183.89 191.64,-186.11 201.12,-190.83 202,-183.89"/>
</g>
<!-- Node33 -->
<g id="node33" class="node">
<title>Node33</title>
<g id="a_node33"><a xlink:title=" ">
<polygon fill="white" stroke="#bfbfbf" points="529.5,-168.5 529.5,-187.5 600.5,-187.5 600.5,-168.5 529.5,-168.5"/>
<text text-anchor="middle" x="565" y="-175.5" font-family="Helvetica,sans-Serif" font-size="10.00">sys/socket.h</text>
</a>
</g>
</g>
<!-- Node32&#45;&gt;Node33 -->
<g id="edge59" class="edge">
<title>Node32&#45;&gt;Node33</title>
<path fill="none" stroke="midnightblue" d="M565,-224.08C565,-217.01 565,-206.86 565,-197.99"/>
<polygon fill="midnightblue" stroke="midnightblue" points="568.5,-197.75 565,-187.75 561.5,-197.75 568.5,-197.75"/>
</g>
<!-- Node35&#45;&gt;Node4 -->
<g id="edge64" class="edge">
<title>Node35&#45;&gt;Node4</title>
<path fill="none" stroke="midnightblue" d="M656.56,-478.75C665.57,-486.4 676.88,-497.74 685.08,-507.14"/>
<polygon fill="midnightblue" stroke="midnightblue" points="682.53,-509.57 691.58,-515.08 687.95,-505.13 682.53,-509.57"/>
</g>
<!-- Node35&#45;&gt;Node13 -->
<g id="edge62" class="edge">
<title>Node35&#45;&gt;Node13</title>
<path fill="none" stroke="midnightblue" d="M580.38,-459.49C508.96,-449.43 399.82,-432.8 383,-423 274.93,-360.06 234.27,-197.08 223.32,-141.72"/>
<polygon fill="midnightblue" stroke="midnightblue" points="226.71,-140.8 221.42,-131.62 219.83,-142.09 226.71,-140.8"/>
</g>
<!-- Node35&#45;&gt;Node22 -->
<g id="edge63" class="edge">
<title>Node35&#45;&gt;Node22</title>
<path fill="none" stroke="midnightblue" d="M680.87,-459.44C726.17,-449.21 801.46,-432.2 845.94,-422.15"/>
<polygon fill="midnightblue" stroke="midnightblue" points="846.77,-425.55 855.75,-419.93 845.23,-418.72 846.77,-425.55"/>
</g>
<!-- Node36&#45;&gt;Node1 -->
<g id="edge79" class="edge">
<title>Node36&#45;&gt;Node1</title>
<path fill="none" stroke="midnightblue" d="M300.27,-478.56C360.04,-505.12 543.25,-586.52 625.85,-623.22"/>
<polygon fill="midnightblue" stroke="midnightblue" points="624.85,-626.6 635.41,-627.47 627.69,-620.21 624.85,-626.6"/>
</g>
<!-- Node37 -->
<g id="node37" class="node">
<title>Node37</title>
<g id="a_node37"><a xlink:href="_squad_template_8h.html" target="_top" xlink:title=" ">
<polygon fill="white" stroke="black" points="392,-403.5 392,-422.5 484,-422.5 484,-403.5 392,-403.5"/>
<text text-anchor="middle" x="438" y="-410.5" font-family="Helvetica,sans-Serif" font-size="10.00">SquadTemplate.h</text>
</a>
</g>
</g>
<!-- Node36&#45;&gt;Node37 -->
<g id="edge67" class="edge">
<title>Node36&#45;&gt;Node37</title>
<path fill="none" stroke="midnightblue" d="M305.88,-459.44C332.29,-450.36 374.22,-435.94 403.74,-425.78"/>
<polygon fill="midnightblue" stroke="midnightblue" points="404.92,-429.08 413.24,-422.52 402.64,-422.46 404.92,-429.08"/>
</g>
<!-- Node37&#45;&gt;Node2 -->
<g id="edge69" class="edge">
<title>Node37&#45;&gt;Node2</title>
<path fill="none" stroke="midnightblue" d="M438.49,-422.78C439.7,-436.52 443.98,-463.17 459,-479 520.36,-543.69 627.6,-567.43 684.69,-575.76"/>
<polygon fill="midnightblue" stroke="midnightblue" points="684.36,-579.25 694.75,-577.15 685.32,-572.32 684.36,-579.25"/>
</g>
<!-- Node37&#45;&gt;Node17 -->
<g id="edge68" class="edge">
<title>Node37&#45;&gt;Node17</title>
<path fill="none" stroke="midnightblue" d="M456.39,-403.4C474.28,-394.83 502.04,-380.96 525,-367 605.92,-317.79 636.22,-314.9 699,-244 711.32,-230.08 720.92,-211.07 726.92,-197.21"/>
<polygon fill="midnightblue" stroke="midnightblue" points="730.23,-198.36 730.79,-187.78 723.76,-195.7 730.23,-198.36"/>
</g>
<!-- Node38 -->
<g id="node38" class="node">
<title>Node38</title>
<g id="a_node38"><a xlink:href="_gui_list_8h.html" target="_top" xlink:title=" ">
<polygon fill="white" stroke="black" points="464,-280.5 464,-299.5 572,-299.5 572,-280.5 464,-280.5"/>
<text text-anchor="middle" x="518" y="-287.5" font-family="Helvetica,sans-Serif" font-size="10.00">engine/GUI/GuiList.h</text>
</a>
</g>
</g>
<!-- Node37&#45;&gt;Node38 -->
<g id="edge70" class="edge">
<title>Node37&#45;&gt;Node38</title>
<path fill="none" stroke="midnightblue" d="M458.96,-403.42C474.21,-396.06 494.04,-383.94 505,-367 516,-350 518.54,-326.55 518.78,-310.21"/>
<polygon fill="midnightblue" stroke="midnightblue" points="522.27,-309.72 518.63,-299.77 515.27,-309.81 522.27,-309.72"/>
</g>
<!-- Node40 -->
<g id="node40" class="node">
<title>Node40</title>
<g id="a_node40"><a xlink:href="_gui_scroll_8h.html" target="_top" xlink:title=" ">
<polygon fill="white" stroke="black" points="380,-342 380,-361 496,-361 496,-342 380,-342"/>
<text text-anchor="middle" x="438" y="-349" font-family="Helvetica,sans-Serif" font-size="10.00">engine/GUI/GuiScroll.h</text>
</a>
</g>
</g>
<!-- Node37&#45;&gt;Node40 -->
<g id="edge74" class="edge">
<title>Node37&#45;&gt;Node40</title>
<path fill="none" stroke="midnightblue" d="M438,-403.48C438,-395.08 438,-381.98 438,-371.16"/>
<polygon fill="midnightblue" stroke="midnightblue" points="441.5,-371.01 438,-361.01 434.5,-371.01 441.5,-371.01"/>
</g>
<!-- Node41 -->
<g id="node41" class="node">
<title>Node41</title>
<g id="a_node41"><a xlink:href="_button_8h.html" target="_top" xlink:title=" ">
<polygon fill="white" stroke="black" points="340.5,-280.5 340.5,-299.5 445.5,-299.5 445.5,-280.5 340.5,-280.5"/>
<text text-anchor="middle" x="393" y="-287.5" font-family="Helvetica,sans-Serif" font-size="10.00">engine/GUI/Button.h</text>
</a>
</g>
</g>
<!-- Node37&#45;&gt;Node41 -->
<g id="edge77" class="edge">
<title>Node37&#45;&gt;Node41</title>
<path fill="none" stroke="midnightblue" d="M415.21,-403.47C399.67,-396.32 380.29,-384.44 371,-367 361.05,-348.33 371.04,-324.61 380.57,-308.68"/>
<polygon fill="midnightblue" stroke="midnightblue" points="383.77,-310.18 386.27,-299.88 377.9,-306.37 383.77,-310.18"/>
</g>
<!-- Node38&#45;&gt;Node17 -->
<g id="edge73" class="edge">
<title>Node38&#45;&gt;Node17</title>
<path fill="none" stroke="midnightblue" d="M571.8,-280.48C602.74,-273.87 641.42,-262.61 672,-244 692.52,-231.51 710.79,-210.52 722.09,-195.78"/>
<polygon fill="midnightblue" stroke="midnightblue" points="725.05,-197.66 728.19,-187.54 719.43,-193.5 725.05,-197.66"/>
</g>
<!-- Node39 -->
<g id="node39" class="node">
<title>Node39</title>
<g id="a_node39"><a xlink:href="_gui_object_8h.html" target="_top" xlink:title=" ">
<polygon fill="white" stroke="black" points="286,-224.5 286,-243.5 406,-243.5 406,-224.5 286,-224.5"/>
<text text-anchor="middle" x="346" y="-231.5" font-family="Helvetica,sans-Serif" font-size="10.00">engine/GUI/GuiObject.h</text>
</a>
</g>
</g>
<!-- Node38&#45;&gt;Node39 -->
<g id="edge71" class="edge">
<title>Node38&#45;&gt;Node39</title>
<path fill="none" stroke="midnightblue" d="M490.75,-280.44C461.56,-271.28 415.08,-256.69 382.69,-246.52"/>
<polygon fill="midnightblue" stroke="midnightblue" points="383.72,-243.17 373.13,-243.52 381.62,-249.85 383.72,-243.17"/>
</g>
<!-- Node39&#45;&gt;Node6 -->
<g id="edge72" class="edge">
<title>Node39&#45;&gt;Node6</title>
<path fill="none" stroke="midnightblue" d="M363.19,-224.32C380.35,-215.66 406.95,-202.24 426.75,-192.25"/>
<polygon fill="midnightblue" stroke="midnightblue" points="428.5,-195.28 435.85,-187.65 425.35,-189.04 428.5,-195.28"/>
</g>
<!-- Node40&#45;&gt;Node7 -->
<g id="edge76" class="edge">
<title>Node40&#45;&gt;Node7</title>
<path fill="none" stroke="midnightblue" d="M406.87,-341.94C351.02,-324.9 242.71,-283.22 277,-224 309.98,-167.05 388.54,-139.43 428.61,-128.67"/>
<polygon fill="midnightblue" stroke="midnightblue" points="429.54,-132.04 438.36,-126.17 427.81,-125.26 429.54,-132.04"/>
</g>
<!-- Node40&#45;&gt;Node38 -->
<g id="edge75" class="edge">
<title>Node40&#45;&gt;Node38</title>
<path fill="none" stroke="midnightblue" d="M449.46,-341.98C462.17,-332.52 482.91,-317.1 498.25,-305.69"/>
<polygon fill="midnightblue" stroke="midnightblue" points="500.62,-308.29 506.56,-299.51 496.45,-302.67 500.62,-308.29"/>
</g>
<!-- Node41&#45;&gt;Node39 -->
<g id="edge78" class="edge">
<title>Node41&#45;&gt;Node39</title>
<path fill="none" stroke="midnightblue" d="M385.24,-280.08C378.46,-272.3 368.46,-260.8 360.24,-251.37"/>
<polygon fill="midnightblue" stroke="midnightblue" points="362.82,-249 353.62,-243.75 357.54,-253.59 362.82,-249"/>
</g>
</g>
</svg>
