<?xml version="1.0" encoding="UTF-8" standalone="no"?>
<!DOCTYPE svg PUBLIC "-//W3C//DTD SVG 1.1//EN"
 "http://www.w3.org/Graphics/SVG/1.1/DTD/svg11.dtd">
<!-- Generated by graphviz version 2.47.0 (20210407.0042)
 -->
<!-- Title: src/GameLogic/Units/AllUnits.cpp Pages: 1 -->
<svg width="1611pt" height="666pt"
 viewBox="0.00 0.00 1611.47 666.00" xmlns="http://www.w3.org/2000/svg" xmlns:xlink="http://www.w3.org/1999/xlink">
<g id="graph0" class="graph" transform="scale(1 1) rotate(0) translate(4 662)">
<title>src/GameLogic/Units/AllUnits.cpp</title>
<polygon fill="white" stroke="transparent" points="-4,4 -4,-662 1607.47,-662 1607.47,4 -4,4"/>
<!-- Node1 -->
<g id="node1" class="node">
<title>Node1</title>
<g id="a_node1"><a xlink:title=" ">
<polygon fill="#bfbfbf" stroke="black" points="1211.47,-627.5 1211.47,-657.5 1321.47,-657.5 1321.47,-627.5 1211.47,-627.5"/>
<text text-anchor="start" x="1219.47" y="-645.5" font-family="Helvetica,sans-Serif" font-size="10.00">src/GameLogic/Units</text>
<text text-anchor="middle" x="1266.47" y="-634.5" font-family="Helvetica,sans-Serif" font-size="10.00">/AllUnits.cpp</text>
</a>
</g>
</g>
<!-- Node2 -->
<g id="node2" class="node">
<title>Node2</title>
<g id="a_node2"><a xlink:href="_all_units_8h.html" target="_top" xlink:title=" ">
<polygon fill="white" stroke="black" points="996.47,-571.5 996.47,-590.5 1134.47,-590.5 1134.47,-571.5 996.47,-571.5"/>
<text text-anchor="middle" x="1065.47" y="-578.5" font-family="Helvetica,sans-Serif" font-size="10.00">GameLogic/Units/AllUnits.h</text>
</a>
</g>
</g>
<!-- Node1&#45;&gt;Node2 -->
<g id="edge1" class="edge">
<title>Node1&#45;&gt;Node2</title>
<path fill="none" stroke="midnightblue" d="M1219.09,-627.47C1183.96,-617.08 1136.68,-603.08 1103.89,-593.37"/>
<polygon fill="midnightblue" stroke="midnightblue" points="1104.79,-589.99 1094.21,-590.51 1102.8,-596.7 1104.79,-589.99"/>
</g>
<!-- Node27 -->
<g id="node27" class="node">
<title>Node27</title>
<g id="a_node27"><a xlink:href="_textures_8h.html" target="_top" xlink:title=" ">
<polygon fill="white" stroke="black" points="1327.97,-224.5 1327.97,-243.5 1428.97,-243.5 1428.97,-224.5 1327.97,-224.5"/>
<text text-anchor="middle" x="1378.47" y="-231.5" font-family="Helvetica,sans-Serif" font-size="10.00">graphics/Textures.h</text>
</a>
</g>
</g>
<!-- Node1&#45;&gt;Node27 -->
<g id="edge81" class="edge">
<title>Node1&#45;&gt;Node27</title>
<path fill="none" stroke="midnightblue" d="M1321.63,-635.24C1384.15,-624.71 1477.47,-597.1 1477.47,-526 1477.47,-526 1477.47,-526 1477.47,-356 1477.47,-321.18 1479.59,-307.68 1458.47,-280 1447.34,-265.42 1430.05,-254.85 1414.38,-247.64"/>
<polygon fill="midnightblue" stroke="midnightblue" points="1415.48,-244.3 1404.91,-243.57 1412.72,-250.73 1415.48,-244.3"/>
</g>
<!-- Node41 -->
<g id="node41" class="node">
<title>Node41</title>
<g id="a_node41"><a xlink:href="_land_unit_factory_8h.html" target="_top" xlink:title=" ">
<polygon fill="white" stroke="black" points="1218.47,-571.5 1218.47,-590.5 1314.47,-590.5 1314.47,-571.5 1218.47,-571.5"/>
<text text-anchor="middle" x="1266.47" y="-578.5" font-family="Helvetica,sans-Serif" font-size="10.00">LandUnitFactory.h</text>
</a>
</g>
</g>
<!-- Node1&#45;&gt;Node41 -->
<g id="edge77" class="edge">
<title>Node1&#45;&gt;Node41</title>
<path fill="none" stroke="midnightblue" d="M1266.47,-627.4C1266.47,-619.47 1266.47,-609.46 1266.47,-600.86"/>
<polygon fill="midnightblue" stroke="midnightblue" points="1269.97,-600.66 1266.47,-590.66 1262.97,-600.66 1269.97,-600.66"/>
</g>
<!-- Node3 -->
<g id="node3" class="node">
<title>Node3</title>
<g id="a_node3"><a xlink:href="_factory_8h.html" target="_top" xlink:title=" ">
<polygon fill="white" stroke="black" points="1176.47,-515.5 1176.47,-534.5 1232.47,-534.5 1232.47,-515.5 1176.47,-515.5"/>
<text text-anchor="middle" x="1204.47" y="-522.5" font-family="Helvetica,sans-Serif" font-size="10.00">Factory.h</text>
</a>
</g>
</g>
<!-- Node2&#45;&gt;Node3 -->
<g id="edge2" class="edge">
<title>Node2&#45;&gt;Node3</title>
<path fill="none" stroke="midnightblue" d="M1087.5,-571.44C1110.57,-562.48 1147.03,-548.31 1173.11,-538.18"/>
<polygon fill="midnightblue" stroke="midnightblue" points="1174.49,-541.4 1182.55,-534.52 1171.96,-534.88 1174.49,-541.4"/>
</g>
<!-- Node4 -->
<g id="node4" class="node">
<title>Node4</title>
<g id="a_node4"><a xlink:title=" ">
<polygon fill="white" stroke="#bfbfbf" points="1459.97,-112.5 1459.97,-131.5 1500.97,-131.5 1500.97,-112.5 1459.97,-112.5"/>
<text text-anchor="middle" x="1480.47" y="-119.5" font-family="Helvetica,sans-Serif" font-size="10.00">string</text>
</a>
</g>
</g>
<!-- Node3&#45;&gt;Node4 -->
<g id="edge3" class="edge">
<title>Node3&#45;&gt;Node4</title>
<path fill="none" stroke="midnightblue" d="M1232.53,-522.34C1323.35,-516.21 1603.47,-491.06 1603.47,-414 1603.47,-414 1603.47,-414 1603.47,-233 1603.47,-183.38 1547.16,-150.55 1510.74,-134.5"/>
<polygon fill="midnightblue" stroke="midnightblue" points="1511.63,-131.08 1501.06,-130.42 1508.91,-137.53 1511.63,-131.08"/>
</g>
<!-- Node5 -->
<g id="node5" class="node">
<title>Node5</title>
<g id="a_node5"><a xlink:href="_cell_8h.html" target="_top" xlink:title=" ">
<polygon fill="white" stroke="black" points="915.97,-459.5 915.97,-478.5 956.97,-478.5 956.97,-459.5 915.97,-459.5"/>
<text text-anchor="middle" x="936.47" y="-466.5" font-family="Helvetica,sans-Serif" font-size="10.00">Cell.h</text>
</a>
</g>
</g>
<!-- Node3&#45;&gt;Node5 -->
<g id="edge4" class="edge">
<title>Node3&#45;&gt;Node5</title>
<path fill="none" stroke="midnightblue" d="M1176.3,-518.32C1125.63,-508.11 1019.54,-486.74 967.12,-476.18"/>
<polygon fill="midnightblue" stroke="midnightblue" points="967.58,-472.7 957.09,-474.15 966.2,-479.56 967.58,-472.7"/>
</g>
<!-- Node24 -->
<g id="node24" class="node">
<title>Node24</title>
<g id="a_node24"><a xlink:href="_unit_8h.html" target="_top" xlink:title=" ">
<polygon fill="white" stroke="black" points="1327.47,-286 1327.47,-305 1449.47,-305 1449.47,-286 1327.47,-286"/>
<text text-anchor="middle" x="1388.47" y="-293" font-family="Helvetica,sans-Serif" font-size="10.00">GameLogic/Units/Unit.h</text>
</a>
</g>
</g>
<!-- Node3&#45;&gt;Node24 -->
<g id="edge76" class="edge">
<title>Node3&#45;&gt;Node24</title>
<path fill="none" stroke="midnightblue" d="M1215.67,-515.44C1236.6,-499.08 1282.35,-461.54 1313.47,-423 1342.23,-387.39 1367.49,-339.61 1380.05,-314.17"/>
<polygon fill="midnightblue" stroke="midnightblue" points="1383.28,-315.55 1384.49,-305.02 1376.98,-312.49 1383.28,-315.55"/>
</g>
<!-- Node5&#45;&gt;Node2 -->
<g id="edge66" class="edge">
<title>Node5&#45;&gt;Node2</title>
<path fill="none" stroke="midnightblue" d="M946.55,-478.59C968.36,-497.19 1020.19,-541.39 1047.66,-564.82"/>
<polygon fill="midnightblue" stroke="midnightblue" points="1045.47,-567.54 1055.35,-571.37 1050.01,-562.22 1045.47,-567.54"/>
</g>
<!-- Node6 -->
<g id="node6" class="node">
<title>Node6</title>
<g id="a_node6"><a xlink:href="gameplay_clickable_game_object_8h.html" target="_top" xlink:title=" ">
<polygon fill="white" stroke="black" points="521.97,-280.5 521.97,-310.5 650.97,-310.5 650.97,-280.5 521.97,-280.5"/>
<text text-anchor="start" x="529.97" y="-298.5" font-family="Helvetica,sans-Serif" font-size="10.00">engine/gameplayClickable</text>
<text text-anchor="middle" x="586.47" y="-287.5" font-family="Helvetica,sans-Serif" font-size="10.00">GameObject.h</text>
</a>
</g>
</g>
<!-- Node5&#45;&gt;Node6 -->
<g id="edge5" class="edge">
<title>Node5&#45;&gt;Node6</title>
<path fill="none" stroke="midnightblue" d="M915.7,-467.19C876.29,-464.9 788.86,-456.16 724.47,-423 673.98,-397 628.12,-347.55 604.09,-318.78"/>
<polygon fill="midnightblue" stroke="midnightblue" points="606.68,-316.42 597.63,-310.91 601.27,-320.86 606.68,-316.42"/>
</g>
<!-- Node9 -->
<g id="node9" class="node">
<title>Node9</title>
<g id="a_node9"><a xlink:href="config_8h.html" target="_top" xlink:title=" ">
<polygon fill="white" stroke="black" points="1293.97,-112.5 1293.97,-131.5 1374.97,-131.5 1374.97,-112.5 1293.97,-112.5"/>
<text text-anchor="middle" x="1334.47" y="-119.5" font-family="Helvetica,sans-Serif" font-size="10.00">engine/config.h</text>
</a>
</g>
</g>
<!-- Node5&#45;&gt;Node9 -->
<g id="edge25" class="edge">
<title>Node5&#45;&gt;Node9</title>
<path fill="none" stroke="midnightblue" d="M957.31,-467.96C1023.25,-467.44 1225.97,-462.58 1275.47,-423 1299.52,-403.77 1299.47,-388.8 1299.47,-358 1299.47,-358 1299.47,-358 1299.47,-233 1299.47,-199.07 1314.78,-161.91 1325.15,-140.63"/>
<polygon fill="midnightblue" stroke="midnightblue" points="1328.35,-142.05 1329.75,-131.54 1322.11,-138.88 1328.35,-142.05"/>
</g>
<!-- Node12 -->
<g id="node12" class="node">
<title>Node12</title>
<g id="a_node12"><a xlink:href="_facade_8h.html" target="_top" xlink:title=" ">
<polygon fill="white" stroke="black" points="1233.47,-0.5 1233.47,-19.5 1289.47,-19.5 1289.47,-0.5 1233.47,-0.5"/>
<text text-anchor="middle" x="1261.47" y="-7.5" font-family="Helvetica,sans-Serif" font-size="10.00">Facade.h</text>
</a>
</g>
</g>
<!-- Node5&#45;&gt;Node12 -->
<g id="edge26" class="edge">
<title>Node5&#45;&gt;Node12</title>
<path fill="none" stroke="midnightblue" d="M957.29,-465.56C1029.03,-456.57 1261.47,-422.48 1261.47,-358 1261.47,-358 1261.47,-358 1261.47,-121 1261.47,-88.95 1261.47,-51.64 1261.47,-29.75"/>
<polygon fill="midnightblue" stroke="midnightblue" points="1264.97,-29.56 1261.47,-19.56 1257.97,-29.56 1264.97,-29.56"/>
</g>
<!-- Node15 -->
<g id="node15" class="node">
<title>Node15</title>
<g id="a_node15"><a xlink:title=" ">
<polygon fill="white" stroke="#bfbfbf" points="271.47,-56.5 271.47,-75.5 325.47,-75.5 325.47,-56.5 271.47,-56.5"/>
<text text-anchor="middle" x="298.47" y="-63.5" font-family="Helvetica,sans-Serif" font-size="10.00">iostream</text>
</a>
</g>
</g>
<!-- Node5&#45;&gt;Node15 -->
<g id="edge47" class="edge">
<title>Node5&#45;&gt;Node15</title>
<path fill="none" stroke="midnightblue" d="M915.92,-467.89C818.36,-467.16 401.61,-461.79 278.47,-423 232.45,-408.5 212.82,-406.75 185.47,-367 135.32,-294.13 142.51,-247.42 181.47,-168 201.11,-127.96 244.57,-97.34 272.64,-80.78"/>
<polygon fill="midnightblue" stroke="midnightblue" points="274.56,-83.71 281.51,-75.71 271.09,-77.63 274.56,-83.71"/>
</g>
<!-- Node17 -->
<g id="node17" class="node">
<title>Node17</title>
<g id="a_node17"><a xlink:href="cellgen_8h.html" target="_top" xlink:title=" ">
<polygon fill="white" stroke="black" points="1041.97,-347.5 1041.97,-366.5 1112.97,-366.5 1112.97,-347.5 1041.97,-347.5"/>
<text text-anchor="middle" x="1077.47" y="-354.5" font-family="Helvetica,sans-Serif" font-size="10.00">util/cellgen.h</text>
</a>
</g>
</g>
<!-- Node5&#45;&gt;Node17 -->
<g id="edge16" class="edge">
<title>Node5&#45;&gt;Node17</title>
<path fill="none" stroke="midnightblue" d="M957.25,-466.56C985.37,-463.47 1035.14,-453.71 1062.47,-423 1073.65,-410.44 1076.97,-391.22 1077.76,-376.93"/>
<polygon fill="midnightblue" stroke="midnightblue" points="1081.26,-376.82 1077.94,-366.76 1074.26,-376.69 1081.26,-376.82"/>
</g>
<!-- Node19 -->
<g id="node19" class="node">
<title>Node19</title>
<g id="a_node19"><a xlink:title=" ">
<polygon fill="white" stroke="#bfbfbf" points="1159.97,-286 1159.97,-305 1194.97,-305 1194.97,-286 1159.97,-286"/>
<text text-anchor="middle" x="1177.47" y="-293" font-family="Helvetica,sans-Serif" font-size="10.00">map</text>
</a>
</g>
</g>
<!-- Node5&#45;&gt;Node19 -->
<g id="edge46" class="edge">
<title>Node5&#45;&gt;Node19</title>
<path fill="none" stroke="midnightblue" d="M957.11,-465.72C987.1,-461.55 1043.42,-450.46 1082.47,-423 1123.71,-394 1154.65,-341.56 1168.86,-314.19"/>
<polygon fill="midnightblue" stroke="midnightblue" points="1172.1,-315.54 1173.47,-305.04 1165.85,-312.39 1172.1,-315.54"/>
</g>
<!-- Node21 -->
<g id="node21" class="node">
<title>Node21</title>
<g id="a_node21"><a xlink:href="_all_flags_8h.html" target="_top" xlink:title=" ">
<polygon fill="white" stroke="black" points="1173.97,-224.5 1173.97,-243.5 1232.97,-243.5 1232.97,-224.5 1173.97,-224.5"/>
<text text-anchor="middle" x="1203.47" y="-231.5" font-family="Helvetica,sans-Serif" font-size="10.00">AllFlags.h</text>
</a>
</g>
</g>
<!-- Node5&#45;&gt;Node21 -->
<g id="edge20" class="edge">
<title>Node5&#45;&gt;Node21</title>
<path fill="none" stroke="midnightblue" d="M957.07,-466.52C990.97,-463.27 1059.64,-453.2 1108.47,-423 1164.23,-388.51 1182.04,-372.61 1204.47,-311 1211.23,-292.44 1209.74,-269.61 1207.34,-253.84"/>
<polygon fill="midnightblue" stroke="midnightblue" points="1210.75,-252.99 1205.54,-243.77 1203.86,-254.23 1210.75,-252.99"/>
</g>
<!-- Node23 -->
<g id="node23" class="node">
<title>Node23</title>
<g id="a_node23"><a xlink:href="_squad_8h.html" target="_top" xlink:title=" ">
<polygon fill="white" stroke="black" points="856.47,-347.5 856.47,-366.5 908.47,-366.5 908.47,-347.5 856.47,-347.5"/>
<text text-anchor="middle" x="882.47" y="-354.5" font-family="Helvetica,sans-Serif" font-size="10.00">Squad.h</text>
</a>
</g>
</g>
<!-- Node5&#45;&gt;Node23 -->
<g id="edge27" class="edge">
<title>Node5&#45;&gt;Node23</title>
<path fill="none" stroke="midnightblue" d="M927.08,-459.48C918.71,-446.95 908.41,-422.9 898.47,-403 893.92,-393.89 888.47,-383.98 884.61,-375.78"/>
<polygon fill="midnightblue" stroke="midnightblue" points="887.83,-374.41 880.77,-366.51 881.36,-377.09 887.83,-374.41"/>
</g>
<!-- Node30 -->
<g id="node30" class="node">
<title>Node30</title>
<g id="a_node30"><a xlink:href="geometry_8h.html" target="_top" xlink:title=" ">
<polygon fill="white" stroke="black" points="973.47,-403.5 973.47,-422.5 1053.47,-422.5 1053.47,-403.5 973.47,-403.5"/>
<text text-anchor="middle" x="1013.47" y="-410.5" font-family="Helvetica,sans-Serif" font-size="10.00">util/geometry.h</text>
</a>
</g>
</g>
<!-- Node5&#45;&gt;Node30 -->
<g id="edge48" class="edge">
<title>Node5&#45;&gt;Node30</title>
<path fill="none" stroke="midnightblue" d="M948.84,-459.32C960.63,-451.06 978.6,-438.45 992.61,-428.63"/>
<polygon fill="midnightblue" stroke="midnightblue" points="994.95,-431.26 1001.13,-422.65 990.93,-425.53 994.95,-431.26"/>
</g>
<!-- Node31 -->
<g id="node31" class="node">
<title>Node31</title>
<g id="a_node31"><a xlink:href="_none_8h.html" target="_top" xlink:title=" ">
<polygon fill="white" stroke="black" points="202.97,-168.5 202.97,-187.5 315.97,-187.5 315.97,-168.5 202.97,-168.5"/>
<text text-anchor="middle" x="259.47" y="-175.5" font-family="Helvetica,sans-Serif" font-size="10.00">engine/actions/None.h</text>
</a>
</g>
</g>
<!-- Node5&#45;&gt;Node31 -->
<g id="edge51" class="edge">
<title>Node5&#45;&gt;Node31</title>
<path fill="none" stroke="midnightblue" d="M915.71,-467.19C795.07,-462.23 189.47,-433.54 189.47,-358 189.47,-358 189.47,-358 189.47,-294.5 189.47,-262.05 191.36,-251.57 208.47,-224 215.87,-212.09 227.37,-201.54 237.59,-193.66"/>
<polygon fill="midnightblue" stroke="midnightblue" points="239.74,-196.42 245.74,-187.7 235.61,-190.77 239.74,-196.42"/>
</g>
<!-- Node32 -->
<g id="node32" class="node">
<title>Node32</title>
<g id="a_node32"><a xlink:href="game_controller_8h.html" target="_top" xlink:title=" ">
<polygon fill="white" stroke="black" points="217.97,-286 217.97,-305 338.97,-305 338.97,-286 217.97,-286"/>
<text text-anchor="middle" x="278.47" y="-293" font-family="Helvetica,sans-Serif" font-size="10.00">engine/gameController.h</text>
</a>
</g>
</g>
<!-- Node5&#45;&gt;Node32 -->
<g id="edge53" class="edge">
<title>Node5&#45;&gt;Node32</title>
<path fill="none" stroke="midnightblue" d="M915.89,-465.07C873.42,-458.84 773.14,-443.18 690.47,-423 548.1,-388.25 382.41,-332.62 312.42,-308.41"/>
<polygon fill="midnightblue" stroke="midnightblue" points="313.4,-305.04 302.8,-305.07 311.1,-311.66 313.4,-305.04"/>
</g>
<!-- Node36 -->
<g id="node36" class="node">
<title>Node36</title>
<g id="a_node36"><a xlink:href="_set_squad_path_8h.html" target="_top" xlink:title=" ">
<polygon fill="white" stroke="black" points="745.97,-403.5 745.97,-422.5 898.97,-422.5 898.97,-403.5 745.97,-403.5"/>
<text text-anchor="middle" x="822.47" y="-410.5" font-family="Helvetica,sans-Serif" font-size="10.00">engine/actions/SetSquadPath.h</text>
</a>
</g>
</g>
<!-- Node5&#45;&gt;Node36 -->
<g id="edge62" class="edge">
<title>Node5&#45;&gt;Node36</title>
<path fill="none" stroke="midnightblue" d="M915.77,-460.49C895.48,-451.89 865.02,-437.62 844.36,-427.16"/>
<polygon fill="midnightblue" stroke="midnightblue" points="845.85,-423.99 835.36,-422.51 842.64,-430.21 845.85,-423.99"/>
</g>
<!-- Node37 -->
<g id="node37" class="node">
<title>Node37</title>
<g id="a_node37"><a xlink:href="_all_squad_templates_8h.html" target="_top" xlink:title=" ">
<polygon fill="white" stroke="black" points="13.97,-403.5 13.97,-422.5 122.97,-422.5 122.97,-403.5 13.97,-403.5"/>
<text text-anchor="middle" x="68.47" y="-410.5" font-family="Helvetica,sans-Serif" font-size="10.00">AllSquadTemplates.h</text>
</a>
</g>
</g>
<!-- Node5&#45;&gt;Node37 -->
<g id="edge67" class="edge">
<title>Node5&#45;&gt;Node37</title>
<path fill="none" stroke="midnightblue" d="M915.75,-467.39C824.13,-464.59 446.3,-451.8 137.47,-423 136,-422.86 134.52,-422.72 133.03,-422.57"/>
<polygon fill="midnightblue" stroke="midnightblue" points="133.36,-419.08 123.04,-421.49 132.61,-426.04 133.36,-419.08"/>
</g>
<!-- Node7 -->
<g id="node7" class="node">
<title>Node7</title>
<g id="a_node7"><a xlink:href="game_object_8h.html" target="_top" xlink:title=" ">
<polygon fill="white" stroke="black" points="467.97,-168.5 467.97,-187.5 544.97,-187.5 544.97,-168.5 467.97,-168.5"/>
<text text-anchor="middle" x="506.47" y="-175.5" font-family="Helvetica,sans-Serif" font-size="10.00">gameObject.h</text>
</a>
</g>
</g>
<!-- Node6&#45;&gt;Node7 -->
<g id="edge6" class="edge">
<title>Node6&#45;&gt;Node7</title>
<path fill="none" stroke="midnightblue" d="M594.82,-280.44C602.56,-265.38 611.38,-241.32 600.47,-224 590.22,-207.72 572.27,-197.21 554.79,-190.47"/>
<polygon fill="midnightblue" stroke="midnightblue" points="555.77,-187.11 545.17,-187.1 553.45,-193.71 555.77,-187.11"/>
</g>
<!-- Node8 -->
<g id="node8" class="node">
<title>Node8</title>
<g id="a_node8"><a xlink:title=" ">
<polygon fill="white" stroke="#bfbfbf" points="287.97,-112.5 287.97,-131.5 316.97,-131.5 316.97,-112.5 287.97,-112.5"/>
<text text-anchor="middle" x="302.47" y="-119.5" font-family="Helvetica,sans-Serif" font-size="10.00">list</text>
</a>
</g>
</g>
<!-- Node7&#45;&gt;Node8 -->
<g id="edge7" class="edge">
<title>Node7&#45;&gt;Node8</title>
<path fill="none" stroke="midnightblue" d="M474.15,-168.44C433.24,-157.62 363.71,-139.21 326.94,-129.48"/>
<polygon fill="midnightblue" stroke="midnightblue" points="327.63,-126.04 317.07,-126.86 325.84,-132.81 327.63,-126.04"/>
</g>
<!-- Node7&#45;&gt;Node9 -->
<g id="edge8" class="edge">
<title>Node7&#45;&gt;Node9</title>
<path fill="none" stroke="midnightblue" d="M545.02,-174.49C680,-165.68 1131.35,-136.25 1283.73,-126.31"/>
<polygon fill="midnightblue" stroke="midnightblue" points="1284,-129.8 1293.75,-125.66 1283.54,-122.81 1284,-129.8"/>
</g>
<!-- Node14 -->
<g id="node14" class="node">
<title>Node14</title>
<g id="a_node14"><a xlink:href="engine_2_action_8h.html" target="_top" xlink:title=" ">
<polygon fill="white" stroke="black" points="464.97,-112.5 464.97,-131.5 547.97,-131.5 547.97,-112.5 464.97,-112.5"/>
<text text-anchor="middle" x="506.47" y="-119.5" font-family="Helvetica,sans-Serif" font-size="10.00">engine/Action.h</text>
</a>
</g>
</g>
<!-- Node7&#45;&gt;Node14 -->
<g id="edge13" class="edge">
<title>Node7&#45;&gt;Node14</title>
<path fill="none" stroke="midnightblue" d="M506.47,-168.08C506.47,-161.01 506.47,-150.86 506.47,-141.99"/>
<polygon fill="midnightblue" stroke="midnightblue" points="509.97,-141.75 506.47,-131.75 502.97,-141.75 509.97,-141.75"/>
</g>
<!-- Node10 -->
<g id="node10" class="node">
<title>Node10</title>
<g id="a_node10"><a xlink:href="_s_f_m_l_facade_8h.html" target="_top" xlink:title=" ">
<polygon fill="white" stroke="black" points="1405.97,-56.5 1405.97,-75.5 1528.97,-75.5 1528.97,-56.5 1405.97,-56.5"/>
<text text-anchor="middle" x="1467.47" y="-63.5" font-family="Helvetica,sans-Serif" font-size="10.00">graphics/SFMLFacade.h</text>
</a>
</g>
</g>
<!-- Node9&#45;&gt;Node10 -->
<g id="edge9" class="edge">
<title>Node9&#45;&gt;Node10</title>
<path fill="none" stroke="midnightblue" d="M1355.54,-112.44C1377.53,-103.52 1412.2,-89.44 1437.13,-79.32"/>
<polygon fill="midnightblue" stroke="midnightblue" points="1438.55,-82.52 1446.49,-75.52 1435.91,-76.04 1438.55,-82.52"/>
</g>
<!-- Node13 -->
<g id="node13" class="node">
<title>Node13</title>
<g id="a_node13"><a xlink:title=" ">
<polygon fill="white" stroke="#bfbfbf" points="1289.47,-56.5 1289.47,-75.5 1387.47,-75.5 1387.47,-56.5 1289.47,-56.5"/>
<text text-anchor="middle" x="1338.47" y="-63.5" font-family="Helvetica,sans-Serif" font-size="10.00">nlohmann/json.hpp</text>
</a>
</g>
</g>
<!-- Node9&#45;&gt;Node13 -->
<g id="edge12" class="edge">
<title>Node9&#45;&gt;Node13</title>
<path fill="none" stroke="midnightblue" d="M1335.13,-112.08C1335.66,-105.01 1336.41,-94.86 1337.06,-85.99"/>
<polygon fill="midnightblue" stroke="midnightblue" points="1340.57,-85.98 1337.82,-75.75 1333.59,-85.47 1340.57,-85.98"/>
</g>
<!-- Node11 -->
<g id="node11" class="node">
<title>Node11</title>
<g id="a_node11"><a xlink:title=" ">
<polygon fill="white" stroke="#bfbfbf" points="1415.47,-0.5 1415.47,-19.5 1519.47,-19.5 1519.47,-0.5 1415.47,-0.5"/>
<text text-anchor="middle" x="1467.47" y="-7.5" font-family="Helvetica,sans-Serif" font-size="10.00">SFML/Graphics.hpp</text>
</a>
</g>
</g>
<!-- Node10&#45;&gt;Node11 -->
<g id="edge10" class="edge">
<title>Node10&#45;&gt;Node11</title>
<path fill="none" stroke="midnightblue" d="M1467.47,-56.08C1467.47,-49.01 1467.47,-38.86 1467.47,-29.99"/>
<polygon fill="midnightblue" stroke="midnightblue" points="1470.97,-29.75 1467.47,-19.75 1463.97,-29.75 1470.97,-29.75"/>
</g>
<!-- Node10&#45;&gt;Node12 -->
<g id="edge11" class="edge">
<title>Node10&#45;&gt;Node12</title>
<path fill="none" stroke="midnightblue" d="M1434.83,-56.44C1398.07,-46.81 1338.4,-31.17 1299.54,-20.98"/>
<polygon fill="midnightblue" stroke="midnightblue" points="1300.22,-17.54 1289.66,-18.39 1298.44,-24.31 1300.22,-17.54"/>
</g>
<!-- Node14&#45;&gt;Node15 -->
<g id="edge14" class="edge">
<title>Node14&#45;&gt;Node15</title>
<path fill="none" stroke="midnightblue" d="M473.51,-112.44C435.89,-102.68 374.52,-86.74 335.34,-76.57"/>
<polygon fill="midnightblue" stroke="midnightblue" points="336.2,-73.18 325.64,-74.05 334.44,-79.95 336.2,-73.18"/>
</g>
<!-- Node16 -->
<g id="node16" class="node">
<title>Node16</title>
<g id="a_node16"><a xlink:title=" ">
<polygon fill="white" stroke="#bfbfbf" points="969.97,-56.5 969.97,-75.5 1020.97,-75.5 1020.97,-56.5 969.97,-56.5"/>
<text text-anchor="middle" x="995.47" y="-63.5" font-family="Helvetica,sans-Serif" font-size="10.00">memory</text>
</a>
</g>
</g>
<!-- Node14&#45;&gt;Node16 -->
<g id="edge15" class="edge">
<title>Node14&#45;&gt;Node16</title>
<path fill="none" stroke="midnightblue" d="M548.16,-116.4C642.6,-105.97 871.47,-80.69 959.84,-70.94"/>
<polygon fill="midnightblue" stroke="midnightblue" points="960.34,-74.4 969.9,-69.82 959.57,-67.44 960.34,-74.4"/>
</g>
<!-- Node18 -->
<g id="node18" class="node">
<title>Node18</title>
<g id="a_node18"><a xlink:title=" ">
<polygon fill="white" stroke="#bfbfbf" points="925.47,-112.5 925.47,-131.5 969.47,-131.5 969.47,-112.5 925.47,-112.5"/>
<text text-anchor="middle" x="947.47" y="-119.5" font-family="Helvetica,sans-Serif" font-size="10.00">vector</text>
</a>
</g>
</g>
<!-- Node17&#45;&gt;Node18 -->
<g id="edge17" class="edge">
<title>Node17&#45;&gt;Node18</title>
<path fill="none" stroke="midnightblue" d="M1055.28,-347.46C1039,-340.11 1017.53,-328 1004.47,-311 964.03,-258.38 980.88,-231.46 961.47,-168 958.77,-159.19 955.74,-149.42 953.19,-141.24"/>
<polygon fill="midnightblue" stroke="midnightblue" points="956.5,-140.12 950.18,-131.62 949.82,-142.21 956.5,-140.12"/>
</g>
<!-- Node17&#45;&gt;Node19 -->
<g id="edge18" class="edge">
<title>Node17&#45;&gt;Node19</title>
<path fill="none" stroke="midnightblue" d="M1091.8,-347.48C1108.13,-337.75 1135.07,-321.73 1154.38,-310.24"/>
<polygon fill="midnightblue" stroke="midnightblue" points="1156.37,-313.13 1163.17,-305.01 1152.79,-307.11 1156.37,-313.13"/>
</g>
<!-- Node20 -->
<g id="node20" class="node">
<title>Node20</title>
<g id="a_node20"><a xlink:title=" ">
<polygon fill="white" stroke="#bfbfbf" points="1013.47,-286 1013.47,-305 1141.47,-305 1141.47,-286 1013.47,-286"/>
<text text-anchor="middle" x="1077.47" y="-293" font-family="Helvetica,sans-Serif" font-size="10.00">scanline_triangulation.hpp</text>
</a>
</g>
</g>
<!-- Node17&#45;&gt;Node20 -->
<g id="edge19" class="edge">
<title>Node17&#45;&gt;Node20</title>
<path fill="none" stroke="midnightblue" d="M1077.47,-347.48C1077.47,-339.08 1077.47,-325.98 1077.47,-315.16"/>
<polygon fill="midnightblue" stroke="midnightblue" points="1080.97,-315.01 1077.47,-305.01 1073.97,-315.01 1080.97,-315.01"/>
</g>
<!-- Node21&#45;&gt;Node16 -->
<g id="edge24" class="edge">
<title>Node21&#45;&gt;Node16</title>
<path fill="none" stroke="midnightblue" d="M1203.04,-224.45C1201.96,-211.02 1198.11,-184.79 1184.47,-168 1144.3,-118.54 1073.28,-90.05 1030.67,-76.61"/>
<polygon fill="midnightblue" stroke="midnightblue" points="1031.59,-73.24 1021.01,-73.67 1029.55,-79.93 1031.59,-73.24"/>
</g>
<!-- Node22 -->
<g id="node22" class="node">
<title>Node22</title>
<g id="a_node22"><a xlink:href="_flag_8h.html" target="_top" xlink:title=" ">
<polygon fill="white" stroke="black" points="1131.97,-168.5 1131.97,-187.5 1174.97,-187.5 1174.97,-168.5 1131.97,-168.5"/>
<text text-anchor="middle" x="1153.47" y="-175.5" font-family="Helvetica,sans-Serif" font-size="10.00">Flag.h</text>
</a>
</g>
</g>
<!-- Node21&#45;&gt;Node22 -->
<g id="edge21" class="edge">
<title>Node21&#45;&gt;Node22</title>
<path fill="none" stroke="midnightblue" d="M1195.21,-224.08C1188.01,-216.3 1177.36,-204.8 1168.62,-195.37"/>
<polygon fill="midnightblue" stroke="midnightblue" points="1170.94,-192.71 1161.57,-187.75 1165.8,-197.47 1170.94,-192.71"/>
</g>
<!-- Node22&#45;&gt;Node4 -->
<g id="edge23" class="edge">
<title>Node22&#45;&gt;Node4</title>
<path fill="none" stroke="midnightblue" d="M1175.18,-173.42C1231.8,-164.07 1384.1,-138.92 1449.71,-128.08"/>
<polygon fill="midnightblue" stroke="midnightblue" points="1450.53,-131.49 1459.83,-126.41 1449.39,-124.59 1450.53,-131.49"/>
</g>
<!-- Node22&#45;&gt;Node18 -->
<g id="edge22" class="edge">
<title>Node22&#45;&gt;Node18</title>
<path fill="none" stroke="midnightblue" d="M1131.81,-171.32C1095.45,-161.79 1021.97,-142.53 979.58,-131.42"/>
<polygon fill="midnightblue" stroke="midnightblue" points="980.33,-128 969.77,-128.85 978.55,-134.77 980.33,-128"/>
</g>
<!-- Node23&#45;&gt;Node5 -->
<g id="edge28" class="edge">
<title>Node23&#45;&gt;Node5</title>
<path fill="none" stroke="midnightblue" d="M894.21,-366.51C901.71,-375.47 910,-390.05 916.47,-403 924.24,-418.54 932.22,-436.62 936.35,-449.76"/>
<polygon fill="midnightblue" stroke="midnightblue" points="932.96,-450.65 938.82,-459.48 939.75,-448.92 932.96,-450.65"/>
</g>
<!-- Node23&#45;&gt;Node6 -->
<g id="edge40" class="edge">
<title>Node23&#45;&gt;Node6</title>
<path fill="none" stroke="midnightblue" d="M856.46,-350.77C813.21,-342.08 724.94,-324.33 661.08,-311.5"/>
<polygon fill="midnightblue" stroke="midnightblue" points="661.55,-308.02 651.05,-309.48 660.17,-314.88 661.55,-308.02"/>
</g>
<!-- Node23&#45;&gt;Node9 -->
<g id="edge44" class="edge">
<title>Node23&#45;&gt;Node9</title>
<path fill="none" stroke="midnightblue" d="M890.63,-347.21C919.24,-316.95 1018.88,-216.37 1122.47,-168 1174.34,-143.78 1239.44,-132.45 1283.72,-127.25"/>
<polygon fill="midnightblue" stroke="midnightblue" points="1284.12,-130.73 1293.67,-126.14 1283.35,-123.77 1284.12,-130.73"/>
</g>
<!-- Node23&#45;&gt;Node12 -->
<g id="edge45" class="edge">
<title>Node23&#45;&gt;Node12</title>
<path fill="none" stroke="midnightblue" d="M881.14,-347.41C875.13,-304.96 855.09,-117.26 960.47,-56 1004.35,-30.49 1151.92,-17.92 1222.81,-13.24"/>
<polygon fill="midnightblue" stroke="midnightblue" points="1223.34,-16.71 1233.1,-12.58 1222.9,-9.73 1223.34,-16.71"/>
</g>
<!-- Node23&#45;&gt;Node24 -->
<g id="edge29" class="edge">
<title>Node23&#45;&gt;Node24</title>
<path fill="none" stroke="midnightblue" d="M908.49,-352.54C983.74,-343.23 1202.82,-317.41 1317.2,-304.32"/>
<polygon fill="midnightblue" stroke="midnightblue" points="1317.72,-307.79 1327.26,-303.17 1316.93,-300.83 1317.72,-307.79"/>
</g>
<!-- Node29 -->
<g id="node29" class="node">
<title>Node29</title>
<g id="a_node29"><a xlink:href="_game_logic_2_squad_2_action_8h.html" target="_top" xlink:title=" ">
<polygon fill="white" stroke="black" points="707.47,-286 707.47,-305 843.47,-305 843.47,-286 707.47,-286"/>
<text text-anchor="middle" x="775.47" y="-293" font-family="Helvetica,sans-Serif" font-size="10.00">GameLogic/Squad/Action.h</text>
</a>
</g>
</g>
<!-- Node23&#45;&gt;Node29 -->
<g id="edge41" class="edge">
<title>Node23&#45;&gt;Node29</title>
<path fill="none" stroke="midnightblue" d="M862.24,-347.48C842.73,-337.8 813.78,-321.87 794.64,-310.39"/>
<polygon fill="midnightblue" stroke="midnightblue" points="796.23,-307.26 785.88,-305.01 792.56,-313.23 796.23,-307.26"/>
</g>
<!-- Node24&#45;&gt;Node21 -->
<g id="edge35" class="edge">
<title>Node24&#45;&gt;Node21</title>
<path fill="none" stroke="midnightblue" d="M1361.96,-285.98C1329.82,-275.64 1275.48,-258.16 1239.54,-246.6"/>
<polygon fill="midnightblue" stroke="midnightblue" points="1240.52,-243.24 1229.93,-243.51 1238.38,-249.9 1240.52,-243.24"/>
</g>
<!-- Node24&#45;&gt;Node23 -->
<g id="edge34" class="edge">
<title>Node24&#45;&gt;Node23</title>
<path fill="none" stroke="midnightblue" d="M1327.2,-304.26C1220.57,-317.16 1004.37,-342.53 918.59,-352.17"/>
<polygon fill="midnightblue" stroke="midnightblue" points="918.11,-348.7 908.56,-353.29 918.89,-355.66 918.11,-348.7"/>
</g>
<!-- Node25 -->
<g id="node25" class="node">
<title>Node25</title>
<g id="a_node25"><a xlink:title=" ">
<polygon fill="white" stroke="#bfbfbf" points="1531.97,-224.5 1531.97,-243.5 1574.97,-243.5 1574.97,-224.5 1531.97,-224.5"/>
<text text-anchor="middle" x="1553.47" y="-231.5" font-family="Helvetica,sans-Serif" font-size="10.00">cstdio</text>
</a>
</g>
</g>
<!-- Node24&#45;&gt;Node25 -->
<g id="edge30" class="edge">
<title>Node24&#45;&gt;Node25</title>
<path fill="none" stroke="midnightblue" d="M1412.11,-285.98C1440.98,-275.57 1489.9,-257.92 1521.95,-246.37"/>
<polygon fill="midnightblue" stroke="midnightblue" points="1523.5,-249.53 1531.72,-242.85 1521.12,-242.94 1523.5,-249.53"/>
</g>
<!-- Node26 -->
<g id="node26" class="node">
<title>Node26</title>
<g id="a_node26"><a xlink:href="_unit_order_8h.html" target="_top" xlink:title=" ">
<polygon fill="white" stroke="black" points="1447.47,-224.5 1447.47,-243.5 1513.47,-243.5 1513.47,-224.5 1447.47,-224.5"/>
<text text-anchor="middle" x="1480.47" y="-231.5" font-family="Helvetica,sans-Serif" font-size="10.00">UnitOrder.h</text>
</a>
</g>
</g>
<!-- Node24&#45;&gt;Node26 -->
<g id="edge31" class="edge">
<title>Node24&#45;&gt;Node26</title>
<path fill="none" stroke="midnightblue" d="M1396.75,-285.98C1409.72,-276.21 1434.37,-260.08 1453.7,-248.58"/>
<polygon fill="midnightblue" stroke="midnightblue" points="1455.53,-251.56 1462.42,-243.51 1452.01,-245.51 1455.53,-251.56"/>
</g>
<!-- Node24&#45;&gt;Node27 -->
<g id="edge36" class="edge">
<title>Node24&#45;&gt;Node27</title>
<path fill="none" stroke="midnightblue" d="M1387.04,-285.98C1385.63,-277.58 1383.43,-264.48 1381.61,-253.66"/>
<polygon fill="midnightblue" stroke="midnightblue" points="1385.01,-252.79 1379.9,-243.51 1378.11,-253.95 1385.01,-252.79"/>
</g>
<!-- Node26&#45;&gt;Node4 -->
<g id="edge32" class="edge">
<title>Node26&#45;&gt;Node4</title>
<path fill="none" stroke="midnightblue" d="M1480.47,-224.37C1480.47,-206.62 1480.47,-165.67 1480.47,-141.6"/>
<polygon fill="midnightblue" stroke="midnightblue" points="1483.97,-141.59 1480.47,-131.59 1476.97,-141.59 1483.97,-141.59"/>
</g>
<!-- Node26&#45;&gt;Node24 -->
<g id="edge33" class="edge">
<title>Node26&#45;&gt;Node24</title>
<path fill="none" stroke="midnightblue" d="M1472.21,-243.51C1459.25,-253.27 1434.61,-269.4 1415.27,-280.9"/>
<polygon fill="midnightblue" stroke="midnightblue" points="1413.43,-277.92 1406.55,-285.98 1416.96,-283.97 1413.43,-277.92"/>
</g>
<!-- Node27&#45;&gt;Node9 -->
<g id="edge37" class="edge">
<title>Node27&#45;&gt;Node9</title>
<path fill="none" stroke="midnightblue" d="M1374.19,-224.48C1369.76,-215.51 1362.76,-200.93 1357.47,-188 1351.1,-172.42 1344.78,-154.34 1340.39,-141.21"/>
<polygon fill="midnightblue" stroke="midnightblue" points="1343.65,-139.91 1337.19,-131.51 1337,-142.11 1343.65,-139.91"/>
</g>
<!-- Node27&#45;&gt;Node18 -->
<g id="edge38" class="edge">
<title>Node27&#45;&gt;Node18</title>
<path fill="none" stroke="midnightblue" d="M1327.84,-226.86C1275.77,-219.91 1192.59,-207.02 1122.47,-188 1069.8,-173.72 1010.71,-150.1 976.43,-135.61"/>
<polygon fill="midnightblue" stroke="midnightblue" points="977.6,-132.31 967.03,-131.6 974.86,-138.75 977.6,-132.31"/>
</g>
<!-- Node28 -->
<g id="node28" class="node">
<title>Node28</title>
<g id="a_node28"><a xlink:title=" ">
<polygon fill="white" stroke="#bfbfbf" points="1365.97,-168.5 1365.97,-187.5 1448.97,-187.5 1448.97,-168.5 1365.97,-168.5"/>
<text text-anchor="middle" x="1407.47" y="-175.5" font-family="Helvetica,sans-Serif" font-size="10.00">unordered_map</text>
</a>
</g>
</g>
<!-- Node27&#45;&gt;Node28 -->
<g id="edge39" class="edge">
<title>Node27&#45;&gt;Node28</title>
<path fill="none" stroke="midnightblue" d="M1383.26,-224.08C1387.23,-216.69 1393,-205.95 1397.91,-196.81"/>
<polygon fill="midnightblue" stroke="midnightblue" points="1401.12,-198.22 1402.77,-187.75 1394.96,-194.91 1401.12,-198.22"/>
</g>
<!-- Node29&#45;&gt;Node5 -->
<g id="edge43" class="edge">
<title>Node29&#45;&gt;Node5</title>
<path fill="none" stroke="midnightblue" d="M767.94,-305.18C749.75,-327.22 707.04,-386.21 736.47,-423 757.33,-449.08 855.07,-461.1 905.78,-465.67"/>
<polygon fill="midnightblue" stroke="midnightblue" points="905.57,-469.16 915.84,-466.53 906.17,-462.19 905.57,-469.16"/>
</g>
<!-- Node29&#45;&gt;Node23 -->
<g id="edge42" class="edge">
<title>Node29&#45;&gt;Node23</title>
<path fill="none" stroke="midnightblue" d="M795.67,-305.01C815.17,-314.68 844.12,-330.6 863.27,-342.09"/>
<polygon fill="midnightblue" stroke="midnightblue" points="861.69,-345.22 872.04,-347.48 865.35,-339.26 861.69,-345.22"/>
</g>
<!-- Node30&#45;&gt;Node17 -->
<g id="edge50" class="edge">
<title>Node30&#45;&gt;Node17</title>
<path fill="none" stroke="midnightblue" d="M1023.75,-403.32C1033.31,-395.26 1047.75,-383.08 1059.25,-373.37"/>
<polygon fill="midnightblue" stroke="midnightblue" points="1061.61,-375.96 1067,-366.83 1057.1,-370.61 1061.61,-375.96"/>
</g>
<!-- Node30&#45;&gt;Node18 -->
<g id="edge49" class="edge">
<title>Node30&#45;&gt;Node18</title>
<path fill="none" stroke="midnightblue" d="M1004.29,-403.4C986.16,-385.42 947.47,-341.77 947.47,-296.5 947.47,-296.5 947.47,-296.5 947.47,-233 947.47,-200.95 947.47,-163.64 947.47,-141.75"/>
<polygon fill="midnightblue" stroke="midnightblue" points="950.97,-141.56 947.47,-131.56 943.97,-141.56 950.97,-141.56"/>
</g>
<!-- Node31&#45;&gt;Node14 -->
<g id="edge52" class="edge">
<title>Node31&#45;&gt;Node14</title>
<path fill="none" stroke="midnightblue" d="M298.61,-168.44C341.7,-159.02 411.03,-143.87 457.64,-133.68"/>
<polygon fill="midnightblue" stroke="midnightblue" points="458.49,-137.07 467.52,-131.52 457,-130.23 458.49,-137.07"/>
</g>
<!-- Node32&#45;&gt;Node7 -->
<g id="edge55" class="edge">
<title>Node32&#45;&gt;Node7</title>
<path fill="none" stroke="midnightblue" d="M312.91,-285.96C343.16,-277.67 387.79,-263.48 423.47,-244 448.64,-230.26 474.09,-208.99 490.05,-194.55"/>
<polygon fill="midnightblue" stroke="midnightblue" points="492.5,-197.05 497.48,-187.7 487.76,-191.91 492.5,-197.05"/>
</g>
<!-- Node32&#45;&gt;Node8 -->
<g id="edge54" class="edge">
<title>Node32&#45;&gt;Node8</title>
<path fill="none" stroke="midnightblue" d="M260.23,-285.89C244.24,-277.41 221.57,-263 208.47,-244 188.92,-215.66 174.33,-196.62 193.47,-168 212.1,-140.16 251.44,-129.52 277.41,-125.47"/>
<polygon fill="midnightblue" stroke="midnightblue" points="278.17,-128.9 287.62,-124.11 277.25,-121.96 278.17,-128.9"/>
</g>
<!-- Node33 -->
<g id="node33" class="node">
<title>Node33</title>
<g id="a_node33"><a xlink:href="_network_manager_8h.html" target="_top" xlink:title=" ">
<polygon fill="white" stroke="black" points="217.47,-224.5 217.47,-243.5 347.47,-243.5 347.47,-224.5 217.47,-224.5"/>
<text text-anchor="middle" x="282.47" y="-231.5" font-family="Helvetica,sans-Serif" font-size="10.00">engine/NetworkManager.h</text>
</a>
</g>
</g>
<!-- Node32&#45;&gt;Node33 -->
<g id="edge56" class="edge">
<title>Node32&#45;&gt;Node33</title>
<path fill="none" stroke="midnightblue" d="M279.04,-285.98C279.61,-277.58 280.49,-264.48 281.22,-253.66"/>
<polygon fill="midnightblue" stroke="midnightblue" points="284.72,-253.72 281.9,-243.51 277.74,-253.25 284.72,-253.72"/>
</g>
<!-- Node35 -->
<g id="node35" class="node">
<title>Node35</title>
<g id="a_node35"><a xlink:title=" ">
<polygon fill="white" stroke="#bfbfbf" points="365.97,-224.5 365.97,-243.5 414.97,-243.5 414.97,-224.5 365.97,-224.5"/>
<text text-anchor="middle" x="390.47" y="-231.5" font-family="Helvetica,sans-Serif" font-size="10.00">random</text>
</a>
</g>
</g>
<!-- Node32&#45;&gt;Node35 -->
<g id="edge61" class="edge">
<title>Node32&#45;&gt;Node35</title>
<path fill="none" stroke="midnightblue" d="M294.52,-285.98C313.06,-276.12 343.81,-259.79 365.49,-248.27"/>
<polygon fill="midnightblue" stroke="midnightblue" points="367.26,-251.29 374.45,-243.51 363.98,-245.11 367.26,-251.29"/>
</g>
<!-- Node33&#45;&gt;Node7 -->
<g id="edge57" class="edge">
<title>Node33&#45;&gt;Node7</title>
<path fill="none" stroke="midnightblue" d="M317.96,-224.44C356.79,-215.08 419.13,-200.06 461.39,-189.87"/>
<polygon fill="midnightblue" stroke="midnightblue" points="462.24,-193.26 471.14,-187.52 460.6,-186.46 462.24,-193.26"/>
</g>
<!-- Node33&#45;&gt;Node18 -->
<g id="edge59" class="edge">
<title>Node33&#45;&gt;Node18</title>
<path fill="none" stroke="midnightblue" d="M309.57,-224.46C336.23,-215.87 378,-201.94 413.47,-188 433.84,-179.99 437.29,-173.52 458.47,-168 625.9,-124.36 835.2,-121.63 914.75,-122.37"/>
<polygon fill="midnightblue" stroke="midnightblue" points="915.06,-125.88 925.1,-122.5 915.14,-118.88 915.06,-125.88"/>
</g>
<!-- Node33&#45;&gt;Node31 -->
<g id="edge58" class="edge">
<title>Node33&#45;&gt;Node31</title>
<path fill="none" stroke="midnightblue" d="M278.67,-224.08C275.56,-216.77 271.05,-206.18 267.18,-197.1"/>
<polygon fill="midnightblue" stroke="midnightblue" points="270.34,-195.58 263.2,-187.75 263.9,-198.32 270.34,-195.58"/>
</g>
<!-- Node34 -->
<g id="node34" class="node">
<title>Node34</title>
<g id="a_node34"><a xlink:title=" ">
<polygon fill="white" stroke="#bfbfbf" points="333.97,-168.5 333.97,-187.5 404.97,-187.5 404.97,-168.5 333.97,-168.5"/>
<text text-anchor="middle" x="369.47" y="-175.5" font-family="Helvetica,sans-Serif" font-size="10.00">sys/socket.h</text>
</a>
</g>
</g>
<!-- Node33&#45;&gt;Node34 -->
<g id="edge60" class="edge">
<title>Node33&#45;&gt;Node34</title>
<path fill="none" stroke="midnightblue" d="M296.45,-224.32C310.02,-215.9 330.85,-202.97 346.8,-193.07"/>
<polygon fill="midnightblue" stroke="midnightblue" points="348.88,-195.9 355.53,-187.65 345.18,-189.95 348.88,-195.9"/>
</g>
<!-- Node36&#45;&gt;Node5 -->
<g id="edge65" class="edge">
<title>Node36&#45;&gt;Node5</title>
<path fill="none" stroke="midnightblue" d="M845.85,-422.65C865.99,-431.31 894.59,-444.73 914.35,-454.73"/>
<polygon fill="midnightblue" stroke="midnightblue" points="912.78,-457.85 923.27,-459.32 915.99,-451.63 912.78,-457.85"/>
</g>
<!-- Node36&#45;&gt;Node14 -->
<g id="edge63" class="edge">
<title>Node36&#45;&gt;Node14</title>
<path fill="none" stroke="midnightblue" d="M810.75,-403.31C788.21,-386.43 737.59,-347.62 698.47,-311 659.9,-274.9 655.04,-261.14 617.47,-224 585.6,-192.49 546.44,-157.72 524.18,-138.3"/>
<polygon fill="midnightblue" stroke="midnightblue" points="526.37,-135.57 516.52,-131.65 521.78,-140.85 526.37,-135.57"/>
</g>
<!-- Node36&#45;&gt;Node23 -->
<g id="edge64" class="edge">
<title>Node36&#45;&gt;Node23</title>
<path fill="none" stroke="midnightblue" d="M832.11,-403.32C840.98,-395.34 854.35,-383.31 865.08,-373.65"/>
<polygon fill="midnightblue" stroke="midnightblue" points="867.56,-376.13 872.65,-366.83 862.88,-370.92 867.56,-376.13"/>
</g>
<!-- Node37&#45;&gt;Node2 -->
<g id="edge75" class="edge">
<title>Node37&#45;&gt;Node2</title>
<path fill="none" stroke="midnightblue" d="M119.72,-422.53C287.92,-450.54 822.72,-539.58 1004.39,-569.83"/>
<polygon fill="midnightblue" stroke="midnightblue" points="1003.87,-573.29 1014.31,-571.48 1005.02,-566.39 1003.87,-573.29"/>
</g>
<!-- Node38 -->
<g id="node38" class="node">
<title>Node38</title>
<g id="a_node38"><a xlink:href="_squad_template_8h.html" target="_top" xlink:title=" ">
<polygon fill="white" stroke="black" points="291.47,-347.5 291.47,-366.5 383.47,-366.5 383.47,-347.5 291.47,-347.5"/>
<text text-anchor="middle" x="337.47" y="-354.5" font-family="Helvetica,sans-Serif" font-size="10.00">SquadTemplate.h</text>
</a>
</g>
</g>
<!-- Node37&#45;&gt;Node38 -->
<g id="edge68" class="edge">
<title>Node37&#45;&gt;Node38</title>
<path fill="none" stroke="midnightblue" d="M111.09,-403.44C158.22,-393.98 234.16,-378.74 284.93,-368.55"/>
<polygon fill="midnightblue" stroke="midnightblue" points="285.93,-371.92 295.05,-366.52 284.55,-365.05 285.93,-371.92"/>
</g>
<!-- Node38&#45;&gt;Node3 -->
<g id="edge70" class="edge">
<title>Node38&#45;&gt;Node3</title>
<path fill="none" stroke="midnightblue" d="M291.38,-357.12C208.89,-356.64 41.18,-361 4.47,-403 -1.38,-409.69 -1.55,-416.46 4.47,-423 84.97,-510.56 970.57,-522.26 1166.32,-523.78"/>
<polygon fill="midnightblue" stroke="midnightblue" points="1166.39,-527.28 1176.41,-523.85 1166.44,-520.28 1166.39,-527.28"/>
</g>
<!-- Node38&#45;&gt;Node18 -->
<g id="edge69" class="edge">
<title>Node38&#45;&gt;Node18</title>
<path fill="none" stroke="midnightblue" d="M375.63,-347.48C404,-340.22 443.07,-328.19 474.47,-311 493.59,-300.53 493.11,-290.01 512.47,-280 565.72,-252.46 585.64,-263.08 642.47,-244 745.93,-209.26 865.35,-158.76 918.9,-135.53"/>
<polygon fill="midnightblue" stroke="midnightblue" points="920.34,-138.72 928.12,-131.52 917.55,-132.3 920.34,-138.72"/>
</g>
<!-- Node39 -->
<g id="node39" class="node">
<title>Node39</title>
<g id="a_node39"><a xlink:href="_gui_list_8h.html" target="_top" xlink:title=" ">
<polygon fill="white" stroke="black" points="357.47,-286 357.47,-305 465.47,-305 465.47,-286 357.47,-286"/>
<text text-anchor="middle" x="411.47" y="-293" font-family="Helvetica,sans-Serif" font-size="10.00">engine/GUI/GuiList.h</text>
</a>
</g>
</g>
<!-- Node38&#45;&gt;Node39 -->
<g id="edge71" class="edge">
<title>Node38&#45;&gt;Node39</title>
<path fill="none" stroke="midnightblue" d="M348.07,-347.48C359.72,-338.11 378.66,-322.88 392.8,-311.51"/>
<polygon fill="midnightblue" stroke="midnightblue" points="395.29,-314 400.89,-305.01 390.9,-308.55 395.29,-314"/>
</g>
<!-- Node39&#45;&gt;Node18 -->
<g id="edge74" class="edge">
<title>Node39&#45;&gt;Node18</title>
<path fill="none" stroke="midnightblue" d="M448.05,-286C486.38,-276.79 548.18,-261.12 600.47,-244 688.87,-215.06 707.46,-198.12 795.47,-168 836.53,-153.95 884.67,-140.14 915.6,-131.6"/>
<polygon fill="midnightblue" stroke="midnightblue" points="916.67,-134.93 925.39,-128.91 914.82,-128.18 916.67,-134.93"/>
</g>
<!-- Node40 -->
<g id="node40" class="node">
<title>Node40</title>
<g id="a_node40"><a xlink:href="_gui_object_8h.html" target="_top" xlink:title=" ">
<polygon fill="white" stroke="black" points="471.47,-224.5 471.47,-243.5 591.47,-243.5 591.47,-224.5 471.47,-224.5"/>
<text text-anchor="middle" x="531.47" y="-231.5" font-family="Helvetica,sans-Serif" font-size="10.00">engine/GUI/GuiObject.h</text>
</a>
</g>
</g>
<!-- Node39&#45;&gt;Node40 -->
<g id="edge72" class="edge">
<title>Node39&#45;&gt;Node40</title>
<path fill="none" stroke="midnightblue" d="M428.66,-285.98C448.71,-276.03 482.07,-259.49 505.33,-247.96"/>
<polygon fill="midnightblue" stroke="midnightblue" points="506.9,-251.09 514.31,-243.51 503.8,-244.82 506.9,-251.09"/>
</g>
<!-- Node40&#45;&gt;Node7 -->
<g id="edge73" class="edge">
<title>Node40&#45;&gt;Node7</title>
<path fill="none" stroke="midnightblue" d="M527.34,-224.08C523.96,-216.77 519.05,-206.18 514.85,-197.1"/>
<polygon fill="midnightblue" stroke="midnightblue" points="517.9,-195.36 510.52,-187.75 511.55,-198.3 517.9,-195.36"/>
</g>
<!-- Node41&#45;&gt;Node3 -->
<g id="edge78" class="edge">
<title>Node41&#45;&gt;Node3</title>
<path fill="none" stroke="midnightblue" d="M1256.51,-571.32C1247.34,-563.34 1233.53,-551.31 1222.44,-541.65"/>
<polygon fill="midnightblue" stroke="midnightblue" points="1224.45,-538.76 1214.61,-534.83 1219.86,-544.04 1224.45,-538.76"/>
</g>
<!-- Node42 -->
<g id="node42" class="node">
<title>Node42</title>
<g id="a_node42"><a xlink:href="_land_unit_8h.html" target="_top" xlink:title=" ">
<polygon fill="white" stroke="black" points="1365.47,-459.5 1365.47,-478.5 1429.47,-478.5 1429.47,-459.5 1365.47,-459.5"/>
<text text-anchor="middle" x="1397.47" y="-466.5" font-family="Helvetica,sans-Serif" font-size="10.00">LandUnit.h</text>
</a>
</g>
</g>
<!-- Node41&#45;&gt;Node42 -->
<g id="edge79" class="edge">
<title>Node41&#45;&gt;Node42</title>
<path fill="none" stroke="midnightblue" d="M1276.75,-571.37C1298.94,-552.73 1351.58,-508.53 1379.45,-485.13"/>
<polygon fill="midnightblue" stroke="midnightblue" points="1381.83,-487.7 1387.24,-478.59 1377.33,-482.34 1381.83,-487.7"/>
</g>
<!-- Node42&#45;&gt;Node24 -->
<g id="edge80" class="edge">
<title>Node42&#45;&gt;Node24</title>
<path fill="none" stroke="midnightblue" d="M1397.01,-459.26C1395.62,-432.65 1391.39,-352.21 1389.46,-315.34"/>
<polygon fill="midnightblue" stroke="midnightblue" points="1392.94,-314.82 1388.92,-305.02 1385.95,-315.19 1392.94,-314.82"/>
</g>
</g>
</svg>
