<?xml version="1.0" encoding="UTF-8" standalone="no"?>
<!DOCTYPE svg PUBLIC "-//W3C//DTD SVG 1.1//EN"
 "http://www.w3.org/Graphics/SVG/1.1/DTD/svg11.dtd">
<!-- Generated by graphviz version 2.47.1 (20210421.1823)
 -->
<!-- Title: include/GameLogic/Units/AllUnits.h Pages: 1 -->
<svg width="1661pt" height="564pt"
 viewBox="0.00 0.00 1660.56 564.00" xmlns="http://www.w3.org/2000/svg" xmlns:xlink="http://www.w3.org/1999/xlink">
<g id="graph0" class="graph" transform="scale(1 1) rotate(0) translate(4 560)">
<title>include/GameLogic/Units/AllUnits.h</title>
<polygon fill="white" stroke="transparent" points="-4,4 -4,-560 1656.56,-560 1656.56,4 -4,4"/>
<!-- Node1 -->
<g id="node1" class="node">
<title>Node1</title>
<g id="a_node1"><a xlink:title=" ">
<polygon fill="#bfbfbf" stroke="black" points="1305,-525.5 1305,-555.5 1432,-555.5 1432,-525.5 1305,-525.5"/>
<text text-anchor="start" x="1313" y="-543.5" font-family="Helvetica,sans-Serif" font-size="10.00">include/GameLogic/Units</text>
<text text-anchor="middle" x="1368.5" y="-532.5" font-family="Helvetica,sans-Serif" font-size="10.00">/AllUnits.h</text>
</a>
</g>
</g>
<!-- Node2 -->
<g id="node2" class="node">
<title>Node2</title>
<g id="a_node2"><a xlink:href="_squad_8cpp.html" target="_top" xlink:title=" ">
<polygon fill="white" stroke="black" points="272.5,-268.5 272.5,-298.5 386.5,-298.5 386.5,-268.5 272.5,-268.5"/>
<text text-anchor="start" x="280.5" y="-286.5" font-family="Helvetica,sans-Serif" font-size="10.00">src/GameLogic/Squad</text>
<text text-anchor="middle" x="329.5" y="-275.5" font-family="Helvetica,sans-Serif" font-size="10.00">/Squad.cpp</text>
</a>
</g>
</g>
<!-- Node1&#45;&gt;Node2 -->
<g id="edge1" class="edge">
<title>Node1&#45;&gt;Node2</title>
<path fill="none" stroke="midnightblue" d="M1294.63,-537.24C1181.94,-532.88 960.66,-520.76 775.5,-489 678.18,-472.31 650.94,-472.64 560.5,-433 474.48,-395.3 384.06,-327.68 346.95,-298.52"/>
<polygon fill="midnightblue" stroke="midnightblue" points="1294.74,-540.74 1304.86,-537.62 1295,-533.75 1294.74,-540.74"/>
</g>
<!-- Node3 -->
<g id="node3" class="node">
<title>Node3</title>
<g id="a_node3"><a xlink:href="_squad_template_8cpp.html" target="_top" xlink:title=" ">
<polygon fill="white" stroke="black" points="1322.5,-67.5 1322.5,-97.5 1436.5,-97.5 1436.5,-67.5 1322.5,-67.5"/>
<text text-anchor="start" x="1330.5" y="-85.5" font-family="Helvetica,sans-Serif" font-size="10.00">src/GameLogic/Squad</text>
<text text-anchor="middle" x="1379.5" y="-74.5" font-family="Helvetica,sans-Serif" font-size="10.00">/SquadTemplate.cpp</text>
</a>
</g>
</g>
<!-- Node1&#45;&gt;Node3 -->
<g id="edge2" class="edge">
<title>Node1&#45;&gt;Node3</title>
<path fill="none" stroke="midnightblue" d="M1432.71,-522.07C1480.86,-504.64 1538.5,-472.5 1538.5,-418.5 1538.5,-418.5 1538.5,-418.5 1538.5,-215.5 1538.5,-178.2 1543.41,-161.76 1518.5,-134 1506.71,-120.86 1467.48,-107.27 1433.7,-97.5"/>
<polygon fill="midnightblue" stroke="midnightblue" points="1431.52,-518.77 1423.22,-525.36 1433.82,-525.39 1431.52,-518.77"/>
</g>
<!-- Node4 -->
<g id="node4" class="node">
<title>Node4</title>
<g id="a_node4"><a xlink:href="_all_units_8cpp.html" target="_top" xlink:title=" ">
<polygon fill="white" stroke="black" points="973.5,-0.5 973.5,-30.5 1083.5,-30.5 1083.5,-0.5 973.5,-0.5"/>
<text text-anchor="start" x="981.5" y="-18.5" font-family="Helvetica,sans-Serif" font-size="10.00">src/GameLogic/Units</text>
<text text-anchor="middle" x="1028.5" y="-7.5" font-family="Helvetica,sans-Serif" font-size="10.00">/AllUnits.cpp</text>
</a>
</g>
</g>
<!-- Node1&#45;&gt;Node4 -->
<g id="edge3" class="edge">
<title>Node1&#45;&gt;Node4</title>
<path fill="none" stroke="midnightblue" d="M1442.2,-533.93C1514.67,-523.95 1614.5,-496.12 1614.5,-418.5 1614.5,-418.5 1614.5,-418.5 1614.5,-148.5 1614.5,-111.31 1623.58,-91.39 1595.5,-67 1557.41,-33.9 1219.16,-21.47 1083.97,-17.8"/>
<polygon fill="midnightblue" stroke="midnightblue" points="1441.64,-530.47 1432.17,-535.22 1442.54,-537.41 1441.64,-530.47"/>
</g>
<!-- Node5 -->
<g id="node5" class="node">
<title>Node5</title>
<g id="a_node5"><a xlink:href="_cell_8h.html" target="_top" xlink:title=" ">
<polygon fill="white" stroke="black" points="784.5,-469.5 784.5,-488.5 912.5,-488.5 912.5,-469.5 784.5,-469.5"/>
<text text-anchor="middle" x="848.5" y="-476.5" font-family="Helvetica,sans-Serif" font-size="10.00">include/GameLogic/Cell.h</text>
</a>
</g>
</g>
<!-- Node1&#45;&gt;Node5 -->
<g id="edge4" class="edge">
<title>Node1&#45;&gt;Node5</title>
<path fill="none" stroke="midnightblue" d="M1294.77,-531.06C1192.63,-519.38 1009.76,-498.45 912.86,-487.36"/>
<polygon fill="midnightblue" stroke="midnightblue" points="1294.66,-534.57 1305,-532.23 1295.46,-527.62 1294.66,-534.57"/>
</g>
<!-- Node26 -->
<g id="node26" class="node">
<title>Node26</title>
<g id="a_node26"><a xlink:href="_all_squad_templates_8h.html" target="_top" xlink:title=" ">
<polygon fill="white" stroke="black" points="1455,-67.5 1455,-97.5 1586,-97.5 1586,-67.5 1455,-67.5"/>
<text text-anchor="start" x="1463" y="-85.5" font-family="Helvetica,sans-Serif" font-size="10.00">include/GameLogic/Squad</text>
<text text-anchor="middle" x="1520.5" y="-74.5" font-family="Helvetica,sans-Serif" font-size="10.00">/AllSquadTemplates.h</text>
</a>
</g>
</g>
<!-- Node1&#45;&gt;Node26 -->
<g id="edge63" class="edge">
<title>Node1&#45;&gt;Node26</title>
<path fill="none" stroke="midnightblue" d="M1442.34,-533.39C1509.18,-526.42 1601.22,-512.79 1628.5,-489 1653.44,-467.24 1652.5,-451.6 1652.5,-418.5 1652.5,-418.5 1652.5,-418.5 1652.5,-215.5 1652.5,-158.62 1590.46,-117.69 1551.45,-97.58"/>
<polygon fill="midnightblue" stroke="midnightblue" points="1441.85,-529.92 1432.25,-534.41 1442.56,-536.88 1441.85,-529.92"/>
</g>
<!-- Node6 -->
<g id="node6" class="node">
<title>Node6</title>
<g id="a_node6"><a xlink:href="_cell_8cpp.html" target="_top" xlink:title=" ">
<polygon fill="white" stroke="black" points="886,-408 886,-427 1007,-427 1007,-408 886,-408"/>
<text text-anchor="middle" x="946.5" y="-415" font-family="Helvetica,sans-Serif" font-size="10.00">src/GameLogic/Cell.cpp</text>
</a>
</g>
</g>
<!-- Node5&#45;&gt;Node6 -->
<g id="edge5" class="edge">
<title>Node5&#45;&gt;Node6</title>
<path fill="none" stroke="midnightblue" d="M871.16,-464.24C890.09,-452.75 916.49,-436.72 932.49,-427.01"/>
<polygon fill="midnightblue" stroke="midnightblue" points="869.27,-461.29 862.54,-469.48 872.91,-467.28 869.27,-461.29"/>
</g>
<!-- Node7 -->
<g id="node7" class="node">
<title>Node7</title>
<g id="a_node7"><a xlink:href="main_8cpp.html" target="_top" xlink:title=" ">
<polygon fill="white" stroke="black" points="1063.5,-408 1063.5,-427 1135.5,-427 1135.5,-408 1063.5,-408"/>
<text text-anchor="middle" x="1099.5" y="-415" font-family="Helvetica,sans-Serif" font-size="10.00">src/main.cpp</text>
</a>
</g>
</g>
<!-- Node5&#45;&gt;Node7 -->
<g id="edge6" class="edge">
<title>Node5&#45;&gt;Node7</title>
<path fill="none" stroke="midnightblue" d="M900.22,-467.34C940.94,-458.73 999.05,-445.95 1049.5,-433 1056.59,-431.18 1064.2,-429.06 1071.29,-427.01"/>
<polygon fill="midnightblue" stroke="midnightblue" points="899.32,-463.96 890.26,-469.44 900.76,-470.81 899.32,-463.96"/>
</g>
<!-- Node8 -->
<g id="node8" class="node">
<title>Node8</title>
<g id="a_node8"><a xlink:href="_set_squad_path_8h.html" target="_top" xlink:title=" ">
<polygon fill="white" stroke="black" points="792,-268.5 792,-298.5 905,-298.5 905,-268.5 792,-268.5"/>
<text text-anchor="start" x="800" y="-286.5" font-family="Helvetica,sans-Serif" font-size="10.00">include/engine/actions</text>
<text text-anchor="middle" x="848.5" y="-275.5" font-family="Helvetica,sans-Serif" font-size="10.00">/SetSquadPath.h</text>
</a>
</g>
</g>
<!-- Node5&#45;&gt;Node8 -->
<g id="edge7" class="edge">
<title>Node5&#45;&gt;Node8</title>
<path fill="none" stroke="midnightblue" d="M844.29,-459.11C840.75,-420.41 840.91,-332.89 844.77,-298.63"/>
<polygon fill="midnightblue" stroke="midnightblue" points="840.86,-459.91 845.51,-469.44 847.81,-459.09 840.86,-459.91"/>
</g>
<!-- Node11 -->
<g id="node11" class="node">
<title>Node11</title>
<g id="a_node11"><a xlink:href="_game_logic_2_squad_2_action_8h.html" target="_top" xlink:title=" ">
<polygon fill="white" stroke="black" points="644,-402.5 644,-432.5 775,-432.5 775,-402.5 644,-402.5"/>
<text text-anchor="start" x="652" y="-420.5" font-family="Helvetica,sans-Serif" font-size="10.00">include/GameLogic/Squad</text>
<text text-anchor="middle" x="709.5" y="-409.5" font-family="Helvetica,sans-Serif" font-size="10.00">/Action.h</text>
</a>
</g>
</g>
<!-- Node5&#45;&gt;Node11 -->
<g id="edge11" class="edge">
<title>Node5&#45;&gt;Node11</title>
<path fill="none" stroke="midnightblue" d="M819.21,-465.46C796.69,-455.82 765.6,-442.51 742.26,-432.52"/>
<polygon fill="midnightblue" stroke="midnightblue" points="818.01,-468.76 828.58,-469.48 820.77,-462.32 818.01,-468.76"/>
</g>
<!-- Node13 -->
<g id="node13" class="node">
<title>Node13</title>
<g id="a_node13"><a xlink:href="_squad_8h.html" target="_top" xlink:title=" ">
<polygon fill="white" stroke="black" points="541,-335.5 541,-365.5 672,-365.5 672,-335.5 541,-335.5"/>
<text text-anchor="start" x="549" y="-353.5" font-family="Helvetica,sans-Serif" font-size="10.00">include/GameLogic/Squad</text>
<text text-anchor="middle" x="606.5" y="-342.5" font-family="Helvetica,sans-Serif" font-size="10.00">/Squad.h</text>
</a>
</g>
</g>
<!-- Node5&#45;&gt;Node13 -->
<g id="edge60" class="edge">
<title>Node5&#45;&gt;Node13</title>
<path fill="none" stroke="midnightblue" d="M774.44,-471.16C718.18,-464.33 647.07,-452.06 625.5,-433 605.88,-415.67 600,-383.95 601.12,-365.61"/>
<polygon fill="midnightblue" stroke="midnightblue" points="774.05,-474.64 784.4,-472.34 774.87,-467.69 774.05,-474.64"/>
</g>
<!-- Node22 -->
<g id="node22" class="node">
<title>Node22</title>
<g id="a_node22"><a xlink:href="_factory_8h.html" target="_top" xlink:title=" ">
<polygon fill="white" stroke="black" points="1081,-201.5 1081,-231.5 1208,-231.5 1208,-201.5 1081,-201.5"/>
<text text-anchor="start" x="1089" y="-219.5" font-family="Helvetica,sans-Serif" font-size="10.00">include/GameLogic/Units</text>
<text text-anchor="middle" x="1144.5" y="-208.5" font-family="Helvetica,sans-Serif" font-size="10.00">/Factory.h</text>
</a>
</g>
</g>
<!-- Node5&#45;&gt;Node22 -->
<g id="edge61" class="edge">
<title>Node5&#45;&gt;Node22</title>
<path fill="none" stroke="midnightblue" d="M922.58,-470.46C953.71,-464.32 988.81,-453.18 1015.5,-433 1087.85,-378.31 1127.79,-270.23 1140.23,-231.62"/>
<polygon fill="midnightblue" stroke="midnightblue" points="921.83,-467.04 912.63,-472.29 923.09,-473.93 921.83,-467.04"/>
</g>
<!-- Node38 -->
<g id="node38" class="node">
<title>Node38</title>
<g id="a_node38"><a xlink:href="pathfinding_8h.html" target="_top" xlink:title=" ">
<polygon fill="white" stroke="black" points="404.5,-274 404.5,-293 524.5,-293 524.5,-274 404.5,-274"/>
<text text-anchor="middle" x="464.5" y="-281" font-family="Helvetica,sans-Serif" font-size="10.00">include/util/pathfinding.h</text>
</a>
</g>
</g>
<!-- Node5&#45;&gt;Node38 -->
<g id="edge62" class="edge">
<title>Node5&#45;&gt;Node38</title>
<path fill="none" stroke="midnightblue" d="M774.35,-473.61C726.06,-468.46 662.74,-457.27 611.5,-433 542,-400.07 486.8,-319.84 469.88,-293.23"/>
<polygon fill="midnightblue" stroke="midnightblue" points="774.12,-477.1 784.42,-474.62 774.82,-470.14 774.12,-477.1"/>
</g>
<!-- Node8&#45;&gt;Node5 -->
<g id="edge10" class="edge">
<title>Node8&#45;&gt;Node5</title>
<path fill="none" stroke="midnightblue" d="M853.14,-308.61C856.42,-352.03 855.87,-441.45 851.49,-469.44"/>
<polygon fill="midnightblue" stroke="midnightblue" points="856.63,-308.27 852.23,-298.63 849.66,-308.91 856.63,-308.27"/>
</g>
<!-- Node9 -->
<g id="node9" class="node">
<title>Node9</title>
<g id="a_node9"><a xlink:href="engine_2_action_8cpp.html" target="_top" xlink:title=" ">
<polygon fill="white" stroke="black" points="952.5,-207 952.5,-226 1062.5,-226 1062.5,-207 952.5,-207"/>
<text text-anchor="middle" x="1007.5" y="-214" font-family="Helvetica,sans-Serif" font-size="10.00">src/engine/Action.cpp</text>
</a>
</g>
</g>
<!-- Node8&#45;&gt;Node9 -->
<g id="edge8" class="edge">
<title>Node8&#45;&gt;Node9</title>
<path fill="none" stroke="midnightblue" d="M892.63,-264.46C923.35,-251.9 962.92,-235.72 986.69,-226.01"/>
<polygon fill="midnightblue" stroke="midnightblue" points="890.93,-261.37 883,-268.4 893.58,-267.85 890.93,-261.37"/>
</g>
<!-- Node10 -->
<g id="node10" class="node">
<title>Node10</title>
<g id="a_node10"><a xlink:href="_set_squad_path_8cpp.html" target="_top" xlink:title=" ">
<polygon fill="white" stroke="black" points="833,-201.5 833,-231.5 934,-231.5 934,-201.5 833,-201.5"/>
<text text-anchor="start" x="841" y="-219.5" font-family="Helvetica,sans-Serif" font-size="10.00">src/engine/actions</text>
<text text-anchor="middle" x="883.5" y="-208.5" font-family="Helvetica,sans-Serif" font-size="10.00">/SetSquadPath.cpp</text>
</a>
</g>
</g>
<!-- Node8&#45;&gt;Node10 -->
<g id="edge9" class="edge">
<title>Node8&#45;&gt;Node10</title>
<path fill="none" stroke="midnightblue" d="M860.84,-259.58C865.87,-250.24 871.52,-239.75 875.92,-231.58"/>
<polygon fill="midnightblue" stroke="midnightblue" points="857.75,-257.93 856.09,-268.4 863.92,-261.25 857.75,-257.93"/>
</g>
<!-- Node12 -->
<g id="node12" class="node">
<title>Node12</title>
<g id="a_node12"><a xlink:href="_game_logic_2_squad_2_action_8cpp.html" target="_top" xlink:title=" ">
<polygon fill="white" stroke="black" points="372.5,-201.5 372.5,-231.5 486.5,-231.5 486.5,-201.5 372.5,-201.5"/>
<text text-anchor="start" x="380.5" y="-219.5" font-family="Helvetica,sans-Serif" font-size="10.00">src/GameLogic/Squad</text>
<text text-anchor="middle" x="429.5" y="-208.5" font-family="Helvetica,sans-Serif" font-size="10.00">/Action.cpp</text>
</a>
</g>
</g>
<!-- Node11&#45;&gt;Node12 -->
<g id="edge12" class="edge">
<title>Node11&#45;&gt;Node12</title>
<path fill="none" stroke="midnightblue" d="M711.91,-392.19C713.72,-359.27 711.56,-300.87 678.5,-268 664.97,-254.55 556.01,-236.22 486.78,-225.74"/>
<polygon fill="midnightblue" stroke="midnightblue" points="708.41,-392.08 711.18,-402.3 715.39,-392.58 708.41,-392.08"/>
</g>
<!-- Node11&#45;&gt;Node13 -->
<g id="edge13" class="edge">
<title>Node11&#45;&gt;Node13</title>
<path fill="none" stroke="midnightblue" d="M672.85,-397.3C655.88,-387.12 636.61,-374.85 623.13,-365.58"/>
<polygon fill="midnightblue" stroke="midnightblue" points="671.08,-400.32 681.47,-402.4 674.65,-394.29 671.08,-400.32"/>
</g>
<!-- Node13&#45;&gt;Node2 -->
<g id="edge14" class="edge">
<title>Node13&#45;&gt;Node2</title>
<path fill="none" stroke="midnightblue" d="M536.77,-333.14C490.43,-322.26 430.33,-308.16 386.79,-297.94"/>
<polygon fill="midnightblue" stroke="midnightblue" points="536.2,-336.6 546.74,-335.48 537.8,-329.78 536.2,-336.6"/>
</g>
<!-- Node13&#45;&gt;Node5 -->
<g id="edge16" class="edge">
<title>Node13&#45;&gt;Node5</title>
<path fill="none" stroke="midnightblue" d="M615.74,-375.33C620.23,-393.74 627.02,-418.44 643.5,-433 664.48,-451.54 732.33,-463.65 784.35,-470.59"/>
<polygon fill="midnightblue" stroke="midnightblue" points="619.14,-374.49 613.37,-365.61 612.34,-376.15 619.14,-374.49"/>
</g>
<!-- Node13&#45;&gt;Node8 -->
<g id="edge15" class="edge">
<title>Node13&#45;&gt;Node8</title>
<path fill="none" stroke="midnightblue" d="M668.49,-332.85C707.95,-322.25 758.49,-308.68 795.96,-298.61"/>
<polygon fill="midnightblue" stroke="midnightblue" points="667.46,-329.5 658.71,-335.48 669.28,-336.26 667.46,-329.5"/>
</g>
<!-- Node13&#45;&gt;Node11 -->
<g id="edge17" class="edge">
<title>Node13&#45;&gt;Node11</title>
<path fill="none" stroke="midnightblue" d="M643.1,-370.67C660.07,-380.84 679.33,-393.11 692.83,-402.4"/>
<polygon fill="midnightblue" stroke="midnightblue" points="644.87,-367.65 634.48,-365.58 641.31,-373.68 644.87,-367.65"/>
</g>
<!-- Node14 -->
<g id="node14" class="node">
<title>Node14</title>
<g id="a_node14"><a xlink:href="_unit_8h.html" target="_top" xlink:title=" ">
<polygon fill="white" stroke="black" points="543,-268.5 543,-298.5 670,-298.5 670,-268.5 543,-268.5"/>
<text text-anchor="start" x="551" y="-286.5" font-family="Helvetica,sans-Serif" font-size="10.00">include/GameLogic/Units</text>
<text text-anchor="middle" x="606.5" y="-275.5" font-family="Helvetica,sans-Serif" font-size="10.00">/Unit.h</text>
</a>
</g>
</g>
<!-- Node13&#45;&gt;Node14 -->
<g id="edge18" class="edge">
<title>Node13&#45;&gt;Node14</title>
<path fill="none" stroke="midnightblue" d="M599.95,-325.4C599.51,-316.37 599.8,-306.41 600.83,-298.58"/>
<polygon fill="midnightblue" stroke="midnightblue" points="596.47,-325.74 600.82,-335.4 603.44,-325.13 596.47,-325.74"/>
</g>
<!-- Node13&#45;&gt;Node38 -->
<g id="edge57" class="edge">
<title>Node13&#45;&gt;Node38</title>
<path fill="none" stroke="midnightblue" d="M566.37,-331.13C539.04,-318.62 504.13,-302.64 483.08,-293.01"/>
<polygon fill="midnightblue" stroke="midnightblue" points="565.14,-334.42 575.69,-335.4 568.05,-328.05 565.14,-334.42"/>
</g>
<!-- Node14&#45;&gt;Node13 -->
<g id="edge20" class="edge">
<title>Node14&#45;&gt;Node13</title>
<path fill="none" stroke="midnightblue" d="M613.04,-308.57C613.49,-317.6 613.21,-327.56 612.18,-335.4"/>
<polygon fill="midnightblue" stroke="midnightblue" points="616.53,-308.24 612.17,-298.58 609.55,-308.84 616.53,-308.24"/>
</g>
<!-- Node15 -->
<g id="node15" class="node">
<title>Node15</title>
<g id="a_node15"><a xlink:href="_unit_8cpp.html" target="_top" xlink:title=" ">
<polygon fill="white" stroke="black" points="277.5,-134.5 277.5,-164.5 387.5,-164.5 387.5,-134.5 277.5,-134.5"/>
<text text-anchor="start" x="285.5" y="-152.5" font-family="Helvetica,sans-Serif" font-size="10.00">src/GameLogic/Units</text>
<text text-anchor="middle" x="332.5" y="-141.5" font-family="Helvetica,sans-Serif" font-size="10.00">/Unit.cpp</text>
</a>
</g>
</g>
<!-- Node14&#45;&gt;Node15 -->
<g id="edge19" class="edge">
<title>Node14&#45;&gt;Node15</title>
<path fill="none" stroke="midnightblue" d="M533.11,-267.68C462.18,-253.29 365.16,-233.42 363.5,-232 343.34,-214.81 336.26,-183.04 333.79,-164.65"/>
<polygon fill="midnightblue" stroke="midnightblue" points="532.43,-271.11 542.93,-269.67 533.82,-264.25 532.43,-271.11"/>
</g>
<!-- Node16 -->
<g id="node16" class="node">
<title>Node16</title>
<g id="a_node16"><a xlink:href="_squad_order_8h.html" target="_top" xlink:title=" ">
<polygon fill="white" stroke="black" points="0,-134.5 0,-164.5 131,-164.5 131,-134.5 0,-134.5"/>
<text text-anchor="start" x="8" y="-152.5" font-family="Helvetica,sans-Serif" font-size="10.00">include/GameLogic/Squad</text>
<text text-anchor="middle" x="65.5" y="-141.5" font-family="Helvetica,sans-Serif" font-size="10.00">/SquadOrder.h</text>
</a>
</g>
</g>
<!-- Node14&#45;&gt;Node16 -->
<g id="edge21" class="edge">
<title>Node14&#45;&gt;Node16</title>
<path fill="none" stroke="midnightblue" d="M532.81,-268.05C374.96,-246.45 322.98,-290.39 179.5,-232 158.99,-223.65 158.36,-214.08 140.5,-201 123.02,-188.2 102.59,-174.53 87.47,-164.64"/>
<polygon fill="midnightblue" stroke="midnightblue" points="532.46,-271.53 542.86,-269.49 533.46,-264.6 532.46,-271.53"/>
</g>
<!-- Node18 -->
<g id="node18" class="node">
<title>Node18</title>
<g id="a_node18"><a xlink:href="_armored_unit_8h.html" target="_top" xlink:title=" ">
<polygon fill="white" stroke="black" points="406,-134.5 406,-164.5 533,-164.5 533,-134.5 406,-134.5"/>
<text text-anchor="start" x="414" y="-152.5" font-family="Helvetica,sans-Serif" font-size="10.00">include/GameLogic/Units</text>
<text text-anchor="middle" x="469.5" y="-141.5" font-family="Helvetica,sans-Serif" font-size="10.00">/ArmoredUnit.h</text>
</a>
</g>
</g>
<!-- Node14&#45;&gt;Node18 -->
<g id="edge23" class="edge">
<title>Node14&#45;&gt;Node18</title>
<path fill="none" stroke="midnightblue" d="M573.69,-262.83C560.52,-254.19 545.63,-243.41 533.5,-232 511.1,-210.91 490.07,-181.63 478.57,-164.51"/>
<polygon fill="midnightblue" stroke="midnightblue" points="572.16,-266.01 582.47,-268.46 575.94,-260.12 572.16,-266.01"/>
</g>
<!-- Node14&#45;&gt;Node22 -->
<g id="edge28" class="edge">
<title>Node14&#45;&gt;Node22</title>
<path fill="none" stroke="midnightblue" d="M680.33,-276.5C772.26,-268.57 933.98,-253.08 1071.5,-232 1074.57,-231.53 1077.7,-231.02 1080.86,-230.48"/>
<polygon fill="midnightblue" stroke="midnightblue" points="679.95,-273.02 670.29,-277.36 680.55,-279.99 679.95,-273.02"/>
</g>
<!-- Node32 -->
<g id="node32" class="node">
<title>Node32</title>
<g id="a_node32"><a xlink:href="_land_unit_8h.html" target="_top" xlink:title=" ">
<polygon fill="white" stroke="black" points="688,-201.5 688,-231.5 815,-231.5 815,-201.5 688,-201.5"/>
<text text-anchor="start" x="696" y="-219.5" font-family="Helvetica,sans-Serif" font-size="10.00">include/GameLogic/Units</text>
<text text-anchor="middle" x="751.5" y="-208.5" font-family="Helvetica,sans-Serif" font-size="10.00">/LandUnit.h</text>
</a>
</g>
</g>
<!-- Node14&#45;&gt;Node32 -->
<g id="edge45" class="edge">
<title>Node14&#45;&gt;Node32</title>
<path fill="none" stroke="midnightblue" d="M647.17,-264.27C670.26,-253.92 698.74,-241.15 720.1,-231.58"/>
<polygon fill="midnightblue" stroke="midnightblue" points="645.66,-261.11 637.96,-268.4 648.52,-267.5 645.66,-261.11"/>
</g>
<!-- Node34 -->
<g id="node34" class="node">
<title>Node34</title>
<g id="a_node34"><a xlink:href="_transport_unit_8h.html" target="_top" xlink:title=" ">
<polygon fill="white" stroke="black" points="543,-201.5 543,-231.5 670,-231.5 670,-201.5 543,-201.5"/>
<text text-anchor="start" x="551" y="-219.5" font-family="Helvetica,sans-Serif" font-size="10.00">include/GameLogic/Units</text>
<text text-anchor="middle" x="606.5" y="-208.5" font-family="Helvetica,sans-Serif" font-size="10.00">/TransportUnit.h</text>
</a>
</g>
</g>
<!-- Node14&#45;&gt;Node34 -->
<g id="edge48" class="edge">
<title>Node14&#45;&gt;Node34</title>
<path fill="none" stroke="midnightblue" d="M606.5,-258.11C606.5,-249.15 606.5,-239.32 606.5,-231.58"/>
<polygon fill="midnightblue" stroke="midnightblue" points="603,-258.4 606.5,-268.4 610,-258.4 603,-258.4"/>
</g>
<!-- Node36 -->
<g id="node36" class="node">
<title>Node36</title>
<g id="a_node36"><a xlink:href="_unit_order_8h.html" target="_top" xlink:title=" ">
<polygon fill="white" stroke="black" points="189,-201.5 189,-231.5 316,-231.5 316,-201.5 189,-201.5"/>
<text text-anchor="start" x="197" y="-219.5" font-family="Helvetica,sans-Serif" font-size="10.00">include/GameLogic/Units</text>
<text text-anchor="middle" x="252.5" y="-208.5" font-family="Helvetica,sans-Serif" font-size="10.00">/UnitOrder.h</text>
</a>
</g>
</g>
<!-- Node14&#45;&gt;Node36 -->
<g id="edge52" class="edge">
<title>Node14&#45;&gt;Node36</title>
<path fill="none" stroke="midnightblue" d="M533.05,-269.62C530.15,-269.07 527.3,-268.53 524.5,-268 434.45,-251.07 411.66,-248.37 321.5,-232 319.74,-231.68 317.95,-231.36 316.16,-231.03"/>
<polygon fill="midnightblue" stroke="midnightblue" points="532.49,-273.08 542.97,-271.53 533.81,-266.2 532.49,-273.08"/>
</g>
<!-- Node17 -->
<g id="node17" class="node">
<title>Node17</title>
<g id="a_node17"><a xlink:href="_squad_order_8cpp.html" target="_top" xlink:title=" ">
<polygon fill="white" stroke="black" points="8.5,-67.5 8.5,-97.5 122.5,-97.5 122.5,-67.5 8.5,-67.5"/>
<text text-anchor="start" x="16.5" y="-85.5" font-family="Helvetica,sans-Serif" font-size="10.00">src/GameLogic/Squad</text>
<text text-anchor="middle" x="65.5" y="-74.5" font-family="Helvetica,sans-Serif" font-size="10.00">/SquadOrder.cpp</text>
</a>
</g>
</g>
<!-- Node16&#45;&gt;Node17 -->
<g id="edge22" class="edge">
<title>Node16&#45;&gt;Node17</title>
<path fill="none" stroke="midnightblue" d="M65.5,-124.11C65.5,-115.15 65.5,-105.32 65.5,-97.58"/>
<polygon fill="midnightblue" stroke="midnightblue" points="62,-124.4 65.5,-134.4 69,-124.4 62,-124.4"/>
</g>
<!-- Node19 -->
<g id="node19" class="node">
<title>Node19</title>
<g id="a_node19"><a xlink:href="_armored_unit_8cpp.html" target="_top" xlink:title=" ">
<polygon fill="white" stroke="black" points="414.5,-67.5 414.5,-97.5 524.5,-97.5 524.5,-67.5 414.5,-67.5"/>
<text text-anchor="start" x="422.5" y="-85.5" font-family="Helvetica,sans-Serif" font-size="10.00">src/GameLogic/Units</text>
<text text-anchor="middle" x="469.5" y="-74.5" font-family="Helvetica,sans-Serif" font-size="10.00">/ArmoredUnit.cpp</text>
</a>
</g>
</g>
<!-- Node18&#45;&gt;Node19 -->
<g id="edge24" class="edge">
<title>Node18&#45;&gt;Node19</title>
<path fill="none" stroke="midnightblue" d="M469.5,-124.11C469.5,-115.15 469.5,-105.32 469.5,-97.58"/>
<polygon fill="midnightblue" stroke="midnightblue" points="466,-124.4 469.5,-134.4 473,-124.4 466,-124.4"/>
</g>
<!-- Node20 -->
<g id="node20" class="node">
<title>Node20</title>
<g id="a_node20"><a xlink:href="_armored_unit_factory_8h.html" target="_top" xlink:title=" ">
<polygon fill="white" stroke="black" points="707,-67.5 707,-97.5 834,-97.5 834,-67.5 707,-67.5"/>
<text text-anchor="start" x="715" y="-85.5" font-family="Helvetica,sans-Serif" font-size="10.00">include/GameLogic/Units</text>
<text text-anchor="middle" x="770.5" y="-74.5" font-family="Helvetica,sans-Serif" font-size="10.00">/ArmoredUnitFactory.h</text>
</a>
</g>
</g>
<!-- Node18&#45;&gt;Node20 -->
<g id="edge25" class="edge">
<title>Node18&#45;&gt;Node20</title>
<path fill="none" stroke="midnightblue" d="M543.14,-132.6C593.25,-121.78 658.89,-107.6 706.76,-97.26"/>
<polygon fill="midnightblue" stroke="midnightblue" points="542.37,-129.18 533.33,-134.72 543.85,-136.03 542.37,-129.18"/>
</g>
<!-- Node20&#45;&gt;Node4 -->
<g id="edge26" class="edge">
<title>Node20&#45;&gt;Node4</title>
<path fill="none" stroke="midnightblue" d="M836.12,-64.97C878.57,-54.27 933.19,-40.51 973.38,-30.39"/>
<polygon fill="midnightblue" stroke="midnightblue" points="835.01,-61.64 826.16,-67.48 836.72,-68.43 835.01,-61.64"/>
</g>
<!-- Node21 -->
<g id="node21" class="node">
<title>Node21</title>
<g id="a_node21"><a xlink:href="_armored_unit_factory_8cpp.html" target="_top" xlink:title=" ">
<polygon fill="white" stroke="black" points="708,-0.5 708,-30.5 833,-30.5 833,-0.5 708,-0.5"/>
<text text-anchor="start" x="716" y="-18.5" font-family="Helvetica,sans-Serif" font-size="10.00">src/GameLogic/Units</text>
<text text-anchor="middle" x="770.5" y="-7.5" font-family="Helvetica,sans-Serif" font-size="10.00">/ArmoredUnitFactory.cpp</text>
</a>
</g>
</g>
<!-- Node20&#45;&gt;Node21 -->
<g id="edge27" class="edge">
<title>Node20&#45;&gt;Node21</title>
<path fill="none" stroke="midnightblue" d="M770.5,-57.11C770.5,-48.15 770.5,-38.32 770.5,-30.58"/>
<polygon fill="midnightblue" stroke="midnightblue" points="767,-57.4 770.5,-67.4 774,-57.4 767,-57.4"/>
</g>
<!-- Node22&#45;&gt;Node1 -->
<g id="edge36" class="edge">
<title>Node22&#45;&gt;Node1</title>
<path fill="none" stroke="midnightblue" d="M1217.92,-233.12C1276.74,-250.46 1349.5,-284.94 1349.5,-349.5 1349.5,-418.5 1349.5,-418.5 1349.5,-418.5 1349.5,-457.63 1359.32,-503.02 1364.84,-525.45"/>
<polygon fill="midnightblue" stroke="midnightblue" points="1218.81,-229.74 1208.24,-230.39 1216.91,-236.48 1218.81,-229.74"/>
</g>
<!-- Node22&#45;&gt;Node20 -->
<g id="edge37" class="edge">
<title>Node22&#45;&gt;Node20</title>
<path fill="none" stroke="midnightblue" d="M1070.73,-201.01C965.01,-184.74 925.37,-216.01 836.5,-165 808.71,-149.05 787.93,-116.51 777.67,-97.73"/>
<polygon fill="midnightblue" stroke="midnightblue" points="1070.39,-204.51 1080.83,-202.68 1071.53,-197.6 1070.39,-204.51"/>
</g>
<!-- Node23 -->
<g id="node23" class="node">
<title>Node23</title>
<g id="a_node23"><a xlink:href="_spawn_action_8cpp.html" target="_top" xlink:title=" ">
<polygon fill="white" stroke="black" points="1136.5,-134.5 1136.5,-164.5 1232.5,-164.5 1232.5,-134.5 1136.5,-134.5"/>
<text text-anchor="start" x="1144.5" y="-152.5" font-family="Helvetica,sans-Serif" font-size="10.00">src/engine/actions</text>
<text text-anchor="middle" x="1184.5" y="-141.5" font-family="Helvetica,sans-Serif" font-size="10.00">/SpawnAction.cpp</text>
</a>
</g>
</g>
<!-- Node22&#45;&gt;Node23 -->
<g id="edge29" class="edge">
<title>Node22&#45;&gt;Node23</title>
<path fill="none" stroke="midnightblue" d="M1158.43,-192.87C1164.22,-183.46 1170.76,-172.83 1175.84,-164.58"/>
<polygon fill="midnightblue" stroke="midnightblue" points="1155.44,-191.05 1153.18,-201.4 1161.4,-194.71 1155.44,-191.05"/>
</g>
<!-- Node24 -->
<g id="node24" class="node">
<title>Node24</title>
<g id="a_node24"><a xlink:href="_factory_8cpp.html" target="_top" xlink:title=" ">
<polygon fill="white" stroke="black" points="1250.5,-134.5 1250.5,-164.5 1360.5,-164.5 1360.5,-134.5 1250.5,-134.5"/>
<text text-anchor="start" x="1258.5" y="-152.5" font-family="Helvetica,sans-Serif" font-size="10.00">src/GameLogic/Units</text>
<text text-anchor="middle" x="1305.5" y="-141.5" font-family="Helvetica,sans-Serif" font-size="10.00">/Factory.cpp</text>
</a>
</g>
</g>
<!-- Node22&#45;&gt;Node24 -->
<g id="edge30" class="edge">
<title>Node22&#45;&gt;Node24</title>
<path fill="none" stroke="midnightblue" d="M1188.98,-197.54C1214.74,-187.14 1246.7,-174.24 1270.63,-164.58"/>
<polygon fill="midnightblue" stroke="midnightblue" points="1187.4,-194.41 1179.43,-201.4 1190.02,-200.9 1187.4,-194.41"/>
</g>
<!-- Node25 -->
<g id="node25" class="node">
<title>Node25</title>
<g id="a_node25"><a xlink:href="_squad_template_8h.html" target="_top" xlink:title=" ">
<polygon fill="white" stroke="black" points="1379,-134.5 1379,-164.5 1510,-164.5 1510,-134.5 1379,-134.5"/>
<text text-anchor="start" x="1387" y="-152.5" font-family="Helvetica,sans-Serif" font-size="10.00">include/GameLogic/Squad</text>
<text text-anchor="middle" x="1444.5" y="-141.5" font-family="Helvetica,sans-Serif" font-size="10.00">/SquadTemplate.h</text>
</a>
</g>
</g>
<!-- Node22&#45;&gt;Node25 -->
<g id="edge31" class="edge">
<title>Node22&#45;&gt;Node25</title>
<path fill="none" stroke="midnightblue" d="M1218.12,-199.55C1267.58,-188.83 1332.16,-174.84 1379.68,-164.55"/>
<polygon fill="midnightblue" stroke="midnightblue" points="1217.15,-196.18 1208.12,-201.72 1218.64,-203.02 1217.15,-196.18"/>
</g>
<!-- Node28 -->
<g id="node28" class="node">
<title>Node28</title>
<g id="a_node28"><a xlink:href="_land_unit_factory_8h.html" target="_top" xlink:title=" ">
<polygon fill="white" stroke="black" points="991,-134.5 991,-164.5 1118,-164.5 1118,-134.5 991,-134.5"/>
<text text-anchor="start" x="999" y="-152.5" font-family="Helvetica,sans-Serif" font-size="10.00">include/GameLogic/Units</text>
<text text-anchor="middle" x="1054.5" y="-141.5" font-family="Helvetica,sans-Serif" font-size="10.00">/LandUnitFactory.h</text>
</a>
</g>
</g>
<!-- Node22&#45;&gt;Node28 -->
<g id="edge38" class="edge">
<title>Node22&#45;&gt;Node28</title>
<path fill="none" stroke="midnightblue" d="M1116.74,-195.45C1102.89,-185.45 1086.48,-173.6 1073.99,-164.58"/>
<polygon fill="midnightblue" stroke="midnightblue" points="1114.82,-198.38 1124.97,-201.4 1118.91,-192.7 1114.82,-198.38"/>
</g>
<!-- Node30 -->
<g id="node30" class="node">
<title>Node30</title>
<g id="a_node30"><a xlink:href="_transport_unit_factory_8h.html" target="_top" xlink:title=" ">
<polygon fill="white" stroke="black" points="846,-134.5 846,-164.5 973,-164.5 973,-134.5 846,-134.5"/>
<text text-anchor="start" x="854" y="-152.5" font-family="Helvetica,sans-Serif" font-size="10.00">include/GameLogic/Units</text>
<text text-anchor="middle" x="909.5" y="-141.5" font-family="Helvetica,sans-Serif" font-size="10.00">/TransportUnitFactory.h</text>
</a>
</g>
</g>
<!-- Node22&#45;&gt;Node30 -->
<g id="edge41" class="edge">
<title>Node22&#45;&gt;Node30</title>
<path fill="none" stroke="midnightblue" d="M1083.82,-198.71C1045.57,-188.14 996.76,-174.63 960.52,-164.61"/>
<polygon fill="midnightblue" stroke="midnightblue" points="1083.23,-202.18 1093.8,-201.48 1085.09,-195.44 1083.23,-202.18"/>
</g>
<!-- Node25&#45;&gt;Node3 -->
<g id="edge32" class="edge">
<title>Node25&#45;&gt;Node3</title>
<path fill="none" stroke="midnightblue" d="M1423.31,-127.31C1413.56,-117.56 1402.26,-106.26 1393.58,-97.58"/>
<polygon fill="midnightblue" stroke="midnightblue" points="1420.85,-129.8 1430.4,-134.4 1425.8,-124.85 1420.85,-129.8"/>
</g>
<!-- Node25&#45;&gt;Node26 -->
<g id="edge33" class="edge">
<title>Node25&#45;&gt;Node26</title>
<path fill="none" stroke="midnightblue" d="M1468.61,-127.88C1480.16,-118.01 1493.69,-106.43 1504.04,-97.58"/>
<polygon fill="midnightblue" stroke="midnightblue" points="1466.32,-125.24 1460.99,-134.4 1470.87,-130.56 1466.32,-125.24"/>
</g>
<!-- Node26&#45;&gt;Node5 -->
<g id="edge35" class="edge">
<title>Node26&#45;&gt;Node5</title>
<path fill="none" stroke="midnightblue" d="M1536.77,-106.22C1553.3,-131.59 1576.5,-174.48 1576.5,-215.5 1576.5,-351.5 1576.5,-351.5 1576.5,-351.5 1576.5,-418.57 1090.69,-460.48 912.79,-473.58"/>
<polygon fill="midnightblue" stroke="midnightblue" points="1539.52,-104.04 1531.03,-97.7 1533.72,-107.95 1539.52,-104.04"/>
</g>
<!-- Node27 -->
<g id="node27" class="node">
<title>Node27</title>
<g id="a_node27"><a xlink:href="_all_squad_templates_8cpp.html" target="_top" xlink:title=" ">
<polygon fill="white" stroke="black" points="1459.5,-0.5 1459.5,-30.5 1581.5,-30.5 1581.5,-0.5 1459.5,-0.5"/>
<text text-anchor="start" x="1467.5" y="-18.5" font-family="Helvetica,sans-Serif" font-size="10.00">src/GameLogic/Squad</text>
<text text-anchor="middle" x="1520.5" y="-7.5" font-family="Helvetica,sans-Serif" font-size="10.00">/AllSquadTemplates.cpp</text>
</a>
</g>
</g>
<!-- Node26&#45;&gt;Node27 -->
<g id="edge34" class="edge">
<title>Node26&#45;&gt;Node27</title>
<path fill="none" stroke="midnightblue" d="M1520.5,-57.11C1520.5,-48.15 1520.5,-38.32 1520.5,-30.58"/>
<polygon fill="midnightblue" stroke="midnightblue" points="1517,-57.4 1520.5,-67.4 1524,-57.4 1517,-57.4"/>
</g>
<!-- Node28&#45;&gt;Node4 -->
<g id="edge39" class="edge">
<title>Node28&#45;&gt;Node4</title>
<path fill="none" stroke="midnightblue" d="M1049.75,-124.39C1044.34,-96.9 1035.67,-52.89 1031.26,-30.52"/>
<polygon fill="midnightblue" stroke="midnightblue" points="1046.35,-125.24 1051.72,-134.37 1053.22,-123.89 1046.35,-125.24"/>
</g>
<!-- Node29 -->
<g id="node29" class="node">
<title>Node29</title>
<g id="a_node29"><a xlink:href="_land_unit_factory_8cpp.html" target="_top" xlink:title=" ">
<polygon fill="white" stroke="black" points="1075.5,-67.5 1075.5,-97.5 1185.5,-97.5 1185.5,-67.5 1075.5,-67.5"/>
<text text-anchor="start" x="1083.5" y="-85.5" font-family="Helvetica,sans-Serif" font-size="10.00">src/GameLogic/Units</text>
<text text-anchor="middle" x="1130.5" y="-74.5" font-family="Helvetica,sans-Serif" font-size="10.00">/LandUnitFactory.cpp</text>
</a>
</g>
</g>
<!-- Node28&#45;&gt;Node29 -->
<g id="edge40" class="edge">
<title>Node28&#45;&gt;Node29</title>
<path fill="none" stroke="midnightblue" d="M1078.61,-127.88C1090.16,-118.01 1103.69,-106.43 1114.04,-97.58"/>
<polygon fill="midnightblue" stroke="midnightblue" points="1076.32,-125.24 1070.99,-134.4 1080.87,-130.56 1076.32,-125.24"/>
</g>
<!-- Node30&#45;&gt;Node4 -->
<g id="edge42" class="edge">
<title>Node30&#45;&gt;Node4</title>
<path fill="none" stroke="midnightblue" d="M949.21,-129.38C963.24,-121.19 978.31,-110.58 989.5,-98 1007.43,-77.84 1018.87,-47.98 1024.45,-30.55"/>
<polygon fill="midnightblue" stroke="midnightblue" points="947.22,-126.49 940.19,-134.41 950.62,-132.6 947.22,-126.49"/>
</g>
<!-- Node30&#45;&gt;Node20 -->
<g id="edge44" class="edge">
<title>Node30&#45;&gt;Node20</title>
<path fill="none" stroke="midnightblue" d="M870.22,-130.13C848.13,-119.8 820.99,-107.11 800.6,-97.58"/>
<polygon fill="midnightblue" stroke="midnightblue" points="868.8,-133.33 879.34,-134.4 871.76,-126.99 868.8,-133.33"/>
</g>
<!-- Node31 -->
<g id="node31" class="node">
<title>Node31</title>
<g id="a_node31"><a xlink:href="_transport_unit_factory_8cpp.html" target="_top" xlink:title=" ">
<polygon fill="white" stroke="black" points="852,-67.5 852,-97.5 981,-97.5 981,-67.5 852,-67.5"/>
<text text-anchor="start" x="860" y="-85.5" font-family="Helvetica,sans-Serif" font-size="10.00">src/GameLogic/Units</text>
<text text-anchor="middle" x="916.5" y="-74.5" font-family="Helvetica,sans-Serif" font-size="10.00">/TransportUnitFactory.cpp</text>
</a>
</g>
</g>
<!-- Node30&#45;&gt;Node31 -->
<g id="edge43" class="edge">
<title>Node30&#45;&gt;Node31</title>
<path fill="none" stroke="midnightblue" d="M912.1,-124.4C913.07,-115.37 914.14,-105.41 914.98,-97.58"/>
<polygon fill="midnightblue" stroke="midnightblue" points="908.61,-124.08 911.02,-134.4 915.57,-124.83 908.61,-124.08"/>
</g>
<!-- Node32&#45;&gt;Node28 -->
<g id="edge47" class="edge">
<title>Node32&#45;&gt;Node28</title>
<path fill="none" stroke="midnightblue" d="M824.93,-199.75C875.62,-188.87 942.36,-174.56 990.8,-164.16"/>
<polygon fill="midnightblue" stroke="midnightblue" points="824.06,-196.35 815.02,-201.87 825.53,-203.2 824.06,-196.35"/>
</g>
<!-- Node33 -->
<g id="node33" class="node">
<title>Node33</title>
<g id="a_node33"><a xlink:href="_land_unit_8cpp.html" target="_top" xlink:title=" ">
<polygon fill="white" stroke="black" points="679.5,-134.5 679.5,-164.5 789.5,-164.5 789.5,-134.5 679.5,-134.5"/>
<text text-anchor="start" x="687.5" y="-152.5" font-family="Helvetica,sans-Serif" font-size="10.00">src/GameLogic/Units</text>
<text text-anchor="middle" x="734.5" y="-141.5" font-family="Helvetica,sans-Serif" font-size="10.00">/LandUnit.cpp</text>
</a>
</g>
</g>
<!-- Node32&#45;&gt;Node33 -->
<g id="edge46" class="edge">
<title>Node32&#45;&gt;Node33</title>
<path fill="none" stroke="midnightblue" d="M745.27,-191.7C742.89,-182.59 740.25,-172.49 738.18,-164.58"/>
<polygon fill="midnightblue" stroke="midnightblue" points="741.89,-192.61 747.81,-201.4 748.67,-190.84 741.89,-192.61"/>
</g>
<!-- Node34&#45;&gt;Node18 -->
<g id="edge50" class="edge">
<title>Node34&#45;&gt;Node18</title>
<path fill="none" stroke="midnightblue" d="M567.49,-196.99C545.78,-186.69 519.17,-174.07 499.17,-164.58"/>
<polygon fill="midnightblue" stroke="midnightblue" points="566.24,-200.27 576.77,-201.4 569.24,-193.95 566.24,-200.27"/>
</g>
<!-- Node34&#45;&gt;Node30 -->
<g id="edge51" class="edge">
<title>Node34&#45;&gt;Node30</title>
<path fill="none" stroke="midnightblue" d="M679.93,-199.75C730.62,-188.87 797.36,-174.56 845.8,-164.16"/>
<polygon fill="midnightblue" stroke="midnightblue" points="679.06,-196.35 670.02,-201.87 680.53,-203.2 679.06,-196.35"/>
</g>
<!-- Node35 -->
<g id="node35" class="node">
<title>Node35</title>
<g id="a_node35"><a xlink:href="_transport_unit_8cpp.html" target="_top" xlink:title=" ">
<polygon fill="white" stroke="black" points="551.5,-134.5 551.5,-164.5 661.5,-164.5 661.5,-134.5 551.5,-134.5"/>
<text text-anchor="start" x="559.5" y="-152.5" font-family="Helvetica,sans-Serif" font-size="10.00">src/GameLogic/Units</text>
<text text-anchor="middle" x="606.5" y="-141.5" font-family="Helvetica,sans-Serif" font-size="10.00">/TransportUnit.cpp</text>
</a>
</g>
</g>
<!-- Node34&#45;&gt;Node35 -->
<g id="edge49" class="edge">
<title>Node34&#45;&gt;Node35</title>
<path fill="none" stroke="midnightblue" d="M606.5,-191.11C606.5,-182.15 606.5,-172.32 606.5,-164.58"/>
<polygon fill="midnightblue" stroke="midnightblue" points="603,-191.4 606.5,-201.4 610,-191.4 603,-191.4"/>
</g>
<!-- Node36&#45;&gt;Node14 -->
<g id="edge56" class="edge">
<title>Node36&#45;&gt;Node14</title>
<path fill="none" stroke="midnightblue" d="M326.26,-229.58C330.75,-230.41 335.19,-231.22 339.5,-232 429.66,-248.37 452.45,-251.07 542.5,-268 543.26,-268.14 544.03,-268.29 544.8,-268.43"/>
<polygon fill="midnightblue" stroke="midnightblue" points="326.84,-226.13 316.37,-227.78 325.58,-233.02 326.84,-226.13"/>
</g>
<!-- Node36&#45;&gt;Node15 -->
<g id="edge53" class="edge">
<title>Node36&#45;&gt;Node15</title>
<path fill="none" stroke="midnightblue" d="M277.87,-194.88C290.03,-185.01 304.28,-173.43 315.18,-164.58"/>
<polygon fill="midnightblue" stroke="midnightblue" points="275.41,-192.37 269.86,-201.4 279.83,-197.81 275.41,-192.37"/>
</g>
<!-- Node36&#45;&gt;Node16 -->
<g id="edge55" class="edge">
<title>Node36&#45;&gt;Node16</title>
<path fill="none" stroke="midnightblue" d="M202.42,-198.09C172.23,-187.6 134.28,-174.41 106,-164.58"/>
<polygon fill="midnightblue" stroke="midnightblue" points="201.33,-201.42 211.92,-201.4 203.63,-194.81 201.33,-201.42"/>
</g>
<!-- Node37 -->
<g id="node37" class="node">
<title>Node37</title>
<g id="a_node37"><a xlink:href="_unit_order_8cpp.html" target="_top" xlink:title=" ">
<polygon fill="white" stroke="black" points="149.5,-134.5 149.5,-164.5 259.5,-164.5 259.5,-134.5 149.5,-134.5"/>
<text text-anchor="start" x="157.5" y="-152.5" font-family="Helvetica,sans-Serif" font-size="10.00">src/GameLogic/Units</text>
<text text-anchor="middle" x="204.5" y="-141.5" font-family="Helvetica,sans-Serif" font-size="10.00">/UnitOrder.cpp</text>
</a>
</g>
</g>
<!-- Node36&#45;&gt;Node37 -->
<g id="edge54" class="edge">
<title>Node36&#45;&gt;Node37</title>
<path fill="none" stroke="midnightblue" d="M236,-193.16C229,-183.68 221.06,-172.92 214.89,-164.58"/>
<polygon fill="midnightblue" stroke="midnightblue" points="233.33,-195.43 242.08,-201.4 238.96,-191.27 233.33,-195.43"/>
</g>
<!-- Node38&#45;&gt;Node12 -->
<g id="edge58" class="edge">
<title>Node38&#45;&gt;Node12</title>
<path fill="none" stroke="midnightblue" d="M454.92,-264.71C449.31,-254.29 442.32,-241.3 437.09,-231.59"/>
<polygon fill="midnightblue" stroke="midnightblue" points="451.96,-266.59 459.78,-273.73 458.12,-263.27 451.96,-266.59"/>
</g>
<!-- Node39 -->
<g id="node39" class="node">
<title>Node39</title>
<g id="a_node39"><a xlink:href="pathfinding_8cpp.html" target="_top" xlink:title=" ">
<polygon fill="white" stroke="black" points="19,-207 19,-226 132,-226 132,-207 19,-207"/>
<text text-anchor="middle" x="75.5" y="-214" font-family="Helvetica,sans-Serif" font-size="10.00">src/util/pathfinding.cpp</text>
</a>
</g>
</g>
<!-- Node38&#45;&gt;Node39 -->
<g id="edge59" class="edge">
<title>Node38&#45;&gt;Node39</title>
<path fill="none" stroke="midnightblue" d="M415.98,-271.9C409.12,-270.52 402.14,-269.18 395.5,-268 285.4,-248.49 256.66,-251.2 146.5,-232 136.34,-230.23 125.4,-228.1 115.23,-226.04"/>
<polygon fill="midnightblue" stroke="midnightblue" points="415.4,-275.35 425.9,-273.94 416.81,-268.5 415.4,-275.35"/>
</g>
</g>
</svg>
