<?xml version="1.0" encoding="UTF-8" standalone="no"?>
<!DOCTYPE svg PUBLIC "-//W3C//DTD SVG 1.1//EN"
 "http://www.w3.org/Graphics/SVG/1.1/DTD/svg11.dtd">
<!-- Generated by graphviz version 2.47.1 (20210421.1823)
 -->
<!-- Title: include/GameLogic/Units/AllUnits.h Pages: 1 -->
<svg width="1424pt" height="666pt"
 viewBox="0.00 0.00 1424.00 666.00" xmlns="http://www.w3.org/2000/svg" xmlns:xlink="http://www.w3.org/1999/xlink">
<g id="graph0" class="graph" transform="scale(1 1) rotate(0) translate(4 662)">
<title>include/GameLogic/Units/AllUnits.h</title>
<polygon fill="white" stroke="transparent" points="-4,4 -4,-662 1420,-662 1420,4 -4,4"/>
<!-- Node1 -->
<g id="node1" class="node">
<title>Node1</title>
<g id="a_node1"><a xlink:title=" ">
<polygon fill="#bfbfbf" stroke="black" points="374.5,-627.5 374.5,-657.5 501.5,-657.5 501.5,-627.5 374.5,-627.5"/>
<text text-anchor="start" x="382.5" y="-645.5" font-family="Helvetica,sans-Serif" font-size="10.00">include/GameLogic/Units</text>
<text text-anchor="middle" x="438" y="-634.5" font-family="Helvetica,sans-Serif" font-size="10.00">/AllUnits.h</text>
</a>
</g>
</g>
<!-- Node2 -->
<g id="node2" class="node">
<title>Node2</title>
<g id="a_node2"><a xlink:href="_factory_8h.html" target="_top" xlink:title=" ">
<polygon fill="white" stroke="black" points="341,-571.5 341,-590.5 397,-590.5 397,-571.5 341,-571.5"/>
<text text-anchor="middle" x="369" y="-578.5" font-family="Helvetica,sans-Serif" font-size="10.00">Factory.h</text>
</a>
</g>
</g>
<!-- Node1&#45;&gt;Node2 -->
<g id="edge1" class="edge">
<title>Node1&#45;&gt;Node2</title>
<path fill="none" stroke="midnightblue" d="M421.65,-627.4C411.1,-618.31 397.4,-606.49 386.62,-597.19"/>
<polygon fill="midnightblue" stroke="midnightblue" points="388.9,-594.54 379.04,-590.66 384.33,-599.84 388.9,-594.54"/>
</g>
<!-- Node3 -->
<g id="node3" class="node">
<title>Node3</title>
<g id="a_node3"><a xlink:title=" ">
<polygon fill="white" stroke="#bfbfbf" points="116.5,-168.5 116.5,-187.5 157.5,-187.5 157.5,-168.5 116.5,-168.5"/>
<text text-anchor="middle" x="137" y="-175.5" font-family="Helvetica,sans-Serif" font-size="10.00">string</text>
</a>
</g>
</g>
<!-- Node2&#45;&gt;Node3 -->
<g id="edge2" class="edge">
<title>Node2&#45;&gt;Node3</title>
<path fill="none" stroke="midnightblue" d="M340.96,-577.73C254.85,-570 0,-541.11 0,-470 0,-470 0,-470 0,-350.5 0,-278.35 74.93,-219.12 113.96,-193.16"/>
<polygon fill="midnightblue" stroke="midnightblue" points="116.1,-195.94 122.6,-187.57 112.3,-190.06 116.1,-195.94"/>
</g>
<!-- Node4 -->
<g id="node4" class="node">
<title>Node4</title>
<g id="a_node4"><a xlink:href="_cell_8h.html" target="_top" xlink:title=" ">
<polygon fill="white" stroke="black" points="656.5,-515.5 656.5,-534.5 697.5,-534.5 697.5,-515.5 656.5,-515.5"/>
<text text-anchor="middle" x="677" y="-522.5" font-family="Helvetica,sans-Serif" font-size="10.00">Cell.h</text>
</a>
</g>
</g>
<!-- Node2&#45;&gt;Node4 -->
<g id="edge3" class="edge">
<title>Node2&#45;&gt;Node4</title>
<path fill="none" stroke="midnightblue" d="M397.15,-575.06C454.87,-564.95 586.22,-541.92 646.15,-531.41"/>
<polygon fill="midnightblue" stroke="midnightblue" points="646.9,-534.83 656.15,-529.66 645.69,-527.94 646.9,-534.83"/>
</g>
<!-- Node8 -->
<g id="node8" class="node">
<title>Node8</title>
<g id="a_node8"><a xlink:href="game_object_8h.html" target="_top" xlink:title=" ">
<polygon fill="white" stroke="black" points="848.5,-168.5 848.5,-187.5 925.5,-187.5 925.5,-168.5 848.5,-168.5"/>
<text text-anchor="middle" x="887" y="-175.5" font-family="Helvetica,sans-Serif" font-size="10.00">gameObject.h</text>
</a>
</g>
</g>
<!-- Node2&#45;&gt;Node8 -->
<g id="edge87" class="edge">
<title>Node2&#45;&gt;Node8</title>
<path fill="none" stroke="midnightblue" d="M397,-580.08C563.51,-580.18 1416,-575.55 1416,-470 1416,-470 1416,-470 1416,-412 1416,-343.92 1345.88,-362.11 1283,-336 1140.4,-276.79 1080.23,-323.72 948,-244 927.59,-231.69 909.65,-210.66 898.61,-195.86"/>
<polygon fill="midnightblue" stroke="midnightblue" points="901.34,-193.67 892.66,-187.59 895.65,-197.75 901.34,-193.67"/>
</g>
<!-- Node24 -->
<g id="node24" class="node">
<title>Node24</title>
<g id="a_node24"><a xlink:href="_unit_8h.html" target="_top" xlink:title=" ">
<polygon fill="white" stroke="black" points="104,-342 104,-361 226,-361 226,-342 104,-342"/>
<text text-anchor="middle" x="165" y="-349" font-family="Helvetica,sans-Serif" font-size="10.00">GameLogic/Units/Unit.h</text>
</a>
</g>
</g>
<!-- Node2&#45;&gt;Node24 -->
<g id="edge86" class="edge">
<title>Node2&#45;&gt;Node24</title>
<path fill="none" stroke="midnightblue" d="M354.81,-571.42C329.45,-555.57 275.67,-519.6 240,-479 209.79,-444.61 185.1,-396.34 173.03,-370.5"/>
<polygon fill="midnightblue" stroke="midnightblue" points="176.11,-368.83 168.77,-361.19 169.75,-371.74 176.11,-368.83"/>
</g>
<!-- Node4&#45;&gt;Node1 -->
<g id="edge69" class="edge">
<title>Node4&#45;&gt;Node1</title>
<path fill="none" stroke="midnightblue" d="M659.37,-534.52C620.92,-553.1 528.8,-597.62 476.31,-622.99"/>
<polygon fill="midnightblue" stroke="midnightblue" points="474.79,-619.83 467.31,-627.34 477.83,-626.14 474.79,-619.83"/>
</g>
<!-- Node5 -->
<g id="node5" class="node">
<title>Node5</title>
<g id="a_node5"><a xlink:title=" ">
<polygon fill="white" stroke="#bfbfbf" points="1238.5,-342 1238.5,-361 1273.5,-361 1273.5,-342 1238.5,-342"/>
<text text-anchor="middle" x="1256" y="-349" font-family="Helvetica,sans-Serif" font-size="10.00">map</text>
</a>
</g>
</g>
<!-- Node4&#45;&gt;Node5 -->
<g id="edge4" class="edge">
<title>Node4&#45;&gt;Node5</title>
<path fill="none" stroke="midnightblue" d="M697.62,-523.33C772.16,-520.66 1027.18,-509.46 1102,-479 1162.41,-454.41 1217.35,-397.44 1242.13,-369.12"/>
<polygon fill="midnightblue" stroke="midnightblue" points="1244.97,-371.18 1248.82,-361.31 1239.65,-366.62 1244.97,-371.18"/>
</g>
<!-- Node6 -->
<g id="node6" class="node">
<title>Node6</title>
<g id="a_node6"><a xlink:title=" ">
<polygon fill="white" stroke="#bfbfbf" points="567,-459.5 567,-478.5 597,-478.5 597,-459.5 567,-459.5"/>
<text text-anchor="middle" x="582" y="-466.5" font-family="Helvetica,sans-Serif" font-size="10.00">set</text>
</a>
</g>
</g>
<!-- Node4&#45;&gt;Node6 -->
<g id="edge5" class="edge">
<title>Node4&#45;&gt;Node6</title>
<path fill="none" stroke="midnightblue" d="M661.74,-515.32C646.78,-506.82 623.75,-493.73 606.27,-483.8"/>
<polygon fill="midnightblue" stroke="midnightblue" points="607.65,-480.55 597.23,-478.65 604.19,-486.64 607.65,-480.55"/>
</g>
<!-- Node7 -->
<g id="node7" class="node">
<title>Node7</title>
<g id="a_node7"><a xlink:href="gameplay_clickable_game_object_8h.html" target="_top" xlink:title=" ">
<polygon fill="white" stroke="black" points="868.5,-336.5 868.5,-366.5 997.5,-366.5 997.5,-336.5 868.5,-336.5"/>
<text text-anchor="start" x="876.5" y="-354.5" font-family="Helvetica,sans-Serif" font-size="10.00">engine/gameplayClickable</text>
<text text-anchor="middle" x="933" y="-343.5" font-family="Helvetica,sans-Serif" font-size="10.00">GameObject.h</text>
</a>
</g>
</g>
<!-- Node4&#45;&gt;Node7 -->
<g id="edge6" class="edge">
<title>Node4&#45;&gt;Node7</title>
<path fill="none" stroke="midnightblue" d="M697.55,-523.06C749.51,-520.23 884.16,-510.01 914,-479 940.1,-451.87 939.97,-405.21 936.9,-376.78"/>
<polygon fill="midnightblue" stroke="midnightblue" points="940.32,-375.98 935.57,-366.5 933.38,-376.87 940.32,-375.98"/>
</g>
<!-- Node10 -->
<g id="node10" class="node">
<title>Node10</title>
<g id="a_node10"><a xlink:href="config_8h.html" target="_top" xlink:title=" ">
<polygon fill="white" stroke="black" points="163.5,-112.5 163.5,-131.5 244.5,-131.5 244.5,-112.5 163.5,-112.5"/>
<text text-anchor="middle" x="204" y="-119.5" font-family="Helvetica,sans-Serif" font-size="10.00">engine/config.h</text>
</a>
</g>
</g>
<!-- Node4&#45;&gt;Node10 -->
<g id="edge26" class="edge">
<title>Node4&#45;&gt;Node10</title>
<path fill="none" stroke="midnightblue" d="M656.29,-523.46C601.19,-521.59 446.84,-513.43 324,-479 206.37,-446.03 143.99,-466.41 73,-367 21.49,-294.87 22.07,-229.39 86,-168 104.39,-150.34 130.42,-139.44 153.36,-132.8"/>
<polygon fill="midnightblue" stroke="midnightblue" points="154.56,-136.1 163.3,-130.12 152.74,-129.34 154.56,-136.1"/>
</g>
<!-- Node13 -->
<g id="node13" class="node">
<title>Node13</title>
<g id="a_node13"><a xlink:href="_facade_8h.html" target="_top" xlink:title=" ">
<polygon fill="white" stroke="black" points="498,-0.5 498,-19.5 554,-19.5 554,-0.5 498,-0.5"/>
<text text-anchor="middle" x="526" y="-7.5" font-family="Helvetica,sans-Serif" font-size="10.00">Facade.h</text>
</a>
</g>
</g>
<!-- Node4&#45;&gt;Node13 -->
<g id="edge27" class="edge">
<title>Node4&#45;&gt;Node13</title>
<path fill="none" stroke="midnightblue" d="M697.74,-523.34C779.88,-520.55 1082.33,-508.43 1173,-479 1290.58,-440.83 1378,-414.62 1378,-291 1378,-291 1378,-291 1378,-121 1378,-37.81 730.91,-16.08 564.6,-11.86"/>
<polygon fill="midnightblue" stroke="midnightblue" points="564.43,-8.36 554.35,-11.61 564.26,-15.35 564.43,-8.36"/>
</g>
<!-- Node16 -->
<g id="node16" class="node">
<title>Node16</title>
<g id="a_node16"><a xlink:title=" ">
<polygon fill="white" stroke="#bfbfbf" points="1078,-56.5 1078,-75.5 1132,-75.5 1132,-56.5 1078,-56.5"/>
<text text-anchor="middle" x="1105" y="-63.5" font-family="Helvetica,sans-Serif" font-size="10.00">iostream</text>
</a>
</g>
</g>
<!-- Node4&#45;&gt;Node16 -->
<g id="edge50" class="edge">
<title>Node4&#45;&gt;Node16</title>
<path fill="none" stroke="midnightblue" d="M697.74,-523.34C779.88,-520.55 1082.33,-508.43 1173,-479 1279.3,-444.49 1340,-402.76 1340,-291 1340,-291 1340,-291 1340,-177 1340,-90.84 1208.82,-72.02 1142.48,-68.02"/>
<polygon fill="midnightblue" stroke="midnightblue" points="1142.59,-64.52 1132.42,-67.49 1142.22,-71.51 1142.59,-64.52"/>
</g>
<!-- Node18 -->
<g id="node18" class="node">
<title>Node18</title>
<g id="a_node18"><a xlink:href="cellgen_8h.html" target="_top" xlink:title=" ">
<polygon fill="white" stroke="black" points="1092.5,-403.5 1092.5,-422.5 1163.5,-422.5 1163.5,-403.5 1092.5,-403.5"/>
<text text-anchor="middle" x="1128" y="-410.5" font-family="Helvetica,sans-Serif" font-size="10.00">util/cellgen.h</text>
</a>
</g>
</g>
<!-- Node4&#45;&gt;Node18 -->
<g id="edge17" class="edge">
<title>Node4&#45;&gt;Node18</title>
<path fill="none" stroke="midnightblue" d="M697.72,-523.78C770.26,-522.69 1011.87,-516.29 1078,-479 1097.13,-468.22 1111.35,-446.84 1119.64,-431.54"/>
<polygon fill="midnightblue" stroke="midnightblue" points="1122.81,-433.04 1124.23,-422.54 1116.57,-429.86 1122.81,-433.04"/>
</g>
<!-- Node21 -->
<g id="node21" class="node">
<title>Node21</title>
<g id="a_node21"><a xlink:href="_all_flags_8h.html" target="_top" xlink:title=" ">
<polygon fill="white" stroke="black" points="287.5,-280.5 287.5,-299.5 346.5,-299.5 346.5,-280.5 287.5,-280.5"/>
<text text-anchor="middle" x="317" y="-287.5" font-family="Helvetica,sans-Serif" font-size="10.00">AllFlags.h</text>
</a>
</g>
</g>
<!-- Node4&#45;&gt;Node21 -->
<g id="edge21" class="edge">
<title>Node4&#45;&gt;Node21</title>
<path fill="none" stroke="midnightblue" d="M656.36,-523.17C593.77,-520.34 407.28,-509.47 356,-479 302.74,-447.35 292.42,-425.83 273,-367 268.68,-353.92 267.8,-348.76 273,-336 277.8,-324.23 287.33,-313.86 296.29,-306.05"/>
<polygon fill="midnightblue" stroke="midnightblue" points="298.65,-308.64 304.22,-299.63 294.25,-303.2 298.65,-308.64"/>
</g>
<!-- Node23 -->
<g id="node23" class="node">
<title>Node23</title>
<g id="a_node23"><a xlink:href="_squad_8h.html" target="_top" xlink:title=" ">
<polygon fill="white" stroke="black" points="404,-403.5 404,-422.5 456,-422.5 456,-403.5 404,-403.5"/>
<text text-anchor="middle" x="430" y="-410.5" font-family="Helvetica,sans-Serif" font-size="10.00">Squad.h</text>
</a>
</g>
</g>
<!-- Node4&#45;&gt;Node23 -->
<g id="edge28" class="edge">
<title>Node4&#45;&gt;Node23</title>
<path fill="none" stroke="midnightblue" d="M656.37,-518.96C630.41,-511.13 585.78,-495.23 549,-479 512.53,-462.9 471.66,-441.54 448.32,-427.78"/>
<polygon fill="midnightblue" stroke="midnightblue" points="450.1,-424.77 439.73,-422.56 446.46,-430.75 450.1,-424.77"/>
</g>
<!-- Node30 -->
<g id="node30" class="node">
<title>Node30</title>
<g id="a_node30"><a xlink:href="_player_8h.html" target="_top" xlink:title=" ">
<polygon fill="white" stroke="black" points="512.5,-342 512.5,-361 563.5,-361 563.5,-342 512.5,-342"/>
<text text-anchor="middle" x="538" y="-349" font-family="Helvetica,sans-Serif" font-size="10.00">Player.h</text>
</a>
</g>
</g>
<!-- Node4&#45;&gt;Node30 -->
<g id="edge85" class="edge">
<title>Node4&#45;&gt;Node30</title>
<path fill="none" stroke="midnightblue" d="M669.92,-515.26C647.88,-488.08 580.31,-404.71 551.38,-369.01"/>
<polygon fill="midnightblue" stroke="midnightblue" points="553.92,-366.58 544.9,-361.02 548.48,-370.99 553.92,-366.58"/>
</g>
<!-- Node31 -->
<g id="node31" class="node">
<title>Node31</title>
<g id="a_node31"><a xlink:href="geometry_8h.html" target="_top" xlink:title=" ">
<polygon fill="white" stroke="black" points="825,-459.5 825,-478.5 905,-478.5 905,-459.5 825,-459.5"/>
<text text-anchor="middle" x="865" y="-466.5" font-family="Helvetica,sans-Serif" font-size="10.00">util/geometry.h</text>
</a>
</g>
</g>
<!-- Node4&#45;&gt;Node31 -->
<g id="edge51" class="edge">
<title>Node4&#45;&gt;Node31</title>
<path fill="none" stroke="midnightblue" d="M697.84,-518.01C728.47,-509.22 786.21,-492.63 825.15,-481.45"/>
<polygon fill="midnightblue" stroke="midnightblue" points="826.46,-484.71 835.11,-478.59 824.53,-477.98 826.46,-484.71"/>
</g>
<!-- Node32 -->
<g id="node32" class="node">
<title>Node32</title>
<g id="a_node32"><a xlink:href="_none_8h.html" target="_top" xlink:title=" ">
<polygon fill="white" stroke="black" points="1032.5,-168.5 1032.5,-187.5 1145.5,-187.5 1145.5,-168.5 1032.5,-168.5"/>
<text text-anchor="middle" x="1089" y="-175.5" font-family="Helvetica,sans-Serif" font-size="10.00">engine/actions/None.h</text>
</a>
</g>
</g>
<!-- Node4&#45;&gt;Node32 -->
<g id="edge54" class="edge">
<title>Node4&#45;&gt;Node32</title>
<path fill="none" stroke="midnightblue" d="M697.54,-522.18C751.02,-517.16 893.26,-501.97 934,-479 994.37,-444.96 1114.67,-308.89 1139,-244 1142.12,-235.68 1142.62,-232.12 1139,-224 1133.43,-211.5 1122.48,-201.01 1112.25,-193.32"/>
<polygon fill="midnightblue" stroke="midnightblue" points="1114.16,-190.38 1103.95,-187.53 1110.15,-196.12 1114.16,-190.38"/>
</g>
<!-- Node33 -->
<g id="node33" class="node">
<title>Node33</title>
<g id="a_node33"><a xlink:href="game_controller_8h.html" target="_top" xlink:title=" ">
<polygon fill="white" stroke="black" points="1188.5,-280.5 1188.5,-299.5 1309.5,-299.5 1309.5,-280.5 1188.5,-280.5"/>
<text text-anchor="middle" x="1249" y="-287.5" font-family="Helvetica,sans-Serif" font-size="10.00">engine/gameController.h</text>
</a>
</g>
</g>
<!-- Node4&#45;&gt;Node33 -->
<g id="edge56" class="edge">
<title>Node4&#45;&gt;Node33</title>
<path fill="none" stroke="midnightblue" d="M697.75,-523.37C775.92,-520.76 1052.22,-509.54 1134,-479 1211.61,-450.02 1247.11,-441.67 1283,-367 1288.97,-354.58 1287.38,-349.06 1283,-336 1279.4,-325.25 1272.1,-315.02 1265.18,-307.04"/>
<polygon fill="midnightblue" stroke="midnightblue" points="1267.65,-304.56 1258.29,-299.61 1262.52,-309.32 1267.65,-304.56"/>
</g>
<!-- Node37 -->
<g id="node37" class="node">
<title>Node37</title>
<g id="a_node37"><a xlink:href="_set_squad_path_8h.html" target="_top" xlink:title=" ">
<polygon fill="white" stroke="black" points="653.5,-459.5 653.5,-478.5 806.5,-478.5 806.5,-459.5 653.5,-459.5"/>
<text text-anchor="middle" x="730" y="-466.5" font-family="Helvetica,sans-Serif" font-size="10.00">engine/actions/SetSquadPath.h</text>
</a>
</g>
</g>
<!-- Node4&#45;&gt;Node37 -->
<g id="edge65" class="edge">
<title>Node4&#45;&gt;Node37</title>
<path fill="none" stroke="midnightblue" d="M680.59,-515.08C686.77,-507.06 698.17,-495.1 708.6,-485.51"/>
<polygon fill="midnightblue" stroke="midnightblue" points="711.09,-487.99 716.28,-478.75 706.46,-482.73 711.09,-487.99"/>
</g>
<!-- Node38 -->
<g id="node38" class="node">
<title>Node38</title>
<g id="a_node38"><a xlink:href="_all_squad_templates_8h.html" target="_top" xlink:title=" ">
<polygon fill="white" stroke="black" points="383.5,-459.5 383.5,-478.5 492.5,-478.5 492.5,-459.5 383.5,-459.5"/>
<text text-anchor="middle" x="438" y="-466.5" font-family="Helvetica,sans-Serif" font-size="10.00">AllSquadTemplates.h</text>
</a>
</g>
</g>
<!-- Node4&#45;&gt;Node38 -->
<g id="edge70" class="edge">
<title>Node4&#45;&gt;Node38</title>
<path fill="none" stroke="midnightblue" d="M656.21,-519.3C618.52,-510.79 538.01,-492.6 486.02,-480.85"/>
<polygon fill="midnightblue" stroke="midnightblue" points="486.55,-477.38 476.03,-478.59 485.01,-484.21 486.55,-477.38"/>
</g>
<!-- Node7&#45;&gt;Node8 -->
<g id="edge7" class="edge">
<title>Node7&#45;&gt;Node8</title>
<path fill="none" stroke="midnightblue" d="M929.24,-336.47C920.95,-305.57 901.13,-231.69 891.9,-197.25"/>
<polygon fill="midnightblue" stroke="midnightblue" points="895.27,-196.31 889.3,-187.56 888.51,-198.13 895.27,-196.31"/>
</g>
<!-- Node9 -->
<g id="node9" class="node">
<title>Node9</title>
<g id="a_node9"><a xlink:title=" ">
<polygon fill="white" stroke="#bfbfbf" points="1159.5,-112.5 1159.5,-131.5 1188.5,-131.5 1188.5,-112.5 1159.5,-112.5"/>
<text text-anchor="middle" x="1174" y="-119.5" font-family="Helvetica,sans-Serif" font-size="10.00">list</text>
</a>
</g>
</g>
<!-- Node8&#45;&gt;Node9 -->
<g id="edge8" class="edge">
<title>Node8&#45;&gt;Node9</title>
<path fill="none" stroke="midnightblue" d="M925.71,-169.72C985.72,-158.43 1099.49,-137.02 1149.44,-127.62"/>
<polygon fill="midnightblue" stroke="midnightblue" points="1150.18,-131.04 1159.36,-125.75 1148.89,-124.16 1150.18,-131.04"/>
</g>
<!-- Node8&#45;&gt;Node10 -->
<g id="edge9" class="edge">
<title>Node8&#45;&gt;Node10</title>
<path fill="none" stroke="midnightblue" d="M848.32,-173.94C732.1,-164.75 385.95,-137.39 254.98,-127.03"/>
<polygon fill="midnightblue" stroke="midnightblue" points="255.06,-123.53 244.82,-126.23 254.51,-130.5 255.06,-123.53"/>
</g>
<!-- Node15 -->
<g id="node15" class="node">
<title>Node15</title>
<g id="a_node15"><a xlink:href="engine_2_action_8h.html" target="_top" xlink:title=" ">
<polygon fill="white" stroke="black" points="845.5,-112.5 845.5,-131.5 928.5,-131.5 928.5,-112.5 845.5,-112.5"/>
<text text-anchor="middle" x="887" y="-119.5" font-family="Helvetica,sans-Serif" font-size="10.00">engine/Action.h</text>
</a>
</g>
</g>
<!-- Node8&#45;&gt;Node15 -->
<g id="edge14" class="edge">
<title>Node8&#45;&gt;Node15</title>
<path fill="none" stroke="midnightblue" d="M887,-168.08C887,-161.01 887,-150.86 887,-141.99"/>
<polygon fill="midnightblue" stroke="midnightblue" points="890.5,-141.75 887,-131.75 883.5,-141.75 890.5,-141.75"/>
</g>
<!-- Node11 -->
<g id="node11" class="node">
<title>Node11</title>
<g id="a_node11"><a xlink:href="_s_f_m_l_facade_8h.html" target="_top" xlink:title=" ">
<polygon fill="white" stroke="black" points="294.5,-56.5 294.5,-75.5 417.5,-75.5 417.5,-56.5 294.5,-56.5"/>
<text text-anchor="middle" x="356" y="-63.5" font-family="Helvetica,sans-Serif" font-size="10.00">graphics/SFMLFacade.h</text>
</a>
</g>
</g>
<!-- Node10&#45;&gt;Node11 -->
<g id="edge10" class="edge">
<title>Node10&#45;&gt;Node11</title>
<path fill="none" stroke="midnightblue" d="M228.08,-112.44C253.54,-103.4 293.89,-89.06 322.46,-78.92"/>
<polygon fill="midnightblue" stroke="midnightblue" points="323.78,-82.16 332.03,-75.52 321.43,-75.57 323.78,-82.16"/>
</g>
<!-- Node14 -->
<g id="node14" class="node">
<title>Node14</title>
<g id="a_node14"><a xlink:title=" ">
<polygon fill="white" stroke="#bfbfbf" points="155,-56.5 155,-75.5 253,-75.5 253,-56.5 155,-56.5"/>
<text text-anchor="middle" x="204" y="-63.5" font-family="Helvetica,sans-Serif" font-size="10.00">nlohmann/json.hpp</text>
</a>
</g>
</g>
<!-- Node10&#45;&gt;Node14 -->
<g id="edge13" class="edge">
<title>Node10&#45;&gt;Node14</title>
<path fill="none" stroke="midnightblue" d="M204,-112.08C204,-105.01 204,-94.86 204,-85.99"/>
<polygon fill="midnightblue" stroke="midnightblue" points="207.5,-85.75 204,-75.75 200.5,-85.75 207.5,-85.75"/>
</g>
<!-- Node12 -->
<g id="node12" class="node">
<title>Node12</title>
<g id="a_node12"><a xlink:title=" ">
<polygon fill="white" stroke="#bfbfbf" points="304,-0.5 304,-19.5 408,-19.5 408,-0.5 304,-0.5"/>
<text text-anchor="middle" x="356" y="-7.5" font-family="Helvetica,sans-Serif" font-size="10.00">SFML/Graphics.hpp</text>
</a>
</g>
</g>
<!-- Node11&#45;&gt;Node12 -->
<g id="edge11" class="edge">
<title>Node11&#45;&gt;Node12</title>
<path fill="none" stroke="midnightblue" d="M356,-56.08C356,-49.01 356,-38.86 356,-29.99"/>
<polygon fill="midnightblue" stroke="midnightblue" points="359.5,-29.75 356,-19.75 352.5,-29.75 359.5,-29.75"/>
</g>
<!-- Node11&#45;&gt;Node13 -->
<g id="edge12" class="edge">
<title>Node11&#45;&gt;Node13</title>
<path fill="none" stroke="midnightblue" d="M382.94,-56.44C411.66,-47.32 457.33,-32.81 489.32,-22.65"/>
<polygon fill="midnightblue" stroke="midnightblue" points="490.72,-25.88 499.19,-19.52 488.6,-19.21 490.72,-25.88"/>
</g>
<!-- Node15&#45;&gt;Node16 -->
<g id="edge15" class="edge">
<title>Node15&#45;&gt;Node16</title>
<path fill="none" stroke="midnightblue" d="M921.54,-112.44C961.5,-102.55 1027.02,-86.32 1067.99,-76.17"/>
<polygon fill="midnightblue" stroke="midnightblue" points="1068.99,-79.53 1077.85,-73.73 1067.3,-72.73 1068.99,-79.53"/>
</g>
<!-- Node17 -->
<g id="node17" class="node">
<title>Node17</title>
<g id="a_node17"><a xlink:title=" ">
<polygon fill="white" stroke="#bfbfbf" points="496.5,-56.5 496.5,-75.5 547.5,-75.5 547.5,-56.5 496.5,-56.5"/>
<text text-anchor="middle" x="522" y="-63.5" font-family="Helvetica,sans-Serif" font-size="10.00">memory</text>
</a>
</g>
</g>
<!-- Node15&#45;&gt;Node17 -->
<g id="edge16" class="edge">
<title>Node15&#45;&gt;Node17</title>
<path fill="none" stroke="midnightblue" d="M845.49,-114.86C773.3,-104.18 625.87,-82.37 557.85,-72.3"/>
<polygon fill="midnightblue" stroke="midnightblue" points="558.04,-68.79 547.64,-70.79 557.02,-75.72 558.04,-68.79"/>
</g>
<!-- Node18&#45;&gt;Node5 -->
<g id="edge19" class="edge">
<title>Node18&#45;&gt;Node5</title>
<path fill="none" stroke="midnightblue" d="M1148.32,-403.47C1168.86,-394.72 1201.42,-380.53 1229,-367 1229.82,-366.6 1230.64,-366.19 1231.47,-365.77"/>
<polygon fill="midnightblue" stroke="midnightblue" points="1233.14,-368.85 1240.4,-361.13 1229.91,-362.64 1233.14,-368.85"/>
</g>
<!-- Node19 -->
<g id="node19" class="node">
<title>Node19</title>
<g id="a_node19"><a xlink:title=" ">
<polygon fill="white" stroke="#bfbfbf" points="512,-168.5 512,-187.5 556,-187.5 556,-168.5 512,-168.5"/>
<text text-anchor="middle" x="534" y="-175.5" font-family="Helvetica,sans-Serif" font-size="10.00">vector</text>
</a>
</g>
</g>
<!-- Node18&#45;&gt;Node19 -->
<g id="edge18" class="edge">
<title>Node18&#45;&gt;Node19</title>
<path fill="none" stroke="midnightblue" d="M1114.74,-403.29C1092.65,-388.86 1046.82,-359.3 1007,-336 917.05,-283.37 899.51,-258.01 801,-224 719.28,-195.78 617.17,-184.88 566.15,-180.98"/>
<polygon fill="midnightblue" stroke="midnightblue" points="566.29,-177.48 556.06,-180.25 565.78,-184.47 566.29,-177.48"/>
</g>
<!-- Node20 -->
<g id="node20" class="node">
<title>Node20</title>
<g id="a_node20"><a xlink:title=" ">
<polygon fill="white" stroke="#bfbfbf" points="1092,-342 1092,-361 1220,-361 1220,-342 1092,-342"/>
<text text-anchor="middle" x="1156" y="-349" font-family="Helvetica,sans-Serif" font-size="10.00">scanline_triangulation.hpp</text>
</a>
</g>
</g>
<!-- Node18&#45;&gt;Node20 -->
<g id="edge20" class="edge">
<title>Node18&#45;&gt;Node20</title>
<path fill="none" stroke="midnightblue" d="M1132.01,-403.48C1136.09,-394.82 1142.52,-381.15 1147.7,-370.15"/>
<polygon fill="midnightblue" stroke="midnightblue" points="1150.9,-371.55 1152,-361.01 1144.57,-368.57 1150.9,-371.55"/>
</g>
<!-- Node21&#45;&gt;Node17 -->
<g id="edge25" class="edge">
<title>Node21&#45;&gt;Node17</title>
<path fill="none" stroke="midnightblue" d="M316.42,-280.36C315.95,-267.26 316.62,-242 327,-224 367.25,-154.16 451.53,-103.11 494.92,-80.28"/>
<polygon fill="midnightblue" stroke="midnightblue" points="496.74,-83.28 504.02,-75.59 493.53,-77.06 496.74,-83.28"/>
</g>
<!-- Node22 -->
<g id="node22" class="node">
<title>Node22</title>
<g id="a_node22"><a xlink:href="_flag_8h.html" target="_top" xlink:title=" ">
<polygon fill="white" stroke="black" points="336.5,-224.5 336.5,-243.5 379.5,-243.5 379.5,-224.5 336.5,-224.5"/>
<text text-anchor="middle" x="358" y="-231.5" font-family="Helvetica,sans-Serif" font-size="10.00">Flag.h</text>
</a>
</g>
</g>
<!-- Node21&#45;&gt;Node22 -->
<g id="edge22" class="edge">
<title>Node21&#45;&gt;Node22</title>
<path fill="none" stroke="midnightblue" d="M323.77,-280.08C329.56,-272.46 338.06,-261.26 345.14,-251.94"/>
<polygon fill="midnightblue" stroke="midnightblue" points="348.1,-253.83 351.36,-243.75 342.52,-249.6 348.1,-253.83"/>
</g>
<!-- Node22&#45;&gt;Node3 -->
<g id="edge24" class="edge">
<title>Node22&#45;&gt;Node3</title>
<path fill="none" stroke="midnightblue" d="M336.41,-227.72C296.91,-218.07 212.92,-197.55 167.57,-186.47"/>
<polygon fill="midnightblue" stroke="midnightblue" points="168.26,-183.03 157.71,-184.06 166.59,-189.83 168.26,-183.03"/>
</g>
<!-- Node22&#45;&gt;Node19 -->
<g id="edge23" class="edge">
<title>Node22&#45;&gt;Node19</title>
<path fill="none" stroke="midnightblue" d="M379.58,-226.38C410.24,-216.97 466.62,-199.67 502.11,-188.78"/>
<polygon fill="midnightblue" stroke="midnightblue" points="503.43,-192.04 511.97,-185.76 501.38,-185.35 503.43,-192.04"/>
</g>
<!-- Node23&#45;&gt;Node4 -->
<g id="edge29" class="edge">
<title>Node23&#45;&gt;Node4</title>
<path fill="none" stroke="midnightblue" d="M451.27,-422.56C478.31,-435.56 525.5,-460.68 567,-479 594.69,-491.22 626.82,-503.25 649.34,-511.79"/>
<polygon fill="midnightblue" stroke="midnightblue" points="648.36,-515.17 658.95,-515.46 650.86,-508.63 648.36,-515.17"/>
</g>
<!-- Node23&#45;&gt;Node7 -->
<g id="edge41" class="edge">
<title>Node23&#45;&gt;Node7</title>
<path fill="none" stroke="midnightblue" d="M456.34,-408.88C530.6,-400.1 743.74,-374.89 858.2,-361.35"/>
<polygon fill="midnightblue" stroke="midnightblue" points="858.76,-364.81 868.28,-360.16 857.94,-357.85 858.76,-364.81"/>
</g>
<!-- Node23&#45;&gt;Node10 -->
<g id="edge45" class="edge">
<title>Node23&#45;&gt;Node10</title>
<path fill="none" stroke="midnightblue" d="M403.88,-412.14C333.21,-411.96 140.49,-407.68 95,-367 69.05,-343.79 76,-325.82 76,-291 76,-291 76,-291 76,-233 76,-200.99 84.25,-190.51 107,-168 122.4,-152.77 143.9,-142.07 162.76,-134.94"/>
<polygon fill="midnightblue" stroke="midnightblue" points="164.08,-138.19 172.33,-131.54 161.73,-131.59 164.08,-138.19"/>
</g>
<!-- Node23&#45;&gt;Node13 -->
<g id="edge46" class="edge">
<title>Node23&#45;&gt;Node13</title>
<path fill="none" stroke="midnightblue" d="M431.96,-403.25C436.23,-383.39 446,-333.38 446,-291 446,-291 446,-291 446,-121 446,-80.62 481.69,-45.11 505.4,-25.97"/>
<polygon fill="midnightblue" stroke="midnightblue" points="507.74,-28.58 513.5,-19.69 503.45,-23.05 507.74,-28.58"/>
</g>
<!-- Node23&#45;&gt;Node24 -->
<g id="edge30" class="edge">
<title>Node23&#45;&gt;Node24</title>
<path fill="none" stroke="midnightblue" d="M403.92,-407.03C358.22,-397.48 263.8,-376.39 208.25,-363.41"/>
<polygon fill="midnightblue" stroke="midnightblue" points="208.88,-359.97 198.35,-361.09 207.28,-366.78 208.88,-359.97"/>
</g>
<!-- Node29 -->
<g id="node29" class="node">
<title>Node29</title>
<g id="a_node29"><a xlink:href="_game_logic_2_squad_2_action_8h.html" target="_top" xlink:title=" ">
<polygon fill="white" stroke="black" points="282,-342 282,-361 418,-361 418,-342 282,-342"/>
<text text-anchor="middle" x="350" y="-349" font-family="Helvetica,sans-Serif" font-size="10.00">GameLogic/Squad/Action.h</text>
</a>
</g>
</g>
<!-- Node23&#45;&gt;Node29 -->
<g id="edge42" class="edge">
<title>Node23&#45;&gt;Node29</title>
<path fill="none" stroke="midnightblue" d="M413.64,-403.48C399,-394.11 378.18,-378.88 364.23,-367.51"/>
<polygon fill="midnightblue" stroke="midnightblue" points="366.44,-364.79 356.54,-361.01 361.92,-370.14 366.44,-364.79"/>
</g>
<!-- Node23&#45;&gt;Node30 -->
<g id="edge47" class="edge">
<title>Node23&#45;&gt;Node30</title>
<path fill="none" stroke="midnightblue" d="M445.47,-403.48C463.28,-393.67 492.74,-377.43 513.63,-365.92"/>
<polygon fill="midnightblue" stroke="midnightblue" points="515.49,-368.9 522.55,-361.01 512.11,-362.77 515.49,-368.9"/>
</g>
<!-- Node24&#45;&gt;Node21 -->
<g id="edge36" class="edge">
<title>Node24&#45;&gt;Node21</title>
<path fill="none" stroke="midnightblue" d="M186.78,-341.98C212.74,-331.81 256.31,-314.76 285.83,-303.2"/>
<polygon fill="midnightblue" stroke="midnightblue" points="287.23,-306.41 295.26,-299.51 284.67,-299.9 287.23,-306.41"/>
</g>
<!-- Node24&#45;&gt;Node23 -->
<g id="edge35" class="edge">
<title>Node24&#45;&gt;Node23</title>
<path fill="none" stroke="midnightblue" d="M207.87,-361.03C259.57,-372.09 345.33,-391.34 393.85,-402.75"/>
<polygon fill="midnightblue" stroke="midnightblue" points="393.07,-406.16 403.61,-405.06 394.68,-399.35 393.07,-406.16"/>
</g>
<!-- Node25 -->
<g id="node25" class="node">
<title>Node25</title>
<g id="a_node25"><a xlink:title=" ">
<polygon fill="white" stroke="#bfbfbf" points="226.5,-280.5 226.5,-299.5 269.5,-299.5 269.5,-280.5 226.5,-280.5"/>
<text text-anchor="middle" x="248" y="-287.5" font-family="Helvetica,sans-Serif" font-size="10.00">cstdio</text>
</a>
</g>
</g>
<!-- Node24&#45;&gt;Node25 -->
<g id="edge31" class="edge">
<title>Node24&#45;&gt;Node25</title>
<path fill="none" stroke="midnightblue" d="M176.89,-341.98C190.2,-332.43 212,-316.81 227.96,-305.37"/>
<polygon fill="midnightblue" stroke="midnightblue" points="230.04,-308.18 236.13,-299.51 225.96,-302.49 230.04,-308.18"/>
</g>
<!-- Node26 -->
<g id="node26" class="node">
<title>Node26</title>
<g id="a_node26"><a xlink:href="_unit_order_8h.html" target="_top" xlink:title=" ">
<polygon fill="white" stroke="black" points="104,-280.5 104,-299.5 170,-299.5 170,-280.5 104,-280.5"/>
<text text-anchor="middle" x="137" y="-287.5" font-family="Helvetica,sans-Serif" font-size="10.00">UnitOrder.h</text>
</a>
</g>
</g>
<!-- Node24&#45;&gt;Node26 -->
<g id="edge32" class="edge">
<title>Node24&#45;&gt;Node26</title>
<path fill="none" stroke="midnightblue" d="M156.09,-341.98C150.25,-333.49 143.53,-320.2 139.34,-309.32"/>
<polygon fill="midnightblue" stroke="midnightblue" points="142.56,-307.91 136.11,-299.51 135.91,-310.1 142.56,-307.91"/>
</g>
<!-- Node27 -->
<g id="node27" class="node">
<title>Node27</title>
<g id="a_node27"><a xlink:href="_textures_8h.html" target="_top" xlink:title=" ">
<polygon fill="white" stroke="black" points="170.5,-224.5 170.5,-243.5 271.5,-243.5 271.5,-224.5 170.5,-224.5"/>
<text text-anchor="middle" x="221" y="-231.5" font-family="Helvetica,sans-Serif" font-size="10.00">graphics/Textures.h</text>
</a>
</g>
</g>
<!-- Node24&#45;&gt;Node27 -->
<g id="edge37" class="edge">
<title>Node24&#45;&gt;Node27</title>
<path fill="none" stroke="midnightblue" d="M169.21,-341.82C178.33,-323.01 200.08,-278.15 212.29,-252.96"/>
<polygon fill="midnightblue" stroke="midnightblue" points="215.53,-254.31 216.74,-243.78 209.23,-251.25 215.53,-254.31"/>
</g>
<!-- Node26&#45;&gt;Node3 -->
<g id="edge33" class="edge">
<title>Node26&#45;&gt;Node3</title>
<path fill="none" stroke="midnightblue" d="M137,-280.37C137,-262.62 137,-221.67 137,-197.6"/>
<polygon fill="midnightblue" stroke="midnightblue" points="140.5,-197.59 137,-187.59 133.5,-197.59 140.5,-197.59"/>
</g>
<!-- Node26&#45;&gt;Node24 -->
<g id="edge34" class="edge">
<title>Node26&#45;&gt;Node24</title>
<path fill="none" stroke="midnightblue" d="M145.9,-299.51C151.74,-307.99 158.46,-321.27 162.66,-332.16"/>
<polygon fill="midnightblue" stroke="midnightblue" points="159.44,-333.57 165.89,-341.98 166.09,-331.38 159.44,-333.57"/>
</g>
<!-- Node27&#45;&gt;Node10 -->
<g id="edge38" class="edge">
<title>Node27&#45;&gt;Node10</title>
<path fill="none" stroke="midnightblue" d="M219.67,-224.37C216.92,-206.62 210.59,-165.67 206.87,-141.6"/>
<polygon fill="midnightblue" stroke="midnightblue" points="210.31,-140.94 205.33,-131.59 203.4,-142.01 210.31,-140.94"/>
</g>
<!-- Node27&#45;&gt;Node19 -->
<g id="edge39" class="edge">
<title>Node27&#45;&gt;Node19</title>
<path fill="none" stroke="midnightblue" d="M270.6,-224.44C335.4,-213.26 447.05,-194 501.81,-184.55"/>
<polygon fill="midnightblue" stroke="midnightblue" points="502.71,-187.95 511.97,-182.8 501.52,-181.05 502.71,-187.95"/>
</g>
<!-- Node28 -->
<g id="node28" class="node">
<title>Node28</title>
<g id="a_node28"><a xlink:title=" ">
<polygon fill="white" stroke="#bfbfbf" points="232.5,-168.5 232.5,-187.5 315.5,-187.5 315.5,-168.5 232.5,-168.5"/>
<text text-anchor="middle" x="274" y="-175.5" font-family="Helvetica,sans-Serif" font-size="10.00">unordered_map</text>
</a>
</g>
</g>
<!-- Node27&#45;&gt;Node28 -->
<g id="edge40" class="edge">
<title>Node27&#45;&gt;Node28</title>
<path fill="none" stroke="midnightblue" d="M229.75,-224.08C237.47,-216.22 248.9,-204.57 258.22,-195.08"/>
<polygon fill="midnightblue" stroke="midnightblue" points="260.9,-197.34 265.41,-187.75 255.91,-192.44 260.9,-197.34"/>
</g>
<!-- Node29&#45;&gt;Node4 -->
<g id="edge44" class="edge">
<title>Node29&#45;&gt;Node4</title>
<path fill="none" stroke="midnightblue" d="M348.63,-361.11C345.53,-384.02 340.63,-446.94 374,-479 412.5,-515.98 576.96,-522.64 646.14,-523.78"/>
<polygon fill="midnightblue" stroke="midnightblue" points="646.35,-527.29 656.39,-523.93 646.44,-520.29 646.35,-527.29"/>
</g>
<!-- Node29&#45;&gt;Node23 -->
<g id="edge43" class="edge">
<title>Node29&#45;&gt;Node23</title>
<path fill="none" stroke="midnightblue" d="M366.34,-361.01C380.97,-370.37 401.79,-385.59 415.75,-396.97"/>
<polygon fill="midnightblue" stroke="midnightblue" points="413.54,-399.69 423.44,-403.48 418.06,-394.35 413.54,-399.69"/>
</g>
<!-- Node30&#45;&gt;Node11 -->
<g id="edge49" class="edge">
<title>Node30&#45;&gt;Node11</title>
<path fill="none" stroke="midnightblue" d="M514.16,-341.91C476.63,-326.68 408,-291.15 408,-235 408,-235 408,-235 408,-177 408,-141.12 385.11,-104.42 369.7,-83.79"/>
<polygon fill="midnightblue" stroke="midnightblue" points="372.35,-81.5 363.45,-75.74 366.82,-85.79 372.35,-81.5"/>
</g>
<!-- Node30&#45;&gt;Node13 -->
<g id="edge48" class="edge">
<title>Node30&#45;&gt;Node13</title>
<path fill="none" stroke="midnightblue" d="M543.32,-341.95C558.01,-317.52 598,-244.93 598,-179 598,-179 598,-179 598,-121 598,-81.94 565.82,-45.94 544.49,-26.37"/>
<polygon fill="midnightblue" stroke="midnightblue" points="546.75,-23.7 536.94,-19.7 542.12,-28.94 546.75,-23.7"/>
</g>
<!-- Node31&#45;&gt;Node18 -->
<g id="edge53" class="edge">
<title>Node31&#45;&gt;Node18</title>
<path fill="none" stroke="midnightblue" d="M905.23,-459.74C953.02,-449.93 1032.55,-433.6 1082.53,-423.34"/>
<polygon fill="midnightblue" stroke="midnightblue" points="1083.32,-426.75 1092.42,-421.31 1081.92,-419.89 1083.32,-426.75"/>
</g>
<!-- Node31&#45;&gt;Node19 -->
<g id="edge52" class="edge">
<title>Node31&#45;&gt;Node19</title>
<path fill="none" stroke="midnightblue" d="M824.89,-460.76C821.54,-460.16 818.21,-459.57 815,-459 662.84,-432.01 484,-507.04 484,-352.5 484,-352.5 484,-352.5 484,-289 484,-253.18 506.24,-216.21 521.05,-195.56"/>
<polygon fill="midnightblue" stroke="midnightblue" points="523.88,-197.63 527.05,-187.52 518.27,-193.45 523.88,-197.63"/>
</g>
<!-- Node32&#45;&gt;Node15 -->
<g id="edge55" class="edge">
<title>Node32&#45;&gt;Node15</title>
<path fill="none" stroke="midnightblue" d="M1056.99,-168.44C1022.27,-159.16 966.71,-144.31 928.62,-134.13"/>
<polygon fill="midnightblue" stroke="midnightblue" points="929.42,-130.72 918.86,-131.52 927.61,-137.48 929.42,-130.72"/>
</g>
<!-- Node33&#45;&gt;Node8 -->
<g id="edge58" class="edge">
<title>Node33&#45;&gt;Node8</title>
<path fill="none" stroke="midnightblue" d="M1188.24,-281.15C1123.67,-272.32 1026.14,-257.45 991,-244 958.75,-231.65 925.63,-208.87 905.68,-193.82"/>
<polygon fill="midnightblue" stroke="midnightblue" points="907.55,-190.84 897.49,-187.52 903.28,-196.39 907.55,-190.84"/>
</g>
<!-- Node33&#45;&gt;Node9 -->
<g id="edge57" class="edge">
<title>Node33&#45;&gt;Node9</title>
<path fill="none" stroke="midnightblue" d="M1259.07,-280.36C1272.09,-268.08 1292.07,-244.77 1283,-224 1265.64,-184.24 1224.05,-153.13 1197.55,-136.47"/>
<polygon fill="midnightblue" stroke="midnightblue" points="1199.24,-133.4 1188.88,-131.18 1195.6,-139.37 1199.24,-133.4"/>
</g>
<!-- Node34 -->
<g id="node34" class="node">
<title>Node34</title>
<g id="a_node34"><a xlink:href="_network_manager_8h.html" target="_top" xlink:title=" ">
<polygon fill="white" stroke="black" points="1000,-224.5 1000,-243.5 1130,-243.5 1130,-224.5 1000,-224.5"/>
<text text-anchor="middle" x="1065" y="-231.5" font-family="Helvetica,sans-Serif" font-size="10.00">engine/NetworkManager.h</text>
</a>
</g>
</g>
<!-- Node33&#45;&gt;Node34 -->
<g id="edge59" class="edge">
<title>Node33&#45;&gt;Node34</title>
<path fill="none" stroke="midnightblue" d="M1219.84,-280.44C1188.49,-271.24 1138.47,-256.56 1103.8,-246.39"/>
<polygon fill="midnightblue" stroke="midnightblue" points="1104.6,-242.97 1094.02,-243.52 1102.63,-249.69 1104.6,-242.97"/>
</g>
<!-- Node36 -->
<g id="node36" class="node">
<title>Node36</title>
<g id="a_node36"><a xlink:title=" ">
<polygon fill="white" stroke="#bfbfbf" points="1224.5,-224.5 1224.5,-243.5 1273.5,-243.5 1273.5,-224.5 1224.5,-224.5"/>
<text text-anchor="middle" x="1249" y="-231.5" font-family="Helvetica,sans-Serif" font-size="10.00">random</text>
</a>
</g>
</g>
<!-- Node33&#45;&gt;Node36 -->
<g id="edge64" class="edge">
<title>Node33&#45;&gt;Node36</title>
<path fill="none" stroke="midnightblue" d="M1249,-280.08C1249,-273.01 1249,-262.86 1249,-253.99"/>
<polygon fill="midnightblue" stroke="midnightblue" points="1252.5,-253.75 1249,-243.75 1245.5,-253.75 1252.5,-253.75"/>
</g>
<!-- Node34&#45;&gt;Node8 -->
<g id="edge60" class="edge">
<title>Node34&#45;&gt;Node8</title>
<path fill="none" stroke="midnightblue" d="M1036.8,-224.44C1006.59,-215.28 958.49,-200.69 924.97,-190.52"/>
<polygon fill="midnightblue" stroke="midnightblue" points="925.66,-187.07 915.07,-187.52 923.63,-193.77 925.66,-187.07"/>
</g>
<!-- Node34&#45;&gt;Node19 -->
<g id="edge62" class="edge">
<title>Node34&#45;&gt;Node19</title>
<path fill="none" stroke="midnightblue" d="M999.89,-226.38C885.29,-214.72 651.61,-190.96 566.19,-182.27"/>
<polygon fill="midnightblue" stroke="midnightblue" points="566.37,-178.77 556.07,-181.24 565.66,-185.74 566.37,-178.77"/>
</g>
<!-- Node34&#45;&gt;Node32 -->
<g id="edge61" class="edge">
<title>Node34&#45;&gt;Node32</title>
<path fill="none" stroke="midnightblue" d="M1068.96,-224.08C1072.21,-216.77 1076.92,-206.18 1080.95,-197.1"/>
<polygon fill="midnightblue" stroke="midnightblue" points="1084.25,-198.31 1085.11,-187.75 1077.85,-195.47 1084.25,-198.31"/>
</g>
<!-- Node35 -->
<g id="node35" class="node">
<title>Node35</title>
<g id="a_node35"><a xlink:title=" ">
<polygon fill="white" stroke="#bfbfbf" points="943.5,-168.5 943.5,-187.5 1014.5,-187.5 1014.5,-168.5 943.5,-168.5"/>
<text text-anchor="middle" x="979" y="-175.5" font-family="Helvetica,sans-Serif" font-size="10.00">sys/socket.h</text>
</a>
</g>
</g>
<!-- Node34&#45;&gt;Node35 -->
<g id="edge63" class="edge">
<title>Node34&#45;&gt;Node35</title>
<path fill="none" stroke="midnightblue" d="M1051.18,-224.32C1037.77,-215.9 1017.18,-202.97 1001.41,-193.07"/>
<polygon fill="midnightblue" stroke="midnightblue" points="1003.11,-190.01 992.78,-187.65 999.39,-195.94 1003.11,-190.01"/>
</g>
<!-- Node37&#45;&gt;Node4 -->
<g id="edge68" class="edge">
<title>Node37&#45;&gt;Node4</title>
<path fill="none" stroke="midnightblue" d="M726.48,-478.83C720.3,-486.87 708.83,-498.91 698.35,-508.54"/>
<polygon fill="midnightblue" stroke="midnightblue" points="695.83,-506.09 690.63,-515.32 700.45,-511.35 695.83,-506.09"/>
</g>
<!-- Node37&#45;&gt;Node15 -->
<g id="edge66" class="edge">
<title>Node37&#45;&gt;Node15</title>
<path fill="none" stroke="midnightblue" d="M736.83,-459.49C750.17,-442.59 780.12,-403.3 800,-367 815.5,-338.69 820.34,-331.35 828,-300 841.96,-242.81 813.37,-221 839,-168 844.85,-155.91 855.45,-145.43 865.2,-137.64"/>
<polygon fill="midnightblue" stroke="midnightblue" points="867.49,-140.29 873.41,-131.51 863.31,-134.69 867.49,-140.29"/>
</g>
<!-- Node37&#45;&gt;Node23 -->
<g id="edge67" class="edge">
<title>Node37&#45;&gt;Node23</title>
<path fill="none" stroke="midnightblue" d="M676.08,-459.47C623.39,-450.95 540.99,-437.12 470,-423 468.74,-422.75 467.47,-422.49 466.18,-422.22"/>
<polygon fill="midnightblue" stroke="midnightblue" points="466.72,-418.76 456.21,-420.09 465.26,-425.61 466.72,-418.76"/>
</g>
<!-- Node38&#45;&gt;Node1 -->
<g id="edge84" class="edge">
<title>Node38&#45;&gt;Node1</title>
<path fill="none" stroke="midnightblue" d="M438,-478.56C438,-503.71 438,-578.07 438,-617.04"/>
<polygon fill="midnightblue" stroke="midnightblue" points="434.5,-617.47 438,-627.47 441.5,-617.47 434.5,-617.47"/>
</g>
<!-- Node39 -->
<g id="node39" class="node">
<title>Node39</title>
<g id="a_node39"><a xlink:href="_squad_template_8h.html" target="_top" xlink:title=" ">
<polygon fill="white" stroke="black" points="618,-403.5 618,-422.5 710,-422.5 710,-403.5 618,-403.5"/>
<text text-anchor="middle" x="664" y="-410.5" font-family="Helvetica,sans-Serif" font-size="10.00">SquadTemplate.h</text>
</a>
</g>
</g>
<!-- Node38&#45;&gt;Node39 -->
<g id="edge71" class="edge">
<title>Node38&#45;&gt;Node39</title>
<path fill="none" stroke="midnightblue" d="M473.81,-459.44C512.99,-450.08 575.88,-435.06 618.52,-424.87"/>
<polygon fill="midnightblue" stroke="midnightblue" points="619.44,-428.24 628.36,-422.52 617.82,-421.44 619.44,-428.24"/>
</g>
<!-- Node39&#45;&gt;Node2 -->
<g id="edge73" class="edge">
<title>Node39&#45;&gt;Node2</title>
<path fill="none" stroke="midnightblue" d="M617.89,-414.33C544.35,-415.92 405.57,-423.66 374,-459 348.88,-487.13 356.51,-535.24 363.32,-561.53"/>
<polygon fill="midnightblue" stroke="midnightblue" points="360.01,-562.66 366.1,-571.33 366.74,-560.76 360.01,-562.66"/>
</g>
<!-- Node39&#45;&gt;Node19 -->
<g id="edge72" class="edge">
<title>Node39&#45;&gt;Node19</title>
<path fill="none" stroke="midnightblue" d="M655.98,-403.34C639.63,-385.31 602.05,-341.93 579,-300 560.09,-265.59 545.99,-221.62 538.97,-197.28"/>
<polygon fill="midnightblue" stroke="midnightblue" points="542.32,-196.27 536.25,-187.58 535.58,-198.16 542.32,-196.27"/>
</g>
<!-- Node39&#45;&gt;Node30 -->
<g id="edge83" class="edge">
<title>Node39&#45;&gt;Node30</title>
<path fill="none" stroke="midnightblue" d="M645.95,-403.48C624.8,-393.49 589.56,-376.85 565.12,-365.31"/>
<polygon fill="midnightblue" stroke="midnightblue" points="566.56,-362.11 556.02,-361.01 563.57,-368.44 566.56,-362.11"/>
</g>
<!-- Node40 -->
<g id="node40" class="node">
<title>Node40</title>
<g id="a_node40"><a xlink:href="_gui_list_8h.html" target="_top" xlink:title=" ">
<polygon fill="white" stroke="black" points="588,-280.5 588,-299.5 696,-299.5 696,-280.5 588,-280.5"/>
<text text-anchor="middle" x="642" y="-287.5" font-family="Helvetica,sans-Serif" font-size="10.00">engine/GUI/GuiList.h</text>
</a>
</g>
</g>
<!-- Node39&#45;&gt;Node40 -->
<g id="edge74" class="edge">
<title>Node39&#45;&gt;Node40</title>
<path fill="none" stroke="midnightblue" d="M660.4,-403.2C656.89,-394.25 651.71,-379.9 649,-367 644.97,-347.78 643.26,-325.34 642.53,-309.85"/>
<polygon fill="midnightblue" stroke="midnightblue" points="646.02,-309.39 642.15,-299.53 639.02,-309.65 646.02,-309.39"/>
</g>
<!-- Node42 -->
<g id="node42" class="node">
<title>Node42</title>
<g id="a_node42"><a xlink:href="_gui_scroll_8h.html" target="_top" xlink:title=" ">
<polygon fill="white" stroke="black" points="658,-342 658,-361 774,-361 774,-342 658,-342"/>
<text text-anchor="middle" x="716" y="-349" font-family="Helvetica,sans-Serif" font-size="10.00">engine/GUI/GuiScroll.h</text>
</a>
</g>
</g>
<!-- Node39&#45;&gt;Node42 -->
<g id="edge78" class="edge">
<title>Node39&#45;&gt;Node42</title>
<path fill="none" stroke="midnightblue" d="M671.45,-403.48C679.33,-394.46 691.94,-380.02 701.74,-368.81"/>
<polygon fill="midnightblue" stroke="midnightblue" points="704.62,-370.84 708.56,-361.01 699.35,-366.24 704.62,-370.84"/>
</g>
<!-- Node43 -->
<g id="node43" class="node">
<title>Node43</title>
<g id="a_node43"><a xlink:href="_button_8h.html" target="_top" xlink:title=" ">
<polygon fill="white" stroke="black" points="714.5,-280.5 714.5,-299.5 819.5,-299.5 819.5,-280.5 714.5,-280.5"/>
<text text-anchor="middle" x="767" y="-287.5" font-family="Helvetica,sans-Serif" font-size="10.00">engine/GUI/Button.h</text>
</a>
</g>
</g>
<!-- Node39&#45;&gt;Node43 -->
<g id="edge81" class="edge">
<title>Node39&#45;&gt;Node43</title>
<path fill="none" stroke="midnightblue" d="M710.24,-407.2C736.25,-401.86 766.68,-390.62 783,-367 794.93,-349.73 786.43,-325.36 777.94,-308.91"/>
<polygon fill="midnightblue" stroke="midnightblue" points="780.79,-306.83 772.84,-299.82 774.68,-310.26 780.79,-306.83"/>
</g>
<!-- Node40&#45;&gt;Node19 -->
<g id="edge77" class="edge">
<title>Node40&#45;&gt;Node19</title>
<path fill="none" stroke="midnightblue" d="M633.53,-280.37C615.39,-261.89 572.58,-218.29 549.46,-194.74"/>
<polygon fill="midnightblue" stroke="midnightblue" points="551.94,-192.28 542.44,-187.59 546.94,-197.18 551.94,-192.28"/>
</g>
<!-- Node41 -->
<g id="node41" class="node">
<title>Node41</title>
<g id="a_node41"><a xlink:href="_gui_object_8h.html" target="_top" xlink:title=" ">
<polygon fill="white" stroke="black" points="672,-224.5 672,-243.5 792,-243.5 792,-224.5 672,-224.5"/>
<text text-anchor="middle" x="732" y="-231.5" font-family="Helvetica,sans-Serif" font-size="10.00">engine/GUI/GuiObject.h</text>
</a>
</g>
</g>
<!-- Node40&#45;&gt;Node41 -->
<g id="edge75" class="edge">
<title>Node40&#45;&gt;Node41</title>
<path fill="none" stroke="midnightblue" d="M656.46,-280.32C670.5,-271.9 692.05,-258.97 708.54,-249.07"/>
<polygon fill="midnightblue" stroke="midnightblue" points="710.8,-251.8 717.58,-243.65 707.2,-245.8 710.8,-251.8"/>
</g>
<!-- Node41&#45;&gt;Node8 -->
<g id="edge76" class="edge">
<title>Node41&#45;&gt;Node8</title>
<path fill="none" stroke="midnightblue" d="M756.56,-224.44C782.52,-215.4 823.67,-201.06 852.8,-190.92"/>
<polygon fill="midnightblue" stroke="midnightblue" points="854.26,-194.11 862.55,-187.52 851.96,-187.5 854.26,-194.11"/>
</g>
<!-- Node42&#45;&gt;Node9 -->
<g id="edge80" class="edge">
<title>Node42&#45;&gt;Node9</title>
<path fill="none" stroke="midnightblue" d="M774.31,-343.05C877.67,-328.7 1087.04,-294.17 1139,-244 1167.09,-216.87 1173.02,-168.71 1174.04,-142.07"/>
<polygon fill="midnightblue" stroke="midnightblue" points="1177.55,-141.85 1174.23,-131.79 1170.55,-141.72 1177.55,-141.85"/>
</g>
<!-- Node42&#45;&gt;Node40 -->
<g id="edge79" class="edge">
<title>Node42&#45;&gt;Node40</title>
<path fill="none" stroke="midnightblue" d="M705.4,-341.98C693.75,-332.61 674.81,-317.38 660.67,-306.01"/>
<polygon fill="midnightblue" stroke="midnightblue" points="662.57,-303.05 652.58,-299.51 658.18,-308.5 662.57,-303.05"/>
</g>
<!-- Node43&#45;&gt;Node41 -->
<g id="edge82" class="edge">
<title>Node43&#45;&gt;Node41</title>
<path fill="none" stroke="midnightblue" d="M761.22,-280.08C756.33,-272.53 749.17,-261.49 743.17,-252.23"/>
<polygon fill="midnightblue" stroke="midnightblue" points="746.05,-250.24 737.67,-243.75 740.17,-254.05 746.05,-250.24"/>
</g>
</g>
</svg>
