<?xml version="1.0" encoding="UTF-8" standalone="no"?>
<!DOCTYPE svg PUBLIC "-//W3C//DTD SVG 1.1//EN"
 "http://www.w3.org/Graphics/SVG/1.1/DTD/svg11.dtd">
<!-- Generated by graphviz version 2.47.1 (20210421.1823)
 -->
<!-- Title: include/GameLogic/AllFlags.h Pages: 1 -->
<svg width="165pt" height="140pt"
 viewBox="0.00 0.00 165.00 140.00" xmlns="http://www.w3.org/2000/svg" xmlns:xlink="http://www.w3.org/1999/xlink">
<g id="graph0" class="graph" transform="scale(1 1) rotate(0) translate(4 136)">
<title>include/GameLogic/AllFlags.h</title>
<polygon fill="white" stroke="transparent" points="-4,4 -4,-136 161,-136 161,4 -4,4"/>
<!-- Node1 -->
<g id="node1" class="node">
<title>Node1</title>
<g id="a_node1"><a xlink:title=" ">
<polygon fill="#bfbfbf" stroke="black" points="11,-112.5 11,-131.5 157,-131.5 157,-112.5 11,-112.5"/>
<text text-anchor="middle" x="84" y="-119.5" font-family="Helvetica,sans-Serif" font-size="10.00">include/GameLogic/AllFlags.h</text>
</a>
</g>
</g>
<!-- Node2 -->
<g id="node2" class="node">
<title>Node2</title>
<g id="a_node2"><a xlink:href="_flag_8h.html" target="_top" xlink:title=" ">
<polygon fill="white" stroke="black" points="30.5,-56.5 30.5,-75.5 73.5,-75.5 73.5,-56.5 30.5,-56.5"/>
<text text-anchor="middle" x="52" y="-63.5" font-family="Helvetica,sans-Serif" font-size="10.00">Flag.h</text>
</a>
</g>
</g>
<!-- Node1&#45;&gt;Node2 -->
<g id="edge1" class="edge">
<title>Node1&#45;&gt;Node2</title>
<path fill="none" stroke="midnightblue" d="M78.72,-112.08C74.29,-104.61 67.84,-93.72 62.38,-84.52"/>
<polygon fill="midnightblue" stroke="midnightblue" points="65.29,-82.57 57.19,-75.75 59.27,-86.14 65.29,-82.57"/>
</g>
<!-- Node5 -->
<g id="node5" class="node">
<title>Node5</title>
<g id="a_node5"><a xlink:title=" ">
<polygon fill="white" stroke="#bfbfbf" points="91.5,-56.5 91.5,-75.5 142.5,-75.5 142.5,-56.5 91.5,-56.5"/>
<text text-anchor="middle" x="117" y="-63.5" font-family="Helvetica,sans-Serif" font-size="10.00">memory</text>
</a>
</g>
</g>
<!-- Node1&#45;&gt;Node5 -->
<g id="edge4" class="edge">
<title>Node1&#45;&gt;Node5</title>
<path fill="none" stroke="midnightblue" d="M89.45,-112.08C94.01,-104.61 100.67,-93.72 106.29,-84.52"/>
<polygon fill="midnightblue" stroke="midnightblue" points="109.42,-86.11 111.65,-75.75 103.45,-82.46 109.42,-86.11"/>
</g>
<!-- Node3 -->
<g id="node3" class="node">
<title>Node3</title>
<g id="a_node3"><a xlink:title=" ">
<polygon fill="white" stroke="#bfbfbf" points="0,-0.5 0,-19.5 44,-19.5 44,-0.5 0,-0.5"/>
<text text-anchor="middle" x="22" y="-7.5" font-family="Helvetica,sans-Serif" font-size="10.00">vector</text>
</a>
</g>
</g>
<!-- Node2&#45;&gt;Node3 -->
<g id="edge2" class="edge">
<title>Node2&#45;&gt;Node3</title>
<path fill="none" stroke="midnightblue" d="M47.05,-56.08C42.9,-48.61 36.85,-37.72 31.73,-28.52"/>
<polygon fill="midnightblue" stroke="midnightblue" points="34.78,-26.79 26.86,-19.75 28.66,-30.19 34.78,-26.79"/>
</g>
<!-- Node4 -->
<g id="node4" class="node">
<title>Node4</title>
<g id="a_node4"><a xlink:title=" ">
<polygon fill="white" stroke="#bfbfbf" points="62.5,-0.5 62.5,-19.5 103.5,-19.5 103.5,-0.5 62.5,-0.5"/>
<text text-anchor="middle" x="83" y="-7.5" font-family="Helvetica,sans-Serif" font-size="10.00">string</text>
</a>
</g>
</g>
<!-- Node2&#45;&gt;Node4 -->
<g id="edge3" class="edge">
<title>Node2&#45;&gt;Node4</title>
<path fill="none" stroke="midnightblue" d="M57.12,-56.08C61.41,-48.61 67.66,-37.72 72.94,-28.52"/>
<polygon fill="midnightblue" stroke="midnightblue" points="76.03,-30.17 77.98,-19.75 69.96,-26.68 76.03,-30.17"/>
</g>
</g>
</svg>
