<?xml version="1.0" encoding="UTF-8" standalone="no"?>
<!DOCTYPE svg PUBLIC "-//W3C//DTD SVG 1.1//EN"
 "http://www.w3.org/Graphics/SVG/1.1/DTD/svg11.dtd">
<!-- Generated by graphviz version 2.47.1 (20210421.1823)
 -->
<!-- Title: src/GameLogic/AllFlags.cpp Pages: 1 -->
<svg width="509pt" height="196pt"
 viewBox="0.00 0.00 508.50 196.00" xmlns="http://www.w3.org/2000/svg" xmlns:xlink="http://www.w3.org/1999/xlink">
<g id="graph0" class="graph" transform="scale(1 1) rotate(0) translate(4 192)">
<title>src/GameLogic/AllFlags.cpp</title>
<polygon fill="white" stroke="transparent" points="-4,4 -4,-192 504.5,-192 504.5,4 -4,4"/>
<!-- Node1 -->
<g id="node1" class="node">
<title>Node1</title>
<g id="a_node1"><a xlink:title=" ">
<polygon fill="#bfbfbf" stroke="black" points="68.5,-168.5 68.5,-187.5 208.5,-187.5 208.5,-168.5 68.5,-168.5"/>
<text text-anchor="middle" x="138.5" y="-175.5" font-family="Helvetica,sans-Serif" font-size="10.00">src/GameLogic/AllFlags.cpp</text>
</a>
</g>
</g>
<!-- Node2 -->
<g id="node2" class="node">
<title>Node2</title>
<g id="a_node2"><a xlink:href="_all_flags_8h.html" target="_top" xlink:title=" ">
<polygon fill="white" stroke="black" points="61,-112.5 61,-131.5 120,-131.5 120,-112.5 61,-112.5"/>
<text text-anchor="middle" x="90.5" y="-119.5" font-family="Helvetica,sans-Serif" font-size="10.00">AllFlags.h</text>
</a>
</g>
</g>
<!-- Node1&#45;&gt;Node2 -->
<g id="edge1" class="edge">
<title>Node1&#45;&gt;Node2</title>
<path fill="none" stroke="midnightblue" d="M130.57,-168.08C123.65,-160.3 113.43,-148.8 105.05,-139.37"/>
<polygon fill="midnightblue" stroke="midnightblue" points="107.54,-136.9 98.28,-131.75 102.31,-141.55 107.54,-136.9"/>
</g>
<!-- Node7 -->
<g id="node7" class="node">
<title>Node7</title>
<g id="a_node7"><a xlink:href="config_8h.html" target="_top" xlink:title=" ">
<polygon fill="white" stroke="black" points="214,-112.5 214,-131.5 295,-131.5 295,-112.5 214,-112.5"/>
<text text-anchor="middle" x="254.5" y="-119.5" font-family="Helvetica,sans-Serif" font-size="10.00">engine/config.h</text>
</a>
</g>
</g>
<!-- Node1&#45;&gt;Node7 -->
<g id="edge6" class="edge">
<title>Node1&#45;&gt;Node7</title>
<path fill="none" stroke="midnightblue" d="M156.88,-168.44C175.72,-159.68 205.23,-145.94 226.88,-135.86"/>
<polygon fill="midnightblue" stroke="midnightblue" points="228.62,-138.91 236.21,-131.52 225.66,-132.56 228.62,-138.91"/>
</g>
<!-- Node3 -->
<g id="node3" class="node">
<title>Node3</title>
<g id="a_node3"><a xlink:href="_flag_8h.html" target="_top" xlink:title=" ">
<polygon fill="white" stroke="black" points="69,-56.5 69,-75.5 112,-75.5 112,-56.5 69,-56.5"/>
<text text-anchor="middle" x="90.5" y="-63.5" font-family="Helvetica,sans-Serif" font-size="10.00">Flag.h</text>
</a>
</g>
</g>
<!-- Node2&#45;&gt;Node3 -->
<g id="edge2" class="edge">
<title>Node2&#45;&gt;Node3</title>
<path fill="none" stroke="midnightblue" d="M90.5,-112.08C90.5,-105.01 90.5,-94.86 90.5,-85.99"/>
<polygon fill="midnightblue" stroke="midnightblue" points="94,-85.75 90.5,-75.75 87,-85.75 94,-85.75"/>
</g>
<!-- Node6 -->
<g id="node6" class="node">
<title>Node6</title>
<g id="a_node6"><a xlink:title=" ">
<polygon fill="white" stroke="#bfbfbf" points="0,-56.5 0,-75.5 51,-75.5 51,-56.5 0,-56.5"/>
<text text-anchor="middle" x="25.5" y="-63.5" font-family="Helvetica,sans-Serif" font-size="10.00">memory</text>
</a>
</g>
</g>
<!-- Node2&#45;&gt;Node6 -->
<g id="edge5" class="edge">
<title>Node2&#45;&gt;Node6</title>
<path fill="none" stroke="midnightblue" d="M80.06,-112.32C70.35,-104.26 55.68,-92.08 44,-82.37"/>
<polygon fill="midnightblue" stroke="midnightblue" points="46.06,-79.53 36.13,-75.83 41.59,-84.92 46.06,-79.53"/>
</g>
<!-- Node4 -->
<g id="node4" class="node">
<title>Node4</title>
<g id="a_node4"><a xlink:title=" ">
<polygon fill="white" stroke="#bfbfbf" points="13.5,-0.5 13.5,-19.5 57.5,-19.5 57.5,-0.5 13.5,-0.5"/>
<text text-anchor="middle" x="35.5" y="-7.5" font-family="Helvetica,sans-Serif" font-size="10.00">vector</text>
</a>
</g>
</g>
<!-- Node3&#45;&gt;Node4 -->
<g id="edge3" class="edge">
<title>Node3&#45;&gt;Node4</title>
<path fill="none" stroke="midnightblue" d="M81.42,-56.08C73.33,-48.14 61.3,-36.34 51.59,-26.8"/>
<polygon fill="midnightblue" stroke="midnightblue" points="54,-24.26 44.41,-19.75 49.1,-29.25 54,-24.26"/>
</g>
<!-- Node5 -->
<g id="node5" class="node">
<title>Node5</title>
<g id="a_node5"><a xlink:title=" ">
<polygon fill="white" stroke="#bfbfbf" points="76,-0.5 76,-19.5 117,-19.5 117,-0.5 76,-0.5"/>
<text text-anchor="middle" x="96.5" y="-7.5" font-family="Helvetica,sans-Serif" font-size="10.00">string</text>
</a>
</g>
</g>
<!-- Node3&#45;&gt;Node5 -->
<g id="edge4" class="edge">
<title>Node3&#45;&gt;Node5</title>
<path fill="none" stroke="midnightblue" d="M91.49,-56.08C92.29,-48.93 93.43,-38.64 94.42,-29.69"/>
<polygon fill="midnightblue" stroke="midnightblue" points="97.9,-30.08 95.53,-19.75 90.94,-29.3 97.9,-30.08"/>
</g>
<!-- Node8 -->
<g id="node8" class="node">
<title>Node8</title>
<g id="a_node8"><a xlink:href="_s_f_m_l_facade_8h.html" target="_top" xlink:title=" ">
<polygon fill="white" stroke="black" points="261,-56.5 261,-75.5 384,-75.5 384,-56.5 261,-56.5"/>
<text text-anchor="middle" x="322.5" y="-63.5" font-family="Helvetica,sans-Serif" font-size="10.00">graphics/SFMLFacade.h</text>
</a>
</g>
</g>
<!-- Node7&#45;&gt;Node8 -->
<g id="edge7" class="edge">
<title>Node7&#45;&gt;Node8</title>
<path fill="none" stroke="midnightblue" d="M265.43,-112.32C275.67,-104.18 291.22,-91.84 303.5,-82.09"/>
<polygon fill="midnightblue" stroke="midnightblue" points="305.72,-84.79 311.38,-75.83 301.37,-79.31 305.72,-84.79"/>
</g>
<!-- Node11 -->
<g id="node11" class="node">
<title>Node11</title>
<g id="a_node11"><a xlink:href="_fan_facade_8h.html" target="_top" xlink:title=" ">
<polygon fill="white" stroke="black" points="130,-56.5 130,-75.5 243,-75.5 243,-56.5 130,-56.5"/>
<text text-anchor="middle" x="186.5" y="-63.5" font-family="Helvetica,sans-Serif" font-size="10.00">graphics/FanFacade.h</text>
</a>
</g>
</g>
<!-- Node7&#45;&gt;Node11 -->
<g id="edge10" class="edge">
<title>Node7&#45;&gt;Node11</title>
<path fill="none" stroke="midnightblue" d="M243.57,-112.32C233.33,-104.18 217.78,-91.84 205.5,-82.09"/>
<polygon fill="midnightblue" stroke="midnightblue" points="207.63,-79.31 197.62,-75.83 203.28,-84.79 207.63,-79.31"/>
</g>
<!-- Node12 -->
<g id="node12" class="node">
<title>Node12</title>
<g id="a_node12"><a xlink:title=" ">
<polygon fill="white" stroke="#bfbfbf" points="402.5,-56.5 402.5,-75.5 500.5,-75.5 500.5,-56.5 402.5,-56.5"/>
<text text-anchor="middle" x="451.5" y="-63.5" font-family="Helvetica,sans-Serif" font-size="10.00">nlohmann/json.hpp</text>
</a>
</g>
</g>
<!-- Node7&#45;&gt;Node12 -->
<g id="edge13" class="edge">
<title>Node7&#45;&gt;Node12</title>
<path fill="none" stroke="midnightblue" d="M285.72,-112.44C319.43,-103.2 373.3,-88.44 410.43,-78.26"/>
<polygon fill="midnightblue" stroke="midnightblue" points="411.71,-81.54 420.43,-75.52 409.86,-74.78 411.71,-81.54"/>
</g>
<!-- Node9 -->
<g id="node9" class="node">
<title>Node9</title>
<g id="a_node9"><a xlink:title=" ">
<polygon fill="white" stroke="#bfbfbf" points="156.5,-0.5 156.5,-19.5 260.5,-19.5 260.5,-0.5 156.5,-0.5"/>
<text text-anchor="middle" x="208.5" y="-7.5" font-family="Helvetica,sans-Serif" font-size="10.00">SFML/Graphics.hpp</text>
</a>
</g>
</g>
<!-- Node8&#45;&gt;Node9 -->
<g id="edge8" class="edge">
<title>Node8&#45;&gt;Node9</title>
<path fill="none" stroke="midnightblue" d="M304.44,-56.44C285.93,-47.68 256.92,-33.94 235.64,-23.86"/>
<polygon fill="midnightblue" stroke="midnightblue" points="237.01,-20.63 226.48,-19.52 234.02,-26.96 237.01,-20.63"/>
</g>
<!-- Node10 -->
<g id="node10" class="node">
<title>Node10</title>
<g id="a_node10"><a xlink:href="_facade_8h.html" target="_top" xlink:title=" ">
<polygon fill="white" stroke="black" points="289.5,-0.5 289.5,-19.5 345.5,-19.5 345.5,-0.5 289.5,-0.5"/>
<text text-anchor="middle" x="317.5" y="-7.5" font-family="Helvetica,sans-Serif" font-size="10.00">Facade.h</text>
</a>
</g>
</g>
<!-- Node8&#45;&gt;Node10 -->
<g id="edge9" class="edge">
<title>Node8&#45;&gt;Node10</title>
<path fill="none" stroke="midnightblue" d="M321.67,-56.08C321.02,-49.01 320.08,-38.86 319.26,-29.99"/>
<polygon fill="midnightblue" stroke="midnightblue" points="322.72,-29.39 318.31,-19.75 315.75,-30.03 322.72,-29.39"/>
</g>
<!-- Node11&#45;&gt;Node9 -->
<g id="edge11" class="edge">
<title>Node11&#45;&gt;Node9</title>
<path fill="none" stroke="midnightblue" d="M190.13,-56.08C193.11,-48.77 197.43,-38.18 201.12,-29.1"/>
<polygon fill="midnightblue" stroke="midnightblue" points="204.4,-30.33 204.93,-19.75 197.92,-27.69 204.4,-30.33"/>
</g>
<!-- Node11&#45;&gt;Node10 -->
<g id="edge12" class="edge">
<title>Node11&#45;&gt;Node10</title>
<path fill="none" stroke="midnightblue" d="M207.26,-56.44C228.82,-47.56 262.76,-33.56 287.29,-23.45"/>
<polygon fill="midnightblue" stroke="midnightblue" points="288.93,-26.56 296.84,-19.52 286.26,-20.09 288.93,-26.56"/>
</g>
</g>
</svg>
