<?xml version="1.0" encoding="UTF-8" standalone="no"?>
<!DOCTYPE svg PUBLIC "-//W3C//DTD SVG 1.1//EN"
 "http://www.w3.org/Graphics/SVG/1.1/DTD/svg11.dtd">
<!-- Generated by graphviz version 2.47.1 (20210421.1823)
 -->
<!-- Title: include/GameLogic/Squad/AllSquadTemplates.h Pages: 1 -->
<svg width="1701pt" height="575pt"
 viewBox="0.00 0.00 1701.00 575.00" xmlns="http://www.w3.org/2000/svg" xmlns:xlink="http://www.w3.org/1999/xlink">
<g id="graph0" class="graph" transform="scale(1 1) rotate(0) translate(4 571)">
<title>include/GameLogic/Squad/AllSquadTemplates.h</title>
<polygon fill="white" stroke="transparent" points="-4,4 -4,-571 1697,-571 1697,4 -4,4"/>
<!-- Node1 -->
<g id="node1" class="node">
<title>Node1</title>
<g id="a_node1"><a xlink:title=" ">
<polygon fill="#bfbfbf" stroke="black" points="1383,-536.5 1383,-566.5 1514,-566.5 1514,-536.5 1383,-536.5"/>
<text text-anchor="start" x="1391" y="-554.5" font-family="Helvetica,sans-Serif" font-size="10.00">include/GameLogic/Squad</text>
<text text-anchor="middle" x="1448.5" y="-543.5" font-family="Helvetica,sans-Serif" font-size="10.00">/AllSquadTemplates.h</text>
</a>
</g>
</g>
<!-- Node2 -->
<g id="node2" class="node">
<title>Node2</title>
<g id="a_node2"><a xlink:href="_all_squad_templates_8cpp.html" target="_top" xlink:title=" ">
<polygon fill="white" stroke="black" points="1044.5,-469.5 1044.5,-499.5 1166.5,-499.5 1166.5,-469.5 1044.5,-469.5"/>
<text text-anchor="start" x="1052.5" y="-487.5" font-family="Helvetica,sans-Serif" font-size="10.00">src/GameLogic/Squad</text>
<text text-anchor="middle" x="1105.5" y="-476.5" font-family="Helvetica,sans-Serif" font-size="10.00">/AllSquadTemplates.cpp</text>
</a>
</g>
</g>
<!-- Node1&#45;&gt;Node2 -->
<g id="edge1" class="edge">
<title>Node1&#45;&gt;Node2</title>
<path fill="none" stroke="midnightblue" d="M1372.8,-536.94C1317.96,-527.01 1242.07,-513.05 1175.5,-500 1172.58,-499.43 1169.59,-498.83 1166.57,-498.23"/>
<polygon fill="midnightblue" stroke="midnightblue" points="1372.32,-540.41 1382.78,-538.75 1373.57,-533.53 1372.32,-540.41"/>
</g>
<!-- Node3 -->
<g id="node3" class="node">
<title>Node3</title>
<g id="a_node3"><a xlink:href="_cell_8h.html" target="_top" xlink:title=" ">
<polygon fill="white" stroke="black" points="1184.5,-475 1184.5,-494 1312.5,-494 1312.5,-475 1184.5,-475"/>
<text text-anchor="middle" x="1248.5" y="-482" font-family="Helvetica,sans-Serif" font-size="10.00">include/GameLogic/Cell.h</text>
</a>
</g>
</g>
<!-- Node1&#45;&gt;Node3 -->
<g id="edge2" class="edge">
<title>Node1&#45;&gt;Node3</title>
<path fill="none" stroke="midnightblue" d="M1395.48,-533.27C1356.51,-520.6 1305.22,-503.93 1274.68,-494.01"/>
<polygon fill="midnightblue" stroke="midnightblue" points="1394.51,-536.63 1405.1,-536.4 1396.67,-529.98 1394.51,-536.63"/>
</g>
<!-- Node4 -->
<g id="node4" class="node">
<title>Node4</title>
<g id="a_node4"><a xlink:href="_cell_8cpp.html" target="_top" xlink:title=" ">
<polygon fill="white" stroke="black" points="1362,-408 1362,-427 1483,-427 1483,-408 1362,-408"/>
<text text-anchor="middle" x="1422.5" y="-415" font-family="Helvetica,sans-Serif" font-size="10.00">src/GameLogic/Cell.cpp</text>
</a>
</g>
</g>
<!-- Node3&#45;&gt;Node4 -->
<g id="edge3" class="edge">
<title>Node3&#45;&gt;Node4</title>
<path fill="none" stroke="midnightblue" d="M1281.24,-471.27C1315.77,-458.37 1369.29,-438.38 1399.58,-427.06"/>
<polygon fill="midnightblue" stroke="midnightblue" points="1279.75,-468.09 1271.61,-474.87 1282.2,-474.65 1279.75,-468.09"/>
</g>
<!-- Node5 -->
<g id="node5" class="node">
<title>Node5</title>
<g id="a_node5"><a xlink:href="main_8cpp.html" target="_top" xlink:title=" ">
<polygon fill="white" stroke="black" points="1501.5,-408 1501.5,-427 1573.5,-427 1573.5,-408 1501.5,-408"/>
<text text-anchor="middle" x="1537.5" y="-415" font-family="Helvetica,sans-Serif" font-size="10.00">src/main.cpp</text>
</a>
</g>
</g>
<!-- Node3&#45;&gt;Node5 -->
<g id="edge4" class="edge">
<title>Node3&#45;&gt;Node5</title>
<path fill="none" stroke="midnightblue" d="M1307.4,-473.15C1357.07,-463.98 1429.89,-449.52 1492.5,-433 1499.01,-431.28 1505.96,-429.18 1512.41,-427.11"/>
<polygon fill="midnightblue" stroke="midnightblue" points="1306.67,-469.72 1297.47,-474.97 1307.94,-476.61 1306.67,-469.72"/>
</g>
<!-- Node6 -->
<g id="node6" class="node">
<title>Node6</title>
<g id="a_node6"><a xlink:href="_set_squad_path_8h.html" target="_top" xlink:title=" ">
<polygon fill="white" stroke="black" points="585,-268.5 585,-298.5 698,-298.5 698,-268.5 585,-268.5"/>
<text text-anchor="start" x="593" y="-286.5" font-family="Helvetica,sans-Serif" font-size="10.00">include/engine/actions</text>
<text text-anchor="middle" x="641.5" y="-275.5" font-family="Helvetica,sans-Serif" font-size="10.00">/SetSquadPath.h</text>
</a>
</g>
</g>
<!-- Node3&#45;&gt;Node6 -->
<g id="edge5" class="edge">
<title>Node3&#45;&gt;Node6</title>
<path fill="none" stroke="midnightblue" d="M1190.22,-473.01C1115.5,-458.64 995.23,-434.45 990.5,-433 864.05,-394.35 720.8,-327.54 665.11,-298.57"/>
<polygon fill="midnightblue" stroke="midnightblue" points="1189.97,-476.52 1200.45,-474.97 1191.29,-469.65 1189.97,-476.52"/>
</g>
<!-- Node9 -->
<g id="node9" class="node">
<title>Node9</title>
<g id="a_node9"><a xlink:href="_game_logic_2_squad_2_action_8h.html" target="_top" xlink:title=" ">
<polygon fill="white" stroke="black" points="1136,-402.5 1136,-432.5 1267,-432.5 1267,-402.5 1136,-402.5"/>
<text text-anchor="start" x="1144" y="-420.5" font-family="Helvetica,sans-Serif" font-size="10.00">include/GameLogic/Squad</text>
<text text-anchor="middle" x="1201.5" y="-409.5" font-family="Helvetica,sans-Serif" font-size="10.00">/Action.h</text>
</a>
</g>
</g>
<!-- Node3&#45;&gt;Node9 -->
<g id="edge9" class="edge">
<title>Node3&#45;&gt;Node9</title>
<path fill="none" stroke="midnightblue" d="M1236.1,-466.35C1228.49,-455.82 1218.86,-442.5 1211.69,-432.59"/>
<polygon fill="midnightblue" stroke="midnightblue" points="1233.47,-468.68 1242.16,-474.73 1239.14,-464.58 1233.47,-468.68"/>
</g>
<!-- Node11 -->
<g id="node11" class="node">
<title>Node11</title>
<g id="a_node11"><a xlink:href="_squad_8h.html" target="_top" xlink:title=" ">
<polygon fill="white" stroke="black" points="1042,-335.5 1042,-365.5 1173,-365.5 1173,-335.5 1042,-335.5"/>
<text text-anchor="start" x="1050" y="-353.5" font-family="Helvetica,sans-Serif" font-size="10.00">include/GameLogic/Squad</text>
<text text-anchor="middle" x="1107.5" y="-342.5" font-family="Helvetica,sans-Serif" font-size="10.00">/Squad.h</text>
</a>
</g>
</g>
<!-- Node3&#45;&gt;Node11 -->
<g id="edge61" class="edge">
<title>Node3&#45;&gt;Node11</title>
<path fill="none" stroke="midnightblue" d="M1183.68,-472.13C1159.57,-464.7 1134.12,-452.59 1117.5,-433 1101.24,-413.84 1098.28,-383.35 1100.85,-365.6"/>
<polygon fill="midnightblue" stroke="midnightblue" points="1182.97,-475.57 1193.55,-474.95 1184.89,-468.84 1182.97,-475.57"/>
</g>
<!-- Node22 -->
<g id="node22" class="node">
<title>Node22</title>
<g id="a_node22"><a xlink:href="_factory_8h.html" target="_top" xlink:title=" ">
<polygon fill="white" stroke="black" points="970,-201.5 970,-231.5 1097,-231.5 1097,-201.5 970,-201.5"/>
<text text-anchor="start" x="978" y="-219.5" font-family="Helvetica,sans-Serif" font-size="10.00">include/GameLogic/Units</text>
<text text-anchor="middle" x="1033.5" y="-208.5" font-family="Helvetica,sans-Serif" font-size="10.00">/Factory.h</text>
</a>
</g>
</g>
<!-- Node3&#45;&gt;Node22 -->
<g id="edge62" class="edge">
<title>Node3&#45;&gt;Node22</title>
<path fill="none" stroke="midnightblue" d="M1191.58,-472.47C1137.54,-458.42 1060.53,-428.08 1032.5,-366 1012.02,-320.65 1022.99,-259.28 1029.63,-231.81"/>
<polygon fill="midnightblue" stroke="midnightblue" points="1190.83,-475.89 1201.38,-474.91 1192.52,-469.1 1190.83,-475.89"/>
</g>
<!-- Node38 -->
<g id="node38" class="node">
<title>Node38</title>
<g id="a_node38"><a xlink:href="pathfinding_8h.html" target="_top" xlink:title=" ">
<polygon fill="white" stroke="black" points="1279.5,-274 1279.5,-293 1399.5,-293 1399.5,-274 1279.5,-274"/>
<text text-anchor="middle" x="1339.5" y="-281" font-family="Helvetica,sans-Serif" font-size="10.00">include/util/pathfinding.h</text>
</a>
</g>
</g>
<!-- Node3&#45;&gt;Node38 -->
<g id="edge63" class="edge">
<title>Node3&#45;&gt;Node38</title>
<path fill="none" stroke="midnightblue" d="M1258.47,-465.74C1263.73,-456.14 1270.18,-444.03 1275.5,-433 1300.6,-380.9 1326.75,-316.49 1336,-293.32"/>
<polygon fill="midnightblue" stroke="midnightblue" points="1255.3,-464.23 1253.51,-474.68 1261.42,-467.63 1255.3,-464.23"/>
</g>
<!-- Node6&#45;&gt;Node3 -->
<g id="edge8" class="edge">
<title>Node6&#45;&gt;Node3</title>
<path fill="none" stroke="midnightblue" d="M684.46,-302.89C752.19,-333.74 887.98,-396.16 1008.5,-433 1013.45,-434.51 1145.07,-460.97 1211.35,-474.97"/>
<polygon fill="midnightblue" stroke="midnightblue" points="685.52,-299.53 674.97,-298.57 682.62,-305.9 685.52,-299.53"/>
</g>
<!-- Node7 -->
<g id="node7" class="node">
<title>Node7</title>
<g id="a_node7"><a xlink:href="engine_2_action_8cpp.html" target="_top" xlink:title=" ">
<polygon fill="white" stroke="black" points="201.5,-207 201.5,-226 311.5,-226 311.5,-207 201.5,-207"/>
<text text-anchor="middle" x="256.5" y="-214" font-family="Helvetica,sans-Serif" font-size="10.00">src/engine/Action.cpp</text>
</a>
</g>
</g>
<!-- Node6&#45;&gt;Node7 -->
<g id="edge6" class="edge">
<title>Node6&#45;&gt;Node7</title>
<path fill="none" stroke="midnightblue" d="M574.88,-272.82C510.81,-263.28 411.32,-247.87 325.5,-232 315.75,-230.2 305.26,-228.08 295.48,-226.04"/>
<polygon fill="midnightblue" stroke="midnightblue" points="574.44,-276.29 584.85,-274.3 575.47,-269.37 574.44,-276.29"/>
</g>
<!-- Node8 -->
<g id="node8" class="node">
<title>Node8</title>
<g id="a_node8"><a xlink:href="_set_squad_path_8cpp.html" target="_top" xlink:title=" ">
<polygon fill="white" stroke="black" points="82,-201.5 82,-231.5 183,-231.5 183,-201.5 82,-201.5"/>
<text text-anchor="start" x="90" y="-219.5" font-family="Helvetica,sans-Serif" font-size="10.00">src/engine/actions</text>
<text text-anchor="middle" x="132.5" y="-208.5" font-family="Helvetica,sans-Serif" font-size="10.00">/SetSquadPath.cpp</text>
</a>
</g>
</g>
<!-- Node6&#45;&gt;Node8 -->
<g id="edge7" class="edge">
<title>Node6&#45;&gt;Node8</title>
<path fill="none" stroke="midnightblue" d="M574.71,-277.61C486.67,-270.57 327.18,-255.75 192.5,-232 189.44,-231.46 186.3,-230.86 183.15,-230.21"/>
<polygon fill="midnightblue" stroke="midnightblue" points="574.58,-281.11 584.82,-278.41 575.13,-274.14 574.58,-281.11"/>
</g>
<!-- Node10 -->
<g id="node10" class="node">
<title>Node10</title>
<g id="a_node10"><a xlink:href="_game_logic_2_squad_2_action_8cpp.html" target="_top" xlink:title=" ">
<polygon fill="white" stroke="black" points="1115.5,-201.5 1115.5,-231.5 1229.5,-231.5 1229.5,-201.5 1115.5,-201.5"/>
<text text-anchor="start" x="1123.5" y="-219.5" font-family="Helvetica,sans-Serif" font-size="10.00">src/GameLogic/Squad</text>
<text text-anchor="middle" x="1172.5" y="-208.5" font-family="Helvetica,sans-Serif" font-size="10.00">/Action.cpp</text>
</a>
</g>
</g>
<!-- Node9&#45;&gt;Node10 -->
<g id="edge10" class="edge">
<title>Node9&#45;&gt;Node10</title>
<path fill="none" stroke="midnightblue" d="M1197.97,-392.27C1191.85,-350.29 1179.47,-265.33 1174.57,-231.68"/>
<polygon fill="midnightblue" stroke="midnightblue" points="1194.51,-392.8 1199.41,-402.19 1201.44,-391.79 1194.51,-392.8"/>
</g>
<!-- Node9&#45;&gt;Node11 -->
<g id="edge11" class="edge">
<title>Node9&#45;&gt;Node11</title>
<path fill="none" stroke="midnightblue" d="M1166.65,-396.73C1151.3,-386.68 1134.16,-374.68 1122.18,-365.58"/>
<polygon fill="midnightblue" stroke="midnightblue" points="1165.12,-399.92 1175.42,-402.4 1168.92,-394.03 1165.12,-399.92"/>
</g>
<!-- Node11&#45;&gt;Node3 -->
<g id="edge14" class="edge">
<title>Node11&#45;&gt;Node3</title>
<path fill="none" stroke="midnightblue" d="M1114.86,-375.51C1117.65,-393.27 1121.97,-417.05 1135.5,-433 1154.41,-455.28 1184.75,-467.9 1209.33,-474.95"/>
<polygon fill="midnightblue" stroke="midnightblue" points="1118.31,-374.93 1113.29,-365.6 1111.39,-376.03 1118.31,-374.93"/>
</g>
<!-- Node11&#45;&gt;Node6 -->
<g id="edge13" class="edge">
<title>Node11&#45;&gt;Node6</title>
<path fill="none" stroke="midnightblue" d="M1031.84,-342.12C950.98,-333.73 819.2,-318.62 706.5,-299 703.77,-298.52 700.97,-298.01 698.16,-297.47"/>
<polygon fill="midnightblue" stroke="midnightblue" points="1031.62,-345.62 1041.93,-343.16 1032.34,-338.65 1031.62,-345.62"/>
</g>
<!-- Node11&#45;&gt;Node9 -->
<g id="edge15" class="edge">
<title>Node11&#45;&gt;Node9</title>
<path fill="none" stroke="midnightblue" d="M1142.31,-371.24C1157.65,-381.29 1174.8,-393.28 1186.78,-402.4"/>
<polygon fill="midnightblue" stroke="midnightblue" points="1143.83,-368.06 1133.53,-365.58 1140.04,-373.94 1143.83,-368.06"/>
</g>
<!-- Node12 -->
<g id="node12" class="node">
<title>Node12</title>
<g id="a_node12"><a xlink:href="_squad_8cpp.html" target="_top" xlink:title=" ">
<polygon fill="white" stroke="black" points="1333.5,-67.5 1333.5,-97.5 1447.5,-97.5 1447.5,-67.5 1333.5,-67.5"/>
<text text-anchor="start" x="1341.5" y="-85.5" font-family="Helvetica,sans-Serif" font-size="10.00">src/GameLogic/Squad</text>
<text text-anchor="middle" x="1390.5" y="-74.5" font-family="Helvetica,sans-Serif" font-size="10.00">/Squad.cpp</text>
</a>
</g>
</g>
<!-- Node11&#45;&gt;Node12 -->
<g id="edge12" class="edge">
<title>Node11&#45;&gt;Node12</title>
<path fill="none" stroke="midnightblue" d="M1131.06,-328.34C1173.97,-289.89 1261.9,-211.53 1277.5,-201 1306.83,-181.21 1323.4,-189.94 1348.5,-165 1368.04,-145.59 1380.35,-115.2 1386.28,-97.53"/>
<polygon fill="midnightblue" stroke="midnightblue" points="1128.46,-325.97 1123.36,-335.25 1133.14,-331.18 1128.46,-325.97"/>
</g>
<!-- Node13 -->
<g id="node13" class="node">
<title>Node13</title>
<g id="a_node13"><a xlink:href="_unit_8h.html" target="_top" xlink:title=" ">
<polygon fill="white" stroke="black" points="716,-268.5 716,-298.5 843,-298.5 843,-268.5 716,-268.5"/>
<text text-anchor="start" x="724" y="-286.5" font-family="Helvetica,sans-Serif" font-size="10.00">include/GameLogic/Units</text>
<text text-anchor="middle" x="779.5" y="-275.5" font-family="Helvetica,sans-Serif" font-size="10.00">/Unit.h</text>
</a>
</g>
</g>
<!-- Node11&#45;&gt;Node13 -->
<g id="edge16" class="edge">
<title>Node11&#45;&gt;Node13</title>
<path fill="none" stroke="midnightblue" d="M1031.9,-335.64C974.68,-324.59 897.06,-309.21 843.03,-298.2"/>
<polygon fill="midnightblue" stroke="midnightblue" points="1031.49,-339.12 1041.98,-337.58 1032.82,-332.25 1031.49,-339.12"/>
</g>
<!-- Node11&#45;&gt;Node38 -->
<g id="edge58" class="edge">
<title>Node11&#45;&gt;Node38</title>
<path fill="none" stroke="midnightblue" d="M1167.28,-332.75C1212.66,-320.04 1273.17,-303.09 1309.06,-293.03"/>
<polygon fill="midnightblue" stroke="midnightblue" points="1166.24,-329.41 1157.55,-335.48 1168.13,-336.15 1166.24,-329.41"/>
</g>
<!-- Node13&#45;&gt;Node11 -->
<g id="edge18" class="edge">
<title>Node13&#45;&gt;Node11</title>
<path fill="none" stroke="midnightblue" d="M853.14,-297.98C909.98,-308.95 987.82,-324.37 1042.4,-335.48"/>
<polygon fill="midnightblue" stroke="midnightblue" points="853.62,-294.51 843.13,-296.06 852.29,-301.39 853.62,-294.51"/>
</g>
<!-- Node14 -->
<g id="node14" class="node">
<title>Node14</title>
<g id="a_node14"><a xlink:href="_unit_8cpp.html" target="_top" xlink:title=" ">
<polygon fill="white" stroke="black" points="277.5,-134.5 277.5,-164.5 387.5,-164.5 387.5,-134.5 277.5,-134.5"/>
<text text-anchor="start" x="285.5" y="-152.5" font-family="Helvetica,sans-Serif" font-size="10.00">src/GameLogic/Units</text>
<text text-anchor="middle" x="332.5" y="-141.5" font-family="Helvetica,sans-Serif" font-size="10.00">/Unit.cpp</text>
</a>
</g>
</g>
<!-- Node13&#45;&gt;Node14 -->
<g id="edge17" class="edge">
<title>Node13&#45;&gt;Node14</title>
<path fill="none" stroke="midnightblue" d="M705.67,-267.62C638.95,-254.04 550.03,-235.55 542.5,-232 522.47,-222.55 523.15,-211.21 503.5,-201 483.24,-190.47 429.56,-175.31 387.7,-164.35"/>
<polygon fill="midnightblue" stroke="midnightblue" points="705.26,-271.11 715.76,-269.67 706.65,-264.25 705.26,-271.11"/>
</g>
<!-- Node15 -->
<g id="node15" class="node">
<title>Node15</title>
<g id="a_node15"><a xlink:href="_squad_order_8h.html" target="_top" xlink:title=" ">
<polygon fill="white" stroke="black" points="0,-134.5 0,-164.5 131,-164.5 131,-134.5 0,-134.5"/>
<text text-anchor="start" x="8" y="-152.5" font-family="Helvetica,sans-Serif" font-size="10.00">include/GameLogic/Squad</text>
<text text-anchor="middle" x="65.5" y="-141.5" font-family="Helvetica,sans-Serif" font-size="10.00">/SquadOrder.h</text>
</a>
</g>
</g>
<!-- Node13&#45;&gt;Node15 -->
<g id="edge19" class="edge">
<title>Node13&#45;&gt;Node15</title>
<path fill="none" stroke="midnightblue" d="M705.5,-268C550.53,-246.79 499.01,-290.36 358.5,-232 338.37,-223.64 340.22,-210.28 320.5,-201 318.32,-199.98 205.93,-177.92 131.1,-163.29"/>
<polygon fill="midnightblue" stroke="midnightblue" points="705.46,-271.53 715.86,-269.5 706.46,-264.61 705.46,-271.53"/>
</g>
<!-- Node17 -->
<g id="node17" class="node">
<title>Node17</title>
<g id="a_node17"><a xlink:href="_armored_unit_8h.html" target="_top" xlink:title=" ">
<polygon fill="white" stroke="black" points="808,-134.5 808,-164.5 935,-164.5 935,-134.5 808,-134.5"/>
<text text-anchor="start" x="816" y="-152.5" font-family="Helvetica,sans-Serif" font-size="10.00">include/GameLogic/Units</text>
<text text-anchor="middle" x="871.5" y="-141.5" font-family="Helvetica,sans-Serif" font-size="10.00">/ArmoredUnit.h</text>
</a>
</g>
</g>
<!-- Node13&#45;&gt;Node17 -->
<g id="edge21" class="edge">
<title>Node13&#45;&gt;Node17</title>
<path fill="none" stroke="midnightblue" d="M817.91,-262.89C830.27,-254.85 842.97,-244.47 851.5,-232 865.56,-211.44 869.76,-181.98 871,-164.69"/>
<polygon fill="midnightblue" stroke="midnightblue" points="815.73,-260.12 809.02,-268.32 819.38,-266.09 815.73,-260.12"/>
</g>
<!-- Node13&#45;&gt;Node22 -->
<g id="edge26" class="edge">
<title>Node13&#45;&gt;Node22</title>
<path fill="none" stroke="midnightblue" d="M844.04,-265.98C885.53,-255.37 938.86,-241.72 978.36,-231.61"/>
<polygon fill="midnightblue" stroke="midnightblue" points="843.12,-262.61 834.3,-268.48 844.86,-269.39 843.12,-262.61"/>
</g>
<!-- Node32 -->
<g id="node32" class="node">
<title>Node32</title>
<g id="a_node32"><a xlink:href="_land_unit_8h.html" target="_top" xlink:title=" ">
<polygon fill="white" stroke="black" points="552,-201.5 552,-231.5 679,-231.5 679,-201.5 552,-201.5"/>
<text text-anchor="start" x="560" y="-219.5" font-family="Helvetica,sans-Serif" font-size="10.00">include/GameLogic/Units</text>
<text text-anchor="middle" x="615.5" y="-208.5" font-family="Helvetica,sans-Serif" font-size="10.00">/LandUnit.h</text>
</a>
</g>
</g>
<!-- Node13&#45;&gt;Node32 -->
<g id="edge46" class="edge">
<title>Node13&#45;&gt;Node32</title>
<path fill="none" stroke="midnightblue" d="M734.54,-264.68C708.24,-254.26 675.5,-241.28 651.02,-231.58"/>
<polygon fill="midnightblue" stroke="midnightblue" points="733.33,-267.97 743.91,-268.4 735.91,-261.46 733.33,-267.97"/>
</g>
<!-- Node34 -->
<g id="node34" class="node">
<title>Node34</title>
<g id="a_node34"><a xlink:href="_transport_unit_8h.html" target="_top" xlink:title=" ">
<polygon fill="white" stroke="black" points="716,-201.5 716,-231.5 843,-231.5 843,-201.5 716,-201.5"/>
<text text-anchor="start" x="724" y="-219.5" font-family="Helvetica,sans-Serif" font-size="10.00">include/GameLogic/Units</text>
<text text-anchor="middle" x="779.5" y="-208.5" font-family="Helvetica,sans-Serif" font-size="10.00">/TransportUnit.h</text>
</a>
</g>
</g>
<!-- Node13&#45;&gt;Node34 -->
<g id="edge49" class="edge">
<title>Node13&#45;&gt;Node34</title>
<path fill="none" stroke="midnightblue" d="M779.5,-258.11C779.5,-249.15 779.5,-239.32 779.5,-231.58"/>
<polygon fill="midnightblue" stroke="midnightblue" points="776,-258.4 779.5,-268.4 783,-258.4 776,-258.4"/>
</g>
<!-- Node36 -->
<g id="node36" class="node">
<title>Node36</title>
<g id="a_node36"><a xlink:href="_unit_order_8h.html" target="_top" xlink:title=" ">
<polygon fill="white" stroke="black" points="368,-201.5 368,-231.5 495,-231.5 495,-201.5 368,-201.5"/>
<text text-anchor="start" x="376" y="-219.5" font-family="Helvetica,sans-Serif" font-size="10.00">include/GameLogic/Units</text>
<text text-anchor="middle" x="431.5" y="-208.5" font-family="Helvetica,sans-Serif" font-size="10.00">/UnitOrder.h</text>
</a>
</g>
</g>
<!-- Node13&#45;&gt;Node36 -->
<g id="edge53" class="edge">
<title>Node13&#45;&gt;Node36</title>
<path fill="none" stroke="midnightblue" d="M706.04,-269.64C703.15,-269.08 700.3,-268.53 697.5,-268 610.07,-251.33 588.03,-248.13 500.5,-232 498.74,-231.68 496.96,-231.35 495.16,-231.01"/>
<polygon fill="midnightblue" stroke="midnightblue" points="705.48,-273.1 715.96,-271.56 706.81,-266.22 705.48,-273.1"/>
</g>
<!-- Node16 -->
<g id="node16" class="node">
<title>Node16</title>
<g id="a_node16"><a xlink:href="_squad_order_8cpp.html" target="_top" xlink:title=" ">
<polygon fill="white" stroke="black" points="8.5,-67.5 8.5,-97.5 122.5,-97.5 122.5,-67.5 8.5,-67.5"/>
<text text-anchor="start" x="16.5" y="-85.5" font-family="Helvetica,sans-Serif" font-size="10.00">src/GameLogic/Squad</text>
<text text-anchor="middle" x="65.5" y="-74.5" font-family="Helvetica,sans-Serif" font-size="10.00">/SquadOrder.cpp</text>
</a>
</g>
</g>
<!-- Node15&#45;&gt;Node16 -->
<g id="edge20" class="edge">
<title>Node15&#45;&gt;Node16</title>
<path fill="none" stroke="midnightblue" d="M65.5,-124.11C65.5,-115.15 65.5,-105.32 65.5,-97.58"/>
<polygon fill="midnightblue" stroke="midnightblue" points="62,-124.4 65.5,-134.4 69,-124.4 62,-124.4"/>
</g>
<!-- Node18 -->
<g id="node18" class="node">
<title>Node18</title>
<g id="a_node18"><a xlink:href="_armored_unit_8cpp.html" target="_top" xlink:title=" ">
<polygon fill="white" stroke="black" points="800.5,-67.5 800.5,-97.5 910.5,-97.5 910.5,-67.5 800.5,-67.5"/>
<text text-anchor="start" x="808.5" y="-85.5" font-family="Helvetica,sans-Serif" font-size="10.00">src/GameLogic/Units</text>
<text text-anchor="middle" x="855.5" y="-74.5" font-family="Helvetica,sans-Serif" font-size="10.00">/ArmoredUnit.cpp</text>
</a>
</g>
</g>
<!-- Node17&#45;&gt;Node18 -->
<g id="edge22" class="edge">
<title>Node17&#45;&gt;Node18</title>
<path fill="none" stroke="midnightblue" d="M865.57,-124.4C863.34,-115.37 860.89,-105.41 858.96,-97.58"/>
<polygon fill="midnightblue" stroke="midnightblue" points="862.24,-125.52 868.03,-134.4 869.04,-123.85 862.24,-125.52"/>
</g>
<!-- Node19 -->
<g id="node19" class="node">
<title>Node19</title>
<g id="a_node19"><a xlink:href="_armored_unit_factory_8h.html" target="_top" xlink:title=" ">
<polygon fill="white" stroke="black" points="1114,-67.5 1114,-97.5 1241,-97.5 1241,-67.5 1114,-67.5"/>
<text text-anchor="start" x="1122" y="-85.5" font-family="Helvetica,sans-Serif" font-size="10.00">include/GameLogic/Units</text>
<text text-anchor="middle" x="1177.5" y="-74.5" font-family="Helvetica,sans-Serif" font-size="10.00">/ArmoredUnitFactory.h</text>
</a>
</g>
</g>
<!-- Node17&#45;&gt;Node19 -->
<g id="edge23" class="edge">
<title>Node17&#45;&gt;Node19</title>
<path fill="none" stroke="midnightblue" d="M945.34,-132.82C996.79,-121.89 1064.73,-107.45 1113.81,-97.03"/>
<polygon fill="midnightblue" stroke="midnightblue" points="944.33,-129.45 935.28,-134.95 945.78,-136.3 944.33,-129.45"/>
</g>
<!-- Node20 -->
<g id="node20" class="node">
<title>Node20</title>
<g id="a_node20"><a xlink:href="_all_units_8cpp.html" target="_top" xlink:title=" ">
<polygon fill="white" stroke="black" points="934.5,-0.5 934.5,-30.5 1044.5,-30.5 1044.5,-0.5 934.5,-0.5"/>
<text text-anchor="start" x="942.5" y="-18.5" font-family="Helvetica,sans-Serif" font-size="10.00">src/GameLogic/Units</text>
<text text-anchor="middle" x="989.5" y="-7.5" font-family="Helvetica,sans-Serif" font-size="10.00">/AllUnits.cpp</text>
</a>
</g>
</g>
<!-- Node19&#45;&gt;Node20 -->
<g id="edge24" class="edge">
<title>Node19&#45;&gt;Node20</title>
<path fill="none" stroke="midnightblue" d="M1127.15,-64.09C1096.8,-53.6 1058.65,-40.41 1030.21,-30.58"/>
<polygon fill="midnightblue" stroke="midnightblue" points="1126.11,-67.44 1136.71,-67.4 1128.4,-60.82 1126.11,-67.44"/>
</g>
<!-- Node21 -->
<g id="node21" class="node">
<title>Node21</title>
<g id="a_node21"><a xlink:href="_armored_unit_factory_8cpp.html" target="_top" xlink:title=" ">
<polygon fill="white" stroke="black" points="1115,-0.5 1115,-30.5 1240,-30.5 1240,-0.5 1115,-0.5"/>
<text text-anchor="start" x="1123" y="-18.5" font-family="Helvetica,sans-Serif" font-size="10.00">src/GameLogic/Units</text>
<text text-anchor="middle" x="1177.5" y="-7.5" font-family="Helvetica,sans-Serif" font-size="10.00">/ArmoredUnitFactory.cpp</text>
</a>
</g>
</g>
<!-- Node19&#45;&gt;Node21 -->
<g id="edge25" class="edge">
<title>Node19&#45;&gt;Node21</title>
<path fill="none" stroke="midnightblue" d="M1177.5,-57.11C1177.5,-48.15 1177.5,-38.32 1177.5,-30.58"/>
<polygon fill="midnightblue" stroke="midnightblue" points="1174,-57.4 1177.5,-67.4 1181,-57.4 1174,-57.4"/>
</g>
<!-- Node22&#45;&gt;Node19 -->
<g id="edge38" class="edge">
<title>Node22&#45;&gt;Node19</title>
<path fill="none" stroke="midnightblue" d="M1107.2,-201.2C1171.05,-193.14 1300.38,-201.5 1331.5,-165 1362.61,-128.52 1296.16,-105.97 1241.04,-94.09"/>
<polygon fill="midnightblue" stroke="midnightblue" points="1106.54,-197.76 1097.17,-202.71 1107.58,-204.68 1106.54,-197.76"/>
</g>
<!-- Node23 -->
<g id="node23" class="node">
<title>Node23</title>
<g id="a_node23"><a xlink:href="_spawn_action_8cpp.html" target="_top" xlink:title=" ">
<polygon fill="white" stroke="black" points="1098.5,-134.5 1098.5,-164.5 1194.5,-164.5 1194.5,-134.5 1098.5,-134.5"/>
<text text-anchor="start" x="1106.5" y="-152.5" font-family="Helvetica,sans-Serif" font-size="10.00">src/engine/actions</text>
<text text-anchor="middle" x="1146.5" y="-141.5" font-family="Helvetica,sans-Serif" font-size="10.00">/SpawnAction.cpp</text>
</a>
</g>
</g>
<!-- Node22&#45;&gt;Node23 -->
<g id="edge27" class="edge">
<title>Node22&#45;&gt;Node23</title>
<path fill="none" stroke="midnightblue" d="M1066.89,-196.3C1084.57,-186.12 1105.9,-173.85 1122.03,-164.58"/>
<polygon fill="midnightblue" stroke="midnightblue" points="1064.94,-193.38 1058.02,-201.4 1068.43,-199.44 1064.94,-193.38"/>
</g>
<!-- Node24 -->
<g id="node24" class="node">
<title>Node24</title>
<g id="a_node24"><a xlink:href="_factory_8cpp.html" target="_top" xlink:title=" ">
<polygon fill="white" stroke="black" points="1212.5,-134.5 1212.5,-164.5 1322.5,-164.5 1322.5,-134.5 1212.5,-134.5"/>
<text text-anchor="start" x="1220.5" y="-152.5" font-family="Helvetica,sans-Serif" font-size="10.00">src/GameLogic/Units</text>
<text text-anchor="middle" x="1267.5" y="-141.5" font-family="Helvetica,sans-Serif" font-size="10.00">/Factory.cpp</text>
</a>
</g>
</g>
<!-- Node22&#45;&gt;Node24 -->
<g id="edge28" class="edge">
<title>Node22&#45;&gt;Node24</title>
<path fill="none" stroke="midnightblue" d="M1093.93,-198.71C1132.01,-188.14 1180.61,-174.63 1216.7,-164.61"/>
<polygon fill="midnightblue" stroke="midnightblue" points="1092.68,-195.43 1083.99,-201.48 1094.56,-202.17 1092.68,-195.43"/>
</g>
<!-- Node25 -->
<g id="node25" class="node">
<title>Node25</title>
<g id="a_node25"><a xlink:href="_squad_template_8h.html" target="_top" xlink:title=" ">
<polygon fill="white" stroke="black" points="1562,-134.5 1562,-164.5 1693,-164.5 1693,-134.5 1562,-134.5"/>
<text text-anchor="start" x="1570" y="-152.5" font-family="Helvetica,sans-Serif" font-size="10.00">include/GameLogic/Squad</text>
<text text-anchor="middle" x="1627.5" y="-141.5" font-family="Helvetica,sans-Serif" font-size="10.00">/SquadTemplate.h</text>
</a>
</g>
</g>
<!-- Node22&#45;&gt;Node25 -->
<g id="edge29" class="edge">
<title>Node22&#45;&gt;Node25</title>
<path fill="none" stroke="midnightblue" d="M1107.3,-201.01C1305.68,-174.15 1359.33,-191.75 1553.5,-165 1556.22,-164.62 1559,-164.21 1561.8,-163.77"/>
<polygon fill="midnightblue" stroke="midnightblue" points="1106.56,-197.58 1097.13,-202.41 1107.51,-204.52 1106.56,-197.58"/>
</g>
<!-- Node27 -->
<g id="node27" class="node">
<title>Node27</title>
<g id="a_node27"><a xlink:href="_all_units_8h.html" target="_top" xlink:title=" ">
<polygon fill="white" stroke="black" points="1417,-134.5 1417,-164.5 1544,-164.5 1544,-134.5 1417,-134.5"/>
<text text-anchor="start" x="1425" y="-152.5" font-family="Helvetica,sans-Serif" font-size="10.00">include/GameLogic/Units</text>
<text text-anchor="middle" x="1480.5" y="-141.5" font-family="Helvetica,sans-Serif" font-size="10.00">/AllUnits.h</text>
</a>
</g>
</g>
<!-- Node22&#45;&gt;Node27 -->
<g id="edge32" class="edge">
<title>Node22&#45;&gt;Node27</title>
<path fill="none" stroke="midnightblue" d="M1107.27,-200.96C1179.74,-189.34 1330.63,-169.67 1416.94,-158.6"/>
<polygon fill="midnightblue" stroke="midnightblue" points="1106.46,-197.55 1097.16,-202.61 1107.59,-204.45 1106.46,-197.55"/>
</g>
<!-- Node28 -->
<g id="node28" class="node">
<title>Node28</title>
<g id="a_node28"><a xlink:href="_land_unit_factory_8h.html" target="_top" xlink:title=" ">
<polygon fill="white" stroke="black" points="534,-134.5 534,-164.5 661,-164.5 661,-134.5 534,-134.5"/>
<text text-anchor="start" x="542" y="-152.5" font-family="Helvetica,sans-Serif" font-size="10.00">include/GameLogic/Units</text>
<text text-anchor="middle" x="597.5" y="-141.5" font-family="Helvetica,sans-Serif" font-size="10.00">/LandUnitFactory.h</text>
</a>
</g>
</g>
<!-- Node22&#45;&gt;Node28 -->
<g id="edge39" class="edge">
<title>Node22&#45;&gt;Node28</title>
<path fill="none" stroke="midnightblue" d="M959.64,-206.5C886.16,-197.24 770.27,-181.83 670.5,-165 667.44,-164.48 664.32,-163.94 661.16,-163.37"/>
<polygon fill="midnightblue" stroke="midnightblue" points="959.37,-209.99 969.72,-207.76 960.24,-203.04 959.37,-209.99"/>
</g>
<!-- Node30 -->
<g id="node30" class="node">
<title>Node30</title>
<g id="a_node30"><a xlink:href="_transport_unit_factory_8h.html" target="_top" xlink:title=" ">
<polygon fill="white" stroke="black" points="953,-134.5 953,-164.5 1080,-164.5 1080,-134.5 953,-134.5"/>
<text text-anchor="start" x="961" y="-152.5" font-family="Helvetica,sans-Serif" font-size="10.00">include/GameLogic/Units</text>
<text text-anchor="middle" x="1016.5" y="-141.5" font-family="Helvetica,sans-Serif" font-size="10.00">/TransportUnitFactory.h</text>
</a>
</g>
</g>
<!-- Node22&#45;&gt;Node30 -->
<g id="edge42" class="edge">
<title>Node22&#45;&gt;Node30</title>
<path fill="none" stroke="midnightblue" d="M1027.27,-191.7C1024.89,-182.59 1022.25,-172.49 1020.18,-164.58"/>
<polygon fill="midnightblue" stroke="midnightblue" points="1023.89,-192.61 1029.81,-201.4 1030.67,-190.84 1023.89,-192.61"/>
</g>
<!-- Node25&#45;&gt;Node1 -->
<g id="edge31" class="edge">
<title>Node25&#45;&gt;Node1</title>
<path fill="none" stroke="midnightblue" d="M1631.06,-174.95C1634.6,-201.4 1639.5,-244.85 1639.5,-282.5 1639.5,-418.5 1639.5,-418.5 1639.5,-418.5 1639.5,-483.6 1563.49,-519.09 1507.36,-536.43"/>
<polygon fill="midnightblue" stroke="midnightblue" points="1634.48,-174.15 1629.65,-164.72 1627.55,-175.11 1634.48,-174.15"/>
</g>
<!-- Node26 -->
<g id="node26" class="node">
<title>Node26</title>
<g id="a_node26"><a xlink:href="_squad_template_8cpp.html" target="_top" xlink:title=" ">
<polygon fill="white" stroke="black" points="1539.5,-67.5 1539.5,-97.5 1653.5,-97.5 1653.5,-67.5 1539.5,-67.5"/>
<text text-anchor="start" x="1547.5" y="-85.5" font-family="Helvetica,sans-Serif" font-size="10.00">src/GameLogic/Squad</text>
<text text-anchor="middle" x="1596.5" y="-74.5" font-family="Helvetica,sans-Serif" font-size="10.00">/SquadTemplate.cpp</text>
</a>
</g>
</g>
<!-- Node25&#45;&gt;Node26 -->
<g id="edge30" class="edge">
<title>Node25&#45;&gt;Node26</title>
<path fill="none" stroke="midnightblue" d="M1616.43,-125.28C1612.01,-116.02 1607.07,-105.66 1603.21,-97.58"/>
<polygon fill="midnightblue" stroke="midnightblue" points="1613.31,-126.88 1620.77,-134.4 1619.63,-123.86 1613.31,-126.88"/>
</g>
<!-- Node27&#45;&gt;Node1 -->
<g id="edge37" class="edge">
<title>Node27&#45;&gt;Node1</title>
<path fill="none" stroke="midnightblue" d="M1516.39,-169.78C1552.06,-191.86 1601.5,-231.63 1601.5,-282.5 1601.5,-418.5 1601.5,-418.5 1601.5,-418.5 1601.5,-478.49 1533.23,-517.23 1487.9,-536.35"/>
<polygon fill="midnightblue" stroke="midnightblue" points="1518.03,-166.69 1507.65,-164.56 1514.44,-172.7 1518.03,-166.69"/>
</g>
<!-- Node27&#45;&gt;Node3 -->
<g id="edge36" class="edge">
<title>Node27&#45;&gt;Node3</title>
<path fill="none" stroke="midnightblue" d="M1471.14,-174.28C1458.79,-204.45 1435.44,-257.52 1408.5,-299 1366.07,-364.33 1347.16,-374.69 1295.5,-433 1282.31,-447.88 1266.47,-464.7 1256.95,-474.68"/>
<polygon fill="midnightblue" stroke="midnightblue" points="1474.54,-175.21 1475.04,-164.63 1468.05,-172.59 1474.54,-175.21"/>
</g>
<!-- Node27&#45;&gt;Node12 -->
<g id="edge33" class="edge">
<title>Node27&#45;&gt;Node12</title>
<path fill="none" stroke="midnightblue" d="M1452.74,-128.45C1438.89,-118.45 1422.48,-106.6 1409.99,-97.58"/>
<polygon fill="midnightblue" stroke="midnightblue" points="1450.82,-131.38 1460.97,-134.4 1454.91,-125.7 1450.82,-131.38"/>
</g>
<!-- Node27&#45;&gt;Node20 -->
<g id="edge35" class="edge">
<title>Node27&#45;&gt;Node20</title>
<path fill="none" stroke="midnightblue" d="M1480.23,-124.34C1478.62,-105.72 1473.19,-80.87 1456.5,-67 1396.19,-16.89 1183.41,-39.86 1105.5,-31 1085.64,-28.74 1063.89,-26.07 1044.64,-23.65"/>
<polygon fill="midnightblue" stroke="midnightblue" points="1476.74,-124.67 1480.78,-134.46 1483.73,-124.28 1476.74,-124.67"/>
</g>
<!-- Node27&#45;&gt;Node26 -->
<g id="edge34" class="edge">
<title>Node27&#45;&gt;Node26</title>
<path fill="none" stroke="midnightblue" d="M1514.77,-129.3C1532.92,-119.12 1554.82,-106.85 1571.38,-97.58"/>
<polygon fill="midnightblue" stroke="midnightblue" points="1512.68,-126.45 1505.67,-134.4 1516.1,-132.56 1512.68,-126.45"/>
</g>
<!-- Node28&#45;&gt;Node20 -->
<g id="edge40" class="edge">
<title>Node28&#45;&gt;Node20</title>
<path fill="none" stroke="midnightblue" d="M636.55,-130.08C675.27,-112.29 736.58,-85.43 791.5,-67 838.92,-51.09 894.17,-37.39 934.24,-28.28"/>
<polygon fill="midnightblue" stroke="midnightblue" points="634.82,-127.02 627.21,-134.39 637.76,-133.37 634.82,-127.02"/>
</g>
<!-- Node29 -->
<g id="node29" class="node">
<title>Node29</title>
<g id="a_node29"><a xlink:href="_land_unit_factory_8cpp.html" target="_top" xlink:title=" ">
<polygon fill="white" stroke="black" points="542.5,-67.5 542.5,-97.5 652.5,-97.5 652.5,-67.5 542.5,-67.5"/>
<text text-anchor="start" x="550.5" y="-85.5" font-family="Helvetica,sans-Serif" font-size="10.00">src/GameLogic/Units</text>
<text text-anchor="middle" x="597.5" y="-74.5" font-family="Helvetica,sans-Serif" font-size="10.00">/LandUnitFactory.cpp</text>
</a>
</g>
</g>
<!-- Node28&#45;&gt;Node29 -->
<g id="edge41" class="edge">
<title>Node28&#45;&gt;Node29</title>
<path fill="none" stroke="midnightblue" d="M597.5,-124.11C597.5,-115.15 597.5,-105.32 597.5,-97.58"/>
<polygon fill="midnightblue" stroke="midnightblue" points="594,-124.4 597.5,-134.4 601,-124.4 594,-124.4"/>
</g>
<!-- Node30&#45;&gt;Node19 -->
<g id="edge45" class="edge">
<title>Node30&#45;&gt;Node19</title>
<path fill="none" stroke="midnightblue" d="M1060.98,-130.54C1086.74,-120.14 1118.7,-107.24 1142.63,-97.58"/>
<polygon fill="midnightblue" stroke="midnightblue" points="1059.4,-127.41 1051.43,-134.4 1062.02,-133.9 1059.4,-127.41"/>
</g>
<!-- Node30&#45;&gt;Node20 -->
<g id="edge43" class="edge">
<title>Node30&#45;&gt;Node20</title>
<path fill="none" stroke="midnightblue" d="M983.33,-128.41C973.1,-120.35 963.06,-110.08 957.5,-98 946.82,-74.8 963.94,-46.95 976.97,-30.55"/>
<polygon fill="midnightblue" stroke="midnightblue" points="981.36,-131.3 991.5,-134.39 985.5,-125.66 981.36,-131.3"/>
</g>
<!-- Node31 -->
<g id="node31" class="node">
<title>Node31</title>
<g id="a_node31"><a xlink:href="_transport_unit_factory_8cpp.html" target="_top" xlink:title=" ">
<polygon fill="white" stroke="black" points="967,-67.5 967,-97.5 1096,-97.5 1096,-67.5 967,-67.5"/>
<text text-anchor="start" x="975" y="-85.5" font-family="Helvetica,sans-Serif" font-size="10.00">src/GameLogic/Units</text>
<text text-anchor="middle" x="1031.5" y="-74.5" font-family="Helvetica,sans-Serif" font-size="10.00">/TransportUnitFactory.cpp</text>
</a>
</g>
</g>
<!-- Node30&#45;&gt;Node31 -->
<g id="edge44" class="edge">
<title>Node30&#45;&gt;Node31</title>
<path fill="none" stroke="midnightblue" d="M1022.06,-124.4C1024.15,-115.37 1026.44,-105.41 1028.25,-97.58"/>
<polygon fill="midnightblue" stroke="midnightblue" points="1018.59,-123.87 1019.75,-134.4 1025.41,-125.44 1018.59,-123.87"/>
</g>
<!-- Node32&#45;&gt;Node28 -->
<g id="edge48" class="edge">
<title>Node32&#45;&gt;Node28</title>
<path fill="none" stroke="midnightblue" d="M608.91,-191.7C606.39,-182.59 603.59,-172.49 601.4,-164.58"/>
<polygon fill="midnightblue" stroke="midnightblue" points="605.55,-192.69 611.59,-201.4 612.3,-190.82 605.55,-192.69"/>
</g>
<!-- Node33 -->
<g id="node33" class="node">
<title>Node33</title>
<g id="a_node33"><a xlink:href="_land_unit_8cpp.html" target="_top" xlink:title=" ">
<polygon fill="white" stroke="black" points="405.5,-134.5 405.5,-164.5 515.5,-164.5 515.5,-134.5 405.5,-134.5"/>
<text text-anchor="start" x="413.5" y="-152.5" font-family="Helvetica,sans-Serif" font-size="10.00">src/GameLogic/Units</text>
<text text-anchor="middle" x="460.5" y="-141.5" font-family="Helvetica,sans-Serif" font-size="10.00">/LandUnit.cpp</text>
</a>
</g>
</g>
<!-- Node32&#45;&gt;Node33 -->
<g id="edge47" class="edge">
<title>Node32&#45;&gt;Node33</title>
<path fill="none" stroke="midnightblue" d="M572.35,-197.41C547.61,-187.03 517,-174.2 494.07,-164.58"/>
<polygon fill="midnightblue" stroke="midnightblue" points="571.29,-200.76 581.87,-201.4 574,-194.3 571.29,-200.76"/>
</g>
<!-- Node34&#45;&gt;Node17 -->
<g id="edge51" class="edge">
<title>Node34&#45;&gt;Node17</title>
<path fill="none" stroke="midnightblue" d="M807.88,-195.45C822.03,-185.45 838.81,-173.6 851.58,-164.58"/>
<polygon fill="midnightblue" stroke="midnightblue" points="805.61,-192.77 799.46,-201.4 809.65,-198.48 805.61,-192.77"/>
</g>
<!-- Node34&#45;&gt;Node30 -->
<g id="edge52" class="edge">
<title>Node34&#45;&gt;Node30</title>
<path fill="none" stroke="midnightblue" d="M840.7,-198.71C879.27,-188.14 928.5,-174.63 965.05,-164.61"/>
<polygon fill="midnightblue" stroke="midnightblue" points="839.35,-195.46 830.63,-201.48 841.2,-202.21 839.35,-195.46"/>
</g>
<!-- Node35 -->
<g id="node35" class="node">
<title>Node35</title>
<g id="a_node35"><a xlink:href="_transport_unit_8cpp.html" target="_top" xlink:title=" ">
<polygon fill="white" stroke="black" points="679.5,-134.5 679.5,-164.5 789.5,-164.5 789.5,-134.5 679.5,-134.5"/>
<text text-anchor="start" x="687.5" y="-152.5" font-family="Helvetica,sans-Serif" font-size="10.00">src/GameLogic/Units</text>
<text text-anchor="middle" x="734.5" y="-141.5" font-family="Helvetica,sans-Serif" font-size="10.00">/TransportUnit.cpp</text>
</a>
</g>
</g>
<!-- Node34&#45;&gt;Node35 -->
<g id="edge50" class="edge">
<title>Node34&#45;&gt;Node35</title>
<path fill="none" stroke="midnightblue" d="M764.03,-193.16C757.47,-183.68 750.02,-172.92 744.25,-164.58"/>
<polygon fill="midnightblue" stroke="midnightblue" points="761.17,-195.17 769.74,-201.4 766.92,-191.18 761.17,-195.17"/>
</g>
<!-- Node36&#45;&gt;Node13 -->
<g id="edge57" class="edge">
<title>Node36&#45;&gt;Node13</title>
<path fill="none" stroke="midnightblue" d="M505.26,-229.56C509.75,-230.39 514.19,-231.21 518.5,-232 606.03,-248.13 628.07,-251.33 715.5,-268 716.26,-268.15 717.03,-268.29 717.8,-268.44"/>
<polygon fill="midnightblue" stroke="midnightblue" points="505.85,-226.11 495.38,-227.74 504.58,-232.99 505.85,-226.11"/>
</g>
<!-- Node36&#45;&gt;Node14 -->
<g id="edge54" class="edge">
<title>Node36&#45;&gt;Node14</title>
<path fill="none" stroke="midnightblue" d="M401.39,-195.73C386.08,-185.68 367.81,-173.68 353.94,-164.58"/>
<polygon fill="midnightblue" stroke="midnightblue" points="399.74,-198.83 410.02,-201.4 403.58,-192.98 399.74,-198.83"/>
</g>
<!-- Node36&#45;&gt;Node15 -->
<g id="edge56" class="edge">
<title>Node36&#45;&gt;Node15</title>
<path fill="none" stroke="midnightblue" d="M357.42,-201.7C356.11,-201.46 354.8,-201.23 353.5,-201 258.97,-184.23 234.97,-182.11 140.5,-165 137.5,-164.46 134.43,-163.89 131.33,-163.32"/>
<polygon fill="midnightblue" stroke="midnightblue" points="357.2,-205.22 367.66,-203.55 358.44,-198.33 357.2,-205.22"/>
</g>
<!-- Node37 -->
<g id="node37" class="node">
<title>Node37</title>
<g id="a_node37"><a xlink:href="_unit_order_8cpp.html" target="_top" xlink:title=" ">
<polygon fill="white" stroke="black" points="149.5,-134.5 149.5,-164.5 259.5,-164.5 259.5,-134.5 149.5,-134.5"/>
<text text-anchor="start" x="157.5" y="-152.5" font-family="Helvetica,sans-Serif" font-size="10.00">src/GameLogic/Units</text>
<text text-anchor="middle" x="204.5" y="-141.5" font-family="Helvetica,sans-Serif" font-size="10.00">/UnitOrder.cpp</text>
</a>
</g>
</g>
<!-- Node36&#45;&gt;Node37 -->
<g id="edge55" class="edge">
<title>Node36&#45;&gt;Node37</title>
<path fill="none" stroke="midnightblue" d="M372.88,-198.71C335.94,-188.14 288.79,-174.63 253.78,-164.61"/>
<polygon fill="midnightblue" stroke="midnightblue" points="371.95,-202.09 382.52,-201.48 373.87,-195.36 371.95,-202.09"/>
</g>
<!-- Node38&#45;&gt;Node10 -->
<g id="edge59" class="edge">
<title>Node38&#45;&gt;Node10</title>
<path fill="none" stroke="midnightblue" d="M1307.9,-270.2C1279.61,-259.19 1238.12,-243.04 1208.54,-231.53"/>
<polygon fill="midnightblue" stroke="midnightblue" points="1306.74,-273.5 1317.32,-273.87 1309.27,-266.98 1306.74,-273.5"/>
</g>
<!-- Node39 -->
<g id="node39" class="node">
<title>Node39</title>
<g id="a_node39"><a xlink:href="pathfinding_8cpp.html" target="_top" xlink:title=" ">
<polygon fill="white" stroke="black" points="1286,-207 1286,-226 1399,-226 1399,-207 1286,-207"/>
<text text-anchor="middle" x="1342.5" y="-214" font-family="Helvetica,sans-Serif" font-size="10.00">src/util/pathfinding.cpp</text>
</a>
</g>
</g>
<!-- Node38&#45;&gt;Node39 -->
<g id="edge60" class="edge">
<title>Node38&#45;&gt;Node39</title>
<path fill="none" stroke="midnightblue" d="M1340.38,-263.54C1340.95,-251.17 1341.66,-235.62 1342.1,-226.13"/>
<polygon fill="midnightblue" stroke="midnightblue" points="1336.87,-263.58 1339.9,-273.73 1343.86,-263.91 1336.87,-263.58"/>
</g>
</g>
</svg>
