<?xml version="1.0" encoding="UTF-8" standalone="no"?>
<!DOCTYPE svg PUBLIC "-//W3C//DTD SVG 1.1//EN"
 "http://www.w3.org/Graphics/SVG/1.1/DTD/svg11.dtd">
<!-- Generated by graphviz version 2.47.1 (20210421.1823)
 -->
<!-- Title: include/GameLogic/Units/AllUnits.h Pages: 1 -->
<svg width="1577pt" height="564pt"
 viewBox="0.00 0.00 1577.11 564.00" xmlns="http://www.w3.org/2000/svg" xmlns:xlink="http://www.w3.org/1999/xlink">
<g id="graph0" class="graph" transform="scale(1 1) rotate(0) translate(4 560)">
<title>include/GameLogic/Units/AllUnits.h</title>
<polygon fill="white" stroke="transparent" points="-4,4 -4,-560 1573.11,-560 1573.11,4 -4,4"/>
<!-- Node1 -->
<g id="node1" class="node">
<title>Node1</title>
<g id="a_node1"><a xlink:title=" ">
<polygon fill="#bfbfbf" stroke="black" points="347,-525.5 347,-555.5 474,-555.5 474,-525.5 347,-525.5"/>
<text text-anchor="start" x="355" y="-543.5" font-family="Helvetica,sans-Serif" font-size="10.00">include/GameLogic/Units</text>
<text text-anchor="middle" x="410.5" y="-532.5" font-family="Helvetica,sans-Serif" font-size="10.00">/AllUnits.h</text>
</a>
</g>
</g>
<!-- Node2 -->
<g id="node2" class="node">
<title>Node2</title>
<g id="a_node2"><a xlink:href="_squad_8cpp.html" target="_top" xlink:title=" ">
<polygon fill="white" stroke="black" points="133.5,-268.5 133.5,-298.5 247.5,-298.5 247.5,-268.5 133.5,-268.5"/>
<text text-anchor="start" x="141.5" y="-286.5" font-family="Helvetica,sans-Serif" font-size="10.00">src/GameLogic/Squad</text>
<text text-anchor="middle" x="190.5" y="-275.5" font-family="Helvetica,sans-Serif" font-size="10.00">/Squad.cpp</text>
</a>
</g>
</g>
<!-- Node1&#45;&gt;Node2 -->
<g id="edge1" class="edge">
<title>Node1&#45;&gt;Node2</title>
<path fill="none" stroke="midnightblue" d="M391.63,-517.62C347.58,-466.57 238.99,-340.7 202.6,-298.53"/>
<polygon fill="midnightblue" stroke="midnightblue" points="389.18,-520.14 398.36,-525.43 394.48,-515.57 389.18,-520.14"/>
</g>
<!-- Node3 -->
<g id="node3" class="node">
<title>Node3</title>
<g id="a_node3"><a xlink:href="_squad_template_8cpp.html" target="_top" xlink:title=" ">
<polygon fill="white" stroke="black" points="352.5,-67.5 352.5,-97.5 466.5,-97.5 466.5,-67.5 352.5,-67.5"/>
<text text-anchor="start" x="360.5" y="-85.5" font-family="Helvetica,sans-Serif" font-size="10.00">src/GameLogic/Squad</text>
<text text-anchor="middle" x="409.5" y="-74.5" font-family="Helvetica,sans-Serif" font-size="10.00">/SquadTemplate.cpp</text>
</a>
</g>
</g>
<!-- Node1&#45;&gt;Node3 -->
<g id="edge2" class="edge">
<title>Node1&#45;&gt;Node3</title>
<path fill="none" stroke="midnightblue" d="M337.01,-525.54C246.76,-506.24 105.5,-468.12 105.5,-418.5 105.5,-418.5 105.5,-418.5 105.5,-215.5 105.5,-177.86 100.62,-159.29 128.5,-134 144.88,-119.14 275.04,-100.45 352.34,-90.5"/>
<polygon fill="midnightblue" stroke="midnightblue" points="336.43,-528.99 346.93,-527.63 337.87,-522.14 336.43,-528.99"/>
</g>
<!-- Node4 -->
<g id="node4" class="node">
<title>Node4</title>
<g id="a_node4"><a xlink:href="_all_units_8cpp.html" target="_top" xlink:title=" ">
<polygon fill="white" stroke="black" points="1326.5,-0.5 1326.5,-30.5 1436.5,-30.5 1436.5,-0.5 1326.5,-0.5"/>
<text text-anchor="start" x="1334.5" y="-18.5" font-family="Helvetica,sans-Serif" font-size="10.00">src/GameLogic/Units</text>
<text text-anchor="middle" x="1381.5" y="-7.5" font-family="Helvetica,sans-Serif" font-size="10.00">/AllUnits.cpp</text>
</a>
</g>
</g>
<!-- Node1&#45;&gt;Node4 -->
<g id="edge3" class="edge">
<title>Node1&#45;&gt;Node4</title>
<path fill="none" stroke="midnightblue" d="M484.64,-539.55C740.01,-538.77 1567.5,-527.81 1567.5,-418.5 1567.5,-418.5 1567.5,-418.5 1567.5,-148.5 1567.5,-111.31 1573.94,-94.14 1548.5,-67 1519.81,-36.39 1473.28,-24.12 1436.62,-19.31"/>
<polygon fill="midnightblue" stroke="midnightblue" points="484.34,-536.05 474.35,-539.58 484.36,-543.05 484.34,-536.05"/>
</g>
<!-- Node5 -->
<g id="node5" class="node">
<title>Node5</title>
<g id="a_node5"><a xlink:href="_cell_8h.html" target="_top" xlink:title=" ">
<polygon fill="white" stroke="black" points="614.5,-469.5 614.5,-488.5 742.5,-488.5 742.5,-469.5 614.5,-469.5"/>
<text text-anchor="middle" x="678.5" y="-476.5" font-family="Helvetica,sans-Serif" font-size="10.00">include/GameLogic/Cell.h</text>
</a>
</g>
</g>
<!-- Node1&#45;&gt;Node5 -->
<g id="edge4" class="edge">
<title>Node1&#45;&gt;Node5</title>
<path fill="none" stroke="midnightblue" d="M483.58,-523.27C534.18,-512.04 599.49,-497.54 640.19,-488.51"/>
<polygon fill="midnightblue" stroke="midnightblue" points="482.68,-519.89 473.67,-525.47 484.19,-526.72 482.68,-519.89"/>
</g>
<!-- Node24 -->
<g id="node24" class="node">
<title>Node24</title>
<g id="a_node24"><a xlink:href="_all_squad_templates_8h.html" target="_top" xlink:title=" ">
<polygon fill="white" stroke="black" points="0,-67.5 0,-97.5 131,-97.5 131,-67.5 0,-67.5"/>
<text text-anchor="start" x="8" y="-85.5" font-family="Helvetica,sans-Serif" font-size="10.00">include/GameLogic/Squad</text>
<text text-anchor="middle" x="65.5" y="-74.5" font-family="Helvetica,sans-Serif" font-size="10.00">/AllSquadTemplates.h</text>
</a>
</g>
</g>
<!-- Node1&#45;&gt;Node24 -->
<g id="edge61" class="edge">
<title>Node1&#45;&gt;Node24</title>
<path fill="none" stroke="midnightblue" d="M336.61,-531.27C225.82,-516.83 29.5,-482.27 29.5,-418.5 29.5,-418.5 29.5,-418.5 29.5,-215.5 29.5,-171.32 48.5,-121.66 58.9,-97.8"/>
<polygon fill="midnightblue" stroke="midnightblue" points="336.37,-534.76 346.73,-532.56 337.25,-527.82 336.37,-534.76"/>
</g>
<!-- Node6 -->
<g id="node6" class="node">
<title>Node6</title>
<g id="a_node6"><a xlink:href="_cell_8cpp.html" target="_top" xlink:title=" ">
<polygon fill="white" stroke="black" points="503,-408 503,-427 624,-427 624,-408 503,-408"/>
<text text-anchor="middle" x="563.5" y="-415" font-family="Helvetica,sans-Serif" font-size="10.00">src/GameLogic/Cell.cpp</text>
</a>
</g>
</g>
<!-- Node5&#45;&gt;Node6 -->
<g id="edge5" class="edge">
<title>Node5&#45;&gt;Node6</title>
<path fill="none" stroke="midnightblue" d="M653.12,-464.87C630.83,-453.33 599.06,-436.9 579.95,-427.01"/>
<polygon fill="midnightblue" stroke="midnightblue" points="651.53,-467.99 662.02,-469.48 654.75,-461.77 651.53,-467.99"/>
</g>
<!-- Node7 -->
<g id="node7" class="node">
<title>Node7</title>
<g id="a_node7"><a xlink:href="main_8cpp.html" target="_top" xlink:title=" ">
<polygon fill="white" stroke="black" points="642.5,-408 642.5,-427 714.5,-427 714.5,-408 642.5,-408"/>
<text text-anchor="middle" x="678.5" y="-415" font-family="Helvetica,sans-Serif" font-size="10.00">src/main.cpp</text>
</a>
</g>
</g>
<!-- Node5&#45;&gt;Node7 -->
<g id="edge6" class="edge">
<title>Node5&#45;&gt;Node7</title>
<path fill="none" stroke="midnightblue" d="M678.5,-459.32C678.5,-448.5 678.5,-435.4 678.5,-427.01"/>
<polygon fill="midnightblue" stroke="midnightblue" points="675,-459.48 678.5,-469.48 682,-459.48 675,-459.48"/>
</g>
<!-- Node8 -->
<g id="node8" class="node">
<title>Node8</title>
<g id="a_node8"><a xlink:href="_set_squad_path_8h.html" target="_top" xlink:title=" ">
<polygon fill="white" stroke="black" points="751,-268.5 751,-298.5 864,-298.5 864,-268.5 751,-268.5"/>
<text text-anchor="start" x="759" y="-286.5" font-family="Helvetica,sans-Serif" font-size="10.00">include/engine/actions</text>
<text text-anchor="middle" x="807.5" y="-275.5" font-family="Helvetica,sans-Serif" font-size="10.00">/SetSquadPath.h</text>
</a>
</g>
</g>
<!-- Node5&#45;&gt;Node8 -->
<g id="edge7" class="edge">
<title>Node5&#45;&gt;Node8</title>
<path fill="none" stroke="midnightblue" d="M699.93,-464.4C712.87,-456.8 728.64,-446.19 739.5,-433 773.88,-391.24 790.12,-326.94 799.88,-298.66"/>
<polygon fill="midnightblue" stroke="midnightblue" points="698.1,-461.41 691.13,-469.39 701.55,-467.5 698.1,-461.41"/>
</g>
<!-- Node11 -->
<g id="node11" class="node">
<title>Node11</title>
<g id="a_node11"><a xlink:href="_game_logic_2_squad_2_action_8h.html" target="_top" xlink:title=" ">
<polygon fill="white" stroke="black" points="354,-402.5 354,-432.5 485,-432.5 485,-402.5 354,-402.5"/>
<text text-anchor="start" x="362" y="-420.5" font-family="Helvetica,sans-Serif" font-size="10.00">include/GameLogic/Squad</text>
<text text-anchor="middle" x="419.5" y="-409.5" font-family="Helvetica,sans-Serif" font-size="10.00">/Action.h</text>
</a>
</g>
</g>
<!-- Node5&#45;&gt;Node11 -->
<g id="edge11" class="edge">
<title>Node5&#45;&gt;Node11</title>
<path fill="none" stroke="midnightblue" d="M631.62,-467.23C589.3,-457.51 526.76,-443.14 480.54,-432.52"/>
<polygon fill="midnightblue" stroke="midnightblue" points="630.86,-470.65 641.39,-469.48 632.43,-463.82 630.86,-470.65"/>
</g>
<!-- Node12 -->
<g id="node12" class="node">
<title>Node12</title>
<g id="a_node12"><a xlink:href="_squad_8h.html" target="_top" xlink:title=" ">
<polygon fill="white" stroke="black" points="526,-335.5 526,-365.5 657,-365.5 657,-335.5 526,-335.5"/>
<text text-anchor="start" x="534" y="-353.5" font-family="Helvetica,sans-Serif" font-size="10.00">include/GameLogic/Squad</text>
<text text-anchor="middle" x="591.5" y="-342.5" font-family="Helvetica,sans-Serif" font-size="10.00">/Squad.h</text>
</a>
</g>
</g>
<!-- Node5&#45;&gt;Node12 -->
<g id="edge58" class="edge">
<title>Node5&#45;&gt;Node12</title>
<path fill="none" stroke="midnightblue" d="M692.02,-462.56C700.23,-454.83 709.68,-444.64 714.5,-433 719.77,-420.27 722.31,-413.35 714.5,-402 701.08,-382.49 679.02,-370.52 657.22,-363.17"/>
<polygon fill="midnightblue" stroke="midnightblue" points="689.5,-460.12 684.45,-469.44 694.21,-465.31 689.5,-460.12"/>
</g>
<!-- Node21 -->
<g id="node21" class="node">
<title>Node21</title>
<g id="a_node21"><a xlink:href="_factory_8h.html" target="_top" xlink:title=" ">
<polygon fill="white" stroke="black" points="1196,-201.5 1196,-231.5 1323,-231.5 1323,-201.5 1196,-201.5"/>
<text text-anchor="start" x="1204" y="-219.5" font-family="Helvetica,sans-Serif" font-size="10.00">include/GameLogic/Units</text>
<text text-anchor="middle" x="1259.5" y="-208.5" font-family="Helvetica,sans-Serif" font-size="10.00">/Factory.h</text>
</a>
</g>
</g>
<!-- Node5&#45;&gt;Node21 -->
<g id="edge59" class="edge">
<title>Node5&#45;&gt;Node21</title>
<path fill="none" stroke="midnightblue" d="M707.46,-465.45C728.13,-456.48 756.56,-444.07 781.5,-433 950.61,-357.94 1152.5,-266.23 1228.52,-231.62"/>
<polygon fill="midnightblue" stroke="midnightblue" points="706.06,-462.25 698.28,-469.44 708.84,-468.67 706.06,-462.25"/>
</g>
<!-- Node36 -->
<g id="node36" class="node">
<title>Node36</title>
<g id="a_node36"><a xlink:href="pathfinding_8h.html" target="_top" xlink:title=" ">
<polygon fill="white" stroke="black" points="265.5,-274 265.5,-293 385.5,-293 385.5,-274 265.5,-274"/>
<text text-anchor="middle" x="325.5" y="-281" font-family="Helvetica,sans-Serif" font-size="10.00">include/util/pathfinding.h</text>
</a>
</g>
</g>
<!-- Node5&#45;&gt;Node36 -->
<g id="edge60" class="edge">
<title>Node5&#45;&gt;Node36</title>
<path fill="none" stroke="midnightblue" d="M604.38,-478.08C517.46,-476.5 380.76,-468.27 345.5,-433 306.7,-394.18 318.27,-318.47 323.54,-293.05"/>
<polygon fill="midnightblue" stroke="midnightblue" points="604.4,-481.58 614.46,-478.24 604.51,-474.58 604.4,-481.58"/>
</g>
<!-- Node8&#45;&gt;Node5 -->
<g id="edge10" class="edge">
<title>Node8&#45;&gt;Node5</title>
<path fill="none" stroke="midnightblue" d="M808.87,-308.74C804.49,-340.25 788.26,-395.64 757.5,-433 744,-449.4 722.92,-461.8 705.72,-469.39"/>
<polygon fill="midnightblue" stroke="midnightblue" points="812.36,-308.97 809.93,-298.66 805.4,-308.24 812.36,-308.97"/>
</g>
<!-- Node9 -->
<g id="node9" class="node">
<title>Node9</title>
<g id="a_node9"><a xlink:href="engine_2_action_8cpp.html" target="_top" xlink:title=" ">
<polygon fill="white" stroke="black" points="1067.5,-207 1067.5,-226 1177.5,-226 1177.5,-207 1067.5,-207"/>
<text text-anchor="middle" x="1122.5" y="-214" font-family="Helvetica,sans-Serif" font-size="10.00">src/engine/Action.cpp</text>
</a>
</g>
</g>
<!-- Node8&#45;&gt;Node9 -->
<g id="edge8" class="edge">
<title>Node8&#45;&gt;Node9</title>
<path fill="none" stroke="midnightblue" d="M874.24,-269.53C924.87,-259.58 996.15,-245.33 1058.5,-232 1067.3,-230.12 1076.77,-228.02 1085.64,-226.01"/>
<polygon fill="midnightblue" stroke="midnightblue" points="873.54,-266.1 864.4,-271.46 874.89,-272.97 873.54,-266.1"/>
</g>
<!-- Node10 -->
<g id="node10" class="node">
<title>Node10</title>
<g id="a_node10"><a xlink:href="_set_squad_path_8cpp.html" target="_top" xlink:title=" ">
<polygon fill="white" stroke="black" points="948,-201.5 948,-231.5 1049,-231.5 1049,-201.5 948,-201.5"/>
<text text-anchor="start" x="956" y="-219.5" font-family="Helvetica,sans-Serif" font-size="10.00">src/engine/actions</text>
<text text-anchor="middle" x="998.5" y="-208.5" font-family="Helvetica,sans-Serif" font-size="10.00">/SetSquadPath.cpp</text>
</a>
</g>
</g>
<!-- Node8&#45;&gt;Node10 -->
<g id="edge9" class="edge">
<title>Node8&#45;&gt;Node10</title>
<path fill="none" stroke="midnightblue" d="M858.65,-265.09C889.49,-254.6 928.25,-241.41 957.14,-231.58"/>
<polygon fill="midnightblue" stroke="midnightblue" points="857.28,-261.86 848.94,-268.4 859.54,-268.49 857.28,-261.86"/>
</g>
<!-- Node11&#45;&gt;Node12 -->
<g id="edge12" class="edge">
<title>Node11&#45;&gt;Node12</title>
<path fill="none" stroke="midnightblue" d="M460.55,-398.68C487.14,-388.26 521.62,-375.28 548.58,-365.58"/>
<polygon fill="midnightblue" stroke="midnightblue" points="459.16,-395.47 451.14,-402.4 461.73,-401.98 459.16,-395.47"/>
</g>
<!-- Node12&#45;&gt;Node2 -->
<g id="edge13" class="edge">
<title>Node12&#45;&gt;Node2</title>
<path fill="none" stroke="midnightblue" d="M515.61,-339.53C447.55,-330.24 345.07,-315.39 256.5,-299 253.62,-298.47 250.67,-297.9 247.69,-297.31"/>
<polygon fill="midnightblue" stroke="midnightblue" points="515.43,-343.04 525.81,-340.92 516.37,-336.1 515.43,-343.04"/>
</g>
<!-- Node12&#45;&gt;Node5 -->
<g id="edge15" class="edge">
<title>Node12&#45;&gt;Node5</title>
<path fill="none" stroke="midnightblue" d="M667.25,-361.05C692.41,-368.14 717.7,-380.5 732.5,-402 740.31,-413.35 737.77,-420.27 732.5,-433 726.07,-448.52 711.41,-461.47 698.68,-469.44"/>
<polygon fill="midnightblue" stroke="midnightblue" points="667.82,-357.58 657.27,-358.5 666.09,-364.37 667.82,-357.58"/>
</g>
<!-- Node12&#45;&gt;Node8 -->
<g id="edge14" class="edge">
<title>Node12&#45;&gt;Node8</title>
<path fill="none" stroke="midnightblue" d="M647.73,-332.58C682.81,-322.02 727.44,-308.59 760.61,-298.61"/>
<polygon fill="midnightblue" stroke="midnightblue" points="646.67,-329.24 638.1,-335.48 648.69,-335.95 646.67,-329.24"/>
</g>
<!-- Node12&#45;&gt;Node11 -->
<g id="edge16" class="edge">
<title>Node12&#45;&gt;Node11</title>
<path fill="none" stroke="midnightblue" d="M550.52,-369.29C523.95,-379.71 489.47,-392.69 462.5,-402.4"/>
<polygon fill="midnightblue" stroke="midnightblue" points="551.91,-372.5 559.93,-365.58 549.34,-365.99 551.91,-372.5"/>
</g>
<!-- Node13 -->
<g id="node13" class="node">
<title>Node13</title>
<g id="a_node13"><a xlink:href="_unit_8h.html" target="_top" xlink:title=" ">
<polygon fill="white" stroke="black" points="528,-268.5 528,-298.5 655,-298.5 655,-268.5 528,-268.5"/>
<text text-anchor="start" x="536" y="-286.5" font-family="Helvetica,sans-Serif" font-size="10.00">include/GameLogic/Units</text>
<text text-anchor="middle" x="591.5" y="-275.5" font-family="Helvetica,sans-Serif" font-size="10.00">/Unit.h</text>
</a>
</g>
</g>
<!-- Node12&#45;&gt;Node13 -->
<g id="edge17" class="edge">
<title>Node12&#45;&gt;Node13</title>
<path fill="none" stroke="midnightblue" d="M584.95,-325.4C584.51,-316.37 584.8,-306.41 585.83,-298.58"/>
<polygon fill="midnightblue" stroke="midnightblue" points="581.47,-325.74 585.82,-335.4 588.44,-325.13 581.47,-325.74"/>
</g>
<!-- Node12&#45;&gt;Node36 -->
<g id="edge55" class="edge">
<title>Node12&#45;&gt;Node36</title>
<path fill="none" stroke="midnightblue" d="M524.26,-333.07C472.1,-320.32 401.9,-303.17 360.4,-293.03"/>
<polygon fill="midnightblue" stroke="midnightblue" points="523.56,-336.5 534.11,-335.48 525.23,-329.7 523.56,-336.5"/>
</g>
<!-- Node13&#45;&gt;Node12 -->
<g id="edge19" class="edge">
<title>Node13&#45;&gt;Node12</title>
<path fill="none" stroke="midnightblue" d="M598.04,-308.57C598.49,-317.6 598.21,-327.56 597.18,-335.4"/>
<polygon fill="midnightblue" stroke="midnightblue" points="601.53,-308.24 597.17,-298.58 594.55,-308.84 601.53,-308.24"/>
</g>
<!-- Node14 -->
<g id="node14" class="node">
<title>Node14</title>
<g id="a_node14"><a xlink:href="_unit_8cpp.html" target="_top" xlink:title=" ">
<polygon fill="white" stroke="black" points="415.5,-134.5 415.5,-164.5 525.5,-164.5 525.5,-134.5 415.5,-134.5"/>
<text text-anchor="start" x="423.5" y="-152.5" font-family="Helvetica,sans-Serif" font-size="10.00">src/GameLogic/Units</text>
<text text-anchor="middle" x="470.5" y="-141.5" font-family="Helvetica,sans-Serif" font-size="10.00">/Unit.cpp</text>
</a>
</g>
</g>
<!-- Node13&#45;&gt;Node14 -->
<g id="edge18" class="edge">
<title>Node13&#45;&gt;Node14</title>
<path fill="none" stroke="midnightblue" d="M591.19,-258.19C589.78,-240.62 585.35,-217.22 572.5,-201 559.06,-184.04 538.46,-172.35 519.28,-164.52"/>
<polygon fill="midnightblue" stroke="midnightblue" points="587.7,-258.46 591.72,-268.26 594.69,-258.09 587.7,-258.46"/>
</g>
<!-- Node15 -->
<g id="node15" class="node">
<title>Node15</title>
<g id="a_node15"><a xlink:href="_squad_order_8h.html" target="_top" xlink:title=" ">
<polygon fill="white" stroke="black" points="138,-134.5 138,-164.5 269,-164.5 269,-134.5 138,-134.5"/>
<text text-anchor="start" x="146" y="-152.5" font-family="Helvetica,sans-Serif" font-size="10.00">include/GameLogic/Squad</text>
<text text-anchor="middle" x="203.5" y="-141.5" font-family="Helvetica,sans-Serif" font-size="10.00">/SquadOrder.h</text>
</a>
</g>
</g>
<!-- Node13&#45;&gt;Node15 -->
<g id="edge20" class="edge">
<title>Node13&#45;&gt;Node15</title>
<path fill="none" stroke="midnightblue" d="M518.09,-266.18C488.92,-258.11 455.68,-246.85 427.5,-232 407.91,-221.67 408.25,-211.01 388.5,-201 366.97,-190.09 310.48,-175.34 265.54,-164.6"/>
<polygon fill="midnightblue" stroke="midnightblue" points="517.24,-269.58 527.81,-268.8 519.06,-262.82 517.24,-269.58"/>
</g>
<!-- Node17 -->
<g id="node17" class="node">
<title>Node17</title>
<g id="a_node17"><a xlink:href="_armored_unit_8h.html" target="_top" xlink:title=" ">
<polygon fill="white" stroke="black" points="544,-134.5 544,-164.5 671,-164.5 671,-134.5 544,-134.5"/>
<text text-anchor="start" x="552" y="-152.5" font-family="Helvetica,sans-Serif" font-size="10.00">include/GameLogic/Units</text>
<text text-anchor="middle" x="607.5" y="-141.5" font-family="Helvetica,sans-Serif" font-size="10.00">/ArmoredUnit.h</text>
</a>
</g>
</g>
<!-- Node13&#45;&gt;Node17 -->
<g id="edge22" class="edge">
<title>Node13&#45;&gt;Node17</title>
<path fill="none" stroke="midnightblue" d="M599.49,-258.37C601.88,-250.1 604.2,-240.73 605.5,-232 608.97,-208.62 608.77,-181.06 608.2,-164.72"/>
<polygon fill="midnightblue" stroke="midnightblue" points="596.09,-257.53 596.51,-268.12 602.78,-259.58 596.09,-257.53"/>
</g>
<!-- Node13&#45;&gt;Node21 -->
<g id="edge27" class="edge">
<title>Node13&#45;&gt;Node21</title>
<path fill="none" stroke="midnightblue" d="M665.03,-275.22C689.65,-272.84 717.25,-270.24 742.5,-268 939.71,-250.54 990.41,-259.33 1186.5,-232 1189.57,-231.57 1192.71,-231.1 1195.87,-230.59"/>
<polygon fill="midnightblue" stroke="midnightblue" points="664.65,-271.74 655.03,-276.19 665.32,-278.71 664.65,-271.74"/>
</g>
<!-- Node30 -->
<g id="node30" class="node">
<title>Node30</title>
<g id="a_node30"><a xlink:href="_land_unit_8h.html" target="_top" xlink:title=" ">
<polygon fill="white" stroke="black" points="803,-201.5 803,-231.5 930,-231.5 930,-201.5 803,-201.5"/>
<text text-anchor="start" x="811" y="-219.5" font-family="Helvetica,sans-Serif" font-size="10.00">include/GameLogic/Units</text>
<text text-anchor="middle" x="866.5" y="-208.5" font-family="Helvetica,sans-Serif" font-size="10.00">/LandUnit.h</text>
</a>
</g>
</g>
<!-- Node13&#45;&gt;Node30 -->
<g id="edge43" class="edge">
<title>Node13&#45;&gt;Node30</title>
<path fill="none" stroke="midnightblue" d="M660.81,-266.12C705.8,-255.48 763.85,-241.76 806.8,-231.61"/>
<polygon fill="midnightblue" stroke="midnightblue" points="659.76,-262.77 650.83,-268.48 661.37,-269.58 659.76,-262.77"/>
</g>
<!-- Node32 -->
<g id="node32" class="node">
<title>Node32</title>
<g id="a_node32"><a xlink:href="_transport_unit_8h.html" target="_top" xlink:title=" ">
<polygon fill="white" stroke="black" points="658,-201.5 658,-231.5 785,-231.5 785,-201.5 658,-201.5"/>
<text text-anchor="start" x="666" y="-219.5" font-family="Helvetica,sans-Serif" font-size="10.00">include/GameLogic/Units</text>
<text text-anchor="middle" x="721.5" y="-208.5" font-family="Helvetica,sans-Serif" font-size="10.00">/TransportUnit.h</text>
</a>
</g>
</g>
<!-- Node13&#45;&gt;Node32 -->
<g id="edge46" class="edge">
<title>Node13&#45;&gt;Node32</title>
<path fill="none" stroke="midnightblue" d="M628.79,-263.85C649.35,-253.58 674.45,-241.03 693.35,-231.58"/>
<polygon fill="midnightblue" stroke="midnightblue" points="627.09,-260.79 619.71,-268.4 630.22,-267.05 627.09,-260.79"/>
</g>
<!-- Node34 -->
<g id="node34" class="node">
<title>Node34</title>
<g id="a_node34"><a xlink:href="_unit_order_8h.html" target="_top" xlink:title=" ">
<polygon fill="white" stroke="black" points="436,-201.5 436,-231.5 563,-231.5 563,-201.5 436,-201.5"/>
<text text-anchor="start" x="444" y="-219.5" font-family="Helvetica,sans-Serif" font-size="10.00">include/GameLogic/Units</text>
<text text-anchor="middle" x="499.5" y="-208.5" font-family="Helvetica,sans-Serif" font-size="10.00">/UnitOrder.h</text>
</a>
</g>
</g>
<!-- Node13&#45;&gt;Node34 -->
<g id="edge50" class="edge">
<title>Node13&#45;&gt;Node34</title>
<path fill="none" stroke="midnightblue" d="M557.26,-262.73C542.22,-252.68 525.44,-240.68 513.75,-231.58"/>
<polygon fill="midnightblue" stroke="midnightblue" points="555.58,-265.82 565.86,-268.4 559.43,-259.97 555.58,-265.82"/>
</g>
<!-- Node16 -->
<g id="node16" class="node">
<title>Node16</title>
<g id="a_node16"><a xlink:href="_squad_order_8cpp.html" target="_top" xlink:title=" ">
<polygon fill="white" stroke="black" points="149.5,-67.5 149.5,-97.5 263.5,-97.5 263.5,-67.5 149.5,-67.5"/>
<text text-anchor="start" x="157.5" y="-85.5" font-family="Helvetica,sans-Serif" font-size="10.00">src/GameLogic/Squad</text>
<text text-anchor="middle" x="206.5" y="-74.5" font-family="Helvetica,sans-Serif" font-size="10.00">/SquadOrder.cpp</text>
</a>
</g>
</g>
<!-- Node15&#45;&gt;Node16 -->
<g id="edge21" class="edge">
<title>Node15&#45;&gt;Node16</title>
<path fill="none" stroke="midnightblue" d="M204.61,-124.4C205.03,-115.37 205.49,-105.41 205.85,-97.58"/>
<polygon fill="midnightblue" stroke="midnightblue" points="201.12,-124.25 204.15,-134.4 208.11,-124.57 201.12,-124.25"/>
</g>
<!-- Node18 -->
<g id="node18" class="node">
<title>Node18</title>
<g id="a_node18"><a xlink:href="_armored_unit_8cpp.html" target="_top" xlink:title=" ">
<polygon fill="white" stroke="black" points="552.5,-67.5 552.5,-97.5 662.5,-97.5 662.5,-67.5 552.5,-67.5"/>
<text text-anchor="start" x="560.5" y="-85.5" font-family="Helvetica,sans-Serif" font-size="10.00">src/GameLogic/Units</text>
<text text-anchor="middle" x="607.5" y="-74.5" font-family="Helvetica,sans-Serif" font-size="10.00">/ArmoredUnit.cpp</text>
</a>
</g>
</g>
<!-- Node17&#45;&gt;Node18 -->
<g id="edge23" class="edge">
<title>Node17&#45;&gt;Node18</title>
<path fill="none" stroke="midnightblue" d="M607.5,-124.11C607.5,-115.15 607.5,-105.32 607.5,-97.58"/>
<polygon fill="midnightblue" stroke="midnightblue" points="604,-124.4 607.5,-134.4 611,-124.4 604,-124.4"/>
</g>
<!-- Node19 -->
<g id="node19" class="node">
<title>Node19</title>
<g id="a_node19"><a xlink:href="_armored_unit_factory_8h.html" target="_top" xlink:title=" ">
<polygon fill="white" stroke="black" points="1226,-67.5 1226,-97.5 1353,-97.5 1353,-67.5 1226,-67.5"/>
<text text-anchor="start" x="1234" y="-85.5" font-family="Helvetica,sans-Serif" font-size="10.00">include/GameLogic/Units</text>
<text text-anchor="middle" x="1289.5" y="-74.5" font-family="Helvetica,sans-Serif" font-size="10.00">/ArmoredUnitFactory.h</text>
</a>
</g>
</g>
<!-- Node17&#45;&gt;Node19 -->
<g id="edge24" class="edge">
<title>Node17&#45;&gt;Node19</title>
<path fill="none" stroke="midnightblue" d="M681.11,-134.05C918.94,-103.39 983.04,-128.89 1216.5,-98 1219.57,-97.59 1222.71,-97.14 1225.88,-96.64"/>
<polygon fill="midnightblue" stroke="midnightblue" points="680.58,-130.59 671.12,-135.36 681.49,-137.53 680.58,-130.59"/>
</g>
<!-- Node19&#45;&gt;Node4 -->
<g id="edge25" class="edge">
<title>Node19&#45;&gt;Node4</title>
<path fill="none" stroke="midnightblue" d="M1317.88,-61.45C1332.03,-51.45 1348.81,-39.6 1361.58,-30.58"/>
<polygon fill="midnightblue" stroke="midnightblue" points="1315.61,-58.77 1309.46,-67.4 1319.65,-64.48 1315.61,-58.77"/>
</g>
<!-- Node20 -->
<g id="node20" class="node">
<title>Node20</title>
<g id="a_node20"><a xlink:href="_armored_unit_factory_8cpp.html" target="_top" xlink:title=" ">
<polygon fill="white" stroke="black" points="1183,-0.5 1183,-30.5 1308,-30.5 1308,-0.5 1183,-0.5"/>
<text text-anchor="start" x="1191" y="-18.5" font-family="Helvetica,sans-Serif" font-size="10.00">src/GameLogic/Units</text>
<text text-anchor="middle" x="1245.5" y="-7.5" font-family="Helvetica,sans-Serif" font-size="10.00">/ArmoredUnitFactory.cpp</text>
</a>
</g>
</g>
<!-- Node19&#45;&gt;Node20 -->
<g id="edge26" class="edge">
<title>Node19&#45;&gt;Node20</title>
<path fill="none" stroke="midnightblue" d="M1274.18,-58.87C1267.81,-49.46 1260.62,-38.83 1255.03,-30.58"/>
<polygon fill="midnightblue" stroke="midnightblue" points="1271.45,-61.08 1279.95,-67.4 1277.25,-57.15 1271.45,-61.08"/>
</g>
<!-- Node21&#45;&gt;Node1 -->
<g id="edge34" class="edge">
<title>Node21&#45;&gt;Node1</title>
<path fill="none" stroke="midnightblue" d="M1235.47,-238.78C1210.95,-262.94 1176.5,-304.85 1176.5,-349.5 1176.5,-418.5 1176.5,-418.5 1176.5,-418.5 1176.5,-489.39 657.98,-525.54 474.16,-536.13"/>
<polygon fill="midnightblue" stroke="midnightblue" points="1237.89,-241.3 1242.7,-231.86 1233.05,-236.24 1237.89,-241.3"/>
</g>
<!-- Node21&#45;&gt;Node19 -->
<g id="edge35" class="edge">
<title>Node21&#45;&gt;Node19</title>
<path fill="none" stroke="midnightblue" d="M1333.35,-210.36C1397.43,-204.17 1483.18,-191.16 1504.5,-165 1513.2,-154.32 1513.06,-144.8 1504.5,-134 1494.96,-121.96 1413.12,-105.21 1353.23,-94.36"/>
<polygon fill="midnightblue" stroke="midnightblue" points="1332.9,-206.88 1323.26,-211.29 1333.54,-213.85 1332.9,-206.88"/>
</g>
<!-- Node22 -->
<g id="node22" class="node">
<title>Node22</title>
<g id="a_node22"><a xlink:href="_factory_8cpp.html" target="_top" xlink:title=" ">
<polygon fill="white" stroke="black" points="1385.5,-134.5 1385.5,-164.5 1495.5,-164.5 1495.5,-134.5 1385.5,-134.5"/>
<text text-anchor="start" x="1393.5" y="-152.5" font-family="Helvetica,sans-Serif" font-size="10.00">src/GameLogic/Units</text>
<text text-anchor="middle" x="1440.5" y="-141.5" font-family="Helvetica,sans-Serif" font-size="10.00">/Factory.cpp</text>
</a>
</g>
</g>
<!-- Node21&#45;&gt;Node22 -->
<g id="edge28" class="edge">
<title>Node21&#45;&gt;Node22</title>
<path fill="none" stroke="midnightblue" d="M1308.36,-197.96C1337.51,-187.48 1374.04,-174.37 1401.3,-164.58"/>
<polygon fill="midnightblue" stroke="midnightblue" points="1307,-194.72 1298.77,-201.4 1309.37,-201.31 1307,-194.72"/>
</g>
<!-- Node23 -->
<g id="node23" class="node">
<title>Node23</title>
<g id="a_node23"><a xlink:href="_squad_template_8h.html" target="_top" xlink:title=" ">
<polygon fill="white" stroke="black" points="946,-134.5 946,-164.5 1077,-164.5 1077,-134.5 946,-134.5"/>
<text text-anchor="start" x="954" y="-152.5" font-family="Helvetica,sans-Serif" font-size="10.00">include/GameLogic/Squad</text>
<text text-anchor="middle" x="1011.5" y="-141.5" font-family="Helvetica,sans-Serif" font-size="10.00">/SquadTemplate.h</text>
</a>
</g>
</g>
<!-- Node21&#45;&gt;Node23 -->
<g id="edge29" class="edge">
<title>Node21&#45;&gt;Node23</title>
<path fill="none" stroke="midnightblue" d="M1196.23,-198.92C1155.76,-188.31 1103.83,-174.7 1065.34,-164.61"/>
<polygon fill="midnightblue" stroke="midnightblue" points="1195.43,-202.33 1205.99,-201.48 1197.21,-195.55 1195.43,-202.33"/>
</g>
<!-- Node26 -->
<g id="node26" class="node">
<title>Node26</title>
<g id="a_node26"><a xlink:href="_land_unit_factory_8h.html" target="_top" xlink:title=" ">
<polygon fill="white" stroke="black" points="1095,-134.5 1095,-164.5 1222,-164.5 1222,-134.5 1095,-134.5"/>
<text text-anchor="start" x="1103" y="-152.5" font-family="Helvetica,sans-Serif" font-size="10.00">include/GameLogic/Units</text>
<text text-anchor="middle" x="1158.5" y="-141.5" font-family="Helvetica,sans-Serif" font-size="10.00">/LandUnitFactory.h</text>
</a>
</g>
</g>
<!-- Node21&#45;&gt;Node26 -->
<g id="edge36" class="edge">
<title>Node21&#45;&gt;Node26</title>
<path fill="none" stroke="midnightblue" d="M1228.79,-195.73C1213.16,-185.68 1194.53,-173.68 1180.37,-164.58"/>
<polygon fill="midnightblue" stroke="midnightblue" points="1227.28,-198.93 1237.58,-201.4 1231.07,-193.04 1227.28,-198.93"/>
</g>
<!-- Node28 -->
<g id="node28" class="node">
<title>Node28</title>
<g id="a_node28"><a xlink:href="_transport_unit_factory_8h.html" target="_top" xlink:title=" ">
<polygon fill="white" stroke="black" points="1240,-134.5 1240,-164.5 1367,-164.5 1367,-134.5 1240,-134.5"/>
<text text-anchor="start" x="1248" y="-152.5" font-family="Helvetica,sans-Serif" font-size="10.00">include/GameLogic/Units</text>
<text text-anchor="middle" x="1303.5" y="-141.5" font-family="Helvetica,sans-Serif" font-size="10.00">/TransportUnitFactory.h</text>
</a>
</g>
</g>
<!-- Node21&#45;&gt;Node28 -->
<g id="edge39" class="edge">
<title>Node21&#45;&gt;Node28</title>
<path fill="none" stroke="midnightblue" d="M1274.82,-192.87C1281.19,-183.46 1288.38,-172.83 1293.97,-164.58"/>
<polygon fill="midnightblue" stroke="midnightblue" points="1271.75,-191.15 1269.05,-201.4 1277.55,-195.08 1271.75,-191.15"/>
</g>
<!-- Node23&#45;&gt;Node3 -->
<g id="edge30" class="edge">
<title>Node23&#45;&gt;Node3</title>
<path fill="none" stroke="midnightblue" d="M935.67,-133.98C761.14,-109.54 714.79,-115.11 543.5,-98 518.24,-95.48 490.32,-92.49 466.53,-89.88"/>
<polygon fill="midnightblue" stroke="midnightblue" points="935.32,-137.46 945.71,-135.4 936.3,-130.53 935.32,-137.46"/>
</g>
<!-- Node23&#45;&gt;Node24 -->
<g id="edge31" class="edge">
<title>Node23&#45;&gt;Node24</title>
<path fill="none" stroke="midnightblue" d="M935.76,-134.05C583.09,-93.15 488.91,-139.33 140.5,-98 137.47,-97.64 134.38,-97.23 131.27,-96.78"/>
<polygon fill="midnightblue" stroke="midnightblue" points="935.39,-137.53 945.73,-135.22 936.21,-130.58 935.39,-137.53"/>
</g>
<!-- Node24&#45;&gt;Node5 -->
<g id="edge33" class="edge">
<title>Node24&#45;&gt;Node5</title>
<path fill="none" stroke="midnightblue" d="M66.75,-107.73C70.02,-150.22 81.86,-239.32 124.5,-299 186.06,-385.16 222.45,-395.56 321.5,-433 419.09,-469.88 541.28,-477.79 614.44,-478.84"/>
<polygon fill="midnightblue" stroke="midnightblue" points="70.22,-107.25 66.06,-97.51 63.24,-107.72 70.22,-107.25"/>
</g>
<!-- Node25 -->
<g id="node25" class="node">
<title>Node25</title>
<g id="a_node25"><a xlink:href="_all_squad_templates_8cpp.html" target="_top" xlink:title=" ">
<polygon fill="white" stroke="black" points="4.5,-0.5 4.5,-30.5 126.5,-30.5 126.5,-0.5 4.5,-0.5"/>
<text text-anchor="start" x="12.5" y="-18.5" font-family="Helvetica,sans-Serif" font-size="10.00">src/GameLogic/Squad</text>
<text text-anchor="middle" x="65.5" y="-7.5" font-family="Helvetica,sans-Serif" font-size="10.00">/AllSquadTemplates.cpp</text>
</a>
</g>
</g>
<!-- Node24&#45;&gt;Node25 -->
<g id="edge32" class="edge">
<title>Node24&#45;&gt;Node25</title>
<path fill="none" stroke="midnightblue" d="M65.5,-57.11C65.5,-48.15 65.5,-38.32 65.5,-30.58"/>
<polygon fill="midnightblue" stroke="midnightblue" points="62,-57.4 65.5,-67.4 69,-57.4 62,-57.4"/>
</g>
<!-- Node26&#45;&gt;Node4 -->
<g id="edge37" class="edge">
<title>Node26&#45;&gt;Node4</title>
<path fill="none" stroke="midnightblue" d="M1123.1,-129.1C1097.49,-112.6 1070.31,-88.27 1088.5,-67 1121.98,-27.85 1266.91,-40.7 1317.5,-31 1320.41,-30.44 1323.39,-29.85 1326.39,-29.23"/>
<polygon fill="midnightblue" stroke="midnightblue" points="1121.31,-132.11 1131.66,-134.38 1124.99,-126.15 1121.31,-132.11"/>
</g>
<!-- Node27 -->
<g id="node27" class="node">
<title>Node27</title>
<g id="a_node27"><a xlink:href="_land_unit_factory_8cpp.html" target="_top" xlink:title=" ">
<polygon fill="white" stroke="black" points="1097.5,-67.5 1097.5,-97.5 1207.5,-97.5 1207.5,-67.5 1097.5,-67.5"/>
<text text-anchor="start" x="1105.5" y="-85.5" font-family="Helvetica,sans-Serif" font-size="10.00">src/GameLogic/Units</text>
<text text-anchor="middle" x="1152.5" y="-74.5" font-family="Helvetica,sans-Serif" font-size="10.00">/LandUnitFactory.cpp</text>
</a>
</g>
</g>
<!-- Node26&#45;&gt;Node27 -->
<g id="edge38" class="edge">
<title>Node26&#45;&gt;Node27</title>
<path fill="none" stroke="midnightblue" d="M1156.28,-124.4C1155.44,-115.37 1154.52,-105.41 1153.8,-97.58"/>
<polygon fill="midnightblue" stroke="midnightblue" points="1152.79,-124.76 1157.2,-134.4 1159.76,-124.12 1152.79,-124.76"/>
</g>
<!-- Node28&#45;&gt;Node4 -->
<g id="edge40" class="edge">
<title>Node28&#45;&gt;Node4</title>
<path fill="none" stroke="midnightblue" d="M1334.42,-128.18C1344.75,-119.95 1355.43,-109.64 1362.5,-98 1375.32,-76.89 1379.5,-47.88 1380.85,-30.77"/>
<polygon fill="midnightblue" stroke="midnightblue" points="1332.16,-125.5 1326.28,-134.31 1336.37,-131.09 1332.16,-125.5"/>
</g>
<!-- Node28&#45;&gt;Node19 -->
<g id="edge42" class="edge">
<title>Node28&#45;&gt;Node19</title>
<path fill="none" stroke="midnightblue" d="M1298.31,-124.4C1296.36,-115.37 1294.22,-105.41 1292.53,-97.58"/>
<polygon fill="midnightblue" stroke="midnightblue" points="1294.94,-125.36 1300.46,-134.4 1301.78,-123.88 1294.94,-125.36"/>
</g>
<!-- Node29 -->
<g id="node29" class="node">
<title>Node29</title>
<g id="a_node29"><a xlink:href="_transport_unit_factory_8cpp.html" target="_top" xlink:title=" ">
<polygon fill="white" stroke="black" points="1410,-67.5 1410,-97.5 1539,-97.5 1539,-67.5 1410,-67.5"/>
<text text-anchor="start" x="1418" y="-85.5" font-family="Helvetica,sans-Serif" font-size="10.00">src/GameLogic/Units</text>
<text text-anchor="middle" x="1474.5" y="-74.5" font-family="Helvetica,sans-Serif" font-size="10.00">/TransportUnitFactory.cpp</text>
</a>
</g>
</g>
<!-- Node28&#45;&gt;Node29 -->
<g id="edge41" class="edge">
<title>Node28&#45;&gt;Node29</title>
<path fill="none" stroke="midnightblue" d="M1350.02,-130.82C1377.5,-120.37 1411.83,-107.32 1437.47,-97.58"/>
<polygon fill="midnightblue" stroke="midnightblue" points="1348.71,-127.57 1340.6,-134.4 1351.2,-134.11 1348.71,-127.57"/>
</g>
<!-- Node30&#45;&gt;Node26 -->
<g id="edge45" class="edge">
<title>Node30&#45;&gt;Node26</title>
<path fill="none" stroke="midnightblue" d="M939.51,-199.25C987.45,-188.58 1049.55,-174.75 1095.36,-164.55"/>
<polygon fill="midnightblue" stroke="midnightblue" points="938.5,-195.89 929.5,-201.48 940.02,-202.72 938.5,-195.89"/>
</g>
<!-- Node31 -->
<g id="node31" class="node">
<title>Node31</title>
<g id="a_node31"><a xlink:href="_land_unit_8cpp.html" target="_top" xlink:title=" ">
<polygon fill="white" stroke="black" points="817.5,-134.5 817.5,-164.5 927.5,-164.5 927.5,-134.5 817.5,-134.5"/>
<text text-anchor="start" x="825.5" y="-152.5" font-family="Helvetica,sans-Serif" font-size="10.00">src/GameLogic/Units</text>
<text text-anchor="middle" x="872.5" y="-141.5" font-family="Helvetica,sans-Serif" font-size="10.00">/LandUnit.cpp</text>
</a>
</g>
</g>
<!-- Node30&#45;&gt;Node31 -->
<g id="edge44" class="edge">
<title>Node30&#45;&gt;Node31</title>
<path fill="none" stroke="midnightblue" d="M868.72,-191.4C869.56,-182.37 870.48,-172.41 871.2,-164.58"/>
<polygon fill="midnightblue" stroke="midnightblue" points="865.24,-191.12 867.8,-201.4 872.21,-191.76 865.24,-191.12"/>
</g>
<!-- Node32&#45;&gt;Node17 -->
<g id="edge48" class="edge">
<title>Node32&#45;&gt;Node17</title>
<path fill="none" stroke="midnightblue" d="M687.82,-196.3C669.98,-186.12 648.46,-173.85 632.19,-164.58"/>
<polygon fill="midnightblue" stroke="midnightblue" points="686.34,-199.48 696.76,-201.4 689.81,-193.4 686.34,-199.48"/>
</g>
<!-- Node32&#45;&gt;Node28 -->
<g id="edge49" class="edge">
<title>Node32&#45;&gt;Node28</title>
<path fill="none" stroke="midnightblue" d="M795.08,-201.04C989.23,-174.57 1041.74,-191.83 1231.5,-165 1234.28,-164.61 1237.11,-164.17 1239.97,-163.71"/>
<polygon fill="midnightblue" stroke="midnightblue" points="794.55,-197.58 785.13,-202.42 795.51,-204.51 794.55,-197.58"/>
</g>
<!-- Node33 -->
<g id="node33" class="node">
<title>Node33</title>
<g id="a_node33"><a xlink:href="_transport_unit_8cpp.html" target="_top" xlink:title=" ">
<polygon fill="white" stroke="black" points="689.5,-134.5 689.5,-164.5 799.5,-164.5 799.5,-134.5 689.5,-134.5"/>
<text text-anchor="start" x="697.5" y="-152.5" font-family="Helvetica,sans-Serif" font-size="10.00">src/GameLogic/Units</text>
<text text-anchor="middle" x="744.5" y="-141.5" font-family="Helvetica,sans-Serif" font-size="10.00">/TransportUnit.cpp</text>
</a>
</g>
</g>
<!-- Node32&#45;&gt;Node33 -->
<g id="edge47" class="edge">
<title>Node32&#45;&gt;Node33</title>
<path fill="none" stroke="midnightblue" d="M729.92,-191.7C733.15,-182.59 736.72,-172.49 739.52,-164.58"/>
<polygon fill="midnightblue" stroke="midnightblue" points="726.53,-190.8 726.49,-201.4 733.13,-193.14 726.53,-190.8"/>
</g>
<!-- Node34&#45;&gt;Node13 -->
<g id="edge54" class="edge">
<title>Node34&#45;&gt;Node13</title>
<path fill="none" stroke="midnightblue" d="M533.7,-237.24C548.73,-247.29 565.51,-259.28 577.22,-268.4"/>
<polygon fill="midnightblue" stroke="midnightblue" points="535.38,-234.15 525.1,-231.58 531.53,-240 535.38,-234.15"/>
</g>
<!-- Node34&#45;&gt;Node14 -->
<g id="edge51" class="edge">
<title>Node34&#45;&gt;Node14</title>
<path fill="none" stroke="midnightblue" d="M489.01,-191.99C484.91,-182.8 480.35,-172.58 476.78,-164.58"/>
<polygon fill="midnightblue" stroke="midnightblue" points="485.94,-193.69 493.21,-201.4 492.33,-190.84 485.94,-193.69"/>
</g>
<!-- Node34&#45;&gt;Node15 -->
<g id="edge53" class="edge">
<title>Node34&#45;&gt;Node15</title>
<path fill="none" stroke="midnightblue" d="M425.8,-199.32C377.15,-188.63 314.04,-174.77 267.5,-164.55"/>
<polygon fill="midnightblue" stroke="midnightblue" points="425.12,-202.75 435.64,-201.48 426.62,-195.91 425.12,-202.75"/>
</g>
<!-- Node35 -->
<g id="node35" class="node">
<title>Node35</title>
<g id="a_node35"><a xlink:href="_unit_order_8cpp.html" target="_top" xlink:title=" ">
<polygon fill="white" stroke="black" points="287.5,-134.5 287.5,-164.5 397.5,-164.5 397.5,-134.5 287.5,-134.5"/>
<text text-anchor="start" x="295.5" y="-152.5" font-family="Helvetica,sans-Serif" font-size="10.00">src/GameLogic/Units</text>
<text text-anchor="middle" x="342.5" y="-141.5" font-family="Helvetica,sans-Serif" font-size="10.00">/UnitOrder.cpp</text>
</a>
</g>
</g>
<!-- Node34&#45;&gt;Node35 -->
<g id="edge52" class="edge">
<title>Node34&#45;&gt;Node35</title>
<path fill="none" stroke="midnightblue" d="M456.13,-197.54C431.01,-187.14 399.84,-174.24 376.5,-164.58"/>
<polygon fill="midnightblue" stroke="midnightblue" points="454.86,-200.8 465.43,-201.4 457.53,-194.34 454.86,-200.8"/>
</g>
<!-- Node37 -->
<g id="node37" class="node">
<title>Node37</title>
<g id="a_node37"><a xlink:href="_game_logic_2_squad_2_action_8cpp.html" target="_top" xlink:title=" ">
<polygon fill="white" stroke="black" points="133.5,-201.5 133.5,-231.5 247.5,-231.5 247.5,-201.5 133.5,-201.5"/>
<text text-anchor="start" x="141.5" y="-219.5" font-family="Helvetica,sans-Serif" font-size="10.00">src/GameLogic/Squad</text>
<text text-anchor="middle" x="190.5" y="-208.5" font-family="Helvetica,sans-Serif" font-size="10.00">/Action.cpp</text>
</a>
</g>
</g>
<!-- Node36&#45;&gt;Node37 -->
<g id="edge56" class="edge">
<title>Node36&#45;&gt;Node37</title>
<path fill="none" stroke="midnightblue" d="M298.45,-269.47C275.62,-258.49 243.03,-242.79 219.64,-231.53"/>
<polygon fill="midnightblue" stroke="midnightblue" points="297.04,-272.68 307.57,-273.87 300.08,-266.38 297.04,-272.68"/>
</g>
<!-- Node38 -->
<g id="node38" class="node">
<title>Node38</title>
<g id="a_node38"><a xlink:href="pathfinding_8cpp.html" target="_top" xlink:title=" ">
<polygon fill="white" stroke="black" points="266,-207 266,-226 379,-226 379,-207 266,-207"/>
<text text-anchor="middle" x="322.5" y="-214" font-family="Helvetica,sans-Serif" font-size="10.00">src/util/pathfinding.cpp</text>
</a>
</g>
</g>
<!-- Node36&#45;&gt;Node38 -->
<g id="edge57" class="edge">
<title>Node36&#45;&gt;Node38</title>
<path fill="none" stroke="midnightblue" d="M324.62,-263.54C324.05,-251.17 323.34,-235.62 322.9,-226.13"/>
<polygon fill="midnightblue" stroke="midnightblue" points="321.14,-263.91 325.1,-273.73 328.13,-263.58 321.14,-263.91"/>
</g>
</g>
</svg>
