<?xml version="1.0" encoding="UTF-8" standalone="no"?>
<!DOCTYPE svg PUBLIC "-//W3C//DTD SVG 1.1//EN"
 "http://www.w3.org/Graphics/SVG/1.1/DTD/svg11.dtd">
<!-- Generated by graphviz version 2.47.0 (20210407.0042)
 -->
<!-- Title: include/GameLogic/Units/AllUnits.h Pages: 1 -->
<svg width="1180pt" height="564pt"
 viewBox="0.00 0.00 1179.50 564.00" xmlns="http://www.w3.org/2000/svg" xmlns:xlink="http://www.w3.org/1999/xlink">
<g id="graph0" class="graph" transform="scale(1 1) rotate(0) translate(4 560)">
<title>include/GameLogic/Units/AllUnits.h</title>
<polygon fill="white" stroke="transparent" points="-4,4 -4,-560 1175.5,-560 1175.5,4 -4,4"/>
<!-- Node1 -->
<g id="node1" class="node">
<title>Node1</title>
<g id="a_node1"><a xlink:title=" ">
<polygon fill="#bfbfbf" stroke="black" points="70.5,-525.5 70.5,-555.5 197.5,-555.5 197.5,-525.5 70.5,-525.5"/>
<text text-anchor="start" x="78.5" y="-543.5" font-family="Helvetica,sans-Serif" font-size="10.00">include/GameLogic/Units</text>
<text text-anchor="middle" x="134" y="-532.5" font-family="Helvetica,sans-Serif" font-size="10.00">/AllUnits.h</text>
</a>
</g>
</g>
<!-- Node2 -->
<g id="node2" class="node">
<title>Node2</title>
<g id="a_node2"><a xlink:href="_squad_8cpp.html" target="_top" xlink:title=" ">
<polygon fill="white" stroke="black" points="219,-268.5 219,-298.5 333,-298.5 333,-268.5 219,-268.5"/>
<text text-anchor="start" x="227" y="-286.5" font-family="Helvetica,sans-Serif" font-size="10.00">src/GameLogic/Squad</text>
<text text-anchor="middle" x="276" y="-275.5" font-family="Helvetica,sans-Serif" font-size="10.00">/Squad.cpp</text>
</a>
</g>
</g>
<!-- Node1&#45;&gt;Node2 -->
<g id="edge1" class="edge">
<title>Node1&#45;&gt;Node2</title>
<path fill="none" stroke="midnightblue" d="M146.71,-516.67C175.48,-465.02 244.85,-340.44 268.19,-298.53"/>
<polygon fill="midnightblue" stroke="midnightblue" points="143.64,-514.99 141.84,-525.43 149.76,-518.39 143.64,-514.99"/>
</g>
<!-- Node3 -->
<g id="node3" class="node">
<title>Node3</title>
<g id="a_node3"><a xlink:href="_squad_template_8cpp.html" target="_top" xlink:title=" ">
<polygon fill="white" stroke="black" points="17,-67.5 17,-97.5 131,-97.5 131,-67.5 17,-67.5"/>
<text text-anchor="start" x="25" y="-85.5" font-family="Helvetica,sans-Serif" font-size="10.00">src/GameLogic/Squad</text>
<text text-anchor="middle" x="74" y="-74.5" font-family="Helvetica,sans-Serif" font-size="10.00">/SquadTemplate.cpp</text>
</a>
</g>
</g>
<!-- Node1&#45;&gt;Node3 -->
<g id="edge2" class="edge">
<title>Node1&#45;&gt;Node3</title>
<path fill="none" stroke="midnightblue" d="M72.34,-521.54C54.79,-513.9 36.95,-503.35 24,-489 1.82,-464.43 0,-451.6 0,-418.5 0,-418.5 0,-418.5 0,-215.5 0,-177.74 4.8,-166.51 24,-134 32.28,-119.98 45.32,-106.99 56,-97.7"/>
<polygon fill="midnightblue" stroke="midnightblue" points="71.44,-524.95 82.02,-525.49 74.09,-518.47 71.44,-524.95"/>
</g>
<!-- Node4 -->
<g id="node4" class="node">
<title>Node4</title>
<g id="a_node4"><a xlink:href="_all_units_8cpp.html" target="_top" xlink:title=" ">
<polygon fill="white" stroke="black" points="186,-67.5 186,-97.5 296,-97.5 296,-67.5 186,-67.5"/>
<text text-anchor="start" x="194" y="-85.5" font-family="Helvetica,sans-Serif" font-size="10.00">src/GameLogic/Units</text>
<text text-anchor="middle" x="241" y="-74.5" font-family="Helvetica,sans-Serif" font-size="10.00">/AllUnits.cpp</text>
</a>
</g>
</g>
<!-- Node1&#45;&gt;Node4 -->
<g id="edge3" class="edge">
<title>Node1&#45;&gt;Node4</title>
<path fill="none" stroke="midnightblue" d="M103.36,-519.11C75.27,-497.72 38,-461.27 38,-418.5 38,-418.5 38,-418.5 38,-215.5 38,-178.31 31.22,-160.81 57,-134 74.8,-115.5 138.5,-100.89 185.99,-92.24"/>
<polygon fill="midnightblue" stroke="midnightblue" points="101.6,-522.17 111.73,-525.26 105.75,-516.52 101.6,-522.17"/>
</g>
<!-- Node5 -->
<g id="node5" class="node">
<title>Node5</title>
<g id="a_node5"><a xlink:href="_cell_8h.html" target="_top" xlink:title=" ">
<polygon fill="white" stroke="black" points="598,-469.5 598,-488.5 726,-488.5 726,-469.5 598,-469.5"/>
<text text-anchor="middle" x="662" y="-476.5" font-family="Helvetica,sans-Serif" font-size="10.00">include/GameLogic/Cell.h</text>
</a>
</g>
</g>
<!-- Node1&#45;&gt;Node5 -->
<g id="edge4" class="edge">
<title>Node1&#45;&gt;Node5</title>
<path fill="none" stroke="midnightblue" d="M207.78,-531.19C311.63,-519.48 499.2,-498.35 597.67,-487.25"/>
<polygon fill="midnightblue" stroke="midnightblue" points="207.23,-527.73 197.69,-532.32 208.02,-534.68 207.23,-527.73"/>
</g>
<!-- Node20 -->
<g id="node20" class="node">
<title>Node20</title>
<g id="a_node20"><a xlink:href="_all_squad_templates_8h.html" target="_top" xlink:title=" ">
<polygon fill="white" stroke="black" points="1040.5,-67.5 1040.5,-97.5 1171.5,-97.5 1171.5,-67.5 1040.5,-67.5"/>
<text text-anchor="start" x="1048.5" y="-85.5" font-family="Helvetica,sans-Serif" font-size="10.00">include/GameLogic/Squad</text>
<text text-anchor="middle" x="1106" y="-74.5" font-family="Helvetica,sans-Serif" font-size="10.00">/AllSquadTemplates.h</text>
</a>
</g>
</g>
<!-- Node1&#45;&gt;Node20 -->
<g id="edge47" class="edge">
<title>Node1&#45;&gt;Node20</title>
<path fill="none" stroke="midnightblue" d="M207.62,-538.41C440.21,-534 1144,-512.85 1144,-418.5 1144,-418.5 1144,-418.5 1144,-215.5 1144,-171.14 1123.94,-121.56 1112.97,-97.76"/>
<polygon fill="midnightblue" stroke="midnightblue" points="207.5,-534.91 197.56,-538.59 207.63,-541.91 207.5,-534.91"/>
</g>
<!-- Node6 -->
<g id="node6" class="node">
<title>Node6</title>
<g id="a_node6"><a xlink:href="_cell_8cpp.html" target="_top" xlink:title=" ">
<polygon fill="white" stroke="black" points="413.5,-408 413.5,-427 534.5,-427 534.5,-408 413.5,-408"/>
<text text-anchor="middle" x="474" y="-415" font-family="Helvetica,sans-Serif" font-size="10.00">src/GameLogic/Cell.cpp</text>
</a>
</g>
</g>
<!-- Node5&#45;&gt;Node6 -->
<g id="edge5" class="edge">
<title>Node5&#45;&gt;Node6</title>
<path fill="none" stroke="midnightblue" d="M625.29,-466.38C588.74,-454.82 533.53,-437.34 500.89,-427.01"/>
<polygon fill="midnightblue" stroke="midnightblue" points="624.47,-469.79 635.06,-469.48 626.59,-463.12 624.47,-469.79"/>
</g>
<!-- Node7 -->
<g id="node7" class="node">
<title>Node7</title>
<g id="a_node7"><a xlink:href="main_8cpp.html" target="_top" xlink:title=" ">
<polygon fill="white" stroke="black" points="553,-408 553,-427 625,-427 625,-408 553,-408"/>
<text text-anchor="middle" x="589" y="-415" font-family="Helvetica,sans-Serif" font-size="10.00">src/main.cpp</text>
</a>
</g>
</g>
<!-- Node5&#45;&gt;Node7 -->
<g id="edge6" class="edge">
<title>Node5&#45;&gt;Node7</title>
<path fill="none" stroke="midnightblue" d="M643.56,-462.97C629.6,-451.59 610.92,-436.37 599.44,-427.01"/>
<polygon fill="midnightblue" stroke="midnightblue" points="641.58,-465.87 651.54,-469.48 646,-460.44 641.58,-465.87"/>
</g>
<!-- Node8 -->
<g id="node8" class="node">
<title>Node8</title>
<g id="a_node8"><a xlink:href="_set_squad_path_8h.html" target="_top" xlink:title=" ">
<polygon fill="white" stroke="black" points="811.5,-268.5 811.5,-298.5 924.5,-298.5 924.5,-268.5 811.5,-268.5"/>
<text text-anchor="start" x="819.5" y="-286.5" font-family="Helvetica,sans-Serif" font-size="10.00">include/engine/actions</text>
<text text-anchor="middle" x="868" y="-275.5" font-family="Helvetica,sans-Serif" font-size="10.00">/SetSquadPath.h</text>
</a>
</g>
</g>
<!-- Node5&#45;&gt;Node8 -->
<g id="edge7" class="edge">
<title>Node5&#45;&gt;Node8</title>
<path fill="none" stroke="midnightblue" d="M727.11,-467.67C768.32,-460.15 816.37,-448.55 831,-433 866.41,-395.35 863.9,-327.71 864.97,-298.53"/>
<polygon fill="midnightblue" stroke="midnightblue" points="726.32,-464.26 717.08,-469.45 727.54,-471.15 726.32,-464.26"/>
</g>
<!-- Node11 -->
<g id="node11" class="node">
<title>Node11</title>
<g id="a_node11"><a xlink:href="_game_logic_2_squad_2_action_8h.html" target="_top" xlink:title=" ">
<polygon fill="white" stroke="black" points="699.5,-402.5 699.5,-432.5 830.5,-432.5 830.5,-402.5 699.5,-402.5"/>
<text text-anchor="start" x="707.5" y="-420.5" font-family="Helvetica,sans-Serif" font-size="10.00">include/GameLogic/Squad</text>
<text text-anchor="middle" x="765" y="-409.5" font-family="Helvetica,sans-Serif" font-size="10.00">/Action.h</text>
</a>
</g>
</g>
<!-- Node5&#45;&gt;Node11 -->
<g id="edge11" class="edge">
<title>Node5&#45;&gt;Node11</title>
<path fill="none" stroke="midnightblue" d="M685.76,-464.28C702.24,-454.75 724.13,-442.11 740.72,-432.52"/>
<polygon fill="midnightblue" stroke="midnightblue" points="683.67,-461.44 676.76,-469.48 687.17,-467.5 683.67,-461.44"/>
</g>
<!-- Node12 -->
<g id="node12" class="node">
<title>Node12</title>
<g id="a_node12"><a xlink:href="_squad_8h.html" target="_top" xlink:title=" ">
<polygon fill="white" stroke="black" points="596.5,-335.5 596.5,-365.5 727.5,-365.5 727.5,-335.5 596.5,-335.5"/>
<text text-anchor="start" x="604.5" y="-353.5" font-family="Helvetica,sans-Serif" font-size="10.00">include/GameLogic/Squad</text>
<text text-anchor="middle" x="662" y="-342.5" font-family="Helvetica,sans-Serif" font-size="10.00">/Squad.h</text>
</a>
</g>
</g>
<!-- Node5&#45;&gt;Node12 -->
<g id="edge44" class="edge">
<title>Node5&#45;&gt;Node12</title>
<path fill="none" stroke="midnightblue" d="M657.02,-459.11C654.5,-433.63 654.67,-388.81 657.52,-365.89"/>
<polygon fill="midnightblue" stroke="midnightblue" points="653.59,-459.85 658.37,-469.31 660.53,-458.93 653.59,-459.85"/>
</g>
<!-- Node17 -->
<g id="node17" class="node">
<title>Node17</title>
<g id="a_node17"><a xlink:href="_factory_8h.html" target="_top" xlink:title=" ">
<polygon fill="white" stroke="black" points="71.5,-201.5 71.5,-231.5 198.5,-231.5 198.5,-201.5 71.5,-201.5"/>
<text text-anchor="start" x="79.5" y="-219.5" font-family="Helvetica,sans-Serif" font-size="10.00">include/GameLogic/Units</text>
<text text-anchor="middle" x="135" y="-208.5" font-family="Helvetica,sans-Serif" font-size="10.00">/Factory.h</text>
</a>
</g>
</g>
<!-- Node5&#45;&gt;Node17 -->
<g id="edge45" class="edge">
<title>Node5&#45;&gt;Node17</title>
<path fill="none" stroke="midnightblue" d="M587.85,-475.65C530.67,-471.56 450.69,-460.82 386,-433 275.47,-385.46 177.75,-271.41 145.89,-231.54"/>
<polygon fill="midnightblue" stroke="midnightblue" points="587.69,-479.14 597.9,-476.31 588.15,-472.16 587.69,-479.14"/>
</g>
<!-- Node28 -->
<g id="node28" class="node">
<title>Node28</title>
<g id="a_node28"><a xlink:href="pathfinding_8h.html" target="_top" xlink:title=" ">
<polygon fill="white" stroke="black" points="351,-274 351,-293 471,-293 471,-274 351,-274"/>
<text text-anchor="middle" x="411" y="-281" font-family="Helvetica,sans-Serif" font-size="10.00">include/util/pathfinding.h</text>
</a>
</g>
</g>
<!-- Node5&#45;&gt;Node28 -->
<g id="edge46" class="edge">
<title>Node5&#45;&gt;Node28</title>
<path fill="none" stroke="midnightblue" d="M587.53,-475.28C520.12,-471.07 427.97,-460.34 405,-433 370.15,-391.51 396.51,-318.16 407.11,-293.14"/>
<polygon fill="midnightblue" stroke="midnightblue" points="587.51,-478.79 597.7,-475.88 587.92,-471.8 587.51,-478.79"/>
</g>
<!-- Node8&#45;&gt;Node5 -->
<g id="edge10" class="edge">
<title>Node8&#45;&gt;Node5</title>
<path fill="none" stroke="midnightblue" d="M876.76,-308.54C882.02,-341.14 880.81,-399.18 849,-433 832.51,-450.53 773.55,-463.04 726.1,-470.35"/>
<polygon fill="midnightblue" stroke="midnightblue" points="880.15,-307.65 874.76,-298.53 873.29,-309.02 880.15,-307.65"/>
</g>
<!-- Node9 -->
<g id="node9" class="node">
<title>Node9</title>
<g id="a_node9"><a xlink:href="engine_2_action_8cpp.html" target="_top" xlink:title=" ">
<polygon fill="white" stroke="black" points="968,-207 968,-226 1078,-226 1078,-207 968,-207"/>
<text text-anchor="middle" x="1023" y="-214" font-family="Helvetica,sans-Serif" font-size="10.00">src/engine/Action.cpp</text>
</a>
</g>
</g>
<!-- Node8&#45;&gt;Node9 -->
<g id="edge8" class="edge">
<title>Node8&#45;&gt;Node9</title>
<path fill="none" stroke="midnightblue" d="M911.02,-264.46C940.97,-251.9 979.54,-235.72 1002.71,-226.01"/>
<polygon fill="midnightblue" stroke="midnightblue" points="909.5,-261.3 901.63,-268.4 912.21,-267.76 909.5,-261.3"/>
</g>
<!-- Node10 -->
<g id="node10" class="node">
<title>Node10</title>
<g id="a_node10"><a xlink:href="_set_squad_path_8cpp.html" target="_top" xlink:title=" ">
<polygon fill="white" stroke="black" points="848.5,-201.5 848.5,-231.5 949.5,-231.5 949.5,-201.5 848.5,-201.5"/>
<text text-anchor="start" x="856.5" y="-219.5" font-family="Helvetica,sans-Serif" font-size="10.00">src/engine/actions</text>
<text text-anchor="middle" x="899" y="-208.5" font-family="Helvetica,sans-Serif" font-size="10.00">/SetSquadPath.cpp</text>
</a>
</g>
</g>
<!-- Node8&#45;&gt;Node10 -->
<g id="edge9" class="edge">
<title>Node8&#45;&gt;Node10</title>
<path fill="none" stroke="midnightblue" d="M879.07,-259.28C883.49,-250.02 888.43,-239.66 892.29,-231.58"/>
<polygon fill="midnightblue" stroke="midnightblue" points="875.87,-257.86 874.73,-268.4 882.19,-260.88 875.87,-257.86"/>
</g>
<!-- Node11&#45;&gt;Node12 -->
<g id="edge12" class="edge">
<title>Node11&#45;&gt;Node12</title>
<path fill="none" stroke="midnightblue" d="M728.35,-397.3C711.38,-387.12 692.11,-374.85 678.63,-365.58"/>
<polygon fill="midnightblue" stroke="midnightblue" points="726.58,-400.32 736.97,-402.4 730.15,-394.29 726.58,-400.32"/>
</g>
<!-- Node12&#45;&gt;Node2 -->
<g id="edge13" class="edge">
<title>Node12&#45;&gt;Node2</title>
<path fill="none" stroke="midnightblue" d="M586.07,-338.82C521.09,-329.37 425.15,-314.68 342,-299 339.12,-298.46 336.17,-297.88 333.19,-297.28"/>
<polygon fill="midnightblue" stroke="midnightblue" points="585.83,-342.32 596.23,-340.29 586.83,-335.4 585.83,-342.32"/>
</g>
<!-- Node12&#45;&gt;Node5 -->
<g id="edge15" class="edge">
<title>Node12&#45;&gt;Node5</title>
<path fill="none" stroke="midnightblue" d="M667.46,-375.9C669.66,-404.47 669.05,-450.3 665.63,-469.31"/>
<polygon fill="midnightblue" stroke="midnightblue" points="670.94,-375.5 666.48,-365.89 663.97,-376.18 670.94,-375.5"/>
</g>
<!-- Node12&#45;&gt;Node8 -->
<g id="edge14" class="edge">
<title>Node12&#45;&gt;Node8</title>
<path fill="none" stroke="midnightblue" d="M716.05,-332.44C749.45,-321.91 791.78,-308.55 823.28,-298.61"/>
<polygon fill="midnightblue" stroke="midnightblue" points="714.93,-329.13 706.45,-335.48 717.04,-335.8 714.93,-329.13"/>
</g>
<!-- Node12&#45;&gt;Node11 -->
<g id="edge16" class="edge">
<title>Node12&#45;&gt;Node11</title>
<path fill="none" stroke="midnightblue" d="M698.6,-370.67C715.57,-380.84 734.83,-393.11 748.33,-402.4"/>
<polygon fill="midnightblue" stroke="midnightblue" points="700.37,-367.65 689.98,-365.58 696.81,-373.68 700.37,-367.65"/>
</g>
<!-- Node13 -->
<g id="node13" class="node">
<title>Node13</title>
<g id="a_node13"><a xlink:href="_unit_8h.html" target="_top" xlink:title=" ">
<polygon fill="white" stroke="black" points="598.5,-268.5 598.5,-298.5 725.5,-298.5 725.5,-268.5 598.5,-268.5"/>
<text text-anchor="start" x="606.5" y="-286.5" font-family="Helvetica,sans-Serif" font-size="10.00">include/GameLogic/Units</text>
<text text-anchor="middle" x="662" y="-275.5" font-family="Helvetica,sans-Serif" font-size="10.00">/Unit.h</text>
</a>
</g>
</g>
<!-- Node12&#45;&gt;Node13 -->
<g id="edge17" class="edge">
<title>Node12&#45;&gt;Node13</title>
<path fill="none" stroke="midnightblue" d="M655.45,-325.4C655.01,-316.37 655.3,-306.41 656.33,-298.58"/>
<polygon fill="midnightblue" stroke="midnightblue" points="651.97,-325.74 656.32,-335.4 658.94,-325.13 651.97,-325.74"/>
</g>
<!-- Node12&#45;&gt;Node28 -->
<g id="edge41" class="edge">
<title>Node12&#45;&gt;Node28</title>
<path fill="none" stroke="midnightblue" d="M597.94,-332.91C548.78,-320.18 482.93,-303.13 443.93,-293.03"/>
<polygon fill="midnightblue" stroke="midnightblue" points="597.29,-336.36 607.85,-335.48 599.04,-329.58 597.29,-336.36"/>
</g>
<!-- Node13&#45;&gt;Node12 -->
<g id="edge19" class="edge">
<title>Node13&#45;&gt;Node12</title>
<path fill="none" stroke="midnightblue" d="M668.54,-308.57C668.99,-317.6 668.71,-327.56 667.68,-335.4"/>
<polygon fill="midnightblue" stroke="midnightblue" points="672.03,-308.24 667.67,-298.58 665.05,-308.84 672.03,-308.24"/>
</g>
<!-- Node14 -->
<g id="node14" class="node">
<title>Node14</title>
<g id="a_node14"><a xlink:href="_unit_8cpp.html" target="_top" xlink:title=" ">
<polygon fill="white" stroke="black" points="617,-134.5 617,-164.5 727,-164.5 727,-134.5 617,-134.5"/>
<text text-anchor="start" x="625" y="-152.5" font-family="Helvetica,sans-Serif" font-size="10.00">src/GameLogic/Units</text>
<text text-anchor="middle" x="672" y="-141.5" font-family="Helvetica,sans-Serif" font-size="10.00">/Unit.cpp</text>
</a>
</g>
</g>
<!-- Node13&#45;&gt;Node14 -->
<g id="edge18" class="edge">
<title>Node13&#45;&gt;Node14</title>
<path fill="none" stroke="midnightblue" d="M657.32,-258.02C654.92,-241.78 653.06,-220.02 656,-201 657.94,-188.46 662.44,-174.76 666.17,-164.8"/>
<polygon fill="midnightblue" stroke="midnightblue" points="653.93,-258.99 659.02,-268.29 660.84,-257.85 653.93,-258.99"/>
</g>
<!-- Node15 -->
<g id="node15" class="node">
<title>Node15</title>
<g id="a_node15"><a xlink:href="_squad_order_8h.html" target="_top" xlink:title=" ">
<polygon fill="white" stroke="black" points="873.5,-134.5 873.5,-164.5 1004.5,-164.5 1004.5,-134.5 873.5,-134.5"/>
<text text-anchor="start" x="881.5" y="-152.5" font-family="Helvetica,sans-Serif" font-size="10.00">include/GameLogic/Squad</text>
<text text-anchor="middle" x="939" y="-141.5" font-family="Helvetica,sans-Serif" font-size="10.00">/SquadOrder.h</text>
</a>
</g>
</g>
<!-- Node13&#45;&gt;Node15 -->
<g id="edge20" class="edge">
<title>Node13&#45;&gt;Node15</title>
<path fill="none" stroke="midnightblue" d="M722.38,-265.29C747.5,-256.94 776.47,-245.72 801,-232 820.32,-221.19 821.38,-212.98 840,-201 861.58,-187.12 887.46,-174.03 907.35,-164.66"/>
<polygon fill="midnightblue" stroke="midnightblue" points="721.03,-262.05 712.6,-268.46 723.19,-268.71 721.03,-262.05"/>
</g>
<!-- Node13&#45;&gt;Node17 -->
<g id="edge22" class="edge">
<title>Node13&#45;&gt;Node17</title>
<path fill="none" stroke="midnightblue" d="M588.13,-276.23C498.07,-268.15 341.39,-252.63 208,-232 204.94,-231.53 201.8,-231.01 198.64,-230.47"/>
<polygon fill="midnightblue" stroke="midnightblue" points="587.97,-279.73 598.24,-277.14 588.59,-272.76 587.97,-279.73"/>
</g>
<!-- Node24 -->
<g id="node24" class="node">
<title>Node24</title>
<g id="a_node24"><a xlink:href="_land_unit_8h.html" target="_top" xlink:title=" ">
<polygon fill="white" stroke="black" points="480.5,-201.5 480.5,-231.5 607.5,-231.5 607.5,-201.5 480.5,-201.5"/>
<text text-anchor="start" x="488.5" y="-219.5" font-family="Helvetica,sans-Serif" font-size="10.00">include/GameLogic/Units</text>
<text text-anchor="middle" x="544" y="-208.5" font-family="Helvetica,sans-Serif" font-size="10.00">/LandUnit.h</text>
</a>
</g>
</g>
<!-- Node13&#45;&gt;Node24 -->
<g id="edge33" class="edge">
<title>Node13&#45;&gt;Node24</title>
<path fill="none" stroke="midnightblue" d="M627.39,-263.44C608.88,-253.24 586.48,-240.9 569.55,-231.58"/>
<polygon fill="midnightblue" stroke="midnightblue" points="625.95,-266.64 636.4,-268.4 629.33,-260.51 625.95,-266.64"/>
</g>
<!-- Node26 -->
<g id="node26" class="node">
<title>Node26</title>
<g id="a_node26"><a xlink:href="_unit_order_8h.html" target="_top" xlink:title=" ">
<polygon fill="white" stroke="black" points="664.5,-201.5 664.5,-231.5 791.5,-231.5 791.5,-201.5 664.5,-201.5"/>
<text text-anchor="start" x="672.5" y="-219.5" font-family="Helvetica,sans-Serif" font-size="10.00">include/GameLogic/Units</text>
<text text-anchor="middle" x="728" y="-208.5" font-family="Helvetica,sans-Serif" font-size="10.00">/UnitOrder.h</text>
</a>
</g>
</g>
<!-- Node13&#45;&gt;Node26 -->
<g id="edge36" class="edge">
<title>Node13&#45;&gt;Node26</title>
<path fill="none" stroke="midnightblue" d="M677.41,-261.02C686.6,-251.34 698.17,-240.17 708.03,-231.58"/>
<polygon fill="midnightblue" stroke="midnightblue" points="674.83,-258.66 670.64,-268.4 679.99,-263.4 674.83,-258.66"/>
</g>
<!-- Node16 -->
<g id="node16" class="node">
<title>Node16</title>
<g id="a_node16"><a xlink:href="_squad_order_8cpp.html" target="_top" xlink:title=" ">
<polygon fill="white" stroke="black" points="882,-67.5 882,-97.5 996,-97.5 996,-67.5 882,-67.5"/>
<text text-anchor="start" x="890" y="-85.5" font-family="Helvetica,sans-Serif" font-size="10.00">src/GameLogic/Squad</text>
<text text-anchor="middle" x="939" y="-74.5" font-family="Helvetica,sans-Serif" font-size="10.00">/SquadOrder.cpp</text>
</a>
</g>
</g>
<!-- Node15&#45;&gt;Node16 -->
<g id="edge21" class="edge">
<title>Node15&#45;&gt;Node16</title>
<path fill="none" stroke="midnightblue" d="M939,-124.11C939,-115.15 939,-105.32 939,-97.58"/>
<polygon fill="midnightblue" stroke="midnightblue" points="935.5,-124.4 939,-134.4 942.5,-124.4 935.5,-124.4"/>
</g>
<!-- Node17&#45;&gt;Node1 -->
<g id="edge29" class="edge">
<title>Node17&#45;&gt;Node1</title>
<path fill="none" stroke="midnightblue" d="M129.15,-241.49C123.24,-267.82 115,-311.41 115,-349.5 115,-418.5 115,-418.5 115,-418.5 115,-457.63 124.82,-503.02 130.34,-525.45"/>
<polygon fill="midnightblue" stroke="midnightblue" points="132.58,-242.18 131.42,-231.65 125.76,-240.61 132.58,-242.18"/>
</g>
<!-- Node18 -->
<g id="node18" class="node">
<title>Node18</title>
<g id="a_node18"><a xlink:href="_factory_8cpp.html" target="_top" xlink:title=" ">
<polygon fill="white" stroke="black" points="66,-134.5 66,-164.5 176,-164.5 176,-134.5 66,-134.5"/>
<text text-anchor="start" x="74" y="-152.5" font-family="Helvetica,sans-Serif" font-size="10.00">src/GameLogic/Units</text>
<text text-anchor="middle" x="121" y="-141.5" font-family="Helvetica,sans-Serif" font-size="10.00">/Factory.cpp</text>
</a>
</g>
</g>
<!-- Node17&#45;&gt;Node18 -->
<g id="edge23" class="edge">
<title>Node17&#45;&gt;Node18</title>
<path fill="none" stroke="midnightblue" d="M129.81,-191.4C127.86,-182.37 125.72,-172.41 124.03,-164.58"/>
<polygon fill="midnightblue" stroke="midnightblue" points="126.44,-192.36 131.96,-201.4 133.28,-190.88 126.44,-192.36"/>
</g>
<!-- Node19 -->
<g id="node19" class="node">
<title>Node19</title>
<g id="a_node19"><a xlink:href="_squad_template_8h.html" target="_top" xlink:title=" ">
<polygon fill="white" stroke="black" points="194.5,-134.5 194.5,-164.5 325.5,-164.5 325.5,-134.5 194.5,-134.5"/>
<text text-anchor="start" x="202.5" y="-152.5" font-family="Helvetica,sans-Serif" font-size="10.00">include/GameLogic/Squad</text>
<text text-anchor="middle" x="260" y="-141.5" font-family="Helvetica,sans-Serif" font-size="10.00">/SquadTemplate.h</text>
</a>
</g>
</g>
<!-- Node17&#45;&gt;Node19 -->
<g id="edge24" class="edge">
<title>Node17&#45;&gt;Node19</title>
<path fill="none" stroke="midnightblue" d="M171.13,-196.71C190.84,-186.46 214.84,-173.98 232.93,-164.58"/>
<polygon fill="midnightblue" stroke="midnightblue" points="169.38,-193.68 162.12,-201.4 172.61,-199.89 169.38,-193.68"/>
</g>
<!-- Node22 -->
<g id="node22" class="node">
<title>Node22</title>
<g id="a_node22"><a xlink:href="_land_unit_factory_8h.html" target="_top" xlink:title=" ">
<polygon fill="white" stroke="black" points="343.5,-134.5 343.5,-164.5 470.5,-164.5 470.5,-134.5 343.5,-134.5"/>
<text text-anchor="start" x="351.5" y="-152.5" font-family="Helvetica,sans-Serif" font-size="10.00">include/GameLogic/Units</text>
<text text-anchor="middle" x="407" y="-141.5" font-family="Helvetica,sans-Serif" font-size="10.00">/LandUnitFactory.h</text>
</a>
</g>
</g>
<!-- Node17&#45;&gt;Node22 -->
<g id="edge30" class="edge">
<title>Node17&#45;&gt;Node22</title>
<path fill="none" stroke="midnightblue" d="M203.55,-199.12C248.06,-188.48 305.47,-174.76 347.95,-164.61"/>
<polygon fill="midnightblue" stroke="midnightblue" points="202.6,-195.75 193.69,-201.48 204.22,-202.56 202.6,-195.75"/>
</g>
<!-- Node19&#45;&gt;Node3 -->
<g id="edge25" class="edge">
<title>Node19&#45;&gt;Node3</title>
<path fill="none" stroke="midnightblue" d="M210.19,-131.09C180.16,-120.6 142.41,-107.41 114.28,-97.58"/>
<polygon fill="midnightblue" stroke="midnightblue" points="209.05,-134.4 219.64,-134.4 211.36,-127.79 209.05,-134.4"/>
</g>
<!-- Node19&#45;&gt;Node20 -->
<g id="edge26" class="edge">
<title>Node19&#45;&gt;Node20</title>
<path fill="none" stroke="midnightblue" d="M335.87,-133.88C632.14,-97.86 711.12,-126.92 1005,-98 1016.46,-96.87 1028.61,-95.38 1040.36,-93.79"/>
<polygon fill="midnightblue" stroke="midnightblue" points="335.19,-130.44 325.69,-135.13 336.04,-137.39 335.19,-130.44"/>
</g>
<!-- Node20&#45;&gt;Node5 -->
<g id="edge28" class="edge">
<title>Node20&#45;&gt;Node5</title>
<path fill="none" stroke="midnightblue" d="M1106,-108.01C1106,-134.51 1106,-178 1106,-215.5 1106,-351.5 1106,-351.5 1106,-351.5 1106,-429.55 849.04,-462.06 726.09,-473.14"/>
<polygon fill="midnightblue" stroke="midnightblue" points="1109.5,-107.76 1106,-97.76 1102.5,-107.76 1109.5,-107.76"/>
</g>
<!-- Node21 -->
<g id="node21" class="node">
<title>Node21</title>
<g id="a_node21"><a xlink:href="_all_squad_templates_8cpp.html" target="_top" xlink:title=" ">
<polygon fill="white" stroke="black" points="1045,-0.5 1045,-30.5 1167,-30.5 1167,-0.5 1045,-0.5"/>
<text text-anchor="start" x="1053" y="-18.5" font-family="Helvetica,sans-Serif" font-size="10.00">src/GameLogic/Squad</text>
<text text-anchor="middle" x="1106" y="-7.5" font-family="Helvetica,sans-Serif" font-size="10.00">/AllSquadTemplates.cpp</text>
</a>
</g>
</g>
<!-- Node20&#45;&gt;Node21 -->
<g id="edge27" class="edge">
<title>Node20&#45;&gt;Node21</title>
<path fill="none" stroke="midnightblue" d="M1106,-57.11C1106,-48.15 1106,-38.32 1106,-30.58"/>
<polygon fill="midnightblue" stroke="midnightblue" points="1102.5,-57.4 1106,-67.4 1109.5,-57.4 1102.5,-57.4"/>
</g>
<!-- Node22&#45;&gt;Node4 -->
<g id="edge31" class="edge">
<title>Node22&#45;&gt;Node4</title>
<path fill="none" stroke="midnightblue" d="M361.49,-130.68C334.87,-120.26 301.73,-107.28 276.95,-97.58"/>
<polygon fill="midnightblue" stroke="midnightblue" points="360.39,-134.01 370.98,-134.4 362.95,-127.49 360.39,-134.01"/>
</g>
<!-- Node23 -->
<g id="node23" class="node">
<title>Node23</title>
<g id="a_node23"><a xlink:href="_land_unit_factory_8cpp.html" target="_top" xlink:title=" ">
<polygon fill="white" stroke="black" points="352,-67.5 352,-97.5 462,-97.5 462,-67.5 352,-67.5"/>
<text text-anchor="start" x="360" y="-85.5" font-family="Helvetica,sans-Serif" font-size="10.00">src/GameLogic/Units</text>
<text text-anchor="middle" x="407" y="-74.5" font-family="Helvetica,sans-Serif" font-size="10.00">/LandUnitFactory.cpp</text>
</a>
</g>
</g>
<!-- Node22&#45;&gt;Node23 -->
<g id="edge32" class="edge">
<title>Node22&#45;&gt;Node23</title>
<path fill="none" stroke="midnightblue" d="M407,-124.11C407,-115.15 407,-105.32 407,-97.58"/>
<polygon fill="midnightblue" stroke="midnightblue" points="403.5,-124.4 407,-134.4 410.5,-124.4 403.5,-124.4"/>
</g>
<!-- Node24&#45;&gt;Node22 -->
<g id="edge35" class="edge">
<title>Node24&#45;&gt;Node22</title>
<path fill="none" stroke="midnightblue" d="M504.99,-196.99C483.28,-186.69 456.67,-174.07 436.67,-164.58"/>
<polygon fill="midnightblue" stroke="midnightblue" points="503.74,-200.27 514.27,-201.4 506.74,-193.95 503.74,-200.27"/>
</g>
<!-- Node25 -->
<g id="node25" class="node">
<title>Node25</title>
<g id="a_node25"><a xlink:href="_land_unit_8cpp.html" target="_top" xlink:title=" ">
<polygon fill="white" stroke="black" points="489,-134.5 489,-164.5 599,-164.5 599,-134.5 489,-134.5"/>
<text text-anchor="start" x="497" y="-152.5" font-family="Helvetica,sans-Serif" font-size="10.00">src/GameLogic/Units</text>
<text text-anchor="middle" x="544" y="-141.5" font-family="Helvetica,sans-Serif" font-size="10.00">/LandUnit.cpp</text>
</a>
</g>
</g>
<!-- Node24&#45;&gt;Node25 -->
<g id="edge34" class="edge">
<title>Node24&#45;&gt;Node25</title>
<path fill="none" stroke="midnightblue" d="M544,-191.11C544,-182.15 544,-172.32 544,-164.58"/>
<polygon fill="midnightblue" stroke="midnightblue" points="540.5,-191.4 544,-201.4 547.5,-191.4 540.5,-191.4"/>
</g>
<!-- Node26&#45;&gt;Node13 -->
<g id="edge40" class="edge">
<title>Node26&#45;&gt;Node13</title>
<path fill="none" stroke="midnightblue" d="M712.62,-238.94C703.44,-248.63 691.86,-259.79 682,-268.4"/>
<polygon fill="midnightblue" stroke="midnightblue" points="715.2,-241.31 719.38,-231.58 710.04,-236.57 715.2,-241.31"/>
</g>
<!-- Node26&#45;&gt;Node14 -->
<g id="edge37" class="edge">
<title>Node26&#45;&gt;Node14</title>
<path fill="none" stroke="midnightblue" d="M709.25,-193.74C700.96,-184.12 691.46,-173.09 684.13,-164.58"/>
<polygon fill="midnightblue" stroke="midnightblue" points="706.67,-196.1 715.85,-201.4 711.97,-191.54 706.67,-196.1"/>
</g>
<!-- Node26&#45;&gt;Node15 -->
<g id="edge39" class="edge">
<title>Node26&#45;&gt;Node15</title>
<path fill="none" stroke="midnightblue" d="M783.37,-198.44C817.57,-187.91 860.93,-174.55 893.19,-164.61"/>
<polygon fill="midnightblue" stroke="midnightblue" points="782.05,-195.19 773.52,-201.48 784.11,-201.88 782.05,-195.19"/>
</g>
<!-- Node27 -->
<g id="node27" class="node">
<title>Node27</title>
<g id="a_node27"><a xlink:href="_unit_order_8cpp.html" target="_top" xlink:title=" ">
<polygon fill="white" stroke="black" points="745,-134.5 745,-164.5 855,-164.5 855,-134.5 745,-134.5"/>
<text text-anchor="start" x="753" y="-152.5" font-family="Helvetica,sans-Serif" font-size="10.00">src/GameLogic/Units</text>
<text text-anchor="middle" x="800" y="-141.5" font-family="Helvetica,sans-Serif" font-size="10.00">/UnitOrder.cpp</text>
</a>
</g>
</g>
<!-- Node26&#45;&gt;Node27 -->
<g id="edge38" class="edge">
<title>Node26&#45;&gt;Node27</title>
<path fill="none" stroke="midnightblue" d="M751.15,-194.6C762.02,-184.78 774.7,-173.34 784.41,-164.58"/>
<polygon fill="midnightblue" stroke="midnightblue" points="748.7,-192.1 743.62,-201.4 753.39,-197.29 748.7,-192.1"/>
</g>
<!-- Node29 -->
<g id="node29" class="node">
<title>Node29</title>
<g id="a_node29"><a xlink:href="_game_logic_2_squad_2_action_8cpp.html" target="_top" xlink:title=" ">
<polygon fill="white" stroke="black" points="217,-201.5 217,-231.5 331,-231.5 331,-201.5 217,-201.5"/>
<text text-anchor="start" x="225" y="-219.5" font-family="Helvetica,sans-Serif" font-size="10.00">src/GameLogic/Squad</text>
<text text-anchor="middle" x="274" y="-208.5" font-family="Helvetica,sans-Serif" font-size="10.00">/Action.cpp</text>
</a>
</g>
</g>
<!-- Node28&#45;&gt;Node29 -->
<g id="edge42" class="edge">
<title>Node28&#45;&gt;Node29</title>
<path fill="none" stroke="midnightblue" d="M383.54,-269.47C360.38,-258.49 327.31,-242.79 303.57,-231.53"/>
<polygon fill="midnightblue" stroke="midnightblue" points="382.27,-272.74 392.81,-273.87 385.27,-266.42 382.27,-272.74"/>
</g>
<!-- Node30 -->
<g id="node30" class="node">
<title>Node30</title>
<g id="a_node30"><a xlink:href="pathfinding_8cpp.html" target="_top" xlink:title=" ">
<polygon fill="white" stroke="black" points="349.5,-207 349.5,-226 462.5,-226 462.5,-207 349.5,-207"/>
<text text-anchor="middle" x="406" y="-214" font-family="Helvetica,sans-Serif" font-size="10.00">src/util/pathfinding.cpp</text>
</a>
</g>
</g>
<!-- Node28&#45;&gt;Node30 -->
<g id="edge43" class="edge">
<title>Node28&#45;&gt;Node30</title>
<path fill="none" stroke="midnightblue" d="M409.54,-263.54C408.59,-251.17 407.39,-235.62 406.66,-226.13"/>
<polygon fill="midnightblue" stroke="midnightblue" points="406.07,-264.03 410.33,-273.73 413.05,-263.49 406.07,-264.03"/>
</g>
</g>
</svg>
