<?xml version="1.0" encoding="UTF-8" standalone="no"?>
<!DOCTYPE svg PUBLIC "-//W3C//DTD SVG 1.1//EN"
 "http://www.w3.org/Graphics/SVG/1.1/DTD/svg11.dtd">
<!-- Generated by graphviz version 2.47.1 (20210421.1823)
 -->
<!-- Title: include/GameLogic/Squad/AllSquadTemplates.h Pages: 1 -->
<svg width="1755pt" height="575pt"
 viewBox="0.00 0.00 1754.50 575.00" xmlns="http://www.w3.org/2000/svg" xmlns:xlink="http://www.w3.org/1999/xlink">
<g id="graph0" class="graph" transform="scale(1 1) rotate(0) translate(4 571)">
<title>include/GameLogic/Squad/AllSquadTemplates.h</title>
<polygon fill="white" stroke="transparent" points="-4,4 -4,-571 1750.5,-571 1750.5,4 -4,4"/>
<!-- Node1 -->
<g id="node1" class="node">
<title>Node1</title>
<g id="a_node1"><a xlink:title=" ">
<polygon fill="#bfbfbf" stroke="black" points="1416,-536.5 1416,-566.5 1547,-566.5 1547,-536.5 1416,-536.5"/>
<text text-anchor="start" x="1424" y="-554.5" font-family="Helvetica,sans-Serif" font-size="10.00">include/GameLogic/Squad</text>
<text text-anchor="middle" x="1481.5" y="-543.5" font-family="Helvetica,sans-Serif" font-size="10.00">/AllSquadTemplates.h</text>
</a>
</g>
</g>
<!-- Node2 -->
<g id="node2" class="node">
<title>Node2</title>
<g id="a_node2"><a xlink:href="_all_squad_templates_8cpp.html" target="_top" xlink:title=" ">
<polygon fill="white" stroke="black" points="1122.5,-469.5 1122.5,-499.5 1244.5,-499.5 1244.5,-469.5 1122.5,-469.5"/>
<text text-anchor="start" x="1130.5" y="-487.5" font-family="Helvetica,sans-Serif" font-size="10.00">src/GameLogic/Squad</text>
<text text-anchor="middle" x="1183.5" y="-476.5" font-family="Helvetica,sans-Serif" font-size="10.00">/AllSquadTemplates.cpp</text>
</a>
</g>
</g>
<!-- Node1&#45;&gt;Node2 -->
<g id="edge1" class="edge">
<title>Node1&#45;&gt;Node2</title>
<path fill="none" stroke="midnightblue" d="M1407.39,-534.33C1357.24,-523.4 1291.79,-509.12 1244.63,-498.83"/>
<polygon fill="midnightblue" stroke="midnightblue" points="1406.69,-537.76 1417.21,-536.48 1408.18,-530.93 1406.69,-537.76"/>
</g>
<!-- Node3 -->
<g id="node3" class="node">
<title>Node3</title>
<g id="a_node3"><a xlink:href="_cell_8h.html" target="_top" xlink:title=" ">
<polygon fill="white" stroke="black" points="1262.5,-475 1262.5,-494 1390.5,-494 1390.5,-475 1262.5,-475"/>
<text text-anchor="middle" x="1326.5" y="-482" font-family="Helvetica,sans-Serif" font-size="10.00">include/GameLogic/Cell.h</text>
</a>
</g>
</g>
<!-- Node1&#45;&gt;Node3 -->
<g id="edge2" class="edge">
<title>Node1&#45;&gt;Node3</title>
<path fill="none" stroke="midnightblue" d="M1438.48,-532.46C1408.53,-519.9 1369.96,-503.72 1346.79,-494.01"/>
<polygon fill="midnightblue" stroke="midnightblue" points="1437.29,-535.76 1447.87,-536.4 1440,-529.3 1437.29,-535.76"/>
</g>
<!-- Node4 -->
<g id="node4" class="node">
<title>Node4</title>
<g id="a_node4"><a xlink:href="_cell_8cpp.html" target="_top" xlink:title=" ">
<polygon fill="white" stroke="black" points="1440,-408 1440,-427 1561,-427 1561,-408 1440,-408"/>
<text text-anchor="middle" x="1500.5" y="-415" font-family="Helvetica,sans-Serif" font-size="10.00">src/GameLogic/Cell.cpp</text>
</a>
</g>
</g>
<!-- Node3&#45;&gt;Node4 -->
<g id="edge3" class="edge">
<title>Node3&#45;&gt;Node4</title>
<path fill="none" stroke="midnightblue" d="M1359.24,-471.27C1393.77,-458.37 1447.29,-438.38 1477.58,-427.06"/>
<polygon fill="midnightblue" stroke="midnightblue" points="1357.75,-468.09 1349.61,-474.87 1360.2,-474.65 1357.75,-468.09"/>
</g>
<!-- Node5 -->
<g id="node5" class="node">
<title>Node5</title>
<g id="a_node5"><a xlink:href="main_8cpp.html" target="_top" xlink:title=" ">
<polygon fill="white" stroke="black" points="1674.5,-73 1674.5,-92 1746.5,-92 1746.5,-73 1674.5,-73"/>
<text text-anchor="middle" x="1710.5" y="-80" font-family="Helvetica,sans-Serif" font-size="10.00">src/main.cpp</text>
</a>
</g>
</g>
<!-- Node3&#45;&gt;Node5 -->
<g id="edge4" class="edge">
<title>Node3&#45;&gt;Node5</title>
<path fill="none" stroke="midnightblue" d="M1400.95,-474.08C1515.4,-457.5 1721.5,-418.35 1721.5,-351.5 1721.5,-351.5 1721.5,-351.5 1721.5,-215.5 1721.5,-168.82 1714.58,-113.17 1711.72,-92.13"/>
<polygon fill="midnightblue" stroke="midnightblue" points="1400.25,-470.65 1390.84,-475.52 1401.24,-477.58 1400.25,-470.65"/>
</g>
<!-- Node6 -->
<g id="node6" class="node">
<title>Node6</title>
<g id="a_node6"><a xlink:href="_set_squad_path_8h.html" target="_top" xlink:title=" ">
<polygon fill="white" stroke="black" points="548,-268.5 548,-298.5 661,-298.5 661,-268.5 548,-268.5"/>
<text text-anchor="start" x="556" y="-286.5" font-family="Helvetica,sans-Serif" font-size="10.00">include/engine/actions</text>
<text text-anchor="middle" x="604.5" y="-275.5" font-family="Helvetica,sans-Serif" font-size="10.00">/SetSquadPath.h</text>
</a>
</g>
</g>
<!-- Node3&#45;&gt;Node6 -->
<g id="edge5" class="edge">
<title>Node3&#45;&gt;Node6</title>
<path fill="none" stroke="midnightblue" d="M1264.84,-473C1257.95,-471.65 1251.06,-470.29 1244.5,-469 1162.31,-452.84 1140.64,-453.8 1059.5,-433 899.33,-391.94 713.19,-326.99 638.17,-298.58"/>
<polygon fill="midnightblue" stroke="midnightblue" points="1264.42,-476.48 1274.9,-474.96 1265.76,-469.61 1264.42,-476.48"/>
</g>
<!-- Node9 -->
<g id="node9" class="node">
<title>Node9</title>
<g id="a_node9"><a xlink:href="_game_logic_2_squad_2_action_8h.html" target="_top" xlink:title=" ">
<polygon fill="white" stroke="black" points="1214,-402.5 1214,-432.5 1345,-432.5 1345,-402.5 1214,-402.5"/>
<text text-anchor="start" x="1222" y="-420.5" font-family="Helvetica,sans-Serif" font-size="10.00">include/GameLogic/Squad</text>
<text text-anchor="middle" x="1279.5" y="-409.5" font-family="Helvetica,sans-Serif" font-size="10.00">/Action.h</text>
</a>
</g>
</g>
<!-- Node3&#45;&gt;Node9 -->
<g id="edge9" class="edge">
<title>Node3&#45;&gt;Node9</title>
<path fill="none" stroke="midnightblue" d="M1314.1,-466.35C1306.49,-455.82 1296.86,-442.5 1289.69,-432.59"/>
<polygon fill="midnightblue" stroke="midnightblue" points="1311.47,-468.68 1320.16,-474.73 1317.14,-464.58 1311.47,-468.68"/>
</g>
<!-- Node11 -->
<g id="node11" class="node">
<title>Node11</title>
<g id="a_node11"><a xlink:href="_squad_8h.html" target="_top" xlink:title=" ">
<polygon fill="white" stroke="black" points="1111,-335.5 1111,-365.5 1242,-365.5 1242,-335.5 1111,-335.5"/>
<text text-anchor="start" x="1119" y="-353.5" font-family="Helvetica,sans-Serif" font-size="10.00">include/GameLogic/Squad</text>
<text text-anchor="middle" x="1176.5" y="-342.5" font-family="Helvetica,sans-Serif" font-size="10.00">/Squad.h</text>
</a>
</g>
</g>
<!-- Node3&#45;&gt;Node11 -->
<g id="edge62" class="edge">
<title>Node3&#45;&gt;Node11</title>
<path fill="none" stroke="midnightblue" d="M1265.47,-472.19C1240.72,-464.67 1213.8,-452.46 1195.5,-433 1177.77,-414.14 1171.22,-383.55 1171.61,-365.7"/>
<polygon fill="midnightblue" stroke="midnightblue" points="1264.61,-475.59 1275.18,-474.95 1266.52,-468.85 1264.61,-475.59"/>
</g>
<!-- Node22 -->
<g id="node22" class="node">
<title>Node22</title>
<g id="a_node22"><a xlink:href="_factory_8h.html" target="_top" xlink:title=" ">
<polygon fill="white" stroke="black" points="1027,-201.5 1027,-231.5 1154,-231.5 1154,-201.5 1027,-201.5"/>
<text text-anchor="start" x="1035" y="-219.5" font-family="Helvetica,sans-Serif" font-size="10.00">include/GameLogic/Units</text>
<text text-anchor="middle" x="1090.5" y="-208.5" font-family="Helvetica,sans-Serif" font-size="10.00">/Factory.h</text>
</a>
</g>
</g>
<!-- Node3&#45;&gt;Node22 -->
<g id="edge63" class="edge">
<title>Node3&#45;&gt;Node22</title>
<path fill="none" stroke="midnightblue" d="M1268.1,-472.47C1212.9,-458.47 1133.87,-428.19 1101.5,-366 1078.35,-321.51 1083.97,-259.17 1088.05,-231.58"/>
<polygon fill="midnightblue" stroke="midnightblue" points="1267.57,-475.95 1278.12,-474.9 1269.22,-469.14 1267.57,-475.95"/>
</g>
<!-- Node38 -->
<g id="node38" class="node">
<title>Node38</title>
<g id="a_node38"><a xlink:href="pathfinding_8h.html" target="_top" xlink:title=" ">
<polygon fill="white" stroke="black" points="1336.5,-274 1336.5,-293 1456.5,-293 1456.5,-274 1336.5,-274"/>
<text text-anchor="middle" x="1396.5" y="-281" font-family="Helvetica,sans-Serif" font-size="10.00">include/util/pathfinding.h</text>
</a>
</g>
</g>
<!-- Node3&#45;&gt;Node38 -->
<g id="edge64" class="edge">
<title>Node3&#45;&gt;Node38</title>
<path fill="none" stroke="midnightblue" d="M1337.03,-465.99C1342.46,-456.47 1348.88,-444.35 1353.5,-433 1374.44,-381.54 1389.63,-316.21 1394.68,-293.08"/>
<polygon fill="midnightblue" stroke="midnightblue" points="1333.89,-464.43 1331.86,-474.83 1339.93,-467.97 1333.89,-464.43"/>
</g>
<!-- Node6&#45;&gt;Node3 -->
<g id="edge8" class="edge">
<title>Node6&#45;&gt;Node3</title>
<path fill="none" stroke="midnightblue" d="M657.81,-301.89C744.97,-331.77 923.27,-393.46 1077.5,-433 1158.64,-453.8 1180.31,-452.84 1262.5,-469 1272.26,-470.92 1282.76,-473 1292.41,-474.96"/>
<polygon fill="midnightblue" stroke="midnightblue" points="658.74,-298.51 648.15,-298.58 656.48,-305.13 658.74,-298.51"/>
</g>
<!-- Node7 -->
<g id="node7" class="node">
<title>Node7</title>
<g id="a_node7"><a xlink:href="engine_2_action_8cpp.html" target="_top" xlink:title=" ">
<polygon fill="white" stroke="black" points="210.5,-207 210.5,-226 320.5,-226 320.5,-207 210.5,-207"/>
<text text-anchor="middle" x="265.5" y="-214" font-family="Helvetica,sans-Serif" font-size="10.00">src/engine/Action.cpp</text>
</a>
</g>
</g>
<!-- Node6&#45;&gt;Node7 -->
<g id="edge6" class="edge">
<title>Node6&#45;&gt;Node7</title>
<path fill="none" stroke="midnightblue" d="M537.89,-270.47C483.19,-260.48 403.74,-245.75 334.5,-232 325.01,-230.12 314.81,-228.01 305.24,-226.01"/>
<polygon fill="midnightblue" stroke="midnightblue" points="537.34,-273.92 547.8,-272.27 538.59,-267.04 537.34,-273.92"/>
</g>
<!-- Node8 -->
<g id="node8" class="node">
<title>Node8</title>
<g id="a_node8"><a xlink:href="_set_squad_path_8cpp.html" target="_top" xlink:title=" ">
<polygon fill="white" stroke="black" points="91,-201.5 91,-231.5 192,-231.5 192,-201.5 91,-201.5"/>
<text text-anchor="start" x="99" y="-219.5" font-family="Helvetica,sans-Serif" font-size="10.00">src/engine/actions</text>
<text text-anchor="middle" x="141.5" y="-208.5" font-family="Helvetica,sans-Serif" font-size="10.00">/SetSquadPath.cpp</text>
</a>
</g>
</g>
<!-- Node6&#45;&gt;Node8 -->
<g id="edge7" class="edge">
<title>Node6&#45;&gt;Node8</title>
<path fill="none" stroke="midnightblue" d="M537.83,-276.46C457.62,-268.67 319.07,-253.5 201.5,-232 198.44,-231.44 195.31,-230.82 192.15,-230.17"/>
<polygon fill="midnightblue" stroke="midnightblue" points="537.51,-279.95 547.8,-277.42 538.18,-272.98 537.51,-279.95"/>
</g>
<!-- Node10 -->
<g id="node10" class="node">
<title>Node10</title>
<g id="a_node10"><a xlink:href="_game_logic_2_squad_2_action_8cpp.html" target="_top" xlink:title=" ">
<polygon fill="white" stroke="black" points="1172.5,-201.5 1172.5,-231.5 1286.5,-231.5 1286.5,-201.5 1172.5,-201.5"/>
<text text-anchor="start" x="1180.5" y="-219.5" font-family="Helvetica,sans-Serif" font-size="10.00">src/GameLogic/Squad</text>
<text text-anchor="middle" x="1229.5" y="-208.5" font-family="Helvetica,sans-Serif" font-size="10.00">/Action.cpp</text>
</a>
</g>
</g>
<!-- Node9&#45;&gt;Node10 -->
<g id="edge10" class="edge">
<title>Node9&#45;&gt;Node10</title>
<path fill="none" stroke="midnightblue" d="M1273.41,-392.27C1262.86,-350.29 1241.52,-265.33 1233.06,-231.68"/>
<polygon fill="midnightblue" stroke="midnightblue" points="1270.07,-393.34 1275.9,-402.19 1276.86,-391.64 1270.07,-393.34"/>
</g>
<!-- Node9&#45;&gt;Node11 -->
<g id="edge11" class="edge">
<title>Node9&#45;&gt;Node11</title>
<path fill="none" stroke="midnightblue" d="M1242.85,-397.3C1225.88,-387.12 1206.61,-374.85 1193.13,-365.58"/>
<polygon fill="midnightblue" stroke="midnightblue" points="1241.08,-400.32 1251.47,-402.4 1244.65,-394.29 1241.08,-400.32"/>
</g>
<!-- Node11&#45;&gt;Node3 -->
<g id="edge14" class="edge">
<title>Node11&#45;&gt;Node3</title>
<path fill="none" stroke="midnightblue" d="M1186.75,-375.41C1191.67,-393.28 1198.68,-417.24 1213.5,-433 1234.23,-455.04 1266.02,-467.78 1290.71,-474.95"/>
<polygon fill="midnightblue" stroke="midnightblue" points="1190.1,-374.4 1184.05,-365.7 1183.36,-376.27 1190.1,-374.4"/>
</g>
<!-- Node11&#45;&gt;Node6 -->
<g id="edge13" class="edge">
<title>Node11&#45;&gt;Node6</title>
<path fill="none" stroke="midnightblue" d="M1100.7,-344.8C1001.26,-337.99 821.54,-323.44 669.5,-299 666.76,-298.56 663.96,-298.07 661.14,-297.56"/>
<polygon fill="midnightblue" stroke="midnightblue" points="1100.73,-348.31 1110.95,-345.5 1101.21,-341.33 1100.73,-348.31"/>
</g>
<!-- Node11&#45;&gt;Node9 -->
<g id="edge15" class="edge">
<title>Node11&#45;&gt;Node9</title>
<path fill="none" stroke="midnightblue" d="M1213.1,-370.67C1230.07,-380.84 1249.33,-393.11 1262.83,-402.4"/>
<polygon fill="midnightblue" stroke="midnightblue" points="1214.87,-367.65 1204.48,-365.58 1211.31,-373.68 1214.87,-367.65"/>
</g>
<!-- Node12 -->
<g id="node12" class="node">
<title>Node12</title>
<g id="a_node12"><a xlink:href="_squad_8cpp.html" target="_top" xlink:title=" ">
<polygon fill="white" stroke="black" points="1333.5,-67.5 1333.5,-97.5 1447.5,-97.5 1447.5,-67.5 1333.5,-67.5"/>
<text text-anchor="start" x="1341.5" y="-85.5" font-family="Helvetica,sans-Serif" font-size="10.00">src/GameLogic/Squad</text>
<text text-anchor="middle" x="1390.5" y="-74.5" font-family="Helvetica,sans-Serif" font-size="10.00">/Squad.cpp</text>
</a>
</g>
</g>
<!-- Node11&#45;&gt;Node12 -->
<g id="edge12" class="edge">
<title>Node11&#45;&gt;Node12</title>
<path fill="none" stroke="midnightblue" d="M1201.27,-328.68C1238.03,-296.7 1307.31,-232.12 1350.5,-165 1364.91,-142.6 1377.73,-114.26 1384.78,-97.58"/>
<polygon fill="midnightblue" stroke="midnightblue" points="1198.81,-326.18 1193.52,-335.36 1203.38,-331.49 1198.81,-326.18"/>
</g>
<!-- Node13 -->
<g id="node13" class="node">
<title>Node13</title>
<g id="a_node13"><a xlink:href="_unit_8h.html" target="_top" xlink:title=" ">
<polygon fill="white" stroke="black" points="679,-268.5 679,-298.5 806,-298.5 806,-268.5 679,-268.5"/>
<text text-anchor="start" x="687" y="-286.5" font-family="Helvetica,sans-Serif" font-size="10.00">include/GameLogic/Units</text>
<text text-anchor="middle" x="742.5" y="-275.5" font-family="Helvetica,sans-Serif" font-size="10.00">/Unit.h</text>
</a>
</g>
</g>
<!-- Node11&#45;&gt;Node13 -->
<g id="edge16" class="edge">
<title>Node11&#45;&gt;Node13</title>
<path fill="none" stroke="midnightblue" d="M1100.9,-338.95C1017.36,-326.76 884.41,-306.85 806.03,-294.78"/>
<polygon fill="midnightblue" stroke="midnightblue" points="1100.44,-342.42 1110.84,-340.39 1101.45,-335.49 1100.44,-342.42"/>
</g>
<!-- Node11&#45;&gt;Node38 -->
<g id="edge59" class="edge">
<title>Node11&#45;&gt;Node38</title>
<path fill="none" stroke="midnightblue" d="M1233.73,-332.59C1276.7,-319.9 1333.74,-303.04 1367.63,-293.03"/>
<polygon fill="midnightblue" stroke="midnightblue" points="1232.56,-329.29 1223.97,-335.48 1234.55,-336 1232.56,-329.29"/>
</g>
<!-- Node13&#45;&gt;Node11 -->
<g id="edge18" class="edge">
<title>Node13&#45;&gt;Node11</title>
<path fill="none" stroke="midnightblue" d="M816.2,-294.78C898.9,-306.83 1031.72,-326.72 1110.95,-338.91"/>
<polygon fill="midnightblue" stroke="midnightblue" points="816.52,-291.29 806.12,-293.31 815.51,-298.21 816.52,-291.29"/>
</g>
<!-- Node14 -->
<g id="node14" class="node">
<title>Node14</title>
<g id="a_node14"><a xlink:href="_unit_8cpp.html" target="_top" xlink:title=" ">
<polygon fill="white" stroke="black" points="277.5,-134.5 277.5,-164.5 387.5,-164.5 387.5,-134.5 277.5,-134.5"/>
<text text-anchor="start" x="285.5" y="-152.5" font-family="Helvetica,sans-Serif" font-size="10.00">src/GameLogic/Units</text>
<text text-anchor="middle" x="332.5" y="-141.5" font-family="Helvetica,sans-Serif" font-size="10.00">/Unit.cpp</text>
</a>
</g>
</g>
<!-- Node13&#45;&gt;Node14 -->
<g id="edge17" class="edge">
<title>Node13&#45;&gt;Node14</title>
<path fill="none" stroke="midnightblue" d="M668.96,-266.34C624.38,-255.91 572.23,-242.4 551.5,-232 531.71,-222.07 532.22,-211.08 512.5,-201 490.75,-189.88 432.37,-174.38 387.93,-163.5"/>
<polygon fill="midnightblue" stroke="midnightblue" points="668.4,-269.8 678.93,-268.65 669.98,-262.98 668.4,-269.8"/>
</g>
<!-- Node15 -->
<g id="node15" class="node">
<title>Node15</title>
<g id="a_node15"><a xlink:href="_squad_order_8h.html" target="_top" xlink:title=" ">
<polygon fill="white" stroke="black" points="0,-134.5 0,-164.5 131,-164.5 131,-134.5 0,-134.5"/>
<text text-anchor="start" x="8" y="-152.5" font-family="Helvetica,sans-Serif" font-size="10.00">include/GameLogic/Squad</text>
<text text-anchor="middle" x="65.5" y="-141.5" font-family="Helvetica,sans-Serif" font-size="10.00">/SquadOrder.h</text>
</a>
</g>
</g>
<!-- Node13&#45;&gt;Node15 -->
<g id="edge19" class="edge">
<title>Node13&#45;&gt;Node15</title>
<path fill="none" stroke="midnightblue" d="M668.56,-268C533.8,-248.62 488.89,-283.53 367.5,-232 347.44,-223.48 349.25,-210.21 329.5,-201 252,-164.87 224.48,-181.12 140.5,-165 137.5,-164.43 134.44,-163.84 131.35,-163.24"/>
<polygon fill="midnightblue" stroke="midnightblue" points="668.44,-271.52 678.85,-269.56 669.49,-264.6 668.44,-271.52"/>
</g>
<!-- Node17 -->
<g id="node17" class="node">
<title>Node17</title>
<g id="a_node17"><a xlink:href="_armored_unit_8h.html" target="_top" xlink:title=" ">
<polygon fill="white" stroke="black" points="679,-134.5 679,-164.5 806,-164.5 806,-134.5 679,-134.5"/>
<text text-anchor="start" x="687" y="-152.5" font-family="Helvetica,sans-Serif" font-size="10.00">include/GameLogic/Units</text>
<text text-anchor="middle" x="742.5" y="-141.5" font-family="Helvetica,sans-Serif" font-size="10.00">/ArmoredUnit.h</text>
</a>
</g>
</g>
<!-- Node13&#45;&gt;Node17 -->
<g id="edge21" class="edge">
<title>Node13&#45;&gt;Node17</title>
<path fill="none" stroke="midnightblue" d="M742.5,-258.02C742.5,-230.51 742.5,-186.79 742.5,-164.52"/>
<polygon fill="midnightblue" stroke="midnightblue" points="739,-258.37 742.5,-268.37 746,-258.37 739,-258.37"/>
</g>
<!-- Node13&#45;&gt;Node22 -->
<g id="edge26" class="edge">
<title>Node13&#45;&gt;Node22</title>
<path fill="none" stroke="midnightblue" d="M816.51,-268.68C878.96,-257.01 967.43,-240.49 1026.78,-229.4"/>
<polygon fill="midnightblue" stroke="midnightblue" points="815.52,-265.3 806.33,-270.58 816.8,-272.18 815.52,-265.3"/>
</g>
<!-- Node32 -->
<g id="node32" class="node">
<title>Node32</title>
<g id="a_node32"><a xlink:href="_land_unit_8h.html" target="_top" xlink:title=" ">
<polygon fill="white" stroke="black" points="561,-201.5 561,-231.5 688,-231.5 688,-201.5 561,-201.5"/>
<text text-anchor="start" x="569" y="-219.5" font-family="Helvetica,sans-Serif" font-size="10.00">include/GameLogic/Units</text>
<text text-anchor="middle" x="624.5" y="-208.5" font-family="Helvetica,sans-Serif" font-size="10.00">/LandUnit.h</text>
</a>
</g>
</g>
<!-- Node13&#45;&gt;Node32 -->
<g id="edge47" class="edge">
<title>Node13&#45;&gt;Node32</title>
<path fill="none" stroke="midnightblue" d="M707.89,-263.44C689.38,-253.24 666.98,-240.9 650.05,-231.58"/>
<polygon fill="midnightblue" stroke="midnightblue" points="706.45,-266.64 716.9,-268.4 709.83,-260.51 706.45,-266.64"/>
</g>
<!-- Node34 -->
<g id="node34" class="node">
<title>Node34</title>
<g id="a_node34"><a xlink:href="_transport_unit_8h.html" target="_top" xlink:title=" ">
<polygon fill="white" stroke="black" points="794,-201.5 794,-231.5 921,-231.5 921,-201.5 794,-201.5"/>
<text text-anchor="start" x="802" y="-219.5" font-family="Helvetica,sans-Serif" font-size="10.00">include/GameLogic/Units</text>
<text text-anchor="middle" x="857.5" y="-208.5" font-family="Helvetica,sans-Serif" font-size="10.00">/TransportUnit.h</text>
</a>
</g>
</g>
<!-- Node13&#45;&gt;Node34 -->
<g id="edge50" class="edge">
<title>Node13&#45;&gt;Node34</title>
<path fill="none" stroke="midnightblue" d="M776.48,-263.3C794.47,-253.12 816.18,-240.85 832.6,-231.58"/>
<polygon fill="midnightblue" stroke="midnightblue" points="774.44,-260.43 767.45,-268.4 777.88,-266.52 774.44,-260.43"/>
</g>
<!-- Node36 -->
<g id="node36" class="node">
<title>Node36</title>
<g id="a_node36"><a xlink:href="_unit_order_8h.html" target="_top" xlink:title=" ">
<polygon fill="white" stroke="black" points="377,-201.5 377,-231.5 504,-231.5 504,-201.5 377,-201.5"/>
<text text-anchor="start" x="385" y="-219.5" font-family="Helvetica,sans-Serif" font-size="10.00">include/GameLogic/Units</text>
<text text-anchor="middle" x="440.5" y="-208.5" font-family="Helvetica,sans-Serif" font-size="10.00">/UnitOrder.h</text>
</a>
</g>
</g>
<!-- Node13&#45;&gt;Node36 -->
<g id="edge54" class="edge">
<title>Node13&#45;&gt;Node36</title>
<path fill="none" stroke="midnightblue" d="M668.99,-267.91C617.07,-257.03 548.44,-242.26 499.96,-231.52"/>
<polygon fill="midnightblue" stroke="midnightblue" points="668.31,-271.35 678.81,-269.97 669.74,-264.5 668.31,-271.35"/>
</g>
<!-- Node16 -->
<g id="node16" class="node">
<title>Node16</title>
<g id="a_node16"><a xlink:href="_squad_order_8cpp.html" target="_top" xlink:title=" ">
<polygon fill="white" stroke="black" points="8.5,-67.5 8.5,-97.5 122.5,-97.5 122.5,-67.5 8.5,-67.5"/>
<text text-anchor="start" x="16.5" y="-85.5" font-family="Helvetica,sans-Serif" font-size="10.00">src/GameLogic/Squad</text>
<text text-anchor="middle" x="65.5" y="-74.5" font-family="Helvetica,sans-Serif" font-size="10.00">/SquadOrder.cpp</text>
</a>
</g>
</g>
<!-- Node15&#45;&gt;Node16 -->
<g id="edge20" class="edge">
<title>Node15&#45;&gt;Node16</title>
<path fill="none" stroke="midnightblue" d="M65.5,-124.11C65.5,-115.15 65.5,-105.32 65.5,-97.58"/>
<polygon fill="midnightblue" stroke="midnightblue" points="62,-124.4 65.5,-134.4 69,-124.4 62,-124.4"/>
</g>
<!-- Node18 -->
<g id="node18" class="node">
<title>Node18</title>
<g id="a_node18"><a xlink:href="_armored_unit_8cpp.html" target="_top" xlink:title=" ">
<polygon fill="white" stroke="black" points="709.5,-67.5 709.5,-97.5 819.5,-97.5 819.5,-67.5 709.5,-67.5"/>
<text text-anchor="start" x="717.5" y="-85.5" font-family="Helvetica,sans-Serif" font-size="10.00">src/GameLogic/Units</text>
<text text-anchor="middle" x="764.5" y="-74.5" font-family="Helvetica,sans-Serif" font-size="10.00">/ArmoredUnit.cpp</text>
</a>
</g>
</g>
<!-- Node17&#45;&gt;Node18 -->
<g id="edge22" class="edge">
<title>Node17&#45;&gt;Node18</title>
<path fill="none" stroke="midnightblue" d="M750.56,-124.7C753.64,-115.59 757.06,-105.49 759.74,-97.58"/>
<polygon fill="midnightblue" stroke="midnightblue" points="747.16,-123.8 747.27,-134.4 753.79,-126.05 747.16,-123.8"/>
</g>
<!-- Node19 -->
<g id="node19" class="node">
<title>Node19</title>
<g id="a_node19"><a xlink:href="_armored_unit_factory_8h.html" target="_top" xlink:title=" ">
<polygon fill="white" stroke="black" points="1045,-67.5 1045,-97.5 1172,-97.5 1172,-67.5 1045,-67.5"/>
<text text-anchor="start" x="1053" y="-85.5" font-family="Helvetica,sans-Serif" font-size="10.00">include/GameLogic/Units</text>
<text text-anchor="middle" x="1108.5" y="-74.5" font-family="Helvetica,sans-Serif" font-size="10.00">/ArmoredUnitFactory.h</text>
</a>
</g>
</g>
<!-- Node17&#45;&gt;Node19 -->
<g id="edge23" class="edge">
<title>Node17&#45;&gt;Node19</title>
<path fill="none" stroke="midnightblue" d="M816.02,-133.93C901.14,-118.22 987.77,-103.51 1044.97,-93.97"/>
<polygon fill="midnightblue" stroke="midnightblue" points="815.38,-130.49 806.18,-135.75 816.65,-137.37 815.38,-130.49"/>
</g>
<!-- Node20 -->
<g id="node20" class="node">
<title>Node20</title>
<g id="a_node20"><a xlink:href="_all_units_8cpp.html" target="_top" xlink:title=" ">
<polygon fill="white" stroke="black" points="961.5,-0.5 961.5,-30.5 1071.5,-30.5 1071.5,-0.5 961.5,-0.5"/>
<text text-anchor="start" x="969.5" y="-18.5" font-family="Helvetica,sans-Serif" font-size="10.00">src/GameLogic/Units</text>
<text text-anchor="middle" x="1016.5" y="-7.5" font-family="Helvetica,sans-Serif" font-size="10.00">/AllUnits.cpp</text>
</a>
</g>
</g>
<!-- Node19&#45;&gt;Node20 -->
<g id="edge24" class="edge">
<title>Node19&#45;&gt;Node20</title>
<path fill="none" stroke="midnightblue" d="M1080.12,-61.45C1065.97,-51.45 1049.19,-39.6 1036.42,-30.58"/>
<polygon fill="midnightblue" stroke="midnightblue" points="1078.35,-64.48 1088.54,-67.4 1082.39,-58.77 1078.35,-64.48"/>
</g>
<!-- Node21 -->
<g id="node21" class="node">
<title>Node21</title>
<g id="a_node21"><a xlink:href="_armored_unit_factory_8cpp.html" target="_top" xlink:title=" ">
<polygon fill="white" stroke="black" points="1090,-0.5 1090,-30.5 1215,-30.5 1215,-0.5 1090,-0.5"/>
<text text-anchor="start" x="1098" y="-18.5" font-family="Helvetica,sans-Serif" font-size="10.00">src/GameLogic/Units</text>
<text text-anchor="middle" x="1152.5" y="-7.5" font-family="Helvetica,sans-Serif" font-size="10.00">/ArmoredUnitFactory.cpp</text>
</a>
</g>
</g>
<!-- Node19&#45;&gt;Node21 -->
<g id="edge25" class="edge">
<title>Node19&#45;&gt;Node21</title>
<path fill="none" stroke="midnightblue" d="M1123.82,-58.87C1130.19,-49.46 1137.38,-38.83 1142.97,-30.58"/>
<polygon fill="midnightblue" stroke="midnightblue" points="1120.75,-57.15 1118.05,-67.4 1126.55,-61.08 1120.75,-57.15"/>
</g>
<!-- Node22&#45;&gt;Node19 -->
<g id="edge39" class="edge">
<title>Node22&#45;&gt;Node19</title>
<path fill="none" stroke="midnightblue" d="M1164.46,-200.57C1234.8,-186.29 1330.14,-166.67 1331.5,-165 1377.5,-108.37 1253.28,-91.09 1172.24,-85.81"/>
<polygon fill="midnightblue" stroke="midnightblue" points="1163.38,-197.22 1154.28,-202.64 1164.77,-204.08 1163.38,-197.22"/>
</g>
<!-- Node23 -->
<g id="node23" class="node">
<title>Node23</title>
<g id="a_node23"><a xlink:href="_spawn_action_8cpp.html" target="_top" xlink:title=" ">
<polygon fill="white" stroke="black" points="1098.5,-134.5 1098.5,-164.5 1194.5,-164.5 1194.5,-134.5 1098.5,-134.5"/>
<text text-anchor="start" x="1106.5" y="-152.5" font-family="Helvetica,sans-Serif" font-size="10.00">src/engine/actions</text>
<text text-anchor="middle" x="1146.5" y="-141.5" font-family="Helvetica,sans-Serif" font-size="10.00">/SpawnAction.cpp</text>
</a>
</g>
</g>
<!-- Node22&#45;&gt;Node23 -->
<g id="edge27" class="edge">
<title>Node22&#45;&gt;Node23</title>
<path fill="none" stroke="midnightblue" d="M1109.25,-193.74C1117.54,-184.12 1127.04,-173.09 1134.37,-164.58"/>
<polygon fill="midnightblue" stroke="midnightblue" points="1106.53,-191.54 1102.65,-201.4 1111.83,-196.1 1106.53,-191.54"/>
</g>
<!-- Node24 -->
<g id="node24" class="node">
<title>Node24</title>
<g id="a_node24"><a xlink:href="_factory_8cpp.html" target="_top" xlink:title=" ">
<polygon fill="white" stroke="black" points="1212.5,-134.5 1212.5,-164.5 1322.5,-164.5 1322.5,-134.5 1212.5,-134.5"/>
<text text-anchor="start" x="1220.5" y="-152.5" font-family="Helvetica,sans-Serif" font-size="10.00">src/GameLogic/Units</text>
<text text-anchor="middle" x="1267.5" y="-141.5" font-family="Helvetica,sans-Serif" font-size="10.00">/Factory.cpp</text>
</a>
</g>
</g>
<!-- Node22&#45;&gt;Node24 -->
<g id="edge28" class="edge">
<title>Node22&#45;&gt;Node24</title>
<path fill="none" stroke="midnightblue" d="M1138.65,-197.82C1167.1,-187.37 1202.63,-174.32 1229.17,-164.58"/>
<polygon fill="midnightblue" stroke="midnightblue" points="1137.09,-194.66 1128.91,-201.4 1139.5,-201.23 1137.09,-194.66"/>
</g>
<!-- Node25 -->
<g id="node25" class="node">
<title>Node25</title>
<g id="a_node25"><a xlink:href="_squad_template_8h.html" target="_top" xlink:title=" ">
<polygon fill="white" stroke="black" points="1562,-134.5 1562,-164.5 1693,-164.5 1693,-134.5 1562,-134.5"/>
<text text-anchor="start" x="1570" y="-152.5" font-family="Helvetica,sans-Serif" font-size="10.00">include/GameLogic/Squad</text>
<text text-anchor="middle" x="1627.5" y="-141.5" font-family="Helvetica,sans-Serif" font-size="10.00">/SquadTemplate.h</text>
</a>
</g>
</g>
<!-- Node22&#45;&gt;Node25 -->
<g id="edge29" class="edge">
<title>Node22&#45;&gt;Node25</title>
<path fill="none" stroke="midnightblue" d="M1164.11,-201.02C1337.5,-176.51 1384.4,-189.31 1553.5,-165 1556.22,-164.61 1558.99,-164.18 1561.79,-163.73"/>
<polygon fill="midnightblue" stroke="midnightblue" points="1163.54,-197.57 1154.13,-202.46 1164.53,-204.5 1163.54,-197.57"/>
</g>
<!-- Node27 -->
<g id="node27" class="node">
<title>Node27</title>
<g id="a_node27"><a xlink:href="_all_units_8h.html" target="_top" xlink:title=" ">
<polygon fill="white" stroke="black" points="1417,-134.5 1417,-164.5 1544,-164.5 1544,-134.5 1417,-134.5"/>
<text text-anchor="start" x="1425" y="-152.5" font-family="Helvetica,sans-Serif" font-size="10.00">include/GameLogic/Units</text>
<text text-anchor="middle" x="1480.5" y="-141.5" font-family="Helvetica,sans-Serif" font-size="10.00">/AllUnits.h</text>
</a>
</g>
</g>
<!-- Node22&#45;&gt;Node27 -->
<g id="edge32" class="edge">
<title>Node22&#45;&gt;Node27</title>
<path fill="none" stroke="midnightblue" d="M1164.13,-200.93C1258.04,-184.25 1355.03,-169.22 1416.93,-159.9"/>
<polygon fill="midnightblue" stroke="midnightblue" points="1163.4,-197.5 1154.17,-202.7 1164.63,-204.39 1163.4,-197.5"/>
</g>
<!-- Node28 -->
<g id="node28" class="node">
<title>Node28</title>
<g id="a_node28"><a xlink:href="_land_unit_factory_8h.html" target="_top" xlink:title=" ">
<polygon fill="white" stroke="black" points="534,-134.5 534,-164.5 661,-164.5 661,-134.5 534,-134.5"/>
<text text-anchor="start" x="542" y="-152.5" font-family="Helvetica,sans-Serif" font-size="10.00">include/GameLogic/Units</text>
<text text-anchor="middle" x="597.5" y="-141.5" font-family="Helvetica,sans-Serif" font-size="10.00">/LandUnitFactory.h</text>
</a>
</g>
</g>
<!-- Node22&#45;&gt;Node28 -->
<g id="edge40" class="edge">
<title>Node22&#45;&gt;Node28</title>
<path fill="none" stroke="midnightblue" d="M1016.82,-208.45C932.59,-199.98 790.68,-184.44 669.5,-165 666.73,-164.56 663.9,-164.08 661.05,-163.58"/>
<polygon fill="midnightblue" stroke="midnightblue" points="1016.5,-211.94 1026.8,-209.45 1017.2,-204.97 1016.5,-211.94"/>
</g>
<!-- Node30 -->
<g id="node30" class="node">
<title>Node30</title>
<g id="a_node30"><a xlink:href="_transport_unit_factory_8h.html" target="_top" xlink:title=" ">
<polygon fill="white" stroke="black" points="953,-134.5 953,-164.5 1080,-164.5 1080,-134.5 953,-134.5"/>
<text text-anchor="start" x="961" y="-152.5" font-family="Helvetica,sans-Serif" font-size="10.00">include/GameLogic/Units</text>
<text text-anchor="middle" x="1016.5" y="-141.5" font-family="Helvetica,sans-Serif" font-size="10.00">/TransportUnitFactory.h</text>
</a>
</g>
</g>
<!-- Node22&#45;&gt;Node30 -->
<g id="edge43" class="edge">
<title>Node22&#45;&gt;Node30</title>
<path fill="none" stroke="midnightblue" d="M1066.7,-194.6C1055.53,-184.78 1042.51,-173.34 1032.53,-164.58"/>
<polygon fill="midnightblue" stroke="midnightblue" points="1064.62,-197.43 1074.44,-201.4 1069.24,-192.17 1064.62,-197.43"/>
</g>
<!-- Node25&#45;&gt;Node1 -->
<g id="edge31" class="edge">
<title>Node25&#45;&gt;Node1</title>
<path fill="none" stroke="midnightblue" d="M1627.5,-175.01C1627.5,-201.51 1627.5,-245 1627.5,-282.5 1627.5,-418.5 1627.5,-418.5 1627.5,-418.5 1627.5,-477.44 1561.21,-516.89 1517.97,-536.34"/>
<polygon fill="midnightblue" stroke="midnightblue" points="1631,-174.76 1627.5,-164.76 1624,-174.76 1631,-174.76"/>
</g>
<!-- Node26 -->
<g id="node26" class="node">
<title>Node26</title>
<g id="a_node26"><a xlink:href="_squad_template_8cpp.html" target="_top" xlink:title=" ">
<polygon fill="white" stroke="black" points="1530.5,-67.5 1530.5,-97.5 1644.5,-97.5 1644.5,-67.5 1530.5,-67.5"/>
<text text-anchor="start" x="1538.5" y="-85.5" font-family="Helvetica,sans-Serif" font-size="10.00">src/GameLogic/Squad</text>
<text text-anchor="middle" x="1587.5" y="-74.5" font-family="Helvetica,sans-Serif" font-size="10.00">/SquadTemplate.cpp</text>
</a>
</g>
</g>
<!-- Node25&#45;&gt;Node26 -->
<g id="edge30" class="edge">
<title>Node25&#45;&gt;Node26</title>
<path fill="none" stroke="midnightblue" d="M1613.57,-125.87C1607.78,-116.46 1601.24,-105.83 1596.16,-97.58"/>
<polygon fill="midnightblue" stroke="midnightblue" points="1610.6,-127.71 1618.82,-134.4 1616.56,-124.05 1610.6,-127.71"/>
</g>
<!-- Node27&#45;&gt;Node1 -->
<g id="edge38" class="edge">
<title>Node27&#45;&gt;Node1</title>
<path fill="none" stroke="midnightblue" d="M1512.16,-170.18C1544.34,-192.91 1589.5,-233.53 1589.5,-282.5 1589.5,-418.5 1589.5,-418.5 1589.5,-418.5 1589.5,-471.65 1536.4,-515.16 1504.67,-536.42"/>
<polygon fill="midnightblue" stroke="midnightblue" points="1514.11,-167.28 1503.88,-164.53 1510.16,-173.06 1514.11,-167.28"/>
</g>
<!-- Node27&#45;&gt;Node3 -->
<g id="edge37" class="edge">
<title>Node27&#45;&gt;Node3</title>
<path fill="none" stroke="midnightblue" d="M1481.68,-174.91C1482.32,-205.03 1480.75,-257.36 1465.5,-299 1436.81,-377.33 1362.98,-450.17 1336.3,-474.73"/>
<polygon fill="midnightblue" stroke="midnightblue" points="1485.16,-174.41 1481.35,-164.52 1478.17,-174.63 1485.16,-174.41"/>
</g>
<!-- Node27&#45;&gt;Node5 -->
<g id="edge36" class="edge">
<title>Node27&#45;&gt;Node5</title>
<path fill="none" stroke="midnightblue" d="M1539.77,-131.75C1584.75,-119.04 1644.74,-102.09 1680.32,-92.03"/>
<polygon fill="midnightblue" stroke="midnightblue" points="1538.79,-128.39 1530.12,-134.48 1540.7,-135.12 1538.79,-128.39"/>
</g>
<!-- Node27&#45;&gt;Node12 -->
<g id="edge33" class="edge">
<title>Node27&#45;&gt;Node12</title>
<path fill="none" stroke="midnightblue" d="M1452.74,-128.45C1438.89,-118.45 1422.48,-106.6 1409.99,-97.58"/>
<polygon fill="midnightblue" stroke="midnightblue" points="1450.82,-131.38 1460.97,-134.4 1454.91,-125.7 1450.82,-131.38"/>
</g>
<!-- Node27&#45;&gt;Node20 -->
<g id="edge35" class="edge">
<title>Node27&#45;&gt;Node20</title>
<path fill="none" stroke="midnightblue" d="M1480.25,-124.31C1478.66,-105.67 1473.24,-80.81 1456.5,-67 1391.76,-13.57 1163.38,-44.3 1080.5,-31 1077.58,-30.53 1074.58,-30.01 1071.57,-29.45"/>
<polygon fill="midnightblue" stroke="midnightblue" points="1476.76,-124.64 1480.8,-134.44 1483.75,-124.26 1476.76,-124.64"/>
</g>
<!-- Node27&#45;&gt;Node26 -->
<g id="edge34" class="edge">
<title>Node27&#45;&gt;Node26</title>
<path fill="none" stroke="midnightblue" d="M1512.58,-129.02C1529.23,-118.9 1549.19,-106.77 1564.33,-97.58"/>
<polygon fill="midnightblue" stroke="midnightblue" points="1510.45,-126.21 1503.72,-134.4 1514.08,-132.2 1510.45,-126.21"/>
</g>
<!-- Node28&#45;&gt;Node20 -->
<g id="edge41" class="edge">
<title>Node28&#45;&gt;Node20</title>
<path fill="none" stroke="midnightblue" d="M579.96,-125.7C568.45,-107.8 557.98,-83.27 572.5,-67 597.98,-38.46 847.79,-23.92 961.11,-18.75"/>
<polygon fill="midnightblue" stroke="midnightblue" points="577.38,-128.13 585.94,-134.38 583.15,-124.16 577.38,-128.13"/>
</g>
<!-- Node29 -->
<g id="node29" class="node">
<title>Node29</title>
<g id="a_node29"><a xlink:href="_land_unit_factory_8cpp.html" target="_top" xlink:title=" ">
<polygon fill="white" stroke="black" points="581.5,-67.5 581.5,-97.5 691.5,-97.5 691.5,-67.5 581.5,-67.5"/>
<text text-anchor="start" x="589.5" y="-85.5" font-family="Helvetica,sans-Serif" font-size="10.00">src/GameLogic/Units</text>
<text text-anchor="middle" x="636.5" y="-74.5" font-family="Helvetica,sans-Serif" font-size="10.00">/LandUnitFactory.cpp</text>
</a>
</g>
</g>
<!-- Node28&#45;&gt;Node29 -->
<g id="edge42" class="edge">
<title>Node28&#45;&gt;Node29</title>
<path fill="none" stroke="midnightblue" d="M611.25,-125.58C616.86,-116.24 623.15,-105.75 628.05,-97.58"/>
<polygon fill="midnightblue" stroke="midnightblue" points="608.11,-124.02 605.96,-134.4 614.11,-127.62 608.11,-124.02"/>
</g>
<!-- Node30&#45;&gt;Node19 -->
<g id="edge46" class="edge">
<title>Node30&#45;&gt;Node19</title>
<path fill="none" stroke="midnightblue" d="M1044.88,-128.45C1059.03,-118.45 1075.81,-106.6 1088.58,-97.58"/>
<polygon fill="midnightblue" stroke="midnightblue" points="1042.61,-125.77 1036.46,-134.4 1046.65,-131.48 1042.61,-125.77"/>
</g>
<!-- Node30&#45;&gt;Node20 -->
<g id="edge44" class="edge">
<title>Node30&#45;&gt;Node20</title>
<path fill="none" stroke="midnightblue" d="M1016.5,-124.02C1016.5,-96.51 1016.5,-52.79 1016.5,-30.52"/>
<polygon fill="midnightblue" stroke="midnightblue" points="1013,-124.37 1016.5,-134.37 1020,-124.37 1013,-124.37"/>
</g>
<!-- Node31 -->
<g id="node31" class="node">
<title>Node31</title>
<g id="a_node31"><a xlink:href="_transport_unit_factory_8cpp.html" target="_top" xlink:title=" ">
<polygon fill="white" stroke="black" points="859,-67.5 859,-97.5 988,-97.5 988,-67.5 859,-67.5"/>
<text text-anchor="start" x="867" y="-85.5" font-family="Helvetica,sans-Serif" font-size="10.00">src/GameLogic/Units</text>
<text text-anchor="middle" x="923.5" y="-74.5" font-family="Helvetica,sans-Serif" font-size="10.00">/TransportUnitFactory.cpp</text>
</a>
</g>
</g>
<!-- Node30&#45;&gt;Node31 -->
<g id="edge45" class="edge">
<title>Node30&#45;&gt;Node31</title>
<path fill="none" stroke="midnightblue" d="M987.81,-128.45C973.51,-118.45 956.55,-106.6 943.64,-97.58"/>
<polygon fill="midnightblue" stroke="midnightblue" points="986.12,-131.54 996.32,-134.4 990.13,-125.8 986.12,-131.54"/>
</g>
<!-- Node32&#45;&gt;Node28 -->
<g id="edge49" class="edge">
<title>Node32&#45;&gt;Node28</title>
<path fill="none" stroke="midnightblue" d="M614.73,-191.99C610.92,-182.8 606.67,-172.58 603.35,-164.58"/>
<polygon fill="midnightblue" stroke="midnightblue" points="611.57,-193.5 618.64,-201.4 618.04,-190.82 611.57,-193.5"/>
</g>
<!-- Node33 -->
<g id="node33" class="node">
<title>Node33</title>
<g id="a_node33"><a xlink:href="_land_unit_8cpp.html" target="_top" xlink:title=" ">
<polygon fill="white" stroke="black" points="405.5,-134.5 405.5,-164.5 515.5,-164.5 515.5,-134.5 405.5,-134.5"/>
<text text-anchor="start" x="413.5" y="-152.5" font-family="Helvetica,sans-Serif" font-size="10.00">src/GameLogic/Units</text>
<text text-anchor="middle" x="460.5" y="-141.5" font-family="Helvetica,sans-Serif" font-size="10.00">/LandUnit.cpp</text>
</a>
</g>
</g>
<!-- Node32&#45;&gt;Node33 -->
<g id="edge48" class="edge">
<title>Node32&#45;&gt;Node33</title>
<path fill="none" stroke="midnightblue" d="M579.54,-197.68C553.24,-187.26 520.5,-174.28 496.02,-164.58"/>
<polygon fill="midnightblue" stroke="midnightblue" points="578.33,-200.97 588.91,-201.4 580.91,-194.46 578.33,-200.97"/>
</g>
<!-- Node34&#45;&gt;Node17 -->
<g id="edge52" class="edge">
<title>Node34&#45;&gt;Node17</title>
<path fill="none" stroke="midnightblue" d="M823.52,-196.3C805.53,-186.12 783.82,-173.85 767.4,-164.58"/>
<polygon fill="midnightblue" stroke="midnightblue" points="822.12,-199.52 832.55,-201.4 825.56,-193.43 822.12,-199.52"/>
</g>
<!-- Node34&#45;&gt;Node30 -->
<g id="edge53" class="edge">
<title>Node34&#45;&gt;Node30</title>
<path fill="none" stroke="midnightblue" d="M901.42,-197.54C926.87,-187.14 958.43,-174.24 982.07,-164.58"/>
<polygon fill="midnightblue" stroke="midnightblue" points="899.93,-194.37 892,-201.4 902.58,-200.85 899.93,-194.37"/>
</g>
<!-- Node35 -->
<g id="node35" class="node">
<title>Node35</title>
<g id="a_node35"><a xlink:href="_transport_unit_8cpp.html" target="_top" xlink:title=" ">
<polygon fill="white" stroke="black" points="824.5,-134.5 824.5,-164.5 934.5,-164.5 934.5,-134.5 824.5,-134.5"/>
<text text-anchor="start" x="832.5" y="-152.5" font-family="Helvetica,sans-Serif" font-size="10.00">src/GameLogic/Units</text>
<text text-anchor="middle" x="879.5" y="-141.5" font-family="Helvetica,sans-Serif" font-size="10.00">/TransportUnit.cpp</text>
</a>
</g>
</g>
<!-- Node34&#45;&gt;Node35 -->
<g id="edge51" class="edge">
<title>Node34&#45;&gt;Node35</title>
<path fill="none" stroke="midnightblue" d="M865.56,-191.7C868.64,-182.59 872.06,-172.49 874.74,-164.58"/>
<polygon fill="midnightblue" stroke="midnightblue" points="862.16,-190.8 862.27,-201.4 868.79,-193.05 862.16,-190.8"/>
</g>
<!-- Node36&#45;&gt;Node13 -->
<g id="edge58" class="edge">
<title>Node36&#45;&gt;Node13</title>
<path fill="none" stroke="midnightblue" d="M513.93,-232.07C565.85,-242.95 634.5,-257.73 683.01,-268.48"/>
<polygon fill="midnightblue" stroke="midnightblue" points="514.61,-228.64 504.11,-230.02 513.18,-235.49 514.61,-228.64"/>
</g>
<!-- Node36&#45;&gt;Node14 -->
<g id="edge55" class="edge">
<title>Node36&#45;&gt;Node14</title>
<path fill="none" stroke="midnightblue" d="M408.13,-196.02C391.32,-185.9 371.16,-173.77 355.89,-164.58"/>
<polygon fill="midnightblue" stroke="midnightblue" points="406.69,-199.24 417.07,-201.4 410.3,-193.24 406.69,-199.24"/>
</g>
<!-- Node36&#45;&gt;Node15 -->
<g id="edge57" class="edge">
<title>Node36&#45;&gt;Node15</title>
<path fill="none" stroke="midnightblue" d="M366.43,-201.69C365.11,-201.45 363.8,-201.23 362.5,-201 264.02,-183.86 238.91,-182.49 140.5,-165 137.5,-164.47 134.43,-163.91 131.33,-163.34"/>
<polygon fill="midnightblue" stroke="midnightblue" points="366.21,-205.2 376.67,-203.51 367.44,-198.31 366.21,-205.2"/>
</g>
<!-- Node37 -->
<g id="node37" class="node">
<title>Node37</title>
<g id="a_node37"><a xlink:href="_unit_order_8cpp.html" target="_top" xlink:title=" ">
<polygon fill="white" stroke="black" points="149.5,-134.5 149.5,-164.5 259.5,-164.5 259.5,-134.5 149.5,-134.5"/>
<text text-anchor="start" x="157.5" y="-152.5" font-family="Helvetica,sans-Serif" font-size="10.00">src/GameLogic/Units</text>
<text text-anchor="middle" x="204.5" y="-141.5" font-family="Helvetica,sans-Serif" font-size="10.00">/UnitOrder.cpp</text>
</a>
</g>
</g>
<!-- Node36&#45;&gt;Node37 -->
<g id="edge56" class="edge">
<title>Node36&#45;&gt;Node37</title>
<path fill="none" stroke="midnightblue" d="M379.56,-198.71C341.15,-188.14 292.13,-174.63 255.73,-164.61"/>
<polygon fill="midnightblue" stroke="midnightblue" points="379.01,-202.19 389.58,-201.48 380.87,-195.45 379.01,-202.19"/>
</g>
<!-- Node38&#45;&gt;Node10 -->
<g id="edge60" class="edge">
<title>Node38&#45;&gt;Node10</title>
<path fill="none" stroke="midnightblue" d="M1364.9,-270.2C1336.61,-259.19 1295.12,-243.04 1265.54,-231.53"/>
<polygon fill="midnightblue" stroke="midnightblue" points="1363.74,-273.5 1374.32,-273.87 1366.27,-266.98 1363.74,-273.5"/>
</g>
<!-- Node39 -->
<g id="node39" class="node">
<title>Node39</title>
<g id="a_node39"><a xlink:href="pathfinding_8cpp.html" target="_top" xlink:title=" ">
<polygon fill="white" stroke="black" points="1343,-207 1343,-226 1456,-226 1456,-207 1343,-207"/>
<text text-anchor="middle" x="1399.5" y="-214" font-family="Helvetica,sans-Serif" font-size="10.00">src/util/pathfinding.cpp</text>
</a>
</g>
</g>
<!-- Node38&#45;&gt;Node39 -->
<g id="edge61" class="edge">
<title>Node38&#45;&gt;Node39</title>
<path fill="none" stroke="midnightblue" d="M1397.38,-263.54C1397.95,-251.17 1398.66,-235.62 1399.1,-226.13"/>
<polygon fill="midnightblue" stroke="midnightblue" points="1393.87,-263.58 1396.9,-273.73 1400.86,-263.91 1393.87,-263.58"/>
</g>
</g>
</svg>
