<?xml version="1.0" encoding="UTF-8" standalone="no"?>
<!DOCTYPE svg PUBLIC "-//W3C//DTD SVG 1.1//EN"
 "http://www.w3.org/Graphics/SVG/1.1/DTD/svg11.dtd">
<!-- Generated by graphviz version 2.47.1 (20210421.1823)
 -->
<!-- Title: include/GameLogic/Units/AllUnits.h Pages: 1 -->
<svg width="1517pt" height="666pt"
 viewBox="0.00 0.00 1516.50 666.00" xmlns="http://www.w3.org/2000/svg" xmlns:xlink="http://www.w3.org/1999/xlink">
<g id="graph0" class="graph" transform="scale(1 1) rotate(0) translate(4 662)">
<title>include/GameLogic/Units/AllUnits.h</title>
<polygon fill="white" stroke="transparent" points="-4,4 -4,-662 1512.5,-662 1512.5,4 -4,4"/>
<!-- Node1 -->
<g id="node1" class="node">
<title>Node1</title>
<g id="a_node1"><a xlink:title=" ">
<polygon fill="#bfbfbf" stroke="black" points="795,-627.5 795,-657.5 922,-657.5 922,-627.5 795,-627.5"/>
<text text-anchor="start" x="803" y="-645.5" font-family="Helvetica,sans-Serif" font-size="10.00">include/GameLogic/Units</text>
<text text-anchor="middle" x="858.5" y="-634.5" font-family="Helvetica,sans-Serif" font-size="10.00">/AllUnits.h</text>
</a>
</g>
</g>
<!-- Node2 -->
<g id="node2" class="node">
<title>Node2</title>
<g id="a_node2"><a xlink:href="_factory_8h.html" target="_top" xlink:title=" ">
<polygon fill="white" stroke="black" points="1098.5,-571.5 1098.5,-590.5 1154.5,-590.5 1154.5,-571.5 1098.5,-571.5"/>
<text text-anchor="middle" x="1126.5" y="-578.5" font-family="Helvetica,sans-Serif" font-size="10.00">Factory.h</text>
</a>
</g>
</g>
<!-- Node1&#45;&gt;Node2 -->
<g id="edge1" class="edge">
<title>Node1&#45;&gt;Node2</title>
<path fill="none" stroke="midnightblue" d="M921.67,-627.47C973.54,-615.96 1045.26,-600.04 1088.63,-590.41"/>
<polygon fill="midnightblue" stroke="midnightblue" points="1089.48,-593.8 1098.48,-588.22 1087.96,-586.97 1089.48,-593.8"/>
</g>
<!-- Node3 -->
<g id="node3" class="node">
<title>Node3</title>
<g id="a_node3"><a xlink:title=" ">
<polygon fill="white" stroke="#bfbfbf" points="1318,-168.5 1318,-187.5 1359,-187.5 1359,-168.5 1318,-168.5"/>
<text text-anchor="middle" x="1338.5" y="-175.5" font-family="Helvetica,sans-Serif" font-size="10.00">string</text>
</a>
</g>
</g>
<!-- Node2&#45;&gt;Node3 -->
<g id="edge2" class="edge">
<title>Node2&#45;&gt;Node3</title>
<path fill="none" stroke="midnightblue" d="M1154.5,-578.47C1207.84,-574.92 1320.82,-564.06 1344.5,-535 1427.58,-433.02 1368.4,-254.62 1346.06,-197.29"/>
<polygon fill="midnightblue" stroke="midnightblue" points="1349.21,-195.75 1342.24,-187.77 1342.71,-198.35 1349.21,-195.75"/>
</g>
<!-- Node4 -->
<g id="node4" class="node">
<title>Node4</title>
<g id="a_node4"><a xlink:href="_cell_8h.html" target="_top" xlink:title=" ">
<polygon fill="white" stroke="black" points="838,-515.5 838,-534.5 879,-534.5 879,-515.5 838,-515.5"/>
<text text-anchor="middle" x="858.5" y="-522.5" font-family="Helvetica,sans-Serif" font-size="10.00">Cell.h</text>
</a>
</g>
</g>
<!-- Node2&#45;&gt;Node4 -->
<g id="edge3" class="edge">
<title>Node2&#45;&gt;Node4</title>
<path fill="none" stroke="midnightblue" d="M1098.33,-574.32C1047.66,-564.11 941.56,-542.74 889.15,-532.18"/>
<polygon fill="midnightblue" stroke="midnightblue" points="889.61,-528.7 879.12,-530.15 888.23,-535.56 889.61,-528.7"/>
</g>
<!-- Node8 -->
<g id="node8" class="node">
<title>Node8</title>
<g id="a_node8"><a xlink:href="game_object_8h.html" target="_top" xlink:title=" ">
<polygon fill="white" stroke="black" points="691,-168.5 691,-187.5 768,-187.5 768,-168.5 691,-168.5"/>
<text text-anchor="middle" x="729.5" y="-175.5" font-family="Helvetica,sans-Serif" font-size="10.00">gameObject.h</text>
</a>
</g>
</g>
<!-- Node2&#45;&gt;Node8 -->
<g id="edge88" class="edge">
<title>Node2&#45;&gt;Node8</title>
<path fill="none" stroke="midnightblue" d="M1141.78,-571.38C1173.73,-552.2 1242.59,-504.1 1216.5,-459 1203.04,-435.74 851.75,-244.97 754.34,-192.38"/>
<polygon fill="midnightblue" stroke="midnightblue" points="755.94,-189.27 745.47,-187.6 752.61,-195.43 755.94,-189.27"/>
</g>
<!-- Node24 -->
<g id="node24" class="node">
<title>Node24</title>
<g id="a_node24"><a xlink:href="_unit_8h.html" target="_top" xlink:title=" ">
<polygon fill="white" stroke="black" points="1085.5,-342 1085.5,-361 1207.5,-361 1207.5,-342 1085.5,-342"/>
<text text-anchor="middle" x="1146.5" y="-349" font-family="Helvetica,sans-Serif" font-size="10.00">GameLogic/Units/Unit.h</text>
</a>
</g>
</g>
<!-- Node2&#45;&gt;Node24 -->
<g id="edge87" class="edge">
<title>Node2&#45;&gt;Node24</title>
<path fill="none" stroke="midnightblue" d="M1154.78,-577.85C1204.53,-573.41 1304.44,-561.36 1325.5,-535 1346.59,-508.61 1342.2,-488.36 1325.5,-459 1296.4,-407.82 1231.91,-378.66 1188.82,-364.22"/>
<polygon fill="midnightblue" stroke="midnightblue" points="1189.75,-360.84 1179.16,-361.1 1187.61,-367.5 1189.75,-360.84"/>
</g>
<!-- Node4&#45;&gt;Node1 -->
<g id="edge70" class="edge">
<title>Node4&#45;&gt;Node1</title>
<path fill="none" stroke="midnightblue" d="M858.5,-534.67C858.5,-551.99 858.5,-591.41 858.5,-617.21"/>
<polygon fill="midnightblue" stroke="midnightblue" points="855,-617.34 858.5,-627.34 862,-617.34 855,-617.34"/>
</g>
<!-- Node5 -->
<g id="node5" class="node">
<title>Node5</title>
<g id="a_node5"><a xlink:title=" ">
<polygon fill="white" stroke="#bfbfbf" points="0,-342 0,-361 35,-361 35,-342 0,-342"/>
<text text-anchor="middle" x="17.5" y="-349" font-family="Helvetica,sans-Serif" font-size="10.00">map</text>
</a>
</g>
</g>
<!-- Node4&#45;&gt;Node5 -->
<g id="edge4" class="edge">
<title>Node4&#45;&gt;Node5</title>
<path fill="none" stroke="midnightblue" d="M837.72,-524.29C737.14,-525.47 300.67,-527.62 175.5,-479 113.46,-454.9 56.73,-397.22 31.42,-368.84"/>
<polygon fill="midnightblue" stroke="midnightblue" points="33.82,-366.26 24.6,-361.04 28.55,-370.87 33.82,-366.26"/>
</g>
<!-- Node6 -->
<g id="node6" class="node">
<title>Node6</title>
<g id="a_node6"><a xlink:title=" ">
<polygon fill="white" stroke="#bfbfbf" points="631.5,-459.5 631.5,-478.5 661.5,-478.5 661.5,-459.5 631.5,-459.5"/>
<text text-anchor="middle" x="646.5" y="-466.5" font-family="Helvetica,sans-Serif" font-size="10.00">set</text>
</a>
</g>
</g>
<!-- Node4&#45;&gt;Node6 -->
<g id="edge5" class="edge">
<title>Node4&#45;&gt;Node6</title>
<path fill="none" stroke="midnightblue" d="M837.81,-519.34C803.79,-511.58 733.98,-495.25 675.5,-479 674.07,-478.6 672.61,-478.18 671.13,-477.75"/>
<polygon fill="midnightblue" stroke="midnightblue" points="672.09,-474.39 661.5,-474.84 670.06,-481.09 672.09,-474.39"/>
</g>
<!-- Node7 -->
<g id="node7" class="node">
<title>Node7</title>
<g id="a_node7"><a xlink:href="gameplay_clickable_game_object_8h.html" target="_top" xlink:title=" ">
<polygon fill="white" stroke="black" points="670,-336.5 670,-366.5 799,-366.5 799,-336.5 670,-336.5"/>
<text text-anchor="start" x="678" y="-354.5" font-family="Helvetica,sans-Serif" font-size="10.00">engine/gameplayClickable</text>
<text text-anchor="middle" x="734.5" y="-343.5" font-family="Helvetica,sans-Serif" font-size="10.00">GameObject.h</text>
</a>
</g>
</g>
<!-- Node4&#45;&gt;Node7 -->
<g id="edge6" class="edge">
<title>Node4&#45;&gt;Node7</title>
<path fill="none" stroke="midnightblue" d="M852.18,-515.26C833.58,-489.54 778.63,-413.53 750.9,-375.18"/>
<polygon fill="midnightblue" stroke="midnightblue" points="753.48,-372.78 744.78,-366.72 747.81,-376.88 753.48,-372.78"/>
</g>
<!-- Node10 -->
<g id="node10" class="node">
<title>Node10</title>
<g id="a_node10"><a xlink:href="config_8h.html" target="_top" xlink:title=" ">
<polygon fill="white" stroke="black" points="804,-112.5 804,-131.5 885,-131.5 885,-112.5 804,-112.5"/>
<text text-anchor="middle" x="844.5" y="-119.5" font-family="Helvetica,sans-Serif" font-size="10.00">engine/config.h</text>
</a>
</g>
</g>
<!-- Node4&#45;&gt;Node10 -->
<g id="edge26" class="edge">
<title>Node4&#45;&gt;Node10</title>
<path fill="none" stroke="midnightblue" d="M838.11,-515.37C795.58,-496.1 698.2,-445.01 660.5,-367 654.5,-354.59 653.36,-347.78 660.5,-336 678.43,-306.42 703.53,-322.85 729.5,-300 752.27,-279.96 751.76,-269.29 768.5,-244 792.58,-207.62 819.44,-164.11 833.9,-140.45"/>
<polygon fill="midnightblue" stroke="midnightblue" points="837.08,-141.96 839.29,-131.6 831.1,-138.32 837.08,-141.96"/>
</g>
<!-- Node13 -->
<g id="node13" class="node">
<title>Node13</title>
<g id="a_node13"><a xlink:href="_facade_8h.html" target="_top" xlink:title=" ">
<polygon fill="white" stroke="black" points="1016.5,-0.5 1016.5,-19.5 1072.5,-19.5 1072.5,-0.5 1016.5,-0.5"/>
<text text-anchor="middle" x="1044.5" y="-7.5" font-family="Helvetica,sans-Serif" font-size="10.00">Facade.h</text>
</a>
</g>
</g>
<!-- Node4&#45;&gt;Node13 -->
<g id="edge27" class="edge">
<title>Node4&#45;&gt;Node13</title>
<path fill="none" stroke="midnightblue" d="M879.08,-522.96C951.76,-519.09 1195.89,-504.45 1269.5,-479 1430.62,-423.3 1508.5,-349.47 1508.5,-179 1508.5,-179 1508.5,-179 1508.5,-121 1508.5,-33.78 1194.17,-15.62 1082.94,-11.92"/>
<polygon fill="midnightblue" stroke="midnightblue" points="1082.93,-8.42 1072.83,-11.61 1082.71,-15.42 1082.93,-8.42"/>
</g>
<!-- Node16 -->
<g id="node16" class="node">
<title>Node16</title>
<g id="a_node16"><a xlink:title=" ">
<polygon fill="white" stroke="#bfbfbf" points="1307.5,-56.5 1307.5,-75.5 1361.5,-75.5 1361.5,-56.5 1307.5,-56.5"/>
<text text-anchor="middle" x="1334.5" y="-63.5" font-family="Helvetica,sans-Serif" font-size="10.00">iostream</text>
</a>
</g>
</g>
<!-- Node4&#45;&gt;Node16 -->
<g id="edge51" class="edge">
<title>Node4&#45;&gt;Node16</title>
<path fill="none" stroke="midnightblue" d="M879.33,-523.59C949.44,-521.91 1175.97,-513.85 1238.5,-479 1359.52,-411.55 1432.5,-373.54 1432.5,-235 1432.5,-235 1432.5,-235 1432.5,-177 1432.5,-133.38 1389.01,-99.06 1359.97,-81.01"/>
<polygon fill="midnightblue" stroke="midnightblue" points="1361.5,-77.85 1351.12,-75.73 1357.92,-83.86 1361.5,-77.85"/>
</g>
<!-- Node18 -->
<g id="node18" class="node">
<title>Node18</title>
<g id="a_node18"><a xlink:href="cellgen_8h.html" target="_top" xlink:title=" ">
<polygon fill="white" stroke="black" points="120,-403.5 120,-422.5 191,-422.5 191,-403.5 120,-403.5"/>
<text text-anchor="middle" x="155.5" y="-410.5" font-family="Helvetica,sans-Serif" font-size="10.00">util/cellgen.h</text>
</a>
</g>
</g>
<!-- Node4&#45;&gt;Node18 -->
<g id="edge17" class="edge">
<title>Node4&#45;&gt;Node18</title>
<path fill="none" stroke="midnightblue" d="M837.88,-523.67C732.3,-521.86 254.95,-511.86 198.5,-479 180.64,-468.6 168.78,-447.47 162.13,-432.12"/>
<polygon fill="midnightblue" stroke="midnightblue" points="165.29,-430.61 158.34,-422.61 158.79,-433.2 165.29,-430.61"/>
</g>
<!-- Node21 -->
<g id="node21" class="node">
<title>Node21</title>
<g id="a_node21"><a xlink:href="_all_flags_8h.html" target="_top" xlink:title=" ">
<polygon fill="white" stroke="black" points="1009,-280.5 1009,-299.5 1068,-299.5 1068,-280.5 1009,-280.5"/>
<text text-anchor="middle" x="1038.5" y="-287.5" font-family="Helvetica,sans-Serif" font-size="10.00">AllFlags.h</text>
</a>
</g>
</g>
<!-- Node4&#45;&gt;Node21 -->
<g id="edge21" class="edge">
<title>Node4&#45;&gt;Node21</title>
<path fill="none" stroke="midnightblue" d="M869.6,-515.26C880.32,-506.58 896.76,-492.63 909.5,-479 952.34,-433.14 960.85,-419.33 995.5,-367 1008.27,-347.71 1021.09,-324.42 1029.37,-308.75"/>
<polygon fill="midnightblue" stroke="midnightblue" points="1032.58,-310.15 1034.1,-299.67 1026.38,-306.91 1032.58,-310.15"/>
</g>
<!-- Node23 -->
<g id="node23" class="node">
<title>Node23</title>
<g id="a_node23"><a xlink:href="_squad_8h.html" target="_top" xlink:title=" ">
<polygon fill="white" stroke="black" points="886.5,-403.5 886.5,-422.5 938.5,-422.5 938.5,-403.5 886.5,-403.5"/>
<text text-anchor="middle" x="912.5" y="-410.5" font-family="Helvetica,sans-Serif" font-size="10.00">Squad.h</text>
</a>
</g>
</g>
<!-- Node4&#45;&gt;Node23 -->
<g id="edge28" class="edge">
<title>Node4&#45;&gt;Node23</title>
<path fill="none" stroke="midnightblue" d="M858.89,-515.37C864.36,-497.3 884.62,-455.18 898.93,-431.31"/>
<polygon fill="midnightblue" stroke="midnightblue" points="902.05,-432.91 904.45,-422.59 896.14,-429.17 902.05,-432.91"/>
</g>
<!-- Node30 -->
<g id="node30" class="node">
<title>Node30</title>
<g id="a_node30"><a xlink:href="_player_8h.html" target="_top" xlink:title=" ">
<polygon fill="white" stroke="black" points="524,-342 524,-361 575,-361 575,-342 524,-342"/>
<text text-anchor="middle" x="549.5" y="-349" font-family="Helvetica,sans-Serif" font-size="10.00">Player.h</text>
</a>
</g>
</g>
<!-- Node4&#45;&gt;Node30 -->
<g id="edge86" class="edge">
<title>Node4&#45;&gt;Node30</title>
<path fill="none" stroke="midnightblue" d="M837.6,-523.25C781.02,-520.82 626.68,-511.29 589.5,-479 557.86,-451.52 550.99,-399.21 549.66,-371.24"/>
<polygon fill="midnightblue" stroke="midnightblue" points="553.16,-371.09 549.38,-361.19 546.16,-371.29 553.16,-371.09"/>
</g>
<!-- Node31 -->
<g id="node31" class="node">
<title>Node31</title>
<g id="a_node31"><a xlink:href="geometry_8h.html" target="_top" xlink:title=" ">
<polygon fill="white" stroke="black" points="207.5,-459.5 207.5,-478.5 287.5,-478.5 287.5,-459.5 207.5,-459.5"/>
<text text-anchor="middle" x="247.5" y="-466.5" font-family="Helvetica,sans-Serif" font-size="10.00">util/geometry.h</text>
</a>
</g>
</g>
<!-- Node4&#45;&gt;Node31 -->
<g id="edge52" class="edge">
<title>Node4&#45;&gt;Node31</title>
<path fill="none" stroke="midnightblue" d="M837.82,-522.17C752.26,-514.61 424.49,-485.64 297.85,-474.45"/>
<polygon fill="midnightblue" stroke="midnightblue" points="297.92,-470.94 287.65,-473.55 297.31,-477.92 297.92,-470.94"/>
</g>
<!-- Node32 -->
<g id="node32" class="node">
<title>Node32</title>
<g id="a_node32"><a xlink:href="_none_8h.html" target="_top" xlink:title=" ">
<polygon fill="white" stroke="black" points="1187,-168.5 1187,-187.5 1300,-187.5 1300,-168.5 1187,-168.5"/>
<text text-anchor="middle" x="1243.5" y="-175.5" font-family="Helvetica,sans-Serif" font-size="10.00">engine/actions/None.h</text>
</a>
</g>
</g>
<!-- Node4&#45;&gt;Node32 -->
<g id="edge55" class="edge">
<title>Node4&#45;&gt;Node32</title>
<path fill="none" stroke="midnightblue" d="M879.23,-524.34C947.84,-525.04 1166.09,-523.64 1216.5,-479 1298.74,-406.17 1264.2,-250.88 1249.15,-197.48"/>
<polygon fill="midnightblue" stroke="midnightblue" points="1252.45,-196.31 1246.28,-187.7 1245.74,-198.28 1252.45,-196.31"/>
</g>
<!-- Node33 -->
<g id="node33" class="node">
<title>Node33</title>
<g id="a_node33"><a xlink:href="game_controller_8h.html" target="_top" xlink:title=" ">
<polygon fill="white" stroke="black" points="312,-280.5 312,-299.5 433,-299.5 433,-280.5 312,-280.5"/>
<text text-anchor="middle" x="372.5" y="-287.5" font-family="Helvetica,sans-Serif" font-size="10.00">engine/gameController.h</text>
</a>
</g>
</g>
<!-- Node4&#45;&gt;Node33 -->
<g id="edge57" class="edge">
<title>Node4&#45;&gt;Node33</title>
<path fill="none" stroke="midnightblue" d="M837.87,-522.81C786.34,-519.42 653.88,-508.03 622.5,-479 574.14,-434.27 631.37,-381.26 583.5,-336 572.73,-325.82 494.65,-311.03 436.59,-301.22"/>
<polygon fill="midnightblue" stroke="midnightblue" points="436.81,-297.71 426.37,-299.51 435.65,-304.61 436.81,-297.71"/>
</g>
<!-- Node37 -->
<g id="node37" class="node">
<title>Node37</title>
<g id="a_node37"><a xlink:href="_set_squad_path_8h.html" target="_top" xlink:title=" ">
<polygon fill="white" stroke="black" points="1054,-459.5 1054,-478.5 1207,-478.5 1207,-459.5 1054,-459.5"/>
<text text-anchor="middle" x="1130.5" y="-466.5" font-family="Helvetica,sans-Serif" font-size="10.00">engine/actions/SetSquadPath.h</text>
</a>
</g>
</g>
<!-- Node4&#45;&gt;Node37 -->
<g id="edge66" class="edge">
<title>Node4&#45;&gt;Node37</title>
<path fill="none" stroke="midnightblue" d="M879.04,-519.11C919.87,-510.41 1011.94,-492.04 1072.67,-480.4"/>
<polygon fill="midnightblue" stroke="midnightblue" points="1073.34,-483.83 1082.51,-478.52 1072.03,-476.96 1073.34,-483.83"/>
</g>
<!-- Node38 -->
<g id="node38" class="node">
<title>Node38</title>
<g id="a_node38"><a xlink:href="_all_squad_templates_8h.html" target="_top" xlink:title=" ">
<polygon fill="white" stroke="black" points="390,-459.5 390,-478.5 499,-478.5 499,-459.5 390,-459.5"/>
<text text-anchor="middle" x="444.5" y="-466.5" font-family="Helvetica,sans-Serif" font-size="10.00">AllSquadTemplates.h</text>
</a>
</g>
</g>
<!-- Node4&#45;&gt;Node38 -->
<g id="edge71" class="edge">
<title>Node4&#45;&gt;Node38</title>
<path fill="none" stroke="midnightblue" d="M837.97,-521.32C778.62,-513.58 605.01,-490.94 509.44,-478.47"/>
<polygon fill="midnightblue" stroke="midnightblue" points="509.68,-474.97 499.31,-477.15 508.77,-481.91 509.68,-474.97"/>
</g>
<!-- Node7&#45;&gt;Node8 -->
<g id="edge7" class="edge">
<title>Node7&#45;&gt;Node8</title>
<path fill="none" stroke="midnightblue" d="M744.05,-336.19C758.64,-312.45 783.28,-263.63 768.5,-224 764.33,-212.81 755.98,-202.56 748.08,-194.68"/>
<polygon fill="midnightblue" stroke="midnightblue" points="750.2,-191.87 740.49,-187.63 745.44,-197 750.2,-191.87"/>
</g>
<!-- Node9 -->
<g id="node9" class="node">
<title>Node9</title>
<g id="a_node9"><a xlink:title=" ">
<polygon fill="white" stroke="#bfbfbf" points="191,-112.5 191,-131.5 220,-131.5 220,-112.5 191,-112.5"/>
<text text-anchor="middle" x="205.5" y="-119.5" font-family="Helvetica,sans-Serif" font-size="10.00">list</text>
</a>
</g>
</g>
<!-- Node8&#45;&gt;Node9 -->
<g id="edge8" class="edge">
<title>Node8&#45;&gt;Node9</title>
<path fill="none" stroke="midnightblue" d="M690.97,-173.03C589.18,-162.54 315.15,-134.3 230.66,-125.59"/>
<polygon fill="midnightblue" stroke="midnightblue" points="230.76,-122.08 220.45,-124.54 230.04,-129.05 230.76,-122.08"/>
</g>
<!-- Node8&#45;&gt;Node10 -->
<g id="edge9" class="edge">
<title>Node8&#45;&gt;Node10</title>
<path fill="none" stroke="midnightblue" d="M747.72,-168.44C766.4,-159.68 795.66,-145.94 817.12,-135.86"/>
<polygon fill="midnightblue" stroke="midnightblue" points="818.8,-138.93 826.36,-131.52 815.82,-132.6 818.8,-138.93"/>
</g>
<!-- Node15 -->
<g id="node15" class="node">
<title>Node15</title>
<g id="a_node15"><a xlink:href="engine_2_action_8h.html" target="_top" xlink:title=" ">
<polygon fill="white" stroke="black" points="1202,-112.5 1202,-131.5 1285,-131.5 1285,-112.5 1202,-112.5"/>
<text text-anchor="middle" x="1243.5" y="-119.5" font-family="Helvetica,sans-Serif" font-size="10.00">engine/Action.h</text>
</a>
</g>
</g>
<!-- Node8&#45;&gt;Node15 -->
<g id="edge14" class="edge">
<title>Node8&#45;&gt;Node15</title>
<path fill="none" stroke="midnightblue" d="M768.13,-172.94C859.44,-163.35 1088.59,-139.27 1191.75,-128.44"/>
<polygon fill="midnightblue" stroke="midnightblue" points="1192.34,-131.89 1201.92,-127.37 1191.61,-124.93 1192.34,-131.89"/>
</g>
<!-- Node11 -->
<g id="node11" class="node">
<title>Node11</title>
<g id="a_node11"><a xlink:href="_s_f_m_l_facade_8h.html" target="_top" xlink:title=" ">
<polygon fill="white" stroke="black" points="460,-56.5 460,-75.5 583,-75.5 583,-56.5 460,-56.5"/>
<text text-anchor="middle" x="521.5" y="-63.5" font-family="Helvetica,sans-Serif" font-size="10.00">graphics/SFMLFacade.h</text>
</a>
</g>
</g>
<!-- Node10&#45;&gt;Node11 -->
<g id="edge10" class="edge">
<title>Node10&#45;&gt;Node11</title>
<path fill="none" stroke="midnightblue" d="M803.92,-114.22C748.19,-104.9 647.52,-88.07 582.64,-77.22"/>
<polygon fill="midnightblue" stroke="midnightblue" points="582.99,-73.73 572.55,-75.53 581.83,-80.64 582.99,-73.73"/>
</g>
<!-- Node14 -->
<g id="node14" class="node">
<title>Node14</title>
<g id="a_node14"><a xlink:title=" ">
<polygon fill="white" stroke="#bfbfbf" points="795.5,-56.5 795.5,-75.5 893.5,-75.5 893.5,-56.5 795.5,-56.5"/>
<text text-anchor="middle" x="844.5" y="-63.5" font-family="Helvetica,sans-Serif" font-size="10.00">nlohmann/json.hpp</text>
</a>
</g>
</g>
<!-- Node10&#45;&gt;Node14 -->
<g id="edge13" class="edge">
<title>Node10&#45;&gt;Node14</title>
<path fill="none" stroke="midnightblue" d="M844.5,-112.08C844.5,-105.01 844.5,-94.86 844.5,-85.99"/>
<polygon fill="midnightblue" stroke="midnightblue" points="848,-85.75 844.5,-75.75 841,-85.75 848,-85.75"/>
</g>
<!-- Node12 -->
<g id="node12" class="node">
<title>Node12</title>
<g id="a_node12"><a xlink:title=" ">
<polygon fill="white" stroke="#bfbfbf" points="469.5,-0.5 469.5,-19.5 573.5,-19.5 573.5,-0.5 469.5,-0.5"/>
<text text-anchor="middle" x="521.5" y="-7.5" font-family="Helvetica,sans-Serif" font-size="10.00">SFML/Graphics.hpp</text>
</a>
</g>
</g>
<!-- Node11&#45;&gt;Node12 -->
<g id="edge11" class="edge">
<title>Node11&#45;&gt;Node12</title>
<path fill="none" stroke="midnightblue" d="M521.5,-56.08C521.5,-49.01 521.5,-38.86 521.5,-29.99"/>
<polygon fill="midnightblue" stroke="midnightblue" points="525,-29.75 521.5,-19.75 518,-29.75 525,-29.75"/>
</g>
<!-- Node11&#45;&gt;Node13 -->
<g id="edge12" class="edge">
<title>Node11&#45;&gt;Node13</title>
<path fill="none" stroke="midnightblue" d="M583.29,-57.59C588.1,-57.04 592.88,-56.51 597.5,-56 748.56,-39.45 928.6,-22.03 1006.01,-14.65"/>
<polygon fill="midnightblue" stroke="midnightblue" points="1006.62,-18.1 1016.24,-13.67 1005.95,-11.14 1006.62,-18.1"/>
</g>
<!-- Node15&#45;&gt;Node16 -->
<g id="edge15" class="edge">
<title>Node15&#45;&gt;Node16</title>
<path fill="none" stroke="midnightblue" d="M1258.12,-112.32C1272.45,-103.82 1294.51,-90.73 1311.25,-80.8"/>
<polygon fill="midnightblue" stroke="midnightblue" points="1313.1,-83.77 1319.92,-75.65 1309.53,-77.75 1313.1,-83.77"/>
</g>
<!-- Node17 -->
<g id="node17" class="node">
<title>Node17</title>
<g id="a_node17"><a xlink:title=" ">
<polygon fill="white" stroke="#bfbfbf" points="1157,-56.5 1157,-75.5 1208,-75.5 1208,-56.5 1157,-56.5"/>
<text text-anchor="middle" x="1182.5" y="-63.5" font-family="Helvetica,sans-Serif" font-size="10.00">memory</text>
</a>
</g>
</g>
<!-- Node15&#45;&gt;Node17 -->
<g id="edge16" class="edge">
<title>Node15&#45;&gt;Node17</title>
<path fill="none" stroke="midnightblue" d="M1233.7,-112.32C1224.68,-104.34 1211.09,-92.31 1200.18,-82.65"/>
<polygon fill="midnightblue" stroke="midnightblue" points="1202.29,-79.84 1192.48,-75.83 1197.65,-85.08 1202.29,-79.84"/>
</g>
<!-- Node18&#45;&gt;Node5 -->
<g id="edge19" class="edge">
<title>Node18&#45;&gt;Node5</title>
<path fill="none" stroke="midnightblue" d="M134.72,-403.35C113.3,-394.4 78.98,-379.93 49.5,-367 47.89,-366.29 46.23,-365.56 44.56,-364.82"/>
<polygon fill="midnightblue" stroke="midnightblue" points="45.63,-361.46 35.07,-360.55 42.76,-367.84 45.63,-361.46"/>
</g>
<!-- Node19 -->
<g id="node19" class="node">
<title>Node19</title>
<g id="a_node19"><a xlink:title=" ">
<polygon fill="white" stroke="#bfbfbf" points="365.5,-168.5 365.5,-187.5 409.5,-187.5 409.5,-168.5 365.5,-168.5"/>
<text text-anchor="middle" x="387.5" y="-175.5" font-family="Helvetica,sans-Serif" font-size="10.00">vector</text>
</a>
</g>
</g>
<!-- Node18&#45;&gt;Node19 -->
<g id="edge18" class="edge">
<title>Node18&#45;&gt;Node19</title>
<path fill="none" stroke="midnightblue" d="M129.29,-403.41C112.65,-396.44 92.44,-384.81 82.5,-367 75.78,-354.97 76.41,-348.36 82.5,-336 134.51,-230.55 287.71,-194.37 355.09,-183.33"/>
<polygon fill="midnightblue" stroke="midnightblue" points="355.79,-186.77 365.13,-181.77 354.71,-179.85 355.79,-186.77"/>
</g>
<!-- Node20 -->
<g id="node20" class="node">
<title>Node20</title>
<g id="a_node20"><a xlink:title=" ">
<polygon fill="white" stroke="#bfbfbf" points="91.5,-342 91.5,-361 219.5,-361 219.5,-342 91.5,-342"/>
<text text-anchor="middle" x="155.5" y="-349" font-family="Helvetica,sans-Serif" font-size="10.00">scanline_triangulation.hpp</text>
</a>
</g>
</g>
<!-- Node18&#45;&gt;Node20 -->
<g id="edge20" class="edge">
<title>Node18&#45;&gt;Node20</title>
<path fill="none" stroke="midnightblue" d="M155.5,-403.48C155.5,-395.08 155.5,-381.98 155.5,-371.16"/>
<polygon fill="midnightblue" stroke="midnightblue" points="159,-371.01 155.5,-361.01 152,-371.01 159,-371.01"/>
</g>
<!-- Node21&#45;&gt;Node17 -->
<g id="edge25" class="edge">
<title>Node21&#45;&gt;Node17</title>
<path fill="none" stroke="midnightblue" d="M1055.08,-280.4C1068.99,-272.5 1088.58,-259.66 1101.5,-244 1142.66,-194.12 1167.55,-119.9 1177.49,-85.61"/>
<polygon fill="midnightblue" stroke="midnightblue" points="1180.96,-86.18 1180.29,-75.6 1174.22,-84.29 1180.96,-86.18"/>
</g>
<!-- Node22 -->
<g id="node22" class="node">
<title>Node22</title>
<g id="a_node22"><a xlink:href="_flag_8h.html" target="_top" xlink:title=" ">
<polygon fill="white" stroke="black" points="1049,-224.5 1049,-243.5 1092,-243.5 1092,-224.5 1049,-224.5"/>
<text text-anchor="middle" x="1070.5" y="-231.5" font-family="Helvetica,sans-Serif" font-size="10.00">Flag.h</text>
</a>
</g>
</g>
<!-- Node21&#45;&gt;Node22 -->
<g id="edge22" class="edge">
<title>Node21&#45;&gt;Node22</title>
<path fill="none" stroke="midnightblue" d="M1043.78,-280.08C1048.21,-272.61 1054.66,-261.72 1060.12,-252.52"/>
<polygon fill="midnightblue" stroke="midnightblue" points="1063.23,-254.14 1065.31,-243.75 1057.21,-250.57 1063.23,-254.14"/>
</g>
<!-- Node22&#45;&gt;Node3 -->
<g id="edge24" class="edge">
<title>Node22&#45;&gt;Node3</title>
<path fill="none" stroke="midnightblue" d="M1092.1,-229.79C1132.67,-223.57 1223.16,-208.85 1308.18,-188.11"/>
<polygon fill="midnightblue" stroke="midnightblue" points="1309.12,-191.48 1317.99,-185.69 1307.44,-184.69 1309.12,-191.48"/>
</g>
<!-- Node22&#45;&gt;Node19 -->
<g id="edge23" class="edge">
<title>Node22&#45;&gt;Node19</title>
<path fill="none" stroke="midnightblue" d="M1048.69,-225.82C1045.95,-225.11 1043.18,-224.47 1040.5,-224 775.27,-176.98 702.85,-220.89 435.5,-188 430.5,-187.39 425.24,-186.57 420.11,-185.68"/>
<polygon fill="midnightblue" stroke="midnightblue" points="420.34,-182.17 409.87,-183.8 419.08,-189.05 420.34,-182.17"/>
</g>
<!-- Node23&#45;&gt;Node4 -->
<g id="edge29" class="edge">
<title>Node23&#45;&gt;Node4</title>
<path fill="none" stroke="midnightblue" d="M912.12,-422.59C906.68,-440.63 886.42,-482.74 872.1,-506.64"/>
<polygon fill="midnightblue" stroke="midnightblue" points="868.97,-505.05 866.58,-515.37 874.89,-508.79 868.97,-505.05"/>
</g>
<!-- Node23&#45;&gt;Node7 -->
<g id="edge42" class="edge">
<title>Node23&#45;&gt;Node7</title>
<path fill="none" stroke="midnightblue" d="M887,-403.48C860.75,-394.7 819.13,-380.79 785.99,-369.71"/>
<polygon fill="midnightblue" stroke="midnightblue" points="787.04,-366.37 776.45,-366.52 784.83,-373.01 787.04,-366.37"/>
</g>
<!-- Node23&#45;&gt;Node10 -->
<g id="edge46" class="edge">
<title>Node23&#45;&gt;Node10</title>
<path fill="none" stroke="midnightblue" d="M927.45,-403.47C939.43,-395.7 955.37,-383 962.5,-367 968.11,-354.41 965.95,-349.34 962.5,-336 951.68,-294.14 882.83,-183.21 855.58,-140.29"/>
<polygon fill="midnightblue" stroke="midnightblue" points="858.48,-138.33 850.15,-131.78 852.58,-142.09 858.48,-138.33"/>
</g>
<!-- Node23&#45;&gt;Node13 -->
<g id="edge47" class="edge">
<title>Node23&#45;&gt;Node13</title>
<path fill="none" stroke="midnightblue" d="M938.84,-412.33C993,-412.11 1119.86,-406.96 1216.5,-367 1346.29,-313.34 1470.5,-319.45 1470.5,-179 1470.5,-179 1470.5,-179 1470.5,-121 1470.5,-41.34 1187.69,-18.46 1082.93,-12.72"/>
<polygon fill="midnightblue" stroke="midnightblue" points="1082.95,-9.22 1072.78,-12.19 1082.58,-16.21 1082.95,-9.22"/>
</g>
<!-- Node23&#45;&gt;Node24 -->
<g id="edge30" class="edge">
<title>Node23&#45;&gt;Node24</title>
<path fill="none" stroke="midnightblue" d="M938.81,-404.1C977.47,-393.65 1049.86,-375.19 1098.2,-363.42"/>
<polygon fill="midnightblue" stroke="midnightblue" points="1099.23,-366.77 1108.13,-361.01 1097.59,-359.97 1099.23,-366.77"/>
</g>
<!-- Node29 -->
<g id="node29" class="node">
<title>Node29</title>
<g id="a_node29"><a xlink:href="_game_logic_2_squad_2_action_8h.html" target="_top" xlink:title=" ">
<polygon fill="white" stroke="black" points="817.5,-342 817.5,-361 953.5,-361 953.5,-342 817.5,-342"/>
<text text-anchor="middle" x="885.5" y="-349" font-family="Helvetica,sans-Serif" font-size="10.00">GameLogic/Squad/Action.h</text>
</a>
</g>
</g>
<!-- Node23&#45;&gt;Node29 -->
<g id="edge43" class="edge">
<title>Node23&#45;&gt;Node29</title>
<path fill="none" stroke="midnightblue" d="M903.73,-403.48C898.03,-394.99 891.54,-381.7 887.53,-370.82"/>
<polygon fill="midnightblue" stroke="midnightblue" points="890.79,-369.51 884.46,-361.01 884.1,-371.6 890.79,-369.51"/>
</g>
<!-- Node23&#45;&gt;Node30 -->
<g id="edge48" class="edge">
<title>Node23&#45;&gt;Node30</title>
<path fill="none" stroke="midnightblue" d="M886.39,-407.72C822.56,-397.26 658.47,-370.36 585.46,-358.39"/>
<polygon fill="midnightblue" stroke="midnightblue" points="585.8,-354.9 575.37,-356.74 584.67,-361.81 585.8,-354.9"/>
</g>
<!-- Node24&#45;&gt;Node10 -->
<g id="edge41" class="edge">
<title>Node24&#45;&gt;Node10</title>
<path fill="none" stroke="midnightblue" d="M1139.98,-341.67C1133.11,-331.95 1122.48,-315.62 1116.5,-300 1104.2,-267.84 1119.36,-253.43 1101.5,-224 1080.83,-189.94 1067.28,-185.52 1031.5,-168 988.14,-146.76 934.11,-135.16 895.3,-129.08"/>
<polygon fill="midnightblue" stroke="midnightblue" points="895.68,-125.6 885.27,-127.59 894.64,-132.53 895.68,-125.6"/>
</g>
<!-- Node24&#45;&gt;Node21 -->
<g id="edge36" class="edge">
<title>Node24&#45;&gt;Node21</title>
<path fill="none" stroke="midnightblue" d="M1131.03,-341.98C1113.22,-332.17 1083.76,-315.93 1062.87,-304.42"/>
<polygon fill="midnightblue" stroke="midnightblue" points="1064.39,-301.27 1053.95,-299.51 1061.01,-307.4 1064.39,-301.27"/>
</g>
<!-- Node24&#45;&gt;Node23 -->
<g id="edge35" class="edge">
<title>Node24&#45;&gt;Node23</title>
<path fill="none" stroke="midnightblue" d="M1117.69,-361.07C1074.95,-372.58 995.2,-392.84 948.63,-404.03"/>
<polygon fill="midnightblue" stroke="midnightblue" points="947.58,-400.68 938.66,-406.4 949.2,-407.49 947.58,-400.68"/>
</g>
<!-- Node25 -->
<g id="node25" class="node">
<title>Node25</title>
<g id="a_node25"><a xlink:title=" ">
<polygon fill="white" stroke="#bfbfbf" points="1125,-280.5 1125,-299.5 1168,-299.5 1168,-280.5 1125,-280.5"/>
<text text-anchor="middle" x="1146.5" y="-287.5" font-family="Helvetica,sans-Serif" font-size="10.00">cstdio</text>
</a>
</g>
</g>
<!-- Node24&#45;&gt;Node25 -->
<g id="edge31" class="edge">
<title>Node24&#45;&gt;Node25</title>
<path fill="none" stroke="midnightblue" d="M1146.5,-341.98C1146.5,-333.58 1146.5,-320.48 1146.5,-309.66"/>
<polygon fill="midnightblue" stroke="midnightblue" points="1150,-309.51 1146.5,-299.51 1143,-309.51 1150,-309.51"/>
</g>
<!-- Node26 -->
<g id="node26" class="node">
<title>Node26</title>
<g id="a_node26"><a xlink:href="_unit_order_8h.html" target="_top" xlink:title=" ">
<polygon fill="white" stroke="black" points="1186.5,-280.5 1186.5,-299.5 1252.5,-299.5 1252.5,-280.5 1186.5,-280.5"/>
<text text-anchor="middle" x="1219.5" y="-287.5" font-family="Helvetica,sans-Serif" font-size="10.00">UnitOrder.h</text>
</a>
</g>
</g>
<!-- Node24&#45;&gt;Node26 -->
<g id="edge32" class="edge">
<title>Node24&#45;&gt;Node26</title>
<path fill="none" stroke="midnightblue" d="M1152.06,-341.98C1161.69,-332.43 1180.53,-316.81 1196,-305.37"/>
<polygon fill="midnightblue" stroke="midnightblue" points="1198.08,-308.18 1204.16,-299.51 1194,-302.5 1198.08,-308.18"/>
</g>
<!-- Node27 -->
<g id="node27" class="node">
<title>Node27</title>
<g id="a_node27"><a xlink:href="_textures_8h.html" target="_top" xlink:title=" ">
<polygon fill="white" stroke="black" points="930,-224.5 930,-243.5 1031,-243.5 1031,-224.5 930,-224.5"/>
<text text-anchor="middle" x="980.5" y="-231.5" font-family="Helvetica,sans-Serif" font-size="10.00">graphics/Textures.h</text>
</a>
</g>
</g>
<!-- Node24&#45;&gt;Node27 -->
<g id="edge37" class="edge">
<title>Node24&#45;&gt;Node27</title>
<path fill="none" stroke="midnightblue" d="M1085.23,-342.4C1056.06,-335.59 1022.77,-323.05 1000.5,-300 988.59,-287.67 983.76,-268.42 981.8,-254.06"/>
<polygon fill="midnightblue" stroke="midnightblue" points="985.26,-253.42 980.77,-243.82 978.29,-254.12 985.26,-253.42"/>
</g>
<!-- Node26&#45;&gt;Node3 -->
<g id="edge33" class="edge">
<title>Node26&#45;&gt;Node3</title>
<path fill="none" stroke="midnightblue" d="M1228.84,-280.37C1248.91,-261.81 1296.4,-217.91 1321.8,-194.44"/>
<polygon fill="midnightblue" stroke="midnightblue" points="1324.24,-196.95 1329.21,-187.59 1319.49,-191.81 1324.24,-196.95"/>
</g>
<!-- Node26&#45;&gt;Node24 -->
<g id="edge34" class="edge">
<title>Node26&#45;&gt;Node24</title>
<path fill="none" stroke="midnightblue" d="M1213.96,-299.51C1204.34,-309.05 1185.5,-324.67 1170.03,-336.11"/>
<polygon fill="midnightblue" stroke="midnightblue" points="1167.94,-333.3 1161.86,-341.98 1172.02,-338.99 1167.94,-333.3"/>
</g>
<!-- Node27&#45;&gt;Node10 -->
<g id="edge38" class="edge">
<title>Node27&#45;&gt;Node10</title>
<path fill="none" stroke="midnightblue" d="M969.83,-224.37C946.79,-205.73 892.14,-161.53 863.21,-138.13"/>
<polygon fill="midnightblue" stroke="midnightblue" points="865.1,-135.16 855.12,-131.59 860.7,-140.6 865.1,-135.16"/>
</g>
<!-- Node27&#45;&gt;Node19 -->
<g id="edge39" class="edge">
<title>Node27&#45;&gt;Node19</title>
<path fill="none" stroke="midnightblue" d="M929.97,-230.57C833.52,-225.55 616.62,-212.39 435.5,-188 430.51,-187.33 425.25,-186.48 420.12,-185.58"/>
<polygon fill="midnightblue" stroke="midnightblue" points="420.36,-182.07 409.89,-183.69 419.09,-188.95 420.36,-182.07"/>
</g>
<!-- Node28 -->
<g id="node28" class="node">
<title>Node28</title>
<g id="a_node28"><a xlink:title=" ">
<polygon fill="white" stroke="#bfbfbf" points="939,-168.5 939,-187.5 1022,-187.5 1022,-168.5 939,-168.5"/>
<text text-anchor="middle" x="980.5" y="-175.5" font-family="Helvetica,sans-Serif" font-size="10.00">unordered_map</text>
</a>
</g>
</g>
<!-- Node27&#45;&gt;Node28 -->
<g id="edge40" class="edge">
<title>Node27&#45;&gt;Node28</title>
<path fill="none" stroke="midnightblue" d="M980.5,-224.08C980.5,-217.01 980.5,-206.86 980.5,-197.99"/>
<polygon fill="midnightblue" stroke="midnightblue" points="984,-197.75 980.5,-187.75 977,-197.75 984,-197.75"/>
</g>
<!-- Node29&#45;&gt;Node4 -->
<g id="edge45" class="edge">
<title>Node29&#45;&gt;Node4</title>
<path fill="none" stroke="midnightblue" d="M884.14,-361.08C882.54,-371.12 879.82,-388.27 877.5,-403 871.78,-439.28 865.13,-481.69 861.41,-505.44"/>
<polygon fill="midnightblue" stroke="midnightblue" points="857.92,-505.07 859.83,-515.49 864.84,-506.15 857.92,-505.07"/>
</g>
<!-- Node29&#45;&gt;Node23 -->
<g id="edge44" class="edge">
<title>Node29&#45;&gt;Node23</title>
<path fill="none" stroke="midnightblue" d="M894.26,-361.01C899.96,-369.49 906.45,-382.77 910.46,-393.66"/>
<polygon fill="midnightblue" stroke="midnightblue" points="907.21,-394.97 913.53,-403.48 913.89,-392.89 907.21,-394.97"/>
</g>
<!-- Node30&#45;&gt;Node11 -->
<g id="edge50" class="edge">
<title>Node30&#45;&gt;Node11</title>
<path fill="none" stroke="midnightblue" d="M523.69,-347.57C468.14,-340.89 339.29,-323.3 302.5,-300 218.55,-246.84 116.01,-186.73 181.5,-112 198.89,-92.15 355.26,-78.21 449.77,-71.52"/>
<polygon fill="midnightblue" stroke="midnightblue" points="450.12,-75 459.85,-70.81 449.63,-68.02 450.12,-75"/>
</g>
<!-- Node30&#45;&gt;Node13 -->
<g id="edge49" class="edge">
<title>Node30&#45;&gt;Node13</title>
<path fill="none" stroke="midnightblue" d="M555,-341.97C570.18,-317.6 611.5,-245.17 611.5,-179 611.5,-179 611.5,-179 611.5,-121 611.5,-39.92 900.3,-17.91 1006.18,-12.56"/>
<polygon fill="midnightblue" stroke="midnightblue" points="1006.6,-16.04 1016.42,-12.07 1006.27,-9.05 1006.6,-16.04"/>
</g>
<!-- Node31&#45;&gt;Node18 -->
<g id="edge54" class="edge">
<title>Node31&#45;&gt;Node18</title>
<path fill="none" stroke="midnightblue" d="M232.72,-459.32C218.23,-450.82 195.93,-437.73 179.01,-427.8"/>
<polygon fill="midnightblue" stroke="midnightblue" points="180.64,-424.7 170.24,-422.65 177.1,-430.74 180.64,-424.7"/>
</g>
<!-- Node31&#45;&gt;Node19 -->
<g id="edge53" class="edge">
<title>Node31&#45;&gt;Node19</title>
<path fill="none" stroke="midnightblue" d="M246.19,-459.28C241.54,-425.07 229.1,-298.22 287.5,-224 304.14,-202.85 332.89,-191.34 355.31,-185.27"/>
<polygon fill="midnightblue" stroke="midnightblue" points="356.23,-188.65 365.09,-182.85 354.55,-181.85 356.23,-188.65"/>
</g>
<!-- Node32&#45;&gt;Node15 -->
<g id="edge56" class="edge">
<title>Node32&#45;&gt;Node15</title>
<path fill="none" stroke="midnightblue" d="M1243.5,-168.08C1243.5,-161.01 1243.5,-150.86 1243.5,-141.99"/>
<polygon fill="midnightblue" stroke="midnightblue" points="1247,-141.75 1243.5,-131.75 1240,-141.75 1247,-141.75"/>
</g>
<!-- Node33&#45;&gt;Node8 -->
<g id="edge59" class="edge">
<title>Node33&#45;&gt;Node8</title>
<path fill="none" stroke="midnightblue" d="M412.62,-280.45C449.74,-272.22 506.29,-258.86 554.5,-244 606.09,-228.1 664.63,-205.37 699.23,-191.44"/>
<polygon fill="midnightblue" stroke="midnightblue" points="700.8,-194.58 708.75,-187.58 698.17,-188.09 700.8,-194.58"/>
</g>
<!-- Node33&#45;&gt;Node9 -->
<g id="edge58" class="edge">
<title>Node33&#45;&gt;Node9</title>
<path fill="none" stroke="midnightblue" d="M355.36,-280.49C340.01,-272.37 317.39,-259.17 300.5,-244 264.89,-212.01 232.58,-165.51 216.4,-140.5"/>
<polygon fill="midnightblue" stroke="midnightblue" points="219.16,-138.31 210.84,-131.75 213.26,-142.07 219.16,-138.31"/>
</g>
<!-- Node34 -->
<g id="node34" class="node">
<title>Node34</title>
<g id="a_node34"><a xlink:href="_network_manager_8h.html" target="_top" xlink:title=" ">
<polygon fill="white" stroke="black" points="415.5,-224.5 415.5,-243.5 545.5,-243.5 545.5,-224.5 415.5,-224.5"/>
<text text-anchor="middle" x="480.5" y="-231.5" font-family="Helvetica,sans-Serif" font-size="10.00">engine/NetworkManager.h</text>
</a>
</g>
</g>
<!-- Node33&#45;&gt;Node34 -->
<g id="edge60" class="edge">
<title>Node33&#45;&gt;Node34</title>
<path fill="none" stroke="midnightblue" d="M389.85,-280.32C407.17,-271.66 434.02,-258.24 454,-248.25"/>
<polygon fill="midnightblue" stroke="midnightblue" points="455.81,-251.26 463.19,-243.65 452.68,-245 455.81,-251.26"/>
</g>
<!-- Node36 -->
<g id="node36" class="node">
<title>Node36</title>
<g id="a_node36"><a xlink:title=" ">
<polygon fill="white" stroke="#bfbfbf" points="310,-224.5 310,-243.5 359,-243.5 359,-224.5 310,-224.5"/>
<text text-anchor="middle" x="334.5" y="-231.5" font-family="Helvetica,sans-Serif" font-size="10.00">random</text>
</a>
</g>
</g>
<!-- Node33&#45;&gt;Node36 -->
<g id="edge65" class="edge">
<title>Node33&#45;&gt;Node36</title>
<path fill="none" stroke="midnightblue" d="M366.23,-280.08C360.86,-272.46 352.98,-261.26 346.42,-251.94"/>
<polygon fill="midnightblue" stroke="midnightblue" points="349.28,-249.91 340.66,-243.75 343.55,-253.94 349.28,-249.91"/>
</g>
<!-- Node34&#45;&gt;Node8 -->
<g id="edge61" class="edge">
<title>Node34&#45;&gt;Node8</title>
<path fill="none" stroke="midnightblue" d="M519.95,-224.44C563.52,-215 633.7,-199.78 680.69,-189.59"/>
<polygon fill="midnightblue" stroke="midnightblue" points="681.61,-192.97 690.64,-187.43 680.13,-186.13 681.61,-192.97"/>
</g>
<!-- Node34&#45;&gt;Node19 -->
<g id="edge63" class="edge">
<title>Node34&#45;&gt;Node19</title>
<path fill="none" stroke="midnightblue" d="M465.56,-224.32C450.91,-215.82 428.37,-202.73 411.26,-192.8"/>
<polygon fill="midnightblue" stroke="midnightblue" points="412.81,-189.65 402.4,-187.65 409.3,-195.7 412.81,-189.65"/>
</g>
<!-- Node34&#45;&gt;Node32 -->
<g id="edge62" class="edge">
<title>Node34&#45;&gt;Node32</title>
<path fill="none" stroke="midnightblue" d="M545.55,-228.4C689.05,-218.24 1031.5,-194 1176.65,-183.73"/>
<polygon fill="midnightblue" stroke="midnightblue" points="1177.02,-187.21 1186.75,-183.02 1176.53,-180.23 1177.02,-187.21"/>
</g>
<!-- Node35 -->
<g id="node35" class="node">
<title>Node35</title>
<g id="a_node35"><a xlink:title=" ">
<polygon fill="white" stroke="#bfbfbf" points="445,-168.5 445,-187.5 516,-187.5 516,-168.5 445,-168.5"/>
<text text-anchor="middle" x="480.5" y="-175.5" font-family="Helvetica,sans-Serif" font-size="10.00">sys/socket.h</text>
</a>
</g>
</g>
<!-- Node34&#45;&gt;Node35 -->
<g id="edge64" class="edge">
<title>Node34&#45;&gt;Node35</title>
<path fill="none" stroke="midnightblue" d="M480.5,-224.08C480.5,-217.01 480.5,-206.86 480.5,-197.99"/>
<polygon fill="midnightblue" stroke="midnightblue" points="484,-197.75 480.5,-187.75 477,-197.75 484,-197.75"/>
</g>
<!-- Node37&#45;&gt;Node4 -->
<g id="edge69" class="edge">
<title>Node37&#45;&gt;Node4</title>
<path fill="none" stroke="midnightblue" d="M1092.58,-478.54C1038.06,-489.85 938.93,-509.48 888.9,-518.8"/>
<polygon fill="midnightblue" stroke="midnightblue" points="888.2,-515.37 879,-520.62 889.47,-522.25 888.2,-515.37"/>
</g>
<!-- Node37&#45;&gt;Node15 -->
<g id="edge67" class="edge">
<title>Node37&#45;&gt;Node15</title>
<path fill="none" stroke="midnightblue" d="M1142.35,-459.32C1183.58,-428.27 1320.88,-317.66 1368.5,-188 1381.29,-153.18 1335.06,-136.8 1295.25,-129.24"/>
<polygon fill="midnightblue" stroke="midnightblue" points="1295.76,-125.78 1285.31,-127.5 1294.56,-132.67 1295.76,-125.78"/>
</g>
<!-- Node37&#45;&gt;Node23 -->
<g id="edge68" class="edge">
<title>Node37&#45;&gt;Node23</title>
<path fill="none" stroke="midnightblue" d="M1095.96,-459.44C1055.67,-449.46 989.39,-433.05 948.49,-422.92"/>
<polygon fill="midnightblue" stroke="midnightblue" points="949.22,-419.49 938.67,-420.48 947.54,-426.28 949.22,-419.49"/>
</g>
<!-- Node38&#45;&gt;Node1 -->
<g id="edge85" class="edge">
<title>Node38&#45;&gt;Node1</title>
<path fill="none" stroke="midnightblue" d="M451.59,-478.92C463.14,-492.85 487.33,-519.76 513.5,-535 599.76,-585.25 712.22,-614.2 784.89,-628.9"/>
<polygon fill="midnightblue" stroke="midnightblue" points="784.38,-632.36 794.87,-630.88 785.75,-625.5 784.38,-632.36"/>
</g>
<!-- Node39 -->
<g id="node39" class="node">
<title>Node39</title>
<g id="a_node39"><a xlink:href="_squad_template_8h.html" target="_top" xlink:title=" ">
<polygon fill="white" stroke="black" points="411.5,-403.5 411.5,-422.5 503.5,-422.5 503.5,-403.5 411.5,-403.5"/>
<text text-anchor="middle" x="457.5" y="-410.5" font-family="Helvetica,sans-Serif" font-size="10.00">SquadTemplate.h</text>
</a>
</g>
</g>
<!-- Node38&#45;&gt;Node39 -->
<g id="edge72" class="edge">
<title>Node38&#45;&gt;Node39</title>
<path fill="none" stroke="midnightblue" d="M446.65,-459.08C448.37,-451.93 450.85,-441.64 453,-432.69"/>
<polygon fill="midnightblue" stroke="midnightblue" points="456.46,-433.29 455.39,-422.75 449.65,-431.65 456.46,-433.29"/>
</g>
<!-- Node39&#45;&gt;Node2 -->
<g id="edge74" class="edge">
<title>Node39&#45;&gt;Node2</title>
<path fill="none" stroke="midnightblue" d="M469.3,-422.54C489.05,-436.43 530.5,-463.9 569.5,-479 755.26,-550.92 996.04,-572.27 1088.26,-578.04"/>
<polygon fill="midnightblue" stroke="midnightblue" points="1088.06,-581.54 1098.25,-578.64 1088.48,-574.55 1088.06,-581.54"/>
</g>
<!-- Node39&#45;&gt;Node19 -->
<g id="edge73" class="edge">
<title>Node39&#45;&gt;Node19</title>
<path fill="none" stroke="midnightblue" d="M453.23,-403.43C445.06,-387.85 425.77,-354.8 400.5,-336 363.27,-308.3 329.73,-337.57 302.5,-300 282.67,-272.64 282.93,-252.86 300.5,-224 312.4,-204.46 335.82,-193.02 355.37,-186.58"/>
<polygon fill="midnightblue" stroke="midnightblue" points="356.58,-189.87 365.15,-183.64 354.57,-183.16 356.58,-189.87"/>
</g>
<!-- Node39&#45;&gt;Node30 -->
<g id="edge84" class="edge">
<title>Node39&#45;&gt;Node30</title>
<path fill="none" stroke="midnightblue" d="M470.68,-403.48C485.57,-393.84 510.04,-378.02 527.77,-366.55"/>
<polygon fill="midnightblue" stroke="midnightblue" points="529.85,-369.38 536.34,-361.01 526.05,-363.5 529.85,-369.38"/>
</g>
<!-- Node40 -->
<g id="node40" class="node">
<title>Node40</title>
<g id="a_node40"><a xlink:href="_gui_list_8h.html" target="_top" xlink:title=" ">
<polygon fill="white" stroke="black" points="451.5,-280.5 451.5,-299.5 559.5,-299.5 559.5,-280.5 451.5,-280.5"/>
<text text-anchor="middle" x="505.5" y="-287.5" font-family="Helvetica,sans-Serif" font-size="10.00">engine/GUI/GuiList.h</text>
</a>
</g>
</g>
<!-- Node39&#45;&gt;Node40 -->
<g id="edge75" class="edge">
<title>Node39&#45;&gt;Node40</title>
<path fill="none" stroke="midnightblue" d="M459.67,-403.38C463.38,-389.09 471.53,-359.73 481.5,-336 485.4,-326.72 490.58,-316.8 495.12,-308.64"/>
<polygon fill="midnightblue" stroke="midnightblue" points="498.29,-310.15 500.22,-299.73 492.22,-306.67 498.29,-310.15"/>
</g>
<!-- Node42 -->
<g id="node42" class="node">
<title>Node42</title>
<g id="a_node42"><a xlink:href="_gui_scroll_8h.html" target="_top" xlink:title=" ">
<polygon fill="white" stroke="black" points="275.5,-342 275.5,-361 391.5,-361 391.5,-342 275.5,-342"/>
<text text-anchor="middle" x="333.5" y="-349" font-family="Helvetica,sans-Serif" font-size="10.00">engine/GUI/GuiScroll.h</text>
</a>
</g>
</g>
<!-- Node39&#45;&gt;Node42 -->
<g id="edge79" class="edge">
<title>Node39&#45;&gt;Node42</title>
<path fill="none" stroke="midnightblue" d="M439.73,-403.48C419.02,-393.53 384.55,-376.99 360.51,-365.46"/>
<polygon fill="midnightblue" stroke="midnightblue" points="361.76,-362.18 351.23,-361.01 358.73,-368.49 361.76,-362.18"/>
</g>
<!-- Node43 -->
<g id="node43" class="node">
<title>Node43</title>
<g id="a_node43"><a xlink:href="_button_8h.html" target="_top" xlink:title=" ">
<polygon fill="white" stroke="black" points="616,-280.5 616,-299.5 721,-299.5 721,-280.5 616,-280.5"/>
<text text-anchor="middle" x="668.5" y="-287.5" font-family="Helvetica,sans-Serif" font-size="10.00">engine/GUI/Button.h</text>
</a>
</g>
</g>
<!-- Node39&#45;&gt;Node43 -->
<g id="edge82" class="edge">
<title>Node39&#45;&gt;Node43</title>
<path fill="none" stroke="midnightblue" d="M461.65,-403.26C469.62,-387.41 488.6,-353.94 514.5,-336 541.45,-317.33 576.17,-306.32 605.82,-299.87"/>
<polygon fill="midnightblue" stroke="midnightblue" points="606.57,-303.29 615.66,-297.85 605.16,-296.43 606.57,-303.29"/>
</g>
<!-- Node40&#45;&gt;Node19 -->
<g id="edge78" class="edge">
<title>Node40&#45;&gt;Node19</title>
<path fill="none" stroke="midnightblue" d="M468.36,-280.35C447.47,-273.68 422.45,-262.4 406.5,-244 395.32,-231.1 390.71,-211.93 388.81,-197.74"/>
<polygon fill="midnightblue" stroke="midnightblue" points="392.28,-197.25 387.8,-187.65 385.32,-197.95 392.28,-197.25"/>
</g>
<!-- Node41 -->
<g id="node41" class="node">
<title>Node41</title>
<g id="a_node41"><a xlink:href="_gui_object_8h.html" target="_top" xlink:title=" ">
<polygon fill="white" stroke="black" points="639.5,-224.5 639.5,-243.5 759.5,-243.5 759.5,-224.5 639.5,-224.5"/>
<text text-anchor="middle" x="699.5" y="-231.5" font-family="Helvetica,sans-Serif" font-size="10.00">engine/GUI/GuiObject.h</text>
</a>
</g>
</g>
<!-- Node40&#45;&gt;Node41 -->
<g id="edge76" class="edge">
<title>Node40&#45;&gt;Node41</title>
<path fill="none" stroke="midnightblue" d="M536.24,-280.44C569.44,-271.2 622.49,-256.44 659.06,-246.26"/>
<polygon fill="midnightblue" stroke="midnightblue" points="660.21,-249.57 668.9,-243.52 658.33,-242.83 660.21,-249.57"/>
</g>
<!-- Node41&#45;&gt;Node8 -->
<g id="edge77" class="edge">
<title>Node41&#45;&gt;Node8</title>
<path fill="none" stroke="midnightblue" d="M704.45,-224.08C708.6,-216.61 714.65,-205.72 719.77,-196.52"/>
<polygon fill="midnightblue" stroke="midnightblue" points="722.84,-198.19 724.64,-187.75 716.72,-194.79 722.84,-198.19"/>
</g>
<!-- Node42&#45;&gt;Node9 -->
<g id="edge81" class="edge">
<title>Node42&#45;&gt;Node9</title>
<path fill="none" stroke="midnightblue" d="M324.21,-341.84C314.29,-332.25 298.5,-316.04 287.5,-300 251.01,-246.81 223.43,-174.79 211.7,-141.4"/>
<polygon fill="midnightblue" stroke="midnightblue" points="214.9,-139.96 208.34,-131.64 208.28,-142.24 214.9,-139.96"/>
</g>
<!-- Node42&#45;&gt;Node40 -->
<g id="edge80" class="edge">
<title>Node42&#45;&gt;Node40</title>
<path fill="none" stroke="midnightblue" d="M358.14,-341.98C387.78,-331.72 437.68,-314.46 471.1,-302.9"/>
<polygon fill="midnightblue" stroke="midnightblue" points="472.6,-306.09 480.9,-299.51 470.31,-299.47 472.6,-306.09"/>
</g>
<!-- Node43&#45;&gt;Node41 -->
<g id="edge83" class="edge">
<title>Node43&#45;&gt;Node41</title>
<path fill="none" stroke="midnightblue" d="M673.62,-280.08C677.91,-272.61 684.16,-261.72 689.44,-252.52"/>
<polygon fill="midnightblue" stroke="midnightblue" points="692.53,-254.17 694.48,-243.75 686.46,-250.68 692.53,-254.17"/>
</g>
</g>
</svg>
