<?xml version="1.0" encoding="UTF-8" standalone="no"?>
<!DOCTYPE svg PUBLIC "-//W3C//DTD SVG 1.1//EN"
 "http://www.w3.org/Graphics/SVG/1.1/DTD/svg11.dtd">
<!-- Generated by graphviz version 2.47.1 (20210421.1823)
 -->
<!-- Title: include/GameLogic/Units/ArmoredUnitFactory.h Pages: 1 -->
<svg width="1417pt" height="722pt"
 viewBox="0.00 0.00 1417.19 722.00" xmlns="http://www.w3.org/2000/svg" xmlns:xlink="http://www.w3.org/1999/xlink">
<g id="graph0" class="graph" transform="scale(1 1) rotate(0) translate(4 718)">
<title>include/GameLogic/Units/ArmoredUnitFactory.h</title>
<polygon fill="white" stroke="transparent" points="-4,4 -4,-718 1413.19,-718 1413.19,4 -4,4"/>
<!-- Node1 -->
<g id="node1" class="node">
<title>Node1</title>
<g id="a_node1"><a xlink:title=" ">
<polygon fill="#bfbfbf" stroke="black" points="1173.5,-683.5 1173.5,-713.5 1300.5,-713.5 1300.5,-683.5 1173.5,-683.5"/>
<text text-anchor="start" x="1181.5" y="-701.5" font-family="Helvetica,sans-Serif" font-size="10.00">include/GameLogic/Units</text>
<text text-anchor="middle" x="1237" y="-690.5" font-family="Helvetica,sans-Serif" font-size="10.00">/ArmoredUnitFactory.h</text>
</a>
</g>
</g>
<!-- Node2 -->
<g id="node2" class="node">
<title>Node2</title>
<g id="a_node2"><a xlink:href="_factory_8h.html" target="_top" xlink:title=" ">
<polygon fill="white" stroke="black" points="1123,-571.5 1123,-590.5 1179,-590.5 1179,-571.5 1123,-571.5"/>
<text text-anchor="middle" x="1151" y="-578.5" font-family="Helvetica,sans-Serif" font-size="10.00">Factory.h</text>
</a>
</g>
</g>
<!-- Node1&#45;&gt;Node2 -->
<g id="edge1" class="edge">
<title>Node1&#45;&gt;Node2</title>
<path fill="none" stroke="midnightblue" d="M1210.79,-683.34C1196.83,-674.57 1180.43,-662.1 1170,-647 1160.5,-633.25 1155.69,-614.72 1153.29,-600.96"/>
<polygon fill="midnightblue" stroke="midnightblue" points="1156.71,-600.13 1151.8,-590.74 1149.78,-601.14 1156.71,-600.13"/>
</g>
<!-- Node43 -->
<g id="node43" class="node">
<title>Node43</title>
<g id="a_node43"><a xlink:href="_transport_unit_factory_8h.html" target="_top" xlink:title=" ">
<polygon fill="white" stroke="black" points="1179,-627.5 1179,-646.5 1295,-646.5 1295,-627.5 1179,-627.5"/>
<text text-anchor="middle" x="1237" y="-634.5" font-family="Helvetica,sans-Serif" font-size="10.00">TransportUnitFactory.h</text>
</a>
</g>
</g>
<!-- Node1&#45;&gt;Node43 -->
<g id="edge82" class="edge">
<title>Node1&#45;&gt;Node43</title>
<path fill="none" stroke="midnightblue" d="M1237,-683.4C1237,-675.47 1237,-665.46 1237,-656.86"/>
<polygon fill="midnightblue" stroke="midnightblue" points="1240.5,-656.66 1237,-646.66 1233.5,-656.66 1240.5,-656.66"/>
</g>
<!-- Node45 -->
<g id="node45" class="node">
<title>Node45</title>
<g id="a_node45"><a xlink:href="_armored_unit_8h.html" target="_top" xlink:title=" ">
<polygon fill="white" stroke="black" points="1312.5,-627.5 1312.5,-646.5 1391.5,-646.5 1391.5,-627.5 1312.5,-627.5"/>
<text text-anchor="middle" x="1352" y="-634.5" font-family="Helvetica,sans-Serif" font-size="10.00">ArmoredUnit.h</text>
</a>
</g>
</g>
<!-- Node1&#45;&gt;Node45 -->
<g id="edge86" class="edge">
<title>Node1&#45;&gt;Node45</title>
<path fill="none" stroke="midnightblue" d="M1264.25,-683.4C1283.03,-673.68 1307.83,-660.86 1326.27,-651.31"/>
<polygon fill="midnightblue" stroke="midnightblue" points="1327.99,-654.36 1335.27,-646.66 1324.78,-648.14 1327.99,-654.36"/>
</g>
<!-- Node3 -->
<g id="node3" class="node">
<title>Node3</title>
<g id="a_node3"><a xlink:title=" ">
<polygon fill="white" stroke="#bfbfbf" points="1176.5,-168.5 1176.5,-187.5 1217.5,-187.5 1217.5,-168.5 1176.5,-168.5"/>
<text text-anchor="middle" x="1197" y="-175.5" font-family="Helvetica,sans-Serif" font-size="10.00">string</text>
</a>
</g>
</g>
<!-- Node2&#45;&gt;Node3 -->
<g id="edge2" class="edge">
<title>Node2&#45;&gt;Node3</title>
<path fill="none" stroke="midnightblue" d="M1155.29,-571.36C1163.56,-554.23 1181.54,-514.57 1189,-479 1210.83,-374.89 1202.93,-246.03 1198.83,-198.11"/>
<polygon fill="midnightblue" stroke="midnightblue" points="1202.3,-197.61 1197.92,-187.97 1195.33,-198.24 1202.3,-197.61"/>
</g>
<!-- Node4 -->
<g id="node4" class="node">
<title>Node4</title>
<g id="a_node4"><a xlink:href="_cell_8h.html" target="_top" xlink:title=" ">
<polygon fill="white" stroke="black" points="811.5,-515.5 811.5,-534.5 852.5,-534.5 852.5,-515.5 811.5,-515.5"/>
<text text-anchor="middle" x="832" y="-522.5" font-family="Helvetica,sans-Serif" font-size="10.00">Cell.h</text>
</a>
</g>
</g>
<!-- Node2&#45;&gt;Node4 -->
<g id="edge3" class="edge">
<title>Node2&#45;&gt;Node4</title>
<path fill="none" stroke="midnightblue" d="M1122.97,-575.26C1063.33,-565.16 924.26,-541.62 862.49,-531.16"/>
<polygon fill="midnightblue" stroke="midnightblue" points="863.02,-527.7 852.58,-529.48 861.86,-534.6 863.02,-527.7"/>
</g>
<!-- Node23 -->
<g id="node23" class="node">
<title>Node23</title>
<g id="a_node23"><a xlink:href="_unit_8h.html" target="_top" xlink:title=" ">
<polygon fill="white" stroke="black" points="1247,-342 1247,-361 1369,-361 1369,-342 1247,-342"/>
<text text-anchor="middle" x="1308" y="-349" font-family="Helvetica,sans-Serif" font-size="10.00">GameLogic/Units/Unit.h</text>
</a>
</g>
</g>
<!-- Node2&#45;&gt;Node23 -->
<g id="edge81" class="edge">
<title>Node2&#45;&gt;Node23</title>
<path fill="none" stroke="midnightblue" d="M1179.16,-576.35C1205.22,-571.47 1243.15,-560.27 1265,-535 1286.31,-510.36 1300.59,-412.66 1305.8,-371.23"/>
<polygon fill="midnightblue" stroke="midnightblue" points="1309.29,-371.5 1307.03,-361.15 1302.34,-370.65 1309.29,-371.5"/>
</g>
<!-- Node5 -->
<g id="node5" class="node">
<title>Node5</title>
<g id="a_node5"><a xlink:href="gameplay_clickable_game_object_8h.html" target="_top" xlink:title=" ">
<polygon fill="white" stroke="black" points="423.5,-336.5 423.5,-366.5 552.5,-366.5 552.5,-336.5 423.5,-336.5"/>
<text text-anchor="start" x="431.5" y="-354.5" font-family="Helvetica,sans-Serif" font-size="10.00">engine/gameplayClickable</text>
<text text-anchor="middle" x="488" y="-343.5" font-family="Helvetica,sans-Serif" font-size="10.00">GameObject.h</text>
</a>
</g>
</g>
<!-- Node4&#45;&gt;Node5 -->
<g id="edge4" class="edge">
<title>Node4&#45;&gt;Node5</title>
<path fill="none" stroke="midnightblue" d="M811.46,-524.22C769.35,-523.8 671.39,-518.3 602,-479 590.09,-472.26 535.77,-409.09 506.62,-374.65"/>
<polygon fill="midnightblue" stroke="midnightblue" points="509.26,-372.35 500.13,-366.97 503.91,-376.86 509.26,-372.35"/>
</g>
<!-- Node8 -->
<g id="node8" class="node">
<title>Node8</title>
<g id="a_node8"><a xlink:href="config_8h.html" target="_top" xlink:title=" ">
<polygon fill="white" stroke="black" points="1086.5,-112.5 1086.5,-131.5 1167.5,-131.5 1167.5,-112.5 1086.5,-112.5"/>
<text text-anchor="middle" x="1127" y="-119.5" font-family="Helvetica,sans-Serif" font-size="10.00">engine/config.h</text>
</a>
</g>
</g>
<!-- Node4&#45;&gt;Node8 -->
<g id="edge24" class="edge">
<title>Node4&#45;&gt;Node8</title>
<path fill="none" stroke="midnightblue" d="M852.69,-523.09C891.5,-520.62 977.01,-511.62 1040,-479 1105.36,-445.15 1132.39,-434.39 1162,-367 1196.6,-288.26 1155.31,-182.78 1135.95,-141.06"/>
<polygon fill="midnightblue" stroke="midnightblue" points="1139.04,-139.4 1131.57,-131.89 1132.72,-142.42 1139.04,-139.4"/>
</g>
<!-- Node11 -->
<g id="node11" class="node">
<title>Node11</title>
<g id="a_node11"><a xlink:href="_facade_8h.html" target="_top" xlink:title=" ">
<polygon fill="white" stroke="black" points="1129,-0.5 1129,-19.5 1185,-19.5 1185,-0.5 1129,-0.5"/>
<text text-anchor="middle" x="1157" y="-7.5" font-family="Helvetica,sans-Serif" font-size="10.00">Facade.h</text>
</a>
</g>
</g>
<!-- Node4&#45;&gt;Node11 -->
<g id="edge25" class="edge">
<title>Node4&#45;&gt;Node11</title>
<path fill="none" stroke="midnightblue" d="M852.57,-521.34C894.53,-515.67 992.76,-501.06 1073,-479 1212.24,-440.72 1282.65,-475.45 1378,-367 1417.72,-321.82 1408,-295.16 1408,-235 1408,-235 1408,-235 1408,-121 1408,-29.36 1265.91,-13.35 1195.55,-11.04"/>
<polygon fill="midnightblue" stroke="midnightblue" points="1195.39,-7.53 1185.3,-10.78 1195.21,-14.53 1195.39,-7.53"/>
</g>
<!-- Node14 -->
<g id="node14" class="node">
<title>Node14</title>
<g id="a_node14"><a xlink:title=" ">
<polygon fill="white" stroke="#bfbfbf" points="377,-56.5 377,-75.5 431,-75.5 431,-56.5 377,-56.5"/>
<text text-anchor="middle" x="404" y="-63.5" font-family="Helvetica,sans-Serif" font-size="10.00">iostream</text>
</a>
</g>
</g>
<!-- Node4&#45;&gt;Node14 -->
<g id="edge46" class="edge">
<title>Node4&#45;&gt;Node14</title>
<path fill="none" stroke="midnightblue" d="M811.43,-523.51C683.31,-520.19 0,-498.51 0,-414 0,-414 0,-414 0,-177 0,-101.43 266.51,-76.05 366.61,-69.19"/>
<polygon fill="midnightblue" stroke="midnightblue" points="367.12,-72.66 376.87,-68.51 366.66,-65.67 367.12,-72.66"/>
</g>
<!-- Node16 -->
<g id="node16" class="node">
<title>Node16</title>
<g id="a_node16"><a xlink:href="cellgen_8h.html" target="_top" xlink:title=" ">
<polygon fill="white" stroke="black" points="599.5,-403.5 599.5,-422.5 670.5,-422.5 670.5,-403.5 599.5,-403.5"/>
<text text-anchor="middle" x="635" y="-410.5" font-family="Helvetica,sans-Serif" font-size="10.00">util/cellgen.h</text>
</a>
</g>
</g>
<!-- Node4&#45;&gt;Node16 -->
<g id="edge15" class="edge">
<title>Node4&#45;&gt;Node16</title>
<path fill="none" stroke="midnightblue" d="M811.38,-523.03C761.29,-520.19 635.39,-510.05 610,-479 598.47,-464.89 609.18,-444.87 619.94,-430.78"/>
<polygon fill="midnightblue" stroke="midnightblue" points="622.79,-432.83 626.45,-422.88 617.39,-428.37 622.79,-432.83"/>
</g>
<!-- Node18 -->
<g id="node18" class="node">
<title>Node18</title>
<g id="a_node18"><a xlink:title=" ">
<polygon fill="white" stroke="#bfbfbf" points="370.5,-342 370.5,-361 405.5,-361 405.5,-342 370.5,-342"/>
<text text-anchor="middle" x="388" y="-349" font-family="Helvetica,sans-Serif" font-size="10.00">map</text>
</a>
</g>
</g>
<!-- Node4&#45;&gt;Node18 -->
<g id="edge45" class="edge">
<title>Node4&#45;&gt;Node18</title>
<path fill="none" stroke="midnightblue" d="M811.22,-523.15C766.97,-520.74 660.81,-511.72 579,-479 508.83,-450.93 437.6,-394.84 405.54,-367.78"/>
<polygon fill="midnightblue" stroke="midnightblue" points="407.79,-365.1 397.91,-361.27 403.24,-370.43 407.79,-365.1"/>
</g>
<!-- Node20 -->
<g id="node20" class="node">
<title>Node20</title>
<g id="a_node20"><a xlink:href="_all_flags_8h.html" target="_top" xlink:title=" ">
<polygon fill="white" stroke="black" points="884.5,-280.5 884.5,-299.5 943.5,-299.5 943.5,-280.5 884.5,-280.5"/>
<text text-anchor="middle" x="914" y="-287.5" font-family="Helvetica,sans-Serif" font-size="10.00">AllFlags.h</text>
</a>
</g>
</g>
<!-- Node4&#45;&gt;Node20 -->
<g id="edge19" class="edge">
<title>Node4&#45;&gt;Node20</title>
<path fill="none" stroke="midnightblue" d="M852.7,-519.52C873.09,-513.89 903.13,-502.03 917,-479 933.89,-450.95 922.47,-351.42 916.73,-309.66"/>
<polygon fill="midnightblue" stroke="midnightblue" points="920.19,-309.14 915.33,-299.73 913.26,-310.12 920.19,-309.14"/>
</g>
<!-- Node22 -->
<g id="node22" class="node">
<title>Node22</title>
<g id="a_node22"><a xlink:href="_squad_8h.html" target="_top" xlink:title=" ">
<polygon fill="white" stroke="black" points="941,-403.5 941,-422.5 993,-422.5 993,-403.5 941,-403.5"/>
<text text-anchor="middle" x="967" y="-410.5" font-family="Helvetica,sans-Serif" font-size="10.00">Squad.h</text>
</a>
</g>
</g>
<!-- Node4&#45;&gt;Node22 -->
<g id="edge26" class="edge">
<title>Node4&#45;&gt;Node22</title>
<path fill="none" stroke="midnightblue" d="M852.96,-520.92C877.93,-516.41 918.56,-505.44 942,-479 953.19,-466.37 956.84,-447.16 959.54,-432.9"/>
<polygon fill="midnightblue" stroke="midnightblue" points="963.04,-433.24 961.62,-422.74 956.18,-431.83 963.04,-433.24"/>
</g>
<!-- Node29 -->
<g id="node29" class="node">
<title>Node29</title>
<g id="a_node29"><a xlink:href="geometry_8h.html" target="_top" xlink:title=" ">
<polygon fill="white" stroke="black" points="619,-459.5 619,-478.5 699,-478.5 699,-459.5 619,-459.5"/>
<text text-anchor="middle" x="659" y="-466.5" font-family="Helvetica,sans-Serif" font-size="10.00">util/geometry.h</text>
</a>
</g>
</g>
<!-- Node4&#45;&gt;Node29 -->
<g id="edge47" class="edge">
<title>Node4&#45;&gt;Node29</title>
<path fill="none" stroke="midnightblue" d="M811.48,-517.59C783.13,-508.74 731.5,-492.63 696.25,-481.63"/>
<polygon fill="midnightblue" stroke="midnightblue" points="696.91,-478.17 686.32,-478.53 694.83,-484.85 696.91,-478.17"/>
</g>
<!-- Node30 -->
<g id="node30" class="node">
<title>Node30</title>
<g id="a_node30"><a xlink:href="_none_8h.html" target="_top" xlink:title=" ">
<polygon fill="white" stroke="black" points="611.5,-168.5 611.5,-187.5 724.5,-187.5 724.5,-168.5 611.5,-168.5"/>
<text text-anchor="middle" x="668" y="-175.5" font-family="Helvetica,sans-Serif" font-size="10.00">engine/actions/None.h</text>
</a>
</g>
</g>
<!-- Node4&#45;&gt;Node30 -->
<g id="edge50" class="edge">
<title>Node4&#45;&gt;Node30</title>
<path fill="none" stroke="midnightblue" d="M811.5,-518.55C791.81,-512.25 762.67,-499.98 746,-479 743.73,-476.14 689.28,-262.63 672.73,-197.59"/>
<polygon fill="midnightblue" stroke="midnightblue" points="676.03,-196.39 670.18,-187.56 669.25,-198.12 676.03,-196.39"/>
</g>
<!-- Node31 -->
<g id="node31" class="node">
<title>Node31</title>
<g id="a_node31"><a xlink:href="game_controller_8h.html" target="_top" xlink:title=" ">
<polygon fill="white" stroke="black" points="28.5,-280.5 28.5,-299.5 149.5,-299.5 149.5,-280.5 28.5,-280.5"/>
<text text-anchor="middle" x="89" y="-287.5" font-family="Helvetica,sans-Serif" font-size="10.00">engine/gameController.h</text>
</a>
</g>
</g>
<!-- Node4&#45;&gt;Node31 -->
<g id="edge52" class="edge">
<title>Node4&#45;&gt;Node31</title>
<path fill="none" stroke="midnightblue" d="M811.38,-523.73C745.8,-522.49 536.43,-515.74 368,-479 293.57,-462.77 271.89,-461.24 206,-423 156.5,-394.28 116.92,-337.15 99.16,-308.39"/>
<polygon fill="midnightblue" stroke="midnightblue" points="102.15,-306.57 93.99,-299.81 96.15,-310.18 102.15,-306.57"/>
</g>
<!-- Node35 -->
<g id="node35" class="node">
<title>Node35</title>
<g id="a_node35"><a xlink:href="_set_squad_path_8h.html" target="_top" xlink:title=" ">
<polygon fill="white" stroke="black" points="755.5,-459.5 755.5,-478.5 908.5,-478.5 908.5,-459.5 755.5,-459.5"/>
<text text-anchor="middle" x="832" y="-466.5" font-family="Helvetica,sans-Serif" font-size="10.00">engine/actions/SetSquadPath.h</text>
</a>
</g>
</g>
<!-- Node4&#45;&gt;Node35 -->
<g id="edge61" class="edge">
<title>Node4&#45;&gt;Node35</title>
<path fill="none" stroke="midnightblue" d="M826.83,-515.08C825.32,-507.93 824.89,-497.64 825.54,-488.69"/>
<polygon fill="midnightblue" stroke="midnightblue" points="829.02,-489.13 826.87,-478.75 822.08,-488.2 829.02,-489.13"/>
</g>
<!-- Node36 -->
<g id="node36" class="node">
<title>Node36</title>
<g id="a_node36"><a xlink:href="_all_units_8h.html" target="_top" xlink:title=" ">
<polygon fill="white" stroke="black" points="1011.5,-403.5 1011.5,-422.5 1070.5,-422.5 1070.5,-403.5 1011.5,-403.5"/>
<text text-anchor="middle" x="1041" y="-410.5" font-family="Helvetica,sans-Serif" font-size="10.00">AllUnits.h</text>
</a>
</g>
</g>
<!-- Node4&#45;&gt;Node36 -->
<g id="edge65" class="edge">
<title>Node4&#45;&gt;Node36</title>
<path fill="none" stroke="midnightblue" d="M852.61,-521.09C882.36,-516.16 938.23,-504.17 979,-479 999.44,-466.38 1017.73,-445.42 1029.06,-430.72"/>
<polygon fill="midnightblue" stroke="midnightblue" points="1032,-432.62 1035.16,-422.5 1026.39,-428.44 1032,-432.62"/>
</g>
<!-- Node37 -->
<g id="node37" class="node">
<title>Node37</title>
<g id="a_node37"><a xlink:href="_all_squad_templates_8h.html" target="_top" xlink:title=" ">
<polygon fill="white" stroke="black" points="377.5,-459.5 377.5,-478.5 486.5,-478.5 486.5,-459.5 377.5,-459.5"/>
<text text-anchor="middle" x="432" y="-466.5" font-family="Helvetica,sans-Serif" font-size="10.00">AllSquadTemplates.h</text>
</a>
</g>
</g>
<!-- Node4&#45;&gt;Node37 -->
<g id="edge67" class="edge">
<title>Node4&#45;&gt;Node37</title>
<path fill="none" stroke="midnightblue" d="M811.34,-521.21C753.67,-513.42 589.16,-491.22 496.85,-478.75"/>
<polygon fill="midnightblue" stroke="midnightblue" points="497.16,-475.26 486.78,-477.4 496.22,-482.2 497.16,-475.26"/>
</g>
<!-- Node6 -->
<g id="node6" class="node">
<title>Node6</title>
<g id="a_node6"><a xlink:href="game_object_8h.html" target="_top" xlink:title=" ">
<polygon fill="white" stroke="black" points="426.5,-168.5 426.5,-187.5 503.5,-187.5 503.5,-168.5 426.5,-168.5"/>
<text text-anchor="middle" x="465" y="-175.5" font-family="Helvetica,sans-Serif" font-size="10.00">gameObject.h</text>
</a>
</g>
</g>
<!-- Node5&#45;&gt;Node6 -->
<g id="edge5" class="edge">
<title>Node5&#45;&gt;Node6</title>
<path fill="none" stroke="midnightblue" d="M486.12,-336.47C481.99,-305.7 472.15,-232.33 467.51,-197.7"/>
<polygon fill="midnightblue" stroke="midnightblue" points="470.95,-197.01 466.15,-187.56 464.01,-197.94 470.95,-197.01"/>
</g>
<!-- Node7 -->
<g id="node7" class="node">
<title>Node7</title>
<g id="a_node7"><a xlink:title=" ">
<polygon fill="white" stroke="#bfbfbf" points="274.5,-112.5 274.5,-131.5 303.5,-131.5 303.5,-112.5 274.5,-112.5"/>
<text text-anchor="middle" x="289" y="-119.5" font-family="Helvetica,sans-Serif" font-size="10.00">list</text>
</a>
</g>
</g>
<!-- Node6&#45;&gt;Node7 -->
<g id="edge6" class="edge">
<title>Node6&#45;&gt;Node7</title>
<path fill="none" stroke="midnightblue" d="M437.11,-168.44C403,-157.98 345.81,-140.43 313.38,-130.48"/>
<polygon fill="midnightblue" stroke="midnightblue" points="314.37,-127.12 303.78,-127.54 312.32,-133.81 314.37,-127.12"/>
</g>
<!-- Node6&#45;&gt;Node8 -->
<g id="edge7" class="edge">
<title>Node6&#45;&gt;Node8</title>
<path fill="none" stroke="midnightblue" d="M503.71,-169.36C506.85,-168.85 509.97,-168.39 513,-168 720.97,-140.97 970.85,-128.94 1076.21,-124.79"/>
<polygon fill="midnightblue" stroke="midnightblue" points="1076.39,-128.29 1086.25,-124.41 1076.12,-121.29 1076.39,-128.29"/>
</g>
<!-- Node13 -->
<g id="node13" class="node">
<title>Node13</title>
<g id="a_node13"><a xlink:href="engine_2_action_8h.html" target="_top" xlink:title=" ">
<polygon fill="white" stroke="black" points="626.5,-112.5 626.5,-131.5 709.5,-131.5 709.5,-112.5 626.5,-112.5"/>
<text text-anchor="middle" x="668" y="-119.5" font-family="Helvetica,sans-Serif" font-size="10.00">engine/Action.h</text>
</a>
</g>
</g>
<!-- Node6&#45;&gt;Node13 -->
<g id="edge12" class="edge">
<title>Node6&#45;&gt;Node13</title>
<path fill="none" stroke="midnightblue" d="M497.17,-168.44C532.06,-159.16 587.89,-144.31 626.17,-134.13"/>
<polygon fill="midnightblue" stroke="midnightblue" points="627.22,-137.47 635.98,-131.52 625.42,-130.7 627.22,-137.47"/>
</g>
<!-- Node9 -->
<g id="node9" class="node">
<title>Node9</title>
<g id="a_node9"><a xlink:href="_s_f_m_l_facade_8h.html" target="_top" xlink:title=" ">
<polygon fill="white" stroke="black" points="1046.5,-56.5 1046.5,-75.5 1169.5,-75.5 1169.5,-56.5 1046.5,-56.5"/>
<text text-anchor="middle" x="1108" y="-63.5" font-family="Helvetica,sans-Serif" font-size="10.00">graphics/SFMLFacade.h</text>
</a>
</g>
</g>
<!-- Node8&#45;&gt;Node9 -->
<g id="edge8" class="edge">
<title>Node8&#45;&gt;Node9</title>
<path fill="none" stroke="midnightblue" d="M1123.86,-112.08C1121.32,-104.85 1117.64,-94.41 1114.47,-85.4"/>
<polygon fill="midnightblue" stroke="midnightblue" points="1117.7,-84.02 1111.08,-75.75 1111.1,-86.35 1117.7,-84.02"/>
</g>
<!-- Node12 -->
<g id="node12" class="node">
<title>Node12</title>
<g id="a_node12"><a xlink:title=" ">
<polygon fill="white" stroke="#bfbfbf" points="1188,-56.5 1188,-75.5 1286,-75.5 1286,-56.5 1188,-56.5"/>
<text text-anchor="middle" x="1237" y="-63.5" font-family="Helvetica,sans-Serif" font-size="10.00">nlohmann/json.hpp</text>
</a>
</g>
</g>
<!-- Node8&#45;&gt;Node12 -->
<g id="edge11" class="edge">
<title>Node8&#45;&gt;Node12</title>
<path fill="none" stroke="midnightblue" d="M1144.67,-112.32C1162.39,-103.62 1189.9,-90.12 1210.29,-80.11"/>
<polygon fill="midnightblue" stroke="midnightblue" points="1211.94,-83.2 1219.37,-75.65 1208.85,-76.92 1211.94,-83.2"/>
</g>
<!-- Node10 -->
<g id="node10" class="node">
<title>Node10</title>
<g id="a_node10"><a xlink:title=" ">
<polygon fill="white" stroke="#bfbfbf" points="1007,-0.5 1007,-19.5 1111,-19.5 1111,-0.5 1007,-0.5"/>
<text text-anchor="middle" x="1059" y="-7.5" font-family="Helvetica,sans-Serif" font-size="10.00">SFML/Graphics.hpp</text>
</a>
</g>
</g>
<!-- Node9&#45;&gt;Node10 -->
<g id="edge9" class="edge">
<title>Node9&#45;&gt;Node10</title>
<path fill="none" stroke="midnightblue" d="M1099.91,-56.08C1092.84,-48.3 1082.41,-36.8 1073.85,-27.37"/>
<polygon fill="midnightblue" stroke="midnightblue" points="1076.25,-24.8 1066.94,-19.75 1071.07,-29.51 1076.25,-24.8"/>
</g>
<!-- Node9&#45;&gt;Node11 -->
<g id="edge10" class="edge">
<title>Node9&#45;&gt;Node11</title>
<path fill="none" stroke="midnightblue" d="M1116.09,-56.08C1123.16,-48.3 1133.59,-36.8 1142.15,-27.37"/>
<polygon fill="midnightblue" stroke="midnightblue" points="1144.93,-29.51 1149.06,-19.75 1139.75,-24.8 1144.93,-29.51"/>
</g>
<!-- Node13&#45;&gt;Node14 -->
<g id="edge13" class="edge">
<title>Node13&#45;&gt;Node14</title>
<path fill="none" stroke="midnightblue" d="M626.46,-112.5C575.49,-102.08 489.84,-84.56 441.02,-74.57"/>
<polygon fill="midnightblue" stroke="midnightblue" points="441.69,-71.14 431.19,-72.56 440.29,-78 441.69,-71.14"/>
</g>
<!-- Node15 -->
<g id="node15" class="node">
<title>Node15</title>
<g id="a_node15"><a xlink:title=" ">
<polygon fill="white" stroke="#bfbfbf" points="747.5,-56.5 747.5,-75.5 798.5,-75.5 798.5,-56.5 747.5,-56.5"/>
<text text-anchor="middle" x="773" y="-63.5" font-family="Helvetica,sans-Serif" font-size="10.00">memory</text>
</a>
</g>
</g>
<!-- Node13&#45;&gt;Node15 -->
<g id="edge14" class="edge">
<title>Node13&#45;&gt;Node15</title>
<path fill="none" stroke="midnightblue" d="M684.87,-112.32C701.71,-103.66 727.81,-90.24 747.24,-80.25"/>
<polygon fill="midnightblue" stroke="midnightblue" points="748.88,-83.34 756.17,-75.65 745.68,-77.12 748.88,-83.34"/>
</g>
<!-- Node17 -->
<g id="node17" class="node">
<title>Node17</title>
<g id="a_node17"><a xlink:title=" ">
<polygon fill="white" stroke="#bfbfbf" points="743,-168.5 743,-187.5 787,-187.5 787,-168.5 743,-168.5"/>
<text text-anchor="middle" x="765" y="-175.5" font-family="Helvetica,sans-Serif" font-size="10.00">vector</text>
</a>
</g>
</g>
<!-- Node16&#45;&gt;Node17 -->
<g id="edge16" class="edge">
<title>Node16&#45;&gt;Node17</title>
<path fill="none" stroke="midnightblue" d="M655.1,-403.43C671.09,-395.79 693.17,-383.3 708,-367 752.52,-318.05 762.3,-235.32 764.42,-198.12"/>
<polygon fill="midnightblue" stroke="midnightblue" points="767.94,-197.89 764.88,-187.75 760.94,-197.58 767.94,-197.89"/>
</g>
<!-- Node16&#45;&gt;Node18 -->
<g id="edge17" class="edge">
<title>Node16&#45;&gt;Node18</title>
<path fill="none" stroke="midnightblue" d="M599.24,-408.15C554.75,-402.6 476.97,-390.33 414,-367 412.96,-366.61 411.91,-366.19 410.86,-365.74"/>
<polygon fill="midnightblue" stroke="midnightblue" points="412.17,-362.48 401.65,-361.15 409.04,-368.74 412.17,-362.48"/>
</g>
<!-- Node19 -->
<g id="node19" class="node">
<title>Node19</title>
<g id="a_node19"><a xlink:title=" ">
<polygon fill="white" stroke="#bfbfbf" points="571,-342 571,-361 699,-361 699,-342 571,-342"/>
<text text-anchor="middle" x="635" y="-349" font-family="Helvetica,sans-Serif" font-size="10.00">scanline_triangulation.hpp</text>
</a>
</g>
</g>
<!-- Node16&#45;&gt;Node19 -->
<g id="edge18" class="edge">
<title>Node16&#45;&gt;Node19</title>
<path fill="none" stroke="midnightblue" d="M635,-403.48C635,-395.08 635,-381.98 635,-371.16"/>
<polygon fill="midnightblue" stroke="midnightblue" points="638.5,-371.01 635,-361.01 631.5,-371.01 638.5,-371.01"/>
</g>
<!-- Node20&#45;&gt;Node15 -->
<g id="edge23" class="edge">
<title>Node20&#45;&gt;Node15</title>
<path fill="none" stroke="midnightblue" d="M910.62,-280.43C902.45,-260.13 880.39,-207.8 855,-168 834.58,-135.99 805.61,-102.46 788.14,-83.22"/>
<polygon fill="midnightblue" stroke="midnightblue" points="790.54,-80.66 781.19,-75.66 785.38,-85.39 790.54,-80.66"/>
</g>
<!-- Node21 -->
<g id="node21" class="node">
<title>Node21</title>
<g id="a_node21"><a xlink:href="_flag_8h.html" target="_top" xlink:title=" ">
<polygon fill="white" stroke="black" points="907.5,-224.5 907.5,-243.5 950.5,-243.5 950.5,-224.5 907.5,-224.5"/>
<text text-anchor="middle" x="929" y="-231.5" font-family="Helvetica,sans-Serif" font-size="10.00">Flag.h</text>
</a>
</g>
</g>
<!-- Node20&#45;&gt;Node21 -->
<g id="edge20" class="edge">
<title>Node20&#45;&gt;Node21</title>
<path fill="none" stroke="midnightblue" d="M916.48,-280.08C918.49,-272.85 921.39,-262.41 923.89,-253.4"/>
<polygon fill="midnightblue" stroke="midnightblue" points="927.26,-254.32 926.57,-243.75 920.52,-252.45 927.26,-254.32"/>
</g>
<!-- Node21&#45;&gt;Node3 -->
<g id="edge22" class="edge">
<title>Node21&#45;&gt;Node3</title>
<path fill="none" stroke="midnightblue" d="M950.93,-228.58C998.51,-218.99 1111.34,-196.26 1166.11,-185.22"/>
<polygon fill="midnightblue" stroke="midnightblue" points="1167.14,-188.59 1176.25,-183.18 1165.76,-181.72 1167.14,-188.59"/>
</g>
<!-- Node21&#45;&gt;Node17 -->
<g id="edge21" class="edge">
<title>Node21&#45;&gt;Node17</title>
<path fill="none" stroke="midnightblue" d="M907.22,-225.83C879,-216.54 829.56,-200.26 797.04,-189.55"/>
<polygon fill="midnightblue" stroke="midnightblue" points="797.72,-186.09 787.13,-186.29 795.53,-192.74 797.72,-186.09"/>
</g>
<!-- Node22&#45;&gt;Node4 -->
<g id="edge27" class="edge">
<title>Node22&#45;&gt;Node4</title>
<path fill="none" stroke="midnightblue" d="M972.94,-422.74C976.24,-436.42 974.19,-463 960,-479 935.6,-506.53 892.58,-517.28 863.02,-521.44"/>
<polygon fill="midnightblue" stroke="midnightblue" points="862.3,-518 852.8,-522.69 863.15,-524.95 862.3,-518"/>
</g>
<!-- Node22&#45;&gt;Node5 -->
<g id="edge39" class="edge">
<title>Node22&#45;&gt;Node5</title>
<path fill="none" stroke="midnightblue" d="M940.84,-409.85C877.74,-404.5 711.98,-389.5 562.78,-367.03"/>
<polygon fill="midnightblue" stroke="midnightblue" points="562.93,-363.51 552.52,-365.47 561.88,-370.43 562.93,-363.51"/>
</g>
<!-- Node22&#45;&gt;Node8 -->
<g id="edge43" class="edge">
<title>Node22&#45;&gt;Node8</title>
<path fill="none" stroke="midnightblue" d="M971.75,-403.08C979.35,-388.86 994.72,-360.18 1008,-336 1047.88,-263.37 1096.29,-177.37 1116.92,-140.84"/>
<polygon fill="midnightblue" stroke="midnightblue" points="1120.09,-142.33 1121.96,-131.9 1114,-138.89 1120.09,-142.33"/>
</g>
<!-- Node22&#45;&gt;Node11 -->
<g id="edge44" class="edge">
<title>Node22&#45;&gt;Node11</title>
<path fill="none" stroke="midnightblue" d="M967.79,-403.12C970.46,-372.22 979,-266.49 979,-179 979,-179 979,-179 979,-121 979,-81.98 1005.75,-77.95 1038,-56 1062.71,-39.18 1094.56,-27.56 1119.09,-20.35"/>
<polygon fill="midnightblue" stroke="midnightblue" points="1120.1,-23.71 1128.77,-17.62 1118.2,-16.97 1120.1,-23.71"/>
</g>
<!-- Node22&#45;&gt;Node23 -->
<g id="edge28" class="edge">
<title>Node22&#45;&gt;Node23</title>
<path fill="none" stroke="midnightblue" d="M991.71,-403.49C992.48,-403.32 993.24,-403.16 994,-403 1076.68,-385.85 1172.94,-370.7 1236.94,-361.58"/>
<polygon fill="midnightblue" stroke="midnightblue" points="1237.52,-365.03 1246.93,-360.17 1236.54,-358.1 1237.52,-365.03"/>
</g>
<!-- Node28 -->
<g id="node28" class="node">
<title>Node28</title>
<g id="a_node28"><a xlink:href="_game_logic_2_squad_2_action_8h.html" target="_top" xlink:title=" ">
<polygon fill="white" stroke="black" points="1017,-342 1017,-361 1153,-361 1153,-342 1017,-342"/>
<text text-anchor="middle" x="1085" y="-349" font-family="Helvetica,sans-Serif" font-size="10.00">GameLogic/Squad/Action.h</text>
</a>
</g>
</g>
<!-- Node22&#45;&gt;Node28 -->
<g id="edge40" class="edge">
<title>Node22&#45;&gt;Node28</title>
<path fill="none" stroke="midnightblue" d="M979.01,-403.48C996.63,-393.49 1029.38,-376.85 1053.94,-365.31"/>
<polygon fill="midnightblue" stroke="midnightblue" points="1055.62,-368.38 1063.23,-361.01 1052.68,-362.03 1055.62,-368.38"/>
</g>
<!-- Node23&#45;&gt;Node20 -->
<g id="edge34" class="edge">
<title>Node23&#45;&gt;Node20</title>
<path fill="none" stroke="midnightblue" d="M1251.55,-341.98C1170.79,-329.78 1024.29,-307.66 953.88,-297.02"/>
<polygon fill="midnightblue" stroke="midnightblue" points="954.07,-293.51 943.66,-295.48 953.03,-300.43 954.07,-293.51"/>
</g>
<!-- Node23&#45;&gt;Node22 -->
<g id="edge33" class="edge">
<title>Node23&#45;&gt;Node22</title>
<path fill="none" stroke="midnightblue" d="M1254.33,-361.04C1194.82,-370.1 1096.35,-385.5 1012,-403 1009.07,-403.61 1006.01,-404.29 1002.92,-405.01"/>
<polygon fill="midnightblue" stroke="midnightblue" points="1001.98,-401.63 993.04,-407.32 1003.57,-408.45 1001.98,-401.63"/>
</g>
<!-- Node24 -->
<g id="node24" class="node">
<title>Node24</title>
<g id="a_node24"><a xlink:title=" ">
<polygon fill="white" stroke="#bfbfbf" points="1336.5,-280.5 1336.5,-299.5 1379.5,-299.5 1379.5,-280.5 1336.5,-280.5"/>
<text text-anchor="middle" x="1358" y="-287.5" font-family="Helvetica,sans-Serif" font-size="10.00">cstdio</text>
</a>
</g>
</g>
<!-- Node23&#45;&gt;Node24 -->
<g id="edge29" class="edge">
<title>Node23&#45;&gt;Node24</title>
<path fill="none" stroke="midnightblue" d="M1315.16,-341.98C1322.74,-332.96 1334.87,-318.52 1344.29,-307.31"/>
<polygon fill="midnightblue" stroke="midnightblue" points="1347.1,-309.42 1350.85,-299.51 1341.74,-304.91 1347.1,-309.42"/>
</g>
<!-- Node25 -->
<g id="node25" class="node">
<title>Node25</title>
<g id="a_node25"><a xlink:href="_unit_order_8h.html" target="_top" xlink:title=" ">
<polygon fill="white" stroke="black" points="1214,-280.5 1214,-299.5 1280,-299.5 1280,-280.5 1214,-280.5"/>
<text text-anchor="middle" x="1247" y="-287.5" font-family="Helvetica,sans-Serif" font-size="10.00">UnitOrder.h</text>
</a>
</g>
</g>
<!-- Node23&#45;&gt;Node25 -->
<g id="edge30" class="edge">
<title>Node23&#45;&gt;Node25</title>
<path fill="none" stroke="midnightblue" d="M1294.36,-341.98C1283.15,-332.96 1267.95,-318.52 1257.63,-307.31"/>
<polygon fill="midnightblue" stroke="midnightblue" points="1260.04,-304.75 1250.83,-299.51 1254.76,-309.35 1260.04,-304.75"/>
</g>
<!-- Node26 -->
<g id="node26" class="node">
<title>Node26</title>
<g id="a_node26"><a xlink:href="_textures_8h.html" target="_top" xlink:title=" ">
<polygon fill="white" stroke="black" points="1256.5,-224.5 1256.5,-243.5 1357.5,-243.5 1357.5,-224.5 1256.5,-224.5"/>
<text text-anchor="middle" x="1307" y="-231.5" font-family="Helvetica,sans-Serif" font-size="10.00">graphics/Textures.h</text>
</a>
</g>
</g>
<!-- Node23&#45;&gt;Node26 -->
<g id="edge35" class="edge">
<title>Node23&#45;&gt;Node26</title>
<path fill="none" stroke="midnightblue" d="M1307.92,-341.82C1307.76,-323.26 1307.38,-279.34 1307.16,-253.97"/>
<polygon fill="midnightblue" stroke="midnightblue" points="1310.66,-253.75 1307.08,-243.78 1303.66,-253.81 1310.66,-253.75"/>
</g>
<!-- Node25&#45;&gt;Node3 -->
<g id="edge31" class="edge">
<title>Node25&#45;&gt;Node3</title>
<path fill="none" stroke="midnightblue" d="M1243.08,-280.37C1234.93,-262.46 1216.06,-220.92 1205.16,-196.95"/>
<polygon fill="midnightblue" stroke="midnightblue" points="1208.23,-195.25 1200.91,-187.59 1201.86,-198.14 1208.23,-195.25"/>
</g>
<!-- Node25&#45;&gt;Node23 -->
<g id="edge32" class="edge">
<title>Node25&#45;&gt;Node23</title>
<path fill="none" stroke="midnightblue" d="M1260.62,-299.51C1271.82,-308.52 1287.02,-322.95 1297.36,-334.17"/>
<polygon fill="midnightblue" stroke="midnightblue" points="1294.95,-336.74 1304.16,-341.98 1300.23,-332.14 1294.95,-336.74"/>
</g>
<!-- Node26&#45;&gt;Node8 -->
<g id="edge36" class="edge">
<title>Node26&#45;&gt;Node8</title>
<path fill="none" stroke="midnightblue" d="M1297.76,-224.13C1283.46,-210.74 1254.72,-185.1 1227,-168 1205.69,-154.86 1179.89,-143.35 1159.84,-135.26"/>
<polygon fill="midnightblue" stroke="midnightblue" points="1161.08,-131.99 1150.5,-131.57 1158.51,-138.5 1161.08,-131.99"/>
</g>
<!-- Node26&#45;&gt;Node17 -->
<g id="edge37" class="edge">
<title>Node26&#45;&gt;Node17</title>
<path fill="none" stroke="midnightblue" d="M1256.5,-227.97C1146.53,-217.01 888.04,-191.26 797.23,-182.21"/>
<polygon fill="midnightblue" stroke="midnightblue" points="797.55,-178.73 787.25,-181.22 796.85,-185.69 797.55,-178.73"/>
</g>
<!-- Node27 -->
<g id="node27" class="node">
<title>Node27</title>
<g id="a_node27"><a xlink:title=" ">
<polygon fill="white" stroke="#bfbfbf" points="1274.5,-168.5 1274.5,-187.5 1357.5,-187.5 1357.5,-168.5 1274.5,-168.5"/>
<text text-anchor="middle" x="1316" y="-175.5" font-family="Helvetica,sans-Serif" font-size="10.00">unordered_map</text>
</a>
</g>
</g>
<!-- Node26&#45;&gt;Node27 -->
<g id="edge38" class="edge">
<title>Node26&#45;&gt;Node27</title>
<path fill="none" stroke="midnightblue" d="M1308.49,-224.08C1309.68,-216.93 1311.39,-206.64 1312.88,-197.69"/>
<polygon fill="midnightblue" stroke="midnightblue" points="1316.35,-198.19 1314.54,-187.75 1309.45,-197.04 1316.35,-198.19"/>
</g>
<!-- Node28&#45;&gt;Node4 -->
<g id="edge42" class="edge">
<title>Node28&#45;&gt;Node4</title>
<path fill="none" stroke="midnightblue" d="M1086.61,-361.39C1088.67,-375.44 1090.83,-403.19 1080,-423 1060.05,-459.51 1042.5,-460.98 1005,-479 958.1,-501.53 898.43,-513.85 862.83,-519.67"/>
<polygon fill="midnightblue" stroke="midnightblue" points="861.94,-516.27 852.6,-521.27 863.02,-523.19 861.94,-516.27"/>
</g>
<!-- Node28&#45;&gt;Node22 -->
<g id="edge41" class="edge">
<title>Node28&#45;&gt;Node22</title>
<path fill="none" stroke="midnightblue" d="M1073.02,-361.01C1055.41,-370.99 1022.67,-387.63 998.1,-399.17"/>
<polygon fill="midnightblue" stroke="midnightblue" points="996.41,-396.1 988.81,-403.48 999.35,-402.45 996.41,-396.1"/>
</g>
<!-- Node29&#45;&gt;Node16 -->
<g id="edge49" class="edge">
<title>Node29&#45;&gt;Node16</title>
<path fill="none" stroke="midnightblue" d="M655.04,-459.08C651.79,-451.77 647.08,-441.18 643.05,-432.1"/>
<polygon fill="midnightblue" stroke="midnightblue" points="646.15,-430.47 638.89,-422.75 639.75,-433.31 646.15,-430.47"/>
</g>
<!-- Node29&#45;&gt;Node17 -->
<g id="edge48" class="edge">
<title>Node29&#45;&gt;Node17</title>
<path fill="none" stroke="midnightblue" d="M687.45,-459.49C729.42,-444.97 803,-411.15 803,-352.5 803,-352.5 803,-352.5 803,-289 803,-254.81 786.4,-217.76 775.14,-196.57"/>
<polygon fill="midnightblue" stroke="midnightblue" points="778.18,-194.83 770.28,-187.77 772.05,-198.22 778.18,-194.83"/>
</g>
<!-- Node30&#45;&gt;Node13 -->
<g id="edge51" class="edge">
<title>Node30&#45;&gt;Node13</title>
<path fill="none" stroke="midnightblue" d="M668,-168.08C668,-161.01 668,-150.86 668,-141.99"/>
<polygon fill="midnightblue" stroke="midnightblue" points="671.5,-141.75 668,-131.75 664.5,-141.75 671.5,-141.75"/>
</g>
<!-- Node31&#45;&gt;Node6 -->
<g id="edge54" class="edge">
<title>Node31&#45;&gt;Node6</title>
<path fill="none" stroke="midnightblue" d="M117.67,-280.4C159.49,-267.87 239.66,-243.94 308,-224 347.79,-212.39 393.33,-199.37 425.08,-190.33"/>
<polygon fill="midnightblue" stroke="midnightblue" points="426.22,-193.65 434.88,-187.54 424.3,-186.91 426.22,-193.65"/>
</g>
<!-- Node31&#45;&gt;Node7 -->
<g id="edge53" class="edge">
<title>Node31&#45;&gt;Node7</title>
<path fill="none" stroke="midnightblue" d="M89.46,-280.48C90.6,-267.09 94.51,-240.91 108,-224 149.42,-172.05 225.25,-142.5 264.3,-130.06"/>
<polygon fill="midnightblue" stroke="midnightblue" points="265.75,-133.28 274.29,-127 263.7,-126.58 265.75,-133.28"/>
</g>
<!-- Node32 -->
<g id="node32" class="node">
<title>Node32</title>
<g id="a_node32"><a xlink:href="_network_manager_8h.html" target="_top" xlink:title=" ">
<polygon fill="white" stroke="black" points="493,-224.5 493,-243.5 623,-243.5 623,-224.5 493,-224.5"/>
<text text-anchor="middle" x="558" y="-231.5" font-family="Helvetica,sans-Serif" font-size="10.00">engine/NetworkManager.h</text>
</a>
</g>
</g>
<!-- Node31&#45;&gt;Node32 -->
<g id="edge55" class="edge">
<title>Node31&#45;&gt;Node32</title>
<path fill="none" stroke="midnightblue" d="M149.57,-281.04C152.42,-280.68 155.24,-280.34 158,-280 271.1,-266.26 402.37,-251.77 482.8,-243.06"/>
<polygon fill="midnightblue" stroke="midnightblue" points="483.27,-246.53 492.83,-241.97 482.51,-239.57 483.27,-246.53"/>
</g>
<!-- Node34 -->
<g id="node34" class="node">
<title>Node34</title>
<g id="a_node34"><a xlink:title=" ">
<polygon fill="white" stroke="#bfbfbf" points="117.5,-224.5 117.5,-243.5 166.5,-243.5 166.5,-224.5 117.5,-224.5"/>
<text text-anchor="middle" x="142" y="-231.5" font-family="Helvetica,sans-Serif" font-size="10.00">random</text>
</a>
</g>
</g>
<!-- Node31&#45;&gt;Node34 -->
<g id="edge60" class="edge">
<title>Node31&#45;&gt;Node34</title>
<path fill="none" stroke="midnightblue" d="M97.75,-280.08C105.47,-272.22 116.9,-260.57 126.22,-251.08"/>
<polygon fill="midnightblue" stroke="midnightblue" points="128.9,-253.34 133.41,-243.75 123.91,-248.44 128.9,-253.34"/>
</g>
<!-- Node32&#45;&gt;Node6 -->
<g id="edge56" class="edge">
<title>Node32&#45;&gt;Node6</title>
<path fill="none" stroke="midnightblue" d="M543.06,-224.32C528.41,-215.82 505.87,-202.73 488.76,-192.8"/>
<polygon fill="midnightblue" stroke="midnightblue" points="490.31,-189.65 479.9,-187.65 486.8,-195.7 490.31,-189.65"/>
</g>
<!-- Node32&#45;&gt;Node17 -->
<g id="edge58" class="edge">
<title>Node32&#45;&gt;Node17</title>
<path fill="none" stroke="midnightblue" d="M592.26,-224.43C627.59,-215.54 684.23,-201.13 733,-188 733.1,-187.97 733.2,-187.95 733.3,-187.92"/>
<polygon fill="midnightblue" stroke="midnightblue" points="734.27,-191.28 742.98,-185.26 732.41,-184.53 734.27,-191.28"/>
</g>
<!-- Node32&#45;&gt;Node30 -->
<g id="edge57" class="edge">
<title>Node32&#45;&gt;Node30</title>
<path fill="none" stroke="midnightblue" d="M575.67,-224.32C593.39,-215.62 620.9,-202.12 641.29,-192.11"/>
<polygon fill="midnightblue" stroke="midnightblue" points="642.94,-195.2 650.37,-187.65 639.85,-188.92 642.94,-195.2"/>
</g>
<!-- Node33 -->
<g id="node33" class="node">
<title>Node33</title>
<g id="a_node33"><a xlink:title=" ">
<polygon fill="white" stroke="#bfbfbf" points="522.5,-168.5 522.5,-187.5 593.5,-187.5 593.5,-168.5 522.5,-168.5"/>
<text text-anchor="middle" x="558" y="-175.5" font-family="Helvetica,sans-Serif" font-size="10.00">sys/socket.h</text>
</a>
</g>
</g>
<!-- Node32&#45;&gt;Node33 -->
<g id="edge59" class="edge">
<title>Node32&#45;&gt;Node33</title>
<path fill="none" stroke="midnightblue" d="M558,-224.08C558,-217.01 558,-206.86 558,-197.99"/>
<polygon fill="midnightblue" stroke="midnightblue" points="561.5,-197.75 558,-187.75 554.5,-197.75 561.5,-197.75"/>
</g>
<!-- Node35&#45;&gt;Node4 -->
<g id="edge64" class="edge">
<title>Node35&#45;&gt;Node4</title>
<path fill="none" stroke="midnightblue" d="M837.13,-478.75C838.66,-485.86 839.1,-496.14 838.47,-505.1"/>
<polygon fill="midnightblue" stroke="midnightblue" points="834.99,-504.71 837.17,-515.08 841.93,-505.62 834.99,-504.71"/>
</g>
<!-- Node35&#45;&gt;Node13 -->
<g id="edge62" class="edge">
<title>Node35&#45;&gt;Node13</title>
<path fill="none" stroke="midnightblue" d="M833.14,-459.32C835.56,-440.12 841,-392.52 841,-352.5 841,-352.5 841,-352.5 841,-233 841,-174.94 770.76,-146.21 719.79,-133"/>
<polygon fill="midnightblue" stroke="midnightblue" points="720.43,-129.56 709.88,-130.57 718.75,-136.35 720.43,-129.56"/>
</g>
<!-- Node35&#45;&gt;Node22 -->
<g id="edge63" class="edge">
<title>Node35&#45;&gt;Node22</title>
<path fill="none" stroke="midnightblue" d="M853.39,-459.44C875.71,-450.52 910.9,-436.44 936.21,-426.32"/>
<polygon fill="midnightblue" stroke="midnightblue" points="937.72,-429.48 945.71,-422.52 935.12,-422.98 937.72,-429.48"/>
</g>
<!-- Node36&#45;&gt;Node2 -->
<g id="edge66" class="edge">
<title>Node36&#45;&gt;Node2</title>
<path fill="none" stroke="midnightblue" d="M1046.68,-422.57C1063.9,-448.56 1115.83,-526.92 1139.28,-562.31"/>
<polygon fill="midnightblue" stroke="midnightblue" points="1136.64,-564.67 1145.09,-571.08 1142.48,-560.81 1136.64,-564.67"/>
</g>
<!-- Node37&#45;&gt;Node36 -->
<g id="edge80" class="edge">
<title>Node37&#45;&gt;Node36</title>
<path fill="none" stroke="midnightblue" d="M486.89,-464.71C606.11,-457.39 886.57,-439.25 1001.35,-422.82"/>
<polygon fill="midnightblue" stroke="midnightblue" points="1001.9,-426.27 1011.28,-421.34 1000.87,-419.35 1001.9,-426.27"/>
</g>
<!-- Node38 -->
<g id="node38" class="node">
<title>Node38</title>
<g id="a_node38"><a xlink:href="_squad_template_8h.html" target="_top" xlink:title=" ">
<polygon fill="white" stroke="black" points="215,-403.5 215,-422.5 307,-422.5 307,-403.5 215,-403.5"/>
<text text-anchor="middle" x="261" y="-410.5" font-family="Helvetica,sans-Serif" font-size="10.00">SquadTemplate.h</text>
</a>
</g>
</g>
<!-- Node37&#45;&gt;Node38 -->
<g id="edge68" class="edge">
<title>Node37&#45;&gt;Node38</title>
<path fill="none" stroke="midnightblue" d="M404.9,-459.44C376.01,-450.32 330.08,-435.81 297.89,-425.65"/>
<polygon fill="midnightblue" stroke="midnightblue" points="298.56,-422.19 287.97,-422.52 296.45,-428.87 298.56,-422.19"/>
</g>
<!-- Node38&#45;&gt;Node2 -->
<g id="edge70" class="edge">
<title>Node38&#45;&gt;Node2</title>
<path fill="none" stroke="midnightblue" d="M271.77,-422.69C290.23,-437.07 329.64,-465.56 368,-479 641.13,-574.73 996.4,-581.25 1112.48,-580.6"/>
<polygon fill="midnightblue" stroke="midnightblue" points="1112.67,-584.1 1122.65,-580.52 1112.62,-577.1 1112.67,-584.1"/>
</g>
<!-- Node38&#45;&gt;Node17 -->
<g id="edge69" class="edge">
<title>Node38&#45;&gt;Node17</title>
<path fill="none" stroke="midnightblue" d="M275.06,-403.49C288.95,-394.88 310.58,-380.88 328,-367 343.74,-354.46 343.55,-346.02 361,-336 423.31,-300.21 606.19,-275.05 671,-244 699.45,-230.37 728.82,-208.6 746.99,-194.06"/>
<polygon fill="midnightblue" stroke="midnightblue" points="749.42,-196.6 754.96,-187.57 744.99,-191.17 749.42,-196.6"/>
</g>
<!-- Node39 -->
<g id="node39" class="node">
<title>Node39</title>
<g id="a_node39"><a xlink:href="_gui_list_8h.html" target="_top" xlink:title=" ">
<polygon fill="white" stroke="black" points="329,-280.5 329,-299.5 437,-299.5 437,-280.5 329,-280.5"/>
<text text-anchor="middle" x="383" y="-287.5" font-family="Helvetica,sans-Serif" font-size="10.00">engine/GUI/GuiList.h</text>
</a>
</g>
</g>
<!-- Node38&#45;&gt;Node39 -->
<g id="edge71" class="edge">
<title>Node38&#45;&gt;Node39</title>
<path fill="none" stroke="midnightblue" d="M268.01,-403.15C279.75,-388.54 304.44,-358.7 328,-336 339.07,-325.33 352.41,-314.38 363.17,-305.95"/>
<polygon fill="midnightblue" stroke="midnightblue" points="365.38,-308.67 371.16,-299.79 361.11,-303.12 365.38,-308.67"/>
</g>
<!-- Node41 -->
<g id="node41" class="node">
<title>Node41</title>
<g id="a_node41"><a xlink:href="_gui_scroll_8h.html" target="_top" xlink:title=" ">
<polygon fill="white" stroke="black" points="160,-342 160,-361 276,-361 276,-342 160,-342"/>
<text text-anchor="middle" x="218" y="-349" font-family="Helvetica,sans-Serif" font-size="10.00">engine/GUI/GuiScroll.h</text>
</a>
</g>
</g>
<!-- Node38&#45;&gt;Node41 -->
<g id="edge75" class="edge">
<title>Node38&#45;&gt;Node41</title>
<path fill="none" stroke="midnightblue" d="M254.84,-403.48C248.39,-394.55 238.1,-380.31 230.03,-369.14"/>
<polygon fill="midnightblue" stroke="midnightblue" points="232.84,-367.06 224.15,-361.01 227.17,-371.16 232.84,-367.06"/>
</g>
<!-- Node42 -->
<g id="node42" class="node">
<title>Node42</title>
<g id="a_node42"><a xlink:href="_button_8h.html" target="_top" xlink:title=" ">
<polygon fill="white" stroke="black" points="167.5,-280.5 167.5,-299.5 272.5,-299.5 272.5,-280.5 167.5,-280.5"/>
<text text-anchor="middle" x="220" y="-287.5" font-family="Helvetica,sans-Serif" font-size="10.00">engine/GUI/Button.h</text>
</a>
</g>
</g>
<!-- Node38&#45;&gt;Node42 -->
<g id="edge78" class="edge">
<title>Node38&#45;&gt;Node42</title>
<path fill="none" stroke="midnightblue" d="M214.8,-405.39C191.51,-399.46 165.26,-388.24 151,-367 143.32,-355.56 144.44,-348.11 151,-336 158.75,-321.7 173.23,-311.22 186.94,-303.99"/>
<polygon fill="midnightblue" stroke="midnightblue" points="188.74,-307.01 196.21,-299.5 185.69,-300.71 188.74,-307.01"/>
</g>
<!-- Node39&#45;&gt;Node17 -->
<g id="edge74" class="edge">
<title>Node39&#45;&gt;Node17</title>
<path fill="none" stroke="midnightblue" d="M437.49,-283.53C488.66,-277.38 566.88,-265.34 632,-244 672.46,-230.74 716.25,-207.42 742.11,-192.62"/>
<polygon fill="midnightblue" stroke="midnightblue" points="743.9,-195.63 750.79,-187.58 740.39,-189.57 743.9,-195.63"/>
</g>
<!-- Node40 -->
<g id="node40" class="node">
<title>Node40</title>
<g id="a_node40"><a xlink:href="_gui_object_8h.html" target="_top" xlink:title=" ">
<polygon fill="white" stroke="black" points="317,-224.5 317,-243.5 437,-243.5 437,-224.5 317,-224.5"/>
<text text-anchor="middle" x="377" y="-231.5" font-family="Helvetica,sans-Serif" font-size="10.00">engine/GUI/GuiObject.h</text>
</a>
</g>
</g>
<!-- Node39&#45;&gt;Node40 -->
<g id="edge72" class="edge">
<title>Node39&#45;&gt;Node40</title>
<path fill="none" stroke="midnightblue" d="M382.01,-280.08C381.21,-272.93 380.07,-262.64 379.08,-253.69"/>
<polygon fill="midnightblue" stroke="midnightblue" points="382.56,-253.3 377.97,-243.75 375.6,-254.08 382.56,-253.3"/>
</g>
<!-- Node40&#45;&gt;Node6 -->
<g id="edge73" class="edge">
<title>Node40&#45;&gt;Node6</title>
<path fill="none" stroke="midnightblue" d="M391.14,-224.32C404.87,-215.9 425.94,-202.97 442.06,-193.07"/>
<polygon fill="midnightblue" stroke="midnightblue" points="444.2,-195.87 450.9,-187.65 440.54,-189.9 444.2,-195.87"/>
</g>
<!-- Node41&#45;&gt;Node7 -->
<g id="edge77" class="edge">
<title>Node41&#45;&gt;Node7</title>
<path fill="none" stroke="midnightblue" d="M235.67,-341.84C250.68,-333.42 271.28,-319.12 281,-300 307.54,-247.77 299.02,-175.28 292.91,-141.59"/>
<polygon fill="midnightblue" stroke="midnightblue" points="296.34,-140.88 290.99,-131.74 289.47,-142.22 296.34,-140.88"/>
</g>
<!-- Node41&#45;&gt;Node39 -->
<g id="edge76" class="edge">
<title>Node41&#45;&gt;Node39</title>
<path fill="none" stroke="midnightblue" d="M241.64,-341.98C269.94,-331.77 317.53,-314.61 349.59,-303.05"/>
<polygon fill="midnightblue" stroke="midnightblue" points="351.18,-306.19 359.4,-299.51 348.81,-299.61 351.18,-306.19"/>
</g>
<!-- Node42&#45;&gt;Node40 -->
<g id="edge79" class="edge">
<title>Node42&#45;&gt;Node40</title>
<path fill="none" stroke="midnightblue" d="M244.88,-280.44C271.29,-271.36 313.22,-256.94 342.74,-246.78"/>
<polygon fill="midnightblue" stroke="midnightblue" points="343.92,-250.08 352.24,-243.52 341.64,-243.46 343.92,-250.08"/>
</g>
<!-- Node43&#45;&gt;Node2 -->
<g id="edge83" class="edge">
<title>Node43&#45;&gt;Node2</title>
<path fill="none" stroke="midnightblue" d="M1223.18,-627.32C1209.77,-618.9 1189.18,-605.97 1173.41,-596.07"/>
<polygon fill="midnightblue" stroke="midnightblue" points="1175.11,-593.01 1164.78,-590.65 1171.39,-598.94 1175.11,-593.01"/>
</g>
<!-- Node44 -->
<g id="node44" class="node">
<title>Node44</title>
<g id="a_node44"><a xlink:href="_transport_unit_8h.html" target="_top" xlink:title=" ">
<polygon fill="white" stroke="black" points="1253.5,-571.5 1253.5,-590.5 1336.5,-590.5 1336.5,-571.5 1253.5,-571.5"/>
<text text-anchor="middle" x="1295" y="-578.5" font-family="Helvetica,sans-Serif" font-size="10.00">TransportUnit.h</text>
</a>
</g>
</g>
<!-- Node43&#45;&gt;Node44 -->
<g id="edge84" class="edge">
<title>Node43&#45;&gt;Node44</title>
<path fill="none" stroke="midnightblue" d="M1246.32,-627.32C1254.89,-619.34 1267.81,-607.31 1278.19,-597.65"/>
<polygon fill="midnightblue" stroke="midnightblue" points="1280.58,-600.21 1285.51,-590.83 1275.81,-595.09 1280.58,-600.21"/>
</g>
<!-- Node44&#45;&gt;Node23 -->
<g id="edge85" class="edge">
<title>Node44&#45;&gt;Node23</title>
<path fill="none" stroke="midnightblue" d="M1296.92,-571.43C1298.84,-562.41 1301.7,-547.79 1303,-535 1309.07,-475.48 1308.91,-404.52 1308.4,-371.35"/>
<polygon fill="midnightblue" stroke="midnightblue" points="1311.9,-371.2 1308.22,-361.27 1304.9,-371.33 1311.9,-371.2"/>
</g>
<!-- Node45&#45;&gt;Node23 -->
<g id="edge87" class="edge">
<title>Node45&#45;&gt;Node23</title>
<path fill="none" stroke="midnightblue" d="M1353.7,-627.48C1357.22,-609.06 1365,-564.08 1365,-526 1365,-526 1365,-526 1365,-468 1365,-429.28 1338.93,-390.1 1322.05,-368.8"/>
<polygon fill="midnightblue" stroke="midnightblue" points="1324.74,-366.56 1315.69,-361.06 1319.33,-371.01 1324.74,-366.56"/>
</g>
<!-- Node45&#45;&gt;Node44 -->
<g id="edge88" class="edge">
<title>Node45&#45;&gt;Node44</title>
<path fill="none" stroke="midnightblue" d="M1342.84,-627.32C1334.5,-619.42 1321.97,-607.55 1311.82,-597.94"/>
<polygon fill="midnightblue" stroke="midnightblue" points="1313.99,-595.17 1304.32,-590.83 1309.18,-600.25 1313.99,-595.17"/>
</g>
</g>
</svg>
