<?xml version="1.0" encoding="UTF-8" standalone="no"?>
<!DOCTYPE svg PUBLIC "-//W3C//DTD SVG 1.1//EN"
 "http://www.w3.org/Graphics/SVG/1.1/DTD/svg11.dtd">
<!-- Generated by graphviz version 2.47.1 (20210421.1823)
 -->
<!-- Title: include/GameLogic/Units/ArmoredUnitFactory.h Pages: 1 -->
<svg width="1427pt" height="666pt"
 viewBox="0.00 0.00 1427.00 666.00" xmlns="http://www.w3.org/2000/svg" xmlns:xlink="http://www.w3.org/1999/xlink">
<g id="graph0" class="graph" transform="scale(1 1) rotate(0) translate(4 662)">
<title>include/GameLogic/Units/ArmoredUnitFactory.h</title>
<polygon fill="white" stroke="transparent" points="-4,4 -4,-662 1423,-662 1423,4 -4,4"/>
<!-- Node1 -->
<g id="node1" class="node">
<title>Node1</title>
<g id="a_node1"><a xlink:title=" ">
<polygon fill="#bfbfbf" stroke="black" points="121.5,-627.5 121.5,-657.5 248.5,-657.5 248.5,-627.5 121.5,-627.5"/>
<text text-anchor="start" x="129.5" y="-645.5" font-family="Helvetica,sans-Serif" font-size="10.00">include/GameLogic/Units</text>
<text text-anchor="middle" x="185" y="-634.5" font-family="Helvetica,sans-Serif" font-size="10.00">/ArmoredUnitFactory.h</text>
</a>
</g>
</g>
<!-- Node2 -->
<g id="node2" class="node">
<title>Node2</title>
<g id="a_node2"><a xlink:href="_factory_8h.html" target="_top" xlink:title=" ">
<polygon fill="white" stroke="black" points="203,-515.5 203,-534.5 259,-534.5 259,-515.5 203,-515.5"/>
<text text-anchor="middle" x="231" y="-522.5" font-family="Helvetica,sans-Serif" font-size="10.00">Factory.h</text>
</a>
</g>
</g>
<!-- Node1&#45;&gt;Node2 -->
<g id="edge1" class="edge">
<title>Node1&#45;&gt;Node2</title>
<path fill="none" stroke="midnightblue" d="M214.69,-627.34C228.74,-618.92 244.14,-606.77 252,-591 259.66,-575.63 251.93,-556.84 243.77,-543.43"/>
<polygon fill="midnightblue" stroke="midnightblue" points="246.43,-541.11 237.97,-534.73 240.61,-544.99 246.43,-541.11"/>
</g>
<!-- Node41 -->
<g id="node41" class="node">
<title>Node41</title>
<g id="a_node41"><a xlink:href="_transport_unit_factory_8h.html" target="_top" xlink:title=" ">
<polygon fill="white" stroke="black" points="127,-571.5 127,-590.5 243,-590.5 243,-571.5 127,-571.5"/>
<text text-anchor="middle" x="185" y="-578.5" font-family="Helvetica,sans-Serif" font-size="10.00">TransportUnitFactory.h</text>
</a>
</g>
</g>
<!-- Node1&#45;&gt;Node41 -->
<g id="edge77" class="edge">
<title>Node1&#45;&gt;Node41</title>
<path fill="none" stroke="midnightblue" d="M185,-627.4C185,-619.47 185,-609.46 185,-600.86"/>
<polygon fill="midnightblue" stroke="midnightblue" points="188.5,-600.66 185,-590.66 181.5,-600.66 188.5,-600.66"/>
</g>
<!-- Node43 -->
<g id="node43" class="node">
<title>Node43</title>
<g id="a_node43"><a xlink:href="_armored_unit_8h.html" target="_top" xlink:title=" ">
<polygon fill="white" stroke="black" points="30.5,-571.5 30.5,-590.5 109.5,-590.5 109.5,-571.5 30.5,-571.5"/>
<text text-anchor="middle" x="70" y="-578.5" font-family="Helvetica,sans-Serif" font-size="10.00">ArmoredUnit.h</text>
</a>
</g>
</g>
<!-- Node1&#45;&gt;Node43 -->
<g id="edge81" class="edge">
<title>Node1&#45;&gt;Node43</title>
<path fill="none" stroke="midnightblue" d="M157.75,-627.4C138.97,-617.68 114.17,-604.86 95.73,-595.31"/>
<polygon fill="midnightblue" stroke="midnightblue" points="97.22,-592.14 86.73,-590.66 94.01,-598.36 97.22,-592.14"/>
</g>
<!-- Node3 -->
<g id="node3" class="node">
<title>Node3</title>
<g id="a_node3"><a xlink:title=" ">
<polygon fill="white" stroke="#bfbfbf" points="74.5,-112.5 74.5,-131.5 115.5,-131.5 115.5,-112.5 74.5,-112.5"/>
<text text-anchor="middle" x="95" y="-119.5" font-family="Helvetica,sans-Serif" font-size="10.00">string</text>
</a>
</g>
</g>
<!-- Node2&#45;&gt;Node3 -->
<g id="edge2" class="edge">
<title>Node2&#45;&gt;Node3</title>
<path fill="none" stroke="midnightblue" d="M225.72,-515.23C215.27,-497.04 193,-453.6 193,-414 193,-414 193,-414 193,-356 193,-321.18 187.92,-311.91 174,-280 154.48,-235.26 134.4,-232.35 114,-188 107.09,-172.98 102.04,-154.85 98.89,-141.55"/>
<polygon fill="midnightblue" stroke="midnightblue" points="102.28,-140.7 96.69,-131.7 95.45,-142.22 102.28,-140.7"/>
</g>
<!-- Node4 -->
<g id="node4" class="node">
<title>Node4</title>
<g id="a_node4"><a xlink:href="_cell_8h.html" target="_top" xlink:title=" ">
<polygon fill="white" stroke="black" points="741.5,-459.5 741.5,-478.5 782.5,-478.5 782.5,-459.5 741.5,-459.5"/>
<text text-anchor="middle" x="762" y="-466.5" font-family="Helvetica,sans-Serif" font-size="10.00">Cell.h</text>
</a>
</g>
</g>
<!-- Node2&#45;&gt;Node4 -->
<g id="edge3" class="edge">
<title>Node2&#45;&gt;Node4</title>
<path fill="none" stroke="midnightblue" d="M259.17,-521.13C350.32,-511.87 636.76,-482.74 731.35,-473.12"/>
<polygon fill="midnightblue" stroke="midnightblue" points="731.81,-476.59 741.41,-472.09 731.11,-469.62 731.81,-476.59"/>
</g>
<!-- Node23 -->
<g id="node23" class="node">
<title>Node23</title>
<g id="a_node23"><a xlink:href="_unit_8h.html" target="_top" xlink:title=" ">
<polygon fill="white" stroke="black" points="43,-286 43,-305 165,-305 165,-286 43,-286"/>
<text text-anchor="middle" x="104" y="-293" font-family="Helvetica,sans-Serif" font-size="10.00">GameLogic/Units/Unit.h</text>
</a>
</g>
</g>
<!-- Node2&#45;&gt;Node23 -->
<g id="edge76" class="edge">
<title>Node2&#45;&gt;Node23</title>
<path fill="none" stroke="midnightblue" d="M217.85,-515.42C206.25,-507.27 189.58,-494.04 179,-479 142.81,-427.56 152.85,-404.78 128,-347 123.32,-336.13 117.66,-324.16 113.01,-314.6"/>
<polygon fill="midnightblue" stroke="midnightblue" points="116.01,-312.77 108.45,-305.35 109.73,-315.87 116.01,-312.77"/>
</g>
<!-- Node5 -->
<g id="node5" class="node">
<title>Node5</title>
<g id="a_node5"><a xlink:href="gameplay_clickable_game_object_8h.html" target="_top" xlink:title=" ">
<polygon fill="white" stroke="black" points="539.5,-280.5 539.5,-310.5 668.5,-310.5 668.5,-280.5 539.5,-280.5"/>
<text text-anchor="start" x="547.5" y="-298.5" font-family="Helvetica,sans-Serif" font-size="10.00">engine/gameplayClickable</text>
<text text-anchor="middle" x="604" y="-287.5" font-family="Helvetica,sans-Serif" font-size="10.00">GameObject.h</text>
</a>
</g>
</g>
<!-- Node4&#45;&gt;Node5 -->
<g id="edge4" class="edge">
<title>Node4&#45;&gt;Node5</title>
<path fill="none" stroke="midnightblue" d="M741.44,-468.55C708.47,-468.19 644.29,-462.16 613,-423 589.94,-394.15 593.24,-348.8 598.25,-320.96"/>
<polygon fill="midnightblue" stroke="midnightblue" points="601.74,-321.37 600.28,-310.87 594.87,-319.99 601.74,-321.37"/>
</g>
<!-- Node8 -->
<g id="node8" class="node">
<title>Node8</title>
<g id="a_node8"><a xlink:href="config_8h.html" target="_top" xlink:title=" ">
<polygon fill="white" stroke="black" points="656.5,-112.5 656.5,-131.5 737.5,-131.5 737.5,-112.5 656.5,-112.5"/>
<text text-anchor="middle" x="697" y="-119.5" font-family="Helvetica,sans-Serif" font-size="10.00">engine/config.h</text>
</a>
</g>
</g>
<!-- Node4&#45;&gt;Node8 -->
<g id="edge24" class="edge">
<title>Node4&#45;&gt;Node8</title>
<path fill="none" stroke="midnightblue" d="M741.46,-467.18C708.13,-464.88 641.61,-456.13 598,-423 526.12,-368.39 520.31,-332.4 502,-244 487.88,-175.82 583.92,-144.33 646.29,-131.22"/>
<polygon fill="midnightblue" stroke="midnightblue" points="647.26,-134.6 656.37,-129.2 645.88,-127.73 647.26,-134.6"/>
</g>
<!-- Node11 -->
<g id="node11" class="node">
<title>Node11</title>
<g id="a_node11"><a xlink:href="_facade_8h.html" target="_top" xlink:title=" ">
<polygon fill="white" stroke="black" points="1062,-0.5 1062,-19.5 1118,-19.5 1118,-0.5 1062,-0.5"/>
<text text-anchor="middle" x="1090" y="-7.5" font-family="Helvetica,sans-Serif" font-size="10.00">Facade.h</text>
</a>
</g>
</g>
<!-- Node4&#45;&gt;Node11 -->
<g id="edge25" class="edge">
<title>Node4&#45;&gt;Node11</title>
<path fill="none" stroke="midnightblue" d="M782.68,-467.41C868.95,-464.79 1200.36,-452.92 1300,-423 1357.72,-405.67 1419,-418.26 1419,-358 1419,-358 1419,-358 1419,-121 1419,-60.23 1214.57,-26.92 1128,-15.53"/>
<polygon fill="midnightblue" stroke="midnightblue" points="1128.42,-12.06 1118.05,-14.25 1127.52,-19 1128.42,-12.06"/>
</g>
<!-- Node14 -->
<g id="node14" class="node">
<title>Node14</title>
<g id="a_node14"><a xlink:title=" ">
<polygon fill="white" stroke="#bfbfbf" points="1228,-56.5 1228,-75.5 1282,-75.5 1282,-56.5 1228,-56.5"/>
<text text-anchor="middle" x="1255" y="-63.5" font-family="Helvetica,sans-Serif" font-size="10.00">iostream</text>
</a>
</g>
</g>
<!-- Node4&#45;&gt;Node14 -->
<g id="edge46" class="edge">
<title>Node4&#45;&gt;Node14</title>
<path fill="none" stroke="midnightblue" d="M782.6,-467.93C847.18,-467.28 1051.04,-462.05 1214,-423 1291.45,-404.44 1381,-437.65 1381,-358 1381,-358 1381,-358 1381,-177 1381,-127.95 1326.15,-95.74 1288.83,-79.5"/>
<polygon fill="midnightblue" stroke="midnightblue" points="1289.87,-76.14 1279.29,-75.53 1287.18,-82.61 1289.87,-76.14"/>
</g>
<!-- Node16 -->
<g id="node16" class="node">
<title>Node16</title>
<g id="a_node16"><a xlink:href="cellgen_8h.html" target="_top" xlink:title=" ">
<polygon fill="white" stroke="black" points="1024.5,-347.5 1024.5,-366.5 1095.5,-366.5 1095.5,-347.5 1024.5,-347.5"/>
<text text-anchor="middle" x="1060" y="-354.5" font-family="Helvetica,sans-Serif" font-size="10.00">util/cellgen.h</text>
</a>
</g>
</g>
<!-- Node4&#45;&gt;Node16 -->
<g id="edge15" class="edge">
<title>Node4&#45;&gt;Node16</title>
<path fill="none" stroke="midnightblue" d="M782.66,-466.17C835.05,-461.23 971.61,-446.4 1010,-423 1028.55,-411.7 1042.75,-390.78 1051.19,-375.72"/>
<polygon fill="midnightblue" stroke="midnightblue" points="1054.31,-377.31 1055.9,-366.83 1048.13,-374.03 1054.31,-377.31"/>
</g>
<!-- Node18 -->
<g id="node18" class="node">
<title>Node18</title>
<g id="a_node18"><a xlink:title=" ">
<polygon fill="white" stroke="#bfbfbf" points="1241.5,-286 1241.5,-305 1276.5,-305 1276.5,-286 1241.5,-286"/>
<text text-anchor="middle" x="1259" y="-293" font-family="Helvetica,sans-Serif" font-size="10.00">map</text>
</a>
</g>
</g>
<!-- Node4&#45;&gt;Node18 -->
<g id="edge45" class="edge">
<title>Node4&#45;&gt;Node18</title>
<path fill="none" stroke="midnightblue" d="M782.74,-467.02C829.05,-464.31 943.92,-454.67 1034,-423 1115.02,-394.52 1200.82,-337.79 1238.85,-311.07"/>
<polygon fill="midnightblue" stroke="midnightblue" points="1240.92,-313.89 1247.04,-305.25 1236.86,-308.18 1240.92,-313.89"/>
</g>
<!-- Node20 -->
<g id="node20" class="node">
<title>Node20</title>
<g id="a_node20"><a xlink:href="_all_flags_8h.html" target="_top" xlink:title=" ">
<polygon fill="white" stroke="black" points="184.5,-224.5 184.5,-243.5 243.5,-243.5 243.5,-224.5 184.5,-224.5"/>
<text text-anchor="middle" x="214" y="-231.5" font-family="Helvetica,sans-Serif" font-size="10.00">AllFlags.h</text>
</a>
</g>
</g>
<!-- Node4&#45;&gt;Node20 -->
<g id="edge19" class="edge">
<title>Node4&#45;&gt;Node20</title>
<path fill="none" stroke="midnightblue" d="M741.4,-468.42C663.29,-469.65 386.09,-470.5 315,-423 254.16,-382.34 227.08,-292.52 217.88,-253.59"/>
<polygon fill="midnightblue" stroke="midnightblue" points="221.26,-252.65 215.66,-243.65 214.42,-254.17 221.26,-252.65"/>
</g>
<!-- Node22 -->
<g id="node22" class="node">
<title>Node22</title>
<g id="a_node22"><a xlink:href="_squad_8h.html" target="_top" xlink:title=" ">
<polygon fill="white" stroke="black" points="706,-347.5 706,-366.5 758,-366.5 758,-347.5 706,-347.5"/>
<text text-anchor="middle" x="732" y="-354.5" font-family="Helvetica,sans-Serif" font-size="10.00">Squad.h</text>
</a>
</g>
</g>
<!-- Node4&#45;&gt;Node22 -->
<g id="edge26" class="edge">
<title>Node4&#45;&gt;Node22</title>
<path fill="none" stroke="midnightblue" d="M755.8,-459.37C747.61,-441.62 735.99,-400.67 731.86,-376.6"/>
<polygon fill="midnightblue" stroke="midnightblue" points="735.32,-376.03 730.51,-366.59 728.38,-376.97 735.32,-376.03"/>
</g>
<!-- Node29 -->
<g id="node29" class="node">
<title>Node29</title>
<g id="a_node29"><a xlink:href="geometry_8h.html" target="_top" xlink:title=" ">
<polygon fill="white" stroke="black" points="622,-403.5 622,-422.5 702,-422.5 702,-403.5 622,-403.5"/>
<text text-anchor="middle" x="662" y="-410.5" font-family="Helvetica,sans-Serif" font-size="10.00">util/geometry.h</text>
</a>
</g>
</g>
<!-- Node4&#45;&gt;Node29 -->
<g id="edge47" class="edge">
<title>Node4&#45;&gt;Node29</title>
<path fill="none" stroke="midnightblue" d="M745.93,-459.32C730.04,-450.74 705.49,-437.49 687.04,-427.52"/>
<polygon fill="midnightblue" stroke="midnightblue" points="688.49,-424.33 678.03,-422.65 685.16,-430.49 688.49,-424.33"/>
</g>
<!-- Node30 -->
<g id="node30" class="node">
<title>Node30</title>
<g id="a_node30"><a xlink:href="_none_8h.html" target="_top" xlink:title=" ">
<polygon fill="white" stroke="black" points="948.5,-168.5 948.5,-187.5 1061.5,-187.5 1061.5,-168.5 948.5,-168.5"/>
<text text-anchor="middle" x="1005" y="-175.5" font-family="Helvetica,sans-Serif" font-size="10.00">engine/actions/None.h</text>
</a>
</g>
</g>
<!-- Node4&#45;&gt;Node30 -->
<g id="edge50" class="edge">
<title>Node4&#45;&gt;Node30</title>
<path fill="none" stroke="midnightblue" d="M782.68,-466.33C886.18,-457.69 1343,-416.26 1343,-358 1343,-358 1343,-358 1343,-294.5 1343,-237.75 1170.24,-203.11 1071.74,-187.97"/>
<polygon fill="midnightblue" stroke="midnightblue" points="1071.98,-184.47 1061.57,-186.44 1070.94,-191.39 1071.98,-184.47"/>
</g>
<!-- Node31 -->
<g id="node31" class="node">
<title>Node31</title>
<g id="a_node31"><a xlink:href="game_controller_8h.html" target="_top" xlink:title=" ">
<polygon fill="white" stroke="black" points="917.5,-286 917.5,-305 1038.5,-305 1038.5,-286 917.5,-286"/>
<text text-anchor="middle" x="978" y="-293" font-family="Helvetica,sans-Serif" font-size="10.00">engine/gameController.h</text>
</a>
</g>
</g>
<!-- Node4&#45;&gt;Node31 -->
<g id="edge52" class="edge">
<title>Node4&#45;&gt;Node31</title>
<path fill="none" stroke="midnightblue" d="M782.68,-466.86C831.65,-463.7 952.48,-452.95 977,-423 1002.19,-392.24 992.25,-341.71 984.27,-314.77"/>
<polygon fill="midnightblue" stroke="midnightblue" points="987.56,-313.55 981.18,-305.09 980.89,-315.68 987.56,-313.55"/>
</g>
<!-- Node35 -->
<g id="node35" class="node">
<title>Node35</title>
<g id="a_node35"><a xlink:href="_set_squad_path_8h.html" target="_top" xlink:title=" ">
<polygon fill="white" stroke="black" points="814.5,-403.5 814.5,-422.5 967.5,-422.5 967.5,-403.5 814.5,-403.5"/>
<text text-anchor="middle" x="891" y="-410.5" font-family="Helvetica,sans-Serif" font-size="10.00">engine/actions/SetSquadPath.h</text>
</a>
</g>
</g>
<!-- Node4&#45;&gt;Node35 -->
<g id="edge61" class="edge">
<title>Node4&#45;&gt;Node35</title>
<path fill="none" stroke="midnightblue" d="M777.35,-459.44C796.8,-450.48 830.42,-436.31 856.15,-426.18"/>
<polygon fill="midnightblue" stroke="midnightblue" points="857.52,-429.4 865.58,-422.52 854.99,-422.88 857.52,-429.4"/>
</g>
<!-- Node36 -->
<g id="node36" class="node">
<title>Node36</title>
<g id="a_node36"><a xlink:href="_all_units_8h.html" target="_top" xlink:title=" ">
<polygon fill="white" stroke="black" points="297.5,-347.5 297.5,-366.5 356.5,-366.5 356.5,-347.5 297.5,-347.5"/>
<text text-anchor="middle" x="327" y="-354.5" font-family="Helvetica,sans-Serif" font-size="10.00">AllUnits.h</text>
</a>
</g>
</g>
<!-- Node4&#45;&gt;Node36 -->
<g id="edge65" class="edge">
<title>Node4&#45;&gt;Node36</title>
<path fill="none" stroke="midnightblue" d="M741.36,-467.46C658.63,-465.07 354.16,-454.22 326,-423 314.92,-410.71 316.86,-391.18 320.54,-376.73"/>
<polygon fill="midnightblue" stroke="midnightblue" points="323.97,-377.46 323.51,-366.87 317.27,-375.44 323.97,-377.46"/>
</g>
<!-- Node37 -->
<g id="node37" class="node">
<title>Node37</title>
<g id="a_node37"><a xlink:href="_all_squad_templates_8h.html" target="_top" xlink:title=" ">
<polygon fill="white" stroke="black" points="335.5,-403.5 335.5,-422.5 444.5,-422.5 444.5,-403.5 335.5,-403.5"/>
<text text-anchor="middle" x="390" y="-410.5" font-family="Helvetica,sans-Serif" font-size="10.00">AllSquadTemplates.h</text>
</a>
</g>
</g>
<!-- Node4&#45;&gt;Node37 -->
<g id="edge67" class="edge">
<title>Node4&#45;&gt;Node37</title>
<path fill="none" stroke="midnightblue" d="M741.47,-465.02C687.63,-457.2 540.59,-435.86 454.71,-423.39"/>
<polygon fill="midnightblue" stroke="midnightblue" points="455.21,-419.93 444.81,-421.96 454.2,-426.86 455.21,-419.93"/>
</g>
<!-- Node6 -->
<g id="node6" class="node">
<title>Node6</title>
<g id="a_node6"><a xlink:href="game_object_8h.html" target="_top" xlink:title=" ">
<polygon fill="white" stroke="black" points="725.5,-168.5 725.5,-187.5 802.5,-187.5 802.5,-168.5 725.5,-168.5"/>
<text text-anchor="middle" x="764" y="-175.5" font-family="Helvetica,sans-Serif" font-size="10.00">gameObject.h</text>
</a>
</g>
</g>
<!-- Node5&#45;&gt;Node6 -->
<g id="edge5" class="edge">
<title>Node5&#45;&gt;Node6</title>
<path fill="none" stroke="midnightblue" d="M623.62,-280.34C654.15,-258.3 712.73,-216.01 743.69,-193.66"/>
<polygon fill="midnightblue" stroke="midnightblue" points="745.93,-196.36 751.99,-187.67 741.83,-190.68 745.93,-196.36"/>
</g>
<!-- Node7 -->
<g id="node7" class="node">
<title>Node7</title>
<g id="a_node7"><a xlink:title=" ">
<polygon fill="white" stroke="#bfbfbf" points="830.5,-112.5 830.5,-131.5 859.5,-131.5 859.5,-112.5 830.5,-112.5"/>
<text text-anchor="middle" x="845" y="-119.5" font-family="Helvetica,sans-Serif" font-size="10.00">list</text>
</a>
</g>
</g>
<!-- Node6&#45;&gt;Node7 -->
<g id="edge6" class="edge">
<title>Node6&#45;&gt;Node7</title>
<path fill="none" stroke="midnightblue" d="M777.01,-168.32C789.53,-159.98 808.68,-147.21 823.47,-137.35"/>
<polygon fill="midnightblue" stroke="midnightblue" points="825.64,-140.11 832.02,-131.65 821.76,-134.29 825.64,-140.11"/>
</g>
<!-- Node6&#45;&gt;Node8 -->
<g id="edge7" class="edge">
<title>Node6&#45;&gt;Node8</title>
<path fill="none" stroke="midnightblue" d="M753.24,-168.32C743.23,-160.26 728.11,-148.08 716.07,-138.37"/>
<polygon fill="midnightblue" stroke="midnightblue" points="717.94,-135.38 707.96,-131.83 713.55,-140.83 717.94,-135.38"/>
</g>
<!-- Node13 -->
<g id="node13" class="node">
<title>Node13</title>
<g id="a_node13"><a xlink:href="engine_2_action_8h.html" target="_top" xlink:title=" ">
<polygon fill="white" stroke="black" points="963.5,-112.5 963.5,-131.5 1046.5,-131.5 1046.5,-112.5 963.5,-112.5"/>
<text text-anchor="middle" x="1005" y="-119.5" font-family="Helvetica,sans-Serif" font-size="10.00">engine/Action.h</text>
</a>
</g>
</g>
<!-- Node6&#45;&gt;Node13 -->
<g id="edge12" class="edge">
<title>Node6&#45;&gt;Node13</title>
<path fill="none" stroke="midnightblue" d="M802.19,-168.44C844.14,-159.04 911.59,-143.93 957.07,-133.74"/>
<polygon fill="midnightblue" stroke="midnightblue" points="958,-137.12 966.99,-131.52 956.47,-130.29 958,-137.12"/>
</g>
<!-- Node9 -->
<g id="node9" class="node">
<title>Node9</title>
<g id="a_node9"><a xlink:href="_s_f_m_l_facade_8h.html" target="_top" xlink:title=" ">
<polygon fill="white" stroke="black" points="635.5,-56.5 635.5,-75.5 758.5,-75.5 758.5,-56.5 635.5,-56.5"/>
<text text-anchor="middle" x="697" y="-63.5" font-family="Helvetica,sans-Serif" font-size="10.00">graphics/SFMLFacade.h</text>
</a>
</g>
</g>
<!-- Node8&#45;&gt;Node9 -->
<g id="edge8" class="edge">
<title>Node8&#45;&gt;Node9</title>
<path fill="none" stroke="midnightblue" d="M697,-112.08C697,-105.01 697,-94.86 697,-85.99"/>
<polygon fill="midnightblue" stroke="midnightblue" points="700.5,-85.75 697,-75.75 693.5,-85.75 700.5,-85.75"/>
</g>
<!-- Node12 -->
<g id="node12" class="node">
<title>Node12</title>
<g id="a_node12"><a xlink:title=" ">
<polygon fill="white" stroke="#bfbfbf" points="777,-56.5 777,-75.5 875,-75.5 875,-56.5 777,-56.5"/>
<text text-anchor="middle" x="826" y="-63.5" font-family="Helvetica,sans-Serif" font-size="10.00">nlohmann/json.hpp</text>
</a>
</g>
</g>
<!-- Node8&#45;&gt;Node12 -->
<g id="edge11" class="edge">
<title>Node8&#45;&gt;Node12</title>
<path fill="none" stroke="midnightblue" d="M717.44,-112.44C738.67,-103.56 772.1,-89.56 796.25,-79.45"/>
<polygon fill="midnightblue" stroke="midnightblue" points="797.78,-82.61 805.66,-75.52 795.08,-76.15 797.78,-82.61"/>
</g>
<!-- Node10 -->
<g id="node10" class="node">
<title>Node10</title>
<g id="a_node10"><a xlink:title=" ">
<polygon fill="white" stroke="#bfbfbf" points="645,-0.5 645,-19.5 749,-19.5 749,-0.5 645,-0.5"/>
<text text-anchor="middle" x="697" y="-7.5" font-family="Helvetica,sans-Serif" font-size="10.00">SFML/Graphics.hpp</text>
</a>
</g>
</g>
<!-- Node9&#45;&gt;Node10 -->
<g id="edge9" class="edge">
<title>Node9&#45;&gt;Node10</title>
<path fill="none" stroke="midnightblue" d="M697,-56.08C697,-49.01 697,-38.86 697,-29.99"/>
<polygon fill="midnightblue" stroke="midnightblue" points="700.5,-29.75 697,-19.75 693.5,-29.75 700.5,-29.75"/>
</g>
<!-- Node9&#45;&gt;Node11 -->
<g id="edge10" class="edge">
<title>Node9&#45;&gt;Node11</title>
<path fill="none" stroke="midnightblue" d="M758.84,-56.5C840.91,-45.23 983.38,-25.65 1051.53,-16.29"/>
<polygon fill="midnightblue" stroke="midnightblue" points="1052.38,-19.7 1061.81,-14.87 1051.42,-12.77 1052.38,-19.7"/>
</g>
<!-- Node13&#45;&gt;Node14 -->
<g id="edge13" class="edge">
<title>Node13&#45;&gt;Node14</title>
<path fill="none" stroke="midnightblue" d="M1044.61,-112.44C1092.23,-102.16 1171.51,-85.03 1217.95,-75"/>
<polygon fill="midnightblue" stroke="midnightblue" points="1218.86,-78.39 1227.9,-72.85 1217.39,-71.54 1218.86,-78.39"/>
</g>
<!-- Node15 -->
<g id="node15" class="node">
<title>Node15</title>
<g id="a_node15"><a xlink:title=" ">
<polygon fill="white" stroke="#bfbfbf" points="936.5,-56.5 936.5,-75.5 987.5,-75.5 987.5,-56.5 936.5,-56.5"/>
<text text-anchor="middle" x="962" y="-63.5" font-family="Helvetica,sans-Serif" font-size="10.00">memory</text>
</a>
</g>
</g>
<!-- Node13&#45;&gt;Node15 -->
<g id="edge14" class="edge">
<title>Node13&#45;&gt;Node15</title>
<path fill="none" stroke="midnightblue" d="M997.9,-112.08C991.76,-104.38 982.73,-93.03 975.26,-83.65"/>
<polygon fill="midnightblue" stroke="midnightblue" points="977.94,-81.39 968.97,-75.75 972.46,-85.75 977.94,-81.39"/>
</g>
<!-- Node17 -->
<g id="node17" class="node">
<title>Node17</title>
<g id="a_node17"><a xlink:title=" ">
<polygon fill="white" stroke="#bfbfbf" points="369,-112.5 369,-131.5 413,-131.5 413,-112.5 369,-112.5"/>
<text text-anchor="middle" x="391" y="-119.5" font-family="Helvetica,sans-Serif" font-size="10.00">vector</text>
</a>
</g>
</g>
<!-- Node16&#45;&gt;Node17 -->
<g id="edge16" class="edge">
<title>Node16&#45;&gt;Node17</title>
<path fill="none" stroke="midnightblue" d="M1024.36,-349.4C992.8,-342.64 946.11,-330.35 909,-311 889.37,-300.76 889.58,-290.35 870,-280 822.28,-254.77 805.39,-260.54 754,-244 631.2,-204.48 485.83,-155.29 422.79,-133.84"/>
<polygon fill="midnightblue" stroke="midnightblue" points="423.64,-130.44 413.05,-130.53 421.38,-137.06 423.64,-130.44"/>
</g>
<!-- Node16&#45;&gt;Node18 -->
<g id="edge17" class="edge">
<title>Node16&#45;&gt;Node18</title>
<path fill="none" stroke="midnightblue" d="M1095.69,-349.24C1131.03,-341.96 1186.32,-328.95 1232,-311 1233.04,-310.59 1234.09,-310.15 1235.14,-309.69"/>
<polygon fill="midnightblue" stroke="midnightblue" points="1237.01,-312.67 1244.45,-305.13 1233.93,-306.39 1237.01,-312.67"/>
</g>
<!-- Node19 -->
<g id="node19" class="node">
<title>Node19</title>
<g id="a_node19"><a xlink:title=" ">
<polygon fill="white" stroke="#bfbfbf" points="1095,-286 1095,-305 1223,-305 1223,-286 1095,-286"/>
<text text-anchor="middle" x="1159" y="-293" font-family="Helvetica,sans-Serif" font-size="10.00">scanline_triangulation.hpp</text>
</a>
</g>
</g>
<!-- Node16&#45;&gt;Node19 -->
<g id="edge18" class="edge">
<title>Node16&#45;&gt;Node19</title>
<path fill="none" stroke="midnightblue" d="M1074.18,-347.48C1090.36,-337.75 1117.03,-321.73 1136.14,-310.24"/>
<polygon fill="midnightblue" stroke="midnightblue" points="1138.07,-313.16 1144.84,-305.01 1134.47,-307.16 1138.07,-313.16"/>
</g>
<!-- Node20&#45;&gt;Node15 -->
<g id="edge23" class="edge">
<title>Node20&#45;&gt;Node15</title>
<path fill="none" stroke="midnightblue" d="M211.21,-224.28C204.57,-201.69 190.75,-141.03 223,-112 277.67,-62.79 810.71,-82.22 884,-76 897.83,-74.83 912.99,-73.16 926.24,-71.59"/>
<polygon fill="midnightblue" stroke="midnightblue" points="926.89,-75.03 936.39,-70.35 926.04,-68.08 926.89,-75.03"/>
</g>
<!-- Node21 -->
<g id="node21" class="node">
<title>Node21</title>
<g id="a_node21"><a xlink:href="_flag_8h.html" target="_top" xlink:title=" ">
<polygon fill="white" stroke="black" points="123.5,-168.5 123.5,-187.5 166.5,-187.5 166.5,-168.5 123.5,-168.5"/>
<text text-anchor="middle" x="145" y="-175.5" font-family="Helvetica,sans-Serif" font-size="10.00">Flag.h</text>
</a>
</g>
</g>
<!-- Node20&#45;&gt;Node21 -->
<g id="edge20" class="edge">
<title>Node20&#45;&gt;Node21</title>
<path fill="none" stroke="midnightblue" d="M202.91,-224.32C192.51,-216.18 176.74,-203.84 164.28,-194.09"/>
<polygon fill="midnightblue" stroke="midnightblue" points="166.32,-191.24 156.29,-187.83 162.01,-196.75 166.32,-191.24"/>
</g>
<!-- Node21&#45;&gt;Node3 -->
<g id="edge22" class="edge">
<title>Node21&#45;&gt;Node3</title>
<path fill="none" stroke="midnightblue" d="M136.74,-168.08C129.54,-160.3 118.89,-148.8 110.15,-139.37"/>
<polygon fill="midnightblue" stroke="midnightblue" points="112.47,-136.71 103.1,-131.75 107.33,-141.47 112.47,-136.71"/>
</g>
<!-- Node21&#45;&gt;Node17 -->
<g id="edge21" class="edge">
<title>Node21&#45;&gt;Node17</title>
<path fill="none" stroke="midnightblue" d="M166.83,-172.21C210.39,-162.65 308.28,-141.16 359.07,-130.01"/>
<polygon fill="midnightblue" stroke="midnightblue" points="359.85,-133.42 368.86,-127.86 358.35,-126.58 359.85,-133.42"/>
</g>
<!-- Node22&#45;&gt;Node4 -->
<g id="edge27" class="edge">
<title>Node22&#45;&gt;Node4</title>
<path fill="none" stroke="midnightblue" d="M738.18,-366.59C746.36,-384.31 757.99,-425.25 762.13,-449.35"/>
<polygon fill="midnightblue" stroke="midnightblue" points="758.68,-449.93 763.49,-459.37 765.61,-448.99 758.68,-449.93"/>
</g>
<!-- Node22&#45;&gt;Node5 -->
<g id="edge39" class="edge">
<title>Node22&#45;&gt;Node5</title>
<path fill="none" stroke="midnightblue" d="M713.66,-347.48C695.43,-339 666.9,-325.74 643.5,-314.86"/>
<polygon fill="midnightblue" stroke="midnightblue" points="644.71,-311.56 634.17,-310.52 641.76,-317.91 644.71,-311.56"/>
</g>
<!-- Node22&#45;&gt;Node8 -->
<g id="edge43" class="edge">
<title>Node22&#45;&gt;Node8</title>
<path fill="none" stroke="midnightblue" d="M728.17,-347.22C724.43,-338.29 718.91,-323.94 716,-311 702.35,-250.3 698.5,-176.37 697.42,-142.11"/>
<polygon fill="midnightblue" stroke="midnightblue" points="700.91,-141.64 697.14,-131.74 693.91,-141.83 700.91,-141.64"/>
</g>
<!-- Node22&#45;&gt;Node11 -->
<g id="edge44" class="edge">
<title>Node22&#45;&gt;Node11</title>
<path fill="none" stroke="midnightblue" d="M758.24,-356.04C826.41,-355.58 1006.67,-350.57 1048,-311 1127.63,-234.76 1105.01,-82.23 1094.2,-29.47"/>
<polygon fill="midnightblue" stroke="midnightblue" points="1097.59,-28.57 1092.06,-19.53 1090.75,-30.05 1097.59,-28.57"/>
</g>
<!-- Node22&#45;&gt;Node23 -->
<g id="edge28" class="edge">
<title>Node22&#45;&gt;Node23</title>
<path fill="none" stroke="midnightblue" d="M705.75,-353.78C615.12,-345.63 314.12,-317.16 175.25,-303.68"/>
<polygon fill="midnightblue" stroke="midnightblue" points="175.42,-300.19 165.13,-302.7 174.74,-307.15 175.42,-300.19"/>
</g>
<!-- Node28 -->
<g id="node28" class="node">
<title>Node28</title>
<g id="a_node28"><a xlink:href="_game_logic_2_squad_2_action_8h.html" target="_top" xlink:title=" ">
<polygon fill="white" stroke="black" points="725,-286 725,-305 861,-305 861,-286 725,-286"/>
<text text-anchor="middle" x="793" y="-293" font-family="Helvetica,sans-Serif" font-size="10.00">GameLogic/Squad/Action.h</text>
</a>
</g>
</g>
<!-- Node22&#45;&gt;Node28 -->
<g id="edge40" class="edge">
<title>Node22&#45;&gt;Node28</title>
<path fill="none" stroke="midnightblue" d="M735.84,-347.48C743.4,-338.11 758.66,-322.88 771.66,-311.51"/>
<polygon fill="midnightblue" stroke="midnightblue" points="773.98,-314.13 779.38,-305.01 769.48,-308.77 773.98,-314.13"/>
</g>
<!-- Node23&#45;&gt;Node20 -->
<g id="edge34" class="edge">
<title>Node23&#45;&gt;Node20</title>
<path fill="none" stroke="midnightblue" d="M119.76,-285.98C137.98,-276.12 168.17,-259.79 189.47,-248.27"/>
<polygon fill="midnightblue" stroke="midnightblue" points="191.14,-251.35 198.27,-243.51 187.81,-245.19 191.14,-251.35"/>
</g>
<!-- Node23&#45;&gt;Node22 -->
<g id="edge33" class="edge">
<title>Node23&#45;&gt;Node22</title>
<path fill="none" stroke="midnightblue" d="M165.11,-301.9C294.4,-313.8 591.92,-342.01 695.64,-352.22"/>
<polygon fill="midnightblue" stroke="midnightblue" points="695.33,-355.71 705.62,-353.21 696.02,-348.74 695.33,-355.71"/>
</g>
<!-- Node24 -->
<g id="node24" class="node">
<title>Node24</title>
<g id="a_node24"><a xlink:title=" ">
<polygon fill="white" stroke="#bfbfbf" points="84.5,-224.5 84.5,-243.5 127.5,-243.5 127.5,-224.5 84.5,-224.5"/>
<text text-anchor="middle" x="106" y="-231.5" font-family="Helvetica,sans-Serif" font-size="10.00">cstdio</text>
</a>
</g>
</g>
<!-- Node23&#45;&gt;Node24 -->
<g id="edge29" class="edge">
<title>Node23&#45;&gt;Node24</title>
<path fill="none" stroke="midnightblue" d="M104.29,-285.98C104.57,-277.58 105.01,-264.48 105.37,-253.66"/>
<polygon fill="midnightblue" stroke="midnightblue" points="108.88,-253.62 105.71,-243.51 101.88,-253.39 108.88,-253.62"/>
</g>
<!-- Node25 -->
<g id="node25" class="node">
<title>Node25</title>
<g id="a_node25"><a xlink:href="_unit_order_8h.html" target="_top" xlink:title=" ">
<polygon fill="white" stroke="black" points="0,-224.5 0,-243.5 66,-243.5 66,-224.5 0,-224.5"/>
<text text-anchor="middle" x="33" y="-231.5" font-family="Helvetica,sans-Serif" font-size="10.00">UnitOrder.h</text>
</a>
</g>
</g>
<!-- Node23&#45;&gt;Node25 -->
<g id="edge30" class="edge">
<title>Node23&#45;&gt;Node25</title>
<path fill="none" stroke="midnightblue" d="M88.93,-285.98C75.96,-276.78 57.89,-261.96 45.66,-250.66"/>
<polygon fill="midnightblue" stroke="midnightblue" points="47.88,-247.94 38.26,-243.51 43.02,-252.97 47.88,-247.94"/>
</g>
<!-- Node26 -->
<g id="node26" class="node">
<title>Node26</title>
<g id="a_node26"><a xlink:href="_textures_8h.html" target="_top" xlink:title=" ">
<polygon fill="white" stroke="black" points="223.5,-168.5 223.5,-187.5 324.5,-187.5 324.5,-168.5 223.5,-168.5"/>
<text text-anchor="middle" x="274" y="-175.5" font-family="Helvetica,sans-Serif" font-size="10.00">graphics/Textures.h</text>
</a>
</g>
</g>
<!-- Node23&#45;&gt;Node26 -->
<g id="edge35" class="edge">
<title>Node23&#45;&gt;Node26</title>
<path fill="none" stroke="midnightblue" d="M165.08,-286.5C194.75,-279.71 228.9,-267.16 252,-244 264.22,-231.75 269.65,-212.49 272.07,-198.11"/>
<polygon fill="midnightblue" stroke="midnightblue" points="275.58,-198.22 273.43,-187.85 268.65,-197.3 275.58,-198.22"/>
</g>
<!-- Node25&#45;&gt;Node3 -->
<g id="edge31" class="edge">
<title>Node25&#45;&gt;Node3</title>
<path fill="none" stroke="midnightblue" d="M37.87,-224.37C48.05,-206.3 71.79,-164.18 85.24,-140.31"/>
<polygon fill="midnightblue" stroke="midnightblue" points="88.3,-142.02 90.16,-131.59 82.2,-138.58 88.3,-142.02"/>
</g>
<!-- Node25&#45;&gt;Node23 -->
<g id="edge32" class="edge">
<title>Node25&#45;&gt;Node23</title>
<path fill="none" stroke="midnightblue" d="M48.05,-243.51C61.02,-252.69 79.09,-267.52 91.32,-278.82"/>
<polygon fill="midnightblue" stroke="midnightblue" points="89.1,-281.55 98.73,-285.98 93.97,-276.51 89.1,-281.55"/>
</g>
<!-- Node26&#45;&gt;Node8 -->
<g id="edge36" class="edge">
<title>Node26&#45;&gt;Node8</title>
<path fill="none" stroke="midnightblue" d="M324.6,-170.54C405.99,-160.15 565.05,-139.84 646.42,-129.46"/>
<polygon fill="midnightblue" stroke="midnightblue" points="646.95,-132.92 656.42,-128.18 646.06,-125.97 646.95,-132.92"/>
</g>
<!-- Node26&#45;&gt;Node17 -->
<g id="edge37" class="edge">
<title>Node26&#45;&gt;Node17</title>
<path fill="none" stroke="midnightblue" d="M292.54,-168.44C311.62,-159.64 341.57,-145.81 363.44,-135.72"/>
<polygon fill="midnightblue" stroke="midnightblue" points="364.93,-138.88 372.55,-131.52 362,-132.53 364.93,-138.88"/>
</g>
<!-- Node27 -->
<g id="node27" class="node">
<title>Node27</title>
<g id="a_node27"><a xlink:title=" ">
<polygon fill="white" stroke="#bfbfbf" points="232.5,-112.5 232.5,-131.5 315.5,-131.5 315.5,-112.5 232.5,-112.5"/>
<text text-anchor="middle" x="274" y="-119.5" font-family="Helvetica,sans-Serif" font-size="10.00">unordered_map</text>
</a>
</g>
</g>
<!-- Node26&#45;&gt;Node27 -->
<g id="edge38" class="edge">
<title>Node26&#45;&gt;Node27</title>
<path fill="none" stroke="midnightblue" d="M274,-168.08C274,-161.01 274,-150.86 274,-141.99"/>
<polygon fill="midnightblue" stroke="midnightblue" points="277.5,-141.75 274,-131.75 270.5,-141.75 277.5,-141.75"/>
</g>
<!-- Node28&#45;&gt;Node4 -->
<g id="edge42" class="edge">
<title>Node28&#45;&gt;Node4</title>
<path fill="none" stroke="midnightblue" d="M791.46,-305.02C786.68,-331.44 772.04,-412.43 765.37,-449.33"/>
<polygon fill="midnightblue" stroke="midnightblue" points="761.91,-448.8 763.58,-459.26 768.8,-450.04 761.91,-448.8"/>
</g>
<!-- Node28&#45;&gt;Node22 -->
<g id="edge41" class="edge">
<title>Node28&#45;&gt;Node22</title>
<path fill="none" stroke="midnightblue" d="M789.17,-305.01C781.62,-314.37 766.37,-329.59 753.36,-340.97"/>
<polygon fill="midnightblue" stroke="midnightblue" points="751.03,-338.36 745.64,-347.48 755.54,-343.71 751.03,-338.36"/>
</g>
<!-- Node29&#45;&gt;Node16 -->
<g id="edge49" class="edge">
<title>Node29&#45;&gt;Node16</title>
<path fill="none" stroke="midnightblue" d="M702.35,-406.53C776.97,-396.4 936.01,-374.82 1014.4,-364.19"/>
<polygon fill="midnightblue" stroke="midnightblue" points="1015.02,-367.64 1024.46,-362.82 1014.08,-360.7 1015.02,-367.64"/>
</g>
<!-- Node29&#45;&gt;Node17 -->
<g id="edge48" class="edge">
<title>Node29&#45;&gt;Node17</title>
<path fill="none" stroke="midnightblue" d="M638.82,-403.41C604.34,-390.7 537.4,-366.31 480,-347 429.64,-330.06 397.41,-353.86 366,-311 346.44,-284.31 373.02,-183.6 385.33,-141.59"/>
<polygon fill="midnightblue" stroke="midnightblue" points="388.74,-142.41 388.25,-131.82 382.03,-140.4 388.74,-142.41"/>
</g>
<!-- Node30&#45;&gt;Node13 -->
<g id="edge51" class="edge">
<title>Node30&#45;&gt;Node13</title>
<path fill="none" stroke="midnightblue" d="M1005,-168.08C1005,-161.01 1005,-150.86 1005,-141.99"/>
<polygon fill="midnightblue" stroke="midnightblue" points="1008.5,-141.75 1005,-131.75 1001.5,-141.75 1008.5,-141.75"/>
</g>
<!-- Node31&#45;&gt;Node6 -->
<g id="edge54" class="edge">
<title>Node31&#45;&gt;Node6</title>
<path fill="none" stroke="midnightblue" d="M979.89,-285.86C982.56,-271.15 985.52,-241.19 970,-224 964.68,-218.11 871.99,-199.54 812.77,-188.18"/>
<polygon fill="midnightblue" stroke="midnightblue" points="813.33,-184.72 802.85,-186.28 812.02,-191.6 813.33,-184.72"/>
</g>
<!-- Node31&#45;&gt;Node7 -->
<g id="edge53" class="edge">
<title>Node31&#45;&gt;Node7</title>
<path fill="none" stroke="midnightblue" d="M982.41,-285.7C988.72,-271.78 998.46,-244.2 988,-224 986.31,-220.74 905.49,-164.71 866.11,-137.54"/>
<polygon fill="midnightblue" stroke="midnightblue" points="867.73,-134.4 857.51,-131.61 863.75,-140.16 867.73,-134.4"/>
</g>
<!-- Node32 -->
<g id="node32" class="node">
<title>Node32</title>
<g id="a_node32"><a xlink:href="_network_manager_8h.html" target="_top" xlink:title=" ">
<polygon fill="white" stroke="black" points="763,-224.5 763,-243.5 893,-243.5 893,-224.5 763,-224.5"/>
<text text-anchor="middle" x="828" y="-231.5" font-family="Helvetica,sans-Serif" font-size="10.00">engine/NetworkManager.h</text>
</a>
</g>
</g>
<!-- Node31&#45;&gt;Node32 -->
<g id="edge55" class="edge">
<title>Node31&#45;&gt;Node32</title>
<path fill="none" stroke="midnightblue" d="M956.51,-285.98C930.89,-275.81 887.89,-258.76 858.76,-247.2"/>
<polygon fill="midnightblue" stroke="midnightblue" points="860.04,-243.94 849.45,-243.51 857.46,-250.45 860.04,-243.94"/>
</g>
<!-- Node34 -->
<g id="node34" class="node">
<title>Node34</title>
<g id="a_node34"><a xlink:title=" ">
<polygon fill="white" stroke="#bfbfbf" points="911.5,-224.5 911.5,-243.5 960.5,-243.5 960.5,-224.5 911.5,-224.5"/>
<text text-anchor="middle" x="936" y="-231.5" font-family="Helvetica,sans-Serif" font-size="10.00">random</text>
</a>
</g>
</g>
<!-- Node31&#45;&gt;Node34 -->
<g id="edge60" class="edge">
<title>Node31&#45;&gt;Node34</title>
<path fill="none" stroke="midnightblue" d="M971.98,-285.98C965.74,-277.14 955.83,-263.09 947.98,-251.98"/>
<polygon fill="midnightblue" stroke="midnightblue" points="950.63,-249.66 942.01,-243.51 944.91,-253.7 950.63,-249.66"/>
</g>
<!-- Node32&#45;&gt;Node6 -->
<g id="edge56" class="edge">
<title>Node32&#45;&gt;Node6</title>
<path fill="none" stroke="midnightblue" d="M817.72,-224.32C808.16,-216.26 793.72,-204.08 782.22,-194.37"/>
<polygon fill="midnightblue" stroke="midnightblue" points="784.37,-191.61 774.47,-187.83 779.86,-196.96 784.37,-191.61"/>
</g>
<!-- Node32&#45;&gt;Node17 -->
<g id="edge58" class="edge">
<title>Node32&#45;&gt;Node17</title>
<path fill="none" stroke="midnightblue" d="M806.02,-224.45C770.52,-210.9 698.15,-184.37 635,-168 560.15,-148.6 470.29,-134.28 423.28,-127.45"/>
<polygon fill="midnightblue" stroke="midnightblue" points="423.5,-123.95 413.1,-126 422.5,-130.88 423.5,-123.95"/>
</g>
<!-- Node32&#45;&gt;Node30 -->
<g id="edge57" class="edge">
<title>Node32&#45;&gt;Node30</title>
<path fill="none" stroke="midnightblue" d="M856.05,-224.44C886.08,-215.28 933.91,-200.69 967.24,-190.52"/>
<polygon fill="midnightblue" stroke="midnightblue" points="968.54,-193.78 977.09,-187.52 966.5,-187.09 968.54,-193.78"/>
</g>
<!-- Node33 -->
<g id="node33" class="node">
<title>Node33</title>
<g id="a_node33"><a xlink:title=" ">
<polygon fill="white" stroke="#bfbfbf" points="820.5,-168.5 820.5,-187.5 891.5,-187.5 891.5,-168.5 820.5,-168.5"/>
<text text-anchor="middle" x="856" y="-175.5" font-family="Helvetica,sans-Serif" font-size="10.00">sys/socket.h</text>
</a>
</g>
</g>
<!-- Node32&#45;&gt;Node33 -->
<g id="edge59" class="edge">
<title>Node32&#45;&gt;Node33</title>
<path fill="none" stroke="midnightblue" d="M832.62,-224.08C836.46,-216.69 842.02,-205.95 846.76,-196.81"/>
<polygon fill="midnightblue" stroke="midnightblue" points="849.97,-198.24 851.46,-187.75 843.75,-195.02 849.97,-198.24"/>
</g>
<!-- Node35&#45;&gt;Node4 -->
<g id="edge64" class="edge">
<title>Node35&#45;&gt;Node4</title>
<path fill="none" stroke="midnightblue" d="M875.55,-422.6C854.88,-432.12 818.34,-447.47 792.18,-457.65"/>
<polygon fill="midnightblue" stroke="midnightblue" points="790.81,-454.42 782.72,-461.27 793.31,-460.96 790.81,-454.42"/>
</g>
<!-- Node35&#45;&gt;Node13 -->
<g id="edge62" class="edge">
<title>Node35&#45;&gt;Node13</title>
<path fill="none" stroke="midnightblue" d="M967.81,-403.76C1071.76,-390.81 1248.56,-361.77 1286,-311 1354.3,-218.38 1153.16,-157.36 1055.23,-133.86"/>
<polygon fill="midnightblue" stroke="midnightblue" points="1055.77,-130.39 1045.24,-131.51 1054.17,-137.21 1055.77,-130.39"/>
</g>
<!-- Node35&#45;&gt;Node22 -->
<g id="edge63" class="edge">
<title>Node35&#45;&gt;Node22</title>
<path fill="none" stroke="midnightblue" d="M865.81,-403.44C839.06,-394.36 796.6,-379.94 766.69,-369.78"/>
<polygon fill="midnightblue" stroke="midnightblue" points="767.67,-366.42 757.08,-366.52 765.42,-373.05 767.67,-366.42"/>
</g>
<!-- Node36&#45;&gt;Node2 -->
<g id="edge66" class="edge">
<title>Node36&#45;&gt;Node2</title>
<path fill="none" stroke="midnightblue" d="M322.04,-366.57C307.01,-392.56 261.7,-470.92 241.23,-506.31"/>
<polygon fill="midnightblue" stroke="midnightblue" points="238.14,-504.67 236.16,-515.08 244.2,-508.17 238.14,-504.67"/>
</g>
<!-- Node37&#45;&gt;Node36 -->
<g id="edge75" class="edge">
<title>Node37&#45;&gt;Node36</title>
<path fill="none" stroke="midnightblue" d="M379.88,-403.32C370.47,-395.26 356.26,-383.08 344.93,-373.37"/>
<polygon fill="midnightblue" stroke="midnightblue" points="347.18,-370.68 337.31,-366.83 342.62,-376 347.18,-370.68"/>
</g>
<!-- Node38 -->
<g id="node38" class="node">
<title>Node38</title>
<g id="a_node38"><a xlink:href="_squad_template_8h.html" target="_top" xlink:title=" ">
<polygon fill="white" stroke="black" points="379,-347.5 379,-366.5 471,-366.5 471,-347.5 379,-347.5"/>
<text text-anchor="middle" x="425" y="-354.5" font-family="Helvetica,sans-Serif" font-size="10.00">SquadTemplate.h</text>
</a>
</g>
</g>
<!-- Node37&#45;&gt;Node38 -->
<g id="edge68" class="edge">
<title>Node37&#45;&gt;Node38</title>
<path fill="none" stroke="midnightblue" d="M395.78,-403.08C400.67,-395.53 407.83,-384.49 413.83,-375.23"/>
<polygon fill="midnightblue" stroke="midnightblue" points="416.83,-377.05 419.33,-366.75 410.95,-373.24 416.83,-377.05"/>
</g>
<!-- Node38&#45;&gt;Node2 -->
<g id="edge70" class="edge">
<title>Node38&#45;&gt;Node2</title>
<path fill="none" stroke="midnightblue" d="M434.1,-366.87C446.26,-379.82 464.97,-404.4 453,-423 412.37,-486.12 321.55,-510.26 269.53,-519.13"/>
<polygon fill="midnightblue" stroke="midnightblue" points="268.69,-515.72 259.37,-520.75 269.79,-522.63 268.69,-515.72"/>
</g>
<!-- Node38&#45;&gt;Node17 -->
<g id="edge69" class="edge">
<title>Node38&#45;&gt;Node17</title>
<path fill="none" stroke="midnightblue" d="M386.15,-347.36C366.62,-340.85 344.67,-329.7 333,-311 297.47,-254.08 350.62,-173.81 377.28,-139.55"/>
<polygon fill="midnightblue" stroke="midnightblue" points="380.19,-141.51 383.7,-131.51 374.72,-137.14 380.19,-141.51"/>
</g>
<!-- Node39 -->
<g id="node39" class="node">
<title>Node39</title>
<g id="a_node39"><a xlink:href="_gui_list_8h.html" target="_top" xlink:title=" ">
<polygon fill="white" stroke="black" points="375,-286 375,-305 483,-305 483,-286 375,-286"/>
<text text-anchor="middle" x="429" y="-293" font-family="Helvetica,sans-Serif" font-size="10.00">engine/GUI/GuiList.h</text>
</a>
</g>
</g>
<!-- Node38&#45;&gt;Node39 -->
<g id="edge71" class="edge">
<title>Node38&#45;&gt;Node39</title>
<path fill="none" stroke="midnightblue" d="M425.57,-347.48C426.14,-339.08 427.02,-325.98 427.75,-315.16"/>
<polygon fill="midnightblue" stroke="midnightblue" points="431.25,-315.22 428.43,-305.01 424.26,-314.75 431.25,-315.22"/>
</g>
<!-- Node39&#45;&gt;Node17 -->
<g id="edge74" class="edge">
<title>Node39&#45;&gt;Node17</title>
<path fill="none" stroke="midnightblue" d="M427.71,-285.84C424.56,-265.24 415.93,-211.81 405,-168 402.77,-159.06 399.79,-149.27 397.15,-141.12"/>
<polygon fill="midnightblue" stroke="midnightblue" points="400.45,-139.93 393.98,-131.54 393.81,-142.14 400.45,-139.93"/>
</g>
<!-- Node40 -->
<g id="node40" class="node">
<title>Node40</title>
<g id="a_node40"><a xlink:href="_gui_object_8h.html" target="_top" xlink:title=" ">
<polygon fill="white" stroke="black" points="511,-224.5 511,-243.5 631,-243.5 631,-224.5 511,-224.5"/>
<text text-anchor="middle" x="571" y="-231.5" font-family="Helvetica,sans-Serif" font-size="10.00">engine/GUI/GuiObject.h</text>
</a>
</g>
</g>
<!-- Node39&#45;&gt;Node40 -->
<g id="edge72" class="edge">
<title>Node39&#45;&gt;Node40</title>
<path fill="none" stroke="midnightblue" d="M449.35,-285.98C473.39,-275.9 513.6,-259.05 541.16,-247.5"/>
<polygon fill="midnightblue" stroke="midnightblue" points="542.82,-250.6 550.69,-243.51 540.12,-244.15 542.82,-250.6"/>
</g>
<!-- Node40&#45;&gt;Node6 -->
<g id="edge73" class="edge">
<title>Node40&#45;&gt;Node6</title>
<path fill="none" stroke="midnightblue" d="M601.58,-224.44C634.61,-215.2 687.39,-200.44 723.77,-190.26"/>
<polygon fill="midnightblue" stroke="midnightblue" points="724.87,-193.58 733.56,-187.52 722.99,-186.84 724.87,-193.58"/>
</g>
<!-- Node41&#45;&gt;Node2 -->
<g id="edge78" class="edge">
<title>Node41&#45;&gt;Node2</title>
<path fill="none" stroke="midnightblue" d="M192.6,-571.08C199.23,-563.3 209.02,-551.8 217.06,-542.37"/>
<polygon fill="midnightblue" stroke="midnightblue" points="219.73,-544.63 223.55,-534.75 214.4,-540.09 219.73,-544.63"/>
</g>
<!-- Node42 -->
<g id="node42" class="node">
<title>Node42</title>
<g id="a_node42"><a xlink:href="_transport_unit_8h.html" target="_top" xlink:title=" ">
<polygon fill="white" stroke="black" points="98.5,-515.5 98.5,-534.5 181.5,-534.5 181.5,-515.5 98.5,-515.5"/>
<text text-anchor="middle" x="140" y="-522.5" font-family="Helvetica,sans-Serif" font-size="10.00">TransportUnit.h</text>
</a>
</g>
</g>
<!-- Node41&#45;&gt;Node42 -->
<g id="edge79" class="edge">
<title>Node41&#45;&gt;Node42</title>
<path fill="none" stroke="midnightblue" d="M177.57,-571.08C171.15,-563.38 161.69,-552.03 153.88,-542.65"/>
<polygon fill="midnightblue" stroke="midnightblue" points="156.38,-540.19 147.29,-534.75 151.01,-544.67 156.38,-540.19"/>
</g>
<!-- Node42&#45;&gt;Node23 -->
<g id="edge80" class="edge">
<title>Node42&#45;&gt;Node23</title>
<path fill="none" stroke="midnightblue" d="M138.63,-515.36C133.36,-482.07 114.31,-361.65 106.94,-315.07"/>
<polygon fill="midnightblue" stroke="midnightblue" points="110.39,-314.48 105.37,-305.15 103.47,-315.57 110.39,-314.48"/>
</g>
<!-- Node43&#45;&gt;Node23 -->
<g id="edge82" class="edge">
<title>Node43&#45;&gt;Node23</title>
<path fill="none" stroke="midnightblue" d="M70,-571.44C70,-552.94 70,-507.81 70,-470 70,-470 70,-470 70,-412 70,-376.27 85.16,-336.76 95.23,-314.45"/>
<polygon fill="midnightblue" stroke="midnightblue" points="98.48,-315.77 99.56,-305.23 92.14,-312.8 98.48,-315.77"/>
</g>
<!-- Node43&#45;&gt;Node42 -->
<g id="edge83" class="edge">
<title>Node43&#45;&gt;Node42</title>
<path fill="none" stroke="midnightblue" d="M81.25,-571.32C91.8,-563.18 107.8,-550.84 120.44,-541.09"/>
<polygon fill="midnightblue" stroke="midnightblue" points="122.77,-543.71 128.55,-534.83 118.49,-538.17 122.77,-543.71"/>
</g>
</g>
</svg>
