<?xml version="1.0" encoding="UTF-8" standalone="no"?>
<!DOCTYPE svg PUBLIC "-//W3C//DTD SVG 1.1//EN"
 "http://www.w3.org/Graphics/SVG/1.1/DTD/svg11.dtd">
<!-- Generated by graphviz version 2.47.1 (20210421.1823)
 -->
<!-- Title: include/engine/GUI/Button.h Pages: 1 -->
<svg width="1789pt" height="709pt"
 viewBox="0.00 0.00 1788.50 709.00" xmlns="http://www.w3.org/2000/svg" xmlns:xlink="http://www.w3.org/1999/xlink">
<g id="graph0" class="graph" transform="scale(1 1) rotate(0) translate(4 705)">
<title>include/engine/GUI/Button.h</title>
<polygon fill="white" stroke="transparent" points="-4,4 -4,-705 1784.5,-705 1784.5,4 -4,4"/>
<!-- Node1 -->
<g id="node1" class="node">
<title>Node1</title>
<g id="a_node1"><a xlink:title=" ">
<polygon fill="#bfbfbf" stroke="black" points="129,-670.5 129,-700.5 229,-700.5 229,-670.5 129,-670.5"/>
<text text-anchor="start" x="137" y="-688.5" font-family="Helvetica,sans-Serif" font-size="10.00">include/engine/GUI</text>
<text text-anchor="middle" x="179" y="-677.5" font-family="Helvetica,sans-Serif" font-size="10.00">/Button.h</text>
</a>
</g>
</g>
<!-- Node2 -->
<g id="node2" class="node">
<title>Node2</title>
<g id="a_node2"><a xlink:href="_button_8cpp.html" target="_top" xlink:title=" ">
<polygon fill="white" stroke="black" points="0,-609 0,-628 132,-628 132,-609 0,-609"/>
<text text-anchor="middle" x="66" y="-616" font-family="Helvetica,sans-Serif" font-size="10.00">src/engine/GUI/Button.cpp</text>
</a>
</g>
</g>
<!-- Node1&#45;&gt;Node2 -->
<g id="edge1" class="edge">
<title>Node1&#45;&gt;Node2</title>
<path fill="none" stroke="midnightblue" d="M145.63,-665.31C124.11,-652.93 97.17,-637.43 80.79,-628.01"/>
<polygon fill="midnightblue" stroke="midnightblue" points="144.07,-668.44 154.48,-670.4 147.56,-662.38 144.07,-668.44"/>
</g>
<!-- Node3 -->
<g id="node3" class="node">
<title>Node3</title>
<g id="a_node3"><a xlink:href="_squad_template_8cpp.html" target="_top" xlink:title=" ">
<polygon fill="white" stroke="black" points="150,-67.5 150,-97.5 264,-97.5 264,-67.5 150,-67.5"/>
<text text-anchor="start" x="158" y="-85.5" font-family="Helvetica,sans-Serif" font-size="10.00">src/GameLogic/Squad</text>
<text text-anchor="middle" x="207" y="-74.5" font-family="Helvetica,sans-Serif" font-size="10.00">/SquadTemplate.cpp</text>
</a>
</g>
</g>
<!-- Node1&#45;&gt;Node3 -->
<g id="edge2" class="edge">
<title>Node1&#45;&gt;Node3</title>
<path fill="none" stroke="midnightblue" d="M173.44,-660.49C167.83,-634.15 160,-590.55 160,-552.5 160,-552.5 160,-552.5 160,-215.5 160,-170.25 184.81,-121.07 198.38,-97.56"/>
<polygon fill="midnightblue" stroke="midnightblue" points="170.04,-661.32 175.6,-670.34 176.87,-659.82 170.04,-661.32"/>
</g>
<!-- Node4 -->
<g id="node4" class="node">
<title>Node4</title>
<g id="a_node4"><a xlink:href="main_8cpp.html" target="_top" xlink:title=" ">
<polygon fill="white" stroke="black" points="311,-408 311,-427 383,-427 383,-408 311,-408"/>
<text text-anchor="middle" x="347" y="-415" font-family="Helvetica,sans-Serif" font-size="10.00">src/main.cpp</text>
</a>
</g>
</g>
<!-- Node1&#45;&gt;Node4 -->
<g id="edge3" class="edge">
<title>Node1&#45;&gt;Node4</title>
<path fill="none" stroke="midnightblue" d="M188.72,-660.8C195.84,-644.23 206.11,-621.79 217,-603 258.25,-531.8 319.3,-453.26 339.91,-427.33"/>
<polygon fill="midnightblue" stroke="midnightblue" points="185.39,-659.7 184.72,-670.27 191.84,-662.42 185.39,-659.7"/>
</g>
<!-- Node5 -->
<g id="node5" class="node">
<title>Node5</title>
<g id="a_node5"><a xlink:href="_squad_template_8h.html" target="_top" xlink:title=" ">
<polygon fill="white" stroke="black" points="226.5,-603.5 226.5,-633.5 357.5,-633.5 357.5,-603.5 226.5,-603.5"/>
<text text-anchor="start" x="234.5" y="-621.5" font-family="Helvetica,sans-Serif" font-size="10.00">include/GameLogic/Squad</text>
<text text-anchor="middle" x="292" y="-610.5" font-family="Helvetica,sans-Serif" font-size="10.00">/SquadTemplate.h</text>
</a>
</g>
</g>
<!-- Node1&#45;&gt;Node5 -->
<g id="edge4" class="edge">
<title>Node1&#45;&gt;Node5</title>
<path fill="none" stroke="midnightblue" d="M212.39,-665.3C230.07,-655.12 251.4,-642.85 267.53,-633.58"/>
<polygon fill="midnightblue" stroke="midnightblue" points="210.44,-662.38 203.52,-670.4 213.93,-668.44 210.44,-662.38"/>
</g>
<!-- Node5&#45;&gt;Node3 -->
<g id="edge5" class="edge">
<title>Node5&#45;&gt;Node3</title>
<path fill="none" stroke="midnightblue" d="M279.21,-594.32C255.47,-549.08 207,-445.22 207,-351.5 207,-351.5 207,-351.5 207,-215.5 207,-172.65 207,-121.97 207,-97.76"/>
<polygon fill="midnightblue" stroke="midnightblue" points="276.21,-596.13 284,-603.31 282.38,-592.84 276.21,-596.13"/>
</g>
<!-- Node6 -->
<g id="node6" class="node">
<title>Node6</title>
<g id="a_node6"><a xlink:href="_all_squad_templates_8h.html" target="_top" xlink:title=" ">
<polygon fill="white" stroke="black" points="364.5,-536.5 364.5,-566.5 495.5,-566.5 495.5,-536.5 364.5,-536.5"/>
<text text-anchor="start" x="372.5" y="-554.5" font-family="Helvetica,sans-Serif" font-size="10.00">include/GameLogic/Squad</text>
<text text-anchor="middle" x="430" y="-543.5" font-family="Helvetica,sans-Serif" font-size="10.00">/AllSquadTemplates.h</text>
</a>
</g>
</g>
<!-- Node5&#45;&gt;Node6 -->
<g id="edge6" class="edge">
<title>Node5&#45;&gt;Node6</title>
<path fill="none" stroke="midnightblue" d="M331,-599.13C352.93,-588.8 379.87,-576.11 400.11,-566.58"/>
<polygon fill="midnightblue" stroke="midnightblue" points="329.5,-595.97 321.94,-603.4 332.48,-602.3 329.5,-595.97"/>
</g>
<!-- Node7 -->
<g id="node7" class="node">
<title>Node7</title>
<g id="a_node7"><a xlink:href="_all_squad_templates_8cpp.html" target="_top" xlink:title=" ">
<polygon fill="white" stroke="black" points="667,-469.5 667,-499.5 789,-499.5 789,-469.5 667,-469.5"/>
<text text-anchor="start" x="675" y="-487.5" font-family="Helvetica,sans-Serif" font-size="10.00">src/GameLogic/Squad</text>
<text text-anchor="middle" x="728" y="-476.5" font-family="Helvetica,sans-Serif" font-size="10.00">/AllSquadTemplates.cpp</text>
</a>
</g>
</g>
<!-- Node6&#45;&gt;Node7 -->
<g id="edge7" class="edge">
<title>Node6&#45;&gt;Node7</title>
<path fill="none" stroke="midnightblue" d="M504.11,-534.33C554.26,-523.4 619.71,-509.12 666.87,-498.83"/>
<polygon fill="midnightblue" stroke="midnightblue" points="503.32,-530.93 494.29,-536.48 504.81,-537.76 503.32,-530.93"/>
</g>
<!-- Node8 -->
<g id="node8" class="node">
<title>Node8</title>
<g id="a_node8"><a xlink:href="_cell_8h.html" target="_top" xlink:title=" ">
<polygon fill="white" stroke="black" points="521,-475 521,-494 649,-494 649,-475 521,-475"/>
<text text-anchor="middle" x="585" y="-482" font-family="Helvetica,sans-Serif" font-size="10.00">include/GameLogic/Cell.h</text>
</a>
</g>
</g>
<!-- Node6&#45;&gt;Node8 -->
<g id="edge8" class="edge">
<title>Node6&#45;&gt;Node8</title>
<path fill="none" stroke="midnightblue" d="M473.02,-532.46C502.97,-519.9 541.54,-503.72 564.71,-494.01"/>
<polygon fill="midnightblue" stroke="midnightblue" points="471.5,-529.3 463.63,-536.4 474.21,-535.76 471.5,-529.3"/>
</g>
<!-- Node8&#45;&gt;Node4 -->
<g id="edge10" class="edge">
<title>Node8&#45;&gt;Node4</title>
<path fill="none" stroke="midnightblue" d="M542.6,-472.37C504.45,-462.29 446.9,-446.94 397,-433 390.21,-431.1 382.92,-429.02 376.06,-427.03"/>
<polygon fill="midnightblue" stroke="midnightblue" points="541.78,-475.77 552.34,-474.94 543.57,-469 541.78,-475.77"/>
</g>
<!-- Node9 -->
<g id="node9" class="node">
<title>Node9</title>
<g id="a_node9"><a xlink:href="_cell_8cpp.html" target="_top" xlink:title=" ">
<polygon fill="white" stroke="black" points="881.5,-408 881.5,-427 1002.5,-427 1002.5,-408 881.5,-408"/>
<text text-anchor="middle" x="942" y="-415" font-family="Helvetica,sans-Serif" font-size="10.00">src/GameLogic/Cell.cpp</text>
</a>
</g>
</g>
<!-- Node8&#45;&gt;Node9 -->
<g id="edge9" class="edge">
<title>Node8&#45;&gt;Node9</title>
<path fill="none" stroke="midnightblue" d="M637.18,-472.97C644.17,-471.61 651.26,-470.25 658,-469 750.68,-451.82 774.28,-449.95 867,-433 877.31,-431.12 888.39,-429.01 898.8,-427.01"/>
<polygon fill="midnightblue" stroke="midnightblue" points="636.18,-469.6 627.04,-474.96 637.53,-476.47 636.18,-469.6"/>
</g>
<!-- Node10 -->
<g id="node10" class="node">
<title>Node10</title>
<g id="a_node10"><a xlink:href="_set_squad_path_8h.html" target="_top" xlink:title=" ">
<polygon fill="white" stroke="black" points="467.5,-268.5 467.5,-298.5 580.5,-298.5 580.5,-268.5 467.5,-268.5"/>
<text text-anchor="start" x="475.5" y="-286.5" font-family="Helvetica,sans-Serif" font-size="10.00">include/engine/actions</text>
<text text-anchor="middle" x="524" y="-275.5" font-family="Helvetica,sans-Serif" font-size="10.00">/SetSquadPath.h</text>
</a>
</g>
</g>
<!-- Node8&#45;&gt;Node10 -->
<g id="edge11" class="edge">
<title>Node8&#45;&gt;Node10</title>
<path fill="none" stroke="midnightblue" d="M575.45,-465.61C559.75,-426.47 531.49,-333.87 524.63,-298.53"/>
<polygon fill="midnightblue" stroke="midnightblue" points="572.29,-467.12 579.43,-474.95 578.73,-464.38 572.29,-467.12"/>
</g>
<!-- Node13 -->
<g id="node13" class="node">
<title>Node13</title>
<g id="a_node13"><a xlink:href="_game_logic_2_squad_2_action_8h.html" target="_top" xlink:title=" ">
<polygon fill="white" stroke="black" points="693.5,-402.5 693.5,-432.5 824.5,-432.5 824.5,-402.5 693.5,-402.5"/>
<text text-anchor="start" x="701.5" y="-420.5" font-family="Helvetica,sans-Serif" font-size="10.00">include/GameLogic/Squad</text>
<text text-anchor="middle" x="759" y="-409.5" font-family="Helvetica,sans-Serif" font-size="10.00">/Action.h</text>
</a>
</g>
</g>
<!-- Node8&#45;&gt;Node13 -->
<g id="edge15" class="edge">
<title>Node8&#45;&gt;Node13</title>
<path fill="none" stroke="midnightblue" d="M617.53,-471.35C647.03,-460.33 690.49,-444.09 721.45,-432.53"/>
<polygon fill="midnightblue" stroke="midnightblue" points="616.25,-468.09 608.11,-474.87 618.7,-474.65 616.25,-468.09"/>
</g>
<!-- Node15 -->
<g id="node15" class="node">
<title>Node15</title>
<g id="a_node15"><a xlink:href="_squad_8h.html" target="_top" xlink:title=" ">
<polygon fill="white" stroke="black" points="693.5,-335.5 693.5,-365.5 824.5,-365.5 824.5,-335.5 693.5,-335.5"/>
<text text-anchor="start" x="701.5" y="-353.5" font-family="Helvetica,sans-Serif" font-size="10.00">include/GameLogic/Squad</text>
<text text-anchor="middle" x="759" y="-342.5" font-family="Helvetica,sans-Serif" font-size="10.00">/Squad.h</text>
</a>
</g>
</g>
<!-- Node8&#45;&gt;Node15 -->
<g id="edge65" class="edge">
<title>Node8&#45;&gt;Node15</title>
<path fill="none" stroke="midnightblue" d="M596.97,-467.19C614.29,-450.32 646.17,-423.5 675,-402 692.37,-389.05 712.8,-375.39 729.36,-365.54"/>
<polygon fill="midnightblue" stroke="midnightblue" points="594.2,-465.01 589.71,-474.6 599.2,-469.9 594.2,-465.01"/>
</g>
<!-- Node26 -->
<g id="node26" class="node">
<title>Node26</title>
<g id="a_node26"><a xlink:href="_factory_8h.html" target="_top" xlink:title=" ">
<polygon fill="white" stroke="black" points="597.5,-201.5 597.5,-231.5 724.5,-231.5 724.5,-201.5 597.5,-201.5"/>
<text text-anchor="start" x="605.5" y="-219.5" font-family="Helvetica,sans-Serif" font-size="10.00">include/GameLogic/Units</text>
<text text-anchor="middle" x="661" y="-208.5" font-family="Helvetica,sans-Serif" font-size="10.00">/Factory.h</text>
</a>
</g>
</g>
<!-- Node8&#45;&gt;Node26 -->
<g id="edge66" class="edge">
<title>Node8&#45;&gt;Node26</title>
<path fill="none" stroke="midnightblue" d="M590.24,-465.17C604.57,-415.01 644.21,-276.28 656.98,-231.58"/>
<polygon fill="midnightblue" stroke="midnightblue" points="586.82,-464.37 587.44,-474.95 593.56,-466.3 586.82,-464.37"/>
</g>
<!-- Node40 -->
<g id="node40" class="node">
<title>Node40</title>
<g id="a_node40"><a xlink:href="pathfinding_8h.html" target="_top" xlink:title=" ">
<polygon fill="white" stroke="black" points="1427,-274 1427,-293 1547,-293 1547,-274 1427,-274"/>
<text text-anchor="middle" x="1487" y="-281" font-family="Helvetica,sans-Serif" font-size="10.00">include/util/pathfinding.h</text>
</a>
</g>
</g>
<!-- Node8&#45;&gt;Node40 -->
<g id="edge67" class="edge">
<title>Node8&#45;&gt;Node40</title>
<path fill="none" stroke="midnightblue" d="M637.46,-473.02C709.84,-458.53 831.75,-434.05 834,-433 854.07,-423.65 852.88,-411.24 873,-402 971.88,-356.61 1292.51,-310.24 1426.88,-292.27"/>
<polygon fill="midnightblue" stroke="midnightblue" points="636.71,-469.6 627.59,-474.99 638.09,-476.46 636.71,-469.6"/>
</g>
<!-- Node10&#45;&gt;Node8 -->
<g id="edge14" class="edge">
<title>Node10&#45;&gt;Node8</title>
<path fill="none" stroke="midnightblue" d="M535.72,-307.91C552.68,-352.15 580.97,-446.17 585.33,-474.95"/>
<polygon fill="midnightblue" stroke="midnightblue" points="538.93,-306.52 531.97,-298.53 532.43,-309.12 538.93,-306.52"/>
</g>
<!-- Node11 -->
<g id="node11" class="node">
<title>Node11</title>
<g id="a_node11"><a xlink:href="engine_2_action_8cpp.html" target="_top" xlink:title=" ">
<polygon fill="white" stroke="black" points="469,-207 469,-226 579,-226 579,-207 469,-207"/>
<text text-anchor="middle" x="524" y="-214" font-family="Helvetica,sans-Serif" font-size="10.00">src/engine/Action.cpp</text>
</a>
</g>
</g>
<!-- Node10&#45;&gt;Node11 -->
<g id="edge12" class="edge">
<title>Node10&#45;&gt;Node11</title>
<path fill="none" stroke="midnightblue" d="M524,-258.25C524,-247.02 524,-234.38 524,-226.19"/>
<polygon fill="midnightblue" stroke="midnightblue" points="520.5,-258.4 524,-268.4 527.5,-258.4 520.5,-258.4"/>
</g>
<!-- Node12 -->
<g id="node12" class="node">
<title>Node12</title>
<g id="a_node12"><a xlink:href="_set_squad_path_8cpp.html" target="_top" xlink:title=" ">
<polygon fill="white" stroke="black" points="349.5,-201.5 349.5,-231.5 450.5,-231.5 450.5,-201.5 349.5,-201.5"/>
<text text-anchor="start" x="357.5" y="-219.5" font-family="Helvetica,sans-Serif" font-size="10.00">src/engine/actions</text>
<text text-anchor="middle" x="400" y="-208.5" font-family="Helvetica,sans-Serif" font-size="10.00">/SetSquadPath.cpp</text>
</a>
</g>
</g>
<!-- Node10&#45;&gt;Node12 -->
<g id="edge13" class="edge">
<title>Node10&#45;&gt;Node12</title>
<path fill="none" stroke="midnightblue" d="M488.16,-263.71C468.61,-253.46 444.8,-240.98 426.85,-231.58"/>
<polygon fill="midnightblue" stroke="midnightblue" points="486.61,-266.85 497.09,-268.4 489.86,-260.65 486.61,-266.85"/>
</g>
<!-- Node14 -->
<g id="node14" class="node">
<title>Node14</title>
<g id="a_node14"><a xlink:href="_game_logic_2_squad_2_action_8cpp.html" target="_top" xlink:title=" ">
<polygon fill="white" stroke="black" points="1648,-201.5 1648,-231.5 1762,-231.5 1762,-201.5 1648,-201.5"/>
<text text-anchor="start" x="1656" y="-219.5" font-family="Helvetica,sans-Serif" font-size="10.00">src/GameLogic/Squad</text>
<text text-anchor="middle" x="1705" y="-208.5" font-family="Helvetica,sans-Serif" font-size="10.00">/Action.cpp</text>
</a>
</g>
</g>
<!-- Node13&#45;&gt;Node14 -->
<g id="edge16" class="edge">
<title>Node13&#45;&gt;Node14</title>
<path fill="none" stroke="midnightblue" d="M834.59,-406.9C1020.19,-383.12 1488.21,-321.73 1556,-299 1605.2,-282.51 1657.18,-250.17 1684.86,-231.57"/>
<polygon fill="midnightblue" stroke="midnightblue" points="834.11,-403.44 824.64,-408.18 835,-410.38 834.11,-403.44"/>
</g>
<!-- Node13&#45;&gt;Node15 -->
<g id="edge17" class="edge">
<title>Node13&#45;&gt;Node15</title>
<path fill="none" stroke="midnightblue" d="M752.45,-392.4C752.01,-383.37 752.3,-373.41 753.33,-365.58"/>
<polygon fill="midnightblue" stroke="midnightblue" points="748.97,-392.74 753.32,-402.4 755.94,-392.13 748.97,-392.74"/>
</g>
<!-- Node15&#45;&gt;Node8 -->
<g id="edge20" class="edge">
<title>Node15&#45;&gt;Node8</title>
<path fill="none" stroke="midnightblue" d="M736.17,-371.45C723.25,-380.49 707.11,-391.48 693,-402 659.27,-427.15 621.38,-459.59 600.24,-474.84"/>
<polygon fill="midnightblue" stroke="midnightblue" points="738.39,-374.17 744.55,-365.54 734.36,-368.45 738.39,-374.17"/>
</g>
<!-- Node15&#45;&gt;Node10 -->
<g id="edge19" class="edge">
<title>Node15&#45;&gt;Node10</title>
<path fill="none" stroke="midnightblue" d="M698.32,-332.71C660.07,-322.14 611.26,-308.63 575.02,-298.61"/>
<polygon fill="midnightblue" stroke="midnightblue" points="697.73,-336.18 708.3,-335.48 699.59,-329.44 697.73,-336.18"/>
</g>
<!-- Node15&#45;&gt;Node13 -->
<g id="edge21" class="edge">
<title>Node15&#45;&gt;Node13</title>
<path fill="none" stroke="midnightblue" d="M765.54,-375.57C765.99,-384.6 765.71,-394.56 764.68,-402.4"/>
<polygon fill="midnightblue" stroke="midnightblue" points="769.03,-375.24 764.67,-365.58 762.05,-375.84 769.03,-375.24"/>
</g>
<!-- Node16 -->
<g id="node16" class="node">
<title>Node16</title>
<g id="a_node16"><a xlink:href="_squad_8cpp.html" target="_top" xlink:title=" ">
<polygon fill="white" stroke="black" points="461,-67.5 461,-97.5 575,-97.5 575,-67.5 461,-67.5"/>
<text text-anchor="start" x="469" y="-85.5" font-family="Helvetica,sans-Serif" font-size="10.00">src/GameLogic/Squad</text>
<text text-anchor="middle" x="518" y="-74.5" font-family="Helvetica,sans-Serif" font-size="10.00">/Squad.cpp</text>
</a>
</g>
</g>
<!-- Node15&#45;&gt;Node16 -->
<g id="edge18" class="edge">
<title>Node15&#45;&gt;Node16</title>
<path fill="none" stroke="midnightblue" d="M761.32,-324.84C762.98,-292.88 761.1,-236.98 733,-201 708.75,-169.95 685.56,-185.63 652,-165 633.43,-153.58 632.18,-146.02 614,-134 593.11,-120.18 568.01,-107.09 548.72,-97.7"/>
<polygon fill="midnightblue" stroke="midnightblue" points="757.81,-324.86 760.63,-335.08 764.8,-325.34 757.81,-324.86"/>
</g>
<!-- Node17 -->
<g id="node17" class="node">
<title>Node17</title>
<g id="a_node17"><a xlink:href="_unit_8h.html" target="_top" xlink:title=" ">
<polygon fill="white" stroke="black" points="1153.5,-268.5 1153.5,-298.5 1280.5,-298.5 1280.5,-268.5 1153.5,-268.5"/>
<text text-anchor="start" x="1161.5" y="-286.5" font-family="Helvetica,sans-Serif" font-size="10.00">include/GameLogic/Units</text>
<text text-anchor="middle" x="1217" y="-275.5" font-family="Helvetica,sans-Serif" font-size="10.00">/Unit.h</text>
</a>
</g>
</g>
<!-- Node15&#45;&gt;Node17 -->
<g id="edge22" class="edge">
<title>Node15&#45;&gt;Node17</title>
<path fill="none" stroke="midnightblue" d="M834.63,-334.29C950.8,-316.23 1078.56,-300.09 1153.35,-291.33"/>
<polygon fill="midnightblue" stroke="midnightblue" points="833.84,-330.88 824.5,-335.88 834.92,-337.79 833.84,-330.88"/>
</g>
<!-- Node15&#45;&gt;Node40 -->
<g id="edge62" class="edge">
<title>Node15&#45;&gt;Node40</title>
<path fill="none" stroke="midnightblue" d="M835.07,-335.52C836.39,-335.34 837.7,-335.17 839,-335 867.89,-331.27 1271.8,-300.7 1426.93,-289.02"/>
<polygon fill="midnightblue" stroke="midnightblue" points="834.23,-332.11 824.84,-337.02 835.24,-339.04 834.23,-332.11"/>
</g>
<!-- Node17&#45;&gt;Node15 -->
<g id="edge24" class="edge">
<title>Node17&#45;&gt;Node15</title>
<path fill="none" stroke="midnightblue" d="M1143.26,-294.18C1068.67,-303.63 950.29,-318.91 848,-335 840.47,-336.18 832.56,-337.51 824.67,-338.88"/>
<polygon fill="midnightblue" stroke="midnightblue" points="1144.01,-297.61 1153.49,-292.88 1143.13,-290.67 1144.01,-297.61"/>
</g>
<!-- Node18 -->
<g id="node18" class="node">
<title>Node18</title>
<g id="a_node18"><a xlink:href="_unit_8cpp.html" target="_top" xlink:title=" ">
<polygon fill="white" stroke="black" points="1393,-134.5 1393,-164.5 1503,-164.5 1503,-134.5 1393,-134.5"/>
<text text-anchor="start" x="1401" y="-152.5" font-family="Helvetica,sans-Serif" font-size="10.00">src/GameLogic/Units</text>
<text text-anchor="middle" x="1448" y="-141.5" font-family="Helvetica,sans-Serif" font-size="10.00">/Unit.cpp</text>
</a>
</g>
</g>
<!-- Node17&#45;&gt;Node18 -->
<g id="edge23" class="edge">
<title>Node17&#45;&gt;Node18</title>
<path fill="none" stroke="midnightblue" d="M1242.4,-261.91C1268.46,-241.02 1307.44,-210.46 1324,-201 1349.94,-186.19 1381.08,-173.52 1405.67,-164.58"/>
<polygon fill="midnightblue" stroke="midnightblue" points="1240.04,-259.32 1234.45,-268.31 1244.43,-264.77 1240.04,-259.32"/>
</g>
<!-- Node19 -->
<g id="node19" class="node">
<title>Node19</title>
<g id="a_node19"><a xlink:href="_squad_order_8h.html" target="_top" xlink:title=" ">
<polygon fill="white" stroke="black" points="1649.5,-134.5 1649.5,-164.5 1780.5,-164.5 1780.5,-134.5 1649.5,-134.5"/>
<text text-anchor="start" x="1657.5" y="-152.5" font-family="Helvetica,sans-Serif" font-size="10.00">include/GameLogic/Squad</text>
<text text-anchor="middle" x="1715" y="-141.5" font-family="Helvetica,sans-Serif" font-size="10.00">/SquadOrder.h</text>
</a>
</g>
</g>
<!-- Node17&#45;&gt;Node19 -->
<g id="edge25" class="edge">
<title>Node17&#45;&gt;Node19</title>
<path fill="none" stroke="midnightblue" d="M1290.78,-276.95C1342.6,-270.89 1412.47,-258.25 1469,-232 1489.08,-222.68 1488.11,-210.74 1508,-201 1532.71,-188.9 1598.59,-173.81 1649.46,-163.29"/>
<polygon fill="midnightblue" stroke="midnightblue" points="1290.22,-273.5 1280.67,-278.08 1290.99,-280.45 1290.22,-273.5"/>
</g>
<!-- Node21 -->
<g id="node21" class="node">
<title>Node21</title>
<g id="a_node21"><a xlink:href="_armored_unit_8h.html" target="_top" xlink:title=" ">
<polygon fill="white" stroke="black" points="1247.5,-134.5 1247.5,-164.5 1374.5,-164.5 1374.5,-134.5 1247.5,-134.5"/>
<text text-anchor="start" x="1255.5" y="-152.5" font-family="Helvetica,sans-Serif" font-size="10.00">include/GameLogic/Units</text>
<text text-anchor="middle" x="1311" y="-141.5" font-family="Helvetica,sans-Serif" font-size="10.00">/ArmoredUnit.h</text>
</a>
</g>
</g>
<!-- Node17&#45;&gt;Node21 -->
<g id="edge27" class="edge">
<title>Node17&#45;&gt;Node21</title>
<path fill="none" stroke="midnightblue" d="M1232.89,-260.19C1252.35,-232.86 1284.73,-187.38 1301.01,-164.52"/>
<polygon fill="midnightblue" stroke="midnightblue" points="1230.01,-258.2 1227.06,-268.37 1235.71,-262.26 1230.01,-258.2"/>
</g>
<!-- Node17&#45;&gt;Node26 -->
<g id="edge32" class="edge">
<title>Node17&#45;&gt;Node26</title>
<path fill="none" stroke="midnightblue" d="M1143.48,-273.91C1033.58,-261.06 828.3,-237.06 724.54,-224.93"/>
<polygon fill="midnightblue" stroke="midnightblue" points="1143.15,-277.39 1153.49,-275.08 1143.96,-270.44 1143.15,-277.39"/>
</g>
<!-- Node34 -->
<g id="node34" class="node">
<title>Node34</title>
<g id="a_node34"><a xlink:href="_land_unit_8h.html" target="_top" xlink:title=" ">
<polygon fill="white" stroke="black" points="965.5,-201.5 965.5,-231.5 1092.5,-231.5 1092.5,-201.5 965.5,-201.5"/>
<text text-anchor="start" x="973.5" y="-219.5" font-family="Helvetica,sans-Serif" font-size="10.00">include/GameLogic/Units</text>
<text text-anchor="middle" x="1029" y="-208.5" font-family="Helvetica,sans-Serif" font-size="10.00">/LandUnit.h</text>
</a>
</g>
</g>
<!-- Node17&#45;&gt;Node34 -->
<g id="edge50" class="edge">
<title>Node17&#45;&gt;Node34</title>
<path fill="none" stroke="midnightblue" d="M1166.65,-265.09C1136.3,-254.6 1098.15,-241.41 1069.71,-231.58"/>
<polygon fill="midnightblue" stroke="midnightblue" points="1165.61,-268.44 1176.21,-268.4 1167.9,-261.82 1165.61,-268.44"/>
</g>
<!-- Node36 -->
<g id="node36" class="node">
<title>Node36</title>
<g id="a_node36"><a xlink:href="_transport_unit_8h.html" target="_top" xlink:title=" ">
<polygon fill="white" stroke="black" points="1110.5,-201.5 1110.5,-231.5 1237.5,-231.5 1237.5,-201.5 1110.5,-201.5"/>
<text text-anchor="start" x="1118.5" y="-219.5" font-family="Helvetica,sans-Serif" font-size="10.00">include/GameLogic/Units</text>
<text text-anchor="middle" x="1174" y="-208.5" font-family="Helvetica,sans-Serif" font-size="10.00">/TransportUnit.h</text>
</a>
</g>
</g>
<!-- Node17&#45;&gt;Node36 -->
<g id="edge53" class="edge">
<title>Node17&#45;&gt;Node36</title>
<path fill="none" stroke="midnightblue" d="M1202.03,-259.87C1195.8,-250.46 1188.77,-239.83 1183.31,-231.58"/>
<polygon fill="midnightblue" stroke="midnightblue" points="1199.23,-261.99 1207.67,-268.4 1205.07,-258.12 1199.23,-261.99"/>
</g>
<!-- Node38 -->
<g id="node38" class="node">
<title>Node38</title>
<g id="a_node38"><a xlink:href="_unit_order_8h.html" target="_top" xlink:title=" ">
<polygon fill="white" stroke="black" points="1332.5,-201.5 1332.5,-231.5 1459.5,-231.5 1459.5,-201.5 1332.5,-201.5"/>
<text text-anchor="start" x="1340.5" y="-219.5" font-family="Helvetica,sans-Serif" font-size="10.00">include/GameLogic/Units</text>
<text text-anchor="middle" x="1396" y="-208.5" font-family="Helvetica,sans-Serif" font-size="10.00">/UnitOrder.h</text>
</a>
</g>
</g>
<!-- Node17&#45;&gt;Node38 -->
<g id="edge57" class="edge">
<title>Node17&#45;&gt;Node38</title>
<path fill="none" stroke="midnightblue" d="M1259.61,-264.82C1287.37,-254.37 1323.44,-241.32 1351.56,-231.58"/>
<polygon fill="midnightblue" stroke="midnightblue" points="1258.27,-261.58 1250.16,-268.4 1260.75,-268.13 1258.27,-261.58"/>
</g>
<!-- Node20 -->
<g id="node20" class="node">
<title>Node20</title>
<g id="a_node20"><a xlink:href="_squad_order_8cpp.html" target="_top" xlink:title=" ">
<polygon fill="white" stroke="black" points="1658,-67.5 1658,-97.5 1772,-97.5 1772,-67.5 1658,-67.5"/>
<text text-anchor="start" x="1666" y="-85.5" font-family="Helvetica,sans-Serif" font-size="10.00">src/GameLogic/Squad</text>
<text text-anchor="middle" x="1715" y="-74.5" font-family="Helvetica,sans-Serif" font-size="10.00">/SquadOrder.cpp</text>
</a>
</g>
</g>
<!-- Node19&#45;&gt;Node20 -->
<g id="edge26" class="edge">
<title>Node19&#45;&gt;Node20</title>
<path fill="none" stroke="midnightblue" d="M1715,-124.11C1715,-115.15 1715,-105.32 1715,-97.58"/>
<polygon fill="midnightblue" stroke="midnightblue" points="1711.5,-124.4 1715,-134.4 1718.5,-124.4 1711.5,-124.4"/>
</g>
<!-- Node22 -->
<g id="node22" class="node">
<title>Node22</title>
<g id="a_node22"><a xlink:href="_armored_unit_8cpp.html" target="_top" xlink:title=" ">
<polygon fill="white" stroke="black" points="1256,-67.5 1256,-97.5 1366,-97.5 1366,-67.5 1256,-67.5"/>
<text text-anchor="start" x="1264" y="-85.5" font-family="Helvetica,sans-Serif" font-size="10.00">src/GameLogic/Units</text>
<text text-anchor="middle" x="1311" y="-74.5" font-family="Helvetica,sans-Serif" font-size="10.00">/ArmoredUnit.cpp</text>
</a>
</g>
</g>
<!-- Node21&#45;&gt;Node22 -->
<g id="edge28" class="edge">
<title>Node21&#45;&gt;Node22</title>
<path fill="none" stroke="midnightblue" d="M1311,-124.11C1311,-115.15 1311,-105.32 1311,-97.58"/>
<polygon fill="midnightblue" stroke="midnightblue" points="1307.5,-124.4 1311,-134.4 1314.5,-124.4 1307.5,-124.4"/>
</g>
<!-- Node23 -->
<g id="node23" class="node">
<title>Node23</title>
<g id="a_node23"><a xlink:href="_armored_unit_factory_8h.html" target="_top" xlink:title=" ">
<polygon fill="white" stroke="black" points="840.5,-67.5 840.5,-97.5 967.5,-97.5 967.5,-67.5 840.5,-67.5"/>
<text text-anchor="start" x="848.5" y="-85.5" font-family="Helvetica,sans-Serif" font-size="10.00">include/GameLogic/Units</text>
<text text-anchor="middle" x="904" y="-74.5" font-family="Helvetica,sans-Serif" font-size="10.00">/ArmoredUnitFactory.h</text>
</a>
</g>
</g>
<!-- Node21&#45;&gt;Node23 -->
<g id="edge29" class="edge">
<title>Node21&#45;&gt;Node23</title>
<path fill="none" stroke="midnightblue" d="M1237.31,-133.95C1120.82,-114.72 1089.32,-116.88 977,-98 973.94,-97.49 970.82,-96.94 967.66,-96.37"/>
<polygon fill="midnightblue" stroke="midnightblue" points="1236.9,-137.43 1247.34,-135.63 1238.05,-130.53 1236.9,-137.43"/>
</g>
<!-- Node24 -->
<g id="node24" class="node">
<title>Node24</title>
<g id="a_node24"><a xlink:href="_all_units_8cpp.html" target="_top" xlink:title=" ">
<polygon fill="white" stroke="black" points="652,-0.5 652,-30.5 762,-30.5 762,-0.5 652,-0.5"/>
<text text-anchor="start" x="660" y="-18.5" font-family="Helvetica,sans-Serif" font-size="10.00">src/GameLogic/Units</text>
<text text-anchor="middle" x="707" y="-7.5" font-family="Helvetica,sans-Serif" font-size="10.00">/AllUnits.cpp</text>
</a>
</g>
</g>
<!-- Node23&#45;&gt;Node24 -->
<g id="edge30" class="edge">
<title>Node23&#45;&gt;Node24</title>
<path fill="none" stroke="midnightblue" d="M851.65,-64.23C819.78,-53.71 779.59,-40.45 749.66,-30.58"/>
<polygon fill="midnightblue" stroke="midnightblue" points="850.66,-67.59 861.25,-67.4 852.85,-60.94 850.66,-67.59"/>
</g>
<!-- Node25 -->
<g id="node25" class="node">
<title>Node25</title>
<g id="a_node25"><a xlink:href="_armored_unit_factory_8cpp.html" target="_top" xlink:title=" ">
<polygon fill="white" stroke="black" points="841.5,-0.5 841.5,-30.5 966.5,-30.5 966.5,-0.5 841.5,-0.5"/>
<text text-anchor="start" x="849.5" y="-18.5" font-family="Helvetica,sans-Serif" font-size="10.00">src/GameLogic/Units</text>
<text text-anchor="middle" x="904" y="-7.5" font-family="Helvetica,sans-Serif" font-size="10.00">/ArmoredUnitFactory.cpp</text>
</a>
</g>
</g>
<!-- Node23&#45;&gt;Node25 -->
<g id="edge31" class="edge">
<title>Node23&#45;&gt;Node25</title>
<path fill="none" stroke="midnightblue" d="M904,-57.11C904,-48.15 904,-38.32 904,-30.58"/>
<polygon fill="midnightblue" stroke="midnightblue" points="900.5,-57.4 904,-67.4 907.5,-57.4 900.5,-57.4"/>
</g>
<!-- Node26&#45;&gt;Node5 -->
<g id="edge35" class="edge">
<title>Node26&#45;&gt;Node5</title>
<path fill="none" stroke="midnightblue" d="M588.74,-233.76C535.33,-246.06 469.88,-261.86 458,-268 376.79,-309.94 342.06,-319.85 302,-402 268.34,-471.01 282.18,-567.69 289.03,-603.47"/>
<polygon fill="midnightblue" stroke="midnightblue" points="589.6,-237.15 598.56,-231.5 588.03,-230.33 589.6,-237.15"/>
</g>
<!-- Node26&#45;&gt;Node23 -->
<g id="edge42" class="edge">
<title>Node26&#45;&gt;Node23</title>
<path fill="none" stroke="midnightblue" d="M720.2,-198.28C745.03,-189.9 773.72,-178.66 798,-165 817.3,-154.14 819.49,-147.55 837,-134 853.13,-121.52 871.65,-107.58 885.13,-97.52"/>
<polygon fill="midnightblue" stroke="midnightblue" points="718.94,-195.01 710.54,-201.46 721.13,-201.66 718.94,-195.01"/>
</g>
<!-- Node27 -->
<g id="node27" class="node">
<title>Node27</title>
<g id="a_node27"><a xlink:href="_spawn_action_8cpp.html" target="_top" xlink:title=" ">
<polygon fill="white" stroke="black" points="509,-134.5 509,-164.5 605,-164.5 605,-134.5 509,-134.5"/>
<text text-anchor="start" x="517" y="-152.5" font-family="Helvetica,sans-Serif" font-size="10.00">src/engine/actions</text>
<text text-anchor="middle" x="557" y="-141.5" font-family="Helvetica,sans-Serif" font-size="10.00">/SpawnAction.cpp</text>
</a>
</g>
</g>
<!-- Node26&#45;&gt;Node27 -->
<g id="edge33" class="edge">
<title>Node26&#45;&gt;Node27</title>
<path fill="none" stroke="midnightblue" d="M629.82,-196.02C613.64,-185.9 594.23,-173.77 579.52,-164.58"/>
<polygon fill="midnightblue" stroke="midnightblue" points="628.1,-199.06 638.43,-201.4 631.81,-193.13 628.1,-199.06"/>
</g>
<!-- Node28 -->
<g id="node28" class="node">
<title>Node28</title>
<g id="a_node28"><a xlink:href="_factory_8cpp.html" target="_top" xlink:title=" ">
<polygon fill="white" stroke="black" points="381,-134.5 381,-164.5 491,-164.5 491,-134.5 381,-134.5"/>
<text text-anchor="start" x="389" y="-152.5" font-family="Helvetica,sans-Serif" font-size="10.00">src/GameLogic/Units</text>
<text text-anchor="middle" x="436" y="-141.5" font-family="Helvetica,sans-Serif" font-size="10.00">/Factory.cpp</text>
</a>
</g>
</g>
<!-- Node26&#45;&gt;Node28 -->
<g id="edge34" class="edge">
<title>Node26&#45;&gt;Node28</title>
<path fill="none" stroke="midnightblue" d="M602.43,-198.58C565.89,-188.02 519.4,-174.59 484.85,-164.61"/>
<polygon fill="midnightblue" stroke="midnightblue" points="601.88,-202.06 612.46,-201.48 603.82,-195.34 601.88,-202.06"/>
</g>
<!-- Node29 -->
<g id="node29" class="node">
<title>Node29</title>
<g id="a_node29"><a xlink:href="_all_units_8h.html" target="_top" xlink:title=" ">
<polygon fill="white" stroke="black" points="235.5,-134.5 235.5,-164.5 362.5,-164.5 362.5,-134.5 235.5,-134.5"/>
<text text-anchor="start" x="243.5" y="-152.5" font-family="Helvetica,sans-Serif" font-size="10.00">include/GameLogic/Units</text>
<text text-anchor="middle" x="299" y="-141.5" font-family="Helvetica,sans-Serif" font-size="10.00">/AllUnits.h</text>
</a>
</g>
</g>
<!-- Node26&#45;&gt;Node29 -->
<g id="edge36" class="edge">
<title>Node26&#45;&gt;Node29</title>
<path fill="none" stroke="midnightblue" d="M587.41,-200.93C490.6,-183.43 464.66,-181.92 372,-165 368.95,-164.44 365.83,-163.86 362.68,-163.27"/>
<polygon fill="midnightblue" stroke="midnightblue" points="586.86,-204.39 597.32,-202.73 588.11,-197.5 586.86,-204.39"/>
</g>
<!-- Node30 -->
<g id="node30" class="node">
<title>Node30</title>
<g id="a_node30"><a xlink:href="_land_unit_factory_8h.html" target="_top" xlink:title=" ">
<polygon fill="white" stroke="black" points="661.5,-134.5 661.5,-164.5 788.5,-164.5 788.5,-134.5 661.5,-134.5"/>
<text text-anchor="start" x="669.5" y="-152.5" font-family="Helvetica,sans-Serif" font-size="10.00">include/GameLogic/Units</text>
<text text-anchor="middle" x="725" y="-141.5" font-family="Helvetica,sans-Serif" font-size="10.00">/LandUnitFactory.h</text>
</a>
</g>
</g>
<!-- Node26&#45;&gt;Node30 -->
<g id="edge43" class="edge">
<title>Node26&#45;&gt;Node30</title>
<path fill="none" stroke="midnightblue" d="M682.15,-194.02C691.68,-184.34 702.67,-173.17 711.14,-164.58"/>
<polygon fill="midnightblue" stroke="midnightblue" points="679.41,-191.81 674.89,-201.4 684.4,-196.73 679.41,-191.81"/>
</g>
<!-- Node32 -->
<g id="node32" class="node">
<title>Node32</title>
<g id="a_node32"><a xlink:href="_transport_unit_factory_8h.html" target="_top" xlink:title=" ">
<polygon fill="white" stroke="black" points="845.5,-134.5 845.5,-164.5 972.5,-164.5 972.5,-134.5 845.5,-134.5"/>
<text text-anchor="start" x="853.5" y="-152.5" font-family="Helvetica,sans-Serif" font-size="10.00">include/GameLogic/Units</text>
<text text-anchor="middle" x="909" y="-141.5" font-family="Helvetica,sans-Serif" font-size="10.00">/TransportUnitFactory.h</text>
</a>
</g>
</g>
<!-- Node26&#45;&gt;Node32 -->
<g id="edge46" class="edge">
<title>Node26&#45;&gt;Node32</title>
<path fill="none" stroke="midnightblue" d="M724.27,-198.92C764.74,-188.31 816.67,-174.7 855.16,-164.61"/>
<polygon fill="midnightblue" stroke="midnightblue" points="723.29,-195.55 714.51,-201.48 725.07,-202.33 723.29,-195.55"/>
</g>
<!-- Node29&#45;&gt;Node3 -->
<g id="edge38" class="edge">
<title>Node29&#45;&gt;Node3</title>
<path fill="none" stroke="midnightblue" d="M270.62,-128.45C256.47,-118.45 239.69,-106.6 226.92,-97.58"/>
<polygon fill="midnightblue" stroke="midnightblue" points="268.85,-131.48 279.04,-134.4 272.89,-125.77 268.85,-131.48"/>
</g>
<!-- Node29&#45;&gt;Node6 -->
<g id="edge41" class="edge">
<title>Node29&#45;&gt;Node6</title>
<path fill="none" stroke="midnightblue" d="M283.31,-173.3C267.37,-198.74 245,-241.7 245,-282.5 245,-351.5 245,-351.5 245,-351.5 245,-442.07 349.06,-508.72 401.09,-536.39"/>
<polygon fill="midnightblue" stroke="midnightblue" points="286.35,-175.05 288.84,-164.76 280.47,-171.25 286.35,-175.05"/>
</g>
<!-- Node29&#45;&gt;Node8 -->
<g id="edge40" class="edge">
<title>Node29&#45;&gt;Node8</title>
<path fill="none" stroke="midnightblue" d="M308.71,-174.43C316.08,-191.28 327.13,-213.95 340,-232 416.42,-339.22 538.3,-444.55 574.52,-474.85"/>
<polygon fill="midnightblue" stroke="midnightblue" points="311.74,-172.62 304.6,-164.79 305.3,-175.36 311.74,-172.62"/>
</g>
<!-- Node29&#45;&gt;Node16 -->
<g id="edge37" class="edge">
<title>Node29&#45;&gt;Node16</title>
<path fill="none" stroke="midnightblue" d="M356.01,-131.58C391.58,-121.02 436.83,-107.59 470.46,-97.61"/>
<polygon fill="midnightblue" stroke="midnightblue" points="354.84,-128.28 346.25,-134.48 356.83,-134.99 354.84,-128.28"/>
</g>
<!-- Node29&#45;&gt;Node24 -->
<g id="edge39" class="edge">
<title>Node29&#45;&gt;Node24</title>
<path fill="none" stroke="midnightblue" d="M329.07,-129.04C359.07,-110.48 407.04,-83.03 452,-67 518.63,-43.24 599.27,-29.65 651.78,-22.67"/>
<polygon fill="midnightblue" stroke="midnightblue" points="326.98,-126.22 320.36,-134.5 330.69,-132.16 326.98,-126.22"/>
</g>
<!-- Node30&#45;&gt;Node24 -->
<g id="edge44" class="edge">
<title>Node30&#45;&gt;Node24</title>
<path fill="none" stroke="midnightblue" d="M691.28,-128.51C680.87,-120.46 670.67,-110.18 665,-98 659.19,-85.51 660.32,-79.96 665,-67 670.12,-52.84 681.12,-39.86 690.59,-30.6"/>
<polygon fill="midnightblue" stroke="midnightblue" points="689.42,-131.49 699.59,-134.48 693.51,-125.81 689.42,-131.49"/>
</g>
<!-- Node31 -->
<g id="node31" class="node">
<title>Node31</title>
<g id="a_node31"><a xlink:href="_land_unit_factory_8cpp.html" target="_top" xlink:title=" ">
<polygon fill="white" stroke="black" points="674,-67.5 674,-97.5 784,-97.5 784,-67.5 674,-67.5"/>
<text text-anchor="start" x="682" y="-85.5" font-family="Helvetica,sans-Serif" font-size="10.00">src/GameLogic/Units</text>
<text text-anchor="middle" x="729" y="-74.5" font-family="Helvetica,sans-Serif" font-size="10.00">/LandUnitFactory.cpp</text>
</a>
</g>
</g>
<!-- Node30&#45;&gt;Node31 -->
<g id="edge45" class="edge">
<title>Node30&#45;&gt;Node31</title>
<path fill="none" stroke="midnightblue" d="M726.48,-124.4C727.04,-115.37 727.65,-105.41 728.13,-97.58"/>
<polygon fill="midnightblue" stroke="midnightblue" points="722.99,-124.2 725.87,-134.4 729.98,-124.63 722.99,-124.2"/>
</g>
<!-- Node32&#45;&gt;Node23 -->
<g id="edge49" class="edge">
<title>Node32&#45;&gt;Node23</title>
<path fill="none" stroke="midnightblue" d="M907.15,-124.4C906.45,-115.37 905.69,-105.41 905.08,-97.58"/>
<polygon fill="midnightblue" stroke="midnightblue" points="903.66,-124.69 907.92,-134.4 910.64,-124.16 903.66,-124.69"/>
</g>
<!-- Node32&#45;&gt;Node24 -->
<g id="edge47" class="edge">
<title>Node32&#45;&gt;Node24</title>
<path fill="none" stroke="midnightblue" d="M877.95,-129.05C863.74,-119.92 846.8,-108.7 832,-98 814.06,-85.03 811.26,-79.53 793,-67 773.58,-53.68 750.52,-40.26 733.17,-30.61"/>
<polygon fill="midnightblue" stroke="midnightblue" points="876.09,-132.01 886.4,-134.44 879.85,-126.11 876.09,-132.01"/>
</g>
<!-- Node33 -->
<g id="node33" class="node">
<title>Node33</title>
<g id="a_node33"><a xlink:href="_transport_unit_factory_8cpp.html" target="_top" xlink:title=" ">
<polygon fill="white" stroke="black" points="985.5,-67.5 985.5,-97.5 1114.5,-97.5 1114.5,-67.5 985.5,-67.5"/>
<text text-anchor="start" x="993.5" y="-85.5" font-family="Helvetica,sans-Serif" font-size="10.00">src/GameLogic/Units</text>
<text text-anchor="middle" x="1050" y="-74.5" font-family="Helvetica,sans-Serif" font-size="10.00">/TransportUnitFactory.cpp</text>
</a>
</g>
</g>
<!-- Node32&#45;&gt;Node33 -->
<g id="edge48" class="edge">
<title>Node32&#45;&gt;Node33</title>
<path fill="none" stroke="midnightblue" d="M948.85,-130.13C971.25,-119.8 998.78,-107.11 1019.46,-97.58"/>
<polygon fill="midnightblue" stroke="midnightblue" points="947.21,-127.03 939.59,-134.4 950.14,-133.39 947.21,-127.03"/>
</g>
<!-- Node34&#45;&gt;Node30 -->
<g id="edge52" class="edge">
<title>Node34&#45;&gt;Node30</title>
<path fill="none" stroke="midnightblue" d="M955.31,-199.74C904.36,-188.85 837.26,-174.5 788.64,-164.11"/>
<polygon fill="midnightblue" stroke="midnightblue" points="954.76,-203.21 965.27,-201.87 956.22,-196.36 954.76,-203.21"/>
</g>
<!-- Node35 -->
<g id="node35" class="node">
<title>Node35</title>
<g id="a_node35"><a xlink:href="_land_unit_8cpp.html" target="_top" xlink:title=" ">
<polygon fill="white" stroke="black" points="991,-134.5 991,-164.5 1101,-164.5 1101,-134.5 991,-134.5"/>
<text text-anchor="start" x="999" y="-152.5" font-family="Helvetica,sans-Serif" font-size="10.00">src/GameLogic/Units</text>
<text text-anchor="middle" x="1046" y="-141.5" font-family="Helvetica,sans-Serif" font-size="10.00">/LandUnit.cpp</text>
</a>
</g>
</g>
<!-- Node34&#45;&gt;Node35 -->
<g id="edge51" class="edge">
<title>Node34&#45;&gt;Node35</title>
<path fill="none" stroke="midnightblue" d="M1035.23,-191.7C1037.61,-182.59 1040.25,-172.49 1042.32,-164.58"/>
<polygon fill="midnightblue" stroke="midnightblue" points="1031.83,-190.84 1032.69,-201.4 1038.61,-192.61 1031.83,-190.84"/>
</g>
<!-- Node36&#45;&gt;Node21 -->
<g id="edge55" class="edge">
<title>Node36&#45;&gt;Node21</title>
<path fill="none" stroke="midnightblue" d="M1213.01,-196.99C1234.72,-186.69 1261.33,-174.07 1281.33,-164.58"/>
<polygon fill="midnightblue" stroke="midnightblue" points="1211.26,-193.95 1203.73,-201.4 1214.26,-200.27 1211.26,-193.95"/>
</g>
<!-- Node36&#45;&gt;Node32 -->
<g id="edge56" class="edge">
<title>Node36&#45;&gt;Node32</title>
<path fill="none" stroke="midnightblue" d="M1106.94,-199.05C1063.62,-188.43 1007.83,-174.74 966.53,-164.61"/>
<polygon fill="midnightblue" stroke="midnightblue" points="1106.28,-202.49 1116.83,-201.48 1107.95,-195.69 1106.28,-202.49"/>
</g>
<!-- Node37 -->
<g id="node37" class="node">
<title>Node37</title>
<g id="a_node37"><a xlink:href="_transport_unit_8cpp.html" target="_top" xlink:title=" ">
<polygon fill="white" stroke="black" points="1119,-134.5 1119,-164.5 1229,-164.5 1229,-134.5 1119,-134.5"/>
<text text-anchor="start" x="1127" y="-152.5" font-family="Helvetica,sans-Serif" font-size="10.00">src/GameLogic/Units</text>
<text text-anchor="middle" x="1174" y="-141.5" font-family="Helvetica,sans-Serif" font-size="10.00">/TransportUnit.cpp</text>
</a>
</g>
</g>
<!-- Node36&#45;&gt;Node37 -->
<g id="edge54" class="edge">
<title>Node36&#45;&gt;Node37</title>
<path fill="none" stroke="midnightblue" d="M1174,-191.11C1174,-182.15 1174,-172.32 1174,-164.58"/>
<polygon fill="midnightblue" stroke="midnightblue" points="1170.5,-191.4 1174,-201.4 1177.5,-191.4 1170.5,-191.4"/>
</g>
<!-- Node38&#45;&gt;Node17 -->
<g id="edge61" class="edge">
<title>Node38&#45;&gt;Node17</title>
<path fill="none" stroke="midnightblue" d="M1353.47,-235.15C1325.72,-245.59 1289.66,-258.64 1261.52,-268.4"/>
<polygon fill="midnightblue" stroke="midnightblue" points="1354.8,-238.39 1362.91,-231.58 1352.32,-231.85 1354.8,-238.39"/>
</g>
<!-- Node38&#45;&gt;Node18 -->
<g id="edge58" class="edge">
<title>Node38&#45;&gt;Node18</title>
<path fill="none" stroke="midnightblue" d="M1413.64,-193.45C1421.28,-183.9 1430,-173 1436.74,-164.58"/>
<polygon fill="midnightblue" stroke="midnightblue" points="1410.8,-191.4 1407.28,-201.4 1416.26,-195.77 1410.8,-191.4"/>
</g>
<!-- Node38&#45;&gt;Node19 -->
<g id="edge60" class="edge">
<title>Node38&#45;&gt;Node19</title>
<path fill="none" stroke="midnightblue" d="M1469.69,-200.48C1523.98,-189.42 1597.14,-174.52 1649.41,-163.87"/>
<polygon fill="midnightblue" stroke="midnightblue" points="1468.89,-197.08 1459.79,-202.5 1470.29,-203.94 1468.89,-197.08"/>
</g>
<!-- Node39 -->
<g id="node39" class="node">
<title>Node39</title>
<g id="a_node39"><a xlink:href="_unit_order_8cpp.html" target="_top" xlink:title=" ">
<polygon fill="white" stroke="black" points="1521,-134.5 1521,-164.5 1631,-164.5 1631,-134.5 1521,-134.5"/>
<text text-anchor="start" x="1529" y="-152.5" font-family="Helvetica,sans-Serif" font-size="10.00">src/GameLogic/Units</text>
<text text-anchor="middle" x="1576" y="-141.5" font-family="Helvetica,sans-Serif" font-size="10.00">/UnitOrder.cpp</text>
</a>
</g>
</g>
<!-- Node38&#45;&gt;Node39 -->
<g id="edge59" class="edge">
<title>Node38&#45;&gt;Node39</title>
<path fill="none" stroke="midnightblue" d="M1444.59,-197.96C1473.58,-187.48 1509.91,-174.37 1537.02,-164.58"/>
<polygon fill="midnightblue" stroke="midnightblue" points="1443.27,-194.71 1435.06,-201.4 1445.65,-201.29 1443.27,-194.71"/>
</g>
<!-- Node40&#45;&gt;Node14 -->
<g id="edge63" class="edge">
<title>Node40&#45;&gt;Node14</title>
<path fill="none" stroke="midnightblue" d="M1525.85,-270.92C1562.81,-259.9 1618.49,-243.29 1657.95,-231.53"/>
<polygon fill="midnightblue" stroke="midnightblue" points="1524.53,-267.66 1515.95,-273.87 1526.53,-274.37 1524.53,-267.66"/>
</g>
<!-- Node41 -->
<g id="node41" class="node">
<title>Node41</title>
<g id="a_node41"><a xlink:href="pathfinding_8cpp.html" target="_top" xlink:title=" ">
<polygon fill="white" stroke="black" points="1516.5,-207 1516.5,-226 1629.5,-226 1629.5,-207 1516.5,-207"/>
<text text-anchor="middle" x="1573" y="-214" font-family="Helvetica,sans-Serif" font-size="10.00">src/util/pathfinding.cpp</text>
</a>
</g>
</g>
<!-- Node40&#45;&gt;Node41 -->
<g id="edge64" class="edge">
<title>Node40&#45;&gt;Node41</title>
<path fill="none" stroke="midnightblue" d="M1506.76,-267.57C1523.73,-254.74 1547.62,-236.69 1561.59,-226.13"/>
<polygon fill="midnightblue" stroke="midnightblue" points="1504.47,-264.91 1498.6,-273.73 1508.69,-270.5 1504.47,-264.91"/>
</g>
</g>
</svg>
