<?xml version="1.0" encoding="UTF-8" standalone="no"?>
<!DOCTYPE svg PUBLIC "-//W3C//DTD SVG 1.1//EN"
 "http://www.w3.org/Graphics/SVG/1.1/DTD/svg11.dtd">
<!-- Generated by graphviz version 2.47.1 (20210421.1823)
 -->
<!-- Title: include/engine/GUI/Button.h Pages: 1 -->
<svg width="1933pt" height="709pt"
 viewBox="0.00 0.00 1932.50 709.00" xmlns="http://www.w3.org/2000/svg" xmlns:xlink="http://www.w3.org/1999/xlink">
<g id="graph0" class="graph" transform="scale(1 1) rotate(0) translate(4 705)">
<title>include/engine/GUI/Button.h</title>
<polygon fill="white" stroke="transparent" points="-4,4 -4,-705 1928.5,-705 1928.5,4 -4,4"/>
<!-- Node1 -->
<g id="node1" class="node">
<title>Node1</title>
<g id="a_node1"><a xlink:title=" ">
<polygon fill="#bfbfbf" stroke="black" points="129,-670.5 129,-700.5 229,-700.5 229,-670.5 129,-670.5"/>
<text text-anchor="start" x="137" y="-688.5" font-family="Helvetica,sans-Serif" font-size="10.00">include/engine/GUI</text>
<text text-anchor="middle" x="179" y="-677.5" font-family="Helvetica,sans-Serif" font-size="10.00">/Button.h</text>
</a>
</g>
</g>
<!-- Node2 -->
<g id="node2" class="node">
<title>Node2</title>
<g id="a_node2"><a xlink:href="_button_8cpp.html" target="_top" xlink:title=" ">
<polygon fill="white" stroke="black" points="0,-609 0,-628 132,-628 132,-609 0,-609"/>
<text text-anchor="middle" x="66" y="-616" font-family="Helvetica,sans-Serif" font-size="10.00">src/engine/GUI/Button.cpp</text>
</a>
</g>
</g>
<!-- Node1&#45;&gt;Node2 -->
<g id="edge1" class="edge">
<title>Node1&#45;&gt;Node2</title>
<path fill="none" stroke="midnightblue" d="M145.63,-665.31C124.11,-652.93 97.17,-637.43 80.79,-628.01"/>
<polygon fill="midnightblue" stroke="midnightblue" points="144.07,-668.44 154.48,-670.4 147.56,-662.38 144.07,-668.44"/>
</g>
<!-- Node3 -->
<g id="node3" class="node">
<title>Node3</title>
<g id="a_node3"><a xlink:href="_squad_template_8cpp.html" target="_top" xlink:title=" ">
<polygon fill="white" stroke="black" points="179,-67.5 179,-97.5 293,-97.5 293,-67.5 179,-67.5"/>
<text text-anchor="start" x="187" y="-85.5" font-family="Helvetica,sans-Serif" font-size="10.00">src/GameLogic/Squad</text>
<text text-anchor="middle" x="236" y="-74.5" font-family="Helvetica,sans-Serif" font-size="10.00">/SquadTemplate.cpp</text>
</a>
</g>
</g>
<!-- Node1&#45;&gt;Node3 -->
<g id="edge2" class="edge">
<title>Node1&#45;&gt;Node3</title>
<path fill="none" stroke="midnightblue" d="M173.44,-660.49C167.83,-634.15 160,-590.55 160,-552.5 160,-552.5 160,-552.5 160,-215.5 160,-167.11 198.84,-120.45 220.98,-97.77"/>
<polygon fill="midnightblue" stroke="midnightblue" points="170.04,-661.32 175.6,-670.34 176.87,-659.82 170.04,-661.32"/>
</g>
<!-- Node4 -->
<g id="node4" class="node">
<title>Node4</title>
<g id="a_node4"><a xlink:href="main_8cpp.html" target="_top" xlink:title=" ">
<polygon fill="white" stroke="black" points="315,-73 315,-92 387,-92 387,-73 315,-73"/>
<text text-anchor="middle" x="351" y="-80" font-family="Helvetica,sans-Serif" font-size="10.00">src/main.cpp</text>
</a>
</g>
</g>
<!-- Node1&#45;&gt;Node4 -->
<g id="edge3" class="edge">
<title>Node1&#45;&gt;Node4</title>
<path fill="none" stroke="midnightblue" d="M184.56,-660.49C190.17,-634.15 198,-590.55 198,-552.5 198,-552.5 198,-552.5 198,-416.5 198,-275.26 313.06,-128.56 343.62,-92.09"/>
<polygon fill="midnightblue" stroke="midnightblue" points="181.13,-659.82 182.4,-670.34 187.96,-661.32 181.13,-659.82"/>
</g>
<!-- Node5 -->
<g id="node5" class="node">
<title>Node5</title>
<g id="a_node5"><a xlink:href="_squad_template_8h.html" target="_top" xlink:title=" ">
<polygon fill="white" stroke="black" points="266.5,-603.5 266.5,-633.5 397.5,-633.5 397.5,-603.5 266.5,-603.5"/>
<text text-anchor="start" x="274.5" y="-621.5" font-family="Helvetica,sans-Serif" font-size="10.00">include/GameLogic/Squad</text>
<text text-anchor="middle" x="332" y="-610.5" font-family="Helvetica,sans-Serif" font-size="10.00">/SquadTemplate.h</text>
</a>
</g>
</g>
<!-- Node1&#45;&gt;Node5 -->
<g id="edge4" class="edge">
<title>Node1&#45;&gt;Node5</title>
<path fill="none" stroke="midnightblue" d="M221.59,-666.41C246.02,-656.03 276.22,-643.2 298.87,-633.58"/>
<polygon fill="midnightblue" stroke="midnightblue" points="220.03,-663.26 212.2,-670.4 222.77,-669.71 220.03,-663.26"/>
</g>
<!-- Node5&#45;&gt;Node3 -->
<g id="edge5" class="edge">
<title>Node5&#45;&gt;Node3</title>
<path fill="none" stroke="midnightblue" d="M304.1,-596.93C275.75,-573.44 236,-532.18 236,-485.5 236,-485.5 236,-485.5 236,-215.5 236,-172.65 236,-121.97 236,-97.76"/>
<polygon fill="midnightblue" stroke="midnightblue" points="302.12,-599.83 312.11,-603.36 306.5,-594.37 302.12,-599.83"/>
</g>
<!-- Node6 -->
<g id="node6" class="node">
<title>Node6</title>
<g id="a_node6"><a xlink:href="_all_squad_templates_8h.html" target="_top" xlink:title=" ">
<polygon fill="white" stroke="black" points="306.5,-536.5 306.5,-566.5 437.5,-566.5 437.5,-536.5 306.5,-536.5"/>
<text text-anchor="start" x="314.5" y="-554.5" font-family="Helvetica,sans-Serif" font-size="10.00">include/GameLogic/Squad</text>
<text text-anchor="middle" x="372" y="-543.5" font-family="Helvetica,sans-Serif" font-size="10.00">/AllSquadTemplates.h</text>
</a>
</g>
</g>
<!-- Node5&#45;&gt;Node6 -->
<g id="edge6" class="edge">
<title>Node5&#45;&gt;Node6</title>
<path fill="none" stroke="midnightblue" d="M345.93,-594.87C351.72,-585.46 358.26,-574.83 363.34,-566.58"/>
<polygon fill="midnightblue" stroke="midnightblue" points="342.94,-593.05 340.68,-603.4 348.9,-596.71 342.94,-593.05"/>
</g>
<!-- Node7 -->
<g id="node7" class="node">
<title>Node7</title>
<g id="a_node7"><a xlink:href="_all_squad_templates_8cpp.html" target="_top" xlink:title=" ">
<polygon fill="white" stroke="black" points="264,-469.5 264,-499.5 386,-499.5 386,-469.5 264,-469.5"/>
<text text-anchor="start" x="272" y="-487.5" font-family="Helvetica,sans-Serif" font-size="10.00">src/GameLogic/Squad</text>
<text text-anchor="middle" x="325" y="-476.5" font-family="Helvetica,sans-Serif" font-size="10.00">/AllSquadTemplates.cpp</text>
</a>
</g>
</g>
<!-- Node6&#45;&gt;Node7 -->
<g id="edge7" class="edge">
<title>Node6&#45;&gt;Node7</title>
<path fill="none" stroke="midnightblue" d="M355.84,-528.16C348.99,-518.68 341.21,-507.92 335.18,-499.58"/>
<polygon fill="midnightblue" stroke="midnightblue" points="353.11,-530.34 361.8,-536.4 358.78,-526.24 353.11,-530.34"/>
</g>
<!-- Node8 -->
<g id="node8" class="node">
<title>Node8</title>
<g id="a_node8"><a xlink:href="_cell_8h.html" target="_top" xlink:title=" ">
<polygon fill="white" stroke="black" points="608,-475 608,-494 736,-494 736,-475 608,-475"/>
<text text-anchor="middle" x="672" y="-482" font-family="Helvetica,sans-Serif" font-size="10.00">include/GameLogic/Cell.h</text>
</a>
</g>
</g>
<!-- Node6&#45;&gt;Node8 -->
<g id="edge8" class="edge">
<title>Node6&#45;&gt;Node8</title>
<path fill="none" stroke="midnightblue" d="M446.73,-534.31C505.67,-521.54 585.54,-504.23 632.64,-494.03"/>
<polygon fill="midnightblue" stroke="midnightblue" points="445.76,-530.94 436.73,-536.48 447.24,-537.78 445.76,-530.94"/>
</g>
<!-- Node8&#45;&gt;Node4 -->
<g id="edge10" class="edge">
<title>Node8&#45;&gt;Node4</title>
<path fill="none" stroke="midnightblue" d="M597.37,-475.82C563.85,-469.1 525.71,-456.52 498,-433 384.08,-336.3 356.61,-136.29 351.85,-92.22"/>
<polygon fill="midnightblue" stroke="midnightblue" points="597.13,-479.33 607.6,-477.72 598.41,-472.45 597.13,-479.33"/>
</g>
<!-- Node9 -->
<g id="node9" class="node">
<title>Node9</title>
<g id="a_node9"><a xlink:href="_cell_8cpp.html" target="_top" xlink:title=" ">
<polygon fill="white" stroke="black" points="700.5,-408 700.5,-427 821.5,-427 821.5,-408 700.5,-408"/>
<text text-anchor="middle" x="761" y="-415" font-family="Helvetica,sans-Serif" font-size="10.00">src/GameLogic/Cell.cpp</text>
</a>
</g>
</g>
<!-- Node8&#45;&gt;Node9 -->
<g id="edge9" class="edge">
<title>Node8&#45;&gt;Node9</title>
<path fill="none" stroke="midnightblue" d="M692.45,-468.57C710.01,-455.74 734.73,-437.69 749.19,-427.13"/>
<polygon fill="midnightblue" stroke="midnightblue" points="690.01,-466.01 684,-474.73 694.14,-471.66 690.01,-466.01"/>
</g>
<!-- Node10 -->
<g id="node10" class="node">
<title>Node10</title>
<g id="a_node10"><a xlink:href="_set_squad_path_8h.html" target="_top" xlink:title=" ">
<polygon fill="white" stroke="black" points="544.5,-268.5 544.5,-298.5 657.5,-298.5 657.5,-268.5 544.5,-268.5"/>
<text text-anchor="start" x="552.5" y="-286.5" font-family="Helvetica,sans-Serif" font-size="10.00">include/engine/actions</text>
<text text-anchor="middle" x="601" y="-275.5" font-family="Helvetica,sans-Serif" font-size="10.00">/SetSquadPath.h</text>
</a>
</g>
</g>
<!-- Node8&#45;&gt;Node10 -->
<g id="edge11" class="edge">
<title>Node8&#45;&gt;Node10</title>
<path fill="none" stroke="midnightblue" d="M661.66,-465.86C644.02,-426.86 610.99,-333.94 602.33,-298.53"/>
<polygon fill="midnightblue" stroke="midnightblue" points="658.53,-467.43 666,-474.95 664.85,-464.42 658.53,-467.43"/>
</g>
<!-- Node13 -->
<g id="node13" class="node">
<title>Node13</title>
<g id="a_node13"><a xlink:href="_game_logic_2_squad_2_action_8h.html" target="_top" xlink:title=" ">
<polygon fill="white" stroke="black" points="934.5,-402.5 934.5,-432.5 1065.5,-432.5 1065.5,-402.5 934.5,-402.5"/>
<text text-anchor="start" x="942.5" y="-420.5" font-family="Helvetica,sans-Serif" font-size="10.00">include/GameLogic/Squad</text>
<text text-anchor="middle" x="1000" y="-409.5" font-family="Helvetica,sans-Serif" font-size="10.00">/Action.h</text>
</a>
</g>
</g>
<!-- Node8&#45;&gt;Node13 -->
<g id="edge15" class="edge">
<title>Node8&#45;&gt;Node13</title>
<path fill="none" stroke="midnightblue" d="M725.11,-472.97C782.14,-461.67 872.81,-443.7 934.29,-431.52"/>
<polygon fill="midnightblue" stroke="midnightblue" points="724.35,-469.56 715.22,-474.94 725.71,-476.42 724.35,-469.56"/>
</g>
<!-- Node15 -->
<g id="node15" class="node">
<title>Node15</title>
<g id="a_node15"><a xlink:href="_squad_8h.html" target="_top" xlink:title=" ">
<polygon fill="white" stroke="black" points="934.5,-335.5 934.5,-365.5 1065.5,-365.5 1065.5,-335.5 934.5,-335.5"/>
<text text-anchor="start" x="942.5" y="-353.5" font-family="Helvetica,sans-Serif" font-size="10.00">include/GameLogic/Squad</text>
<text text-anchor="middle" x="1000" y="-342.5" font-family="Helvetica,sans-Serif" font-size="10.00">/Squad.h</text>
</a>
</g>
</g>
<!-- Node8&#45;&gt;Node15 -->
<g id="edge66" class="edge">
<title>Node8&#45;&gt;Node15</title>
<path fill="none" stroke="midnightblue" d="M706.6,-471.93C737.37,-462.59 783.07,-448.48 822,-433 873.91,-412.36 932.12,-382.8 967.59,-365.53"/>
<polygon fill="midnightblue" stroke="midnightblue" points="705.33,-468.66 696.77,-474.92 707.36,-475.36 705.33,-468.66"/>
</g>
<!-- Node26 -->
<g id="node26" class="node">
<title>Node26</title>
<g id="a_node26"><a xlink:href="_factory_8h.html" target="_top" xlink:title=" ">
<polygon fill="white" stroke="black" points="759.5,-201.5 759.5,-231.5 886.5,-231.5 886.5,-201.5 759.5,-201.5"/>
<text text-anchor="start" x="767.5" y="-219.5" font-family="Helvetica,sans-Serif" font-size="10.00">include/GameLogic/Units</text>
<text text-anchor="middle" x="823" y="-208.5" font-family="Helvetica,sans-Serif" font-size="10.00">/Factory.h</text>
</a>
</g>
</g>
<!-- Node8&#45;&gt;Node26 -->
<g id="edge67" class="edge">
<title>Node8&#45;&gt;Node26</title>
<path fill="none" stroke="midnightblue" d="M674.62,-464.3C677.41,-447.34 682.74,-422.24 692,-402 724.03,-331.98 783.8,-261.03 810.06,-231.62"/>
<polygon fill="midnightblue" stroke="midnightblue" points="671.1,-464.17 673.07,-474.58 678.02,-465.21 671.1,-464.17"/>
</g>
<!-- Node40 -->
<g id="node40" class="node">
<title>Node40</title>
<g id="a_node40"><a xlink:href="pathfinding_8h.html" target="_top" xlink:title=" ">
<polygon fill="white" stroke="black" points="1629,-274 1629,-293 1749,-293 1749,-274 1629,-274"/>
<text text-anchor="middle" x="1689" y="-281" font-family="Helvetica,sans-Serif" font-size="10.00">include/util/pathfinding.h</text>
</a>
</g>
</g>
<!-- Node8&#45;&gt;Node40 -->
<g id="edge68" class="edge">
<title>Node8&#45;&gt;Node40</title>
<path fill="none" stroke="midnightblue" d="M746.32,-476.72C827.48,-468.73 961.09,-453.84 1075,-433 1301.82,-391.5 1570.22,-318 1658.91,-293.06"/>
<polygon fill="midnightblue" stroke="midnightblue" points="745.82,-473.25 736.21,-477.71 746.5,-480.22 745.82,-473.25"/>
</g>
<!-- Node10&#45;&gt;Node8 -->
<g id="edge14" class="edge">
<title>Node10&#45;&gt;Node8</title>
<path fill="none" stroke="midnightblue" d="M613.89,-307.91C633.08,-352.15 666.1,-446.17 671.9,-474.95"/>
<polygon fill="midnightblue" stroke="midnightblue" points="616.97,-306.22 609.68,-298.53 610.58,-309.09 616.97,-306.22"/>
</g>
<!-- Node11 -->
<g id="node11" class="node">
<title>Node11</title>
<g id="a_node11"><a xlink:href="engine_2_action_8cpp.html" target="_top" xlink:title=" ">
<polygon fill="white" stroke="black" points="631,-207 631,-226 741,-226 741,-207 631,-207"/>
<text text-anchor="middle" x="686" y="-214" font-family="Helvetica,sans-Serif" font-size="10.00">src/engine/Action.cpp</text>
</a>
</g>
</g>
<!-- Node10&#45;&gt;Node11 -->
<g id="edge12" class="edge">
<title>Node10&#45;&gt;Node11</title>
<path fill="none" stroke="midnightblue" d="M627.8,-262.01C643.58,-249.94 662.72,-235.3 674.63,-226.19"/>
<polygon fill="midnightblue" stroke="midnightblue" points="625.26,-259.54 619.44,-268.4 629.51,-265.1 625.26,-259.54"/>
</g>
<!-- Node12 -->
<g id="node12" class="node">
<title>Node12</title>
<g id="a_node12"><a xlink:href="_set_squad_path_8cpp.html" target="_top" xlink:title=" ">
<polygon fill="white" stroke="black" points="511.5,-201.5 511.5,-231.5 612.5,-231.5 612.5,-201.5 511.5,-201.5"/>
<text text-anchor="start" x="519.5" y="-219.5" font-family="Helvetica,sans-Serif" font-size="10.00">src/engine/actions</text>
<text text-anchor="middle" x="562" y="-208.5" font-family="Helvetica,sans-Serif" font-size="10.00">/SetSquadPath.cpp</text>
</a>
</g>
</g>
<!-- Node10&#45;&gt;Node12 -->
<g id="edge13" class="edge">
<title>Node10&#45;&gt;Node12</title>
<path fill="none" stroke="midnightblue" d="M587.25,-259.58C581.64,-250.24 575.35,-239.75 570.45,-231.58"/>
<polygon fill="midnightblue" stroke="midnightblue" points="584.39,-261.62 592.54,-268.4 590.39,-258.02 584.39,-261.62"/>
</g>
<!-- Node14 -->
<g id="node14" class="node">
<title>Node14</title>
<g id="a_node14"><a xlink:href="_game_logic_2_squad_2_action_8cpp.html" target="_top" xlink:title=" ">
<polygon fill="white" stroke="black" points="1660,-201.5 1660,-231.5 1774,-231.5 1774,-201.5 1660,-201.5"/>
<text text-anchor="start" x="1668" y="-219.5" font-family="Helvetica,sans-Serif" font-size="10.00">src/GameLogic/Squad</text>
<text text-anchor="middle" x="1717" y="-208.5" font-family="Helvetica,sans-Serif" font-size="10.00">/Action.cpp</text>
</a>
</g>
</g>
<!-- Node13&#45;&gt;Node14 -->
<g id="edge16" class="edge">
<title>Node13&#45;&gt;Node14</title>
<path fill="none" stroke="midnightblue" d="M1060.74,-399.64C1199.49,-361.13 1537.61,-267.29 1666.21,-231.6"/>
<polygon fill="midnightblue" stroke="midnightblue" points="1059.4,-396.38 1050.7,-402.43 1061.28,-403.13 1059.4,-396.38"/>
</g>
<!-- Node13&#45;&gt;Node15 -->
<g id="edge17" class="edge">
<title>Node13&#45;&gt;Node15</title>
<path fill="none" stroke="midnightblue" d="M993.45,-392.4C993.01,-383.37 993.3,-373.41 994.33,-365.58"/>
<polygon fill="midnightblue" stroke="midnightblue" points="989.97,-392.74 994.32,-402.4 996.94,-392.13 989.97,-392.74"/>
</g>
<!-- Node15&#45;&gt;Node8 -->
<g id="edge20" class="edge">
<title>Node15&#45;&gt;Node8</title>
<path fill="none" stroke="midnightblue" d="M971.42,-370.47C939.71,-388.04 887.25,-414.21 840,-433 796.67,-450.23 744.95,-465.76 710.3,-474.92"/>
<polygon fill="midnightblue" stroke="midnightblue" points="973.18,-373.49 980.18,-365.53 969.75,-367.39 973.18,-373.49"/>
</g>
<!-- Node15&#45;&gt;Node10 -->
<g id="edge19" class="edge">
<title>Node15&#45;&gt;Node10</title>
<path fill="none" stroke="midnightblue" d="M923.9,-337.1C846.21,-324.45 727.38,-305.09 657.61,-293.72"/>
<polygon fill="midnightblue" stroke="midnightblue" points="923.68,-340.61 934.11,-338.77 924.81,-333.7 923.68,-340.61"/>
</g>
<!-- Node15&#45;&gt;Node13 -->
<g id="edge21" class="edge">
<title>Node15&#45;&gt;Node13</title>
<path fill="none" stroke="midnightblue" d="M1006.54,-375.57C1006.99,-384.6 1006.71,-394.56 1005.68,-402.4"/>
<polygon fill="midnightblue" stroke="midnightblue" points="1010.03,-375.24 1005.67,-365.58 1003.05,-375.84 1010.03,-375.24"/>
</g>
<!-- Node16 -->
<g id="node16" class="node">
<title>Node16</title>
<g id="a_node16"><a xlink:href="_squad_8cpp.html" target="_top" xlink:title=" ">
<polygon fill="white" stroke="black" points="582,-67.5 582,-97.5 696,-97.5 696,-67.5 582,-67.5"/>
<text text-anchor="start" x="590" y="-85.5" font-family="Helvetica,sans-Serif" font-size="10.00">src/GameLogic/Squad</text>
<text text-anchor="middle" x="639" y="-74.5" font-family="Helvetica,sans-Serif" font-size="10.00">/Squad.cpp</text>
</a>
</g>
</g>
<!-- Node15&#45;&gt;Node16 -->
<g id="edge18" class="edge">
<title>Node15&#45;&gt;Node16</title>
<path fill="none" stroke="midnightblue" d="M989.44,-326.33C973.57,-293.92 940.59,-235.2 896,-201 858.85,-172.51 837.86,-187.86 797,-165 777.68,-154.19 777.03,-145.32 758,-134 733.12,-119.2 703.09,-106.5 679.43,-97.53"/>
<polygon fill="midnightblue" stroke="midnightblue" points="986.35,-327.97 993.81,-335.49 992.66,-324.95 986.35,-327.97"/>
</g>
<!-- Node17 -->
<g id="node17" class="node">
<title>Node17</title>
<g id="a_node17"><a xlink:href="_unit_8h.html" target="_top" xlink:title=" ">
<polygon fill="white" stroke="black" points="1281.5,-268.5 1281.5,-298.5 1408.5,-298.5 1408.5,-268.5 1281.5,-268.5"/>
<text text-anchor="start" x="1289.5" y="-286.5" font-family="Helvetica,sans-Serif" font-size="10.00">include/GameLogic/Units</text>
<text text-anchor="middle" x="1345" y="-275.5" font-family="Helvetica,sans-Serif" font-size="10.00">/Unit.h</text>
</a>
</g>
</g>
<!-- Node15&#45;&gt;Node17 -->
<g id="edge22" class="edge">
<title>Node15&#45;&gt;Node17</title>
<path fill="none" stroke="midnightblue" d="M1075.94,-334.09C1137.51,-322.23 1223.22,-306.12 1281.27,-295.52"/>
<polygon fill="midnightblue" stroke="midnightblue" points="1075.05,-330.7 1065.89,-336.03 1076.37,-337.57 1075.05,-330.7"/>
</g>
<!-- Node15&#45;&gt;Node40 -->
<g id="edge63" class="edge">
<title>Node15&#45;&gt;Node40</title>
<path fill="none" stroke="midnightblue" d="M1075.81,-342.35C1213.7,-329.34 1502.84,-302.06 1628.52,-290.21"/>
<polygon fill="midnightblue" stroke="midnightblue" points="1075.38,-338.87 1065.75,-343.3 1076.04,-345.84 1075.38,-338.87"/>
</g>
<!-- Node17&#45;&gt;Node15 -->
<g id="edge24" class="edge">
<title>Node17&#45;&gt;Node15</title>
<path fill="none" stroke="midnightblue" d="M1271.26,-299.48C1210.25,-311.25 1124.47,-327.38 1065.77,-338.1"/>
<polygon fill="midnightblue" stroke="midnightblue" points="1272.05,-302.9 1281.21,-297.56 1270.72,-296.02 1272.05,-302.9"/>
</g>
<!-- Node18 -->
<g id="node18" class="node">
<title>Node18</title>
<g id="a_node18"><a xlink:href="_unit_8cpp.html" target="_top" xlink:title=" ">
<polygon fill="white" stroke="black" points="1537,-134.5 1537,-164.5 1647,-164.5 1647,-134.5 1537,-134.5"/>
<text text-anchor="start" x="1545" y="-152.5" font-family="Helvetica,sans-Serif" font-size="10.00">src/GameLogic/Units</text>
<text text-anchor="middle" x="1592" y="-141.5" font-family="Helvetica,sans-Serif" font-size="10.00">/Unit.cpp</text>
</a>
</g>
</g>
<!-- Node17&#45;&gt;Node18 -->
<g id="edge23" class="edge">
<title>Node17&#45;&gt;Node18</title>
<path fill="none" stroke="midnightblue" d="M1373.64,-262.57C1403.76,-241.78 1449.34,-210.86 1468,-201 1495.03,-186.72 1527.01,-173.79 1551.72,-164.58"/>
<polygon fill="midnightblue" stroke="midnightblue" points="1371.44,-259.83 1365.21,-268.4 1375.42,-265.59 1371.44,-259.83"/>
</g>
<!-- Node19 -->
<g id="node19" class="node">
<title>Node19</title>
<g id="a_node19"><a xlink:href="_squad_order_8h.html" target="_top" xlink:title=" ">
<polygon fill="white" stroke="black" points="1793.5,-134.5 1793.5,-164.5 1924.5,-164.5 1924.5,-134.5 1793.5,-134.5"/>
<text text-anchor="start" x="1801.5" y="-152.5" font-family="Helvetica,sans-Serif" font-size="10.00">include/GameLogic/Squad</text>
<text text-anchor="middle" x="1859" y="-141.5" font-family="Helvetica,sans-Serif" font-size="10.00">/SquadOrder.h</text>
</a>
</g>
</g>
<!-- Node17&#45;&gt;Node19 -->
<g id="edge25" class="edge">
<title>Node17&#45;&gt;Node19</title>
<path fill="none" stroke="midnightblue" d="M1418.74,-278.45C1474.32,-273.1 1551.26,-260.71 1613,-232 1632.76,-222.81 1631.48,-210.7 1651,-201 1675.79,-188.68 1742.19,-173.59 1793.36,-163.13"/>
<polygon fill="midnightblue" stroke="midnightblue" points="1418.26,-274.97 1408.62,-279.36 1418.89,-281.95 1418.26,-274.97"/>
</g>
<!-- Node21 -->
<g id="node21" class="node">
<title>Node21</title>
<g id="a_node21"><a xlink:href="_armored_unit_8h.html" target="_top" xlink:title=" ">
<polygon fill="white" stroke="black" points="1391.5,-134.5 1391.5,-164.5 1518.5,-164.5 1518.5,-134.5 1391.5,-134.5"/>
<text text-anchor="start" x="1399.5" y="-152.5" font-family="Helvetica,sans-Serif" font-size="10.00">include/GameLogic/Units</text>
<text text-anchor="middle" x="1455" y="-141.5" font-family="Helvetica,sans-Serif" font-size="10.00">/ArmoredUnit.h</text>
</a>
</g>
</g>
<!-- Node17&#45;&gt;Node21 -->
<g id="edge27" class="edge">
<title>Node17&#45;&gt;Node21</title>
<path fill="none" stroke="midnightblue" d="M1365.59,-260.6C1373.66,-251.84 1382.91,-241.57 1391,-232 1410.52,-208.93 1431.98,-181.04 1444.43,-164.59"/>
<polygon fill="midnightblue" stroke="midnightblue" points="1362.81,-258.45 1358.57,-268.17 1367.94,-263.21 1362.81,-258.45"/>
</g>
<!-- Node17&#45;&gt;Node26 -->
<g id="edge32" class="edge">
<title>Node17&#45;&gt;Node26</title>
<path fill="none" stroke="midnightblue" d="M1271.27,-273.32C1168.51,-260.52 983.94,-237.54 886.79,-225.44"/>
<polygon fill="midnightblue" stroke="midnightblue" points="1270.9,-276.8 1281.25,-274.56 1271.76,-269.85 1270.9,-276.8"/>
</g>
<!-- Node34 -->
<g id="node34" class="node">
<title>Node34</title>
<g id="a_node34"><a xlink:href="_land_unit_8h.html" target="_top" xlink:title=" ">
<polygon fill="white" stroke="black" points="1109.5,-201.5 1109.5,-231.5 1236.5,-231.5 1236.5,-201.5 1109.5,-201.5"/>
<text text-anchor="start" x="1117.5" y="-219.5" font-family="Helvetica,sans-Serif" font-size="10.00">include/GameLogic/Units</text>
<text text-anchor="middle" x="1173" y="-208.5" font-family="Helvetica,sans-Serif" font-size="10.00">/LandUnit.h</text>
</a>
</g>
</g>
<!-- Node17&#45;&gt;Node34 -->
<g id="edge51" class="edge">
<title>Node17&#45;&gt;Node34</title>
<path fill="none" stroke="midnightblue" d="M1298.21,-264.82C1270.57,-254.37 1236.04,-241.32 1210.25,-231.58"/>
<polygon fill="midnightblue" stroke="midnightblue" points="1297.09,-268.13 1307.68,-268.4 1299.56,-261.59 1297.09,-268.13"/>
</g>
<!-- Node36 -->
<g id="node36" class="node">
<title>Node36</title>
<g id="a_node36"><a xlink:href="_transport_unit_8h.html" target="_top" xlink:title=" ">
<polygon fill="white" stroke="black" points="1254.5,-201.5 1254.5,-231.5 1381.5,-231.5 1381.5,-201.5 1254.5,-201.5"/>
<text text-anchor="start" x="1262.5" y="-219.5" font-family="Helvetica,sans-Serif" font-size="10.00">include/GameLogic/Units</text>
<text text-anchor="middle" x="1318" y="-208.5" font-family="Helvetica,sans-Serif" font-size="10.00">/TransportUnit.h</text>
</a>
</g>
</g>
<!-- Node17&#45;&gt;Node36 -->
<g id="edge54" class="edge">
<title>Node17&#45;&gt;Node36</title>
<path fill="none" stroke="midnightblue" d="M1335.23,-258.99C1331.42,-249.8 1327.17,-239.58 1323.85,-231.58"/>
<polygon fill="midnightblue" stroke="midnightblue" points="1332.07,-260.5 1339.14,-268.4 1338.54,-257.82 1332.07,-260.5"/>
</g>
<!-- Node38 -->
<g id="node38" class="node">
<title>Node38</title>
<g id="a_node38"><a xlink:href="_unit_order_8h.html" target="_top" xlink:title=" ">
<polygon fill="white" stroke="black" points="1476.5,-201.5 1476.5,-231.5 1603.5,-231.5 1603.5,-201.5 1476.5,-201.5"/>
<text text-anchor="start" x="1484.5" y="-219.5" font-family="Helvetica,sans-Serif" font-size="10.00">include/GameLogic/Units</text>
<text text-anchor="middle" x="1540" y="-208.5" font-family="Helvetica,sans-Serif" font-size="10.00">/UnitOrder.h</text>
</a>
</g>
</g>
<!-- Node17&#45;&gt;Node38 -->
<g id="edge58" class="edge">
<title>Node17&#45;&gt;Node38</title>
<path fill="none" stroke="midnightblue" d="M1391.17,-265.09C1421.61,-254.6 1461.31,-241.41 1492.1,-231.58"/>
<polygon fill="midnightblue" stroke="midnightblue" points="1389.94,-261.81 1381.63,-268.4 1392.23,-268.43 1389.94,-261.81"/>
</g>
<!-- Node20 -->
<g id="node20" class="node">
<title>Node20</title>
<g id="a_node20"><a xlink:href="_squad_order_8cpp.html" target="_top" xlink:title=" ">
<polygon fill="white" stroke="black" points="1802,-67.5 1802,-97.5 1916,-97.5 1916,-67.5 1802,-67.5"/>
<text text-anchor="start" x="1810" y="-85.5" font-family="Helvetica,sans-Serif" font-size="10.00">src/GameLogic/Squad</text>
<text text-anchor="middle" x="1859" y="-74.5" font-family="Helvetica,sans-Serif" font-size="10.00">/SquadOrder.cpp</text>
</a>
</g>
</g>
<!-- Node19&#45;&gt;Node20 -->
<g id="edge26" class="edge">
<title>Node19&#45;&gt;Node20</title>
<path fill="none" stroke="midnightblue" d="M1859,-124.11C1859,-115.15 1859,-105.32 1859,-97.58"/>
<polygon fill="midnightblue" stroke="midnightblue" points="1855.5,-124.4 1859,-134.4 1862.5,-124.4 1855.5,-124.4"/>
</g>
<!-- Node22 -->
<g id="node22" class="node">
<title>Node22</title>
<g id="a_node22"><a xlink:href="_armored_unit_8cpp.html" target="_top" xlink:title=" ">
<polygon fill="white" stroke="black" points="1400,-67.5 1400,-97.5 1510,-97.5 1510,-67.5 1400,-67.5"/>
<text text-anchor="start" x="1408" y="-85.5" font-family="Helvetica,sans-Serif" font-size="10.00">src/GameLogic/Units</text>
<text text-anchor="middle" x="1455" y="-74.5" font-family="Helvetica,sans-Serif" font-size="10.00">/ArmoredUnit.cpp</text>
</a>
</g>
</g>
<!-- Node21&#45;&gt;Node22 -->
<g id="edge28" class="edge">
<title>Node21&#45;&gt;Node22</title>
<path fill="none" stroke="midnightblue" d="M1455,-124.11C1455,-115.15 1455,-105.32 1455,-97.58"/>
<polygon fill="midnightblue" stroke="midnightblue" points="1451.5,-124.4 1455,-134.4 1458.5,-124.4 1451.5,-124.4"/>
</g>
<!-- Node23 -->
<g id="node23" class="node">
<title>Node23</title>
<g id="a_node23"><a xlink:href="_armored_unit_factory_8h.html" target="_top" xlink:title=" ">
<polygon fill="white" stroke="black" points="967.5,-67.5 967.5,-97.5 1094.5,-97.5 1094.5,-67.5 967.5,-67.5"/>
<text text-anchor="start" x="975.5" y="-85.5" font-family="Helvetica,sans-Serif" font-size="10.00">include/GameLogic/Units</text>
<text text-anchor="middle" x="1031" y="-74.5" font-family="Helvetica,sans-Serif" font-size="10.00">/ArmoredUnitFactory.h</text>
</a>
</g>
</g>
<!-- Node21&#45;&gt;Node23 -->
<g id="edge29" class="edge">
<title>Node21&#45;&gt;Node23</title>
<path fill="none" stroke="midnightblue" d="M1381.46,-133.99C1257.36,-114.05 1223.83,-117.64 1104,-98 1100.94,-97.5 1097.81,-96.96 1094.66,-96.41"/>
<polygon fill="midnightblue" stroke="midnightblue" points="1380.91,-137.44 1391.34,-135.59 1382.04,-130.54 1380.91,-137.44"/>
</g>
<!-- Node24 -->
<g id="node24" class="node">
<title>Node24</title>
<g id="a_node24"><a xlink:href="_all_units_8cpp.html" target="_top" xlink:title=" ">
<polygon fill="white" stroke="black" points="841,-0.5 841,-30.5 951,-30.5 951,-0.5 841,-0.5"/>
<text text-anchor="start" x="849" y="-18.5" font-family="Helvetica,sans-Serif" font-size="10.00">src/GameLogic/Units</text>
<text text-anchor="middle" x="896" y="-7.5" font-family="Helvetica,sans-Serif" font-size="10.00">/AllUnits.cpp</text>
</a>
</g>
</g>
<!-- Node23&#45;&gt;Node24 -->
<g id="edge30" class="edge">
<title>Node23&#45;&gt;Node24</title>
<path fill="none" stroke="midnightblue" d="M992.56,-62.99C971.16,-52.69 944.95,-40.07 925.24,-30.58"/>
<polygon fill="midnightblue" stroke="midnightblue" points="991.18,-66.21 1001.71,-67.4 994.22,-59.9 991.18,-66.21"/>
</g>
<!-- Node25 -->
<g id="node25" class="node">
<title>Node25</title>
<g id="a_node25"><a xlink:href="_armored_unit_factory_8cpp.html" target="_top" xlink:title=" ">
<polygon fill="white" stroke="black" points="969.5,-0.5 969.5,-30.5 1094.5,-30.5 1094.5,-0.5 969.5,-0.5"/>
<text text-anchor="start" x="977.5" y="-18.5" font-family="Helvetica,sans-Serif" font-size="10.00">src/GameLogic/Units</text>
<text text-anchor="middle" x="1032" y="-7.5" font-family="Helvetica,sans-Serif" font-size="10.00">/ArmoredUnitFactory.cpp</text>
</a>
</g>
</g>
<!-- Node23&#45;&gt;Node25 -->
<g id="edge31" class="edge">
<title>Node23&#45;&gt;Node25</title>
<path fill="none" stroke="midnightblue" d="M1031.38,-57.11C1031.51,-48.15 1031.66,-38.32 1031.78,-30.58"/>
<polygon fill="midnightblue" stroke="midnightblue" points="1027.87,-57.34 1031.22,-67.4 1034.87,-57.45 1027.87,-57.34"/>
</g>
<!-- Node26&#45;&gt;Node5 -->
<g id="edge35" class="edge">
<title>Node26&#45;&gt;Node5</title>
<path fill="none" stroke="midnightblue" d="M830.9,-241.36C838.87,-267.57 850,-311.06 850,-349.5 850,-485.5 850,-485.5 850,-485.5 850,-577.84 536.99,-606.38 397.61,-614.52"/>
<polygon fill="midnightblue" stroke="midnightblue" points="834.16,-240.06 827.83,-231.57 827.49,-242.16 834.16,-240.06"/>
</g>
<!-- Node26&#45;&gt;Node23 -->
<g id="edge43" class="edge">
<title>Node26&#45;&gt;Node23</title>
<path fill="none" stroke="midnightblue" d="M874.85,-197.93C896.45,-189.5 921.28,-178.32 942,-165 957.95,-154.75 995.84,-118.25 1016.67,-97.75"/>
<polygon fill="midnightblue" stroke="midnightblue" points="873.6,-194.66 865.49,-201.49 876.08,-201.21 873.6,-194.66"/>
</g>
<!-- Node27 -->
<g id="node27" class="node">
<title>Node27</title>
<g id="a_node27"><a xlink:href="_spawn_action_8cpp.html" target="_top" xlink:title=" ">
<polygon fill="white" stroke="black" points="653,-134.5 653,-164.5 749,-164.5 749,-134.5 653,-134.5"/>
<text text-anchor="start" x="661" y="-152.5" font-family="Helvetica,sans-Serif" font-size="10.00">src/engine/actions</text>
<text text-anchor="middle" x="701" y="-141.5" font-family="Helvetica,sans-Serif" font-size="10.00">/SpawnAction.cpp</text>
</a>
</g>
</g>
<!-- Node26&#45;&gt;Node27 -->
<g id="edge33" class="edge">
<title>Node26&#45;&gt;Node27</title>
<path fill="none" stroke="midnightblue" d="M787.48,-196.57C768.29,-186.35 745,-173.94 727.42,-164.58"/>
<polygon fill="midnightblue" stroke="midnightblue" points="786.06,-199.78 796.53,-201.4 789.35,-193.6 786.06,-199.78"/>
</g>
<!-- Node28 -->
<g id="node28" class="node">
<title>Node28</title>
<g id="a_node28"><a xlink:href="_factory_8cpp.html" target="_top" xlink:title=" ">
<polygon fill="white" stroke="black" points="525,-134.5 525,-164.5 635,-164.5 635,-134.5 525,-134.5"/>
<text text-anchor="start" x="533" y="-152.5" font-family="Helvetica,sans-Serif" font-size="10.00">src/GameLogic/Units</text>
<text text-anchor="middle" x="580" y="-141.5" font-family="Helvetica,sans-Serif" font-size="10.00">/Factory.cpp</text>
</a>
</g>
</g>
<!-- Node26&#45;&gt;Node28 -->
<g id="edge34" class="edge">
<title>Node26&#45;&gt;Node28</title>
<path fill="none" stroke="midnightblue" d="M760.75,-198.85C721.14,-188.25 670.39,-174.68 632.75,-164.61"/>
<polygon fill="midnightblue" stroke="midnightblue" points="760.01,-202.27 770.57,-201.48 761.82,-195.51 760.01,-202.27"/>
</g>
<!-- Node29 -->
<g id="node29" class="node">
<title>Node29</title>
<g id="a_node29"><a xlink:href="_all_units_8h.html" target="_top" xlink:title=" ">
<polygon fill="white" stroke="black" points="379.5,-134.5 379.5,-164.5 506.5,-164.5 506.5,-134.5 379.5,-134.5"/>
<text text-anchor="start" x="387.5" y="-152.5" font-family="Helvetica,sans-Serif" font-size="10.00">include/GameLogic/Units</text>
<text text-anchor="middle" x="443" y="-141.5" font-family="Helvetica,sans-Serif" font-size="10.00">/AllUnits.h</text>
</a>
</g>
</g>
<!-- Node26&#45;&gt;Node29 -->
<g id="edge36" class="edge">
<title>Node26&#45;&gt;Node29</title>
<path fill="none" stroke="midnightblue" d="M749.3,-200.93C644.68,-182.76 616.49,-182.7 516,-165 512.95,-164.46 509.82,-163.9 506.67,-163.32"/>
<polygon fill="midnightblue" stroke="midnightblue" points="748.88,-204.41 759.33,-202.68 750.08,-197.51 748.88,-204.41"/>
</g>
<!-- Node30 -->
<g id="node30" class="node">
<title>Node30</title>
<g id="a_node30"><a xlink:href="_land_unit_factory_8h.html" target="_top" xlink:title=" ">
<polygon fill="white" stroke="black" points="805.5,-134.5 805.5,-164.5 932.5,-164.5 932.5,-134.5 805.5,-134.5"/>
<text text-anchor="start" x="813.5" y="-152.5" font-family="Helvetica,sans-Serif" font-size="10.00">include/GameLogic/Units</text>
<text text-anchor="middle" x="869" y="-141.5" font-family="Helvetica,sans-Serif" font-size="10.00">/LandUnitFactory.h</text>
</a>
</g>
</g>
<!-- Node26&#45;&gt;Node30 -->
<g id="edge44" class="edge">
<title>Node26&#45;&gt;Node30</title>
<path fill="none" stroke="midnightblue" d="M838.81,-193.16C845.52,-183.68 853.13,-172.92 859.04,-164.58"/>
<polygon fill="midnightblue" stroke="midnightblue" points="835.9,-191.21 832.98,-201.4 841.62,-195.26 835.9,-191.21"/>
</g>
<!-- Node32 -->
<g id="node32" class="node">
<title>Node32</title>
<g id="a_node32"><a xlink:href="_transport_unit_factory_8h.html" target="_top" xlink:title=" ">
<polygon fill="white" stroke="black" points="989.5,-134.5 989.5,-164.5 1116.5,-164.5 1116.5,-134.5 989.5,-134.5"/>
<text text-anchor="start" x="997.5" y="-152.5" font-family="Helvetica,sans-Serif" font-size="10.00">include/GameLogic/Units</text>
<text text-anchor="middle" x="1053" y="-141.5" font-family="Helvetica,sans-Serif" font-size="10.00">/TransportUnitFactory.h</text>
</a>
</g>
</g>
<!-- Node26&#45;&gt;Node32 -->
<g id="edge47" class="edge">
<title>Node26&#45;&gt;Node32</title>
<path fill="none" stroke="midnightblue" d="M882.39,-198.71C919.82,-188.14 967.6,-174.63 1003.07,-164.61"/>
<polygon fill="midnightblue" stroke="midnightblue" points="881.29,-195.39 872.62,-201.48 883.2,-202.12 881.29,-195.39"/>
</g>
<!-- Node29&#45;&gt;Node3 -->
<g id="edge38" class="edge">
<title>Node29&#45;&gt;Node3</title>
<path fill="none" stroke="midnightblue" d="M388.68,-131.44C355.13,-120.91 312.59,-107.55 280.94,-97.61"/>
<polygon fill="midnightblue" stroke="midnightblue" points="387.75,-134.82 398.34,-134.48 389.85,-128.14 387.75,-134.82"/>
</g>
<!-- Node29&#45;&gt;Node4 -->
<g id="edge40" class="edge">
<title>Node29&#45;&gt;Node4</title>
<path fill="none" stroke="midnightblue" d="M414.42,-128.31C397.14,-116.1 376.02,-101.18 363.04,-92.01"/>
<polygon fill="midnightblue" stroke="midnightblue" points="412.85,-131.48 423.04,-134.4 416.89,-125.77 412.85,-131.48"/>
</g>
<!-- Node29&#45;&gt;Node6 -->
<g id="edge42" class="edge">
<title>Node29&#45;&gt;Node6</title>
<path fill="none" stroke="midnightblue" d="M432.43,-174.2C421.81,-200.22 407,-243.5 407,-282.5 407,-351.5 407,-351.5 407,-351.5 407,-417.72 411.64,-435.91 395,-500 391.66,-512.87 385.24,-526.54 380.03,-536.4"/>
<polygon fill="midnightblue" stroke="midnightblue" points="435.74,-175.37 436.4,-164.8 429.29,-172.65 435.74,-175.37"/>
</g>
<!-- Node29&#45;&gt;Node8 -->
<g id="edge41" class="edge">
<title>Node29&#45;&gt;Node8</title>
<path fill="none" stroke="midnightblue" d="M454.74,-174.08C466.54,-199.99 483,-243.18 483,-282.5 483,-351.5 483,-351.5 483,-351.5 483,-424.14 578,-460.13 633.3,-474.93"/>
<polygon fill="midnightblue" stroke="midnightblue" points="457.76,-172.28 450.34,-164.72 451.43,-175.26 457.76,-172.28"/>
</g>
<!-- Node29&#45;&gt;Node16 -->
<g id="edge37" class="edge">
<title>Node29&#45;&gt;Node16</title>
<path fill="none" stroke="midnightblue" d="M495.08,-131.23C526.79,-120.71 566.78,-107.45 596.55,-97.58"/>
<polygon fill="midnightblue" stroke="midnightblue" points="493.92,-127.93 485.53,-134.4 496.12,-134.57 493.92,-127.93"/>
</g>
<!-- Node29&#45;&gt;Node24 -->
<g id="edge39" class="edge">
<title>Node29&#45;&gt;Node24</title>
<path fill="none" stroke="midnightblue" d="M468.5,-128.09C493.58,-109.13 533.71,-81.68 573,-67 662.99,-33.38 775.17,-22.14 840.87,-18.39"/>
<polygon fill="midnightblue" stroke="midnightblue" points="466.08,-125.53 460.28,-134.4 470.35,-131.08 466.08,-125.53"/>
</g>
<!-- Node30&#45;&gt;Node24 -->
<g id="edge45" class="edge">
<title>Node30&#45;&gt;Node24</title>
<path fill="none" stroke="midnightblue" d="M873.93,-124.39C879.55,-96.9 888.56,-52.89 893.13,-30.52"/>
<polygon fill="midnightblue" stroke="midnightblue" points="870.46,-123.88 871.89,-134.37 877.32,-125.28 870.46,-123.88"/>
</g>
<!-- Node31 -->
<g id="node31" class="node">
<title>Node31</title>
<g id="a_node31"><a xlink:href="_land_unit_factory_8cpp.html" target="_top" xlink:title=" ">
<polygon fill="white" stroke="black" points="758,-67.5 758,-97.5 868,-97.5 868,-67.5 758,-67.5"/>
<text text-anchor="start" x="766" y="-85.5" font-family="Helvetica,sans-Serif" font-size="10.00">src/GameLogic/Units</text>
<text text-anchor="middle" x="813" y="-74.5" font-family="Helvetica,sans-Serif" font-size="10.00">/LandUnitFactory.cpp</text>
</a>
</g>
</g>
<!-- Node30&#45;&gt;Node31 -->
<g id="edge46" class="edge">
<title>Node30&#45;&gt;Node31</title>
<path fill="none" stroke="midnightblue" d="M850.25,-126.74C841.96,-117.12 832.46,-106.09 825.13,-97.58"/>
<polygon fill="midnightblue" stroke="midnightblue" points="847.67,-129.1 856.85,-134.4 852.97,-124.54 847.67,-129.1"/>
</g>
<!-- Node32&#45;&gt;Node23 -->
<g id="edge50" class="edge">
<title>Node32&#45;&gt;Node23</title>
<path fill="none" stroke="midnightblue" d="M1044.94,-124.7C1041.86,-115.59 1038.44,-105.49 1035.76,-97.58"/>
<polygon fill="midnightblue" stroke="midnightblue" points="1041.71,-126.05 1048.23,-134.4 1048.34,-123.8 1041.71,-126.05"/>
</g>
<!-- Node32&#45;&gt;Node24 -->
<g id="edge48" class="edge">
<title>Node32&#45;&gt;Node24</title>
<path fill="none" stroke="midnightblue" d="M1009.58,-129.95C992.78,-121.6 974.03,-110.73 959,-98 935.53,-78.12 915.16,-48.16 904.32,-30.64"/>
<polygon fill="midnightblue" stroke="midnightblue" points="1008.15,-133.15 1018.68,-134.33 1011.19,-126.84 1008.15,-133.15"/>
</g>
<!-- Node33 -->
<g id="node33" class="node">
<title>Node33</title>
<g id="a_node33"><a xlink:href="_transport_unit_factory_8cpp.html" target="_top" xlink:title=" ">
<polygon fill="white" stroke="black" points="1112.5,-67.5 1112.5,-97.5 1241.5,-97.5 1241.5,-67.5 1112.5,-67.5"/>
<text text-anchor="start" x="1120.5" y="-85.5" font-family="Helvetica,sans-Serif" font-size="10.00">src/GameLogic/Units</text>
<text text-anchor="middle" x="1177" y="-74.5" font-family="Helvetica,sans-Serif" font-size="10.00">/TransportUnitFactory.cpp</text>
</a>
</g>
</g>
<!-- Node32&#45;&gt;Node33 -->
<g id="edge49" class="edge">
<title>Node32&#45;&gt;Node33</title>
<path fill="none" stroke="midnightblue" d="M1088.84,-129.71C1108.39,-119.46 1132.2,-106.98 1150.15,-97.58"/>
<polygon fill="midnightblue" stroke="midnightblue" points="1087.14,-126.65 1079.91,-134.4 1090.39,-132.85 1087.14,-126.65"/>
</g>
<!-- Node34&#45;&gt;Node30 -->
<g id="edge53" class="edge">
<title>Node34&#45;&gt;Node30</title>
<path fill="none" stroke="midnightblue" d="M1099.31,-199.74C1048.36,-188.85 981.26,-174.5 932.64,-164.11"/>
<polygon fill="midnightblue" stroke="midnightblue" points="1098.76,-203.21 1109.27,-201.87 1100.22,-196.36 1098.76,-203.21"/>
</g>
<!-- Node35 -->
<g id="node35" class="node">
<title>Node35</title>
<g id="a_node35"><a xlink:href="_land_unit_8cpp.html" target="_top" xlink:title=" ">
<polygon fill="white" stroke="black" points="1135,-134.5 1135,-164.5 1245,-164.5 1245,-134.5 1135,-134.5"/>
<text text-anchor="start" x="1143" y="-152.5" font-family="Helvetica,sans-Serif" font-size="10.00">src/GameLogic/Units</text>
<text text-anchor="middle" x="1190" y="-141.5" font-family="Helvetica,sans-Serif" font-size="10.00">/LandUnit.cpp</text>
</a>
</g>
</g>
<!-- Node34&#45;&gt;Node35 -->
<g id="edge52" class="edge">
<title>Node34&#45;&gt;Node35</title>
<path fill="none" stroke="midnightblue" d="M1179.23,-191.7C1181.61,-182.59 1184.25,-172.49 1186.32,-164.58"/>
<polygon fill="midnightblue" stroke="midnightblue" points="1175.83,-190.84 1176.69,-201.4 1182.61,-192.61 1175.83,-190.84"/>
</g>
<!-- Node36&#45;&gt;Node21 -->
<g id="edge56" class="edge">
<title>Node36&#45;&gt;Node21</title>
<path fill="none" stroke="midnightblue" d="M1357.01,-196.99C1378.72,-186.69 1405.33,-174.07 1425.33,-164.58"/>
<polygon fill="midnightblue" stroke="midnightblue" points="1355.26,-193.95 1347.73,-201.4 1358.26,-200.27 1355.26,-193.95"/>
</g>
<!-- Node36&#45;&gt;Node32 -->
<g id="edge57" class="edge">
<title>Node36&#45;&gt;Node32</title>
<path fill="none" stroke="midnightblue" d="M1250.94,-199.05C1207.62,-188.43 1151.83,-174.74 1110.53,-164.61"/>
<polygon fill="midnightblue" stroke="midnightblue" points="1250.28,-202.49 1260.83,-201.48 1251.95,-195.69 1250.28,-202.49"/>
</g>
<!-- Node37 -->
<g id="node37" class="node">
<title>Node37</title>
<g id="a_node37"><a xlink:href="_transport_unit_8cpp.html" target="_top" xlink:title=" ">
<polygon fill="white" stroke="black" points="1263,-134.5 1263,-164.5 1373,-164.5 1373,-134.5 1263,-134.5"/>
<text text-anchor="start" x="1271" y="-152.5" font-family="Helvetica,sans-Serif" font-size="10.00">src/GameLogic/Units</text>
<text text-anchor="middle" x="1318" y="-141.5" font-family="Helvetica,sans-Serif" font-size="10.00">/TransportUnit.cpp</text>
</a>
</g>
</g>
<!-- Node36&#45;&gt;Node37 -->
<g id="edge55" class="edge">
<title>Node36&#45;&gt;Node37</title>
<path fill="none" stroke="midnightblue" d="M1318,-191.11C1318,-182.15 1318,-172.32 1318,-164.58"/>
<polygon fill="midnightblue" stroke="midnightblue" points="1314.5,-191.4 1318,-201.4 1321.5,-191.4 1314.5,-191.4"/>
</g>
<!-- Node38&#45;&gt;Node17 -->
<g id="edge62" class="edge">
<title>Node38&#45;&gt;Node17</title>
<path fill="none" stroke="midnightblue" d="M1493.8,-234.92C1463.31,-245.43 1423.54,-258.64 1392.74,-268.48"/>
<polygon fill="midnightblue" stroke="midnightblue" points="1495.04,-238.19 1503.35,-231.61 1492.75,-231.58 1495.04,-238.19"/>
</g>
<!-- Node38&#45;&gt;Node18 -->
<g id="edge59" class="edge">
<title>Node38&#45;&gt;Node18</title>
<path fill="none" stroke="midnightblue" d="M1557.64,-193.45C1565.28,-183.9 1574,-173 1580.74,-164.58"/>
<polygon fill="midnightblue" stroke="midnightblue" points="1554.8,-191.4 1551.28,-201.4 1560.26,-195.77 1554.8,-191.4"/>
</g>
<!-- Node38&#45;&gt;Node19 -->
<g id="edge61" class="edge">
<title>Node38&#45;&gt;Node19</title>
<path fill="none" stroke="midnightblue" d="M1613.69,-200.48C1667.98,-189.42 1741.14,-174.52 1793.41,-163.87"/>
<polygon fill="midnightblue" stroke="midnightblue" points="1612.89,-197.08 1603.79,-202.5 1614.29,-203.94 1612.89,-197.08"/>
</g>
<!-- Node39 -->
<g id="node39" class="node">
<title>Node39</title>
<g id="a_node39"><a xlink:href="_unit_order_8cpp.html" target="_top" xlink:title=" ">
<polygon fill="white" stroke="black" points="1665,-134.5 1665,-164.5 1775,-164.5 1775,-134.5 1665,-134.5"/>
<text text-anchor="start" x="1673" y="-152.5" font-family="Helvetica,sans-Serif" font-size="10.00">src/GameLogic/Units</text>
<text text-anchor="middle" x="1720" y="-141.5" font-family="Helvetica,sans-Serif" font-size="10.00">/UnitOrder.cpp</text>
</a>
</g>
</g>
<!-- Node38&#45;&gt;Node39 -->
<g id="edge60" class="edge">
<title>Node38&#45;&gt;Node39</title>
<path fill="none" stroke="midnightblue" d="M1588.59,-197.96C1617.58,-187.48 1653.91,-174.37 1681.02,-164.58"/>
<polygon fill="midnightblue" stroke="midnightblue" points="1587.27,-194.71 1579.06,-201.4 1589.65,-201.29 1587.27,-194.71"/>
</g>
<!-- Node40&#45;&gt;Node14 -->
<g id="edge64" class="edge">
<title>Node40&#45;&gt;Node14</title>
<path fill="none" stroke="midnightblue" d="M1696.8,-264.39C1701.27,-254.02 1706.79,-241.2 1710.93,-231.59"/>
<polygon fill="midnightblue" stroke="midnightblue" points="1693.52,-263.16 1692.78,-273.73 1699.95,-265.93 1693.52,-263.16"/>
</g>
<!-- Node41 -->
<g id="node41" class="node">
<title>Node41</title>
<g id="a_node41"><a xlink:href="pathfinding_8cpp.html" target="_top" xlink:title=" ">
<polygon fill="white" stroke="black" points="1792.5,-207 1792.5,-226 1905.5,-226 1905.5,-207 1792.5,-207"/>
<text text-anchor="middle" x="1849" y="-214" font-family="Helvetica,sans-Serif" font-size="10.00">src/util/pathfinding.cpp</text>
</a>
</g>
</g>
<!-- Node40&#45;&gt;Node41 -->
<g id="edge65" class="edge">
<title>Node40&#45;&gt;Node41</title>
<path fill="none" stroke="midnightblue" d="M1719.51,-270.1C1751.28,-257.2 1800.19,-237.33 1827.92,-226.06"/>
<polygon fill="midnightblue" stroke="midnightblue" points="1718.19,-266.86 1710.25,-273.87 1720.83,-273.35 1718.19,-266.86"/>
</g>
</g>
</svg>
