<?xml version="1.0" encoding="UTF-8" standalone="no"?>
<!DOCTYPE svg PUBLIC "-//W3C//DTD SVG 1.1//EN"
 "http://www.w3.org/Graphics/SVG/1.1/DTD/svg11.dtd">
<!-- Generated by graphviz version 2.47.1 (20210421.1823)
 -->
<!-- Title: include/GameLogic/Cell.h Pages: 1 -->
<svg width="1968pt" height="497pt"
 viewBox="0.00 0.00 1967.53 497.00" xmlns="http://www.w3.org/2000/svg" xmlns:xlink="http://www.w3.org/1999/xlink">
<g id="graph0" class="graph" transform="scale(1 1) rotate(0) translate(4 493)">
<title>include/GameLogic/Cell.h</title>
<polygon fill="white" stroke="transparent" points="-4,4 -4,-493 1963.53,-493 1963.53,4 -4,4"/>
<!-- Node1 -->
<g id="node1" class="node">
<title>Node1</title>
<g id="a_node1"><a xlink:title=" ">
<polygon fill="#bfbfbf" stroke="black" points="468,-469.5 468,-488.5 596,-488.5 596,-469.5 468,-469.5"/>
<text text-anchor="middle" x="532" y="-476.5" font-family="Helvetica,sans-Serif" font-size="10.00">include/GameLogic/Cell.h</text>
</a>
</g>
</g>
<!-- Node2 -->
<g id="node2" class="node">
<title>Node2</title>
<g id="a_node2"><a xlink:href="_cell_8cpp.html" target="_top" xlink:title=" ">
<polygon fill="white" stroke="black" points="142.5,-408 142.5,-427 263.5,-427 263.5,-408 142.5,-408"/>
<text text-anchor="middle" x="203" y="-415" font-family="Helvetica,sans-Serif" font-size="10.00">src/GameLogic/Cell.cpp</text>
</a>
</g>
</g>
<!-- Node1&#45;&gt;Node2 -->
<g id="edge1" class="edge">
<title>Node1&#45;&gt;Node2</title>
<path fill="none" stroke="midnightblue" d="M469.65,-467.75C417.13,-458.97 340.04,-445.76 273,-433 263.25,-431.14 252.75,-429.03 242.93,-427"/>
<polygon fill="midnightblue" stroke="midnightblue" points="469.38,-471.25 479.82,-469.44 470.53,-464.35 469.38,-471.25"/>
</g>
<!-- Node3 -->
<g id="node3" class="node">
<title>Node3</title>
<g id="a_node3"><a xlink:href="main_8cpp.html" target="_top" xlink:title=" ">
<polygon fill="white" stroke="black" points="282,-408 282,-427 354,-427 354,-408 282,-408"/>
<text text-anchor="middle" x="318" y="-415" font-family="Helvetica,sans-Serif" font-size="10.00">src/main.cpp</text>
</a>
</g>
</g>
<!-- Node1&#45;&gt;Node3 -->
<g id="edge2" class="edge">
<title>Node1&#45;&gt;Node3</title>
<path fill="none" stroke="midnightblue" d="M490.41,-466.77C457.23,-457.76 409.59,-444.74 368,-433 361.22,-431.09 353.92,-428.99 347.06,-427.01"/>
<polygon fill="midnightblue" stroke="midnightblue" points="489.65,-470.19 500.22,-469.42 491.48,-463.43 489.65,-470.19"/>
</g>
<!-- Node4 -->
<g id="node4" class="node">
<title>Node4</title>
<g id="a_node4"><a xlink:href="_set_squad_path_8h.html" target="_top" xlink:title=" ">
<polygon fill="white" stroke="black" points="334.5,-268.5 334.5,-298.5 447.5,-298.5 447.5,-268.5 334.5,-268.5"/>
<text text-anchor="start" x="342.5" y="-286.5" font-family="Helvetica,sans-Serif" font-size="10.00">include/engine/actions</text>
<text text-anchor="middle" x="391" y="-275.5" font-family="Helvetica,sans-Serif" font-size="10.00">/SetSquadPath.h</text>
</a>
</g>
</g>
<!-- Node1&#45;&gt;Node4 -->
<g id="edge3" class="edge">
<title>Node1&#45;&gt;Node4</title>
<path fill="none" stroke="midnightblue" d="M489.11,-465.69C471.74,-458.37 452.9,-447.62 440,-433 404.28,-392.54 389.33,-327.55 388.2,-298.88"/>
<polygon fill="midnightblue" stroke="midnightblue" points="487.98,-469 498.56,-469.41 490.54,-462.49 487.98,-469"/>
</g>
<!-- Node7 -->
<g id="node7" class="node">
<title>Node7</title>
<g id="a_node7"><a xlink:href="_game_logic_2_squad_2_action_8h.html" target="_top" xlink:title=" ">
<polygon fill="white" stroke="black" points="466.5,-402.5 466.5,-432.5 597.5,-432.5 597.5,-402.5 466.5,-402.5"/>
<text text-anchor="start" x="474.5" y="-420.5" font-family="Helvetica,sans-Serif" font-size="10.00">include/GameLogic/Squad</text>
<text text-anchor="middle" x="532" y="-409.5" font-family="Helvetica,sans-Serif" font-size="10.00">/Action.h</text>
</a>
</g>
</g>
<!-- Node1&#45;&gt;Node7 -->
<g id="edge7" class="edge">
<title>Node1&#45;&gt;Node7</title>
<path fill="none" stroke="midnightblue" d="M532,-459.23C532,-450.59 532,-440.5 532,-432.52"/>
<polygon fill="midnightblue" stroke="midnightblue" points="528.5,-459.48 532,-469.48 535.5,-459.48 528.5,-459.48"/>
</g>
<!-- Node9 -->
<g id="node9" class="node">
<title>Node9</title>
<g id="a_node9"><a xlink:href="_squad_8h.html" target="_top" xlink:title=" ">
<polygon fill="white" stroke="black" points="569.5,-335.5 569.5,-365.5 700.5,-365.5 700.5,-335.5 569.5,-335.5"/>
<text text-anchor="start" x="577.5" y="-353.5" font-family="Helvetica,sans-Serif" font-size="10.00">include/GameLogic/Squad</text>
<text text-anchor="middle" x="635" y="-342.5" font-family="Helvetica,sans-Serif" font-size="10.00">/Squad.h</text>
</a>
</g>
</g>
<!-- Node1&#45;&gt;Node9 -->
<g id="edge61" class="edge">
<title>Node1&#45;&gt;Node9</title>
<path fill="none" stroke="midnightblue" d="M556.29,-464.82C570.19,-457.39 586.82,-446.81 598,-433 614.19,-413 621.27,-383.09 626.89,-365.61"/>
<polygon fill="midnightblue" stroke="midnightblue" points="554.52,-461.79 547.21,-469.45 557.7,-468.03 554.52,-461.79"/>
</g>
<!-- Node20 -->
<g id="node20" class="node">
<title>Node20</title>
<g id="a_node20"><a xlink:href="_factory_8h.html" target="_top" xlink:title=" ">
<polygon fill="white" stroke="black" points="1404.5,-201.5 1404.5,-231.5 1531.5,-231.5 1531.5,-201.5 1404.5,-201.5"/>
<text text-anchor="start" x="1412.5" y="-219.5" font-family="Helvetica,sans-Serif" font-size="10.00">include/GameLogic/Units</text>
<text text-anchor="middle" x="1468" y="-208.5" font-family="Helvetica,sans-Serif" font-size="10.00">/Factory.h</text>
</a>
</g>
</g>
<!-- Node1&#45;&gt;Node20 -->
<g id="edge62" class="edge">
<title>Node1&#45;&gt;Node20</title>
<path fill="none" stroke="midnightblue" d="M572.38,-466.76C722.97,-424.85 1251.61,-277.72 1417.68,-231.5"/>
<polygon fill="midnightblue" stroke="midnightblue" points="571.31,-463.43 562.61,-469.48 573.18,-470.17 571.31,-463.43"/>
</g>
<!-- Node38 -->
<g id="node38" class="node">
<title>Node38</title>
<g id="a_node38"><a xlink:href="pathfinding_8h.html" target="_top" xlink:title=" ">
<polygon fill="white" stroke="black" points="504,-274 504,-293 624,-293 624,-274 504,-274"/>
<text text-anchor="middle" x="564" y="-281" font-family="Helvetica,sans-Serif" font-size="10.00">include/util/pathfinding.h</text>
</a>
</g>
</g>
<!-- Node1&#45;&gt;Node38 -->
<g id="edge63" class="edge">
<title>Node1&#45;&gt;Node38</title>
<path fill="none" stroke="midnightblue" d="M495.29,-465.27C480.66,-458.18 465.35,-447.74 457,-433 450.21,-421.01 452.03,-414.85 457,-402 476.32,-352.08 527.81,-310.34 551.61,-293.05"/>
<polygon fill="midnightblue" stroke="midnightblue" points="494.16,-468.6 504.72,-469.45 497,-462.2 494.16,-468.6"/>
</g>
<!-- Node4&#45;&gt;Node1 -->
<g id="edge6" class="edge">
<title>Node4&#45;&gt;Node1</title>
<path fill="none" stroke="midnightblue" d="M401.21,-308.68C410.58,-340.5 425.91,-396.65 458,-433 473.29,-450.33 496.92,-462.22 513.56,-469.41"/>
<polygon fill="midnightblue" stroke="midnightblue" points="404.49,-307.44 398.25,-298.88 397.79,-309.47 404.49,-307.44"/>
</g>
<!-- Node5 -->
<g id="node5" class="node">
<title>Node5</title>
<g id="a_node5"><a xlink:href="engine_2_action_8cpp.html" target="_top" xlink:title=" ">
<polygon fill="white" stroke="black" points="0,-207 0,-226 110,-226 110,-207 0,-207"/>
<text text-anchor="middle" x="55" y="-214" font-family="Helvetica,sans-Serif" font-size="10.00">src/engine/Action.cpp</text>
</a>
</g>
</g>
<!-- Node4&#45;&gt;Node5 -->
<g id="edge4" class="edge">
<title>Node4&#45;&gt;Node5</title>
<path fill="none" stroke="midnightblue" d="M324.35,-270.88C269.2,-261.08 188.86,-246.39 119,-232 110.07,-230.16 100.48,-228.06 91.5,-226.03"/>
<polygon fill="midnightblue" stroke="midnightblue" points="323.89,-274.35 334.35,-272.65 325.12,-267.46 323.89,-274.35"/>
</g>
<!-- Node6 -->
<g id="node6" class="node">
<title>Node6</title>
<g id="a_node6"><a xlink:href="_set_squad_path_8cpp.html" target="_top" xlink:title=" ">
<polygon fill="white" stroke="black" points="128.5,-201.5 128.5,-231.5 229.5,-231.5 229.5,-201.5 128.5,-201.5"/>
<text text-anchor="start" x="136.5" y="-219.5" font-family="Helvetica,sans-Serif" font-size="10.00">src/engine/actions</text>
<text text-anchor="middle" x="179" y="-208.5" font-family="Helvetica,sans-Serif" font-size="10.00">/SetSquadPath.cpp</text>
</a>
</g>
</g>
<!-- Node4&#45;&gt;Node6 -->
<g id="edge5" class="edge">
<title>Node4&#45;&gt;Node6</title>
<path fill="none" stroke="midnightblue" d="M335.37,-265.44C301.01,-254.91 257.44,-241.55 225.02,-231.61"/>
<polygon fill="midnightblue" stroke="midnightblue" points="334.67,-268.89 345.26,-268.48 336.73,-262.2 334.67,-268.89"/>
</g>
<!-- Node8 -->
<g id="node8" class="node">
<title>Node8</title>
<g id="a_node8"><a xlink:href="_game_logic_2_squad_2_action_8cpp.html" target="_top" xlink:title=" ">
<polygon fill="white" stroke="black" points="248,-201.5 248,-231.5 362,-231.5 362,-201.5 248,-201.5"/>
<text text-anchor="start" x="256" y="-219.5" font-family="Helvetica,sans-Serif" font-size="10.00">src/GameLogic/Squad</text>
<text text-anchor="middle" x="305" y="-208.5" font-family="Helvetica,sans-Serif" font-size="10.00">/Action.cpp</text>
</a>
</g>
</g>
<!-- Node7&#45;&gt;Node8 -->
<g id="edge8" class="edge">
<title>Node7&#45;&gt;Node8</title>
<path fill="none" stroke="midnightblue" d="M525.86,-392.35C516.32,-359.61 494.86,-301.42 456,-268 441.38,-255.43 397.86,-241.56 361.27,-231.55"/>
<polygon fill="midnightblue" stroke="midnightblue" points="522.6,-393.7 528.64,-402.4 529.35,-391.83 522.6,-393.7"/>
</g>
<!-- Node7&#45;&gt;Node9 -->
<g id="edge9" class="edge">
<title>Node7&#45;&gt;Node9</title>
<path fill="none" stroke="midnightblue" d="M557.06,-396.73C572.19,-386.68 591.39,-374.68 607.02,-365.58"/>
<polygon fill="midnightblue" stroke="midnightblue" points="555,-393.9 548.67,-402.4 558.92,-399.7 555,-393.9"/>
</g>
<!-- Node9&#45;&gt;Node1 -->
<g id="edge12" class="edge">
<title>Node9&#45;&gt;Node1</title>
<path fill="none" stroke="midnightblue" d="M638.73,-375.61C636.57,-393.08 629.41,-416.44 616,-433 602.24,-449.99 580.23,-462.11 562,-469.45"/>
<polygon fill="midnightblue" stroke="midnightblue" points="642.22,-375.83 639.44,-365.61 635.24,-375.33 642.22,-375.83"/>
</g>
<!-- Node9&#45;&gt;Node4 -->
<g id="edge11" class="edge">
<title>Node9&#45;&gt;Node4</title>
<path fill="none" stroke="midnightblue" d="M572.5,-332.85C532.72,-322.25 481.76,-308.68 443.97,-298.61"/>
<polygon fill="midnightblue" stroke="midnightblue" points="571.79,-336.28 582.36,-335.48 573.59,-329.52 571.79,-336.28"/>
</g>
<!-- Node9&#45;&gt;Node7 -->
<g id="edge13" class="edge">
<title>Node9&#45;&gt;Node7</title>
<path fill="none" stroke="midnightblue" d="M609.99,-371.24C594.86,-381.29 575.67,-393.28 560.03,-402.4"/>
<polygon fill="midnightblue" stroke="midnightblue" points="612.04,-374.07 618.37,-365.58 608.12,-368.27 612.04,-374.07"/>
</g>
<!-- Node10 -->
<g id="node10" class="node">
<title>Node10</title>
<g id="a_node10"><a xlink:href="_squad_8cpp.html" target="_top" xlink:title=" ">
<polygon fill="white" stroke="black" points="1452,-67.5 1452,-97.5 1566,-97.5 1566,-67.5 1452,-67.5"/>
<text text-anchor="start" x="1460" y="-85.5" font-family="Helvetica,sans-Serif" font-size="10.00">src/GameLogic/Squad</text>
<text text-anchor="middle" x="1509" y="-74.5" font-family="Helvetica,sans-Serif" font-size="10.00">/Squad.cpp</text>
</a>
</g>
</g>
<!-- Node9&#45;&gt;Node10 -->
<g id="edge10" class="edge">
<title>Node9&#45;&gt;Node10</title>
<path fill="none" stroke="midnightblue" d="M710.52,-341.38C847.35,-324.34 1142.68,-276.79 1365,-165 1384.47,-155.21 1384.58,-145.66 1403,-134 1425.56,-119.71 1452.79,-106.83 1474,-97.64"/>
<polygon fill="midnightblue" stroke="midnightblue" points="710.05,-337.91 700.55,-342.6 710.9,-344.86 710.05,-337.91"/>
</g>
<!-- Node11 -->
<g id="node11" class="node">
<title>Node11</title>
<g id="a_node11"><a xlink:href="_unit_8h.html" target="_top" xlink:title=" ">
<polygon fill="white" stroke="black" points="642.5,-268.5 642.5,-298.5 769.5,-298.5 769.5,-268.5 642.5,-268.5"/>
<text text-anchor="start" x="650.5" y="-286.5" font-family="Helvetica,sans-Serif" font-size="10.00">include/GameLogic/Units</text>
<text text-anchor="middle" x="706" y="-275.5" font-family="Helvetica,sans-Serif" font-size="10.00">/Unit.h</text>
</a>
</g>
</g>
<!-- Node9&#45;&gt;Node11 -->
<g id="edge14" class="edge">
<title>Node9&#45;&gt;Node11</title>
<path fill="none" stroke="midnightblue" d="M652.07,-328.02C661.99,-318.34 674.43,-307.17 684.95,-298.58"/>
<polygon fill="midnightblue" stroke="midnightblue" points="649.3,-325.84 644.73,-335.4 654.26,-330.78 649.3,-325.84"/>
</g>
<!-- Node9&#45;&gt;Node38 -->
<g id="edge58" class="edge">
<title>Node9&#45;&gt;Node38</title>
<path fill="none" stroke="midnightblue" d="M611.88,-328.34C598.85,-316.4 583.26,-302.14 573.5,-293.19"/>
<polygon fill="midnightblue" stroke="midnightblue" points="609.85,-331.22 619.59,-335.4 614.58,-326.06 609.85,-331.22"/>
</g>
<!-- Node11&#45;&gt;Node9 -->
<g id="edge16" class="edge">
<title>Node11&#45;&gt;Node9</title>
<path fill="none" stroke="midnightblue" d="M688.97,-305.94C679.04,-315.63 666.61,-326.79 656.08,-335.4"/>
<polygon fill="midnightblue" stroke="midnightblue" points="691.73,-308.13 696.3,-298.58 686.76,-303.2 691.73,-308.13"/>
</g>
<!-- Node12 -->
<g id="node12" class="node">
<title>Node12</title>
<g id="a_node12"><a xlink:href="_unit_8cpp.html" target="_top" xlink:title=" ">
<polygon fill="white" stroke="black" points="515,-134.5 515,-164.5 625,-164.5 625,-134.5 515,-134.5"/>
<text text-anchor="start" x="523" y="-152.5" font-family="Helvetica,sans-Serif" font-size="10.00">src/GameLogic/Units</text>
<text text-anchor="middle" x="570" y="-141.5" font-family="Helvetica,sans-Serif" font-size="10.00">/Unit.cpp</text>
</a>
</g>
</g>
<!-- Node11&#45;&gt;Node12 -->
<g id="edge15" class="edge">
<title>Node11&#45;&gt;Node12</title>
<path fill="none" stroke="midnightblue" d="M705.96,-258.3C704.71,-240.59 700.35,-216.97 687,-201 671.32,-182.24 647.38,-170.27 625.23,-162.72"/>
<polygon fill="midnightblue" stroke="midnightblue" points="702.47,-258.59 706.39,-268.44 709.46,-258.3 702.47,-258.59"/>
</g>
<!-- Node13 -->
<g id="node13" class="node">
<title>Node13</title>
<g id="a_node13"><a xlink:href="_squad_order_8h.html" target="_top" xlink:title=" ">
<polygon fill="white" stroke="black" points="237.5,-134.5 237.5,-164.5 368.5,-164.5 368.5,-134.5 237.5,-134.5"/>
<text text-anchor="start" x="245.5" y="-152.5" font-family="Helvetica,sans-Serif" font-size="10.00">include/GameLogic/Squad</text>
<text text-anchor="middle" x="303" y="-141.5" font-family="Helvetica,sans-Serif" font-size="10.00">/SquadOrder.h</text>
</a>
</g>
</g>
<!-- Node11&#45;&gt;Node13 -->
<g id="edge17" class="edge">
<title>Node11&#45;&gt;Node13</title>
<path fill="none" stroke="midnightblue" d="M632.59,-266.18C603.42,-258.11 570.18,-246.85 542,-232 522.41,-221.67 522.85,-210.82 503,-201 479.49,-189.37 417.39,-174.51 368.57,-163.93"/>
<polygon fill="midnightblue" stroke="midnightblue" points="631.74,-269.58 642.31,-268.8 633.56,-262.82 631.74,-269.58"/>
</g>
<!-- Node15 -->
<g id="node15" class="node">
<title>Node15</title>
<g id="a_node15"><a xlink:href="_armored_unit_8h.html" target="_top" xlink:title=" ">
<polygon fill="white" stroke="black" points="643.5,-134.5 643.5,-164.5 770.5,-164.5 770.5,-134.5 643.5,-134.5"/>
<text text-anchor="start" x="651.5" y="-152.5" font-family="Helvetica,sans-Serif" font-size="10.00">include/GameLogic/Units</text>
<text text-anchor="middle" x="707" y="-141.5" font-family="Helvetica,sans-Serif" font-size="10.00">/ArmoredUnit.h</text>
</a>
</g>
</g>
<!-- Node11&#45;&gt;Node15 -->
<g id="edge19" class="edge">
<title>Node11&#45;&gt;Node15</title>
<path fill="none" stroke="midnightblue" d="M714.11,-258.38C716.51,-250.12 718.81,-240.75 720,-232 721.86,-218.35 721.73,-214.67 720,-201 718.43,-188.61 714.78,-174.9 711.74,-164.9"/>
<polygon fill="midnightblue" stroke="midnightblue" points="710.71,-257.54 711.1,-268.13 717.4,-259.61 710.71,-257.54"/>
</g>
<!-- Node11&#45;&gt;Node20 -->
<g id="edge24" class="edge">
<title>Node11&#45;&gt;Node20</title>
<path fill="none" stroke="midnightblue" d="M779.63,-276.22C928.69,-263.5 1263.88,-234.91 1404.26,-222.94"/>
<polygon fill="midnightblue" stroke="midnightblue" points="779.32,-272.73 769.66,-277.07 779.92,-279.71 779.32,-272.73"/>
</g>
<!-- Node32 -->
<g id="node32" class="node">
<title>Node32</title>
<g id="a_node32"><a xlink:href="_land_unit_8h.html" target="_top" xlink:title=" ">
<polygon fill="white" stroke="black" points="917.5,-201.5 917.5,-231.5 1044.5,-231.5 1044.5,-201.5 917.5,-201.5"/>
<text text-anchor="start" x="925.5" y="-219.5" font-family="Helvetica,sans-Serif" font-size="10.00">include/GameLogic/Units</text>
<text text-anchor="middle" x="981" y="-208.5" font-family="Helvetica,sans-Serif" font-size="10.00">/LandUnit.h</text>
</a>
</g>
</g>
<!-- Node11&#45;&gt;Node32 -->
<g id="edge46" class="edge">
<title>Node11&#45;&gt;Node32</title>
<path fill="none" stroke="midnightblue" d="M775.31,-266.12C820.3,-255.48 878.35,-241.76 921.3,-231.61"/>
<polygon fill="midnightblue" stroke="midnightblue" points="774.26,-262.77 765.33,-268.48 775.87,-269.58 774.26,-262.77"/>
</g>
<!-- Node34 -->
<g id="node34" class="node">
<title>Node34</title>
<g id="a_node34"><a xlink:href="_transport_unit_8h.html" target="_top" xlink:title=" ">
<polygon fill="white" stroke="black" points="772.5,-201.5 772.5,-231.5 899.5,-231.5 899.5,-201.5 772.5,-201.5"/>
<text text-anchor="start" x="780.5" y="-219.5" font-family="Helvetica,sans-Serif" font-size="10.00">include/GameLogic/Units</text>
<text text-anchor="middle" x="836" y="-208.5" font-family="Helvetica,sans-Serif" font-size="10.00">/TransportUnit.h</text>
</a>
</g>
</g>
<!-- Node11&#45;&gt;Node34 -->
<g id="edge49" class="edge">
<title>Node11&#45;&gt;Node34</title>
<path fill="none" stroke="midnightblue" d="M743.29,-263.85C763.85,-253.58 788.95,-241.03 807.85,-231.58"/>
<polygon fill="midnightblue" stroke="midnightblue" points="741.59,-260.79 734.21,-268.4 744.72,-267.05 741.59,-260.79"/>
</g>
<!-- Node36 -->
<g id="node36" class="node">
<title>Node36</title>
<g id="a_node36"><a xlink:href="_unit_order_8h.html" target="_top" xlink:title=" ">
<polygon fill="white" stroke="black" points="550.5,-201.5 550.5,-231.5 677.5,-231.5 677.5,-201.5 550.5,-201.5"/>
<text text-anchor="start" x="558.5" y="-219.5" font-family="Helvetica,sans-Serif" font-size="10.00">include/GameLogic/Units</text>
<text text-anchor="middle" x="614" y="-208.5" font-family="Helvetica,sans-Serif" font-size="10.00">/UnitOrder.h</text>
</a>
</g>
</g>
<!-- Node11&#45;&gt;Node36 -->
<g id="edge53" class="edge">
<title>Node11&#45;&gt;Node36</title>
<path fill="none" stroke="midnightblue" d="M671.76,-262.73C656.72,-252.68 639.94,-240.68 628.25,-231.58"/>
<polygon fill="midnightblue" stroke="midnightblue" points="670.08,-265.82 680.36,-268.4 673.93,-259.97 670.08,-265.82"/>
</g>
<!-- Node14 -->
<g id="node14" class="node">
<title>Node14</title>
<g id="a_node14"><a xlink:href="_squad_order_8cpp.html" target="_top" xlink:title=" ">
<polygon fill="white" stroke="black" points="246,-67.5 246,-97.5 360,-97.5 360,-67.5 246,-67.5"/>
<text text-anchor="start" x="254" y="-85.5" font-family="Helvetica,sans-Serif" font-size="10.00">src/GameLogic/Squad</text>
<text text-anchor="middle" x="303" y="-74.5" font-family="Helvetica,sans-Serif" font-size="10.00">/SquadOrder.cpp</text>
</a>
</g>
</g>
<!-- Node13&#45;&gt;Node14 -->
<g id="edge18" class="edge">
<title>Node13&#45;&gt;Node14</title>
<path fill="none" stroke="midnightblue" d="M303,-124.11C303,-115.15 303,-105.32 303,-97.58"/>
<polygon fill="midnightblue" stroke="midnightblue" points="299.5,-124.4 303,-134.4 306.5,-124.4 299.5,-124.4"/>
</g>
<!-- Node16 -->
<g id="node16" class="node">
<title>Node16</title>
<g id="a_node16"><a xlink:href="_armored_unit_8cpp.html" target="_top" xlink:title=" ">
<polygon fill="white" stroke="black" points="652,-67.5 652,-97.5 762,-97.5 762,-67.5 652,-67.5"/>
<text text-anchor="start" x="660" y="-85.5" font-family="Helvetica,sans-Serif" font-size="10.00">src/GameLogic/Units</text>
<text text-anchor="middle" x="707" y="-74.5" font-family="Helvetica,sans-Serif" font-size="10.00">/ArmoredUnit.cpp</text>
</a>
</g>
</g>
<!-- Node15&#45;&gt;Node16 -->
<g id="edge20" class="edge">
<title>Node15&#45;&gt;Node16</title>
<path fill="none" stroke="midnightblue" d="M707,-124.11C707,-115.15 707,-105.32 707,-97.58"/>
<polygon fill="midnightblue" stroke="midnightblue" points="703.5,-124.4 707,-134.4 710.5,-124.4 703.5,-124.4"/>
</g>
<!-- Node17 -->
<g id="node17" class="node">
<title>Node17</title>
<g id="a_node17"><a xlink:href="_armored_unit_factory_8h.html" target="_top" xlink:title=" ">
<polygon fill="white" stroke="black" points="922.5,-67.5 922.5,-97.5 1049.5,-97.5 1049.5,-67.5 922.5,-67.5"/>
<text text-anchor="start" x="930.5" y="-85.5" font-family="Helvetica,sans-Serif" font-size="10.00">include/GameLogic/Units</text>
<text text-anchor="middle" x="986" y="-74.5" font-family="Helvetica,sans-Serif" font-size="10.00">/ArmoredUnitFactory.h</text>
</a>
</g>
</g>
<!-- Node15&#45;&gt;Node17 -->
<g id="edge21" class="edge">
<title>Node15&#45;&gt;Node17</title>
<path fill="none" stroke="midnightblue" d="M777.03,-132.19C822.72,-121.54 881.77,-107.78 925.43,-97.61"/>
<polygon fill="midnightblue" stroke="midnightblue" points="776.14,-128.8 767.2,-134.48 777.73,-135.62 776.14,-128.8"/>
</g>
<!-- Node18 -->
<g id="node18" class="node">
<title>Node18</title>
<g id="a_node18"><a xlink:href="_all_units_8cpp.html" target="_top" xlink:title=" ">
<polygon fill="white" stroke="black" points="1253,-0.5 1253,-30.5 1363,-30.5 1363,-0.5 1253,-0.5"/>
<text text-anchor="start" x="1261" y="-18.5" font-family="Helvetica,sans-Serif" font-size="10.00">src/GameLogic/Units</text>
<text text-anchor="middle" x="1308" y="-7.5" font-family="Helvetica,sans-Serif" font-size="10.00">/AllUnits.cpp</text>
</a>
</g>
</g>
<!-- Node17&#45;&gt;Node18 -->
<g id="edge22" class="edge">
<title>Node17&#45;&gt;Node18</title>
<path fill="none" stroke="midnightblue" d="M1059.59,-66.65C1118.39,-54.78 1199.51,-38.4 1252.83,-27.64"/>
<polygon fill="midnightblue" stroke="midnightblue" points="1058.73,-63.25 1049.62,-68.66 1060.11,-70.11 1058.73,-63.25"/>
</g>
<!-- Node19 -->
<g id="node19" class="node">
<title>Node19</title>
<g id="a_node19"><a xlink:href="_armored_unit_factory_8cpp.html" target="_top" xlink:title=" ">
<polygon fill="white" stroke="black" points="923.5,-0.5 923.5,-30.5 1048.5,-30.5 1048.5,-0.5 923.5,-0.5"/>
<text text-anchor="start" x="931.5" y="-18.5" font-family="Helvetica,sans-Serif" font-size="10.00">src/GameLogic/Units</text>
<text text-anchor="middle" x="986" y="-7.5" font-family="Helvetica,sans-Serif" font-size="10.00">/ArmoredUnitFactory.cpp</text>
</a>
</g>
</g>
<!-- Node17&#45;&gt;Node19 -->
<g id="edge23" class="edge">
<title>Node17&#45;&gt;Node19</title>
<path fill="none" stroke="midnightblue" d="M986,-57.11C986,-48.15 986,-38.32 986,-30.58"/>
<polygon fill="midnightblue" stroke="midnightblue" points="982.5,-57.4 986,-67.4 989.5,-57.4 982.5,-57.4"/>
</g>
<!-- Node20&#45;&gt;Node17 -->
<g id="edge38" class="edge">
<title>Node20&#45;&gt;Node17</title>
<path fill="none" stroke="midnightblue" d="M1394.18,-211.34C1296.47,-204.92 1130.14,-190.6 1075,-165 1066.16,-160.9 1023.19,-119.73 1000.34,-97.53"/>
<polygon fill="midnightblue" stroke="midnightblue" points="1394.08,-214.84 1404.28,-211.99 1394.53,-207.85 1394.08,-214.84"/>
</g>
<!-- Node21 -->
<g id="node21" class="node">
<title>Node21</title>
<g id="a_node21"><a xlink:href="_spawn_action_8cpp.html" target="_top" xlink:title=" ">
<polygon fill="white" stroke="black" points="1412,-134.5 1412,-164.5 1508,-164.5 1508,-134.5 1412,-134.5"/>
<text text-anchor="start" x="1420" y="-152.5" font-family="Helvetica,sans-Serif" font-size="10.00">src/engine/actions</text>
<text text-anchor="middle" x="1460" y="-141.5" font-family="Helvetica,sans-Serif" font-size="10.00">/SpawnAction.cpp</text>
</a>
</g>
</g>
<!-- Node20&#45;&gt;Node21 -->
<g id="edge25" class="edge">
<title>Node20&#45;&gt;Node21</title>
<path fill="none" stroke="midnightblue" d="M1465.03,-191.4C1463.92,-182.37 1462.7,-172.41 1461.73,-164.58"/>
<polygon fill="midnightblue" stroke="midnightblue" points="1461.57,-191.9 1466.26,-201.4 1468.52,-191.04 1461.57,-191.9"/>
</g>
<!-- Node22 -->
<g id="node22" class="node">
<title>Node22</title>
<g id="a_node22"><a xlink:href="_factory_8cpp.html" target="_top" xlink:title=" ">
<polygon fill="white" stroke="black" points="1526,-134.5 1526,-164.5 1636,-164.5 1636,-134.5 1526,-134.5"/>
<text text-anchor="start" x="1534" y="-152.5" font-family="Helvetica,sans-Serif" font-size="10.00">src/GameLogic/Units</text>
<text text-anchor="middle" x="1581" y="-141.5" font-family="Helvetica,sans-Serif" font-size="10.00">/Factory.cpp</text>
</a>
</g>
</g>
<!-- Node20&#45;&gt;Node22 -->
<g id="edge26" class="edge">
<title>Node20&#45;&gt;Node22</title>
<path fill="none" stroke="midnightblue" d="M1501.39,-196.3C1519.07,-186.12 1540.4,-173.85 1556.53,-164.58"/>
<polygon fill="midnightblue" stroke="midnightblue" points="1499.44,-193.38 1492.52,-201.4 1502.93,-199.44 1499.44,-193.38"/>
</g>
<!-- Node23 -->
<g id="node23" class="node">
<title>Node23</title>
<g id="a_node23"><a xlink:href="_squad_template_8h.html" target="_top" xlink:title=" ">
<polygon fill="white" stroke="black" points="1799.5,-134.5 1799.5,-164.5 1930.5,-164.5 1930.5,-134.5 1799.5,-134.5"/>
<text text-anchor="start" x="1807.5" y="-152.5" font-family="Helvetica,sans-Serif" font-size="10.00">include/GameLogic/Squad</text>
<text text-anchor="middle" x="1865" y="-141.5" font-family="Helvetica,sans-Serif" font-size="10.00">/SquadTemplate.h</text>
</a>
</g>
</g>
<!-- Node20&#45;&gt;Node23 -->
<g id="edge27" class="edge">
<title>Node20&#45;&gt;Node23</title>
<path fill="none" stroke="midnightblue" d="M1541.79,-204.79C1607.34,-195.07 1705.71,-180.02 1791,-165 1793.71,-164.52 1796.47,-164.03 1799.26,-163.52"/>
<polygon fill="midnightblue" stroke="midnightblue" points="1540.93,-201.38 1531.55,-206.3 1541.96,-208.3 1540.93,-201.38"/>
</g>
<!-- Node27 -->
<g id="node27" class="node">
<title>Node27</title>
<g id="a_node27"><a xlink:href="_all_units_8h.html" target="_top" xlink:title=" ">
<polygon fill="white" stroke="black" points="1654.5,-134.5 1654.5,-164.5 1781.5,-164.5 1781.5,-134.5 1654.5,-134.5"/>
<text text-anchor="start" x="1662.5" y="-152.5" font-family="Helvetica,sans-Serif" font-size="10.00">include/GameLogic/Units</text>
<text text-anchor="middle" x="1718" y="-141.5" font-family="Helvetica,sans-Serif" font-size="10.00">/AllUnits.h</text>
</a>
</g>
</g>
<!-- Node20&#45;&gt;Node27 -->
<g id="edge32" class="edge">
<title>Node20&#45;&gt;Node27</title>
<path fill="none" stroke="midnightblue" d="M1531.78,-198.92C1572.58,-188.31 1624.93,-174.7 1663.73,-164.61"/>
<polygon fill="midnightblue" stroke="midnightblue" points="1530.74,-195.57 1521.94,-201.48 1532.5,-202.35 1530.74,-195.57"/>
</g>
<!-- Node28 -->
<g id="node28" class="node">
<title>Node28</title>
<g id="a_node28"><a xlink:href="_land_unit_factory_8h.html" target="_top" xlink:title=" ">
<polygon fill="white" stroke="black" points="1228.5,-134.5 1228.5,-164.5 1355.5,-164.5 1355.5,-134.5 1228.5,-134.5"/>
<text text-anchor="start" x="1236.5" y="-152.5" font-family="Helvetica,sans-Serif" font-size="10.00">include/GameLogic/Units</text>
<text text-anchor="middle" x="1292" y="-141.5" font-family="Helvetica,sans-Serif" font-size="10.00">/LandUnitFactory.h</text>
</a>
</g>
</g>
<!-- Node20&#45;&gt;Node28 -->
<g id="edge39" class="edge">
<title>Node20&#45;&gt;Node28</title>
<path fill="none" stroke="midnightblue" d="M1420.12,-197.82C1391.83,-187.37 1356.51,-174.32 1330.11,-164.58"/>
<polygon fill="midnightblue" stroke="midnightblue" points="1419.22,-201.21 1429.81,-201.4 1421.64,-194.65 1419.22,-201.21"/>
</g>
<!-- Node30 -->
<g id="node30" class="node">
<title>Node30</title>
<g id="a_node30"><a xlink:href="_transport_unit_factory_8h.html" target="_top" xlink:title=" ">
<polygon fill="white" stroke="black" points="1083.5,-134.5 1083.5,-164.5 1210.5,-164.5 1210.5,-134.5 1083.5,-134.5"/>
<text text-anchor="start" x="1091.5" y="-152.5" font-family="Helvetica,sans-Serif" font-size="10.00">include/GameLogic/Units</text>
<text text-anchor="middle" x="1147" y="-141.5" font-family="Helvetica,sans-Serif" font-size="10.00">/TransportUnitFactory.h</text>
</a>
</g>
</g>
<!-- Node20&#45;&gt;Node30 -->
<g id="edge42" class="edge">
<title>Node20&#45;&gt;Node30</title>
<path fill="none" stroke="midnightblue" d="M1394.08,-200.53C1338.63,-189.3 1263.49,-174.09 1210.68,-163.4"/>
<polygon fill="midnightblue" stroke="midnightblue" points="1393.7,-204.03 1404.2,-202.58 1395.09,-197.17 1393.7,-204.03"/>
</g>
<!-- Node24 -->
<g id="node24" class="node">
<title>Node24</title>
<g id="a_node24"><a xlink:href="_squad_template_8cpp.html" target="_top" xlink:title=" ">
<polygon fill="white" stroke="black" points="1664,-67.5 1664,-97.5 1778,-97.5 1778,-67.5 1664,-67.5"/>
<text text-anchor="start" x="1672" y="-85.5" font-family="Helvetica,sans-Serif" font-size="10.00">src/GameLogic/Squad</text>
<text text-anchor="middle" x="1721" y="-74.5" font-family="Helvetica,sans-Serif" font-size="10.00">/SquadTemplate.cpp</text>
</a>
</g>
</g>
<!-- Node23&#45;&gt;Node24 -->
<g id="edge28" class="edge">
<title>Node23&#45;&gt;Node24</title>
<path fill="none" stroke="midnightblue" d="M1824.61,-130.27C1801.68,-119.92 1773.4,-107.15 1752.18,-97.58"/>
<polygon fill="midnightblue" stroke="midnightblue" points="1823.2,-133.47 1833.75,-134.4 1826.08,-127.09 1823.2,-133.47"/>
</g>
<!-- Node25 -->
<g id="node25" class="node">
<title>Node25</title>
<g id="a_node25"><a xlink:href="_all_squad_templates_8h.html" target="_top" xlink:title=" ">
<polygon fill="white" stroke="black" points="1799.5,-67.5 1799.5,-97.5 1930.5,-97.5 1930.5,-67.5 1799.5,-67.5"/>
<text text-anchor="start" x="1807.5" y="-85.5" font-family="Helvetica,sans-Serif" font-size="10.00">include/GameLogic/Squad</text>
<text text-anchor="middle" x="1865" y="-74.5" font-family="Helvetica,sans-Serif" font-size="10.00">/AllSquadTemplates.h</text>
</a>
</g>
</g>
<!-- Node23&#45;&gt;Node25 -->
<g id="edge29" class="edge">
<title>Node23&#45;&gt;Node25</title>
<path fill="none" stroke="midnightblue" d="M1865,-124.11C1865,-115.15 1865,-105.32 1865,-97.58"/>
<polygon fill="midnightblue" stroke="midnightblue" points="1861.5,-124.4 1865,-134.4 1868.5,-124.4 1861.5,-124.4"/>
</g>
<!-- Node25&#45;&gt;Node1 -->
<g id="edge31" class="edge">
<title>Node25&#45;&gt;Node1</title>
<path fill="none" stroke="midnightblue" d="M1905.02,-102.72C1917.93,-110.73 1931.17,-121.19 1940,-134 1961.11,-164.62 1959,-178.31 1959,-215.5 1959,-351.5 1959,-351.5 1959,-351.5 1959,-553.44 1712.65,-410.21 1512,-433 1168.25,-472.05 753.02,-477.46 596.16,-478.03"/>
<polygon fill="midnightblue" stroke="midnightblue" points="1906.6,-99.58 1896.2,-97.56 1903.07,-105.63 1906.6,-99.58"/>
</g>
<!-- Node26 -->
<g id="node26" class="node">
<title>Node26</title>
<g id="a_node26"><a xlink:href="_all_squad_templates_8cpp.html" target="_top" xlink:title=" ">
<polygon fill="white" stroke="black" points="1804,-0.5 1804,-30.5 1926,-30.5 1926,-0.5 1804,-0.5"/>
<text text-anchor="start" x="1812" y="-18.5" font-family="Helvetica,sans-Serif" font-size="10.00">src/GameLogic/Squad</text>
<text text-anchor="middle" x="1865" y="-7.5" font-family="Helvetica,sans-Serif" font-size="10.00">/AllSquadTemplates.cpp</text>
</a>
</g>
</g>
<!-- Node25&#45;&gt;Node26 -->
<g id="edge30" class="edge">
<title>Node25&#45;&gt;Node26</title>
<path fill="none" stroke="midnightblue" d="M1865,-57.11C1865,-48.15 1865,-38.32 1865,-30.58"/>
<polygon fill="midnightblue" stroke="midnightblue" points="1861.5,-57.4 1865,-67.4 1868.5,-57.4 1861.5,-57.4"/>
</g>
<!-- Node27&#45;&gt;Node1 -->
<g id="edge36" class="edge">
<title>Node27&#45;&gt;Node1</title>
<path fill="none" stroke="midnightblue" d="M1696.36,-172.14C1674.21,-196.68 1643,-238.98 1643,-282.5 1643,-351.5 1643,-351.5 1643,-351.5 1643,-457.6 832.72,-474.74 596.13,-477.48"/>
<polygon fill="midnightblue" stroke="midnightblue" points="1698.93,-174.52 1703.18,-164.81 1693.8,-169.74 1698.93,-174.52"/>
</g>
<!-- Node27&#45;&gt;Node10 -->
<g id="edge33" class="edge">
<title>Node27&#45;&gt;Node10</title>
<path fill="none" stroke="midnightblue" d="M1663.16,-131.44C1629.28,-120.91 1586.33,-107.55 1554.37,-97.61"/>
<polygon fill="midnightblue" stroke="midnightblue" points="1662.32,-134.85 1672.91,-134.48 1664.4,-128.16 1662.32,-134.85"/>
</g>
<!-- Node27&#45;&gt;Node18 -->
<g id="edge35" class="edge">
<title>Node27&#45;&gt;Node18</title>
<path fill="none" stroke="midnightblue" d="M1689.76,-128.63C1661.86,-109.95 1617.35,-82.58 1575,-67 1504.38,-41.02 1418.11,-27.81 1363.11,-21.54"/>
<polygon fill="midnightblue" stroke="midnightblue" points="1687.97,-131.65 1698.21,-134.37 1691.9,-125.86 1687.97,-131.65"/>
</g>
<!-- Node27&#45;&gt;Node24 -->
<g id="edge34" class="edge">
<title>Node27&#45;&gt;Node24</title>
<path fill="none" stroke="midnightblue" d="M1719.11,-124.4C1719.53,-115.37 1719.99,-105.41 1720.35,-97.58"/>
<polygon fill="midnightblue" stroke="midnightblue" points="1715.62,-124.25 1718.65,-134.4 1722.61,-124.57 1715.62,-124.25"/>
</g>
<!-- Node27&#45;&gt;Node25 -->
<g id="edge37" class="edge">
<title>Node27&#45;&gt;Node25</title>
<path fill="none" stroke="midnightblue" d="M1759.23,-130.27C1782.64,-119.92 1811.51,-107.15 1833.17,-97.58"/>
<polygon fill="midnightblue" stroke="midnightblue" points="1757.63,-127.15 1749.9,-134.4 1760.46,-133.55 1757.63,-127.15"/>
</g>
<!-- Node28&#45;&gt;Node18 -->
<g id="edge40" class="edge">
<title>Node28&#45;&gt;Node18</title>
<path fill="none" stroke="midnightblue" d="M1338.84,-129.53C1351.93,-121.8 1364.59,-111.44 1372,-98 1378.65,-85.93 1378.01,-79.4 1372,-67 1364.41,-51.33 1349.34,-39.06 1335.72,-30.54"/>
<polygon fill="midnightblue" stroke="midnightblue" points="1336.88,-126.61 1329.77,-134.47 1340.23,-132.76 1336.88,-126.61"/>
</g>
<!-- Node29 -->
<g id="node29" class="node">
<title>Node29</title>
<g id="a_node29"><a xlink:href="_land_unit_factory_8cpp.html" target="_top" xlink:title=" ">
<polygon fill="white" stroke="black" points="1253,-67.5 1253,-97.5 1363,-97.5 1363,-67.5 1253,-67.5"/>
<text text-anchor="start" x="1261" y="-85.5" font-family="Helvetica,sans-Serif" font-size="10.00">src/GameLogic/Units</text>
<text text-anchor="middle" x="1308" y="-74.5" font-family="Helvetica,sans-Serif" font-size="10.00">/LandUnitFactory.cpp</text>
</a>
</g>
</g>
<!-- Node28&#45;&gt;Node29 -->
<g id="edge41" class="edge">
<title>Node28&#45;&gt;Node29</title>
<path fill="none" stroke="midnightblue" d="M1297.93,-124.4C1300.16,-115.37 1302.61,-105.41 1304.54,-97.58"/>
<polygon fill="midnightblue" stroke="midnightblue" points="1294.46,-123.85 1295.47,-134.4 1301.26,-125.52 1294.46,-123.85"/>
</g>
<!-- Node30&#45;&gt;Node17 -->
<g id="edge45" class="edge">
<title>Node30&#45;&gt;Node17</title>
<path fill="none" stroke="midnightblue" d="M1102.52,-130.54C1076.76,-120.14 1044.8,-107.24 1020.87,-97.58"/>
<polygon fill="midnightblue" stroke="midnightblue" points="1101.48,-133.9 1112.07,-134.4 1104.1,-127.41 1101.48,-133.9"/>
</g>
<!-- Node30&#45;&gt;Node18 -->
<g id="edge43" class="edge">
<title>Node30&#45;&gt;Node18</title>
<path fill="none" stroke="midnightblue" d="M1171.49,-127.56C1191,-110.97 1219.08,-87.29 1244,-67 1259.37,-54.49 1277.07,-40.56 1289.95,-30.5"/>
<polygon fill="midnightblue" stroke="midnightblue" points="1169.04,-125.06 1163.69,-134.21 1173.57,-130.39 1169.04,-125.06"/>
</g>
<!-- Node31 -->
<g id="node31" class="node">
<title>Node31</title>
<g id="a_node31"><a xlink:href="_transport_unit_factory_8cpp.html" target="_top" xlink:title=" ">
<polygon fill="white" stroke="black" points="1067.5,-67.5 1067.5,-97.5 1196.5,-97.5 1196.5,-67.5 1067.5,-67.5"/>
<text text-anchor="start" x="1075.5" y="-85.5" font-family="Helvetica,sans-Serif" font-size="10.00">src/GameLogic/Units</text>
<text text-anchor="middle" x="1132" y="-74.5" font-family="Helvetica,sans-Serif" font-size="10.00">/TransportUnitFactory.cpp</text>
</a>
</g>
</g>
<!-- Node30&#45;&gt;Node31 -->
<g id="edge44" class="edge">
<title>Node30&#45;&gt;Node31</title>
<path fill="none" stroke="midnightblue" d="M1141.44,-124.4C1139.35,-115.37 1137.06,-105.41 1135.25,-97.58"/>
<polygon fill="midnightblue" stroke="midnightblue" points="1138.09,-125.44 1143.75,-134.4 1144.91,-123.87 1138.09,-125.44"/>
</g>
<!-- Node32&#45;&gt;Node28 -->
<g id="edge48" class="edge">
<title>Node32&#45;&gt;Node28</title>
<path fill="none" stroke="midnightblue" d="M1054.67,-200.1C1107.52,-189.06 1178,-174.33 1228.4,-163.79"/>
<polygon fill="midnightblue" stroke="midnightblue" points="1053.76,-196.72 1044.69,-202.19 1055.19,-203.57 1053.76,-196.72"/>
</g>
<!-- Node33 -->
<g id="node33" class="node">
<title>Node33</title>
<g id="a_node33"><a xlink:href="_land_unit_8cpp.html" target="_top" xlink:title=" ">
<polygon fill="white" stroke="black" points="917,-134.5 917,-164.5 1027,-164.5 1027,-134.5 917,-134.5"/>
<text text-anchor="start" x="925" y="-152.5" font-family="Helvetica,sans-Serif" font-size="10.00">src/GameLogic/Units</text>
<text text-anchor="middle" x="972" y="-141.5" font-family="Helvetica,sans-Serif" font-size="10.00">/LandUnit.cpp</text>
</a>
</g>
</g>
<!-- Node32&#45;&gt;Node33 -->
<g id="edge47" class="edge">
<title>Node32&#45;&gt;Node33</title>
<path fill="none" stroke="midnightblue" d="M977.66,-191.4C976.41,-182.37 975.03,-172.41 973.95,-164.58"/>
<polygon fill="midnightblue" stroke="midnightblue" points="974.21,-191.97 979.05,-201.4 981.14,-191.01 974.21,-191.97"/>
</g>
<!-- Node34&#45;&gt;Node15 -->
<g id="edge51" class="edge">
<title>Node34&#45;&gt;Node15</title>
<path fill="none" stroke="midnightblue" d="M798.99,-196.85C778.6,-186.58 753.69,-174.03 734.94,-164.58"/>
<polygon fill="midnightblue" stroke="midnightblue" points="797.5,-200.02 808.01,-201.4 800.65,-193.77 797.5,-200.02"/>
</g>
<!-- Node34&#45;&gt;Node30 -->
<g id="edge52" class="edge">
<title>Node34&#45;&gt;Node30</title>
<path fill="none" stroke="midnightblue" d="M909.67,-200.1C962.52,-189.06 1033,-174.33 1083.4,-163.79"/>
<polygon fill="midnightblue" stroke="midnightblue" points="908.76,-196.72 899.69,-202.19 910.19,-203.57 908.76,-196.72"/>
</g>
<!-- Node35 -->
<g id="node35" class="node">
<title>Node35</title>
<g id="a_node35"><a xlink:href="_transport_unit_8cpp.html" target="_top" xlink:title=" ">
<polygon fill="white" stroke="black" points="789,-134.5 789,-164.5 899,-164.5 899,-134.5 789,-134.5"/>
<text text-anchor="start" x="797" y="-152.5" font-family="Helvetica,sans-Serif" font-size="10.00">src/GameLogic/Units</text>
<text text-anchor="middle" x="844" y="-141.5" font-family="Helvetica,sans-Serif" font-size="10.00">/TransportUnit.cpp</text>
</a>
</g>
</g>
<!-- Node34&#45;&gt;Node35 -->
<g id="edge50" class="edge">
<title>Node34&#45;&gt;Node35</title>
<path fill="none" stroke="midnightblue" d="M838.97,-191.4C840.08,-182.37 841.3,-172.41 842.27,-164.58"/>
<polygon fill="midnightblue" stroke="midnightblue" points="835.48,-191.04 837.74,-201.4 842.43,-191.9 835.48,-191.04"/>
</g>
<!-- Node36&#45;&gt;Node11 -->
<g id="edge57" class="edge">
<title>Node36&#45;&gt;Node11</title>
<path fill="none" stroke="midnightblue" d="M648.2,-237.24C663.23,-247.29 680.01,-259.28 691.72,-268.4"/>
<polygon fill="midnightblue" stroke="midnightblue" points="649.88,-234.15 639.6,-231.58 646.03,-240 649.88,-234.15"/>
</g>
<!-- Node36&#45;&gt;Node12 -->
<g id="edge54" class="edge">
<title>Node36&#45;&gt;Node12</title>
<path fill="none" stroke="midnightblue" d="M598.68,-192.87C592.31,-183.46 585.12,-172.83 579.53,-164.58"/>
<polygon fill="midnightblue" stroke="midnightblue" points="595.95,-195.08 604.45,-201.4 601.75,-191.15 595.95,-195.08"/>
</g>
<!-- Node36&#45;&gt;Node13 -->
<g id="edge56" class="edge">
<title>Node36&#45;&gt;Node13</title>
<path fill="none" stroke="midnightblue" d="M540.46,-200.13C488.34,-189.24 419.02,-174.75 368.74,-164.24"/>
<polygon fill="midnightblue" stroke="midnightblue" points="539.81,-203.57 550.31,-202.19 541.24,-196.72 539.81,-203.57"/>
</g>
<!-- Node37 -->
<g id="node37" class="node">
<title>Node37</title>
<g id="a_node37"><a xlink:href="_unit_order_8cpp.html" target="_top" xlink:title=" ">
<polygon fill="white" stroke="black" points="387,-134.5 387,-164.5 497,-164.5 497,-134.5 387,-134.5"/>
<text text-anchor="start" x="395" y="-152.5" font-family="Helvetica,sans-Serif" font-size="10.00">src/GameLogic/Units</text>
<text text-anchor="middle" x="442" y="-141.5" font-family="Helvetica,sans-Serif" font-size="10.00">/UnitOrder.cpp</text>
</a>
</g>
</g>
<!-- Node36&#45;&gt;Node37 -->
<g id="edge55" class="edge">
<title>Node36&#45;&gt;Node37</title>
<path fill="none" stroke="midnightblue" d="M567.21,-197.82C539.57,-187.37 505.04,-174.32 479.25,-164.58"/>
<polygon fill="midnightblue" stroke="midnightblue" points="566.09,-201.13 576.68,-201.4 568.56,-194.59 566.09,-201.13"/>
</g>
<!-- Node38&#45;&gt;Node8 -->
<g id="edge59" class="edge">
<title>Node38&#45;&gt;Node8</title>
<path fill="none" stroke="midnightblue" d="M520.08,-271.48C476.24,-260.47 408.7,-243.52 361.02,-231.56"/>
<polygon fill="midnightblue" stroke="midnightblue" points="519.32,-274.9 529.87,-273.94 521.03,-268.11 519.32,-274.9"/>
</g>
<!-- Node39 -->
<g id="node39" class="node">
<title>Node39</title>
<g id="a_node39"><a xlink:href="pathfinding_8cpp.html" target="_top" xlink:title=" ">
<polygon fill="white" stroke="black" points="380.5,-207 380.5,-226 493.5,-226 493.5,-207 380.5,-207"/>
<text text-anchor="middle" x="437" y="-214" font-family="Helvetica,sans-Serif" font-size="10.00">src/util/pathfinding.cpp</text>
</a>
</g>
</g>
<!-- Node38&#45;&gt;Node39 -->
<g id="edge60" class="edge">
<title>Node38&#45;&gt;Node39</title>
<path fill="none" stroke="midnightblue" d="M538.16,-269.27C513,-256.4 475.51,-237.21 453.93,-226.17"/>
<polygon fill="midnightblue" stroke="midnightblue" points="536.64,-272.43 547.14,-273.87 539.83,-266.2 536.64,-272.43"/>
</g>
</g>
</svg>
