<?xml version="1.0" encoding="UTF-8" standalone="no"?>
<!DOCTYPE svg PUBLIC "-//W3C//DTD SVG 1.1//EN"
 "http://www.w3.org/Graphics/SVG/1.1/DTD/svg11.dtd">
<!-- Generated by graphviz version 2.47.1 (20210421.1823)
 -->
<!-- Title: src/GameLogic/Cell.cpp Pages: 1 -->
<svg width="1576pt" height="599pt"
 viewBox="0.00 0.00 1575.50 599.00" xmlns="http://www.w3.org/2000/svg" xmlns:xlink="http://www.w3.org/1999/xlink">
<g id="graph0" class="graph" transform="scale(1 1) rotate(0) translate(4 595)">
<title>src/GameLogic/Cell.cpp</title>
<polygon fill="white" stroke="transparent" points="-4,4 -4,-595 1571.5,-595 1571.5,4 -4,4"/>
<!-- Node1 -->
<g id="node1" class="node">
<title>Node1</title>
<g id="a_node1"><a xlink:title=" ">
<polygon fill="#bfbfbf" stroke="black" points="832,-571.5 832,-590.5 953,-590.5 953,-571.5 832,-571.5"/>
<text text-anchor="middle" x="892.5" y="-578.5" font-family="Helvetica,sans-Serif" font-size="10.00">src/GameLogic/Cell.cpp</text>
</a>
</g>
</g>
<!-- Node2 -->
<g id="node2" class="node">
<title>Node2</title>
<g id="a_node2"><a xlink:href="_cell_8h.html" target="_top" xlink:title=" ">
<polygon fill="white" stroke="black" points="872,-515.5 872,-534.5 913,-534.5 913,-515.5 872,-515.5"/>
<text text-anchor="middle" x="892.5" y="-522.5" font-family="Helvetica,sans-Serif" font-size="10.00">Cell.h</text>
</a>
</g>
</g>
<!-- Node1&#45;&gt;Node2 -->
<g id="edge1" class="edge">
<title>Node1&#45;&gt;Node2</title>
<path fill="none" stroke="midnightblue" d="M892.5,-571.08C892.5,-564.01 892.5,-553.86 892.5,-544.99"/>
<polygon fill="midnightblue" stroke="midnightblue" points="896,-544.75 892.5,-534.75 889,-544.75 896,-544.75"/>
</g>
<!-- Node3 -->
<g id="node3" class="node">
<title>Node3</title>
<g id="a_node3"><a xlink:title=" ">
<polygon fill="white" stroke="#bfbfbf" points="0,-342 0,-361 35,-361 35,-342 0,-342"/>
<text text-anchor="middle" x="17.5" y="-349" font-family="Helvetica,sans-Serif" font-size="10.00">map</text>
</a>
</g>
</g>
<!-- Node2&#45;&gt;Node3 -->
<g id="edge2" class="edge">
<title>Node2&#45;&gt;Node3</title>
<path fill="none" stroke="midnightblue" d="M871.77,-523.58C758.72,-521.19 219.21,-508.32 151.5,-479 96.13,-455.03 49.62,-397.72 28.96,-369.21"/>
<polygon fill="midnightblue" stroke="midnightblue" points="31.82,-367.18 23.19,-361.04 26.1,-371.22 31.82,-367.18"/>
</g>
<!-- Node4 -->
<g id="node4" class="node">
<title>Node4</title>
<g id="a_node4"><a xlink:title=" ">
<polygon fill="white" stroke="#bfbfbf" points="1537.5,-459.5 1537.5,-478.5 1567.5,-478.5 1567.5,-459.5 1537.5,-459.5"/>
<text text-anchor="middle" x="1552.5" y="-466.5" font-family="Helvetica,sans-Serif" font-size="10.00">set</text>
</a>
</g>
</g>
<!-- Node2&#45;&gt;Node4 -->
<g id="edge3" class="edge">
<title>Node2&#45;&gt;Node4</title>
<path fill="none" stroke="midnightblue" d="M913.15,-524.24C992.72,-524.8 1286.86,-523.54 1523.5,-479 1524.78,-478.76 1526.09,-478.48 1527.4,-478.17"/>
<polygon fill="midnightblue" stroke="midnightblue" points="1528.61,-481.47 1537.31,-475.43 1526.74,-474.72 1528.61,-481.47"/>
</g>
<!-- Node5 -->
<g id="node5" class="node">
<title>Node5</title>
<g id="a_node5"><a xlink:href="gameplay_clickable_game_object_8h.html" target="_top" xlink:title=" ">
<polygon fill="white" stroke="black" points="1226,-336.5 1226,-366.5 1355,-366.5 1355,-336.5 1226,-336.5"/>
<text text-anchor="start" x="1234" y="-354.5" font-family="Helvetica,sans-Serif" font-size="10.00">engine/gameplayClickable</text>
<text text-anchor="middle" x="1290.5" y="-343.5" font-family="Helvetica,sans-Serif" font-size="10.00">GameObject.h</text>
</a>
</g>
</g>
<!-- Node2&#45;&gt;Node5 -->
<g id="edge4" class="edge">
<title>Node2&#45;&gt;Node5</title>
<path fill="none" stroke="midnightblue" d="M913.13,-523.33C975.65,-520.97 1161.79,-511.31 1211.5,-479 1248.98,-454.64 1271.84,-405.6 1282.75,-376.25"/>
<polygon fill="midnightblue" stroke="midnightblue" points="1286.07,-377.36 1286.11,-366.76 1279.47,-375.02 1286.07,-377.36"/>
</g>
<!-- Node8 -->
<g id="node8" class="node">
<title>Node8</title>
<g id="a_node8"><a xlink:href="config_8h.html" target="_top" xlink:title=" ">
<polygon fill="white" stroke="black" points="1019,-112.5 1019,-131.5 1100,-131.5 1100,-112.5 1019,-112.5"/>
<text text-anchor="middle" x="1059.5" y="-119.5" font-family="Helvetica,sans-Serif" font-size="10.00">engine/config.h</text>
</a>
</g>
</g>
<!-- Node2&#45;&gt;Node8 -->
<g id="edge24" class="edge">
<title>Node2&#45;&gt;Node8</title>
<path fill="none" stroke="midnightblue" d="M913.35,-521.87C961.66,-516.59 1079.53,-501.69 1111.5,-479 1158.8,-445.43 1163.05,-422.91 1178.5,-367 1182.17,-353.72 1182.31,-349.24 1178.5,-336 1156.99,-261.35 1120.74,-257.24 1085.5,-188 1077.75,-172.77 1070.67,-154.66 1065.86,-141.43"/>
<polygon fill="midnightblue" stroke="midnightblue" points="1069.03,-139.89 1062.39,-131.63 1062.43,-142.22 1069.03,-139.89"/>
</g>
<!-- Node11 -->
<g id="node11" class="node">
<title>Node11</title>
<g id="a_node11"><a xlink:href="_facade_8h.html" target="_top" xlink:title=" ">
<polygon fill="white" stroke="black" points="900.5,-0.5 900.5,-19.5 956.5,-19.5 956.5,-0.5 900.5,-0.5"/>
<text text-anchor="middle" x="928.5" y="-7.5" font-family="Helvetica,sans-Serif" font-size="10.00">Facade.h</text>
</a>
</g>
</g>
<!-- Node2&#45;&gt;Node11 -->
<g id="edge25" class="edge">
<title>Node2&#45;&gt;Node11</title>
<path fill="none" stroke="midnightblue" d="M871.91,-523.37C789.67,-520.67 484.76,-508.82 393.5,-479 340.25,-461.6 285.5,-470.02 285.5,-414 285.5,-414 285.5,-414 285.5,-350.5 285.5,-236.07 293.79,-184.28 382.5,-112 461.14,-47.92 779.5,-20.94 890.28,-13.37"/>
<polygon fill="midnightblue" stroke="midnightblue" points="890.59,-16.85 900.34,-12.7 890.13,-9.87 890.59,-16.85"/>
</g>
<!-- Node14 -->
<g id="node14" class="node">
<title>Node14</title>
<g id="a_node14"><a xlink:title=" ">
<polygon fill="white" stroke="#bfbfbf" points="1407.5,-56.5 1407.5,-75.5 1461.5,-75.5 1461.5,-56.5 1407.5,-56.5"/>
<text text-anchor="middle" x="1434.5" y="-63.5" font-family="Helvetica,sans-Serif" font-size="10.00">iostream</text>
</a>
</g>
</g>
<!-- Node2&#45;&gt;Node14 -->
<g id="edge48" class="edge">
<title>Node2&#45;&gt;Node14</title>
<path fill="none" stroke="midnightblue" d="M913.19,-523.31C995.83,-520.37 1302.29,-507.72 1394.5,-479 1450.55,-461.54 1509.5,-472.71 1509.5,-414 1509.5,-414 1509.5,-414 1509.5,-177 1509.5,-137.44 1475.98,-101.62 1453.76,-82.21"/>
<polygon fill="midnightblue" stroke="midnightblue" points="1455.8,-79.35 1445.89,-75.6 1451.3,-84.71 1455.8,-79.35"/>
</g>
<!-- Node16 -->
<g id="node16" class="node">
<title>Node16</title>
<g id="a_node16"><a xlink:href="cellgen_8h.html" target="_top" xlink:title=" ">
<polygon fill="white" stroke="black" points="114,-403.5 114,-422.5 185,-422.5 185,-403.5 114,-403.5"/>
<text text-anchor="middle" x="149.5" y="-410.5" font-family="Helvetica,sans-Serif" font-size="10.00">util/cellgen.h</text>
</a>
</g>
</g>
<!-- Node2&#45;&gt;Node16 -->
<g id="edge15" class="edge">
<title>Node2&#45;&gt;Node16</title>
<path fill="none" stroke="midnightblue" d="M871.92,-524.11C759.72,-524.5 224.82,-524.01 168.5,-479 154.89,-468.12 150.67,-448.05 149.53,-433.08"/>
<polygon fill="midnightblue" stroke="midnightblue" points="153.02,-432.72 149.15,-422.86 146.02,-432.98 153.02,-432.72"/>
</g>
<!-- Node19 -->
<g id="node19" class="node">
<title>Node19</title>
<g id="a_node19"><a xlink:href="_all_flags_8h.html" target="_top" xlink:title=" ">
<polygon fill="white" stroke="black" points="390,-224.5 390,-243.5 449,-243.5 449,-224.5 390,-224.5"/>
<text text-anchor="middle" x="419.5" y="-231.5" font-family="Helvetica,sans-Serif" font-size="10.00">AllFlags.h</text>
</a>
</g>
</g>
<!-- Node2&#45;&gt;Node19 -->
<g id="edge19" class="edge">
<title>Node2&#45;&gt;Node19</title>
<path fill="none" stroke="midnightblue" d="M871.68,-524.21C773.51,-524.64 361.5,-520.15 361.5,-414 361.5,-414 361.5,-414 361.5,-350.5 361.5,-311.65 388.03,-272.52 405.21,-251.26"/>
<polygon fill="midnightblue" stroke="midnightblue" points="407.94,-253.45 411.68,-243.53 402.57,-248.95 407.94,-253.45"/>
</g>
<!-- Node22 -->
<g id="node22" class="node">
<title>Node22</title>
<g id="a_node22"><a xlink:href="_squad_8h.html" target="_top" xlink:title=" ">
<polygon fill="white" stroke="black" points="941.5,-403.5 941.5,-422.5 993.5,-422.5 993.5,-403.5 941.5,-403.5"/>
<text text-anchor="middle" x="967.5" y="-410.5" font-family="Helvetica,sans-Serif" font-size="10.00">Squad.h</text>
</a>
</g>
</g>
<!-- Node2&#45;&gt;Node22 -->
<g id="edge26" class="edge">
<title>Node2&#45;&gt;Node22</title>
<path fill="none" stroke="midnightblue" d="M889.38,-515.47C890.42,-502.52 899.65,-477.46 912.5,-459 920.28,-447.82 931.08,-437.09 941.23,-428.91"/>
<polygon fill="midnightblue" stroke="midnightblue" points="943.62,-431.49 949.52,-422.69 939.42,-425.89 943.62,-431.49"/>
</g>
<!-- Node29 -->
<g id="node29" class="node">
<title>Node29</title>
<g id="a_node29"><a xlink:href="_player_8h.html" target="_top" xlink:title=" ">
<polygon fill="white" stroke="black" points="888,-342 888,-361 939,-361 939,-342 888,-342"/>
<text text-anchor="middle" x="913.5" y="-349" font-family="Helvetica,sans-Serif" font-size="10.00">Player.h</text>
</a>
</g>
</g>
<!-- Node2&#45;&gt;Node29 -->
<g id="edge88" class="edge">
<title>Node2&#45;&gt;Node29</title>
<path fill="none" stroke="midnightblue" d="M893.57,-515.26C896.83,-488.65 906.68,-408.21 911.19,-371.34"/>
<polygon fill="midnightblue" stroke="midnightblue" points="914.72,-371.37 912.46,-361.02 907.77,-370.52 914.72,-371.37"/>
</g>
<!-- Node30 -->
<g id="node30" class="node">
<title>Node30</title>
<g id="a_node30"><a xlink:href="geometry_8h.html" target="_top" xlink:title=" ">
<polygon fill="white" stroke="black" points="177.5,-459.5 177.5,-478.5 257.5,-478.5 257.5,-459.5 177.5,-459.5"/>
<text text-anchor="middle" x="217.5" y="-466.5" font-family="Helvetica,sans-Serif" font-size="10.00">util/geometry.h</text>
</a>
</g>
</g>
<!-- Node2&#45;&gt;Node30 -->
<g id="edge49" class="edge">
<title>Node2&#45;&gt;Node30</title>
<path fill="none" stroke="midnightblue" d="M871.8,-523.2C793.26,-520.01 506.29,-507.01 271.5,-479 270.23,-478.85 268.94,-478.69 267.64,-478.52"/>
<polygon fill="midnightblue" stroke="midnightblue" points="267.94,-475.03 257.55,-477.1 266.96,-481.96 267.94,-475.03"/>
</g>
<!-- Node31 -->
<g id="node31" class="node">
<title>Node31</title>
<g id="a_node31"><a xlink:href="_none_8h.html" target="_top" xlink:title=" ">
<polygon fill="white" stroke="black" points="1330,-168.5 1330,-187.5 1443,-187.5 1443,-168.5 1330,-168.5"/>
<text text-anchor="middle" x="1386.5" y="-175.5" font-family="Helvetica,sans-Serif" font-size="10.00">engine/actions/None.h</text>
</a>
</g>
</g>
<!-- Node2&#45;&gt;Node31 -->
<g id="edge52" class="edge">
<title>Node2&#45;&gt;Node31</title>
<path fill="none" stroke="midnightblue" d="M913.05,-524.28C1011.87,-525.11 1433.5,-522.31 1433.5,-414 1433.5,-414 1433.5,-414 1433.5,-289 1433.5,-253.7 1412.78,-216.79 1398.86,-195.96"/>
<polygon fill="midnightblue" stroke="midnightblue" points="1401.62,-193.8 1393.04,-187.59 1395.87,-197.8 1401.62,-193.8"/>
</g>
<!-- Node32 -->
<g id="node32" class="node">
<title>Node32</title>
<g id="a_node32"><a xlink:href="game_controller_8h.html" target="_top" xlink:title=" ">
<polygon fill="white" stroke="black" points="1267,-280.5 1267,-299.5 1388,-299.5 1388,-280.5 1267,-280.5"/>
<text text-anchor="middle" x="1327.5" y="-287.5" font-family="Helvetica,sans-Serif" font-size="10.00">engine/gameController.h</text>
</a>
</g>
</g>
<!-- Node2&#45;&gt;Node32 -->
<g id="edge54" class="edge">
<title>Node2&#45;&gt;Node32</title>
<path fill="none" stroke="midnightblue" d="M913.34,-522.84C978.45,-518.97 1177.17,-505.24 1235.5,-479 1304.74,-447.85 1332.99,-436.08 1364.5,-367 1370.22,-354.46 1369.15,-348.97 1364.5,-336 1360.56,-325 1352.64,-314.77 1345.14,-306.85"/>
<polygon fill="midnightblue" stroke="midnightblue" points="1347.52,-304.28 1337.94,-299.76 1342.61,-309.27 1347.52,-304.28"/>
</g>
<!-- Node36 -->
<g id="node36" class="node">
<title>Node36</title>
<g id="a_node36"><a xlink:href="_set_squad_path_8h.html" target="_top" xlink:title=" ">
<polygon fill="white" stroke="black" points="930,-459.5 930,-478.5 1083,-478.5 1083,-459.5 930,-459.5"/>
<text text-anchor="middle" x="1006.5" y="-466.5" font-family="Helvetica,sans-Serif" font-size="10.00">engine/actions/SetSquadPath.h</text>
</a>
</g>
</g>
<!-- Node2&#45;&gt;Node36 -->
<g id="edge63" class="edge">
<title>Node2&#45;&gt;Node36</title>
<path fill="none" stroke="midnightblue" d="M905.7,-515.32C922.41,-506.51 951.21,-492.75 973.85,-482.71"/>
<polygon fill="midnightblue" stroke="midnightblue" points="975.36,-485.87 983.12,-478.65 972.55,-479.45 975.36,-485.87"/>
</g>
<!-- Node37 -->
<g id="node37" class="node">
<title>Node37</title>
<g id="a_node37"><a xlink:href="_all_units_8h.html" target="_top" xlink:title=" ">
<polygon fill="white" stroke="black" points="639,-403.5 639,-422.5 698,-422.5 698,-403.5 639,-403.5"/>
<text text-anchor="middle" x="668.5" y="-410.5" font-family="Helvetica,sans-Serif" font-size="10.00">AllUnits.h</text>
</a>
</g>
</g>
<!-- Node2&#45;&gt;Node37 -->
<g id="edge67" class="edge">
<title>Node2&#45;&gt;Node37</title>
<path fill="none" stroke="midnightblue" d="M871.99,-524.73C833.8,-525.01 750.97,-520.4 699.5,-479 685.06,-467.39 676.95,-447.43 672.68,-432.69"/>
<polygon fill="midnightblue" stroke="midnightblue" points="675.98,-431.48 670.12,-422.65 669.2,-433.21 675.98,-431.48"/>
</g>
<!-- Node39 -->
<g id="node39" class="node">
<title>Node39</title>
<g id="a_node39"><a xlink:href="_all_squad_templates_8h.html" target="_top" xlink:title=" ">
<polygon fill="white" stroke="black" points="708,-459.5 708,-478.5 817,-478.5 817,-459.5 708,-459.5"/>
<text text-anchor="middle" x="762.5" y="-466.5" font-family="Helvetica,sans-Serif" font-size="10.00">AllSquadTemplates.h</text>
</a>
</g>
</g>
<!-- Node2&#45;&gt;Node39 -->
<g id="edge73" class="edge">
<title>Node2&#45;&gt;Node39</title>
<path fill="none" stroke="midnightblue" d="M871.9,-515.44C850.51,-506.56 816.82,-492.56 792.48,-482.45"/>
<polygon fill="midnightblue" stroke="midnightblue" points="793.58,-479.12 783,-478.52 790.89,-485.58 793.58,-479.12"/>
</g>
<!-- Node6 -->
<g id="node6" class="node">
<title>Node6</title>
<g id="a_node6"><a xlink:href="game_object_8h.html" target="_top" xlink:title=" ">
<polygon fill="white" stroke="black" points="1094,-168.5 1094,-187.5 1171,-187.5 1171,-168.5 1094,-168.5"/>
<text text-anchor="middle" x="1132.5" y="-175.5" font-family="Helvetica,sans-Serif" font-size="10.00">gameObject.h</text>
</a>
</g>
</g>
<!-- Node5&#45;&gt;Node6 -->
<g id="edge5" class="edge">
<title>Node5&#45;&gt;Node6</title>
<path fill="none" stroke="midnightblue" d="M1257.06,-336.41C1222.05,-319.78 1168.48,-288.62 1141.5,-244 1133.12,-230.14 1131.27,-211.62 1131.28,-197.9"/>
<polygon fill="midnightblue" stroke="midnightblue" points="1134.79,-197.82 1131.63,-187.71 1127.79,-197.58 1134.79,-197.82"/>
</g>
<!-- Node7 -->
<g id="node7" class="node">
<title>Node7</title>
<g id="a_node7"><a xlink:title=" ">
<polygon fill="white" stroke="#bfbfbf" points="1118,-112.5 1118,-131.5 1147,-131.5 1147,-112.5 1118,-112.5"/>
<text text-anchor="middle" x="1132.5" y="-119.5" font-family="Helvetica,sans-Serif" font-size="10.00">list</text>
</a>
</g>
</g>
<!-- Node6&#45;&gt;Node7 -->
<g id="edge6" class="edge">
<title>Node6&#45;&gt;Node7</title>
<path fill="none" stroke="midnightblue" d="M1132.5,-168.08C1132.5,-161.01 1132.5,-150.86 1132.5,-141.99"/>
<polygon fill="midnightblue" stroke="midnightblue" points="1136,-141.75 1132.5,-131.75 1129,-141.75 1136,-141.75"/>
</g>
<!-- Node6&#45;&gt;Node8 -->
<g id="edge7" class="edge">
<title>Node6&#45;&gt;Node8</title>
<path fill="none" stroke="midnightblue" d="M1120.77,-168.32C1109.66,-160.11 1092.76,-147.6 1079.52,-137.81"/>
<polygon fill="midnightblue" stroke="midnightblue" points="1081.56,-134.97 1071.44,-131.83 1077.4,-140.59 1081.56,-134.97"/>
</g>
<!-- Node13 -->
<g id="node13" class="node">
<title>Node13</title>
<g id="a_node13"><a xlink:href="engine_2_action_8h.html" target="_top" xlink:title=" ">
<polygon fill="white" stroke="black" points="1345,-112.5 1345,-131.5 1428,-131.5 1428,-112.5 1345,-112.5"/>
<text text-anchor="middle" x="1386.5" y="-119.5" font-family="Helvetica,sans-Serif" font-size="10.00">engine/Action.h</text>
</a>
</g>
</g>
<!-- Node6&#45;&gt;Node13 -->
<g id="edge12" class="edge">
<title>Node6&#45;&gt;Node13</title>
<path fill="none" stroke="midnightblue" d="M1171.08,-168.8C1215.26,-159.41 1287.78,-143.99 1336.32,-133.67"/>
<polygon fill="midnightblue" stroke="midnightblue" points="1337.25,-137.05 1346.3,-131.55 1335.79,-130.2 1337.25,-137.05"/>
</g>
<!-- Node9 -->
<g id="node9" class="node">
<title>Node9</title>
<g id="a_node9"><a xlink:href="_s_f_m_l_facade_8h.html" target="_top" xlink:title=" ">
<polygon fill="white" stroke="black" points="980,-56.5 980,-75.5 1103,-75.5 1103,-56.5 980,-56.5"/>
<text text-anchor="middle" x="1041.5" y="-63.5" font-family="Helvetica,sans-Serif" font-size="10.00">graphics/SFMLFacade.h</text>
</a>
</g>
</g>
<!-- Node8&#45;&gt;Node9 -->
<g id="edge8" class="edge">
<title>Node8&#45;&gt;Node9</title>
<path fill="none" stroke="midnightblue" d="M1056.53,-112.08C1054.12,-104.85 1050.64,-94.41 1047.63,-85.4"/>
<polygon fill="midnightblue" stroke="midnightblue" points="1050.9,-84.13 1044.42,-75.75 1044.26,-86.34 1050.9,-84.13"/>
</g>
<!-- Node12 -->
<g id="node12" class="node">
<title>Node12</title>
<g id="a_node12"><a xlink:title=" ">
<polygon fill="white" stroke="#bfbfbf" points="1121.5,-56.5 1121.5,-75.5 1219.5,-75.5 1219.5,-56.5 1121.5,-56.5"/>
<text text-anchor="middle" x="1170.5" y="-63.5" font-family="Helvetica,sans-Serif" font-size="10.00">nlohmann/json.hpp</text>
</a>
</g>
</g>
<!-- Node8&#45;&gt;Node12 -->
<g id="edge11" class="edge">
<title>Node8&#45;&gt;Node12</title>
<path fill="none" stroke="midnightblue" d="M1077.33,-112.32C1095.22,-103.62 1122.98,-90.12 1143.55,-80.11"/>
<polygon fill="midnightblue" stroke="midnightblue" points="1145.25,-83.18 1152.71,-75.65 1142.19,-76.88 1145.25,-83.18"/>
</g>
<!-- Node10 -->
<g id="node10" class="node">
<title>Node10</title>
<g id="a_node10"><a xlink:title=" ">
<polygon fill="white" stroke="#bfbfbf" points="989.5,-0.5 989.5,-19.5 1093.5,-19.5 1093.5,-0.5 989.5,-0.5"/>
<text text-anchor="middle" x="1041.5" y="-7.5" font-family="Helvetica,sans-Serif" font-size="10.00">SFML/Graphics.hpp</text>
</a>
</g>
</g>
<!-- Node9&#45;&gt;Node10 -->
<g id="edge9" class="edge">
<title>Node9&#45;&gt;Node10</title>
<path fill="none" stroke="midnightblue" d="M1041.5,-56.08C1041.5,-49.01 1041.5,-38.86 1041.5,-29.99"/>
<polygon fill="midnightblue" stroke="midnightblue" points="1045,-29.75 1041.5,-19.75 1038,-29.75 1045,-29.75"/>
</g>
<!-- Node9&#45;&gt;Node11 -->
<g id="edge10" class="edge">
<title>Node9&#45;&gt;Node11</title>
<path fill="none" stroke="midnightblue" d="M1023.59,-56.44C1005.25,-47.68 976.49,-33.94 955.41,-23.86"/>
<polygon fill="midnightblue" stroke="midnightblue" points="956.85,-20.67 946.32,-19.52 953.83,-26.99 956.85,-20.67"/>
</g>
<!-- Node13&#45;&gt;Node14 -->
<g id="edge13" class="edge">
<title>Node13&#45;&gt;Node14</title>
<path fill="none" stroke="midnightblue" d="M1394.43,-112.08C1401.35,-104.3 1411.57,-92.8 1419.95,-83.37"/>
<polygon fill="midnightblue" stroke="midnightblue" points="1422.69,-85.55 1426.72,-75.75 1417.46,-80.9 1422.69,-85.55"/>
</g>
<!-- Node15 -->
<g id="node15" class="node">
<title>Node15</title>
<g id="a_node15"><a xlink:title=" ">
<polygon fill="white" stroke="#bfbfbf" points="1312,-56.5 1312,-75.5 1363,-75.5 1363,-56.5 1312,-56.5"/>
<text text-anchor="middle" x="1337.5" y="-63.5" font-family="Helvetica,sans-Serif" font-size="10.00">memory</text>
</a>
</g>
</g>
<!-- Node13&#45;&gt;Node15 -->
<g id="edge14" class="edge">
<title>Node13&#45;&gt;Node15</title>
<path fill="none" stroke="midnightblue" d="M1378.41,-112.08C1371.34,-104.3 1360.91,-92.8 1352.35,-83.37"/>
<polygon fill="midnightblue" stroke="midnightblue" points="1354.75,-80.8 1345.44,-75.75 1349.57,-85.51 1354.75,-80.8"/>
</g>
<!-- Node16&#45;&gt;Node3 -->
<g id="edge17" class="edge">
<title>Node16&#45;&gt;Node3</title>
<path fill="none" stroke="midnightblue" d="M127.94,-403.41C106.53,-394.73 72.91,-380.68 44.5,-367 43.66,-366.6 42.81,-366.18 41.95,-365.75"/>
<polygon fill="midnightblue" stroke="midnightblue" points="43.29,-362.5 32.8,-361.02 40.07,-368.72 43.29,-362.5"/>
</g>
<!-- Node17 -->
<g id="node17" class="node">
<title>Node17</title>
<g id="a_node17"><a xlink:title=" ">
<polygon fill="white" stroke="#bfbfbf" points="477.5,-112.5 477.5,-131.5 521.5,-131.5 521.5,-112.5 477.5,-112.5"/>
<text text-anchor="middle" x="499.5" y="-119.5" font-family="Helvetica,sans-Serif" font-size="10.00">vector</text>
</a>
</g>
</g>
<!-- Node16&#45;&gt;Node17 -->
<g id="edge16" class="edge">
<title>Node16&#45;&gt;Node17</title>
<path fill="none" stroke="midnightblue" d="M159.01,-403.47C168.06,-394.96 181.59,-381.12 190.5,-367 241.44,-286.23 197.83,-228.75 271.5,-168 279.06,-161.77 406.44,-139.08 467.43,-128.5"/>
<polygon fill="midnightblue" stroke="midnightblue" points="468.06,-131.95 477.32,-126.79 466.87,-125.05 468.06,-131.95"/>
</g>
<!-- Node18 -->
<g id="node18" class="node">
<title>Node18</title>
<g id="a_node18"><a xlink:title=" ">
<polygon fill="white" stroke="#bfbfbf" points="53.5,-342 53.5,-361 181.5,-361 181.5,-342 53.5,-342"/>
<text text-anchor="middle" x="117.5" y="-349" font-family="Helvetica,sans-Serif" font-size="10.00">scanline_triangulation.hpp</text>
</a>
</g>
</g>
<!-- Node16&#45;&gt;Node18 -->
<g id="edge18" class="edge">
<title>Node16&#45;&gt;Node18</title>
<path fill="none" stroke="midnightblue" d="M144.92,-403.48C140.26,-394.82 132.91,-381.15 126.99,-370.15"/>
<polygon fill="midnightblue" stroke="midnightblue" points="129.9,-368.16 122.08,-361.01 123.73,-371.47 129.9,-368.16"/>
</g>
<!-- Node19&#45;&gt;Node15 -->
<g id="edge23" class="edge">
<title>Node19&#45;&gt;Node15</title>
<path fill="none" stroke="midnightblue" d="M438.82,-224.34C458,-215.61 488.11,-201.52 513.5,-188 572.23,-156.72 578.87,-131.47 642.5,-112 767.26,-73.83 1098.37,-85.37 1228.5,-76 1252.96,-74.24 1280.49,-71.96 1301.76,-70.14"/>
<polygon fill="midnightblue" stroke="midnightblue" points="1302.3,-73.61 1311.96,-69.26 1301.7,-66.63 1302.3,-73.61"/>
</g>
<!-- Node20 -->
<g id="node20" class="node">
<title>Node20</title>
<g id="a_node20"><a xlink:href="_flag_8h.html" target="_top" xlink:title=" ">
<polygon fill="white" stroke="black" points="390,-168.5 390,-187.5 433,-187.5 433,-168.5 390,-168.5"/>
<text text-anchor="middle" x="411.5" y="-175.5" font-family="Helvetica,sans-Serif" font-size="10.00">Flag.h</text>
</a>
</g>
</g>
<!-- Node19&#45;&gt;Node20 -->
<g id="edge20" class="edge">
<title>Node19&#45;&gt;Node20</title>
<path fill="none" stroke="midnightblue" d="M418.18,-224.08C417.12,-216.93 415.59,-206.64 414.27,-197.69"/>
<polygon fill="midnightblue" stroke="midnightblue" points="417.72,-197.13 412.8,-187.75 410.8,-198.16 417.72,-197.13"/>
</g>
<!-- Node20&#45;&gt;Node17 -->
<g id="edge21" class="edge">
<title>Node20&#45;&gt;Node17</title>
<path fill="none" stroke="midnightblue" d="M425.64,-168.32C439.37,-159.9 460.44,-146.97 476.56,-137.07"/>
<polygon fill="midnightblue" stroke="midnightblue" points="478.7,-139.87 485.4,-131.65 475.04,-133.9 478.7,-139.87"/>
</g>
<!-- Node21 -->
<g id="node21" class="node">
<title>Node21</title>
<g id="a_node21"><a xlink:title=" ">
<polygon fill="white" stroke="#bfbfbf" points="391,-112.5 391,-131.5 432,-131.5 432,-112.5 391,-112.5"/>
<text text-anchor="middle" x="411.5" y="-119.5" font-family="Helvetica,sans-Serif" font-size="10.00">string</text>
</a>
</g>
</g>
<!-- Node20&#45;&gt;Node21 -->
<g id="edge22" class="edge">
<title>Node20&#45;&gt;Node21</title>
<path fill="none" stroke="midnightblue" d="M411.5,-168.08C411.5,-161.01 411.5,-150.86 411.5,-141.99"/>
<polygon fill="midnightblue" stroke="midnightblue" points="415,-141.75 411.5,-131.75 408,-141.75 415,-141.75"/>
</g>
<!-- Node22&#45;&gt;Node2 -->
<g id="edge27" class="edge">
<title>Node22&#45;&gt;Node2</title>
<path fill="none" stroke="midnightblue" d="M963.45,-422.69C955.36,-431.11 940.46,-444.7 930.5,-459 920.26,-473.71 912.32,-492.61 905.72,-506.24"/>
<polygon fill="midnightblue" stroke="midnightblue" points="902.42,-504.99 900.91,-515.47 908.63,-508.22 902.42,-504.99"/>
</g>
<!-- Node22&#45;&gt;Node5 -->
<g id="edge39" class="edge">
<title>Node22&#45;&gt;Node5</title>
<path fill="none" stroke="midnightblue" d="M993.66,-407.18C1041.4,-398.39 1144.27,-379.44 1215.42,-366.33"/>
<polygon fill="midnightblue" stroke="midnightblue" points="1216.48,-369.69 1225.68,-364.44 1215.21,-362.81 1216.48,-369.69"/>
</g>
<!-- Node22&#45;&gt;Node8 -->
<g id="edge43" class="edge">
<title>Node22&#45;&gt;Node8</title>
<path fill="none" stroke="midnightblue" d="M970.31,-403.29C976.4,-384.46 991.21,-338.53 1003.5,-300 1021.9,-242.32 1043.45,-173.98 1053.62,-141.69"/>
<polygon fill="midnightblue" stroke="midnightblue" points="1057.05,-142.43 1056.72,-131.84 1050.38,-140.33 1057.05,-142.43"/>
</g>
<!-- Node22&#45;&gt;Node11 -->
<g id="edge44" class="edge">
<title>Node22&#45;&gt;Node11</title>
<path fill="none" stroke="midnightblue" d="M966.65,-403.25C961.76,-353.02 937.26,-101.02 930.33,-29.78"/>
<polygon fill="midnightblue" stroke="midnightblue" points="933.79,-29.25 929.34,-19.63 926.82,-29.93 933.79,-29.25"/>
</g>
<!-- Node23 -->
<g id="node23" class="node">
<title>Node23</title>
<g id="a_node23"><a xlink:href="_unit_8h.html" target="_top" xlink:title=" ">
<polygon fill="white" stroke="black" points="437.5,-280.5 437.5,-299.5 559.5,-299.5 559.5,-280.5 437.5,-280.5"/>
<text text-anchor="middle" x="498.5" y="-287.5" font-family="Helvetica,sans-Serif" font-size="10.00">GameLogic/Units/Unit.h</text>
</a>
</g>
</g>
<!-- Node22&#45;&gt;Node23 -->
<g id="edge28" class="edge">
<title>Node22&#45;&gt;Node23</title>
<path fill="none" stroke="midnightblue" d="M941.19,-409.95C890.64,-405.21 777.94,-391.92 686.5,-367 625.02,-350.24 556.19,-321.2 521.17,-304.28"/>
<polygon fill="midnightblue" stroke="midnightblue" points="522.34,-300.96 511.82,-299.65 519.23,-307.23 522.34,-300.96"/>
</g>
<!-- Node28 -->
<g id="node28" class="node">
<title>Node28</title>
<g id="a_node28"><a xlink:href="_game_logic_2_squad_2_action_8h.html" target="_top" xlink:title=" ">
<polygon fill="white" stroke="black" points="1033.5,-342 1033.5,-361 1169.5,-361 1169.5,-342 1033.5,-342"/>
<text text-anchor="middle" x="1101.5" y="-349" font-family="Helvetica,sans-Serif" font-size="10.00">GameLogic/Squad/Action.h</text>
</a>
</g>
</g>
<!-- Node22&#45;&gt;Node28 -->
<g id="edge40" class="edge">
<title>Node22&#45;&gt;Node28</title>
<path fill="none" stroke="midnightblue" d="M981.8,-403.48C1002.38,-393.36 1040.33,-376.4 1068.09,-364.85"/>
<polygon fill="midnightblue" stroke="midnightblue" points="1069.52,-368.05 1077.44,-361.01 1066.86,-361.57 1069.52,-368.05"/>
</g>
<!-- Node22&#45;&gt;Node29 -->
<g id="edge45" class="edge">
<title>Node22&#45;&gt;Node29</title>
<path fill="none" stroke="midnightblue" d="M959.76,-403.48C951.5,-394.37 938.22,-379.74 928.01,-368.48"/>
<polygon fill="midnightblue" stroke="midnightblue" points="930.53,-366.06 921.22,-361.01 925.35,-370.77 930.53,-366.06"/>
</g>
<!-- Node23&#45;&gt;Node19 -->
<g id="edge34" class="edge">
<title>Node23&#45;&gt;Node19</title>
<path fill="none" stroke="midnightblue" d="M485.81,-280.32C473.6,-271.98 454.92,-259.21 440.5,-249.35"/>
<polygon fill="midnightblue" stroke="midnightblue" points="442.39,-246.41 432.16,-243.65 438.44,-252.19 442.39,-246.41"/>
</g>
<!-- Node23&#45;&gt;Node22 -->
<g id="edge33" class="edge">
<title>Node23&#45;&gt;Node22</title>
<path fill="none" stroke="midnightblue" d="M522.05,-299.53C560.13,-315.17 636.77,-348.54 704.5,-367 784.21,-388.72 880.09,-401.61 931.33,-407.7"/>
<polygon fill="midnightblue" stroke="midnightblue" points="930.93,-411.18 941.27,-408.86 931.74,-404.23 930.93,-411.18"/>
</g>
<!-- Node24 -->
<g id="node24" class="node">
<title>Node24</title>
<g id="a_node24"><a xlink:title=" ">
<polygon fill="white" stroke="#bfbfbf" points="590,-224.5 590,-243.5 633,-243.5 633,-224.5 590,-224.5"/>
<text text-anchor="middle" x="611.5" y="-231.5" font-family="Helvetica,sans-Serif" font-size="10.00">cstdio</text>
</a>
</g>
</g>
<!-- Node23&#45;&gt;Node24 -->
<g id="edge29" class="edge">
<title>Node23&#45;&gt;Node24</title>
<path fill="none" stroke="midnightblue" d="M516.41,-280.44C534.75,-271.68 563.51,-257.94 584.59,-247.86"/>
<polygon fill="midnightblue" stroke="midnightblue" points="586.17,-250.99 593.68,-243.52 583.15,-244.67 586.17,-250.99"/>
</g>
<!-- Node25 -->
<g id="node25" class="node">
<title>Node25</title>
<g id="a_node25"><a xlink:href="_unit_order_8h.html" target="_top" xlink:title=" ">
<polygon fill="white" stroke="black" points="467.5,-224.5 467.5,-243.5 533.5,-243.5 533.5,-224.5 467.5,-224.5"/>
<text text-anchor="middle" x="500.5" y="-231.5" font-family="Helvetica,sans-Serif" font-size="10.00">UnitOrder.h</text>
</a>
</g>
</g>
<!-- Node23&#45;&gt;Node25 -->
<g id="edge30" class="edge">
<title>Node23&#45;&gt;Node25</title>
<path fill="none" stroke="midnightblue" d="M493.66,-280.08C492.42,-272.93 492.37,-262.64 493.35,-253.69"/>
<polygon fill="midnightblue" stroke="midnightblue" points="496.81,-254.2 495.04,-243.75 489.91,-253.02 496.81,-254.2"/>
</g>
<!-- Node26 -->
<g id="node26" class="node">
<title>Node26</title>
<g id="a_node26"><a xlink:href="_textures_8h.html" target="_top" xlink:title=" ">
<polygon fill="white" stroke="black" points="642,-168.5 642,-187.5 743,-187.5 743,-168.5 642,-168.5"/>
<text text-anchor="middle" x="692.5" y="-175.5" font-family="Helvetica,sans-Serif" font-size="10.00">graphics/Textures.h</text>
</a>
</g>
</g>
<!-- Node23&#45;&gt;Node26 -->
<g id="edge35" class="edge">
<title>Node23&#45;&gt;Node26</title>
<path fill="none" stroke="midnightblue" d="M507.59,-280.47C522.23,-267.07 552.35,-240.87 581.5,-224 605.07,-210.36 633.56,-198.9 655.79,-190.96"/>
<polygon fill="midnightblue" stroke="midnightblue" points="657.22,-194.16 665.51,-187.56 654.92,-187.55 657.22,-194.16"/>
</g>
<!-- Node25&#45;&gt;Node21 -->
<g id="edge31" class="edge">
<title>Node25&#45;&gt;Node21</title>
<path fill="none" stroke="midnightblue" d="M493.52,-224.37C478.76,-206.14 444.21,-163.43 424.99,-139.68"/>
<polygon fill="midnightblue" stroke="midnightblue" points="427.46,-137.16 418.45,-131.59 422.02,-141.57 427.46,-137.16"/>
</g>
<!-- Node25&#45;&gt;Node23 -->
<g id="edge32" class="edge">
<title>Node25&#45;&gt;Node23</title>
<path fill="none" stroke="midnightblue" d="M505.31,-243.75C506.57,-250.86 506.64,-261.14 505.67,-270.1"/>
<polygon fill="midnightblue" stroke="midnightblue" points="502.2,-269.64 504,-280.08 509.1,-270.8 502.2,-269.64"/>
</g>
<!-- Node26&#45;&gt;Node8 -->
<g id="edge36" class="edge">
<title>Node26&#45;&gt;Node8</title>
<path fill="none" stroke="midnightblue" d="M743.14,-169.55C813.24,-159.23 939.08,-140.72 1009.06,-130.42"/>
<polygon fill="midnightblue" stroke="midnightblue" points="1009.59,-133.88 1018.97,-128.96 1008.57,-126.96 1009.59,-133.88"/>
</g>
<!-- Node26&#45;&gt;Node17 -->
<g id="edge37" class="edge">
<title>Node26&#45;&gt;Node17</title>
<path fill="none" stroke="midnightblue" d="M661.92,-168.44C626.32,-158.48 567.79,-142.11 531.57,-131.97"/>
<polygon fill="midnightblue" stroke="midnightblue" points="532.11,-128.49 521.53,-129.16 530.22,-135.23 532.11,-128.49"/>
</g>
<!-- Node27 -->
<g id="node27" class="node">
<title>Node27</title>
<g id="a_node27"><a xlink:title=" ">
<polygon fill="white" stroke="#bfbfbf" points="651,-112.5 651,-131.5 734,-131.5 734,-112.5 651,-112.5"/>
<text text-anchor="middle" x="692.5" y="-119.5" font-family="Helvetica,sans-Serif" font-size="10.00">unordered_map</text>
</a>
</g>
</g>
<!-- Node26&#45;&gt;Node27 -->
<g id="edge38" class="edge">
<title>Node26&#45;&gt;Node27</title>
<path fill="none" stroke="midnightblue" d="M692.5,-168.08C692.5,-161.01 692.5,-150.86 692.5,-141.99"/>
<polygon fill="midnightblue" stroke="midnightblue" points="696,-141.75 692.5,-131.75 689,-141.75 696,-141.75"/>
</g>
<!-- Node28&#45;&gt;Node2 -->
<g id="edge42" class="edge">
<title>Node28&#45;&gt;Node2</title>
<path fill="none" stroke="midnightblue" d="M1103.99,-361.16C1109.88,-383.66 1122.07,-444.61 1092.5,-479 1070.78,-504.26 973.89,-516.64 923.38,-521.47"/>
<polygon fill="midnightblue" stroke="midnightblue" points="922.98,-517.99 913.34,-522.39 923.62,-524.96 922.98,-517.99"/>
</g>
<!-- Node28&#45;&gt;Node22 -->
<g id="edge41" class="edge">
<title>Node28&#45;&gt;Node22</title>
<path fill="none" stroke="midnightblue" d="M1087.23,-361.01C1066.67,-371.12 1028.73,-388.07 1000.95,-399.63"/>
<polygon fill="midnightblue" stroke="midnightblue" points="999.52,-396.44 991.6,-403.48 1002.18,-402.91 999.52,-396.44"/>
</g>
<!-- Node29&#45;&gt;Node9 -->
<g id="edge47" class="edge">
<title>Node29&#45;&gt;Node9</title>
<path fill="none" stroke="midnightblue" d="M916.22,-341.96C926.42,-310.41 964.23,-197.76 1010.5,-112 1015.79,-102.19 1022.76,-91.9 1028.74,-83.65"/>
<polygon fill="midnightblue" stroke="midnightblue" points="1031.57,-85.71 1034.73,-75.6 1025.95,-81.54 1031.57,-85.71"/>
</g>
<!-- Node29&#45;&gt;Node11 -->
<g id="edge46" class="edge">
<title>Node29&#45;&gt;Node11</title>
<path fill="none" stroke="midnightblue" d="M913.5,-341.81C913.5,-322.56 913.5,-274.9 913.5,-235 913.5,-235 913.5,-235 913.5,-121 913.5,-88.5 920.01,-51.1 924.45,-29.34"/>
<polygon fill="midnightblue" stroke="midnightblue" points="927.89,-30.01 926.54,-19.5 921.04,-28.56 927.89,-30.01"/>
</g>
<!-- Node30&#45;&gt;Node16 -->
<g id="edge51" class="edge">
<title>Node30&#45;&gt;Node16</title>
<path fill="none" stroke="midnightblue" d="M206.57,-459.32C196.33,-451.18 180.78,-438.84 168.5,-429.09"/>
<polygon fill="midnightblue" stroke="midnightblue" points="170.63,-426.31 160.62,-422.83 166.28,-431.79 170.63,-426.31"/>
</g>
<!-- Node30&#45;&gt;Node17 -->
<g id="edge50" class="edge">
<title>Node30&#45;&gt;Node17</title>
<path fill="none" stroke="midnightblue" d="M219.78,-459.47C230.67,-420.27 281.09,-255.61 381.5,-168 405.89,-146.72 441.4,-135.01 467.09,-128.92"/>
<polygon fill="midnightblue" stroke="midnightblue" points="468.08,-132.29 477.09,-126.71 466.58,-125.45 468.08,-132.29"/>
</g>
<!-- Node31&#45;&gt;Node13 -->
<g id="edge53" class="edge">
<title>Node31&#45;&gt;Node13</title>
<path fill="none" stroke="midnightblue" d="M1386.5,-168.08C1386.5,-161.01 1386.5,-150.86 1386.5,-141.99"/>
<polygon fill="midnightblue" stroke="midnightblue" points="1390,-141.75 1386.5,-131.75 1383,-141.75 1390,-141.75"/>
</g>
<!-- Node32&#45;&gt;Node6 -->
<g id="edge56" class="edge">
<title>Node32&#45;&gt;Node6</title>
<path fill="none" stroke="midnightblue" d="M1266.6,-285.48C1231.96,-280.58 1189.78,-269.36 1160.5,-244 1146.73,-232.08 1139.52,-212.17 1135.89,-197.52"/>
<polygon fill="midnightblue" stroke="midnightblue" points="1139.27,-196.61 1133.76,-187.57 1132.43,-198.08 1139.27,-196.61"/>
</g>
<!-- Node32&#45;&gt;Node7 -->
<g id="edge55" class="edge">
<title>Node32&#45;&gt;Node7</title>
<path fill="none" stroke="midnightblue" d="M1326.81,-280.37C1324.55,-258 1315.26,-197.81 1279.5,-168 1243.93,-138.34 1189.03,-128.21 1157.36,-124.77"/>
<polygon fill="midnightblue" stroke="midnightblue" points="1157.48,-121.26 1147.19,-123.81 1156.82,-128.23 1157.48,-121.26"/>
</g>
<!-- Node33 -->
<g id="node33" class="node">
<title>Node33</title>
<g id="a_node33"><a xlink:href="_network_manager_8h.html" target="_top" xlink:title=" ">
<polygon fill="white" stroke="black" points="1169.5,-224.5 1169.5,-243.5 1299.5,-243.5 1299.5,-224.5 1169.5,-224.5"/>
<text text-anchor="middle" x="1234.5" y="-231.5" font-family="Helvetica,sans-Serif" font-size="10.00">engine/NetworkManager.h</text>
</a>
</g>
</g>
<!-- Node32&#45;&gt;Node33 -->
<g id="edge57" class="edge">
<title>Node32&#45;&gt;Node33</title>
<path fill="none" stroke="midnightblue" d="M1312.56,-280.32C1297.91,-271.82 1275.37,-258.73 1258.26,-248.8"/>
<polygon fill="midnightblue" stroke="midnightblue" points="1259.81,-245.65 1249.4,-243.65 1256.3,-251.7 1259.81,-245.65"/>
</g>
<!-- Node35 -->
<g id="node35" class="node">
<title>Node35</title>
<g id="a_node35"><a xlink:title=" ">
<polygon fill="white" stroke="#bfbfbf" points="1356,-224.5 1356,-243.5 1405,-243.5 1405,-224.5 1356,-224.5"/>
<text text-anchor="middle" x="1380.5" y="-231.5" font-family="Helvetica,sans-Serif" font-size="10.00">random</text>
</a>
</g>
</g>
<!-- Node32&#45;&gt;Node35 -->
<g id="edge62" class="edge">
<title>Node32&#45;&gt;Node35</title>
<path fill="none" stroke="midnightblue" d="M1336.25,-280.08C1343.97,-272.22 1355.4,-260.57 1364.72,-251.08"/>
<polygon fill="midnightblue" stroke="midnightblue" points="1367.4,-253.34 1371.91,-243.75 1362.41,-248.44 1367.4,-253.34"/>
</g>
<!-- Node33&#45;&gt;Node6 -->
<g id="edge58" class="edge">
<title>Node33&#45;&gt;Node6</title>
<path fill="none" stroke="midnightblue" d="M1218.11,-224.32C1201.83,-215.7 1176.63,-202.36 1157.78,-192.39"/>
<polygon fill="midnightblue" stroke="midnightblue" points="1159.32,-189.24 1148.85,-187.65 1156.05,-195.43 1159.32,-189.24"/>
</g>
<!-- Node33&#45;&gt;Node17 -->
<g id="edge60" class="edge">
<title>Node33&#45;&gt;Node17</title>
<path fill="none" stroke="midnightblue" d="M1169.3,-231.2C1035.27,-227.01 733.01,-214.81 633.5,-188 591.7,-176.74 547.25,-152.4 521.51,-136.91"/>
<polygon fill="midnightblue" stroke="midnightblue" points="523.26,-133.88 512.91,-131.65 519.61,-139.85 523.26,-133.88"/>
</g>
<!-- Node33&#45;&gt;Node31 -->
<g id="edge59" class="edge">
<title>Node33&#45;&gt;Node31</title>
<path fill="none" stroke="midnightblue" d="M1258.58,-224.44C1284.04,-215.4 1324.39,-201.06 1352.96,-190.92"/>
<polygon fill="midnightblue" stroke="midnightblue" points="1354.28,-194.16 1362.53,-187.52 1351.93,-187.57 1354.28,-194.16"/>
</g>
<!-- Node34 -->
<g id="node34" class="node">
<title>Node34</title>
<g id="a_node34"><a xlink:title=" ">
<polygon fill="white" stroke="#bfbfbf" points="1199,-168.5 1199,-187.5 1270,-187.5 1270,-168.5 1199,-168.5"/>
<text text-anchor="middle" x="1234.5" y="-175.5" font-family="Helvetica,sans-Serif" font-size="10.00">sys/socket.h</text>
</a>
</g>
</g>
<!-- Node33&#45;&gt;Node34 -->
<g id="edge61" class="edge">
<title>Node33&#45;&gt;Node34</title>
<path fill="none" stroke="midnightblue" d="M1234.5,-224.08C1234.5,-217.01 1234.5,-206.86 1234.5,-197.99"/>
<polygon fill="midnightblue" stroke="midnightblue" points="1238,-197.75 1234.5,-187.75 1231,-197.75 1238,-197.75"/>
</g>
<!-- Node36&#45;&gt;Node2 -->
<g id="edge66" class="edge">
<title>Node36&#45;&gt;Node2</title>
<path fill="none" stroke="midnightblue" d="M993.61,-478.51C976.32,-487.66 945.72,-502.24 922.59,-512.43"/>
<polygon fill="midnightblue" stroke="midnightblue" points="920.98,-509.31 913.2,-516.49 923.76,-515.73 920.98,-509.31"/>
</g>
<!-- Node36&#45;&gt;Node13 -->
<g id="edge64" class="edge">
<title>Node36&#45;&gt;Node13</title>
<path fill="none" stroke="midnightblue" d="M1058.94,-459.5C1180.55,-438.31 1471.5,-378.46 1471.5,-291 1471.5,-291 1471.5,-291 1471.5,-233 1471.5,-202.9 1470.19,-192.35 1452.5,-168 1442.76,-154.6 1427.75,-143.91 1414.49,-136.31"/>
<polygon fill="midnightblue" stroke="midnightblue" points="1416.15,-133.23 1405.69,-131.56 1412.82,-139.39 1416.15,-133.23"/>
</g>
<!-- Node36&#45;&gt;Node22 -->
<g id="edge65" class="edge">
<title>Node36&#45;&gt;Node22</title>
<path fill="none" stroke="midnightblue" d="M1000.06,-459.08C994.55,-451.46 986.47,-440.26 979.74,-430.94"/>
<polygon fill="midnightblue" stroke="midnightblue" points="982.51,-428.81 973.82,-422.75 976.84,-432.91 982.51,-428.81"/>
</g>
<!-- Node38 -->
<g id="node38" class="node">
<title>Node38</title>
<g id="a_node38"><a xlink:href="_factory_8h.html" target="_top" xlink:title=" ">
<polygon fill="white" stroke="black" points="536.5,-342 536.5,-361 592.5,-361 592.5,-342 536.5,-342"/>
<text text-anchor="middle" x="564.5" y="-349" font-family="Helvetica,sans-Serif" font-size="10.00">Factory.h</text>
</a>
</g>
</g>
<!-- Node37&#45;&gt;Node38 -->
<g id="edge68" class="edge">
<title>Node37&#45;&gt;Node38</title>
<path fill="none" stroke="midnightblue" d="M653.6,-403.48C636.53,-393.71 608.34,-377.58 588.24,-366.08"/>
<polygon fill="midnightblue" stroke="midnightblue" points="589.79,-362.94 579.37,-361.01 586.31,-369.01 589.79,-362.94"/>
</g>
<!-- Node38&#45;&gt;Node2 -->
<g id="edge70" class="edge">
<title>Node38&#45;&gt;Node2</title>
<path fill="none" stroke="midnightblue" d="M569.67,-361.27C583.91,-384.59 626.2,-448.44 679.5,-479 737.99,-512.53 818.39,-521.18 861.76,-523.35"/>
<polygon fill="midnightblue" stroke="midnightblue" points="861.82,-526.85 871.96,-523.77 862.11,-519.86 861.82,-526.85"/>
</g>
<!-- Node38&#45;&gt;Node6 -->
<g id="edge72" class="edge">
<title>Node38&#45;&gt;Node6</title>
<path fill="none" stroke="midnightblue" d="M567.46,-341.85C572.92,-327.14 585.94,-297.16 606.5,-280 661.14,-234.41 687.35,-240.79 756.5,-224 871.74,-196.02 1011.25,-185.13 1083.62,-181.13"/>
<polygon fill="midnightblue" stroke="midnightblue" points="1084,-184.62 1093.8,-180.59 1083.63,-177.63 1084,-184.62"/>
</g>
<!-- Node38&#45;&gt;Node21 -->
<g id="edge69" class="edge">
<title>Node38&#45;&gt;Node21</title>
<path fill="none" stroke="midnightblue" d="M536.18,-345.38C490.89,-335.36 404.89,-308.25 381.5,-244 369.95,-212.26 371.71,-200.33 381.5,-168 384.62,-157.7 390.95,-147.61 397,-139.6"/>
<polygon fill="midnightblue" stroke="midnightblue" points="399.73,-141.8 403.29,-131.82 394.28,-137.4 399.73,-141.8"/>
</g>
<!-- Node38&#45;&gt;Node23 -->
<g id="edge71" class="edge">
<title>Node38&#45;&gt;Node23</title>
<path fill="none" stroke="midnightblue" d="M555.04,-341.98C544.75,-332.7 528.08,-317.67 515.51,-306.33"/>
<polygon fill="midnightblue" stroke="midnightblue" points="517.71,-303.61 507.94,-299.51 513.02,-308.8 517.71,-303.61"/>
</g>
<!-- Node39&#45;&gt;Node37 -->
<g id="edge87" class="edge">
<title>Node39&#45;&gt;Node37</title>
<path fill="none" stroke="midnightblue" d="M747.4,-459.32C732.6,-450.82 709.81,-437.73 692.52,-427.8"/>
<polygon fill="midnightblue" stroke="midnightblue" points="693.98,-424.6 683.57,-422.65 690.49,-430.67 693.98,-424.6"/>
</g>
<!-- Node40 -->
<g id="node40" class="node">
<title>Node40</title>
<g id="a_node40"><a xlink:href="_squad_template_8h.html" target="_top" xlink:title=" ">
<polygon fill="white" stroke="black" points="716.5,-403.5 716.5,-422.5 808.5,-422.5 808.5,-403.5 716.5,-403.5"/>
<text text-anchor="middle" x="762.5" y="-410.5" font-family="Helvetica,sans-Serif" font-size="10.00">SquadTemplate.h</text>
</a>
</g>
</g>
<!-- Node39&#45;&gt;Node40 -->
<g id="edge74" class="edge">
<title>Node39&#45;&gt;Node40</title>
<path fill="none" stroke="midnightblue" d="M762.5,-459.08C762.5,-452.01 762.5,-441.86 762.5,-432.99"/>
<polygon fill="midnightblue" stroke="midnightblue" points="766,-432.75 762.5,-422.75 759,-432.75 766,-432.75"/>
</g>
<!-- Node40&#45;&gt;Node17 -->
<g id="edge75" class="edge">
<title>Node40&#45;&gt;Node17</title>
<path fill="none" stroke="midnightblue" d="M716.44,-404.21C653.03,-393.33 544.7,-374.11 527.5,-367 449.09,-334.58 410.52,-323.73 381.5,-244 378.46,-235.65 377.09,-231.72 381.5,-224 397.11,-196.66 418.26,-208.09 442.5,-188 459.75,-173.7 476.27,-153.97 487.04,-140.01"/>
<polygon fill="midnightblue" stroke="midnightblue" points="490.02,-141.88 493.24,-131.78 484.42,-137.67 490.02,-141.88"/>
</g>
<!-- Node40&#45;&gt;Node29 -->
<g id="edge86" class="edge">
<title>Node40&#45;&gt;Node29</title>
<path fill="none" stroke="midnightblue" d="M784.13,-403.48C809.92,-393.31 853.21,-376.26 882.54,-364.7"/>
<polygon fill="midnightblue" stroke="midnightblue" points="883.88,-367.93 891.91,-361.01 881.32,-361.42 883.88,-367.93"/>
</g>
<!-- Node40&#45;&gt;Node38 -->
<g id="edge76" class="edge">
<title>Node40&#45;&gt;Node38</title>
<path fill="none" stroke="midnightblue" d="M730.98,-403.42C699.37,-394.7 649.36,-380.57 606.5,-367 603.9,-366.18 601.22,-365.3 598.53,-364.41"/>
<polygon fill="midnightblue" stroke="midnightblue" points="599.45,-361.03 588.86,-361.15 597.21,-367.66 599.45,-361.03"/>
</g>
<!-- Node41 -->
<g id="node41" class="node">
<title>Node41</title>
<g id="a_node41"><a xlink:href="_gui_list_8h.html" target="_top" xlink:title=" ">
<polygon fill="white" stroke="black" points="615.5,-280.5 615.5,-299.5 723.5,-299.5 723.5,-280.5 615.5,-280.5"/>
<text text-anchor="middle" x="669.5" y="-287.5" font-family="Helvetica,sans-Serif" font-size="10.00">engine/GUI/GuiList.h</text>
</a>
</g>
</g>
<!-- Node40&#45;&gt;Node41 -->
<g id="edge77" class="edge">
<title>Node40&#45;&gt;Node41</title>
<path fill="none" stroke="midnightblue" d="M743.22,-403.36C728.27,-395.75 708.04,-383.34 695.5,-367 682.53,-350.1 675.78,-326.31 672.45,-309.87"/>
<polygon fill="midnightblue" stroke="midnightblue" points="675.86,-309.06 670.65,-299.84 668.97,-310.3 675.86,-309.06"/>
</g>
<!-- Node43 -->
<g id="node43" class="node">
<title>Node43</title>
<g id="a_node43"><a xlink:href="_gui_scroll_8h.html" target="_top" xlink:title=" ">
<polygon fill="white" stroke="black" points="704.5,-342 704.5,-361 820.5,-361 820.5,-342 704.5,-342"/>
<text text-anchor="middle" x="762.5" y="-349" font-family="Helvetica,sans-Serif" font-size="10.00">engine/GUI/GuiScroll.h</text>
</a>
</g>
</g>
<!-- Node40&#45;&gt;Node43 -->
<g id="edge81" class="edge">
<title>Node40&#45;&gt;Node43</title>
<path fill="none" stroke="midnightblue" d="M762.5,-403.48C762.5,-395.08 762.5,-381.98 762.5,-371.16"/>
<polygon fill="midnightblue" stroke="midnightblue" points="766,-371.01 762.5,-361.01 759,-371.01 766,-371.01"/>
</g>
<!-- Node44 -->
<g id="node44" class="node">
<title>Node44</title>
<g id="a_node44"><a xlink:href="_button_8h.html" target="_top" xlink:title=" ">
<polygon fill="white" stroke="black" points="780,-280.5 780,-299.5 885,-299.5 885,-280.5 780,-280.5"/>
<text text-anchor="middle" x="832.5" y="-287.5" font-family="Helvetica,sans-Serif" font-size="10.00">engine/GUI/Button.h</text>
</a>
</g>
</g>
<!-- Node40&#45;&gt;Node44 -->
<g id="edge84" class="edge">
<title>Node40&#45;&gt;Node44</title>
<path fill="none" stroke="midnightblue" d="M785.08,-403.36C800.52,-396.15 819.87,-384.25 829.5,-367 839.34,-349.39 838.5,-325.74 836.23,-309.52"/>
<polygon fill="midnightblue" stroke="midnightblue" points="839.68,-308.92 834.54,-299.65 832.78,-310.1 839.68,-308.92"/>
</g>
<!-- Node41&#45;&gt;Node17 -->
<g id="edge80" class="edge">
<title>Node41&#45;&gt;Node17</title>
<path fill="none" stroke="midnightblue" d="M667.87,-280.42C664.94,-266.96 657.59,-240.67 642.5,-224 619.81,-198.94 603.39,-207.1 575.5,-188 553.5,-172.94 530.55,-152.56 515.7,-138.66"/>
<polygon fill="midnightblue" stroke="midnightblue" points="518.01,-136.02 508.34,-131.68 513.19,-141.1 518.01,-136.02"/>
</g>
<!-- Node42 -->
<g id="node42" class="node">
<title>Node42</title>
<g id="a_node42"><a xlink:href="_gui_object_8h.html" target="_top" xlink:title=" ">
<polygon fill="white" stroke="black" points="765.5,-224.5 765.5,-243.5 885.5,-243.5 885.5,-224.5 765.5,-224.5"/>
<text text-anchor="middle" x="825.5" y="-231.5" font-family="Helvetica,sans-Serif" font-size="10.00">engine/GUI/GuiObject.h</text>
</a>
</g>
</g>
<!-- Node41&#45;&gt;Node42 -->
<g id="edge78" class="edge">
<title>Node41&#45;&gt;Node42</title>
<path fill="none" stroke="midnightblue" d="M694.22,-280.44C720.35,-271.4 761.76,-257.06 791.08,-246.92"/>
<polygon fill="midnightblue" stroke="midnightblue" points="792.59,-250.1 800.9,-243.52 790.3,-243.48 792.59,-250.1"/>
</g>
<!-- Node42&#45;&gt;Node6 -->
<g id="edge79" class="edge">
<title>Node42&#45;&gt;Node6</title>
<path fill="none" stroke="midnightblue" d="M874.15,-224.44C931.56,-214.34 1026.48,-197.65 1083.88,-187.55"/>
<polygon fill="midnightblue" stroke="midnightblue" points="1084.56,-190.99 1093.8,-185.81 1083.35,-184.09 1084.56,-190.99"/>
</g>
<!-- Node43&#45;&gt;Node7 -->
<g id="edge83" class="edge">
<title>Node43&#45;&gt;Node7</title>
<path fill="none" stroke="midnightblue" d="M758.6,-341.69C749.37,-319.33 728.94,-259.66 756.5,-224 853.6,-98.34 951.21,-178.62 1108.06,-132.07"/>
<polygon fill="midnightblue" stroke="midnightblue" points="1109.49,-135.29 1117.99,-128.98 1107.4,-128.61 1109.49,-135.29"/>
</g>
<!-- Node43&#45;&gt;Node41 -->
<g id="edge82" class="edge">
<title>Node43&#45;&gt;Node41</title>
<path fill="none" stroke="midnightblue" d="M749.18,-341.98C734.12,-332.34 709.38,-316.52 691.46,-305.05"/>
<polygon fill="midnightblue" stroke="midnightblue" points="693.11,-301.95 682.8,-299.51 689.34,-307.85 693.11,-301.95"/>
</g>
<!-- Node44&#45;&gt;Node42 -->
<g id="edge85" class="edge">
<title>Node44&#45;&gt;Node42</title>
<path fill="none" stroke="midnightblue" d="M831.34,-280.08C830.42,-272.93 829.08,-262.64 827.92,-253.69"/>
<polygon fill="midnightblue" stroke="midnightblue" points="831.39,-253.22 826.63,-243.75 824.45,-254.12 831.39,-253.22"/>
</g>
</g>
</svg>
