<?xml version="1.0" encoding="UTF-8" standalone="no"?>
<!DOCTYPE svg PUBLIC "-//W3C//DTD SVG 1.1//EN"
 "http://www.w3.org/Graphics/SVG/1.1/DTD/svg11.dtd">
<!-- Generated by graphviz version 2.47.1 (20210421.1823)
 -->
<!-- Title: src/engine/actions/ClickAction.cpp Pages: 1 -->
<svg width="898pt" height="386pt"
 viewBox="0.00 0.00 897.50 386.00" xmlns="http://www.w3.org/2000/svg" xmlns:xlink="http://www.w3.org/1999/xlink">
<g id="graph0" class="graph" transform="scale(1 1) rotate(0) translate(4 382)">
<title>src/engine/actions/ClickAction.cpp</title>
<polygon fill="white" stroke="transparent" points="-4,4 -4,-382 893.5,-382 893.5,4 -4,4"/>
<!-- Node1 -->
<g id="node1" class="node">
<title>Node1</title>
<g id="a_node1"><a xlink:title=" ">
<polygon fill="#bfbfbf" stroke="black" points="312,-347.5 312,-377.5 408,-377.5 408,-347.5 312,-347.5"/>
<text text-anchor="start" x="320" y="-365.5" font-family="Helvetica,sans-Serif" font-size="10.00">src/engine/actions</text>
<text text-anchor="middle" x="360" y="-354.5" font-family="Helvetica,sans-Serif" font-size="10.00">/ClickAction.cpp</text>
</a>
</g>
</g>
<!-- Node2 -->
<g id="node2" class="node">
<title>Node2</title>
<g id="a_node2"><a xlink:href="_click_action_8h.html" target="_top" xlink:title=" ">
<polygon fill="white" stroke="black" points="0,-224.5 0,-243.5 140,-243.5 140,-224.5 0,-224.5"/>
<text text-anchor="middle" x="70" y="-231.5" font-family="Helvetica,sans-Serif" font-size="10.00">engine/actions/ClickAction.h</text>
</a>
</g>
</g>
<!-- Node1&#45;&gt;Node2 -->
<g id="edge1" class="edge">
<title>Node1&#45;&gt;Node2</title>
<path fill="none" stroke="midnightblue" d="M311.81,-356.5C268.46,-350.46 204.09,-337.58 154,-311 125.34,-295.79 98.73,-268.61 83.43,-251.22"/>
<polygon fill="midnightblue" stroke="midnightblue" points="86.03,-248.87 76.87,-243.56 80.72,-253.43 86.03,-248.87"/>
</g>
<!-- Node3 -->
<g id="node3" class="node">
<title>Node3</title>
<g id="a_node3"><a xlink:href="engine_2_action_8h.html" target="_top" xlink:title=" ">
<polygon fill="white" stroke="black" points="244.5,-112.5 244.5,-131.5 327.5,-131.5 327.5,-112.5 244.5,-112.5"/>
<text text-anchor="middle" x="286" y="-119.5" font-family="Helvetica,sans-Serif" font-size="10.00">engine/Action.h</text>
</a>
</g>
</g>
<!-- Node1&#45;&gt;Node3 -->
<g id="edge5" class="edge">
<title>Node1&#45;&gt;Node3</title>
<path fill="none" stroke="midnightblue" d="M336.96,-347.34C297.37,-321.46 217.71,-262.3 187,-188 175.98,-161.34 206.78,-144.38 236.87,-134.49"/>
<polygon fill="midnightblue" stroke="midnightblue" points="238.02,-137.8 246.56,-131.53 235.97,-131.1 238.02,-137.8"/>
</g>
<!-- Node6 -->
<g id="node6" class="node">
<title>Node6</title>
<g id="a_node6"><a xlink:href="game_controller_8h.html" target="_top" xlink:title=" ">
<polygon fill="white" stroke="black" points="491.5,-286 491.5,-305 612.5,-305 612.5,-286 491.5,-286"/>
<text text-anchor="middle" x="552" y="-293" font-family="Helvetica,sans-Serif" font-size="10.00">engine/gameController.h</text>
</a>
</g>
</g>
<!-- Node1&#45;&gt;Node6 -->
<g id="edge6" class="edge">
<title>Node1&#45;&gt;Node6</title>
<path fill="none" stroke="midnightblue" d="M401.66,-347.4C436.24,-335.69 484.86,-319.23 517.34,-308.23"/>
<polygon fill="midnightblue" stroke="midnightblue" points="518.52,-311.53 526.87,-305.01 516.28,-304.9 518.52,-311.53"/>
</g>
<!-- Node23 -->
<g id="node23" class="node">
<title>Node23</title>
<g id="a_node23"><a xlink:href="gameplay_clickable_game_object_8h.html" target="_top" xlink:title=" ">
<polygon fill="white" stroke="black" points="630.5,-280.5 630.5,-310.5 759.5,-310.5 759.5,-280.5 630.5,-280.5"/>
<text text-anchor="start" x="638.5" y="-298.5" font-family="Helvetica,sans-Serif" font-size="10.00">engine/gameplayClickable</text>
<text text-anchor="middle" x="695" y="-287.5" font-family="Helvetica,sans-Serif" font-size="10.00">GameObject.h</text>
</a>
</g>
</g>
<!-- Node1&#45;&gt;Node23 -->
<g id="edge29" class="edge">
<title>Node1&#45;&gt;Node23</title>
<path fill="none" stroke="midnightblue" d="M408.11,-352.23C458.44,-342.52 540.02,-326.76 620.61,-311.07"/>
<polygon fill="midnightblue" stroke="midnightblue" points="621.28,-314.51 630.43,-309.16 619.94,-307.64 621.28,-314.51"/>
</g>
<!-- Node2&#45;&gt;Node3 -->
<g id="edge2" class="edge">
<title>Node2&#45;&gt;Node3</title>
<path fill="none" stroke="midnightblue" d="M79.11,-224.28C93.8,-210.62 124.12,-184.07 154,-168 181.6,-153.15 215.05,-141.81 241.36,-134.23"/>
<polygon fill="midnightblue" stroke="midnightblue" points="242.39,-137.58 251.07,-131.51 240.5,-130.84 242.39,-137.58"/>
</g>
<!-- Node4 -->
<g id="node4" class="node">
<title>Node4</title>
<g id="a_node4"><a xlink:title=" ">
<polygon fill="white" stroke="#bfbfbf" points="224,-56.5 224,-75.5 278,-75.5 278,-56.5 224,-56.5"/>
<text text-anchor="middle" x="251" y="-63.5" font-family="Helvetica,sans-Serif" font-size="10.00">iostream</text>
</a>
</g>
</g>
<!-- Node3&#45;&gt;Node4 -->
<g id="edge3" class="edge">
<title>Node3&#45;&gt;Node4</title>
<path fill="none" stroke="midnightblue" d="M280.22,-112.08C275.33,-104.53 268.17,-93.49 262.17,-84.23"/>
<polygon fill="midnightblue" stroke="midnightblue" points="265.05,-82.24 256.67,-75.75 259.17,-86.05 265.05,-82.24"/>
</g>
<!-- Node5 -->
<g id="node5" class="node">
<title>Node5</title>
<g id="a_node5"><a xlink:title=" ">
<polygon fill="white" stroke="#bfbfbf" points="296.5,-56.5 296.5,-75.5 347.5,-75.5 347.5,-56.5 296.5,-56.5"/>
<text text-anchor="middle" x="322" y="-63.5" font-family="Helvetica,sans-Serif" font-size="10.00">memory</text>
</a>
</g>
</g>
<!-- Node3&#45;&gt;Node5 -->
<g id="edge4" class="edge">
<title>Node3&#45;&gt;Node5</title>
<path fill="none" stroke="midnightblue" d="M291.94,-112.08C296.98,-104.53 304.34,-93.49 310.51,-84.23"/>
<polygon fill="midnightblue" stroke="midnightblue" points="313.53,-86.01 316.17,-75.75 307.71,-82.13 313.53,-86.01"/>
</g>
<!-- Node7 -->
<g id="node7" class="node">
<title>Node7</title>
<g id="a_node7"><a xlink:title=" ">
<polygon fill="white" stroke="#bfbfbf" points="759.5,-112.5 759.5,-131.5 788.5,-131.5 788.5,-112.5 759.5,-112.5"/>
<text text-anchor="middle" x="774" y="-119.5" font-family="Helvetica,sans-Serif" font-size="10.00">list</text>
</a>
</g>
</g>
<!-- Node6&#45;&gt;Node7 -->
<g id="edge7" class="edge">
<title>Node6&#45;&gt;Node7</title>
<path fill="none" stroke="midnightblue" d="M588.36,-285.96C635.11,-273.01 715.32,-243.8 758,-188 768.15,-174.73 771.95,-155.87 773.32,-141.88"/>
<polygon fill="midnightblue" stroke="midnightblue" points="776.84,-141.71 774,-131.5 769.86,-141.25 776.84,-141.71"/>
</g>
<!-- Node8 -->
<g id="node8" class="node">
<title>Node8</title>
<g id="a_node8"><a xlink:href="game_object_8h.html" target="_top" xlink:title=" ">
<polygon fill="white" stroke="black" points="641,-168.5 641,-187.5 749,-187.5 749,-168.5 641,-168.5"/>
<text text-anchor="middle" x="695" y="-175.5" font-family="Helvetica,sans-Serif" font-size="10.00">engine/gameObject.h</text>
</a>
</g>
</g>
<!-- Node6&#45;&gt;Node8 -->
<g id="edge8" class="edge">
<title>Node6&#45;&gt;Node8</title>
<path fill="none" stroke="midnightblue" d="M554.54,-285.95C559.26,-271.39 570.71,-241.64 590,-224 606.98,-208.47 630.14,-197.78 650.38,-190.72"/>
<polygon fill="midnightblue" stroke="midnightblue" points="651.64,-193.99 660.05,-187.55 649.45,-187.34 651.64,-193.99"/>
</g>
<!-- Node16 -->
<g id="node16" class="node">
<title>Node16</title>
<g id="a_node16"><a xlink:href="_network_manager_8h.html" target="_top" xlink:title=" ">
<polygon fill="white" stroke="black" points="413,-224.5 413,-243.5 543,-243.5 543,-224.5 413,-224.5"/>
<text text-anchor="middle" x="478" y="-231.5" font-family="Helvetica,sans-Serif" font-size="10.00">engine/NetworkManager.h</text>
</a>
</g>
</g>
<!-- Node6&#45;&gt;Node16 -->
<g id="edge20" class="edge">
<title>Node6&#45;&gt;Node16</title>
<path fill="none" stroke="midnightblue" d="M541.4,-285.98C529.75,-276.61 510.81,-261.38 496.67,-250.01"/>
<polygon fill="midnightblue" stroke="midnightblue" points="498.57,-247.05 488.58,-243.51 494.18,-252.5 498.57,-247.05"/>
</g>
<!-- Node22 -->
<g id="node22" class="node">
<title>Node22</title>
<g id="a_node22"><a xlink:title=" ">
<polygon fill="white" stroke="#bfbfbf" points="599.5,-224.5 599.5,-243.5 648.5,-243.5 648.5,-224.5 599.5,-224.5"/>
<text text-anchor="middle" x="624" y="-231.5" font-family="Helvetica,sans-Serif" font-size="10.00">random</text>
</a>
</g>
</g>
<!-- Node6&#45;&gt;Node22 -->
<g id="edge28" class="edge">
<title>Node6&#45;&gt;Node22</title>
<path fill="none" stroke="midnightblue" d="M562.32,-285.98C573.65,-276.61 592.07,-261.38 605.84,-250.01"/>
<polygon fill="midnightblue" stroke="midnightblue" points="608.22,-252.58 613.7,-243.51 603.77,-247.18 608.22,-252.58"/>
</g>
<!-- Node8&#45;&gt;Node3 -->
<g id="edge19" class="edge">
<title>Node8&#45;&gt;Node3</title>
<path fill="none" stroke="midnightblue" d="M640.71,-169.2C637.76,-168.79 634.85,-168.39 632,-168 527.53,-153.74 405.16,-138.07 337.54,-129.5"/>
<polygon fill="midnightblue" stroke="midnightblue" points="337.93,-126.02 327.57,-128.23 337.05,-132.96 337.93,-126.02"/>
</g>
<!-- Node8&#45;&gt;Node7 -->
<g id="edge10" class="edge">
<title>Node8&#45;&gt;Node7</title>
<path fill="none" stroke="midnightblue" d="M707.69,-168.32C719.9,-159.98 738.58,-147.21 753,-137.35"/>
<polygon fill="midnightblue" stroke="midnightblue" points="755.06,-140.19 761.34,-131.65 751.11,-134.41 755.06,-140.19"/>
</g>
<!-- Node9 -->
<g id="node9" class="node">
<title>Node9</title>
<g id="a_node9"><a xlink:title=" ">
<polygon fill="white" stroke="#bfbfbf" points="597.5,-112.5 597.5,-131.5 638.5,-131.5 638.5,-112.5 597.5,-112.5"/>
<text text-anchor="middle" x="618" y="-119.5" font-family="Helvetica,sans-Serif" font-size="10.00">string</text>
</a>
</g>
</g>
<!-- Node8&#45;&gt;Node9 -->
<g id="edge9" class="edge">
<title>Node8&#45;&gt;Node9</title>
<path fill="none" stroke="midnightblue" d="M682.63,-168.32C670.84,-160.06 652.87,-147.45 638.86,-137.63"/>
<polygon fill="midnightblue" stroke="midnightblue" points="640.54,-134.53 630.34,-131.65 636.52,-140.26 640.54,-134.53"/>
</g>
<!-- Node10 -->
<g id="node10" class="node">
<title>Node10</title>
<g id="a_node10"><a xlink:href="config_8h.html" target="_top" xlink:title=" ">
<polygon fill="white" stroke="black" points="656.5,-112.5 656.5,-131.5 737.5,-131.5 737.5,-112.5 656.5,-112.5"/>
<text text-anchor="middle" x="697" y="-119.5" font-family="Helvetica,sans-Serif" font-size="10.00">engine/config.h</text>
</a>
</g>
</g>
<!-- Node8&#45;&gt;Node10 -->
<g id="edge11" class="edge">
<title>Node8&#45;&gt;Node10</title>
<path fill="none" stroke="midnightblue" d="M695.33,-168.08C695.59,-161.01 695.97,-150.86 696.3,-141.99"/>
<polygon fill="midnightblue" stroke="midnightblue" points="699.8,-141.87 696.68,-131.75 692.81,-141.61 699.8,-141.87"/>
</g>
<!-- Node11 -->
<g id="node11" class="node">
<title>Node11</title>
<g id="a_node11"><a xlink:href="_s_f_m_l_facade_8h.html" target="_top" xlink:title=" ">
<polygon fill="white" stroke="black" points="635.5,-56.5 635.5,-75.5 758.5,-75.5 758.5,-56.5 635.5,-56.5"/>
<text text-anchor="middle" x="697" y="-63.5" font-family="Helvetica,sans-Serif" font-size="10.00">graphics/SFMLFacade.h</text>
</a>
</g>
</g>
<!-- Node10&#45;&gt;Node11 -->
<g id="edge12" class="edge">
<title>Node10&#45;&gt;Node11</title>
<path fill="none" stroke="midnightblue" d="M697,-112.08C697,-105.01 697,-94.86 697,-85.99"/>
<polygon fill="midnightblue" stroke="midnightblue" points="700.5,-85.75 697,-75.75 693.5,-85.75 700.5,-85.75"/>
</g>
<!-- Node14 -->
<g id="node14" class="node">
<title>Node14</title>
<g id="a_node14"><a xlink:href="_fan_facade_8h.html" target="_top" xlink:title=" ">
<polygon fill="white" stroke="black" points="776.5,-56.5 776.5,-75.5 889.5,-75.5 889.5,-56.5 776.5,-56.5"/>
<text text-anchor="middle" x="833" y="-63.5" font-family="Helvetica,sans-Serif" font-size="10.00">graphics/FanFacade.h</text>
</a>
</g>
</g>
<!-- Node10&#45;&gt;Node14 -->
<g id="edge15" class="edge">
<title>Node10&#45;&gt;Node14</title>
<path fill="none" stroke="midnightblue" d="M718.55,-112.44C741.03,-103.52 776.49,-89.44 801.98,-79.32"/>
<polygon fill="midnightblue" stroke="midnightblue" points="803.55,-82.46 811.55,-75.52 800.97,-75.95 803.55,-82.46"/>
</g>
<!-- Node15 -->
<g id="node15" class="node">
<title>Node15</title>
<g id="a_node15"><a xlink:title=" ">
<polygon fill="white" stroke="#bfbfbf" points="519,-56.5 519,-75.5 617,-75.5 617,-56.5 519,-56.5"/>
<text text-anchor="middle" x="568" y="-63.5" font-family="Helvetica,sans-Serif" font-size="10.00">nlohmann/json.hpp</text>
</a>
</g>
</g>
<!-- Node10&#45;&gt;Node15 -->
<g id="edge18" class="edge">
<title>Node10&#45;&gt;Node15</title>
<path fill="none" stroke="midnightblue" d="M676.56,-112.44C655.33,-103.56 621.9,-89.56 597.75,-79.45"/>
<polygon fill="midnightblue" stroke="midnightblue" points="598.92,-76.15 588.34,-75.52 596.22,-82.61 598.92,-76.15"/>
</g>
<!-- Node12 -->
<g id="node12" class="node">
<title>Node12</title>
<g id="a_node12"><a xlink:title=" ">
<polygon fill="white" stroke="#bfbfbf" points="664,-0.5 664,-19.5 768,-19.5 768,-0.5 664,-0.5"/>
<text text-anchor="middle" x="716" y="-7.5" font-family="Helvetica,sans-Serif" font-size="10.00">SFML/Graphics.hpp</text>
</a>
</g>
</g>
<!-- Node11&#45;&gt;Node12 -->
<g id="edge13" class="edge">
<title>Node11&#45;&gt;Node12</title>
<path fill="none" stroke="midnightblue" d="M700.14,-56.08C702.68,-48.85 706.36,-38.41 709.53,-29.4"/>
<polygon fill="midnightblue" stroke="midnightblue" points="712.9,-30.35 712.92,-19.75 706.3,-28.02 712.9,-30.35"/>
</g>
<!-- Node13 -->
<g id="node13" class="node">
<title>Node13</title>
<g id="a_node13"><a xlink:href="_facade_8h.html" target="_top" xlink:title=" ">
<polygon fill="white" stroke="black" points="795,-0.5 795,-19.5 851,-19.5 851,-0.5 795,-0.5"/>
<text text-anchor="middle" x="823" y="-7.5" font-family="Helvetica,sans-Serif" font-size="10.00">Facade.h</text>
</a>
</g>
</g>
<!-- Node11&#45;&gt;Node13 -->
<g id="edge14" class="edge">
<title>Node11&#45;&gt;Node13</title>
<path fill="none" stroke="midnightblue" d="M716.97,-56.44C737.61,-47.6 770.06,-33.69 793.63,-23.59"/>
<polygon fill="midnightblue" stroke="midnightblue" points="795.32,-26.67 803.13,-19.52 792.56,-20.24 795.32,-26.67"/>
</g>
<!-- Node14&#45;&gt;Node12 -->
<g id="edge16" class="edge">
<title>Node14&#45;&gt;Node12</title>
<path fill="none" stroke="midnightblue" d="M814.46,-56.44C795.38,-47.64 765.43,-33.81 743.56,-23.72"/>
<polygon fill="midnightblue" stroke="midnightblue" points="745,-20.53 734.45,-19.52 742.07,-26.88 745,-20.53"/>
</g>
<!-- Node14&#45;&gt;Node13 -->
<g id="edge17" class="edge">
<title>Node14&#45;&gt;Node13</title>
<path fill="none" stroke="midnightblue" d="M831.35,-56.08C830.02,-48.93 828.12,-38.64 826.46,-29.69"/>
<polygon fill="midnightblue" stroke="midnightblue" points="829.88,-28.95 824.62,-19.75 823,-30.22 829.88,-28.95"/>
</g>
<!-- Node16&#45;&gt;Node8 -->
<g id="edge21" class="edge">
<title>Node16&#45;&gt;Node8</title>
<path fill="none" stroke="midnightblue" d="M512.38,-224.44C549.92,-215.1 610.13,-200.12 651.07,-189.93"/>
<polygon fill="midnightblue" stroke="midnightblue" points="651.92,-193.33 660.78,-187.52 650.23,-186.53 651.92,-193.33"/>
</g>
<!-- Node17 -->
<g id="node17" class="node">
<title>Node17</title>
<g id="a_node17"><a xlink:href="_none_8h.html" target="_top" xlink:title=" ">
<polygon fill="white" stroke="black" points="347.5,-168.5 347.5,-187.5 460.5,-187.5 460.5,-168.5 347.5,-168.5"/>
<text text-anchor="middle" x="404" y="-175.5" font-family="Helvetica,sans-Serif" font-size="10.00">engine/actions/None.h</text>
</a>
</g>
</g>
<!-- Node16&#45;&gt;Node17 -->
<g id="edge22" class="edge">
<title>Node16&#45;&gt;Node17</title>
<path fill="none" stroke="midnightblue" d="M466.11,-224.32C454.85,-216.11 437.71,-203.6 424.29,-193.81"/>
<polygon fill="midnightblue" stroke="midnightblue" points="426.25,-190.9 416.11,-187.83 422.12,-196.56 426.25,-190.9"/>
</g>
<!-- Node18 -->
<g id="node18" class="node">
<title>Node18</title>
<g id="a_node18"><a xlink:title=" ">
<polygon fill="white" stroke="#bfbfbf" points="196,-168.5 196,-187.5 240,-187.5 240,-168.5 196,-168.5"/>
<text text-anchor="middle" x="218" y="-175.5" font-family="Helvetica,sans-Serif" font-size="10.00">vector</text>
</a>
</g>
</g>
<!-- Node16&#45;&gt;Node18 -->
<g id="edge24" class="edge">
<title>Node16&#45;&gt;Node18</title>
<path fill="none" stroke="midnightblue" d="M427.69,-224.44C383.29,-216.58 316.64,-204.07 250.1,-188.11"/>
<polygon fill="midnightblue" stroke="midnightblue" points="250.83,-184.68 240.29,-185.73 249.18,-191.48 250.83,-184.68"/>
</g>
<!-- Node19 -->
<g id="node19" class="node">
<title>Node19</title>
<g id="a_node19"><a xlink:title=" ">
<polygon fill="white" stroke="#bfbfbf" points="258.5,-168.5 258.5,-187.5 329.5,-187.5 329.5,-168.5 258.5,-168.5"/>
<text text-anchor="middle" x="294" y="-175.5" font-family="Helvetica,sans-Serif" font-size="10.00">sys/socket.h</text>
</a>
</g>
</g>
<!-- Node16&#45;&gt;Node19 -->
<g id="edge25" class="edge">
<title>Node16&#45;&gt;Node19</title>
<path fill="none" stroke="midnightblue" d="M448.84,-224.44C417.49,-215.24 367.47,-200.56 332.8,-190.39"/>
<polygon fill="midnightblue" stroke="midnightblue" points="333.6,-186.97 323.02,-187.52 331.63,-193.69 333.6,-186.97"/>
</g>
<!-- Node20 -->
<g id="node20" class="node">
<title>Node20</title>
<g id="a_node20"><a xlink:title=" ">
<polygon fill="white" stroke="#bfbfbf" points="479,-168.5 479,-187.5 543,-187.5 543,-168.5 479,-168.5"/>
<text text-anchor="middle" x="511" y="-175.5" font-family="Helvetica,sans-Serif" font-size="10.00">netinet/in.h</text>
</a>
</g>
</g>
<!-- Node16&#45;&gt;Node20 -->
<g id="edge26" class="edge">
<title>Node16&#45;&gt;Node20</title>
<path fill="none" stroke="midnightblue" d="M483.45,-224.08C488.01,-216.61 494.67,-205.72 500.29,-196.52"/>
<polygon fill="midnightblue" stroke="midnightblue" points="503.42,-198.11 505.65,-187.75 497.45,-194.46 503.42,-198.11"/>
</g>
<!-- Node21 -->
<g id="node21" class="node">
<title>Node21</title>
<g id="a_node21"><a xlink:title=" ">
<polygon fill="white" stroke="#bfbfbf" points="561,-168.5 561,-187.5 623,-187.5 623,-168.5 561,-168.5"/>
<text text-anchor="middle" x="592" y="-175.5" font-family="Helvetica,sans-Serif" font-size="10.00">arpa/inet.h</text>
</a>
</g>
</g>
<!-- Node16&#45;&gt;Node21 -->
<g id="edge27" class="edge">
<title>Node16&#45;&gt;Node21</title>
<path fill="none" stroke="midnightblue" d="M496.06,-224.44C514.57,-215.68 543.58,-201.94 564.86,-191.86"/>
<polygon fill="midnightblue" stroke="midnightblue" points="566.48,-194.96 574.02,-187.52 563.49,-188.63 566.48,-194.96"/>
</g>
<!-- Node17&#45;&gt;Node3 -->
<g id="edge23" class="edge">
<title>Node17&#45;&gt;Node3</title>
<path fill="none" stroke="midnightblue" d="M385.3,-168.44C366.06,-159.64 335.85,-145.81 313.8,-135.72"/>
<polygon fill="midnightblue" stroke="midnightblue" points="315.16,-132.5 304.61,-131.52 312.25,-138.86 315.16,-132.5"/>
</g>
<!-- Node23&#45;&gt;Node8 -->
<g id="edge30" class="edge">
<title>Node23&#45;&gt;Node8</title>
<path fill="none" stroke="midnightblue" d="M695,-280.34C695,-259.62 695,-221.02 695,-197.9"/>
<polygon fill="midnightblue" stroke="midnightblue" points="698.5,-197.67 695,-187.67 691.5,-197.67 698.5,-197.67"/>
</g>
</g>
</svg>
