<?xml version="1.0" encoding="UTF-8" standalone="no"?>
<!DOCTYPE svg PUBLIC "-//W3C//DTD SVG 1.1//EN"
 "http://www.w3.org/Graphics/SVG/1.1/DTD/svg11.dtd">
<!-- Generated by graphviz version 2.47.1 (20210421.1823)
 -->
<!-- Title: include/GameLogic/Units/Factory.h Pages: 1 -->
<svg width="1614pt" height="610pt"
 viewBox="0.00 0.00 1614.00 610.00" xmlns="http://www.w3.org/2000/svg" xmlns:xlink="http://www.w3.org/1999/xlink">
<g id="graph0" class="graph" transform="scale(1 1) rotate(0) translate(4 606)">
<title>include/GameLogic/Units/Factory.h</title>
<polygon fill="white" stroke="transparent" points="-4,4 -4,-606 1610,-606 1610,4 -4,4"/>
<!-- Node1 -->
<g id="node1" class="node">
<title>Node1</title>
<g id="a_node1"><a xlink:title=" ">
<polygon fill="#bfbfbf" stroke="black" points="957.5,-571.5 957.5,-601.5 1084.5,-601.5 1084.5,-571.5 957.5,-571.5"/>
<text text-anchor="start" x="965.5" y="-589.5" font-family="Helvetica,sans-Serif" font-size="10.00">include/GameLogic/Units</text>
<text text-anchor="middle" x="1021" y="-578.5" font-family="Helvetica,sans-Serif" font-size="10.00">/Factory.h</text>
</a>
</g>
</g>
<!-- Node2 -->
<g id="node2" class="node">
<title>Node2</title>
<g id="a_node2"><a xlink:title=" ">
<polygon fill="white" stroke="#bfbfbf" points="259.5,-168.5 259.5,-187.5 300.5,-187.5 300.5,-168.5 259.5,-168.5"/>
<text text-anchor="middle" x="280" y="-175.5" font-family="Helvetica,sans-Serif" font-size="10.00">string</text>
</a>
</g>
</g>
<!-- Node1&#45;&gt;Node2 -->
<g id="edge1" class="edge">
<title>Node1&#45;&gt;Node2</title>
<path fill="none" stroke="midnightblue" d="M957.13,-585.01C733.61,-582.48 0,-566.78 0,-470 0,-470 0,-470 0,-412 0,-291.08 118.03,-317.55 214,-244 233.24,-229.26 252.7,-209.34 265.46,-195.46"/>
<polygon fill="midnightblue" stroke="midnightblue" points="268.36,-197.46 272.47,-187.69 263.17,-192.77 268.36,-197.46"/>
</g>
<!-- Node3 -->
<g id="node3" class="node">
<title>Node3</title>
<g id="a_node3"><a xlink:href="_cell_8h.html" target="_top" xlink:title=" ">
<polygon fill="white" stroke="black" points="670.5,-515.5 670.5,-534.5 711.5,-534.5 711.5,-515.5 670.5,-515.5"/>
<text text-anchor="middle" x="691" y="-522.5" font-family="Helvetica,sans-Serif" font-size="10.00">Cell.h</text>
</a>
</g>
</g>
<!-- Node1&#45;&gt;Node3 -->
<g id="edge2" class="edge">
<title>Node1&#45;&gt;Node3</title>
<path fill="none" stroke="midnightblue" d="M957.37,-574.03C886.61,-561.27 775.24,-541.19 721.72,-531.54"/>
<polygon fill="midnightblue" stroke="midnightblue" points="722.28,-528.08 711.81,-529.75 721.04,-534.97 722.28,-528.08"/>
</g>
<!-- Node7 -->
<g id="node7" class="node">
<title>Node7</title>
<g id="a_node7"><a xlink:href="game_object_8h.html" target="_top" xlink:title=" ">
<polygon fill="white" stroke="black" points="1158.5,-168.5 1158.5,-187.5 1235.5,-187.5 1235.5,-168.5 1158.5,-168.5"/>
<text text-anchor="middle" x="1197" y="-175.5" font-family="Helvetica,sans-Serif" font-size="10.00">gameObject.h</text>
</a>
</g>
</g>
<!-- Node1&#45;&gt;Node7 -->
<g id="edge88" class="edge">
<title>Node1&#45;&gt;Node7</title>
<path fill="none" stroke="midnightblue" d="M1084.72,-586.21C1236.34,-586.19 1606,-575.33 1606,-470 1606,-470 1606,-470 1606,-289 1606,-240.73 1563.64,-242.36 1519,-224 1427.64,-186.42 1310.71,-179.19 1245.86,-178.38"/>
<polygon fill="midnightblue" stroke="midnightblue" points="1245.56,-174.88 1235.53,-178.3 1245.5,-181.88 1245.56,-174.88"/>
</g>
<!-- Node23 -->
<g id="node23" class="node">
<title>Node23</title>
<g id="a_node23"><a xlink:href="_unit_8h.html" target="_top" xlink:title=" ">
<polygon fill="white" stroke="black" points="66,-342 66,-361 188,-361 188,-342 66,-342"/>
<text text-anchor="middle" x="127" y="-349" font-family="Helvetica,sans-Serif" font-size="10.00">GameLogic/Units/Unit.h</text>
</a>
</g>
</g>
<!-- Node1&#45;&gt;Node23 -->
<g id="edge87" class="edge">
<title>Node1&#45;&gt;Node23</title>
<path fill="none" stroke="midnightblue" d="M957.33,-584.29C787.14,-579.98 326.23,-560.83 202,-479 162.85,-453.21 141.28,-399.33 132.21,-370.93"/>
<polygon fill="midnightblue" stroke="midnightblue" points="135.48,-369.66 129.24,-361.09 128.78,-371.68 135.48,-369.66"/>
</g>
<!-- Node4 -->
<g id="node4" class="node">
<title>Node4</title>
<g id="a_node4"><a xlink:title=" ">
<polygon fill="white" stroke="#bfbfbf" points="767.5,-342 767.5,-361 802.5,-361 802.5,-342 767.5,-342"/>
<text text-anchor="middle" x="785" y="-349" font-family="Helvetica,sans-Serif" font-size="10.00">map</text>
</a>
</g>
</g>
<!-- Node3&#45;&gt;Node4 -->
<g id="edge3" class="edge">
<title>Node3&#45;&gt;Node4</title>
<path fill="none" stroke="midnightblue" d="M695.79,-515.26C710.56,-488.31 755.61,-406.12 775.45,-369.92"/>
<polygon fill="midnightblue" stroke="midnightblue" points="778.59,-371.47 780.33,-361.02 772.45,-368.11 778.59,-371.47"/>
</g>
<!-- Node5 -->
<g id="node5" class="node">
<title>Node5</title>
<g id="a_node5"><a xlink:title=" ">
<polygon fill="white" stroke="#bfbfbf" points="366,-459.5 366,-478.5 396,-478.5 396,-459.5 366,-459.5"/>
<text text-anchor="middle" x="381" y="-466.5" font-family="Helvetica,sans-Serif" font-size="10.00">set</text>
</a>
</g>
</g>
<!-- Node3&#45;&gt;Node5 -->
<g id="edge4" class="edge">
<title>Node3&#45;&gt;Node5</title>
<path fill="none" stroke="midnightblue" d="M670.36,-521.71C623.6,-516.32 506.21,-501.51 410,-479 408.73,-478.7 407.43,-478.38 406.13,-478.04"/>
<polygon fill="midnightblue" stroke="midnightblue" points="406.82,-474.59 396.24,-475.18 404.87,-481.32 406.82,-474.59"/>
</g>
<!-- Node6 -->
<g id="node6" class="node">
<title>Node6</title>
<g id="a_node6"><a xlink:href="gameplay_clickable_game_object_8h.html" target="_top" xlink:title=" ">
<polygon fill="white" stroke="black" points="620.5,-336.5 620.5,-366.5 749.5,-366.5 749.5,-336.5 620.5,-336.5"/>
<text text-anchor="start" x="628.5" y="-354.5" font-family="Helvetica,sans-Serif" font-size="10.00">engine/gameplayClickable</text>
<text text-anchor="middle" x="685" y="-343.5" font-family="Helvetica,sans-Serif" font-size="10.00">GameObject.h</text>
</a>
</g>
</g>
<!-- Node3&#45;&gt;Node6 -->
<g id="edge5" class="edge">
<title>Node3&#45;&gt;Node6</title>
<path fill="none" stroke="midnightblue" d="M690.69,-515.26C689.81,-489.97 687.22,-416.08 685.86,-377.15"/>
<polygon fill="midnightblue" stroke="midnightblue" points="689.35,-376.59 685.5,-366.72 682.35,-376.84 689.35,-376.59"/>
</g>
<!-- Node9 -->
<g id="node9" class="node">
<title>Node9</title>
<g id="a_node9"><a xlink:href="config_8h.html" target="_top" xlink:title=" ">
<polygon fill="white" stroke="black" points="311.5,-112.5 311.5,-131.5 392.5,-131.5 392.5,-112.5 311.5,-112.5"/>
<text text-anchor="middle" x="352" y="-119.5" font-family="Helvetica,sans-Serif" font-size="10.00">engine/config.h</text>
</a>
</g>
</g>
<!-- Node3&#45;&gt;Node9 -->
<g id="edge25" class="edge">
<title>Node3&#45;&gt;Node9</title>
<path fill="none" stroke="midnightblue" d="M670.15,-522.98C605.02,-519.54 406.33,-506.95 349,-479 285.16,-447.87 262.47,-432.5 235,-367 229.67,-354.29 227.49,-347.55 235,-336 256.47,-302.97 291.33,-330.72 316,-300 353.75,-252.99 355.1,-176.75 353.44,-141.71"/>
<polygon fill="midnightblue" stroke="midnightblue" points="356.92,-141.27 352.8,-131.5 349.93,-141.7 356.92,-141.27"/>
</g>
<!-- Node12 -->
<g id="node12" class="node">
<title>Node12</title>
<g id="a_node12"><a xlink:href="_facade_8h.html" target="_top" xlink:title=" ">
<polygon fill="white" stroke="black" points="433,-0.5 433,-19.5 489,-19.5 489,-0.5 433,-0.5"/>
<text text-anchor="middle" x="461" y="-7.5" font-family="Helvetica,sans-Serif" font-size="10.00">Facade.h</text>
</a>
</g>
</g>
<!-- Node3&#45;&gt;Node12 -->
<g id="edge26" class="edge">
<title>Node3&#45;&gt;Node12</title>
<path fill="none" stroke="midnightblue" d="M670.24,-523.75C612,-522.58 442.6,-516.01 308,-479 167.01,-440.23 38,-437.22 38,-291 38,-291 38,-291 38,-121 38,-41.86 318.82,-18.66 422.84,-12.78"/>
<polygon fill="midnightblue" stroke="midnightblue" points="423.12,-16.27 432.92,-12.23 422.74,-9.28 423.12,-16.27"/>
</g>
<!-- Node15 -->
<g id="node15" class="node">
<title>Node15</title>
<g id="a_node15"><a xlink:title=" ">
<polygon fill="white" stroke="#bfbfbf" points="657,-56.5 657,-75.5 711,-75.5 711,-56.5 657,-56.5"/>
<text text-anchor="middle" x="684" y="-63.5" font-family="Helvetica,sans-Serif" font-size="10.00">iostream</text>
</a>
</g>
</g>
<!-- Node3&#45;&gt;Node15 -->
<g id="edge50" class="edge">
<title>Node3&#45;&gt;Node15</title>
<path fill="none" stroke="midnightblue" d="M685.77,-515.46C671.8,-492.35 633.2,-426.31 611,-367 598.8,-334.39 592,-325.82 592,-291 592,-291 592,-291 592,-177 592,-134.5 632.91,-99.77 660.17,-81.34"/>
<polygon fill="midnightblue" stroke="midnightblue" points="662.33,-84.11 668.81,-75.73 658.51,-78.24 662.33,-84.11"/>
</g>
<!-- Node17 -->
<g id="node17" class="node">
<title>Node17</title>
<g id="a_node17"><a xlink:href="cellgen_8h.html" target="_top" xlink:title=" ">
<polygon fill="white" stroke="black" points="845.5,-403.5 845.5,-422.5 916.5,-422.5 916.5,-403.5 845.5,-403.5"/>
<text text-anchor="middle" x="881" y="-410.5" font-family="Helvetica,sans-Serif" font-size="10.00">util/cellgen.h</text>
</a>
</g>
</g>
<!-- Node3&#45;&gt;Node17 -->
<g id="edge16" class="edge">
<title>Node3&#45;&gt;Node17</title>
<path fill="none" stroke="midnightblue" d="M706.18,-515.43C722.1,-506.41 747.86,-491.79 770,-479 800.29,-461.51 835.06,-441.09 857.5,-427.87"/>
<polygon fill="midnightblue" stroke="midnightblue" points="859.47,-430.77 866.31,-422.68 855.92,-424.74 859.47,-430.77"/>
</g>
<!-- Node20 -->
<g id="node20" class="node">
<title>Node20</title>
<g id="a_node20"><a xlink:href="_all_flags_8h.html" target="_top" xlink:title=" ">
<polygon fill="white" stroke="black" points="625.5,-280.5 625.5,-299.5 684.5,-299.5 684.5,-280.5 625.5,-280.5"/>
<text text-anchor="middle" x="655" y="-287.5" font-family="Helvetica,sans-Serif" font-size="10.00">AllFlags.h</text>
</a>
</g>
</g>
<!-- Node3&#45;&gt;Node20 -->
<g id="edge20" class="edge">
<title>Node3&#45;&gt;Node20</title>
<path fill="none" stroke="midnightblue" d="M711.55,-522.91C763.54,-519.74 898.43,-508.76 930,-479 977.12,-434.57 1000.3,-385.04 958,-336 924.48,-297.14 769.27,-291.29 694.92,-290.77"/>
<polygon fill="midnightblue" stroke="midnightblue" points="694.58,-287.27 684.56,-290.73 694.55,-294.27 694.58,-287.27"/>
</g>
<!-- Node22 -->
<g id="node22" class="node">
<title>Node22</title>
<g id="a_node22"><a xlink:href="_squad_8h.html" target="_top" xlink:title=" ">
<polygon fill="white" stroke="black" points="382,-403.5 382,-422.5 434,-422.5 434,-403.5 382,-403.5"/>
<text text-anchor="middle" x="408" y="-410.5" font-family="Helvetica,sans-Serif" font-size="10.00">Squad.h</text>
</a>
</g>
</g>
<!-- Node3&#45;&gt;Node22 -->
<g id="edge27" class="edge">
<title>Node3&#45;&gt;Node22</title>
<path fill="none" stroke="midnightblue" d="M670.44,-524.49C602.67,-525.89 389.98,-527.01 348,-479 333.06,-461.92 356.07,-441.12 377.94,-427.73"/>
<polygon fill="midnightblue" stroke="midnightblue" points="379.88,-430.65 386.82,-422.65 376.4,-424.58 379.88,-430.65"/>
</g>
<!-- Node29 -->
<g id="node29" class="node">
<title>Node29</title>
<g id="a_node29"><a xlink:href="_player_8h.html" target="_top" xlink:title=" ">
<polygon fill="white" stroke="black" points="474.5,-342 474.5,-361 525.5,-361 525.5,-342 474.5,-342"/>
<text text-anchor="middle" x="500" y="-349" font-family="Helvetica,sans-Serif" font-size="10.00">Player.h</text>
</a>
</g>
</g>
<!-- Node3&#45;&gt;Node29 -->
<g id="edge86" class="edge">
<title>Node3&#45;&gt;Node29</title>
<path fill="none" stroke="midnightblue" d="M670.43,-522.77C622.32,-519.43 504.73,-508.36 481,-479 455.5,-447.45 476.06,-396.52 489.94,-369.93"/>
<polygon fill="midnightblue" stroke="midnightblue" points="493.08,-371.47 494.82,-361.02 486.94,-368.11 493.08,-371.47"/>
</g>
<!-- Node30 -->
<g id="node30" class="node">
<title>Node30</title>
<g id="a_node30"><a xlink:href="geometry_8h.html" target="_top" xlink:title=" ">
<polygon fill="white" stroke="black" points="841,-459.5 841,-478.5 921,-478.5 921,-459.5 841,-459.5"/>
<text text-anchor="middle" x="881" y="-466.5" font-family="Helvetica,sans-Serif" font-size="10.00">util/geometry.h</text>
</a>
</g>
</g>
<!-- Node3&#45;&gt;Node30 -->
<g id="edge51" class="edge">
<title>Node3&#45;&gt;Node30</title>
<path fill="none" stroke="midnightblue" d="M711.7,-518.12C742.66,-509.32 801.63,-492.56 841.14,-481.33"/>
<polygon fill="midnightblue" stroke="midnightblue" points="842.33,-484.63 850.99,-478.53 840.41,-477.9 842.33,-484.63"/>
</g>
<!-- Node31 -->
<g id="node31" class="node">
<title>Node31</title>
<g id="a_node31"><a xlink:href="_none_8h.html" target="_top" xlink:title=" ">
<polygon fill="white" stroke="black" points="938.5,-168.5 938.5,-187.5 1051.5,-187.5 1051.5,-168.5 938.5,-168.5"/>
<text text-anchor="middle" x="995" y="-175.5" font-family="Helvetica,sans-Serif" font-size="10.00">engine/actions/None.h</text>
</a>
</g>
</g>
<!-- Node3&#45;&gt;Node31 -->
<g id="edge54" class="edge">
<title>Node3&#45;&gt;Node31</title>
<path fill="none" stroke="midnightblue" d="M711.66,-522.84C793.57,-517.68 1091,-493.49 1091,-414 1091,-414 1091,-414 1091,-350.5 1091,-286.18 1016.38,-303.93 993,-244 987.23,-229.21 988.4,-211.05 990.63,-197.69"/>
<polygon fill="midnightblue" stroke="midnightblue" points="994.09,-198.27 992.62,-187.78 987.22,-196.89 994.09,-198.27"/>
</g>
<!-- Node32 -->
<g id="node32" class="node">
<title>Node32</title>
<g id="a_node32"><a xlink:href="game_controller_8h.html" target="_top" xlink:title=" ">
<polygon fill="white" stroke="black" points="1119.5,-280.5 1119.5,-299.5 1240.5,-299.5 1240.5,-280.5 1119.5,-280.5"/>
<text text-anchor="middle" x="1180" y="-287.5" font-family="Helvetica,sans-Serif" font-size="10.00">engine/gameController.h</text>
</a>
</g>
</g>
<!-- Node3&#45;&gt;Node32 -->
<g id="edge56" class="edge">
<title>Node3&#45;&gt;Node32</title>
<path fill="none" stroke="midnightblue" d="M711.51,-524.47C786.16,-525.79 1042.25,-526.68 1105,-479 1160.02,-437.19 1174.77,-348.68 1178.65,-309.88"/>
<polygon fill="midnightblue" stroke="midnightblue" points="1182.17,-309.81 1179.54,-299.55 1175.19,-309.21 1182.17,-309.81"/>
</g>
<!-- Node36 -->
<g id="node36" class="node">
<title>Node36</title>
<g id="a_node36"><a xlink:href="_set_squad_path_8h.html" target="_top" xlink:title=" ">
<polygon fill="white" stroke="black" points="490.5,-459.5 490.5,-478.5 643.5,-478.5 643.5,-459.5 490.5,-459.5"/>
<text text-anchor="middle" x="567" y="-466.5" font-family="Helvetica,sans-Serif" font-size="10.00">engine/actions/SetSquadPath.h</text>
</a>
</g>
</g>
<!-- Node3&#45;&gt;Node36 -->
<g id="edge65" class="edge">
<title>Node3&#45;&gt;Node36</title>
<path fill="none" stroke="midnightblue" d="M670.34,-517.05C648.26,-508.43 613.72,-493.55 590.62,-482.83"/>
<polygon fill="midnightblue" stroke="midnightblue" points="592.03,-479.62 581.49,-478.52 589.04,-485.96 592.03,-479.62"/>
</g>
<!-- Node37 -->
<g id="node37" class="node">
<title>Node37</title>
<g id="a_node37"><a xlink:href="_all_units_8h.html" target="_top" xlink:title=" ">
<polygon fill="white" stroke="black" points="1220.5,-403.5 1220.5,-422.5 1279.5,-422.5 1279.5,-403.5 1220.5,-403.5"/>
<text text-anchor="middle" x="1250" y="-410.5" font-family="Helvetica,sans-Serif" font-size="10.00">AllUnits.h</text>
</a>
</g>
</g>
<!-- Node3&#45;&gt;Node37 -->
<g id="edge69" class="edge">
<title>Node3&#45;&gt;Node37</title>
<path fill="none" stroke="midnightblue" d="M711.73,-523.16C789.16,-519.81 1061.2,-506.34 1143,-479 1176.76,-467.72 1211.11,-444.27 1231.49,-428.84"/>
<polygon fill="midnightblue" stroke="midnightblue" points="1233.8,-431.47 1239.57,-422.58 1229.52,-425.94 1233.8,-431.47"/>
</g>
<!-- Node38 -->
<g id="node38" class="node">
<title>Node38</title>
<g id="a_node38"><a xlink:href="_all_squad_templates_8h.html" target="_top" xlink:title=" ">
<polygon fill="white" stroke="black" points="1195.5,-459.5 1195.5,-478.5 1304.5,-478.5 1304.5,-459.5 1195.5,-459.5"/>
<text text-anchor="middle" x="1250" y="-466.5" font-family="Helvetica,sans-Serif" font-size="10.00">AllSquadTemplates.h</text>
</a>
</g>
</g>
<!-- Node3&#45;&gt;Node38 -->
<g id="edge71" class="edge">
<title>Node3&#45;&gt;Node38</title>
<path fill="none" stroke="midnightblue" d="M711.57,-522.39C778.97,-517.07 999.3,-499.19 1181,-479 1182.46,-478.84 1183.94,-478.67 1185.44,-478.5"/>
<polygon fill="midnightblue" stroke="midnightblue" points="1185.89,-481.97 1195.41,-477.32 1185.07,-475.02 1185.89,-481.97"/>
</g>
<!-- Node6&#45;&gt;Node7 -->
<g id="edge6" class="edge">
<title>Node6&#45;&gt;Node7</title>
<path fill="none" stroke="midnightblue" d="M749.79,-336.48C871.61,-309.96 1124.16,-254.2 1141,-244 1160.44,-232.23 1176.6,-211.4 1186.48,-196.49"/>
<polygon fill="midnightblue" stroke="midnightblue" points="1189.65,-198.02 1192.04,-187.7 1183.74,-194.28 1189.65,-198.02"/>
</g>
<!-- Node8 -->
<g id="node8" class="node">
<title>Node8</title>
<g id="a_node8"><a xlink:title=" ">
<polygon fill="white" stroke="#bfbfbf" points="1327.5,-112.5 1327.5,-131.5 1356.5,-131.5 1356.5,-112.5 1327.5,-112.5"/>
<text text-anchor="middle" x="1342" y="-119.5" font-family="Helvetica,sans-Serif" font-size="10.00">list</text>
</a>
</g>
</g>
<!-- Node7&#45;&gt;Node8 -->
<g id="edge7" class="edge">
<title>Node7&#45;&gt;Node8</title>
<path fill="none" stroke="midnightblue" d="M1219.98,-168.44C1246.6,-158.53 1290.29,-142.26 1317.54,-132.11"/>
<polygon fill="midnightblue" stroke="midnightblue" points="1318.95,-135.32 1327.1,-128.55 1316.51,-128.76 1318.95,-135.32"/>
</g>
<!-- Node7&#45;&gt;Node9 -->
<g id="edge8" class="edge">
<title>Node7&#45;&gt;Node9</title>
<path fill="none" stroke="midnightblue" d="M1158.34,-169.17C1155.52,-168.73 1152.72,-168.34 1150,-168 869.37,-133.37 529.89,-125.36 403.05,-123.53"/>
<polygon fill="midnightblue" stroke="midnightblue" points="402.91,-120.03 392.86,-123.39 402.81,-127.03 402.91,-120.03"/>
</g>
<!-- Node14 -->
<g id="node14" class="node">
<title>Node14</title>
<g id="a_node14"><a xlink:href="engine_2_action_8h.html" target="_top" xlink:title=" ">
<polygon fill="white" stroke="black" points="720.5,-112.5 720.5,-131.5 803.5,-131.5 803.5,-112.5 720.5,-112.5"/>
<text text-anchor="middle" x="762" y="-119.5" font-family="Helvetica,sans-Serif" font-size="10.00">engine/Action.h</text>
</a>
</g>
</g>
<!-- Node7&#45;&gt;Node14 -->
<g id="edge13" class="edge">
<title>Node7&#45;&gt;Node14</title>
<path fill="none" stroke="midnightblue" d="M1158.31,-169.36C1155.5,-168.87 1152.71,-168.42 1150,-168 1030.13,-149.6 888.39,-134.95 813.83,-127.78"/>
<polygon fill="midnightblue" stroke="midnightblue" points="814.05,-124.29 803.76,-126.82 813.39,-131.26 814.05,-124.29"/>
</g>
<!-- Node10 -->
<g id="node10" class="node">
<title>Node10</title>
<g id="a_node10"><a xlink:href="_s_f_m_l_facade_8h.html" target="_top" xlink:title=" ">
<polygon fill="white" stroke="black" points="512.5,-56.5 512.5,-75.5 635.5,-75.5 635.5,-56.5 512.5,-56.5"/>
<text text-anchor="middle" x="574" y="-63.5" font-family="Helvetica,sans-Serif" font-size="10.00">graphics/SFMLFacade.h</text>
</a>
</g>
</g>
<!-- Node9&#45;&gt;Node10 -->
<g id="edge9" class="edge">
<title>Node9&#45;&gt;Node10</title>
<path fill="none" stroke="midnightblue" d="M387.18,-112.44C425.58,-103.1 487.18,-88.12 529.06,-77.93"/>
<polygon fill="midnightblue" stroke="midnightblue" points="530.1,-81.28 538.99,-75.52 528.44,-74.48 530.1,-81.28"/>
</g>
<!-- Node13 -->
<g id="node13" class="node">
<title>Node13</title>
<g id="a_node13"><a xlink:title=" ">
<polygon fill="white" stroke="#bfbfbf" points="303,-56.5 303,-75.5 401,-75.5 401,-56.5 303,-56.5"/>
<text text-anchor="middle" x="352" y="-63.5" font-family="Helvetica,sans-Serif" font-size="10.00">nlohmann/json.hpp</text>
</a>
</g>
</g>
<!-- Node9&#45;&gt;Node13 -->
<g id="edge12" class="edge">
<title>Node9&#45;&gt;Node13</title>
<path fill="none" stroke="midnightblue" d="M352,-112.08C352,-105.01 352,-94.86 352,-85.99"/>
<polygon fill="midnightblue" stroke="midnightblue" points="355.5,-85.75 352,-75.75 348.5,-85.75 355.5,-85.75"/>
</g>
<!-- Node11 -->
<g id="node11" class="node">
<title>Node11</title>
<g id="a_node11"><a xlink:title=" ">
<polygon fill="white" stroke="#bfbfbf" points="522,-0.5 522,-19.5 626,-19.5 626,-0.5 522,-0.5"/>
<text text-anchor="middle" x="574" y="-7.5" font-family="Helvetica,sans-Serif" font-size="10.00">SFML/Graphics.hpp</text>
</a>
</g>
</g>
<!-- Node10&#45;&gt;Node11 -->
<g id="edge10" class="edge">
<title>Node10&#45;&gt;Node11</title>
<path fill="none" stroke="midnightblue" d="M574,-56.08C574,-49.01 574,-38.86 574,-29.99"/>
<polygon fill="midnightblue" stroke="midnightblue" points="577.5,-29.75 574,-19.75 570.5,-29.75 577.5,-29.75"/>
</g>
<!-- Node10&#45;&gt;Node12 -->
<g id="edge11" class="edge">
<title>Node10&#45;&gt;Node12</title>
<path fill="none" stroke="midnightblue" d="M556.09,-56.44C537.75,-47.68 508.99,-33.94 487.91,-23.86"/>
<polygon fill="midnightblue" stroke="midnightblue" points="489.35,-20.67 478.82,-19.52 486.33,-26.99 489.35,-20.67"/>
</g>
<!-- Node14&#45;&gt;Node15 -->
<g id="edge14" class="edge">
<title>Node14&#45;&gt;Node15</title>
<path fill="none" stroke="midnightblue" d="M749.47,-112.32C737.41,-103.98 718.97,-91.21 704.73,-81.35"/>
<polygon fill="midnightblue" stroke="midnightblue" points="706.72,-78.47 696.5,-75.65 702.73,-84.22 706.72,-78.47"/>
</g>
<!-- Node16 -->
<g id="node16" class="node">
<title>Node16</title>
<g id="a_node16"><a xlink:title=" ">
<polygon fill="white" stroke="#bfbfbf" points="734.5,-56.5 734.5,-75.5 785.5,-75.5 785.5,-56.5 734.5,-56.5"/>
<text text-anchor="middle" x="760" y="-63.5" font-family="Helvetica,sans-Serif" font-size="10.00">memory</text>
</a>
</g>
</g>
<!-- Node14&#45;&gt;Node16 -->
<g id="edge15" class="edge">
<title>Node14&#45;&gt;Node16</title>
<path fill="none" stroke="midnightblue" d="M761.67,-112.08C761.41,-105.01 761.03,-94.86 760.7,-85.99"/>
<polygon fill="midnightblue" stroke="midnightblue" points="764.19,-85.61 760.32,-75.75 757.2,-85.87 764.19,-85.61"/>
</g>
<!-- Node17&#45;&gt;Node4 -->
<g id="edge18" class="edge">
<title>Node17&#45;&gt;Node4</title>
<path fill="none" stroke="midnightblue" d="M867.25,-403.48C851.63,-393.8 825.94,-377.87 807.42,-366.39"/>
<polygon fill="midnightblue" stroke="midnightblue" points="809.07,-363.3 798.73,-361.01 805.38,-369.25 809.07,-363.3"/>
</g>
<!-- Node18 -->
<g id="node18" class="node">
<title>Node18</title>
<g id="a_node18"><a xlink:title=" ">
<polygon fill="white" stroke="#bfbfbf" points="876,-168.5 876,-187.5 920,-187.5 920,-168.5 876,-168.5"/>
<text text-anchor="middle" x="898" y="-175.5" font-family="Helvetica,sans-Serif" font-size="10.00">vector</text>
</a>
</g>
</g>
<!-- Node17&#45;&gt;Node18 -->
<g id="edge17" class="edge">
<title>Node17&#45;&gt;Node18</title>
<path fill="none" stroke="midnightblue" d="M909.37,-403.49C926.75,-396.65 947.6,-385.13 958,-367 977.78,-332.53 932.01,-270.32 922,-244 916.05,-228.36 909.49,-210.53 904.73,-197.51"/>
<polygon fill="midnightblue" stroke="midnightblue" points="907.92,-196.05 901.21,-187.85 901.34,-198.45 907.92,-196.05"/>
</g>
<!-- Node19 -->
<g id="node19" class="node">
<title>Node19</title>
<g id="a_node19"><a xlink:title=" ">
<polygon fill="white" stroke="#bfbfbf" points="821,-342 821,-361 949,-361 949,-342 821,-342"/>
<text text-anchor="middle" x="885" y="-349" font-family="Helvetica,sans-Serif" font-size="10.00">scanline_triangulation.hpp</text>
</a>
</g>
</g>
<!-- Node17&#45;&gt;Node19 -->
<g id="edge19" class="edge">
<title>Node17&#45;&gt;Node19</title>
<path fill="none" stroke="midnightblue" d="M881.57,-403.48C882.14,-395.08 883.02,-381.98 883.75,-371.16"/>
<polygon fill="midnightblue" stroke="midnightblue" points="887.25,-371.22 884.43,-361.01 880.26,-370.75 887.25,-371.22"/>
</g>
<!-- Node20&#45;&gt;Node16 -->
<g id="edge24" class="edge">
<title>Node20&#45;&gt;Node16</title>
<path fill="none" stroke="midnightblue" d="M658.45,-280.44C662.03,-271.44 667.69,-256.82 672,-244 691.49,-186.01 678.63,-163.91 711,-112 718.28,-100.33 729.39,-89.77 739.2,-81.83"/>
<polygon fill="midnightblue" stroke="midnightblue" points="741.56,-84.43 747.34,-75.55 737.29,-78.88 741.56,-84.43"/>
</g>
<!-- Node21 -->
<g id="node21" class="node">
<title>Node21</title>
<g id="a_node21"><a xlink:href="_flag_8h.html" target="_top" xlink:title=" ">
<polygon fill="white" stroke="black" points="620.5,-224.5 620.5,-243.5 663.5,-243.5 663.5,-224.5 620.5,-224.5"/>
<text text-anchor="middle" x="642" y="-231.5" font-family="Helvetica,sans-Serif" font-size="10.00">Flag.h</text>
</a>
</g>
</g>
<!-- Node20&#45;&gt;Node21 -->
<g id="edge21" class="edge">
<title>Node20&#45;&gt;Node21</title>
<path fill="none" stroke="midnightblue" d="M652.85,-280.08C651.13,-272.93 648.65,-262.64 646.5,-253.69"/>
<polygon fill="midnightblue" stroke="midnightblue" points="649.85,-252.65 644.11,-243.75 643.04,-254.29 649.85,-252.65"/>
</g>
<!-- Node21&#45;&gt;Node2 -->
<g id="edge23" class="edge">
<title>Node21&#45;&gt;Node2</title>
<path fill="none" stroke="midnightblue" d="M620.44,-229.78C558.91,-220.61 382.32,-194.26 310.71,-183.58"/>
<polygon fill="midnightblue" stroke="midnightblue" points="310.95,-180.08 300.54,-182.06 309.92,-187 310.95,-180.08"/>
</g>
<!-- Node21&#45;&gt;Node18 -->
<g id="edge22" class="edge">
<title>Node21&#45;&gt;Node18</title>
<path fill="none" stroke="midnightblue" d="M663.83,-228.4C709.06,-218.86 813.19,-196.89 866.02,-185.75"/>
<polygon fill="midnightblue" stroke="midnightblue" points="866.8,-189.16 875.87,-183.67 865.36,-182.31 866.8,-189.16"/>
</g>
<!-- Node22&#45;&gt;Node3 -->
<g id="edge28" class="edge">
<title>Node22&#45;&gt;Node3</title>
<path fill="none" stroke="midnightblue" d="M398.56,-422.65C381.12,-435.32 349.01,-459.56 366,-479 404.54,-523.08 586.99,-525.74 660.45,-524.8"/>
<polygon fill="midnightblue" stroke="midnightblue" points="660.53,-528.3 670.47,-524.64 660.42,-521.3 660.53,-528.3"/>
</g>
<!-- Node22&#45;&gt;Node6 -->
<g id="edge41" class="edge">
<title>Node22&#45;&gt;Node6</title>
<path fill="none" stroke="midnightblue" d="M434.06,-406.4C474.04,-397.82 552,-381.07 610.47,-368.51"/>
<polygon fill="midnightblue" stroke="midnightblue" points="611.37,-371.9 620.41,-366.37 609.9,-365.05 611.37,-371.9"/>
</g>
<!-- Node22&#45;&gt;Node9 -->
<g id="edge45" class="edge">
<title>Node22&#45;&gt;Node9</title>
<path fill="none" stroke="midnightblue" d="M408,-403.49C408,-383.74 408,-333.22 408,-291 408,-291 408,-291 408,-233 408,-196.44 383.12,-159.75 366.53,-139.34"/>
<polygon fill="midnightblue" stroke="midnightblue" points="369.15,-137.02 360.02,-131.64 363.8,-141.54 369.15,-137.02"/>
</g>
<!-- Node22&#45;&gt;Node12 -->
<g id="edge46" class="edge">
<title>Node22&#45;&gt;Node12</title>
<path fill="none" stroke="midnightblue" d="M412.66,-403.48C422.81,-384.12 446,-335.04 446,-291 446,-291 446,-291 446,-121 446,-88.5 452.51,-51.1 456.95,-29.34"/>
<polygon fill="midnightblue" stroke="midnightblue" points="460.39,-30.01 459.04,-19.5 453.54,-28.56 460.39,-30.01"/>
</g>
<!-- Node22&#45;&gt;Node23 -->
<g id="edge29" class="edge">
<title>Node22&#45;&gt;Node23</title>
<path fill="none" stroke="midnightblue" d="M381.86,-407.28C333.92,-397.82 231.94,-376.34 172.47,-363.26"/>
<polygon fill="midnightblue" stroke="midnightblue" points="173.12,-359.82 162.6,-361.08 171.61,-366.65 173.12,-359.82"/>
</g>
<!-- Node28 -->
<g id="node28" class="node">
<title>Node28</title>
<g id="a_node28"><a xlink:href="_game_logic_2_squad_2_action_8h.html" target="_top" xlink:title=" ">
<polygon fill="white" stroke="black" points="244,-342 244,-361 380,-361 380,-342 244,-342"/>
<text text-anchor="middle" x="312" y="-349" font-family="Helvetica,sans-Serif" font-size="10.00">GameLogic/Squad/Action.h</text>
</a>
</g>
</g>
<!-- Node22&#45;&gt;Node28 -->
<g id="edge42" class="edge">
<title>Node22&#45;&gt;Node28</title>
<path fill="none" stroke="midnightblue" d="M389.34,-403.48C371.87,-393.93 346.33,-378.31 329.31,-366.87"/>
<polygon fill="midnightblue" stroke="midnightblue" points="331.05,-363.82 320.83,-361.01 327.07,-369.57 331.05,-363.82"/>
</g>
<!-- Node22&#45;&gt;Node29 -->
<g id="edge47" class="edge">
<title>Node22&#45;&gt;Node29</title>
<path fill="none" stroke="midnightblue" d="M421.18,-403.48C436.07,-393.84 460.54,-378.02 478.27,-366.55"/>
<polygon fill="midnightblue" stroke="midnightblue" points="480.35,-369.38 486.84,-361.01 476.55,-363.5 480.35,-369.38"/>
</g>
<!-- Node23&#45;&gt;Node9 -->
<g id="edge40" class="edge">
<title>Node23&#45;&gt;Node9</title>
<path fill="none" stroke="midnightblue" d="M121.33,-341.76C108.61,-321.01 80.04,-267.25 95,-224 105.35,-194.09 112.12,-184.72 139,-168 188.42,-137.25 255.47,-127.21 301.04,-124.1"/>
<polygon fill="midnightblue" stroke="midnightblue" points="301.51,-127.57 311.29,-123.49 301.1,-120.59 301.51,-127.57"/>
</g>
<!-- Node23&#45;&gt;Node20 -->
<g id="edge35" class="edge">
<title>Node23&#45;&gt;Node20</title>
<path fill="none" stroke="midnightblue" d="M188.08,-342.01C203.39,-339.96 219.79,-337.84 235,-336 374.48,-319.17 540.41,-302.33 615.09,-294.92"/>
<polygon fill="midnightblue" stroke="midnightblue" points="615.83,-298.36 625.44,-293.89 615.14,-291.4 615.83,-298.36"/>
</g>
<!-- Node23&#45;&gt;Node22 -->
<g id="edge34" class="edge">
<title>Node23&#45;&gt;Node22</title>
<path fill="none" stroke="midnightblue" d="M172.42,-361.08C228.03,-372.34 320.86,-391.99 371.87,-403.3"/>
<polygon fill="midnightblue" stroke="midnightblue" points="371.27,-406.76 381.79,-405.52 372.8,-399.92 371.27,-406.76"/>
</g>
<!-- Node24 -->
<g id="node24" class="node">
<title>Node24</title>
<g id="a_node24"><a xlink:title=" ">
<polygon fill="white" stroke="#bfbfbf" points="264.5,-280.5 264.5,-299.5 307.5,-299.5 307.5,-280.5 264.5,-280.5"/>
<text text-anchor="middle" x="286" y="-287.5" font-family="Helvetica,sans-Serif" font-size="10.00">cstdio</text>
</a>
</g>
</g>
<!-- Node23&#45;&gt;Node24 -->
<g id="edge30" class="edge">
<title>Node23&#45;&gt;Node24</title>
<path fill="none" stroke="midnightblue" d="M149.78,-341.98C177.36,-331.65 223.96,-314.22 254.85,-302.66"/>
<polygon fill="midnightblue" stroke="midnightblue" points="256.14,-305.91 264.28,-299.13 253.69,-299.35 256.14,-305.91"/>
</g>
<!-- Node25 -->
<g id="node25" class="node">
<title>Node25</title>
<g id="a_node25"><a xlink:href="_unit_order_8h.html" target="_top" xlink:title=" ">
<polygon fill="white" stroke="black" points="180,-280.5 180,-299.5 246,-299.5 246,-280.5 180,-280.5"/>
<text text-anchor="middle" x="213" y="-287.5" font-family="Helvetica,sans-Serif" font-size="10.00">UnitOrder.h</text>
</a>
</g>
</g>
<!-- Node23&#45;&gt;Node25 -->
<g id="edge31" class="edge">
<title>Node23&#45;&gt;Node25</title>
<path fill="none" stroke="midnightblue" d="M134.42,-341.98C146.24,-332.34 168.81,-316.52 186.86,-305.05"/>
<polygon fill="midnightblue" stroke="midnightblue" points="189.15,-307.75 195.8,-299.51 185.46,-301.8 189.15,-307.75"/>
</g>
<!-- Node26 -->
<g id="node26" class="node">
<title>Node26</title>
<g id="a_node26"><a xlink:href="_textures_8h.html" target="_top" xlink:title=" ">
<polygon fill="white" stroke="black" points="104.5,-224.5 104.5,-243.5 205.5,-243.5 205.5,-224.5 104.5,-224.5"/>
<text text-anchor="middle" x="155" y="-231.5" font-family="Helvetica,sans-Serif" font-size="10.00">graphics/Textures.h</text>
</a>
</g>
</g>
<!-- Node23&#45;&gt;Node26 -->
<g id="edge36" class="edge">
<title>Node23&#45;&gt;Node26</title>
<path fill="none" stroke="midnightblue" d="M129.1,-341.82C133.62,-323.17 144.35,-278.94 150.48,-253.63"/>
<polygon fill="midnightblue" stroke="midnightblue" points="153.92,-254.33 152.87,-243.78 147.11,-252.68 153.92,-254.33"/>
</g>
<!-- Node25&#45;&gt;Node2 -->
<g id="edge32" class="edge">
<title>Node25&#45;&gt;Node2</title>
<path fill="none" stroke="midnightblue" d="M220.53,-280.42C228.03,-271.65 239.6,-257.42 248,-244 257.48,-228.86 266.29,-210.51 272.26,-197.17"/>
<polygon fill="midnightblue" stroke="midnightblue" points="275.59,-198.28 276.39,-187.71 269.18,-195.47 275.59,-198.28"/>
</g>
<!-- Node25&#45;&gt;Node23 -->
<g id="edge33" class="edge">
<title>Node25&#45;&gt;Node23</title>
<path fill="none" stroke="midnightblue" d="M205.6,-299.51C193.79,-309.13 171.23,-324.96 153.17,-336.43"/>
<polygon fill="midnightblue" stroke="midnightblue" points="150.88,-333.73 144.22,-341.98 154.57,-339.68 150.88,-333.73"/>
</g>
<!-- Node26&#45;&gt;Node9 -->
<g id="edge37" class="edge">
<title>Node26&#45;&gt;Node9</title>
<path fill="none" stroke="midnightblue" d="M150.75,-224.33C144.76,-210.73 135.95,-184.26 149,-168 167.73,-144.66 247.36,-132.68 301.14,-127.13"/>
<polygon fill="midnightblue" stroke="midnightblue" points="301.59,-130.6 311.2,-126.14 300.9,-123.64 301.59,-130.6"/>
</g>
<!-- Node26&#45;&gt;Node18 -->
<g id="edge38" class="edge">
<title>Node26&#45;&gt;Node18</title>
<path fill="none" stroke="midnightblue" d="M205.78,-229.31C348.26,-218.95 749.01,-189.83 865.73,-181.35"/>
<polygon fill="midnightblue" stroke="midnightblue" points="866.09,-184.83 875.81,-180.61 865.58,-177.85 866.09,-184.83"/>
</g>
<!-- Node27 -->
<g id="node27" class="node">
<title>Node27</title>
<g id="a_node27"><a xlink:title=" ">
<polygon fill="white" stroke="#bfbfbf" points="158.5,-168.5 158.5,-187.5 241.5,-187.5 241.5,-168.5 158.5,-168.5"/>
<text text-anchor="middle" x="200" y="-175.5" font-family="Helvetica,sans-Serif" font-size="10.00">unordered_map</text>
</a>
</g>
</g>
<!-- Node26&#45;&gt;Node27 -->
<g id="edge39" class="edge">
<title>Node26&#45;&gt;Node27</title>
<path fill="none" stroke="midnightblue" d="M162.43,-224.08C168.85,-216.38 178.31,-205.03 186.12,-195.65"/>
<polygon fill="midnightblue" stroke="midnightblue" points="188.99,-197.67 192.71,-187.75 183.62,-193.19 188.99,-197.67"/>
</g>
<!-- Node28&#45;&gt;Node3 -->
<g id="edge44" class="edge">
<title>Node28&#45;&gt;Node3</title>
<path fill="none" stroke="midnightblue" d="M318,-361.11C328.15,-375.24 349.88,-403.72 373,-423 410.64,-454.39 422.23,-461.46 468,-479 533.93,-504.26 616.52,-516.18 660.35,-521.08"/>
<polygon fill="midnightblue" stroke="midnightblue" points="660.06,-524.57 670.38,-522.15 660.8,-517.61 660.06,-524.57"/>
</g>
<!-- Node28&#45;&gt;Node22 -->
<g id="edge43" class="edge">
<title>Node28&#45;&gt;Node22</title>
<path fill="none" stroke="midnightblue" d="M330.63,-361.01C348.1,-370.55 373.63,-386.17 390.66,-397.61"/>
<polygon fill="midnightblue" stroke="midnightblue" points="388.93,-400.67 399.15,-403.48 392.91,-394.91 388.93,-400.67"/>
</g>
<!-- Node29&#45;&gt;Node10 -->
<g id="edge49" class="edge">
<title>Node29&#45;&gt;Node10</title>
<path fill="none" stroke="midnightblue" d="M504.97,-341.84C515.27,-323.03 538,-276.8 538,-235 538,-235 538,-235 538,-177 538,-142.98 553.74,-105.85 564.41,-84.6"/>
<polygon fill="midnightblue" stroke="midnightblue" points="567.62,-86.01 569.14,-75.53 561.41,-82.77 567.62,-86.01"/>
</g>
<!-- Node29&#45;&gt;Node12 -->
<g id="edge48" class="edge">
<title>Node29&#45;&gt;Node12</title>
<path fill="none" stroke="midnightblue" d="M497.97,-341.86C493.67,-322.73 484,-275.28 484,-235 484,-235 484,-235 484,-121 484,-88.12 474.03,-50.86 467.22,-29.24"/>
<polygon fill="midnightblue" stroke="midnightblue" points="470.54,-28.12 464.1,-19.71 463.89,-30.3 470.54,-28.12"/>
</g>
<!-- Node30&#45;&gt;Node17 -->
<g id="edge53" class="edge">
<title>Node30&#45;&gt;Node17</title>
<path fill="none" stroke="midnightblue" d="M881,-459.08C881,-452.01 881,-441.86 881,-432.99"/>
<polygon fill="midnightblue" stroke="midnightblue" points="884.5,-432.75 881,-422.75 877.5,-432.75 884.5,-432.75"/>
</g>
<!-- Node30&#45;&gt;Node18 -->
<g id="edge52" class="edge">
<title>Node30&#45;&gt;Node18</title>
<path fill="none" stroke="midnightblue" d="M893.98,-459.31C915.78,-443.82 958.95,-409.08 975,-367 999.46,-302.87 942.24,-227.6 913.38,-195.18"/>
<polygon fill="midnightblue" stroke="midnightblue" points="915.74,-192.57 906.4,-187.56 910.57,-197.3 915.74,-192.57"/>
</g>
<!-- Node31&#45;&gt;Node14 -->
<g id="edge55" class="edge">
<title>Node31&#45;&gt;Node14</title>
<path fill="none" stroke="midnightblue" d="M958.08,-168.44C917.6,-159.06 852.58,-143.99 808.62,-133.8"/>
<polygon fill="midnightblue" stroke="midnightblue" points="809.28,-130.36 798.75,-131.52 807.7,-137.18 809.28,-130.36"/>
</g>
<!-- Node32&#45;&gt;Node7 -->
<g id="edge58" class="edge">
<title>Node32&#45;&gt;Node7</title>
<path fill="none" stroke="midnightblue" d="M1181.33,-280.37C1184.08,-262.62 1190.41,-221.67 1194.13,-197.6"/>
<polygon fill="midnightblue" stroke="midnightblue" points="1197.6,-198.01 1195.67,-187.59 1190.69,-196.94 1197.6,-198.01"/>
</g>
<!-- Node32&#45;&gt;Node8 -->
<g id="edge57" class="edge">
<title>Node32&#45;&gt;Node8</title>
<path fill="none" stroke="midnightblue" d="M1216.78,-280.35C1238.84,-273.58 1266.16,-262.18 1285,-244 1314.84,-215.2 1330.78,-167.7 1337.7,-141.61"/>
<polygon fill="midnightblue" stroke="midnightblue" points="1341.18,-142.11 1340.19,-131.56 1334.39,-140.42 1341.18,-142.11"/>
</g>
<!-- Node33 -->
<g id="node33" class="node">
<title>Node33</title>
<g id="a_node33"><a xlink:href="_network_manager_8h.html" target="_top" xlink:title=" ">
<polygon fill="white" stroke="black" points="1002,-224.5 1002,-243.5 1132,-243.5 1132,-224.5 1002,-224.5"/>
<text text-anchor="middle" x="1067" y="-231.5" font-family="Helvetica,sans-Serif" font-size="10.00">engine/NetworkManager.h</text>
</a>
</g>
</g>
<!-- Node32&#45;&gt;Node33 -->
<g id="edge59" class="edge">
<title>Node32&#45;&gt;Node33</title>
<path fill="none" stroke="midnightblue" d="M1162.09,-280.44C1143.75,-271.68 1114.99,-257.94 1093.91,-247.86"/>
<polygon fill="midnightblue" stroke="midnightblue" points="1095.35,-244.67 1084.82,-243.52 1092.33,-250.99 1095.35,-244.67"/>
</g>
<!-- Node35 -->
<g id="node35" class="node">
<title>Node35</title>
<g id="a_node35"><a xlink:title=" ">
<polygon fill="white" stroke="#bfbfbf" points="1226.5,-224.5 1226.5,-243.5 1275.5,-243.5 1275.5,-224.5 1226.5,-224.5"/>
<text text-anchor="middle" x="1251" y="-231.5" font-family="Helvetica,sans-Serif" font-size="10.00">random</text>
</a>
</g>
</g>
<!-- Node32&#45;&gt;Node35 -->
<g id="edge64" class="edge">
<title>Node32&#45;&gt;Node35</title>
<path fill="none" stroke="midnightblue" d="M1191.41,-280.32C1202.11,-272.18 1218.34,-259.84 1231.16,-250.09"/>
<polygon fill="midnightblue" stroke="midnightblue" points="1233.54,-252.67 1239.39,-243.83 1229.31,-247.1 1233.54,-252.67"/>
</g>
<!-- Node33&#45;&gt;Node7 -->
<g id="edge60" class="edge">
<title>Node33&#45;&gt;Node7</title>
<path fill="none" stroke="midnightblue" d="M1087.6,-224.44C1108.99,-215.56 1142.68,-201.56 1167.02,-191.45"/>
<polygon fill="midnightblue" stroke="midnightblue" points="1168.61,-194.58 1176.5,-187.52 1165.92,-188.12 1168.61,-194.58"/>
</g>
<!-- Node33&#45;&gt;Node18 -->
<g id="edge62" class="edge">
<title>Node33&#45;&gt;Node18</title>
<path fill="none" stroke="midnightblue" d="M1040.22,-224.44C1010.24,-214.86 961.69,-199.35 929.8,-189.16"/>
<polygon fill="midnightblue" stroke="midnightblue" points="930.67,-185.76 920.08,-186.05 928.54,-192.43 930.67,-185.76"/>
</g>
<!-- Node33&#45;&gt;Node31 -->
<g id="edge61" class="edge">
<title>Node33&#45;&gt;Node31</title>
<path fill="none" stroke="midnightblue" d="M1055.43,-224.32C1044.58,-216.18 1028.12,-203.84 1015.12,-194.09"/>
<polygon fill="midnightblue" stroke="midnightblue" points="1016.88,-191.03 1006.78,-187.83 1012.68,-196.63 1016.88,-191.03"/>
</g>
<!-- Node34 -->
<g id="node34" class="node">
<title>Node34</title>
<g id="a_node34"><a xlink:title=" ">
<polygon fill="white" stroke="#bfbfbf" points="1069.5,-168.5 1069.5,-187.5 1140.5,-187.5 1140.5,-168.5 1069.5,-168.5"/>
<text text-anchor="middle" x="1105" y="-175.5" font-family="Helvetica,sans-Serif" font-size="10.00">sys/socket.h</text>
</a>
</g>
</g>
<!-- Node33&#45;&gt;Node34 -->
<g id="edge63" class="edge">
<title>Node33&#45;&gt;Node34</title>
<path fill="none" stroke="midnightblue" d="M1073.27,-224.08C1078.64,-216.46 1086.52,-205.26 1093.08,-195.94"/>
<polygon fill="midnightblue" stroke="midnightblue" points="1095.95,-197.94 1098.84,-187.75 1090.22,-193.91 1095.95,-197.94"/>
</g>
<!-- Node36&#45;&gt;Node3 -->
<g id="edge68" class="edge">
<title>Node36&#45;&gt;Node3</title>
<path fill="none" stroke="midnightblue" d="M591.64,-478.52C613.66,-487.27 645.47,-501.01 667.22,-511.1"/>
<polygon fill="midnightblue" stroke="midnightblue" points="665.9,-514.34 676.44,-515.44 668.89,-508.01 665.9,-514.34"/>
</g>
<!-- Node36&#45;&gt;Node14 -->
<g id="edge66" class="edge">
<title>Node36&#45;&gt;Node14</title>
<path fill="none" stroke="midnightblue" d="M567.52,-459.4C569.33,-436.45 577.3,-372.95 611,-336 637.82,-306.59 665.45,-328.73 693,-300 736.89,-254.23 753.77,-177.37 759.46,-141.94"/>
<polygon fill="midnightblue" stroke="midnightblue" points="762.99,-142.02 760.98,-131.62 756.06,-141 762.99,-142.02"/>
</g>
<!-- Node36&#45;&gt;Node22 -->
<g id="edge67" class="edge">
<title>Node36&#45;&gt;Node22</title>
<path fill="none" stroke="midnightblue" d="M541.81,-459.44C515.06,-450.36 472.6,-435.94 442.69,-425.78"/>
<polygon fill="midnightblue" stroke="midnightblue" points="443.67,-422.42 433.08,-422.52 441.42,-429.05 443.67,-422.42"/>
</g>
<!-- Node37&#45;&gt;Node1 -->
<g id="edge70" class="edge">
<title>Node37&#45;&gt;Node1</title>
<path fill="none" stroke="midnightblue" d="M1269.94,-422.59C1294.16,-434.26 1329.9,-456.3 1314,-479 1264.79,-549.24 1164.25,-573.33 1094.77,-581.49"/>
<polygon fill="midnightblue" stroke="midnightblue" points="1094.31,-578.02 1084.75,-582.58 1095.07,-584.98 1094.31,-578.02"/>
</g>
<!-- Node38&#45;&gt;Node37 -->
<g id="edge85" class="edge">
<title>Node38&#45;&gt;Node37</title>
<path fill="none" stroke="midnightblue" d="M1250,-459.08C1250,-452.01 1250,-441.86 1250,-432.99"/>
<polygon fill="midnightblue" stroke="midnightblue" points="1253.5,-432.75 1250,-422.75 1246.5,-432.75 1253.5,-432.75"/>
</g>
<!-- Node39 -->
<g id="node39" class="node">
<title>Node39</title>
<g id="a_node39"><a xlink:href="_squad_template_8h.html" target="_top" xlink:title=" ">
<polygon fill="white" stroke="black" points="1325,-403.5 1325,-422.5 1417,-422.5 1417,-403.5 1325,-403.5"/>
<text text-anchor="middle" x="1371" y="-410.5" font-family="Helvetica,sans-Serif" font-size="10.00">SquadTemplate.h</text>
</a>
</g>
</g>
<!-- Node38&#45;&gt;Node39 -->
<g id="edge72" class="edge">
<title>Node38&#45;&gt;Node39</title>
<path fill="none" stroke="midnightblue" d="M1269.17,-459.44C1288.91,-450.64 1319.89,-436.81 1342.49,-426.72"/>
<polygon fill="midnightblue" stroke="midnightblue" points="1344.21,-429.79 1351.92,-422.52 1341.36,-423.4 1344.21,-429.79"/>
</g>
<!-- Node39&#45;&gt;Node1 -->
<g id="edge74" class="edge">
<title>Node39&#45;&gt;Node1</title>
<path fill="none" stroke="midnightblue" d="M1367.4,-422.63C1357.32,-445.54 1326.47,-507.97 1279,-535 1222.46,-567.2 1148.88,-579.19 1094.77,-583.51"/>
<polygon fill="midnightblue" stroke="midnightblue" points="1094.29,-580.03 1084.57,-584.25 1094.79,-587.01 1094.29,-580.03"/>
</g>
<!-- Node39&#45;&gt;Node18 -->
<g id="edge73" class="edge">
<title>Node39&#45;&gt;Node18</title>
<path fill="none" stroke="midnightblue" d="M1379.88,-403.31C1394.69,-388.93 1425.52,-359.42 1453,-336 1472.76,-319.16 1487.63,-323.34 1499,-300 1513.79,-269.63 1522.12,-248.63 1499,-224 1457.26,-179.54 1027.13,-197.36 930.32,-187.44"/>
<polygon fill="midnightblue" stroke="midnightblue" points="930.59,-183.94 920.21,-186.08 929.66,-190.88 930.59,-183.94"/>
</g>
<!-- Node39&#45;&gt;Node29 -->
<g id="edge84" class="edge">
<title>Node39&#45;&gt;Node29</title>
<path fill="none" stroke="midnightblue" d="M1324.64,-406.45C1313.02,-405.19 1300.56,-403.94 1289,-403 988.24,-378.53 911.5,-394.56 611,-367 585.72,-364.68 557.34,-360.95 535.6,-357.86"/>
<polygon fill="midnightblue" stroke="midnightblue" points="535.91,-354.37 525.51,-356.4 534.9,-361.29 535.91,-354.37"/>
</g>
<!-- Node40 -->
<g id="node40" class="node">
<title>Node40</title>
<g id="a_node40"><a xlink:href="_gui_list_8h.html" target="_top" xlink:title=" ">
<polygon fill="white" stroke="black" points="1382,-280.5 1382,-299.5 1490,-299.5 1490,-280.5 1382,-280.5"/>
<text text-anchor="middle" x="1436" y="-287.5" font-family="Helvetica,sans-Serif" font-size="10.00">engine/GUI/GuiList.h</text>
</a>
</g>
</g>
<!-- Node39&#45;&gt;Node40 -->
<g id="edge75" class="edge">
<title>Node39&#45;&gt;Node40</title>
<path fill="none" stroke="midnightblue" d="M1375.67,-403.3C1386.31,-383.5 1412.48,-334.78 1426.6,-308.49"/>
<polygon fill="midnightblue" stroke="midnightblue" points="1429.72,-310.09 1431.37,-299.62 1423.55,-306.78 1429.72,-310.09"/>
</g>
<!-- Node42 -->
<g id="node42" class="node">
<title>Node42</title>
<g id="a_node42"><a xlink:href="_gui_scroll_8h.html" target="_top" xlink:title=" ">
<polygon fill="white" stroke="black" points="1462,-342 1462,-361 1578,-361 1578,-342 1462,-342"/>
<text text-anchor="middle" x="1520" y="-349" font-family="Helvetica,sans-Serif" font-size="10.00">engine/GUI/GuiScroll.h</text>
</a>
</g>
</g>
<!-- Node39&#45;&gt;Node42 -->
<g id="edge79" class="edge">
<title>Node39&#45;&gt;Node42</title>
<path fill="none" stroke="midnightblue" d="M1392.35,-403.48C1417.69,-393.36 1460.14,-376.4 1489.07,-364.85"/>
<polygon fill="midnightblue" stroke="midnightblue" points="1490.7,-367.97 1498.69,-361.01 1488.11,-361.47 1490.7,-367.97"/>
</g>
<!-- Node43 -->
<g id="node43" class="node">
<title>Node43</title>
<g id="a_node43"><a xlink:href="_button_8h.html" target="_top" xlink:title=" ">
<polygon fill="white" stroke="black" points="1258.5,-280.5 1258.5,-299.5 1363.5,-299.5 1363.5,-280.5 1258.5,-280.5"/>
<text text-anchor="middle" x="1311" y="-287.5" font-family="Helvetica,sans-Serif" font-size="10.00">engine/GUI/Button.h</text>
</a>
</g>
</g>
<!-- Node39&#45;&gt;Node43 -->
<g id="edge82" class="edge">
<title>Node39&#45;&gt;Node43</title>
<path fill="none" stroke="midnightblue" d="M1366.68,-403.3C1356.91,-383.59 1332.92,-335.21 1319.85,-308.84"/>
<polygon fill="midnightblue" stroke="midnightblue" points="1322.85,-307.03 1315.28,-299.62 1316.58,-310.14 1322.85,-307.03"/>
</g>
<!-- Node40&#45;&gt;Node18 -->
<g id="edge78" class="edge">
<title>Node40&#45;&gt;Node18</title>
<path fill="none" stroke="midnightblue" d="M1420.26,-280.3C1393.42,-265.9 1336.66,-237.39 1285,-224 1134.22,-184.91 1087.05,-216.92 930.23,-187.88"/>
<polygon fill="midnightblue" stroke="midnightblue" points="930.71,-184.41 920.23,-185.98 929.4,-191.29 930.71,-184.41"/>
</g>
<!-- Node41 -->
<g id="node41" class="node">
<title>Node41</title>
<g id="a_node41"><a xlink:href="_gui_object_8h.html" target="_top" xlink:title=" ">
<polygon fill="white" stroke="black" points="1370,-224.5 1370,-243.5 1490,-243.5 1490,-224.5 1370,-224.5"/>
<text text-anchor="middle" x="1430" y="-231.5" font-family="Helvetica,sans-Serif" font-size="10.00">engine/GUI/GuiObject.h</text>
</a>
</g>
</g>
<!-- Node40&#45;&gt;Node41 -->
<g id="edge76" class="edge">
<title>Node40&#45;&gt;Node41</title>
<path fill="none" stroke="midnightblue" d="M1435.01,-280.08C1434.21,-272.93 1433.07,-262.64 1432.08,-253.69"/>
<polygon fill="midnightblue" stroke="midnightblue" points="1435.56,-253.3 1430.97,-243.75 1428.6,-254.08 1435.56,-253.3"/>
</g>
<!-- Node41&#45;&gt;Node7 -->
<g id="edge77" class="edge">
<title>Node41&#45;&gt;Node7</title>
<path fill="none" stroke="midnightblue" d="M1393.08,-224.44C1352.6,-215.06 1287.58,-199.99 1243.62,-189.8"/>
<polygon fill="midnightblue" stroke="midnightblue" points="1244.28,-186.36 1233.75,-187.52 1242.7,-193.18 1244.28,-186.36"/>
</g>
<!-- Node42&#45;&gt;Node8 -->
<g id="edge81" class="edge">
<title>Node42&#45;&gt;Node8</title>
<path fill="none" stroke="midnightblue" d="M1524.15,-341.74C1533.8,-320 1555.18,-262.57 1532,-224 1495.55,-163.34 1409,-137.15 1366.46,-127.63"/>
<polygon fill="midnightblue" stroke="midnightblue" points="1367.16,-124.2 1356.65,-125.56 1365.71,-131.05 1367.16,-124.2"/>
</g>
<!-- Node42&#45;&gt;Node40 -->
<g id="edge80" class="edge">
<title>Node42&#45;&gt;Node40</title>
<path fill="none" stroke="midnightblue" d="M1507.96,-341.98C1494.49,-332.43 1472.43,-316.81 1456.28,-305.37"/>
<polygon fill="midnightblue" stroke="midnightblue" points="1458.2,-302.43 1448.01,-299.51 1454.15,-308.15 1458.2,-302.43"/>
</g>
<!-- Node43&#45;&gt;Node41 -->
<g id="edge83" class="edge">
<title>Node43&#45;&gt;Node41</title>
<path fill="none" stroke="midnightblue" d="M1329.86,-280.44C1349.27,-271.64 1379.73,-257.81 1401.96,-247.72"/>
<polygon fill="midnightblue" stroke="midnightblue" points="1403.57,-250.84 1411.23,-243.52 1400.68,-244.46 1403.57,-250.84"/>
</g>
</g>
</svg>
