<?xml version="1.0" encoding="UTF-8" standalone="no"?>
<!DOCTYPE svg PUBLIC "-//W3C//DTD SVG 1.1//EN"
 "http://www.w3.org/Graphics/SVG/1.1/DTD/svg11.dtd">
<!-- Generated by graphviz version 2.47.1 (20210421.1823)
 -->
<!-- Title: src/GameLogic/Units/Factory.cpp Pages: 1 -->
<svg width="1572pt" height="666pt"
 viewBox="0.00 0.00 1572.00 666.00" xmlns="http://www.w3.org/2000/svg" xmlns:xlink="http://www.w3.org/1999/xlink">
<g id="graph0" class="graph" transform="scale(1 1) rotate(0) translate(4 662)">
<title>src/GameLogic/Units/Factory.cpp</title>
<polygon fill="white" stroke="transparent" points="-4,4 -4,-662 1568,-662 1568,4 -4,4"/>
<!-- Node1 -->
<g id="node1" class="node">
<title>Node1</title>
<g id="a_node1"><a xlink:title=" ">
<polygon fill="#bfbfbf" stroke="black" points="1078,-627.5 1078,-657.5 1188,-657.5 1188,-627.5 1078,-627.5"/>
<text text-anchor="start" x="1086" y="-645.5" font-family="Helvetica,sans-Serif" font-size="10.00">src/GameLogic/Units</text>
<text text-anchor="middle" x="1133" y="-634.5" font-family="Helvetica,sans-Serif" font-size="10.00">/Factory.cpp</text>
</a>
</g>
</g>
<!-- Node2 -->
<g id="node2" class="node">
<title>Node2</title>
<g id="a_node2"><a xlink:href="_factory_8h.html" target="_top" xlink:title=" ">
<polygon fill="white" stroke="black" points="1065,-571.5 1065,-590.5 1201,-590.5 1201,-571.5 1065,-571.5"/>
<text text-anchor="middle" x="1133" y="-578.5" font-family="Helvetica,sans-Serif" font-size="10.00">GameLogic/Units/Factory.h</text>
</a>
</g>
</g>
<!-- Node1&#45;&gt;Node2 -->
<g id="edge1" class="edge">
<title>Node1&#45;&gt;Node2</title>
<path fill="none" stroke="midnightblue" d="M1133,-627.4C1133,-619.47 1133,-609.46 1133,-600.86"/>
<polygon fill="midnightblue" stroke="midnightblue" points="1136.5,-600.66 1133,-590.66 1129.5,-600.66 1136.5,-600.66"/>
</g>
<!-- Node3 -->
<g id="node3" class="node">
<title>Node3</title>
<g id="a_node3"><a xlink:title=" ">
<polygon fill="white" stroke="#bfbfbf" points="197.5,-168.5 197.5,-187.5 238.5,-187.5 238.5,-168.5 197.5,-168.5"/>
<text text-anchor="middle" x="218" y="-175.5" font-family="Helvetica,sans-Serif" font-size="10.00">string</text>
</a>
</g>
</g>
<!-- Node2&#45;&gt;Node3 -->
<g id="edge2" class="edge">
<title>Node2&#45;&gt;Node3</title>
<path fill="none" stroke="midnightblue" d="M1064.68,-580.57C819.72,-581.73 0,-577.58 0,-470 0,-470 0,-470 0,-350.5 0,-256.04 127.99,-205.65 187.83,-187.25"/>
<polygon fill="midnightblue" stroke="midnightblue" points="188.9,-190.58 197.49,-184.37 186.91,-183.87 188.9,-190.58"/>
</g>
<!-- Node4 -->
<g id="node4" class="node">
<title>Node4</title>
<g id="a_node4"><a xlink:href="_cell_8h.html" target="_top" xlink:title=" ">
<polygon fill="white" stroke="black" points="821.5,-515.5 821.5,-534.5 862.5,-534.5 862.5,-515.5 821.5,-515.5"/>
<text text-anchor="middle" x="842" y="-522.5" font-family="Helvetica,sans-Serif" font-size="10.00">Cell.h</text>
</a>
</g>
</g>
<!-- Node2&#45;&gt;Node4 -->
<g id="edge3" class="edge">
<title>Node2&#45;&gt;Node4</title>
<path fill="none" stroke="midnightblue" d="M1086.89,-571.44C1027.04,-560.34 924.22,-541.26 872.95,-531.74"/>
<polygon fill="midnightblue" stroke="midnightblue" points="873.3,-528.25 862.83,-529.86 872.02,-535.13 873.3,-528.25"/>
</g>
<!-- Node8 -->
<g id="node8" class="node">
<title>Node8</title>
<g id="a_node8"><a xlink:href="game_object_8h.html" target="_top" xlink:title=" ">
<polygon fill="white" stroke="black" points="1182.5,-168.5 1182.5,-187.5 1259.5,-187.5 1259.5,-168.5 1182.5,-168.5"/>
<text text-anchor="middle" x="1221" y="-175.5" font-family="Helvetica,sans-Serif" font-size="10.00">gameObject.h</text>
</a>
</g>
</g>
<!-- Node2&#45;&gt;Node8 -->
<g id="edge88" class="edge">
<title>Node2&#45;&gt;Node8</title>
<path fill="none" stroke="midnightblue" d="M1178.81,-571.47C1203.86,-564.92 1234.15,-553.71 1256,-535 1346.66,-457.37 1349.04,-413.49 1386,-300 1396.5,-267.75 1413.73,-250.85 1393,-224 1385.32,-214.05 1317.76,-198.54 1269.64,-188.58"/>
<polygon fill="midnightblue" stroke="midnightblue" points="1270.2,-185.12 1259.7,-186.54 1268.79,-191.97 1270.2,-185.12"/>
</g>
<!-- Node24 -->
<g id="node24" class="node">
<title>Node24</title>
<g id="a_node24"><a xlink:href="_unit_8h.html" target="_top" xlink:title=" ">
<polygon fill="white" stroke="black" points="304,-342 304,-361 426,-361 426,-342 304,-342"/>
<text text-anchor="middle" x="365" y="-349" font-family="Helvetica,sans-Serif" font-size="10.00">GameLogic/Units/Unit.h</text>
</a>
</g>
</g>
<!-- Node2&#45;&gt;Node24 -->
<g id="edge87" class="edge">
<title>Node2&#45;&gt;Node24</title>
<path fill="none" stroke="midnightblue" d="M1064.73,-578.1C946.28,-572.84 696.6,-553.12 501,-479 456.24,-462.04 443.04,-456.66 409,-423 393.5,-407.67 380.96,-385.87 373.3,-370.58"/>
<polygon fill="midnightblue" stroke="midnightblue" points="376.27,-368.7 368.79,-361.2 369.96,-371.73 376.27,-368.7"/>
</g>
<!-- Node5 -->
<g id="node5" class="node">
<title>Node5</title>
<g id="a_node5"><a xlink:title=" ">
<polygon fill="white" stroke="#bfbfbf" points="104.5,-342 104.5,-361 139.5,-361 139.5,-342 104.5,-342"/>
<text text-anchor="middle" x="122" y="-349" font-family="Helvetica,sans-Serif" font-size="10.00">map</text>
</a>
</g>
</g>
<!-- Node4&#45;&gt;Node5 -->
<g id="edge4" class="edge">
<title>Node4&#45;&gt;Node5</title>
<path fill="none" stroke="midnightblue" d="M821.41,-522.56C767.99,-518.55 620.77,-505.74 501,-479 340.77,-443.23 300.18,-431 149,-367 148,-366.57 146.98,-366.12 145.96,-365.66"/>
<polygon fill="midnightblue" stroke="midnightblue" points="147.41,-362.47 136.9,-361.13 144.28,-368.73 147.41,-362.47"/>
</g>
<!-- Node6 -->
<g id="node6" class="node">
<title>Node6</title>
<g id="a_node6"><a xlink:title=" ">
<polygon fill="white" stroke="#bfbfbf" points="634,-459.5 634,-478.5 664,-478.5 664,-459.5 634,-459.5"/>
<text text-anchor="middle" x="649" y="-466.5" font-family="Helvetica,sans-Serif" font-size="10.00">set</text>
</a>
</g>
</g>
<!-- Node4&#45;&gt;Node6 -->
<g id="edge5" class="edge">
<title>Node4&#45;&gt;Node6</title>
<path fill="none" stroke="midnightblue" d="M821.26,-519.18C790.89,-511.96 732.38,-497.51 673.92,-479.06"/>
<polygon fill="midnightblue" stroke="midnightblue" points="674.75,-475.65 664.16,-475.94 672.62,-482.32 674.75,-475.65"/>
</g>
<!-- Node7 -->
<g id="node7" class="node">
<title>Node7</title>
<g id="a_node7"><a xlink:href="gameplay_clickable_game_object_8h.html" target="_top" xlink:title=" ">
<polygon fill="white" stroke="black" points="858.5,-336.5 858.5,-366.5 987.5,-366.5 987.5,-336.5 858.5,-336.5"/>
<text text-anchor="start" x="866.5" y="-354.5" font-family="Helvetica,sans-Serif" font-size="10.00">engine/gameplayClickable</text>
<text text-anchor="middle" x="923" y="-343.5" font-family="Helvetica,sans-Serif" font-size="10.00">GameObject.h</text>
</a>
</g>
</g>
<!-- Node4&#45;&gt;Node7 -->
<g id="edge6" class="edge">
<title>Node4&#45;&gt;Node7</title>
<path fill="none" stroke="midnightblue" d="M862.54,-524.27C894.07,-523.44 953.62,-516.64 981,-479 1005.32,-445.57 971.22,-400.31 945.93,-373.98"/>
<polygon fill="midnightblue" stroke="midnightblue" points="948.29,-371.39 938.76,-366.76 943.32,-376.32 948.29,-371.39"/>
</g>
<!-- Node10 -->
<g id="node10" class="node">
<title>Node10</title>
<g id="a_node10"><a xlink:href="config_8h.html" target="_top" xlink:title=" ">
<polygon fill="white" stroke="black" points="503.5,-112.5 503.5,-131.5 584.5,-131.5 584.5,-112.5 503.5,-112.5"/>
<text text-anchor="middle" x="544" y="-119.5" font-family="Helvetica,sans-Serif" font-size="10.00">engine/config.h</text>
</a>
</g>
</g>
<!-- Node4&#45;&gt;Node10 -->
<g id="edge26" class="edge">
<title>Node4&#45;&gt;Node10</title>
<path fill="none" stroke="midnightblue" d="M821.32,-523.41C695.47,-519.56 38,-495.54 38,-414 38,-414 38,-414 38,-289 38,-203.35 109.18,-201.53 188,-168 241.86,-145.08 408.46,-131.56 493.28,-125.99"/>
<polygon fill="midnightblue" stroke="midnightblue" points="493.69,-129.47 503.45,-125.34 493.24,-122.49 493.69,-129.47"/>
</g>
<!-- Node13 -->
<g id="node13" class="node">
<title>Node13</title>
<g id="a_node13"><a xlink:href="_facade_8h.html" target="_top" xlink:title=" ">
<polygon fill="white" stroke="black" points="699,-0.5 699,-19.5 755,-19.5 755,-0.5 699,-0.5"/>
<text text-anchor="middle" x="727" y="-7.5" font-family="Helvetica,sans-Serif" font-size="10.00">Facade.h</text>
</a>
</g>
</g>
<!-- Node4&#45;&gt;Node13 -->
<g id="edge27" class="edge">
<title>Node4&#45;&gt;Node13</title>
<path fill="none" stroke="midnightblue" d="M862.83,-524.26C929.07,-524.63 1140.32,-522.08 1308,-479 1460.23,-439.88 1564,-392.18 1564,-235 1564,-235 1564,-235 1564,-121 1564,-45.89 1481.13,-73.15 1408,-56 1284.42,-27.01 890.68,-15.03 765.56,-11.89"/>
<polygon fill="midnightblue" stroke="midnightblue" points="765.4,-8.38 755.32,-11.64 765.23,-15.38 765.4,-8.38"/>
</g>
<!-- Node16 -->
<g id="node16" class="node">
<title>Node16</title>
<g id="a_node16"><a xlink:title=" ">
<polygon fill="white" stroke="#bfbfbf" points="1345,-56.5 1345,-75.5 1399,-75.5 1399,-56.5 1345,-56.5"/>
<text text-anchor="middle" x="1372" y="-63.5" font-family="Helvetica,sans-Serif" font-size="10.00">iostream</text>
</a>
</g>
</g>
<!-- Node4&#45;&gt;Node16 -->
<g id="edge50" class="edge">
<title>Node4&#45;&gt;Node16</title>
<path fill="none" stroke="midnightblue" d="M862.66,-523.19C937.35,-520.05 1192.98,-507.43 1269,-479 1416.52,-423.83 1526,-392.5 1526,-235 1526,-235 1526,-235 1526,-177 1526,-119.73 1454.6,-89.45 1409.03,-75.96"/>
<polygon fill="midnightblue" stroke="midnightblue" points="1409.75,-72.52 1399.18,-73.18 1407.85,-79.26 1409.75,-72.52"/>
</g>
<!-- Node18 -->
<g id="node18" class="node">
<title>Node18</title>
<g id="a_node18"><a xlink:href="cellgen_8h.html" target="_top" xlink:title=" ">
<polygon fill="white" stroke="black" points="418.5,-403.5 418.5,-422.5 489.5,-422.5 489.5,-403.5 418.5,-403.5"/>
<text text-anchor="middle" x="454" y="-410.5" font-family="Helvetica,sans-Serif" font-size="10.00">util/cellgen.h</text>
</a>
</g>
</g>
<!-- Node4&#45;&gt;Node18 -->
<g id="edge17" class="edge">
<title>Node4&#45;&gt;Node18</title>
<path fill="none" stroke="midnightblue" d="M821.32,-524.57C770.5,-525.22 636.3,-522.37 536,-479 509.59,-467.58 484.47,-445.41 469.15,-430.16"/>
<polygon fill="midnightblue" stroke="midnightblue" points="471.57,-427.63 462.08,-422.91 466.56,-432.52 471.57,-427.63"/>
</g>
<!-- Node21 -->
<g id="node21" class="node">
<title>Node21</title>
<g id="a_node21"><a xlink:href="_all_flags_8h.html" target="_top" xlink:title=" ">
<polygon fill="white" stroke="black" points="143.5,-280.5 143.5,-299.5 202.5,-299.5 202.5,-280.5 143.5,-280.5"/>
<text text-anchor="middle" x="173" y="-287.5" font-family="Helvetica,sans-Serif" font-size="10.00">AllFlags.h</text>
</a>
</g>
</g>
<!-- Node4&#45;&gt;Node21 -->
<g id="edge21" class="edge">
<title>Node4&#45;&gt;Node21</title>
<path fill="none" stroke="midnightblue" d="M821.3,-523.31C709.53,-519.08 179.97,-492.51 95,-367 87.28,-355.59 88.11,-347.93 95,-336 103.68,-320.98 119.49,-310.52 134.62,-303.5"/>
<polygon fill="midnightblue" stroke="midnightblue" points="136.05,-306.69 143.88,-299.56 133.31,-300.25 136.05,-306.69"/>
</g>
<!-- Node23 -->
<g id="node23" class="node">
<title>Node23</title>
<g id="a_node23"><a xlink:href="_squad_8h.html" target="_top" xlink:title=" ">
<polygon fill="white" stroke="black" points="578,-403.5 578,-422.5 630,-422.5 630,-403.5 578,-403.5"/>
<text text-anchor="middle" x="604" y="-410.5" font-family="Helvetica,sans-Serif" font-size="10.00">Squad.h</text>
</a>
</g>
</g>
<!-- Node4&#45;&gt;Node23 -->
<g id="edge28" class="edge">
<title>Node4&#45;&gt;Node23</title>
<path fill="none" stroke="midnightblue" d="M821.31,-522.69C771.02,-518.79 645.85,-505.79 616,-479 602.92,-467.26 597.94,-447.33 597.82,-432.62"/>
<polygon fill="midnightblue" stroke="midnightblue" points="601.31,-432.86 598.62,-422.62 594.34,-432.31 601.31,-432.86"/>
</g>
<!-- Node30 -->
<g id="node30" class="node">
<title>Node30</title>
<g id="a_node30"><a xlink:href="_player_8h.html" target="_top" xlink:title=" ">
<polygon fill="white" stroke="black" points="750.5,-342 750.5,-361 801.5,-361 801.5,-342 750.5,-342"/>
<text text-anchor="middle" x="776" y="-349" font-family="Helvetica,sans-Serif" font-size="10.00">Player.h</text>
</a>
</g>
</g>
<!-- Node4&#45;&gt;Node30 -->
<g id="edge86" class="edge">
<title>Node4&#45;&gt;Node30</title>
<path fill="none" stroke="midnightblue" d="M834.36,-515.29C827.13,-506.63 816.46,-492.7 810,-479 792.94,-442.79 783.26,-396.56 778.88,-371.22"/>
<polygon fill="midnightblue" stroke="midnightblue" points="782.31,-370.45 777.24,-361.15 775.4,-371.59 782.31,-370.45"/>
</g>
<!-- Node31 -->
<g id="node31" class="node">
<title>Node31</title>
<g id="a_node31"><a xlink:href="geometry_8h.html" target="_top" xlink:title=" ">
<polygon fill="white" stroke="black" points="682,-459.5 682,-478.5 762,-478.5 762,-459.5 682,-459.5"/>
<text text-anchor="middle" x="722" y="-466.5" font-family="Helvetica,sans-Serif" font-size="10.00">util/geometry.h</text>
</a>
</g>
</g>
<!-- Node4&#45;&gt;Node31 -->
<g id="edge51" class="edge">
<title>Node4&#45;&gt;Node31</title>
<path fill="none" stroke="midnightblue" d="M822.99,-515.44C803.41,-506.64 772.69,-492.81 750.27,-482.72"/>
<polygon fill="midnightblue" stroke="midnightblue" points="751.48,-479.43 740.93,-478.52 748.61,-485.81 751.48,-479.43"/>
</g>
<!-- Node32 -->
<g id="node32" class="node">
<title>Node32</title>
<g id="a_node32"><a xlink:href="_none_8h.html" target="_top" xlink:title=" ">
<polygon fill="white" stroke="black" points="1277.5,-168.5 1277.5,-187.5 1390.5,-187.5 1390.5,-168.5 1277.5,-168.5"/>
<text text-anchor="middle" x="1334" y="-175.5" font-family="Helvetica,sans-Serif" font-size="10.00">engine/actions/None.h</text>
</a>
</g>
</g>
<!-- Node4&#45;&gt;Node32 -->
<g id="edge54" class="edge">
<title>Node4&#45;&gt;Node32</title>
<path fill="none" stroke="midnightblue" d="M862.73,-523.68C934.7,-522.25 1173.03,-514.87 1239,-479 1356.26,-415.24 1385.27,-371.11 1426,-244 1428.71,-235.54 1430.71,-231.54 1426,-224 1416.24,-208.36 1399.3,-198.01 1382.6,-191.23"/>
<polygon fill="midnightblue" stroke="midnightblue" points="1383.44,-187.81 1372.85,-187.64 1381.02,-194.38 1383.44,-187.81"/>
</g>
<!-- Node33 -->
<g id="node33" class="node">
<title>Node33</title>
<g id="a_node33"><a xlink:href="game_controller_8h.html" target="_top" xlink:title=" ">
<polygon fill="white" stroke="black" points="993.5,-280.5 993.5,-299.5 1114.5,-299.5 1114.5,-280.5 993.5,-280.5"/>
<text text-anchor="middle" x="1054" y="-287.5" font-family="Helvetica,sans-Serif" font-size="10.00">engine/gameController.h</text>
</a>
</g>
</g>
<!-- Node4&#45;&gt;Node33 -->
<g id="edge56" class="edge">
<title>Node4&#45;&gt;Node33</title>
<path fill="none" stroke="midnightblue" d="M862.53,-524.02C895.64,-522.9 960.87,-515.81 998,-479 1045.14,-432.27 1052.96,-347.72 1054.01,-310.03"/>
<polygon fill="midnightblue" stroke="midnightblue" points="1057.51,-309.59 1054.15,-299.54 1050.52,-309.49 1057.51,-309.59"/>
</g>
<!-- Node37 -->
<g id="node37" class="node">
<title>Node37</title>
<g id="a_node37"><a xlink:href="_set_squad_path_8h.html" target="_top" xlink:title=" ">
<polygon fill="white" stroke="black" points="818.5,-459.5 818.5,-478.5 971.5,-478.5 971.5,-459.5 818.5,-459.5"/>
<text text-anchor="middle" x="895" y="-466.5" font-family="Helvetica,sans-Serif" font-size="10.00">engine/actions/SetSquadPath.h</text>
</a>
</g>
</g>
<!-- Node4&#45;&gt;Node37 -->
<g id="edge65" class="edge">
<title>Node4&#45;&gt;Node37</title>
<path fill="none" stroke="midnightblue" d="M845.59,-515.08C851.77,-507.06 863.17,-495.1 873.6,-485.51"/>
<polygon fill="midnightblue" stroke="midnightblue" points="876.09,-487.99 881.28,-478.75 871.46,-482.73 876.09,-487.99"/>
</g>
<!-- Node38 -->
<g id="node38" class="node">
<title>Node38</title>
<g id="a_node38"><a xlink:href="_all_units_8h.html" target="_top" xlink:title=" ">
<polygon fill="white" stroke="black" points="1098.5,-403.5 1098.5,-422.5 1157.5,-422.5 1157.5,-403.5 1098.5,-403.5"/>
<text text-anchor="middle" x="1128" y="-410.5" font-family="Helvetica,sans-Serif" font-size="10.00">AllUnits.h</text>
</a>
</g>
</g>
<!-- Node4&#45;&gt;Node38 -->
<g id="edge69" class="edge">
<title>Node4&#45;&gt;Node38</title>
<path fill="none" stroke="midnightblue" d="M862.79,-524.05C904.44,-523.29 999.95,-517.15 1068,-479 1088.63,-467.43 1106.16,-446.25 1116.85,-431.22"/>
<polygon fill="midnightblue" stroke="midnightblue" points="1119.85,-433.02 1122.58,-422.79 1114.06,-429.09 1119.85,-433.02"/>
</g>
<!-- Node39 -->
<g id="node39" class="node">
<title>Node39</title>
<g id="a_node39"><a xlink:href="_all_squad_templates_8h.html" target="_top" xlink:title=" ">
<polygon fill="white" stroke="black" points="1120.5,-459.5 1120.5,-478.5 1229.5,-478.5 1229.5,-459.5 1120.5,-459.5"/>
<text text-anchor="middle" x="1175" y="-466.5" font-family="Helvetica,sans-Serif" font-size="10.00">AllSquadTemplates.h</text>
</a>
</g>
</g>
<!-- Node4&#45;&gt;Node39 -->
<g id="edge71" class="edge">
<title>Node4&#45;&gt;Node39</title>
<path fill="none" stroke="midnightblue" d="M862.58,-520.66C911.5,-512.73 1036.35,-492.48 1112.59,-480.12"/>
<polygon fill="midnightblue" stroke="midnightblue" points="1113.24,-483.56 1122.55,-478.5 1112.12,-476.65 1113.24,-483.56"/>
</g>
<!-- Node7&#45;&gt;Node8 -->
<g id="edge7" class="edge">
<title>Node7&#45;&gt;Node8</title>
<path fill="none" stroke="midnightblue" d="M918.1,-336.25C910.2,-310.36 898.17,-255.4 926,-224 961.06,-184.44 1103.53,-195.87 1171.97,-187.99"/>
<polygon fill="midnightblue" stroke="midnightblue" points="1172.88,-191.4 1182.3,-186.55 1171.91,-184.47 1172.88,-191.4"/>
</g>
<!-- Node9 -->
<g id="node9" class="node">
<title>Node9</title>
<g id="a_node9"><a xlink:title=" ">
<polygon fill="white" stroke="#bfbfbf" points="1243.5,-112.5 1243.5,-131.5 1272.5,-131.5 1272.5,-112.5 1243.5,-112.5"/>
<text text-anchor="middle" x="1258" y="-119.5" font-family="Helvetica,sans-Serif" font-size="10.00">list</text>
</a>
</g>
</g>
<!-- Node8&#45;&gt;Node9 -->
<g id="edge8" class="edge">
<title>Node8&#45;&gt;Node9</title>
<path fill="none" stroke="midnightblue" d="M1227.11,-168.08C1232.28,-160.53 1239.85,-149.49 1246.19,-140.23"/>
<polygon fill="midnightblue" stroke="midnightblue" points="1249.24,-141.98 1252,-131.75 1243.46,-138.02 1249.24,-141.98"/>
</g>
<!-- Node8&#45;&gt;Node10 -->
<g id="edge9" class="edge">
<title>Node8&#45;&gt;Node10</title>
<path fill="none" stroke="midnightblue" d="M1182.33,-169.22C1179.52,-168.77 1176.72,-168.36 1174,-168 959.88,-139.95 702.35,-128.43 594.93,-124.6"/>
<polygon fill="midnightblue" stroke="midnightblue" points="594.82,-121.1 584.7,-124.24 594.58,-128.09 594.82,-121.1"/>
</g>
<!-- Node15 -->
<g id="node15" class="node">
<title>Node15</title>
<g id="a_node15"><a xlink:href="engine_2_action_8h.html" target="_top" xlink:title=" ">
<polygon fill="white" stroke="black" points="1142.5,-112.5 1142.5,-131.5 1225.5,-131.5 1225.5,-112.5 1142.5,-112.5"/>
<text text-anchor="middle" x="1184" y="-119.5" font-family="Helvetica,sans-Serif" font-size="10.00">engine/Action.h</text>
</a>
</g>
</g>
<!-- Node8&#45;&gt;Node15 -->
<g id="edge14" class="edge">
<title>Node8&#45;&gt;Node15</title>
<path fill="none" stroke="midnightblue" d="M1214.89,-168.08C1209.72,-160.53 1202.15,-149.49 1195.81,-140.23"/>
<polygon fill="midnightblue" stroke="midnightblue" points="1198.54,-138.02 1190,-131.75 1192.76,-141.98 1198.54,-138.02"/>
</g>
<!-- Node11 -->
<g id="node11" class="node">
<title>Node11</title>
<g id="a_node11"><a xlink:href="_s_f_m_l_facade_8h.html" target="_top" xlink:title=" ">
<polygon fill="white" stroke="black" points="502.5,-56.5 502.5,-75.5 625.5,-75.5 625.5,-56.5 502.5,-56.5"/>
<text text-anchor="middle" x="564" y="-63.5" font-family="Helvetica,sans-Serif" font-size="10.00">graphics/SFMLFacade.h</text>
</a>
</g>
</g>
<!-- Node10&#45;&gt;Node11 -->
<g id="edge10" class="edge">
<title>Node10&#45;&gt;Node11</title>
<path fill="none" stroke="midnightblue" d="M547.3,-112.08C549.98,-104.85 553.85,-94.41 557.19,-85.4"/>
<polygon fill="midnightblue" stroke="midnightblue" points="560.57,-86.34 560.76,-75.75 554,-83.91 560.57,-86.34"/>
</g>
<!-- Node14 -->
<g id="node14" class="node">
<title>Node14</title>
<g id="a_node14"><a xlink:title=" ">
<polygon fill="white" stroke="#bfbfbf" points="386,-56.5 386,-75.5 484,-75.5 484,-56.5 386,-56.5"/>
<text text-anchor="middle" x="435" y="-63.5" font-family="Helvetica,sans-Serif" font-size="10.00">nlohmann/json.hpp</text>
</a>
</g>
</g>
<!-- Node10&#45;&gt;Node14 -->
<g id="edge13" class="edge">
<title>Node10&#45;&gt;Node14</title>
<path fill="none" stroke="midnightblue" d="M526.49,-112.32C508.93,-103.62 481.67,-90.12 461.47,-80.11"/>
<polygon fill="midnightblue" stroke="midnightblue" points="462.98,-76.96 452.47,-75.65 459.88,-83.23 462.98,-76.96"/>
</g>
<!-- Node12 -->
<g id="node12" class="node">
<title>Node12</title>
<g id="a_node12"><a xlink:title=" ">
<polygon fill="white" stroke="#bfbfbf" points="512,-0.5 512,-19.5 616,-19.5 616,-0.5 512,-0.5"/>
<text text-anchor="middle" x="564" y="-7.5" font-family="Helvetica,sans-Serif" font-size="10.00">SFML/Graphics.hpp</text>
</a>
</g>
</g>
<!-- Node11&#45;&gt;Node12 -->
<g id="edge11" class="edge">
<title>Node11&#45;&gt;Node12</title>
<path fill="none" stroke="midnightblue" d="M564,-56.08C564,-49.01 564,-38.86 564,-29.99"/>
<polygon fill="midnightblue" stroke="midnightblue" points="567.5,-29.75 564,-19.75 560.5,-29.75 567.5,-29.75"/>
</g>
<!-- Node11&#45;&gt;Node13 -->
<g id="edge12" class="edge">
<title>Node11&#45;&gt;Node13</title>
<path fill="none" stroke="midnightblue" d="M589.83,-56.44C617.25,-47.36 660.78,-32.94 691.43,-22.78"/>
<polygon fill="midnightblue" stroke="midnightblue" points="692.9,-25.98 701.29,-19.52 690.7,-19.34 692.9,-25.98"/>
</g>
<!-- Node15&#45;&gt;Node16 -->
<g id="edge15" class="edge">
<title>Node15&#45;&gt;Node16</title>
<path fill="none" stroke="midnightblue" d="M1213.79,-112.44C1246.58,-103.02 1299.35,-87.87 1334.83,-77.68"/>
<polygon fill="midnightblue" stroke="midnightblue" points="1336.15,-80.94 1344.79,-74.82 1334.21,-74.21 1336.15,-80.94"/>
</g>
<!-- Node17 -->
<g id="node17" class="node">
<title>Node17</title>
<g id="a_node17"><a xlink:title=" ">
<polygon fill="white" stroke="#bfbfbf" points="203.5,-56.5 203.5,-75.5 254.5,-75.5 254.5,-56.5 203.5,-56.5"/>
<text text-anchor="middle" x="229" y="-63.5" font-family="Helvetica,sans-Serif" font-size="10.00">memory</text>
</a>
</g>
</g>
<!-- Node15&#45;&gt;Node17 -->
<g id="edge16" class="edge">
<title>Node15&#45;&gt;Node17</title>
<path fill="none" stroke="midnightblue" d="M1142.42,-118.76C1023.23,-112.31 670.13,-93.09 377,-76 338.61,-73.76 294.63,-71.07 264.65,-69.22"/>
<polygon fill="midnightblue" stroke="midnightblue" points="264.86,-65.72 254.67,-68.6 264.43,-72.71 264.86,-65.72"/>
</g>
<!-- Node18&#45;&gt;Node5 -->
<g id="edge19" class="edge">
<title>Node18&#45;&gt;Node5</title>
<path fill="none" stroke="midnightblue" d="M418.32,-410.72C360.42,-407.76 243,-398.12 149,-367 147.75,-366.59 146.49,-366.12 145.23,-365.61"/>
<polygon fill="midnightblue" stroke="midnightblue" points="146.41,-362.29 135.88,-361.14 143.39,-368.61 146.41,-362.29"/>
</g>
<!-- Node19 -->
<g id="node19" class="node">
<title>Node19</title>
<g id="a_node19"><a xlink:title=" ">
<polygon fill="white" stroke="#bfbfbf" points="682,-168.5 682,-187.5 726,-187.5 726,-168.5 682,-168.5"/>
<text text-anchor="middle" x="704" y="-175.5" font-family="Helvetica,sans-Serif" font-size="10.00">vector</text>
</a>
</g>
</g>
<!-- Node18&#45;&gt;Node19 -->
<g id="edge18" class="edge">
<title>Node18&#45;&gt;Node19</title>
<path fill="none" stroke="midnightblue" d="M454.21,-403.2C454.98,-388.13 458.36,-356.97 473,-336 524.39,-262.38 622.28,-213.12 672.53,-191.5"/>
<polygon fill="midnightblue" stroke="midnightblue" points="674.06,-194.66 681.91,-187.55 671.34,-188.2 674.06,-194.66"/>
</g>
<!-- Node20 -->
<g id="node20" class="node">
<title>Node20</title>
<g id="a_node20"><a xlink:title=" ">
<polygon fill="white" stroke="#bfbfbf" points="158,-342 158,-361 286,-361 286,-342 158,-342"/>
<text text-anchor="middle" x="222" y="-349" font-family="Helvetica,sans-Serif" font-size="10.00">scanline_triangulation.hpp</text>
</a>
</g>
</g>
<!-- Node18&#45;&gt;Node20 -->
<g id="edge20" class="edge">
<title>Node18&#45;&gt;Node20</title>
<path fill="none" stroke="midnightblue" d="M420.76,-403.48C379.76,-392.96 309.97,-375.06 264.95,-363.51"/>
<polygon fill="midnightblue" stroke="midnightblue" points="265.73,-360.1 255.18,-361.01 264,-366.88 265.73,-360.1"/>
</g>
<!-- Node21&#45;&gt;Node17 -->
<g id="edge25" class="edge">
<title>Node21&#45;&gt;Node17</title>
<path fill="none" stroke="midnightblue" d="M173.3,-280.35C174.15,-260.29 177.29,-209.18 188,-168 195.87,-137.74 210.66,-104.48 220.16,-84.68"/>
<polygon fill="midnightblue" stroke="midnightblue" points="223.33,-86.17 224.58,-75.65 217.04,-83.09 223.33,-86.17"/>
</g>
<!-- Node22 -->
<g id="node22" class="node">
<title>Node22</title>
<g id="a_node22"><a xlink:href="_flag_8h.html" target="_top" xlink:title=" ">
<polygon fill="white" stroke="black" points="246.5,-224.5 246.5,-243.5 289.5,-243.5 289.5,-224.5 246.5,-224.5"/>
<text text-anchor="middle" x="268" y="-231.5" font-family="Helvetica,sans-Serif" font-size="10.00">Flag.h</text>
</a>
</g>
</g>
<!-- Node21&#45;&gt;Node22 -->
<g id="edge22" class="edge">
<title>Node21&#45;&gt;Node22</title>
<path fill="none" stroke="midnightblue" d="M188.26,-280.32C203.22,-271.82 226.25,-258.73 243.73,-248.8"/>
<polygon fill="midnightblue" stroke="midnightblue" points="245.81,-251.64 252.77,-243.65 242.35,-245.55 245.81,-251.64"/>
</g>
<!-- Node22&#45;&gt;Node3 -->
<g id="edge24" class="edge">
<title>Node22&#45;&gt;Node3</title>
<path fill="none" stroke="midnightblue" d="M259.74,-224.08C252.54,-216.3 241.89,-204.8 233.15,-195.37"/>
<polygon fill="midnightblue" stroke="midnightblue" points="235.47,-192.71 226.1,-187.75 230.33,-197.47 235.47,-192.71"/>
</g>
<!-- Node22&#45;&gt;Node19 -->
<g id="edge23" class="edge">
<title>Node22&#45;&gt;Node19</title>
<path fill="none" stroke="midnightblue" d="M289.72,-230.01C302.83,-228.23 319.87,-225.94 335,-224 459.35,-208.07 607.46,-190.4 671.67,-182.81"/>
<polygon fill="midnightblue" stroke="midnightblue" points="672.42,-186.24 681.94,-181.59 671.6,-179.29 672.42,-186.24"/>
</g>
<!-- Node23&#45;&gt;Node4 -->
<g id="edge29" class="edge">
<title>Node23&#45;&gt;Node4</title>
<path fill="none" stroke="midnightblue" d="M609.72,-422.62C613.94,-436.63 617.58,-464.27 634,-479 660.2,-502.51 759.81,-515.4 811.22,-520.84"/>
<polygon fill="midnightblue" stroke="midnightblue" points="811.11,-524.35 821.41,-521.89 811.82,-517.39 811.11,-524.35"/>
</g>
<!-- Node23&#45;&gt;Node7 -->
<g id="edge41" class="edge">
<title>Node23&#45;&gt;Node7</title>
<path fill="none" stroke="midnightblue" d="M630.11,-407.13C677.26,-398.34 778.26,-379.5 848.38,-366.42"/>
<polygon fill="midnightblue" stroke="midnightblue" points="849.3,-369.81 858.49,-364.53 848.01,-362.93 849.3,-369.81"/>
</g>
<!-- Node23&#45;&gt;Node10 -->
<g id="edge45" class="edge">
<title>Node23&#45;&gt;Node10</title>
<path fill="none" stroke="midnightblue" d="M610.1,-403.19C615.75,-394.46 623.76,-380.48 627,-367 630.22,-353.6 629.55,-349.54 627,-336 612.72,-260.03 572.12,-176.36 553.52,-140.69"/>
<polygon fill="midnightblue" stroke="midnightblue" points="556.47,-138.78 548.7,-131.58 550.29,-142.05 556.47,-138.78"/>
</g>
<!-- Node23&#45;&gt;Node13 -->
<g id="edge46" class="edge">
<title>Node23&#45;&gt;Node13</title>
<path fill="none" stroke="midnightblue" d="M614.11,-403.47C623.24,-395.15 636.25,-381.65 643,-367 680.44,-285.77 651.7,-254.87 673,-168 685.6,-116.62 707.89,-58.2 719.5,-29.26"/>
<polygon fill="midnightblue" stroke="midnightblue" points="722.87,-30.27 723.38,-19.68 716.38,-27.64 722.87,-30.27"/>
</g>
<!-- Node23&#45;&gt;Node24 -->
<g id="edge30" class="edge">
<title>Node23&#45;&gt;Node24</title>
<path fill="none" stroke="midnightblue" d="M577.83,-406.51C535.76,-396.79 453.31,-376.37 404.22,-363.61"/>
<polygon fill="midnightblue" stroke="midnightblue" points="404.84,-360.15 394.28,-361.01 403.07,-366.93 404.84,-360.15"/>
</g>
<!-- Node29 -->
<g id="node29" class="node">
<title>Node29</title>
<g id="a_node29"><a xlink:href="_game_logic_2_squad_2_action_8h.html" target="_top" xlink:title=" ">
<polygon fill="white" stroke="black" points="482,-342 482,-361 618,-361 618,-342 482,-342"/>
<text text-anchor="middle" x="550" y="-349" font-family="Helvetica,sans-Serif" font-size="10.00">GameLogic/Squad/Action.h</text>
</a>
</g>
</g>
<!-- Node23&#45;&gt;Node29 -->
<g id="edge42" class="edge">
<title>Node23&#45;&gt;Node29</title>
<path fill="none" stroke="midnightblue" d="M591.36,-403.48C581.32,-394.55 567.98,-380.31 558.97,-369.14"/>
<polygon fill="midnightblue" stroke="midnightblue" points="561.65,-366.88 552.83,-361.01 556.06,-371.1 561.65,-366.88"/>
</g>
<!-- Node23&#45;&gt;Node30 -->
<g id="edge47" class="edge">
<title>Node23&#45;&gt;Node30</title>
<path fill="none" stroke="midnightblue" d="M628.64,-403.48C658.28,-393.22 708.18,-375.96 741.6,-364.4"/>
<polygon fill="midnightblue" stroke="midnightblue" points="743.1,-367.59 751.4,-361.01 740.81,-360.97 743.1,-367.59"/>
</g>
<!-- Node24&#45;&gt;Node21 -->
<g id="edge36" class="edge">
<title>Node24&#45;&gt;Node21</title>
<path fill="none" stroke="midnightblue" d="M337.49,-341.98C304.13,-331.64 247.74,-314.16 210.44,-302.6"/>
<polygon fill="midnightblue" stroke="midnightblue" points="211.05,-299.13 200.46,-299.51 208.97,-305.81 211.05,-299.13"/>
</g>
<!-- Node24&#45;&gt;Node23 -->
<g id="edge35" class="edge">
<title>Node24&#45;&gt;Node23</title>
<path fill="none" stroke="midnightblue" d="M404.42,-361.09C450.03,-371.86 524.24,-390.31 568.24,-401.79"/>
<polygon fill="midnightblue" stroke="midnightblue" points="567.39,-405.19 577.95,-404.34 569.16,-398.42 567.39,-405.19"/>
</g>
<!-- Node25 -->
<g id="node25" class="node">
<title>Node25</title>
<g id="a_node25"><a xlink:title=" ">
<polygon fill="white" stroke="#bfbfbf" points="259.5,-280.5 259.5,-299.5 302.5,-299.5 302.5,-280.5 259.5,-280.5"/>
<text text-anchor="middle" x="281" y="-287.5" font-family="Helvetica,sans-Serif" font-size="10.00">cstdio</text>
</a>
</g>
</g>
<!-- Node24&#45;&gt;Node25 -->
<g id="edge31" class="edge">
<title>Node24&#45;&gt;Node25</title>
<path fill="none" stroke="midnightblue" d="M352.96,-341.98C339.49,-332.43 317.43,-316.81 301.28,-305.37"/>
<polygon fill="midnightblue" stroke="midnightblue" points="303.2,-302.43 293.01,-299.51 299.15,-308.15 303.2,-302.43"/>
</g>
<!-- Node26 -->
<g id="node26" class="node">
<title>Node26</title>
<g id="a_node26"><a xlink:href="_unit_order_8h.html" target="_top" xlink:title=" ">
<polygon fill="white" stroke="black" points="321,-280.5 321,-299.5 387,-299.5 387,-280.5 321,-280.5"/>
<text text-anchor="middle" x="354" y="-287.5" font-family="Helvetica,sans-Serif" font-size="10.00">UnitOrder.h</text>
</a>
</g>
</g>
<!-- Node24&#45;&gt;Node26 -->
<g id="edge32" class="edge">
<title>Node24&#45;&gt;Node26</title>
<path fill="none" stroke="midnightblue" d="M358.52,-341.98C355.14,-333.58 352.25,-320.48 351.14,-309.66"/>
<polygon fill="midnightblue" stroke="midnightblue" points="354.62,-309.34 350.68,-299.51 347.63,-309.66 354.62,-309.34"/>
</g>
<!-- Node27 -->
<g id="node27" class="node">
<title>Node27</title>
<g id="a_node27"><a xlink:href="_textures_8h.html" target="_top" xlink:title=" ">
<polygon fill="white" stroke="black" points="344.5,-224.5 344.5,-243.5 445.5,-243.5 445.5,-224.5 344.5,-224.5"/>
<text text-anchor="middle" x="395" y="-231.5" font-family="Helvetica,sans-Serif" font-size="10.00">graphics/Textures.h</text>
</a>
</g>
</g>
<!-- Node24&#45;&gt;Node27 -->
<g id="edge37" class="edge">
<title>Node24&#45;&gt;Node27</title>
<path fill="none" stroke="midnightblue" d="M372.36,-341.91C379.98,-332.4 391.41,-316.24 396,-300 400.27,-284.88 399.6,-266.98 398.1,-253.8"/>
<polygon fill="midnightblue" stroke="midnightblue" points="401.53,-253.03 396.67,-243.62 394.6,-254.01 401.53,-253.03"/>
</g>
<!-- Node26&#45;&gt;Node3 -->
<g id="edge33" class="edge">
<title>Node26&#45;&gt;Node3</title>
<path fill="none" stroke="midnightblue" d="M322.81,-280.42C292.35,-271.46 248.9,-256.93 237,-244 225.44,-231.44 220.88,-212.22 219.1,-197.93"/>
<polygon fill="midnightblue" stroke="midnightblue" points="222.57,-197.4 218.19,-187.76 215.59,-198.03 222.57,-197.4"/>
</g>
<!-- Node26&#45;&gt;Node24 -->
<g id="edge34" class="edge">
<title>Node26&#45;&gt;Node24</title>
<path fill="none" stroke="midnightblue" d="M360.47,-299.51C363.85,-307.9 366.75,-321 367.86,-331.82"/>
<polygon fill="midnightblue" stroke="midnightblue" points="364.37,-332.14 368.32,-341.98 371.37,-331.83 364.37,-332.14"/>
</g>
<!-- Node27&#45;&gt;Node10 -->
<g id="edge38" class="edge">
<title>Node27&#45;&gt;Node10</title>
<path fill="none" stroke="midnightblue" d="M406.69,-224.37C432.15,-205.57 492.84,-160.77 524.31,-137.53"/>
<polygon fill="midnightblue" stroke="midnightblue" points="526.4,-140.35 532.36,-131.59 522.24,-134.72 526.4,-140.35"/>
</g>
<!-- Node27&#45;&gt;Node19 -->
<g id="edge39" class="edge">
<title>Node27&#45;&gt;Node19</title>
<path fill="none" stroke="midnightblue" d="M443.96,-224.44C507.78,-213.29 617.61,-194.1 671.82,-184.62"/>
<polygon fill="midnightblue" stroke="midnightblue" points="672.64,-188.03 681.89,-182.86 671.43,-181.14 672.64,-188.03"/>
</g>
<!-- Node28 -->
<g id="node28" class="node">
<title>Node28</title>
<g id="a_node28"><a xlink:title=" ">
<polygon fill="white" stroke="#bfbfbf" points="353.5,-168.5 353.5,-187.5 436.5,-187.5 436.5,-168.5 353.5,-168.5"/>
<text text-anchor="middle" x="395" y="-175.5" font-family="Helvetica,sans-Serif" font-size="10.00">unordered_map</text>
</a>
</g>
</g>
<!-- Node27&#45;&gt;Node28 -->
<g id="edge40" class="edge">
<title>Node27&#45;&gt;Node28</title>
<path fill="none" stroke="midnightblue" d="M395,-224.08C395,-217.01 395,-206.86 395,-197.99"/>
<polygon fill="midnightblue" stroke="midnightblue" points="398.5,-197.75 395,-187.75 391.5,-197.75 398.5,-197.75"/>
</g>
<!-- Node29&#45;&gt;Node4 -->
<g id="edge44" class="edge">
<title>Node29&#45;&gt;Node4</title>
<path fill="none" stroke="midnightblue" d="M550.91,-361.29C553.91,-385.22 565.86,-451.62 608,-479 641.24,-500.6 755.86,-515.08 811.38,-520.99"/>
<polygon fill="midnightblue" stroke="midnightblue" points="811.03,-524.48 821.34,-522.03 811.75,-517.51 811.03,-524.48"/>
</g>
<!-- Node29&#45;&gt;Node23 -->
<g id="edge43" class="edge">
<title>Node29&#45;&gt;Node23</title>
<path fill="none" stroke="midnightblue" d="M562.62,-361.01C572.66,-369.93 586,-384.17 595.01,-395.34"/>
<polygon fill="midnightblue" stroke="midnightblue" points="592.34,-397.61 601.16,-403.48 597.92,-393.39 592.34,-397.61"/>
</g>
<!-- Node30&#45;&gt;Node11 -->
<g id="edge49" class="edge">
<title>Node30&#45;&gt;Node11</title>
<path fill="none" stroke="midnightblue" d="M773.21,-341.91C767.29,-322.88 754,-275.62 754,-235 754,-235 754,-235 754,-177 754,-118.69 686.15,-90.79 631.54,-77.78"/>
<polygon fill="midnightblue" stroke="midnightblue" points="632.05,-74.3 621.52,-75.52 630.51,-81.13 632.05,-74.3"/>
</g>
<!-- Node30&#45;&gt;Node13 -->
<g id="edge48" class="edge">
<title>Node30&#45;&gt;Node13</title>
<path fill="none" stroke="midnightblue" d="M778.03,-341.86C782.33,-322.73 792,-275.28 792,-235 792,-235 792,-235 792,-121 792,-83.18 763.16,-46.94 743.91,-26.96"/>
<polygon fill="midnightblue" stroke="midnightblue" points="746.14,-24.24 736.59,-19.66 741.2,-29.2 746.14,-24.24"/>
</g>
<!-- Node31&#45;&gt;Node18 -->
<g id="edge53" class="edge">
<title>Node31&#45;&gt;Node18</title>
<path fill="none" stroke="midnightblue" d="M681.88,-459.92C633.11,-450.09 551,-433.54 499.8,-423.23"/>
<polygon fill="midnightblue" stroke="midnightblue" points="500.17,-419.73 489.68,-421.19 498.79,-426.59 500.17,-419.73"/>
</g>
<!-- Node31&#45;&gt;Node19 -->
<g id="edge52" class="edge">
<title>Node31&#45;&gt;Node19</title>
<path fill="none" stroke="midnightblue" d="M721.46,-459.35C718.99,-419.63 708.69,-254.25 705.18,-197.9"/>
<polygon fill="midnightblue" stroke="midnightblue" points="708.65,-197.38 704.54,-187.62 701.67,-197.81 708.65,-197.38"/>
</g>
<!-- Node32&#45;&gt;Node15 -->
<g id="edge55" class="edge">
<title>Node32&#45;&gt;Node15</title>
<path fill="none" stroke="midnightblue" d="M1310.23,-168.44C1285.11,-159.4 1245.29,-145.06 1217.1,-134.92"/>
<polygon fill="midnightblue" stroke="midnightblue" points="1218.25,-131.61 1207.66,-131.52 1215.88,-138.2 1218.25,-131.61"/>
</g>
<!-- Node33&#45;&gt;Node8 -->
<g id="edge58" class="edge">
<title>Node33&#45;&gt;Node8</title>
<path fill="none" stroke="midnightblue" d="M1110.94,-280.43C1152.38,-272.94 1203.5,-260.64 1217,-244 1227.34,-231.25 1227.24,-212.06 1225.21,-197.83"/>
<polygon fill="midnightblue" stroke="midnightblue" points="1228.6,-196.89 1223.34,-187.7 1221.72,-198.17 1228.6,-196.89"/>
</g>
<!-- Node33&#45;&gt;Node9 -->
<g id="edge57" class="edge">
<title>Node33&#45;&gt;Node9</title>
<path fill="none" stroke="midnightblue" d="M1053.39,-280.49C1052.33,-258.42 1052.74,-198.91 1085,-168 1132.28,-122.7 1166.41,-149.83 1233.34,-132.03"/>
<polygon fill="midnightblue" stroke="midnightblue" points="1234.39,-135.37 1243.01,-129.21 1232.43,-128.65 1234.39,-135.37"/>
</g>
<!-- Node34 -->
<g id="node34" class="node">
<title>Node34</title>
<g id="a_node34"><a xlink:href="_network_manager_8h.html" target="_top" xlink:title=" ">
<polygon fill="white" stroke="black" points="1078,-224.5 1078,-243.5 1208,-243.5 1208,-224.5 1078,-224.5"/>
<text text-anchor="middle" x="1143" y="-231.5" font-family="Helvetica,sans-Serif" font-size="10.00">engine/NetworkManager.h</text>
</a>
</g>
</g>
<!-- Node33&#45;&gt;Node34 -->
<g id="edge59" class="edge">
<title>Node33&#45;&gt;Node34</title>
<path fill="none" stroke="midnightblue" d="M1068.3,-280.32C1082.18,-271.9 1103.49,-258.97 1119.8,-249.07"/>
<polygon fill="midnightblue" stroke="midnightblue" points="1122,-251.83 1128.74,-243.65 1118.37,-245.85 1122,-251.83"/>
</g>
<!-- Node36 -->
<g id="node36" class="node">
<title>Node36</title>
<g id="a_node36"><a xlink:title=" ">
<polygon fill="white" stroke="#bfbfbf" points="934.5,-224.5 934.5,-243.5 983.5,-243.5 983.5,-224.5 934.5,-224.5"/>
<text text-anchor="middle" x="959" y="-231.5" font-family="Helvetica,sans-Serif" font-size="10.00">random</text>
</a>
</g>
</g>
<!-- Node33&#45;&gt;Node36 -->
<g id="edge64" class="edge">
<title>Node33&#45;&gt;Node36</title>
<path fill="none" stroke="midnightblue" d="M1038.74,-280.32C1023.78,-271.82 1000.75,-258.73 983.27,-248.8"/>
<polygon fill="midnightblue" stroke="midnightblue" points="984.65,-245.55 974.23,-243.65 981.19,-251.64 984.65,-245.55"/>
</g>
<!-- Node34&#45;&gt;Node8 -->
<g id="edge60" class="edge">
<title>Node34&#45;&gt;Node8</title>
<path fill="none" stroke="midnightblue" d="M1155.53,-224.32C1167.59,-215.98 1186.03,-203.21 1200.27,-193.35"/>
<polygon fill="midnightblue" stroke="midnightblue" points="1202.27,-196.22 1208.5,-187.65 1198.28,-190.47 1202.27,-196.22"/>
</g>
<!-- Node34&#45;&gt;Node19 -->
<g id="edge62" class="edge">
<title>Node34&#45;&gt;Node19</title>
<path fill="none" stroke="midnightblue" d="M1077.75,-224.97C982.33,-213.24 808.28,-191.83 736.39,-182.98"/>
<polygon fill="midnightblue" stroke="midnightblue" points="736.5,-179.47 726.15,-181.72 735.65,-186.42 736.5,-179.47"/>
</g>
<!-- Node34&#45;&gt;Node32 -->
<g id="edge61" class="edge">
<title>Node34&#45;&gt;Node32</title>
<path fill="none" stroke="midnightblue" d="M1173.26,-224.44C1205.96,-215.2 1258.18,-200.44 1294.18,-190.26"/>
<polygon fill="midnightblue" stroke="midnightblue" points="1295.21,-193.61 1303.88,-187.52 1293.3,-186.87 1295.21,-193.61"/>
</g>
<!-- Node35 -->
<g id="node35" class="node">
<title>Node35</title>
<g id="a_node35"><a xlink:title=" ">
<polygon fill="white" stroke="#bfbfbf" points="1093.5,-168.5 1093.5,-187.5 1164.5,-187.5 1164.5,-168.5 1093.5,-168.5"/>
<text text-anchor="middle" x="1129" y="-175.5" font-family="Helvetica,sans-Serif" font-size="10.00">sys/socket.h</text>
</a>
</g>
</g>
<!-- Node34&#45;&gt;Node35 -->
<g id="edge63" class="edge">
<title>Node34&#45;&gt;Node35</title>
<path fill="none" stroke="midnightblue" d="M1140.69,-224.08C1138.83,-216.93 1136.16,-206.64 1133.85,-197.69"/>
<polygon fill="midnightblue" stroke="midnightblue" points="1137.17,-196.55 1131.27,-187.75 1130.39,-198.31 1137.17,-196.55"/>
</g>
<!-- Node37&#45;&gt;Node4 -->
<g id="edge68" class="edge">
<title>Node37&#45;&gt;Node4</title>
<path fill="none" stroke="midnightblue" d="M891.48,-478.83C885.3,-486.87 873.83,-498.91 863.35,-508.54"/>
<polygon fill="midnightblue" stroke="midnightblue" points="860.83,-506.09 855.63,-515.32 865.45,-511.35 860.83,-506.09"/>
</g>
<!-- Node37&#45;&gt;Node15 -->
<g id="edge66" class="edge">
<title>Node37&#45;&gt;Node15</title>
<path fill="none" stroke="midnightblue" d="M885.96,-459.37C868.1,-441.34 830,-397.6 830,-352.5 830,-352.5 830,-352.5 830,-233 830,-170.45 1034.07,-139.47 1132.33,-128.18"/>
<polygon fill="midnightblue" stroke="midnightblue" points="1132.8,-131.65 1142.35,-127.06 1132.02,-124.69 1132.8,-131.65"/>
</g>
<!-- Node37&#45;&gt;Node23 -->
<g id="edge67" class="edge">
<title>Node37&#45;&gt;Node23</title>
<path fill="none" stroke="midnightblue" d="M848.89,-459.44C791.05,-448.71 693.06,-430.53 640.27,-420.73"/>
<polygon fill="midnightblue" stroke="midnightblue" points="640.81,-417.27 630.34,-418.89 639.53,-424.15 640.81,-417.27"/>
</g>
<!-- Node38&#45;&gt;Node2 -->
<g id="edge70" class="edge">
<title>Node38&#45;&gt;Node2</title>
<path fill="none" stroke="midnightblue" d="M1157.55,-421.94C1187.12,-430.54 1229.53,-444.94 1239,-459 1267.67,-501.56 1200.56,-545.37 1160.4,-566.7"/>
<polygon fill="midnightblue" stroke="midnightblue" points="1158.61,-563.69 1151.33,-571.39 1161.82,-569.91 1158.61,-563.69"/>
</g>
<!-- Node39&#45;&gt;Node38 -->
<g id="edge85" class="edge">
<title>Node39&#45;&gt;Node38</title>
<path fill="none" stroke="midnightblue" d="M1167.24,-459.08C1160.46,-451.3 1150.46,-439.8 1142.24,-430.37"/>
<polygon fill="midnightblue" stroke="midnightblue" points="1144.82,-428 1135.62,-422.75 1139.54,-432.59 1144.82,-428"/>
</g>
<!-- Node40 -->
<g id="node40" class="node">
<title>Node40</title>
<g id="a_node40"><a xlink:href="_squad_template_8h.html" target="_top" xlink:title=" ">
<polygon fill="white" stroke="black" points="1176,-403.5 1176,-422.5 1268,-422.5 1268,-403.5 1176,-403.5"/>
<text text-anchor="middle" x="1222" y="-410.5" font-family="Helvetica,sans-Serif" font-size="10.00">SquadTemplate.h</text>
</a>
</g>
</g>
<!-- Node39&#45;&gt;Node40 -->
<g id="edge72" class="edge">
<title>Node39&#45;&gt;Node40</title>
<path fill="none" stroke="midnightblue" d="M1182.76,-459.08C1189.54,-451.3 1199.54,-439.8 1207.76,-430.37"/>
<polygon fill="midnightblue" stroke="midnightblue" points="1210.46,-432.59 1214.38,-422.75 1205.18,-428 1210.46,-432.59"/>
</g>
<!-- Node40&#45;&gt;Node2 -->
<g id="edge74" class="edge">
<title>Node40&#45;&gt;Node2</title>
<path fill="none" stroke="midnightblue" d="M1231.29,-422.61C1239.58,-430.98 1251.14,-444.52 1256,-459 1267.18,-492.34 1258.3,-509.58 1234,-535 1219.02,-550.67 1197.6,-561.27 1178.34,-568.22"/>
<polygon fill="midnightblue" stroke="midnightblue" points="1177.16,-564.93 1168.81,-571.45 1179.4,-571.56 1177.16,-564.93"/>
</g>
<!-- Node40&#45;&gt;Node19 -->
<g id="edge73" class="edge">
<title>Node40&#45;&gt;Node19</title>
<path fill="none" stroke="midnightblue" d="M1202.95,-403.43C1124.41,-368.1 825.5,-233.65 732.08,-191.63"/>
<polygon fill="midnightblue" stroke="midnightblue" points="733.51,-188.43 722.95,-187.52 730.63,-194.82 733.51,-188.43"/>
</g>
<!-- Node40&#45;&gt;Node30 -->
<g id="edge84" class="edge">
<title>Node40&#45;&gt;Node30</title>
<path fill="none" stroke="midnightblue" d="M1175.81,-404.27C1172.83,-403.83 1169.88,-403.4 1167,-403 1026.55,-383.55 990.13,-388.65 850,-367 837.37,-365.05 823.6,-362.48 811.41,-360.04"/>
<polygon fill="midnightblue" stroke="midnightblue" points="812.09,-356.61 801.6,-358.04 810.7,-363.47 812.09,-356.61"/>
</g>
<!-- Node41 -->
<g id="node41" class="node">
<title>Node41</title>
<g id="a_node41"><a xlink:href="_gui_list_8h.html" target="_top" xlink:title=" ">
<polygon fill="white" stroke="black" points="1139,-280.5 1139,-299.5 1247,-299.5 1247,-280.5 1139,-280.5"/>
<text text-anchor="middle" x="1193" y="-287.5" font-family="Helvetica,sans-Serif" font-size="10.00">engine/GUI/GuiList.h</text>
</a>
</g>
</g>
<!-- Node40&#45;&gt;Node41 -->
<g id="edge75" class="edge">
<title>Node40&#45;&gt;Node41</title>
<path fill="none" stroke="midnightblue" d="M1206.27,-403.24C1194.11,-395.48 1178.19,-382.93 1171,-367 1162.3,-347.71 1172.03,-324.12 1181.17,-308.39"/>
<polygon fill="midnightblue" stroke="midnightblue" points="1184.26,-310.05 1186.61,-299.72 1178.33,-306.33 1184.26,-310.05"/>
</g>
<!-- Node43 -->
<g id="node43" class="node">
<title>Node43</title>
<g id="a_node43"><a xlink:href="_gui_scroll_8h.html" target="_top" xlink:title=" ">
<polygon fill="white" stroke="black" points="1180,-342 1180,-361 1296,-361 1296,-342 1180,-342"/>
<text text-anchor="middle" x="1238" y="-349" font-family="Helvetica,sans-Serif" font-size="10.00">engine/GUI/GuiScroll.h</text>
</a>
</g>
</g>
<!-- Node40&#45;&gt;Node43 -->
<g id="edge79" class="edge">
<title>Node40&#45;&gt;Node43</title>
<path fill="none" stroke="midnightblue" d="M1224.29,-403.48C1226.57,-394.99 1230.15,-381.7 1233.07,-370.82"/>
<polygon fill="midnightblue" stroke="midnightblue" points="1236.49,-371.57 1235.71,-361.01 1229.74,-369.76 1236.49,-371.57"/>
</g>
<!-- Node44 -->
<g id="node44" class="node">
<title>Node44</title>
<g id="a_node44"><a xlink:href="_button_8h.html" target="_top" xlink:title=" ">
<polygon fill="white" stroke="black" points="1271.5,-280.5 1271.5,-299.5 1376.5,-299.5 1376.5,-280.5 1271.5,-280.5"/>
<text text-anchor="middle" x="1324" y="-287.5" font-family="Helvetica,sans-Serif" font-size="10.00">engine/GUI/Button.h</text>
</a>
</g>
</g>
<!-- Node40&#45;&gt;Node44 -->
<g id="edge82" class="edge">
<title>Node40&#45;&gt;Node44</title>
<path fill="none" stroke="midnightblue" d="M1250.21,-403.37C1268.44,-396.39 1291.24,-384.75 1305,-367 1317.73,-350.58 1322.03,-326.7 1323.43,-310.1"/>
<polygon fill="midnightblue" stroke="midnightblue" points="1326.94,-310.14 1324.01,-299.96 1319.95,-309.75 1326.94,-310.14"/>
</g>
<!-- Node41&#45;&gt;Node19 -->
<g id="edge78" class="edge">
<title>Node41&#45;&gt;Node19</title>
<path fill="none" stroke="midnightblue" d="M1170.54,-280.39C1133.89,-266.64 1058.7,-239.68 993,-224 901.09,-202.06 790.09,-188.24 736.32,-182.33"/>
<polygon fill="midnightblue" stroke="midnightblue" points="736.67,-178.84 726.35,-181.25 735.92,-185.8 736.67,-178.84"/>
</g>
<!-- Node42 -->
<g id="node42" class="node">
<title>Node42</title>
<g id="a_node42"><a xlink:href="_gui_object_8h.html" target="_top" xlink:title=" ">
<polygon fill="white" stroke="black" points="1264,-224.5 1264,-243.5 1384,-243.5 1384,-224.5 1264,-224.5"/>
<text text-anchor="middle" x="1324" y="-231.5" font-family="Helvetica,sans-Serif" font-size="10.00">engine/GUI/GuiObject.h</text>
</a>
</g>
</g>
<!-- Node41&#45;&gt;Node42 -->
<g id="edge76" class="edge">
<title>Node41&#45;&gt;Node42</title>
<path fill="none" stroke="midnightblue" d="M1213.76,-280.44C1235.32,-271.56 1269.26,-257.56 1293.79,-247.45"/>
<polygon fill="midnightblue" stroke="midnightblue" points="1295.43,-250.56 1303.34,-243.52 1292.76,-244.09 1295.43,-250.56"/>
</g>
<!-- Node42&#45;&gt;Node8 -->
<g id="edge77" class="edge">
<title>Node42&#45;&gt;Node8</title>
<path fill="none" stroke="midnightblue" d="M1307.45,-224.32C1291.01,-215.7 1265.57,-202.36 1246.53,-192.39"/>
<polygon fill="midnightblue" stroke="midnightblue" points="1247.99,-189.2 1237.51,-187.65 1244.74,-195.4 1247.99,-189.2"/>
</g>
<!-- Node43&#45;&gt;Node9 -->
<g id="edge81" class="edge">
<title>Node43&#45;&gt;Node9</title>
<path fill="none" stroke="midnightblue" d="M1296.29,-345.32C1327.64,-339.38 1364.24,-326.74 1386,-300 1417.67,-261.09 1396.88,-238.07 1400,-188 1400.55,-179.13 1405.25,-175.17 1400,-168 1373.1,-131.26 1316.02,-123.77 1283,-122.68"/>
<polygon fill="midnightblue" stroke="midnightblue" points="1282.86,-119.17 1272.81,-122.52 1282.75,-126.17 1282.86,-119.17"/>
</g>
<!-- Node43&#45;&gt;Node41 -->
<g id="edge80" class="edge">
<title>Node43&#45;&gt;Node41</title>
<path fill="none" stroke="midnightblue" d="M1231.55,-341.98C1224.8,-333.05 1214.03,-318.81 1205.59,-307.64"/>
<polygon fill="midnightblue" stroke="midnightblue" points="1208.26,-305.37 1199.44,-299.51 1202.68,-309.6 1208.26,-305.37"/>
</g>
<!-- Node44&#45;&gt;Node42 -->
<g id="edge83" class="edge">
<title>Node44&#45;&gt;Node42</title>
<path fill="none" stroke="midnightblue" d="M1324,-280.08C1324,-273.01 1324,-262.86 1324,-253.99"/>
<polygon fill="midnightblue" stroke="midnightblue" points="1327.5,-253.75 1324,-243.75 1320.5,-253.75 1327.5,-253.75"/>
</g>
</g>
</svg>
