<?xml version="1.0" encoding="UTF-8" standalone="no"?>
<!DOCTYPE svg PUBLIC "-//W3C//DTD SVG 1.1//EN"
 "http://www.w3.org/Graphics/SVG/1.1/DTD/svg11.dtd">
<!-- Generated by graphviz version 2.47.1 (20210421.1823)
 -->
<!-- Title: include/GameLogic/Units/Factory.h Pages: 1 -->
<svg width="1650pt" height="709pt"
 viewBox="0.00 0.00 1649.50 709.00" xmlns="http://www.w3.org/2000/svg" xmlns:xlink="http://www.w3.org/1999/xlink">
<g id="graph0" class="graph" transform="scale(1 1) rotate(0) translate(4 705)">
<title>include/GameLogic/Units/Factory.h</title>
<polygon fill="white" stroke="transparent" points="-4,4 -4,-705 1645.5,-705 1645.5,4 -4,4"/>
<!-- Node1 -->
<g id="node1" class="node">
<title>Node1</title>
<g id="a_node1"><a xlink:title=" ">
<polygon fill="#bfbfbf" stroke="black" points="563.5,-670.5 563.5,-700.5 690.5,-700.5 690.5,-670.5 563.5,-670.5"/>
<text text-anchor="start" x="571.5" y="-688.5" font-family="Helvetica,sans-Serif" font-size="10.00">include/GameLogic/Units</text>
<text text-anchor="middle" x="627" y="-677.5" font-family="Helvetica,sans-Serif" font-size="10.00">/Factory.h</text>
</a>
</g>
</g>
<!-- Node2 -->
<g id="node2" class="node">
<title>Node2</title>
<g id="a_node2"><a xlink:href="_spawn_action_8cpp.html" target="_top" xlink:title=" ">
<polygon fill="white" stroke="black" points="0,-603.5 0,-633.5 96,-633.5 96,-603.5 0,-603.5"/>
<text text-anchor="start" x="8" y="-621.5" font-family="Helvetica,sans-Serif" font-size="10.00">src/engine/actions</text>
<text text-anchor="middle" x="48" y="-610.5" font-family="Helvetica,sans-Serif" font-size="10.00">/SpawnAction.cpp</text>
</a>
</g>
</g>
<!-- Node1&#45;&gt;Node2 -->
<g id="edge1" class="edge">
<title>Node1&#45;&gt;Node2</title>
<path fill="none" stroke="midnightblue" d="M552.94,-680.9C451.33,-675.15 263.25,-661.62 105,-634 102.08,-633.49 99.1,-632.91 96.09,-632.28"/>
<polygon fill="midnightblue" stroke="midnightblue" points="552.92,-684.41 563.1,-681.47 553.31,-677.42 552.92,-684.41"/>
</g>
<!-- Node3 -->
<g id="node3" class="node">
<title>Node3</title>
<g id="a_node3"><a xlink:href="_factory_8cpp.html" target="_top" xlink:title=" ">
<polygon fill="white" stroke="black" points="114,-603.5 114,-633.5 224,-633.5 224,-603.5 114,-603.5"/>
<text text-anchor="start" x="122" y="-621.5" font-family="Helvetica,sans-Serif" font-size="10.00">src/GameLogic/Units</text>
<text text-anchor="middle" x="169" y="-610.5" font-family="Helvetica,sans-Serif" font-size="10.00">/Factory.cpp</text>
</a>
</g>
</g>
<!-- Node1&#45;&gt;Node3 -->
<g id="edge2" class="edge">
<title>Node1&#45;&gt;Node3</title>
<path fill="none" stroke="midnightblue" d="M553.18,-676.65C474.74,-667.91 347.24,-652.54 238,-634 233.53,-633.24 228.92,-632.4 224.29,-631.52"/>
<polygon fill="midnightblue" stroke="midnightblue" points="553.11,-680.17 563.44,-677.79 553.88,-673.21 553.11,-680.17"/>
</g>
<!-- Node4 -->
<g id="node4" class="node">
<title>Node4</title>
<g id="a_node4"><a xlink:href="_squad_template_8h.html" target="_top" xlink:title=" ">
<polygon fill="white" stroke="black" points="414.5,-603.5 414.5,-633.5 545.5,-633.5 545.5,-603.5 414.5,-603.5"/>
<text text-anchor="start" x="422.5" y="-621.5" font-family="Helvetica,sans-Serif" font-size="10.00">include/GameLogic/Squad</text>
<text text-anchor="middle" x="480" y="-610.5" font-family="Helvetica,sans-Serif" font-size="10.00">/SquadTemplate.h</text>
</a>
</g>
</g>
<!-- Node1&#45;&gt;Node4 -->
<g id="edge3" class="edge">
<title>Node1&#45;&gt;Node4</title>
<path fill="none" stroke="midnightblue" d="M585.77,-666.27C562.36,-655.92 533.49,-643.15 511.83,-633.58"/>
<polygon fill="midnightblue" stroke="midnightblue" points="584.54,-669.55 595.1,-670.4 587.37,-663.15 584.54,-669.55"/>
</g>
<!-- Node24 -->
<g id="node24" class="node">
<title>Node24</title>
<g id="a_node24"><a xlink:href="_armored_unit_factory_8h.html" target="_top" xlink:title=" ">
<polygon fill="white" stroke="black" points="1367.5,-67.5 1367.5,-97.5 1494.5,-97.5 1494.5,-67.5 1367.5,-67.5"/>
<text text-anchor="start" x="1375.5" y="-85.5" font-family="Helvetica,sans-Serif" font-size="10.00">include/GameLogic/Units</text>
<text text-anchor="middle" x="1431" y="-74.5" font-family="Helvetica,sans-Serif" font-size="10.00">/ArmoredUnitFactory.h</text>
</a>
</g>
</g>
<!-- Node1&#45;&gt;Node24 -->
<g id="edge61" class="edge">
<title>Node1&#45;&gt;Node24</title>
<path fill="none" stroke="midnightblue" d="M700.62,-681.71C919.48,-672.43 1551,-638.24 1551,-552.5 1551,-552.5 1551,-552.5 1551,-349.5 1551,-250.43 1667.68,-213.08 1608,-134 1600.83,-124.5 1542.05,-108.95 1494.16,-97.61"/>
<polygon fill="midnightblue" stroke="midnightblue" points="700.36,-678.21 690.51,-682.13 700.65,-685.21 700.36,-678.21"/>
</g>
<!-- Node29 -->
<g id="node29" class="node">
<title>Node29</title>
<g id="a_node29"><a xlink:href="_land_unit_factory_8h.html" target="_top" xlink:title=" ">
<polygon fill="white" stroke="black" points="479.5,-134.5 479.5,-164.5 606.5,-164.5 606.5,-134.5 479.5,-134.5"/>
<text text-anchor="start" x="487.5" y="-152.5" font-family="Helvetica,sans-Serif" font-size="10.00">include/GameLogic/Units</text>
<text text-anchor="middle" x="543" y="-141.5" font-family="Helvetica,sans-Serif" font-size="10.00">/LandUnitFactory.h</text>
</a>
</g>
</g>
<!-- Node1&#45;&gt;Node29 -->
<g id="edge62" class="edge">
<title>Node1&#45;&gt;Node29</title>
<path fill="none" stroke="midnightblue" d="M553.41,-673.91C444.21,-656.09 252,-615.75 252,-552.5 252,-552.5 252,-552.5 252,-282.5 252,-245.31 244.11,-226.7 271,-201 300.21,-173.09 408.52,-160.05 479.33,-154.39"/>
<polygon fill="midnightblue" stroke="midnightblue" points="552.96,-677.38 563.39,-675.51 554.07,-670.47 552.96,-677.38"/>
</g>
<!-- Node33 -->
<g id="node33" class="node">
<title>Node33</title>
<g id="a_node33"><a xlink:href="_transport_unit_factory_8h.html" target="_top" xlink:title=" ">
<polygon fill="white" stroke="black" points="1471.5,-134.5 1471.5,-164.5 1598.5,-164.5 1598.5,-134.5 1471.5,-134.5"/>
<text text-anchor="start" x="1479.5" y="-152.5" font-family="Helvetica,sans-Serif" font-size="10.00">include/GameLogic/Units</text>
<text text-anchor="middle" x="1535" y="-141.5" font-family="Helvetica,sans-Serif" font-size="10.00">/TransportUnitFactory.h</text>
</a>
</g>
</g>
<!-- Node1&#45;&gt;Node33 -->
<g id="edge63" class="edge">
<title>Node1&#45;&gt;Node33</title>
<path fill="none" stroke="midnightblue" d="M700.88,-682.83C916.38,-677.67 1531.27,-660.67 1565,-634 1594.62,-610.58 1589,-590.26 1589,-552.5 1589,-552.5 1589,-552.5 1589,-282.5 1589,-236.69 1560.8,-188.16 1545.16,-164.76"/>
<polygon fill="midnightblue" stroke="midnightblue" points="700.53,-679.34 690.61,-683.08 700.69,-686.34 700.53,-679.34"/>
</g>
<!-- Node39 -->
<g id="node39" class="node">
<title>Node39</title>
<g id="a_node39"><a xlink:href="_all_units_8h.html" target="_top" xlink:title=" ">
<polygon fill="white" stroke="black" points="563.5,-603.5 563.5,-633.5 690.5,-633.5 690.5,-603.5 563.5,-603.5"/>
<text text-anchor="start" x="571.5" y="-621.5" font-family="Helvetica,sans-Serif" font-size="10.00">include/GameLogic/Units</text>
<text text-anchor="middle" x="627" y="-610.5" font-family="Helvetica,sans-Serif" font-size="10.00">/AllUnits.h</text>
</a>
</g>
</g>
<!-- Node1&#45;&gt;Node39 -->
<g id="edge55" class="edge">
<title>Node1&#45;&gt;Node39</title>
<path fill="none" stroke="midnightblue" d="M627,-660.11C627,-651.15 627,-641.32 627,-633.58"/>
<polygon fill="midnightblue" stroke="midnightblue" points="623.5,-660.4 627,-670.4 630.5,-660.4 623.5,-660.4"/>
</g>
<!-- Node5 -->
<g id="node5" class="node">
<title>Node5</title>
<g id="a_node5"><a xlink:href="_squad_template_8cpp.html" target="_top" xlink:title=" ">
<polygon fill="white" stroke="black" points="312,-536.5 312,-566.5 426,-566.5 426,-536.5 312,-536.5"/>
<text text-anchor="start" x="320" y="-554.5" font-family="Helvetica,sans-Serif" font-size="10.00">src/GameLogic/Squad</text>
<text text-anchor="middle" x="369" y="-543.5" font-family="Helvetica,sans-Serif" font-size="10.00">/SquadTemplate.cpp</text>
</a>
</g>
</g>
<!-- Node4&#45;&gt;Node5 -->
<g id="edge4" class="edge">
<title>Node4&#45;&gt;Node5</title>
<path fill="none" stroke="midnightblue" d="M447.2,-598.3C429.84,-588.12 408.88,-575.85 393.04,-566.58"/>
<polygon fill="midnightblue" stroke="midnightblue" points="445.52,-601.36 455.91,-603.4 449.05,-595.32 445.52,-601.36"/>
</g>
<!-- Node6 -->
<g id="node6" class="node">
<title>Node6</title>
<g id="a_node6"><a xlink:href="_all_squad_templates_8h.html" target="_top" xlink:title=" ">
<polygon fill="white" stroke="black" points="444.5,-536.5 444.5,-566.5 575.5,-566.5 575.5,-536.5 444.5,-536.5"/>
<text text-anchor="start" x="452.5" y="-554.5" font-family="Helvetica,sans-Serif" font-size="10.00">include/GameLogic/Squad</text>
<text text-anchor="middle" x="510" y="-543.5" font-family="Helvetica,sans-Serif" font-size="10.00">/AllSquadTemplates.h</text>
</a>
</g>
</g>
<!-- Node4&#45;&gt;Node6 -->
<g id="edge5" class="edge">
<title>Node4&#45;&gt;Node6</title>
<path fill="none" stroke="midnightblue" d="M490.72,-594.28C494.99,-585.02 499.77,-574.66 503.5,-566.58"/>
<polygon fill="midnightblue" stroke="midnightblue" points="487.52,-592.85 486.51,-603.4 493.88,-595.78 487.52,-592.85"/>
</g>
<!-- Node7 -->
<g id="node7" class="node">
<title>Node7</title>
<g id="a_node7"><a xlink:href="_all_squad_templates_8cpp.html" target="_top" xlink:title=" ">
<polygon fill="white" stroke="black" points="449,-469.5 449,-499.5 571,-499.5 571,-469.5 449,-469.5"/>
<text text-anchor="start" x="457" y="-487.5" font-family="Helvetica,sans-Serif" font-size="10.00">src/GameLogic/Squad</text>
<text text-anchor="middle" x="510" y="-476.5" font-family="Helvetica,sans-Serif" font-size="10.00">/AllSquadTemplates.cpp</text>
</a>
</g>
</g>
<!-- Node6&#45;&gt;Node7 -->
<g id="edge6" class="edge">
<title>Node6&#45;&gt;Node7</title>
<path fill="none" stroke="midnightblue" d="M510,-526.11C510,-517.15 510,-507.32 510,-499.58"/>
<polygon fill="midnightblue" stroke="midnightblue" points="506.5,-526.4 510,-536.4 513.5,-526.4 506.5,-526.4"/>
</g>
<!-- Node8 -->
<g id="node8" class="node">
<title>Node8</title>
<g id="a_node8"><a xlink:href="_cell_8h.html" target="_top" xlink:title=" ">
<polygon fill="white" stroke="black" points="685,-475 685,-494 813,-494 813,-475 685,-475"/>
<text text-anchor="middle" x="749" y="-482" font-family="Helvetica,sans-Serif" font-size="10.00">include/GameLogic/Cell.h</text>
</a>
</g>
</g>
<!-- Node6&#45;&gt;Node8 -->
<g id="edge7" class="edge">
<title>Node6&#45;&gt;Node8</title>
<path fill="none" stroke="midnightblue" d="M571.29,-533.83C618.07,-521.11 680.59,-504.11 717.64,-494.03"/>
<polygon fill="midnightblue" stroke="midnightblue" points="570.3,-530.47 561.57,-536.48 572.13,-537.23 570.3,-530.47"/>
</g>
<!-- Node8&#45;&gt;Node1 -->
<g id="edge53" class="edge">
<title>Node8&#45;&gt;Node1</title>
<path fill="none" stroke="midnightblue" d="M746.57,-503.97C741.87,-533.88 729.19,-593.62 699,-634 687.57,-649.29 670.14,-661.68 655.29,-670.37"/>
<polygon fill="midnightblue" stroke="midnightblue" points="750.04,-504.47 748.01,-494.07 743.11,-503.47 750.04,-504.47"/>
</g>
<!-- Node9 -->
<g id="node9" class="node">
<title>Node9</title>
<g id="a_node9"><a xlink:href="_cell_8cpp.html" target="_top" xlink:title=" ">
<polygon fill="white" stroke="black" points="688.5,-408 688.5,-427 809.5,-427 809.5,-408 688.5,-408"/>
<text text-anchor="middle" x="749" y="-415" font-family="Helvetica,sans-Serif" font-size="10.00">src/GameLogic/Cell.cpp</text>
</a>
</g>
</g>
<!-- Node8&#45;&gt;Node9 -->
<g id="edge8" class="edge">
<title>Node8&#45;&gt;Node9</title>
<path fill="none" stroke="midnightblue" d="M749,-464.54C749,-452.17 749,-436.62 749,-427.13"/>
<polygon fill="midnightblue" stroke="midnightblue" points="745.5,-464.73 749,-474.73 752.5,-464.73 745.5,-464.73"/>
</g>
<!-- Node10 -->
<g id="node10" class="node">
<title>Node10</title>
<g id="a_node10"><a xlink:href="main_8cpp.html" target="_top" xlink:title=" ">
<polygon fill="white" stroke="black" points="828,-408 828,-427 900,-427 900,-408 828,-408"/>
<text text-anchor="middle" x="864" y="-415" font-family="Helvetica,sans-Serif" font-size="10.00">src/main.cpp</text>
</a>
</g>
</g>
<!-- Node8&#45;&gt;Node10 -->
<g id="edge9" class="edge">
<title>Node8&#45;&gt;Node10</title>
<path fill="none" stroke="midnightblue" d="M773.26,-469.79C796.05,-456.9 829.46,-438.02 848.74,-427.13"/>
<polygon fill="midnightblue" stroke="midnightblue" points="771.49,-466.77 764.51,-474.73 774.94,-472.86 771.49,-466.77"/>
</g>
<!-- Node11 -->
<g id="node11" class="node">
<title>Node11</title>
<g id="a_node11"><a xlink:href="_set_squad_path_8h.html" target="_top" xlink:title=" ">
<polygon fill="white" stroke="black" points="445.5,-268.5 445.5,-298.5 558.5,-298.5 558.5,-268.5 445.5,-268.5"/>
<text text-anchor="start" x="453.5" y="-286.5" font-family="Helvetica,sans-Serif" font-size="10.00">include/engine/actions</text>
<text text-anchor="middle" x="502" y="-275.5" font-family="Helvetica,sans-Serif" font-size="10.00">/SetSquadPath.h</text>
</a>
</g>
</g>
<!-- Node8&#45;&gt;Node11 -->
<g id="edge10" class="edge">
<title>Node8&#45;&gt;Node11</title>
<path fill="none" stroke="midnightblue" d="M674.84,-476.1C616.46,-468.47 541.76,-454.61 521,-433 485.2,-395.73 487.92,-327.88 495.17,-298.59"/>
<polygon fill="midnightblue" stroke="midnightblue" points="674.43,-479.58 684.79,-477.36 675.31,-472.63 674.43,-479.58"/>
</g>
<!-- Node14 -->
<g id="node14" class="node">
<title>Node14</title>
<g id="a_node14"><a xlink:href="_game_logic_2_squad_2_action_8h.html" target="_top" xlink:title=" ">
<polygon fill="white" stroke="black" points="539.5,-402.5 539.5,-432.5 670.5,-432.5 670.5,-402.5 539.5,-402.5"/>
<text text-anchor="start" x="547.5" y="-420.5" font-family="Helvetica,sans-Serif" font-size="10.00">include/GameLogic/Squad</text>
<text text-anchor="middle" x="605" y="-409.5" font-family="Helvetica,sans-Serif" font-size="10.00">/Action.h</text>
</a>
</g>
</g>
<!-- Node8&#45;&gt;Node14 -->
<g id="edge14" class="edge">
<title>Node8&#45;&gt;Node14</title>
<path fill="none" stroke="midnightblue" d="M720.47,-470.62C696.11,-459.63 661.14,-443.84 636.08,-432.53"/>
<polygon fill="midnightblue" stroke="midnightblue" points="719.32,-473.94 729.88,-474.87 722.2,-467.56 719.32,-473.94"/>
</g>
<!-- Node16 -->
<g id="node16" class="node">
<title>Node16</title>
<g id="a_node16"><a xlink:href="_squad_8h.html" target="_top" xlink:title=" ">
<polygon fill="white" stroke="black" points="651.5,-335.5 651.5,-365.5 782.5,-365.5 782.5,-335.5 651.5,-335.5"/>
<text text-anchor="start" x="659.5" y="-353.5" font-family="Helvetica,sans-Serif" font-size="10.00">include/GameLogic/Squad</text>
<text text-anchor="middle" x="717" y="-342.5" font-family="Helvetica,sans-Serif" font-size="10.00">/Squad.h</text>
</a>
</g>
</g>
<!-- Node8&#45;&gt;Node16 -->
<g id="edge52" class="edge">
<title>Node8&#45;&gt;Node16</title>
<path fill="none" stroke="midnightblue" d="M812.46,-472.98C865.91,-461.63 929.21,-439.88 900,-402 885.27,-382.89 829.23,-369.58 782.94,-361.44"/>
<polygon fill="midnightblue" stroke="midnightblue" points="811.72,-469.56 802.61,-474.98 813.11,-476.42 811.72,-469.56"/>
</g>
<!-- Node37 -->
<g id="node37" class="node">
<title>Node37</title>
<g id="a_node37"><a xlink:href="pathfinding_8h.html" target="_top" xlink:title=" ">
<polygon fill="white" stroke="black" points="657,-274 657,-293 777,-293 777,-274 657,-274"/>
<text text-anchor="middle" x="717" y="-281" font-family="Helvetica,sans-Serif" font-size="10.00">include/util/pathfinding.h</text>
</a>
</g>
</g>
<!-- Node8&#45;&gt;Node37 -->
<g id="edge54" class="edge">
<title>Node8&#45;&gt;Node37</title>
<path fill="none" stroke="midnightblue" d="M823.26,-477.74C886.66,-469.5 963.43,-449.63 935,-402 896.54,-337.58 809.22,-306.39 757.52,-293.06"/>
<polygon fill="midnightblue" stroke="midnightblue" points="822.72,-474.28 813.22,-478.96 823.57,-481.23 822.72,-474.28"/>
</g>
<!-- Node11&#45;&gt;Node8 -->
<g id="edge13" class="edge">
<title>Node11&#45;&gt;Node8</title>
<path fill="none" stroke="midnightblue" d="M505.19,-308.63C505.76,-341.35 506.83,-399.51 539,-433 559.24,-454.07 630.74,-467.77 684.8,-475.51"/>
<polygon fill="midnightblue" stroke="midnightblue" points="508.69,-308.51 504.97,-298.59 501.69,-308.66 508.69,-308.51"/>
</g>
<!-- Node12 -->
<g id="node12" class="node">
<title>Node12</title>
<g id="a_node12"><a xlink:href="engine_2_action_8cpp.html" target="_top" xlink:title=" ">
<polygon fill="white" stroke="black" points="400,-207 400,-226 510,-226 510,-207 400,-207"/>
<text text-anchor="middle" x="455" y="-214" font-family="Helvetica,sans-Serif" font-size="10.00">src/engine/Action.cpp</text>
</a>
</g>
</g>
<!-- Node11&#45;&gt;Node12 -->
<g id="edge11" class="edge">
<title>Node11&#45;&gt;Node12</title>
<path fill="none" stroke="midnightblue" d="M485.71,-259.97C477.29,-248.33 467.51,-234.8 461.29,-226.19"/>
<polygon fill="midnightblue" stroke="midnightblue" points="483.11,-262.34 491.8,-268.4 488.78,-258.24 483.11,-262.34"/>
</g>
<!-- Node13 -->
<g id="node13" class="node">
<title>Node13</title>
<g id="a_node13"><a xlink:href="_set_squad_path_8cpp.html" target="_top" xlink:title=" ">
<polygon fill="white" stroke="black" points="280.5,-201.5 280.5,-231.5 381.5,-231.5 381.5,-201.5 280.5,-201.5"/>
<text text-anchor="start" x="288.5" y="-219.5" font-family="Helvetica,sans-Serif" font-size="10.00">src/engine/actions</text>
<text text-anchor="middle" x="331" y="-208.5" font-family="Helvetica,sans-Serif" font-size="10.00">/SetSquadPath.cpp</text>
</a>
</g>
</g>
<!-- Node11&#45;&gt;Node13 -->
<g id="edge12" class="edge">
<title>Node11&#45;&gt;Node13</title>
<path fill="none" stroke="midnightblue" d="M455.48,-264.82C428,-254.37 393.67,-241.32 368.03,-231.58"/>
<polygon fill="midnightblue" stroke="midnightblue" points="454.3,-268.11 464.9,-268.4 456.79,-261.57 454.3,-268.11"/>
</g>
<!-- Node15 -->
<g id="node15" class="node">
<title>Node15</title>
<g id="a_node15"><a xlink:href="_game_logic_2_squad_2_action_8cpp.html" target="_top" xlink:title=" ">
<polygon fill="white" stroke="black" points="528,-201.5 528,-231.5 642,-231.5 642,-201.5 528,-201.5"/>
<text text-anchor="start" x="536" y="-219.5" font-family="Helvetica,sans-Serif" font-size="10.00">src/GameLogic/Squad</text>
<text text-anchor="middle" x="585" y="-208.5" font-family="Helvetica,sans-Serif" font-size="10.00">/Action.cpp</text>
</a>
</g>
</g>
<!-- Node14&#45;&gt;Node15 -->
<g id="edge15" class="edge">
<title>Node14&#45;&gt;Node15</title>
<path fill="none" stroke="midnightblue" d="M602.54,-392C598.31,-349.93 589.8,-265.26 586.43,-231.68"/>
<polygon fill="midnightblue" stroke="midnightblue" points="599.08,-392.59 603.56,-402.19 606.04,-391.89 599.08,-392.59"/>
</g>
<!-- Node14&#45;&gt;Node16 -->
<g id="edge16" class="edge">
<title>Node14&#45;&gt;Node16</title>
<path fill="none" stroke="midnightblue" d="M632.33,-397.02C648.93,-386.9 670.02,-374.77 687.07,-365.58"/>
<polygon fill="midnightblue" stroke="midnightblue" points="630.29,-394.16 623.62,-402.4 633.97,-400.12 630.29,-394.16"/>
</g>
<!-- Node16&#45;&gt;Node8 -->
<g id="edge19" class="edge">
<title>Node16&#45;&gt;Node8</title>
<path fill="none" stroke="midnightblue" d="M792.67,-360.57C843.11,-368.62 902.73,-382.2 918,-402 949.5,-442.86 873.4,-464.95 813.23,-475.46"/>
<polygon fill="midnightblue" stroke="midnightblue" points="793.13,-357.11 782.71,-359.04 792.06,-364.02 793.13,-357.11"/>
</g>
<!-- Node16&#45;&gt;Node11 -->
<g id="edge18" class="edge">
<title>Node16&#45;&gt;Node11</title>
<path fill="none" stroke="midnightblue" d="M661.03,-332.58C626.11,-322.02 581.69,-308.59 548.67,-298.61"/>
<polygon fill="midnightblue" stroke="midnightblue" points="660.03,-335.93 670.61,-335.48 662.05,-329.23 660.03,-335.93"/>
</g>
<!-- Node16&#45;&gt;Node14 -->
<g id="edge20" class="edge">
<title>Node16&#45;&gt;Node14</title>
<path fill="none" stroke="midnightblue" d="M689.72,-370.95C673.13,-381.07 652.04,-393.2 634.98,-402.4"/>
<polygon fill="midnightblue" stroke="midnightblue" points="691.75,-373.81 698.42,-365.58 688.07,-367.86 691.75,-373.81"/>
</g>
<!-- Node17 -->
<g id="node17" class="node">
<title>Node17</title>
<g id="a_node17"><a xlink:href="_squad_8cpp.html" target="_top" xlink:title=" ">
<polygon fill="white" stroke="black" points="313,-268.5 313,-298.5 427,-298.5 427,-268.5 313,-268.5"/>
<text text-anchor="start" x="321" y="-286.5" font-family="Helvetica,sans-Serif" font-size="10.00">src/GameLogic/Squad</text>
<text text-anchor="middle" x="370" y="-275.5" font-family="Helvetica,sans-Serif" font-size="10.00">/Squad.cpp</text>
</a>
</g>
</g>
<!-- Node16&#45;&gt;Node17 -->
<g id="edge17" class="edge">
<title>Node16&#45;&gt;Node17</title>
<path fill="none" stroke="midnightblue" d="M641.34,-336.71C584.69,-326.94 505.35,-312.85 436,-299 433.12,-298.43 430.18,-297.83 427.21,-297.21"/>
<polygon fill="midnightblue" stroke="midnightblue" points="640.84,-340.18 651.29,-338.43 642.03,-333.28 640.84,-340.18"/>
</g>
<!-- Node18 -->
<g id="node18" class="node">
<title>Node18</title>
<g id="a_node18"><a xlink:href="_unit_8h.html" target="_top" xlink:title=" ">
<polygon fill="white" stroke="black" points="975.5,-268.5 975.5,-298.5 1102.5,-298.5 1102.5,-268.5 975.5,-268.5"/>
<text text-anchor="start" x="983.5" y="-286.5" font-family="Helvetica,sans-Serif" font-size="10.00">include/GameLogic/Units</text>
<text text-anchor="middle" x="1039" y="-275.5" font-family="Helvetica,sans-Serif" font-size="10.00">/Unit.h</text>
</a>
</g>
</g>
<!-- Node16&#45;&gt;Node18 -->
<g id="edge21" class="edge">
<title>Node16&#45;&gt;Node18</title>
<path fill="none" stroke="midnightblue" d="M790.63,-333.44C846.4,-321.93 922.18,-306.67 975.36,-296.27"/>
<polygon fill="midnightblue" stroke="midnightblue" points="789.89,-330.02 780.8,-335.48 791.31,-336.88 789.89,-330.02"/>
</g>
<!-- Node16&#45;&gt;Node37 -->
<g id="edge49" class="edge">
<title>Node16&#45;&gt;Node37</title>
<path fill="none" stroke="midnightblue" d="M717,-325.25C717,-314.02 717,-301.38 717,-293.19"/>
<polygon fill="midnightblue" stroke="midnightblue" points="713.5,-325.4 717,-335.4 720.5,-325.4 713.5,-325.4"/>
</g>
<!-- Node18&#45;&gt;Node1 -->
<g id="edge31" class="edge">
<title>Node18&#45;&gt;Node1</title>
<path fill="none" stroke="midnightblue" d="M1045.15,-308.47C1051.34,-334.79 1060,-378.36 1060,-416.5 1060,-552.5 1060,-552.5 1060,-552.5 1060,-628.73 811.34,-665.23 690.89,-678.44"/>
<polygon fill="midnightblue" stroke="midnightblue" points="1048.52,-307.53 1042.75,-298.64 1041.72,-309.19 1048.52,-307.53"/>
</g>
<!-- Node18&#45;&gt;Node16 -->
<g id="edge23" class="edge">
<title>Node18&#45;&gt;Node16</title>
<path fill="none" stroke="midnightblue" d="M965.21,-300.59C910.13,-311.96 835.6,-326.97 782.59,-337.35"/>
<polygon fill="midnightblue" stroke="midnightblue" points="966.18,-303.96 975.26,-298.51 964.76,-297.11 966.18,-303.96"/>
</g>
<!-- Node19 -->
<g id="node19" class="node">
<title>Node19</title>
<g id="a_node19"><a xlink:href="_unit_8cpp.html" target="_top" xlink:title=" ">
<polygon fill="white" stroke="black" points="1031,-134.5 1031,-164.5 1141,-164.5 1141,-134.5 1031,-134.5"/>
<text text-anchor="start" x="1039" y="-152.5" font-family="Helvetica,sans-Serif" font-size="10.00">src/GameLogic/Units</text>
<text text-anchor="middle" x="1086" y="-141.5" font-family="Helvetica,sans-Serif" font-size="10.00">/Unit.cpp</text>
</a>
</g>
</g>
<!-- Node18&#45;&gt;Node19 -->
<g id="edge22" class="edge">
<title>Node18&#45;&gt;Node19</title>
<path fill="none" stroke="midnightblue" d="M1081.26,-263.08C1093.41,-255.25 1105.21,-244.96 1112,-232 1123.65,-209.77 1108.59,-181.37 1097.01,-164.64"/>
<polygon fill="midnightblue" stroke="midnightblue" points="1079.21,-260.22 1072.41,-268.34 1082.79,-266.23 1079.21,-260.22"/>
</g>
<!-- Node20 -->
<g id="node20" class="node">
<title>Node20</title>
<g id="a_node20"><a xlink:href="_squad_order_8h.html" target="_top" xlink:title=" ">
<polygon fill="white" stroke="black" points="753.5,-134.5 753.5,-164.5 884.5,-164.5 884.5,-134.5 753.5,-134.5"/>
<text text-anchor="start" x="761.5" y="-152.5" font-family="Helvetica,sans-Serif" font-size="10.00">include/GameLogic/Squad</text>
<text text-anchor="middle" x="819" y="-141.5" font-family="Helvetica,sans-Serif" font-size="10.00">/SquadOrder.h</text>
</a>
</g>
</g>
<!-- Node18&#45;&gt;Node20 -->
<g id="edge24" class="edge">
<title>Node18&#45;&gt;Node20</title>
<path fill="none" stroke="midnightblue" d="M1010,-262.75C996.75,-253.58 980.95,-242.42 967,-232 949.26,-218.75 946.84,-212.62 928,-201 904.75,-186.66 876.75,-173.77 854.95,-164.6"/>
<polygon fill="midnightblue" stroke="midnightblue" points="1008.06,-265.66 1018.28,-268.46 1012.04,-259.9 1008.06,-265.66"/>
</g>
<!-- Node22 -->
<g id="node22" class="node">
<title>Node22</title>
<g id="a_node22"><a xlink:href="_armored_unit_8h.html" target="_top" xlink:title=" ">
<polygon fill="white" stroke="black" points="1197.5,-134.5 1197.5,-164.5 1324.5,-164.5 1324.5,-134.5 1197.5,-134.5"/>
<text text-anchor="start" x="1205.5" y="-152.5" font-family="Helvetica,sans-Serif" font-size="10.00">include/GameLogic/Units</text>
<text text-anchor="middle" x="1261" y="-141.5" font-family="Helvetica,sans-Serif" font-size="10.00">/ArmoredUnit.h</text>
</a>
</g>
</g>
<!-- Node18&#45;&gt;Node22 -->
<g id="edge26" class="edge">
<title>Node18&#45;&gt;Node22</title>
<path fill="none" stroke="midnightblue" d="M1073.27,-263.41C1089.87,-254.07 1110.05,-242.59 1128,-232 1167.19,-208.89 1212.22,-181.01 1238.55,-164.58"/>
<polygon fill="midnightblue" stroke="midnightblue" points="1071.46,-260.41 1064.45,-268.36 1074.88,-266.52 1071.46,-260.41"/>
</g>
<!-- Node27 -->
<g id="node27" class="node">
<title>Node27</title>
<g id="a_node27"><a xlink:href="_land_unit_8h.html" target="_top" xlink:title=" ">
<polygon fill="white" stroke="black" points="791.5,-201.5 791.5,-231.5 918.5,-231.5 918.5,-201.5 791.5,-201.5"/>
<text text-anchor="start" x="799.5" y="-219.5" font-family="Helvetica,sans-Serif" font-size="10.00">include/GameLogic/Units</text>
<text text-anchor="middle" x="855" y="-208.5" font-family="Helvetica,sans-Serif" font-size="10.00">/LandUnit.h</text>
</a>
</g>
</g>
<!-- Node18&#45;&gt;Node27 -->
<g id="edge32" class="edge">
<title>Node18&#45;&gt;Node27</title>
<path fill="none" stroke="midnightblue" d="M989.33,-264.96C959.7,-254.48 922.56,-241.37 894.85,-231.58"/>
<polygon fill="midnightblue" stroke="midnightblue" points="988.48,-268.37 999.07,-268.4 990.81,-261.76 988.48,-268.37"/>
</g>
<!-- Node31 -->
<g id="node31" class="node">
<title>Node31</title>
<g id="a_node31"><a xlink:href="_transport_unit_8h.html" target="_top" xlink:title=" ">
<polygon fill="white" stroke="black" points="1298.5,-201.5 1298.5,-231.5 1425.5,-231.5 1425.5,-201.5 1298.5,-201.5"/>
<text text-anchor="start" x="1306.5" y="-219.5" font-family="Helvetica,sans-Serif" font-size="10.00">include/GameLogic/Units</text>
<text text-anchor="middle" x="1362" y="-208.5" font-family="Helvetica,sans-Serif" font-size="10.00">/TransportUnit.h</text>
</a>
</g>
</g>
<!-- Node18&#45;&gt;Node31 -->
<g id="edge37" class="edge">
<title>Node18&#45;&gt;Node31</title>
<path fill="none" stroke="midnightblue" d="M1112.67,-267.67C1168.68,-256.4 1244.94,-241.06 1298.32,-230.32"/>
<polygon fill="midnightblue" stroke="midnightblue" points="1111.93,-264.25 1102.81,-269.66 1113.31,-271.12 1111.93,-264.25"/>
</g>
<!-- Node35 -->
<g id="node35" class="node">
<title>Node35</title>
<g id="a_node35"><a xlink:href="_unit_order_8h.html" target="_top" xlink:title=" ">
<polygon fill="white" stroke="black" points="975.5,-201.5 975.5,-231.5 1102.5,-231.5 1102.5,-201.5 975.5,-201.5"/>
<text text-anchor="start" x="983.5" y="-219.5" font-family="Helvetica,sans-Serif" font-size="10.00">include/GameLogic/Units</text>
<text text-anchor="middle" x="1039" y="-208.5" font-family="Helvetica,sans-Serif" font-size="10.00">/UnitOrder.h</text>
</a>
</g>
</g>
<!-- Node18&#45;&gt;Node35 -->
<g id="edge44" class="edge">
<title>Node18&#45;&gt;Node35</title>
<path fill="none" stroke="midnightblue" d="M1032.45,-258.4C1032.01,-249.37 1032.3,-239.41 1033.33,-231.58"/>
<polygon fill="midnightblue" stroke="midnightblue" points="1028.97,-258.74 1033.32,-268.4 1035.94,-258.13 1028.97,-258.74"/>
</g>
<!-- Node21 -->
<g id="node21" class="node">
<title>Node21</title>
<g id="a_node21"><a xlink:href="_squad_order_8cpp.html" target="_top" xlink:title=" ">
<polygon fill="white" stroke="black" points="762,-67.5 762,-97.5 876,-97.5 876,-67.5 762,-67.5"/>
<text text-anchor="start" x="770" y="-85.5" font-family="Helvetica,sans-Serif" font-size="10.00">src/GameLogic/Squad</text>
<text text-anchor="middle" x="819" y="-74.5" font-family="Helvetica,sans-Serif" font-size="10.00">/SquadOrder.cpp</text>
</a>
</g>
</g>
<!-- Node20&#45;&gt;Node21 -->
<g id="edge25" class="edge">
<title>Node20&#45;&gt;Node21</title>
<path fill="none" stroke="midnightblue" d="M819,-124.11C819,-115.15 819,-105.32 819,-97.58"/>
<polygon fill="midnightblue" stroke="midnightblue" points="815.5,-124.4 819,-134.4 822.5,-124.4 815.5,-124.4"/>
</g>
<!-- Node23 -->
<g id="node23" class="node">
<title>Node23</title>
<g id="a_node23"><a xlink:href="_armored_unit_8cpp.html" target="_top" xlink:title=" ">
<polygon fill="white" stroke="black" points="1201,-67.5 1201,-97.5 1311,-97.5 1311,-67.5 1201,-67.5"/>
<text text-anchor="start" x="1209" y="-85.5" font-family="Helvetica,sans-Serif" font-size="10.00">src/GameLogic/Units</text>
<text text-anchor="middle" x="1256" y="-74.5" font-family="Helvetica,sans-Serif" font-size="10.00">/ArmoredUnit.cpp</text>
</a>
</g>
</g>
<!-- Node22&#45;&gt;Node23 -->
<g id="edge27" class="edge">
<title>Node22&#45;&gt;Node23</title>
<path fill="none" stroke="midnightblue" d="M1259.15,-124.4C1258.45,-115.37 1257.69,-105.41 1257.08,-97.58"/>
<polygon fill="midnightblue" stroke="midnightblue" points="1255.66,-124.69 1259.92,-134.4 1262.64,-124.16 1255.66,-124.69"/>
</g>
<!-- Node22&#45;&gt;Node24 -->
<g id="edge28" class="edge">
<title>Node22&#45;&gt;Node24</title>
<path fill="none" stroke="midnightblue" d="M1307.24,-130.82C1334.57,-120.37 1368.69,-107.32 1394.18,-97.58"/>
<polygon fill="midnightblue" stroke="midnightblue" points="1305.98,-127.56 1297.89,-134.4 1308.48,-134.09 1305.98,-127.56"/>
</g>
<!-- Node25 -->
<g id="node25" class="node">
<title>Node25</title>
<g id="a_node25"><a xlink:href="_all_units_8cpp.html" target="_top" xlink:title=" ">
<polygon fill="white" stroke="black" points="1175,-0.5 1175,-30.5 1285,-30.5 1285,-0.5 1175,-0.5"/>
<text text-anchor="start" x="1183" y="-18.5" font-family="Helvetica,sans-Serif" font-size="10.00">src/GameLogic/Units</text>
<text text-anchor="middle" x="1230" y="-7.5" font-family="Helvetica,sans-Serif" font-size="10.00">/AllUnits.cpp</text>
</a>
</g>
</g>
<!-- Node24&#45;&gt;Node25 -->
<g id="edge29" class="edge">
<title>Node24&#45;&gt;Node25</title>
<path fill="none" stroke="midnightblue" d="M1377.59,-64.23C1345.07,-53.71 1304.06,-40.45 1273.53,-30.58"/>
<polygon fill="midnightblue" stroke="midnightblue" points="1376.79,-67.65 1387.39,-67.4 1378.95,-60.99 1376.79,-67.65"/>
</g>
<!-- Node26 -->
<g id="node26" class="node">
<title>Node26</title>
<g id="a_node26"><a xlink:href="_armored_unit_factory_8cpp.html" target="_top" xlink:title=" ">
<polygon fill="white" stroke="black" points="1368.5,-0.5 1368.5,-30.5 1493.5,-30.5 1493.5,-0.5 1368.5,-0.5"/>
<text text-anchor="start" x="1376.5" y="-18.5" font-family="Helvetica,sans-Serif" font-size="10.00">src/GameLogic/Units</text>
<text text-anchor="middle" x="1431" y="-7.5" font-family="Helvetica,sans-Serif" font-size="10.00">/ArmoredUnitFactory.cpp</text>
</a>
</g>
</g>
<!-- Node24&#45;&gt;Node26 -->
<g id="edge30" class="edge">
<title>Node24&#45;&gt;Node26</title>
<path fill="none" stroke="midnightblue" d="M1431,-57.11C1431,-48.15 1431,-38.32 1431,-30.58"/>
<polygon fill="midnightblue" stroke="midnightblue" points="1427.5,-57.4 1431,-67.4 1434.5,-57.4 1427.5,-57.4"/>
</g>
<!-- Node28 -->
<g id="node28" class="node">
<title>Node28</title>
<g id="a_node28"><a xlink:href="_land_unit_8cpp.html" target="_top" xlink:title=" ">
<polygon fill="white" stroke="black" points="625,-134.5 625,-164.5 735,-164.5 735,-134.5 625,-134.5"/>
<text text-anchor="start" x="633" y="-152.5" font-family="Helvetica,sans-Serif" font-size="10.00">src/GameLogic/Units</text>
<text text-anchor="middle" x="680" y="-141.5" font-family="Helvetica,sans-Serif" font-size="10.00">/LandUnit.cpp</text>
</a>
</g>
</g>
<!-- Node27&#45;&gt;Node28 -->
<g id="edge33" class="edge">
<title>Node27&#45;&gt;Node28</title>
<path fill="none" stroke="midnightblue" d="M807.4,-197.82C779.27,-187.37 744.14,-174.32 717.9,-164.58"/>
<polygon fill="midnightblue" stroke="midnightblue" points="806.43,-201.2 817.03,-201.4 808.87,-194.63 806.43,-201.2"/>
</g>
<!-- Node27&#45;&gt;Node29 -->
<g id="edge34" class="edge">
<title>Node27&#45;&gt;Node29</title>
<path fill="none" stroke="midnightblue" d="M781.45,-200.18C728.36,-189.12 657.37,-174.33 606.69,-163.77"/>
<polygon fill="midnightblue" stroke="midnightblue" points="780.98,-203.65 791.49,-202.27 782.41,-196.8 780.98,-203.65"/>
</g>
<!-- Node29&#45;&gt;Node25 -->
<g id="edge35" class="edge">
<title>Node29&#45;&gt;Node25</title>
<path fill="none" stroke="midnightblue" d="M541.58,-124.36C541.92,-105.75 545.77,-80.91 562,-67 608.08,-27.5 1023.18,-18.84 1174.84,-16.99"/>
<polygon fill="midnightblue" stroke="midnightblue" points="538.08,-124.52 541.72,-134.47 545.08,-124.43 538.08,-124.52"/>
</g>
<!-- Node30 -->
<g id="node30" class="node">
<title>Node30</title>
<g id="a_node30"><a xlink:href="_land_unit_factory_8cpp.html" target="_top" xlink:title=" ">
<polygon fill="white" stroke="black" points="571,-67.5 571,-97.5 681,-97.5 681,-67.5 571,-67.5"/>
<text text-anchor="start" x="579" y="-85.5" font-family="Helvetica,sans-Serif" font-size="10.00">src/GameLogic/Units</text>
<text text-anchor="middle" x="626" y="-74.5" font-family="Helvetica,sans-Serif" font-size="10.00">/LandUnitFactory.cpp</text>
</a>
</g>
</g>
<!-- Node29&#45;&gt;Node30 -->
<g id="edge36" class="edge">
<title>Node29&#45;&gt;Node30</title>
<path fill="none" stroke="midnightblue" d="M568.96,-128.17C581.65,-118.23 596.61,-106.51 608.03,-97.58"/>
<polygon fill="midnightblue" stroke="midnightblue" points="566.72,-125.47 561.01,-134.4 571.04,-130.99 566.72,-125.47"/>
</g>
<!-- Node31&#45;&gt;Node22 -->
<g id="edge39" class="edge">
<title>Node31&#45;&gt;Node22</title>
<path fill="none" stroke="midnightblue" d="M1331.29,-195.73C1315.66,-185.68 1297.03,-173.68 1282.87,-164.58"/>
<polygon fill="midnightblue" stroke="midnightblue" points="1329.78,-198.93 1340.08,-201.4 1333.57,-193.04 1329.78,-198.93"/>
</g>
<!-- Node32 -->
<g id="node32" class="node">
<title>Node32</title>
<g id="a_node32"><a xlink:href="_transport_unit_8cpp.html" target="_top" xlink:title=" ">
<polygon fill="white" stroke="black" points="1343,-134.5 1343,-164.5 1453,-164.5 1453,-134.5 1343,-134.5"/>
<text text-anchor="start" x="1351" y="-152.5" font-family="Helvetica,sans-Serif" font-size="10.00">src/GameLogic/Units</text>
<text text-anchor="middle" x="1398" y="-141.5" font-family="Helvetica,sans-Serif" font-size="10.00">/TransportUnit.cpp</text>
</a>
</g>
</g>
<!-- Node31&#45;&gt;Node32 -->
<g id="edge38" class="edge">
<title>Node31&#45;&gt;Node32</title>
<path fill="none" stroke="midnightblue" d="M1374.7,-192.58C1379.87,-183.24 1385.68,-172.75 1390.2,-164.58"/>
<polygon fill="midnightblue" stroke="midnightblue" points="1371.59,-190.95 1369.81,-201.4 1377.72,-194.34 1371.59,-190.95"/>
</g>
<!-- Node31&#45;&gt;Node33 -->
<g id="edge40" class="edge">
<title>Node31&#45;&gt;Node33</title>
<path fill="none" stroke="midnightblue" d="M1409.06,-197.82C1436.87,-187.37 1471.59,-174.32 1497.53,-164.58"/>
<polygon fill="midnightblue" stroke="midnightblue" points="1407.67,-194.6 1399.54,-201.4 1410.13,-201.16 1407.67,-194.6"/>
</g>
<!-- Node33&#45;&gt;Node24 -->
<g id="edge43" class="edge">
<title>Node33&#45;&gt;Node24</title>
<path fill="none" stroke="midnightblue" d="M1503.82,-129.02C1487.64,-118.9 1468.23,-106.77 1453.52,-97.58"/>
<polygon fill="midnightblue" stroke="midnightblue" points="1502.1,-132.06 1512.43,-134.4 1505.81,-126.13 1502.1,-132.06"/>
</g>
<!-- Node33&#45;&gt;Node25 -->
<g id="edge41" class="edge">
<title>Node33&#45;&gt;Node25</title>
<path fill="none" stroke="midnightblue" d="M1467.15,-131.94C1426.09,-121.36 1378.1,-107.83 1359,-98 1339.31,-87.86 1338.38,-79.35 1320,-67 1299.92,-53.51 1275.99,-40.21 1257.86,-30.64"/>
<polygon fill="midnightblue" stroke="midnightblue" points="1466.31,-135.34 1476.87,-134.43 1468.05,-128.56 1466.31,-135.34"/>
</g>
<!-- Node34 -->
<g id="node34" class="node">
<title>Node34</title>
<g id="a_node34"><a xlink:href="_transport_unit_factory_8cpp.html" target="_top" xlink:title=" ">
<polygon fill="white" stroke="black" points="1512.5,-67.5 1512.5,-97.5 1641.5,-97.5 1641.5,-67.5 1512.5,-67.5"/>
<text text-anchor="start" x="1520.5" y="-85.5" font-family="Helvetica,sans-Serif" font-size="10.00">src/GameLogic/Units</text>
<text text-anchor="middle" x="1577" y="-74.5" font-family="Helvetica,sans-Serif" font-size="10.00">/TransportUnitFactory.cpp</text>
</a>
</g>
</g>
<!-- Node33&#45;&gt;Node34 -->
<g id="edge42" class="edge">
<title>Node33&#45;&gt;Node34</title>
<path fill="none" stroke="midnightblue" d="M1549.62,-125.87C1555.7,-116.46 1562.57,-105.83 1567.9,-97.58"/>
<polygon fill="midnightblue" stroke="midnightblue" points="1546.6,-124.1 1544.11,-134.4 1552.48,-127.9 1546.6,-124.1"/>
</g>
<!-- Node35&#45;&gt;Node18 -->
<g id="edge48" class="edge">
<title>Node35&#45;&gt;Node18</title>
<path fill="none" stroke="midnightblue" d="M1045.54,-241.57C1045.99,-250.6 1045.71,-260.56 1044.68,-268.4"/>
<polygon fill="midnightblue" stroke="midnightblue" points="1049.03,-241.24 1044.67,-231.58 1042.05,-241.84 1049.03,-241.24"/>
</g>
<!-- Node35&#45;&gt;Node19 -->
<g id="edge45" class="edge">
<title>Node35&#45;&gt;Node19</title>
<path fill="none" stroke="midnightblue" d="M1055.16,-193.16C1062.01,-183.68 1069.79,-172.92 1075.82,-164.58"/>
<polygon fill="midnightblue" stroke="midnightblue" points="1052.22,-191.24 1049.2,-201.4 1057.89,-195.34 1052.22,-191.24"/>
</g>
<!-- Node35&#45;&gt;Node20 -->
<g id="edge47" class="edge">
<title>Node35&#45;&gt;Node20</title>
<path fill="none" stroke="midnightblue" d="M981.73,-198.58C946,-188.02 900.54,-174.59 866.76,-164.61"/>
<polygon fill="midnightblue" stroke="midnightblue" points="980.95,-202 991.53,-201.48 982.94,-195.29 980.95,-202"/>
</g>
<!-- Node36 -->
<g id="node36" class="node">
<title>Node36</title>
<g id="a_node36"><a xlink:href="_unit_order_8cpp.html" target="_top" xlink:title=" ">
<polygon fill="white" stroke="black" points="903,-134.5 903,-164.5 1013,-164.5 1013,-134.5 903,-134.5"/>
<text text-anchor="start" x="911" y="-152.5" font-family="Helvetica,sans-Serif" font-size="10.00">src/GameLogic/Units</text>
<text text-anchor="middle" x="958" y="-141.5" font-family="Helvetica,sans-Serif" font-size="10.00">/UnitOrder.cpp</text>
</a>
</g>
</g>
<!-- Node35&#45;&gt;Node36 -->
<g id="edge46" class="edge">
<title>Node35&#45;&gt;Node36</title>
<path fill="none" stroke="midnightblue" d="M1013.31,-194.88C1001,-185.01 986.57,-173.43 975.54,-164.58"/>
<polygon fill="midnightblue" stroke="midnightblue" points="1011.43,-197.87 1021.42,-201.4 1015.82,-192.41 1011.43,-197.87"/>
</g>
<!-- Node37&#45;&gt;Node15 -->
<g id="edge50" class="edge">
<title>Node37&#45;&gt;Node15</title>
<path fill="none" stroke="midnightblue" d="M690.28,-269.34C668.06,-258.4 636.5,-242.86 613.74,-231.65"/>
<polygon fill="midnightblue" stroke="midnightblue" points="688.95,-272.59 699.47,-273.87 692.05,-266.31 688.95,-272.59"/>
</g>
<!-- Node38 -->
<g id="node38" class="node">
<title>Node38</title>
<g id="a_node38"><a xlink:href="pathfinding_8cpp.html" target="_top" xlink:title=" ">
<polygon fill="white" stroke="black" points="660.5,-207 660.5,-226 773.5,-226 773.5,-207 660.5,-207"/>
<text text-anchor="middle" x="717" y="-214" font-family="Helvetica,sans-Serif" font-size="10.00">src/util/pathfinding.cpp</text>
</a>
</g>
</g>
<!-- Node37&#45;&gt;Node38 -->
<g id="edge51" class="edge">
<title>Node37&#45;&gt;Node38</title>
<path fill="none" stroke="midnightblue" d="M717,-263.54C717,-251.17 717,-235.62 717,-226.13"/>
<polygon fill="midnightblue" stroke="midnightblue" points="713.5,-263.73 717,-273.73 720.5,-263.73 713.5,-263.73"/>
</g>
<!-- Node39&#45;&gt;Node5 -->
<g id="edge57" class="edge">
<title>Node39&#45;&gt;Node5</title>
<path fill="none" stroke="midnightblue" d="M561.45,-600.98C519.3,-590.37 465.14,-576.72 425.01,-566.61"/>
<polygon fill="midnightblue" stroke="midnightblue" points="560.78,-604.43 571.34,-603.48 562.49,-597.64 560.78,-604.43"/>
</g>
<!-- Node39&#45;&gt;Node6 -->
<g id="edge60" class="edge">
<title>Node39&#45;&gt;Node6</title>
<path fill="none" stroke="midnightblue" d="M592.68,-598.44C574.33,-588.24 552.12,-575.9 535.34,-566.58"/>
<polygon fill="midnightblue" stroke="midnightblue" points="591.17,-601.6 601.61,-603.4 594.57,-595.48 591.17,-601.6"/>
</g>
<!-- Node39&#45;&gt;Node8 -->
<g id="edge59" class="edge">
<title>Node39&#45;&gt;Node8</title>
<path fill="none" stroke="midnightblue" d="M646.85,-596.02C674.19,-566.44 722.18,-514.52 741.05,-494.1"/>
<polygon fill="midnightblue" stroke="midnightblue" points="644.27,-593.65 640.06,-603.37 649.41,-598.41 644.27,-593.65"/>
</g>
<!-- Node39&#45;&gt;Node17 -->
<g id="edge56" class="edge">
<title>Node39&#45;&gt;Node17</title>
<path fill="none" stroke="midnightblue" d="M625.11,-593.29C621.45,-561.38 610.79,-505.05 580,-469 556.77,-441.79 536.64,-454.45 508,-433 453.07,-391.86 401.75,-327.23 380.42,-298.77"/>
<polygon fill="midnightblue" stroke="midnightblue" points="621.66,-593.89 626.14,-603.49 628.62,-593.19 621.66,-593.89"/>
</g>
<!-- Node39&#45;&gt;Node25 -->
<g id="edge58" class="edge">
<title>Node39&#45;&gt;Node25</title>
<path fill="none" stroke="midnightblue" d="M676.4,-599.86C775.84,-561.66 1000.21,-461.42 1112,-299 1173.84,-209.16 1140.81,-163.31 1192,-67 1199,-53.82 1209.29,-40.39 1217.4,-30.7"/>
<polygon fill="midnightblue" stroke="midnightblue" points="674.99,-596.65 666.89,-603.47 677.48,-603.19 674.99,-596.65"/>
</g>
</g>
</svg>
