<?xml version="1.0" encoding="UTF-8" standalone="no"?>
<!DOCTYPE svg PUBLIC "-//W3C//DTD SVG 1.1//EN"
 "http://www.w3.org/Graphics/SVG/1.1/DTD/svg11.dtd">
<!-- Generated by graphviz version 2.47.0 (20210407.0042)
 -->
<!-- Title: include/GameLogic/Flag.h Pages: 1 -->
<svg width="1493pt" height="609pt"
 viewBox="0.00 0.00 1493.37 609.00" xmlns="http://www.w3.org/2000/svg" xmlns:xlink="http://www.w3.org/1999/xlink">
<g id="graph0" class="graph" transform="scale(1 1) rotate(0) translate(4 605)">
<title>include/GameLogic/Flag.h</title>
<polygon fill="white" stroke="transparent" points="-4,4 -4,-605 1489.37,-605 1489.37,4 -4,4"/>
<!-- Node1 -->
<g id="node1" class="node">
<title>Node1</title>
<g id="a_node1"><a xlink:title=" ">
<polygon fill="#bfbfbf" stroke="black" points="273,-581.5 273,-600.5 403,-600.5 403,-581.5 273,-581.5"/>
<text text-anchor="middle" x="338" y="-588.5" font-family="Helvetica,sans-Serif" font-size="10.00">include/GameLogic/Flag.h</text>
</a>
</g>
</g>
<!-- Node2 -->
<g id="node2" class="node">
<title>Node2</title>
<g id="a_node2"><a xlink:href="_flag_8cpp.html" target="_top" xlink:title=" ">
<polygon fill="white" stroke="black" points="200.5,-525.5 200.5,-544.5 323.5,-544.5 323.5,-525.5 200.5,-525.5"/>
<text text-anchor="middle" x="262" y="-532.5" font-family="Helvetica,sans-Serif" font-size="10.00">src/GameLogic/Flag.cpp</text>
</a>
</g>
</g>
<!-- Node1&#45;&gt;Node2 -->
<g id="edge1" class="edge">
<title>Node1&#45;&gt;Node2</title>
<path fill="none" stroke="midnightblue" d="M317.42,-575.38C303.69,-565.62 286.07,-553.11 274.43,-544.83"/>
<polygon fill="midnightblue" stroke="midnightblue" points="315.61,-578.38 325.79,-581.32 319.66,-572.68 315.61,-578.38"/>
</g>
<!-- Node3 -->
<g id="node3" class="node">
<title>Node3</title>
<g id="a_node3"><a xlink:href="_all_flags_8h.html" target="_top" xlink:title=" ">
<polygon fill="white" stroke="black" points="342,-525.5 342,-544.5 488,-544.5 488,-525.5 342,-525.5"/>
<text text-anchor="middle" x="415" y="-532.5" font-family="Helvetica,sans-Serif" font-size="10.00">include/GameLogic/AllFlags.h</text>
</a>
</g>
</g>
<!-- Node1&#45;&gt;Node3 -->
<g id="edge2" class="edge">
<title>Node1&#45;&gt;Node3</title>
<path fill="none" stroke="midnightblue" d="M358.9,-575.34C372.91,-565.52 390.88,-552.91 402.66,-544.65"/>
<polygon fill="midnightblue" stroke="midnightblue" points="356.55,-572.72 350.37,-581.32 360.57,-578.45 356.55,-572.72"/>
</g>
<!-- Node4 -->
<g id="node4" class="node">
<title>Node4</title>
<g id="a_node4"><a xlink:href="_all_flags_8cpp.html" target="_top" xlink:title=" ">
<polygon fill="white" stroke="black" points="0,-469.5 0,-488.5 140,-488.5 140,-469.5 0,-469.5"/>
<text text-anchor="middle" x="70" y="-476.5" font-family="Helvetica,sans-Serif" font-size="10.00">src/GameLogic/AllFlags.cpp</text>
</a>
</g>
</g>
<!-- Node3&#45;&gt;Node4 -->
<g id="edge3" class="edge">
<title>Node3&#45;&gt;Node4</title>
<path fill="none" stroke="midnightblue" d="M350.18,-523.85C284.99,-513.65 185.62,-498.1 124.41,-488.52"/>
<polygon fill="midnightblue" stroke="midnightblue" points="349.91,-527.35 360.33,-525.44 351,-520.44 349.91,-527.35"/>
</g>
<!-- Node5 -->
<g id="node5" class="node">
<title>Node5</title>
<g id="a_node5"><a xlink:href="_game_logic_2_squad_2_action_8cpp.html" target="_top" xlink:title=" ">
<polygon fill="white" stroke="black" points="68,-201.5 68,-231.5 182,-231.5 182,-201.5 68,-201.5"/>
<text text-anchor="start" x="76" y="-219.5" font-family="Helvetica,sans-Serif" font-size="10.00">src/GameLogic/Squad</text>
<text text-anchor="middle" x="125" y="-208.5" font-family="Helvetica,sans-Serif" font-size="10.00">/Action.cpp</text>
</a>
</g>
</g>
<!-- Node3&#45;&gt;Node5 -->
<g id="edge4" class="edge">
<title>Node3&#45;&gt;Node5</title>
<path fill="none" stroke="midnightblue" d="M370.08,-522.79C298.86,-503.7 168,-462.6 168,-418.5 168,-418.5 168,-418.5 168,-349.5 168,-304.67 145.3,-255.3 132.89,-231.66"/>
<polygon fill="midnightblue" stroke="midnightblue" points="369.57,-526.28 380.13,-525.45 371.36,-519.51 369.57,-526.28"/>
</g>
<!-- Node6 -->
<g id="node6" class="node">
<title>Node6</title>
<g id="a_node6"><a xlink:href="_cell_8h.html" target="_top" xlink:title=" ">
<polygon fill="white" stroke="black" points="647,-469.5 647,-488.5 775,-488.5 775,-469.5 647,-469.5"/>
<text text-anchor="middle" x="711" y="-476.5" font-family="Helvetica,sans-Serif" font-size="10.00">include/GameLogic/Cell.h</text>
</a>
</g>
</g>
<!-- Node3&#45;&gt;Node6 -->
<g id="edge5" class="edge">
<title>Node3&#45;&gt;Node6</title>
<path fill="none" stroke="midnightblue" d="M472,-523.6C527.94,-513.4 612.23,-498.02 664.32,-488.52"/>
<polygon fill="midnightblue" stroke="midnightblue" points="471.11,-520.21 461.9,-525.44 472.37,-527.09 471.11,-520.21"/>
</g>
<!-- Node15 -->
<g id="node15" class="node">
<title>Node15</title>
<g id="a_node15"><a xlink:href="_unit_8h.html" target="_top" xlink:title=" ">
<polygon fill="white" stroke="black" points="930.5,-268.5 930.5,-298.5 1057.5,-298.5 1057.5,-268.5 930.5,-268.5"/>
<text text-anchor="start" x="938.5" y="-286.5" font-family="Helvetica,sans-Serif" font-size="10.00">include/GameLogic/Units</text>
<text text-anchor="middle" x="994" y="-275.5" font-family="Helvetica,sans-Serif" font-size="10.00">/Unit.h</text>
</a>
</g>
</g>
<!-- Node3&#45;&gt;Node15 -->
<g id="edge53" class="edge">
<title>Node3&#45;&gt;Node15</title>
<path fill="none" stroke="midnightblue" d="M498.58,-530C591.55,-524.48 735.12,-512.41 784,-489 879.46,-443.27 958.43,-336.85 984.69,-298.55"/>
<polygon fill="midnightblue" stroke="midnightblue" points="498.12,-526.52 488.34,-530.6 498.53,-533.51 498.12,-526.52"/>
</g>
<!-- Node7 -->
<g id="node7" class="node">
<title>Node7</title>
<g id="a_node7"><a xlink:href="_cell_8cpp.html" target="_top" xlink:title=" ">
<polygon fill="white" stroke="black" points="364.5,-408 364.5,-427 485.5,-427 485.5,-408 364.5,-408"/>
<text text-anchor="middle" x="425" y="-415" font-family="Helvetica,sans-Serif" font-size="10.00">src/GameLogic/Cell.cpp</text>
</a>
</g>
</g>
<!-- Node6&#45;&gt;Node7 -->
<g id="edge6" class="edge">
<title>Node6&#45;&gt;Node7</title>
<path fill="none" stroke="midnightblue" d="M660.06,-467.4C604.61,-455.87 517.05,-437.65 465.9,-427.01"/>
<polygon fill="midnightblue" stroke="midnightblue" points="659.52,-470.86 670.02,-469.48 660.95,-464.01 659.52,-470.86"/>
</g>
<!-- Node8 -->
<g id="node8" class="node">
<title>Node8</title>
<g id="a_node8"><a xlink:href="main_8cpp.html" target="_top" xlink:title=" ">
<polygon fill="white" stroke="black" points="504,-408 504,-427 576,-427 576,-408 504,-408"/>
<text text-anchor="middle" x="540" y="-415" font-family="Helvetica,sans-Serif" font-size="10.00">src/main.cpp</text>
</a>
</g>
</g>
<!-- Node6&#45;&gt;Node8 -->
<g id="edge7" class="edge">
<title>Node6&#45;&gt;Node8</title>
<path fill="none" stroke="midnightblue" d="M676.75,-466.08C643.51,-454.52 593.89,-437.25 564.45,-427.01"/>
<polygon fill="midnightblue" stroke="midnightblue" points="675.91,-469.49 686.5,-469.48 678.21,-462.88 675.91,-469.49"/>
</g>
<!-- Node9 -->
<g id="node9" class="node">
<title>Node9</title>
<g id="a_node9"><a xlink:href="_set_squad_path_8h.html" target="_top" xlink:title=" ">
<polygon fill="white" stroke="black" points="658.5,-268.5 658.5,-298.5 771.5,-298.5 771.5,-268.5 658.5,-268.5"/>
<text text-anchor="start" x="666.5" y="-286.5" font-family="Helvetica,sans-Serif" font-size="10.00">include/engine/actions</text>
<text text-anchor="middle" x="715" y="-275.5" font-family="Helvetica,sans-Serif" font-size="10.00">/SetSquadPath.h</text>
</a>
</g>
</g>
<!-- Node6&#45;&gt;Node9 -->
<g id="edge8" class="edge">
<title>Node6&#45;&gt;Node9</title>
<path fill="none" stroke="midnightblue" d="M722.53,-462.08C730.77,-454.03 741.25,-443.71 749,-433 768.34,-406.26 773.71,-398.18 781,-366 784.04,-352.56 787.47,-347.16 781,-335 772.37,-318.79 755.96,-306.85 741.55,-298.66"/>
<polygon fill="midnightblue" stroke="midnightblue" points="719.87,-459.78 715.22,-469.3 724.79,-464.76 719.87,-459.78"/>
</g>
<!-- Node12 -->
<g id="node12" class="node">
<title>Node12</title>
<g id="a_node12"><a xlink:href="_game_logic_2_squad_2_action_8h.html" target="_top" xlink:title=" ">
<polygon fill="white" stroke="black" points="594.5,-402.5 594.5,-432.5 725.5,-432.5 725.5,-402.5 594.5,-402.5"/>
<text text-anchor="start" x="602.5" y="-420.5" font-family="Helvetica,sans-Serif" font-size="10.00">include/GameLogic/Squad</text>
<text text-anchor="middle" x="660" y="-409.5" font-family="Helvetica,sans-Serif" font-size="10.00">/Action.h</text>
</a>
</g>
</g>
<!-- Node6&#45;&gt;Node12 -->
<g id="edge12" class="edge">
<title>Node6&#45;&gt;Node12</title>
<path fill="none" stroke="midnightblue" d="M697.12,-461.81C689.27,-452.65 679.55,-441.3 672.02,-432.52"/>
<polygon fill="midnightblue" stroke="midnightblue" points="694.53,-464.16 703.69,-469.48 699.84,-459.6 694.53,-464.16"/>
</g>
<!-- Node13 -->
<g id="node13" class="node">
<title>Node13</title>
<g id="a_node13"><a xlink:href="_squad_8h.html" target="_top" xlink:title=" ">
<polygon fill="white" stroke="black" points="649.5,-335.5 649.5,-365.5 780.5,-365.5 780.5,-335.5 649.5,-335.5"/>
<text text-anchor="start" x="657.5" y="-353.5" font-family="Helvetica,sans-Serif" font-size="10.00">include/GameLogic/Squad</text>
<text text-anchor="middle" x="715" y="-342.5" font-family="Helvetica,sans-Serif" font-size="10.00">/Squad.h</text>
</a>
</g>
</g>
<!-- Node6&#45;&gt;Node13 -->
<g id="edge50" class="edge">
<title>Node6&#45;&gt;Node13</title>
<path fill="none" stroke="midnightblue" d="M714.94,-459.97C718.89,-452.06 723.64,-442.44 726,-433 731.9,-409.4 721.59,-381.91 716.21,-365.64"/>
<polygon fill="midnightblue" stroke="midnightblue" points="711.67,-458.7 710.48,-469.23 717.97,-461.74 711.67,-458.7"/>
</g>
<!-- Node19 -->
<g id="node19" class="node">
<title>Node19</title>
<g id="a_node19"><a xlink:href="_factory_8h.html" target="_top" xlink:title=" ">
<polygon fill="white" stroke="black" points="785.5,-201.5 785.5,-231.5 912.5,-231.5 912.5,-201.5 785.5,-201.5"/>
<text text-anchor="start" x="793.5" y="-219.5" font-family="Helvetica,sans-Serif" font-size="10.00">include/GameLogic/Units</text>
<text text-anchor="middle" x="849" y="-208.5" font-family="Helvetica,sans-Serif" font-size="10.00">/Factory.h</text>
</a>
</g>
</g>
<!-- Node6&#45;&gt;Node19 -->
<g id="edge51" class="edge">
<title>Node6&#45;&gt;Node19</title>
<path fill="none" stroke="midnightblue" d="M745.68,-465.23C761.4,-457.91 779.09,-447.3 791,-433 842.21,-371.53 848.54,-269.01 849.08,-231.66"/>
<polygon fill="midnightblue" stroke="midnightblue" points="743.98,-462.16 736.22,-469.37 746.79,-468.57 743.98,-462.16"/>
</g>
<!-- Node33 -->
<g id="node33" class="node">
<title>Node33</title>
<g id="a_node33"><a xlink:href="pathfinding_8h.html" target="_top" xlink:title=" ">
<polygon fill="white" stroke="black" points="196,-274 196,-293 316,-293 316,-274 196,-274"/>
<text text-anchor="middle" x="256" y="-281" font-family="Helvetica,sans-Serif" font-size="10.00">include/util/pathfinding.h</text>
</a>
</g>
</g>
<!-- Node6&#45;&gt;Node33 -->
<g id="edge52" class="edge">
<title>Node6&#45;&gt;Node33</title>
<path fill="none" stroke="midnightblue" d="M636.56,-477.97C537.85,-476.5 370.48,-468.63 322,-433 273.81,-397.58 260.17,-318.98 256.91,-293.01"/>
<polygon fill="midnightblue" stroke="midnightblue" points="636.73,-481.47 646.77,-478.1 636.82,-474.47 636.73,-481.47"/>
</g>
<!-- Node9&#45;&gt;Node6 -->
<g id="edge11" class="edge">
<title>Node9&#45;&gt;Node6</title>
<path fill="none" stroke="midnightblue" d="M766.88,-303.66C779.84,-311.47 791.99,-321.83 799,-335 805.47,-347.16 802.04,-352.56 799,-366 791.71,-398.18 786.34,-406.26 767,-433 756.67,-447.28 741.48,-460.86 729.15,-469.3"/>
<polygon fill="midnightblue" stroke="midnightblue" points="768.28,-300.43 757.83,-298.66 764.89,-306.56 768.28,-300.43"/>
</g>
<!-- Node10 -->
<g id="node10" class="node">
<title>Node10</title>
<g id="a_node10"><a xlink:href="engine_2_action_8cpp.html" target="_top" xlink:title=" ">
<polygon fill="white" stroke="black" points="657,-207 657,-226 767,-226 767,-207 657,-207"/>
<text text-anchor="middle" x="712" y="-214" font-family="Helvetica,sans-Serif" font-size="10.00">src/engine/Action.cpp</text>
</a>
</g>
</g>
<!-- Node9&#45;&gt;Node10 -->
<g id="edge9" class="edge">
<title>Node9&#45;&gt;Node10</title>
<path fill="none" stroke="midnightblue" d="M713.88,-258.25C713.36,-247.02 712.78,-234.38 712.4,-226.19"/>
<polygon fill="midnightblue" stroke="midnightblue" points="710.39,-258.57 714.35,-268.4 717.38,-258.25 710.39,-258.57"/>
</g>
<!-- Node11 -->
<g id="node11" class="node">
<title>Node11</title>
<g id="a_node11"><a xlink:href="_set_squad_path_8cpp.html" target="_top" xlink:title=" ">
<polygon fill="white" stroke="black" points="537.5,-201.5 537.5,-231.5 638.5,-231.5 638.5,-201.5 537.5,-201.5"/>
<text text-anchor="start" x="545.5" y="-219.5" font-family="Helvetica,sans-Serif" font-size="10.00">src/engine/actions</text>
<text text-anchor="middle" x="588" y="-208.5" font-family="Helvetica,sans-Serif" font-size="10.00">/SetSquadPath.cpp</text>
</a>
</g>
</g>
<!-- Node9&#45;&gt;Node11 -->
<g id="edge10" class="edge">
<title>Node9&#45;&gt;Node11</title>
<path fill="none" stroke="midnightblue" d="M678.3,-263.71C658.27,-253.46 633.88,-240.98 615.5,-231.58"/>
<polygon fill="midnightblue" stroke="midnightblue" points="676.95,-266.96 687.44,-268.4 680.14,-260.72 676.95,-266.96"/>
</g>
<!-- Node12&#45;&gt;Node13 -->
<g id="edge13" class="edge">
<title>Node12&#45;&gt;Node13</title>
<path fill="none" stroke="midnightblue" d="M672.46,-394.16C679.9,-384.68 689.26,-373.92 697.41,-365.58"/>
<polygon fill="midnightblue" stroke="midnightblue" points="669.47,-392.3 666.26,-402.4 675.07,-396.51 669.47,-392.3"/>
</g>
<!-- Node13&#45;&gt;Node6 -->
<g id="edge16" class="edge">
<title>Node13&#45;&gt;Node6</title>
<path fill="none" stroke="midnightblue" d="M734.24,-374.49C742.54,-390.82 748.93,-413.27 744,-433 740.61,-446.57 732.26,-460.53 724.25,-469.23"/>
<polygon fill="midnightblue" stroke="midnightblue" points="737.2,-372.6 729.21,-365.64 731.12,-376.07 737.2,-372.6"/>
</g>
<!-- Node13&#45;&gt;Node9 -->
<g id="edge15" class="edge">
<title>Node13&#45;&gt;Node9</title>
<path fill="none" stroke="midnightblue" d="M715,-325.11C715,-316.15 715,-306.32 715,-298.58"/>
<polygon fill="midnightblue" stroke="midnightblue" points="711.5,-325.4 715,-335.4 718.5,-325.4 711.5,-325.4"/>
</g>
<!-- Node13&#45;&gt;Node12 -->
<g id="edge17" class="edge">
<title>Node13&#45;&gt;Node12</title>
<path fill="none" stroke="midnightblue" d="M702.57,-373.81C695.13,-383.29 685.77,-394.05 677.61,-402.4"/>
<polygon fill="midnightblue" stroke="midnightblue" points="705.55,-375.67 708.76,-365.58 699.95,-371.46 705.55,-375.67"/>
</g>
<!-- Node14 -->
<g id="node14" class="node">
<title>Node14</title>
<g id="a_node14"><a xlink:href="_squad_8cpp.html" target="_top" xlink:title=" ">
<polygon fill="white" stroke="black" points="273,-67.5 273,-97.5 387,-97.5 387,-67.5 273,-67.5"/>
<text text-anchor="start" x="281" y="-85.5" font-family="Helvetica,sans-Serif" font-size="10.00">src/GameLogic/Squad</text>
<text text-anchor="middle" x="330" y="-74.5" font-family="Helvetica,sans-Serif" font-size="10.00">/Squad.cpp</text>
</a>
</g>
</g>
<!-- Node13&#45;&gt;Node14 -->
<g id="edge14" class="edge">
<title>Node13&#45;&gt;Node14</title>
<path fill="none" stroke="midnightblue" d="M653.4,-332.39C575.22,-307.7 440.94,-254.89 361,-165 343.7,-145.54 335.65,-115.44 332.23,-97.78"/>
<polygon fill="midnightblue" stroke="midnightblue" points="652.53,-335.79 663.12,-335.41 654.6,-329.1 652.53,-335.79"/>
</g>
<!-- Node13&#45;&gt;Node15 -->
<g id="edge18" class="edge">
<title>Node13&#45;&gt;Node15</title>
<path fill="none" stroke="midnightblue" d="M779.54,-333.08C824.84,-322.25 885.08,-308.24 930.22,-298.05"/>
<polygon fill="midnightblue" stroke="midnightblue" points="778.44,-329.74 769.53,-335.48 780.07,-336.55 778.44,-329.74"/>
</g>
<!-- Node13&#45;&gt;Node33 -->
<g id="edge47" class="edge">
<title>Node13&#45;&gt;Node33</title>
<path fill="none" stroke="midnightblue" d="M639.31,-338.78C548.81,-325.97 399.17,-304.77 316.16,-293.02"/>
<polygon fill="midnightblue" stroke="midnightblue" points="638.84,-342.25 649.24,-340.19 639.83,-335.32 638.84,-342.25"/>
</g>
<!-- Node15&#45;&gt;Node13 -->
<g id="edge20" class="edge">
<title>Node15&#45;&gt;Node13</title>
<path fill="none" stroke="midnightblue" d="M929.55,-300.9C884.81,-311.59 825.48,-325.39 780.51,-335.56"/>
<polygon fill="midnightblue" stroke="midnightblue" points="930.53,-304.27 939.43,-298.53 928.89,-297.46 930.53,-304.27"/>
</g>
<!-- Node16 -->
<g id="node16" class="node">
<title>Node16</title>
<g id="a_node16"><a xlink:href="_unit_8cpp.html" target="_top" xlink:title=" ">
<polygon fill="white" stroke="black" points="1067,-134.5 1067,-164.5 1177,-164.5 1177,-134.5 1067,-134.5"/>
<text text-anchor="start" x="1075" y="-152.5" font-family="Helvetica,sans-Serif" font-size="10.00">src/GameLogic/Units</text>
<text text-anchor="middle" x="1122" y="-141.5" font-family="Helvetica,sans-Serif" font-size="10.00">/Unit.cpp</text>
</a>
</g>
</g>
<!-- Node15&#45;&gt;Node16 -->
<g id="edge19" class="edge">
<title>Node15&#45;&gt;Node16</title>
<path fill="none" stroke="midnightblue" d="M1027.83,-262.87C1040.91,-254.36 1055.47,-243.67 1067,-232 1087.52,-211.24 1105.17,-181.85 1114.62,-164.62"/>
<polygon fill="midnightblue" stroke="midnightblue" points="1025.65,-260.11 1019.07,-268.41 1029.39,-266.03 1025.65,-260.11"/>
</g>
<!-- Node17 -->
<g id="node17" class="node">
<title>Node17</title>
<g id="a_node17"><a xlink:href="_squad_order_8h.html" target="_top" xlink:title=" ">
<polygon fill="white" stroke="black" points="1323.5,-134.5 1323.5,-164.5 1454.5,-164.5 1454.5,-134.5 1323.5,-134.5"/>
<text text-anchor="start" x="1331.5" y="-152.5" font-family="Helvetica,sans-Serif" font-size="10.00">include/GameLogic/Squad</text>
<text text-anchor="middle" x="1389" y="-141.5" font-family="Helvetica,sans-Serif" font-size="10.00">/SquadOrder.h</text>
</a>
</g>
</g>
<!-- Node15&#45;&gt;Node17 -->
<g id="edge21" class="edge">
<title>Node15&#45;&gt;Node17</title>
<path fill="none" stroke="midnightblue" d="M1067.92,-274.73C1120.3,-267.61 1191.54,-254.64 1251,-232 1296.51,-214.68 1344.28,-182.95 1369.96,-164.61"/>
<polygon fill="midnightblue" stroke="midnightblue" points="1067.17,-271.3 1057.71,-276.08 1068.08,-278.24 1067.17,-271.3"/>
</g>
<!-- Node15&#45;&gt;Node19 -->
<g id="edge23" class="edge">
<title>Node15&#45;&gt;Node19</title>
<path fill="none" stroke="midnightblue" d="M953.33,-264.27C930.24,-253.92 901.76,-241.15 880.4,-231.58"/>
<polygon fill="midnightblue" stroke="midnightblue" points="951.98,-267.5 962.54,-268.4 954.84,-261.11 951.98,-267.5"/>
</g>
<!-- Node29 -->
<g id="node29" class="node">
<title>Node29</title>
<g id="a_node29"><a xlink:href="_land_unit_8h.html" target="_top" xlink:title=" ">
<polygon fill="white" stroke="black" points="930.5,-201.5 930.5,-231.5 1057.5,-231.5 1057.5,-201.5 930.5,-201.5"/>
<text text-anchor="start" x="938.5" y="-219.5" font-family="Helvetica,sans-Serif" font-size="10.00">include/GameLogic/Units</text>
<text text-anchor="middle" x="994" y="-208.5" font-family="Helvetica,sans-Serif" font-size="10.00">/LandUnit.h</text>
</a>
</g>
</g>
<!-- Node15&#45;&gt;Node29 -->
<g id="edge39" class="edge">
<title>Node15&#45;&gt;Node29</title>
<path fill="none" stroke="midnightblue" d="M994,-258.11C994,-249.15 994,-239.32 994,-231.58"/>
<polygon fill="midnightblue" stroke="midnightblue" points="990.5,-258.4 994,-268.4 997.5,-258.4 990.5,-258.4"/>
</g>
<!-- Node31 -->
<g id="node31" class="node">
<title>Node31</title>
<g id="a_node31"><a xlink:href="_unit_order_8h.html" target="_top" xlink:title=" ">
<polygon fill="white" stroke="black" points="1114.5,-201.5 1114.5,-231.5 1241.5,-231.5 1241.5,-201.5 1114.5,-201.5"/>
<text text-anchor="start" x="1122.5" y="-219.5" font-family="Helvetica,sans-Serif" font-size="10.00">include/GameLogic/Units</text>
<text text-anchor="middle" x="1178" y="-208.5" font-family="Helvetica,sans-Serif" font-size="10.00">/UnitOrder.h</text>
</a>
</g>
</g>
<!-- Node15&#45;&gt;Node31 -->
<g id="edge42" class="edge">
<title>Node15&#45;&gt;Node31</title>
<path fill="none" stroke="midnightblue" d="M1037.97,-264.82C1066.54,-254.37 1103.61,-241.32 1132.48,-231.58"/>
<polygon fill="midnightblue" stroke="midnightblue" points="1036.42,-261.66 1028.25,-268.4 1038.84,-268.23 1036.42,-261.66"/>
</g>
<!-- Node18 -->
<g id="node18" class="node">
<title>Node18</title>
<g id="a_node18"><a xlink:href="_squad_order_8cpp.html" target="_top" xlink:title=" ">
<polygon fill="white" stroke="black" points="1332,-67.5 1332,-97.5 1446,-97.5 1446,-67.5 1332,-67.5"/>
<text text-anchor="start" x="1340" y="-85.5" font-family="Helvetica,sans-Serif" font-size="10.00">src/GameLogic/Squad</text>
<text text-anchor="middle" x="1389" y="-74.5" font-family="Helvetica,sans-Serif" font-size="10.00">/SquadOrder.cpp</text>
</a>
</g>
</g>
<!-- Node17&#45;&gt;Node18 -->
<g id="edge22" class="edge">
<title>Node17&#45;&gt;Node18</title>
<path fill="none" stroke="midnightblue" d="M1389,-124.11C1389,-115.15 1389,-105.32 1389,-97.58"/>
<polygon fill="midnightblue" stroke="midnightblue" points="1385.5,-124.4 1389,-134.4 1392.5,-124.4 1385.5,-124.4"/>
</g>
<!-- Node20 -->
<g id="node20" class="node">
<title>Node20</title>
<g id="a_node20"><a xlink:href="_factory_8cpp.html" target="_top" xlink:title=" ">
<polygon fill="white" stroke="black" points="516,-134.5 516,-164.5 626,-164.5 626,-134.5 516,-134.5"/>
<text text-anchor="start" x="524" y="-152.5" font-family="Helvetica,sans-Serif" font-size="10.00">src/GameLogic/Units</text>
<text text-anchor="middle" x="571" y="-141.5" font-family="Helvetica,sans-Serif" font-size="10.00">/Factory.cpp</text>
</a>
</g>
</g>
<!-- Node19&#45;&gt;Node20 -->
<g id="edge24" class="edge">
<title>Node19&#45;&gt;Node20</title>
<path fill="none" stroke="midnightblue" d="M779.14,-199.17C731.78,-188.09 670.06,-173.66 626.15,-163.39"/>
<polygon fill="midnightblue" stroke="midnightblue" points="778.49,-202.61 789.02,-201.48 780.08,-195.79 778.49,-202.61"/>
</g>
<!-- Node21 -->
<g id="node21" class="node">
<title>Node21</title>
<g id="a_node21"><a xlink:href="_squad_template_8h.html" target="_top" xlink:title=" ">
<polygon fill="white" stroke="black" points="644.5,-134.5 644.5,-164.5 775.5,-164.5 775.5,-134.5 644.5,-134.5"/>
<text text-anchor="start" x="652.5" y="-152.5" font-family="Helvetica,sans-Serif" font-size="10.00">include/GameLogic/Squad</text>
<text text-anchor="middle" x="710" y="-141.5" font-family="Helvetica,sans-Serif" font-size="10.00">/SquadTemplate.h</text>
</a>
</g>
</g>
<!-- Node19&#45;&gt;Node21 -->
<g id="edge25" class="edge">
<title>Node19&#45;&gt;Node21</title>
<path fill="none" stroke="midnightblue" d="M809.72,-197.13C787.63,-186.8 760.49,-174.11 740.1,-164.58"/>
<polygon fill="midnightblue" stroke="midnightblue" points="808.3,-200.33 818.84,-201.4 811.26,-193.99 808.3,-200.33"/>
</g>
<!-- Node25 -->
<g id="node25" class="node">
<title>Node25</title>
<g id="a_node25"><a xlink:href="_all_units_8h.html" target="_top" xlink:title=" ">
<polygon fill="white" stroke="black" points="370.5,-134.5 370.5,-164.5 497.5,-164.5 497.5,-134.5 370.5,-134.5"/>
<text text-anchor="start" x="378.5" y="-152.5" font-family="Helvetica,sans-Serif" font-size="10.00">include/GameLogic/Units</text>
<text text-anchor="middle" x="434" y="-141.5" font-family="Helvetica,sans-Serif" font-size="10.00">/AllUnits.h</text>
</a>
</g>
</g>
<!-- Node19&#45;&gt;Node25 -->
<g id="edge30" class="edge">
<title>Node19&#45;&gt;Node25</title>
<path fill="none" stroke="midnightblue" d="M775.39,-200.97C655.31,-181.41 622.85,-184.24 507,-165 503.94,-164.49 500.81,-163.95 497.66,-163.39"/>
<polygon fill="midnightblue" stroke="midnightblue" points="774.91,-204.44 785.34,-202.61 776.04,-197.53 774.91,-204.44"/>
</g>
<!-- Node27 -->
<g id="node27" class="node">
<title>Node27</title>
<g id="a_node27"><a xlink:href="_land_unit_factory_8h.html" target="_top" xlink:title=" ">
<polygon fill="white" stroke="black" points="793.5,-134.5 793.5,-164.5 920.5,-164.5 920.5,-134.5 793.5,-134.5"/>
<text text-anchor="start" x="801.5" y="-152.5" font-family="Helvetica,sans-Serif" font-size="10.00">include/GameLogic/Units</text>
<text text-anchor="middle" x="857" y="-141.5" font-family="Helvetica,sans-Serif" font-size="10.00">/LandUnitFactory.h</text>
</a>
</g>
</g>
<!-- Node19&#45;&gt;Node27 -->
<g id="edge36" class="edge">
<title>Node19&#45;&gt;Node27</title>
<path fill="none" stroke="midnightblue" d="M851.97,-191.4C853.08,-182.37 854.3,-172.41 855.27,-164.58"/>
<polygon fill="midnightblue" stroke="midnightblue" points="848.48,-191.04 850.74,-201.4 855.43,-191.9 848.48,-191.04"/>
</g>
<!-- Node22 -->
<g id="node22" class="node">
<title>Node22</title>
<g id="a_node22"><a xlink:href="_squad_template_8cpp.html" target="_top" xlink:title=" ">
<polygon fill="white" stroke="black" points="405,-67.5 405,-97.5 519,-97.5 519,-67.5 405,-67.5"/>
<text text-anchor="start" x="413" y="-85.5" font-family="Helvetica,sans-Serif" font-size="10.00">src/GameLogic/Squad</text>
<text text-anchor="middle" x="462" y="-74.5" font-family="Helvetica,sans-Serif" font-size="10.00">/SquadTemplate.cpp</text>
</a>
</g>
</g>
<!-- Node21&#45;&gt;Node22 -->
<g id="edge26" class="edge">
<title>Node21&#45;&gt;Node22</title>
<path fill="none" stroke="midnightblue" d="M646.73,-131.92C606.26,-121.31 554.33,-107.7 515.84,-97.61"/>
<polygon fill="midnightblue" stroke="midnightblue" points="645.93,-135.33 656.49,-134.48 647.71,-128.55 645.93,-135.33"/>
</g>
<!-- Node23 -->
<g id="node23" class="node">
<title>Node23</title>
<g id="a_node23"><a xlink:href="_all_squad_templates_8h.html" target="_top" xlink:title=" ">
<polygon fill="white" stroke="black" points="665.5,-67.5 665.5,-97.5 796.5,-97.5 796.5,-67.5 665.5,-67.5"/>
<text text-anchor="start" x="673.5" y="-85.5" font-family="Helvetica,sans-Serif" font-size="10.00">include/GameLogic/Squad</text>
<text text-anchor="middle" x="731" y="-74.5" font-family="Helvetica,sans-Serif" font-size="10.00">/AllSquadTemplates.h</text>
</a>
</g>
</g>
<!-- Node21&#45;&gt;Node23 -->
<g id="edge27" class="edge">
<title>Node21&#45;&gt;Node23</title>
<path fill="none" stroke="midnightblue" d="M717.69,-124.7C720.63,-115.59 723.89,-105.49 726.45,-97.58"/>
<polygon fill="midnightblue" stroke="midnightblue" points="714.3,-123.8 714.56,-134.4 720.96,-125.96 714.3,-123.8"/>
</g>
<!-- Node23&#45;&gt;Node6 -->
<g id="edge29" class="edge">
<title>Node23&#45;&gt;Node6</title>
<path fill="none" stroke="midnightblue" d="M807.03,-97.71C915.3,-105.64 1409.89,-88.59 1464,-134 1492.49,-157.91 1483,-178.31 1483,-215.5 1483,-351.5 1483,-351.5 1483,-351.5 1483,-423.02 960.41,-462.48 775.16,-474.23"/>
<polygon fill="midnightblue" stroke="midnightblue" points="807.05,-94.2 796.77,-96.74 806.4,-101.17 807.05,-94.2"/>
</g>
<!-- Node24 -->
<g id="node24" class="node">
<title>Node24</title>
<g id="a_node24"><a xlink:href="_all_squad_templates_8cpp.html" target="_top" xlink:title=" ">
<polygon fill="white" stroke="black" points="670,-0.5 670,-30.5 792,-30.5 792,-0.5 670,-0.5"/>
<text text-anchor="start" x="678" y="-18.5" font-family="Helvetica,sans-Serif" font-size="10.00">src/GameLogic/Squad</text>
<text text-anchor="middle" x="731" y="-7.5" font-family="Helvetica,sans-Serif" font-size="10.00">/AllSquadTemplates.cpp</text>
</a>
</g>
</g>
<!-- Node23&#45;&gt;Node24 -->
<g id="edge28" class="edge">
<title>Node23&#45;&gt;Node24</title>
<path fill="none" stroke="midnightblue" d="M731,-57.11C731,-48.15 731,-38.32 731,-30.58"/>
<polygon fill="midnightblue" stroke="midnightblue" points="727.5,-57.4 731,-67.4 734.5,-57.4 727.5,-57.4"/>
</g>
<!-- Node25&#45;&gt;Node6 -->
<g id="edge34" class="edge">
<title>Node25&#45;&gt;Node6</title>
<path fill="none" stroke="midnightblue" d="M416,-172.42C375.7,-224.24 286.89,-355.74 355,-433 373.95,-454.5 549.57,-468.34 646.86,-474.42"/>
<polygon fill="midnightblue" stroke="midnightblue" points="418.78,-174.54 422.25,-164.53 413.3,-170.2 418.78,-174.54"/>
</g>
<!-- Node25&#45;&gt;Node14 -->
<g id="edge31" class="edge">
<title>Node25&#45;&gt;Node14</title>
<path fill="none" stroke="midnightblue" d="M402.82,-129.02C386.64,-118.9 367.23,-106.77 352.52,-97.58"/>
<polygon fill="midnightblue" stroke="midnightblue" points="401.1,-132.06 411.43,-134.4 404.81,-126.13 401.1,-132.06"/>
</g>
<!-- Node25&#45;&gt;Node22 -->
<g id="edge32" class="edge">
<title>Node25&#45;&gt;Node22</title>
<path fill="none" stroke="midnightblue" d="M444.13,-124.99C448.08,-115.8 452.49,-105.58 455.94,-97.58"/>
<polygon fill="midnightblue" stroke="midnightblue" points="440.82,-123.83 440.08,-134.4 447.25,-126.6 440.82,-123.83"/>
</g>
<!-- Node25&#45;&gt;Node23 -->
<g id="edge35" class="edge">
<title>Node25&#45;&gt;Node23</title>
<path fill="none" stroke="midnightblue" d="M507.6,-132.39C556.49,-121.69 620.06,-107.78 666.88,-97.53"/>
<polygon fill="midnightblue" stroke="midnightblue" points="506.73,-129 497.71,-134.56 508.23,-135.84 506.73,-129"/>
</g>
<!-- Node26 -->
<g id="node26" class="node">
<title>Node26</title>
<g id="a_node26"><a xlink:href="_all_units_8cpp.html" target="_top" xlink:title=" ">
<polygon fill="white" stroke="black" points="537,-67.5 537,-97.5 647,-97.5 647,-67.5 537,-67.5"/>
<text text-anchor="start" x="545" y="-85.5" font-family="Helvetica,sans-Serif" font-size="10.00">src/GameLogic/Units</text>
<text text-anchor="middle" x="592" y="-74.5" font-family="Helvetica,sans-Serif" font-size="10.00">/AllUnits.cpp</text>
</a>
</g>
</g>
<!-- Node25&#45;&gt;Node26 -->
<g id="edge33" class="edge">
<title>Node25&#45;&gt;Node26</title>
<path fill="none" stroke="midnightblue" d="M477.65,-130.54C502.93,-120.14 534.3,-107.24 557.78,-97.58"/>
<polygon fill="midnightblue" stroke="midnightblue" points="476.2,-127.35 468.28,-134.4 478.86,-133.83 476.2,-127.35"/>
</g>
<!-- Node27&#45;&gt;Node26 -->
<g id="edge37" class="edge">
<title>Node27&#45;&gt;Node26</title>
<path fill="none" stroke="midnightblue" d="M790.05,-132.08C745.91,-121.25 688.8,-107.24 647.26,-97.05"/>
<polygon fill="midnightblue" stroke="midnightblue" points="789.28,-135.49 799.83,-134.48 790.95,-128.69 789.28,-135.49"/>
</g>
<!-- Node28 -->
<g id="node28" class="node">
<title>Node28</title>
<g id="a_node28"><a xlink:href="_land_unit_factory_8cpp.html" target="_top" xlink:title=" ">
<polygon fill="white" stroke="black" points="815,-67.5 815,-97.5 925,-97.5 925,-67.5 815,-67.5"/>
<text text-anchor="start" x="823" y="-85.5" font-family="Helvetica,sans-Serif" font-size="10.00">src/GameLogic/Units</text>
<text text-anchor="middle" x="870" y="-74.5" font-family="Helvetica,sans-Serif" font-size="10.00">/LandUnitFactory.cpp</text>
</a>
</g>
</g>
<!-- Node27&#45;&gt;Node28 -->
<g id="edge38" class="edge">
<title>Node27&#45;&gt;Node28</title>
<path fill="none" stroke="midnightblue" d="M861.82,-124.4C863.63,-115.37 865.62,-105.41 867.18,-97.58"/>
<polygon fill="midnightblue" stroke="midnightblue" points="858.35,-123.9 859.82,-134.4 865.21,-125.28 858.35,-123.9"/>
</g>
<!-- Node29&#45;&gt;Node27 -->
<g id="edge41" class="edge">
<title>Node29&#45;&gt;Node27</title>
<path fill="none" stroke="midnightblue" d="M954.99,-196.99C933.28,-186.69 906.67,-174.07 886.67,-164.58"/>
<polygon fill="midnightblue" stroke="midnightblue" points="953.74,-200.27 964.27,-201.4 956.74,-193.95 953.74,-200.27"/>
</g>
<!-- Node30 -->
<g id="node30" class="node">
<title>Node30</title>
<g id="a_node30"><a xlink:href="_land_unit_8cpp.html" target="_top" xlink:title=" ">
<polygon fill="white" stroke="black" points="939,-134.5 939,-164.5 1049,-164.5 1049,-134.5 939,-134.5"/>
<text text-anchor="start" x="947" y="-152.5" font-family="Helvetica,sans-Serif" font-size="10.00">src/GameLogic/Units</text>
<text text-anchor="middle" x="994" y="-141.5" font-family="Helvetica,sans-Serif" font-size="10.00">/LandUnit.cpp</text>
</a>
</g>
</g>
<!-- Node29&#45;&gt;Node30 -->
<g id="edge40" class="edge">
<title>Node29&#45;&gt;Node30</title>
<path fill="none" stroke="midnightblue" d="M994,-191.11C994,-182.15 994,-172.32 994,-164.58"/>
<polygon fill="midnightblue" stroke="midnightblue" points="990.5,-191.4 994,-201.4 997.5,-191.4 990.5,-191.4"/>
</g>
<!-- Node31&#45;&gt;Node15 -->
<g id="edge46" class="edge">
<title>Node31&#45;&gt;Node15</title>
<path fill="none" stroke="midnightblue" d="M1134.11,-235.15C1105.56,-245.59 1068.49,-258.64 1039.6,-268.4"/>
<polygon fill="midnightblue" stroke="midnightblue" points="1135.65,-238.31 1143.83,-231.58 1133.23,-231.75 1135.65,-238.31"/>
</g>
<!-- Node31&#45;&gt;Node16 -->
<g id="edge43" class="edge">
<title>Node31&#45;&gt;Node16</title>
<path fill="none" stroke="midnightblue" d="M1159.25,-193.74C1150.96,-184.12 1141.46,-173.09 1134.13,-164.58"/>
<polygon fill="midnightblue" stroke="midnightblue" points="1156.67,-196.1 1165.85,-201.4 1161.97,-191.54 1156.67,-196.1"/>
</g>
<!-- Node31&#45;&gt;Node17 -->
<g id="edge45" class="edge">
<title>Node31&#45;&gt;Node17</title>
<path fill="none" stroke="midnightblue" d="M1233.37,-198.44C1267.57,-187.91 1310.93,-174.55 1343.19,-164.61"/>
<polygon fill="midnightblue" stroke="midnightblue" points="1232.05,-195.19 1223.52,-201.48 1234.11,-201.88 1232.05,-195.19"/>
</g>
<!-- Node32 -->
<g id="node32" class="node">
<title>Node32</title>
<g id="a_node32"><a xlink:href="_unit_order_8cpp.html" target="_top" xlink:title=" ">
<polygon fill="white" stroke="black" points="1195,-134.5 1195,-164.5 1305,-164.5 1305,-134.5 1195,-134.5"/>
<text text-anchor="start" x="1203" y="-152.5" font-family="Helvetica,sans-Serif" font-size="10.00">src/GameLogic/Units</text>
<text text-anchor="middle" x="1250" y="-141.5" font-family="Helvetica,sans-Serif" font-size="10.00">/UnitOrder.cpp</text>
</a>
</g>
</g>
<!-- Node31&#45;&gt;Node32 -->
<g id="edge44" class="edge">
<title>Node31&#45;&gt;Node32</title>
<path fill="none" stroke="midnightblue" d="M1201.15,-194.6C1212.02,-184.78 1224.7,-173.34 1234.41,-164.58"/>
<polygon fill="midnightblue" stroke="midnightblue" points="1198.7,-192.1 1193.62,-201.4 1203.39,-197.29 1198.7,-192.1"/>
</g>
<!-- Node33&#45;&gt;Node5 -->
<g id="edge48" class="edge">
<title>Node33&#45;&gt;Node5</title>
<path fill="none" stroke="midnightblue" d="M229.48,-269.34C207.43,-258.4 176.11,-242.86 153.52,-231.65"/>
<polygon fill="midnightblue" stroke="midnightblue" points="228.09,-272.56 238.6,-273.87 231.2,-266.29 228.09,-272.56"/>
</g>
<!-- Node34 -->
<g id="node34" class="node">
<title>Node34</title>
<g id="a_node34"><a xlink:href="pathfinding_8cpp.html" target="_top" xlink:title=" ">
<polygon fill="white" stroke="black" points="200.5,-207 200.5,-226 313.5,-226 313.5,-207 200.5,-207"/>
<text text-anchor="middle" x="257" y="-214" font-family="Helvetica,sans-Serif" font-size="10.00">src/util/pathfinding.cpp</text>
</a>
</g>
</g>
<!-- Node33&#45;&gt;Node34 -->
<g id="edge49" class="edge">
<title>Node33&#45;&gt;Node34</title>
<path fill="none" stroke="midnightblue" d="M256.29,-263.54C256.48,-251.17 256.72,-235.62 256.87,-226.13"/>
<polygon fill="midnightblue" stroke="midnightblue" points="252.79,-263.68 256.13,-273.73 259.79,-263.79 252.79,-263.68"/>
</g>
</g>
</svg>
