<?xml version="1.0" encoding="UTF-8" standalone="no"?>
<!DOCTYPE svg PUBLIC "-//W3C//DTD SVG 1.1//EN"
 "http://www.w3.org/Graphics/SVG/1.1/DTD/svg11.dtd">
<!-- Generated by graphviz version 2.47.1 (20210421.1823)
 -->
<!-- Title: include/GameLogic/Flag.h Pages: 1 -->
<svg width="2251pt" height="609pt"
 viewBox="0.00 0.00 2251.00 609.00" xmlns="http://www.w3.org/2000/svg" xmlns:xlink="http://www.w3.org/1999/xlink">
<g id="graph0" class="graph" transform="scale(1 1) rotate(0) translate(4 605)">
<title>include/GameLogic/Flag.h</title>
<polygon fill="white" stroke="transparent" points="-4,4 -4,-605 2247,-605 2247,4 -4,4"/>
<!-- Node1 -->
<g id="node1" class="node">
<title>Node1</title>
<g id="a_node1"><a xlink:title=" ">
<polygon fill="#bfbfbf" stroke="black" points="203.5,-581.5 203.5,-600.5 333.5,-600.5 333.5,-581.5 203.5,-581.5"/>
<text text-anchor="middle" x="268.5" y="-588.5" font-family="Helvetica,sans-Serif" font-size="10.00">include/GameLogic/Flag.h</text>
</a>
</g>
</g>
<!-- Node2 -->
<g id="node2" class="node">
<title>Node2</title>
<g id="a_node2"><a xlink:href="_flag_8cpp.html" target="_top" xlink:title=" ">
<polygon fill="white" stroke="black" points="131,-525.5 131,-544.5 254,-544.5 254,-525.5 131,-525.5"/>
<text text-anchor="middle" x="192.5" y="-532.5" font-family="Helvetica,sans-Serif" font-size="10.00">src/GameLogic/Flag.cpp</text>
</a>
</g>
</g>
<!-- Node1&#45;&gt;Node2 -->
<g id="edge1" class="edge">
<title>Node1&#45;&gt;Node2</title>
<path fill="none" stroke="midnightblue" d="M247.92,-575.38C234.19,-565.62 216.57,-553.11 204.93,-544.83"/>
<polygon fill="midnightblue" stroke="midnightblue" points="246.11,-578.38 256.29,-581.32 250.16,-572.68 246.11,-578.38"/>
</g>
<!-- Node3 -->
<g id="node3" class="node">
<title>Node3</title>
<g id="a_node3"><a xlink:href="_all_flags_8h.html" target="_top" xlink:title=" ">
<polygon fill="white" stroke="black" points="272.5,-525.5 272.5,-544.5 418.5,-544.5 418.5,-525.5 272.5,-525.5"/>
<text text-anchor="middle" x="345.5" y="-532.5" font-family="Helvetica,sans-Serif" font-size="10.00">include/GameLogic/AllFlags.h</text>
</a>
</g>
</g>
<!-- Node1&#45;&gt;Node3 -->
<g id="edge2" class="edge">
<title>Node1&#45;&gt;Node3</title>
<path fill="none" stroke="midnightblue" d="M289.4,-575.34C303.41,-565.52 321.38,-552.91 333.16,-544.65"/>
<polygon fill="midnightblue" stroke="midnightblue" points="287.05,-572.72 280.87,-581.32 291.07,-578.45 287.05,-572.72"/>
</g>
<!-- Node4 -->
<g id="node4" class="node">
<title>Node4</title>
<g id="a_node4"><a xlink:href="_all_flags_8cpp.html" target="_top" xlink:title=" ">
<polygon fill="white" stroke="black" points="3.5,-469.5 3.5,-488.5 143.5,-488.5 143.5,-469.5 3.5,-469.5"/>
<text text-anchor="middle" x="73.5" y="-476.5" font-family="Helvetica,sans-Serif" font-size="10.00">src/GameLogic/AllFlags.cpp</text>
</a>
</g>
</g>
<!-- Node3&#45;&gt;Node4 -->
<g id="edge3" class="edge">
<title>Node3&#45;&gt;Node4</title>
<path fill="none" stroke="midnightblue" d="M292.48,-523.47C241.07,-513.27 164.06,-497.98 116.4,-488.52"/>
<polygon fill="midnightblue" stroke="midnightblue" points="291.91,-526.93 302.4,-525.44 293.27,-520.06 291.91,-526.93"/>
</g>
<!-- Node5 -->
<g id="node5" class="node">
<title>Node5</title>
<g id="a_node5"><a xlink:href="_game_logic_2_squad_2_action_8cpp.html" target="_top" xlink:title=" ">
<polygon fill="white" stroke="black" points="247.5,-201.5 247.5,-231.5 361.5,-231.5 361.5,-201.5 247.5,-201.5"/>
<text text-anchor="start" x="255.5" y="-219.5" font-family="Helvetica,sans-Serif" font-size="10.00">src/GameLogic/Squad</text>
<text text-anchor="middle" x="304.5" y="-208.5" font-family="Helvetica,sans-Serif" font-size="10.00">/Action.cpp</text>
</a>
</g>
</g>
<!-- Node3&#45;&gt;Node5 -->
<g id="edge4" class="edge">
<title>Node3&#45;&gt;Node5</title>
<path fill="none" stroke="midnightblue" d="M293.41,-522.78C242.15,-508.31 171.5,-477.65 171.5,-418.5 171.5,-418.5 171.5,-418.5 171.5,-349.5 171.5,-312.31 166.78,-296.65 190.5,-268 204.99,-250.49 226.77,-238.85 247.43,-231.21"/>
<polygon fill="midnightblue" stroke="midnightblue" points="292.81,-526.24 303.38,-525.46 294.63,-519.48 292.81,-526.24"/>
</g>
<!-- Node6 -->
<g id="node6" class="node">
<title>Node6</title>
<g id="a_node6"><a xlink:href="_cell_8h.html" target="_top" xlink:title=" ">
<polygon fill="white" stroke="black" points="456.5,-469.5 456.5,-488.5 584.5,-488.5 584.5,-469.5 456.5,-469.5"/>
<text text-anchor="middle" x="520.5" y="-476.5" font-family="Helvetica,sans-Serif" font-size="10.00">include/GameLogic/Cell.h</text>
</a>
</g>
</g>
<!-- Node3&#45;&gt;Node6 -->
<g id="edge5" class="edge">
<title>Node3&#45;&gt;Node6</title>
<path fill="none" stroke="midnightblue" d="M382.97,-522.44C415.97,-512.26 463.26,-497.66 492.9,-488.52"/>
<polygon fill="midnightblue" stroke="midnightblue" points="381.75,-519.15 373.23,-525.44 383.82,-525.84 381.75,-519.15"/>
</g>
<!-- Node15 -->
<g id="node15" class="node">
<title>Node15</title>
<g id="a_node15"><a xlink:href="_unit_8h.html" target="_top" xlink:title=" ">
<polygon fill="white" stroke="black" points="1582,-268.5 1582,-298.5 1709,-298.5 1709,-268.5 1582,-268.5"/>
<text text-anchor="start" x="1590" y="-286.5" font-family="Helvetica,sans-Serif" font-size="10.00">include/GameLogic/Units</text>
<text text-anchor="middle" x="1645.5" y="-275.5" font-family="Helvetica,sans-Serif" font-size="10.00">/Unit.h</text>
</a>
</g>
</g>
<!-- Node3&#45;&gt;Node15 -->
<g id="edge69" class="edge">
<title>Node3&#45;&gt;Node15</title>
<path fill="none" stroke="midnightblue" d="M403.09,-523.68C453.37,-514.63 528.29,-501.08 593.5,-489 968.76,-419.46 1418.07,-330.06 1581.83,-297.28"/>
<polygon fill="midnightblue" stroke="midnightblue" points="402.29,-520.26 393.06,-525.48 403.52,-527.15 402.29,-520.26"/>
</g>
<!-- Node7 -->
<g id="node7" class="node">
<title>Node7</title>
<g id="a_node7"><a xlink:href="_cell_8cpp.html" target="_top" xlink:title=" ">
<polygon fill="white" stroke="black" points="634,-408 634,-427 755,-427 755,-408 634,-408"/>
<text text-anchor="middle" x="694.5" y="-415" font-family="Helvetica,sans-Serif" font-size="10.00">src/GameLogic/Cell.cpp</text>
</a>
</g>
</g>
<!-- Node6&#45;&gt;Node7 -->
<g id="edge6" class="edge">
<title>Node6&#45;&gt;Node7</title>
<path fill="none" stroke="midnightblue" d="M554.91,-466.23C588.74,-454.67 639.53,-437.3 669.62,-427.01"/>
<polygon fill="midnightblue" stroke="midnightblue" points="553.76,-462.93 545.43,-469.48 556.02,-469.55 553.76,-462.93"/>
</g>
<!-- Node8 -->
<g id="node8" class="node">
<title>Node8</title>
<g id="a_node8"><a xlink:href="main_8cpp.html" target="_top" xlink:title=" ">
<polygon fill="white" stroke="black" points="773.5,-408 773.5,-427 845.5,-427 845.5,-408 773.5,-408"/>
<text text-anchor="middle" x="809.5" y="-415" font-family="Helvetica,sans-Serif" font-size="10.00">src/main.cpp</text>
</a>
</g>
</g>
<!-- Node6&#45;&gt;Node8 -->
<g id="edge7" class="edge">
<title>Node6&#45;&gt;Node8</title>
<path fill="none" stroke="midnightblue" d="M588.53,-467.87C637.76,-459.96 705.69,-447.83 764.5,-433 771.19,-431.31 778.33,-429.17 784.91,-427.06"/>
<polygon fill="midnightblue" stroke="midnightblue" points="587.96,-464.42 578.64,-469.45 589.06,-471.33 587.96,-464.42"/>
</g>
<!-- Node9 -->
<g id="node9" class="node">
<title>Node9</title>
<g id="a_node9"><a xlink:href="_set_squad_path_8h.html" target="_top" xlink:title=" ">
<polygon fill="white" stroke="black" points="200,-268.5 200,-298.5 313,-298.5 313,-268.5 200,-268.5"/>
<text text-anchor="start" x="208" y="-286.5" font-family="Helvetica,sans-Serif" font-size="10.00">include/engine/actions</text>
<text text-anchor="middle" x="256.5" y="-275.5" font-family="Helvetica,sans-Serif" font-size="10.00">/SetSquadPath.h</text>
</a>
</g>
</g>
<!-- Node6&#45;&gt;Node9 -->
<g id="edge8" class="edge">
<title>Node6&#45;&gt;Node9</title>
<path fill="none" stroke="midnightblue" d="M446.13,-476.24C405.09,-472.05 355.58,-460.94 320.5,-433 276.23,-397.74 256.87,-328.81 254.39,-298.91"/>
<polygon fill="midnightblue" stroke="midnightblue" points="445.83,-479.73 456.1,-477.14 446.46,-472.76 445.83,-479.73"/>
</g>
<!-- Node12 -->
<g id="node12" class="node">
<title>Node12</title>
<g id="a_node12"><a xlink:href="_game_logic_2_squad_2_action_8h.html" target="_top" xlink:title=" ">
<polygon fill="white" stroke="black" points="352,-402.5 352,-432.5 483,-432.5 483,-402.5 352,-402.5"/>
<text text-anchor="start" x="360" y="-420.5" font-family="Helvetica,sans-Serif" font-size="10.00">include/GameLogic/Squad</text>
<text text-anchor="middle" x="417.5" y="-409.5" font-family="Helvetica,sans-Serif" font-size="10.00">/Action.h</text>
</a>
</g>
</g>
<!-- Node6&#45;&gt;Node12 -->
<g id="edge12" class="edge">
<title>Node6&#45;&gt;Node12</title>
<path fill="none" stroke="midnightblue" d="M496.74,-464.28C480.26,-454.75 458.37,-442.11 441.78,-432.52"/>
<polygon fill="midnightblue" stroke="midnightblue" points="495.33,-467.5 505.74,-469.48 498.83,-461.44 495.33,-467.5"/>
</g>
<!-- Node13 -->
<g id="node13" class="node">
<title>Node13</title>
<g id="a_node13"><a xlink:href="_squad_8h.html" target="_top" xlink:title=" ">
<polygon fill="white" stroke="black" points="408,-335.5 408,-365.5 539,-365.5 539,-335.5 408,-335.5"/>
<text text-anchor="start" x="416" y="-353.5" font-family="Helvetica,sans-Serif" font-size="10.00">include/GameLogic/Squad</text>
<text text-anchor="middle" x="473.5" y="-342.5" font-family="Helvetica,sans-Serif" font-size="10.00">/Squad.h</text>
</a>
</g>
</g>
<!-- Node6&#45;&gt;Node13 -->
<g id="edge66" class="edge">
<title>Node6&#45;&gt;Node13</title>
<path fill="none" stroke="midnightblue" d="M506.81,-460.16C499.31,-444.75 490.91,-421.89 483.5,-402 478.92,-389.71 473.67,-375.76 471.32,-365.64"/>
<polygon fill="midnightblue" stroke="midnightblue" points="503.79,-461.93 511.59,-469.1 509.96,-458.63 503.79,-461.93"/>
</g>
<!-- Node24 -->
<g id="node24" class="node">
<title>Node24</title>
<g id="a_node24"><a xlink:href="_factory_8h.html" target="_top" xlink:title=" ">
<polygon fill="white" stroke="black" points="978,-201.5 978,-231.5 1105,-231.5 1105,-201.5 978,-201.5"/>
<text text-anchor="start" x="986" y="-219.5" font-family="Helvetica,sans-Serif" font-size="10.00">include/GameLogic/Units</text>
<text text-anchor="middle" x="1041.5" y="-208.5" font-family="Helvetica,sans-Serif" font-size="10.00">/Factory.h</text>
</a>
</g>
</g>
<!-- Node6&#45;&gt;Node24 -->
<g id="edge67" class="edge">
<title>Node6&#45;&gt;Node24</title>
<path fill="none" stroke="midnightblue" d="M594.74,-474.09C679.18,-468.59 810.96,-456.5 854.5,-433 945.6,-383.82 1012.59,-271.31 1034.12,-231.65"/>
<polygon fill="midnightblue" stroke="midnightblue" points="594.45,-470.6 584.69,-474.73 594.89,-477.59 594.45,-470.6"/>
</g>
<!-- Node42 -->
<g id="node42" class="node">
<title>Node42</title>
<g id="a_node42"><a xlink:href="pathfinding_8h.html" target="_top" xlink:title=" ">
<polygon fill="white" stroke="black" points="370.5,-274 370.5,-293 490.5,-293 490.5,-274 370.5,-274"/>
<text text-anchor="middle" x="430.5" y="-281" font-family="Helvetica,sans-Serif" font-size="10.00">include/util/pathfinding.h</text>
</a>
</g>
</g>
<!-- Node6&#45;&gt;Node42 -->
<g id="edge68" class="edge">
<title>Node6&#45;&gt;Node42</title>
<path fill="none" stroke="midnightblue" d="M446.3,-468.5C403.48,-461.32 355.58,-449.8 342.5,-433 304.2,-383.82 386.23,-316.52 418.34,-293.02"/>
<polygon fill="midnightblue" stroke="midnightblue" points="445.77,-471.96 456.2,-470.09 446.88,-465.04 445.77,-471.96"/>
</g>
<!-- Node9&#45;&gt;Node6 -->
<g id="edge11" class="edge">
<title>Node9&#45;&gt;Node6</title>
<path fill="none" stroke="midnightblue" d="M267.58,-308.72C278.89,-341.95 298.56,-401.18 338.5,-433 371.94,-459.64 418.5,-470.97 456.21,-475.61"/>
<polygon fill="midnightblue" stroke="midnightblue" points="270.77,-307.22 264.19,-298.91 264.15,-309.5 270.77,-307.22"/>
</g>
<!-- Node10 -->
<g id="node10" class="node">
<title>Node10</title>
<g id="a_node10"><a xlink:href="engine_2_action_8cpp.html" target="_top" xlink:title=" ">
<polygon fill="white" stroke="black" points="119.5,-207 119.5,-226 229.5,-226 229.5,-207 119.5,-207"/>
<text text-anchor="middle" x="174.5" y="-214" font-family="Helvetica,sans-Serif" font-size="10.00">src/engine/Action.cpp</text>
</a>
</g>
</g>
<!-- Node9&#45;&gt;Node10 -->
<g id="edge9" class="edge">
<title>Node9&#45;&gt;Node10</title>
<path fill="none" stroke="midnightblue" d="M230.65,-262.01C215.43,-249.94 196.96,-235.3 185.47,-226.19"/>
<polygon fill="midnightblue" stroke="midnightblue" points="228.7,-264.93 238.71,-268.4 233.04,-259.44 228.7,-264.93"/>
</g>
<!-- Node11 -->
<g id="node11" class="node">
<title>Node11</title>
<g id="a_node11"><a xlink:href="_set_squad_path_8cpp.html" target="_top" xlink:title=" ">
<polygon fill="white" stroke="black" points="0,-201.5 0,-231.5 101,-231.5 101,-201.5 0,-201.5"/>
<text text-anchor="start" x="8" y="-219.5" font-family="Helvetica,sans-Serif" font-size="10.00">src/engine/actions</text>
<text text-anchor="middle" x="50.5" y="-208.5" font-family="Helvetica,sans-Serif" font-size="10.00">/SetSquadPath.cpp</text>
</a>
</g>
</g>
<!-- Node9&#45;&gt;Node11 -->
<g id="edge10" class="edge">
<title>Node9&#45;&gt;Node11</title>
<path fill="none" stroke="midnightblue" d="M202.45,-265.44C169.05,-254.91 126.72,-241.55 95.22,-231.61"/>
<polygon fill="midnightblue" stroke="midnightblue" points="201.46,-268.8 212.05,-268.48 203.57,-262.13 201.46,-268.8"/>
</g>
<!-- Node12&#45;&gt;Node5 -->
<g id="edge13" class="edge">
<title>Node12&#45;&gt;Node5</title>
<path fill="none" stroke="midnightblue" d="M404.34,-393.33C380.73,-351.74 331.82,-265.61 312.55,-231.68"/>
<polygon fill="midnightblue" stroke="midnightblue" points="401.39,-395.22 409.37,-402.19 407.48,-391.76 401.39,-395.22"/>
</g>
<!-- Node12&#45;&gt;Node13 -->
<g id="edge14" class="edge">
<title>Node12&#45;&gt;Node13</title>
<path fill="none" stroke="midnightblue" d="M430.07,-394.45C437.69,-384.9 447.33,-374 455.7,-365.58"/>
<polygon fill="midnightblue" stroke="midnightblue" points="427.28,-392.33 423.97,-402.4 432.84,-396.59 427.28,-392.33"/>
</g>
<!-- Node13&#45;&gt;Node6 -->
<g id="edge17" class="edge">
<title>Node13&#45;&gt;Node6</title>
<path fill="none" stroke="midnightblue" d="M490.7,-374.69C494.49,-383.26 498.18,-393.07 501.5,-402 510.53,-426.25 521.04,-454.9 522.9,-469.1"/>
<polygon fill="midnightblue" stroke="midnightblue" points="493.84,-373.16 486.38,-365.64 487.53,-376.17 493.84,-373.16"/>
</g>
<!-- Node13&#45;&gt;Node9 -->
<g id="edge16" class="edge">
<title>Node13&#45;&gt;Node9</title>
<path fill="none" stroke="midnightblue" d="M417.01,-332.58C381.77,-322.02 336.93,-308.59 303.61,-298.61"/>
<polygon fill="midnightblue" stroke="midnightblue" points="416.1,-335.96 426.68,-335.48 418.11,-329.25 416.1,-335.96"/>
</g>
<!-- Node13&#45;&gt;Node12 -->
<g id="edge18" class="edge">
<title>Node13&#45;&gt;Node12</title>
<path fill="none" stroke="midnightblue" d="M460.96,-373.52C453.34,-383.07 443.7,-393.96 435.33,-402.4"/>
<polygon fill="midnightblue" stroke="midnightblue" points="463.74,-375.64 467.05,-365.58 458.19,-371.38 463.74,-375.64"/>
</g>
<!-- Node14 -->
<g id="node14" class="node">
<title>Node14</title>
<g id="a_node14"><a xlink:href="_squad_8cpp.html" target="_top" xlink:title=" ">
<polygon fill="white" stroke="black" points="464.5,-67.5 464.5,-97.5 578.5,-97.5 578.5,-67.5 464.5,-67.5"/>
<text text-anchor="start" x="472.5" y="-85.5" font-family="Helvetica,sans-Serif" font-size="10.00">src/GameLogic/Squad</text>
<text text-anchor="middle" x="521.5" y="-74.5" font-family="Helvetica,sans-Serif" font-size="10.00">/Squad.cpp</text>
</a>
</g>
</g>
<!-- Node13&#45;&gt;Node14 -->
<g id="edge15" class="edge">
<title>Node13&#45;&gt;Node14</title>
<path fill="none" stroke="midnightblue" d="M487.73,-326.33C492.22,-317.99 496.73,-308.34 499.5,-299 521.28,-225.63 522.34,-132.73 521.85,-97.72"/>
<polygon fill="midnightblue" stroke="midnightblue" points="484.65,-324.66 482.77,-335.09 490.74,-328.12 484.65,-324.66"/>
</g>
<!-- Node13&#45;&gt;Node15 -->
<g id="edge19" class="edge">
<title>Node13&#45;&gt;Node15</title>
<path fill="none" stroke="midnightblue" d="M549.34,-345.09C765.41,-332.87 1381.25,-298.72 1581.67,-287.86"/>
<polygon fill="midnightblue" stroke="midnightblue" points="548.83,-341.62 539.04,-345.68 549.23,-348.61 548.83,-341.62"/>
</g>
<!-- Node13&#45;&gt;Node42 -->
<g id="edge63" class="edge">
<title>Node13&#45;&gt;Node42</title>
<path fill="none" stroke="midnightblue" d="M458.6,-326.97C450.9,-315.33 441.94,-301.8 436.25,-293.19"/>
<polygon fill="midnightblue" stroke="midnightblue" points="455.73,-328.99 464.17,-335.4 461.57,-325.12 455.73,-328.99"/>
</g>
<!-- Node15&#45;&gt;Node13 -->
<g id="edge21" class="edge">
<title>Node15&#45;&gt;Node13</title>
<path fill="none" stroke="midnightblue" d="M1571.68,-288.79C1358.15,-300.88 742.49,-335.01 539.35,-346.03"/>
<polygon fill="midnightblue" stroke="midnightblue" points="1572.05,-292.28 1581.84,-288.22 1571.66,-285.29 1572.05,-292.28"/>
</g>
<!-- Node16 -->
<g id="node16" class="node">
<title>Node16</title>
<g id="a_node16"><a xlink:href="_unit_8cpp.html" target="_top" xlink:title=" ">
<polygon fill="white" stroke="black" points="1855.5,-134.5 1855.5,-164.5 1965.5,-164.5 1965.5,-134.5 1855.5,-134.5"/>
<text text-anchor="start" x="1863.5" y="-152.5" font-family="Helvetica,sans-Serif" font-size="10.00">src/GameLogic/Units</text>
<text text-anchor="middle" x="1910.5" y="-141.5" font-family="Helvetica,sans-Serif" font-size="10.00">/Unit.cpp</text>
</a>
</g>
</g>
<!-- Node15&#45;&gt;Node16 -->
<g id="edge20" class="edge">
<title>Node15&#45;&gt;Node16</title>
<path fill="none" stroke="midnightblue" d="M1683.04,-263.8C1736.76,-237.04 1834.37,-188.42 1882.34,-164.52"/>
<polygon fill="midnightblue" stroke="midnightblue" points="1681.25,-260.78 1673.86,-268.37 1684.37,-267.05 1681.25,-260.78"/>
</g>
<!-- Node17 -->
<g id="node17" class="node">
<title>Node17</title>
<g id="a_node17"><a xlink:href="_squad_order_8h.html" target="_top" xlink:title=" ">
<polygon fill="white" stroke="black" points="2112,-134.5 2112,-164.5 2243,-164.5 2243,-134.5 2112,-134.5"/>
<text text-anchor="start" x="2120" y="-152.5" font-family="Helvetica,sans-Serif" font-size="10.00">include/GameLogic/Squad</text>
<text text-anchor="middle" x="2177.5" y="-141.5" font-family="Helvetica,sans-Serif" font-size="10.00">/SquadOrder.h</text>
</a>
</g>
</g>
<!-- Node15&#45;&gt;Node17 -->
<g id="edge22" class="edge">
<title>Node15&#45;&gt;Node17</title>
<path fill="none" stroke="midnightblue" d="M1719.46,-276.8C1788.69,-270.21 1894.51,-256.92 1983.5,-232 2045.06,-214.76 2113.11,-183.01 2150.01,-164.64"/>
<polygon fill="midnightblue" stroke="midnightblue" points="1718.73,-273.35 1709.09,-277.76 1719.37,-280.32 1718.73,-273.35"/>
</g>
<!-- Node19 -->
<g id="node19" class="node">
<title>Node19</title>
<g id="a_node19"><a xlink:href="_armored_unit_8h.html" target="_top" xlink:title=" ">
<polygon fill="white" stroke="black" points="1710,-134.5 1710,-164.5 1837,-164.5 1837,-134.5 1710,-134.5"/>
<text text-anchor="start" x="1718" y="-152.5" font-family="Helvetica,sans-Serif" font-size="10.00">include/GameLogic/Units</text>
<text text-anchor="middle" x="1773.5" y="-141.5" font-family="Helvetica,sans-Serif" font-size="10.00">/ArmoredUnit.h</text>
</a>
</g>
</g>
<!-- Node15&#45;&gt;Node19 -->
<g id="edge24" class="edge">
<title>Node15&#45;&gt;Node19</title>
<path fill="none" stroke="midnightblue" d="M1679.33,-262.87C1692.41,-254.36 1706.97,-243.67 1718.5,-232 1739.02,-211.24 1756.67,-181.85 1766.12,-164.62"/>
<polygon fill="midnightblue" stroke="midnightblue" points="1677.15,-260.11 1670.57,-268.41 1680.89,-266.03 1677.15,-260.11"/>
</g>
<!-- Node15&#45;&gt;Node24 -->
<g id="edge29" class="edge">
<title>Node15&#45;&gt;Node24</title>
<path fill="none" stroke="midnightblue" d="M1571.56,-274.54C1452,-261.68 1218.25,-236.52 1105.44,-224.38"/>
<polygon fill="midnightblue" stroke="midnightblue" points="1571.4,-278.05 1581.72,-275.64 1572.15,-271.09 1571.4,-278.05"/>
</g>
<!-- Node36 -->
<g id="node36" class="node">
<title>Node36</title>
<g id="a_node36"><a xlink:href="_land_unit_8h.html" target="_top" xlink:title=" ">
<polygon fill="white" stroke="black" points="1437,-201.5 1437,-231.5 1564,-231.5 1564,-201.5 1437,-201.5"/>
<text text-anchor="start" x="1445" y="-219.5" font-family="Helvetica,sans-Serif" font-size="10.00">include/GameLogic/Units</text>
<text text-anchor="middle" x="1500.5" y="-208.5" font-family="Helvetica,sans-Serif" font-size="10.00">/LandUnit.h</text>
</a>
</g>
</g>
<!-- Node15&#45;&gt;Node36 -->
<g id="edge51" class="edge">
<title>Node15&#45;&gt;Node36</title>
<path fill="none" stroke="midnightblue" d="M1604.83,-264.27C1581.74,-253.92 1553.26,-241.15 1531.9,-231.58"/>
<polygon fill="midnightblue" stroke="midnightblue" points="1603.48,-267.5 1614.04,-268.4 1606.34,-261.11 1603.48,-267.5"/>
</g>
<!-- Node38 -->
<g id="node38" class="node">
<title>Node38</title>
<g id="a_node38"><a xlink:href="_transport_unit_8h.html" target="_top" xlink:title=" ">
<polygon fill="white" stroke="black" points="1582,-201.5 1582,-231.5 1709,-231.5 1709,-201.5 1582,-201.5"/>
<text text-anchor="start" x="1590" y="-219.5" font-family="Helvetica,sans-Serif" font-size="10.00">include/GameLogic/Units</text>
<text text-anchor="middle" x="1645.5" y="-208.5" font-family="Helvetica,sans-Serif" font-size="10.00">/TransportUnit.h</text>
</a>
</g>
</g>
<!-- Node15&#45;&gt;Node38 -->
<g id="edge54" class="edge">
<title>Node15&#45;&gt;Node38</title>
<path fill="none" stroke="midnightblue" d="M1645.5,-258.11C1645.5,-249.15 1645.5,-239.32 1645.5,-231.58"/>
<polygon fill="midnightblue" stroke="midnightblue" points="1642,-258.4 1645.5,-268.4 1649,-258.4 1642,-258.4"/>
</g>
<!-- Node40 -->
<g id="node40" class="node">
<title>Node40</title>
<g id="a_node40"><a xlink:href="_unit_order_8h.html" target="_top" xlink:title=" ">
<polygon fill="white" stroke="black" points="1847,-201.5 1847,-231.5 1974,-231.5 1974,-201.5 1847,-201.5"/>
<text text-anchor="start" x="1855" y="-219.5" font-family="Helvetica,sans-Serif" font-size="10.00">include/GameLogic/Units</text>
<text text-anchor="middle" x="1910.5" y="-208.5" font-family="Helvetica,sans-Serif" font-size="10.00">/UnitOrder.h</text>
</a>
</g>
</g>
<!-- Node15&#45;&gt;Node40 -->
<g id="edge58" class="edge">
<title>Node15&#45;&gt;Node40</title>
<path fill="none" stroke="midnightblue" d="M1706.87,-265.98C1749.02,-255.37 1804.75,-241.72 1847.29,-231.61"/>
<polygon fill="midnightblue" stroke="midnightblue" points="1705.84,-262.63 1697.01,-268.48 1707.56,-269.42 1705.84,-262.63"/>
</g>
<!-- Node18 -->
<g id="node18" class="node">
<title>Node18</title>
<g id="a_node18"><a xlink:href="_squad_order_8cpp.html" target="_top" xlink:title=" ">
<polygon fill="white" stroke="black" points="2120.5,-67.5 2120.5,-97.5 2234.5,-97.5 2234.5,-67.5 2120.5,-67.5"/>
<text text-anchor="start" x="2128.5" y="-85.5" font-family="Helvetica,sans-Serif" font-size="10.00">src/GameLogic/Squad</text>
<text text-anchor="middle" x="2177.5" y="-74.5" font-family="Helvetica,sans-Serif" font-size="10.00">/SquadOrder.cpp</text>
</a>
</g>
</g>
<!-- Node17&#45;&gt;Node18 -->
<g id="edge23" class="edge">
<title>Node17&#45;&gt;Node18</title>
<path fill="none" stroke="midnightblue" d="M2177.5,-124.11C2177.5,-115.15 2177.5,-105.32 2177.5,-97.58"/>
<polygon fill="midnightblue" stroke="midnightblue" points="2174,-124.4 2177.5,-134.4 2181,-124.4 2174,-124.4"/>
</g>
<!-- Node20 -->
<g id="node20" class="node">
<title>Node20</title>
<g id="a_node20"><a xlink:href="_armored_unit_8cpp.html" target="_top" xlink:title=" ">
<polygon fill="white" stroke="black" points="1718.5,-67.5 1718.5,-97.5 1828.5,-97.5 1828.5,-67.5 1718.5,-67.5"/>
<text text-anchor="start" x="1726.5" y="-85.5" font-family="Helvetica,sans-Serif" font-size="10.00">src/GameLogic/Units</text>
<text text-anchor="middle" x="1773.5" y="-74.5" font-family="Helvetica,sans-Serif" font-size="10.00">/ArmoredUnit.cpp</text>
</a>
</g>
</g>
<!-- Node19&#45;&gt;Node20 -->
<g id="edge25" class="edge">
<title>Node19&#45;&gt;Node20</title>
<path fill="none" stroke="midnightblue" d="M1773.5,-124.11C1773.5,-115.15 1773.5,-105.32 1773.5,-97.58"/>
<polygon fill="midnightblue" stroke="midnightblue" points="1770,-124.4 1773.5,-134.4 1777,-124.4 1770,-124.4"/>
</g>
<!-- Node21 -->
<g id="node21" class="node">
<title>Node21</title>
<g id="a_node21"><a xlink:href="_armored_unit_factory_8h.html" target="_top" xlink:title=" ">
<polygon fill="white" stroke="black" points="1386,-67.5 1386,-97.5 1513,-97.5 1513,-67.5 1386,-67.5"/>
<text text-anchor="start" x="1394" y="-85.5" font-family="Helvetica,sans-Serif" font-size="10.00">include/GameLogic/Units</text>
<text text-anchor="middle" x="1449.5" y="-74.5" font-family="Helvetica,sans-Serif" font-size="10.00">/ArmoredUnitFactory.h</text>
</a>
</g>
</g>
<!-- Node19&#45;&gt;Node21 -->
<g id="edge26" class="edge">
<title>Node19&#45;&gt;Node21</title>
<path fill="none" stroke="midnightblue" d="M1699.97,-133.75C1643.72,-122.46 1566.93,-107.06 1513.26,-96.29"/>
<polygon fill="midnightblue" stroke="midnightblue" points="1699.38,-137.2 1709.87,-135.74 1700.76,-130.34 1699.38,-137.2"/>
</g>
<!-- Node22 -->
<g id="node22" class="node">
<title>Node22</title>
<g id="a_node22"><a xlink:href="_all_units_8cpp.html" target="_top" xlink:title=" ">
<polygon fill="white" stroke="black" points="1187.5,-0.5 1187.5,-30.5 1297.5,-30.5 1297.5,-0.5 1187.5,-0.5"/>
<text text-anchor="start" x="1195.5" y="-18.5" font-family="Helvetica,sans-Serif" font-size="10.00">src/GameLogic/Units</text>
<text text-anchor="middle" x="1242.5" y="-7.5" font-family="Helvetica,sans-Serif" font-size="10.00">/AllUnits.cpp</text>
</a>
</g>
</g>
<!-- Node21&#45;&gt;Node22 -->
<g id="edge27" class="edge">
<title>Node21&#45;&gt;Node22</title>
<path fill="none" stroke="midnightblue" d="M1395.18,-64.44C1361.63,-53.91 1319.09,-40.55 1287.44,-30.61"/>
<polygon fill="midnightblue" stroke="midnightblue" points="1394.25,-67.82 1404.84,-67.48 1396.35,-61.14 1394.25,-67.82"/>
</g>
<!-- Node23 -->
<g id="node23" class="node">
<title>Node23</title>
<g id="a_node23"><a xlink:href="_armored_unit_factory_8cpp.html" target="_top" xlink:title=" ">
<polygon fill="white" stroke="black" points="1387,-0.5 1387,-30.5 1512,-30.5 1512,-0.5 1387,-0.5"/>
<text text-anchor="start" x="1395" y="-18.5" font-family="Helvetica,sans-Serif" font-size="10.00">src/GameLogic/Units</text>
<text text-anchor="middle" x="1449.5" y="-7.5" font-family="Helvetica,sans-Serif" font-size="10.00">/ArmoredUnitFactory.cpp</text>
</a>
</g>
</g>
<!-- Node21&#45;&gt;Node23 -->
<g id="edge28" class="edge">
<title>Node21&#45;&gt;Node23</title>
<path fill="none" stroke="midnightblue" d="M1449.5,-57.11C1449.5,-48.15 1449.5,-38.32 1449.5,-30.58"/>
<polygon fill="midnightblue" stroke="midnightblue" points="1446,-57.4 1449.5,-67.4 1453,-57.4 1446,-57.4"/>
</g>
<!-- Node24&#45;&gt;Node21 -->
<g id="edge43" class="edge">
<title>Node24&#45;&gt;Node21</title>
<path fill="none" stroke="midnightblue" d="M1115.48,-213.12C1208.3,-208.83 1360.87,-196.99 1406.5,-165 1429.56,-148.84 1441.23,-116.38 1446.28,-97.67"/>
<polygon fill="midnightblue" stroke="midnightblue" points="1115.13,-209.64 1105.3,-213.58 1115.45,-216.63 1115.13,-209.64"/>
</g>
<!-- Node25 -->
<g id="node25" class="node">
<title>Node25</title>
<g id="a_node25"><a xlink:href="_spawn_action_8cpp.html" target="_top" xlink:title=" ">
<polygon fill="white" stroke="black" points="733.5,-134.5 733.5,-164.5 829.5,-164.5 829.5,-134.5 733.5,-134.5"/>
<text text-anchor="start" x="741.5" y="-152.5" font-family="Helvetica,sans-Serif" font-size="10.00">src/engine/actions</text>
<text text-anchor="middle" x="781.5" y="-141.5" font-family="Helvetica,sans-Serif" font-size="10.00">/SpawnAction.cpp</text>
</a>
</g>
</g>
<!-- Node24&#45;&gt;Node25 -->
<g id="edge30" class="edge">
<title>Node24&#45;&gt;Node25</title>
<path fill="none" stroke="midnightblue" d="M974.79,-199C935.17,-189.18 883.96,-176.44 838.5,-165 835.63,-164.28 832.68,-163.53 829.7,-162.78"/>
<polygon fill="midnightblue" stroke="midnightblue" points="974.06,-202.42 984.6,-201.43 975.74,-195.63 974.06,-202.42"/>
</g>
<!-- Node26 -->
<g id="node26" class="node">
<title>Node26</title>
<g id="a_node26"><a xlink:href="_factory_8cpp.html" target="_top" xlink:title=" ">
<polygon fill="white" stroke="black" points="847.5,-134.5 847.5,-164.5 957.5,-164.5 957.5,-134.5 847.5,-134.5"/>
<text text-anchor="start" x="855.5" y="-152.5" font-family="Helvetica,sans-Serif" font-size="10.00">src/GameLogic/Units</text>
<text text-anchor="middle" x="902.5" y="-141.5" font-family="Helvetica,sans-Serif" font-size="10.00">/Factory.cpp</text>
</a>
</g>
</g>
<!-- Node24&#45;&gt;Node26 -->
<g id="edge31" class="edge">
<title>Node24&#45;&gt;Node26</title>
<path fill="none" stroke="midnightblue" d="M1002.22,-197.13C980.13,-186.8 952.99,-174.11 932.6,-164.58"/>
<polygon fill="midnightblue" stroke="midnightblue" points="1000.8,-200.33 1011.34,-201.4 1003.76,-193.99 1000.8,-200.33"/>
</g>
<!-- Node27 -->
<g id="node27" class="node">
<title>Node27</title>
<g id="a_node27"><a xlink:href="_squad_template_8h.html" target="_top" xlink:title=" ">
<polygon fill="white" stroke="black" points="976,-134.5 976,-164.5 1107,-164.5 1107,-134.5 976,-134.5"/>
<text text-anchor="start" x="984" y="-152.5" font-family="Helvetica,sans-Serif" font-size="10.00">include/GameLogic/Squad</text>
<text text-anchor="middle" x="1041.5" y="-141.5" font-family="Helvetica,sans-Serif" font-size="10.00">/SquadTemplate.h</text>
</a>
</g>
</g>
<!-- Node24&#45;&gt;Node27 -->
<g id="edge32" class="edge">
<title>Node24&#45;&gt;Node27</title>
<path fill="none" stroke="midnightblue" d="M1041.5,-191.11C1041.5,-182.15 1041.5,-172.32 1041.5,-164.58"/>
<polygon fill="midnightblue" stroke="midnightblue" points="1038,-191.4 1041.5,-201.4 1045,-191.4 1038,-191.4"/>
</g>
<!-- Node31 -->
<g id="node31" class="node">
<title>Node31</title>
<g id="a_node31"><a xlink:href="_all_units_8h.html" target="_top" xlink:title=" ">
<polygon fill="white" stroke="black" points="588,-134.5 588,-164.5 715,-164.5 715,-134.5 588,-134.5"/>
<text text-anchor="start" x="596" y="-152.5" font-family="Helvetica,sans-Serif" font-size="10.00">include/GameLogic/Units</text>
<text text-anchor="middle" x="651.5" y="-141.5" font-family="Helvetica,sans-Serif" font-size="10.00">/AllUnits.h</text>
</a>
</g>
</g>
<!-- Node24&#45;&gt;Node31 -->
<g id="edge37" class="edge">
<title>Node24&#45;&gt;Node31</title>
<path fill="none" stroke="midnightblue" d="M967.88,-204.58C903.55,-194.85 807.68,-179.88 724.5,-165 721.45,-164.45 718.33,-163.88 715.17,-163.3"/>
<polygon fill="midnightblue" stroke="midnightblue" points="967.52,-208.07 977.93,-206.1 968.56,-201.15 967.52,-208.07"/>
</g>
<!-- Node32 -->
<g id="node32" class="node">
<title>Node32</title>
<g id="a_node32"><a xlink:href="_land_unit_factory_8h.html" target="_top" xlink:title=" ">
<polygon fill="white" stroke="black" points="1125,-134.5 1125,-164.5 1252,-164.5 1252,-134.5 1125,-134.5"/>
<text text-anchor="start" x="1133" y="-152.5" font-family="Helvetica,sans-Serif" font-size="10.00">include/GameLogic/Units</text>
<text text-anchor="middle" x="1188.5" y="-141.5" font-family="Helvetica,sans-Serif" font-size="10.00">/LandUnitFactory.h</text>
</a>
</g>
</g>
<!-- Node24&#45;&gt;Node32 -->
<g id="edge44" class="edge">
<title>Node24&#45;&gt;Node32</title>
<path fill="none" stroke="midnightblue" d="M1082.73,-197.27C1106.14,-186.92 1135.01,-174.15 1156.67,-164.58"/>
<polygon fill="midnightblue" stroke="midnightblue" points="1081.13,-194.15 1073.4,-201.4 1083.96,-200.55 1081.13,-194.15"/>
</g>
<!-- Node34 -->
<g id="node34" class="node">
<title>Node34</title>
<g id="a_node34"><a xlink:href="_transport_unit_factory_8h.html" target="_top" xlink:title=" ">
<polygon fill="white" stroke="black" points="1270,-134.5 1270,-164.5 1397,-164.5 1397,-134.5 1270,-134.5"/>
<text text-anchor="start" x="1278" y="-152.5" font-family="Helvetica,sans-Serif" font-size="10.00">include/GameLogic/Units</text>
<text text-anchor="middle" x="1333.5" y="-141.5" font-family="Helvetica,sans-Serif" font-size="10.00">/TransportUnitFactory.h</text>
</a>
</g>
</g>
<!-- Node24&#45;&gt;Node34 -->
<g id="edge47" class="edge">
<title>Node24&#45;&gt;Node34</title>
<path fill="none" stroke="midnightblue" d="M1114.51,-199.25C1162.45,-188.58 1224.55,-174.75 1270.36,-164.55"/>
<polygon fill="midnightblue" stroke="midnightblue" points="1113.5,-195.89 1104.5,-201.48 1115.02,-202.72 1113.5,-195.89"/>
</g>
<!-- Node28 -->
<g id="node28" class="node">
<title>Node28</title>
<g id="a_node28"><a xlink:href="_squad_template_8cpp.html" target="_top" xlink:title=" ">
<polygon fill="white" stroke="black" points="868.5,-67.5 868.5,-97.5 982.5,-97.5 982.5,-67.5 868.5,-67.5"/>
<text text-anchor="start" x="876.5" y="-85.5" font-family="Helvetica,sans-Serif" font-size="10.00">src/GameLogic/Squad</text>
<text text-anchor="middle" x="925.5" y="-74.5" font-family="Helvetica,sans-Serif" font-size="10.00">/SquadTemplate.cpp</text>
</a>
</g>
</g>
<!-- Node27&#45;&gt;Node28 -->
<g id="edge33" class="edge">
<title>Node27&#45;&gt;Node28</title>
<path fill="none" stroke="midnightblue" d="M1007.23,-129.3C989.08,-119.12 967.18,-106.85 950.62,-97.58"/>
<polygon fill="midnightblue" stroke="midnightblue" points="1005.9,-132.56 1016.33,-134.4 1009.32,-126.45 1005.9,-132.56"/>
</g>
<!-- Node29 -->
<g id="node29" class="node">
<title>Node29</title>
<g id="a_node29"><a xlink:href="_all_squad_templates_8h.html" target="_top" xlink:title=" ">
<polygon fill="white" stroke="black" points="597,-67.5 597,-97.5 728,-97.5 728,-67.5 597,-67.5"/>
<text text-anchor="start" x="605" y="-85.5" font-family="Helvetica,sans-Serif" font-size="10.00">include/GameLogic/Squad</text>
<text text-anchor="middle" x="662.5" y="-74.5" font-family="Helvetica,sans-Serif" font-size="10.00">/AllSquadTemplates.h</text>
</a>
</g>
</g>
<!-- Node27&#45;&gt;Node29 -->
<g id="edge34" class="edge">
<title>Node27&#45;&gt;Node29</title>
<path fill="none" stroke="midnightblue" d="M965.77,-133.9C877.68,-118.15 787.51,-103.41 728.11,-93.89"/>
<polygon fill="midnightblue" stroke="midnightblue" points="965.21,-137.35 975.67,-135.67 966.44,-130.46 965.21,-137.35"/>
</g>
<!-- Node29&#45;&gt;Node6 -->
<g id="edge36" class="edge">
<title>Node29&#45;&gt;Node6</title>
<path fill="none" stroke="midnightblue" d="M615.77,-102.34C602,-110.14 588.28,-120.56 579.5,-134 522.62,-221.1 568.03,-263.82 548.5,-366 541.05,-404.98 528.37,-450.66 523.01,-469.36"/>
<polygon fill="midnightblue" stroke="midnightblue" points="617.57,-105.35 624.78,-97.59 614.3,-99.16 617.57,-105.35"/>
</g>
<!-- Node30 -->
<g id="node30" class="node">
<title>Node30</title>
<g id="a_node30"><a xlink:href="_all_squad_templates_8cpp.html" target="_top" xlink:title=" ">
<polygon fill="white" stroke="black" points="601.5,-0.5 601.5,-30.5 723.5,-30.5 723.5,-0.5 601.5,-0.5"/>
<text text-anchor="start" x="609.5" y="-18.5" font-family="Helvetica,sans-Serif" font-size="10.00">src/GameLogic/Squad</text>
<text text-anchor="middle" x="662.5" y="-7.5" font-family="Helvetica,sans-Serif" font-size="10.00">/AllSquadTemplates.cpp</text>
</a>
</g>
</g>
<!-- Node29&#45;&gt;Node30 -->
<g id="edge35" class="edge">
<title>Node29&#45;&gt;Node30</title>
<path fill="none" stroke="midnightblue" d="M662.5,-57.11C662.5,-48.15 662.5,-38.32 662.5,-30.58"/>
<polygon fill="midnightblue" stroke="midnightblue" points="659,-57.4 662.5,-67.4 666,-57.4 659,-57.4"/>
</g>
<!-- Node31&#45;&gt;Node6 -->
<g id="edge41" class="edge">
<title>Node31&#45;&gt;Node6</title>
<path fill="none" stroke="midnightblue" d="M638.18,-173.53C624.59,-199.23 605.5,-242.47 605.5,-282.5 605.5,-351.5 605.5,-351.5 605.5,-351.5 605.5,-389.26 603.16,-402.07 581.5,-433 570.25,-449.06 551.43,-461.67 537.67,-469.41"/>
<polygon fill="midnightblue" stroke="midnightblue" points="641.34,-175.04 643.06,-164.59 635.2,-171.69 641.34,-175.04"/>
</g>
<!-- Node31&#45;&gt;Node14 -->
<g id="edge38" class="edge">
<title>Node31&#45;&gt;Node14</title>
<path fill="none" stroke="midnightblue" d="M614.21,-129.85C593.65,-119.58 568.55,-107.03 549.65,-97.58"/>
<polygon fill="midnightblue" stroke="midnightblue" points="612.78,-133.05 623.29,-134.4 615.91,-126.79 612.78,-133.05"/>
</g>
<!-- Node31&#45;&gt;Node22 -->
<g id="edge40" class="edge">
<title>Node31&#45;&gt;Node22</title>
<path fill="none" stroke="midnightblue" d="M689.81,-130.23C730.85,-111.44 798.35,-82.76 859.5,-67 973.97,-37.49 1112.36,-24.68 1187.48,-19.56"/>
<polygon fill="midnightblue" stroke="midnightblue" points="688.33,-127.06 680.71,-134.43 691.26,-133.42 688.33,-127.06"/>
</g>
<!-- Node31&#45;&gt;Node28 -->
<g id="edge39" class="edge">
<title>Node31&#45;&gt;Node28</title>
<path fill="none" stroke="midnightblue" d="M720.44,-132.15C766.12,-121.31 825.32,-107.26 868.37,-97.05"/>
<polygon fill="midnightblue" stroke="midnightblue" points="719.54,-128.76 710.62,-134.48 721.15,-135.57 719.54,-128.76"/>
</g>
<!-- Node31&#45;&gt;Node29 -->
<g id="edge42" class="edge">
<title>Node31&#45;&gt;Node29</title>
<path fill="none" stroke="midnightblue" d="M655.58,-124.4C657.11,-115.37 658.79,-105.41 660.12,-97.58"/>
<polygon fill="midnightblue" stroke="midnightblue" points="652.1,-123.95 653.89,-134.4 659.01,-125.12 652.1,-123.95"/>
</g>
<!-- Node32&#45;&gt;Node22 -->
<g id="edge45" class="edge">
<title>Node32&#45;&gt;Node22</title>
<path fill="none" stroke="midnightblue" d="M1184.84,-124.15C1183.39,-107.38 1183.61,-84.97 1191.5,-67 1197.96,-52.28 1210.86,-39.57 1222.07,-30.59"/>
<polygon fill="midnightblue" stroke="midnightblue" points="1181.38,-124.7 1185.97,-134.25 1188.34,-123.92 1181.38,-124.7"/>
</g>
<!-- Node33 -->
<g id="node33" class="node">
<title>Node33</title>
<g id="a_node33"><a xlink:href="_land_unit_factory_8cpp.html" target="_top" xlink:title=" ">
<polygon fill="white" stroke="black" points="1033.5,-67.5 1033.5,-97.5 1143.5,-97.5 1143.5,-67.5 1033.5,-67.5"/>
<text text-anchor="start" x="1041.5" y="-85.5" font-family="Helvetica,sans-Serif" font-size="10.00">src/GameLogic/Units</text>
<text text-anchor="middle" x="1088.5" y="-74.5" font-family="Helvetica,sans-Serif" font-size="10.00">/LandUnitFactory.cpp</text>
</a>
</g>
</g>
<!-- Node32&#45;&gt;Node33 -->
<g id="edge46" class="edge">
<title>Node32&#45;&gt;Node33</title>
<path fill="none" stroke="midnightblue" d="M1158.09,-128.73C1142.62,-118.68 1124.17,-106.68 1110.16,-97.58"/>
<polygon fill="midnightblue" stroke="midnightblue" points="1156.51,-131.88 1166.8,-134.4 1160.32,-126.01 1156.51,-131.88"/>
</g>
<!-- Node34&#45;&gt;Node21 -->
<g id="edge50" class="edge">
<title>Node34&#45;&gt;Node21</title>
<path fill="none" stroke="midnightblue" d="M1367.77,-129.3C1385.92,-119.12 1407.82,-106.85 1424.38,-97.58"/>
<polygon fill="midnightblue" stroke="midnightblue" points="1365.68,-126.45 1358.67,-134.4 1369.1,-132.56 1365.68,-126.45"/>
</g>
<!-- Node34&#45;&gt;Node22 -->
<g id="edge48" class="edge">
<title>Node34&#45;&gt;Node22</title>
<path fill="none" stroke="midnightblue" d="M1341.82,-124.52C1346.24,-107.3 1348.88,-84.18 1338.5,-67 1328.18,-49.91 1309.95,-38.32 1292.12,-30.6"/>
<polygon fill="midnightblue" stroke="midnightblue" points="1338.38,-123.79 1338.93,-134.37 1345.1,-125.76 1338.38,-123.79"/>
</g>
<!-- Node35 -->
<g id="node35" class="node">
<title>Node35</title>
<g id="a_node35"><a xlink:href="_transport_unit_factory_8cpp.html" target="_top" xlink:title=" ">
<polygon fill="white" stroke="black" points="1200,-67.5 1200,-97.5 1329,-97.5 1329,-67.5 1200,-67.5"/>
<text text-anchor="start" x="1208" y="-85.5" font-family="Helvetica,sans-Serif" font-size="10.00">src/GameLogic/Units</text>
<text text-anchor="middle" x="1264.5" y="-74.5" font-family="Helvetica,sans-Serif" font-size="10.00">/TransportUnitFactory.cpp</text>
</a>
</g>
</g>
<!-- Node34&#45;&gt;Node35 -->
<g id="edge49" class="edge">
<title>Node34&#45;&gt;Node35</title>
<path fill="none" stroke="midnightblue" d="M1311.01,-127.31C1300.66,-117.56 1288.66,-106.26 1279.44,-97.58"/>
<polygon fill="midnightblue" stroke="midnightblue" points="1308.85,-130.09 1318.53,-134.4 1313.65,-124.99 1308.85,-130.09"/>
</g>
<!-- Node36&#45;&gt;Node32 -->
<g id="edge53" class="edge">
<title>Node36&#45;&gt;Node32</title>
<path fill="none" stroke="midnightblue" d="M1426.95,-200.18C1373.86,-189.12 1302.87,-174.33 1252.19,-163.77"/>
<polygon fill="midnightblue" stroke="midnightblue" points="1426.48,-203.65 1436.99,-202.27 1427.91,-196.8 1426.48,-203.65"/>
</g>
<!-- Node37 -->
<g id="node37" class="node">
<title>Node37</title>
<g id="a_node37"><a xlink:href="_land_unit_8cpp.html" target="_top" xlink:title=" ">
<polygon fill="white" stroke="black" points="1453.5,-134.5 1453.5,-164.5 1563.5,-164.5 1563.5,-134.5 1453.5,-134.5"/>
<text text-anchor="start" x="1461.5" y="-152.5" font-family="Helvetica,sans-Serif" font-size="10.00">src/GameLogic/Units</text>
<text text-anchor="middle" x="1508.5" y="-141.5" font-family="Helvetica,sans-Serif" font-size="10.00">/LandUnit.cpp</text>
</a>
</g>
</g>
<!-- Node36&#45;&gt;Node37 -->
<g id="edge52" class="edge">
<title>Node36&#45;&gt;Node37</title>
<path fill="none" stroke="midnightblue" d="M1503.47,-191.4C1504.58,-182.37 1505.8,-172.41 1506.77,-164.58"/>
<polygon fill="midnightblue" stroke="midnightblue" points="1499.98,-191.04 1502.24,-201.4 1506.93,-191.9 1499.98,-191.04"/>
</g>
<!-- Node38&#45;&gt;Node19 -->
<g id="edge56" class="edge">
<title>Node38&#45;&gt;Node19</title>
<path fill="none" stroke="midnightblue" d="M1682.22,-196.85C1702.46,-186.58 1727.17,-174.03 1745.78,-164.58"/>
<polygon fill="midnightblue" stroke="midnightblue" points="1680.61,-193.75 1673.27,-201.4 1683.78,-199.99 1680.61,-193.75"/>
</g>
<!-- Node38&#45;&gt;Node34 -->
<g id="edge57" class="edge">
<title>Node38&#45;&gt;Node34</title>
<path fill="none" stroke="midnightblue" d="M1571.95,-200.18C1518.86,-189.12 1447.87,-174.33 1397.19,-163.77"/>
<polygon fill="midnightblue" stroke="midnightblue" points="1571.48,-203.65 1581.99,-202.27 1572.91,-196.8 1571.48,-203.65"/>
</g>
<!-- Node39 -->
<g id="node39" class="node">
<title>Node39</title>
<g id="a_node39"><a xlink:href="_transport_unit_8cpp.html" target="_top" xlink:title=" ">
<polygon fill="white" stroke="black" points="1581.5,-134.5 1581.5,-164.5 1691.5,-164.5 1691.5,-134.5 1581.5,-134.5"/>
<text text-anchor="start" x="1589.5" y="-152.5" font-family="Helvetica,sans-Serif" font-size="10.00">src/GameLogic/Units</text>
<text text-anchor="middle" x="1636.5" y="-141.5" font-family="Helvetica,sans-Serif" font-size="10.00">/TransportUnit.cpp</text>
</a>
</g>
</g>
<!-- Node38&#45;&gt;Node39 -->
<g id="edge55" class="edge">
<title>Node38&#45;&gt;Node39</title>
<path fill="none" stroke="midnightblue" d="M1642.16,-191.4C1640.91,-182.37 1639.53,-172.41 1638.45,-164.58"/>
<polygon fill="midnightblue" stroke="midnightblue" points="1638.71,-191.97 1643.55,-201.4 1645.64,-191.01 1638.71,-191.97"/>
</g>
<!-- Node40&#45;&gt;Node15 -->
<g id="edge62" class="edge">
<title>Node40&#45;&gt;Node15</title>
<path fill="none" stroke="midnightblue" d="M1848.77,-234.11C1806.54,-244.74 1750.81,-258.39 1708.34,-268.48"/>
<polygon fill="midnightblue" stroke="midnightblue" points="1849.81,-237.45 1858.65,-231.61 1848.1,-230.67 1849.81,-237.45"/>
</g>
<!-- Node40&#45;&gt;Node16 -->
<g id="edge59" class="edge">
<title>Node40&#45;&gt;Node16</title>
<path fill="none" stroke="midnightblue" d="M1910.5,-191.11C1910.5,-182.15 1910.5,-172.32 1910.5,-164.58"/>
<polygon fill="midnightblue" stroke="midnightblue" points="1907,-191.4 1910.5,-201.4 1914,-191.4 1907,-191.4"/>
</g>
<!-- Node40&#45;&gt;Node17 -->
<g id="edge61" class="edge">
<title>Node40&#45;&gt;Node17</title>
<path fill="none" stroke="midnightblue" d="M1978.07,-199.05C2021.72,-188.43 2077.92,-174.74 2119.54,-164.61"/>
<polygon fill="midnightblue" stroke="midnightblue" points="1976.99,-195.71 1968.11,-201.48 1978.65,-202.51 1976.99,-195.71"/>
</g>
<!-- Node41 -->
<g id="node41" class="node">
<title>Node41</title>
<g id="a_node41"><a xlink:href="_unit_order_8cpp.html" target="_top" xlink:title=" ">
<polygon fill="white" stroke="black" points="1983.5,-134.5 1983.5,-164.5 2093.5,-164.5 2093.5,-134.5 1983.5,-134.5"/>
<text text-anchor="start" x="1991.5" y="-152.5" font-family="Helvetica,sans-Serif" font-size="10.00">src/GameLogic/Units</text>
<text text-anchor="middle" x="2038.5" y="-141.5" font-family="Helvetica,sans-Serif" font-size="10.00">/UnitOrder.cpp</text>
</a>
</g>
</g>
<!-- Node40&#45;&gt;Node41 -->
<g id="edge60" class="edge">
<title>Node40&#45;&gt;Node41</title>
<path fill="none" stroke="midnightblue" d="M1947.22,-196.85C1967.46,-186.58 1992.17,-174.03 2010.78,-164.58"/>
<polygon fill="midnightblue" stroke="midnightblue" points="1945.61,-193.75 1938.27,-201.4 1948.78,-199.99 1945.61,-193.75"/>
</g>
<!-- Node42&#45;&gt;Node5 -->
<g id="edge64" class="edge">
<title>Node42&#45;&gt;Node5</title>
<path fill="none" stroke="midnightblue" d="M404.71,-269.19C383.51,-258.26 353.56,-242.81 331.93,-231.65"/>
<polygon fill="midnightblue" stroke="midnightblue" points="403.28,-272.39 413.77,-273.87 406.49,-266.17 403.28,-272.39"/>
</g>
<!-- Node43 -->
<g id="node43" class="node">
<title>Node43</title>
<g id="a_node43"><a xlink:href="pathfinding_8cpp.html" target="_top" xlink:title=" ">
<polygon fill="white" stroke="black" points="380,-207 380,-226 493,-226 493,-207 380,-207"/>
<text text-anchor="middle" x="436.5" y="-214" font-family="Helvetica,sans-Serif" font-size="10.00">src/util/pathfinding.cpp</text>
</a>
</g>
</g>
<!-- Node42&#45;&gt;Node43 -->
<g id="edge65" class="edge">
<title>Node42&#45;&gt;Node43</title>
<path fill="none" stroke="midnightblue" d="M432.25,-263.54C433.39,-251.17 434.83,-235.62 435.7,-226.13"/>
<polygon fill="midnightblue" stroke="midnightblue" points="428.74,-263.45 431.31,-273.73 435.71,-264.1 428.74,-263.45"/>
</g>
</g>
</svg>
