<?xml version="1.0" encoding="UTF-8" standalone="no"?>
<!DOCTYPE svg PUBLIC "-//W3C//DTD SVG 1.1//EN"
 "http://www.w3.org/Graphics/SVG/1.1/DTD/svg11.dtd">
<!-- Generated by graphviz version 2.47.1 (20210421.1823)
 -->
<!-- Title: include/GameLogic/Squad/Action.h Pages: 1 -->
<svg width="1832pt" height="575pt"
 viewBox="0.00 0.00 1831.97 575.00" xmlns="http://www.w3.org/2000/svg" xmlns:xlink="http://www.w3.org/1999/xlink">
<g id="graph0" class="graph" transform="scale(1 1) rotate(0) translate(4 571)">
<title>include/GameLogic/Squad/Action.h</title>
<polygon fill="white" stroke="transparent" points="-4,4 -4,-571 1827.97,-571 1827.97,4 -4,4"/>
<!-- Node1 -->
<g id="node1" class="node">
<title>Node1</title>
<g id="a_node1"><a xlink:title=" ">
<polygon fill="#bfbfbf" stroke="black" points="208.5,-536.5 208.5,-566.5 339.5,-566.5 339.5,-536.5 208.5,-536.5"/>
<text text-anchor="start" x="216.5" y="-554.5" font-family="Helvetica,sans-Serif" font-size="10.00">include/GameLogic/Squad</text>
<text text-anchor="middle" x="274" y="-543.5" font-family="Helvetica,sans-Serif" font-size="10.00">/Action.h</text>
</a>
</g>
</g>
<!-- Node2 -->
<g id="node2" class="node">
<title>Node2</title>
<g id="a_node2"><a xlink:href="_squad_8h.html" target="_top" xlink:title=" ">
<polygon fill="white" stroke="black" points="208.5,-469.5 208.5,-499.5 339.5,-499.5 339.5,-469.5 208.5,-469.5"/>
<text text-anchor="start" x="216.5" y="-487.5" font-family="Helvetica,sans-Serif" font-size="10.00">include/GameLogic/Squad</text>
<text text-anchor="middle" x="274" y="-476.5" font-family="Helvetica,sans-Serif" font-size="10.00">/Squad.h</text>
</a>
</g>
</g>
<!-- Node1&#45;&gt;Node2 -->
<g id="edge1" class="edge">
<title>Node1&#45;&gt;Node2</title>
<path fill="none" stroke="midnightblue" d="M267.45,-526.4C267.01,-517.37 267.3,-507.41 268.33,-499.58"/>
<polygon fill="midnightblue" stroke="midnightblue" points="263.97,-526.74 268.32,-536.4 270.94,-526.13 263.97,-526.74"/>
</g>
<!-- Node2&#45;&gt;Node1 -->
<g id="edge39" class="edge">
<title>Node2&#45;&gt;Node1</title>
<path fill="none" stroke="midnightblue" d="M280.54,-509.57C280.99,-518.6 280.71,-528.56 279.68,-536.4"/>
<polygon fill="midnightblue" stroke="midnightblue" points="284.03,-509.24 279.67,-499.58 277.05,-509.84 284.03,-509.24"/>
</g>
<!-- Node3 -->
<g id="node3" class="node">
<title>Node3</title>
<g id="a_node3"><a xlink:href="_squad_8cpp.html" target="_top" xlink:title=" ">
<polygon fill="white" stroke="black" points="514,-201.5 514,-231.5 628,-231.5 628,-201.5 514,-201.5"/>
<text text-anchor="start" x="522" y="-219.5" font-family="Helvetica,sans-Serif" font-size="10.00">src/GameLogic/Squad</text>
<text text-anchor="middle" x="571" y="-208.5" font-family="Helvetica,sans-Serif" font-size="10.00">/Squad.cpp</text>
</a>
</g>
</g>
<!-- Node2&#45;&gt;Node3 -->
<g id="edge2" class="edge">
<title>Node2&#45;&gt;Node3</title>
<path fill="none" stroke="midnightblue" d="M240.5,-464.13C177.35,-425.28 52.26,-335.8 113,-268 139.32,-238.62 396.99,-224.53 513.87,-219.62"/>
<polygon fill="midnightblue" stroke="midnightblue" points="238.97,-467.29 249.34,-469.48 242.6,-461.31 238.97,-467.29"/>
</g>
<!-- Node4 -->
<g id="node4" class="node">
<title>Node4</title>
<g id="a_node4"><a xlink:href="_set_squad_path_8h.html" target="_top" xlink:title=" ">
<polygon fill="white" stroke="black" points="601.5,-67.5 601.5,-97.5 714.5,-97.5 714.5,-67.5 601.5,-67.5"/>
<text text-anchor="start" x="609.5" y="-85.5" font-family="Helvetica,sans-Serif" font-size="10.00">include/engine/actions</text>
<text text-anchor="middle" x="658" y="-74.5" font-family="Helvetica,sans-Serif" font-size="10.00">/SetSquadPath.h</text>
</a>
</g>
</g>
<!-- Node2&#45;&gt;Node4 -->
<g id="edge3" class="edge">
<title>Node2&#45;&gt;Node4</title>
<path fill="none" stroke="midnightblue" d="M350.14,-480.62C649.46,-468.82 1729,-421.41 1729,-351.5 1729,-351.5 1729,-351.5 1729,-215.5 1729,-197.37 1780.43,-186.62 1490,-134 1181.28,-78.06 1097.68,-123.81 785,-98 761.89,-96.09 736.48,-93.33 714.51,-90.72"/>
<polygon fill="midnightblue" stroke="midnightblue" points="349.68,-477.14 339.82,-481.03 349.95,-484.13 349.68,-477.14"/>
</g>
<!-- Node7 -->
<g id="node7" class="node">
<title>Node7</title>
<g id="a_node7"><a xlink:href="_cell_8h.html" target="_top" xlink:title=" ">
<polygon fill="white" stroke="black" points="483,-140 483,-159 611,-159 611,-140 483,-140"/>
<text text-anchor="middle" x="547" y="-147" font-family="Helvetica,sans-Serif" font-size="10.00">include/GameLogic/Cell.h</text>
</a>
</g>
</g>
<!-- Node2&#45;&gt;Node7 -->
<g id="edge38" class="edge">
<title>Node2&#45;&gt;Node7</title>
<path fill="none" stroke="midnightblue" d="M198.28,-473.12C129.21,-458.71 38,-425.48 38,-351.5 38,-351.5 38,-351.5 38,-282.5 38,-233.27 69.17,-223.41 113,-201 175.6,-169 377.91,-156.71 482.79,-152.48"/>
<polygon fill="midnightblue" stroke="midnightblue" points="197.81,-476.6 208.3,-475.12 199.18,-469.73 197.81,-476.6"/>
</g>
<!-- Node24 -->
<g id="node24" class="node">
<title>Node24</title>
<g id="a_node24"><a xlink:href="pathfinding_8h.html" target="_top" xlink:title=" ">
<polygon fill="white" stroke="black" points="794,-73 794,-92 914,-92 914,-73 794,-73"/>
<text text-anchor="middle" x="854" y="-80" font-family="Helvetica,sans-Serif" font-size="10.00">include/util/pathfinding.h</text>
</a>
</g>
</g>
<!-- Node2&#45;&gt;Node24 -->
<g id="edge61" class="edge">
<title>Node2&#45;&gt;Node24</title>
<path fill="none" stroke="midnightblue" d="M349.52,-484.12C531.53,-484.75 1008.53,-481.21 1403,-433 1567.56,-412.89 1767,-517.28 1767,-351.5 1767,-351.5 1767,-351.5 1767,-215.5 1767,-184.71 1979.94,-227.13 1578,-134 1452.26,-104.87 1064.08,-90.02 914.05,-85.25"/>
<polygon fill="midnightblue" stroke="midnightblue" points="349.53,-480.62 339.52,-484.08 349.5,-487.62 349.53,-480.62"/>
</g>
<!-- Node27 -->
<g id="node27" class="node">
<title>Node27</title>
<g id="a_node27"><a xlink:href="_unit_8h.html" target="_top" xlink:title=" ">
<polygon fill="white" stroke="black" points="345.5,-402.5 345.5,-432.5 472.5,-432.5 472.5,-402.5 345.5,-402.5"/>
<text text-anchor="start" x="353.5" y="-420.5" font-family="Helvetica,sans-Serif" font-size="10.00">include/GameLogic/Units</text>
<text text-anchor="middle" x="409" y="-409.5" font-family="Helvetica,sans-Serif" font-size="10.00">/Unit.h</text>
</a>
</g>
</g>
<!-- Node2&#45;&gt;Node27 -->
<g id="edge40" class="edge">
<title>Node2&#45;&gt;Node27</title>
<path fill="none" stroke="midnightblue" d="M306.56,-464.85C326.99,-454.58 353.22,-442.03 374.09,-432.58"/>
<polygon fill="midnightblue" stroke="midnightblue" points="304.94,-461.75 297.61,-469.4 308.12,-467.99 304.94,-461.75"/>
</g>
<!-- Node5 -->
<g id="node5" class="node">
<title>Node5</title>
<g id="a_node5"><a xlink:href="engine_2_action_8cpp.html" target="_top" xlink:title=" ">
<polygon fill="white" stroke="black" points="496,-6 496,-25 606,-25 606,-6 496,-6"/>
<text text-anchor="middle" x="551" y="-13" font-family="Helvetica,sans-Serif" font-size="10.00">src/engine/Action.cpp</text>
</a>
</g>
</g>
<!-- Node4&#45;&gt;Node5 -->
<g id="edge4" class="edge">
<title>Node4&#45;&gt;Node5</title>
<path fill="none" stroke="midnightblue" d="M626.13,-62.14C605.8,-49.79 580.45,-34.39 565,-25.01"/>
<polygon fill="midnightblue" stroke="midnightblue" points="624.42,-65.2 634.78,-67.4 628.05,-59.21 624.42,-65.2"/>
</g>
<!-- Node6 -->
<g id="node6" class="node">
<title>Node6</title>
<g id="a_node6"><a xlink:href="_set_squad_path_8cpp.html" target="_top" xlink:title=" ">
<polygon fill="white" stroke="black" points="624.5,-0.5 624.5,-30.5 725.5,-30.5 725.5,-0.5 624.5,-0.5"/>
<text text-anchor="start" x="632.5" y="-18.5" font-family="Helvetica,sans-Serif" font-size="10.00">src/engine/actions</text>
<text text-anchor="middle" x="675" y="-7.5" font-family="Helvetica,sans-Serif" font-size="10.00">/SetSquadPath.cpp</text>
</a>
</g>
</g>
<!-- Node4&#45;&gt;Node6 -->
<g id="edge5" class="edge">
<title>Node4&#45;&gt;Node6</title>
<path fill="none" stroke="midnightblue" d="M664.23,-57.7C666.61,-48.59 669.25,-38.49 671.32,-30.58"/>
<polygon fill="midnightblue" stroke="midnightblue" points="660.83,-56.84 661.69,-67.4 667.61,-58.61 660.83,-56.84"/>
</g>
<!-- Node4&#45;&gt;Node7 -->
<g id="edge6" class="edge">
<title>Node4&#45;&gt;Node7</title>
<path fill="none" stroke="midnightblue" d="M630.87,-103.05C610.92,-115.32 584.45,-130.52 566.5,-139.87"/>
<polygon fill="midnightblue" stroke="midnightblue" points="632.89,-105.91 639.52,-97.65 629.18,-99.97 632.89,-105.91"/>
</g>
<!-- Node7&#45;&gt;Node1 -->
<g id="edge10" class="edge">
<title>Node7&#45;&gt;Node1</title>
<path fill="none" stroke="midnightblue" d="M472.4,-151.37C354.97,-153.88 133.32,-163.59 65,-201 24.36,-223.25 0,-236.17 0,-282.5 0,-418.5 0,-418.5 0,-418.5 0,-510.64 127.31,-538.5 208.37,-546.9"/>
<polygon fill="midnightblue" stroke="midnightblue" points="472.81,-154.86 482.74,-151.16 472.67,-147.86 472.81,-154.86"/>
</g>
<!-- Node7&#45;&gt;Node2 -->
<g id="edge11" class="edge">
<title>Node7&#45;&gt;Node2</title>
<path fill="none" stroke="midnightblue" d="M472.65,-153.44C369.53,-158.44 189.43,-171.13 131,-201 87.17,-223.41 56,-233.27 56,-282.5 56,-351.5 56,-351.5 56,-351.5 56,-424.21 144.12,-457.56 208.37,-472.37"/>
<polygon fill="midnightblue" stroke="midnightblue" points="472.86,-156.93 482.69,-152.97 472.53,-149.94 472.86,-156.93"/>
</g>
<!-- Node7&#45;&gt;Node4 -->
<g id="edge9" class="edge">
<title>Node7&#45;&gt;Node4</title>
<path fill="none" stroke="midnightblue" d="M565.79,-134.15C582.97,-123.27 608.38,-108.4 628.26,-97.59"/>
<polygon fill="midnightblue" stroke="midnightblue" points="563.67,-131.36 557.18,-139.73 567.48,-137.23 563.67,-131.36"/>
</g>
<!-- Node8 -->
<g id="node8" class="node">
<title>Node8</title>
<g id="a_node8"><a xlink:href="_cell_8cpp.html" target="_top" xlink:title=" ">
<polygon fill="white" stroke="black" points="371.5,-73 371.5,-92 492.5,-92 492.5,-73 371.5,-73"/>
<text text-anchor="middle" x="432" y="-80" font-family="Helvetica,sans-Serif" font-size="10.00">src/GameLogic/Cell.cpp</text>
</a>
</g>
</g>
<!-- Node7&#45;&gt;Node8 -->
<g id="edge7" class="edge">
<title>Node7&#45;&gt;Node8</title>
<path fill="none" stroke="midnightblue" d="M522.74,-134.79C499.95,-121.9 466.54,-103.02 447.26,-92.13"/>
<polygon fill="midnightblue" stroke="midnightblue" points="521.06,-137.86 531.49,-139.73 524.51,-131.77 521.06,-137.86"/>
</g>
<!-- Node9 -->
<g id="node9" class="node">
<title>Node9</title>
<g id="a_node9"><a xlink:href="main_8cpp.html" target="_top" xlink:title=" ">
<polygon fill="white" stroke="black" points="511,-73 511,-92 583,-92 583,-73 511,-73"/>
<text text-anchor="middle" x="547" y="-80" font-family="Helvetica,sans-Serif" font-size="10.00">src/main.cpp</text>
</a>
</g>
</g>
<!-- Node7&#45;&gt;Node9 -->
<g id="edge8" class="edge">
<title>Node7&#45;&gt;Node9</title>
<path fill="none" stroke="midnightblue" d="M547,-129.54C547,-117.17 547,-101.62 547,-92.13"/>
<polygon fill="midnightblue" stroke="midnightblue" points="543.5,-129.73 547,-139.73 550.5,-129.73 543.5,-129.73"/>
</g>
<!-- Node10 -->
<g id="node10" class="node">
<title>Node10</title>
<g id="a_node10"><a xlink:href="_factory_8h.html" target="_top" xlink:title=" ">
<polygon fill="white" stroke="black" points="767.5,-335.5 767.5,-365.5 894.5,-365.5 894.5,-335.5 767.5,-335.5"/>
<text text-anchor="start" x="775.5" y="-353.5" font-family="Helvetica,sans-Serif" font-size="10.00">include/GameLogic/Units</text>
<text text-anchor="middle" x="831" y="-342.5" font-family="Helvetica,sans-Serif" font-size="10.00">/Factory.h</text>
</a>
</g>
</g>
<!-- Node7&#45;&gt;Node10 -->
<g id="edge12" class="edge">
<title>Node7&#45;&gt;Node10</title>
<path fill="none" stroke="midnightblue" d="M528.8,-166.38C519.77,-175.49 509.8,-187.73 505,-201 500.32,-213.96 500.54,-218.97 505,-232 517.21,-267.66 524.8,-279.41 557,-299 591.56,-320.02 697.91,-335.13 767.5,-343.08"/>
<polygon fill="midnightblue" stroke="midnightblue" points="531.48,-168.66 536.33,-159.24 526.66,-163.58 531.48,-168.66"/>
</g>
<!-- Node7&#45;&gt;Node24 -->
<g id="edge35" class="edge">
<title>Node7&#45;&gt;Node24</title>
<path fill="none" stroke="midnightblue" d="M597.52,-137.8C657.94,-125.01 757.85,-103.86 813.46,-92.08"/>
<polygon fill="midnightblue" stroke="midnightblue" points="596.51,-134.44 587.45,-139.94 597.96,-141.29 596.51,-134.44"/>
</g>
<!-- Node11 -->
<g id="node11" class="node">
<title>Node11</title>
<g id="a_node11"><a xlink:href="_factory_8cpp.html" target="_top" xlink:title=" ">
<polygon fill="white" stroke="black" points="566,-268.5 566,-298.5 676,-298.5 676,-268.5 566,-268.5"/>
<text text-anchor="start" x="574" y="-286.5" font-family="Helvetica,sans-Serif" font-size="10.00">src/GameLogic/Units</text>
<text text-anchor="middle" x="621" y="-275.5" font-family="Helvetica,sans-Serif" font-size="10.00">/Factory.cpp</text>
</a>
</g>
</g>
<!-- Node10&#45;&gt;Node11 -->
<g id="edge13" class="edge">
<title>Node10&#45;&gt;Node11</title>
<path fill="none" stroke="midnightblue" d="M775.9,-332.44C741.86,-321.91 698.7,-308.55 666.59,-298.61"/>
<polygon fill="midnightblue" stroke="midnightblue" points="775.1,-335.86 785.69,-335.48 777.17,-329.18 775.1,-335.86"/>
</g>
<!-- Node12 -->
<g id="node12" class="node">
<title>Node12</title>
<g id="a_node12"><a xlink:href="_squad_template_8h.html" target="_top" xlink:title=" ">
<polygon fill="white" stroke="black" points="839.5,-268.5 839.5,-298.5 970.5,-298.5 970.5,-268.5 839.5,-268.5"/>
<text text-anchor="start" x="847.5" y="-286.5" font-family="Helvetica,sans-Serif" font-size="10.00">include/GameLogic/Squad</text>
<text text-anchor="middle" x="905" y="-275.5" font-family="Helvetica,sans-Serif" font-size="10.00">/SquadTemplate.h</text>
</a>
</g>
</g>
<!-- Node10&#45;&gt;Node12 -->
<g id="edge14" class="edge">
<title>Node10&#45;&gt;Node12</title>
<path fill="none" stroke="midnightblue" d="M854.8,-328.6C865.97,-318.78 878.99,-307.34 888.97,-298.58"/>
<polygon fill="midnightblue" stroke="midnightblue" points="852.26,-326.17 847.06,-335.4 856.88,-331.43 852.26,-326.17"/>
</g>
<!-- Node16 -->
<g id="node16" class="node">
<title>Node16</title>
<g id="a_node16"><a xlink:href="_all_units_8h.html" target="_top" xlink:title=" ">
<polygon fill="white" stroke="black" points="694.5,-268.5 694.5,-298.5 821.5,-298.5 821.5,-268.5 694.5,-268.5"/>
<text text-anchor="start" x="702.5" y="-286.5" font-family="Helvetica,sans-Serif" font-size="10.00">include/GameLogic/Units</text>
<text text-anchor="middle" x="758" y="-275.5" font-family="Helvetica,sans-Serif" font-size="10.00">/AllUnits.h</text>
</a>
</g>
</g>
<!-- Node10&#45;&gt;Node16 -->
<g id="edge19" class="edge">
<title>Node10&#45;&gt;Node16</title>
<path fill="none" stroke="midnightblue" d="M807.53,-328.6C796.5,-318.78 783.66,-307.34 773.81,-298.58"/>
<polygon fill="midnightblue" stroke="midnightblue" points="805.36,-331.36 815.16,-335.4 810.02,-326.13 805.36,-331.36"/>
</g>
<!-- Node18 -->
<g id="node18" class="node">
<title>Node18</title>
<g id="a_node18"><a xlink:href="_armored_unit_factory_8h.html" target="_top" xlink:title=" ">
<polygon fill="white" stroke="black" points="1355.5,-201.5 1355.5,-231.5 1482.5,-231.5 1482.5,-201.5 1355.5,-201.5"/>
<text text-anchor="start" x="1363.5" y="-219.5" font-family="Helvetica,sans-Serif" font-size="10.00">include/GameLogic/Units</text>
<text text-anchor="middle" x="1419" y="-208.5" font-family="Helvetica,sans-Serif" font-size="10.00">/ArmoredUnitFactory.h</text>
</a>
</g>
</g>
<!-- Node10&#45;&gt;Node18 -->
<g id="edge25" class="edge">
<title>Node10&#45;&gt;Node18</title>
<path fill="none" stroke="midnightblue" d="M905.14,-342.02C1025.68,-329.72 1252.45,-305.87 1269,-299 1289.45,-290.52 1289.12,-279.56 1308,-268 1331.65,-253.52 1360.17,-240.64 1382.37,-231.51"/>
<polygon fill="midnightblue" stroke="midnightblue" points="904.47,-338.57 894.88,-343.07 905.18,-345.54 904.47,-338.57"/>
</g>
<!-- Node20 -->
<g id="node20" class="node">
<title>Node20</title>
<g id="a_node20"><a xlink:href="_land_unit_factory_8h.html" target="_top" xlink:title=" ">
<polygon fill="white" stroke="black" points="988.5,-268.5 988.5,-298.5 1115.5,-298.5 1115.5,-268.5 988.5,-268.5"/>
<text text-anchor="start" x="996.5" y="-286.5" font-family="Helvetica,sans-Serif" font-size="10.00">include/GameLogic/Units</text>
<text text-anchor="middle" x="1052" y="-275.5" font-family="Helvetica,sans-Serif" font-size="10.00">/LandUnitFactory.h</text>
</a>
</g>
</g>
<!-- Node10&#45;&gt;Node20 -->
<g id="edge28" class="edge">
<title>Node10&#45;&gt;Node20</title>
<path fill="none" stroke="midnightblue" d="M888.53,-332.58C924.42,-322.02 970.09,-308.59 1004.02,-298.61"/>
<polygon fill="midnightblue" stroke="midnightblue" points="887.29,-329.3 878.68,-335.48 889.26,-336.01 887.29,-329.3"/>
</g>
<!-- Node22 -->
<g id="node22" class="node">
<title>Node22</title>
<g id="a_node22"><a xlink:href="_transport_unit_factory_8h.html" target="_top" xlink:title=" ">
<polygon fill="white" stroke="black" points="1133.5,-268.5 1133.5,-298.5 1260.5,-298.5 1260.5,-268.5 1133.5,-268.5"/>
<text text-anchor="start" x="1141.5" y="-286.5" font-family="Helvetica,sans-Serif" font-size="10.00">include/GameLogic/Units</text>
<text text-anchor="middle" x="1197" y="-275.5" font-family="Helvetica,sans-Serif" font-size="10.00">/TransportUnitFactory.h</text>
</a>
</g>
</g>
<!-- Node10&#45;&gt;Node22 -->
<g id="edge31" class="edge">
<title>Node10&#45;&gt;Node22</title>
<path fill="none" stroke="midnightblue" d="M904.55,-337.36C963.86,-327.43 1049.4,-312.84 1124,-299 1127.05,-298.43 1130.17,-297.85 1133.32,-297.25"/>
<polygon fill="midnightblue" stroke="midnightblue" points="903.81,-333.93 894.53,-339.03 904.97,-340.83 903.81,-333.93"/>
</g>
<!-- Node13 -->
<g id="node13" class="node">
<title>Node13</title>
<g id="a_node13"><a xlink:href="_squad_template_8cpp.html" target="_top" xlink:title=" ">
<polygon fill="white" stroke="black" points="872,-201.5 872,-231.5 986,-231.5 986,-201.5 872,-201.5"/>
<text text-anchor="start" x="880" y="-219.5" font-family="Helvetica,sans-Serif" font-size="10.00">src/GameLogic/Squad</text>
<text text-anchor="middle" x="929" y="-208.5" font-family="Helvetica,sans-Serif" font-size="10.00">/SquadTemplate.cpp</text>
</a>
</g>
</g>
<!-- Node12&#45;&gt;Node13 -->
<g id="edge15" class="edge">
<title>Node12&#45;&gt;Node13</title>
<path fill="none" stroke="midnightblue" d="M913.68,-258.99C917.07,-249.8 920.85,-239.58 923.8,-231.58"/>
<polygon fill="midnightblue" stroke="midnightblue" points="910.39,-257.8 910.21,-268.4 916.95,-260.23 910.39,-257.8"/>
</g>
<!-- Node14 -->
<g id="node14" class="node">
<title>Node14</title>
<g id="a_node14"><a xlink:href="_all_squad_templates_8h.html" target="_top" xlink:title=" ">
<polygon fill="white" stroke="black" points="684.5,-201.5 684.5,-231.5 815.5,-231.5 815.5,-201.5 684.5,-201.5"/>
<text text-anchor="start" x="692.5" y="-219.5" font-family="Helvetica,sans-Serif" font-size="10.00">include/GameLogic/Squad</text>
<text text-anchor="middle" x="750" y="-208.5" font-family="Helvetica,sans-Serif" font-size="10.00">/AllSquadTemplates.h</text>
</a>
</g>
</g>
<!-- Node12&#45;&gt;Node14 -->
<g id="edge16" class="edge">
<title>Node12&#45;&gt;Node14</title>
<path fill="none" stroke="midnightblue" d="M861.85,-264.41C837.11,-254.03 806.5,-241.2 783.57,-231.58"/>
<polygon fill="midnightblue" stroke="midnightblue" points="860.79,-267.76 871.37,-268.4 863.5,-261.3 860.79,-267.76"/>
</g>
<!-- Node14&#45;&gt;Node7 -->
<g id="edge18" class="edge">
<title>Node14&#45;&gt;Node7</title>
<path fill="none" stroke="midnightblue" d="M696.19,-198.27C656.63,-185.6 604.57,-168.93 573.57,-159.01"/>
<polygon fill="midnightblue" stroke="midnightblue" points="695.36,-201.68 705.95,-201.4 697.5,-195.01 695.36,-201.68"/>
</g>
<!-- Node15 -->
<g id="node15" class="node">
<title>Node15</title>
<g id="a_node15"><a xlink:href="_all_squad_templates_8cpp.html" target="_top" xlink:title=" ">
<polygon fill="white" stroke="black" points="689,-134.5 689,-164.5 811,-164.5 811,-134.5 689,-134.5"/>
<text text-anchor="start" x="697" y="-152.5" font-family="Helvetica,sans-Serif" font-size="10.00">src/GameLogic/Squad</text>
<text text-anchor="middle" x="750" y="-141.5" font-family="Helvetica,sans-Serif" font-size="10.00">/AllSquadTemplates.cpp</text>
</a>
</g>
</g>
<!-- Node14&#45;&gt;Node15 -->
<g id="edge17" class="edge">
<title>Node14&#45;&gt;Node15</title>
<path fill="none" stroke="midnightblue" d="M750,-191.11C750,-182.15 750,-172.32 750,-164.58"/>
<polygon fill="midnightblue" stroke="midnightblue" points="746.5,-191.4 750,-201.4 753.5,-191.4 746.5,-191.4"/>
</g>
<!-- Node16&#45;&gt;Node3 -->
<g id="edge20" class="edge">
<title>Node16&#45;&gt;Node3</title>
<path fill="none" stroke="midnightblue" d="M707.92,-265.09C677.73,-254.6 639.78,-241.41 611.5,-231.58"/>
<polygon fill="midnightblue" stroke="midnightblue" points="706.83,-268.42 717.42,-268.4 709.13,-261.81 706.83,-268.42"/>
</g>
<!-- Node16&#45;&gt;Node7 -->
<g id="edge23" class="edge">
<title>Node16&#45;&gt;Node7</title>
<path fill="none" stroke="midnightblue" d="M724.08,-263.3C708.78,-254.27 690.66,-243.07 675,-232 657.2,-219.42 655.02,-213.27 637,-201 612.86,-184.56 582.97,-168.58 564.45,-159.14"/>
<polygon fill="midnightblue" stroke="midnightblue" points="722.33,-266.33 732.73,-268.34 725.86,-260.28 722.33,-266.33"/>
</g>
<!-- Node16&#45;&gt;Node13 -->
<g id="edge21" class="edge">
<title>Node16&#45;&gt;Node13</title>
<path fill="none" stroke="midnightblue" d="M804.52,-264.82C832,-254.37 866.33,-241.32 891.97,-231.58"/>
<polygon fill="midnightblue" stroke="midnightblue" points="803.21,-261.57 795.1,-268.4 805.7,-268.11 803.21,-261.57"/>
</g>
<!-- Node16&#45;&gt;Node14 -->
<g id="edge24" class="edge">
<title>Node16&#45;&gt;Node14</title>
<path fill="none" stroke="midnightblue" d="M755.03,-258.4C753.92,-249.37 752.7,-239.41 751.73,-231.58"/>
<polygon fill="midnightblue" stroke="midnightblue" points="751.57,-258.9 756.26,-268.4 758.52,-258.04 751.57,-258.9"/>
</g>
<!-- Node17 -->
<g id="node17" class="node">
<title>Node17</title>
<g id="a_node17"><a xlink:href="_all_units_8cpp.html" target="_top" xlink:title=" ">
<polygon fill="white" stroke="black" points="1106,-134.5 1106,-164.5 1216,-164.5 1216,-134.5 1106,-134.5"/>
<text text-anchor="start" x="1114" y="-152.5" font-family="Helvetica,sans-Serif" font-size="10.00">src/GameLogic/Units</text>
<text text-anchor="middle" x="1161" y="-141.5" font-family="Helvetica,sans-Serif" font-size="10.00">/AllUnits.cpp</text>
</a>
</g>
</g>
<!-- Node16&#45;&gt;Node17 -->
<g id="edge22" class="edge">
<title>Node16&#45;&gt;Node17</title>
<path fill="none" stroke="midnightblue" d="M784.85,-262.13C796.87,-252.97 811.18,-242 824,-232 841.46,-218.38 842.78,-210.02 863,-201 942.55,-165.5 1044.23,-154.81 1105.9,-151.67"/>
<polygon fill="midnightblue" stroke="midnightblue" points="782.4,-259.6 776.56,-268.44 786.64,-265.17 782.4,-259.6"/>
</g>
<!-- Node18&#45;&gt;Node17 -->
<g id="edge26" class="edge">
<title>Node18&#45;&gt;Node17</title>
<path fill="none" stroke="midnightblue" d="M1353.38,-198.97C1310.93,-188.27 1256.31,-174.51 1216.12,-164.39"/>
<polygon fill="midnightblue" stroke="midnightblue" points="1352.78,-202.43 1363.34,-201.48 1354.49,-195.64 1352.78,-202.43"/>
</g>
<!-- Node19 -->
<g id="node19" class="node">
<title>Node19</title>
<g id="a_node19"><a xlink:href="_armored_unit_factory_8cpp.html" target="_top" xlink:title=" ">
<polygon fill="white" stroke="black" points="1356.5,-134.5 1356.5,-164.5 1481.5,-164.5 1481.5,-134.5 1356.5,-134.5"/>
<text text-anchor="start" x="1364.5" y="-152.5" font-family="Helvetica,sans-Serif" font-size="10.00">src/GameLogic/Units</text>
<text text-anchor="middle" x="1419" y="-141.5" font-family="Helvetica,sans-Serif" font-size="10.00">/ArmoredUnitFactory.cpp</text>
</a>
</g>
</g>
<!-- Node18&#45;&gt;Node19 -->
<g id="edge27" class="edge">
<title>Node18&#45;&gt;Node19</title>
<path fill="none" stroke="midnightblue" d="M1419,-191.11C1419,-182.15 1419,-172.32 1419,-164.58"/>
<polygon fill="midnightblue" stroke="midnightblue" points="1415.5,-191.4 1419,-201.4 1422.5,-191.4 1415.5,-191.4"/>
</g>
<!-- Node20&#45;&gt;Node17 -->
<g id="edge29" class="edge">
<title>Node20&#45;&gt;Node17</title>
<path fill="none" stroke="midnightblue" d="M1086.72,-263.02C1099.33,-254.69 1112.93,-244.09 1123,-232 1140.08,-211.49 1151.3,-182.01 1156.86,-164.7"/>
<polygon fill="midnightblue" stroke="midnightblue" points="1084.78,-260.1 1078.21,-268.41 1088.53,-266.01 1084.78,-260.1"/>
</g>
<!-- Node21 -->
<g id="node21" class="node">
<title>Node21</title>
<g id="a_node21"><a xlink:href="_land_unit_factory_8cpp.html" target="_top" xlink:title=" ">
<polygon fill="white" stroke="black" points="1004,-201.5 1004,-231.5 1114,-231.5 1114,-201.5 1004,-201.5"/>
<text text-anchor="start" x="1012" y="-219.5" font-family="Helvetica,sans-Serif" font-size="10.00">src/GameLogic/Units</text>
<text text-anchor="middle" x="1059" y="-208.5" font-family="Helvetica,sans-Serif" font-size="10.00">/LandUnitFactory.cpp</text>
</a>
</g>
</g>
<!-- Node20&#45;&gt;Node21 -->
<g id="edge30" class="edge">
<title>Node20&#45;&gt;Node21</title>
<path fill="none" stroke="midnightblue" d="M1054.6,-258.4C1055.57,-249.37 1056.64,-239.41 1057.48,-231.58"/>
<polygon fill="midnightblue" stroke="midnightblue" points="1051.11,-258.08 1053.52,-268.4 1058.07,-258.83 1051.11,-258.08"/>
</g>
<!-- Node22&#45;&gt;Node17 -->
<g id="edge32" class="edge">
<title>Node22&#45;&gt;Node17</title>
<path fill="none" stroke="midnightblue" d="M1190.42,-258.39C1182.93,-230.9 1170.92,-186.89 1164.82,-164.52"/>
<polygon fill="midnightblue" stroke="midnightblue" points="1187.14,-259.65 1193.15,-268.37 1193.89,-257.81 1187.14,-259.65"/>
</g>
<!-- Node22&#45;&gt;Node18 -->
<g id="edge34" class="edge">
<title>Node22&#45;&gt;Node18</title>
<path fill="none" stroke="midnightblue" d="M1254.79,-265.58C1290.85,-255.02 1336.72,-241.59 1370.81,-231.61"/>
<polygon fill="midnightblue" stroke="midnightblue" points="1253.51,-262.31 1244.9,-268.48 1255.48,-269.02 1253.51,-262.31"/>
</g>
<!-- Node23 -->
<g id="node23" class="node">
<title>Node23</title>
<g id="a_node23"><a xlink:href="_transport_unit_factory_8cpp.html" target="_top" xlink:title=" ">
<polygon fill="white" stroke="black" points="1208.5,-201.5 1208.5,-231.5 1337.5,-231.5 1337.5,-201.5 1208.5,-201.5"/>
<text text-anchor="start" x="1216.5" y="-219.5" font-family="Helvetica,sans-Serif" font-size="10.00">src/GameLogic/Units</text>
<text text-anchor="middle" x="1273" y="-208.5" font-family="Helvetica,sans-Serif" font-size="10.00">/TransportUnitFactory.cpp</text>
</a>
</g>
</g>
<!-- Node22&#45;&gt;Node23 -->
<g id="edge33" class="edge">
<title>Node22&#45;&gt;Node23</title>
<path fill="none" stroke="midnightblue" d="M1221.11,-261.88C1232.66,-252.01 1246.19,-240.43 1256.54,-231.58"/>
<polygon fill="midnightblue" stroke="midnightblue" points="1218.82,-259.24 1213.49,-268.4 1223.37,-264.56 1218.82,-259.24"/>
</g>
<!-- Node25 -->
<g id="node25" class="node">
<title>Node25</title>
<g id="a_node25"><a xlink:href="_game_logic_2_squad_2_action_8cpp.html" target="_top" xlink:title=" ">
<polygon fill="white" stroke="black" points="779,-0.5 779,-30.5 893,-30.5 893,-0.5 779,-0.5"/>
<text text-anchor="start" x="787" y="-18.5" font-family="Helvetica,sans-Serif" font-size="10.00">src/GameLogic/Squad</text>
<text text-anchor="middle" x="836" y="-7.5" font-family="Helvetica,sans-Serif" font-size="10.00">/Action.cpp</text>
</a>
</g>
</g>
<!-- Node24&#45;&gt;Node25 -->
<g id="edge36" class="edge">
<title>Node24&#45;&gt;Node25</title>
<path fill="none" stroke="midnightblue" d="M848.89,-63.06C846.04,-52.75 842.54,-40.1 839.9,-30.59"/>
<polygon fill="midnightblue" stroke="midnightblue" points="845.53,-64.03 851.57,-72.73 852.28,-62.16 845.53,-64.03"/>
</g>
<!-- Node26 -->
<g id="node26" class="node">
<title>Node26</title>
<g id="a_node26"><a xlink:href="pathfinding_8cpp.html" target="_top" xlink:title=" ">
<polygon fill="white" stroke="black" points="911.5,-6 911.5,-25 1024.5,-25 1024.5,-6 911.5,-6"/>
<text text-anchor="middle" x="968" y="-13" font-family="Helvetica,sans-Serif" font-size="10.00">src/util/pathfinding.cpp</text>
</a>
</g>
</g>
<!-- Node24&#45;&gt;Node26 -->
<g id="edge37" class="edge">
<title>Node24&#45;&gt;Node26</title>
<path fill="none" stroke="midnightblue" d="M878.35,-67.62C900.94,-54.74 933.84,-35.98 952.87,-25.13"/>
<polygon fill="midnightblue" stroke="midnightblue" points="876.33,-64.74 869.37,-72.73 879.8,-70.82 876.33,-64.74"/>
</g>
<!-- Node27&#45;&gt;Node2 -->
<g id="edge42" class="edge">
<title>Node27&#45;&gt;Node2</title>
<path fill="none" stroke="midnightblue" d="M376.5,-437.12C356.08,-447.39 329.85,-459.94 308.97,-469.4"/>
<polygon fill="midnightblue" stroke="midnightblue" points="378.11,-440.23 385.44,-432.58 374.94,-433.99 378.11,-440.23"/>
</g>
<!-- Node27&#45;&gt;Node10 -->
<g id="edge48" class="edge">
<title>Node27&#45;&gt;Node10</title>
<path fill="none" stroke="midnightblue" d="M482.7,-405.15C563.2,-392.75 690.83,-373.09 767.19,-361.33"/>
<polygon fill="midnightblue" stroke="midnightblue" points="481.99,-401.72 472.63,-406.7 483.05,-408.64 481.99,-401.72"/>
</g>
<!-- Node28 -->
<g id="node28" class="node">
<title>Node28</title>
<g id="a_node28"><a xlink:href="_unit_8cpp.html" target="_top" xlink:title=" ">
<polygon fill="white" stroke="black" points="400,-268.5 400,-298.5 510,-298.5 510,-268.5 400,-268.5"/>
<text text-anchor="start" x="408" y="-286.5" font-family="Helvetica,sans-Serif" font-size="10.00">src/GameLogic/Units</text>
<text text-anchor="middle" x="455" y="-275.5" font-family="Helvetica,sans-Serif" font-size="10.00">/Unit.cpp</text>
</a>
</g>
</g>
<!-- Node27&#45;&gt;Node28 -->
<g id="edge41" class="edge">
<title>Node27&#45;&gt;Node28</title>
<path fill="none" stroke="midnightblue" d="M422.31,-393.45C426.8,-385.01 431.53,-375.26 435,-366 443.58,-343.08 449.51,-315.14 452.58,-298.64"/>
<polygon fill="midnightblue" stroke="midnightblue" points="419.18,-391.88 417.44,-402.33 425.32,-395.25 419.18,-391.88"/>
</g>
<!-- Node29 -->
<g id="node29" class="node">
<title>Node29</title>
<g id="a_node29"><a xlink:href="_squad_order_8h.html" target="_top" xlink:title=" ">
<polygon fill="white" stroke="black" points="122.5,-268.5 122.5,-298.5 253.5,-298.5 253.5,-268.5 122.5,-268.5"/>
<text text-anchor="start" x="130.5" y="-286.5" font-family="Helvetica,sans-Serif" font-size="10.00">include/GameLogic/Squad</text>
<text text-anchor="middle" x="188" y="-275.5" font-family="Helvetica,sans-Serif" font-size="10.00">/SquadOrder.h</text>
</a>
</g>
</g>
<!-- Node27&#45;&gt;Node29 -->
<g id="edge43" class="edge">
<title>Node27&#45;&gt;Node29</title>
<path fill="none" stroke="midnightblue" d="M359.11,-398.85C337.23,-390.22 311.66,-378.92 290,-366 256.52,-346.03 221.98,-316.1 202.92,-298.62"/>
<polygon fill="midnightblue" stroke="midnightblue" points="357.97,-402.16 368.56,-402.49 360.49,-395.63 357.97,-402.16"/>
</g>
<!-- Node31 -->
<g id="node31" class="node">
<title>Node31</title>
<g id="a_node31"><a xlink:href="_armored_unit_8h.html" target="_top" xlink:title=" ">
<polygon fill="white" stroke="black" points="1573.5,-268.5 1573.5,-298.5 1700.5,-298.5 1700.5,-268.5 1573.5,-268.5"/>
<text text-anchor="start" x="1581.5" y="-286.5" font-family="Helvetica,sans-Serif" font-size="10.00">include/GameLogic/Units</text>
<text text-anchor="middle" x="1637" y="-275.5" font-family="Helvetica,sans-Serif" font-size="10.00">/ArmoredUnit.h</text>
</a>
</g>
</g>
<!-- Node27&#45;&gt;Node31 -->
<g id="edge45" class="edge">
<title>Node27&#45;&gt;Node31</title>
<path fill="none" stroke="midnightblue" d="M482.76,-415.78C684.4,-413.35 1241.67,-403.35 1421,-366 1490.84,-351.45 1567.99,-317.73 1608.51,-298.54"/>
<polygon fill="midnightblue" stroke="midnightblue" points="482.53,-412.29 472.57,-415.9 482.61,-419.28 482.53,-412.29"/>
</g>
<!-- Node33 -->
<g id="node33" class="node">
<title>Node33</title>
<g id="a_node33"><a xlink:href="_land_unit_8h.html" target="_top" xlink:title=" ">
<polygon fill="white" stroke="black" points="988.5,-335.5 988.5,-365.5 1115.5,-365.5 1115.5,-335.5 988.5,-335.5"/>
<text text-anchor="start" x="996.5" y="-353.5" font-family="Helvetica,sans-Serif" font-size="10.00">include/GameLogic/Units</text>
<text text-anchor="middle" x="1052" y="-342.5" font-family="Helvetica,sans-Serif" font-size="10.00">/LandUnit.h</text>
</a>
</g>
</g>
<!-- Node27&#45;&gt;Node33 -->
<g id="edge49" class="edge">
<title>Node27&#45;&gt;Node33</title>
<path fill="none" stroke="midnightblue" d="M482.74,-409.05C609.89,-396.19 868.25,-370.07 988.18,-357.95"/>
<polygon fill="midnightblue" stroke="midnightblue" points="482.31,-405.57 472.71,-410.06 483.01,-412.54 482.31,-405.57"/>
</g>
<!-- Node35 -->
<g id="node35" class="node">
<title>Node35</title>
<g id="a_node35"><a xlink:href="_transport_unit_8h.html" target="_top" xlink:title=" ">
<polygon fill="white" stroke="black" points="1285.5,-335.5 1285.5,-365.5 1412.5,-365.5 1412.5,-335.5 1285.5,-335.5"/>
<text text-anchor="start" x="1293.5" y="-353.5" font-family="Helvetica,sans-Serif" font-size="10.00">include/GameLogic/Units</text>
<text text-anchor="middle" x="1349" y="-342.5" font-family="Helvetica,sans-Serif" font-size="10.00">/TransportUnit.h</text>
</a>
</g>
</g>
<!-- Node27&#45;&gt;Node35 -->
<g id="edge52" class="edge">
<title>Node27&#45;&gt;Node35</title>
<path fill="none" stroke="midnightblue" d="M482.61,-411.41C661.56,-399.04 1117.03,-367.54 1285.28,-355.91"/>
<polygon fill="midnightblue" stroke="midnightblue" points="482.24,-407.93 472.5,-412.11 482.72,-414.91 482.24,-407.93"/>
</g>
<!-- Node37 -->
<g id="node37" class="node">
<title>Node37</title>
<g id="a_node37"><a xlink:href="_unit_order_8h.html" target="_top" xlink:title=" ">
<polygon fill="white" stroke="black" points="299.5,-335.5 299.5,-365.5 426.5,-365.5 426.5,-335.5 299.5,-335.5"/>
<text text-anchor="start" x="307.5" y="-353.5" font-family="Helvetica,sans-Serif" font-size="10.00">include/GameLogic/Units</text>
<text text-anchor="middle" x="363" y="-342.5" font-family="Helvetica,sans-Serif" font-size="10.00">/UnitOrder.h</text>
</a>
</g>
</g>
<!-- Node27&#45;&gt;Node37 -->
<g id="edge56" class="edge">
<title>Node27&#45;&gt;Node37</title>
<path fill="none" stroke="midnightblue" d="M386.96,-394.45C379.6,-384.9 372.14,-374 367.29,-365.58"/>
<polygon fill="midnightblue" stroke="midnightblue" points="384.35,-396.79 393.34,-402.4 389.81,-392.41 384.35,-396.79"/>
</g>
<!-- Node30 -->
<g id="node30" class="node">
<title>Node30</title>
<g id="a_node30"><a xlink:href="_squad_order_8cpp.html" target="_top" xlink:title=" ">
<polygon fill="white" stroke="black" points="131,-201.5 131,-231.5 245,-231.5 245,-201.5 131,-201.5"/>
<text text-anchor="start" x="139" y="-219.5" font-family="Helvetica,sans-Serif" font-size="10.00">src/GameLogic/Squad</text>
<text text-anchor="middle" x="188" y="-208.5" font-family="Helvetica,sans-Serif" font-size="10.00">/SquadOrder.cpp</text>
</a>
</g>
</g>
<!-- Node29&#45;&gt;Node30 -->
<g id="edge44" class="edge">
<title>Node29&#45;&gt;Node30</title>
<path fill="none" stroke="midnightblue" d="M188,-258.11C188,-249.15 188,-239.32 188,-231.58"/>
<polygon fill="midnightblue" stroke="midnightblue" points="184.5,-258.4 188,-268.4 191.5,-258.4 184.5,-258.4"/>
</g>
<!-- Node31&#45;&gt;Node18 -->
<g id="edge47" class="edge">
<title>Node31&#45;&gt;Node18</title>
<path fill="none" stroke="midnightblue" d="M1580.25,-265.58C1544.84,-255.02 1499.8,-241.59 1466.33,-231.61"/>
<polygon fill="midnightblue" stroke="midnightblue" points="1579.38,-268.97 1589.97,-268.48 1581.38,-262.26 1579.38,-268.97"/>
</g>
<!-- Node32 -->
<g id="node32" class="node">
<title>Node32</title>
<g id="a_node32"><a xlink:href="_armored_unit_8cpp.html" target="_top" xlink:title=" ">
<polygon fill="white" stroke="black" points="1582,-201.5 1582,-231.5 1692,-231.5 1692,-201.5 1582,-201.5"/>
<text text-anchor="start" x="1590" y="-219.5" font-family="Helvetica,sans-Serif" font-size="10.00">src/GameLogic/Units</text>
<text text-anchor="middle" x="1637" y="-208.5" font-family="Helvetica,sans-Serif" font-size="10.00">/ArmoredUnit.cpp</text>
</a>
</g>
</g>
<!-- Node31&#45;&gt;Node32 -->
<g id="edge46" class="edge">
<title>Node31&#45;&gt;Node32</title>
<path fill="none" stroke="midnightblue" d="M1637,-258.11C1637,-249.15 1637,-239.32 1637,-231.58"/>
<polygon fill="midnightblue" stroke="midnightblue" points="1633.5,-258.4 1637,-268.4 1640.5,-258.4 1633.5,-258.4"/>
</g>
<!-- Node33&#45;&gt;Node20 -->
<g id="edge51" class="edge">
<title>Node33&#45;&gt;Node20</title>
<path fill="none" stroke="midnightblue" d="M1052,-325.11C1052,-316.15 1052,-306.32 1052,-298.58"/>
<polygon fill="midnightblue" stroke="midnightblue" points="1048.5,-325.4 1052,-335.4 1055.5,-325.4 1048.5,-325.4"/>
</g>
<!-- Node34 -->
<g id="node34" class="node">
<title>Node34</title>
<g id="a_node34"><a xlink:href="_land_unit_8cpp.html" target="_top" xlink:title=" ">
<polygon fill="white" stroke="black" points="1317,-268.5 1317,-298.5 1427,-298.5 1427,-268.5 1317,-268.5"/>
<text text-anchor="start" x="1325" y="-286.5" font-family="Helvetica,sans-Serif" font-size="10.00">src/GameLogic/Units</text>
<text text-anchor="middle" x="1372" y="-275.5" font-family="Helvetica,sans-Serif" font-size="10.00">/LandUnit.cpp</text>
</a>
</g>
</g>
<!-- Node33&#45;&gt;Node34 -->
<g id="edge50" class="edge">
<title>Node33&#45;&gt;Node34</title>
<path fill="none" stroke="midnightblue" d="M1125.81,-334.82C1175.84,-324.83 1243.43,-311.25 1303,-299 1307.44,-298.09 1312.03,-297.14 1316.65,-296.18"/>
<polygon fill="midnightblue" stroke="midnightblue" points="1124.85,-331.44 1115.73,-336.83 1126.22,-338.31 1124.85,-331.44"/>
</g>
<!-- Node35&#45;&gt;Node22 -->
<g id="edge55" class="edge">
<title>Node35&#45;&gt;Node22</title>
<path fill="none" stroke="midnightblue" d="M1306.69,-331.41C1282.42,-321.03 1252.41,-308.2 1229.92,-298.58"/>
<polygon fill="midnightblue" stroke="midnightblue" points="1305.45,-334.68 1316.02,-335.4 1308.2,-328.25 1305.45,-334.68"/>
</g>
<!-- Node35&#45;&gt;Node31 -->
<g id="edge54" class="edge">
<title>Node35&#45;&gt;Node31</title>
<path fill="none" stroke="midnightblue" d="M1420.99,-333.25C1468.2,-322.6 1529.31,-308.81 1574.48,-298.61"/>
<polygon fill="midnightblue" stroke="midnightblue" points="1420.12,-329.86 1411.14,-335.48 1421.66,-336.69 1420.12,-329.86"/>
</g>
<!-- Node36 -->
<g id="node36" class="node">
<title>Node36</title>
<g id="a_node36"><a xlink:href="_transport_unit_8cpp.html" target="_top" xlink:title=" ">
<polygon fill="white" stroke="black" points="1445,-268.5 1445,-298.5 1555,-298.5 1555,-268.5 1445,-268.5"/>
<text text-anchor="start" x="1453" y="-286.5" font-family="Helvetica,sans-Serif" font-size="10.00">src/GameLogic/Units</text>
<text text-anchor="middle" x="1500" y="-275.5" font-family="Helvetica,sans-Serif" font-size="10.00">/TransportUnit.cpp</text>
</a>
</g>
</g>
<!-- Node35&#45;&gt;Node36 -->
<g id="edge53" class="edge">
<title>Node35&#45;&gt;Node36</title>
<path fill="none" stroke="midnightblue" d="M1391.03,-331.41C1415.14,-321.03 1444.95,-308.2 1467.3,-298.58"/>
<polygon fill="midnightblue" stroke="midnightblue" points="1389.57,-328.23 1381.76,-335.4 1392.33,-334.66 1389.57,-328.23"/>
</g>
<!-- Node37&#45;&gt;Node27 -->
<g id="edge60" class="edge">
<title>Node37&#45;&gt;Node27</title>
<path fill="none" stroke="midnightblue" d="M385.01,-373.52C392.37,-383.07 399.84,-393.96 404.7,-402.4"/>
<polygon fill="midnightblue" stroke="midnightblue" points="387.63,-371.19 378.64,-365.58 382.17,-375.57 387.63,-371.19"/>
</g>
<!-- Node37&#45;&gt;Node28 -->
<g id="edge57" class="edge">
<title>Node37&#45;&gt;Node28</title>
<path fill="none" stroke="midnightblue" d="M391.38,-329.45C405.53,-319.45 422.31,-307.6 435.08,-298.58"/>
<polygon fill="midnightblue" stroke="midnightblue" points="389.11,-326.77 382.96,-335.4 393.15,-332.48 389.11,-326.77"/>
</g>
<!-- Node37&#45;&gt;Node29 -->
<g id="edge59" class="edge">
<title>Node37&#45;&gt;Node29</title>
<path fill="none" stroke="midnightblue" d="M315.4,-331.82C287.27,-321.37 252.14,-308.32 225.9,-298.58"/>
<polygon fill="midnightblue" stroke="midnightblue" points="314.43,-335.2 325.03,-335.4 316.87,-328.63 314.43,-335.2"/>
</g>
<!-- Node38 -->
<g id="node38" class="node">
<title>Node38</title>
<g id="a_node38"><a xlink:href="_unit_order_8cpp.html" target="_top" xlink:title=" ">
<polygon fill="white" stroke="black" points="272,-268.5 272,-298.5 382,-298.5 382,-268.5 272,-268.5"/>
<text text-anchor="start" x="280" y="-286.5" font-family="Helvetica,sans-Serif" font-size="10.00">src/GameLogic/Units</text>
<text text-anchor="middle" x="327" y="-275.5" font-family="Helvetica,sans-Serif" font-size="10.00">/UnitOrder.cpp</text>
</a>
</g>
</g>
<!-- Node37&#45;&gt;Node38 -->
<g id="edge58" class="edge">
<title>Node37&#45;&gt;Node38</title>
<path fill="none" stroke="midnightblue" d="M350.3,-326.58C345.13,-317.24 339.32,-306.75 334.8,-298.58"/>
<polygon fill="midnightblue" stroke="midnightblue" points="347.28,-328.34 355.19,-335.4 353.41,-324.95 347.28,-328.34"/>
</g>
</g>
</svg>
