<?xml version="1.0" encoding="UTF-8" standalone="no"?>
<!DOCTYPE svg PUBLIC "-//W3C//DTD SVG 1.1//EN"
 "http://www.w3.org/Graphics/SVG/1.1/DTD/svg11.dtd">
<!-- Generated by graphviz version 2.47.1 (20210421.1823)
 -->
<!-- Title: include/GameLogic/Squad/Action.h Pages: 1 -->
<svg width="2083pt" height="575pt"
 viewBox="0.00 0.00 2082.50 575.00" xmlns="http://www.w3.org/2000/svg" xmlns:xlink="http://www.w3.org/1999/xlink">
<g id="graph0" class="graph" transform="scale(1 1) rotate(0) translate(4 571)">
<title>include/GameLogic/Squad/Action.h</title>
<polygon fill="white" stroke="transparent" points="-4,4 -4,-571 2078.5,-571 2078.5,4 -4,4"/>
<!-- Node1 -->
<g id="node1" class="node">
<title>Node1</title>
<g id="a_node1"><a xlink:title=" ">
<polygon fill="#bfbfbf" stroke="black" points="1731.5,-536.5 1731.5,-566.5 1862.5,-566.5 1862.5,-536.5 1731.5,-536.5"/>
<text text-anchor="start" x="1739.5" y="-554.5" font-family="Helvetica,sans-Serif" font-size="10.00">include/GameLogic/Squad</text>
<text text-anchor="middle" x="1797" y="-543.5" font-family="Helvetica,sans-Serif" font-size="10.00">/Action.h</text>
</a>
</g>
</g>
<!-- Node2 -->
<g id="node2" class="node">
<title>Node2</title>
<g id="a_node2"><a xlink:href="_game_logic_2_squad_2_action_8cpp.html" target="_top" xlink:title=" ">
<polygon fill="white" stroke="black" points="753,-0.5 753,-30.5 867,-30.5 867,-0.5 753,-0.5"/>
<text text-anchor="start" x="761" y="-18.5" font-family="Helvetica,sans-Serif" font-size="10.00">src/GameLogic/Squad</text>
<text text-anchor="middle" x="810" y="-7.5" font-family="Helvetica,sans-Serif" font-size="10.00">/Action.cpp</text>
</a>
</g>
</g>
<!-- Node1&#45;&gt;Node2 -->
<g id="edge1" class="edge">
<title>Node1&#45;&gt;Node2</title>
<path fill="none" stroke="midnightblue" d="M1721.42,-548.97C1380.21,-541.57 0,-506.23 0,-418.5 0,-418.5 0,-418.5 0,-148.5 0,-72.14 568.01,-31.1 752.72,-19.78"/>
<polygon fill="midnightblue" stroke="midnightblue" points="1721.38,-552.47 1731.45,-549.19 1721.53,-545.47 1721.38,-552.47"/>
</g>
<!-- Node3 -->
<g id="node3" class="node">
<title>Node3</title>
<g id="a_node3"><a xlink:href="_squad_8h.html" target="_top" xlink:title=" ">
<polygon fill="white" stroke="black" points="1731.5,-469.5 1731.5,-499.5 1862.5,-499.5 1862.5,-469.5 1731.5,-469.5"/>
<text text-anchor="start" x="1739.5" y="-487.5" font-family="Helvetica,sans-Serif" font-size="10.00">include/GameLogic/Squad</text>
<text text-anchor="middle" x="1797" y="-476.5" font-family="Helvetica,sans-Serif" font-size="10.00">/Squad.h</text>
</a>
</g>
</g>
<!-- Node1&#45;&gt;Node3 -->
<g id="edge2" class="edge">
<title>Node1&#45;&gt;Node3</title>
<path fill="none" stroke="midnightblue" d="M1790.45,-526.4C1790.01,-517.37 1790.3,-507.41 1791.33,-499.58"/>
<polygon fill="midnightblue" stroke="midnightblue" points="1786.97,-526.74 1791.32,-536.4 1793.94,-526.13 1786.97,-526.74"/>
</g>
<!-- Node3&#45;&gt;Node1 -->
<g id="edge41" class="edge">
<title>Node3&#45;&gt;Node1</title>
<path fill="none" stroke="midnightblue" d="M1803.54,-509.57C1803.99,-518.6 1803.71,-528.56 1802.68,-536.4"/>
<polygon fill="midnightblue" stroke="midnightblue" points="1807.03,-509.24 1802.67,-499.58 1800.05,-509.84 1807.03,-509.24"/>
</g>
<!-- Node4 -->
<g id="node4" class="node">
<title>Node4</title>
<g id="a_node4"><a xlink:href="_squad_8cpp.html" target="_top" xlink:title=" ">
<polygon fill="white" stroke="black" points="1608,-201.5 1608,-231.5 1722,-231.5 1722,-201.5 1608,-201.5"/>
<text text-anchor="start" x="1616" y="-219.5" font-family="Helvetica,sans-Serif" font-size="10.00">src/GameLogic/Squad</text>
<text text-anchor="middle" x="1665" y="-208.5" font-family="Helvetica,sans-Serif" font-size="10.00">/Squad.cpp</text>
</a>
</g>
</g>
<!-- Node3&#45;&gt;Node4 -->
<g id="edge3" class="edge">
<title>Node3&#45;&gt;Node4</title>
<path fill="none" stroke="midnightblue" d="M1785.28,-460C1781.37,-451.61 1777.2,-442 1774,-433 1748.64,-361.58 1772.93,-331.13 1731,-268 1720.94,-252.86 1704.8,-240.39 1690.99,-231.63"/>
<polygon fill="midnightblue" stroke="midnightblue" points="1782.2,-461.68 1789.68,-469.19 1788.52,-458.66 1782.2,-461.68"/>
</g>
<!-- Node5 -->
<g id="node5" class="node">
<title>Node5</title>
<g id="a_node5"><a xlink:href="_set_squad_path_8h.html" target="_top" xlink:title=" ">
<polygon fill="white" stroke="black" points="1846.5,-67.5 1846.5,-97.5 1959.5,-97.5 1959.5,-67.5 1846.5,-67.5"/>
<text text-anchor="start" x="1854.5" y="-85.5" font-family="Helvetica,sans-Serif" font-size="10.00">include/engine/actions</text>
<text text-anchor="middle" x="1903" y="-74.5" font-family="Helvetica,sans-Serif" font-size="10.00">/SetSquadPath.h</text>
</a>
</g>
</g>
<!-- Node3&#45;&gt;Node5 -->
<g id="edge4" class="edge">
<title>Node3&#45;&gt;Node5</title>
<path fill="none" stroke="midnightblue" d="M1821.16,-462.13C1829.23,-453.79 1837.55,-443.67 1843,-433 1903.51,-314.58 1904.62,-147.18 1903.5,-97.76"/>
<polygon fill="midnightblue" stroke="midnightblue" points="1818.59,-459.74 1813.91,-469.24 1823.5,-464.74 1818.59,-459.74"/>
</g>
<!-- Node8 -->
<g id="node8" class="node">
<title>Node8</title>
<g id="a_node8"><a xlink:href="_cell_8h.html" target="_top" xlink:title=" ">
<polygon fill="white" stroke="black" points="1688,-140 1688,-159 1816,-159 1816,-140 1688,-140"/>
<text text-anchor="middle" x="1752" y="-147" font-family="Helvetica,sans-Serif" font-size="10.00">include/GameLogic/Cell.h</text>
</a>
</g>
</g>
<!-- Node3&#45;&gt;Node8 -->
<g id="edge40" class="edge">
<title>Node3&#45;&gt;Node8</title>
<path fill="none" stroke="midnightblue" d="M1790.35,-458.99C1788,-432.49 1788,-389 1788,-351.5 1788,-351.5 1788,-351.5 1788,-282.5 1788,-233.59 1759.98,-179.68 1752.58,-159.11"/>
<polygon fill="midnightblue" stroke="midnightblue" points="1786.91,-459.7 1791.51,-469.24 1793.86,-458.91 1786.91,-459.7"/>
</g>
<!-- Node26 -->
<g id="node26" class="node">
<title>Node26</title>
<g id="a_node26"><a xlink:href="pathfinding_8h.html" target="_top" xlink:title=" ">
<polygon fill="white" stroke="black" points="1708,-73 1708,-92 1828,-92 1828,-73 1708,-73"/>
<text text-anchor="middle" x="1768" y="-80" font-family="Helvetica,sans-Serif" font-size="10.00">include/util/pathfinding.h</text>
</a>
</g>
</g>
<!-- Node3&#45;&gt;Node26 -->
<g id="edge63" class="edge">
<title>Node3&#45;&gt;Node26</title>
<path fill="none" stroke="midnightblue" d="M1810.61,-460.5C1824.49,-434.83 1844,-391.62 1844,-351.5 1844,-351.5 1844,-351.5 1844,-215.5 1844,-178.31 1844.04,-165.95 1825,-134 1814.31,-116.06 1795.1,-101.02 1781.96,-92.15"/>
<polygon fill="midnightblue" stroke="midnightblue" points="1807.44,-459 1805.62,-469.44 1813.55,-462.41 1807.44,-459"/>
</g>
<!-- Node28 -->
<g id="node28" class="node">
<title>Node28</title>
<g id="a_node28"><a xlink:href="_unit_8h.html" target="_top" xlink:title=" ">
<polygon fill="white" stroke="black" points="639.5,-402.5 639.5,-432.5 766.5,-432.5 766.5,-402.5 639.5,-402.5"/>
<text text-anchor="start" x="647.5" y="-420.5" font-family="Helvetica,sans-Serif" font-size="10.00">include/GameLogic/Units</text>
<text text-anchor="middle" x="703" y="-409.5" font-family="Helvetica,sans-Serif" font-size="10.00">/Unit.h</text>
</a>
</g>
</g>
<!-- Node3&#45;&gt;Node28 -->
<g id="edge42" class="edge">
<title>Node3&#45;&gt;Node28</title>
<path fill="none" stroke="midnightblue" d="M1721.25,-479.21C1516.71,-467.31 956.2,-434.01 766.6,-422.48"/>
<polygon fill="midnightblue" stroke="midnightblue" points="1721.12,-482.71 1731.3,-479.8 1721.52,-475.72 1721.12,-482.71"/>
</g>
<!-- Node6 -->
<g id="node6" class="node">
<title>Node6</title>
<g id="a_node6"><a xlink:href="engine_2_action_8cpp.html" target="_top" xlink:title=" ">
<polygon fill="white" stroke="black" points="1845,-6 1845,-25 1955,-25 1955,-6 1845,-6"/>
<text text-anchor="middle" x="1900" y="-13" font-family="Helvetica,sans-Serif" font-size="10.00">src/engine/Action.cpp</text>
</a>
</g>
</g>
<!-- Node5&#45;&gt;Node6 -->
<g id="edge5" class="edge">
<title>Node5&#45;&gt;Node6</title>
<path fill="none" stroke="midnightblue" d="M1901.88,-57.25C1901.36,-46.02 1900.78,-33.38 1900.4,-25.19"/>
<polygon fill="midnightblue" stroke="midnightblue" points="1898.39,-57.57 1902.35,-67.4 1905.38,-57.25 1898.39,-57.57"/>
</g>
<!-- Node7 -->
<g id="node7" class="node">
<title>Node7</title>
<g id="a_node7"><a xlink:href="_set_squad_path_8cpp.html" target="_top" xlink:title=" ">
<polygon fill="white" stroke="black" points="1973.5,-0.5 1973.5,-30.5 2074.5,-30.5 2074.5,-0.5 1973.5,-0.5"/>
<text text-anchor="start" x="1981.5" y="-18.5" font-family="Helvetica,sans-Serif" font-size="10.00">src/engine/actions</text>
<text text-anchor="middle" x="2024" y="-7.5" font-family="Helvetica,sans-Serif" font-size="10.00">/SetSquadPath.cpp</text>
</a>
</g>
</g>
<!-- Node5&#45;&gt;Node7 -->
<g id="edge6" class="edge">
<title>Node5&#45;&gt;Node7</title>
<path fill="none" stroke="midnightblue" d="M1938.23,-62.57C1957.26,-52.35 1980.37,-39.94 1997.8,-30.58"/>
<polygon fill="midnightblue" stroke="midnightblue" points="1936.41,-59.58 1929.26,-67.4 1939.72,-65.75 1936.41,-59.58"/>
</g>
<!-- Node5&#45;&gt;Node8 -->
<g id="edge7" class="edge">
<title>Node5&#45;&gt;Node8</title>
<path fill="none" stroke="midnightblue" d="M1866.68,-101.78C1838.85,-114.25 1801.34,-130.2 1776.81,-139.87"/>
<polygon fill="midnightblue" stroke="midnightblue" points="1868.41,-104.84 1876.08,-97.53 1865.53,-98.46 1868.41,-104.84"/>
</g>
<!-- Node8&#45;&gt;Node1 -->
<g id="edge11" class="edge">
<title>Node8&#45;&gt;Node1</title>
<path fill="none" stroke="midnightblue" d="M1776.7,-164.37C1823.4,-192.64 1920,-261.73 1920,-349.5 1920,-418.5 1920,-418.5 1920,-418.5 1920,-473.94 1861.2,-515.82 1824.91,-536.39"/>
<polygon fill="midnightblue" stroke="midnightblue" points="1778.2,-161.19 1767.81,-159.12 1774.63,-167.22 1778.2,-161.19"/>
</g>
<!-- Node8&#45;&gt;Node3 -->
<g id="edge12" class="edge">
<title>Node8&#45;&gt;Node3</title>
<path fill="none" stroke="midnightblue" d="M1767.66,-167.33C1783.97,-191.83 1806,-239.13 1806,-282.5 1806,-351.5 1806,-351.5 1806,-351.5 1806,-394.35 1806,-445.03 1802.49,-469.24"/>
<polygon fill="midnightblue" stroke="midnightblue" points="1770.42,-165.19 1761.74,-159.11 1764.74,-169.27 1770.42,-165.19"/>
</g>
<!-- Node8&#45;&gt;Node5 -->
<g id="edge10" class="edge">
<title>Node8&#45;&gt;Node5</title>
<path fill="none" stroke="midnightblue" d="M1776.41,-135.62C1800.35,-124.63 1836.97,-108.84 1864.74,-97.53"/>
<polygon fill="midnightblue" stroke="midnightblue" points="1774.88,-132.47 1767.29,-139.87 1777.83,-138.82 1774.88,-132.47"/>
</g>
<!-- Node9 -->
<g id="node9" class="node">
<title>Node9</title>
<g id="a_node9"><a xlink:href="_cell_8cpp.html" target="_top" xlink:title=" ">
<polygon fill="white" stroke="black" points="1478.5,-73 1478.5,-92 1599.5,-92 1599.5,-73 1478.5,-73"/>
<text text-anchor="middle" x="1539" y="-80" font-family="Helvetica,sans-Serif" font-size="10.00">src/GameLogic/Cell.cpp</text>
</a>
</g>
</g>
<!-- Node8&#45;&gt;Node9 -->
<g id="edge8" class="edge">
<title>Node8&#45;&gt;Node9</title>
<path fill="none" stroke="midnightblue" d="M1714.08,-136.93C1671.91,-124.06 1604.77,-103.57 1567.06,-92.06"/>
<polygon fill="midnightblue" stroke="midnightblue" points="1713.13,-140.3 1723.72,-139.87 1715.17,-133.6 1713.13,-140.3"/>
</g>
<!-- Node10 -->
<g id="node10" class="node">
<title>Node10</title>
<g id="a_node10"><a xlink:href="main_8cpp.html" target="_top" xlink:title=" ">
<polygon fill="white" stroke="black" points="1618,-73 1618,-92 1690,-92 1690,-73 1618,-73"/>
<text text-anchor="middle" x="1654" y="-80" font-family="Helvetica,sans-Serif" font-size="10.00">src/main.cpp</text>
</a>
</g>
</g>
<!-- Node8&#45;&gt;Node10 -->
<g id="edge9" class="edge">
<title>Node8&#45;&gt;Node10</title>
<path fill="none" stroke="midnightblue" d="M1730.28,-134.09C1710.89,-121.24 1683.14,-102.83 1667.01,-92.13"/>
<polygon fill="midnightblue" stroke="midnightblue" points="1728.52,-137.12 1738.78,-139.73 1732.38,-131.29 1728.52,-137.12"/>
</g>
<!-- Node11 -->
<g id="node11" class="node">
<title>Node11</title>
<g id="a_node11"><a xlink:href="_factory_8h.html" target="_top" xlink:title=" ">
<polygon fill="white" stroke="black" points="1167.5,-335.5 1167.5,-365.5 1294.5,-365.5 1294.5,-335.5 1167.5,-335.5"/>
<text text-anchor="start" x="1175.5" y="-353.5" font-family="Helvetica,sans-Serif" font-size="10.00">include/GameLogic/Units</text>
<text text-anchor="middle" x="1231" y="-342.5" font-family="Helvetica,sans-Serif" font-size="10.00">/Factory.h</text>
</a>
</g>
</g>
<!-- Node8&#45;&gt;Node11 -->
<g id="edge13" class="edge">
<title>Node8&#45;&gt;Node11</title>
<path fill="none" stroke="midnightblue" d="M1709.23,-161.77C1677.99,-170.68 1634.97,-184.37 1599,-201 1547.04,-225.02 1535.73,-234.94 1489,-268 1471.21,-280.59 1470.58,-289.42 1451,-299 1401.54,-323.19 1340.11,-336.04 1294.74,-342.71"/>
<polygon fill="midnightblue" stroke="midnightblue" points="1710.26,-165.12 1718.94,-159.05 1708.36,-158.38 1710.26,-165.12"/>
</g>
<!-- Node8&#45;&gt;Node26 -->
<g id="edge37" class="edge">
<title>Node8&#45;&gt;Node26</title>
<path fill="none" stroke="midnightblue" d="M1756.57,-129.91C1759.63,-117.49 1763.52,-101.72 1765.88,-92.13"/>
<polygon fill="midnightblue" stroke="midnightblue" points="1753.15,-129.19 1754.16,-139.73 1759.95,-130.86 1753.15,-129.19"/>
</g>
<!-- Node12 -->
<g id="node12" class="node">
<title>Node12</title>
<g id="a_node12"><a xlink:href="_spawn_action_8cpp.html" target="_top" xlink:title=" ">
<polygon fill="white" stroke="black" points="1498,-268.5 1498,-298.5 1594,-298.5 1594,-268.5 1498,-268.5"/>
<text text-anchor="start" x="1506" y="-286.5" font-family="Helvetica,sans-Serif" font-size="10.00">src/engine/actions</text>
<text text-anchor="middle" x="1546" y="-275.5" font-family="Helvetica,sans-Serif" font-size="10.00">/SpawnAction.cpp</text>
</a>
</g>
</g>
<!-- Node11&#45;&gt;Node12 -->
<g id="edge14" class="edge">
<title>Node11&#45;&gt;Node12</title>
<path fill="none" stroke="midnightblue" d="M1304.41,-335.51C1354.98,-325.7 1423.67,-312.07 1484,-299 1488.54,-298.02 1493.26,-296.97 1497.97,-295.9"/>
<polygon fill="midnightblue" stroke="midnightblue" points="1303.7,-332.08 1294.54,-337.41 1305.03,-338.95 1303.7,-332.08"/>
</g>
<!-- Node13 -->
<g id="node13" class="node">
<title>Node13</title>
<g id="a_node13"><a xlink:href="_factory_8cpp.html" target="_top" xlink:title=" ">
<polygon fill="white" stroke="black" points="1612,-268.5 1612,-298.5 1722,-298.5 1722,-268.5 1612,-268.5"/>
<text text-anchor="start" x="1620" y="-286.5" font-family="Helvetica,sans-Serif" font-size="10.00">src/GameLogic/Units</text>
<text text-anchor="middle" x="1667" y="-275.5" font-family="Helvetica,sans-Serif" font-size="10.00">/Factory.cpp</text>
</a>
</g>
</g>
<!-- Node11&#45;&gt;Node13 -->
<g id="edge15" class="edge">
<title>Node11&#45;&gt;Node13</title>
<path fill="none" stroke="midnightblue" d="M1305.11,-341.38C1380.4,-332.68 1500.25,-317.58 1603,-299 1605.91,-298.47 1608.9,-297.9 1611.9,-297.31"/>
<polygon fill="midnightblue" stroke="midnightblue" points="1304.32,-337.95 1294.79,-342.57 1305.12,-344.91 1304.32,-337.95"/>
</g>
<!-- Node14 -->
<g id="node14" class="node">
<title>Node14</title>
<g id="a_node14"><a xlink:href="_squad_template_8h.html" target="_top" xlink:title=" ">
<polygon fill="white" stroke="black" points="1165.5,-268.5 1165.5,-298.5 1296.5,-298.5 1296.5,-268.5 1165.5,-268.5"/>
<text text-anchor="start" x="1173.5" y="-286.5" font-family="Helvetica,sans-Serif" font-size="10.00">include/GameLogic/Squad</text>
<text text-anchor="middle" x="1231" y="-275.5" font-family="Helvetica,sans-Serif" font-size="10.00">/SquadTemplate.h</text>
</a>
</g>
</g>
<!-- Node11&#45;&gt;Node14 -->
<g id="edge16" class="edge">
<title>Node11&#45;&gt;Node14</title>
<path fill="none" stroke="midnightblue" d="M1231,-325.11C1231,-316.15 1231,-306.32 1231,-298.58"/>
<polygon fill="midnightblue" stroke="midnightblue" points="1227.5,-325.4 1231,-335.4 1234.5,-325.4 1227.5,-325.4"/>
</g>
<!-- Node18 -->
<g id="node18" class="node">
<title>Node18</title>
<g id="a_node18"><a xlink:href="_all_units_8h.html" target="_top" xlink:title=" ">
<polygon fill="white" stroke="black" points="1314.5,-268.5 1314.5,-298.5 1441.5,-298.5 1441.5,-268.5 1314.5,-268.5"/>
<text text-anchor="start" x="1322.5" y="-286.5" font-family="Helvetica,sans-Serif" font-size="10.00">include/GameLogic/Units</text>
<text text-anchor="middle" x="1378" y="-275.5" font-family="Helvetica,sans-Serif" font-size="10.00">/AllUnits.h</text>
</a>
</g>
</g>
<!-- Node11&#45;&gt;Node18 -->
<g id="edge21" class="edge">
<title>Node11&#45;&gt;Node18</title>
<path fill="none" stroke="midnightblue" d="M1272.23,-331.27C1295.64,-320.92 1324.51,-308.15 1346.17,-298.58"/>
<polygon fill="midnightblue" stroke="midnightblue" points="1270.63,-328.15 1262.9,-335.4 1273.46,-334.55 1270.63,-328.15"/>
</g>
<!-- Node20 -->
<g id="node20" class="node">
<title>Node20</title>
<g id="a_node20"><a xlink:href="_armored_unit_factory_8h.html" target="_top" xlink:title=" ">
<polygon fill="white" stroke="black" points="1028.5,-201.5 1028.5,-231.5 1155.5,-231.5 1155.5,-201.5 1028.5,-201.5"/>
<text text-anchor="start" x="1036.5" y="-219.5" font-family="Helvetica,sans-Serif" font-size="10.00">include/GameLogic/Units</text>
<text text-anchor="middle" x="1092" y="-208.5" font-family="Helvetica,sans-Serif" font-size="10.00">/ArmoredUnitFactory.h</text>
</a>
</g>
</g>
<!-- Node11&#45;&gt;Node20 -->
<g id="edge27" class="edge">
<title>Node11&#45;&gt;Node20</title>
<path fill="none" stroke="midnightblue" d="M1197.34,-330.02C1183.79,-321.39 1168.45,-310.57 1156,-299 1133.47,-278.06 1112.48,-248.73 1101.03,-231.56"/>
<polygon fill="midnightblue" stroke="midnightblue" points="1195.6,-333.06 1205.94,-335.36 1199.29,-327.11 1195.6,-333.06"/>
</g>
<!-- Node22 -->
<g id="node22" class="node">
<title>Node22</title>
<g id="a_node22"><a xlink:href="_land_unit_factory_8h.html" target="_top" xlink:title=" ">
<polygon fill="white" stroke="black" points="562.5,-268.5 562.5,-298.5 689.5,-298.5 689.5,-268.5 562.5,-268.5"/>
<text text-anchor="start" x="570.5" y="-286.5" font-family="Helvetica,sans-Serif" font-size="10.00">include/GameLogic/Units</text>
<text text-anchor="middle" x="626" y="-275.5" font-family="Helvetica,sans-Serif" font-size="10.00">/LandUnitFactory.h</text>
</a>
</g>
</g>
<!-- Node11&#45;&gt;Node22 -->
<g id="edge30" class="edge">
<title>Node11&#45;&gt;Node22</title>
<path fill="none" stroke="midnightblue" d="M1157.3,-344.88C1054.35,-337.88 861.8,-322.83 699,-299 695.93,-298.55 692.8,-298.06 689.64,-297.53"/>
<polygon fill="midnightblue" stroke="midnightblue" points="1157.07,-348.37 1167.28,-345.55 1157.54,-341.39 1157.07,-348.37"/>
</g>
<!-- Node24 -->
<g id="node24" class="node">
<title>Node24</title>
<g id="a_node24"><a xlink:href="_transport_unit_factory_8h.html" target="_top" xlink:title=" ">
<polygon fill="white" stroke="black" points="981.5,-268.5 981.5,-298.5 1108.5,-298.5 1108.5,-268.5 981.5,-268.5"/>
<text text-anchor="start" x="989.5" y="-286.5" font-family="Helvetica,sans-Serif" font-size="10.00">include/GameLogic/Units</text>
<text text-anchor="middle" x="1045" y="-275.5" font-family="Helvetica,sans-Serif" font-size="10.00">/TransportUnitFactory.h</text>
</a>
</g>
</g>
<!-- Node11&#45;&gt;Node24 -->
<g id="edge33" class="edge">
<title>Node11&#45;&gt;Node24</title>
<path fill="none" stroke="midnightblue" d="M1181.19,-332.09C1151.16,-321.6 1113.41,-308.41 1085.28,-298.58"/>
<polygon fill="midnightblue" stroke="midnightblue" points="1180.05,-335.4 1190.64,-335.4 1182.36,-328.79 1180.05,-335.4"/>
</g>
<!-- Node15 -->
<g id="node15" class="node">
<title>Node15</title>
<g id="a_node15"><a xlink:href="_squad_template_8cpp.html" target="_top" xlink:title=" ">
<polygon fill="white" stroke="black" points="1174,-201.5 1174,-231.5 1288,-231.5 1288,-201.5 1174,-201.5"/>
<text text-anchor="start" x="1182" y="-219.5" font-family="Helvetica,sans-Serif" font-size="10.00">src/GameLogic/Squad</text>
<text text-anchor="middle" x="1231" y="-208.5" font-family="Helvetica,sans-Serif" font-size="10.00">/SquadTemplate.cpp</text>
</a>
</g>
</g>
<!-- Node14&#45;&gt;Node15 -->
<g id="edge17" class="edge">
<title>Node14&#45;&gt;Node15</title>
<path fill="none" stroke="midnightblue" d="M1231,-258.11C1231,-249.15 1231,-239.32 1231,-231.58"/>
<polygon fill="midnightblue" stroke="midnightblue" points="1227.5,-258.4 1231,-268.4 1234.5,-258.4 1227.5,-258.4"/>
</g>
<!-- Node16 -->
<g id="node16" class="node">
<title>Node16</title>
<g id="a_node16"><a xlink:href="_all_squad_templates_8h.html" target="_top" xlink:title=" ">
<polygon fill="white" stroke="black" points="1344.5,-201.5 1344.5,-231.5 1475.5,-231.5 1475.5,-201.5 1344.5,-201.5"/>
<text text-anchor="start" x="1352.5" y="-219.5" font-family="Helvetica,sans-Serif" font-size="10.00">include/GameLogic/Squad</text>
<text text-anchor="middle" x="1410" y="-208.5" font-family="Helvetica,sans-Serif" font-size="10.00">/AllSquadTemplates.h</text>
</a>
</g>
</g>
<!-- Node14&#45;&gt;Node16 -->
<g id="edge18" class="edge">
<title>Node14&#45;&gt;Node16</title>
<path fill="none" stroke="midnightblue" d="M1279.32,-264.96C1308.15,-254.48 1344.28,-241.37 1371.24,-231.58"/>
<polygon fill="midnightblue" stroke="midnightblue" points="1278.05,-261.69 1269.84,-268.4 1280.43,-268.27 1278.05,-261.69"/>
</g>
<!-- Node16&#45;&gt;Node8 -->
<g id="edge20" class="edge">
<title>Node16&#45;&gt;Node8</title>
<path fill="none" stroke="midnightblue" d="M1485.75,-201.1C1553.61,-188.21 1650.87,-169.72 1707.12,-159.03"/>
<polygon fill="midnightblue" stroke="midnightblue" points="1484.71,-197.74 1475.54,-203.04 1486.01,-204.62 1484.71,-197.74"/>
</g>
<!-- Node17 -->
<g id="node17" class="node">
<title>Node17</title>
<g id="a_node17"><a xlink:href="_all_squad_templates_8cpp.html" target="_top" xlink:title=" ">
<polygon fill="white" stroke="black" points="1349,-134.5 1349,-164.5 1471,-164.5 1471,-134.5 1349,-134.5"/>
<text text-anchor="start" x="1357" y="-152.5" font-family="Helvetica,sans-Serif" font-size="10.00">src/GameLogic/Squad</text>
<text text-anchor="middle" x="1410" y="-141.5" font-family="Helvetica,sans-Serif" font-size="10.00">/AllSquadTemplates.cpp</text>
</a>
</g>
</g>
<!-- Node16&#45;&gt;Node17 -->
<g id="edge19" class="edge">
<title>Node16&#45;&gt;Node17</title>
<path fill="none" stroke="midnightblue" d="M1410,-191.11C1410,-182.15 1410,-172.32 1410,-164.58"/>
<polygon fill="midnightblue" stroke="midnightblue" points="1406.5,-191.4 1410,-201.4 1413.5,-191.4 1406.5,-191.4"/>
</g>
<!-- Node18&#45;&gt;Node4 -->
<g id="edge22" class="edge">
<title>Node18&#45;&gt;Node4</title>
<path fill="none" stroke="midnightblue" d="M1449.78,-266.24C1498.54,-255.2 1562.18,-240.79 1607.58,-230.5"/>
<polygon fill="midnightblue" stroke="midnightblue" points="1448.9,-262.85 1439.92,-268.48 1450.45,-269.68 1448.9,-262.85"/>
</g>
<!-- Node18&#45;&gt;Node8 -->
<g id="edge25" class="edge">
<title>Node18&#45;&gt;Node8</title>
<path fill="none" stroke="midnightblue" d="M1421.47,-264.17C1441.28,-255.27 1464.78,-243.93 1485,-232 1505.29,-220.03 1506.52,-210.68 1528,-201 1579.07,-178 1641.55,-165.03 1687.54,-158.02"/>
<polygon fill="midnightblue" stroke="midnightblue" points="1419.79,-261.09 1412.07,-268.34 1422.63,-267.49 1419.79,-261.09"/>
</g>
<!-- Node18&#45;&gt;Node15 -->
<g id="edge23" class="edge">
<title>Node18&#45;&gt;Node15</title>
<path fill="none" stroke="midnightblue" d="M1336.77,-264.27C1313.36,-253.92 1284.49,-241.15 1262.83,-231.58"/>
<polygon fill="midnightblue" stroke="midnightblue" points="1335.54,-267.55 1346.1,-268.4 1338.37,-261.15 1335.54,-267.55"/>
</g>
<!-- Node18&#45;&gt;Node16 -->
<g id="edge26" class="edge">
<title>Node18&#45;&gt;Node16</title>
<path fill="none" stroke="midnightblue" d="M1389.43,-259.28C1393.99,-250.02 1399.09,-239.66 1403.07,-231.58"/>
<polygon fill="midnightblue" stroke="midnightblue" points="1386.22,-257.88 1384.94,-268.4 1392.5,-260.97 1386.22,-257.88"/>
</g>
<!-- Node19 -->
<g id="node19" class="node">
<title>Node19</title>
<g id="a_node19"><a xlink:href="_all_units_8cpp.html" target="_top" xlink:title=" ">
<polygon fill="white" stroke="black" points="849,-134.5 849,-164.5 959,-164.5 959,-134.5 849,-134.5"/>
<text text-anchor="start" x="857" y="-152.5" font-family="Helvetica,sans-Serif" font-size="10.00">src/GameLogic/Units</text>
<text text-anchor="middle" x="904" y="-141.5" font-family="Helvetica,sans-Serif" font-size="10.00">/AllUnits.cpp</text>
</a>
</g>
</g>
<!-- Node18&#45;&gt;Node19 -->
<g id="edge24" class="edge">
<title>Node18&#45;&gt;Node19</title>
<path fill="none" stroke="midnightblue" d="M1359.21,-260.6C1340.17,-238.99 1311.52,-208.16 1297,-201 1295.12,-200.07 1066.91,-171.11 959.16,-157.47"/>
<polygon fill="midnightblue" stroke="midnightblue" points="1356.78,-263.13 1365.99,-268.37 1362.05,-258.53 1356.78,-263.13"/>
</g>
<!-- Node20&#45;&gt;Node19 -->
<g id="edge28" class="edge">
<title>Node20&#45;&gt;Node19</title>
<path fill="none" stroke="midnightblue" d="M1041.65,-198.09C1011.3,-187.6 973.15,-174.41 944.71,-164.58"/>
<polygon fill="midnightblue" stroke="midnightblue" points="1040.61,-201.44 1051.21,-201.4 1042.9,-194.82 1040.61,-201.44"/>
</g>
<!-- Node21 -->
<g id="node21" class="node">
<title>Node21</title>
<g id="a_node21"><a xlink:href="_armored_unit_factory_8cpp.html" target="_top" xlink:title=" ">
<polygon fill="white" stroke="black" points="1029.5,-134.5 1029.5,-164.5 1154.5,-164.5 1154.5,-134.5 1029.5,-134.5"/>
<text text-anchor="start" x="1037.5" y="-152.5" font-family="Helvetica,sans-Serif" font-size="10.00">src/GameLogic/Units</text>
<text text-anchor="middle" x="1092" y="-141.5" font-family="Helvetica,sans-Serif" font-size="10.00">/ArmoredUnitFactory.cpp</text>
</a>
</g>
</g>
<!-- Node20&#45;&gt;Node21 -->
<g id="edge29" class="edge">
<title>Node20&#45;&gt;Node21</title>
<path fill="none" stroke="midnightblue" d="M1092,-191.11C1092,-182.15 1092,-172.32 1092,-164.58"/>
<polygon fill="midnightblue" stroke="midnightblue" points="1088.5,-191.4 1092,-201.4 1095.5,-191.4 1088.5,-191.4"/>
</g>
<!-- Node22&#45;&gt;Node19 -->
<g id="edge31" class="edge">
<title>Node22&#45;&gt;Node19</title>
<path fill="none" stroke="midnightblue" d="M599.42,-261.34C580.89,-244.06 562.1,-219.55 578,-201 612.24,-161.05 765.28,-152.43 848.94,-150.75"/>
<polygon fill="midnightblue" stroke="midnightblue" points="597.43,-264.26 607.24,-268.26 602.07,-259.01 597.43,-264.26"/>
</g>
<!-- Node23 -->
<g id="node23" class="node">
<title>Node23</title>
<g id="a_node23"><a xlink:href="_land_unit_factory_8cpp.html" target="_top" xlink:title=" ">
<polygon fill="white" stroke="black" points="587,-201.5 587,-231.5 697,-231.5 697,-201.5 587,-201.5"/>
<text text-anchor="start" x="595" y="-219.5" font-family="Helvetica,sans-Serif" font-size="10.00">src/GameLogic/Units</text>
<text text-anchor="middle" x="642" y="-208.5" font-family="Helvetica,sans-Serif" font-size="10.00">/LandUnitFactory.cpp</text>
</a>
</g>
</g>
<!-- Node22&#45;&gt;Node23 -->
<g id="edge32" class="edge">
<title>Node22&#45;&gt;Node23</title>
<path fill="none" stroke="midnightblue" d="M631.93,-258.4C634.16,-249.37 636.61,-239.41 638.54,-231.58"/>
<polygon fill="midnightblue" stroke="midnightblue" points="628.46,-257.85 629.47,-268.4 635.26,-259.52 628.46,-257.85"/>
</g>
<!-- Node24&#45;&gt;Node19 -->
<g id="edge34" class="edge">
<title>Node24&#45;&gt;Node19</title>
<path fill="none" stroke="midnightblue" d="M973.98,-266.02C929.17,-254.9 878.54,-240.72 872,-232 856.41,-211.2 875.92,-181.83 890.6,-164.61"/>
<polygon fill="midnightblue" stroke="midnightblue" points="973.19,-269.42 983.73,-268.41 974.85,-262.63 973.19,-269.42"/>
</g>
<!-- Node24&#45;&gt;Node20 -->
<g id="edge36" class="edge">
<title>Node24&#45;&gt;Node20</title>
<path fill="none" stroke="midnightblue" d="M1061.16,-260.16C1068.01,-250.68 1075.79,-239.92 1081.82,-231.58"/>
<polygon fill="midnightblue" stroke="midnightblue" points="1058.22,-258.24 1055.2,-268.4 1063.89,-262.34 1058.22,-258.24"/>
</g>
<!-- Node25 -->
<g id="node25" class="node">
<title>Node25</title>
<g id="a_node25"><a xlink:href="_transport_unit_factory_8cpp.html" target="_top" xlink:title=" ">
<polygon fill="white" stroke="black" points="881.5,-201.5 881.5,-231.5 1010.5,-231.5 1010.5,-201.5 881.5,-201.5"/>
<text text-anchor="start" x="889.5" y="-219.5" font-family="Helvetica,sans-Serif" font-size="10.00">src/GameLogic/Units</text>
<text text-anchor="middle" x="946" y="-208.5" font-family="Helvetica,sans-Serif" font-size="10.00">/TransportUnitFactory.cpp</text>
</a>
</g>
</g>
<!-- Node24&#45;&gt;Node25 -->
<g id="edge35" class="edge">
<title>Node24&#45;&gt;Node25</title>
<path fill="none" stroke="midnightblue" d="M1014.89,-262.73C999.58,-252.68 981.31,-240.68 967.44,-231.58"/>
<polygon fill="midnightblue" stroke="midnightblue" points="1013.24,-265.83 1023.52,-268.4 1017.08,-259.98 1013.24,-265.83"/>
</g>
<!-- Node26&#45;&gt;Node2 -->
<g id="edge38" class="edge">
<title>Node26&#45;&gt;Node2</title>
<path fill="none" stroke="midnightblue" d="M1722.36,-70.9C1714.6,-69.39 1706.59,-68.01 1699,-67 1386.95,-25.59 1008.87,-18.11 867.22,-16.78"/>
<polygon fill="midnightblue" stroke="midnightblue" points="1721.87,-74.37 1732.36,-72.94 1723.27,-67.51 1721.87,-74.37"/>
</g>
<!-- Node27 -->
<g id="node27" class="node">
<title>Node27</title>
<g id="a_node27"><a xlink:href="pathfinding_8cpp.html" target="_top" xlink:title=" ">
<polygon fill="white" stroke="black" points="1711.5,-6 1711.5,-25 1824.5,-25 1824.5,-6 1711.5,-6"/>
<text text-anchor="middle" x="1768" y="-13" font-family="Helvetica,sans-Serif" font-size="10.00">src/util/pathfinding.cpp</text>
</a>
</g>
</g>
<!-- Node26&#45;&gt;Node27 -->
<g id="edge39" class="edge">
<title>Node26&#45;&gt;Node27</title>
<path fill="none" stroke="midnightblue" d="M1768,-62.54C1768,-50.17 1768,-34.62 1768,-25.13"/>
<polygon fill="midnightblue" stroke="midnightblue" points="1764.5,-62.73 1768,-72.73 1771.5,-62.73 1764.5,-62.73"/>
</g>
<!-- Node28&#45;&gt;Node3 -->
<g id="edge44" class="edge">
<title>Node28&#45;&gt;Node3</title>
<path fill="none" stroke="midnightblue" d="M776.94,-422.68C979.2,-434.45 1539,-467.71 1731.24,-479.38"/>
<polygon fill="midnightblue" stroke="midnightblue" points="776.91,-419.18 766.72,-422.09 776.5,-426.16 776.91,-419.18"/>
</g>
<!-- Node28&#45;&gt;Node11 -->
<g id="edge50" class="edge">
<title>Node28&#45;&gt;Node11</title>
<path fill="none" stroke="midnightblue" d="M776.81,-407.41C880.95,-394.59 1069.26,-371.41 1167.5,-359.32"/>
<polygon fill="midnightblue" stroke="midnightblue" points="776.19,-403.96 766.69,-408.66 777.04,-410.91 776.19,-403.96"/>
</g>
<!-- Node29 -->
<g id="node29" class="node">
<title>Node29</title>
<g id="a_node29"><a xlink:href="_unit_8cpp.html" target="_top" xlink:title=" ">
<polygon fill="white" stroke="black" points="306,-268.5 306,-298.5 416,-298.5 416,-268.5 306,-268.5"/>
<text text-anchor="start" x="314" y="-286.5" font-family="Helvetica,sans-Serif" font-size="10.00">src/GameLogic/Units</text>
<text text-anchor="middle" x="361" y="-275.5" font-family="Helvetica,sans-Serif" font-size="10.00">/Unit.cpp</text>
</a>
</g>
</g>
<!-- Node28&#45;&gt;Node29 -->
<g id="edge43" class="edge">
<title>Node28&#45;&gt;Node29</title>
<path fill="none" stroke="midnightblue" d="M648.56,-399.29C619.93,-389.95 584.36,-377.92 553,-366 495.45,-344.14 429.67,-315.37 391.96,-298.51"/>
<polygon fill="midnightblue" stroke="midnightblue" points="647.79,-402.71 658.38,-402.47 649.95,-396.06 647.79,-402.71"/>
</g>
<!-- Node30 -->
<g id="node30" class="node">
<title>Node30</title>
<g id="a_node30"><a xlink:href="_squad_order_8h.html" target="_top" xlink:title=" ">
<polygon fill="white" stroke="black" points="28.5,-268.5 28.5,-298.5 159.5,-298.5 159.5,-268.5 28.5,-268.5"/>
<text text-anchor="start" x="36.5" y="-286.5" font-family="Helvetica,sans-Serif" font-size="10.00">include/GameLogic/Squad</text>
<text text-anchor="middle" x="94" y="-275.5" font-family="Helvetica,sans-Serif" font-size="10.00">/SquadOrder.h</text>
</a>
</g>
</g>
<!-- Node28&#45;&gt;Node30 -->
<g id="edge45" class="edge">
<title>Node28&#45;&gt;Node30</title>
<path fill="none" stroke="midnightblue" d="M629.2,-413.67C545.31,-409.04 404.84,-397.01 288,-366 225.85,-349.51 157.46,-317.17 120.79,-298.57"/>
<polygon fill="midnightblue" stroke="midnightblue" points="629.23,-417.18 639.4,-414.21 629.6,-410.19 629.23,-417.18"/>
</g>
<!-- Node32 -->
<g id="node32" class="node">
<title>Node32</title>
<g id="a_node32"><a xlink:href="_armored_unit_8h.html" target="_top" xlink:title=" ">
<polygon fill="white" stroke="black" points="836.5,-268.5 836.5,-298.5 963.5,-298.5 963.5,-268.5 836.5,-268.5"/>
<text text-anchor="start" x="844.5" y="-286.5" font-family="Helvetica,sans-Serif" font-size="10.00">include/GameLogic/Units</text>
<text text-anchor="middle" x="900" y="-275.5" font-family="Helvetica,sans-Serif" font-size="10.00">/ArmoredUnit.h</text>
</a>
</g>
</g>
<!-- Node28&#45;&gt;Node32 -->
<g id="edge47" class="edge">
<title>Node28&#45;&gt;Node32</title>
<path fill="none" stroke="midnightblue" d="M776.68,-403.03C802.87,-395.48 831.23,-383.83 853,-366 874.99,-347.99 888.8,-316.81 895.39,-298.69"/>
<polygon fill="midnightblue" stroke="midnightblue" points="775.49,-399.73 766.76,-405.73 777.33,-406.48 775.49,-399.73"/>
</g>
<!-- Node34 -->
<g id="node34" class="node">
<title>Node34</title>
<g id="a_node34"><a xlink:href="_land_unit_8h.html" target="_top" xlink:title=" ">
<polygon fill="white" stroke="black" points="562.5,-335.5 562.5,-365.5 689.5,-365.5 689.5,-335.5 562.5,-335.5"/>
<text text-anchor="start" x="570.5" y="-353.5" font-family="Helvetica,sans-Serif" font-size="10.00">include/GameLogic/Units</text>
<text text-anchor="middle" x="626" y="-342.5" font-family="Helvetica,sans-Serif" font-size="10.00">/LandUnit.h</text>
</a>
</g>
</g>
<!-- Node28&#45;&gt;Node34 -->
<g id="edge51" class="edge">
<title>Node28&#45;&gt;Node34</title>
<path fill="none" stroke="midnightblue" d="M678.58,-395.88C666.88,-386.01 653.16,-374.43 642.68,-365.58"/>
<polygon fill="midnightblue" stroke="midnightblue" points="676.39,-398.62 686.29,-402.4 680.91,-393.27 676.39,-398.62"/>
</g>
<!-- Node36 -->
<g id="node36" class="node">
<title>Node36</title>
<g id="a_node36"><a xlink:href="_transport_unit_8h.html" target="_top" xlink:title=" ">
<polygon fill="white" stroke="black" points="717.5,-335.5 717.5,-365.5 844.5,-365.5 844.5,-335.5 717.5,-335.5"/>
<text text-anchor="start" x="725.5" y="-353.5" font-family="Helvetica,sans-Serif" font-size="10.00">include/GameLogic/Units</text>
<text text-anchor="middle" x="781" y="-342.5" font-family="Helvetica,sans-Serif" font-size="10.00">/TransportUnit.h</text>
</a>
</g>
</g>
<!-- Node28&#45;&gt;Node36 -->
<g id="edge54" class="edge">
<title>Node28&#45;&gt;Node36</title>
<path fill="none" stroke="midnightblue" d="M727.74,-395.88C739.59,-386.01 753.48,-374.43 764.11,-365.58"/>
<polygon fill="midnightblue" stroke="midnightblue" points="725.37,-393.31 719.92,-402.4 729.85,-398.68 725.37,-393.31"/>
</g>
<!-- Node38 -->
<g id="node38" class="node">
<title>Node38</title>
<g id="a_node38"><a xlink:href="_unit_order_8h.html" target="_top" xlink:title=" ">
<polygon fill="white" stroke="black" points="297.5,-335.5 297.5,-365.5 424.5,-365.5 424.5,-335.5 297.5,-335.5"/>
<text text-anchor="start" x="305.5" y="-353.5" font-family="Helvetica,sans-Serif" font-size="10.00">include/GameLogic/Units</text>
<text text-anchor="middle" x="361" y="-342.5" font-family="Helvetica,sans-Serif" font-size="10.00">/UnitOrder.h</text>
</a>
</g>
</g>
<!-- Node28&#45;&gt;Node38 -->
<g id="edge58" class="edge">
<title>Node28&#45;&gt;Node38</title>
<path fill="none" stroke="midnightblue" d="M629.41,-403.56C568.39,-392.27 482.6,-375.97 424.52,-364.63"/>
<polygon fill="midnightblue" stroke="midnightblue" points="628.9,-407.03 639.37,-405.4 630.17,-400.14 628.9,-407.03"/>
</g>
<!-- Node31 -->
<g id="node31" class="node">
<title>Node31</title>
<g id="a_node31"><a xlink:href="_squad_order_8cpp.html" target="_top" xlink:title=" ">
<polygon fill="white" stroke="black" points="37,-201.5 37,-231.5 151,-231.5 151,-201.5 37,-201.5"/>
<text text-anchor="start" x="45" y="-219.5" font-family="Helvetica,sans-Serif" font-size="10.00">src/GameLogic/Squad</text>
<text text-anchor="middle" x="94" y="-208.5" font-family="Helvetica,sans-Serif" font-size="10.00">/SquadOrder.cpp</text>
</a>
</g>
</g>
<!-- Node30&#45;&gt;Node31 -->
<g id="edge46" class="edge">
<title>Node30&#45;&gt;Node31</title>
<path fill="none" stroke="midnightblue" d="M94,-258.11C94,-249.15 94,-239.32 94,-231.58"/>
<polygon fill="midnightblue" stroke="midnightblue" points="90.5,-258.4 94,-268.4 97.5,-258.4 90.5,-258.4"/>
</g>
<!-- Node32&#45;&gt;Node20 -->
<g id="edge49" class="edge">
<title>Node32&#45;&gt;Node20</title>
<path fill="none" stroke="midnightblue" d="M951.42,-265.09C982.42,-254.6 1021.38,-241.41 1050.42,-231.58"/>
<polygon fill="midnightblue" stroke="midnightblue" points="950.01,-261.87 941.66,-268.4 952.26,-268.5 950.01,-261.87"/>
</g>
<!-- Node33 -->
<g id="node33" class="node">
<title>Node33</title>
<g id="a_node33"><a xlink:href="_armored_unit_8cpp.html" target="_top" xlink:title=" ">
<polygon fill="white" stroke="black" points="715,-201.5 715,-231.5 825,-231.5 825,-201.5 715,-201.5"/>
<text text-anchor="start" x="723" y="-219.5" font-family="Helvetica,sans-Serif" font-size="10.00">src/GameLogic/Units</text>
<text text-anchor="middle" x="770" y="-208.5" font-family="Helvetica,sans-Serif" font-size="10.00">/ArmoredUnit.cpp</text>
</a>
</g>
</g>
<!-- Node32&#45;&gt;Node33 -->
<g id="edge48" class="edge">
<title>Node32&#45;&gt;Node33</title>
<path fill="none" stroke="midnightblue" d="M862.71,-263.85C842.15,-253.58 817.05,-241.03 798.15,-231.58"/>
<polygon fill="midnightblue" stroke="midnightblue" points="861.28,-267.05 871.79,-268.4 864.41,-260.79 861.28,-267.05"/>
</g>
<!-- Node34&#45;&gt;Node22 -->
<g id="edge53" class="edge">
<title>Node34&#45;&gt;Node22</title>
<path fill="none" stroke="midnightblue" d="M626,-325.11C626,-316.15 626,-306.32 626,-298.58"/>
<polygon fill="midnightblue" stroke="midnightblue" points="622.5,-325.4 626,-335.4 629.5,-325.4 622.5,-325.4"/>
</g>
<!-- Node35 -->
<g id="node35" class="node">
<title>Node35</title>
<g id="a_node35"><a xlink:href="_land_unit_8cpp.html" target="_top" xlink:title=" ">
<polygon fill="white" stroke="black" points="434,-268.5 434,-298.5 544,-298.5 544,-268.5 434,-268.5"/>
<text text-anchor="start" x="442" y="-286.5" font-family="Helvetica,sans-Serif" font-size="10.00">src/GameLogic/Units</text>
<text text-anchor="middle" x="489" y="-275.5" font-family="Helvetica,sans-Serif" font-size="10.00">/LandUnit.cpp</text>
</a>
</g>
</g>
<!-- Node34&#45;&gt;Node35 -->
<g id="edge52" class="edge">
<title>Node34&#45;&gt;Node35</title>
<path fill="none" stroke="midnightblue" d="M586.99,-330.99C565.28,-320.69 538.67,-308.07 518.67,-298.58"/>
<polygon fill="midnightblue" stroke="midnightblue" points="585.74,-334.27 596.27,-335.4 588.74,-327.95 585.74,-334.27"/>
</g>
<!-- Node36&#45;&gt;Node24 -->
<g id="edge57" class="edge">
<title>Node36&#45;&gt;Node24</title>
<path fill="none" stroke="midnightblue" d="M847.81,-333.05C890.97,-322.43 946.54,-308.74 987.69,-298.61"/>
<polygon fill="midnightblue" stroke="midnightblue" points="846.83,-329.69 837.96,-335.48 848.51,-336.48 846.83,-329.69"/>
</g>
<!-- Node36&#45;&gt;Node32 -->
<g id="edge56" class="edge">
<title>Node36&#45;&gt;Node32</title>
<path fill="none" stroke="midnightblue" d="M815.65,-330.57C834.37,-320.35 857.09,-307.94 874.23,-298.58"/>
<polygon fill="midnightblue" stroke="midnightblue" points="813.92,-327.53 806.82,-335.4 817.28,-333.67 813.92,-327.53"/>
</g>
<!-- Node37 -->
<g id="node37" class="node">
<title>Node37</title>
<g id="a_node37"><a xlink:href="_transport_unit_8cpp.html" target="_top" xlink:title=" ">
<polygon fill="white" stroke="black" points="708,-268.5 708,-298.5 818,-298.5 818,-268.5 708,-268.5"/>
<text text-anchor="start" x="716" y="-286.5" font-family="Helvetica,sans-Serif" font-size="10.00">src/GameLogic/Units</text>
<text text-anchor="middle" x="763" y="-275.5" font-family="Helvetica,sans-Serif" font-size="10.00">/TransportUnit.cpp</text>
</a>
</g>
</g>
<!-- Node36&#45;&gt;Node37 -->
<g id="edge55" class="edge">
<title>Node36&#45;&gt;Node37</title>
<path fill="none" stroke="midnightblue" d="M774.41,-325.7C771.89,-316.59 769.09,-306.49 766.9,-298.58"/>
<polygon fill="midnightblue" stroke="midnightblue" points="771.05,-326.69 777.09,-335.4 777.8,-324.82 771.05,-326.69"/>
</g>
<!-- Node38&#45;&gt;Node28 -->
<g id="edge62" class="edge">
<title>Node38&#45;&gt;Node28</title>
<path fill="none" stroke="midnightblue" d="M434.47,-364.42C495.46,-375.7 581.23,-392 639.34,-403.35"/>
<polygon fill="midnightblue" stroke="midnightblue" points="435,-360.95 424.53,-362.58 433.73,-367.84 435,-360.95"/>
</g>
<!-- Node38&#45;&gt;Node29 -->
<g id="edge59" class="edge">
<title>Node38&#45;&gt;Node29</title>
<path fill="none" stroke="midnightblue" d="M361,-325.11C361,-316.15 361,-306.32 361,-298.58"/>
<polygon fill="midnightblue" stroke="midnightblue" points="357.5,-325.4 361,-335.4 364.5,-325.4 357.5,-325.4"/>
</g>
<!-- Node38&#45;&gt;Node30 -->
<g id="edge61" class="edge">
<title>Node38&#45;&gt;Node30</title>
<path fill="none" stroke="midnightblue" d="M293.43,-333.05C249.78,-322.43 193.58,-308.74 151.96,-298.61"/>
<polygon fill="midnightblue" stroke="midnightblue" points="292.85,-336.51 303.39,-335.48 294.51,-329.71 292.85,-336.51"/>
</g>
<!-- Node39 -->
<g id="node39" class="node">
<title>Node39</title>
<g id="a_node39"><a xlink:href="_unit_order_8cpp.html" target="_top" xlink:title=" ">
<polygon fill="white" stroke="black" points="178,-268.5 178,-298.5 288,-298.5 288,-268.5 178,-268.5"/>
<text text-anchor="start" x="186" y="-286.5" font-family="Helvetica,sans-Serif" font-size="10.00">src/GameLogic/Units</text>
<text text-anchor="middle" x="233" y="-275.5" font-family="Helvetica,sans-Serif" font-size="10.00">/UnitOrder.cpp</text>
</a>
</g>
</g>
<!-- Node38&#45;&gt;Node39 -->
<g id="edge60" class="edge">
<title>Node38&#45;&gt;Node39</title>
<path fill="none" stroke="midnightblue" d="M324.28,-330.85C304.04,-320.58 279.33,-308.03 260.72,-298.58"/>
<polygon fill="midnightblue" stroke="midnightblue" points="322.72,-333.99 333.23,-335.4 325.89,-327.75 322.72,-333.99"/>
</g>
</g>
</svg>
