<?xml version="1.0" encoding="UTF-8" standalone="no"?>
<!DOCTYPE svg PUBLIC "-//W3C//DTD SVG 1.1//EN"
 "http://www.w3.org/Graphics/SVG/1.1/DTD/svg11.dtd">
<!-- Generated by graphviz version 2.47.1 (20210421.1823)
 -->
<!-- Title: include/GameLogic/Squad/Action.h Pages: 1 -->
<svg width="1469pt" height="666pt"
 viewBox="0.00 0.00 1468.50 666.00" xmlns="http://www.w3.org/2000/svg" xmlns:xlink="http://www.w3.org/1999/xlink">
<g id="graph0" class="graph" transform="scale(1 1) rotate(0) translate(4 662)">
<title>include/GameLogic/Squad/Action.h</title>
<polygon fill="white" stroke="transparent" points="-4,4 -4,-662 1464.5,-662 1464.5,4 -4,4"/>
<!-- Node1 -->
<g id="node1" class="node">
<title>Node1</title>
<g id="a_node1"><a xlink:title=" ">
<polygon fill="#bfbfbf" stroke="black" points="978,-627.5 978,-657.5 1109,-657.5 1109,-627.5 978,-627.5"/>
<text text-anchor="start" x="986" y="-645.5" font-family="Helvetica,sans-Serif" font-size="10.00">include/GameLogic/Squad</text>
<text text-anchor="middle" x="1043.5" y="-634.5" font-family="Helvetica,sans-Serif" font-size="10.00">/Action.h</text>
</a>
</g>
</g>
<!-- Node2 -->
<g id="node2" class="node">
<title>Node2</title>
<g id="a_node2"><a xlink:href="_squad_8h.html" target="_top" xlink:title=" ">
<polygon fill="white" stroke="black" points="1017.5,-571.5 1017.5,-590.5 1069.5,-590.5 1069.5,-571.5 1017.5,-571.5"/>
<text text-anchor="middle" x="1043.5" y="-578.5" font-family="Helvetica,sans-Serif" font-size="10.00">Squad.h</text>
</a>
</g>
</g>
<!-- Node1&#45;&gt;Node2 -->
<g id="edge1" class="edge">
<title>Node1&#45;&gt;Node2</title>
<path fill="none" stroke="midnightblue" d="M1037.66,-627.4C1036.63,-619.38 1036.47,-609.23 1037.19,-600.57"/>
<polygon fill="midnightblue" stroke="midnightblue" points="1040.66,-601.04 1038.57,-590.66 1033.73,-600.08 1040.66,-601.04"/>
</g>
<!-- Node3 -->
<g id="node3" class="node">
<title>Node3</title>
<g id="a_node3"><a xlink:href="_cell_8h.html" target="_top" xlink:title=" ">
<polygon fill="white" stroke="black" points="797.5,-515.5 797.5,-534.5 891.5,-534.5 891.5,-515.5 797.5,-515.5"/>
<text text-anchor="middle" x="844.5" y="-522.5" font-family="Helvetica,sans-Serif" font-size="10.00">GameLogic/Cell.h</text>
</a>
</g>
</g>
<!-- Node1&#45;&gt;Node3 -->
<g id="edge88" class="edge">
<title>Node1&#45;&gt;Node3</title>
<path fill="none" stroke="midnightblue" d="M1019.1,-627.34C980.54,-604.96 906.01,-561.7 868.01,-539.65"/>
<polygon fill="midnightblue" stroke="midnightblue" points="869.59,-536.52 859.18,-534.52 866.08,-542.57 869.59,-536.52"/>
</g>
<!-- Node2&#45;&gt;Node1 -->
<g id="edge84" class="edge">
<title>Node2&#45;&gt;Node1</title>
<path fill="none" stroke="midnightblue" d="M1048.43,-590.66C1049.93,-597.65 1050.51,-607.86 1050.14,-617.29"/>
<polygon fill="midnightblue" stroke="midnightblue" points="1046.64,-617.15 1049.34,-627.4 1053.62,-617.71 1046.64,-617.15"/>
</g>
<!-- Node2&#45;&gt;Node3 -->
<g id="edge2" class="edge">
<title>Node2&#45;&gt;Node3</title>
<path fill="none" stroke="midnightblue" d="M1017.42,-574.12C982.34,-565.32 920.17,-548.56 880.63,-537.33"/>
<polygon fill="midnightblue" stroke="midnightblue" points="881.43,-533.92 870.85,-534.53 879.5,-540.65 881.43,-533.92"/>
</g>
<!-- Node6 -->
<g id="node6" class="node">
<title>Node6</title>
<g id="a_node6"><a xlink:href="gameplay_clickable_game_object_8h.html" target="_top" xlink:title=" ">
<polygon fill="white" stroke="black" points="0,-448.5 0,-478.5 129,-478.5 129,-448.5 0,-448.5"/>
<text text-anchor="start" x="8" y="-466.5" font-family="Helvetica,sans-Serif" font-size="10.00">engine/gameplayClickable</text>
<text text-anchor="middle" x="64.5" y="-455.5" font-family="Helvetica,sans-Serif" font-size="10.00">GameObject.h</text>
</a>
</g>
</g>
<!-- Node2&#45;&gt;Node6 -->
<g id="edge83" class="edge">
<title>Node2&#45;&gt;Node6</title>
<path fill="none" stroke="midnightblue" d="M1017.27,-577.78C909.14,-568.47 487.51,-530.67 143.5,-479 142.03,-478.78 140.56,-478.55 139.06,-478.32"/>
<polygon fill="midnightblue" stroke="midnightblue" points="139.54,-474.85 129.11,-476.71 138.43,-481.76 139.54,-474.85"/>
</g>
<!-- Node9 -->
<g id="node9" class="node">
<title>Node9</title>
<g id="a_node9"><a xlink:href="config_8h.html" target="_top" xlink:title=" ">
<polygon fill="white" stroke="black" points="1202,-112.5 1202,-131.5 1283,-131.5 1283,-112.5 1202,-112.5"/>
<text text-anchor="middle" x="1242.5" y="-119.5" font-family="Helvetica,sans-Serif" font-size="10.00">engine/config.h</text>
</a>
</g>
</g>
<!-- Node2&#45;&gt;Node9 -->
<g id="edge85" class="edge">
<title>Node2&#45;&gt;Node9</title>
<path fill="none" stroke="midnightblue" d="M1069.71,-575.18C1140.02,-561.51 1327.5,-519.86 1327.5,-464.5 1327.5,-464.5 1327.5,-464.5 1327.5,-345 1327.5,-263.93 1277.45,-176.55 1254.16,-140.29"/>
<polygon fill="midnightblue" stroke="midnightblue" points="1257.02,-138.28 1248.61,-131.83 1251.17,-142.12 1257.02,-138.28"/>
</g>
<!-- Node12 -->
<g id="node12" class="node">
<title>Node12</title>
<g id="a_node12"><a xlink:href="_facade_8h.html" target="_top" xlink:title=" ">
<polygon fill="white" stroke="black" points="1379.5,-0.5 1379.5,-19.5 1435.5,-19.5 1435.5,-0.5 1379.5,-0.5"/>
<text text-anchor="middle" x="1407.5" y="-7.5" font-family="Helvetica,sans-Serif" font-size="10.00">Facade.h</text>
</a>
</g>
</g>
<!-- Node2&#45;&gt;Node12 -->
<g id="edge86" class="edge">
<title>Node2&#45;&gt;Node12</title>
<path fill="none" stroke="midnightblue" d="M1069.59,-578.45C1160.88,-572.32 1460.5,-546.01 1460.5,-464.5 1460.5,-464.5 1460.5,-464.5 1460.5,-121 1460.5,-84.99 1437.17,-48.34 1421.46,-27.75"/>
<polygon fill="midnightblue" stroke="midnightblue" points="1424.05,-25.38 1415.09,-19.72 1418.57,-29.73 1424.05,-25.38"/>
</g>
<!-- Node32 -->
<g id="node32" class="node">
<title>Node32</title>
<g id="a_node32"><a xlink:href="_unit_8h.html" target="_top" xlink:title=" ">
<polygon fill="white" stroke="black" points="1112.5,-280.5 1112.5,-299.5 1154.5,-299.5 1154.5,-280.5 1112.5,-280.5"/>
<text text-anchor="middle" x="1133.5" y="-287.5" font-family="Helvetica,sans-Serif" font-size="10.00">Unit.h</text>
</a>
</g>
</g>
<!-- Node2&#45;&gt;Node32 -->
<g id="edge82" class="edge">
<title>Node2&#45;&gt;Node32</title>
<path fill="none" stroke="midnightblue" d="M1052.03,-571.37C1073.35,-554.3 1124.5,-513.56 1124.5,-464.5 1124.5,-464.5 1124.5,-464.5 1124.5,-401 1124.5,-368.8 1124.5,-331.3 1127.07,-309.45"/>
<polygon fill="midnightblue" stroke="midnightblue" points="1130.53,-309.99 1128.66,-299.56 1123.62,-308.87 1130.53,-309.99"/>
</g>
<!-- Node43 -->
<g id="node43" class="node">
<title>Node43</title>
<g id="a_node43"><a xlink:href="_player_8h.html" target="_top" xlink:title=" ">
<polygon fill="white" stroke="black" points="1195.5,-336.5 1195.5,-355.5 1299.5,-355.5 1299.5,-336.5 1195.5,-336.5"/>
<text text-anchor="middle" x="1247.5" y="-343.5" font-family="Helvetica,sans-Serif" font-size="10.00">GameLogic/Player.h</text>
</a>
</g>
</g>
<!-- Node2&#45;&gt;Node43 -->
<g id="edge87" class="edge">
<title>Node2&#45;&gt;Node43</title>
<path fill="none" stroke="midnightblue" d="M1069.76,-575.26C1094.76,-569.54 1132.08,-557.73 1156.5,-535 1208.22,-486.87 1233.93,-403.1 1243.26,-365.82"/>
<polygon fill="midnightblue" stroke="midnightblue" points="1246.72,-366.37 1245.64,-355.83 1239.91,-364.75 1246.72,-366.37"/>
</g>
<!-- Node3&#45;&gt;Node2 -->
<g id="edge27" class="edge">
<title>Node3&#45;&gt;Node2</title>
<path fill="none" stroke="midnightblue" d="M881.12,-534.56C917.15,-543.78 971.61,-558.52 1007.44,-568.69"/>
<polygon fill="midnightblue" stroke="midnightblue" points="1006.89,-572.18 1017.47,-571.56 1008.82,-565.45 1006.89,-572.18"/>
</g>
<!-- Node4 -->
<g id="node4" class="node">
<title>Node4</title>
<g id="a_node4"><a xlink:title=" ">
<polygon fill="white" stroke="#bfbfbf" points="324,-336.5 324,-355.5 359,-355.5 359,-336.5 324,-336.5"/>
<text text-anchor="middle" x="341.5" y="-343.5" font-family="Helvetica,sans-Serif" font-size="10.00">map</text>
</a>
</g>
</g>
<!-- Node3&#45;&gt;Node4 -->
<g id="edge3" class="edge">
<title>Node3&#45;&gt;Node4</title>
<path fill="none" stroke="midnightblue" d="M797.28,-521.01C742.76,-516.44 651.03,-505.28 576.5,-479 491.52,-449.03 401.42,-389.46 361.99,-361.78"/>
<polygon fill="midnightblue" stroke="midnightblue" points="363.69,-358.7 353.51,-355.77 359.64,-364.41 363.69,-358.7"/>
</g>
<!-- Node5 -->
<g id="node5" class="node">
<title>Node5</title>
<g id="a_node5"><a xlink:title=" ">
<polygon fill="white" stroke="#bfbfbf" points="913.5,-454 913.5,-473 943.5,-473 943.5,-454 913.5,-454"/>
<text text-anchor="middle" x="928.5" y="-461" font-family="Helvetica,sans-Serif" font-size="10.00">set</text>
</a>
</g>
</g>
<!-- Node3&#45;&gt;Node5 -->
<g id="edge4" class="edge">
<title>Node3&#45;&gt;Node5</title>
<path fill="none" stroke="midnightblue" d="M856.54,-515.48C870.01,-505.93 892.07,-490.31 908.22,-478.87"/>
<polygon fill="midnightblue" stroke="midnightblue" points="910.35,-481.65 916.49,-473.01 906.3,-475.93 910.35,-481.65"/>
</g>
<!-- Node3&#45;&gt;Node6 -->
<g id="edge5" class="edge">
<title>Node3&#45;&gt;Node6</title>
<path fill="none" stroke="midnightblue" d="M797.14,-522.88C683.83,-519.78 388.29,-509.22 143.5,-479 142.03,-478.82 140.55,-478.63 139.05,-478.43"/>
<polygon fill="midnightblue" stroke="midnightblue" points="139.47,-474.95 129.07,-476.99 138.47,-481.88 139.47,-474.95"/>
</g>
<!-- Node3&#45;&gt;Node9 -->
<g id="edge25" class="edge">
<title>Node3&#45;&gt;Node9</title>
<path fill="none" stroke="midnightblue" d="M891.69,-516.89C923.4,-510.54 965.14,-499.05 997.5,-479 1117.34,-404.77 1132.3,-361.29 1210.5,-244 1226.05,-220.68 1232.24,-215.07 1239.5,-188 1243.57,-172.81 1244.1,-154.92 1243.74,-141.75"/>
<polygon fill="midnightblue" stroke="midnightblue" points="1247.23,-141.41 1243.26,-131.59 1240.24,-141.75 1247.23,-141.41"/>
</g>
<!-- Node3&#45;&gt;Node12 -->
<g id="edge26" class="edge">
<title>Node3&#45;&gt;Node12</title>
<path fill="none" stroke="midnightblue" d="M891.8,-522.29C1029.84,-514.55 1422.5,-471.72 1422.5,-235 1422.5,-235 1422.5,-235 1422.5,-121 1422.5,-88.5 1415.99,-51.1 1411.55,-29.34"/>
<polygon fill="midnightblue" stroke="midnightblue" points="1414.96,-28.56 1409.46,-19.5 1408.11,-30.01 1414.96,-28.56"/>
</g>
<!-- Node15 -->
<g id="node15" class="node">
<title>Node15</title>
<g id="a_node15"><a xlink:title=" ">
<polygon fill="white" stroke="#bfbfbf" points="385.5,-56.5 385.5,-75.5 439.5,-75.5 439.5,-56.5 385.5,-56.5"/>
<text text-anchor="middle" x="412.5" y="-63.5" font-family="Helvetica,sans-Serif" font-size="10.00">iostream</text>
</a>
</g>
</g>
<!-- Node3&#45;&gt;Node15 -->
<g id="edge28" class="edge">
<title>Node3&#45;&gt;Node15</title>
<path fill="none" stroke="midnightblue" d="M797.5,-522.43C651.3,-517.32 213.04,-500.27 191.5,-479 75.43,-364.35 79.79,-237.1 184.5,-112 208.45,-83.38 316.84,-72.63 375.13,-68.86"/>
<polygon fill="midnightblue" stroke="midnightblue" points="375.63,-72.34 385.4,-68.24 375.2,-65.35 375.63,-72.34"/>
</g>
<!-- Node17 -->
<g id="node17" class="node">
<title>Node17</title>
<g id="a_node17"><a xlink:href="cellgen_8h.html" target="_top" xlink:title=" ">
<polygon fill="white" stroke="black" points="472,-392.5 472,-411.5 543,-411.5 543,-392.5 472,-392.5"/>
<text text-anchor="middle" x="507.5" y="-399.5" font-family="Helvetica,sans-Serif" font-size="10.00">util/cellgen.h</text>
</a>
</g>
</g>
<!-- Node3&#45;&gt;Node17 -->
<g id="edge16" class="edge">
<title>Node3&#45;&gt;Node17</title>
<path fill="none" stroke="midnightblue" d="M797.15,-517.71C755.03,-511.14 692.27,-498.97 640.5,-479 598.29,-462.72 553.45,-434.52 528.11,-417.43"/>
<polygon fill="midnightblue" stroke="midnightblue" points="529.93,-414.43 519.7,-411.68 525.98,-420.21 529.93,-414.43"/>
</g>
<!-- Node20 -->
<g id="node20" class="node">
<title>Node20</title>
<g id="a_node20"><a xlink:href="_all_flags_8h.html" target="_top" xlink:title=" ">
<polygon fill="white" stroke="black" points="962,-224.5 962,-243.5 1021,-243.5 1021,-224.5 962,-224.5"/>
<text text-anchor="middle" x="991.5" y="-231.5" font-family="Helvetica,sans-Serif" font-size="10.00">AllFlags.h</text>
</a>
</g>
</g>
<!-- Node3&#45;&gt;Node20 -->
<g id="edge20" class="edge">
<title>Node3&#45;&gt;Node20</title>
<path fill="none" stroke="midnightblue" d="M891.35,-515.48C916.52,-508.96 946.74,-497.78 968.5,-479 997.55,-453.92 1009.5,-441.38 1009.5,-403 1009.5,-403 1009.5,-403 1009.5,-345 1009.5,-312.54 1001.77,-275.38 996.44,-253.63"/>
<polygon fill="midnightblue" stroke="midnightblue" points="999.79,-252.59 993.93,-243.76 993.01,-254.32 999.79,-252.59"/>
</g>
<!-- Node23 -->
<g id="node23" class="node">
<title>Node23</title>
<g id="a_node23"><a xlink:href="geometry_8h.html" target="_top" xlink:title=" ">
<polygon fill="white" stroke="black" points="649.5,-454 649.5,-473 729.5,-473 729.5,-454 649.5,-454"/>
<text text-anchor="middle" x="689.5" y="-461" font-family="Helvetica,sans-Serif" font-size="10.00">util/geometry.h</text>
</a>
</g>
</g>
<!-- Node3&#45;&gt;Node23 -->
<g id="edge29" class="edge">
<title>Node3&#45;&gt;Node23</title>
<path fill="none" stroke="midnightblue" d="M822.29,-515.48C795.82,-505.31 751.39,-488.26 721.28,-476.7"/>
<polygon fill="midnightblue" stroke="midnightblue" points="722.26,-473.33 711.67,-473.01 719.75,-479.86 722.26,-473.33"/>
</g>
<!-- Node24 -->
<g id="node24" class="node">
<title>Node24</title>
<g id="a_node24"><a xlink:href="_none_8h.html" target="_top" xlink:title=" ">
<polygon fill="white" stroke="black" points="237,-168.5 237,-187.5 350,-187.5 350,-168.5 237,-168.5"/>
<text text-anchor="middle" x="293.5" y="-175.5" font-family="Helvetica,sans-Serif" font-size="10.00">engine/actions/None.h</text>
</a>
</g>
</g>
<!-- Node3&#45;&gt;Node24 -->
<g id="edge32" class="edge">
<title>Node3&#45;&gt;Node24</title>
<path fill="none" stroke="midnightblue" d="M797.29,-522.14C654.69,-516.31 236.76,-497.7 214.5,-479 187.84,-456.61 195.5,-437.82 195.5,-403 195.5,-403 195.5,-403 195.5,-289 195.5,-245.38 238.99,-211.06 268.03,-193.01"/>
<polygon fill="midnightblue" stroke="midnightblue" points="270.08,-195.86 276.88,-187.73 266.5,-189.85 270.08,-195.86"/>
</g>
<!-- Node25 -->
<g id="node25" class="node">
<title>Node25</title>
<g id="a_node25"><a xlink:href="game_controller_8h.html" target="_top" xlink:title=" ">
<polygon fill="white" stroke="black" points="262,-280.5 262,-299.5 383,-299.5 383,-280.5 262,-280.5"/>
<text text-anchor="middle" x="322.5" y="-287.5" font-family="Helvetica,sans-Serif" font-size="10.00">engine/gameController.h</text>
</a>
</g>
</g>
<!-- Node3&#45;&gt;Node25 -->
<g id="edge34" class="edge">
<title>Node3&#45;&gt;Node25</title>
<path fill="none" stroke="midnightblue" d="M797.5,-520.32C717.42,-513.61 558.09,-498.32 505.5,-479 410.72,-444.18 362.85,-444.64 314.5,-356 306.68,-341.67 310.15,-322.96 314.71,-309.3"/>
<polygon fill="midnightblue" stroke="midnightblue" points="318.11,-310.19 318.4,-299.6 311.57,-307.7 318.11,-310.19"/>
</g>
<!-- Node29 -->
<g id="node29" class="node">
<title>Node29</title>
<g id="a_node29"><a xlink:href="_set_squad_path_8h.html" target="_top" xlink:title=" ">
<polygon fill="white" stroke="black" points="224,-454 224,-473 377,-473 377,-454 224,-454"/>
<text text-anchor="middle" x="300.5" y="-461" font-family="Helvetica,sans-Serif" font-size="10.00">engine/actions/SetSquadPath.h</text>
</a>
</g>
</g>
<!-- Node3&#45;&gt;Node29 -->
<g id="edge43" class="edge">
<title>Node3&#45;&gt;Node29</title>
<path fill="none" stroke="midnightblue" d="M797.39,-520.67C713.49,-514.12 533.38,-498.5 382.5,-479 372.5,-477.71 361.92,-476.17 351.77,-474.6"/>
<polygon fill="midnightblue" stroke="midnightblue" points="352.23,-471.12 341.81,-473.01 351.13,-478.04 352.23,-471.12"/>
</g>
<!-- Node30 -->
<g id="node30" class="node">
<title>Node30</title>
<g id="a_node30"><a xlink:href="_all_units_8h.html" target="_top" xlink:title=" ">
<polygon fill="white" stroke="black" points="884,-392.5 884,-411.5 943,-411.5 943,-392.5 884,-392.5"/>
<text text-anchor="middle" x="913.5" y="-399.5" font-family="Helvetica,sans-Serif" font-size="10.00">AllUnits.h</text>
</a>
</g>
</g>
<!-- Node3&#45;&gt;Node30 -->
<g id="edge47" class="edge">
<title>Node3&#45;&gt;Node30</title>
<path fill="none" stroke="midnightblue" d="M849.46,-515.3C860.75,-495.5 888.53,-446.78 903.52,-420.49"/>
<polygon fill="midnightblue" stroke="midnightblue" points="906.67,-422.04 908.58,-411.62 900.59,-418.58 906.67,-422.04"/>
</g>
<!-- Node37 -->
<g id="node37" class="node">
<title>Node37</title>
<g id="a_node37"><a xlink:href="_all_squad_templates_8h.html" target="_top" xlink:title=" ">
<polygon fill="white" stroke="black" points="748,-454 748,-473 857,-473 857,-454 748,-454"/>
<text text-anchor="middle" x="802.5" y="-461" font-family="Helvetica,sans-Serif" font-size="10.00">AllSquadTemplates.h</text>
</a>
</g>
</g>
<!-- Node3&#45;&gt;Node37 -->
<g id="edge64" class="edge">
<title>Node3&#45;&gt;Node37</title>
<path fill="none" stroke="midnightblue" d="M838.48,-515.48C832.24,-506.64 822.33,-492.59 814.48,-481.48"/>
<polygon fill="midnightblue" stroke="midnightblue" points="817.13,-479.16 808.51,-473.01 811.41,-483.2 817.13,-479.16"/>
</g>
<!-- Node3&#45;&gt;Node43 -->
<g id="edge81" class="edge">
<title>Node3&#45;&gt;Node43</title>
<path fill="none" stroke="midnightblue" d="M891.71,-519.96C937.06,-514.77 1006.72,-503.35 1062.5,-479 1131.25,-448.98 1199.92,-390.75 1230.71,-362.76"/>
<polygon fill="midnightblue" stroke="midnightblue" points="1233.37,-365.07 1238.36,-355.72 1228.63,-359.92 1233.37,-365.07"/>
</g>
<!-- Node7 -->
<g id="node7" class="node">
<title>Node7</title>
<g id="a_node7"><a xlink:href="game_object_8h.html" target="_top" xlink:title=" ">
<polygon fill="white" stroke="black" points="496,-168.5 496,-187.5 573,-187.5 573,-168.5 496,-168.5"/>
<text text-anchor="middle" x="534.5" y="-175.5" font-family="Helvetica,sans-Serif" font-size="10.00">gameObject.h</text>
</a>
</g>
</g>
<!-- Node6&#45;&gt;Node7 -->
<g id="edge6" class="edge">
<title>Node6&#45;&gt;Node7</title>
<path fill="none" stroke="midnightblue" d="M91.74,-448.37C137.52,-424.69 232.93,-375.7 314.5,-336 348.47,-319.47 357.71,-316.89 391.5,-300 438.81,-276.35 458.38,-280.66 496.5,-244 510.31,-230.71 520.77,-211.32 527.18,-197.18"/>
<polygon fill="midnightblue" stroke="midnightblue" points="530.58,-198.15 531.29,-187.58 524.14,-195.4 530.58,-198.15"/>
</g>
<!-- Node8 -->
<g id="node8" class="node">
<title>Node8</title>
<g id="a_node8"><a xlink:title=" ">
<polygon fill="white" stroke="#bfbfbf" points="194,-112.5 194,-131.5 223,-131.5 223,-112.5 194,-112.5"/>
<text text-anchor="middle" x="208.5" y="-119.5" font-family="Helvetica,sans-Serif" font-size="10.00">list</text>
</a>
</g>
</g>
<!-- Node7&#45;&gt;Node8 -->
<g id="edge7" class="edge">
<title>Node7&#45;&gt;Node8</title>
<path fill="none" stroke="midnightblue" d="M495.82,-170.59C428.15,-159.38 290.08,-136.51 233.52,-127.14"/>
<polygon fill="midnightblue" stroke="midnightblue" points="233.77,-123.64 223.33,-125.46 232.63,-130.54 233.77,-123.64"/>
</g>
<!-- Node7&#45;&gt;Node9 -->
<g id="edge8" class="edge">
<title>Node7&#45;&gt;Node9</title>
<path fill="none" stroke="midnightblue" d="M573.27,-175.89C673.83,-172.68 951.38,-161.74 1191.93,-132.07"/>
<polygon fill="midnightblue" stroke="midnightblue" points="1192.42,-135.53 1201.91,-130.82 1191.56,-128.59 1192.42,-135.53"/>
</g>
<!-- Node14 -->
<g id="node14" class="node">
<title>Node14</title>
<g id="a_node14"><a xlink:href="engine_2_action_8h.html" target="_top" xlink:title=" ">
<polygon fill="white" stroke="black" points="493,-112.5 493,-131.5 576,-131.5 576,-112.5 493,-112.5"/>
<text text-anchor="middle" x="534.5" y="-119.5" font-family="Helvetica,sans-Serif" font-size="10.00">engine/Action.h</text>
</a>
</g>
</g>
<!-- Node7&#45;&gt;Node14 -->
<g id="edge13" class="edge">
<title>Node7&#45;&gt;Node14</title>
<path fill="none" stroke="midnightblue" d="M534.5,-168.08C534.5,-161.01 534.5,-150.86 534.5,-141.99"/>
<polygon fill="midnightblue" stroke="midnightblue" points="538,-141.75 534.5,-131.75 531,-141.75 538,-141.75"/>
</g>
<!-- Node10 -->
<g id="node10" class="node">
<title>Node10</title>
<g id="a_node10"><a xlink:href="_s_f_m_l_facade_8h.html" target="_top" xlink:title=" ">
<polygon fill="white" stroke="black" points="1233,-56.5 1233,-75.5 1356,-75.5 1356,-56.5 1233,-56.5"/>
<text text-anchor="middle" x="1294.5" y="-63.5" font-family="Helvetica,sans-Serif" font-size="10.00">graphics/SFMLFacade.h</text>
</a>
</g>
</g>
<!-- Node9&#45;&gt;Node10 -->
<g id="edge9" class="edge">
<title>Node9&#45;&gt;Node10</title>
<path fill="none" stroke="midnightblue" d="M1251.09,-112.08C1258.66,-104.22 1269.88,-92.57 1279.01,-83.08"/>
<polygon fill="midnightblue" stroke="midnightblue" points="1281.66,-85.38 1286.07,-75.75 1276.62,-80.53 1281.66,-85.38"/>
</g>
<!-- Node13 -->
<g id="node13" class="node">
<title>Node13</title>
<g id="a_node13"><a xlink:title=" ">
<polygon fill="white" stroke="#bfbfbf" points="1116.5,-56.5 1116.5,-75.5 1214.5,-75.5 1214.5,-56.5 1116.5,-56.5"/>
<text text-anchor="middle" x="1165.5" y="-63.5" font-family="Helvetica,sans-Serif" font-size="10.00">nlohmann/json.hpp</text>
</a>
</g>
</g>
<!-- Node9&#45;&gt;Node13 -->
<g id="edge12" class="edge">
<title>Node9&#45;&gt;Node13</title>
<path fill="none" stroke="midnightblue" d="M1230.13,-112.32C1218.34,-104.06 1200.37,-91.45 1186.36,-81.63"/>
<polygon fill="midnightblue" stroke="midnightblue" points="1188.04,-78.53 1177.84,-75.65 1184.02,-84.26 1188.04,-78.53"/>
</g>
<!-- Node11 -->
<g id="node11" class="node">
<title>Node11</title>
<g id="a_node11"><a xlink:title=" ">
<polygon fill="white" stroke="#bfbfbf" points="1242.5,-0.5 1242.5,-19.5 1346.5,-19.5 1346.5,-0.5 1242.5,-0.5"/>
<text text-anchor="middle" x="1294.5" y="-7.5" font-family="Helvetica,sans-Serif" font-size="10.00">SFML/Graphics.hpp</text>
</a>
</g>
</g>
<!-- Node10&#45;&gt;Node11 -->
<g id="edge10" class="edge">
<title>Node10&#45;&gt;Node11</title>
<path fill="none" stroke="midnightblue" d="M1294.5,-56.08C1294.5,-49.01 1294.5,-38.86 1294.5,-29.99"/>
<polygon fill="midnightblue" stroke="midnightblue" points="1298,-29.75 1294.5,-19.75 1291,-29.75 1298,-29.75"/>
</g>
<!-- Node10&#45;&gt;Node12 -->
<g id="edge11" class="edge">
<title>Node10&#45;&gt;Node12</title>
<path fill="none" stroke="midnightblue" d="M1312.41,-56.44C1330.75,-47.68 1359.51,-33.94 1380.59,-23.86"/>
<polygon fill="midnightblue" stroke="midnightblue" points="1382.17,-26.99 1389.68,-19.52 1379.15,-20.67 1382.17,-26.99"/>
</g>
<!-- Node14&#45;&gt;Node15 -->
<g id="edge14" class="edge">
<title>Node14&#45;&gt;Node15</title>
<path fill="none" stroke="midnightblue" d="M515.17,-112.44C495.18,-103.6 463.76,-89.69 440.94,-79.59"/>
<polygon fill="midnightblue" stroke="midnightblue" points="442.3,-76.36 431.74,-75.52 439.47,-82.76 442.3,-76.36"/>
</g>
<!-- Node16 -->
<g id="node16" class="node">
<title>Node16</title>
<g id="a_node16"><a xlink:title=" ">
<polygon fill="white" stroke="#bfbfbf" points="630,-56.5 630,-75.5 681,-75.5 681,-56.5 630,-56.5"/>
<text text-anchor="middle" x="655.5" y="-63.5" font-family="Helvetica,sans-Serif" font-size="10.00">memory</text>
</a>
</g>
</g>
<!-- Node14&#45;&gt;Node16 -->
<g id="edge15" class="edge">
<title>Node14&#45;&gt;Node16</title>
<path fill="none" stroke="midnightblue" d="M553.67,-112.44C573.41,-103.64 604.39,-89.81 626.99,-79.72"/>
<polygon fill="midnightblue" stroke="midnightblue" points="628.71,-82.79 636.42,-75.52 625.86,-76.4 628.71,-82.79"/>
</g>
<!-- Node17&#45;&gt;Node4 -->
<g id="edge18" class="edge">
<title>Node17&#45;&gt;Node4</title>
<path fill="none" stroke="midnightblue" d="M480.83,-392.44C454.69,-384.04 413.48,-370.74 368.79,-356.08"/>
<polygon fill="midnightblue" stroke="midnightblue" points="369.8,-352.72 359.21,-352.93 367.62,-359.37 369.8,-352.72"/>
</g>
<!-- Node18 -->
<g id="node18" class="node">
<title>Node18</title>
<g id="a_node18"><a xlink:title=" ">
<polygon fill="white" stroke="#bfbfbf" points="797.5,-112.5 797.5,-131.5 841.5,-131.5 841.5,-112.5 797.5,-112.5"/>
<text text-anchor="middle" x="819.5" y="-119.5" font-family="Helvetica,sans-Serif" font-size="10.00">vector</text>
</a>
</g>
</g>
<!-- Node17&#45;&gt;Node18 -->
<g id="edge17" class="edge">
<title>Node17&#45;&gt;Node18</title>
<path fill="none" stroke="midnightblue" d="M508.89,-392.33C512.59,-371.35 524.25,-316.87 550.5,-280 610.41,-195.85 730.7,-149.87 787.89,-131.94"/>
<polygon fill="midnightblue" stroke="midnightblue" points="788.94,-135.28 797.49,-129.02 786.9,-128.59 788.94,-135.28"/>
</g>
<!-- Node19 -->
<g id="node19" class="node">
<title>Node19</title>
<g id="a_node19"><a xlink:title=" ">
<polygon fill="white" stroke="#bfbfbf" points="377.5,-336.5 377.5,-355.5 505.5,-355.5 505.5,-336.5 377.5,-336.5"/>
<text text-anchor="middle" x="441.5" y="-343.5" font-family="Helvetica,sans-Serif" font-size="10.00">scanline_triangulation.hpp</text>
</a>
</g>
</g>
<!-- Node17&#45;&gt;Node19 -->
<g id="edge19" class="edge">
<title>Node17&#45;&gt;Node19</title>
<path fill="none" stroke="midnightblue" d="M496.9,-392.32C487.04,-384.26 472.15,-372.08 460.28,-362.37"/>
<polygon fill="midnightblue" stroke="midnightblue" points="462.25,-359.46 452.3,-355.83 457.82,-364.88 462.25,-359.46"/>
</g>
<!-- Node20&#45;&gt;Node16 -->
<g id="edge24" class="edge">
<title>Node20&#45;&gt;Node16</title>
<path fill="none" stroke="midnightblue" d="M997.15,-224.38C1010.67,-202.55 1041.7,-144.52 1012.5,-112 991.24,-88.32 777.68,-73.83 691.39,-68.9"/>
<polygon fill="midnightblue" stroke="midnightblue" points="691.46,-65.4 681.28,-68.33 691.06,-72.39 691.46,-65.4"/>
</g>
<!-- Node21 -->
<g id="node21" class="node">
<title>Node21</title>
<g id="a_node21"><a xlink:href="_flag_8h.html" target="_top" xlink:title=" ">
<polygon fill="white" stroke="black" points="962,-168.5 962,-187.5 1005,-187.5 1005,-168.5 962,-168.5"/>
<text text-anchor="middle" x="983.5" y="-175.5" font-family="Helvetica,sans-Serif" font-size="10.00">Flag.h</text>
</a>
</g>
</g>
<!-- Node20&#45;&gt;Node21 -->
<g id="edge21" class="edge">
<title>Node20&#45;&gt;Node21</title>
<path fill="none" stroke="midnightblue" d="M990.18,-224.08C989.12,-216.93 987.59,-206.64 986.27,-197.69"/>
<polygon fill="midnightblue" stroke="midnightblue" points="989.72,-197.13 984.8,-187.75 982.8,-198.16 989.72,-197.13"/>
</g>
<!-- Node21&#45;&gt;Node18 -->
<g id="edge22" class="edge">
<title>Node21&#45;&gt;Node18</title>
<path fill="none" stroke="midnightblue" d="M961.72,-169.83C933.5,-160.54 884.06,-144.26 851.54,-133.55"/>
<polygon fill="midnightblue" stroke="midnightblue" points="852.22,-130.09 841.63,-130.29 850.03,-136.74 852.22,-130.09"/>
</g>
<!-- Node22 -->
<g id="node22" class="node">
<title>Node22</title>
<g id="a_node22"><a xlink:title=" ">
<polygon fill="white" stroke="#bfbfbf" points="963,-112.5 963,-131.5 1004,-131.5 1004,-112.5 963,-112.5"/>
<text text-anchor="middle" x="983.5" y="-119.5" font-family="Helvetica,sans-Serif" font-size="10.00">string</text>
</a>
</g>
</g>
<!-- Node21&#45;&gt;Node22 -->
<g id="edge23" class="edge">
<title>Node21&#45;&gt;Node22</title>
<path fill="none" stroke="midnightblue" d="M983.5,-168.08C983.5,-161.01 983.5,-150.86 983.5,-141.99"/>
<polygon fill="midnightblue" stroke="midnightblue" points="987,-141.75 983.5,-131.75 980,-141.75 987,-141.75"/>
</g>
<!-- Node23&#45;&gt;Node17 -->
<g id="edge31" class="edge">
<title>Node23&#45;&gt;Node17</title>
<path fill="none" stroke="midnightblue" d="M663.42,-453.98C631.93,-443.68 578.8,-426.31 543.44,-414.75"/>
<polygon fill="midnightblue" stroke="midnightblue" points="544.12,-411.29 533.53,-411.51 541.95,-417.94 544.12,-411.29"/>
</g>
<!-- Node23&#45;&gt;Node18 -->
<g id="edge30" class="edge">
<title>Node23&#45;&gt;Node18</title>
<path fill="none" stroke="midnightblue" d="M697.76,-453.88C719.12,-431.02 776.16,-366.04 800.5,-300 820.67,-245.27 821.43,-175.02 820.43,-141.9"/>
<polygon fill="midnightblue" stroke="midnightblue" points="823.93,-141.67 820.04,-131.81 816.93,-141.94 823.93,-141.67"/>
</g>
<!-- Node24&#45;&gt;Node14 -->
<g id="edge33" class="edge">
<title>Node24&#45;&gt;Node14</title>
<path fill="none" stroke="midnightblue" d="M331.69,-168.44C373.64,-159.04 441.09,-143.93 486.57,-133.74"/>
<polygon fill="midnightblue" stroke="midnightblue" points="487.5,-137.12 496.49,-131.52 485.97,-130.29 487.5,-137.12"/>
</g>
<!-- Node25&#45;&gt;Node7 -->
<g id="edge36" class="edge">
<title>Node25&#45;&gt;Node7</title>
<path fill="none" stroke="midnightblue" d="M369.58,-280.5C399.41,-273.7 437.99,-262.22 468.5,-244 489.74,-231.32 509.28,-210.41 521.5,-195.74"/>
<polygon fill="midnightblue" stroke="midnightblue" points="524.24,-197.91 527.8,-187.93 518.8,-193.51 524.24,-197.91"/>
</g>
<!-- Node25&#45;&gt;Node8 -->
<g id="edge35" class="edge">
<title>Node25&#45;&gt;Node8</title>
<path fill="none" stroke="midnightblue" d="M303.08,-280.39C287.65,-272.73 266.43,-260.22 252.5,-244 226.62,-213.87 215.47,-167.26 211.07,-141.58"/>
<polygon fill="midnightblue" stroke="midnightblue" points="214.52,-141.01 209.53,-131.67 207.6,-142.09 214.52,-141.01"/>
</g>
<!-- Node26 -->
<g id="node26" class="node">
<title>Node26</title>
<g id="a_node26"><a xlink:href="_network_manager_8h.html" target="_top" xlink:title=" ">
<polygon fill="white" stroke="black" points="329.5,-224.5 329.5,-243.5 459.5,-243.5 459.5,-224.5 329.5,-224.5"/>
<text text-anchor="middle" x="394.5" y="-231.5" font-family="Helvetica,sans-Serif" font-size="10.00">engine/NetworkManager.h</text>
</a>
</g>
</g>
<!-- Node25&#45;&gt;Node26 -->
<g id="edge37" class="edge">
<title>Node25&#45;&gt;Node26</title>
<path fill="none" stroke="midnightblue" d="M334.07,-280.32C344.92,-272.18 361.38,-259.84 374.38,-250.09"/>
<polygon fill="midnightblue" stroke="midnightblue" points="376.82,-252.63 382.72,-243.83 372.62,-247.03 376.82,-252.63"/>
</g>
<!-- Node28 -->
<g id="node28" class="node">
<title>Node28</title>
<g id="a_node28"><a xlink:title=" ">
<polygon fill="white" stroke="#bfbfbf" points="262,-224.5 262,-243.5 311,-243.5 311,-224.5 262,-224.5"/>
<text text-anchor="middle" x="286.5" y="-231.5" font-family="Helvetica,sans-Serif" font-size="10.00">random</text>
</a>
</g>
</g>
<!-- Node25&#45;&gt;Node28 -->
<g id="edge42" class="edge">
<title>Node25&#45;&gt;Node28</title>
<path fill="none" stroke="midnightblue" d="M316.56,-280.08C311.52,-272.53 304.16,-261.49 297.99,-252.23"/>
<polygon fill="midnightblue" stroke="midnightblue" points="300.79,-250.13 292.33,-243.75 294.97,-254.01 300.79,-250.13"/>
</g>
<!-- Node26&#45;&gt;Node7 -->
<g id="edge38" class="edge">
<title>Node26&#45;&gt;Node7</title>
<path fill="none" stroke="midnightblue" d="M416.68,-224.44C439.93,-215.48 476.65,-201.31 502.92,-191.18"/>
<polygon fill="midnightblue" stroke="midnightblue" points="504.35,-194.38 512.42,-187.52 501.83,-187.85 504.35,-194.38"/>
</g>
<!-- Node26&#45;&gt;Node18 -->
<g id="edge40" class="edge">
<title>Node26&#45;&gt;Node18</title>
<path fill="none" stroke="midnightblue" d="M403.78,-224.06C419.42,-209.59 452.65,-181.31 486.5,-168 590.72,-127.01 725.89,-122.19 786.99,-122.34"/>
<polygon fill="midnightblue" stroke="midnightblue" points="787.14,-125.85 797.17,-122.42 787.19,-118.85 787.14,-125.85"/>
</g>
<!-- Node26&#45;&gt;Node24 -->
<g id="edge39" class="edge">
<title>Node26&#45;&gt;Node24</title>
<path fill="none" stroke="midnightblue" d="M378.27,-224.32C362.15,-215.7 337.2,-202.36 318.54,-192.39"/>
<polygon fill="midnightblue" stroke="midnightblue" points="320.16,-189.28 309.69,-187.65 316.86,-195.46 320.16,-189.28"/>
</g>
<!-- Node27 -->
<g id="node27" class="node">
<title>Node27</title>
<g id="a_node27"><a xlink:title=" ">
<polygon fill="white" stroke="#bfbfbf" points="368,-168.5 368,-187.5 439,-187.5 439,-168.5 368,-168.5"/>
<text text-anchor="middle" x="403.5" y="-175.5" font-family="Helvetica,sans-Serif" font-size="10.00">sys/socket.h</text>
</a>
</g>
</g>
<!-- Node26&#45;&gt;Node27 -->
<g id="edge41" class="edge">
<title>Node26&#45;&gt;Node27</title>
<path fill="none" stroke="midnightblue" d="M395.99,-224.08C397.18,-216.93 398.89,-206.64 400.38,-197.69"/>
<polygon fill="midnightblue" stroke="midnightblue" points="403.85,-198.19 402.04,-187.75 396.95,-197.04 403.85,-198.19"/>
</g>
<!-- Node29&#45;&gt;Node2 -->
<g id="edge45" class="edge">
<title>Node29&#45;&gt;Node2</title>
<path fill="none" stroke="midnightblue" d="M353.91,-473.05C366.25,-475.01 379.33,-477.09 391.5,-479 626.23,-515.88 908.66,-559.31 1007.36,-574.46"/>
<polygon fill="midnightblue" stroke="midnightblue" points="1006.99,-577.94 1017.41,-576 1008.05,-571.02 1006.99,-577.94"/>
</g>
<!-- Node29&#45;&gt;Node3 -->
<g id="edge46" class="edge">
<title>Node29&#45;&gt;Node3</title>
<path fill="none" stroke="midnightblue" d="M359.17,-473.01C372.79,-475.12 387.17,-477.28 400.5,-479 539.13,-496.92 702.44,-511.56 787.19,-518.89"/>
<polygon fill="midnightblue" stroke="midnightblue" points="787.11,-522.4 797.37,-519.77 787.71,-515.43 787.11,-522.4"/>
</g>
<!-- Node29&#45;&gt;Node14 -->
<g id="edge44" class="edge">
<title>Node29&#45;&gt;Node14</title>
<path fill="none" stroke="midnightblue" d="M377.01,-457.54C442.55,-451.5 529.71,-438.61 551.5,-412 588.67,-366.61 541.01,-337.9 550.5,-280 558.86,-229.03 601.78,-215.5 581.5,-168 576.35,-155.95 566.22,-145.58 556.67,-137.84"/>
<polygon fill="midnightblue" stroke="midnightblue" points="558.67,-134.96 548.58,-131.74 554.46,-140.55 558.67,-134.96"/>
</g>
<!-- Node31 -->
<g id="node31" class="node">
<title>Node31</title>
<g id="a_node31"><a xlink:href="_factory_8h.html" target="_top" xlink:title=" ">
<polygon fill="white" stroke="black" points="895.5,-336.5 895.5,-355.5 951.5,-355.5 951.5,-336.5 895.5,-336.5"/>
<text text-anchor="middle" x="923.5" y="-343.5" font-family="Helvetica,sans-Serif" font-size="10.00">Factory.h</text>
</a>
</g>
</g>
<!-- Node30&#45;&gt;Node31 -->
<g id="edge48" class="edge">
<title>Node30&#45;&gt;Node31</title>
<path fill="none" stroke="midnightblue" d="M915.15,-392.08C916.48,-384.93 918.38,-374.64 920.04,-365.69"/>
<polygon fill="midnightblue" stroke="midnightblue" points="923.5,-366.22 921.88,-355.75 916.62,-364.95 923.5,-366.22"/>
</g>
<!-- Node31&#45;&gt;Node3 -->
<g id="edge50" class="edge">
<title>Node31&#45;&gt;Node3</title>
<path fill="none" stroke="midnightblue" d="M930.86,-355.61C937.68,-364.18 947.38,-378.06 951.5,-392 957.4,-411.99 956.64,-472.79 952.5,-479 940.84,-496.49 920.95,-507.2 901.39,-513.74"/>
<polygon fill="midnightblue" stroke="midnightblue" points="900.11,-510.47 891.55,-516.72 902.14,-517.18 900.11,-510.47"/>
</g>
<!-- Node31&#45;&gt;Node7 -->
<g id="edge63" class="edge">
<title>Node31&#45;&gt;Node7</title>
<path fill="none" stroke="midnightblue" d="M914.74,-336.34C891.49,-313.89 825.45,-253.54 758.5,-224 701.48,-198.84 630.08,-187.62 583.42,-182.7"/>
<polygon fill="midnightblue" stroke="midnightblue" points="583.58,-179.19 573.28,-181.68 582.88,-186.16 583.58,-179.19"/>
</g>
<!-- Node31&#45;&gt;Node22 -->
<g id="edge49" class="edge">
<title>Node31&#45;&gt;Node22</title>
<path fill="none" stroke="midnightblue" d="M923.6,-336.16C924.17,-309.67 927.96,-228.95 952.5,-168 956.61,-157.79 963.36,-147.59 969.52,-139.49"/>
<polygon fill="midnightblue" stroke="midnightblue" points="972.3,-141.62 975.81,-131.62 966.83,-137.25 972.3,-141.62"/>
</g>
<!-- Node31&#45;&gt;Node32 -->
<g id="edge51" class="edge">
<title>Node31&#45;&gt;Node32</title>
<path fill="none" stroke="midnightblue" d="M951.82,-337.72C991.06,-327.63 1061.71,-309.46 1102.38,-299"/>
<polygon fill="midnightblue" stroke="midnightblue" points="1103.47,-302.34 1112.28,-296.46 1101.73,-295.56 1103.47,-302.34"/>
</g>
<!-- Node32&#45;&gt;Node2 -->
<g id="edge56" class="edge">
<title>Node32&#45;&gt;Node2</title>
<path fill="none" stroke="midnightblue" d="M1138.34,-299.56C1142.5,-318.06 1142.5,-363.19 1142.5,-401 1142.5,-464.5 1142.5,-464.5 1142.5,-464.5 1142.5,-508.96 1100.49,-546.58 1071,-565.96"/>
<polygon fill="midnightblue" stroke="midnightblue" points="1068.95,-563.11 1062.31,-571.37 1072.65,-569.05 1068.95,-563.11"/>
</g>
<!-- Node32&#45;&gt;Node9 -->
<g id="edge62" class="edge">
<title>Node32&#45;&gt;Node9</title>
<path fill="none" stroke="midnightblue" d="M1148.3,-280.28C1160.93,-272.22 1178.84,-259.21 1190.5,-244 1215.1,-211.92 1230.53,-166.42 1237.72,-141.35"/>
<polygon fill="midnightblue" stroke="midnightblue" points="1241.1,-142.24 1240.37,-131.68 1234.35,-140.39 1241.1,-142.24"/>
</g>
<!-- Node32&#45;&gt;Node20 -->
<g id="edge57" class="edge">
<title>Node32&#45;&gt;Node20</title>
<path fill="none" stroke="midnightblue" d="M1112.24,-280.92C1088.81,-272.01 1050.86,-257.57 1023.76,-247.27"/>
<polygon fill="midnightblue" stroke="midnightblue" points="1024.91,-243.96 1014.32,-243.68 1022.42,-250.5 1024.91,-243.96"/>
</g>
<!-- Node33 -->
<g id="node33" class="node">
<title>Node33</title>
<g id="a_node33"><a xlink:title=" ">
<polygon fill="white" stroke="#bfbfbf" points="1039,-224.5 1039,-243.5 1082,-243.5 1082,-224.5 1039,-224.5"/>
<text text-anchor="middle" x="1060.5" y="-231.5" font-family="Helvetica,sans-Serif" font-size="10.00">cstdio</text>
</a>
</g>
</g>
<!-- Node32&#45;&gt;Node33 -->
<g id="edge52" class="edge">
<title>Node32&#45;&gt;Node33</title>
<path fill="none" stroke="midnightblue" d="M1121.77,-280.32C1110.66,-272.11 1093.76,-259.6 1080.52,-249.81"/>
<polygon fill="midnightblue" stroke="midnightblue" points="1082.56,-246.97 1072.44,-243.83 1078.4,-252.59 1082.56,-246.97"/>
</g>
<!-- Node34 -->
<g id="node34" class="node">
<title>Node34</title>
<g id="a_node34"><a xlink:href="_unit_order_8h.html" target="_top" xlink:title=" ">
<polygon fill="white" stroke="black" points="1100.5,-224.5 1100.5,-243.5 1166.5,-243.5 1166.5,-224.5 1100.5,-224.5"/>
<text text-anchor="middle" x="1133.5" y="-231.5" font-family="Helvetica,sans-Serif" font-size="10.00">UnitOrder.h</text>
</a>
</g>
</g>
<!-- Node32&#45;&gt;Node34 -->
<g id="edge53" class="edge">
<title>Node32&#45;&gt;Node34</title>
<path fill="none" stroke="midnightblue" d="M1128.33,-280.08C1126.82,-272.93 1126.39,-262.64 1127.04,-253.69"/>
<polygon fill="midnightblue" stroke="midnightblue" points="1130.52,-254.13 1128.37,-243.75 1123.58,-253.2 1130.52,-254.13"/>
</g>
<!-- Node35 -->
<g id="node35" class="node">
<title>Node35</title>
<g id="a_node35"><a xlink:href="_textures_8h.html" target="_top" xlink:title=" ">
<polygon fill="white" stroke="black" points="1102,-168.5 1102,-187.5 1203,-187.5 1203,-168.5 1102,-168.5"/>
<text text-anchor="middle" x="1152.5" y="-175.5" font-family="Helvetica,sans-Serif" font-size="10.00">graphics/Textures.h</text>
</a>
</g>
</g>
<!-- Node32&#45;&gt;Node35 -->
<g id="edge58" class="edge">
<title>Node32&#45;&gt;Node35</title>
<path fill="none" stroke="midnightblue" d="M1145.71,-280.24C1155.85,-272.14 1169.54,-259.11 1175.5,-244 1181.79,-228.05 1173.84,-209.6 1165.62,-196.44"/>
<polygon fill="midnightblue" stroke="midnightblue" points="1168.31,-194.18 1159.78,-187.9 1162.54,-198.14 1168.31,-194.18"/>
</g>
<!-- Node34&#45;&gt;Node22 -->
<g id="edge54" class="edge">
<title>Node34&#45;&gt;Node22</title>
<path fill="none" stroke="midnightblue" d="M1121.73,-224.37C1096.1,-205.57 1035,-160.77 1003.32,-137.53"/>
<polygon fill="midnightblue" stroke="midnightblue" points="1005.35,-134.68 995.22,-131.59 1001.21,-140.33 1005.35,-134.68"/>
</g>
<!-- Node34&#45;&gt;Node32 -->
<g id="edge55" class="edge">
<title>Node34&#45;&gt;Node32</title>
<path fill="none" stroke="midnightblue" d="M1138.63,-243.75C1140.16,-250.86 1140.6,-261.14 1139.97,-270.1"/>
<polygon fill="midnightblue" stroke="midnightblue" points="1136.49,-269.71 1138.67,-280.08 1143.43,-270.62 1136.49,-269.71"/>
</g>
<!-- Node35&#45;&gt;Node9 -->
<g id="edge59" class="edge">
<title>Node35&#45;&gt;Node9</title>
<path fill="none" stroke="midnightblue" d="M1166.96,-168.32C1181,-159.9 1202.55,-146.97 1219.04,-137.07"/>
<polygon fill="midnightblue" stroke="midnightblue" points="1221.3,-139.8 1228.08,-131.65 1217.7,-133.8 1221.3,-139.8"/>
</g>
<!-- Node35&#45;&gt;Node18 -->
<g id="edge60" class="edge">
<title>Node35&#45;&gt;Node18</title>
<path fill="none" stroke="midnightblue" d="M1101.92,-168.8C1032.55,-157.55 909.89,-137.66 851.77,-128.23"/>
<polygon fill="midnightblue" stroke="midnightblue" points="852.13,-124.74 841.69,-126.6 851,-131.65 852.13,-124.74"/>
</g>
<!-- Node36 -->
<g id="node36" class="node">
<title>Node36</title>
<g id="a_node36"><a xlink:title=" ">
<polygon fill="white" stroke="#bfbfbf" points="1101,-112.5 1101,-131.5 1184,-131.5 1184,-112.5 1101,-112.5"/>
<text text-anchor="middle" x="1142.5" y="-119.5" font-family="Helvetica,sans-Serif" font-size="10.00">unordered_map</text>
</a>
</g>
</g>
<!-- Node35&#45;&gt;Node36 -->
<g id="edge61" class="edge">
<title>Node35&#45;&gt;Node36</title>
<path fill="none" stroke="midnightblue" d="M1150.85,-168.08C1149.52,-160.93 1147.62,-150.64 1145.96,-141.69"/>
<polygon fill="midnightblue" stroke="midnightblue" points="1149.38,-140.95 1144.12,-131.75 1142.5,-142.22 1149.38,-140.95"/>
</g>
<!-- Node37&#45;&gt;Node30 -->
<g id="edge80" class="edge">
<title>Node37&#45;&gt;Node30</title>
<path fill="none" stroke="midnightblue" d="M818.4,-453.98C836.78,-444.12 867.26,-427.79 888.74,-416.27"/>
<polygon fill="midnightblue" stroke="midnightblue" points="890.47,-419.32 897.63,-411.51 887.16,-413.15 890.47,-419.32"/>
</g>
<!-- Node38 -->
<g id="node38" class="node">
<title>Node38</title>
<g id="a_node38"><a xlink:href="_squad_template_8h.html" target="_top" xlink:title=" ">
<polygon fill="white" stroke="black" points="773.5,-392.5 773.5,-411.5 865.5,-411.5 865.5,-392.5 773.5,-392.5"/>
<text text-anchor="middle" x="819.5" y="-399.5" font-family="Helvetica,sans-Serif" font-size="10.00">SquadTemplate.h</text>
</a>
</g>
</g>
<!-- Node37&#45;&gt;Node38 -->
<g id="edge65" class="edge">
<title>Node37&#45;&gt;Node38</title>
<path fill="none" stroke="midnightblue" d="M804.94,-453.98C807.36,-445.49 811.16,-432.2 814.27,-421.32"/>
<polygon fill="midnightblue" stroke="midnightblue" points="817.69,-422.09 817.07,-411.51 810.96,-420.16 817.69,-422.09"/>
</g>
<!-- Node38&#45;&gt;Node18 -->
<g id="edge66" class="edge">
<title>Node38&#45;&gt;Node18</title>
<path fill="none" stroke="midnightblue" d="M824.78,-392.23C835.23,-374.04 857.5,-330.6 857.5,-291 857.5,-291 857.5,-291 857.5,-233 857.5,-198.81 840.9,-161.76 829.64,-140.57"/>
<polygon fill="midnightblue" stroke="midnightblue" points="832.68,-138.83 824.78,-131.77 826.55,-142.22 832.68,-138.83"/>
</g>
<!-- Node38&#45;&gt;Node31 -->
<g id="edge67" class="edge">
<title>Node38&#45;&gt;Node31</title>
<path fill="none" stroke="midnightblue" d="M836.21,-392.32C852.81,-383.7 878.5,-370.36 897.72,-360.39"/>
<polygon fill="midnightblue" stroke="midnightblue" points="899.57,-363.37 906.83,-355.65 896.34,-357.16 899.57,-363.37"/>
</g>
<!-- Node39 -->
<g id="node39" class="node">
<title>Node39</title>
<g id="a_node39"><a xlink:href="_gui_list_8h.html" target="_top" xlink:title=" ">
<polygon fill="white" stroke="black" points="683.5,-280.5 683.5,-299.5 791.5,-299.5 791.5,-280.5 683.5,-280.5"/>
<text text-anchor="middle" x="737.5" y="-287.5" font-family="Helvetica,sans-Serif" font-size="10.00">engine/GUI/GuiList.h</text>
</a>
</g>
</g>
<!-- Node38&#45;&gt;Node39 -->
<g id="edge68" class="edge">
<title>Node38&#45;&gt;Node39</title>
<path fill="none" stroke="midnightblue" d="M813.07,-392.37C799.47,-374.14 767.64,-331.43 749.93,-307.68"/>
<polygon fill="midnightblue" stroke="midnightblue" points="752.69,-305.52 743.9,-299.59 747.08,-309.7 752.69,-305.52"/>
</g>
<!-- Node41 -->
<g id="node41" class="node">
<title>Node41</title>
<g id="a_node41"><a xlink:href="_gui_scroll_8h.html" target="_top" xlink:title=" ">
<polygon fill="white" stroke="black" points="599.5,-336.5 599.5,-355.5 715.5,-355.5 715.5,-336.5 599.5,-336.5"/>
<text text-anchor="middle" x="657.5" y="-343.5" font-family="Helvetica,sans-Serif" font-size="10.00">engine/GUI/GuiScroll.h</text>
</a>
</g>
</g>
<!-- Node38&#45;&gt;Node41 -->
<g id="edge72" class="edge">
<title>Node38&#45;&gt;Node41</title>
<path fill="none" stroke="midnightblue" d="M793.83,-392.44C766.58,-383.36 723.32,-368.94 692.85,-358.78"/>
<polygon fill="midnightblue" stroke="midnightblue" points="693.64,-355.36 683.05,-355.52 691.43,-362 693.64,-355.36"/>
</g>
<!-- Node42 -->
<g id="node42" class="node">
<title>Node42</title>
<g id="a_node42"><a xlink:href="_button_8h.html" target="_top" xlink:title=" ">
<polygon fill="white" stroke="black" points="560,-280.5 560,-299.5 665,-299.5 665,-280.5 560,-280.5"/>
<text text-anchor="middle" x="612.5" y="-287.5" font-family="Helvetica,sans-Serif" font-size="10.00">engine/GUI/Button.h</text>
</a>
</g>
</g>
<!-- Node38&#45;&gt;Node42 -->
<g id="edge75" class="edge">
<title>Node38&#45;&gt;Node42</title>
<path fill="none" stroke="midnightblue" d="M808.6,-392.36C791.44,-379.05 756.75,-353.25 724.5,-336 699.87,-322.83 670.53,-311.18 648.06,-303.03"/>
<polygon fill="midnightblue" stroke="midnightblue" points="649.17,-299.71 638.57,-299.65 646.82,-306.3 649.17,-299.71"/>
</g>
<!-- Node38&#45;&gt;Node43 -->
<g id="edge77" class="edge">
<title>Node38&#45;&gt;Node43</title>
<path fill="none" stroke="midnightblue" d="M865.69,-393.3C868.67,-392.84 871.63,-392.41 874.5,-392 983.51,-376.51 1110.95,-361.88 1185.11,-353.71"/>
<polygon fill="midnightblue" stroke="midnightblue" points="1185.65,-357.18 1195.21,-352.61 1184.89,-350.22 1185.65,-357.18"/>
</g>
<!-- Node39&#45;&gt;Node18 -->
<g id="edge71" class="edge">
<title>Node39&#45;&gt;Node18</title>
<path fill="none" stroke="midnightblue" d="M741.91,-280.08C754.93,-253.72 793.38,-175.88 810.78,-140.66"/>
<polygon fill="midnightblue" stroke="midnightblue" points="813.98,-142.08 815.27,-131.57 807.7,-138.98 813.98,-142.08"/>
</g>
<!-- Node40 -->
<g id="node40" class="node">
<title>Node40</title>
<g id="a_node40"><a xlink:href="_gui_object_8h.html" target="_top" xlink:title=" ">
<polygon fill="white" stroke="black" points="629.5,-224.5 629.5,-243.5 749.5,-243.5 749.5,-224.5 629.5,-224.5"/>
<text text-anchor="middle" x="689.5" y="-231.5" font-family="Helvetica,sans-Serif" font-size="10.00">engine/GUI/GuiObject.h</text>
</a>
</g>
</g>
<!-- Node39&#45;&gt;Node40 -->
<g id="edge69" class="edge">
<title>Node39&#45;&gt;Node40</title>
<path fill="none" stroke="midnightblue" d="M729.57,-280.08C722.65,-272.3 712.43,-260.8 704.05,-251.37"/>
<polygon fill="midnightblue" stroke="midnightblue" points="706.54,-248.9 697.28,-243.75 701.31,-253.55 706.54,-248.9"/>
</g>
<!-- Node40&#45;&gt;Node7 -->
<g id="edge70" class="edge">
<title>Node40&#45;&gt;Node7</title>
<path fill="none" stroke="midnightblue" d="M664.94,-224.44C638.98,-215.4 597.83,-201.06 568.7,-190.92"/>
<polygon fill="midnightblue" stroke="midnightblue" points="569.54,-187.5 558.95,-187.52 567.24,-194.11 569.54,-187.5"/>
</g>
<!-- Node41&#45;&gt;Node8 -->
<g id="edge74" class="edge">
<title>Node41&#45;&gt;Node8</title>
<path fill="none" stroke="midnightblue" d="M599.26,-340.17C490.42,-330.92 265.88,-310.67 252.5,-300 204.26,-261.53 203.96,-179.09 206.57,-141.89"/>
<polygon fill="midnightblue" stroke="midnightblue" points="210.06,-142.16 207.43,-131.9 203.09,-141.57 210.06,-142.16"/>
</g>
<!-- Node41&#45;&gt;Node39 -->
<g id="edge73" class="edge">
<title>Node41&#45;&gt;Node39</title>
<path fill="none" stroke="midnightblue" d="M670.35,-336.32C682.72,-327.98 701.63,-315.21 716.24,-305.35"/>
<polygon fill="midnightblue" stroke="midnightblue" points="718.35,-308.15 724.68,-299.65 714.43,-302.35 718.35,-308.15"/>
</g>
<!-- Node42&#45;&gt;Node40 -->
<g id="edge76" class="edge">
<title>Node42&#45;&gt;Node40</title>
<path fill="none" stroke="midnightblue" d="M624.87,-280.32C636.66,-272.06 654.63,-259.45 668.64,-249.63"/>
<polygon fill="midnightblue" stroke="midnightblue" points="670.98,-252.26 677.16,-243.65 666.96,-246.53 670.98,-252.26"/>
</g>
<!-- Node43&#45;&gt;Node10 -->
<g id="edge79" class="edge">
<title>Node43&#45;&gt;Node10</title>
<path fill="none" stroke="midnightblue" d="M1251.62,-336.33C1259.57,-319.16 1276.9,-279.42 1284.5,-244 1294.96,-195.2 1289.95,-181.84 1292.5,-132 1293.29,-116.48 1293.81,-98.85 1294.12,-85.87"/>
<polygon fill="midnightblue" stroke="midnightblue" points="1297.62,-85.91 1294.34,-75.84 1290.62,-85.76 1297.62,-85.91"/>
</g>
<!-- Node43&#45;&gt;Node12 -->
<g id="edge78" class="edge">
<title>Node43&#45;&gt;Node12</title>
<path fill="none" stroke="midnightblue" d="M1275.89,-336.42C1316.01,-322.34 1384.5,-290.21 1384.5,-235 1384.5,-235 1384.5,-235 1384.5,-121 1384.5,-88.12 1394.47,-50.86 1401.28,-29.24"/>
<polygon fill="midnightblue" stroke="midnightblue" points="1404.61,-30.3 1404.4,-19.71 1397.96,-28.12 1404.61,-30.3"/>
</g>
</g>
</svg>
