<?xml version="1.0" encoding="UTF-8" standalone="no"?>
<!DOCTYPE svg PUBLIC "-//W3C//DTD SVG 1.1//EN"
 "http://www.w3.org/Graphics/SVG/1.1/DTD/svg11.dtd">
<!-- Generated by graphviz version 2.47.1 (20210421.1823)
 -->
<!-- Title: include/GameLogic/Squad/Action.h Pages: 1 -->
<svg width="2092pt" height="575pt"
 viewBox="0.00 0.00 2091.50 575.00" xmlns="http://www.w3.org/2000/svg" xmlns:xlink="http://www.w3.org/1999/xlink">
<g id="graph0" class="graph" transform="scale(1 1) rotate(0) translate(4 571)">
<title>include/GameLogic/Squad/Action.h</title>
<polygon fill="white" stroke="transparent" points="-4,4 -4,-571 2087.5,-571 2087.5,4 -4,4"/>
<!-- Node1 -->
<g id="node1" class="node">
<title>Node1</title>
<g id="a_node1"><a xlink:title=" ">
<polygon fill="#bfbfbf" stroke="black" points="1730.5,-536.5 1730.5,-566.5 1861.5,-566.5 1861.5,-536.5 1730.5,-536.5"/>
<text text-anchor="start" x="1738.5" y="-554.5" font-family="Helvetica,sans-Serif" font-size="10.00">include/GameLogic/Squad</text>
<text text-anchor="middle" x="1796" y="-543.5" font-family="Helvetica,sans-Serif" font-size="10.00">/Action.h</text>
</a>
</g>
</g>
<!-- Node2 -->
<g id="node2" class="node">
<title>Node2</title>
<g id="a_node2"><a xlink:href="_game_logic_2_squad_2_action_8cpp.html" target="_top" xlink:title=" ">
<polygon fill="white" stroke="black" points="769,-0.5 769,-30.5 883,-30.5 883,-0.5 769,-0.5"/>
<text text-anchor="start" x="777" y="-18.5" font-family="Helvetica,sans-Serif" font-size="10.00">src/GameLogic/Squad</text>
<text text-anchor="middle" x="826" y="-7.5" font-family="Helvetica,sans-Serif" font-size="10.00">/Action.cpp</text>
</a>
</g>
</g>
<!-- Node1&#45;&gt;Node2 -->
<g id="edge1" class="edge">
<title>Node1&#45;&gt;Node2</title>
<path fill="none" stroke="midnightblue" d="M1720.46,-548.97C1379.44,-541.56 0,-506.18 0,-418.5 0,-418.5 0,-418.5 0,-148.5 0,-70.49 581.93,-30.44 768.9,-19.59"/>
<polygon fill="midnightblue" stroke="midnightblue" points="1720.41,-552.47 1730.48,-549.18 1720.56,-545.47 1720.41,-552.47"/>
</g>
<!-- Node3 -->
<g id="node3" class="node">
<title>Node3</title>
<g id="a_node3"><a xlink:href="_squad_8h.html" target="_top" xlink:title=" ">
<polygon fill="white" stroke="black" points="1730.5,-469.5 1730.5,-499.5 1861.5,-499.5 1861.5,-469.5 1730.5,-469.5"/>
<text text-anchor="start" x="1738.5" y="-487.5" font-family="Helvetica,sans-Serif" font-size="10.00">include/GameLogic/Squad</text>
<text text-anchor="middle" x="1796" y="-476.5" font-family="Helvetica,sans-Serif" font-size="10.00">/Squad.h</text>
</a>
</g>
</g>
<!-- Node1&#45;&gt;Node3 -->
<g id="edge2" class="edge">
<title>Node1&#45;&gt;Node3</title>
<path fill="none" stroke="midnightblue" d="M1789.45,-526.4C1789.01,-517.37 1789.3,-507.41 1790.33,-499.58"/>
<polygon fill="midnightblue" stroke="midnightblue" points="1785.97,-526.74 1790.32,-536.4 1792.94,-526.13 1785.97,-526.74"/>
</g>
<!-- Node3&#45;&gt;Node1 -->
<g id="edge42" class="edge">
<title>Node3&#45;&gt;Node1</title>
<path fill="none" stroke="midnightblue" d="M1802.54,-509.57C1802.99,-518.6 1802.71,-528.56 1801.68,-536.4"/>
<polygon fill="midnightblue" stroke="midnightblue" points="1806.03,-509.24 1801.67,-499.58 1799.05,-509.84 1806.03,-509.24"/>
</g>
<!-- Node4 -->
<g id="node4" class="node">
<title>Node4</title>
<g id="a_node4"><a xlink:href="_squad_8cpp.html" target="_top" xlink:title=" ">
<polygon fill="white" stroke="black" points="1569,-201.5 1569,-231.5 1683,-231.5 1683,-201.5 1569,-201.5"/>
<text text-anchor="start" x="1577" y="-219.5" font-family="Helvetica,sans-Serif" font-size="10.00">src/GameLogic/Squad</text>
<text text-anchor="middle" x="1626" y="-208.5" font-family="Helvetica,sans-Serif" font-size="10.00">/Squad.cpp</text>
</a>
</g>
</g>
<!-- Node3&#45;&gt;Node4 -->
<g id="edge3" class="edge">
<title>Node3&#45;&gt;Node4</title>
<path fill="none" stroke="midnightblue" d="M1785.11,-460.19C1759.79,-406.12 1698.64,-276.15 1692,-268 1680.15,-253.46 1663.32,-240.66 1649.62,-231.59"/>
<polygon fill="midnightblue" stroke="midnightblue" points="1781.99,-461.78 1789.39,-469.35 1788.33,-458.81 1781.99,-461.78"/>
</g>
<!-- Node5 -->
<g id="node5" class="node">
<title>Node5</title>
<g id="a_node5"><a xlink:href="_set_squad_path_8h.html" target="_top" xlink:title=" ">
<polygon fill="white" stroke="black" points="1855.5,-67.5 1855.5,-97.5 1968.5,-97.5 1968.5,-67.5 1855.5,-67.5"/>
<text text-anchor="start" x="1863.5" y="-85.5" font-family="Helvetica,sans-Serif" font-size="10.00">include/engine/actions</text>
<text text-anchor="middle" x="1912" y="-74.5" font-family="Helvetica,sans-Serif" font-size="10.00">/SetSquadPath.h</text>
</a>
</g>
</g>
<!-- Node3&#45;&gt;Node5 -->
<g id="edge4" class="edge">
<title>Node3&#45;&gt;Node5</title>
<path fill="none" stroke="midnightblue" d="M1820.21,-462.4C1856.04,-428.69 1919,-358.89 1919,-284.5 1919,-284.5 1919,-284.5 1919,-215.5 1919,-172.59 1915.26,-121.93 1913.25,-97.75"/>
<polygon fill="midnightblue" stroke="midnightblue" points="1817.58,-460.07 1812.59,-469.41 1822.32,-465.22 1817.58,-460.07"/>
</g>
<!-- Node8 -->
<g id="node8" class="node">
<title>Node8</title>
<g id="a_node8"><a xlink:href="_cell_8h.html" target="_top" xlink:title=" ">
<polygon fill="white" stroke="black" points="1713,-140 1713,-159 1841,-159 1841,-140 1713,-140"/>
<text text-anchor="middle" x="1777" y="-147" font-family="Helvetica,sans-Serif" font-size="10.00">include/GameLogic/Cell.h</text>
</a>
</g>
</g>
<!-- Node3&#45;&gt;Node8 -->
<g id="edge41" class="edge">
<title>Node3&#45;&gt;Node8</title>
<path fill="none" stroke="midnightblue" d="M1789.35,-458.99C1787,-432.49 1787,-389 1787,-351.5 1787,-351.5 1787,-351.5 1787,-282.5 1787,-235.5 1775.05,-180.04 1774.59,-159.09"/>
<polygon fill="midnightblue" stroke="midnightblue" points="1785.91,-459.7 1790.51,-469.24 1792.86,-458.91 1785.91,-459.7"/>
</g>
<!-- Node26 -->
<g id="node26" class="node">
<title>Node26</title>
<g id="a_node26"><a xlink:href="pathfinding_8h.html" target="_top" xlink:title=" ">
<polygon fill="white" stroke="black" points="1717,-73 1717,-92 1837,-92 1837,-73 1717,-73"/>
<text text-anchor="middle" x="1777" y="-80" font-family="Helvetica,sans-Serif" font-size="10.00">include/util/pathfinding.h</text>
</a>
</g>
</g>
<!-- Node3&#45;&gt;Node26 -->
<g id="edge64" class="edge">
<title>Node3&#45;&gt;Node26</title>
<path fill="none" stroke="midnightblue" d="M1808.89,-459.99C1839.21,-401.29 1908.2,-245.04 1850,-134 1839.41,-113.8 1816.67,-100.08 1799.36,-92.09"/>
<polygon fill="midnightblue" stroke="midnightblue" points="1805.62,-458.69 1804.05,-469.17 1811.81,-461.96 1805.62,-458.69"/>
</g>
<!-- Node28 -->
<g id="node28" class="node">
<title>Node28</title>
<g id="a_node28"><a xlink:href="_unit_8h.html" target="_top" xlink:title=" ">
<polygon fill="white" stroke="black" points="499.5,-402.5 499.5,-432.5 626.5,-432.5 626.5,-402.5 499.5,-402.5"/>
<text text-anchor="start" x="507.5" y="-420.5" font-family="Helvetica,sans-Serif" font-size="10.00">include/GameLogic/Units</text>
<text text-anchor="middle" x="563" y="-409.5" font-family="Helvetica,sans-Serif" font-size="10.00">/Unit.h</text>
</a>
</g>
</g>
<!-- Node3&#45;&gt;Node28 -->
<g id="edge43" class="edge">
<title>Node3&#45;&gt;Node28</title>
<path fill="none" stroke="midnightblue" d="M1720.36,-479.69C1495.61,-468.08 834.91,-433.25 626.61,-422.03"/>
<polygon fill="midnightblue" stroke="midnightblue" points="1720.24,-483.19 1730.41,-480.21 1720.6,-476.2 1720.24,-483.19"/>
</g>
<!-- Node6 -->
<g id="node6" class="node">
<title>Node6</title>
<g id="a_node6"><a xlink:href="engine_2_action_8cpp.html" target="_top" xlink:title=" ">
<polygon fill="white" stroke="black" points="1854,-6 1854,-25 1964,-25 1964,-6 1854,-6"/>
<text text-anchor="middle" x="1909" y="-13" font-family="Helvetica,sans-Serif" font-size="10.00">src/engine/Action.cpp</text>
</a>
</g>
</g>
<!-- Node5&#45;&gt;Node6 -->
<g id="edge5" class="edge">
<title>Node5&#45;&gt;Node6</title>
<path fill="none" stroke="midnightblue" d="M1910.88,-57.25C1910.36,-46.02 1909.78,-33.38 1909.4,-25.19"/>
<polygon fill="midnightblue" stroke="midnightblue" points="1907.39,-57.57 1911.35,-67.4 1914.38,-57.25 1907.39,-57.57"/>
</g>
<!-- Node7 -->
<g id="node7" class="node">
<title>Node7</title>
<g id="a_node7"><a xlink:href="_set_squad_path_8cpp.html" target="_top" xlink:title=" ">
<polygon fill="white" stroke="black" points="1982.5,-0.5 1982.5,-30.5 2083.5,-30.5 2083.5,-0.5 1982.5,-0.5"/>
<text text-anchor="start" x="1990.5" y="-18.5" font-family="Helvetica,sans-Serif" font-size="10.00">src/engine/actions</text>
<text text-anchor="middle" x="2033" y="-7.5" font-family="Helvetica,sans-Serif" font-size="10.00">/SetSquadPath.cpp</text>
</a>
</g>
</g>
<!-- Node5&#45;&gt;Node7 -->
<g id="edge6" class="edge">
<title>Node5&#45;&gt;Node7</title>
<path fill="none" stroke="midnightblue" d="M1947.23,-62.57C1966.26,-52.35 1989.37,-39.94 2006.8,-30.58"/>
<polygon fill="midnightblue" stroke="midnightblue" points="1945.41,-59.58 1938.26,-67.4 1948.72,-65.75 1945.41,-59.58"/>
</g>
<!-- Node5&#45;&gt;Node8 -->
<g id="edge7" class="edge">
<title>Node5&#45;&gt;Node8</title>
<path fill="none" stroke="midnightblue" d="M1879.29,-102.22C1854.62,-114.63 1821.57,-130.31 1799.69,-139.87"/>
<polygon fill="midnightblue" stroke="midnightblue" points="1880.96,-105.3 1888.29,-97.65 1877.79,-99.06 1880.96,-105.3"/>
</g>
<!-- Node8&#45;&gt;Node1 -->
<g id="edge11" class="edge">
<title>Node8&#45;&gt;Node1</title>
<path fill="none" stroke="midnightblue" d="M1791.26,-166.84C1798.77,-176.25 1807.53,-188.63 1813,-201 1862.27,-312.46 1858.04,-347.82 1871,-469 1872.47,-482.7 1877.47,-487.84 1871,-500 1862.37,-516.21 1845.96,-528.15 1830.69,-536.34"/>
<polygon fill="midnightblue" stroke="midnightblue" points="1793.92,-164.57 1784.84,-159.12 1788.54,-169.05 1793.92,-164.57"/>
</g>
<!-- Node8&#45;&gt;Node3 -->
<g id="edge12" class="edge">
<title>Node8&#45;&gt;Node3</title>
<path fill="none" stroke="midnightblue" d="M1787.25,-168.48C1795.85,-193.77 1805,-241.37 1805,-282.5 1805,-351.5 1805,-351.5 1805,-351.5 1805,-394.35 1805,-445.03 1801.49,-469.24"/>
<polygon fill="midnightblue" stroke="midnightblue" points="1790.49,-167.15 1783.62,-159.09 1783.96,-169.68 1790.49,-167.15"/>
</g>
<!-- Node8&#45;&gt;Node5 -->
<g id="edge10" class="edge">
<title>Node8&#45;&gt;Node5</title>
<path fill="none" stroke="midnightblue" d="M1799.1,-135.18C1820.35,-124.21 1852.54,-108.69 1877.2,-97.53"/>
<polygon fill="midnightblue" stroke="midnightblue" points="1797.39,-132.12 1790.17,-139.87 1800.65,-138.32 1797.39,-132.12"/>
</g>
<!-- Node9 -->
<g id="node9" class="node">
<title>Node9</title>
<g id="a_node9"><a xlink:href="_cell_8cpp.html" target="_top" xlink:title=" ">
<polygon fill="white" stroke="black" points="1577.5,-73 1577.5,-92 1698.5,-92 1698.5,-73 1577.5,-73"/>
<text text-anchor="middle" x="1638" y="-80" font-family="Helvetica,sans-Serif" font-size="10.00">src/GameLogic/Cell.cpp</text>
</a>
</g>
</g>
<!-- Node8&#45;&gt;Node9 -->
<g id="edge8" class="edge">
<title>Node8&#45;&gt;Node9</title>
<path fill="none" stroke="midnightblue" d="M1749.44,-135.61C1721.91,-122.74 1680.35,-103.31 1656.53,-92.17"/>
<polygon fill="midnightblue" stroke="midnightblue" points="1748,-138.8 1758.54,-139.87 1750.97,-132.46 1748,-138.8"/>
</g>
<!-- Node10 -->
<g id="node10" class="node">
<title>Node10</title>
<g id="a_node10"><a xlink:href="main_8cpp.html" target="_top" xlink:title=" ">
<polygon fill="white" stroke="black" points="1474,-73 1474,-92 1546,-92 1546,-73 1474,-73"/>
<text text-anchor="middle" x="1510" y="-80" font-family="Helvetica,sans-Serif" font-size="10.00">src/main.cpp</text>
</a>
</g>
</g>
<!-- Node8&#45;&gt;Node10 -->
<g id="edge9" class="edge">
<title>Node8&#45;&gt;Node10</title>
<path fill="none" stroke="midnightblue" d="M1731.71,-137.54C1689.57,-127.34 1625.03,-111.69 1569,-98 1561.11,-96.07 1552.63,-93.99 1544.63,-92.03"/>
<polygon fill="midnightblue" stroke="midnightblue" points="1731.12,-141 1741.66,-139.95 1732.77,-134.2 1731.12,-141"/>
</g>
<!-- Node11 -->
<g id="node11" class="node">
<title>Node11</title>
<g id="a_node11"><a xlink:href="_factory_8h.html" target="_top" xlink:title=" ">
<polygon fill="white" stroke="black" points="1166.5,-335.5 1166.5,-365.5 1293.5,-365.5 1293.5,-335.5 1166.5,-335.5"/>
<text text-anchor="start" x="1174.5" y="-353.5" font-family="Helvetica,sans-Serif" font-size="10.00">include/GameLogic/Units</text>
<text text-anchor="middle" x="1230" y="-342.5" font-family="Helvetica,sans-Serif" font-size="10.00">/Factory.h</text>
</a>
</g>
</g>
<!-- Node8&#45;&gt;Node11 -->
<g id="edge13" class="edge">
<title>Node8&#45;&gt;Node11</title>
<path fill="none" stroke="midnightblue" d="M1772.33,-169.04C1763.08,-201.51 1739.12,-268.13 1692,-299 1627.88,-341 1404.45,-348.47 1293.5,-349.54"/>
<polygon fill="midnightblue" stroke="midnightblue" points="1775.78,-169.66 1775,-159.09 1769.02,-167.84 1775.78,-169.66"/>
</g>
<!-- Node8&#45;&gt;Node26 -->
<g id="edge38" class="edge">
<title>Node8&#45;&gt;Node26</title>
<path fill="none" stroke="midnightblue" d="M1777,-129.54C1777,-117.17 1777,-101.62 1777,-92.13"/>
<polygon fill="midnightblue" stroke="midnightblue" points="1773.5,-129.73 1777,-139.73 1780.5,-129.73 1773.5,-129.73"/>
</g>
<!-- Node12 -->
<g id="node12" class="node">
<title>Node12</title>
<g id="a_node12"><a xlink:href="_spawn_action_8cpp.html" target="_top" xlink:title=" ">
<polygon fill="white" stroke="black" points="1459,-268.5 1459,-298.5 1555,-298.5 1555,-268.5 1459,-268.5"/>
<text text-anchor="start" x="1467" y="-286.5" font-family="Helvetica,sans-Serif" font-size="10.00">src/engine/actions</text>
<text text-anchor="middle" x="1507" y="-275.5" font-family="Helvetica,sans-Serif" font-size="10.00">/SpawnAction.cpp</text>
</a>
</g>
</g>
<!-- Node11&#45;&gt;Node12 -->
<g id="edge14" class="edge">
<title>Node11&#45;&gt;Node12</title>
<path fill="none" stroke="midnightblue" d="M1302.94,-333.21C1345.82,-323.52 1401.06,-310.84 1450,-299 1452.88,-298.3 1455.84,-297.58 1458.82,-296.84"/>
<polygon fill="midnightblue" stroke="midnightblue" points="1302.14,-329.8 1293.16,-335.42 1303.68,-336.63 1302.14,-329.8"/>
</g>
<!-- Node13 -->
<g id="node13" class="node">
<title>Node13</title>
<g id="a_node13"><a xlink:href="_factory_8cpp.html" target="_top" xlink:title=" ">
<polygon fill="white" stroke="black" points="1573,-268.5 1573,-298.5 1683,-298.5 1683,-268.5 1573,-268.5"/>
<text text-anchor="start" x="1581" y="-286.5" font-family="Helvetica,sans-Serif" font-size="10.00">src/GameLogic/Units</text>
<text text-anchor="middle" x="1628" y="-275.5" font-family="Helvetica,sans-Serif" font-size="10.00">/Factory.cpp</text>
</a>
</g>
</g>
<!-- Node11&#45;&gt;Node13 -->
<g id="edge15" class="edge">
<title>Node11&#45;&gt;Node13</title>
<path fill="none" stroke="midnightblue" d="M1303.8,-339.91C1371.66,-330.72 1474.93,-315.8 1564,-299 1566.91,-298.45 1569.89,-297.86 1572.9,-297.25"/>
<polygon fill="midnightblue" stroke="midnightblue" points="1303.08,-336.48 1293.64,-341.28 1304.02,-343.41 1303.08,-336.48"/>
</g>
<!-- Node14 -->
<g id="node14" class="node">
<title>Node14</title>
<g id="a_node14"><a xlink:href="_squad_template_8h.html" target="_top" xlink:title=" ">
<polygon fill="white" stroke="black" points="1164.5,-268.5 1164.5,-298.5 1295.5,-298.5 1295.5,-268.5 1164.5,-268.5"/>
<text text-anchor="start" x="1172.5" y="-286.5" font-family="Helvetica,sans-Serif" font-size="10.00">include/GameLogic/Squad</text>
<text text-anchor="middle" x="1230" y="-275.5" font-family="Helvetica,sans-Serif" font-size="10.00">/SquadTemplate.h</text>
</a>
</g>
</g>
<!-- Node11&#45;&gt;Node14 -->
<g id="edge16" class="edge">
<title>Node11&#45;&gt;Node14</title>
<path fill="none" stroke="midnightblue" d="M1230,-325.11C1230,-316.15 1230,-306.32 1230,-298.58"/>
<polygon fill="midnightblue" stroke="midnightblue" points="1226.5,-325.4 1230,-335.4 1233.5,-325.4 1226.5,-325.4"/>
</g>
<!-- Node18 -->
<g id="node18" class="node">
<title>Node18</title>
<g id="a_node18"><a xlink:href="_all_units_8h.html" target="_top" xlink:title=" ">
<polygon fill="white" stroke="black" points="1313.5,-268.5 1313.5,-298.5 1440.5,-298.5 1440.5,-268.5 1313.5,-268.5"/>
<text text-anchor="start" x="1321.5" y="-286.5" font-family="Helvetica,sans-Serif" font-size="10.00">include/GameLogic/Units</text>
<text text-anchor="middle" x="1377" y="-275.5" font-family="Helvetica,sans-Serif" font-size="10.00">/AllUnits.h</text>
</a>
</g>
</g>
<!-- Node11&#45;&gt;Node18 -->
<g id="edge21" class="edge">
<title>Node11&#45;&gt;Node18</title>
<path fill="none" stroke="midnightblue" d="M1271.23,-331.27C1294.64,-320.92 1323.51,-308.15 1345.17,-298.58"/>
<polygon fill="midnightblue" stroke="midnightblue" points="1269.63,-328.15 1261.9,-335.4 1272.46,-334.55 1269.63,-328.15"/>
</g>
<!-- Node20 -->
<g id="node20" class="node">
<title>Node20</title>
<g id="a_node20"><a xlink:href="_armored_unit_factory_8h.html" target="_top" xlink:title=" ">
<polygon fill="white" stroke="black" points="676.5,-201.5 676.5,-231.5 803.5,-231.5 803.5,-201.5 676.5,-201.5"/>
<text text-anchor="start" x="684.5" y="-219.5" font-family="Helvetica,sans-Serif" font-size="10.00">include/GameLogic/Units</text>
<text text-anchor="middle" x="740" y="-208.5" font-family="Helvetica,sans-Serif" font-size="10.00">/ArmoredUnitFactory.h</text>
</a>
</g>
</g>
<!-- Node11&#45;&gt;Node20 -->
<g id="edge28" class="edge">
<title>Node11&#45;&gt;Node20</title>
<path fill="none" stroke="midnightblue" d="M1156.18,-344.02C1065.02,-336.44 915.8,-321.13 865,-299 845.02,-290.29 844.93,-280.4 827,-268 807.61,-254.59 784.48,-241.28 766.94,-231.69"/>
<polygon fill="midnightblue" stroke="midnightblue" points="1155.92,-347.51 1166.17,-344.84 1156.49,-340.53 1155.92,-347.51"/>
</g>
<!-- Node22 -->
<g id="node22" class="node">
<title>Node22</title>
<g id="a_node22"><a xlink:href="_land_unit_factory_8h.html" target="_top" xlink:title=" ">
<polygon fill="white" stroke="black" points="1019.5,-268.5 1019.5,-298.5 1146.5,-298.5 1146.5,-268.5 1019.5,-268.5"/>
<text text-anchor="start" x="1027.5" y="-286.5" font-family="Helvetica,sans-Serif" font-size="10.00">include/GameLogic/Units</text>
<text text-anchor="middle" x="1083" y="-275.5" font-family="Helvetica,sans-Serif" font-size="10.00">/LandUnitFactory.h</text>
</a>
</g>
</g>
<!-- Node11&#45;&gt;Node22 -->
<g id="edge31" class="edge">
<title>Node11&#45;&gt;Node22</title>
<path fill="none" stroke="midnightblue" d="M1188.77,-331.27C1165.36,-320.92 1136.49,-308.15 1114.83,-298.58"/>
<polygon fill="midnightblue" stroke="midnightblue" points="1187.54,-334.55 1198.1,-335.4 1190.37,-328.15 1187.54,-334.55"/>
</g>
<!-- Node24 -->
<g id="node24" class="node">
<title>Node24</title>
<g id="a_node24"><a xlink:href="_transport_unit_factory_8h.html" target="_top" xlink:title=" ">
<polygon fill="white" stroke="black" points="874.5,-268.5 874.5,-298.5 1001.5,-298.5 1001.5,-268.5 874.5,-268.5"/>
<text text-anchor="start" x="882.5" y="-286.5" font-family="Helvetica,sans-Serif" font-size="10.00">include/GameLogic/Units</text>
<text text-anchor="middle" x="938" y="-275.5" font-family="Helvetica,sans-Serif" font-size="10.00">/TransportUnitFactory.h</text>
</a>
</g>
</g>
<!-- Node11&#45;&gt;Node24 -->
<g id="edge34" class="edge">
<title>Node11&#45;&gt;Node24</title>
<path fill="none" stroke="midnightblue" d="M1156.99,-333.25C1109.05,-322.58 1046.95,-308.75 1001.14,-298.55"/>
<polygon fill="midnightblue" stroke="midnightblue" points="1156.48,-336.72 1167,-335.48 1158,-329.89 1156.48,-336.72"/>
</g>
<!-- Node15 -->
<g id="node15" class="node">
<title>Node15</title>
<g id="a_node15"><a xlink:href="_squad_template_8cpp.html" target="_top" xlink:title=" ">
<polygon fill="white" stroke="black" points="1173,-201.5 1173,-231.5 1287,-231.5 1287,-201.5 1173,-201.5"/>
<text text-anchor="start" x="1181" y="-219.5" font-family="Helvetica,sans-Serif" font-size="10.00">src/GameLogic/Squad</text>
<text text-anchor="middle" x="1230" y="-208.5" font-family="Helvetica,sans-Serif" font-size="10.00">/SquadTemplate.cpp</text>
</a>
</g>
</g>
<!-- Node14&#45;&gt;Node15 -->
<g id="edge17" class="edge">
<title>Node14&#45;&gt;Node15</title>
<path fill="none" stroke="midnightblue" d="M1230,-258.11C1230,-249.15 1230,-239.32 1230,-231.58"/>
<polygon fill="midnightblue" stroke="midnightblue" points="1226.5,-258.4 1230,-268.4 1233.5,-258.4 1226.5,-258.4"/>
</g>
<!-- Node16 -->
<g id="node16" class="node">
<title>Node16</title>
<g id="a_node16"><a xlink:href="_all_squad_templates_8h.html" target="_top" xlink:title=" ">
<polygon fill="white" stroke="black" points="1343.5,-201.5 1343.5,-231.5 1474.5,-231.5 1474.5,-201.5 1343.5,-201.5"/>
<text text-anchor="start" x="1351.5" y="-219.5" font-family="Helvetica,sans-Serif" font-size="10.00">include/GameLogic/Squad</text>
<text text-anchor="middle" x="1409" y="-208.5" font-family="Helvetica,sans-Serif" font-size="10.00">/AllSquadTemplates.h</text>
</a>
</g>
</g>
<!-- Node14&#45;&gt;Node16 -->
<g id="edge18" class="edge">
<title>Node14&#45;&gt;Node16</title>
<path fill="none" stroke="midnightblue" d="M1278.32,-264.96C1307.15,-254.48 1343.28,-241.37 1370.24,-231.58"/>
<polygon fill="midnightblue" stroke="midnightblue" points="1277.05,-261.69 1268.84,-268.4 1279.43,-268.27 1277.05,-261.69"/>
</g>
<!-- Node16&#45;&gt;Node8 -->
<g id="edge20" class="edge">
<title>Node16&#45;&gt;Node8</title>
<path fill="none" stroke="midnightblue" d="M1484.88,-202.1C1558.09,-189.17 1666.69,-169.98 1728.78,-159.02"/>
<polygon fill="midnightblue" stroke="midnightblue" points="1484.03,-198.69 1474.79,-203.88 1485.25,-205.59 1484.03,-198.69"/>
</g>
<!-- Node17 -->
<g id="node17" class="node">
<title>Node17</title>
<g id="a_node17"><a xlink:href="_all_squad_templates_8cpp.html" target="_top" xlink:title=" ">
<polygon fill="white" stroke="black" points="1348,-134.5 1348,-164.5 1470,-164.5 1470,-134.5 1348,-134.5"/>
<text text-anchor="start" x="1356" y="-152.5" font-family="Helvetica,sans-Serif" font-size="10.00">src/GameLogic/Squad</text>
<text text-anchor="middle" x="1409" y="-141.5" font-family="Helvetica,sans-Serif" font-size="10.00">/AllSquadTemplates.cpp</text>
</a>
</g>
</g>
<!-- Node16&#45;&gt;Node17 -->
<g id="edge19" class="edge">
<title>Node16&#45;&gt;Node17</title>
<path fill="none" stroke="midnightblue" d="M1409,-191.11C1409,-182.15 1409,-172.32 1409,-164.58"/>
<polygon fill="midnightblue" stroke="midnightblue" points="1405.5,-191.4 1409,-201.4 1412.5,-191.4 1405.5,-191.4"/>
</g>
<!-- Node18&#45;&gt;Node4 -->
<g id="edge22" class="edge">
<title>Node18&#45;&gt;Node4</title>
<path fill="none" stroke="midnightblue" d="M1440.53,-265.92C1481.16,-255.31 1533.3,-241.7 1571.94,-231.61"/>
<polygon fill="midnightblue" stroke="midnightblue" points="1439.51,-262.56 1430.72,-268.48 1441.28,-269.34 1439.51,-262.56"/>
</g>
<!-- Node18&#45;&gt;Node8 -->
<g id="edge26" class="edge">
<title>Node18&#45;&gt;Node8</title>
<path fill="none" stroke="midnightblue" d="M1435.95,-265.29C1461.55,-256.8 1491.47,-245.47 1517,-232 1537.84,-221.01 1538.55,-210.75 1560,-201 1608.77,-178.83 1668.28,-165.87 1712.64,-158.64"/>
<polygon fill="midnightblue" stroke="midnightblue" points="1434.79,-261.99 1426.36,-268.41 1436.96,-268.65 1434.79,-261.99"/>
</g>
<!-- Node18&#45;&gt;Node10 -->
<g id="edge25" class="edge">
<title>Node18&#45;&gt;Node10</title>
<path fill="none" stroke="midnightblue" d="M1440.72,-264.31C1457.05,-256.78 1473.07,-246.34 1484,-232 1517.17,-188.5 1513.51,-117.05 1511.05,-92.28"/>
<polygon fill="midnightblue" stroke="midnightblue" points="1438.93,-261.27 1431.11,-268.42 1441.68,-267.71 1438.93,-261.27"/>
</g>
<!-- Node18&#45;&gt;Node15 -->
<g id="edge23" class="edge">
<title>Node18&#45;&gt;Node15</title>
<path fill="none" stroke="midnightblue" d="M1335.77,-264.27C1312.36,-253.92 1283.49,-241.15 1261.83,-231.58"/>
<polygon fill="midnightblue" stroke="midnightblue" points="1334.54,-267.55 1345.1,-268.4 1337.37,-261.15 1334.54,-267.55"/>
</g>
<!-- Node18&#45;&gt;Node16 -->
<g id="edge27" class="edge">
<title>Node18&#45;&gt;Node16</title>
<path fill="none" stroke="midnightblue" d="M1388.43,-259.28C1392.99,-250.02 1398.09,-239.66 1402.07,-231.58"/>
<polygon fill="midnightblue" stroke="midnightblue" points="1385.22,-257.88 1383.94,-268.4 1391.5,-260.97 1385.22,-257.88"/>
</g>
<!-- Node19 -->
<g id="node19" class="node">
<title>Node19</title>
<g id="a_node19"><a xlink:href="_all_units_8cpp.html" target="_top" xlink:title=" ">
<polygon fill="white" stroke="black" points="1007,-134.5 1007,-164.5 1117,-164.5 1117,-134.5 1007,-134.5"/>
<text text-anchor="start" x="1015" y="-152.5" font-family="Helvetica,sans-Serif" font-size="10.00">src/GameLogic/Units</text>
<text text-anchor="middle" x="1062" y="-141.5" font-family="Helvetica,sans-Serif" font-size="10.00">/AllUnits.cpp</text>
</a>
</g>
</g>
<!-- Node18&#45;&gt;Node19 -->
<g id="edge24" class="edge">
<title>Node18&#45;&gt;Node19</title>
<path fill="none" stroke="midnightblue" d="M1357.77,-260.5C1338.63,-239.1 1310.12,-208.72 1296,-201 1239.85,-170.29 1166.57,-158.25 1117.1,-153.53"/>
<polygon fill="midnightblue" stroke="midnightblue" points="1355.35,-263.03 1364.6,-268.19 1360.58,-258.39 1355.35,-263.03"/>
</g>
<!-- Node20&#45;&gt;Node19 -->
<g id="edge29" class="edge">
<title>Node20&#45;&gt;Node19</title>
<path fill="none" stroke="midnightblue" d="M813.59,-200.65C872.39,-188.78 953.51,-172.4 1006.83,-161.64"/>
<polygon fill="midnightblue" stroke="midnightblue" points="812.73,-197.25 803.62,-202.66 814.11,-204.11 812.73,-197.25"/>
</g>
<!-- Node21 -->
<g id="node21" class="node">
<title>Node21</title>
<g id="a_node21"><a xlink:href="_armored_unit_factory_8cpp.html" target="_top" xlink:title=" ">
<polygon fill="white" stroke="black" points="677.5,-134.5 677.5,-164.5 802.5,-164.5 802.5,-134.5 677.5,-134.5"/>
<text text-anchor="start" x="685.5" y="-152.5" font-family="Helvetica,sans-Serif" font-size="10.00">src/GameLogic/Units</text>
<text text-anchor="middle" x="740" y="-141.5" font-family="Helvetica,sans-Serif" font-size="10.00">/ArmoredUnitFactory.cpp</text>
</a>
</g>
</g>
<!-- Node20&#45;&gt;Node21 -->
<g id="edge30" class="edge">
<title>Node20&#45;&gt;Node21</title>
<path fill="none" stroke="midnightblue" d="M740,-191.11C740,-182.15 740,-172.32 740,-164.58"/>
<polygon fill="midnightblue" stroke="midnightblue" points="736.5,-191.4 740,-201.4 743.5,-191.4 736.5,-191.4"/>
</g>
<!-- Node22&#45;&gt;Node19 -->
<g id="edge32" class="edge">
<title>Node22&#45;&gt;Node19</title>
<path fill="none" stroke="midnightblue" d="M1107,-261.14C1114.59,-252.88 1122.02,-242.81 1126,-232 1130.76,-219.07 1132.01,-213.4 1126,-201 1118.41,-185.33 1103.34,-173.06 1089.72,-164.54"/>
<polygon fill="midnightblue" stroke="midnightblue" points="1104.31,-258.89 1099.8,-268.47 1109.3,-263.8 1104.31,-258.89"/>
</g>
<!-- Node23 -->
<g id="node23" class="node">
<title>Node23</title>
<g id="a_node23"><a xlink:href="_land_unit_factory_8cpp.html" target="_top" xlink:title=" ">
<polygon fill="white" stroke="black" points="1007,-201.5 1007,-231.5 1117,-231.5 1117,-201.5 1007,-201.5"/>
<text text-anchor="start" x="1015" y="-219.5" font-family="Helvetica,sans-Serif" font-size="10.00">src/GameLogic/Units</text>
<text text-anchor="middle" x="1062" y="-208.5" font-family="Helvetica,sans-Serif" font-size="10.00">/LandUnitFactory.cpp</text>
</a>
</g>
</g>
<!-- Node22&#45;&gt;Node23 -->
<g id="edge33" class="edge">
<title>Node22&#45;&gt;Node23</title>
<path fill="none" stroke="midnightblue" d="M1075.31,-258.7C1072.37,-249.59 1069.11,-239.49 1066.55,-231.58"/>
<polygon fill="midnightblue" stroke="midnightblue" points="1072.04,-259.96 1078.44,-268.4 1078.7,-257.8 1072.04,-259.96"/>
</g>
<!-- Node24&#45;&gt;Node19 -->
<g id="edge35" class="edge">
<title>Node24&#45;&gt;Node19</title>
<path fill="none" stroke="midnightblue" d="M952.44,-259.59C963.76,-242.52 980.48,-219.12 998,-201 1011.18,-187.37 1028.1,-174.17 1041.23,-164.69"/>
<polygon fill="midnightblue" stroke="midnightblue" points="949.26,-258.07 946.73,-268.36 955.12,-261.88 949.26,-258.07"/>
</g>
<!-- Node24&#45;&gt;Node20 -->
<g id="edge37" class="edge">
<title>Node24&#45;&gt;Node20</title>
<path fill="none" stroke="midnightblue" d="M885.39,-265.23C853.36,-254.71 812.96,-241.45 782.88,-231.58"/>
<polygon fill="midnightblue" stroke="midnightblue" points="884.44,-268.6 895.04,-268.4 886.63,-261.95 884.44,-268.6"/>
</g>
<!-- Node25 -->
<g id="node25" class="node">
<title>Node25</title>
<g id="a_node25"><a xlink:href="_transport_unit_factory_8cpp.html" target="_top" xlink:title=" ">
<polygon fill="white" stroke="black" points="821.5,-201.5 821.5,-231.5 950.5,-231.5 950.5,-201.5 821.5,-201.5"/>
<text text-anchor="start" x="829.5" y="-219.5" font-family="Helvetica,sans-Serif" font-size="10.00">src/GameLogic/Units</text>
<text text-anchor="middle" x="886" y="-208.5" font-family="Helvetica,sans-Serif" font-size="10.00">/TransportUnitFactory.cpp</text>
</a>
</g>
</g>
<!-- Node24&#45;&gt;Node25 -->
<g id="edge36" class="edge">
<title>Node24&#45;&gt;Node25</title>
<path fill="none" stroke="midnightblue" d="M920.36,-260.45C912.72,-250.9 904,-240 897.26,-231.58"/>
<polygon fill="midnightblue" stroke="midnightblue" points="917.74,-262.77 926.72,-268.4 923.2,-258.4 917.74,-262.77"/>
</g>
<!-- Node26&#45;&gt;Node2 -->
<g id="edge39" class="edge">
<title>Node26&#45;&gt;Node2</title>
<path fill="none" stroke="midnightblue" d="M1731.36,-70.9C1723.6,-69.39 1715.59,-68.01 1708,-67 1398.6,-25.87 1023.76,-18.22 883.03,-16.81"/>
<polygon fill="midnightblue" stroke="midnightblue" points="1730.87,-74.38 1741.36,-72.95 1732.27,-67.52 1730.87,-74.38"/>
</g>
<!-- Node27 -->
<g id="node27" class="node">
<title>Node27</title>
<g id="a_node27"><a xlink:href="pathfinding_8cpp.html" target="_top" xlink:title=" ">
<polygon fill="white" stroke="black" points="1720.5,-6 1720.5,-25 1833.5,-25 1833.5,-6 1720.5,-6"/>
<text text-anchor="middle" x="1777" y="-13" font-family="Helvetica,sans-Serif" font-size="10.00">src/util/pathfinding.cpp</text>
</a>
</g>
</g>
<!-- Node26&#45;&gt;Node27 -->
<g id="edge40" class="edge">
<title>Node26&#45;&gt;Node27</title>
<path fill="none" stroke="midnightblue" d="M1777,-62.54C1777,-50.17 1777,-34.62 1777,-25.13"/>
<polygon fill="midnightblue" stroke="midnightblue" points="1773.5,-62.73 1777,-72.73 1780.5,-62.73 1773.5,-62.73"/>
</g>
<!-- Node28&#45;&gt;Node3 -->
<g id="edge45" class="edge">
<title>Node28&#45;&gt;Node3</title>
<path fill="none" stroke="midnightblue" d="M637.09,-422.23C859.62,-433.72 1519.41,-468.5 1730.39,-479.87"/>
<polygon fill="midnightblue" stroke="midnightblue" points="637,-418.72 626.83,-421.7 636.63,-425.71 637,-418.72"/>
</g>
<!-- Node28&#45;&gt;Node11 -->
<g id="edge51" class="edge">
<title>Node28&#45;&gt;Node11</title>
<path fill="none" stroke="midnightblue" d="M636.65,-409.32C768.33,-396.49 1041.94,-369.83 1166.17,-357.72"/>
<polygon fill="midnightblue" stroke="midnightblue" points="636.27,-405.84 626.65,-410.3 636.94,-412.81 636.27,-405.84"/>
</g>
<!-- Node29 -->
<g id="node29" class="node">
<title>Node29</title>
<g id="a_node29"><a xlink:href="_unit_8cpp.html" target="_top" xlink:title=" ">
<polygon fill="white" stroke="black" points="306,-268.5 306,-298.5 416,-298.5 416,-268.5 306,-268.5"/>
<text text-anchor="start" x="314" y="-286.5" font-family="Helvetica,sans-Serif" font-size="10.00">src/GameLogic/Units</text>
<text text-anchor="middle" x="361" y="-275.5" font-family="Helvetica,sans-Serif" font-size="10.00">/Unit.cpp</text>
</a>
</g>
</g>
<!-- Node28&#45;&gt;Node29 -->
<g id="edge44" class="edge">
<title>Node28&#45;&gt;Node29</title>
<path fill="none" stroke="midnightblue" d="M532.84,-396.79C491.59,-369.84 418.58,-322.13 382.46,-298.52"/>
<polygon fill="midnightblue" stroke="midnightblue" points="531.1,-399.83 541.38,-402.37 534.93,-393.97 531.1,-399.83"/>
</g>
<!-- Node30 -->
<g id="node30" class="node">
<title>Node30</title>
<g id="a_node30"><a xlink:href="_squad_order_8h.html" target="_top" xlink:title=" ">
<polygon fill="white" stroke="black" points="28.5,-268.5 28.5,-298.5 159.5,-298.5 159.5,-268.5 28.5,-268.5"/>
<text text-anchor="start" x="36.5" y="-286.5" font-family="Helvetica,sans-Serif" font-size="10.00">include/GameLogic/Squad</text>
<text text-anchor="middle" x="94" y="-275.5" font-family="Helvetica,sans-Serif" font-size="10.00">/SquadOrder.h</text>
</a>
</g>
</g>
<!-- Node28&#45;&gt;Node30 -->
<g id="edge46" class="edge">
<title>Node28&#45;&gt;Node30</title>
<path fill="none" stroke="midnightblue" d="M489.1,-407.35C433.15,-399.37 354.78,-385.91 288,-366 227.08,-347.84 159.35,-316.72 122.21,-298.64"/>
<polygon fill="midnightblue" stroke="midnightblue" points="488.89,-410.86 499.28,-408.78 489.87,-403.92 488.89,-410.86"/>
</g>
<!-- Node32 -->
<g id="node32" class="node">
<title>Node32</title>
<g id="a_node32"><a xlink:href="_armored_unit_8h.html" target="_top" xlink:title=" ">
<polygon fill="white" stroke="black" points="434.5,-268.5 434.5,-298.5 561.5,-298.5 561.5,-268.5 434.5,-268.5"/>
<text text-anchor="start" x="442.5" y="-286.5" font-family="Helvetica,sans-Serif" font-size="10.00">include/GameLogic/Units</text>
<text text-anchor="middle" x="498" y="-275.5" font-family="Helvetica,sans-Serif" font-size="10.00">/ArmoredUnit.h</text>
</a>
</g>
</g>
<!-- Node28&#45;&gt;Node32 -->
<g id="edge48" class="edge">
<title>Node28&#45;&gt;Node32</title>
<path fill="none" stroke="midnightblue" d="M551.48,-393.12C537.98,-365.68 516.02,-321.09 504.91,-298.52"/>
<polygon fill="midnightblue" stroke="midnightblue" points="548.49,-394.95 556.04,-402.37 554.77,-391.86 548.49,-394.95"/>
</g>
<!-- Node34 -->
<g id="node34" class="node">
<title>Node34</title>
<g id="a_node34"><a xlink:href="_land_unit_8h.html" target="_top" xlink:title=" ">
<polygon fill="white" stroke="black" points="699.5,-335.5 699.5,-365.5 826.5,-365.5 826.5,-335.5 699.5,-335.5"/>
<text text-anchor="start" x="707.5" y="-353.5" font-family="Helvetica,sans-Serif" font-size="10.00">include/GameLogic/Units</text>
<text text-anchor="middle" x="763" y="-342.5" font-family="Helvetica,sans-Serif" font-size="10.00">/LandUnit.h</text>
</a>
</g>
</g>
<!-- Node28&#45;&gt;Node34 -->
<g id="edge52" class="edge">
<title>Node28&#45;&gt;Node34</title>
<path fill="none" stroke="midnightblue" d="M616.15,-399.23C648.5,-388.71 689.31,-375.45 719.69,-365.58"/>
<polygon fill="midnightblue" stroke="midnightblue" points="614.83,-395.98 606.4,-402.4 616.99,-402.63 614.83,-395.98"/>
</g>
<!-- Node36 -->
<g id="node36" class="node">
<title>Node36</title>
<g id="a_node36"><a xlink:href="_transport_unit_8h.html" target="_top" xlink:title=" ">
<polygon fill="white" stroke="black" points="550.5,-335.5 550.5,-365.5 677.5,-365.5 677.5,-335.5 550.5,-335.5"/>
<text text-anchor="start" x="558.5" y="-353.5" font-family="Helvetica,sans-Serif" font-size="10.00">include/GameLogic/Units</text>
<text text-anchor="middle" x="614" y="-342.5" font-family="Helvetica,sans-Serif" font-size="10.00">/TransportUnit.h</text>
</a>
</g>
</g>
<!-- Node28&#45;&gt;Node36 -->
<g id="edge55" class="edge">
<title>Node28&#45;&gt;Node36</title>
<path fill="none" stroke="midnightblue" d="M580.3,-394.45C587.79,-384.9 596.34,-374 602.96,-365.58"/>
<polygon fill="midnightblue" stroke="midnightblue" points="577.49,-392.37 574.07,-402.4 582.99,-396.69 577.49,-392.37"/>
</g>
<!-- Node38 -->
<g id="node38" class="node">
<title>Node38</title>
<g id="a_node38"><a xlink:href="_unit_order_8h.html" target="_top" xlink:title=" ">
<polygon fill="white" stroke="black" points="297.5,-335.5 297.5,-365.5 424.5,-365.5 424.5,-335.5 297.5,-335.5"/>
<text text-anchor="start" x="305.5" y="-353.5" font-family="Helvetica,sans-Serif" font-size="10.00">include/GameLogic/Units</text>
<text text-anchor="middle" x="361" y="-342.5" font-family="Helvetica,sans-Serif" font-size="10.00">/UnitOrder.h</text>
</a>
</g>
</g>
<!-- Node28&#45;&gt;Node38 -->
<g id="edge59" class="edge">
<title>Node28&#45;&gt;Node38</title>
<path fill="none" stroke="midnightblue" d="M503.97,-399.44C470.16,-388.91 428.76,-375.55 399.17,-365.61"/>
<polygon fill="midnightblue" stroke="midnightblue" points="503.16,-402.86 513.75,-402.48 505.24,-396.17 503.16,-402.86"/>
</g>
<!-- Node31 -->
<g id="node31" class="node">
<title>Node31</title>
<g id="a_node31"><a xlink:href="_squad_order_8cpp.html" target="_top" xlink:title=" ">
<polygon fill="white" stroke="black" points="37,-201.5 37,-231.5 151,-231.5 151,-201.5 37,-201.5"/>
<text text-anchor="start" x="45" y="-219.5" font-family="Helvetica,sans-Serif" font-size="10.00">src/GameLogic/Squad</text>
<text text-anchor="middle" x="94" y="-208.5" font-family="Helvetica,sans-Serif" font-size="10.00">/SquadOrder.cpp</text>
</a>
</g>
</g>
<!-- Node30&#45;&gt;Node31 -->
<g id="edge47" class="edge">
<title>Node30&#45;&gt;Node31</title>
<path fill="none" stroke="midnightblue" d="M94,-258.11C94,-249.15 94,-239.32 94,-231.58"/>
<polygon fill="midnightblue" stroke="midnightblue" points="90.5,-258.4 94,-268.4 97.5,-258.4 90.5,-258.4"/>
</g>
<!-- Node32&#45;&gt;Node20 -->
<g id="edge50" class="edge">
<title>Node32&#45;&gt;Node20</title>
<path fill="none" stroke="midnightblue" d="M559.99,-265.85C599.45,-255.25 649.99,-241.68 687.46,-231.61"/>
<polygon fill="midnightblue" stroke="midnightblue" points="558.96,-262.5 550.21,-268.48 560.78,-269.26 558.96,-262.5"/>
</g>
<!-- Node33 -->
<g id="node33" class="node">
<title>Node33</title>
<g id="a_node33"><a xlink:href="_armored_unit_8cpp.html" target="_top" xlink:title=" ">
<polygon fill="white" stroke="black" points="443,-201.5 443,-231.5 553,-231.5 553,-201.5 443,-201.5"/>
<text text-anchor="start" x="451" y="-219.5" font-family="Helvetica,sans-Serif" font-size="10.00">src/GameLogic/Units</text>
<text text-anchor="middle" x="498" y="-208.5" font-family="Helvetica,sans-Serif" font-size="10.00">/ArmoredUnit.cpp</text>
</a>
</g>
</g>
<!-- Node32&#45;&gt;Node33 -->
<g id="edge49" class="edge">
<title>Node32&#45;&gt;Node33</title>
<path fill="none" stroke="midnightblue" d="M498,-258.11C498,-249.15 498,-239.32 498,-231.58"/>
<polygon fill="midnightblue" stroke="midnightblue" points="494.5,-258.4 498,-268.4 501.5,-258.4 494.5,-258.4"/>
</g>
<!-- Node34&#45;&gt;Node22 -->
<g id="edge54" class="edge">
<title>Node34&#45;&gt;Node22</title>
<path fill="none" stroke="midnightblue" d="M836.67,-334.54C891.86,-323.33 966.61,-308.14 1019.24,-297.45"/>
<polygon fill="midnightblue" stroke="midnightblue" points="835.71,-331.16 826.6,-336.58 837.1,-338.02 835.71,-331.16"/>
</g>
<!-- Node35 -->
<g id="node35" class="node">
<title>Node35</title>
<g id="a_node35"><a xlink:href="_land_unit_8cpp.html" target="_top" xlink:title=" ">
<polygon fill="white" stroke="black" points="708,-268.5 708,-298.5 818,-298.5 818,-268.5 708,-268.5"/>
<text text-anchor="start" x="716" y="-286.5" font-family="Helvetica,sans-Serif" font-size="10.00">src/GameLogic/Units</text>
<text text-anchor="middle" x="763" y="-275.5" font-family="Helvetica,sans-Serif" font-size="10.00">/LandUnit.cpp</text>
</a>
</g>
</g>
<!-- Node34&#45;&gt;Node35 -->
<g id="edge53" class="edge">
<title>Node34&#45;&gt;Node35</title>
<path fill="none" stroke="midnightblue" d="M763,-325.11C763,-316.15 763,-306.32 763,-298.58"/>
<polygon fill="midnightblue" stroke="midnightblue" points="759.5,-325.4 763,-335.4 766.5,-325.4 759.5,-325.4"/>
</g>
<!-- Node36&#45;&gt;Node24 -->
<g id="edge58" class="edge">
<title>Node36&#45;&gt;Node24</title>
<path fill="none" stroke="midnightblue" d="M687.53,-334.75C743.78,-323.46 820.57,-308.06 874.24,-297.29"/>
<polygon fill="midnightblue" stroke="midnightblue" points="686.74,-331.34 677.63,-336.74 688.12,-338.2 686.74,-331.34"/>
</g>
<!-- Node36&#45;&gt;Node32 -->
<g id="edge57" class="edge">
<title>Node36&#45;&gt;Node32</title>
<path fill="none" stroke="midnightblue" d="M579.73,-330.3C561.58,-320.12 539.68,-307.85 523.12,-298.58"/>
<polygon fill="midnightblue" stroke="midnightblue" points="578.4,-333.56 588.83,-335.4 581.82,-327.45 578.4,-333.56"/>
</g>
<!-- Node37 -->
<g id="node37" class="node">
<title>Node37</title>
<g id="a_node37"><a xlink:href="_transport_unit_8cpp.html" target="_top" xlink:title=" ">
<polygon fill="white" stroke="black" points="580,-268.5 580,-298.5 690,-298.5 690,-268.5 580,-268.5"/>
<text text-anchor="start" x="588" y="-286.5" font-family="Helvetica,sans-Serif" font-size="10.00">src/GameLogic/Units</text>
<text text-anchor="middle" x="635" y="-275.5" font-family="Helvetica,sans-Serif" font-size="10.00">/TransportUnit.cpp</text>
</a>
</g>
</g>
<!-- Node36&#45;&gt;Node37 -->
<g id="edge56" class="edge">
<title>Node36&#45;&gt;Node37</title>
<path fill="none" stroke="midnightblue" d="M621.69,-325.7C624.63,-316.59 627.89,-306.49 630.45,-298.58"/>
<polygon fill="midnightblue" stroke="midnightblue" points="618.3,-324.8 618.56,-335.4 624.96,-326.96 618.3,-324.8"/>
</g>
<!-- Node38&#45;&gt;Node28 -->
<g id="edge63" class="edge">
<title>Node38&#45;&gt;Node28</title>
<path fill="none" stroke="midnightblue" d="M420.19,-368.61C453.99,-379.14 495.31,-392.47 524.85,-402.4"/>
<polygon fill="midnightblue" stroke="midnightblue" points="421.01,-365.2 410.42,-365.58 418.93,-371.88 421.01,-365.2"/>
</g>
<!-- Node38&#45;&gt;Node29 -->
<g id="edge60" class="edge">
<title>Node38&#45;&gt;Node29</title>
<path fill="none" stroke="midnightblue" d="M361,-325.11C361,-316.15 361,-306.32 361,-298.58"/>
<polygon fill="midnightblue" stroke="midnightblue" points="357.5,-325.4 361,-335.4 364.5,-325.4 357.5,-325.4"/>
</g>
<!-- Node38&#45;&gt;Node30 -->
<g id="edge62" class="edge">
<title>Node38&#45;&gt;Node30</title>
<path fill="none" stroke="midnightblue" d="M293.43,-333.05C249.78,-322.43 193.58,-308.74 151.96,-298.61"/>
<polygon fill="midnightblue" stroke="midnightblue" points="292.85,-336.51 303.39,-335.48 294.51,-329.71 292.85,-336.51"/>
</g>
<!-- Node39 -->
<g id="node39" class="node">
<title>Node39</title>
<g id="a_node39"><a xlink:href="_unit_order_8cpp.html" target="_top" xlink:title=" ">
<polygon fill="white" stroke="black" points="178,-268.5 178,-298.5 288,-298.5 288,-268.5 178,-268.5"/>
<text text-anchor="start" x="186" y="-286.5" font-family="Helvetica,sans-Serif" font-size="10.00">src/GameLogic/Units</text>
<text text-anchor="middle" x="233" y="-275.5" font-family="Helvetica,sans-Serif" font-size="10.00">/UnitOrder.cpp</text>
</a>
</g>
</g>
<!-- Node38&#45;&gt;Node39 -->
<g id="edge61" class="edge">
<title>Node38&#45;&gt;Node39</title>
<path fill="none" stroke="midnightblue" d="M324.28,-330.85C304.04,-320.58 279.33,-308.03 260.72,-298.58"/>
<polygon fill="midnightblue" stroke="midnightblue" points="322.72,-333.99 333.23,-335.4 325.89,-327.75 322.72,-333.99"/>
</g>
</g>
</svg>
