<?xml version="1.0" encoding="UTF-8" standalone="no"?>
<!DOCTYPE svg PUBLIC "-//W3C//DTD SVG 1.1//EN"
 "http://www.w3.org/Graphics/SVG/1.1/DTD/svg11.dtd">
<!-- Generated by graphviz version 2.47.1 (20210421.1823)
 -->
<!-- Title: include/engine/GUI/GuiScroll.h Pages: 1 -->
<svg width="1941pt" height="709pt"
 viewBox="0.00 0.00 1941.00 709.00" xmlns="http://www.w3.org/2000/svg" xmlns:xlink="http://www.w3.org/1999/xlink">
<g id="graph0" class="graph" transform="scale(1 1) rotate(0) translate(4 705)">
<title>include/engine/GUI/GuiScroll.h</title>
<polygon fill="white" stroke="transparent" points="-4,4 -4,-705 1937,-705 1937,4 -4,4"/>
<!-- Node1 -->
<g id="node1" class="node">
<title>Node1</title>
<g id="a_node1"><a xlink:title=" ">
<polygon fill="#bfbfbf" stroke="black" points="121.5,-670.5 121.5,-700.5 221.5,-700.5 221.5,-670.5 121.5,-670.5"/>
<text text-anchor="start" x="129.5" y="-688.5" font-family="Helvetica,sans-Serif" font-size="10.00">include/engine/GUI</text>
<text text-anchor="middle" x="171.5" y="-677.5" font-family="Helvetica,sans-Serif" font-size="10.00">/GuiScroll.h</text>
</a>
</g>
</g>
<!-- Node2 -->
<g id="node2" class="node">
<title>Node2</title>
<g id="a_node2"><a xlink:href="_gui_scroll_8cpp.html" target="_top" xlink:title=" ">
<polygon fill="white" stroke="black" points="0,-609 0,-628 143,-628 143,-609 0,-609"/>
<text text-anchor="middle" x="71.5" y="-616" font-family="Helvetica,sans-Serif" font-size="10.00">src/engine/GUI/GuiScroll.cpp</text>
</a>
</g>
</g>
<!-- Node1&#45;&gt;Node2 -->
<g id="edge1" class="edge">
<title>Node1&#45;&gt;Node2</title>
<path fill="none" stroke="midnightblue" d="M141.2,-664.81C122.29,-652.51 98.89,-637.3 84.59,-628.01"/>
<polygon fill="midnightblue" stroke="midnightblue" points="139.51,-667.88 149.8,-670.4 143.32,-662.01 139.51,-667.88"/>
</g>
<!-- Node3 -->
<g id="node3" class="node">
<title>Node3</title>
<g id="a_node3"><a xlink:href="_squad_template_8cpp.html" target="_top" xlink:title=" ">
<polygon fill="white" stroke="black" points="152.5,-67.5 152.5,-97.5 266.5,-97.5 266.5,-67.5 152.5,-67.5"/>
<text text-anchor="start" x="160.5" y="-85.5" font-family="Helvetica,sans-Serif" font-size="10.00">src/GameLogic/Squad</text>
<text text-anchor="middle" x="209.5" y="-74.5" font-family="Helvetica,sans-Serif" font-size="10.00">/SquadTemplate.cpp</text>
</a>
</g>
</g>
<!-- Node1&#45;&gt;Node3 -->
<g id="edge2" class="edge">
<title>Node1&#45;&gt;Node3</title>
<path fill="none" stroke="midnightblue" d="M171.5,-659.99C171.5,-633.49 171.5,-590 171.5,-552.5 171.5,-552.5 171.5,-552.5 171.5,-215.5 171.5,-171.14 191.56,-121.56 202.53,-97.76"/>
<polygon fill="midnightblue" stroke="midnightblue" points="168,-660.24 171.5,-670.24 175,-660.24 168,-660.24"/>
</g>
<!-- Node4 -->
<g id="node4" class="node">
<title>Node4</title>
<g id="a_node4"><a xlink:href="_squad_template_8h.html" target="_top" xlink:title=" ">
<polygon fill="white" stroke="black" points="241,-603.5 241,-633.5 372,-633.5 372,-603.5 241,-603.5"/>
<text text-anchor="start" x="249" y="-621.5" font-family="Helvetica,sans-Serif" font-size="10.00">include/GameLogic/Squad</text>
<text text-anchor="middle" x="306.5" y="-610.5" font-family="Helvetica,sans-Serif" font-size="10.00">/SquadTemplate.h</text>
</a>
</g>
</g>
<!-- Node1&#45;&gt;Node4 -->
<g id="edge3" class="edge">
<title>Node1&#45;&gt;Node4</title>
<path fill="none" stroke="midnightblue" d="M209.94,-665.99C231.34,-655.69 257.55,-643.07 277.26,-633.58"/>
<polygon fill="midnightblue" stroke="midnightblue" points="208.28,-662.9 200.79,-670.4 211.32,-669.21 208.28,-662.9"/>
</g>
<!-- Node4&#45;&gt;Node3 -->
<g id="edge4" class="edge">
<title>Node4&#45;&gt;Node3</title>
<path fill="none" stroke="midnightblue" d="M278.31,-597C249.67,-573.56 209.5,-532.35 209.5,-485.5 209.5,-485.5 209.5,-485.5 209.5,-215.5 209.5,-172.65 209.5,-121.97 209.5,-97.76"/>
<polygon fill="midnightblue" stroke="midnightblue" points="276.39,-599.94 286.4,-603.4 280.73,-594.45 276.39,-599.94"/>
</g>
<!-- Node5 -->
<g id="node5" class="node">
<title>Node5</title>
<g id="a_node5"><a xlink:href="_all_squad_templates_8h.html" target="_top" xlink:title=" ">
<polygon fill="white" stroke="black" points="282,-536.5 282,-566.5 413,-566.5 413,-536.5 282,-536.5"/>
<text text-anchor="start" x="290" y="-554.5" font-family="Helvetica,sans-Serif" font-size="10.00">include/GameLogic/Squad</text>
<text text-anchor="middle" x="347.5" y="-543.5" font-family="Helvetica,sans-Serif" font-size="10.00">/AllSquadTemplates.h</text>
</a>
</g>
</g>
<!-- Node4&#45;&gt;Node5 -->
<g id="edge5" class="edge">
<title>Node4&#45;&gt;Node5</title>
<path fill="none" stroke="midnightblue" d="M320.78,-594.87C326.71,-585.46 333.41,-574.83 338.62,-566.58"/>
<polygon fill="midnightblue" stroke="midnightblue" points="317.77,-593.07 315.4,-603.4 323.69,-596.81 317.77,-593.07"/>
</g>
<!-- Node6 -->
<g id="node6" class="node">
<title>Node6</title>
<g id="a_node6"><a xlink:href="_all_squad_templates_8cpp.html" target="_top" xlink:title=" ">
<polygon fill="white" stroke="black" points="329.5,-469.5 329.5,-499.5 451.5,-499.5 451.5,-469.5 329.5,-469.5"/>
<text text-anchor="start" x="337.5" y="-487.5" font-family="Helvetica,sans-Serif" font-size="10.00">src/GameLogic/Squad</text>
<text text-anchor="middle" x="390.5" y="-476.5" font-family="Helvetica,sans-Serif" font-size="10.00">/AllSquadTemplates.cpp</text>
</a>
</g>
</g>
<!-- Node5&#45;&gt;Node6 -->
<g id="edge6" class="edge">
<title>Node5&#45;&gt;Node6</title>
<path fill="none" stroke="midnightblue" d="M362.47,-527.87C368.7,-518.46 375.73,-507.83 381.19,-499.58"/>
<polygon fill="midnightblue" stroke="midnightblue" points="359.43,-526.12 356.83,-536.4 365.27,-529.99 359.43,-526.12"/>
</g>
<!-- Node7 -->
<g id="node7" class="node">
<title>Node7</title>
<g id="a_node7"><a xlink:href="_cell_8h.html" target="_top" xlink:title=" ">
<polygon fill="white" stroke="black" points="586.5,-475 586.5,-494 714.5,-494 714.5,-475 586.5,-475"/>
<text text-anchor="middle" x="650.5" y="-482" font-family="Helvetica,sans-Serif" font-size="10.00">include/GameLogic/Cell.h</text>
</a>
</g>
</g>
<!-- Node5&#45;&gt;Node7 -->
<g id="edge7" class="edge">
<title>Node5&#45;&gt;Node7</title>
<path fill="none" stroke="midnightblue" d="M422.98,-534.31C482.51,-521.54 563.18,-504.23 610.74,-494.03"/>
<polygon fill="midnightblue" stroke="midnightblue" points="421.92,-530.96 412.87,-536.48 423.39,-537.8 421.92,-530.96"/>
</g>
<!-- Node8 -->
<g id="node8" class="node">
<title>Node8</title>
<g id="a_node8"><a xlink:href="_cell_8cpp.html" target="_top" xlink:title=" ">
<polygon fill="white" stroke="black" points="475,-408 475,-427 596,-427 596,-408 475,-408"/>
<text text-anchor="middle" x="535.5" y="-415" font-family="Helvetica,sans-Serif" font-size="10.00">src/GameLogic/Cell.cpp</text>
</a>
</g>
</g>
<!-- Node7&#45;&gt;Node8 -->
<g id="edge8" class="edge">
<title>Node7&#45;&gt;Node8</title>
<path fill="none" stroke="midnightblue" d="M626.24,-469.79C603.45,-456.9 570.04,-438.02 550.76,-427.13"/>
<polygon fill="midnightblue" stroke="midnightblue" points="624.56,-472.86 634.99,-474.73 628.01,-466.77 624.56,-472.86"/>
</g>
<!-- Node9 -->
<g id="node9" class="node">
<title>Node9</title>
<g id="a_node9"><a xlink:href="main_8cpp.html" target="_top" xlink:title=" ">
<polygon fill="white" stroke="black" points="614.5,-408 614.5,-427 686.5,-427 686.5,-408 614.5,-408"/>
<text text-anchor="middle" x="650.5" y="-415" font-family="Helvetica,sans-Serif" font-size="10.00">src/main.cpp</text>
</a>
</g>
</g>
<!-- Node7&#45;&gt;Node9 -->
<g id="edge9" class="edge">
<title>Node7&#45;&gt;Node9</title>
<path fill="none" stroke="midnightblue" d="M650.5,-464.54C650.5,-452.17 650.5,-436.62 650.5,-427.13"/>
<polygon fill="midnightblue" stroke="midnightblue" points="647,-464.73 650.5,-474.73 654,-464.73 647,-464.73"/>
</g>
<!-- Node10 -->
<g id="node10" class="node">
<title>Node10</title>
<g id="a_node10"><a xlink:href="_set_squad_path_8h.html" target="_top" xlink:title=" ">
<polygon fill="white" stroke="black" points="381,-268.5 381,-298.5 494,-298.5 494,-268.5 381,-268.5"/>
<text text-anchor="start" x="389" y="-286.5" font-family="Helvetica,sans-Serif" font-size="10.00">include/engine/actions</text>
<text text-anchor="middle" x="437.5" y="-275.5" font-family="Helvetica,sans-Serif" font-size="10.00">/SetSquadPath.h</text>
</a>
</g>
</g>
<!-- Node7&#45;&gt;Node10 -->
<g id="edge10" class="edge">
<title>Node7&#45;&gt;Node10</title>
<path fill="none" stroke="midnightblue" d="M576.08,-482.22C534.98,-477.82 486.43,-465.43 456.5,-433 421.62,-395.21 423.74,-328.24 430.69,-298.92"/>
<polygon fill="midnightblue" stroke="midnightblue" points="575.8,-485.71 586.08,-483.15 576.45,-478.74 575.8,-485.71"/>
</g>
<!-- Node13 -->
<g id="node13" class="node">
<title>Node13</title>
<g id="a_node13"><a xlink:href="_game_logic_2_squad_2_action_8h.html" target="_top" xlink:title=" ">
<polygon fill="white" stroke="black" points="799,-402.5 799,-432.5 930,-432.5 930,-402.5 799,-402.5"/>
<text text-anchor="start" x="807" y="-420.5" font-family="Helvetica,sans-Serif" font-size="10.00">include/GameLogic/Squad</text>
<text text-anchor="middle" x="864.5" y="-409.5" font-family="Helvetica,sans-Serif" font-size="10.00">/Action.h</text>
</a>
</g>
</g>
<!-- Node7&#45;&gt;Node13 -->
<g id="edge14" class="edge">
<title>Node7&#45;&gt;Node13</title>
<path fill="none" stroke="midnightblue" d="M688.64,-471.92C724.92,-460.9 779.58,-444.29 818.32,-432.53"/>
<polygon fill="midnightblue" stroke="midnightblue" points="687.47,-468.61 678.92,-474.87 689.5,-475.31 687.47,-468.61"/>
</g>
<!-- Node14 -->
<g id="node14" class="node">
<title>Node14</title>
<g id="a_node14"><a xlink:href="_squad_8h.html" target="_top" xlink:title=" ">
<polygon fill="white" stroke="black" points="902,-335.5 902,-365.5 1033,-365.5 1033,-335.5 902,-335.5"/>
<text text-anchor="start" x="910" y="-353.5" font-family="Helvetica,sans-Serif" font-size="10.00">include/GameLogic/Squad</text>
<text text-anchor="middle" x="967.5" y="-342.5" font-family="Helvetica,sans-Serif" font-size="10.00">/Squad.h</text>
</a>
</g>
</g>
<!-- Node7&#45;&gt;Node14 -->
<g id="edge62" class="edge">
<title>Node7&#45;&gt;Node14</title>
<path fill="none" stroke="midnightblue" d="M724.7,-478.46C796.89,-472.24 899.88,-459.13 930.5,-433 950.42,-416 956.19,-384.16 960.72,-365.71"/>
<polygon fill="midnightblue" stroke="midnightblue" points="724.4,-474.97 714.73,-479.29 724.98,-481.94 724.4,-474.97"/>
</g>
<!-- Node25 -->
<g id="node25" class="node">
<title>Node25</title>
<g id="a_node25"><a xlink:href="_factory_8h.html" target="_top" xlink:title=" ">
<polygon fill="white" stroke="black" points="634,-201.5 634,-231.5 761,-231.5 761,-201.5 634,-201.5"/>
<text text-anchor="start" x="642" y="-219.5" font-family="Helvetica,sans-Serif" font-size="10.00">include/GameLogic/Units</text>
<text text-anchor="middle" x="697.5" y="-208.5" font-family="Helvetica,sans-Serif" font-size="10.00">/Factory.h</text>
</a>
</g>
</g>
<!-- Node7&#45;&gt;Node25 -->
<g id="edge63" class="edge">
<title>Node7&#45;&gt;Node25</title>
<path fill="none" stroke="midnightblue" d="M669.64,-468.12C679.36,-459.05 690.21,-446.69 695.5,-433 723,-361.8 707.94,-267.23 700.69,-231.75"/>
<polygon fill="midnightblue" stroke="midnightblue" points="667.1,-465.69 661.88,-474.92 671.71,-470.96 667.1,-465.69"/>
</g>
<!-- Node38 -->
<g id="node38" class="node">
<title>Node38</title>
<g id="a_node38"><a xlink:href="pathfinding_8h.html" target="_top" xlink:title=" ">
<polygon fill="white" stroke="black" points="1686.5,-274 1686.5,-293 1806.5,-293 1806.5,-274 1686.5,-274"/>
<text text-anchor="middle" x="1746.5" y="-281" font-family="Helvetica,sans-Serif" font-size="10.00">include/util/pathfinding.h</text>
</a>
</g>
</g>
<!-- Node7&#45;&gt;Node38 -->
<g id="edge64" class="edge">
<title>Node7&#45;&gt;Node38</title>
<path fill="none" stroke="midnightblue" d="M718.42,-473.48C783.46,-463.72 884.32,-448.19 971.5,-433 1252.23,-384.1 1588.39,-316.63 1704.59,-293.05"/>
<polygon fill="midnightblue" stroke="midnightblue" points="717.66,-470.05 708.29,-474.99 718.7,-476.97 717.66,-470.05"/>
</g>
<!-- Node10&#45;&gt;Node7 -->
<g id="edge13" class="edge">
<title>Node10&#45;&gt;Node7</title>
<path fill="none" stroke="midnightblue" d="M440.89,-308.95C441.69,-341.54 443.17,-399.05 474.5,-433 503.06,-463.95 548.57,-476.64 586.22,-481.57"/>
<polygon fill="midnightblue" stroke="midnightblue" points="444.39,-308.82 440.61,-298.92 437.39,-309.02 444.39,-308.82"/>
</g>
<!-- Node11 -->
<g id="node11" class="node">
<title>Node11</title>
<g id="a_node11"><a xlink:href="engine_2_action_8cpp.html" target="_top" xlink:title=" ">
<polygon fill="white" stroke="black" points="499.5,-207 499.5,-226 609.5,-226 609.5,-207 499.5,-207"/>
<text text-anchor="middle" x="554.5" y="-214" font-family="Helvetica,sans-Serif" font-size="10.00">src/engine/Action.cpp</text>
</a>
</g>
</g>
<!-- Node10&#45;&gt;Node11 -->
<g id="edge11" class="edge">
<title>Node10&#45;&gt;Node11</title>
<path fill="none" stroke="midnightblue" d="M471.75,-263.47C494.08,-251.06 522.15,-235.47 539.19,-226.01"/>
<polygon fill="midnightblue" stroke="midnightblue" points="469.93,-260.48 462.89,-268.4 473.33,-266.6 469.93,-260.48"/>
</g>
<!-- Node12 -->
<g id="node12" class="node">
<title>Node12</title>
<g id="a_node12"><a xlink:href="_set_squad_path_8cpp.html" target="_top" xlink:title=" ">
<polygon fill="white" stroke="black" points="380,-201.5 380,-231.5 481,-231.5 481,-201.5 380,-201.5"/>
<text text-anchor="start" x="388" y="-219.5" font-family="Helvetica,sans-Serif" font-size="10.00">src/engine/actions</text>
<text text-anchor="middle" x="430.5" y="-208.5" font-family="Helvetica,sans-Serif" font-size="10.00">/SetSquadPath.cpp</text>
</a>
</g>
</g>
<!-- Node10&#45;&gt;Node12 -->
<g id="edge12" class="edge">
<title>Node10&#45;&gt;Node12</title>
<path fill="none" stroke="midnightblue" d="M434.9,-258.4C433.93,-249.37 432.86,-239.41 432.02,-231.58"/>
<polygon fill="midnightblue" stroke="midnightblue" points="431.43,-258.83 435.98,-268.4 438.39,-258.08 431.43,-258.83"/>
</g>
<!-- Node13&#45;&gt;Node14 -->
<g id="edge15" class="edge">
<title>Node13&#45;&gt;Node14</title>
<path fill="none" stroke="midnightblue" d="M889.56,-396.73C904.69,-386.68 923.89,-374.68 939.52,-365.58"/>
<polygon fill="midnightblue" stroke="midnightblue" points="887.5,-393.9 881.17,-402.4 891.42,-399.7 887.5,-393.9"/>
</g>
<!-- Node14&#45;&gt;Node7 -->
<g id="edge18" class="edge">
<title>Node14&#45;&gt;Node7</title>
<path fill="none" stroke="midnightblue" d="M972.97,-375.75C971.91,-394.21 965.15,-418.79 948.5,-433 914.55,-461.97 791.65,-474.94 714.6,-480.24"/>
<polygon fill="midnightblue" stroke="midnightblue" points="976.47,-375.71 972.97,-365.71 969.47,-375.71 976.47,-375.71"/>
</g>
<!-- Node14&#45;&gt;Node10 -->
<g id="edge17" class="edge">
<title>Node14&#45;&gt;Node10</title>
<path fill="none" stroke="midnightblue" d="M891.87,-340.22C784.52,-327.06 590.38,-303.25 494.39,-291.48"/>
<polygon fill="midnightblue" stroke="midnightblue" points="891.63,-343.72 901.98,-341.46 892.48,-336.77 891.63,-343.72"/>
</g>
<!-- Node14&#45;&gt;Node13 -->
<g id="edge19" class="edge">
<title>Node14&#45;&gt;Node13</title>
<path fill="none" stroke="midnightblue" d="M942.49,-371.24C927.36,-381.29 908.17,-393.28 892.53,-402.4"/>
<polygon fill="midnightblue" stroke="midnightblue" points="944.54,-374.07 950.87,-365.58 940.62,-368.27 944.54,-374.07"/>
</g>
<!-- Node15 -->
<g id="node15" class="node">
<title>Node15</title>
<g id="a_node15"><a xlink:href="_squad_8cpp.html" target="_top" xlink:title=" ">
<polygon fill="white" stroke="black" points="662.5,-67.5 662.5,-97.5 776.5,-97.5 776.5,-67.5 662.5,-67.5"/>
<text text-anchor="start" x="670.5" y="-85.5" font-family="Helvetica,sans-Serif" font-size="10.00">src/GameLogic/Squad</text>
<text text-anchor="middle" x="719.5" y="-74.5" font-family="Helvetica,sans-Serif" font-size="10.00">/Squad.cpp</text>
</a>
</g>
</g>
<!-- Node14&#45;&gt;Node15 -->
<g id="edge16" class="edge">
<title>Node14&#45;&gt;Node15</title>
<path fill="none" stroke="midnightblue" d="M1043.32,-349.11C1253.55,-345.71 1817.01,-319.51 1639.5,-134 1608.13,-101.21 868.69,-102.14 823.5,-98 808.25,-96.6 791.81,-94.56 776.6,-92.45"/>
<polygon fill="midnightblue" stroke="midnightblue" points="1043.23,-345.61 1033.28,-349.26 1043.33,-352.61 1043.23,-345.61"/>
</g>
<!-- Node16 -->
<g id="node16" class="node">
<title>Node16</title>
<g id="a_node16"><a xlink:href="_unit_8h.html" target="_top" xlink:title=" ">
<polygon fill="white" stroke="black" points="952,-268.5 952,-298.5 1079,-298.5 1079,-268.5 952,-268.5"/>
<text text-anchor="start" x="960" y="-286.5" font-family="Helvetica,sans-Serif" font-size="10.00">include/GameLogic/Units</text>
<text text-anchor="middle" x="1015.5" y="-275.5" font-family="Helvetica,sans-Serif" font-size="10.00">/Unit.h</text>
</a>
</g>
</g>
<!-- Node14&#45;&gt;Node16 -->
<g id="edge20" class="edge">
<title>Node14&#45;&gt;Node16</title>
<path fill="none" stroke="midnightblue" d="M977.75,-326.87C984.14,-317.46 992.25,-306.83 999.43,-298.58"/>
<polygon fill="midnightblue" stroke="midnightblue" points="974.72,-325.1 972.24,-335.4 980.6,-328.9 974.72,-325.1"/>
</g>
<!-- Node14&#45;&gt;Node38 -->
<g id="edge59" class="edge">
<title>Node14&#45;&gt;Node38</title>
<path fill="none" stroke="midnightblue" d="M1043.59,-347.09C1173.19,-342.31 1444.82,-329.35 1672.5,-299 1683.92,-297.48 1696.23,-295.29 1707.47,-293.07"/>
<polygon fill="midnightblue" stroke="midnightblue" points="1043.25,-343.6 1033.38,-347.46 1043.5,-350.6 1043.25,-343.6"/>
</g>
<!-- Node16&#45;&gt;Node14 -->
<g id="edge22" class="edge">
<title>Node16&#45;&gt;Node14</title>
<path fill="none" stroke="midnightblue" d="M1005.27,-307.1C998.89,-316.51 990.78,-327.13 983.59,-335.4"/>
<polygon fill="midnightblue" stroke="midnightblue" points="1008.29,-308.88 1010.78,-298.58 1002.41,-305.08 1008.29,-308.88"/>
</g>
<!-- Node17 -->
<g id="node17" class="node">
<title>Node17</title>
<g id="a_node17"><a xlink:href="_unit_8cpp.html" target="_top" xlink:title=" ">
<polygon fill="white" stroke="black" points="1242.5,-134.5 1242.5,-164.5 1352.5,-164.5 1352.5,-134.5 1242.5,-134.5"/>
<text text-anchor="start" x="1250.5" y="-152.5" font-family="Helvetica,sans-Serif" font-size="10.00">src/GameLogic/Units</text>
<text text-anchor="middle" x="1297.5" y="-141.5" font-family="Helvetica,sans-Serif" font-size="10.00">/Unit.cpp</text>
</a>
</g>
</g>
<!-- Node16&#45;&gt;Node17 -->
<g id="edge21" class="edge">
<title>Node16&#45;&gt;Node17</title>
<path fill="none" stroke="midnightblue" d="M1054.81,-264.1C1111.82,-237.42 1216.2,-188.55 1267.47,-164.56"/>
<polygon fill="midnightblue" stroke="midnightblue" points="1052.99,-261.09 1045.41,-268.5 1055.95,-267.43 1052.99,-261.09"/>
</g>
<!-- Node18 -->
<g id="node18" class="node">
<title>Node18</title>
<g id="a_node18"><a xlink:href="_squad_order_8h.html" target="_top" xlink:title=" ">
<polygon fill="white" stroke="black" points="1499,-134.5 1499,-164.5 1630,-164.5 1630,-134.5 1499,-134.5"/>
<text text-anchor="start" x="1507" y="-152.5" font-family="Helvetica,sans-Serif" font-size="10.00">include/GameLogic/Squad</text>
<text text-anchor="middle" x="1564.5" y="-141.5" font-family="Helvetica,sans-Serif" font-size="10.00">/SquadOrder.h</text>
</a>
</g>
</g>
<!-- Node16&#45;&gt;Node18 -->
<g id="edge23" class="edge">
<title>Node16&#45;&gt;Node18</title>
<path fill="none" stroke="midnightblue" d="M1089.43,-277.53C1162.03,-271.36 1275.42,-258.26 1370.5,-232 1432.3,-214.93 1500.54,-182.96 1537.35,-164.54"/>
<polygon fill="midnightblue" stroke="midnightblue" points="1088.7,-274.08 1079.02,-278.39 1089.28,-281.06 1088.7,-274.08"/>
</g>
<!-- Node20 -->
<g id="node20" class="node">
<title>Node20</title>
<g id="a_node20"><a xlink:href="_armored_unit_8h.html" target="_top" xlink:title=" ">
<polygon fill="white" stroke="black" points="824,-134.5 824,-164.5 951,-164.5 951,-134.5 824,-134.5"/>
<text text-anchor="start" x="832" y="-152.5" font-family="Helvetica,sans-Serif" font-size="10.00">include/GameLogic/Units</text>
<text text-anchor="middle" x="887.5" y="-141.5" font-family="Helvetica,sans-Serif" font-size="10.00">/ArmoredUnit.h</text>
</a>
</g>
</g>
<!-- Node16&#45;&gt;Node20 -->
<g id="edge25" class="edge">
<title>Node16&#45;&gt;Node20</title>
<path fill="none" stroke="midnightblue" d="M991.71,-261.59C981.85,-252.68 970.42,-242.04 960.5,-232 938.07,-209.3 913.64,-181.29 899.5,-164.72"/>
<polygon fill="midnightblue" stroke="midnightblue" points="989.44,-264.25 999.23,-268.32 994.11,-259.04 989.44,-264.25"/>
</g>
<!-- Node16&#45;&gt;Node25 -->
<g id="edge30" class="edge">
<title>Node16&#45;&gt;Node25</title>
<path fill="none" stroke="midnightblue" d="M941.94,-267.46C887.26,-256.29 813.42,-241.19 761.25,-230.53"/>
<polygon fill="midnightblue" stroke="midnightblue" points="941.41,-270.93 951.91,-269.5 942.82,-264.07 941.41,-270.93"/>
</g>
<!-- Node32 -->
<g id="node32" class="node">
<title>Node32</title>
<g id="a_node32"><a xlink:href="_land_unit_8h.html" target="_top" xlink:title=" ">
<polygon fill="white" stroke="black" points="969,-201.5 969,-231.5 1096,-231.5 1096,-201.5 969,-201.5"/>
<text text-anchor="start" x="977" y="-219.5" font-family="Helvetica,sans-Serif" font-size="10.00">include/GameLogic/Units</text>
<text text-anchor="middle" x="1032.5" y="-208.5" font-family="Helvetica,sans-Serif" font-size="10.00">/LandUnit.h</text>
</a>
</g>
</g>
<!-- Node16&#45;&gt;Node32 -->
<g id="edge47" class="edge">
<title>Node16&#45;&gt;Node32</title>
<path fill="none" stroke="midnightblue" d="M1021.73,-258.7C1024.11,-249.59 1026.75,-239.49 1028.82,-231.58"/>
<polygon fill="midnightblue" stroke="midnightblue" points="1018.33,-257.84 1019.19,-268.4 1025.11,-259.61 1018.33,-257.84"/>
</g>
<!-- Node34 -->
<g id="node34" class="node">
<title>Node34</title>
<g id="a_node34"><a xlink:href="_transport_unit_8h.html" target="_top" xlink:title=" ">
<polygon fill="white" stroke="black" points="781,-201.5 781,-231.5 908,-231.5 908,-201.5 781,-201.5"/>
<text text-anchor="start" x="789" y="-219.5" font-family="Helvetica,sans-Serif" font-size="10.00">include/GameLogic/Units</text>
<text text-anchor="middle" x="844.5" y="-208.5" font-family="Helvetica,sans-Serif" font-size="10.00">/TransportUnit.h</text>
</a>
</g>
</g>
<!-- Node16&#45;&gt;Node34 -->
<g id="edge50" class="edge">
<title>Node16&#45;&gt;Node34</title>
<path fill="none" stroke="midnightblue" d="M968.98,-264.82C941.5,-254.37 907.17,-241.32 881.53,-231.58"/>
<polygon fill="midnightblue" stroke="midnightblue" points="967.8,-268.11 978.4,-268.4 970.29,-261.57 967.8,-268.11"/>
</g>
<!-- Node36 -->
<g id="node36" class="node">
<title>Node36</title>
<g id="a_node36"><a xlink:href="_unit_order_8h.html" target="_top" xlink:title=" ">
<polygon fill="white" stroke="black" points="1234,-201.5 1234,-231.5 1361,-231.5 1361,-201.5 1234,-201.5"/>
<text text-anchor="start" x="1242" y="-219.5" font-family="Helvetica,sans-Serif" font-size="10.00">include/GameLogic/Units</text>
<text text-anchor="middle" x="1297.5" y="-208.5" font-family="Helvetica,sans-Serif" font-size="10.00">/UnitOrder.h</text>
</a>
</g>
</g>
<!-- Node16&#45;&gt;Node36 -->
<g id="edge54" class="edge">
<title>Node16&#45;&gt;Node36</title>
<path fill="none" stroke="midnightblue" d="M1080.54,-266.14C1126.54,-255.26 1187.84,-241.16 1233.59,-230.94"/>
<polygon fill="midnightblue" stroke="midnightblue" points="1079.6,-262.76 1070.67,-268.48 1081.21,-269.58 1079.6,-262.76"/>
</g>
<!-- Node19 -->
<g id="node19" class="node">
<title>Node19</title>
<g id="a_node19"><a xlink:href="_squad_order_8cpp.html" target="_top" xlink:title=" ">
<polygon fill="white" stroke="black" points="1507.5,-67.5 1507.5,-97.5 1621.5,-97.5 1621.5,-67.5 1507.5,-67.5"/>
<text text-anchor="start" x="1515.5" y="-85.5" font-family="Helvetica,sans-Serif" font-size="10.00">src/GameLogic/Squad</text>
<text text-anchor="middle" x="1564.5" y="-74.5" font-family="Helvetica,sans-Serif" font-size="10.00">/SquadOrder.cpp</text>
</a>
</g>
</g>
<!-- Node18&#45;&gt;Node19 -->
<g id="edge24" class="edge">
<title>Node18&#45;&gt;Node19</title>
<path fill="none" stroke="midnightblue" d="M1564.5,-124.11C1564.5,-115.15 1564.5,-105.32 1564.5,-97.58"/>
<polygon fill="midnightblue" stroke="midnightblue" points="1561,-124.4 1564.5,-134.4 1568,-124.4 1561,-124.4"/>
</g>
<!-- Node21 -->
<g id="node21" class="node">
<title>Node21</title>
<g id="a_node21"><a xlink:href="_armored_unit_8cpp.html" target="_top" xlink:title=" ">
<polygon fill="white" stroke="black" points="832.5,-67.5 832.5,-97.5 942.5,-97.5 942.5,-67.5 832.5,-67.5"/>
<text text-anchor="start" x="840.5" y="-85.5" font-family="Helvetica,sans-Serif" font-size="10.00">src/GameLogic/Units</text>
<text text-anchor="middle" x="887.5" y="-74.5" font-family="Helvetica,sans-Serif" font-size="10.00">/ArmoredUnit.cpp</text>
</a>
</g>
</g>
<!-- Node20&#45;&gt;Node21 -->
<g id="edge26" class="edge">
<title>Node20&#45;&gt;Node21</title>
<path fill="none" stroke="midnightblue" d="M887.5,-124.11C887.5,-115.15 887.5,-105.32 887.5,-97.58"/>
<polygon fill="midnightblue" stroke="midnightblue" points="884,-124.4 887.5,-134.4 891,-124.4 884,-124.4"/>
</g>
<!-- Node22 -->
<g id="node22" class="node">
<title>Node22</title>
<g id="a_node22"><a xlink:href="_armored_unit_factory_8h.html" target="_top" xlink:title=" ">
<polygon fill="white" stroke="black" points="517,-67.5 517,-97.5 644,-97.5 644,-67.5 517,-67.5"/>
<text text-anchor="start" x="525" y="-85.5" font-family="Helvetica,sans-Serif" font-size="10.00">include/GameLogic/Units</text>
<text text-anchor="middle" x="580.5" y="-74.5" font-family="Helvetica,sans-Serif" font-size="10.00">/ArmoredUnitFactory.h</text>
</a>
</g>
</g>
<!-- Node20&#45;&gt;Node22 -->
<g id="edge27" class="edge">
<title>Node20&#45;&gt;Node22</title>
<path fill="none" stroke="midnightblue" d="M814.09,-132.96C762.26,-121.98 693.51,-107.43 644.03,-96.95"/>
<polygon fill="midnightblue" stroke="midnightblue" points="813.38,-136.38 823.89,-135.03 814.83,-129.54 813.38,-136.38"/>
</g>
<!-- Node23 -->
<g id="node23" class="node">
<title>Node23</title>
<g id="a_node23"><a xlink:href="_all_units_8cpp.html" target="_top" xlink:title=" ">
<polygon fill="white" stroke="black" points="705.5,-0.5 705.5,-30.5 815.5,-30.5 815.5,-0.5 705.5,-0.5"/>
<text text-anchor="start" x="713.5" y="-18.5" font-family="Helvetica,sans-Serif" font-size="10.00">src/GameLogic/Units</text>
<text text-anchor="middle" x="760.5" y="-7.5" font-family="Helvetica,sans-Serif" font-size="10.00">/AllUnits.cpp</text>
</a>
</g>
</g>
<!-- Node22&#45;&gt;Node23 -->
<g id="edge28" class="edge">
<title>Node22&#45;&gt;Node23</title>
<path fill="none" stroke="midnightblue" d="M629.09,-63.96C658.08,-53.48 694.41,-40.37 721.52,-30.58"/>
<polygon fill="midnightblue" stroke="midnightblue" points="627.77,-60.71 619.56,-67.4 630.15,-67.29 627.77,-60.71"/>
</g>
<!-- Node24 -->
<g id="node24" class="node">
<title>Node24</title>
<g id="a_node24"><a xlink:href="_armored_unit_factory_8cpp.html" target="_top" xlink:title=" ">
<polygon fill="white" stroke="black" points="518,-0.5 518,-30.5 643,-30.5 643,-0.5 518,-0.5"/>
<text text-anchor="start" x="526" y="-18.5" font-family="Helvetica,sans-Serif" font-size="10.00">src/GameLogic/Units</text>
<text text-anchor="middle" x="580.5" y="-7.5" font-family="Helvetica,sans-Serif" font-size="10.00">/ArmoredUnitFactory.cpp</text>
</a>
</g>
</g>
<!-- Node22&#45;&gt;Node24 -->
<g id="edge29" class="edge">
<title>Node22&#45;&gt;Node24</title>
<path fill="none" stroke="midnightblue" d="M580.5,-57.11C580.5,-48.15 580.5,-38.32 580.5,-30.58"/>
<polygon fill="midnightblue" stroke="midnightblue" points="577,-57.4 580.5,-67.4 584,-57.4 577,-57.4"/>
</g>
<!-- Node25&#45;&gt;Node4 -->
<g id="edge32" class="edge">
<title>Node25&#45;&gt;Node4</title>
<path fill="none" stroke="midnightblue" d="M713.48,-240.26C729.72,-265.66 752.5,-308.59 752.5,-349.5 752.5,-485.5 752.5,-485.5 752.5,-485.5 752.5,-563.83 496.37,-599.25 372.31,-611.81"/>
<polygon fill="midnightblue" stroke="midnightblue" points="716.28,-238.15 707.85,-231.73 710.43,-242 716.28,-238.15"/>
</g>
<!-- Node25&#45;&gt;Node22 -->
<g id="edge39" class="edge">
<title>Node25&#45;&gt;Node22</title>
<path fill="none" stroke="midnightblue" d="M623.65,-201.93C621.92,-201.61 620.2,-201.3 618.5,-201 572.76,-192.81 442.4,-200.58 412.5,-165 403.64,-154.45 404.28,-145.06 412.5,-134 419.32,-124.84 475.82,-109.07 521.45,-97.59"/>
<polygon fill="midnightblue" stroke="midnightblue" points="623.23,-205.41 633.7,-203.74 624.48,-198.52 623.23,-205.41"/>
</g>
<!-- Node26 -->
<g id="node26" class="node">
<title>Node26</title>
<g id="a_node26"><a xlink:href="_factory_8cpp.html" target="_top" xlink:title=" ">
<polygon fill="white" stroke="black" points="421.5,-134.5 421.5,-164.5 531.5,-164.5 531.5,-134.5 421.5,-134.5"/>
<text text-anchor="start" x="429.5" y="-152.5" font-family="Helvetica,sans-Serif" font-size="10.00">src/GameLogic/Units</text>
<text text-anchor="middle" x="476.5" y="-141.5" font-family="Helvetica,sans-Serif" font-size="10.00">/Factory.cpp</text>
</a>
</g>
</g>
<!-- Node25&#45;&gt;Node26 -->
<g id="edge31" class="edge">
<title>Node25&#45;&gt;Node26</title>
<path fill="none" stroke="midnightblue" d="M639.97,-198.58C604.08,-188.02 558.41,-174.59 524.48,-164.61"/>
<polygon fill="midnightblue" stroke="midnightblue" points="639.24,-202.01 649.82,-201.48 641.21,-195.3 639.24,-202.01"/>
</g>
<!-- Node27 -->
<g id="node27" class="node">
<title>Node27</title>
<g id="a_node27"><a xlink:href="_all_units_8h.html" target="_top" xlink:title=" ">
<polygon fill="white" stroke="black" points="238,-134.5 238,-164.5 365,-164.5 365,-134.5 238,-134.5"/>
<text text-anchor="start" x="246" y="-152.5" font-family="Helvetica,sans-Serif" font-size="10.00">include/GameLogic/Units</text>
<text text-anchor="middle" x="301.5" y="-141.5" font-family="Helvetica,sans-Serif" font-size="10.00">/AllUnits.h</text>
</a>
</g>
</g>
<!-- Node25&#45;&gt;Node27 -->
<g id="edge33" class="edge">
<title>Node25&#45;&gt;Node27</title>
<path fill="none" stroke="midnightblue" d="M623.66,-201.87C621.92,-201.58 620.2,-201.28 618.5,-201 512.55,-183.3 485.43,-182.82 379.5,-165 374.88,-164.22 370.11,-163.4 365.32,-162.55"/>
<polygon fill="midnightblue" stroke="midnightblue" points="623.27,-205.35 633.72,-203.61 624.46,-198.46 623.27,-205.35"/>
</g>
<!-- Node28 -->
<g id="node28" class="node">
<title>Node28</title>
<g id="a_node28"><a xlink:href="_land_unit_factory_8h.html" target="_top" xlink:title=" ">
<polygon fill="white" stroke="black" points="969,-134.5 969,-164.5 1096,-164.5 1096,-134.5 969,-134.5"/>
<text text-anchor="start" x="977" y="-152.5" font-family="Helvetica,sans-Serif" font-size="10.00">include/GameLogic/Units</text>
<text text-anchor="middle" x="1032.5" y="-141.5" font-family="Helvetica,sans-Serif" font-size="10.00">/LandUnitFactory.h</text>
</a>
</g>
</g>
<!-- Node25&#45;&gt;Node28 -->
<g id="edge40" class="edge">
<title>Node25&#45;&gt;Node28</title>
<path fill="none" stroke="midnightblue" d="M771.19,-201.06C771.29,-201.04 771.4,-201.02 771.5,-201 855.46,-184.78 876.59,-181.44 960.5,-165 963.25,-164.46 966.06,-163.91 968.9,-163.35"/>
<polygon fill="midnightblue" stroke="midnightblue" points="770.42,-197.64 761.27,-202.98 771.76,-204.52 770.42,-197.64"/>
</g>
<!-- Node30 -->
<g id="node30" class="node">
<title>Node30</title>
<g id="a_node30"><a xlink:href="_transport_unit_factory_8h.html" target="_top" xlink:title=" ">
<polygon fill="white" stroke="black" points="550,-134.5 550,-164.5 677,-164.5 677,-134.5 550,-134.5"/>
<text text-anchor="start" x="558" y="-152.5" font-family="Helvetica,sans-Serif" font-size="10.00">include/GameLogic/Units</text>
<text text-anchor="middle" x="613.5" y="-141.5" font-family="Helvetica,sans-Serif" font-size="10.00">/TransportUnitFactory.h</text>
</a>
</g>
</g>
<!-- Node25&#45;&gt;Node30 -->
<g id="edge43" class="edge">
<title>Node25&#45;&gt;Node30</title>
<path fill="none" stroke="midnightblue" d="M671.22,-195.17C658.38,-185.23 643.24,-173.51 631.69,-164.58"/>
<polygon fill="midnightblue" stroke="midnightblue" points="669.22,-198.04 679.27,-201.4 673.51,-192.51 669.22,-198.04"/>
</g>
<!-- Node27&#45;&gt;Node3 -->
<g id="edge35" class="edge">
<title>Node27&#45;&gt;Node3</title>
<path fill="none" stroke="midnightblue" d="M273.12,-128.45C258.97,-118.45 242.19,-106.6 229.42,-97.58"/>
<polygon fill="midnightblue" stroke="midnightblue" points="271.35,-131.48 281.54,-134.4 275.39,-125.77 271.35,-131.48"/>
</g>
<!-- Node27&#45;&gt;Node5 -->
<g id="edge38" class="edge">
<title>Node27&#45;&gt;Node5</title>
<path fill="none" stroke="midnightblue" d="M301.5,-175.01C301.5,-201.51 301.5,-245 301.5,-282.5 301.5,-418.5 301.5,-418.5 301.5,-418.5 301.5,-455.69 307.4,-465.19 320.5,-500 325.33,-512.84 332.8,-526.51 338.66,-536.39"/>
<polygon fill="midnightblue" stroke="midnightblue" points="305,-174.76 301.5,-164.76 298,-174.76 305,-174.76"/>
</g>
<!-- Node27&#45;&gt;Node7 -->
<g id="edge37" class="edge">
<title>Node27&#45;&gt;Node7</title>
<path fill="none" stroke="midnightblue" d="M313.66,-173.67C326.07,-199.49 343.5,-242.84 343.5,-282.5 343.5,-351.5 343.5,-351.5 343.5,-351.5 343.5,-456.22 496.12,-478.89 586.14,-483.15"/>
<polygon fill="midnightblue" stroke="midnightblue" points="316.78,-172.08 309.2,-164.68 310.51,-175.19 316.78,-172.08"/>
</g>
<!-- Node27&#45;&gt;Node15 -->
<g id="edge34" class="edge">
<title>Node27&#45;&gt;Node15</title>
<path fill="none" stroke="midnightblue" d="M375.15,-138.52C461.91,-126.66 600.77,-107.31 652.5,-98 655.66,-97.43 658.9,-96.82 662.17,-96.18"/>
<polygon fill="midnightblue" stroke="midnightblue" points="374.54,-135.08 365.1,-139.9 375.48,-142.01 374.54,-135.08"/>
</g>
<!-- Node27&#45;&gt;Node23 -->
<g id="edge36" class="edge">
<title>Node27&#45;&gt;Node23</title>
<path fill="none" stroke="midnightblue" d="M311.73,-125.28C321.4,-106.27 337.83,-80.39 360.5,-67 416.6,-33.86 586.87,-39.3 651.5,-31 669.01,-28.75 688.1,-26.24 705.34,-23.94"/>
<polygon fill="midnightblue" stroke="midnightblue" points="308.47,-123.97 307.28,-134.5 314.78,-127.01 308.47,-123.97"/>
</g>
<!-- Node28&#45;&gt;Node23 -->
<g id="edge41" class="edge">
<title>Node28&#45;&gt;Node23</title>
<path fill="none" stroke="midnightblue" d="M1013.2,-126.63C994,-105.34 965.44,-75.05 951.5,-67 909.47,-42.74 855.55,-29.87 815.72,-23.21"/>
<polygon fill="midnightblue" stroke="midnightblue" points="1010.77,-129.17 1020.05,-134.28 1015.99,-124.5 1010.77,-129.17"/>
</g>
<!-- Node29 -->
<g id="node29" class="node">
<title>Node29</title>
<g id="a_node29"><a xlink:href="_land_unit_factory_8cpp.html" target="_top" xlink:title=" ">
<polygon fill="white" stroke="black" points="998.5,-67.5 998.5,-97.5 1108.5,-97.5 1108.5,-67.5 998.5,-67.5"/>
<text text-anchor="start" x="1006.5" y="-85.5" font-family="Helvetica,sans-Serif" font-size="10.00">src/GameLogic/Units</text>
<text text-anchor="middle" x="1053.5" y="-74.5" font-family="Helvetica,sans-Serif" font-size="10.00">/LandUnitFactory.cpp</text>
</a>
</g>
</g>
<!-- Node28&#45;&gt;Node29 -->
<g id="edge42" class="edge">
<title>Node28&#45;&gt;Node29</title>
<path fill="none" stroke="midnightblue" d="M1040.19,-124.7C1043.13,-115.59 1046.39,-105.49 1048.95,-97.58"/>
<polygon fill="midnightblue" stroke="midnightblue" points="1036.8,-123.8 1037.06,-134.4 1043.46,-125.96 1036.8,-123.8"/>
</g>
<!-- Node30&#45;&gt;Node22 -->
<g id="edge46" class="edge">
<title>Node30&#45;&gt;Node22</title>
<path fill="none" stroke="midnightblue" d="M601.71,-125.28C597.01,-116.02 591.75,-105.66 587.65,-97.58"/>
<polygon fill="midnightblue" stroke="midnightblue" points="598.69,-127.06 606.34,-134.4 604.93,-123.89 598.69,-127.06"/>
</g>
<!-- Node30&#45;&gt;Node23 -->
<g id="edge44" class="edge">
<title>Node30&#45;&gt;Node23</title>
<path fill="none" stroke="midnightblue" d="M684.39,-131.92C728.88,-120.8 779.02,-106.66 785.5,-98 800.67,-77.74 784.42,-48.18 771.95,-30.79"/>
<polygon fill="midnightblue" stroke="midnightblue" points="683.28,-128.59 674.42,-134.39 684.96,-135.38 683.28,-128.59"/>
</g>
<!-- Node31 -->
<g id="node31" class="node">
<title>Node31</title>
<g id="a_node31"><a xlink:href="_transport_unit_factory_8cpp.html" target="_top" xlink:title=" ">
<polygon fill="white" stroke="black" points="370,-67.5 370,-97.5 499,-97.5 499,-67.5 370,-67.5"/>
<text text-anchor="start" x="378" y="-85.5" font-family="Helvetica,sans-Serif" font-size="10.00">src/GameLogic/Units</text>
<text text-anchor="middle" x="434.5" y="-74.5" font-family="Helvetica,sans-Serif" font-size="10.00">/TransportUnitFactory.cpp</text>
</a>
</g>
</g>
<!-- Node30&#45;&gt;Node31 -->
<g id="edge45" class="edge">
<title>Node30&#45;&gt;Node31</title>
<path fill="none" stroke="midnightblue" d="M565.18,-130.96C536.35,-120.48 500.22,-107.37 473.26,-97.58"/>
<polygon fill="midnightblue" stroke="midnightblue" points="564.07,-134.27 574.66,-134.4 566.45,-127.69 564.07,-134.27"/>
</g>
<!-- Node32&#45;&gt;Node28 -->
<g id="edge49" class="edge">
<title>Node32&#45;&gt;Node28</title>
<path fill="none" stroke="midnightblue" d="M1032.5,-191.11C1032.5,-182.15 1032.5,-172.32 1032.5,-164.58"/>
<polygon fill="midnightblue" stroke="midnightblue" points="1029,-191.4 1032.5,-201.4 1036,-191.4 1029,-191.4"/>
</g>
<!-- Node33 -->
<g id="node33" class="node">
<title>Node33</title>
<g id="a_node33"><a xlink:href="_land_unit_8cpp.html" target="_top" xlink:title=" ">
<polygon fill="white" stroke="black" points="1114.5,-134.5 1114.5,-164.5 1224.5,-164.5 1224.5,-134.5 1114.5,-134.5"/>
<text text-anchor="start" x="1122.5" y="-152.5" font-family="Helvetica,sans-Serif" font-size="10.00">src/GameLogic/Units</text>
<text text-anchor="middle" x="1169.5" y="-141.5" font-family="Helvetica,sans-Serif" font-size="10.00">/LandUnit.cpp</text>
</a>
</g>
</g>
<!-- Node32&#45;&gt;Node33 -->
<g id="edge48" class="edge">
<title>Node32&#45;&gt;Node33</title>
<path fill="none" stroke="midnightblue" d="M1071.51,-196.99C1093.22,-186.69 1119.83,-174.07 1139.83,-164.58"/>
<polygon fill="midnightblue" stroke="midnightblue" points="1069.76,-193.95 1062.23,-201.4 1072.76,-200.27 1069.76,-193.95"/>
</g>
<!-- Node34&#45;&gt;Node20 -->
<g id="edge52" class="edge">
<title>Node34&#45;&gt;Node20</title>
<path fill="none" stroke="midnightblue" d="M859.47,-192.87C865.7,-183.46 872.73,-172.83 878.19,-164.58"/>
<polygon fill="midnightblue" stroke="midnightblue" points="856.43,-191.12 853.83,-201.4 862.27,-194.99 856.43,-191.12"/>
</g>
<!-- Node34&#45;&gt;Node30 -->
<g id="edge53" class="edge">
<title>Node34&#45;&gt;Node30</title>
<path fill="none" stroke="midnightblue" d="M784.85,-198.71C747.26,-188.14 699.27,-174.63 663.65,-164.61"/>
<polygon fill="midnightblue" stroke="midnightblue" points="784.09,-202.14 794.66,-201.48 785.98,-195.4 784.09,-202.14"/>
</g>
<!-- Node35 -->
<g id="node35" class="node">
<title>Node35</title>
<g id="a_node35"><a xlink:href="_transport_unit_8cpp.html" target="_top" xlink:title=" ">
<polygon fill="white" stroke="black" points="695.5,-134.5 695.5,-164.5 805.5,-164.5 805.5,-134.5 695.5,-134.5"/>
<text text-anchor="start" x="703.5" y="-152.5" font-family="Helvetica,sans-Serif" font-size="10.00">src/GameLogic/Units</text>
<text text-anchor="middle" x="750.5" y="-141.5" font-family="Helvetica,sans-Serif" font-size="10.00">/TransportUnit.cpp</text>
</a>
</g>
</g>
<!-- Node34&#45;&gt;Node35 -->
<g id="edge51" class="edge">
<title>Node34&#45;&gt;Node35</title>
<path fill="none" stroke="midnightblue" d="M815.51,-195.45C801.05,-185.45 783.91,-173.6 770.86,-164.58"/>
<polygon fill="midnightblue" stroke="midnightblue" points="813.89,-198.59 824.1,-201.4 817.87,-192.83 813.89,-198.59"/>
</g>
<!-- Node36&#45;&gt;Node16 -->
<g id="edge58" class="edge">
<title>Node36&#45;&gt;Node16</title>
<path fill="none" stroke="midnightblue" d="M1232.35,-233.89C1186.29,-244.78 1124.91,-258.9 1079.17,-269.11"/>
<polygon fill="midnightblue" stroke="midnightblue" points="1233.31,-237.26 1242.23,-231.55 1231.69,-230.45 1233.31,-237.26"/>
</g>
<!-- Node36&#45;&gt;Node17 -->
<g id="edge55" class="edge">
<title>Node36&#45;&gt;Node17</title>
<path fill="none" stroke="midnightblue" d="M1297.5,-191.11C1297.5,-182.15 1297.5,-172.32 1297.5,-164.58"/>
<polygon fill="midnightblue" stroke="midnightblue" points="1294,-191.4 1297.5,-201.4 1301,-191.4 1294,-191.4"/>
</g>
<!-- Node36&#45;&gt;Node18 -->
<g id="edge57" class="edge">
<title>Node36&#45;&gt;Node18</title>
<path fill="none" stroke="midnightblue" d="M1365.07,-199.05C1408.72,-188.43 1464.92,-174.74 1506.54,-164.61"/>
<polygon fill="midnightblue" stroke="midnightblue" points="1363.99,-195.71 1355.11,-201.48 1365.65,-202.51 1363.99,-195.71"/>
</g>
<!-- Node37 -->
<g id="node37" class="node">
<title>Node37</title>
<g id="a_node37"><a xlink:href="_unit_order_8cpp.html" target="_top" xlink:title=" ">
<polygon fill="white" stroke="black" points="1370.5,-134.5 1370.5,-164.5 1480.5,-164.5 1480.5,-134.5 1370.5,-134.5"/>
<text text-anchor="start" x="1378.5" y="-152.5" font-family="Helvetica,sans-Serif" font-size="10.00">src/GameLogic/Units</text>
<text text-anchor="middle" x="1425.5" y="-141.5" font-family="Helvetica,sans-Serif" font-size="10.00">/UnitOrder.cpp</text>
</a>
</g>
</g>
<!-- Node36&#45;&gt;Node37 -->
<g id="edge56" class="edge">
<title>Node36&#45;&gt;Node37</title>
<path fill="none" stroke="midnightblue" d="M1334.22,-196.85C1354.46,-186.58 1379.17,-174.03 1397.78,-164.58"/>
<polygon fill="midnightblue" stroke="midnightblue" points="1332.61,-193.75 1325.27,-201.4 1335.78,-199.99 1332.61,-193.75"/>
</g>
<!-- Node39 -->
<g id="node39" class="node">
<title>Node39</title>
<g id="a_node39"><a xlink:href="_game_logic_2_squad_2_action_8cpp.html" target="_top" xlink:title=" ">
<polygon fill="white" stroke="black" points="1687.5,-201.5 1687.5,-231.5 1801.5,-231.5 1801.5,-201.5 1687.5,-201.5"/>
<text text-anchor="start" x="1695.5" y="-219.5" font-family="Helvetica,sans-Serif" font-size="10.00">src/GameLogic/Squad</text>
<text text-anchor="middle" x="1744.5" y="-208.5" font-family="Helvetica,sans-Serif" font-size="10.00">/Action.cpp</text>
</a>
</g>
</g>
<!-- Node38&#45;&gt;Node39 -->
<g id="edge60" class="edge">
<title>Node38&#45;&gt;Node39</title>
<path fill="none" stroke="midnightblue" d="M1745.91,-263.41C1745.6,-253.22 1745.22,-240.9 1744.93,-231.59"/>
<polygon fill="midnightblue" stroke="midnightblue" points="1742.42,-263.85 1746.23,-273.73 1749.42,-263.63 1742.42,-263.85"/>
</g>
<!-- Node40 -->
<g id="node40" class="node">
<title>Node40</title>
<g id="a_node40"><a xlink:href="pathfinding_8cpp.html" target="_top" xlink:title=" ">
<polygon fill="white" stroke="black" points="1820,-207 1820,-226 1933,-226 1933,-207 1820,-207"/>
<text text-anchor="middle" x="1876.5" y="-214" font-family="Helvetica,sans-Serif" font-size="10.00">src/util/pathfinding.cpp</text>
</a>
</g>
</g>
<!-- Node38&#45;&gt;Node40 -->
<g id="edge61" class="edge">
<title>Node38&#45;&gt;Node40</title>
<path fill="none" stroke="midnightblue" d="M1772.95,-269.27C1798.7,-256.4 1837.08,-237.21 1859.17,-226.17"/>
<polygon fill="midnightblue" stroke="midnightblue" points="1771.14,-266.27 1763.76,-273.87 1774.27,-272.53 1771.14,-266.27"/>
</g>
</g>
</svg>
