<?xml version="1.0" encoding="UTF-8" standalone="no"?>
<!DOCTYPE svg PUBLIC "-//W3C//DTD SVG 1.1//EN"
 "http://www.w3.org/Graphics/SVG/1.1/DTD/svg11.dtd">
<!-- Generated by graphviz version 2.47.1 (20210421.1823)
 -->
<!-- Title: include/engine/GUI/GuiStrip.h Pages: 1 -->
<svg width="520pt" height="319pt"
 viewBox="0.00 0.00 519.50 319.00" xmlns="http://www.w3.org/2000/svg" xmlns:xlink="http://www.w3.org/1999/xlink">
<g id="graph0" class="graph" transform="scale(1 1) rotate(0) translate(4 315)">
<title>include/engine/GUI/GuiStrip.h</title>
<polygon fill="white" stroke="transparent" points="-4,4 -4,-315 515.5,-315 515.5,4 -4,4"/>
<!-- Node1 -->
<g id="node1" class="node">
<title>Node1</title>
<g id="a_node1"><a xlink:title=" ">
<polygon fill="#bfbfbf" stroke="black" points="165.5,-280.5 165.5,-310.5 265.5,-310.5 265.5,-280.5 165.5,-280.5"/>
<text text-anchor="start" x="173.5" y="-298.5" font-family="Helvetica,sans-Serif" font-size="10.00">include/engine/GUI</text>
<text text-anchor="middle" x="215.5" y="-287.5" font-family="Helvetica,sans-Serif" font-size="10.00">/GuiStrip.h</text>
</a>
</g>
</g>
<!-- Node2 -->
<g id="node2" class="node">
<title>Node2</title>
<g id="a_node2"><a xlink:href="_gui_object_8h.html" target="_top" xlink:title=" ">
<polygon fill="white" stroke="black" points="155.5,-224.5 155.5,-243.5 275.5,-243.5 275.5,-224.5 155.5,-224.5"/>
<text text-anchor="middle" x="215.5" y="-231.5" font-family="Helvetica,sans-Serif" font-size="10.00">engine/GUI/GuiObject.h</text>
</a>
</g>
</g>
<!-- Node1&#45;&gt;Node2 -->
<g id="edge1" class="edge">
<title>Node1&#45;&gt;Node2</title>
<path fill="none" stroke="midnightblue" d="M215.5,-280.4C215.5,-272.47 215.5,-262.46 215.5,-253.86"/>
<polygon fill="midnightblue" stroke="midnightblue" points="219,-253.66 215.5,-243.66 212,-253.66 219,-253.66"/>
</g>
<!-- Node3 -->
<g id="node3" class="node">
<title>Node3</title>
<g id="a_node3"><a xlink:href="game_object_8h.html" target="_top" xlink:title=" ">
<polygon fill="white" stroke="black" points="161.5,-168.5 161.5,-187.5 269.5,-187.5 269.5,-168.5 161.5,-168.5"/>
<text text-anchor="middle" x="215.5" y="-175.5" font-family="Helvetica,sans-Serif" font-size="10.00">engine/gameObject.h</text>
</a>
</g>
</g>
<!-- Node2&#45;&gt;Node3 -->
<g id="edge2" class="edge">
<title>Node2&#45;&gt;Node3</title>
<path fill="none" stroke="midnightblue" d="M215.5,-224.08C215.5,-217.01 215.5,-206.86 215.5,-197.99"/>
<polygon fill="midnightblue" stroke="midnightblue" points="219,-197.75 215.5,-187.75 212,-197.75 219,-197.75"/>
</g>
<!-- Node4 -->
<g id="node4" class="node">
<title>Node4</title>
<g id="a_node4"><a xlink:title=" ">
<polygon fill="white" stroke="#bfbfbf" points="106,-112.5 106,-131.5 147,-131.5 147,-112.5 106,-112.5"/>
<text text-anchor="middle" x="126.5" y="-119.5" font-family="Helvetica,sans-Serif" font-size="10.00">string</text>
</a>
</g>
</g>
<!-- Node3&#45;&gt;Node4 -->
<g id="edge3" class="edge">
<title>Node3&#45;&gt;Node4</title>
<path fill="none" stroke="midnightblue" d="M201.2,-168.32C187.32,-159.9 166.01,-146.97 149.7,-137.07"/>
<polygon fill="midnightblue" stroke="midnightblue" points="151.13,-133.85 140.76,-131.65 147.5,-139.83 151.13,-133.85"/>
</g>
<!-- Node5 -->
<g id="node5" class="node">
<title>Node5</title>
<g id="a_node5"><a xlink:title=" ">
<polygon fill="white" stroke="#bfbfbf" points="165,-112.5 165,-131.5 194,-131.5 194,-112.5 165,-112.5"/>
<text text-anchor="middle" x="179.5" y="-119.5" font-family="Helvetica,sans-Serif" font-size="10.00">list</text>
</a>
</g>
</g>
<!-- Node3&#45;&gt;Node5 -->
<g id="edge4" class="edge">
<title>Node3&#45;&gt;Node5</title>
<path fill="none" stroke="midnightblue" d="M209.56,-168.08C204.52,-160.53 197.16,-149.49 190.99,-140.23"/>
<polygon fill="midnightblue" stroke="midnightblue" points="193.79,-138.13 185.33,-131.75 187.97,-142.01 193.79,-138.13"/>
</g>
<!-- Node6 -->
<g id="node6" class="node">
<title>Node6</title>
<g id="a_node6"><a xlink:href="config_8h.html" target="_top" xlink:title=" ">
<polygon fill="white" stroke="black" points="212,-112.5 212,-131.5 293,-131.5 293,-112.5 212,-112.5"/>
<text text-anchor="middle" x="252.5" y="-119.5" font-family="Helvetica,sans-Serif" font-size="10.00">engine/config.h</text>
</a>
</g>
</g>
<!-- Node3&#45;&gt;Node6 -->
<g id="edge5" class="edge">
<title>Node3&#45;&gt;Node6</title>
<path fill="none" stroke="midnightblue" d="M221.61,-168.08C226.78,-160.53 234.35,-149.49 240.69,-140.23"/>
<polygon fill="midnightblue" stroke="midnightblue" points="243.74,-141.98 246.5,-131.75 237.96,-138.02 243.74,-141.98"/>
</g>
<!-- Node12 -->
<g id="node12" class="node">
<title>Node12</title>
<g id="a_node12"><a xlink:href="engine_2_action_8h.html" target="_top" xlink:title=" ">
<polygon fill="white" stroke="black" points="372,-112.5 372,-131.5 455,-131.5 455,-112.5 372,-112.5"/>
<text text-anchor="middle" x="413.5" y="-119.5" font-family="Helvetica,sans-Serif" font-size="10.00">engine/Action.h</text>
</a>
</g>
</g>
<!-- Node3&#45;&gt;Node12 -->
<g id="edge13" class="edge">
<title>Node3&#45;&gt;Node12</title>
<path fill="none" stroke="midnightblue" d="M246.87,-168.44C280.76,-159.2 334.9,-144.44 372.22,-134.26"/>
<polygon fill="midnightblue" stroke="midnightblue" points="373.55,-137.52 382.27,-131.52 371.7,-130.77 373.55,-137.52"/>
</g>
<!-- Node7 -->
<g id="node7" class="node">
<title>Node7</title>
<g id="a_node7"><a xlink:href="_s_f_m_l_facade_8h.html" target="_top" xlink:title=" ">
<polygon fill="white" stroke="black" points="131,-56.5 131,-75.5 254,-75.5 254,-56.5 131,-56.5"/>
<text text-anchor="middle" x="192.5" y="-63.5" font-family="Helvetica,sans-Serif" font-size="10.00">graphics/SFMLFacade.h</text>
</a>
</g>
</g>
<!-- Node6&#45;&gt;Node7 -->
<g id="edge6" class="edge">
<title>Node6&#45;&gt;Node7</title>
<path fill="none" stroke="midnightblue" d="M242.86,-112.32C233.99,-104.34 220.63,-92.31 209.89,-82.65"/>
<polygon fill="midnightblue" stroke="midnightblue" points="212.09,-79.92 202.32,-75.83 207.41,-85.13 212.09,-79.92"/>
</g>
<!-- Node10 -->
<g id="node10" class="node">
<title>Node10</title>
<g id="a_node10"><a xlink:href="_fan_facade_8h.html" target="_top" xlink:title=" ">
<polygon fill="white" stroke="black" points="0,-56.5 0,-75.5 113,-75.5 113,-56.5 0,-56.5"/>
<text text-anchor="middle" x="56.5" y="-63.5" font-family="Helvetica,sans-Serif" font-size="10.00">graphics/FanFacade.h</text>
</a>
</g>
</g>
<!-- Node6&#45;&gt;Node10 -->
<g id="edge9" class="edge">
<title>Node6&#45;&gt;Node10</title>
<path fill="none" stroke="midnightblue" d="M221.44,-112.44C187.9,-103.2 134.3,-88.44 97.36,-78.26"/>
<polygon fill="midnightblue" stroke="midnightblue" points="97.98,-74.8 87.41,-75.52 96.12,-81.55 97.98,-74.8"/>
</g>
<!-- Node11 -->
<g id="node11" class="node">
<title>Node11</title>
<g id="a_node11"><a xlink:title=" ">
<polygon fill="white" stroke="#bfbfbf" points="272.5,-56.5 272.5,-75.5 370.5,-75.5 370.5,-56.5 272.5,-56.5"/>
<text text-anchor="middle" x="321.5" y="-63.5" font-family="Helvetica,sans-Serif" font-size="10.00">nlohmann/json.hpp</text>
</a>
</g>
</g>
<!-- Node6&#45;&gt;Node11 -->
<g id="edge12" class="edge">
<title>Node6&#45;&gt;Node11</title>
<path fill="none" stroke="midnightblue" d="M263.59,-112.32C273.99,-104.18 289.76,-91.84 302.22,-82.09"/>
<polygon fill="midnightblue" stroke="midnightblue" points="304.49,-84.75 310.21,-75.83 300.18,-79.24 304.49,-84.75"/>
</g>
<!-- Node8 -->
<g id="node8" class="node">
<title>Node8</title>
<g id="a_node8"><a xlink:title=" ">
<polygon fill="white" stroke="#bfbfbf" points="23.5,-0.5 23.5,-19.5 127.5,-19.5 127.5,-0.5 23.5,-0.5"/>
<text text-anchor="middle" x="75.5" y="-7.5" font-family="Helvetica,sans-Serif" font-size="10.00">SFML/Graphics.hpp</text>
</a>
</g>
</g>
<!-- Node7&#45;&gt;Node8 -->
<g id="edge7" class="edge">
<title>Node7&#45;&gt;Node8</title>
<path fill="none" stroke="midnightblue" d="M173.96,-56.44C154.88,-47.64 124.93,-33.81 103.06,-23.72"/>
<polygon fill="midnightblue" stroke="midnightblue" points="104.5,-20.53 93.95,-19.52 101.57,-26.88 104.5,-20.53"/>
</g>
<!-- Node9 -->
<g id="node9" class="node">
<title>Node9</title>
<g id="a_node9"><a xlink:href="_facade_8h.html" target="_top" xlink:title=" ">
<polygon fill="white" stroke="black" points="154.5,-0.5 154.5,-19.5 210.5,-19.5 210.5,-0.5 154.5,-0.5"/>
<text text-anchor="middle" x="182.5" y="-7.5" font-family="Helvetica,sans-Serif" font-size="10.00">Facade.h</text>
</a>
</g>
</g>
<!-- Node7&#45;&gt;Node9 -->
<g id="edge8" class="edge">
<title>Node7&#45;&gt;Node9</title>
<path fill="none" stroke="midnightblue" d="M190.85,-56.08C189.52,-48.93 187.62,-38.64 185.96,-29.69"/>
<polygon fill="midnightblue" stroke="midnightblue" points="189.38,-28.95 184.12,-19.75 182.5,-30.22 189.38,-28.95"/>
</g>
<!-- Node10&#45;&gt;Node8 -->
<g id="edge10" class="edge">
<title>Node10&#45;&gt;Node8</title>
<path fill="none" stroke="midnightblue" d="M59.64,-56.08C62.18,-48.85 65.86,-38.41 69.03,-29.4"/>
<polygon fill="midnightblue" stroke="midnightblue" points="72.4,-30.35 72.42,-19.75 65.8,-28.02 72.4,-30.35"/>
</g>
<!-- Node10&#45;&gt;Node9 -->
<g id="edge11" class="edge">
<title>Node10&#45;&gt;Node9</title>
<path fill="none" stroke="midnightblue" d="M76.47,-56.44C97.11,-47.6 129.56,-33.69 153.13,-23.59"/>
<polygon fill="midnightblue" stroke="midnightblue" points="154.82,-26.67 162.63,-19.52 152.06,-20.24 154.82,-26.67"/>
</g>
<!-- Node13 -->
<g id="node13" class="node">
<title>Node13</title>
<g id="a_node13"><a xlink:title=" ">
<polygon fill="white" stroke="#bfbfbf" points="457.5,-56.5 457.5,-75.5 511.5,-75.5 511.5,-56.5 457.5,-56.5"/>
<text text-anchor="middle" x="484.5" y="-63.5" font-family="Helvetica,sans-Serif" font-size="10.00">iostream</text>
</a>
</g>
</g>
<!-- Node12&#45;&gt;Node13 -->
<g id="edge14" class="edge">
<title>Node12&#45;&gt;Node13</title>
<path fill="none" stroke="midnightblue" d="M424.91,-112.32C435.61,-104.18 451.84,-91.84 464.66,-82.09"/>
<polygon fill="midnightblue" stroke="midnightblue" points="467.04,-84.67 472.89,-75.83 462.81,-79.1 467.04,-84.67"/>
</g>
<!-- Node14 -->
<g id="node14" class="node">
<title>Node14</title>
<g id="a_node14"><a xlink:title=" ">
<polygon fill="white" stroke="#bfbfbf" points="388,-56.5 388,-75.5 439,-75.5 439,-56.5 388,-56.5"/>
<text text-anchor="middle" x="413.5" y="-63.5" font-family="Helvetica,sans-Serif" font-size="10.00">memory</text>
</a>
</g>
</g>
<!-- Node12&#45;&gt;Node14 -->
<g id="edge15" class="edge">
<title>Node12&#45;&gt;Node14</title>
<path fill="none" stroke="midnightblue" d="M413.5,-112.08C413.5,-105.01 413.5,-94.86 413.5,-85.99"/>
<polygon fill="midnightblue" stroke="midnightblue" points="417,-85.75 413.5,-75.75 410,-85.75 417,-85.75"/>
</g>
</g>
</svg>
