<?xml version="1.0" encoding="UTF-8" standalone="no"?>
<!DOCTYPE svg PUBLIC "-//W3C//DTD SVG 1.1//EN"
 "http://www.w3.org/Graphics/SVG/1.1/DTD/svg11.dtd">
<!-- Generated by graphviz version 2.47.1 (20210421.1823)
 -->
<!-- Title: include/engine/GUI/GuiList.h Pages: 1 -->
<svg width="2110pt" height="776pt"
 viewBox="0.00 0.00 2110.00 776.00" xmlns="http://www.w3.org/2000/svg" xmlns:xlink="http://www.w3.org/1999/xlink">
<g id="graph0" class="graph" transform="scale(1 1) rotate(0) translate(4 772)">
<title>include/engine/GUI/GuiList.h</title>
<polygon fill="white" stroke="transparent" points="-4,4 -4,-772 2106,-772 2106,4 -4,4"/>
<!-- Node1 -->
<g id="node1" class="node">
<title>Node1</title>
<g id="a_node1"><a xlink:title=" ">
<polygon fill="#bfbfbf" stroke="black" points="167.5,-737.5 167.5,-767.5 267.5,-767.5 267.5,-737.5 167.5,-737.5"/>
<text text-anchor="start" x="175.5" y="-755.5" font-family="Helvetica,sans-Serif" font-size="10.00">include/engine/GUI</text>
<text text-anchor="middle" x="217.5" y="-744.5" font-family="Helvetica,sans-Serif" font-size="10.00">/GuiList.h</text>
</a>
</g>
</g>
<!-- Node2 -->
<g id="node2" class="node">
<title>Node2</title>
<g id="a_node2"><a xlink:href="_gui_list_8cpp.html" target="_top" xlink:title=" ">
<polygon fill="white" stroke="black" points="0,-676 0,-695 135,-695 135,-676 0,-676"/>
<text text-anchor="middle" x="67.5" y="-683" font-family="Helvetica,sans-Serif" font-size="10.00">src/engine/GUI/GuiList.cpp</text>
</a>
</g>
</g>
<!-- Node1&#45;&gt;Node2 -->
<g id="edge1" class="edge">
<title>Node1&#45;&gt;Node2</title>
<path fill="none" stroke="midnightblue" d="M175.49,-733.3C146.56,-720.76 109.46,-704.68 87.13,-695.01"/>
<polygon fill="midnightblue" stroke="midnightblue" points="174.39,-736.63 184.95,-737.4 177.17,-730.21 174.39,-736.63"/>
</g>
<!-- Node3 -->
<g id="node3" class="node">
<title>Node3</title>
<g id="a_node3"><a xlink:href="main_8cpp.html" target="_top" xlink:title=" ">
<polygon fill="white" stroke="black" points="404.5,-73 404.5,-92 476.5,-92 476.5,-73 404.5,-73"/>
<text text-anchor="middle" x="440.5" y="-80" font-family="Helvetica,sans-Serif" font-size="10.00">src/main.cpp</text>
</a>
</g>
</g>
<!-- Node1&#45;&gt;Node3 -->
<g id="edge2" class="edge">
<title>Node1&#45;&gt;Node3</title>
<path fill="none" stroke="midnightblue" d="M214.47,-727.14C212.83,-710.94 211.36,-689.2 212.5,-670 214.28,-640.06 216.33,-632.7 220.5,-603 227.86,-550.61 239.5,-538.4 239.5,-485.5 239.5,-485.5 239.5,-485.5 239.5,-215.5 239.5,-137.64 346.18,-103.17 404.1,-90.19"/>
<polygon fill="midnightblue" stroke="midnightblue" points="211.02,-727.81 215.6,-737.37 217.98,-727.04 211.02,-727.81"/>
</g>
<!-- Node4 -->
<g id="node4" class="node">
<title>Node4</title>
<g id="a_node4"><a xlink:href="_gui_scroll_8h.html" target="_top" xlink:title=" ">
<polygon fill="white" stroke="black" points="221.5,-670.5 221.5,-700.5 321.5,-700.5 321.5,-670.5 221.5,-670.5"/>
<text text-anchor="start" x="229.5" y="-688.5" font-family="Helvetica,sans-Serif" font-size="10.00">include/engine/GUI</text>
<text text-anchor="middle" x="271.5" y="-677.5" font-family="Helvetica,sans-Serif" font-size="10.00">/GuiScroll.h</text>
</a>
</g>
</g>
<!-- Node1&#45;&gt;Node4 -->
<g id="edge3" class="edge">
<title>Node1&#45;&gt;Node4</title>
<path fill="none" stroke="midnightblue" d="M235.82,-729.45C243.75,-719.9 252.8,-709 259.81,-700.58"/>
<polygon fill="midnightblue" stroke="midnightblue" points="232.92,-727.47 229.22,-737.4 238.3,-731.94 232.92,-727.47"/>
</g>
<!-- Node7 -->
<g id="node7" class="node">
<title>Node7</title>
<g id="a_node7"><a xlink:href="_squad_template_8h.html" target="_top" xlink:title=" ">
<polygon fill="white" stroke="black" points="391,-603.5 391,-633.5 522,-633.5 522,-603.5 391,-603.5"/>
<text text-anchor="start" x="399" y="-621.5" font-family="Helvetica,sans-Serif" font-size="10.00">include/GameLogic/Squad</text>
<text text-anchor="middle" x="456.5" y="-610.5" font-family="Helvetica,sans-Serif" font-size="10.00">/SquadTemplate.h</text>
</a>
</g>
</g>
<!-- Node1&#45;&gt;Node7 -->
<g id="edge71" class="edge">
<title>Node1&#45;&gt;Node7</title>
<path fill="none" stroke="midnightblue" d="M261.92,-733.52C283.06,-724.5 308.47,-712.95 330.5,-701 369.43,-679.88 412.22,-650.87 436.57,-633.76"/>
<polygon fill="midnightblue" stroke="midnightblue" points="260.39,-730.37 252.53,-737.49 263.11,-736.82 260.39,-730.37"/>
</g>
<!-- Node5 -->
<g id="node5" class="node">
<title>Node5</title>
<g id="a_node5"><a xlink:href="_gui_scroll_8cpp.html" target="_top" xlink:title=" ">
<polygon fill="white" stroke="black" points="230,-609 230,-628 373,-628 373,-609 230,-609"/>
<text text-anchor="middle" x="301.5" y="-616" font-family="Helvetica,sans-Serif" font-size="10.00">src/engine/GUI/GuiScroll.cpp</text>
</a>
</g>
</g>
<!-- Node4&#45;&gt;Node5 -->
<g id="edge4" class="edge">
<title>Node4&#45;&gt;Node5</title>
<path fill="none" stroke="midnightblue" d="M282.21,-661.29C287.51,-649.8 293.59,-636.63 297.49,-628.19"/>
<polygon fill="midnightblue" stroke="midnightblue" points="279.02,-659.85 278.01,-670.4 285.38,-662.78 279.02,-659.85"/>
</g>
<!-- Node6 -->
<g id="node6" class="node">
<title>Node6</title>
<g id="a_node6"><a xlink:href="_squad_template_8cpp.html" target="_top" xlink:title=" ">
<polygon fill="white" stroke="black" points="220.5,-67.5 220.5,-97.5 334.5,-97.5 334.5,-67.5 220.5,-67.5"/>
<text text-anchor="start" x="228.5" y="-85.5" font-family="Helvetica,sans-Serif" font-size="10.00">src/GameLogic/Squad</text>
<text text-anchor="middle" x="277.5" y="-74.5" font-family="Helvetica,sans-Serif" font-size="10.00">/SquadTemplate.cpp</text>
</a>
</g>
</g>
<!-- Node4&#45;&gt;Node6 -->
<g id="edge5" class="edge">
<title>Node4&#45;&gt;Node6</title>
<path fill="none" stroke="midnightblue" d="M244.89,-663.54C235.93,-655.23 226.66,-645.02 220.5,-634 202.35,-601.53 201.5,-589.69 201.5,-552.5 201.5,-552.5 201.5,-552.5 201.5,-215.5 201.5,-177.74 205.98,-166.32 225.5,-134 234.09,-119.78 247.64,-106.8 258.76,-97.56"/>
<polygon fill="midnightblue" stroke="midnightblue" points="242.78,-666.34 252.59,-670.33 247.4,-661.09 242.78,-666.34"/>
</g>
<!-- Node4&#45;&gt;Node7 -->
<g id="edge6" class="edge">
<title>Node4&#45;&gt;Node7</title>
<path fill="none" stroke="midnightblue" d="M321.44,-666.96C351.24,-656.48 388.57,-643.37 416.44,-633.58"/>
<polygon fill="midnightblue" stroke="midnightblue" points="319.92,-663.78 311.64,-670.4 322.24,-670.38 319.92,-663.78"/>
</g>
<!-- Node7&#45;&gt;Node6 -->
<g id="edge7" class="edge">
<title>Node7&#45;&gt;Node6</title>
<path fill="none" stroke="midnightblue" d="M395.23,-600.14C343.4,-581.27 277.5,-545.48 277.5,-485.5 277.5,-485.5 277.5,-485.5 277.5,-215.5 277.5,-172.65 277.5,-121.97 277.5,-97.76"/>
<polygon fill="midnightblue" stroke="midnightblue" points="394.13,-603.46 404.73,-603.47 396.45,-596.86 394.13,-603.46"/>
</g>
<!-- Node8 -->
<g id="node8" class="node">
<title>Node8</title>
<g id="a_node8"><a xlink:href="_all_squad_templates_8h.html" target="_top" xlink:title=" ">
<polygon fill="white" stroke="black" points="391,-536.5 391,-566.5 522,-566.5 522,-536.5 391,-536.5"/>
<text text-anchor="start" x="399" y="-554.5" font-family="Helvetica,sans-Serif" font-size="10.00">include/GameLogic/Squad</text>
<text text-anchor="middle" x="456.5" y="-543.5" font-family="Helvetica,sans-Serif" font-size="10.00">/AllSquadTemplates.h</text>
</a>
</g>
</g>
<!-- Node7&#45;&gt;Node8 -->
<g id="edge8" class="edge">
<title>Node7&#45;&gt;Node8</title>
<path fill="none" stroke="midnightblue" d="M456.5,-593.11C456.5,-584.15 456.5,-574.32 456.5,-566.58"/>
<polygon fill="midnightblue" stroke="midnightblue" points="453,-593.4 456.5,-603.4 460,-593.4 453,-593.4"/>
</g>
<!-- Node9 -->
<g id="node9" class="node">
<title>Node9</title>
<g id="a_node9"><a xlink:href="_all_squad_templates_8cpp.html" target="_top" xlink:title=" ">
<polygon fill="white" stroke="black" points="305.5,-469.5 305.5,-499.5 427.5,-499.5 427.5,-469.5 305.5,-469.5"/>
<text text-anchor="start" x="313.5" y="-487.5" font-family="Helvetica,sans-Serif" font-size="10.00">src/GameLogic/Squad</text>
<text text-anchor="middle" x="366.5" y="-476.5" font-family="Helvetica,sans-Serif" font-size="10.00">/AllSquadTemplates.cpp</text>
</a>
</g>
</g>
<!-- Node8&#45;&gt;Node9 -->
<g id="edge9" class="edge">
<title>Node8&#45;&gt;Node9</title>
<path fill="none" stroke="midnightblue" d="M428.74,-530.45C414.89,-520.45 398.48,-508.6 385.99,-499.58"/>
<polygon fill="midnightblue" stroke="midnightblue" points="426.82,-533.38 436.97,-536.4 430.91,-527.7 426.82,-533.38"/>
</g>
<!-- Node10 -->
<g id="node10" class="node">
<title>Node10</title>
<g id="a_node10"><a xlink:href="_cell_8h.html" target="_top" xlink:title=" ">
<polygon fill="white" stroke="black" points="625.5,-475 625.5,-494 753.5,-494 753.5,-475 625.5,-475"/>
<text text-anchor="middle" x="689.5" y="-482" font-family="Helvetica,sans-Serif" font-size="10.00">include/GameLogic/Cell.h</text>
</a>
</g>
</g>
<!-- Node8&#45;&gt;Node10 -->
<g id="edge10" class="edge">
<title>Node8&#45;&gt;Node10</title>
<path fill="none" stroke="midnightblue" d="M516.54,-533.75C562.11,-521.04 622.88,-504.09 658.93,-494.03"/>
<polygon fill="midnightblue" stroke="midnightblue" points="515.46,-530.42 506.77,-536.48 517.34,-537.16 515.46,-530.42"/>
</g>
<!-- Node10&#45;&gt;Node3 -->
<g id="edge12" class="edge">
<title>Node10&#45;&gt;Node3</title>
<path fill="none" stroke="midnightblue" d="M615.22,-475.54C541.84,-463.08 440.5,-431.41 440.5,-351.5 440.5,-351.5 440.5,-351.5 440.5,-215.5 440.5,-168.98 440.5,-113.24 440.5,-92.15"/>
<polygon fill="midnightblue" stroke="midnightblue" points="614.95,-479.05 625.38,-477.18 616.06,-472.13 614.95,-479.05"/>
</g>
<!-- Node11 -->
<g id="node11" class="node">
<title>Node11</title>
<g id="a_node11"><a xlink:href="_cell_8cpp.html" target="_top" xlink:title=" ">
<polygon fill="white" stroke="black" points="933,-408 933,-427 1054,-427 1054,-408 933,-408"/>
<text text-anchor="middle" x="993.5" y="-415" font-family="Helvetica,sans-Serif" font-size="10.00">src/GameLogic/Cell.cpp</text>
</a>
</g>
</g>
<!-- Node10&#45;&gt;Node11 -->
<g id="edge11" class="edge">
<title>Node10&#45;&gt;Node11</title>
<path fill="none" stroke="midnightblue" d="M739.53,-472.8C799.35,-460.01 898.29,-438.86 953.36,-427.08"/>
<polygon fill="midnightblue" stroke="midnightblue" points="738.6,-469.42 729.56,-474.94 740.07,-476.27 738.6,-469.42"/>
</g>
<!-- Node12 -->
<g id="node12" class="node">
<title>Node12</title>
<g id="a_node12"><a xlink:href="_set_squad_path_8h.html" target="_top" xlink:title=" ">
<polygon fill="white" stroke="black" points="769,-268.5 769,-298.5 882,-298.5 882,-268.5 769,-268.5"/>
<text text-anchor="start" x="777" y="-286.5" font-family="Helvetica,sans-Serif" font-size="10.00">include/engine/actions</text>
<text text-anchor="middle" x="825.5" y="-275.5" font-family="Helvetica,sans-Serif" font-size="10.00">/SetSquadPath.h</text>
</a>
</g>
</g>
<!-- Node10&#45;&gt;Node12 -->
<g id="edge13" class="edge">
<title>Node10&#45;&gt;Node12</title>
<path fill="none" stroke="midnightblue" d="M686.92,-464.57C689.49,-447.42 697.57,-421.88 709.5,-402 734.9,-359.65 777.09,-319.08 803.25,-298.5"/>
<polygon fill="midnightblue" stroke="midnightblue" points="683.4,-464.66 686.04,-474.92 690.37,-465.25 683.4,-464.66"/>
</g>
<!-- Node15 -->
<g id="node15" class="node">
<title>Node15</title>
<g id="a_node15"><a xlink:href="_game_logic_2_squad_2_action_8h.html" target="_top" xlink:title=" ">
<polygon fill="white" stroke="black" points="727,-402.5 727,-432.5 858,-432.5 858,-402.5 727,-402.5"/>
<text text-anchor="start" x="735" y="-420.5" font-family="Helvetica,sans-Serif" font-size="10.00">include/GameLogic/Squad</text>
<text text-anchor="middle" x="792.5" y="-409.5" font-family="Helvetica,sans-Serif" font-size="10.00">/Action.h</text>
</a>
</g>
</g>
<!-- Node10&#45;&gt;Node15 -->
<g id="edge17" class="edge">
<title>Node10&#45;&gt;Node15</title>
<path fill="none" stroke="midnightblue" d="M712.24,-469.15C729.47,-458.27 753.04,-443.4 770.17,-432.59"/>
<polygon fill="midnightblue" stroke="midnightblue" points="709.98,-466.44 703.39,-474.73 713.72,-472.36 709.98,-466.44"/>
</g>
<!-- Node17 -->
<g id="node17" class="node">
<title>Node17</title>
<g id="a_node17"><a xlink:href="_squad_8h.html" target="_top" xlink:title=" ">
<polygon fill="white" stroke="black" points="830,-335.5 830,-365.5 961,-365.5 961,-335.5 830,-335.5"/>
<text text-anchor="start" x="838" y="-353.5" font-family="Helvetica,sans-Serif" font-size="10.00">include/GameLogic/Squad</text>
<text text-anchor="middle" x="895.5" y="-342.5" font-family="Helvetica,sans-Serif" font-size="10.00">/Squad.h</text>
</a>
</g>
</g>
<!-- Node10&#45;&gt;Node17 -->
<g id="edge68" class="edge">
<title>Node10&#45;&gt;Node17</title>
<path fill="none" stroke="midnightblue" d="M763.73,-476.69C796.3,-470.06 832.82,-457.32 858.5,-433 877.4,-415.1 883.54,-383.88 888.37,-365.72"/>
<polygon fill="midnightblue" stroke="midnightblue" points="762.95,-473.27 753.77,-478.55 764.24,-480.15 762.95,-473.27"/>
</g>
<!-- Node28 -->
<g id="node28" class="node">
<title>Node28</title>
<g id="a_node28"><a xlink:href="_factory_8h.html" target="_top" xlink:title=" ">
<polygon fill="white" stroke="black" points="1057,-201.5 1057,-231.5 1184,-231.5 1184,-201.5 1057,-201.5"/>
<text text-anchor="start" x="1065" y="-219.5" font-family="Helvetica,sans-Serif" font-size="10.00">include/GameLogic/Units</text>
<text text-anchor="middle" x="1120.5" y="-208.5" font-family="Helvetica,sans-Serif" font-size="10.00">/Factory.h</text>
</a>
</g>
</g>
<!-- Node10&#45;&gt;Node28 -->
<g id="edge69" class="edge">
<title>Node10&#45;&gt;Node28</title>
<path fill="none" stroke="midnightblue" d="M763.86,-482.98C860.04,-480.75 1020.38,-471.2 1063.5,-433 1120.22,-382.74 1086.82,-341.18 1106.5,-268 1109.81,-255.7 1113.68,-241.75 1116.52,-231.63"/>
<polygon fill="midnightblue" stroke="midnightblue" points="763.53,-479.49 753.61,-483.2 763.68,-486.49 763.53,-479.49"/>
</g>
<!-- Node42 -->
<g id="node42" class="node">
<title>Node42</title>
<g id="a_node42"><a xlink:href="pathfinding_8h.html" target="_top" xlink:title=" ">
<polygon fill="white" stroke="black" points="586.5,-274 586.5,-293 706.5,-293 706.5,-274 586.5,-274"/>
<text text-anchor="middle" x="646.5" y="-281" font-family="Helvetica,sans-Serif" font-size="10.00">include/util/pathfinding.h</text>
</a>
</g>
</g>
<!-- Node10&#45;&gt;Node42 -->
<g id="edge70" class="edge">
<title>Node10&#45;&gt;Node42</title>
<path fill="none" stroke="midnightblue" d="M679.86,-465.74C675.12,-456.27 669.75,-444.28 666.5,-433 651.59,-381.26 647.71,-316.1 646.78,-293.05"/>
<polygon fill="midnightblue" stroke="midnightblue" points="676.89,-467.61 684.61,-474.86 683.09,-464.38 676.89,-467.61"/>
</g>
<!-- Node12&#45;&gt;Node10 -->
<g id="edge16" class="edge">
<title>Node12&#45;&gt;Node10</title>
<path fill="none" stroke="midnightblue" d="M808.08,-305.66C786.38,-327.65 750.22,-364.11 727.5,-402 712.82,-426.47 703.96,-459.51 696.68,-474.92"/>
<polygon fill="midnightblue" stroke="midnightblue" points="810.59,-308.09 815.1,-298.5 805.6,-303.19 810.59,-308.09"/>
</g>
<!-- Node13 -->
<g id="node13" class="node">
<title>Node13</title>
<g id="a_node13"><a xlink:href="engine_2_action_8cpp.html" target="_top" xlink:title=" ">
<polygon fill="white" stroke="black" points="770.5,-207 770.5,-226 880.5,-226 880.5,-207 770.5,-207"/>
<text text-anchor="middle" x="825.5" y="-214" font-family="Helvetica,sans-Serif" font-size="10.00">src/engine/Action.cpp</text>
</a>
</g>
</g>
<!-- Node12&#45;&gt;Node13 -->
<g id="edge14" class="edge">
<title>Node12&#45;&gt;Node13</title>
<path fill="none" stroke="midnightblue" d="M825.5,-258.25C825.5,-247.02 825.5,-234.38 825.5,-226.19"/>
<polygon fill="midnightblue" stroke="midnightblue" points="822,-258.4 825.5,-268.4 829,-258.4 822,-258.4"/>
</g>
<!-- Node14 -->
<g id="node14" class="node">
<title>Node14</title>
<g id="a_node14"><a xlink:href="_set_squad_path_8cpp.html" target="_top" xlink:title=" ">
<polygon fill="white" stroke="black" points="899,-201.5 899,-231.5 1000,-231.5 1000,-201.5 899,-201.5"/>
<text text-anchor="start" x="907" y="-219.5" font-family="Helvetica,sans-Serif" font-size="10.00">src/engine/actions</text>
<text text-anchor="middle" x="949.5" y="-208.5" font-family="Helvetica,sans-Serif" font-size="10.00">/SetSquadPath.cpp</text>
</a>
</g>
</g>
<!-- Node12&#45;&gt;Node14 -->
<g id="edge15" class="edge">
<title>Node12&#45;&gt;Node14</title>
<path fill="none" stroke="midnightblue" d="M861.34,-263.71C880.89,-253.46 904.7,-240.98 922.65,-231.58"/>
<polygon fill="midnightblue" stroke="midnightblue" points="859.64,-260.65 852.41,-268.4 862.89,-266.85 859.64,-260.65"/>
</g>
<!-- Node16 -->
<g id="node16" class="node">
<title>Node16</title>
<g id="a_node16"><a xlink:href="_game_logic_2_squad_2_action_8cpp.html" target="_top" xlink:title=" ">
<polygon fill="white" stroke="black" points="638.5,-201.5 638.5,-231.5 752.5,-231.5 752.5,-201.5 638.5,-201.5"/>
<text text-anchor="start" x="646.5" y="-219.5" font-family="Helvetica,sans-Serif" font-size="10.00">src/GameLogic/Squad</text>
<text text-anchor="middle" x="695.5" y="-208.5" font-family="Helvetica,sans-Serif" font-size="10.00">/Action.cpp</text>
</a>
</g>
</g>
<!-- Node15&#45;&gt;Node16 -->
<g id="edge18" class="edge">
<title>Node15&#45;&gt;Node16</title>
<path fill="none" stroke="midnightblue" d="M781.08,-393.06C760.76,-351.38 718.92,-265.54 702.41,-231.68"/>
<polygon fill="midnightblue" stroke="midnightblue" points="778,-394.73 785.52,-402.19 784.29,-391.67 778,-394.73"/>
</g>
<!-- Node15&#45;&gt;Node17 -->
<g id="edge19" class="edge">
<title>Node15&#45;&gt;Node17</title>
<path fill="none" stroke="midnightblue" d="M817.56,-396.73C832.69,-386.68 851.89,-374.68 867.52,-365.58"/>
<polygon fill="midnightblue" stroke="midnightblue" points="815.5,-393.9 809.17,-402.4 819.42,-399.7 815.5,-393.9"/>
</g>
<!-- Node17&#45;&gt;Node10 -->
<g id="edge22" class="edge">
<title>Node17&#45;&gt;Node10</title>
<path fill="none" stroke="midnightblue" d="M900.51,-375.85C899.12,-393.99 892.23,-418.11 876.5,-433 843.96,-463.81 794.03,-476.04 753.87,-480.79"/>
<polygon fill="midnightblue" stroke="midnightblue" points="904.02,-375.79 900.71,-365.72 897.02,-375.65 904.02,-375.79"/>
</g>
<!-- Node17&#45;&gt;Node12 -->
<g id="edge21" class="edge">
<title>Node17&#45;&gt;Node12</title>
<path fill="none" stroke="midnightblue" d="M872.68,-328.31C862.18,-318.56 850.01,-307.26 840.66,-298.58"/>
<polygon fill="midnightblue" stroke="midnightblue" points="870.6,-331.16 880.31,-335.4 875.36,-326.03 870.6,-331.16"/>
</g>
<!-- Node17&#45;&gt;Node15 -->
<g id="edge23" class="edge">
<title>Node17&#45;&gt;Node15</title>
<path fill="none" stroke="midnightblue" d="M870.49,-371.24C855.36,-381.29 836.17,-393.28 820.53,-402.4"/>
<polygon fill="midnightblue" stroke="midnightblue" points="872.54,-374.07 878.87,-365.58 868.62,-368.27 872.54,-374.07"/>
</g>
<!-- Node18 -->
<g id="node18" class="node">
<title>Node18</title>
<g id="a_node18"><a xlink:href="_squad_8cpp.html" target="_top" xlink:title=" ">
<polygon fill="white" stroke="black" points="650.5,-67.5 650.5,-97.5 764.5,-97.5 764.5,-67.5 650.5,-67.5"/>
<text text-anchor="start" x="658.5" y="-85.5" font-family="Helvetica,sans-Serif" font-size="10.00">src/GameLogic/Squad</text>
<text text-anchor="middle" x="707.5" y="-74.5" font-family="Helvetica,sans-Serif" font-size="10.00">/Squad.cpp</text>
</a>
</g>
</g>
<!-- Node17&#45;&gt;Node18 -->
<g id="edge20" class="edge">
<title>Node17&#45;&gt;Node18</title>
<path fill="none" stroke="midnightblue" d="M929.24,-330.04C975.39,-301.04 1048.29,-245.16 1009.5,-201 927.57,-107.73 827.36,-245.09 732.5,-165 712.71,-148.29 708.29,-116.34 707.48,-97.8"/>
<polygon fill="midnightblue" stroke="midnightblue" points="927.37,-327.08 920.68,-335.3 931.04,-333.04 927.37,-327.08"/>
</g>
<!-- Node19 -->
<g id="node19" class="node">
<title>Node19</title>
<g id="a_node19"><a xlink:href="_unit_8h.html" target="_top" xlink:title=" ">
<polygon fill="white" stroke="black" points="1505,-268.5 1505,-298.5 1632,-298.5 1632,-268.5 1505,-268.5"/>
<text text-anchor="start" x="1513" y="-286.5" font-family="Helvetica,sans-Serif" font-size="10.00">include/GameLogic/Units</text>
<text text-anchor="middle" x="1568.5" y="-275.5" font-family="Helvetica,sans-Serif" font-size="10.00">/Unit.h</text>
</a>
</g>
</g>
<!-- Node17&#45;&gt;Node19 -->
<g id="edge24" class="edge">
<title>Node17&#45;&gt;Node19</title>
<path fill="none" stroke="midnightblue" d="M971.46,-341.72C1105.21,-328.51 1380.19,-301.97 1504.76,-290.27"/>
<polygon fill="midnightblue" stroke="midnightblue" points="970.9,-338.26 961.3,-342.73 971.59,-345.23 970.9,-338.26"/>
</g>
<!-- Node17&#45;&gt;Node42 -->
<g id="edge65" class="edge">
<title>Node17&#45;&gt;Node42</title>
<path fill="none" stroke="midnightblue" d="M831.95,-332.91C783.18,-320.18 717.86,-303.13 679.17,-293.03"/>
<polygon fill="midnightblue" stroke="midnightblue" points="831.22,-336.34 841.78,-335.48 832.99,-329.56 831.22,-336.34"/>
</g>
<!-- Node19&#45;&gt;Node17 -->
<g id="edge26" class="edge">
<title>Node19&#45;&gt;Node17</title>
<path fill="none" stroke="midnightblue" d="M1494.65,-292.07C1362.35,-305.15 1087.2,-331.71 961.11,-343.56"/>
<polygon fill="midnightblue" stroke="midnightblue" points="1495.09,-295.54 1504.7,-291.07 1494.4,-288.58 1495.09,-295.54"/>
</g>
<!-- Node20 -->
<g id="node20" class="node">
<title>Node20</title>
<g id="a_node20"><a xlink:href="_unit_8cpp.html" target="_top" xlink:title=" ">
<polygon fill="white" stroke="black" points="1714.5,-134.5 1714.5,-164.5 1824.5,-164.5 1824.5,-134.5 1714.5,-134.5"/>
<text text-anchor="start" x="1722.5" y="-152.5" font-family="Helvetica,sans-Serif" font-size="10.00">src/GameLogic/Units</text>
<text text-anchor="middle" x="1769.5" y="-141.5" font-family="Helvetica,sans-Serif" font-size="10.00">/Unit.cpp</text>
</a>
</g>
</g>
<!-- Node19&#45;&gt;Node20 -->
<g id="edge25" class="edge">
<title>Node19&#45;&gt;Node20</title>
<path fill="none" stroke="midnightblue" d="M1598.51,-262.79C1639.56,-235.84 1712.21,-188.13 1748.14,-164.52"/>
<polygon fill="midnightblue" stroke="midnightblue" points="1596.45,-259.96 1590.01,-268.37 1600.29,-265.81 1596.45,-259.96"/>
</g>
<!-- Node21 -->
<g id="node21" class="node">
<title>Node21</title>
<g id="a_node21"><a xlink:href="_squad_order_8h.html" target="_top" xlink:title=" ">
<polygon fill="white" stroke="black" points="1971,-134.5 1971,-164.5 2102,-164.5 2102,-134.5 1971,-134.5"/>
<text text-anchor="start" x="1979" y="-152.5" font-family="Helvetica,sans-Serif" font-size="10.00">include/GameLogic/Squad</text>
<text text-anchor="middle" x="2036.5" y="-141.5" font-family="Helvetica,sans-Serif" font-size="10.00">/SquadOrder.h</text>
</a>
</g>
</g>
<!-- Node19&#45;&gt;Node21 -->
<g id="edge27" class="edge">
<title>Node19&#45;&gt;Node21</title>
<path fill="none" stroke="midnightblue" d="M1642.4,-273.28C1698.13,-265.28 1776.07,-251.82 1842.5,-232 1903.41,-213.82 1971.14,-182.71 2008.29,-164.63"/>
<polygon fill="midnightblue" stroke="midnightblue" points="1641.67,-269.85 1632.26,-274.72 1642.65,-276.78 1641.67,-269.85"/>
</g>
<!-- Node23 -->
<g id="node23" class="node">
<title>Node23</title>
<g id="a_node23"><a xlink:href="_armored_unit_8h.html" target="_top" xlink:title=" ">
<polygon fill="white" stroke="black" points="1569,-134.5 1569,-164.5 1696,-164.5 1696,-134.5 1569,-134.5"/>
<text text-anchor="start" x="1577" y="-152.5" font-family="Helvetica,sans-Serif" font-size="10.00">include/GameLogic/Units</text>
<text text-anchor="middle" x="1632.5" y="-141.5" font-family="Helvetica,sans-Serif" font-size="10.00">/ArmoredUnit.h</text>
</a>
</g>
</g>
<!-- Node19&#45;&gt;Node23 -->
<g id="edge29" class="edge">
<title>Node19&#45;&gt;Node23</title>
<path fill="none" stroke="midnightblue" d="M1579.84,-259.12C1593.14,-231.68 1614.76,-187.09 1625.7,-164.52"/>
<polygon fill="midnightblue" stroke="midnightblue" points="1576.56,-257.85 1575.35,-268.37 1582.86,-260.9 1576.56,-257.85"/>
</g>
<!-- Node19&#45;&gt;Node28 -->
<g id="edge34" class="edge">
<title>Node19&#45;&gt;Node28</title>
<path fill="none" stroke="midnightblue" d="M1494.78,-271.8C1408.3,-259.26 1266.33,-238.66 1184.35,-226.76"/>
<polygon fill="midnightblue" stroke="midnightblue" points="1494.39,-275.28 1504.79,-273.26 1495.39,-268.36 1494.39,-275.28"/>
</g>
<!-- Node36 -->
<g id="node36" class="node">
<title>Node36</title>
<g id="a_node36"><a xlink:href="_land_unit_8h.html" target="_top" xlink:title=" ">
<polygon fill="white" stroke="black" points="1304,-201.5 1304,-231.5 1431,-231.5 1431,-201.5 1304,-201.5"/>
<text text-anchor="start" x="1312" y="-219.5" font-family="Helvetica,sans-Serif" font-size="10.00">include/GameLogic/Units</text>
<text text-anchor="middle" x="1367.5" y="-208.5" font-family="Helvetica,sans-Serif" font-size="10.00">/LandUnit.h</text>
</a>
</g>
</g>
<!-- Node19&#45;&gt;Node36 -->
<g id="edge53" class="edge">
<title>Node19&#45;&gt;Node36</title>
<path fill="none" stroke="midnightblue" d="M1515.09,-265.23C1482.57,-254.71 1441.56,-241.45 1411.03,-231.58"/>
<polygon fill="midnightblue" stroke="midnightblue" points="1514.29,-268.65 1524.89,-268.4 1516.45,-261.99 1514.29,-268.65"/>
</g>
<!-- Node38 -->
<g id="node38" class="node">
<title>Node38</title>
<g id="a_node38"><a xlink:href="_transport_unit_8h.html" target="_top" xlink:title=" ">
<polygon fill="white" stroke="black" points="1456,-201.5 1456,-231.5 1583,-231.5 1583,-201.5 1456,-201.5"/>
<text text-anchor="start" x="1464" y="-219.5" font-family="Helvetica,sans-Serif" font-size="10.00">include/GameLogic/Units</text>
<text text-anchor="middle" x="1519.5" y="-208.5" font-family="Helvetica,sans-Serif" font-size="10.00">/TransportUnit.h</text>
</a>
</g>
</g>
<!-- Node19&#45;&gt;Node38 -->
<g id="edge56" class="edge">
<title>Node19&#45;&gt;Node38</title>
<path fill="none" stroke="midnightblue" d="M1551.66,-260.16C1544.51,-250.68 1536.4,-239.92 1530.11,-231.58"/>
<polygon fill="midnightblue" stroke="midnightblue" points="1549.05,-262.52 1557.87,-268.4 1554.64,-258.3 1549.05,-262.52"/>
</g>
<!-- Node40 -->
<g id="node40" class="node">
<title>Node40</title>
<g id="a_node40"><a xlink:href="_unit_order_8h.html" target="_top" xlink:title=" ">
<polygon fill="white" stroke="black" points="1706,-201.5 1706,-231.5 1833,-231.5 1833,-201.5 1706,-201.5"/>
<text text-anchor="start" x="1714" y="-219.5" font-family="Helvetica,sans-Serif" font-size="10.00">include/GameLogic/Units</text>
<text text-anchor="middle" x="1769.5" y="-208.5" font-family="Helvetica,sans-Serif" font-size="10.00">/UnitOrder.h</text>
</a>
</g>
</g>
<!-- Node19&#45;&gt;Node40 -->
<g id="edge60" class="edge">
<title>Node19&#45;&gt;Node40</title>
<path fill="none" stroke="midnightblue" d="M1616.28,-265.09C1647.68,-254.6 1688.6,-241.41 1720.3,-231.58"/>
<polygon fill="midnightblue" stroke="midnightblue" points="1614.8,-261.89 1606.44,-268.4 1617.03,-268.53 1614.8,-261.89"/>
</g>
<!-- Node22 -->
<g id="node22" class="node">
<title>Node22</title>
<g id="a_node22"><a xlink:href="_squad_order_8cpp.html" target="_top" xlink:title=" ">
<polygon fill="white" stroke="black" points="1979.5,-67.5 1979.5,-97.5 2093.5,-97.5 2093.5,-67.5 1979.5,-67.5"/>
<text text-anchor="start" x="1987.5" y="-85.5" font-family="Helvetica,sans-Serif" font-size="10.00">src/GameLogic/Squad</text>
<text text-anchor="middle" x="2036.5" y="-74.5" font-family="Helvetica,sans-Serif" font-size="10.00">/SquadOrder.cpp</text>
</a>
</g>
</g>
<!-- Node21&#45;&gt;Node22 -->
<g id="edge28" class="edge">
<title>Node21&#45;&gt;Node22</title>
<path fill="none" stroke="midnightblue" d="M2036.5,-124.11C2036.5,-115.15 2036.5,-105.32 2036.5,-97.58"/>
<polygon fill="midnightblue" stroke="midnightblue" points="2033,-124.4 2036.5,-134.4 2040,-124.4 2033,-124.4"/>
</g>
<!-- Node24 -->
<g id="node24" class="node">
<title>Node24</title>
<g id="a_node24"><a xlink:href="_armored_unit_8cpp.html" target="_top" xlink:title=" ">
<polygon fill="white" stroke="black" points="1577.5,-67.5 1577.5,-97.5 1687.5,-97.5 1687.5,-67.5 1577.5,-67.5"/>
<text text-anchor="start" x="1585.5" y="-85.5" font-family="Helvetica,sans-Serif" font-size="10.00">src/GameLogic/Units</text>
<text text-anchor="middle" x="1632.5" y="-74.5" font-family="Helvetica,sans-Serif" font-size="10.00">/ArmoredUnit.cpp</text>
</a>
</g>
</g>
<!-- Node23&#45;&gt;Node24 -->
<g id="edge30" class="edge">
<title>Node23&#45;&gt;Node24</title>
<path fill="none" stroke="midnightblue" d="M1632.5,-124.11C1632.5,-115.15 1632.5,-105.32 1632.5,-97.58"/>
<polygon fill="midnightblue" stroke="midnightblue" points="1629,-124.4 1632.5,-134.4 1636,-124.4 1629,-124.4"/>
</g>
<!-- Node25 -->
<g id="node25" class="node">
<title>Node25</title>
<g id="a_node25"><a xlink:href="_armored_unit_factory_8h.html" target="_top" xlink:title=" ">
<polygon fill="white" stroke="black" points="1264,-67.5 1264,-97.5 1391,-97.5 1391,-67.5 1264,-67.5"/>
<text text-anchor="start" x="1272" y="-85.5" font-family="Helvetica,sans-Serif" font-size="10.00">include/GameLogic/Units</text>
<text text-anchor="middle" x="1327.5" y="-74.5" font-family="Helvetica,sans-Serif" font-size="10.00">/ArmoredUnitFactory.h</text>
</a>
</g>
</g>
<!-- Node23&#45;&gt;Node25 -->
<g id="edge31" class="edge">
<title>Node23&#45;&gt;Node25</title>
<path fill="none" stroke="midnightblue" d="M1558.92,-132.82C1507.73,-121.91 1440.15,-107.51 1391.25,-97.09"/>
<polygon fill="midnightblue" stroke="midnightblue" points="1558.42,-136.29 1568.93,-134.95 1559.88,-129.45 1558.42,-136.29"/>
</g>
<!-- Node26 -->
<g id="node26" class="node">
<title>Node26</title>
<g id="a_node26"><a xlink:href="_all_units_8cpp.html" target="_top" xlink:title=" ">
<polygon fill="white" stroke="black" points="1001.5,-0.5 1001.5,-30.5 1111.5,-30.5 1111.5,-0.5 1001.5,-0.5"/>
<text text-anchor="start" x="1009.5" y="-18.5" font-family="Helvetica,sans-Serif" font-size="10.00">src/GameLogic/Units</text>
<text text-anchor="middle" x="1056.5" y="-7.5" font-family="Helvetica,sans-Serif" font-size="10.00">/AllUnits.cpp</text>
</a>
</g>
</g>
<!-- Node25&#45;&gt;Node26 -->
<g id="edge32" class="edge">
<title>Node25&#45;&gt;Node26</title>
<path fill="none" stroke="midnightblue" d="M1259.21,-65.12C1213.56,-54.17 1154.28,-39.95 1111.63,-29.72"/>
<polygon fill="midnightblue" stroke="midnightblue" points="1258.49,-68.55 1269.03,-67.48 1260.12,-61.74 1258.49,-68.55"/>
</g>
<!-- Node27 -->
<g id="node27" class="node">
<title>Node27</title>
<g id="a_node27"><a xlink:href="_armored_unit_factory_8cpp.html" target="_top" xlink:title=" ">
<polygon fill="white" stroke="black" points="1265,-0.5 1265,-30.5 1390,-30.5 1390,-0.5 1265,-0.5"/>
<text text-anchor="start" x="1273" y="-18.5" font-family="Helvetica,sans-Serif" font-size="10.00">src/GameLogic/Units</text>
<text text-anchor="middle" x="1327.5" y="-7.5" font-family="Helvetica,sans-Serif" font-size="10.00">/ArmoredUnitFactory.cpp</text>
</a>
</g>
</g>
<!-- Node25&#45;&gt;Node27 -->
<g id="edge33" class="edge">
<title>Node25&#45;&gt;Node27</title>
<path fill="none" stroke="midnightblue" d="M1327.5,-57.11C1327.5,-48.15 1327.5,-38.32 1327.5,-30.58"/>
<polygon fill="midnightblue" stroke="midnightblue" points="1324,-57.4 1327.5,-67.4 1331,-57.4 1324,-57.4"/>
</g>
<!-- Node28&#45;&gt;Node7 -->
<g id="edge37" class="edge">
<title>Node28&#45;&gt;Node7</title>
<path fill="none" stroke="midnightblue" d="M1120.5,-242.01C1120.5,-268.51 1120.5,-312 1120.5,-349.5 1120.5,-485.5 1120.5,-485.5 1120.5,-485.5 1120.5,-606.63 690.02,-618.28 522.29,-618.21"/>
<polygon fill="midnightblue" stroke="midnightblue" points="1124,-241.76 1120.5,-231.76 1117,-241.76 1124,-241.76"/>
</g>
<!-- Node28&#45;&gt;Node25 -->
<g id="edge45" class="edge">
<title>Node28&#45;&gt;Node25</title>
<path fill="none" stroke="midnightblue" d="M1194.19,-198.97C1218.39,-191.24 1244.45,-180.27 1265.5,-165 1290.54,-146.83 1310.18,-115.71 1320.2,-97.64"/>
<polygon fill="midnightblue" stroke="midnightblue" points="1192.86,-195.71 1184.31,-201.98 1194.9,-202.41 1192.86,-195.71"/>
</g>
<!-- Node29 -->
<g id="node29" class="node">
<title>Node29</title>
<g id="a_node29"><a xlink:href="_spawn_action_8cpp.html" target="_top" xlink:title=" ">
<polygon fill="white" stroke="black" points="741.5,-134.5 741.5,-164.5 837.5,-164.5 837.5,-134.5 741.5,-134.5"/>
<text text-anchor="start" x="749.5" y="-152.5" font-family="Helvetica,sans-Serif" font-size="10.00">src/engine/actions</text>
<text text-anchor="middle" x="789.5" y="-141.5" font-family="Helvetica,sans-Serif" font-size="10.00">/SpawnAction.cpp</text>
</a>
</g>
</g>
<!-- Node28&#45;&gt;Node29 -->
<g id="edge35" class="edge">
<title>Node28&#45;&gt;Node29</title>
<path fill="none" stroke="midnightblue" d="M1046.42,-201.72C1045.1,-201.48 1043.8,-201.24 1042.5,-201 955.41,-184.91 933.02,-183.93 846.5,-165 843.61,-164.37 840.64,-163.69 837.65,-162.99"/>
<polygon fill="midnightblue" stroke="midnightblue" points="1046.18,-205.24 1056.65,-203.62 1047.46,-198.36 1046.18,-205.24"/>
</g>
<!-- Node30 -->
<g id="node30" class="node">
<title>Node30</title>
<g id="a_node30"><a xlink:href="_factory_8cpp.html" target="_top" xlink:title=" ">
<polygon fill="white" stroke="black" points="855.5,-134.5 855.5,-164.5 965.5,-164.5 965.5,-134.5 855.5,-134.5"/>
<text text-anchor="start" x="863.5" y="-152.5" font-family="Helvetica,sans-Serif" font-size="10.00">src/GameLogic/Units</text>
<text text-anchor="middle" x="910.5" y="-141.5" font-family="Helvetica,sans-Serif" font-size="10.00">/Factory.cpp</text>
</a>
</g>
</g>
<!-- Node28&#45;&gt;Node30 -->
<g id="edge36" class="edge">
<title>Node28&#45;&gt;Node30</title>
<path fill="none" stroke="midnightblue" d="M1065.4,-198.44C1031.36,-187.91 988.2,-174.55 956.09,-164.61"/>
<polygon fill="midnightblue" stroke="midnightblue" points="1064.6,-201.86 1075.19,-201.48 1066.67,-195.18 1064.6,-201.86"/>
</g>
<!-- Node31 -->
<g id="node31" class="node">
<title>Node31</title>
<g id="a_node31"><a xlink:href="_all_units_8h.html" target="_top" xlink:title=" ">
<polygon fill="white" stroke="black" points="469,-134.5 469,-164.5 596,-164.5 596,-134.5 469,-134.5"/>
<text text-anchor="start" x="477" y="-152.5" font-family="Helvetica,sans-Serif" font-size="10.00">include/GameLogic/Units</text>
<text text-anchor="middle" x="532.5" y="-141.5" font-family="Helvetica,sans-Serif" font-size="10.00">/AllUnits.h</text>
</a>
</g>
</g>
<!-- Node28&#45;&gt;Node31 -->
<g id="edge38" class="edge">
<title>Node28&#45;&gt;Node31</title>
<path fill="none" stroke="midnightblue" d="M1046.56,-205.59C1034.19,-204 1021.49,-202.42 1009.5,-201 861.68,-183.52 687.73,-165.83 596.21,-156.75"/>
<polygon fill="midnightblue" stroke="midnightblue" points="1046.48,-209.1 1056.85,-206.91 1047.38,-202.16 1046.48,-209.1"/>
</g>
<!-- Node32 -->
<g id="node32" class="node">
<title>Node32</title>
<g id="a_node32"><a xlink:href="_land_unit_factory_8h.html" target="_top" xlink:title=" ">
<polygon fill="white" stroke="black" points="984,-134.5 984,-164.5 1111,-164.5 1111,-134.5 984,-134.5"/>
<text text-anchor="start" x="992" y="-152.5" font-family="Helvetica,sans-Serif" font-size="10.00">include/GameLogic/Units</text>
<text text-anchor="middle" x="1047.5" y="-141.5" font-family="Helvetica,sans-Serif" font-size="10.00">/LandUnitFactory.h</text>
</a>
</g>
</g>
<!-- Node28&#45;&gt;Node32 -->
<g id="edge46" class="edge">
<title>Node28&#45;&gt;Node32</title>
<path fill="none" stroke="midnightblue" d="M1097.03,-194.6C1086,-184.78 1073.16,-173.34 1063.31,-164.58"/>
<polygon fill="midnightblue" stroke="midnightblue" points="1094.86,-197.36 1104.66,-201.4 1099.52,-192.13 1094.86,-197.36"/>
</g>
<!-- Node34 -->
<g id="node34" class="node">
<title>Node34</title>
<g id="a_node34"><a xlink:href="_transport_unit_factory_8h.html" target="_top" xlink:title=" ">
<polygon fill="white" stroke="black" points="1129,-134.5 1129,-164.5 1256,-164.5 1256,-134.5 1129,-134.5"/>
<text text-anchor="start" x="1137" y="-152.5" font-family="Helvetica,sans-Serif" font-size="10.00">include/GameLogic/Units</text>
<text text-anchor="middle" x="1192.5" y="-141.5" font-family="Helvetica,sans-Serif" font-size="10.00">/TransportUnitFactory.h</text>
</a>
</g>
</g>
<!-- Node28&#45;&gt;Node34 -->
<g id="edge49" class="edge">
<title>Node28&#45;&gt;Node34</title>
<path fill="none" stroke="midnightblue" d="M1143.65,-194.6C1154.52,-184.78 1167.2,-173.34 1176.91,-164.58"/>
<polygon fill="midnightblue" stroke="midnightblue" points="1141.2,-192.1 1136.12,-201.4 1145.89,-197.29 1141.2,-192.1"/>
</g>
<!-- Node31&#45;&gt;Node3 -->
<g id="edge42" class="edge">
<title>Node31&#45;&gt;Node3</title>
<path fill="none" stroke="midnightblue" d="M503.92,-128.31C486.64,-116.1 465.52,-101.18 452.54,-92.01"/>
<polygon fill="midnightblue" stroke="midnightblue" points="502.35,-131.48 512.54,-134.4 506.39,-125.77 502.35,-131.48"/>
</g>
<!-- Node31&#45;&gt;Node6 -->
<g id="edge40" class="edge">
<title>Node31&#45;&gt;Node6</title>
<path fill="none" stroke="midnightblue" d="M467.71,-131.98C426.06,-121.37 372.52,-107.72 332.86,-97.61"/>
<polygon fill="midnightblue" stroke="midnightblue" points="466.93,-135.4 477.48,-134.48 468.66,-128.61 466.93,-135.4"/>
</g>
<!-- Node31&#45;&gt;Node8 -->
<g id="edge44" class="edge">
<title>Node31&#45;&gt;Node8</title>
<path fill="none" stroke="midnightblue" d="M493.45,-169.37C455.16,-190.92 402.5,-230.09 402.5,-282.5 402.5,-351.5 402.5,-351.5 402.5,-351.5 402.5,-405.86 422.46,-416.48 436.5,-469 442.78,-492.51 449.38,-520.03 453.21,-536.32"/>
<polygon fill="midnightblue" stroke="midnightblue" points="495.24,-172.38 502.35,-164.53 491.89,-166.24 495.24,-172.38"/>
</g>
<!-- Node31&#45;&gt;Node10 -->
<g id="edge43" class="edge">
<title>Node31&#45;&gt;Node10</title>
<path fill="none" stroke="midnightblue" d="M514.34,-172.81C508.23,-181.23 501.87,-191.16 497.5,-201 482.42,-235 478.5,-245.31 478.5,-282.5 478.5,-351.5 478.5,-351.5 478.5,-351.5 478.5,-427.22 577.38,-461.13 639.76,-474.99"/>
<polygon fill="midnightblue" stroke="midnightblue" points="517.27,-174.73 520.52,-164.64 511.69,-170.51 517.27,-174.73"/>
</g>
<!-- Node31&#45;&gt;Node18 -->
<g id="edge39" class="edge">
<title>Node31&#45;&gt;Node18</title>
<path fill="none" stroke="midnightblue" d="M580.1,-130.82C608.23,-120.37 643.36,-107.32 669.6,-97.58"/>
<polygon fill="midnightblue" stroke="midnightblue" points="578.63,-127.63 570.47,-134.4 581.07,-134.2 578.63,-127.63"/>
</g>
<!-- Node31&#45;&gt;Node26 -->
<g id="edge41" class="edge">
<title>Node31&#45;&gt;Node26</title>
<path fill="none" stroke="midnightblue" d="M553.37,-127.54C573.9,-108.32 607.08,-80.81 641.5,-67 705.58,-41.29 903.62,-25.9 1001.12,-19.69"/>
<polygon fill="midnightblue" stroke="midnightblue" points="550.95,-125.01 546.14,-134.46 555.79,-130.07 550.95,-125.01"/>
</g>
<!-- Node32&#45;&gt;Node26 -->
<g id="edge47" class="edge">
<title>Node32&#45;&gt;Node26</title>
<path fill="none" stroke="midnightblue" d="M979.78,-130.37C964.29,-122.92 949.69,-112.5 940.5,-98 933.12,-86.36 932.95,-78.52 940.5,-67 954.16,-46.15 978.51,-33.86 1001.39,-26.64"/>
<polygon fill="midnightblue" stroke="midnightblue" points="978.41,-133.59 988.98,-134.43 981.24,-127.19 978.41,-133.59"/>
</g>
<!-- Node33 -->
<g id="node33" class="node">
<title>Node33</title>
<g id="a_node33"><a xlink:href="_land_unit_factory_8cpp.html" target="_top" xlink:title=" ">
<polygon fill="white" stroke="black" points="949.5,-67.5 949.5,-97.5 1059.5,-97.5 1059.5,-67.5 949.5,-67.5"/>
<text text-anchor="start" x="957.5" y="-85.5" font-family="Helvetica,sans-Serif" font-size="10.00">src/GameLogic/Units</text>
<text text-anchor="middle" x="1004.5" y="-74.5" font-family="Helvetica,sans-Serif" font-size="10.00">/LandUnitFactory.cpp</text>
</a>
</g>
</g>
<!-- Node32&#45;&gt;Node33 -->
<g id="edge48" class="edge">
<title>Node32&#45;&gt;Node33</title>
<path fill="none" stroke="midnightblue" d="M1032.53,-125.87C1026.3,-116.46 1019.27,-105.83 1013.81,-97.58"/>
<polygon fill="midnightblue" stroke="midnightblue" points="1029.73,-127.99 1038.17,-134.4 1035.57,-124.12 1029.73,-127.99"/>
</g>
<!-- Node34&#45;&gt;Node25 -->
<g id="edge52" class="edge">
<title>Node34&#45;&gt;Node25</title>
<path fill="none" stroke="midnightblue" d="M1230.94,-129.99C1252.34,-119.69 1278.55,-107.07 1298.26,-97.58"/>
<polygon fill="midnightblue" stroke="midnightblue" points="1229.28,-126.9 1221.79,-134.4 1232.32,-133.21 1229.28,-126.9"/>
</g>
<!-- Node34&#45;&gt;Node26 -->
<g id="edge50" class="edge">
<title>Node34&#45;&gt;Node26</title>
<path fill="none" stroke="midnightblue" d="M1209.12,-125.77C1219.68,-108.31 1229.2,-84.32 1216.5,-67 1192.65,-34.46 1147.77,-22.35 1111.6,-18.09"/>
<polygon fill="midnightblue" stroke="midnightblue" points="1206.13,-123.95 1203.61,-134.24 1212,-127.77 1206.13,-123.95"/>
</g>
<!-- Node35 -->
<g id="node35" class="node">
<title>Node35</title>
<g id="a_node35"><a xlink:href="_transport_unit_factory_8cpp.html" target="_top" xlink:title=" ">
<polygon fill="white" stroke="black" points="1078,-67.5 1078,-97.5 1207,-97.5 1207,-67.5 1078,-67.5"/>
<text text-anchor="start" x="1086" y="-85.5" font-family="Helvetica,sans-Serif" font-size="10.00">src/GameLogic/Units</text>
<text text-anchor="middle" x="1142.5" y="-74.5" font-family="Helvetica,sans-Serif" font-size="10.00">/TransportUnitFactory.cpp</text>
</a>
</g>
</g>
<!-- Node34&#45;&gt;Node35 -->
<g id="edge51" class="edge">
<title>Node34&#45;&gt;Node35</title>
<path fill="none" stroke="midnightblue" d="M1175.54,-126.45C1168.19,-116.9 1159.81,-106 1153.33,-97.58"/>
<polygon fill="midnightblue" stroke="midnightblue" points="1172.78,-128.6 1181.65,-134.4 1178.33,-124.34 1172.78,-128.6"/>
</g>
<!-- Node36&#45;&gt;Node32 -->
<g id="edge55" class="edge">
<title>Node36&#45;&gt;Node32</title>
<path fill="none" stroke="midnightblue" d="M1293.83,-200.54C1238.64,-189.33 1163.89,-174.14 1111.26,-163.45"/>
<polygon fill="midnightblue" stroke="midnightblue" points="1293.4,-204.02 1303.9,-202.58 1294.79,-197.16 1293.4,-204.02"/>
</g>
<!-- Node37 -->
<g id="node37" class="node">
<title>Node37</title>
<g id="a_node37"><a xlink:href="_land_unit_8cpp.html" target="_top" xlink:title=" ">
<polygon fill="white" stroke="black" points="1312.5,-134.5 1312.5,-164.5 1422.5,-164.5 1422.5,-134.5 1312.5,-134.5"/>
<text text-anchor="start" x="1320.5" y="-152.5" font-family="Helvetica,sans-Serif" font-size="10.00">src/GameLogic/Units</text>
<text text-anchor="middle" x="1367.5" y="-141.5" font-family="Helvetica,sans-Serif" font-size="10.00">/LandUnit.cpp</text>
</a>
</g>
</g>
<!-- Node36&#45;&gt;Node37 -->
<g id="edge54" class="edge">
<title>Node36&#45;&gt;Node37</title>
<path fill="none" stroke="midnightblue" d="M1367.5,-191.11C1367.5,-182.15 1367.5,-172.32 1367.5,-164.58"/>
<polygon fill="midnightblue" stroke="midnightblue" points="1364,-191.4 1367.5,-201.4 1371,-191.4 1364,-191.4"/>
</g>
<!-- Node38&#45;&gt;Node23 -->
<g id="edge58" class="edge">
<title>Node38&#45;&gt;Node23</title>
<path fill="none" stroke="midnightblue" d="M1552.89,-196.3C1570.57,-186.12 1591.9,-173.85 1608.03,-164.58"/>
<polygon fill="midnightblue" stroke="midnightblue" points="1550.94,-193.38 1544.02,-201.4 1554.43,-199.44 1550.94,-193.38"/>
</g>
<!-- Node38&#45;&gt;Node34 -->
<g id="edge59" class="edge">
<title>Node38&#45;&gt;Node34</title>
<path fill="none" stroke="midnightblue" d="M1445.64,-200.82C1388.59,-189.48 1310.47,-173.95 1256.16,-163.15"/>
<polygon fill="midnightblue" stroke="midnightblue" points="1445.18,-204.3 1455.67,-202.81 1446.55,-197.43 1445.18,-204.3"/>
</g>
<!-- Node39 -->
<g id="node39" class="node">
<title>Node39</title>
<g id="a_node39"><a xlink:href="_transport_unit_8cpp.html" target="_top" xlink:title=" ">
<polygon fill="white" stroke="black" points="1440.5,-134.5 1440.5,-164.5 1550.5,-164.5 1550.5,-134.5 1440.5,-134.5"/>
<text text-anchor="start" x="1448.5" y="-152.5" font-family="Helvetica,sans-Serif" font-size="10.00">src/GameLogic/Units</text>
<text text-anchor="middle" x="1495.5" y="-141.5" font-family="Helvetica,sans-Serif" font-size="10.00">/TransportUnit.cpp</text>
</a>
</g>
</g>
<!-- Node38&#45;&gt;Node39 -->
<g id="edge57" class="edge">
<title>Node38&#45;&gt;Node39</title>
<path fill="none" stroke="midnightblue" d="M1510.82,-191.99C1507.43,-182.8 1503.65,-172.58 1500.7,-164.58"/>
<polygon fill="midnightblue" stroke="midnightblue" points="1507.55,-193.23 1514.29,-201.4 1514.11,-190.8 1507.55,-193.23"/>
</g>
<!-- Node40&#45;&gt;Node19 -->
<g id="edge64" class="edge">
<title>Node40&#45;&gt;Node19</title>
<path fill="none" stroke="midnightblue" d="M1721.69,-234.92C1690.23,-245.43 1649.24,-258.64 1617.53,-268.48"/>
<polygon fill="midnightblue" stroke="midnightblue" points="1723.18,-238.11 1731.54,-231.61 1720.95,-231.48 1723.18,-238.11"/>
</g>
<!-- Node40&#45;&gt;Node20 -->
<g id="edge61" class="edge">
<title>Node40&#45;&gt;Node20</title>
<path fill="none" stroke="midnightblue" d="M1769.5,-191.11C1769.5,-182.15 1769.5,-172.32 1769.5,-164.58"/>
<polygon fill="midnightblue" stroke="midnightblue" points="1766,-191.4 1769.5,-201.4 1773,-191.4 1766,-191.4"/>
</g>
<!-- Node40&#45;&gt;Node21 -->
<g id="edge63" class="edge">
<title>Node40&#45;&gt;Node21</title>
<path fill="none" stroke="midnightblue" d="M1837.07,-199.05C1880.72,-188.43 1936.92,-174.74 1978.54,-164.61"/>
<polygon fill="midnightblue" stroke="midnightblue" points="1835.99,-195.71 1827.11,-201.48 1837.65,-202.51 1835.99,-195.71"/>
</g>
<!-- Node41 -->
<g id="node41" class="node">
<title>Node41</title>
<g id="a_node41"><a xlink:href="_unit_order_8cpp.html" target="_top" xlink:title=" ">
<polygon fill="white" stroke="black" points="1842.5,-134.5 1842.5,-164.5 1952.5,-164.5 1952.5,-134.5 1842.5,-134.5"/>
<text text-anchor="start" x="1850.5" y="-152.5" font-family="Helvetica,sans-Serif" font-size="10.00">src/GameLogic/Units</text>
<text text-anchor="middle" x="1897.5" y="-141.5" font-family="Helvetica,sans-Serif" font-size="10.00">/UnitOrder.cpp</text>
</a>
</g>
</g>
<!-- Node40&#45;&gt;Node41 -->
<g id="edge62" class="edge">
<title>Node40&#45;&gt;Node41</title>
<path fill="none" stroke="midnightblue" d="M1806.22,-196.85C1826.46,-186.58 1851.17,-174.03 1869.78,-164.58"/>
<polygon fill="midnightblue" stroke="midnightblue" points="1804.61,-193.75 1797.27,-201.4 1807.78,-199.99 1804.61,-193.75"/>
</g>
<!-- Node42&#45;&gt;Node16 -->
<g id="edge66" class="edge">
<title>Node42&#45;&gt;Node16</title>
<path fill="none" stroke="midnightblue" d="M659.19,-265.67C667.16,-255.09 677.33,-241.6 684.88,-231.59"/>
<polygon fill="midnightblue" stroke="midnightblue" points="656.33,-263.64 653.11,-273.73 661.92,-267.86 656.33,-263.64"/>
</g>
<!-- Node43 -->
<g id="node43" class="node">
<title>Node43</title>
<g id="a_node43"><a xlink:href="pathfinding_8cpp.html" target="_top" xlink:title=" ">
<polygon fill="white" stroke="black" points="507,-207 507,-226 620,-226 620,-207 507,-207"/>
<text text-anchor="middle" x="563.5" y="-214" font-family="Helvetica,sans-Serif" font-size="10.00">src/util/pathfinding.cpp</text>
</a>
</g>
</g>
<!-- Node42&#45;&gt;Node43 -->
<g id="edge67" class="edge">
<title>Node42&#45;&gt;Node43</title>
<path fill="none" stroke="midnightblue" d="M627.43,-267.57C611.05,-254.74 588,-236.69 574.52,-226.13"/>
<polygon fill="midnightblue" stroke="midnightblue" points="625.28,-270.32 635.31,-273.73 629.59,-264.81 625.28,-270.32"/>
</g>
</g>
</svg>
