<?xml version="1.0" encoding="UTF-8" standalone="no"?>
<!DOCTYPE svg PUBLIC "-//W3C//DTD SVG 1.1//EN"
 "http://www.w3.org/Graphics/SVG/1.1/DTD/svg11.dtd">
<!-- Generated by graphviz version 2.47.0 (20210407.0042)
 -->
<!-- Title: include/engine/GUI/GuiScroll.h Pages: 1 -->
<svg width="284pt" height="106pt"
 viewBox="0.00 0.00 283.50 106.00" xmlns="http://www.w3.org/2000/svg" xmlns:xlink="http://www.w3.org/1999/xlink">
<g id="graph0" class="graph" transform="scale(1 1) rotate(0) translate(4 102)">
<title>include/engine/GUI/GuiScroll.h</title>
<polygon fill="white" stroke="transparent" points="-4,4 -4,-102 279.5,-102 279.5,4 -4,4"/>
<!-- Node1 -->
<g id="node1" class="node">
<title>Node1</title>
<g id="a_node1"><a xlink:title=" ">
<polygon fill="#bfbfbf" stroke="black" points="94.5,-67.5 94.5,-97.5 194.5,-97.5 194.5,-67.5 94.5,-67.5"/>
<text text-anchor="start" x="102.5" y="-85.5" font-family="Helvetica,sans-Serif" font-size="10.00">include/engine/GUI</text>
<text text-anchor="middle" x="144.5" y="-74.5" font-family="Helvetica,sans-Serif" font-size="10.00">/GuiScroll.h</text>
</a>
</g>
</g>
<!-- Node2 -->
<g id="node2" class="node">
<title>Node2</title>
<g id="a_node2"><a xlink:href="_gui_scroll_8cpp.html" target="_top" xlink:title=" ">
<polygon fill="white" stroke="black" points="0,-6 0,-25 143,-25 143,-6 0,-6"/>
<text text-anchor="middle" x="71.5" y="-13" font-family="Helvetica,sans-Serif" font-size="10.00">src/engine/GUI/GuiScroll.cpp</text>
</a>
</g>
</g>
<!-- Node1&#45;&gt;Node2 -->
<g id="edge1" class="edge">
<title>Node1&#45;&gt;Node2</title>
<path fill="none" stroke="midnightblue" d="M121.11,-60.67C107.63,-48.67 91.4,-34.22 81.26,-25.19"/>
<polygon fill="midnightblue" stroke="midnightblue" points="118.86,-63.36 128.66,-67.4 123.52,-58.13 118.86,-63.36"/>
</g>
<!-- Node3 -->
<g id="node3" class="node">
<title>Node3</title>
<g id="a_node3"><a xlink:href="_squad_template_8cpp.html" target="_top" xlink:title=" ">
<polygon fill="white" stroke="black" points="161.5,-0.5 161.5,-30.5 275.5,-30.5 275.5,-0.5 161.5,-0.5"/>
<text text-anchor="start" x="169.5" y="-18.5" font-family="Helvetica,sans-Serif" font-size="10.00">src/GameLogic/Squad</text>
<text text-anchor="middle" x="218.5" y="-7.5" font-family="Helvetica,sans-Serif" font-size="10.00">/SquadTemplate.cpp</text>
</a>
</g>
</g>
<!-- Node1&#45;&gt;Node3 -->
<g id="edge2" class="edge">
<title>Node1&#45;&gt;Node3</title>
<path fill="none" stroke="midnightblue" d="M168.3,-60.6C179.47,-50.78 192.49,-39.34 202.47,-30.58"/>
<polygon fill="midnightblue" stroke="midnightblue" points="165.76,-58.17 160.56,-67.4 170.38,-63.43 165.76,-58.17"/>
</g>
</g>
</svg>
