<?xml version="1.0" encoding="UTF-8" standalone="no"?>
<!DOCTYPE svg PUBLIC "-//W3C//DTD SVG 1.1//EN"
 "http://www.w3.org/Graphics/SVG/1.1/DTD/svg11.dtd">
<!-- Generated by graphviz version 2.47.0 (20210407.0042)
 -->
<!-- Title: include/engine/GUI/GuiList.h Pages: 1 -->
<svg width="1205pt" height="642pt"
 viewBox="0.00 0.00 1205.00 642.00" xmlns="http://www.w3.org/2000/svg" xmlns:xlink="http://www.w3.org/1999/xlink">
<g id="graph0" class="graph" transform="scale(1 1) rotate(0) translate(4 638)">
<title>include/engine/GUI/GuiList.h</title>
<polygon fill="white" stroke="transparent" points="-4,4 -4,-638 1201,-638 1201,4 -4,4"/>
<!-- Node1 -->
<g id="node1" class="node">
<title>Node1</title>
<g id="a_node1"><a xlink:title=" ">
<polygon fill="#bfbfbf" stroke="black" points="433,-603.5 433,-633.5 533,-633.5 533,-603.5 433,-603.5"/>
<text text-anchor="start" x="441" y="-621.5" font-family="Helvetica,sans-Serif" font-size="10.00">include/engine/GUI</text>
<text text-anchor="middle" x="483" y="-610.5" font-family="Helvetica,sans-Serif" font-size="10.00">/GuiList.h</text>
</a>
</g>
</g>
<!-- Node2 -->
<g id="node2" class="node">
<title>Node2</title>
<g id="a_node2"><a xlink:href="_gui_list_8cpp.html" target="_top" xlink:title=" ">
<polygon fill="white" stroke="black" points="319.5,-542 319.5,-561 454.5,-561 454.5,-542 319.5,-542"/>
<text text-anchor="middle" x="387" y="-549" font-family="Helvetica,sans-Serif" font-size="10.00">src/engine/GUI/GuiList.cpp</text>
</a>
</g>
</g>
<!-- Node1&#45;&gt;Node2 -->
<g id="edge1" class="edge">
<title>Node1&#45;&gt;Node2</title>
<path fill="none" stroke="midnightblue" d="M453.67,-597.64C435.55,-585.37 413.23,-570.26 399.56,-561.01"/>
<polygon fill="midnightblue" stroke="midnightblue" points="451.93,-600.69 462.17,-603.4 455.85,-594.89 451.93,-600.69"/>
</g>
<!-- Node3 -->
<g id="node3" class="node">
<title>Node3</title>
<g id="a_node3"><a xlink:href="main_8cpp.html" target="_top" xlink:title=" ">
<polygon fill="white" stroke="black" points="405,-341 405,-360 477,-360 477,-341 405,-341"/>
<text text-anchor="middle" x="441" y="-348" font-family="Helvetica,sans-Serif" font-size="10.00">src/main.cpp</text>
</a>
</g>
</g>
<!-- Node1&#45;&gt;Node3 -->
<g id="edge2" class="edge">
<title>Node1&#45;&gt;Node3</title>
<path fill="none" stroke="midnightblue" d="M479.18,-593.28C470.19,-536.34 448.04,-396.08 442.35,-360.05"/>
<polygon fill="midnightblue" stroke="midnightblue" points="475.73,-593.87 480.74,-603.2 482.64,-592.78 475.73,-593.87"/>
</g>
<!-- Node4 -->
<g id="node4" class="node">
<title>Node4</title>
<g id="a_node4"><a xlink:href="_squad_template_8h.html" target="_top" xlink:title=" ">
<polygon fill="white" stroke="black" points="956.5,-536.5 956.5,-566.5 1087.5,-566.5 1087.5,-536.5 956.5,-536.5"/>
<text text-anchor="start" x="964.5" y="-554.5" font-family="Helvetica,sans-Serif" font-size="10.00">include/GameLogic/Squad</text>
<text text-anchor="middle" x="1022" y="-543.5" font-family="Helvetica,sans-Serif" font-size="10.00">/SquadTemplate.h</text>
</a>
</g>
</g>
<!-- Node1&#45;&gt;Node4 -->
<g id="edge3" class="edge">
<title>Node1&#45;&gt;Node4</title>
<path fill="none" stroke="midnightblue" d="M543.36,-610.22C645.33,-597.92 850.91,-573.13 956.36,-560.42"/>
<polygon fill="midnightblue" stroke="midnightblue" points="542.73,-606.77 533.22,-611.44 543.57,-613.72 542.73,-606.77"/>
</g>
<!-- Node5 -->
<g id="node5" class="node">
<title>Node5</title>
<g id="a_node5"><a xlink:href="_squad_template_8cpp.html" target="_top" xlink:title=" ">
<polygon fill="white" stroke="black" points="1083,-0.5 1083,-30.5 1197,-30.5 1197,-0.5 1083,-0.5"/>
<text text-anchor="start" x="1091" y="-18.5" font-family="Helvetica,sans-Serif" font-size="10.00">src/GameLogic/Squad</text>
<text text-anchor="middle" x="1140" y="-7.5" font-family="Helvetica,sans-Serif" font-size="10.00">/SquadTemplate.cpp</text>
</a>
</g>
</g>
<!-- Node4&#45;&gt;Node5 -->
<g id="edge4" class="edge">
<title>Node4&#45;&gt;Node5</title>
<path fill="none" stroke="midnightblue" d="M1060.3,-531.3C1097.7,-509.54 1149,-470.24 1149,-418.5 1149,-418.5 1149,-418.5 1149,-148.5 1149,-105.55 1144.2,-54.91 1141.61,-30.74"/>
<polygon fill="midnightblue" stroke="midnightblue" points="1058.14,-528.5 1051.14,-536.46 1061.57,-534.61 1058.14,-528.5"/>
</g>
<!-- Node6 -->
<g id="node6" class="node">
<title>Node6</title>
<g id="a_node6"><a xlink:href="_all_squad_templates_8h.html" target="_top" xlink:title=" ">
<polygon fill="white" stroke="black" points="806.5,-469.5 806.5,-499.5 937.5,-499.5 937.5,-469.5 806.5,-469.5"/>
<text text-anchor="start" x="814.5" y="-487.5" font-family="Helvetica,sans-Serif" font-size="10.00">include/GameLogic/Squad</text>
<text text-anchor="middle" x="872" y="-476.5" font-family="Helvetica,sans-Serif" font-size="10.00">/AllSquadTemplates.h</text>
</a>
</g>
</g>
<!-- Node4&#45;&gt;Node6 -->
<g id="edge5" class="edge">
<title>Node4&#45;&gt;Node6</title>
<path fill="none" stroke="midnightblue" d="M980.25,-532.41C956.3,-522.03 926.68,-509.2 904.48,-499.58"/>
<polygon fill="midnightblue" stroke="midnightblue" points="978.89,-535.63 989.45,-536.4 981.67,-529.21 978.89,-535.63"/>
</g>
<!-- Node7 -->
<g id="node7" class="node">
<title>Node7</title>
<g id="a_node7"><a xlink:href="_all_squad_templates_8cpp.html" target="_top" xlink:title=" ">
<polygon fill="white" stroke="black" points="593,-402.5 593,-432.5 715,-432.5 715,-402.5 593,-402.5"/>
<text text-anchor="start" x="601" y="-420.5" font-family="Helvetica,sans-Serif" font-size="10.00">src/GameLogic/Squad</text>
<text text-anchor="middle" x="654" y="-409.5" font-family="Helvetica,sans-Serif" font-size="10.00">/AllSquadTemplates.cpp</text>
</a>
</g>
</g>
<!-- Node6&#45;&gt;Node7 -->
<g id="edge6" class="edge">
<title>Node6&#45;&gt;Node7</title>
<path fill="none" stroke="midnightblue" d="M815.25,-466.58C779.84,-456.02 734.8,-442.59 701.33,-432.61"/>
<polygon fill="midnightblue" stroke="midnightblue" points="814.38,-469.97 824.97,-469.48 816.38,-463.26 814.38,-469.97"/>
</g>
<!-- Node8 -->
<g id="node8" class="node">
<title>Node8</title>
<g id="a_node8"><a xlink:href="_cell_8h.html" target="_top" xlink:title=" ">
<polygon fill="white" stroke="black" points="733,-408 733,-427 861,-427 861,-408 733,-408"/>
<text text-anchor="middle" x="797" y="-415" font-family="Helvetica,sans-Serif" font-size="10.00">include/GameLogic/Cell.h</text>
</a>
</g>
</g>
<!-- Node6&#45;&gt;Node8 -->
<g id="edge7" class="edge">
<title>Node6&#45;&gt;Node8</title>
<path fill="none" stroke="midnightblue" d="M847.97,-462.67C834.12,-450.67 817.45,-436.22 807.03,-427.19"/>
<polygon fill="midnightblue" stroke="midnightblue" points="845.88,-465.49 855.73,-469.4 850.46,-460.2 845.88,-465.49"/>
</g>
<!-- Node8&#45;&gt;Node3 -->
<g id="edge9" class="edge">
<title>Node8&#45;&gt;Node3</title>
<path fill="none" stroke="midnightblue" d="M745.88,-406.06C738.54,-404.64 731.09,-403.25 724,-402 620.81,-383.79 593.31,-388.64 491,-366 483.5,-364.34 475.47,-362.18 468.08,-360.04"/>
<polygon fill="midnightblue" stroke="midnightblue" points="745.26,-409.5 755.75,-407.99 746.61,-402.63 745.26,-409.5"/>
</g>
<!-- Node9 -->
<g id="node9" class="node">
<title>Node9</title>
<g id="a_node9"><a xlink:href="_cell_8cpp.html" target="_top" xlink:title=" ">
<polygon fill="white" stroke="black" points="777.5,-341 777.5,-360 898.5,-360 898.5,-341 777.5,-341"/>
<text text-anchor="middle" x="838" y="-348" font-family="Helvetica,sans-Serif" font-size="10.00">src/GameLogic/Cell.cpp</text>
</a>
</g>
</g>
<!-- Node8&#45;&gt;Node9 -->
<g id="edge8" class="edge">
<title>Node8&#45;&gt;Node9</title>
<path fill="none" stroke="midnightblue" d="M808.02,-399.03C815.95,-386.45 826.33,-370.01 832.56,-360.13"/>
<polygon fill="midnightblue" stroke="midnightblue" points="804.9,-397.41 802.53,-407.73 810.82,-401.14 804.9,-397.41"/>
</g>
<!-- Node10 -->
<g id="node10" class="node">
<title>Node10</title>
<g id="a_node10"><a xlink:href="_set_squad_path_8h.html" target="_top" xlink:title=" ">
<polygon fill="white" stroke="black" points="879.5,-201.5 879.5,-231.5 992.5,-231.5 992.5,-201.5 879.5,-201.5"/>
<text text-anchor="start" x="887.5" y="-219.5" font-family="Helvetica,sans-Serif" font-size="10.00">include/engine/actions</text>
<text text-anchor="middle" x="936" y="-208.5" font-family="Helvetica,sans-Serif" font-size="10.00">/SetSquadPath.h</text>
</a>
</g>
</g>
<!-- Node8&#45;&gt;Node10 -->
<g id="edge10" class="edge">
<title>Node8&#45;&gt;Node10</title>
<path fill="none" stroke="midnightblue" d="M839.4,-404.73C860.3,-397.16 884.05,-385.06 899,-366 930.57,-325.74 930.29,-260.65 932.34,-231.92"/>
<polygon fill="midnightblue" stroke="midnightblue" points="838.09,-401.48 829.74,-407.99 840.33,-408.11 838.09,-401.48"/>
</g>
<!-- Node13 -->
<g id="node13" class="node">
<title>Node13</title>
<g id="a_node13"><a xlink:href="_game_logic_2_squad_2_action_8h.html" target="_top" xlink:title=" ">
<polygon fill="white" stroke="black" points="533.5,-335.5 533.5,-365.5 664.5,-365.5 664.5,-335.5 533.5,-335.5"/>
<text text-anchor="start" x="541.5" y="-353.5" font-family="Helvetica,sans-Serif" font-size="10.00">include/GameLogic/Squad</text>
<text text-anchor="middle" x="599" y="-342.5" font-family="Helvetica,sans-Serif" font-size="10.00">/Action.h</text>
</a>
</g>
</g>
<!-- Node8&#45;&gt;Node13 -->
<g id="edge14" class="edge">
<title>Node8&#45;&gt;Node13</title>
<path fill="none" stroke="midnightblue" d="M760.85,-404.63C727.28,-393.61 677.27,-377.19 641.73,-365.53"/>
<polygon fill="midnightblue" stroke="midnightblue" points="760.11,-408.07 770.71,-407.87 762.3,-401.42 760.11,-408.07"/>
</g>
<!-- Node14 -->
<g id="node14" class="node">
<title>Node14</title>
<g id="a_node14"><a xlink:href="_squad_8h.html" target="_top" xlink:title=" ">
<polygon fill="white" stroke="black" points="533.5,-268.5 533.5,-298.5 664.5,-298.5 664.5,-268.5 533.5,-268.5"/>
<text text-anchor="start" x="541.5" y="-286.5" font-family="Helvetica,sans-Serif" font-size="10.00">include/GameLogic/Squad</text>
<text text-anchor="middle" x="599" y="-275.5" font-family="Helvetica,sans-Serif" font-size="10.00">/Squad.h</text>
</a>
</g>
</g>
<!-- Node8&#45;&gt;Node14 -->
<g id="edge48" class="edge">
<title>Node8&#45;&gt;Node14</title>
<path fill="none" stroke="midnightblue" d="M771.81,-402.6C730.66,-377.3 650.7,-324 615.74,-298.57"/>
<polygon fill="midnightblue" stroke="midnightblue" points="770.08,-405.65 780.45,-407.84 773.71,-399.66 770.08,-405.65"/>
</g>
<!-- Node20 -->
<g id="node20" class="node">
<title>Node20</title>
<g id="a_node20"><a xlink:href="_factory_8h.html" target="_top" xlink:title=" ">
<polygon fill="white" stroke="black" points="670.5,-134.5 670.5,-164.5 797.5,-164.5 797.5,-134.5 670.5,-134.5"/>
<text text-anchor="start" x="678.5" y="-152.5" font-family="Helvetica,sans-Serif" font-size="10.00">include/GameLogic/Units</text>
<text text-anchor="middle" x="734" y="-141.5" font-family="Helvetica,sans-Serif" font-size="10.00">/Factory.h</text>
</a>
</g>
</g>
<!-- Node8&#45;&gt;Node20 -->
<g id="edge49" class="edge">
<title>Node8&#45;&gt;Node20</title>
<path fill="none" stroke="midnightblue" d="M785.66,-399.55C779.82,-390.06 773.09,-377.79 769,-366 743.68,-292.94 736.49,-199.48 734.61,-164.52"/>
<polygon fill="midnightblue" stroke="midnightblue" points="782.73,-401.46 791.07,-407.99 788.62,-397.69 782.73,-401.46"/>
</g>
<!-- Node30 -->
<g id="node30" class="node">
<title>Node30</title>
<g id="a_node30"><a xlink:href="pathfinding_8h.html" target="_top" xlink:title=" ">
<polygon fill="white" stroke="black" points="192,-207 192,-226 312,-226 312,-207 192,-207"/>
<text text-anchor="middle" x="252" y="-214" font-family="Helvetica,sans-Serif" font-size="10.00">include/util/pathfinding.h</text>
</a>
</g>
</g>
<!-- Node8&#45;&gt;Node30 -->
<g id="edge50" class="edge">
<title>Node8&#45;&gt;Node30</title>
<path fill="none" stroke="midnightblue" d="M744.55,-405.96C737.64,-404.61 730.65,-403.26 724,-402 635.26,-385.2 606.05,-403.75 524,-366 504.2,-356.89 504.29,-346.85 486,-335 411.6,-286.8 314.77,-243.86 272.85,-226.13"/>
<polygon fill="midnightblue" stroke="midnightblue" points="744.08,-409.44 754.56,-407.94 745.43,-402.57 744.08,-409.44"/>
</g>
<!-- Node10&#45;&gt;Node8 -->
<g id="edge13" class="edge">
<title>Node10&#45;&gt;Node8</title>
<path fill="none" stroke="midnightblue" d="M944.04,-242.15C948,-274.11 945.24,-329.99 917,-366 899.69,-388.07 870.56,-400.83 845.24,-407.99"/>
<polygon fill="midnightblue" stroke="midnightblue" points="947.44,-241.24 942.39,-231.92 940.52,-242.35 947.44,-241.24"/>
</g>
<!-- Node11 -->
<g id="node11" class="node">
<title>Node11</title>
<g id="a_node11"><a xlink:href="engine_2_action_8cpp.html" target="_top" xlink:title=" ">
<polygon fill="white" stroke="black" points="935,-140 935,-159 1045,-159 1045,-140 935,-140"/>
<text text-anchor="middle" x="990" y="-147" font-family="Helvetica,sans-Serif" font-size="10.00">src/engine/Action.cpp</text>
</a>
</g>
</g>
<!-- Node10&#45;&gt;Node11 -->
<g id="edge11" class="edge">
<title>Node10&#45;&gt;Node11</title>
<path fill="none" stroke="midnightblue" d="M954.15,-193.66C963.94,-181.86 975.49,-167.97 982.78,-159.19"/>
<polygon fill="midnightblue" stroke="midnightblue" points="951.42,-191.47 947.72,-201.4 956.8,-195.94 951.42,-191.47"/>
</g>
<!-- Node12 -->
<g id="node12" class="node">
<title>Node12</title>
<g id="a_node12"><a xlink:href="_set_squad_path_8cpp.html" target="_top" xlink:title=" ">
<polygon fill="white" stroke="black" points="815.5,-134.5 815.5,-164.5 916.5,-164.5 916.5,-134.5 815.5,-134.5"/>
<text text-anchor="start" x="823.5" y="-152.5" font-family="Helvetica,sans-Serif" font-size="10.00">src/engine/actions</text>
<text text-anchor="middle" x="866" y="-141.5" font-family="Helvetica,sans-Serif" font-size="10.00">/SetSquadPath.cpp</text>
</a>
</g>
</g>
<!-- Node10&#45;&gt;Node12 -->
<g id="edge12" class="edge">
<title>Node10&#45;&gt;Node12</title>
<path fill="none" stroke="midnightblue" d="M913.18,-194.31C902.68,-184.56 890.51,-173.26 881.16,-164.58"/>
<polygon fill="midnightblue" stroke="midnightblue" points="911.1,-197.16 920.81,-201.4 915.86,-192.03 911.1,-197.16"/>
</g>
<!-- Node13&#45;&gt;Node14 -->
<g id="edge15" class="edge">
<title>Node13&#45;&gt;Node14</title>
<path fill="none" stroke="midnightblue" d="M592.45,-325.4C592.01,-316.37 592.3,-306.41 593.33,-298.58"/>
<polygon fill="midnightblue" stroke="midnightblue" points="588.97,-325.74 593.32,-335.4 595.94,-325.13 588.97,-325.74"/>
</g>
<!-- Node14&#45;&gt;Node8 -->
<g id="edge18" class="edge">
<title>Node14&#45;&gt;Node8</title>
<path fill="none" stroke="midnightblue" d="M633.01,-303.88C679.5,-333 759.85,-386.88 787.57,-407.84"/>
<polygon fill="midnightblue" stroke="midnightblue" points="634.81,-300.88 624.47,-298.57 631.12,-306.82 634.81,-300.88"/>
</g>
<!-- Node14&#45;&gt;Node10 -->
<g id="edge17" class="edge">
<title>Node14&#45;&gt;Node10</title>
<path fill="none" stroke="midnightblue" d="M674.9,-267.86C736.92,-255.9 823.23,-239.25 879.35,-228.43"/>
<polygon fill="midnightblue" stroke="midnightblue" points="673.93,-264.48 664.78,-269.81 675.26,-271.36 673.93,-264.48"/>
</g>
<!-- Node14&#45;&gt;Node13 -->
<g id="edge19" class="edge">
<title>Node14&#45;&gt;Node13</title>
<path fill="none" stroke="midnightblue" d="M605.54,-308.57C605.99,-317.6 605.71,-327.56 604.68,-335.4"/>
<polygon fill="midnightblue" stroke="midnightblue" points="609.03,-308.24 604.67,-298.58 602.05,-308.84 609.03,-308.24"/>
</g>
<!-- Node15 -->
<g id="node15" class="node">
<title>Node15</title>
<g id="a_node15"><a xlink:href="_squad_8cpp.html" target="_top" xlink:title=" ">
<polygon fill="white" stroke="black" points="942,-0.5 942,-30.5 1056,-30.5 1056,-0.5 942,-0.5"/>
<text text-anchor="start" x="950" y="-18.5" font-family="Helvetica,sans-Serif" font-size="10.00">src/GameLogic/Squad</text>
<text text-anchor="middle" x="999" y="-7.5" font-family="Helvetica,sans-Serif" font-size="10.00">/Squad.cpp</text>
</a>
</g>
</g>
<!-- Node14&#45;&gt;Node15 -->
<g id="edge16" class="edge">
<title>Node14&#45;&gt;Node15</title>
<path fill="none" stroke="midnightblue" d="M603.14,-258.07C609.89,-225.49 626.28,-168 662,-134 695.61,-102.01 719.69,-120.98 760,-98 778.93,-87.2 778.52,-76.78 798,-67 823,-54.45 891.79,-38.51 941.95,-27.94"/>
<polygon fill="midnightblue" stroke="midnightblue" points="599.67,-257.61 601.21,-268.09 606.54,-258.93 599.67,-257.61"/>
</g>
<!-- Node16 -->
<g id="node16" class="node">
<title>Node16</title>
<g id="a_node16"><a xlink:href="_unit_8h.html" target="_top" xlink:title=" ">
<polygon fill="white" stroke="black" points="440.5,-201.5 440.5,-231.5 567.5,-231.5 567.5,-201.5 440.5,-201.5"/>
<text text-anchor="start" x="448.5" y="-219.5" font-family="Helvetica,sans-Serif" font-size="10.00">include/GameLogic/Units</text>
<text text-anchor="middle" x="504" y="-208.5" font-family="Helvetica,sans-Serif" font-size="10.00">/Unit.h</text>
</a>
</g>
</g>
<!-- Node14&#45;&gt;Node16 -->
<g id="edge20" class="edge">
<title>Node14&#45;&gt;Node16</title>
<path fill="none" stroke="midnightblue" d="M564.28,-263.02C548.67,-252.9 531.13,-240.77 518.9,-231.58"/>
<polygon fill="midnightblue" stroke="midnightblue" points="562.4,-265.97 572.71,-268.4 566.16,-260.07 562.4,-265.97"/>
</g>
<!-- Node14&#45;&gt;Node30 -->
<g id="edge45" class="edge">
<title>Node14&#45;&gt;Node30</title>
<path fill="none" stroke="midnightblue" d="M523.39,-268.34C454.46,-255.43 354.91,-236.78 297.5,-226.02"/>
<polygon fill="midnightblue" stroke="midnightblue" points="522.85,-271.8 533.32,-270.2 524.14,-264.92 522.85,-271.8"/>
</g>
<!-- Node16&#45;&gt;Node14 -->
<g id="edge22" class="edge">
<title>Node16&#45;&gt;Node14</title>
<path fill="none" stroke="midnightblue" d="M539.11,-237.24C554.61,-247.29 571.94,-259.28 584.06,-268.4"/>
<polygon fill="midnightblue" stroke="midnightblue" points="540.56,-234.01 530.25,-231.58 536.79,-239.91 540.56,-234.01"/>
</g>
<!-- Node17 -->
<g id="node17" class="node">
<title>Node17</title>
<g id="a_node17"><a xlink:href="_unit_8cpp.html" target="_top" xlink:title=" ">
<polygon fill="white" stroke="black" points="367,-67.5 367,-97.5 477,-97.5 477,-67.5 367,-67.5"/>
<text text-anchor="start" x="375" y="-85.5" font-family="Helvetica,sans-Serif" font-size="10.00">src/GameLogic/Units</text>
<text text-anchor="middle" x="422" y="-74.5" font-family="Helvetica,sans-Serif" font-size="10.00">/Unit.cpp</text>
</a>
</g>
</g>
<!-- Node16&#45;&gt;Node17 -->
<g id="edge21" class="edge">
<title>Node16&#45;&gt;Node17</title>
<path fill="none" stroke="midnightblue" d="M489.92,-192.83C472.92,-165.47 444.85,-120.28 430.71,-97.52"/>
<polygon fill="midnightblue" stroke="midnightblue" points="486.97,-194.73 495.22,-201.37 492.92,-191.03 486.97,-194.73"/>
</g>
<!-- Node18 -->
<g id="node18" class="node">
<title>Node18</title>
<g id="a_node18"><a xlink:href="_squad_order_8h.html" target="_top" xlink:title=" ">
<polygon fill="white" stroke="black" points="89.5,-67.5 89.5,-97.5 220.5,-97.5 220.5,-67.5 89.5,-67.5"/>
<text text-anchor="start" x="97.5" y="-85.5" font-family="Helvetica,sans-Serif" font-size="10.00">include/GameLogic/Squad</text>
<text text-anchor="middle" x="155" y="-74.5" font-family="Helvetica,sans-Serif" font-size="10.00">/SquadOrder.h</text>
</a>
</g>
</g>
<!-- Node16&#45;&gt;Node18 -->
<g id="edge23" class="edge">
<title>Node16&#45;&gt;Node18</title>
<path fill="none" stroke="midnightblue" d="M430.05,-205.92C388.29,-198.54 336.02,-185.95 293,-165 273.09,-155.3 272.62,-145.98 254,-134 232.42,-120.12 206.54,-107.03 186.65,-97.66"/>
<polygon fill="midnightblue" stroke="midnightblue" points="429.71,-209.41 440.15,-207.63 430.88,-202.51 429.71,-209.41"/>
</g>
<!-- Node16&#45;&gt;Node20 -->
<g id="edge25" class="edge">
<title>Node16&#45;&gt;Node20</title>
<path fill="none" stroke="midnightblue" d="M563.39,-198.71C600.82,-188.14 648.6,-174.63 684.07,-164.61"/>
<polygon fill="midnightblue" stroke="midnightblue" points="562.29,-195.39 553.62,-201.48 564.2,-202.12 562.29,-195.39"/>
</g>
<!-- Node26 -->
<g id="node26" class="node">
<title>Node26</title>
<g id="a_node26"><a xlink:href="_land_unit_8h.html" target="_top" xlink:title=" ">
<polygon fill="white" stroke="black" points="486.5,-134.5 486.5,-164.5 613.5,-164.5 613.5,-134.5 486.5,-134.5"/>
<text text-anchor="start" x="494.5" y="-152.5" font-family="Helvetica,sans-Serif" font-size="10.00">include/GameLogic/Units</text>
<text text-anchor="middle" x="550" y="-141.5" font-family="Helvetica,sans-Serif" font-size="10.00">/LandUnit.h</text>
</a>
</g>
</g>
<!-- Node16&#45;&gt;Node26 -->
<g id="edge37" class="edge">
<title>Node16&#45;&gt;Node26</title>
<path fill="none" stroke="midnightblue" d="M519.81,-193.16C526.52,-183.68 534.13,-172.92 540.04,-164.58"/>
<polygon fill="midnightblue" stroke="midnightblue" points="516.9,-191.21 513.98,-201.4 522.62,-195.26 516.9,-191.21"/>
</g>
<!-- Node28 -->
<g id="node28" class="node">
<title>Node28</title>
<g id="a_node28"><a xlink:href="_unit_order_8h.html" target="_top" xlink:title=" ">
<polygon fill="white" stroke="black" points="302.5,-134.5 302.5,-164.5 429.5,-164.5 429.5,-134.5 302.5,-134.5"/>
<text text-anchor="start" x="310.5" y="-152.5" font-family="Helvetica,sans-Serif" font-size="10.00">include/GameLogic/Units</text>
<text text-anchor="middle" x="366" y="-141.5" font-family="Helvetica,sans-Serif" font-size="10.00">/UnitOrder.h</text>
</a>
</g>
</g>
<!-- Node16&#45;&gt;Node28 -->
<g id="edge40" class="edge">
<title>Node16&#45;&gt;Node28</title>
<path fill="none" stroke="midnightblue" d="M459.16,-197.27C436.23,-186.92 409.28,-174.15 390.21,-164.58"/>
<polygon fill="midnightblue" stroke="midnightblue" points="457.82,-200.5 468.38,-201.4 460.68,-194.12 457.82,-200.5"/>
</g>
<!-- Node19 -->
<g id="node19" class="node">
<title>Node19</title>
<g id="a_node19"><a xlink:href="_squad_order_8cpp.html" target="_top" xlink:title=" ">
<polygon fill="white" stroke="black" points="98,-0.5 98,-30.5 212,-30.5 212,-0.5 98,-0.5"/>
<text text-anchor="start" x="106" y="-18.5" font-family="Helvetica,sans-Serif" font-size="10.00">src/GameLogic/Squad</text>
<text text-anchor="middle" x="155" y="-7.5" font-family="Helvetica,sans-Serif" font-size="10.00">/SquadOrder.cpp</text>
</a>
</g>
</g>
<!-- Node18&#45;&gt;Node19 -->
<g id="edge24" class="edge">
<title>Node18&#45;&gt;Node19</title>
<path fill="none" stroke="midnightblue" d="M155,-57.11C155,-48.15 155,-38.32 155,-30.58"/>
<polygon fill="midnightblue" stroke="midnightblue" points="151.5,-57.4 155,-67.4 158.5,-57.4 151.5,-57.4"/>
</g>
<!-- Node20&#45;&gt;Node4 -->
<g id="edge27" class="edge">
<title>Node20&#45;&gt;Node4</title>
<path fill="none" stroke="midnightblue" d="M807.58,-164.98C895.98,-179.75 929.96,-155.83 1002,-201 1071.36,-244.49 1111,-267.63 1111,-349.5 1111,-418.5 1111,-418.5 1111,-418.5 1111,-468.8 1066.02,-514.3 1040.01,-536.4"/>
<polygon fill="midnightblue" stroke="midnightblue" points="808.15,-161.53 797.69,-163.2 806.92,-168.42 808.15,-161.53"/>
</g>
<!-- Node21 -->
<g id="node21" class="node">
<title>Node21</title>
<g id="a_node21"><a xlink:href="_factory_8cpp.html" target="_top" xlink:title=" ">
<polygon fill="white" stroke="black" points="807,-67.5 807,-97.5 917,-97.5 917,-67.5 807,-67.5"/>
<text text-anchor="start" x="815" y="-85.5" font-family="Helvetica,sans-Serif" font-size="10.00">src/GameLogic/Units</text>
<text text-anchor="middle" x="862" y="-74.5" font-family="Helvetica,sans-Serif" font-size="10.00">/Factory.cpp</text>
</a>
</g>
</g>
<!-- Node20&#45;&gt;Node21 -->
<g id="edge26" class="edge">
<title>Node20&#45;&gt;Node21</title>
<path fill="none" stroke="midnightblue" d="M770.72,-129.85C790.96,-119.58 815.67,-107.03 834.28,-97.58"/>
<polygon fill="midnightblue" stroke="midnightblue" points="769.11,-126.75 761.77,-134.4 772.28,-132.99 769.11,-126.75"/>
</g>
<!-- Node22 -->
<g id="node22" class="node">
<title>Node22</title>
<g id="a_node22"><a xlink:href="_all_units_8h.html" target="_top" xlink:title=" ">
<polygon fill="white" stroke="black" points="964.5,-67.5 964.5,-97.5 1091.5,-97.5 1091.5,-67.5 964.5,-67.5"/>
<text text-anchor="start" x="972.5" y="-85.5" font-family="Helvetica,sans-Serif" font-size="10.00">include/GameLogic/Units</text>
<text text-anchor="middle" x="1028" y="-74.5" font-family="Helvetica,sans-Serif" font-size="10.00">/AllUnits.h</text>
</a>
</g>
</g>
<!-- Node20&#45;&gt;Node22 -->
<g id="edge28" class="edge">
<title>Node20&#45;&gt;Node22</title>
<path fill="none" stroke="midnightblue" d="M807.2,-132.32C855.52,-121.63 918.2,-107.77 964.43,-97.55"/>
<polygon fill="midnightblue" stroke="midnightblue" points="806.44,-128.9 797.43,-134.48 807.95,-135.73 806.44,-128.9"/>
</g>
<!-- Node24 -->
<g id="node24" class="node">
<title>Node24</title>
<g id="a_node24"><a xlink:href="_land_unit_factory_8h.html" target="_top" xlink:title=" ">
<polygon fill="white" stroke="black" points="623.5,-67.5 623.5,-97.5 750.5,-97.5 750.5,-67.5 623.5,-67.5"/>
<text text-anchor="start" x="631.5" y="-85.5" font-family="Helvetica,sans-Serif" font-size="10.00">include/GameLogic/Units</text>
<text text-anchor="middle" x="687" y="-74.5" font-family="Helvetica,sans-Serif" font-size="10.00">/LandUnitFactory.h</text>
</a>
</g>
</g>
<!-- Node20&#45;&gt;Node24 -->
<g id="edge34" class="edge">
<title>Node20&#45;&gt;Node24</title>
<path fill="none" stroke="midnightblue" d="M717.84,-126.16C710.99,-116.68 703.21,-105.92 697.18,-97.58"/>
<polygon fill="midnightblue" stroke="midnightblue" points="715.11,-128.34 723.8,-134.4 720.78,-124.24 715.11,-128.34"/>
</g>
<!-- Node22&#45;&gt;Node5 -->
<g id="edge30" class="edge">
<title>Node22&#45;&gt;Node5</title>
<path fill="none" stroke="midnightblue" d="M1061.09,-62.3C1078.62,-52.12 1099.76,-39.85 1115.75,-30.58"/>
<polygon fill="midnightblue" stroke="midnightblue" points="1059.19,-59.35 1052.3,-67.4 1062.71,-65.4 1059.19,-59.35"/>
</g>
<!-- Node22&#45;&gt;Node6 -->
<g id="edge33" class="edge">
<title>Node22&#45;&gt;Node6</title>
<path fill="none" stroke="midnightblue" d="M1050.91,-105.04C1058.14,-113.32 1065.22,-123.35 1069,-134 1083.76,-175.59 1066.41,-189.95 1053,-232 1043.24,-262.59 1042.49,-271.45 1026,-299 984,-369.17 916.04,-440.04 886.49,-469.41"/>
<polygon fill="midnightblue" stroke="midnightblue" points="1053.41,-102.6 1044.03,-97.68 1048.3,-107.38 1053.41,-102.6"/>
</g>
<!-- Node22&#45;&gt;Node8 -->
<g id="edge32" class="edge">
<title>Node22&#45;&gt;Node8</title>
<path fill="none" stroke="midnightblue" d="M1042.77,-106.53C1047.31,-114.85 1051.71,-124.53 1054,-134 1057.24,-147.39 1057.54,-151.68 1054,-165 1027.56,-264.47 1017.96,-299.98 939,-366 912.6,-388.07 875.86,-400.79 846.36,-407.95"/>
<polygon fill="midnightblue" stroke="midnightblue" points="1045.75,-104.68 1037.7,-97.79 1039.7,-108.2 1045.75,-104.68"/>
</g>
<!-- Node22&#45;&gt;Node15 -->
<g id="edge29" class="edge">
<title>Node22&#45;&gt;Node15</title>
<path fill="none" stroke="midnightblue" d="M1017.51,-57.99C1013.41,-48.8 1008.85,-38.58 1005.28,-30.58"/>
<polygon fill="midnightblue" stroke="midnightblue" points="1014.44,-59.69 1021.71,-67.4 1020.83,-56.84 1014.44,-59.69"/>
</g>
<!-- Node23 -->
<g id="node23" class="node">
<title>Node23</title>
<g id="a_node23"><a xlink:href="_all_units_8cpp.html" target="_top" xlink:title=" ">
<polygon fill="white" stroke="black" points="796,-0.5 796,-30.5 906,-30.5 906,-0.5 796,-0.5"/>
<text text-anchor="start" x="804" y="-18.5" font-family="Helvetica,sans-Serif" font-size="10.00">src/GameLogic/Units</text>
<text text-anchor="middle" x="851" y="-7.5" font-family="Helvetica,sans-Serif" font-size="10.00">/AllUnits.cpp</text>
</a>
</g>
</g>
<!-- Node22&#45;&gt;Node23 -->
<g id="edge31" class="edge">
<title>Node22&#45;&gt;Node23</title>
<path fill="none" stroke="midnightblue" d="M979.85,-63.82C951.4,-53.37 915.87,-40.32 889.33,-30.58"/>
<polygon fill="midnightblue" stroke="midnightblue" points="979,-67.23 989.59,-67.4 981.41,-60.66 979,-67.23"/>
</g>
<!-- Node24&#45;&gt;Node23 -->
<g id="edge35" class="edge">
<title>Node24&#45;&gt;Node23</title>
<path fill="none" stroke="midnightblue" d="M731.96,-63.68C758.26,-53.26 791,-40.28 815.48,-30.58"/>
<polygon fill="midnightblue" stroke="midnightblue" points="730.59,-60.46 722.59,-67.4 733.17,-66.97 730.59,-60.46"/>
</g>
<!-- Node25 -->
<g id="node25" class="node">
<title>Node25</title>
<g id="a_node25"><a xlink:href="_land_unit_factory_8cpp.html" target="_top" xlink:title=" ">
<polygon fill="white" stroke="black" points="632,-0.5 632,-30.5 742,-30.5 742,-0.5 632,-0.5"/>
<text text-anchor="start" x="640" y="-18.5" font-family="Helvetica,sans-Serif" font-size="10.00">src/GameLogic/Units</text>
<text text-anchor="middle" x="687" y="-7.5" font-family="Helvetica,sans-Serif" font-size="10.00">/LandUnitFactory.cpp</text>
</a>
</g>
</g>
<!-- Node24&#45;&gt;Node25 -->
<g id="edge36" class="edge">
<title>Node24&#45;&gt;Node25</title>
<path fill="none" stroke="midnightblue" d="M687,-57.11C687,-48.15 687,-38.32 687,-30.58"/>
<polygon fill="midnightblue" stroke="midnightblue" points="683.5,-57.4 687,-67.4 690.5,-57.4 683.5,-57.4"/>
</g>
<!-- Node26&#45;&gt;Node24 -->
<g id="edge39" class="edge">
<title>Node26&#45;&gt;Node24</title>
<path fill="none" stroke="midnightblue" d="M589.01,-129.99C610.72,-119.69 637.33,-107.07 657.33,-97.58"/>
<polygon fill="midnightblue" stroke="midnightblue" points="587.26,-126.95 579.73,-134.4 590.26,-133.27 587.26,-126.95"/>
</g>
<!-- Node27 -->
<g id="node27" class="node">
<title>Node27</title>
<g id="a_node27"><a xlink:href="_land_unit_8cpp.html" target="_top" xlink:title=" ">
<polygon fill="white" stroke="black" points="495,-67.5 495,-97.5 605,-97.5 605,-67.5 495,-67.5"/>
<text text-anchor="start" x="503" y="-85.5" font-family="Helvetica,sans-Serif" font-size="10.00">src/GameLogic/Units</text>
<text text-anchor="middle" x="550" y="-74.5" font-family="Helvetica,sans-Serif" font-size="10.00">/LandUnit.cpp</text>
</a>
</g>
</g>
<!-- Node26&#45;&gt;Node27 -->
<g id="edge38" class="edge">
<title>Node26&#45;&gt;Node27</title>
<path fill="none" stroke="midnightblue" d="M550,-124.11C550,-115.15 550,-105.32 550,-97.58"/>
<polygon fill="midnightblue" stroke="midnightblue" points="546.5,-124.4 550,-134.4 553.5,-124.4 546.5,-124.4"/>
</g>
<!-- Node28&#45;&gt;Node16 -->
<g id="edge44" class="edge">
<title>Node28&#45;&gt;Node16</title>
<path fill="none" stroke="midnightblue" d="M410.78,-168.7C433.7,-179.05 460.65,-191.81 479.73,-201.4"/>
<polygon fill="midnightblue" stroke="midnightblue" points="412.12,-165.47 401.56,-164.58 409.26,-171.86 412.12,-165.47"/>
</g>
<!-- Node28&#45;&gt;Node17 -->
<g id="edge41" class="edge">
<title>Node28&#45;&gt;Node17</title>
<path fill="none" stroke="midnightblue" d="M384.75,-126.74C393.04,-117.12 402.54,-106.09 409.87,-97.58"/>
<polygon fill="midnightblue" stroke="midnightblue" points="382.03,-124.54 378.15,-134.4 387.33,-129.1 382.03,-124.54"/>
</g>
<!-- Node28&#45;&gt;Node18 -->
<g id="edge43" class="edge">
<title>Node28&#45;&gt;Node18</title>
<path fill="none" stroke="midnightblue" d="M310.63,-131.44C276.43,-120.91 233.07,-107.55 200.81,-97.61"/>
<polygon fill="midnightblue" stroke="midnightblue" points="309.89,-134.88 320.48,-134.48 311.95,-128.19 309.89,-134.88"/>
</g>
<!-- Node29 -->
<g id="node29" class="node">
<title>Node29</title>
<g id="a_node29"><a xlink:href="_unit_order_8cpp.html" target="_top" xlink:title=" ">
<polygon fill="white" stroke="black" points="239,-67.5 239,-97.5 349,-97.5 349,-67.5 239,-67.5"/>
<text text-anchor="start" x="247" y="-85.5" font-family="Helvetica,sans-Serif" font-size="10.00">src/GameLogic/Units</text>
<text text-anchor="middle" x="294" y="-74.5" font-family="Helvetica,sans-Serif" font-size="10.00">/UnitOrder.cpp</text>
</a>
</g>
</g>
<!-- Node28&#45;&gt;Node29 -->
<g id="edge42" class="edge">
<title>Node28&#45;&gt;Node29</title>
<path fill="none" stroke="midnightblue" d="M342.85,-127.6C331.98,-117.78 319.3,-106.34 309.59,-97.58"/>
<polygon fill="midnightblue" stroke="midnightblue" points="340.61,-130.29 350.38,-134.4 345.3,-125.1 340.61,-130.29"/>
</g>
<!-- Node31 -->
<g id="node31" class="node">
<title>Node31</title>
<g id="a_node31"><a xlink:href="_game_logic_2_squad_2_action_8cpp.html" target="_top" xlink:title=" ">
<polygon fill="white" stroke="black" points="0,-134.5 0,-164.5 114,-164.5 114,-134.5 0,-134.5"/>
<text text-anchor="start" x="8" y="-152.5" font-family="Helvetica,sans-Serif" font-size="10.00">src/GameLogic/Squad</text>
<text text-anchor="middle" x="57" y="-141.5" font-family="Helvetica,sans-Serif" font-size="10.00">/Action.cpp</text>
</a>
</g>
</g>
<!-- Node30&#45;&gt;Node31 -->
<g id="edge46" class="edge">
<title>Node30&#45;&gt;Node31</title>
<path fill="none" stroke="midnightblue" d="M216.4,-203.63C183.33,-192.61 134.08,-176.19 99.08,-164.53"/>
<polygon fill="midnightblue" stroke="midnightblue" points="215.51,-207.03 226.11,-206.87 217.73,-200.39 215.51,-207.03"/>
</g>
<!-- Node32 -->
<g id="node32" class="node">
<title>Node32</title>
<g id="a_node32"><a xlink:href="pathfinding_8cpp.html" target="_top" xlink:title=" ">
<polygon fill="white" stroke="black" points="132.5,-140 132.5,-159 245.5,-159 245.5,-140 132.5,-140"/>
<text text-anchor="middle" x="189" y="-147" font-family="Helvetica,sans-Serif" font-size="10.00">src/util/pathfinding.cpp</text>
</a>
</g>
</g>
<!-- Node30&#45;&gt;Node32 -->
<g id="edge47" class="edge">
<title>Node30&#45;&gt;Node32</title>
<path fill="none" stroke="midnightblue" d="M236.49,-199.5C224.13,-186.75 207.31,-169.39 197.36,-159.13"/>
<polygon fill="midnightblue" stroke="midnightblue" points="234.03,-201.99 243.5,-206.73 239.06,-197.12 234.03,-201.99"/>
</g>
</g>
</svg>
