<?xml version="1.0" encoding="UTF-8" standalone="no"?>
<!DOCTYPE svg PUBLIC "-//W3C//DTD SVG 1.1//EN"
 "http://www.w3.org/Graphics/SVG/1.1/DTD/svg11.dtd">
<!-- Generated by graphviz version 2.47.1 (20210421.1823)
 -->
<!-- Title: include/engine/GUI/GuiScroll.h Pages: 1 -->
<svg width="432pt" height="375pt"
 viewBox="0.00 0.00 431.50 375.00" xmlns="http://www.w3.org/2000/svg" xmlns:xlink="http://www.w3.org/1999/xlink">
<g id="graph0" class="graph" transform="scale(1 1) rotate(0) translate(4 371)">
<title>include/engine/GUI/GuiScroll.h</title>
<polygon fill="white" stroke="transparent" points="-4,4 -4,-371 427.5,-371 427.5,4 -4,4"/>
<!-- Node1 -->
<g id="node1" class="node">
<title>Node1</title>
<g id="a_node1"><a xlink:title=" ">
<polygon fill="#bfbfbf" stroke="black" points="316,-336.5 316,-366.5 416,-366.5 416,-336.5 316,-336.5"/>
<text text-anchor="start" x="324" y="-354.5" font-family="Helvetica,sans-Serif" font-size="10.00">include/engine/GUI</text>
<text text-anchor="middle" x="366" y="-343.5" font-family="Helvetica,sans-Serif" font-size="10.00">/GuiScroll.h</text>
</a>
</g>
</g>
<!-- Node2 -->
<g id="node2" class="node">
<title>Node2</title>
<g id="a_node2"><a xlink:href="_gui_list_8h.html" target="_top" xlink:title=" ">
<polygon fill="white" stroke="black" points="268,-280.5 268,-299.5 376,-299.5 376,-280.5 268,-280.5"/>
<text text-anchor="middle" x="322" y="-287.5" font-family="Helvetica,sans-Serif" font-size="10.00">engine/GUI/GuiList.h</text>
</a>
</g>
</g>
<!-- Node1&#45;&gt;Node2 -->
<g id="edge1" class="edge">
<title>Node1&#45;&gt;Node2</title>
<path fill="none" stroke="midnightblue" d="M355.57,-336.4C349.24,-327.84 341.13,-316.87 334.47,-307.86"/>
<polygon fill="midnightblue" stroke="midnightblue" points="337.16,-305.62 328.4,-299.66 331.53,-309.78 337.16,-305.62"/>
</g>
<!-- Node5 -->
<g id="node5" class="node">
<title>Node5</title>
<g id="a_node5"><a xlink:title=" ">
<polygon fill="white" stroke="#bfbfbf" points="392.5,-112.5 392.5,-131.5 421.5,-131.5 421.5,-112.5 392.5,-112.5"/>
<text text-anchor="middle" x="407" y="-119.5" font-family="Helvetica,sans-Serif" font-size="10.00">list</text>
</a>
</g>
</g>
<!-- Node1&#45;&gt;Node5 -->
<g id="edge14" class="edge">
<title>Node1&#45;&gt;Node5</title>
<path fill="none" stroke="midnightblue" d="M372.42,-336.2C376.63,-326.25 381.91,-312.55 385,-300 398.93,-243.5 404.26,-174.57 406.12,-141.91"/>
<polygon fill="midnightblue" stroke="midnightblue" points="409.63,-141.77 406.65,-131.6 402.64,-141.41 409.63,-141.77"/>
</g>
<!-- Node3 -->
<g id="node3" class="node">
<title>Node3</title>
<g id="a_node3"><a xlink:href="_gui_object_8h.html" target="_top" xlink:title=" ">
<polygon fill="white" stroke="black" points="262,-224.5 262,-243.5 382,-243.5 382,-224.5 262,-224.5"/>
<text text-anchor="middle" x="322" y="-231.5" font-family="Helvetica,sans-Serif" font-size="10.00">engine/GUI/GuiObject.h</text>
</a>
</g>
</g>
<!-- Node2&#45;&gt;Node3 -->
<g id="edge2" class="edge">
<title>Node2&#45;&gt;Node3</title>
<path fill="none" stroke="midnightblue" d="M322,-280.08C322,-273.01 322,-262.86 322,-253.99"/>
<polygon fill="midnightblue" stroke="midnightblue" points="325.5,-253.75 322,-243.75 318.5,-253.75 325.5,-253.75"/>
</g>
<!-- Node14 -->
<g id="node14" class="node">
<title>Node14</title>
<g id="a_node14"><a xlink:title=" ">
<polygon fill="white" stroke="#bfbfbf" points="200,-224.5 200,-243.5 244,-243.5 244,-224.5 200,-224.5"/>
<text text-anchor="middle" x="222" y="-231.5" font-family="Helvetica,sans-Serif" font-size="10.00">vector</text>
</a>
</g>
</g>
<!-- Node2&#45;&gt;Node14 -->
<g id="edge13" class="edge">
<title>Node2&#45;&gt;Node14</title>
<path fill="none" stroke="midnightblue" d="M305.93,-280.32C290.04,-271.74 265.49,-258.49 247.04,-248.52"/>
<polygon fill="midnightblue" stroke="midnightblue" points="248.49,-245.33 238.03,-243.65 245.16,-251.49 248.49,-245.33"/>
</g>
<!-- Node4 -->
<g id="node4" class="node">
<title>Node4</title>
<g id="a_node4"><a xlink:href="game_object_8h.html" target="_top" xlink:title=" ">
<polygon fill="white" stroke="black" points="271,-168.5 271,-187.5 379,-187.5 379,-168.5 271,-168.5"/>
<text text-anchor="middle" x="325" y="-175.5" font-family="Helvetica,sans-Serif" font-size="10.00">engine/gameObject.h</text>
</a>
</g>
</g>
<!-- Node3&#45;&gt;Node4 -->
<g id="edge3" class="edge">
<title>Node3&#45;&gt;Node4</title>
<path fill="none" stroke="midnightblue" d="M322.5,-224.08C322.89,-217.01 323.45,-206.86 323.95,-197.99"/>
<polygon fill="midnightblue" stroke="midnightblue" points="327.45,-197.93 324.51,-187.75 320.46,-197.54 327.45,-197.93"/>
</g>
<!-- Node4&#45;&gt;Node5 -->
<g id="edge4" class="edge">
<title>Node4&#45;&gt;Node5</title>
<path fill="none" stroke="midnightblue" d="M338.17,-168.32C350.85,-159.98 370.23,-147.21 385.21,-137.35"/>
<polygon fill="midnightblue" stroke="midnightblue" points="387.43,-140.08 393.86,-131.65 383.58,-134.23 387.43,-140.08"/>
</g>
<!-- Node6 -->
<g id="node6" class="node">
<title>Node6</title>
<g id="a_node6"><a xlink:href="config_8h.html" target="_top" xlink:title=" ">
<polygon fill="white" stroke="black" points="187.5,-112.5 187.5,-131.5 268.5,-131.5 268.5,-112.5 187.5,-112.5"/>
<text text-anchor="middle" x="228" y="-119.5" font-family="Helvetica,sans-Serif" font-size="10.00">engine/config.h</text>
</a>
</g>
</g>
<!-- Node4&#45;&gt;Node6 -->
<g id="edge5" class="edge">
<title>Node4&#45;&gt;Node6</title>
<path fill="none" stroke="midnightblue" d="M309.42,-168.32C294,-159.74 270.19,-146.49 252.29,-136.52"/>
<polygon fill="midnightblue" stroke="midnightblue" points="253.99,-133.46 243.55,-131.65 250.58,-139.58 253.99,-133.46"/>
</g>
<!-- Node11 -->
<g id="node11" class="node">
<title>Node11</title>
<g id="a_node11"><a xlink:href="engine_2_action_8h.html" target="_top" xlink:title=" ">
<polygon fill="white" stroke="black" points="286.5,-112.5 286.5,-131.5 369.5,-131.5 369.5,-112.5 286.5,-112.5"/>
<text text-anchor="middle" x="328" y="-119.5" font-family="Helvetica,sans-Serif" font-size="10.00">engine/Action.h</text>
</a>
</g>
</g>
<!-- Node4&#45;&gt;Node11 -->
<g id="edge10" class="edge">
<title>Node4&#45;&gt;Node11</title>
<path fill="none" stroke="midnightblue" d="M325.5,-168.08C325.89,-161.01 326.45,-150.86 326.95,-141.99"/>
<polygon fill="midnightblue" stroke="midnightblue" points="330.45,-141.93 327.51,-131.75 323.46,-141.54 330.45,-141.93"/>
</g>
<!-- Node7 -->
<g id="node7" class="node">
<title>Node7</title>
<g id="a_node7"><a xlink:href="_s_f_m_l_facade_8h.html" target="_top" xlink:title=" ">
<polygon fill="white" stroke="black" points="39.5,-56.5 39.5,-75.5 162.5,-75.5 162.5,-56.5 39.5,-56.5"/>
<text text-anchor="middle" x="101" y="-63.5" font-family="Helvetica,sans-Serif" font-size="10.00">graphics/SFMLFacade.h</text>
</a>
</g>
</g>
<!-- Node6&#45;&gt;Node7 -->
<g id="edge6" class="edge">
<title>Node6&#45;&gt;Node7</title>
<path fill="none" stroke="midnightblue" d="M207.88,-112.44C186.98,-103.56 154.07,-89.56 130.28,-79.45"/>
<polygon fill="midnightblue" stroke="midnightblue" points="131.6,-76.21 121.03,-75.52 128.86,-82.65 131.6,-76.21"/>
</g>
<!-- Node10 -->
<g id="node10" class="node">
<title>Node10</title>
<g id="a_node10"><a xlink:title=" ">
<polygon fill="white" stroke="#bfbfbf" points="181,-56.5 181,-75.5 279,-75.5 279,-56.5 181,-56.5"/>
<text text-anchor="middle" x="230" y="-63.5" font-family="Helvetica,sans-Serif" font-size="10.00">nlohmann/json.hpp</text>
</a>
</g>
</g>
<!-- Node6&#45;&gt;Node10 -->
<g id="edge9" class="edge">
<title>Node6&#45;&gt;Node10</title>
<path fill="none" stroke="midnightblue" d="M228.33,-112.08C228.59,-105.01 228.97,-94.86 229.3,-85.99"/>
<polygon fill="midnightblue" stroke="midnightblue" points="232.8,-85.87 229.68,-75.75 225.81,-85.61 232.8,-85.87"/>
</g>
<!-- Node8 -->
<g id="node8" class="node">
<title>Node8</title>
<g id="a_node8"><a xlink:title=" ">
<polygon fill="white" stroke="#bfbfbf" points="0,-0.5 0,-19.5 104,-19.5 104,-0.5 0,-0.5"/>
<text text-anchor="middle" x="52" y="-7.5" font-family="Helvetica,sans-Serif" font-size="10.00">SFML/Graphics.hpp</text>
</a>
</g>
</g>
<!-- Node7&#45;&gt;Node8 -->
<g id="edge7" class="edge">
<title>Node7&#45;&gt;Node8</title>
<path fill="none" stroke="midnightblue" d="M92.91,-56.08C85.84,-48.3 75.41,-36.8 66.85,-27.37"/>
<polygon fill="midnightblue" stroke="midnightblue" points="69.25,-24.8 59.94,-19.75 64.07,-29.51 69.25,-24.8"/>
</g>
<!-- Node9 -->
<g id="node9" class="node">
<title>Node9</title>
<g id="a_node9"><a xlink:href="_facade_8h.html" target="_top" xlink:title=" ">
<polygon fill="white" stroke="black" points="122,-0.5 122,-19.5 178,-19.5 178,-0.5 122,-0.5"/>
<text text-anchor="middle" x="150" y="-7.5" font-family="Helvetica,sans-Serif" font-size="10.00">Facade.h</text>
</a>
</g>
</g>
<!-- Node7&#45;&gt;Node9 -->
<g id="edge8" class="edge">
<title>Node7&#45;&gt;Node9</title>
<path fill="none" stroke="midnightblue" d="M109.09,-56.08C116.16,-48.3 126.59,-36.8 135.15,-27.37"/>
<polygon fill="midnightblue" stroke="midnightblue" points="137.93,-29.51 142.06,-19.75 132.75,-24.8 137.93,-29.51"/>
</g>
<!-- Node12 -->
<g id="node12" class="node">
<title>Node12</title>
<g id="a_node12"><a xlink:title=" ">
<polygon fill="white" stroke="#bfbfbf" points="300,-56.5 300,-75.5 354,-75.5 354,-56.5 300,-56.5"/>
<text text-anchor="middle" x="327" y="-63.5" font-family="Helvetica,sans-Serif" font-size="10.00">iostream</text>
</a>
</g>
</g>
<!-- Node11&#45;&gt;Node12 -->
<g id="edge11" class="edge">
<title>Node11&#45;&gt;Node12</title>
<path fill="none" stroke="midnightblue" d="M327.83,-112.08C327.7,-105.01 327.52,-94.86 327.35,-85.99"/>
<polygon fill="midnightblue" stroke="midnightblue" points="330.85,-85.68 327.16,-75.75 323.85,-85.81 330.85,-85.68"/>
</g>
<!-- Node13 -->
<g id="node13" class="node">
<title>Node13</title>
<g id="a_node13"><a xlink:title=" ">
<polygon fill="white" stroke="#bfbfbf" points="372.5,-56.5 372.5,-75.5 423.5,-75.5 423.5,-56.5 372.5,-56.5"/>
<text text-anchor="middle" x="398" y="-63.5" font-family="Helvetica,sans-Serif" font-size="10.00">memory</text>
</a>
</g>
</g>
<!-- Node11&#45;&gt;Node13 -->
<g id="edge12" class="edge">
<title>Node11&#45;&gt;Node13</title>
<path fill="none" stroke="midnightblue" d="M339.25,-112.32C349.8,-104.18 365.8,-91.84 378.44,-82.09"/>
<polygon fill="midnightblue" stroke="midnightblue" points="380.77,-84.71 386.55,-75.83 376.49,-79.17 380.77,-84.71"/>
</g>
</g>
</svg>
