<?xml version="1.0" encoding="UTF-8" standalone="no"?>
<!DOCTYPE svg PUBLIC "-//W3C//DTD SVG 1.1//EN"
 "http://www.w3.org/Graphics/SVG/1.1/DTD/svg11.dtd">
<!-- Generated by graphviz version 2.47.1 (20210421.1823)
 -->
<!-- Title: src/GameLogic/Units/LandUnit.cpp Pages: 1 -->
<svg width="1359pt" height="778pt"
 viewBox="0.00 0.00 1359.00 778.00" xmlns="http://www.w3.org/2000/svg" xmlns:xlink="http://www.w3.org/1999/xlink">
<g id="graph0" class="graph" transform="scale(1 1) rotate(0) translate(4 774)">
<title>src/GameLogic/Units/LandUnit.cpp</title>
<polygon fill="white" stroke="transparent" points="-4,4 -4,-774 1355,-774 1355,4 -4,4"/>
<!-- Node1 -->
<g id="node1" class="node">
<title>Node1</title>
<g id="a_node1"><a xlink:title=" ">
<polygon fill="#bfbfbf" stroke="black" points="1091,-739.5 1091,-769.5 1201,-769.5 1201,-739.5 1091,-739.5"/>
<text text-anchor="start" x="1099" y="-757.5" font-family="Helvetica,sans-Serif" font-size="10.00">src/GameLogic/Units</text>
<text text-anchor="middle" x="1146" y="-746.5" font-family="Helvetica,sans-Serif" font-size="10.00">/LandUnit.cpp</text>
</a>
</g>
</g>
<!-- Node2 -->
<g id="node2" class="node">
<title>Node2</title>
<g id="a_node2"><a xlink:href="_land_unit_8h.html" target="_top" xlink:title=" ">
<polygon fill="white" stroke="black" points="1114,-683.5 1114,-702.5 1178,-702.5 1178,-683.5 1114,-683.5"/>
<text text-anchor="middle" x="1146" y="-690.5" font-family="Helvetica,sans-Serif" font-size="10.00">LandUnit.h</text>
</a>
</g>
</g>
<!-- Node1&#45;&gt;Node2 -->
<g id="edge1" class="edge">
<title>Node1&#45;&gt;Node2</title>
<path fill="none" stroke="midnightblue" d="M1146,-739.4C1146,-731.47 1146,-721.46 1146,-712.86"/>
<polygon fill="midnightblue" stroke="midnightblue" points="1149.5,-712.66 1146,-702.66 1142.5,-712.66 1149.5,-712.66"/>
</g>
<!-- Node3 -->
<g id="node3" class="node">
<title>Node3</title>
<g id="a_node3"><a xlink:href="_unit_8h.html" target="_top" xlink:title=" ">
<polygon fill="white" stroke="black" points="1125,-627.5 1125,-646.5 1167,-646.5 1167,-627.5 1125,-627.5"/>
<text text-anchor="middle" x="1146" y="-634.5" font-family="Helvetica,sans-Serif" font-size="10.00">Unit.h</text>
</a>
</g>
</g>
<!-- Node2&#45;&gt;Node3 -->
<g id="edge2" class="edge">
<title>Node2&#45;&gt;Node3</title>
<path fill="none" stroke="midnightblue" d="M1146,-683.08C1146,-676.01 1146,-665.86 1146,-656.99"/>
<polygon fill="midnightblue" stroke="midnightblue" points="1149.5,-656.75 1146,-646.75 1142.5,-656.75 1149.5,-656.75"/>
</g>
<!-- Node4 -->
<g id="node4" class="node">
<title>Node4</title>
<g id="a_node4"><a xlink:title=" ">
<polygon fill="white" stroke="#bfbfbf" points="384.5,-571.5 384.5,-590.5 427.5,-590.5 427.5,-571.5 384.5,-571.5"/>
<text text-anchor="middle" x="406" y="-578.5" font-family="Helvetica,sans-Serif" font-size="10.00">cstdio</text>
</a>
</g>
</g>
<!-- Node3&#45;&gt;Node4 -->
<g id="edge3" class="edge">
<title>Node3&#45;&gt;Node4</title>
<path fill="none" stroke="midnightblue" d="M1124.92,-636.34C1039.86,-637.35 713.61,-637.9 437.74,-590.68"/>
<polygon fill="midnightblue" stroke="midnightblue" points="437.99,-587.17 427.54,-588.91 436.79,-594.07 437.99,-587.17"/>
</g>
<!-- Node5 -->
<g id="node5" class="node">
<title>Node5</title>
<g id="a_node5"><a xlink:href="_unit_order_8h.html" target="_top" xlink:title=" ">
<polygon fill="white" stroke="black" points="1240,-571.5 1240,-590.5 1306,-590.5 1306,-571.5 1240,-571.5"/>
<text text-anchor="middle" x="1273" y="-578.5" font-family="Helvetica,sans-Serif" font-size="10.00">UnitOrder.h</text>
</a>
</g>
</g>
<!-- Node3&#45;&gt;Node5 -->
<g id="edge4" class="edge">
<title>Node3&#45;&gt;Node5</title>
<path fill="none" stroke="midnightblue" d="M1161.03,-627.44C1180.07,-618.52 1212.95,-604.44 1238.26,-594.32"/>
<polygon fill="midnightblue" stroke="midnightblue" points="1239.87,-597.44 1247.89,-590.52 1237.3,-590.93 1239.87,-597.44"/>
</g>
<!-- Node7 -->
<g id="node7" class="node">
<title>Node7</title>
<g id="a_node7"><a xlink:href="_squad_8h.html" target="_top" xlink:title=" ">
<polygon fill="white" stroke="black" points="446,-571.5 446,-590.5 582,-590.5 582,-571.5 446,-571.5"/>
<text text-anchor="middle" x="514" y="-578.5" font-family="Helvetica,sans-Serif" font-size="10.00">GameLogic/Squad/Squad.h</text>
</a>
</g>
</g>
<!-- Node3&#45;&gt;Node7 -->
<g id="edge7" class="edge">
<title>Node3&#45;&gt;Node7</title>
<path fill="none" stroke="midnightblue" d="M1124.94,-634.41C1042.2,-627.75 737.86,-601.81 592.37,-589.1"/>
<polygon fill="midnightblue" stroke="midnightblue" points="592.44,-585.59 582.18,-588.21 591.83,-592.57 592.44,-585.59"/>
</g>
<!-- Node24 -->
<g id="node24" class="node">
<title>Node24</title>
<g id="a_node24"><a xlink:href="_all_flags_8h.html" target="_top" xlink:title=" ">
<polygon fill="white" stroke="black" points="1214.5,-398 1214.5,-417 1273.5,-417 1273.5,-398 1214.5,-398"/>
<text text-anchor="middle" x="1244" y="-405" font-family="Helvetica,sans-Serif" font-size="10.00">AllFlags.h</text>
</a>
</g>
</g>
<!-- Node3&#45;&gt;Node24 -->
<g id="edge73" class="edge">
<title>Node3&#45;&gt;Node24</title>
<path fill="none" stroke="midnightblue" d="M1156.4,-627.37C1165.88,-618.98 1179.65,-605.43 1188,-591 1219.75,-536.1 1235.33,-461.3 1241.17,-427.03"/>
<polygon fill="midnightblue" stroke="midnightblue" points="1244.64,-427.48 1242.78,-417.04 1237.73,-426.36 1244.64,-427.48"/>
</g>
<!-- Node40 -->
<g id="node40" class="node">
<title>Node40</title>
<g id="a_node40"><a xlink:href="_textures_8h.html" target="_top" xlink:title=" ">
<polygon fill="white" stroke="black" points="1047.5,-280.5 1047.5,-299.5 1148.5,-299.5 1148.5,-280.5 1047.5,-280.5"/>
<text text-anchor="middle" x="1098" y="-287.5" font-family="Helvetica,sans-Serif" font-size="10.00">graphics/Textures.h</text>
</a>
</g>
</g>
<!-- Node3&#45;&gt;Node40 -->
<g id="edge74" class="edge">
<title>Node3&#45;&gt;Node40</title>
<path fill="none" stroke="midnightblue" d="M1142.36,-627.34C1134.99,-609 1119,-564.74 1119,-526 1119,-526 1119,-526 1119,-468 1119,-410.12 1107.79,-342.34 1101.75,-310.02"/>
<polygon fill="midnightblue" stroke="midnightblue" points="1105.11,-308.96 1099.79,-299.8 1098.24,-310.28 1105.11,-308.96"/>
</g>
<!-- Node5&#45;&gt;Node3 -->
<g id="edge6" class="edge">
<title>Node5&#45;&gt;Node3</title>
<path fill="none" stroke="midnightblue" d="M1258.04,-590.52C1237.91,-599.97 1202.2,-615.21 1176.4,-625.41"/>
<polygon fill="midnightblue" stroke="midnightblue" points="1175.09,-622.16 1167.05,-629.05 1177.63,-628.68 1175.09,-622.16"/>
</g>
<!-- Node6 -->
<g id="node6" class="node">
<title>Node6</title>
<g id="a_node6"><a xlink:title=" ">
<polygon fill="white" stroke="#bfbfbf" points="1242.5,-224.5 1242.5,-243.5 1283.5,-243.5 1283.5,-224.5 1242.5,-224.5"/>
<text text-anchor="middle" x="1263" y="-231.5" font-family="Helvetica,sans-Serif" font-size="10.00">string</text>
</a>
</g>
</g>
<!-- Node5&#45;&gt;Node6 -->
<g id="edge5" class="edge">
<title>Node5&#45;&gt;Node6</title>
<path fill="none" stroke="midnightblue" d="M1278.56,-571.27C1289.55,-553.15 1313,-509.83 1313,-470 1313,-470 1313,-470 1313,-345 1313,-314.9 1306.92,-307.18 1294,-280 1289.27,-270.06 1282.46,-259.88 1276.43,-251.73"/>
<polygon fill="midnightblue" stroke="midnightblue" points="1279.19,-249.58 1270.32,-243.78 1273.64,-253.85 1279.19,-249.58"/>
</g>
<!-- Node7&#45;&gt;Node3 -->
<g id="edge66" class="edge">
<title>Node7&#45;&gt;Node3</title>
<path fill="none" stroke="midnightblue" d="M582.19,-587.46C717.97,-598.75 1017.17,-624.35 1114.69,-633.04"/>
<polygon fill="midnightblue" stroke="midnightblue" points="1114.52,-636.54 1124.79,-633.95 1115.14,-629.57 1114.52,-636.54"/>
</g>
<!-- Node8 -->
<g id="node8" class="node">
<title>Node8</title>
<g id="a_node8"><a xlink:href="_cell_8h.html" target="_top" xlink:title=" ">
<polygon fill="white" stroke="black" points="559,-459.5 559,-478.5 653,-478.5 653,-459.5 559,-459.5"/>
<text text-anchor="middle" x="606" y="-466.5" font-family="Helvetica,sans-Serif" font-size="10.00">GameLogic/Cell.h</text>
</a>
</g>
</g>
<!-- Node7&#45;&gt;Node8 -->
<g id="edge8" class="edge">
<title>Node7&#45;&gt;Node8</title>
<path fill="none" stroke="midnightblue" d="M531.66,-571.41C547.33,-564.28 569.15,-552.46 582,-535 591.86,-521.6 595.38,-502.78 598.15,-488.84"/>
<polygon fill="midnightblue" stroke="midnightblue" points="601.61,-489.42 600.33,-478.9 594.77,-487.92 601.61,-489.42"/>
</g>
<!-- Node9 -->
<g id="node9" class="node">
<title>Node9</title>
<g id="a_node9"><a xlink:href="gameplay_clickable_game_object_8h.html" target="_top" xlink:title=" ">
<polygon fill="white" stroke="black" points="66.5,-392.5 66.5,-422.5 195.5,-422.5 195.5,-392.5 66.5,-392.5"/>
<text text-anchor="start" x="74.5" y="-410.5" font-family="Helvetica,sans-Serif" font-size="10.00">engine/gameplayClickable</text>
<text text-anchor="middle" x="131" y="-399.5" font-family="Helvetica,sans-Serif" font-size="10.00">GameObject.h</text>
</a>
</g>
</g>
<!-- Node7&#45;&gt;Node9 -->
<g id="edge67" class="edge">
<title>Node7&#45;&gt;Node9</title>
<path fill="none" stroke="midnightblue" d="M495.01,-571.5C435.83,-545 253.84,-463.51 171.82,-426.78"/>
<polygon fill="midnightblue" stroke="midnightblue" points="172.89,-423.42 162.33,-422.53 170.03,-429.81 172.89,-423.42"/>
</g>
<!-- Node12 -->
<g id="node12" class="node">
<title>Node12</title>
<g id="a_node12"><a xlink:href="config_8h.html" target="_top" xlink:title=" ">
<polygon fill="white" stroke="black" points="97.5,-112.5 97.5,-131.5 178.5,-131.5 178.5,-112.5 97.5,-112.5"/>
<text text-anchor="middle" x="138" y="-119.5" font-family="Helvetica,sans-Serif" font-size="10.00">engine/config.h</text>
</a>
</g>
</g>
<!-- Node7&#45;&gt;Node12 -->
<g id="edge71" class="edge">
<title>Node7&#45;&gt;Node12</title>
<path fill="none" stroke="midnightblue" d="M469.25,-571.48C364,-550.43 105.9,-492.58 57,-423 49.08,-411.73 55.72,-405.72 57,-392 61.24,-346.52 76,-336.68 76,-291 76,-291 76,-291 76,-233 76,-195.62 103.5,-159.24 121.87,-139.1"/>
<polygon fill="midnightblue" stroke="midnightblue" points="124.51,-141.41 128.85,-131.75 119.43,-136.59 124.51,-141.41"/>
</g>
<!-- Node15 -->
<g id="node15" class="node">
<title>Node15</title>
<g id="a_node15"><a xlink:href="_facade_8h.html" target="_top" xlink:title=" ">
<polygon fill="white" stroke="black" points="10,-0.5 10,-19.5 66,-19.5 66,-0.5 10,-0.5"/>
<text text-anchor="middle" x="38" y="-7.5" font-family="Helvetica,sans-Serif" font-size="10.00">Facade.h</text>
</a>
</g>
</g>
<!-- Node7&#45;&gt;Node15 -->
<g id="edge72" class="edge">
<title>Node7&#45;&gt;Node15</title>
<path fill="none" stroke="midnightblue" d="M451.32,-571.49C395.77,-563.51 312.59,-550.51 241,-535 132.58,-511.5 0,-580.94 0,-470 0,-470 0,-470 0,-121 0,-86.81 16.6,-49.76 27.86,-28.57"/>
<polygon fill="midnightblue" stroke="midnightblue" points="30.95,-30.22 32.72,-19.77 24.82,-26.83 30.95,-30.22"/>
</g>
<!-- Node39 -->
<g id="node39" class="node">
<title>Node39</title>
<g id="a_node39"><a xlink:href="_game_logic_2_squad_2_action_8h.html" target="_top" xlink:title=" ">
<polygon fill="white" stroke="black" points="446,-515.5 446,-534.5 582,-534.5 582,-515.5 446,-515.5"/>
<text text-anchor="middle" x="514" y="-522.5" font-family="Helvetica,sans-Serif" font-size="10.00">GameLogic/Squad/Action.h</text>
</a>
</g>
</g>
<!-- Node7&#45;&gt;Node39 -->
<g id="edge68" class="edge">
<title>Node7&#45;&gt;Node39</title>
<path fill="none" stroke="midnightblue" d="M508.83,-571.08C507.32,-563.93 506.89,-553.64 507.54,-544.69"/>
<polygon fill="midnightblue" stroke="midnightblue" points="511.02,-545.13 508.87,-534.75 504.08,-544.2 511.02,-545.13"/>
</g>
<!-- Node8&#45;&gt;Node7 -->
<g id="edge31" class="edge">
<title>Node8&#45;&gt;Node7</title>
<path fill="none" stroke="midnightblue" d="M611.86,-478.9C614.8,-492.33 612.49,-518.02 600,-535 589.26,-549.6 572.25,-560.25 556.08,-567.52"/>
<polygon fill="midnightblue" stroke="midnightblue" points="554.61,-564.34 546.72,-571.41 557.29,-570.8 554.61,-564.34"/>
</g>
<!-- Node8&#45;&gt;Node9 -->
<g id="edge9" class="edge">
<title>Node8&#45;&gt;Node9</title>
<path fill="none" stroke="midnightblue" d="M558.93,-463.7C484.6,-456.68 335.59,-441.64 210,-423 208.53,-422.78 207.05,-422.56 205.56,-422.33"/>
<polygon fill="midnightblue" stroke="midnightblue" points="206.04,-418.86 195.61,-420.73 204.93,-425.77 206.04,-418.86"/>
</g>
<!-- Node8&#45;&gt;Node12 -->
<g id="edge29" class="edge">
<title>Node8&#45;&gt;Node12</title>
<path fill="none" stroke="midnightblue" d="M558.78,-468.63C494.6,-467.89 377.36,-460.82 286,-423 265.41,-414.48 135,-313.28 135,-291 135,-291 135,-291 135,-233 135,-200.94 136.29,-163.63 137.18,-141.74"/>
<polygon fill="midnightblue" stroke="midnightblue" points="140.68,-141.69 137.61,-131.56 133.69,-141.4 140.68,-141.69"/>
</g>
<!-- Node8&#45;&gt;Node15 -->
<g id="edge30" class="edge">
<title>Node8&#45;&gt;Node15</title>
<path fill="none" stroke="midnightblue" d="M558.69,-465.79C472.61,-461.17 294.08,-448.75 238,-423 219.42,-414.47 220.37,-404.26 204,-392 134.88,-340.22 38,-377.36 38,-291 38,-291 38,-291 38,-121 38,-88.95 38,-51.64 38,-29.75"/>
<polygon fill="midnightblue" stroke="midnightblue" points="41.5,-29.56 38,-19.56 34.5,-29.56 41.5,-29.56"/>
</g>
<!-- Node18 -->
<g id="node18" class="node">
<title>Node18</title>
<g id="a_node18"><a xlink:title=" ">
<polygon fill="white" stroke="#bfbfbf" points="324,-56.5 324,-75.5 378,-75.5 378,-56.5 324,-56.5"/>
<text text-anchor="middle" x="351" y="-63.5" font-family="Helvetica,sans-Serif" font-size="10.00">iostream</text>
</a>
</g>
</g>
<!-- Node8&#45;&gt;Node18 -->
<g id="edge33" class="edge">
<title>Node8&#45;&gt;Node18</title>
<path fill="none" stroke="midnightblue" d="M558.86,-467.23C504.67,-464.72 414.15,-455.48 344,-423 306.21,-405.5 211,-332.64 211,-291 211,-291 211,-291 211,-177 211,-124.49 272.65,-93.23 314.13,-78.14"/>
<polygon fill="midnightblue" stroke="midnightblue" points="315.38,-81.41 323.67,-74.82 313.08,-74.8 315.38,-81.41"/>
</g>
<!-- Node20 -->
<g id="node20" class="node">
<title>Node20</title>
<g id="a_node20"><a xlink:href="cellgen_8h.html" target="_top" xlink:title=" ">
<polygon fill="white" stroke="black" points="651.5,-336.5 651.5,-355.5 722.5,-355.5 722.5,-336.5 651.5,-336.5"/>
<text text-anchor="middle" x="687" y="-343.5" font-family="Helvetica,sans-Serif" font-size="10.00">util/cellgen.h</text>
</a>
</g>
</g>
<!-- Node8&#45;&gt;Node20 -->
<g id="edge20" class="edge">
<title>Node8&#45;&gt;Node20</title>
<path fill="none" stroke="midnightblue" d="M609.43,-459.09C615.31,-444.39 628.21,-414.44 644,-392 651.45,-381.42 661.33,-370.89 669.75,-362.68"/>
<polygon fill="midnightblue" stroke="midnightblue" points="672.38,-365.01 677.24,-355.6 667.57,-359.93 672.38,-365.01"/>
</g>
<!-- Node22 -->
<g id="node22" class="node">
<title>Node22</title>
<g id="a_node22"><a xlink:title=" ">
<polygon fill="white" stroke="#bfbfbf" points="569.5,-280.5 569.5,-299.5 604.5,-299.5 604.5,-280.5 569.5,-280.5"/>
<text text-anchor="middle" x="587" y="-287.5" font-family="Helvetica,sans-Serif" font-size="10.00">map</text>
</a>
</g>
</g>
<!-- Node8&#45;&gt;Node22 -->
<g id="edge32" class="edge">
<title>Node8&#45;&gt;Node22</title>
<path fill="none" stroke="midnightblue" d="M605.08,-459.46C602.18,-432.43 593.14,-348.24 589.05,-310.11"/>
<polygon fill="midnightblue" stroke="midnightblue" points="592.5,-309.44 587.95,-299.87 585.54,-310.18 592.5,-309.44"/>
</g>
<!-- Node8&#45;&gt;Node24 -->
<g id="edge24" class="edge">
<title>Node8&#45;&gt;Node24</title>
<path fill="none" stroke="midnightblue" d="M653.21,-463.74C740.47,-455.84 932.89,-438.35 1095,-423 1132.03,-419.49 1174.23,-415.38 1204.24,-412.43"/>
<polygon fill="midnightblue" stroke="midnightblue" points="1204.71,-415.9 1214.32,-411.43 1204.03,-408.93 1204.71,-415.9"/>
</g>
<!-- Node26 -->
<g id="node26" class="node">
<title>Node26</title>
<g id="a_node26"><a xlink:href="geometry_8h.html" target="_top" xlink:title=" ">
<polygon fill="white" stroke="black" points="653,-398 653,-417 733,-417 733,-398 653,-398"/>
<text text-anchor="middle" x="693" y="-405" font-family="Helvetica,sans-Serif" font-size="10.00">util/geometry.h</text>
</a>
</g>
</g>
<!-- Node8&#45;&gt;Node26 -->
<g id="edge34" class="edge">
<title>Node8&#45;&gt;Node26</title>
<path fill="none" stroke="midnightblue" d="M618.46,-459.48C632.42,-449.93 655.26,-434.31 671.99,-422.87"/>
<polygon fill="midnightblue" stroke="midnightblue" points="674.28,-425.54 680.56,-417.01 670.33,-419.77 674.28,-425.54"/>
</g>
<!-- Node27 -->
<g id="node27" class="node">
<title>Node27</title>
<g id="a_node27"><a xlink:href="_none_8h.html" target="_top" xlink:title=" ">
<polygon fill="white" stroke="black" points="442.5,-224.5 442.5,-243.5 555.5,-243.5 555.5,-224.5 442.5,-224.5"/>
<text text-anchor="middle" x="499" y="-231.5" font-family="Helvetica,sans-Serif" font-size="10.00">engine/actions/None.h</text>
</a>
</g>
</g>
<!-- Node8&#45;&gt;Node27 -->
<g id="edge37" class="edge">
<title>Node8&#45;&gt;Node27</title>
<path fill="none" stroke="midnightblue" d="M653.3,-464.68C683.23,-459.99 720.25,-448.91 742,-423 783.18,-373.94 801.27,-328.99 760,-280 735.66,-251.11 635.04,-240.77 566.09,-237.06"/>
<polygon fill="midnightblue" stroke="midnightblue" points="565.9,-233.55 555.73,-236.54 565.55,-240.54 565.9,-233.55"/>
</g>
<!-- Node28 -->
<g id="node28" class="node">
<title>Node28</title>
<g id="a_node28"><a xlink:href="game_controller_8h.html" target="_top" xlink:title=" ">
<polygon fill="white" stroke="black" points="427.5,-336.5 427.5,-355.5 548.5,-355.5 548.5,-336.5 427.5,-336.5"/>
<text text-anchor="middle" x="488" y="-343.5" font-family="Helvetica,sans-Serif" font-size="10.00">engine/gameController.h</text>
</a>
</g>
</g>
<!-- Node8&#45;&gt;Node28 -->
<g id="edge39" class="edge">
<title>Node8&#45;&gt;Node28</title>
<path fill="none" stroke="midnightblue" d="M597.51,-459.3C577.78,-439.07 528.59,-388.62 503.4,-362.79"/>
<polygon fill="midnightblue" stroke="midnightblue" points="505.9,-360.34 496.41,-355.62 500.89,-365.23 505.9,-360.34"/>
</g>
<!-- Node32 -->
<g id="node32" class="node">
<title>Node32</title>
<g id="a_node32"><a xlink:href="_set_squad_path_8h.html" target="_top" xlink:title=" ">
<polygon fill="white" stroke="black" points="353.5,-398 353.5,-417 506.5,-417 506.5,-398 353.5,-398"/>
<text text-anchor="middle" x="430" y="-405" font-family="Helvetica,sans-Serif" font-size="10.00">engine/actions/SetSquadPath.h</text>
</a>
</g>
</g>
<!-- Node8&#45;&gt;Node32 -->
<g id="edge48" class="edge">
<title>Node8&#45;&gt;Node32</title>
<path fill="none" stroke="midnightblue" d="M575.88,-459.48C543.47,-449.27 492.49,-432.11 460.09,-420.55"/>
<polygon fill="midnightblue" stroke="midnightblue" points="460.87,-417.11 450.27,-417.01 458.49,-423.69 460.87,-417.11"/>
</g>
<!-- Node33 -->
<g id="node33" class="node">
<title>Node33</title>
<g id="a_node33"><a xlink:href="_all_units_8h.html" target="_top" xlink:title=" ">
<polygon fill="white" stroke="black" points="1006.5,-336.5 1006.5,-355.5 1065.5,-355.5 1065.5,-336.5 1006.5,-336.5"/>
<text text-anchor="middle" x="1036" y="-343.5" font-family="Helvetica,sans-Serif" font-size="10.00">AllUnits.h</text>
</a>
</g>
</g>
<!-- Node8&#45;&gt;Node33 -->
<g id="edge52" class="edge">
<title>Node8&#45;&gt;Node33</title>
<path fill="none" stroke="midnightblue" d="M653.02,-468.6C746.56,-468.88 951.69,-464.58 1006,-423 1023.82,-409.35 1031.08,-383.54 1034.01,-365.81"/>
<polygon fill="midnightblue" stroke="midnightblue" points="1037.5,-366.15 1035.37,-355.77 1030.56,-365.21 1037.5,-366.15"/>
</g>
<!-- Node35 -->
<g id="node35" class="node">
<title>Node35</title>
<g id="a_node35"><a xlink:href="_all_squad_templates_8h.html" target="_top" xlink:title=" ">
<polygon fill="white" stroke="black" points="887.5,-398 887.5,-417 996.5,-417 996.5,-398 887.5,-398"/>
<text text-anchor="middle" x="942" y="-405" font-family="Helvetica,sans-Serif" font-size="10.00">AllSquadTemplates.h</text>
</a>
</g>
</g>
<!-- Node8&#45;&gt;Node35 -->
<g id="edge57" class="edge">
<title>Node8&#45;&gt;Node35</title>
<path fill="none" stroke="midnightblue" d="M653.1,-460.33C705.78,-451.66 793.61,-436.93 869,-423 875.74,-421.75 882.83,-420.4 889.83,-419.04"/>
<polygon fill="midnightblue" stroke="midnightblue" points="890.82,-422.41 899.96,-417.05 889.47,-415.54 890.82,-422.41"/>
</g>
<!-- Node10 -->
<g id="node10" class="node">
<title>Node10</title>
<g id="a_node10"><a xlink:href="game_object_8h.html" target="_top" xlink:title=" ">
<polygon fill="white" stroke="black" points="286.5,-168.5 286.5,-187.5 363.5,-187.5 363.5,-168.5 286.5,-168.5"/>
<text text-anchor="middle" x="325" y="-175.5" font-family="Helvetica,sans-Serif" font-size="10.00">gameObject.h</text>
</a>
</g>
</g>
<!-- Node9&#45;&gt;Node10 -->
<g id="edge10" class="edge">
<title>Node9&#45;&gt;Node10</title>
<path fill="none" stroke="midnightblue" d="M143.14,-392.27C177.28,-352.23 274.08,-238.72 310.71,-195.75"/>
<polygon fill="midnightblue" stroke="midnightblue" points="313.56,-197.81 317.39,-187.93 308.24,-193.27 313.56,-197.81"/>
</g>
<!-- Node11 -->
<g id="node11" class="node">
<title>Node11</title>
<g id="a_node11"><a xlink:title=" ">
<polygon fill="white" stroke="#bfbfbf" points="500.5,-112.5 500.5,-131.5 529.5,-131.5 529.5,-112.5 500.5,-112.5"/>
<text text-anchor="middle" x="515" y="-119.5" font-family="Helvetica,sans-Serif" font-size="10.00">list</text>
</a>
</g>
</g>
<!-- Node10&#45;&gt;Node11 -->
<g id="edge11" class="edge">
<title>Node10&#45;&gt;Node11</title>
<path fill="none" stroke="midnightblue" d="M355.11,-168.44C392.66,-157.77 456.12,-139.73 490.73,-129.9"/>
<polygon fill="midnightblue" stroke="midnightblue" points="491.82,-133.23 500.48,-127.13 489.9,-126.49 491.82,-133.23"/>
</g>
<!-- Node10&#45;&gt;Node12 -->
<g id="edge12" class="edge">
<title>Node10&#45;&gt;Node12</title>
<path fill="none" stroke="midnightblue" d="M295.37,-168.44C263.5,-159.24 212.67,-144.56 177.44,-134.39"/>
<polygon fill="midnightblue" stroke="midnightblue" points="178.07,-130.93 167.49,-131.52 176.13,-137.65 178.07,-130.93"/>
</g>
<!-- Node17 -->
<g id="node17" class="node">
<title>Node17</title>
<g id="a_node17"><a xlink:href="engine_2_action_8h.html" target="_top" xlink:title=" ">
<polygon fill="white" stroke="black" points="309.5,-112.5 309.5,-131.5 392.5,-131.5 392.5,-112.5 309.5,-112.5"/>
<text text-anchor="middle" x="351" y="-119.5" font-family="Helvetica,sans-Serif" font-size="10.00">engine/Action.h</text>
</a>
</g>
</g>
<!-- Node10&#45;&gt;Node17 -->
<g id="edge17" class="edge">
<title>Node10&#45;&gt;Node17</title>
<path fill="none" stroke="midnightblue" d="M329.29,-168.08C332.85,-160.69 338.02,-149.95 342.42,-140.81"/>
<polygon fill="midnightblue" stroke="midnightblue" points="345.6,-142.28 346.79,-131.75 339.29,-139.24 345.6,-142.28"/>
</g>
<!-- Node13 -->
<g id="node13" class="node">
<title>Node13</title>
<g id="a_node13"><a xlink:href="_s_f_m_l_facade_8h.html" target="_top" xlink:title=" ">
<polygon fill="white" stroke="black" points="182.5,-56.5 182.5,-75.5 305.5,-75.5 305.5,-56.5 182.5,-56.5"/>
<text text-anchor="middle" x="244" y="-63.5" font-family="Helvetica,sans-Serif" font-size="10.00">graphics/SFMLFacade.h</text>
</a>
</g>
</g>
<!-- Node12&#45;&gt;Node13 -->
<g id="edge13" class="edge">
<title>Node12&#45;&gt;Node13</title>
<path fill="none" stroke="midnightblue" d="M155.03,-112.32C172.03,-103.66 198.38,-90.24 217.99,-80.25"/>
<polygon fill="midnightblue" stroke="midnightblue" points="219.69,-83.31 227.01,-75.65 216.51,-77.08 219.69,-83.31"/>
</g>
<!-- Node16 -->
<g id="node16" class="node">
<title>Node16</title>
<g id="a_node16"><a xlink:title=" ">
<polygon fill="white" stroke="#bfbfbf" points="66,-56.5 66,-75.5 164,-75.5 164,-56.5 66,-56.5"/>
<text text-anchor="middle" x="115" y="-63.5" font-family="Helvetica,sans-Serif" font-size="10.00">nlohmann/json.hpp</text>
</a>
</g>
</g>
<!-- Node12&#45;&gt;Node16 -->
<g id="edge16" class="edge">
<title>Node12&#45;&gt;Node16</title>
<path fill="none" stroke="midnightblue" d="M134.2,-112.08C131.09,-104.77 126.58,-94.18 122.71,-85.1"/>
<polygon fill="midnightblue" stroke="midnightblue" points="125.87,-83.58 118.73,-75.75 119.43,-86.32 125.87,-83.58"/>
</g>
<!-- Node14 -->
<g id="node14" class="node">
<title>Node14</title>
<g id="a_node14"><a xlink:title=" ">
<polygon fill="white" stroke="#bfbfbf" points="192,-0.5 192,-19.5 296,-19.5 296,-0.5 192,-0.5"/>
<text text-anchor="middle" x="244" y="-7.5" font-family="Helvetica,sans-Serif" font-size="10.00">SFML/Graphics.hpp</text>
</a>
</g>
</g>
<!-- Node13&#45;&gt;Node14 -->
<g id="edge14" class="edge">
<title>Node13&#45;&gt;Node14</title>
<path fill="none" stroke="midnightblue" d="M244,-56.08C244,-49.01 244,-38.86 244,-29.99"/>
<polygon fill="midnightblue" stroke="midnightblue" points="247.5,-29.75 244,-19.75 240.5,-29.75 247.5,-29.75"/>
</g>
<!-- Node13&#45;&gt;Node15 -->
<g id="edge15" class="edge">
<title>Node13&#45;&gt;Node15</title>
<path fill="none" stroke="midnightblue" d="M211.36,-56.44C174.6,-46.81 114.93,-31.17 76.07,-20.98"/>
<polygon fill="midnightblue" stroke="midnightblue" points="76.75,-17.54 66.19,-18.39 74.97,-24.31 76.75,-17.54"/>
</g>
<!-- Node17&#45;&gt;Node18 -->
<g id="edge18" class="edge">
<title>Node17&#45;&gt;Node18</title>
<path fill="none" stroke="midnightblue" d="M351,-112.08C351,-105.01 351,-94.86 351,-85.99"/>
<polygon fill="midnightblue" stroke="midnightblue" points="354.5,-85.75 351,-75.75 347.5,-85.75 354.5,-85.75"/>
</g>
<!-- Node19 -->
<g id="node19" class="node">
<title>Node19</title>
<g id="a_node19"><a xlink:title=" ">
<polygon fill="white" stroke="#bfbfbf" points="871.5,-56.5 871.5,-75.5 922.5,-75.5 922.5,-56.5 871.5,-56.5"/>
<text text-anchor="middle" x="897" y="-63.5" font-family="Helvetica,sans-Serif" font-size="10.00">memory</text>
</a>
</g>
</g>
<!-- Node17&#45;&gt;Node19 -->
<g id="edge19" class="edge">
<title>Node17&#45;&gt;Node19</title>
<path fill="none" stroke="midnightblue" d="M392.94,-116.85C496.67,-106.59 763.91,-80.16 861.04,-70.56"/>
<polygon fill="midnightblue" stroke="midnightblue" points="861.62,-74.02 871.23,-69.55 860.93,-67.05 861.62,-74.02"/>
</g>
<!-- Node21 -->
<g id="node21" class="node">
<title>Node21</title>
<g id="a_node21"><a xlink:title=" ">
<polygon fill="white" stroke="#bfbfbf" points="776,-224.5 776,-243.5 820,-243.5 820,-224.5 776,-224.5"/>
<text text-anchor="middle" x="798" y="-231.5" font-family="Helvetica,sans-Serif" font-size="10.00">vector</text>
</a>
</g>
</g>
<!-- Node20&#45;&gt;Node21 -->
<g id="edge21" class="edge">
<title>Node20&#45;&gt;Node21</title>
<path fill="none" stroke="midnightblue" d="M706.16,-336.46C722.01,-328.68 744.39,-315.97 760,-300 773.25,-286.44 783.68,-267.38 790.24,-253.41"/>
<polygon fill="midnightblue" stroke="midnightblue" points="793.61,-254.45 794.48,-243.89 787.21,-251.6 793.61,-254.45"/>
</g>
<!-- Node20&#45;&gt;Node22 -->
<g id="edge22" class="edge">
<title>Node20&#45;&gt;Node22</title>
<path fill="none" stroke="midnightblue" d="M670.93,-336.32C655.04,-327.74 630.49,-314.49 612.04,-304.52"/>
<polygon fill="midnightblue" stroke="midnightblue" points="613.49,-301.33 603.03,-299.65 610.16,-307.49 613.49,-301.33"/>
</g>
<!-- Node23 -->
<g id="node23" class="node">
<title>Node23</title>
<g id="a_node23"><a xlink:title=" ">
<polygon fill="white" stroke="#bfbfbf" points="623,-280.5 623,-299.5 751,-299.5 751,-280.5 623,-280.5"/>
<text text-anchor="middle" x="687" y="-287.5" font-family="Helvetica,sans-Serif" font-size="10.00">scanline_triangulation.hpp</text>
</a>
</g>
</g>
<!-- Node20&#45;&gt;Node23 -->
<g id="edge23" class="edge">
<title>Node20&#45;&gt;Node23</title>
<path fill="none" stroke="midnightblue" d="M687,-336.08C687,-329.01 687,-318.86 687,-309.99"/>
<polygon fill="midnightblue" stroke="midnightblue" points="690.5,-309.75 687,-299.75 683.5,-309.75 690.5,-309.75"/>
</g>
<!-- Node24&#45;&gt;Node19 -->
<g id="edge28" class="edge">
<title>Node24&#45;&gt;Node19</title>
<path fill="none" stroke="midnightblue" d="M1261.67,-397.78C1292.06,-381.4 1351,-342.94 1351,-291 1351,-291 1351,-291 1351,-177 1351,-91.06 1039.82,-72.02 932.71,-68.02"/>
<polygon fill="midnightblue" stroke="midnightblue" points="932.83,-64.52 922.71,-67.66 932.58,-71.51 932.83,-64.52"/>
</g>
<!-- Node25 -->
<g id="node25" class="node">
<title>Node25</title>
<g id="a_node25"><a xlink:href="_flag_8h.html" target="_top" xlink:title=" ">
<polygon fill="white" stroke="black" points="1241.5,-280.5 1241.5,-299.5 1284.5,-299.5 1284.5,-280.5 1241.5,-280.5"/>
<text text-anchor="middle" x="1263" y="-287.5" font-family="Helvetica,sans-Serif" font-size="10.00">Flag.h</text>
</a>
</g>
</g>
<!-- Node24&#45;&gt;Node25 -->
<g id="edge25" class="edge">
<title>Node24&#45;&gt;Node25</title>
<path fill="none" stroke="midnightblue" d="M1245.43,-397.82C1248.48,-379.26 1255.71,-335.34 1259.88,-309.97"/>
<polygon fill="midnightblue" stroke="midnightblue" points="1263.39,-310.22 1261.56,-299.78 1256.48,-309.08 1263.39,-310.22"/>
</g>
<!-- Node25&#45;&gt;Node6 -->
<g id="edge27" class="edge">
<title>Node25&#45;&gt;Node6</title>
<path fill="none" stroke="midnightblue" d="M1263,-280.08C1263,-273.01 1263,-262.86 1263,-253.99"/>
<polygon fill="midnightblue" stroke="midnightblue" points="1266.5,-253.75 1263,-243.75 1259.5,-253.75 1266.5,-253.75"/>
</g>
<!-- Node25&#45;&gt;Node21 -->
<g id="edge26" class="edge">
<title>Node25&#45;&gt;Node21</title>
<path fill="none" stroke="midnightblue" d="M1241.45,-282.17C1238.3,-281.34 1235.08,-280.58 1232,-280 1058.46,-247.38 1007.56,-276.14 830.15,-243.86"/>
<polygon fill="midnightblue" stroke="midnightblue" points="830.7,-240.4 820.23,-242.01 829.42,-247.28 830.7,-240.4"/>
</g>
<!-- Node26&#45;&gt;Node20 -->
<g id="edge36" class="edge">
<title>Node26&#45;&gt;Node20</title>
<path fill="none" stroke="midnightblue" d="M692.14,-397.98C691.29,-389.58 689.97,-376.48 688.88,-365.66"/>
<polygon fill="midnightblue" stroke="midnightblue" points="692.34,-365.11 687.86,-355.51 685.38,-365.81 692.34,-365.11"/>
</g>
<!-- Node26&#45;&gt;Node21 -->
<g id="edge35" class="edge">
<title>Node26&#45;&gt;Node21</title>
<path fill="none" stroke="midnightblue" d="M702.53,-397.81C720.6,-380.81 759.9,-341.2 781,-300 788.48,-285.4 792.87,-267.23 795.31,-253.81"/>
<polygon fill="midnightblue" stroke="midnightblue" points="798.78,-254.27 796.92,-243.84 791.87,-253.15 798.78,-254.27"/>
</g>
<!-- Node27&#45;&gt;Node17 -->
<g id="edge38" class="edge">
<title>Node27&#45;&gt;Node17</title>
<path fill="none" stroke="midnightblue" d="M487.39,-224.37C462.21,-205.65 402.33,-161.15 370.96,-137.83"/>
<polygon fill="midnightblue" stroke="midnightblue" points="372.67,-134.75 362.56,-131.59 368.5,-140.37 372.67,-134.75"/>
</g>
<!-- Node28&#45;&gt;Node10 -->
<g id="edge41" class="edge">
<title>Node28&#45;&gt;Node10</title>
<path fill="none" stroke="midnightblue" d="M427.5,-338.06C380.55,-331.29 321,-319.16 306,-300 282.39,-269.85 301.4,-222.24 314.75,-196.65"/>
<polygon fill="midnightblue" stroke="midnightblue" points="317.91,-198.17 319.66,-187.72 311.78,-194.8 317.91,-198.17"/>
</g>
<!-- Node28&#45;&gt;Node11 -->
<g id="edge40" class="edge">
<title>Node28&#45;&gt;Node11</title>
<path fill="none" stroke="midnightblue" d="M497.64,-336.46C514.95,-320.41 550.71,-283.75 564,-244 576.74,-205.88 548.31,-162.51 529.64,-139.45"/>
<polygon fill="midnightblue" stroke="midnightblue" points="532.2,-137.05 523.07,-131.67 526.85,-141.57 532.2,-137.05"/>
</g>
<!-- Node29 -->
<g id="node29" class="node">
<title>Node29</title>
<g id="a_node29"><a xlink:href="_network_manager_8h.html" target="_top" xlink:title=" ">
<polygon fill="white" stroke="black" points="315,-280.5 315,-299.5 445,-299.5 445,-280.5 315,-280.5"/>
<text text-anchor="middle" x="380" y="-287.5" font-family="Helvetica,sans-Serif" font-size="10.00">engine/NetworkManager.h</text>
</a>
</g>
</g>
<!-- Node28&#45;&gt;Node29 -->
<g id="edge42" class="edge">
<title>Node28&#45;&gt;Node29</title>
<path fill="none" stroke="midnightblue" d="M470.65,-336.32C453.33,-327.66 426.48,-314.24 406.5,-304.25"/>
<polygon fill="midnightblue" stroke="midnightblue" points="407.82,-301 397.31,-299.65 404.69,-307.26 407.82,-301"/>
</g>
<!-- Node31 -->
<g id="node31" class="node">
<title>Node31</title>
<g id="a_node31"><a xlink:title=" ">
<polygon fill="white" stroke="#bfbfbf" points="463.5,-280.5 463.5,-299.5 512.5,-299.5 512.5,-280.5 463.5,-280.5"/>
<text text-anchor="middle" x="488" y="-287.5" font-family="Helvetica,sans-Serif" font-size="10.00">random</text>
</a>
</g>
</g>
<!-- Node28&#45;&gt;Node31 -->
<g id="edge47" class="edge">
<title>Node28&#45;&gt;Node31</title>
<path fill="none" stroke="midnightblue" d="M488,-336.08C488,-329.01 488,-318.86 488,-309.99"/>
<polygon fill="midnightblue" stroke="midnightblue" points="491.5,-309.75 488,-299.75 484.5,-309.75 491.5,-309.75"/>
</g>
<!-- Node29&#45;&gt;Node10 -->
<g id="edge43" class="edge">
<title>Node29&#45;&gt;Node10</title>
<path fill="none" stroke="midnightblue" d="M371.42,-280.43C363.3,-271.88 351.29,-258.02 344,-244 336.37,-229.33 331.39,-211.16 328.45,-197.77"/>
<polygon fill="midnightblue" stroke="midnightblue" points="331.85,-196.93 326.45,-187.82 324.99,-198.31 331.85,-196.93"/>
</g>
<!-- Node29&#45;&gt;Node21 -->
<g id="edge45" class="edge">
<title>Node29&#45;&gt;Node21</title>
<path fill="none" stroke="midnightblue" d="M445.31,-280.56C536.2,-268.82 697.35,-248 765.8,-239.16"/>
<polygon fill="midnightblue" stroke="midnightblue" points="766.5,-242.6 775.97,-237.85 765.6,-235.66 766.5,-242.6"/>
</g>
<!-- Node29&#45;&gt;Node27 -->
<g id="edge44" class="edge">
<title>Node29&#45;&gt;Node27</title>
<path fill="none" stroke="midnightblue" d="M398.86,-280.44C418.27,-271.64 448.73,-257.81 470.96,-247.72"/>
<polygon fill="midnightblue" stroke="midnightblue" points="472.57,-250.84 480.23,-243.52 469.68,-244.46 472.57,-250.84"/>
</g>
<!-- Node30 -->
<g id="node30" class="node">
<title>Node30</title>
<g id="a_node30"><a xlink:title=" ">
<polygon fill="white" stroke="#bfbfbf" points="353.5,-224.5 353.5,-243.5 424.5,-243.5 424.5,-224.5 353.5,-224.5"/>
<text text-anchor="middle" x="389" y="-231.5" font-family="Helvetica,sans-Serif" font-size="10.00">sys/socket.h</text>
</a>
</g>
</g>
<!-- Node29&#45;&gt;Node30 -->
<g id="edge46" class="edge">
<title>Node29&#45;&gt;Node30</title>
<path fill="none" stroke="midnightblue" d="M381.49,-280.08C382.68,-272.93 384.39,-262.64 385.88,-253.69"/>
<polygon fill="midnightblue" stroke="midnightblue" points="389.35,-254.19 387.54,-243.75 382.45,-253.04 389.35,-254.19"/>
</g>
<!-- Node32&#45;&gt;Node7 -->
<g id="edge50" class="edge">
<title>Node32&#45;&gt;Node7</title>
<path fill="none" stroke="midnightblue" d="M427.85,-417.3C423.05,-439.12 413.6,-496.71 437,-535 446.09,-549.88 462.09,-560.38 477.15,-567.47"/>
<polygon fill="midnightblue" stroke="midnightblue" points="475.78,-570.68 486.34,-571.45 478.56,-564.26 475.78,-570.68"/>
</g>
<!-- Node32&#45;&gt;Node8 -->
<g id="edge51" class="edge">
<title>Node32&#45;&gt;Node8</title>
<path fill="none" stroke="midnightblue" d="M460.07,-417.01C492.46,-427.21 543.44,-444.37 575.86,-455.93"/>
<polygon fill="midnightblue" stroke="midnightblue" points="575.09,-459.38 585.68,-459.48 577.46,-452.79 575.09,-459.38"/>
</g>
<!-- Node32&#45;&gt;Node17 -->
<g id="edge49" class="edge">
<title>Node32&#45;&gt;Node17</title>
<path fill="none" stroke="midnightblue" d="M383.86,-397.95C330.23,-385.04 249,-354.93 249,-291 249,-291 249,-291 249,-233 249,-201.54 256.36,-191.74 277,-168 288.81,-154.41 305.77,-143.69 320.47,-136.12"/>
<polygon fill="midnightblue" stroke="midnightblue" points="322.28,-139.14 329.73,-131.61 319.21,-132.84 322.28,-139.14"/>
</g>
<!-- Node34 -->
<g id="node34" class="node">
<title>Node34</title>
<g id="a_node34"><a xlink:href="_factory_8h.html" target="_top" xlink:title=" ">
<polygon fill="white" stroke="black" points="1167,-280.5 1167,-299.5 1223,-299.5 1223,-280.5 1167,-280.5"/>
<text text-anchor="middle" x="1195" y="-287.5" font-family="Helvetica,sans-Serif" font-size="10.00">Factory.h</text>
</a>
</g>
</g>
<!-- Node33&#45;&gt;Node34 -->
<g id="edge53" class="edge">
<title>Node33&#45;&gt;Node34</title>
<path fill="none" stroke="midnightblue" d="M1061.19,-336.44C1087.94,-327.36 1130.4,-312.94 1160.31,-302.78"/>
<polygon fill="midnightblue" stroke="midnightblue" points="1161.58,-306.05 1169.92,-299.52 1159.33,-299.42 1161.58,-306.05"/>
</g>
<!-- Node34&#45;&gt;Node3 -->
<g id="edge56" class="edge">
<title>Node34&#45;&gt;Node3</title>
<path fill="none" stroke="midnightblue" d="M1192.34,-299.6C1186.69,-318.65 1174,-365.94 1174,-406.5 1174,-526 1174,-526 1174,-526 1174,-559.21 1161.87,-596.37 1153.57,-617.88"/>
<polygon fill="midnightblue" stroke="midnightblue" points="1150.25,-616.77 1149.78,-627.35 1156.75,-619.37 1150.25,-616.77"/>
</g>
<!-- Node34&#45;&gt;Node6 -->
<g id="edge54" class="edge">
<title>Node34&#45;&gt;Node6</title>
<path fill="none" stroke="midnightblue" d="M1205.93,-280.32C1216.17,-272.18 1231.72,-259.84 1244,-250.09"/>
<polygon fill="midnightblue" stroke="midnightblue" points="1246.22,-252.79 1251.88,-243.83 1241.87,-247.31 1246.22,-252.79"/>
</g>
<!-- Node34&#45;&gt;Node8 -->
<g id="edge55" class="edge">
<title>Node34&#45;&gt;Node8</title>
<path fill="none" stroke="midnightblue" d="M1187.53,-299.76C1166.01,-324.31 1100.91,-393.83 1030,-423 965.04,-449.72 763.37,-461.55 663.39,-465.89"/>
<polygon fill="midnightblue" stroke="midnightblue" points="663.01,-462.4 653.17,-466.32 663.31,-469.4 663.01,-462.4"/>
</g>
<!-- Node35&#45;&gt;Node33 -->
<g id="edge65" class="edge">
<title>Node35&#45;&gt;Node33</title>
<path fill="none" stroke="midnightblue" d="M955.47,-397.98C970.68,-388.34 995.69,-372.52 1013.8,-361.05"/>
<polygon fill="midnightblue" stroke="midnightblue" points="1015.98,-363.81 1022.56,-355.51 1012.24,-357.9 1015.98,-363.81"/>
</g>
<!-- Node36 -->
<g id="node36" class="node">
<title>Node36</title>
<g id="a_node36"><a xlink:href="_squad_template_8h.html" target="_top" xlink:title=" ">
<polygon fill="white" stroke="black" points="896,-336.5 896,-355.5 988,-355.5 988,-336.5 896,-336.5"/>
<text text-anchor="middle" x="942" y="-343.5" font-family="Helvetica,sans-Serif" font-size="10.00">SquadTemplate.h</text>
</a>
</g>
</g>
<!-- Node35&#45;&gt;Node36 -->
<g id="edge58" class="edge">
<title>Node35&#45;&gt;Node36</title>
<path fill="none" stroke="midnightblue" d="M942,-397.98C942,-389.58 942,-376.48 942,-365.66"/>
<polygon fill="midnightblue" stroke="midnightblue" points="945.5,-365.51 942,-355.51 938.5,-365.51 945.5,-365.51"/>
</g>
<!-- Node36&#45;&gt;Node21 -->
<g id="edge59" class="edge">
<title>Node36&#45;&gt;Node21</title>
<path fill="none" stroke="midnightblue" d="M932.97,-336.08C919.57,-323.06 893.39,-298.39 869,-280 853.9,-268.61 835.89,-257.22 821.79,-248.75"/>
<polygon fill="midnightblue" stroke="midnightblue" points="823.54,-245.72 813.15,-243.63 819.97,-251.74 823.54,-245.72"/>
</g>
<!-- Node36&#45;&gt;Node34 -->
<g id="edge60" class="edge">
<title>Node36&#45;&gt;Node34</title>
<path fill="none" stroke="midnightblue" d="M985.12,-336.45C1026.65,-328.13 1091.5,-314.87 1156.7,-300.24"/>
<polygon fill="midnightblue" stroke="midnightblue" points="1157.76,-303.59 1166.74,-297.98 1156.22,-296.76 1157.76,-303.59"/>
</g>
<!-- Node37 -->
<g id="node37" class="node">
<title>Node37</title>
<g id="a_node37"><a xlink:href="_gui_list_8h.html" target="_top" xlink:title=" ">
<polygon fill="white" stroke="black" points="921,-280.5 921,-299.5 1029,-299.5 1029,-280.5 921,-280.5"/>
<text text-anchor="middle" x="975" y="-287.5" font-family="Helvetica,sans-Serif" font-size="10.00">engine/GUI/GuiList.h</text>
</a>
</g>
</g>
<!-- Node36&#45;&gt;Node37 -->
<g id="edge61" class="edge">
<title>Node36&#45;&gt;Node37</title>
<path fill="none" stroke="midnightblue" d="M947.45,-336.08C952.01,-328.61 958.67,-317.72 964.29,-308.52"/>
<polygon fill="midnightblue" stroke="midnightblue" points="967.42,-310.11 969.65,-299.75 961.45,-306.46 967.42,-310.11"/>
</g>
<!-- Node37&#45;&gt;Node21 -->
<g id="edge64" class="edge">
<title>Node37&#45;&gt;Node21</title>
<path fill="none" stroke="midnightblue" d="M946.95,-280.44C915.06,-270.71 863.11,-254.86 829.76,-244.69"/>
<polygon fill="midnightblue" stroke="midnightblue" points="830.63,-241.3 820.04,-241.73 828.59,-247.99 830.63,-241.3"/>
</g>
<!-- Node38 -->
<g id="node38" class="node">
<title>Node38</title>
<g id="a_node38"><a xlink:href="_gui_object_8h.html" target="_top" xlink:title=" ">
<polygon fill="white" stroke="black" points="838,-224.5 838,-243.5 958,-243.5 958,-224.5 838,-224.5"/>
<text text-anchor="middle" x="898" y="-231.5" font-family="Helvetica,sans-Serif" font-size="10.00">engine/GUI/GuiObject.h</text>
</a>
</g>
</g>
<!-- Node37&#45;&gt;Node38 -->
<g id="edge62" class="edge">
<title>Node37&#45;&gt;Node38</title>
<path fill="none" stroke="midnightblue" d="M962.63,-280.32C950.84,-272.06 932.87,-259.45 918.86,-249.63"/>
<polygon fill="midnightblue" stroke="midnightblue" points="920.54,-246.53 910.34,-243.65 916.52,-252.26 920.54,-246.53"/>
</g>
<!-- Node38&#45;&gt;Node10 -->
<g id="edge63" class="edge">
<title>Node38&#45;&gt;Node10</title>
<path fill="none" stroke="midnightblue" d="M837.81,-225C834.83,-224.65 831.88,-224.32 829,-224 662.27,-205.69 463.87,-189.66 373.8,-182.69"/>
<polygon fill="midnightblue" stroke="midnightblue" points="373.86,-179.19 363.62,-181.91 373.32,-186.17 373.86,-179.19"/>
</g>
<!-- Node39&#45;&gt;Node7 -->
<g id="edge69" class="edge">
<title>Node39&#45;&gt;Node7</title>
<path fill="none" stroke="midnightblue" d="M519.13,-534.75C520.66,-541.86 521.1,-552.14 520.47,-561.1"/>
<polygon fill="midnightblue" stroke="midnightblue" points="516.99,-560.71 519.17,-571.08 523.93,-561.62 516.99,-560.71"/>
</g>
<!-- Node39&#45;&gt;Node8 -->
<g id="edge70" class="edge">
<title>Node39&#45;&gt;Node8</title>
<path fill="none" stroke="midnightblue" d="M528.78,-515.32C543.27,-506.82 565.57,-493.73 582.49,-483.8"/>
<polygon fill="midnightblue" stroke="midnightblue" points="584.4,-486.74 591.26,-478.65 580.86,-480.7 584.4,-486.74"/>
</g>
<!-- Node40&#45;&gt;Node12 -->
<g id="edge75" class="edge">
<title>Node40&#45;&gt;Node12</title>
<path fill="none" stroke="midnightblue" d="M1084.49,-280.35C1061.42,-266.02 1012.48,-237.62 967,-224 819.43,-179.82 345.67,-139.39 188.91,-126.93"/>
<polygon fill="midnightblue" stroke="midnightblue" points="188.86,-123.42 178.61,-126.12 188.3,-130.39 188.86,-123.42"/>
</g>
<!-- Node40&#45;&gt;Node21 -->
<g id="edge76" class="edge">
<title>Node40&#45;&gt;Node21</title>
<path fill="none" stroke="midnightblue" d="M1047.23,-281.23C985.34,-271.65 883.35,-255.44 830.22,-244.02"/>
<polygon fill="midnightblue" stroke="midnightblue" points="830.79,-240.56 820.27,-241.8 829.27,-247.39 830.79,-240.56"/>
</g>
<!-- Node41 -->
<g id="node41" class="node">
<title>Node41</title>
<g id="a_node41"><a xlink:title=" ">
<polygon fill="white" stroke="#bfbfbf" points="1056.5,-224.5 1056.5,-243.5 1139.5,-243.5 1139.5,-224.5 1056.5,-224.5"/>
<text text-anchor="middle" x="1098" y="-231.5" font-family="Helvetica,sans-Serif" font-size="10.00">unordered_map</text>
</a>
</g>
</g>
<!-- Node40&#45;&gt;Node41 -->
<g id="edge77" class="edge">
<title>Node40&#45;&gt;Node41</title>
<path fill="none" stroke="midnightblue" d="M1098,-280.08C1098,-273.01 1098,-262.86 1098,-253.99"/>
<polygon fill="midnightblue" stroke="midnightblue" points="1101.5,-253.75 1098,-243.75 1094.5,-253.75 1101.5,-253.75"/>
</g>
</g>
</svg>
