<?xml version="1.0" encoding="UTF-8" standalone="no"?>
<!DOCTYPE svg PUBLIC "-//W3C//DTD SVG 1.1//EN"
 "http://www.w3.org/Graphics/SVG/1.1/DTD/svg11.dtd">
<!-- Generated by graphviz version 2.47.1 (20210421.1823)
 -->
<!-- Title: include/engine/Logger.h Pages: 1 -->
<svg width="926pt" height="95pt"
 viewBox="0.00 0.00 925.50 95.00" xmlns="http://www.w3.org/2000/svg" xmlns:xlink="http://www.w3.org/1999/xlink">
<g id="graph0" class="graph" transform="scale(1 1) rotate(0) translate(4 91)">
<title>include/engine/Logger.h</title>
<polygon fill="white" stroke="transparent" points="-4,4 -4,-91 921.5,-91 921.5,4 -4,4"/>
<!-- Node1 -->
<g id="node1" class="node">
<title>Node1</title>
<g id="a_node1"><a xlink:title=" ">
<polygon fill="#bfbfbf" stroke="black" points="397,-67.5 397,-86.5 516,-86.5 516,-67.5 397,-67.5"/>
<text text-anchor="middle" x="456.5" y="-74.5" font-family="Helvetica,sans-Serif" font-size="10.00">include/engine/Logger.h</text>
</a>
</g>
</g>
<!-- Node2 -->
<g id="node2" class="node">
<title>Node2</title>
<g id="a_node2"><a xlink:href="_set_squad_path_8cpp.html" target="_top" xlink:title=" ">
<polygon fill="white" stroke="black" points="0,-0.5 0,-30.5 101,-30.5 101,-0.5 0,-0.5"/>
<text text-anchor="start" x="8" y="-18.5" font-family="Helvetica,sans-Serif" font-size="10.00">src/engine/actions</text>
<text text-anchor="middle" x="50.5" y="-7.5" font-family="Helvetica,sans-Serif" font-size="10.00">/SetSquadPath.cpp</text>
</a>
</g>
</g>
<!-- Node1&#45;&gt;Node2 -->
<g id="edge1" class="edge">
<title>Node1&#45;&gt;Node2</title>
<path fill="none" stroke="midnightblue" d="M386.76,-69.16C316.64,-61.76 205.59,-48.62 110.5,-31 107.44,-30.43 104.31,-29.81 101.16,-29.15"/>
<polygon fill="midnightblue" stroke="midnightblue" points="386.5,-72.65 396.81,-70.21 387.23,-65.69 386.5,-72.65"/>
</g>
<!-- Node3 -->
<g id="node3" class="node">
<title>Node3</title>
<g id="a_node3"><a xlink:href="_spawn_action_8cpp.html" target="_top" xlink:title=" ">
<polygon fill="white" stroke="black" points="119.5,-0.5 119.5,-30.5 215.5,-30.5 215.5,-0.5 119.5,-0.5"/>
<text text-anchor="start" x="127.5" y="-18.5" font-family="Helvetica,sans-Serif" font-size="10.00">src/engine/actions</text>
<text text-anchor="middle" x="167.5" y="-7.5" font-family="Helvetica,sans-Serif" font-size="10.00">/SpawnAction.cpp</text>
</a>
</g>
</g>
<!-- Node1&#45;&gt;Node3 -->
<g id="edge2" class="edge">
<title>Node1&#45;&gt;Node3</title>
<path fill="none" stroke="midnightblue" d="M398.34,-65.68C351.3,-57.1 283.43,-44.2 224.5,-31 221.61,-30.35 218.64,-29.67 215.66,-28.96"/>
<polygon fill="midnightblue" stroke="midnightblue" points="397.88,-69.15 408.34,-67.49 399.13,-62.26 397.88,-69.15"/>
</g>
<!-- Node4 -->
<g id="node4" class="node">
<title>Node4</title>
<g id="a_node4"><a xlink:href="game_controller_8cpp.html" target="_top" xlink:title=" ">
<polygon fill="white" stroke="black" points="233.5,-6 233.5,-25 381.5,-25 381.5,-6 233.5,-6"/>
<text text-anchor="middle" x="307.5" y="-13" font-family="Helvetica,sans-Serif" font-size="10.00">src/engine/gameController.cpp</text>
</a>
</g>
</g>
<!-- Node1&#45;&gt;Node4 -->
<g id="edge3" class="edge">
<title>Node1&#45;&gt;Node4</title>
<path fill="none" stroke="midnightblue" d="M425.53,-63.63C396.58,-52.07 354.13,-35.12 328.81,-25.01"/>
<polygon fill="midnightblue" stroke="midnightblue" points="424.57,-67.02 435.15,-67.48 427.16,-60.52 424.57,-67.02"/>
</g>
<!-- Node5 -->
<g id="node5" class="node">
<title>Node5</title>
<g id="a_node5"><a xlink:href="_logger_8cpp.html" target="_top" xlink:title=" ">
<polygon fill="white" stroke="black" points="400,-6 400,-25 513,-25 513,-6 400,-6"/>
<text text-anchor="middle" x="456.5" y="-13" font-family="Helvetica,sans-Serif" font-size="10.00">src/engine/Logger.cpp</text>
</a>
</g>
</g>
<!-- Node1&#45;&gt;Node5 -->
<g id="edge4" class="edge">
<title>Node1&#45;&gt;Node5</title>
<path fill="none" stroke="midnightblue" d="M456.5,-57.32C456.5,-46.5 456.5,-33.4 456.5,-25.01"/>
<polygon fill="midnightblue" stroke="midnightblue" points="453,-57.48 456.5,-67.48 460,-57.48 453,-57.48"/>
</g>
<!-- Node6 -->
<g id="node6" class="node">
<title>Node6</title>
<g id="a_node6"><a xlink:href="_network_manager_8cpp.html" target="_top" xlink:title=" ">
<polygon fill="white" stroke="black" points="531,-6 531,-25 688,-25 688,-6 531,-6"/>
<text text-anchor="middle" x="609.5" y="-13" font-family="Helvetica,sans-Serif" font-size="10.00">src/engine/NetworkManager.cpp</text>
</a>
</g>
</g>
<!-- Node1&#45;&gt;Node6 -->
<g id="edge5" class="edge">
<title>Node1&#45;&gt;Node6</title>
<path fill="none" stroke="midnightblue" d="M487.92,-63.78C517.65,-52.22 561.51,-35.16 587.62,-25.01"/>
<polygon fill="midnightblue" stroke="midnightblue" points="486.47,-60.59 478.42,-67.48 489.01,-67.11 486.47,-60.59"/>
</g>
<!-- Node7 -->
<g id="node7" class="node">
<title>Node7</title>
<g id="a_node7"><a xlink:href="_cell_8cpp.html" target="_top" xlink:title=" ">
<polygon fill="white" stroke="black" points="706,-6 706,-25 827,-25 827,-6 706,-6"/>
<text text-anchor="middle" x="766.5" y="-13" font-family="Helvetica,sans-Serif" font-size="10.00">src/GameLogic/Cell.cpp</text>
</a>
</g>
</g>
<!-- Node1&#45;&gt;Node7 -->
<g id="edge6" class="edge">
<title>Node1&#45;&gt;Node7</title>
<path fill="none" stroke="midnightblue" d="M514.18,-65.61C563.05,-56.71 634.94,-43.41 697.5,-31 706.99,-29.12 717.19,-27.02 726.76,-25.01"/>
<polygon fill="midnightblue" stroke="midnightblue" points="513.33,-62.2 504.12,-67.44 514.58,-69.09 513.33,-62.2"/>
</g>
<!-- Node8 -->
<g id="node8" class="node">
<title>Node8</title>
<g id="a_node8"><a xlink:href="main_8cpp.html" target="_top" xlink:title=" ">
<polygon fill="white" stroke="black" points="845.5,-6 845.5,-25 917.5,-25 917.5,-6 845.5,-6"/>
<text text-anchor="middle" x="881.5" y="-13" font-family="Helvetica,sans-Serif" font-size="10.00">src/main.cpp</text>
</a>
</g>
</g>
<!-- Node1&#45;&gt;Node8 -->
<g id="edge7" class="edge">
<title>Node1&#45;&gt;Node8</title>
<path fill="none" stroke="midnightblue" d="M526.03,-71.83C602.73,-66.28 729.5,-54.34 836.5,-31 843.56,-29.46 851.08,-27.27 857.91,-25.05"/>
<polygon fill="midnightblue" stroke="midnightblue" points="525.73,-68.34 516,-72.53 526.22,-75.32 525.73,-68.34"/>
</g>
</g>
</svg>
