<?xml version="1.0" encoding="UTF-8" standalone="no"?>
<!DOCTYPE svg PUBLIC "-//W3C//DTD SVG 1.1//EN"
 "http://www.w3.org/Graphics/SVG/1.1/DTD/svg11.dtd">
<!-- Generated by graphviz version 2.47.1 (20210421.1823)
 -->
<!-- Title: src/engine/Logger.cpp Pages: 1 -->
<svg width="781pt" height="364pt"
 viewBox="0.00 0.00 780.50 364.00" xmlns="http://www.w3.org/2000/svg" xmlns:xlink="http://www.w3.org/1999/xlink">
<g id="graph0" class="graph" transform="scale(1 1) rotate(0) translate(4 360)">
<title>src/engine/Logger.cpp</title>
<polygon fill="white" stroke="transparent" points="-4,4 -4,-360 776.5,-360 776.5,4 -4,4"/>
<!-- Node1 -->
<g id="node1" class="node">
<title>Node1</title>
<g id="a_node1"><a xlink:title=" ">
<polygon fill="#bfbfbf" stroke="black" points="22.5,-336.5 22.5,-355.5 135.5,-355.5 135.5,-336.5 22.5,-336.5"/>
<text text-anchor="middle" x="79" y="-343.5" font-family="Helvetica,sans-Serif" font-size="10.00">src/engine/Logger.cpp</text>
</a>
</g>
</g>
<!-- Node2 -->
<g id="node2" class="node">
<title>Node2</title>
<g id="a_node2"><a xlink:href="_logger_8h.html" target="_top" xlink:title=" ">
<polygon fill="white" stroke="black" points="46,-224.5 46,-243.5 132,-243.5 132,-224.5 46,-224.5"/>
<text text-anchor="middle" x="89" y="-231.5" font-family="Helvetica,sans-Serif" font-size="10.00">engine/Logger.h</text>
</a>
</g>
</g>
<!-- Node1&#45;&gt;Node2 -->
<g id="edge1" class="edge">
<title>Node1&#45;&gt;Node2</title>
<path fill="none" stroke="midnightblue" d="M80.91,-336.43C82.82,-327.41 85.67,-312.79 87,-300 88.6,-284.54 89.06,-266.91 89.14,-253.91"/>
<polygon fill="midnightblue" stroke="midnightblue" points="92.64,-253.86 89.13,-243.86 85.64,-253.86 92.64,-253.86"/>
</g>
<!-- Node4 -->
<g id="node4" class="node">
<title>Node4</title>
<g id="a_node4"><a xlink:title=" ">
<polygon fill="white" stroke="#bfbfbf" points="28,-280.5 28,-299.5 78,-299.5 78,-280.5 28,-280.5"/>
<text text-anchor="middle" x="53" y="-287.5" font-family="Helvetica,sans-Serif" font-size="10.00">fstream</text>
</a>
</g>
</g>
<!-- Node1&#45;&gt;Node4 -->
<g id="edge3" class="edge">
<title>Node1&#45;&gt;Node4</title>
<path fill="none" stroke="midnightblue" d="M74.71,-336.08C71.15,-328.69 65.98,-317.95 61.58,-308.81"/>
<polygon fill="midnightblue" stroke="midnightblue" points="64.71,-307.24 57.21,-299.75 58.4,-310.28 64.71,-307.24"/>
</g>
<!-- Node5 -->
<g id="node5" class="node">
<title>Node5</title>
<g id="a_node5"><a xlink:title=" ">
<polygon fill="white" stroke="#bfbfbf" points="122.5,-56.5 122.5,-75.5 173.5,-75.5 173.5,-56.5 122.5,-56.5"/>
<text text-anchor="middle" x="148" y="-63.5" font-family="Helvetica,sans-Serif" font-size="10.00">memory</text>
</a>
</g>
</g>
<!-- Node1&#45;&gt;Node5 -->
<g id="edge4" class="edge">
<title>Node1&#45;&gt;Node5</title>
<path fill="none" stroke="midnightblue" d="M62.11,-336.35C48.56,-328.58 30.05,-315.95 19,-300 1.86,-275.26 0,-265.1 0,-235 0,-235 0,-235 0,-177 0,-121.16 68.7,-90.35 112.49,-76.38"/>
<polygon fill="midnightblue" stroke="midnightblue" points="113.67,-79.68 122.22,-73.42 111.63,-72.98 113.67,-79.68"/>
</g>
<!-- Node6 -->
<g id="node6" class="node">
<title>Node6</title>
<g id="a_node6"><a xlink:href="game_controller_8h.html" target="_top" xlink:title=" ">
<polygon fill="white" stroke="black" points="437.5,-280.5 437.5,-299.5 558.5,-299.5 558.5,-280.5 437.5,-280.5"/>
<text text-anchor="middle" x="498" y="-287.5" font-family="Helvetica,sans-Serif" font-size="10.00">engine/gameController.h</text>
</a>
</g>
</g>
<!-- Node1&#45;&gt;Node6 -->
<g id="edge5" class="edge">
<title>Node1&#45;&gt;Node6</title>
<path fill="none" stroke="midnightblue" d="M135.51,-337.72C211.1,-327.98 345.11,-310.7 427.3,-300.11"/>
<polygon fill="midnightblue" stroke="midnightblue" points="427.84,-303.57 437.31,-298.82 426.94,-296.63 427.84,-303.57"/>
</g>
<!-- Node3 -->
<g id="node3" class="node">
<title>Node3</title>
<g id="a_node3"><a xlink:title=" ">
<polygon fill="white" stroke="#bfbfbf" points="145.5,-112.5 145.5,-131.5 186.5,-131.5 186.5,-112.5 145.5,-112.5"/>
<text text-anchor="middle" x="166" y="-119.5" font-family="Helvetica,sans-Serif" font-size="10.00">string</text>
</a>
</g>
</g>
<!-- Node2&#45;&gt;Node3 -->
<g id="edge2" class="edge">
<title>Node2&#45;&gt;Node3</title>
<path fill="none" stroke="midnightblue" d="M78.88,-224.19C65.35,-211.31 44.41,-186.82 57,-168 74.31,-142.13 109.51,-131.11 135.24,-126.44"/>
<polygon fill="midnightblue" stroke="midnightblue" points="135.94,-129.87 145.27,-124.84 134.84,-122.96 135.94,-129.87"/>
</g>
<!-- Node7 -->
<g id="node7" class="node">
<title>Node7</title>
<g id="a_node7"><a xlink:title=" ">
<polygon fill="white" stroke="#bfbfbf" points="630.5,-112.5 630.5,-131.5 659.5,-131.5 659.5,-112.5 630.5,-112.5"/>
<text text-anchor="middle" x="645" y="-119.5" font-family="Helvetica,sans-Serif" font-size="10.00">list</text>
</a>
</g>
</g>
<!-- Node6&#45;&gt;Node7 -->
<g id="edge6" class="edge">
<title>Node6&#45;&gt;Node7</title>
<path fill="none" stroke="midnightblue" d="M515.95,-280.27C544.5,-265.43 599.99,-232.51 629,-188 638.02,-174.16 641.96,-155.64 643.68,-141.91"/>
<polygon fill="midnightblue" stroke="midnightblue" points="647.18,-142 644.66,-131.71 640.21,-141.33 647.18,-142"/>
</g>
<!-- Node8 -->
<g id="node8" class="node">
<title>Node8</title>
<g id="a_node8"><a xlink:href="game_object_8h.html" target="_top" xlink:title=" ">
<polygon fill="white" stroke="black" points="512,-168.5 512,-187.5 620,-187.5 620,-168.5 512,-168.5"/>
<text text-anchor="middle" x="566" y="-175.5" font-family="Helvetica,sans-Serif" font-size="10.00">engine/gameObject.h</text>
</a>
</g>
</g>
<!-- Node6&#45;&gt;Node8 -->
<g id="edge7" class="edge">
<title>Node6&#45;&gt;Node8</title>
<path fill="none" stroke="midnightblue" d="M505.22,-280.35C512.43,-271.51 523.62,-257.24 532,-244 541.77,-228.57 551.27,-210.02 557.73,-196.7"/>
<polygon fill="midnightblue" stroke="midnightblue" points="560.89,-198.2 562.03,-187.66 554.57,-195.19 560.89,-198.2"/>
</g>
<!-- Node17 -->
<g id="node17" class="node">
<title>Node17</title>
<g id="a_node17"><a xlink:href="_network_manager_8h.html" target="_top" xlink:title=" ">
<polygon fill="white" stroke="black" points="310,-224.5 310,-243.5 440,-243.5 440,-224.5 310,-224.5"/>
<text text-anchor="middle" x="375" y="-231.5" font-family="Helvetica,sans-Serif" font-size="10.00">engine/NetworkManager.h</text>
</a>
</g>
</g>
<!-- Node6&#45;&gt;Node17 -->
<g id="edge21" class="edge">
<title>Node6&#45;&gt;Node17</title>
<path fill="none" stroke="midnightblue" d="M478.51,-280.44C458.36,-271.6 426.68,-257.69 403.67,-247.59"/>
<polygon fill="midnightblue" stroke="midnightblue" points="404.96,-244.33 394.4,-243.52 402.15,-250.74 404.96,-244.33"/>
</g>
<!-- Node23 -->
<g id="node23" class="node">
<title>Node23</title>
<g id="a_node23"><a xlink:title=" ">
<polygon fill="white" stroke="#bfbfbf" points="473.5,-224.5 473.5,-243.5 522.5,-243.5 522.5,-224.5 473.5,-224.5"/>
<text text-anchor="middle" x="498" y="-231.5" font-family="Helvetica,sans-Serif" font-size="10.00">random</text>
</a>
</g>
</g>
<!-- Node6&#45;&gt;Node23 -->
<g id="edge29" class="edge">
<title>Node6&#45;&gt;Node23</title>
<path fill="none" stroke="midnightblue" d="M498,-280.08C498,-273.01 498,-262.86 498,-253.99"/>
<polygon fill="midnightblue" stroke="midnightblue" points="501.5,-253.75 498,-243.75 494.5,-253.75 501.5,-253.75"/>
</g>
<!-- Node8&#45;&gt;Node3 -->
<g id="edge8" class="edge">
<title>Node8&#45;&gt;Node3</title>
<path fill="none" stroke="midnightblue" d="M511.71,-169.21C508.76,-168.8 505.85,-168.39 503,-168 390.16,-152.41 255.93,-134.75 196.69,-127"/>
<polygon fill="midnightblue" stroke="midnightblue" points="196.89,-123.5 186.52,-125.67 195.99,-130.44 196.89,-123.5"/>
</g>
<!-- Node8&#45;&gt;Node7 -->
<g id="edge9" class="edge">
<title>Node8&#45;&gt;Node7</title>
<path fill="none" stroke="midnightblue" d="M578.69,-168.32C590.9,-159.98 609.58,-147.21 624,-137.35"/>
<polygon fill="midnightblue" stroke="midnightblue" points="626.06,-140.19 632.34,-131.65 622.11,-134.41 626.06,-140.19"/>
</g>
<!-- Node9 -->
<g id="node9" class="node">
<title>Node9</title>
<g id="a_node9"><a xlink:href="config_8h.html" target="_top" xlink:title=" ">
<polygon fill="white" stroke="black" points="527.5,-112.5 527.5,-131.5 608.5,-131.5 608.5,-112.5 527.5,-112.5"/>
<text text-anchor="middle" x="568" y="-119.5" font-family="Helvetica,sans-Serif" font-size="10.00">engine/config.h</text>
</a>
</g>
</g>
<!-- Node8&#45;&gt;Node9 -->
<g id="edge10" class="edge">
<title>Node8&#45;&gt;Node9</title>
<path fill="none" stroke="midnightblue" d="M566.33,-168.08C566.59,-161.01 566.97,-150.86 567.3,-141.99"/>
<polygon fill="midnightblue" stroke="midnightblue" points="570.8,-141.87 567.68,-131.75 563.81,-141.61 570.8,-141.87"/>
</g>
<!-- Node15 -->
<g id="node15" class="node">
<title>Node15</title>
<g id="a_node15"><a xlink:href="engine_2_action_8h.html" target="_top" xlink:title=" ">
<polygon fill="white" stroke="black" points="320.5,-112.5 320.5,-131.5 403.5,-131.5 403.5,-112.5 320.5,-112.5"/>
<text text-anchor="middle" x="362" y="-119.5" font-family="Helvetica,sans-Serif" font-size="10.00">engine/Action.h</text>
</a>
</g>
</g>
<!-- Node8&#45;&gt;Node15 -->
<g id="edge18" class="edge">
<title>Node8&#45;&gt;Node15</title>
<path fill="none" stroke="midnightblue" d="M533.68,-168.44C498.61,-159.16 442.5,-144.31 404.04,-134.13"/>
<polygon fill="midnightblue" stroke="midnightblue" points="404.74,-130.69 394.17,-131.52 402.94,-137.46 404.74,-130.69"/>
</g>
<!-- Node10 -->
<g id="node10" class="node">
<title>Node10</title>
<g id="a_node10"><a xlink:href="_s_f_m_l_facade_8h.html" target="_top" xlink:title=" ">
<polygon fill="white" stroke="black" points="649.5,-56.5 649.5,-75.5 772.5,-75.5 772.5,-56.5 649.5,-56.5"/>
<text text-anchor="middle" x="711" y="-63.5" font-family="Helvetica,sans-Serif" font-size="10.00">graphics/SFMLFacade.h</text>
</a>
</g>
</g>
<!-- Node9&#45;&gt;Node10 -->
<g id="edge11" class="edge">
<title>Node9&#45;&gt;Node10</title>
<path fill="none" stroke="midnightblue" d="M590.66,-112.44C614.4,-103.48 651.91,-89.31 678.74,-79.18"/>
<polygon fill="midnightblue" stroke="midnightblue" points="680.33,-82.32 688.45,-75.52 677.86,-75.77 680.33,-82.32"/>
</g>
<!-- Node13 -->
<g id="node13" class="node">
<title>Node13</title>
<g id="a_node13"><a xlink:href="_fan_facade_8h.html" target="_top" xlink:title=" ">
<polygon fill="white" stroke="black" points="518.5,-56.5 518.5,-75.5 631.5,-75.5 631.5,-56.5 518.5,-56.5"/>
<text text-anchor="middle" x="575" y="-63.5" font-family="Helvetica,sans-Serif" font-size="10.00">graphics/FanFacade.h</text>
</a>
</g>
</g>
<!-- Node9&#45;&gt;Node13 -->
<g id="edge14" class="edge">
<title>Node9&#45;&gt;Node13</title>
<path fill="none" stroke="midnightblue" d="M569.16,-112.08C570.08,-104.93 571.42,-94.64 572.58,-85.69"/>
<polygon fill="midnightblue" stroke="midnightblue" points="576.05,-86.12 573.87,-75.75 569.11,-85.22 576.05,-86.12"/>
</g>
<!-- Node14 -->
<g id="node14" class="node">
<title>Node14</title>
<g id="a_node14"><a xlink:title=" ">
<polygon fill="white" stroke="#bfbfbf" points="402,-56.5 402,-75.5 500,-75.5 500,-56.5 402,-56.5"/>
<text text-anchor="middle" x="451" y="-63.5" font-family="Helvetica,sans-Serif" font-size="10.00">nlohmann/json.hpp</text>
</a>
</g>
</g>
<!-- Node9&#45;&gt;Node14 -->
<g id="edge17" class="edge">
<title>Node9&#45;&gt;Node14</title>
<path fill="none" stroke="midnightblue" d="M549.46,-112.44C530.38,-103.64 500.43,-89.81 478.56,-79.72"/>
<polygon fill="midnightblue" stroke="midnightblue" points="480,-76.53 469.45,-75.52 477.07,-82.88 480,-76.53"/>
</g>
<!-- Node11 -->
<g id="node11" class="node">
<title>Node11</title>
<g id="a_node11"><a xlink:title=" ">
<polygon fill="white" stroke="#bfbfbf" points="542,-0.5 542,-19.5 646,-19.5 646,-0.5 542,-0.5"/>
<text text-anchor="middle" x="594" y="-7.5" font-family="Helvetica,sans-Serif" font-size="10.00">SFML/Graphics.hpp</text>
</a>
</g>
</g>
<!-- Node10&#45;&gt;Node11 -->
<g id="edge12" class="edge">
<title>Node10&#45;&gt;Node11</title>
<path fill="none" stroke="midnightblue" d="M692.46,-56.44C673.38,-47.64 643.43,-33.81 621.56,-23.72"/>
<polygon fill="midnightblue" stroke="midnightblue" points="623,-20.53 612.45,-19.52 620.07,-26.88 623,-20.53"/>
</g>
<!-- Node12 -->
<g id="node12" class="node">
<title>Node12</title>
<g id="a_node12"><a xlink:href="_facade_8h.html" target="_top" xlink:title=" ">
<polygon fill="white" stroke="black" points="673,-0.5 673,-19.5 729,-19.5 729,-0.5 673,-0.5"/>
<text text-anchor="middle" x="701" y="-7.5" font-family="Helvetica,sans-Serif" font-size="10.00">Facade.h</text>
</a>
</g>
</g>
<!-- Node10&#45;&gt;Node12 -->
<g id="edge13" class="edge">
<title>Node10&#45;&gt;Node12</title>
<path fill="none" stroke="midnightblue" d="M709.35,-56.08C708.02,-48.93 706.12,-38.64 704.46,-29.69"/>
<polygon fill="midnightblue" stroke="midnightblue" points="707.88,-28.95 702.62,-19.75 701,-30.22 707.88,-28.95"/>
</g>
<!-- Node13&#45;&gt;Node11 -->
<g id="edge15" class="edge">
<title>Node13&#45;&gt;Node11</title>
<path fill="none" stroke="midnightblue" d="M578.14,-56.08C580.68,-48.85 584.36,-38.41 587.53,-29.4"/>
<polygon fill="midnightblue" stroke="midnightblue" points="590.9,-30.35 590.92,-19.75 584.3,-28.02 590.9,-30.35"/>
</g>
<!-- Node13&#45;&gt;Node12 -->
<g id="edge16" class="edge">
<title>Node13&#45;&gt;Node12</title>
<path fill="none" stroke="midnightblue" d="M594.97,-56.44C615.61,-47.6 648.06,-33.69 671.63,-23.59"/>
<polygon fill="midnightblue" stroke="midnightblue" points="673.32,-26.67 681.13,-19.52 670.56,-20.24 673.32,-26.67"/>
</g>
<!-- Node15&#45;&gt;Node5 -->
<g id="edge20" class="edge">
<title>Node15&#45;&gt;Node5</title>
<path fill="none" stroke="midnightblue" d="M328.09,-112.44C288.63,-102.49 223.75,-86.12 183.59,-75.98"/>
<polygon fill="midnightblue" stroke="midnightblue" points="184.24,-72.54 173.69,-73.48 182.53,-79.32 184.24,-72.54"/>
</g>
<!-- Node16 -->
<g id="node16" class="node">
<title>Node16</title>
<g id="a_node16"><a xlink:title=" ">
<polygon fill="white" stroke="#bfbfbf" points="330,-56.5 330,-75.5 384,-75.5 384,-56.5 330,-56.5"/>
<text text-anchor="middle" x="357" y="-63.5" font-family="Helvetica,sans-Serif" font-size="10.00">iostream</text>
</a>
</g>
</g>
<!-- Node15&#45;&gt;Node16 -->
<g id="edge19" class="edge">
<title>Node15&#45;&gt;Node16</title>
<path fill="none" stroke="midnightblue" d="M361.17,-112.08C360.52,-105.01 359.58,-94.86 358.76,-85.99"/>
<polygon fill="midnightblue" stroke="midnightblue" points="362.22,-85.39 357.81,-75.75 355.25,-86.03 362.22,-85.39"/>
</g>
<!-- Node17&#45;&gt;Node8 -->
<g id="edge22" class="edge">
<title>Node17&#45;&gt;Node8</title>
<path fill="none" stroke="midnightblue" d="M405.26,-224.44C437.96,-215.2 490.18,-200.44 526.18,-190.26"/>
<polygon fill="midnightblue" stroke="midnightblue" points="527.21,-193.61 535.88,-187.52 525.3,-186.87 527.21,-193.61"/>
</g>
<!-- Node18 -->
<g id="node18" class="node">
<title>Node18</title>
<g id="a_node18"><a xlink:href="_none_8h.html" target="_top" xlink:title=" ">
<polygon fill="white" stroke="black" points="318.5,-168.5 318.5,-187.5 431.5,-187.5 431.5,-168.5 318.5,-168.5"/>
<text text-anchor="middle" x="375" y="-175.5" font-family="Helvetica,sans-Serif" font-size="10.00">engine/actions/None.h</text>
</a>
</g>
</g>
<!-- Node17&#45;&gt;Node18 -->
<g id="edge23" class="edge">
<title>Node17&#45;&gt;Node18</title>
<path fill="none" stroke="midnightblue" d="M375,-224.08C375,-217.01 375,-206.86 375,-197.99"/>
<polygon fill="midnightblue" stroke="midnightblue" points="378.5,-197.75 375,-187.75 371.5,-197.75 378.5,-197.75"/>
</g>
<!-- Node19 -->
<g id="node19" class="node">
<title>Node19</title>
<g id="a_node19"><a xlink:title=" ">
<polygon fill="white" stroke="#bfbfbf" points="450,-168.5 450,-187.5 494,-187.5 494,-168.5 450,-168.5"/>
<text text-anchor="middle" x="472" y="-175.5" font-family="Helvetica,sans-Serif" font-size="10.00">vector</text>
</a>
</g>
</g>
<!-- Node17&#45;&gt;Node19 -->
<g id="edge25" class="edge">
<title>Node17&#45;&gt;Node19</title>
<path fill="none" stroke="midnightblue" d="M390.58,-224.32C406,-215.74 429.81,-202.49 447.71,-192.52"/>
<polygon fill="midnightblue" stroke="midnightblue" points="449.42,-195.58 456.45,-187.65 446.01,-189.46 449.42,-195.58"/>
</g>
<!-- Node20 -->
<g id="node20" class="node">
<title>Node20</title>
<g id="a_node20"><a xlink:title=" ">
<polygon fill="white" stroke="#bfbfbf" points="66.5,-168.5 66.5,-187.5 137.5,-187.5 137.5,-168.5 66.5,-168.5"/>
<text text-anchor="middle" x="102" y="-175.5" font-family="Helvetica,sans-Serif" font-size="10.00">sys/socket.h</text>
</a>
</g>
</g>
<!-- Node17&#45;&gt;Node20 -->
<g id="edge26" class="edge">
<title>Node17&#45;&gt;Node20</title>
<path fill="none" stroke="midnightblue" d="M331.71,-224.49C287.9,-215.87 217.95,-202.08 147.76,-188.15"/>
<polygon fill="midnightblue" stroke="midnightblue" points="148.35,-184.7 137.86,-186.18 146.99,-191.56 148.35,-184.7"/>
</g>
<!-- Node21 -->
<g id="node21" class="node">
<title>Node21</title>
<g id="a_node21"><a xlink:title=" ">
<polygon fill="white" stroke="#bfbfbf" points="156,-168.5 156,-187.5 220,-187.5 220,-168.5 156,-168.5"/>
<text text-anchor="middle" x="188" y="-175.5" font-family="Helvetica,sans-Serif" font-size="10.00">netinet/in.h</text>
</a>
</g>
</g>
<!-- Node17&#45;&gt;Node21 -->
<g id="edge27" class="edge">
<title>Node17&#45;&gt;Node21</title>
<path fill="none" stroke="midnightblue" d="M345.37,-224.44C313.5,-215.24 262.67,-200.56 227.44,-190.39"/>
<polygon fill="midnightblue" stroke="midnightblue" points="228.07,-186.93 217.49,-187.52 226.13,-193.65 228.07,-186.93"/>
</g>
<!-- Node22 -->
<g id="node22" class="node">
<title>Node22</title>
<g id="a_node22"><a xlink:title=" ">
<polygon fill="white" stroke="#bfbfbf" points="238,-168.5 238,-187.5 300,-187.5 300,-168.5 238,-168.5"/>
<text text-anchor="middle" x="269" y="-175.5" font-family="Helvetica,sans-Serif" font-size="10.00">arpa/inet.h</text>
</a>
</g>
</g>
<!-- Node17&#45;&gt;Node22 -->
<g id="edge28" class="edge">
<title>Node17&#45;&gt;Node22</title>
<path fill="none" stroke="midnightblue" d="M357.97,-224.32C340.97,-215.66 314.62,-202.24 295.01,-192.25"/>
<polygon fill="midnightblue" stroke="midnightblue" points="296.49,-189.08 285.99,-187.65 293.31,-195.31 296.49,-189.08"/>
</g>
<!-- Node18&#45;&gt;Node15 -->
<g id="edge24" class="edge">
<title>Node18&#45;&gt;Node15</title>
<path fill="none" stroke="midnightblue" d="M372.85,-168.08C371.13,-160.93 368.65,-150.64 366.5,-141.69"/>
<polygon fill="midnightblue" stroke="midnightblue" points="369.85,-140.65 364.11,-131.75 363.04,-142.29 369.85,-140.65"/>
</g>
</g>
</svg>
