<?xml version="1.0" encoding="UTF-8" standalone="no"?>
<!DOCTYPE svg PUBLIC "-//W3C//DTD SVG 1.1//EN"
 "http://www.w3.org/Graphics/SVG/1.1/DTD/svg11.dtd">
<!-- Generated by graphviz version 2.47.1 (20210421.1823)
 -->
<!-- Title: src/engine/NetworkManager.cpp Pages: 1 -->
<svg width="594pt" height="308pt"
 viewBox="0.00 0.00 594.00 308.00" xmlns="http://www.w3.org/2000/svg" xmlns:xlink="http://www.w3.org/1999/xlink">
<g id="graph0" class="graph" transform="scale(1 1) rotate(0) translate(4 304)">
<title>src/engine/NetworkManager.cpp</title>
<polygon fill="white" stroke="transparent" points="-4,4 -4,-304 590,-304 590,4 -4,4"/>
<!-- Node1 -->
<g id="node1" class="node">
<title>Node1</title>
<g id="a_node1"><a xlink:title=" ">
<polygon fill="#bfbfbf" stroke="black" points="369.5,-280.5 369.5,-299.5 526.5,-299.5 526.5,-280.5 369.5,-280.5"/>
<text text-anchor="middle" x="448" y="-287.5" font-family="Helvetica,sans-Serif" font-size="10.00">src/engine/NetworkManager.cpp</text>
</a>
</g>
</g>
<!-- Node2 -->
<g id="node2" class="node">
<title>Node2</title>
<g id="a_node2"><a xlink:title=" ">
<polygon fill="white" stroke="#bfbfbf" points="260,-224.5 260,-243.5 312,-243.5 312,-224.5 260,-224.5"/>
<text text-anchor="middle" x="286" y="-231.5" font-family="Helvetica,sans-Serif" font-size="10.00">sstream</text>
</a>
</g>
</g>
<!-- Node1&#45;&gt;Node2 -->
<g id="edge1" class="edge">
<title>Node1&#45;&gt;Node2</title>
<path fill="none" stroke="midnightblue" d="M422.33,-280.44C395.08,-271.36 351.82,-256.94 321.35,-246.78"/>
<polygon fill="midnightblue" stroke="midnightblue" points="322.14,-243.36 311.55,-243.52 319.93,-250 322.14,-243.36"/>
</g>
<!-- Node3 -->
<g id="node3" class="node">
<title>Node3</title>
<g id="a_node3"><a xlink:href="_network_manager_8h.html" target="_top" xlink:title=" ">
<polygon fill="white" stroke="black" points="330,-224.5 330,-243.5 460,-243.5 460,-224.5 330,-224.5"/>
<text text-anchor="middle" x="395" y="-231.5" font-family="Helvetica,sans-Serif" font-size="10.00">engine/NetworkManager.h</text>
</a>
</g>
</g>
<!-- Node1&#45;&gt;Node3 -->
<g id="edge2" class="edge">
<title>Node1&#45;&gt;Node3</title>
<path fill="none" stroke="midnightblue" d="M439.25,-280.08C431.53,-272.22 420.1,-260.57 410.78,-251.08"/>
<polygon fill="midnightblue" stroke="midnightblue" points="413.09,-248.44 403.59,-243.75 408.1,-253.34 413.09,-248.44"/>
</g>
<!-- Node17 -->
<g id="node17" class="node">
<title>Node17</title>
<g id="a_node17"><a xlink:title=" ">
<polygon fill="white" stroke="#bfbfbf" points="478,-224.5 478,-243.5 524,-243.5 524,-224.5 478,-224.5"/>
<text text-anchor="middle" x="501" y="-231.5" font-family="Helvetica,sans-Serif" font-size="10.00">chrono</text>
</a>
</g>
</g>
<!-- Node1&#45;&gt;Node17 -->
<g id="edge17" class="edge">
<title>Node1&#45;&gt;Node17</title>
<path fill="none" stroke="midnightblue" d="M456.75,-280.08C464.47,-272.22 475.9,-260.57 485.22,-251.08"/>
<polygon fill="midnightblue" stroke="midnightblue" points="487.9,-253.34 492.41,-243.75 482.91,-248.44 487.9,-253.34"/>
</g>
<!-- Node18 -->
<g id="node18" class="node">
<title>Node18</title>
<g id="a_node18"><a xlink:title=" ">
<polygon fill="white" stroke="#bfbfbf" points="542,-224.5 542,-243.5 586,-243.5 586,-224.5 542,-224.5"/>
<text text-anchor="middle" x="564" y="-231.5" font-family="Helvetica,sans-Serif" font-size="10.00">thread</text>
</a>
</g>
</g>
<!-- Node1&#45;&gt;Node18 -->
<g id="edge18" class="edge">
<title>Node1&#45;&gt;Node18</title>
<path fill="none" stroke="midnightblue" d="M466.38,-280.44C485.22,-271.68 514.73,-257.94 536.38,-247.86"/>
<polygon fill="midnightblue" stroke="midnightblue" points="538.12,-250.91 545.71,-243.52 535.16,-244.56 538.12,-250.91"/>
</g>
<!-- Node4 -->
<g id="node4" class="node">
<title>Node4</title>
<g id="a_node4"><a xlink:href="game_object_8h.html" target="_top" xlink:title=" ">
<polygon fill="white" stroke="black" points="164,-168.5 164,-187.5 272,-187.5 272,-168.5 164,-168.5"/>
<text text-anchor="middle" x="218" y="-175.5" font-family="Helvetica,sans-Serif" font-size="10.00">engine/gameObject.h</text>
</a>
</g>
</g>
<!-- Node3&#45;&gt;Node4 -->
<g id="edge3" class="edge">
<title>Node3&#45;&gt;Node4</title>
<path fill="none" stroke="midnightblue" d="M366.95,-224.44C336.92,-215.28 289.09,-200.69 255.76,-190.52"/>
<polygon fill="midnightblue" stroke="midnightblue" points="256.5,-187.09 245.91,-187.52 254.46,-193.78 256.5,-187.09"/>
</g>
<!-- Node14 -->
<g id="node14" class="node">
<title>Node14</title>
<g id="a_node14"><a xlink:href="_none_8h.html" target="_top" xlink:title=" ">
<polygon fill="white" stroke="black" points="290.5,-168.5 290.5,-187.5 403.5,-187.5 403.5,-168.5 290.5,-168.5"/>
<text text-anchor="middle" x="347" y="-175.5" font-family="Helvetica,sans-Serif" font-size="10.00">engine/actions/None.h</text>
</a>
</g>
</g>
<!-- Node3&#45;&gt;Node14 -->
<g id="edge13" class="edge">
<title>Node3&#45;&gt;Node14</title>
<path fill="none" stroke="midnightblue" d="M387.07,-224.08C380.15,-216.3 369.93,-204.8 361.55,-195.37"/>
<polygon fill="midnightblue" stroke="midnightblue" points="364.04,-192.9 354.78,-187.75 358.81,-197.55 364.04,-192.9"/>
</g>
<!-- Node15 -->
<g id="node15" class="node">
<title>Node15</title>
<g id="a_node15"><a xlink:title=" ">
<polygon fill="white" stroke="#bfbfbf" points="422,-168.5 422,-187.5 466,-187.5 466,-168.5 422,-168.5"/>
<text text-anchor="middle" x="444" y="-175.5" font-family="Helvetica,sans-Serif" font-size="10.00">vector</text>
</a>
</g>
</g>
<!-- Node3&#45;&gt;Node15 -->
<g id="edge15" class="edge">
<title>Node3&#45;&gt;Node15</title>
<path fill="none" stroke="midnightblue" d="M403.09,-224.08C410.16,-216.3 420.59,-204.8 429.15,-195.37"/>
<polygon fill="midnightblue" stroke="midnightblue" points="431.93,-197.51 436.06,-187.75 426.75,-192.8 431.93,-197.51"/>
</g>
<!-- Node16 -->
<g id="node16" class="node">
<title>Node16</title>
<g id="a_node16"><a xlink:title=" ">
<polygon fill="white" stroke="#bfbfbf" points="484.5,-168.5 484.5,-187.5 555.5,-187.5 555.5,-168.5 484.5,-168.5"/>
<text text-anchor="middle" x="520" y="-175.5" font-family="Helvetica,sans-Serif" font-size="10.00">sys/socket.h</text>
</a>
</g>
</g>
<!-- Node3&#45;&gt;Node16 -->
<g id="edge16" class="edge">
<title>Node3&#45;&gt;Node16</title>
<path fill="none" stroke="midnightblue" d="M414.81,-224.44C435.29,-215.6 467.48,-201.69 490.86,-191.59"/>
<polygon fill="midnightblue" stroke="midnightblue" points="492.49,-194.7 500.29,-187.52 489.72,-188.27 492.49,-194.7"/>
</g>
<!-- Node5 -->
<g id="node5" class="node">
<title>Node5</title>
<g id="a_node5"><a xlink:title=" ">
<polygon fill="white" stroke="#bfbfbf" points="139.5,-112.5 139.5,-131.5 168.5,-131.5 168.5,-112.5 139.5,-112.5"/>
<text text-anchor="middle" x="154" y="-119.5" font-family="Helvetica,sans-Serif" font-size="10.00">list</text>
</a>
</g>
</g>
<!-- Node4&#45;&gt;Node5 -->
<g id="edge4" class="edge">
<title>Node4&#45;&gt;Node5</title>
<path fill="none" stroke="midnightblue" d="M207.72,-168.32C198.16,-160.26 183.72,-148.08 172.22,-138.37"/>
<polygon fill="midnightblue" stroke="midnightblue" points="174.37,-135.61 164.47,-131.83 169.86,-140.96 174.37,-135.61"/>
</g>
<!-- Node6 -->
<g id="node6" class="node">
<title>Node6</title>
<g id="a_node6"><a xlink:href="config_8h.html" target="_top" xlink:title=" ">
<polygon fill="white" stroke="black" points="186.5,-112.5 186.5,-131.5 267.5,-131.5 267.5,-112.5 186.5,-112.5"/>
<text text-anchor="middle" x="227" y="-119.5" font-family="Helvetica,sans-Serif" font-size="10.00">engine/config.h</text>
</a>
</g>
</g>
<!-- Node4&#45;&gt;Node6 -->
<g id="edge5" class="edge">
<title>Node4&#45;&gt;Node6</title>
<path fill="none" stroke="midnightblue" d="M219.49,-168.08C220.68,-160.93 222.39,-150.64 223.88,-141.69"/>
<polygon fill="midnightblue" stroke="midnightblue" points="227.35,-142.19 225.54,-131.75 220.45,-141.04 227.35,-142.19"/>
</g>
<!-- Node11 -->
<g id="node11" class="node">
<title>Node11</title>
<g id="a_node11"><a xlink:href="engine_2_action_8h.html" target="_top" xlink:title=" ">
<polygon fill="white" stroke="black" points="301.5,-112.5 301.5,-131.5 384.5,-131.5 384.5,-112.5 301.5,-112.5"/>
<text text-anchor="middle" x="343" y="-119.5" font-family="Helvetica,sans-Serif" font-size="10.00">engine/Action.h</text>
</a>
</g>
</g>
<!-- Node4&#45;&gt;Node11 -->
<g id="edge10" class="edge">
<title>Node4&#45;&gt;Node11</title>
<path fill="none" stroke="midnightblue" d="M237.81,-168.44C258.29,-159.6 290.48,-145.69 313.86,-135.59"/>
<polygon fill="midnightblue" stroke="midnightblue" points="315.49,-138.7 323.29,-131.52 312.72,-132.27 315.49,-138.7"/>
</g>
<!-- Node7 -->
<g id="node7" class="node">
<title>Node7</title>
<g id="a_node7"><a xlink:href="_s_f_m_l_facade_8h.html" target="_top" xlink:title=" ">
<polygon fill="white" stroke="black" points="39.5,-56.5 39.5,-75.5 162.5,-75.5 162.5,-56.5 39.5,-56.5"/>
<text text-anchor="middle" x="101" y="-63.5" font-family="Helvetica,sans-Serif" font-size="10.00">graphics/SFMLFacade.h</text>
</a>
</g>
</g>
<!-- Node6&#45;&gt;Node7 -->
<g id="edge6" class="edge">
<title>Node6&#45;&gt;Node7</title>
<path fill="none" stroke="midnightblue" d="M207.03,-112.44C186.39,-103.6 153.94,-89.69 130.37,-79.59"/>
<polygon fill="midnightblue" stroke="midnightblue" points="131.44,-76.24 120.87,-75.52 128.68,-82.67 131.44,-76.24"/>
</g>
<!-- Node10 -->
<g id="node10" class="node">
<title>Node10</title>
<g id="a_node10"><a xlink:title=" ">
<polygon fill="white" stroke="#bfbfbf" points="181,-56.5 181,-75.5 279,-75.5 279,-56.5 181,-56.5"/>
<text text-anchor="middle" x="230" y="-63.5" font-family="Helvetica,sans-Serif" font-size="10.00">nlohmann/json.hpp</text>
</a>
</g>
</g>
<!-- Node6&#45;&gt;Node10 -->
<g id="edge9" class="edge">
<title>Node6&#45;&gt;Node10</title>
<path fill="none" stroke="midnightblue" d="M227.5,-112.08C227.89,-105.01 228.45,-94.86 228.95,-85.99"/>
<polygon fill="midnightblue" stroke="midnightblue" points="232.45,-85.93 229.51,-75.75 225.46,-85.54 232.45,-85.93"/>
</g>
<!-- Node8 -->
<g id="node8" class="node">
<title>Node8</title>
<g id="a_node8"><a xlink:title=" ">
<polygon fill="white" stroke="#bfbfbf" points="0,-0.5 0,-19.5 104,-19.5 104,-0.5 0,-0.5"/>
<text text-anchor="middle" x="52" y="-7.5" font-family="Helvetica,sans-Serif" font-size="10.00">SFML/Graphics.hpp</text>
</a>
</g>
</g>
<!-- Node7&#45;&gt;Node8 -->
<g id="edge7" class="edge">
<title>Node7&#45;&gt;Node8</title>
<path fill="none" stroke="midnightblue" d="M92.91,-56.08C85.84,-48.3 75.41,-36.8 66.85,-27.37"/>
<polygon fill="midnightblue" stroke="midnightblue" points="69.25,-24.8 59.94,-19.75 64.07,-29.51 69.25,-24.8"/>
</g>
<!-- Node9 -->
<g id="node9" class="node">
<title>Node9</title>
<g id="a_node9"><a xlink:href="_facade_8h.html" target="_top" xlink:title=" ">
<polygon fill="white" stroke="black" points="122,-0.5 122,-19.5 178,-19.5 178,-0.5 122,-0.5"/>
<text text-anchor="middle" x="150" y="-7.5" font-family="Helvetica,sans-Serif" font-size="10.00">Facade.h</text>
</a>
</g>
</g>
<!-- Node7&#45;&gt;Node9 -->
<g id="edge8" class="edge">
<title>Node7&#45;&gt;Node9</title>
<path fill="none" stroke="midnightblue" d="M109.09,-56.08C116.16,-48.3 126.59,-36.8 135.15,-27.37"/>
<polygon fill="midnightblue" stroke="midnightblue" points="137.93,-29.51 142.06,-19.75 132.75,-24.8 137.93,-29.51"/>
</g>
<!-- Node12 -->
<g id="node12" class="node">
<title>Node12</title>
<g id="a_node12"><a xlink:title=" ">
<polygon fill="white" stroke="#bfbfbf" points="314,-56.5 314,-75.5 368,-75.5 368,-56.5 314,-56.5"/>
<text text-anchor="middle" x="341" y="-63.5" font-family="Helvetica,sans-Serif" font-size="10.00">iostream</text>
</a>
</g>
</g>
<!-- Node11&#45;&gt;Node12 -->
<g id="edge11" class="edge">
<title>Node11&#45;&gt;Node12</title>
<path fill="none" stroke="midnightblue" d="M342.67,-112.08C342.41,-105.01 342.03,-94.86 341.7,-85.99"/>
<polygon fill="midnightblue" stroke="midnightblue" points="345.19,-85.61 341.32,-75.75 338.2,-85.87 345.19,-85.61"/>
</g>
<!-- Node13 -->
<g id="node13" class="node">
<title>Node13</title>
<g id="a_node13"><a xlink:title=" ">
<polygon fill="white" stroke="#bfbfbf" points="386.5,-56.5 386.5,-75.5 437.5,-75.5 437.5,-56.5 386.5,-56.5"/>
<text text-anchor="middle" x="412" y="-63.5" font-family="Helvetica,sans-Serif" font-size="10.00">memory</text>
</a>
</g>
</g>
<!-- Node11&#45;&gt;Node13 -->
<g id="edge12" class="edge">
<title>Node11&#45;&gt;Node13</title>
<path fill="none" stroke="midnightblue" d="M354.09,-112.32C364.49,-104.18 380.26,-91.84 392.72,-82.09"/>
<polygon fill="midnightblue" stroke="midnightblue" points="394.99,-84.75 400.71,-75.83 390.68,-79.24 394.99,-84.75"/>
</g>
<!-- Node14&#45;&gt;Node11 -->
<g id="edge14" class="edge">
<title>Node14&#45;&gt;Node11</title>
<path fill="none" stroke="midnightblue" d="M346.34,-168.08C345.82,-161.01 345.06,-150.86 344.41,-141.99"/>
<polygon fill="midnightblue" stroke="midnightblue" points="347.88,-141.47 343.65,-131.75 340.9,-141.98 347.88,-141.47"/>
</g>
</g>
</svg>
