<?xml version="1.0" encoding="UTF-8" standalone="no"?>
<!DOCTYPE svg PUBLIC "-//W3C//DTD SVG 1.1//EN"
 "http://www.w3.org/Graphics/SVG/1.1/DTD/svg11.dtd">
<!-- Generated by graphviz version 2.47.1 (20210421.1823)
 -->
<!-- Title: src/engine/NetworkManager.cpp Pages: 1 -->
<svg width="760pt" height="308pt"
 viewBox="0.00 0.00 760.21 308.00" xmlns="http://www.w3.org/2000/svg" xmlns:xlink="http://www.w3.org/1999/xlink">
<g id="graph0" class="graph" transform="scale(1 1) rotate(0) translate(4 304)">
<title>src/engine/NetworkManager.cpp</title>
<polygon fill="white" stroke="transparent" points="-4,4 -4,-304 756.21,-304 756.21,4 -4,4"/>
<!-- Node1 -->
<g id="node1" class="node">
<title>Node1</title>
<g id="a_node1"><a xlink:title=" ">
<polygon fill="#bfbfbf" stroke="black" points="213.71,-280.5 213.71,-299.5 370.71,-299.5 370.71,-280.5 213.71,-280.5"/>
<text text-anchor="middle" x="292.21" y="-287.5" font-family="Helvetica,sans-Serif" font-size="10.00">src/engine/NetworkManager.cpp</text>
</a>
</g>
</g>
<!-- Node2 -->
<g id="node2" class="node">
<title>Node2</title>
<g id="a_node2"><a xlink:title=" ">
<polygon fill="white" stroke="#bfbfbf" points="52.21,-224.5 52.21,-243.5 104.21,-243.5 104.21,-224.5 52.21,-224.5"/>
<text text-anchor="middle" x="78.21" y="-231.5" font-family="Helvetica,sans-Serif" font-size="10.00">sstream</text>
</a>
</g>
</g>
<!-- Node1&#45;&gt;Node2 -->
<g id="edge1" class="edge">
<title>Node1&#45;&gt;Node2</title>
<path fill="none" stroke="midnightblue" d="M258.3,-280.44C218.95,-270.51 154.32,-254.21 114.13,-244.06"/>
<polygon fill="midnightblue" stroke="midnightblue" points="114.77,-240.62 104.22,-241.56 113.06,-247.4 114.77,-240.62"/>
</g>
<!-- Node3 -->
<g id="node3" class="node">
<title>Node3</title>
<g id="a_node3"><a xlink:href="_network_manager_8h.html" target="_top" xlink:title=" ">
<polygon fill="white" stroke="black" points="316.21,-224.5 316.21,-243.5 446.21,-243.5 446.21,-224.5 316.21,-224.5"/>
<text text-anchor="middle" x="381.21" y="-231.5" font-family="Helvetica,sans-Serif" font-size="10.00">engine/NetworkManager.h</text>
</a>
</g>
</g>
<!-- Node1&#45;&gt;Node3 -->
<g id="edge2" class="edge">
<title>Node1&#45;&gt;Node3</title>
<path fill="none" stroke="midnightblue" d="M306.51,-280.32C320.4,-271.9 341.71,-258.97 358.02,-249.07"/>
<polygon fill="midnightblue" stroke="midnightblue" points="360.22,-251.83 366.95,-243.65 356.58,-245.85 360.22,-251.83"/>
</g>
<!-- Node21 -->
<g id="node21" class="node">
<title>Node21</title>
<g id="a_node21"><a xlink:title=" ">
<polygon fill="white" stroke="#bfbfbf" points="464.21,-224.5 464.21,-243.5 510.21,-243.5 510.21,-224.5 464.21,-224.5"/>
<text text-anchor="middle" x="487.21" y="-231.5" font-family="Helvetica,sans-Serif" font-size="10.00">chrono</text>
</a>
</g>
</g>
<!-- Node1&#45;&gt;Node21 -->
<g id="edge23" class="edge">
<title>Node1&#45;&gt;Node21</title>
<path fill="none" stroke="midnightblue" d="M323.47,-280.42C354.31,-271.94 403.04,-258.52 454.22,-244.27"/>
<polygon fill="midnightblue" stroke="midnightblue" points="455.45,-247.56 464.14,-241.5 453.57,-240.81 455.45,-247.56"/>
</g>
<!-- Node22 -->
<g id="node22" class="node">
<title>Node22</title>
<g id="a_node22"><a xlink:title=" ">
<polygon fill="white" stroke="#bfbfbf" points="528.21,-224.5 528.21,-243.5 572.21,-243.5 572.21,-224.5 528.21,-224.5"/>
<text text-anchor="middle" x="550.21" y="-231.5" font-family="Helvetica,sans-Serif" font-size="10.00">thread</text>
</a>
</g>
</g>
<!-- Node1&#45;&gt;Node22 -->
<g id="edge24" class="edge">
<title>Node1&#45;&gt;Node22</title>
<path fill="none" stroke="midnightblue" d="M341.64,-280.48C385.64,-272.61 451.94,-260.04 518.16,-244.1"/>
<polygon fill="midnightblue" stroke="midnightblue" points="519.04,-247.49 527.92,-241.72 517.38,-240.69 519.04,-247.49"/>
</g>
<!-- Node23 -->
<g id="node23" class="node">
<title>Node23</title>
<g id="a_node23"><a xlink:href="_player_8h.html" target="_top" xlink:title=" ">
<polygon fill="white" stroke="black" points="48.71,-112.5 48.71,-131.5 99.71,-131.5 99.71,-112.5 48.71,-112.5"/>
<text text-anchor="middle" x="74.21" y="-119.5" font-family="Helvetica,sans-Serif" font-size="10.00">Player.h</text>
</a>
</g>
</g>
<!-- Node1&#45;&gt;Node23 -->
<g id="edge25" class="edge">
<title>Node1&#45;&gt;Node23</title>
<path fill="none" stroke="midnightblue" d="M258.09,-280.46C233.99,-273.33 201.74,-261.48 177.21,-244 136.38,-214.89 101.6,-166.11 84.87,-140.28"/>
<polygon fill="midnightblue" stroke="midnightblue" points="87.67,-138.16 79.37,-131.58 81.76,-141.91 87.67,-138.16"/>
</g>
<!-- Node24 -->
<g id="node24" class="node">
<title>Node24</title>
<g id="a_node24"><a xlink:href="_logger_8h.html" target="_top" xlink:title=" ">
<polygon fill="white" stroke="black" points="186.21,-224.5 186.21,-243.5 272.21,-243.5 272.21,-224.5 186.21,-224.5"/>
<text text-anchor="middle" x="229.21" y="-231.5" font-family="Helvetica,sans-Serif" font-size="10.00">engine/Logger.h</text>
</a>
</g>
</g>
<!-- Node1&#45;&gt;Node24 -->
<g id="edge28" class="edge">
<title>Node1&#45;&gt;Node24</title>
<path fill="none" stroke="midnightblue" d="M282.09,-280.32C272.69,-272.26 258.47,-260.08 247.14,-250.37"/>
<polygon fill="midnightblue" stroke="midnightblue" points="249.39,-247.68 239.52,-243.83 244.83,-253 249.39,-247.68"/>
</g>
<!-- Node4 -->
<g id="node4" class="node">
<title>Node4</title>
<g id="a_node4"><a xlink:href="game_object_8h.html" target="_top" xlink:title=" ">
<polygon fill="white" stroke="black" points="198.21,-168.5 198.21,-187.5 306.21,-187.5 306.21,-168.5 198.21,-168.5"/>
<text text-anchor="middle" x="252.21" y="-175.5" font-family="Helvetica,sans-Serif" font-size="10.00">engine/gameObject.h</text>
</a>
</g>
</g>
<!-- Node3&#45;&gt;Node4 -->
<g id="edge3" class="edge">
<title>Node3&#45;&gt;Node4</title>
<path fill="none" stroke="midnightblue" d="M360.77,-224.44C339.54,-215.56 306.11,-201.56 281.96,-191.45"/>
<polygon fill="midnightblue" stroke="midnightblue" points="283.13,-188.15 272.56,-187.52 280.43,-194.61 283.13,-188.15"/>
</g>
<!-- Node16 -->
<g id="node16" class="node">
<title>Node16</title>
<g id="a_node16"><a xlink:href="_none_8h.html" target="_top" xlink:title=" ">
<polygon fill="white" stroke="black" points="324.71,-168.5 324.71,-187.5 437.71,-187.5 437.71,-168.5 324.71,-168.5"/>
<text text-anchor="middle" x="381.21" y="-175.5" font-family="Helvetica,sans-Serif" font-size="10.00">engine/actions/None.h</text>
</a>
</g>
</g>
<!-- Node3&#45;&gt;Node16 -->
<g id="edge17" class="edge">
<title>Node3&#45;&gt;Node16</title>
<path fill="none" stroke="midnightblue" d="M381.21,-224.08C381.21,-217.01 381.21,-206.86 381.21,-197.99"/>
<polygon fill="midnightblue" stroke="midnightblue" points="384.71,-197.75 381.21,-187.75 377.71,-197.75 384.71,-197.75"/>
</g>
<!-- Node17 -->
<g id="node17" class="node">
<title>Node17</title>
<g id="a_node17"><a xlink:title=" ">
<polygon fill="white" stroke="#bfbfbf" points="456.21,-168.5 456.21,-187.5 500.21,-187.5 500.21,-168.5 456.21,-168.5"/>
<text text-anchor="middle" x="478.21" y="-175.5" font-family="Helvetica,sans-Serif" font-size="10.00">vector</text>
</a>
</g>
</g>
<!-- Node3&#45;&gt;Node17 -->
<g id="edge19" class="edge">
<title>Node3&#45;&gt;Node17</title>
<path fill="none" stroke="midnightblue" d="M396.8,-224.32C412.21,-215.74 436.03,-202.49 453.92,-192.52"/>
<polygon fill="midnightblue" stroke="midnightblue" points="455.63,-195.58 462.67,-187.65 452.23,-189.46 455.63,-195.58"/>
</g>
<!-- Node18 -->
<g id="node18" class="node">
<title>Node18</title>
<g id="a_node18"><a xlink:title=" ">
<polygon fill="white" stroke="#bfbfbf" points="518.71,-168.5 518.71,-187.5 589.71,-187.5 589.71,-168.5 518.71,-168.5"/>
<text text-anchor="middle" x="554.21" y="-175.5" font-family="Helvetica,sans-Serif" font-size="10.00">sys/socket.h</text>
</a>
</g>
</g>
<!-- Node3&#45;&gt;Node18 -->
<g id="edge20" class="edge">
<title>Node3&#45;&gt;Node18</title>
<path fill="none" stroke="midnightblue" d="M408.63,-224.44C437.98,-215.28 484.73,-200.69 517.31,-190.52"/>
<polygon fill="midnightblue" stroke="midnightblue" points="518.43,-193.84 526.93,-187.52 516.34,-187.16 518.43,-193.84"/>
</g>
<!-- Node19 -->
<g id="node19" class="node">
<title>Node19</title>
<g id="a_node19"><a xlink:title=" ">
<polygon fill="white" stroke="#bfbfbf" points="608.21,-168.5 608.21,-187.5 672.21,-187.5 672.21,-168.5 608.21,-168.5"/>
<text text-anchor="middle" x="640.21" y="-175.5" font-family="Helvetica,sans-Serif" font-size="10.00">netinet/in.h</text>
</a>
</g>
</g>
<!-- Node3&#45;&gt;Node19 -->
<g id="edge21" class="edge">
<title>Node3&#45;&gt;Node19</title>
<path fill="none" stroke="midnightblue" d="M423.45,-224.45C465.33,-215.93 531.59,-202.35 598.17,-188.2"/>
<polygon fill="midnightblue" stroke="midnightblue" points="598.94,-191.62 607.99,-186.11 597.48,-184.77 598.94,-191.62"/>
</g>
<!-- Node20 -->
<g id="node20" class="node">
<title>Node20</title>
<g id="a_node20"><a xlink:title=" ">
<polygon fill="white" stroke="#bfbfbf" points="690.21,-168.5 690.21,-187.5 752.21,-187.5 752.21,-168.5 690.21,-168.5"/>
<text text-anchor="middle" x="721.21" y="-175.5" font-family="Helvetica,sans-Serif" font-size="10.00">arpa/inet.h</text>
</a>
</g>
</g>
<!-- Node3&#45;&gt;Node20 -->
<g id="edge22" class="edge">
<title>Node3&#45;&gt;Node20</title>
<path fill="none" stroke="midnightblue" d="M446.4,-224.61C505.06,-216.74 593.83,-204.06 679.88,-188.14"/>
<polygon fill="midnightblue" stroke="midnightblue" points="680.63,-191.57 689.81,-186.29 679.34,-184.68 680.63,-191.57"/>
</g>
<!-- Node5 -->
<g id="node5" class="node">
<title>Node5</title>
<g id="a_node5"><a xlink:title=" ">
<polygon fill="white" stroke="#bfbfbf" points="149.71,-112.5 149.71,-131.5 190.71,-131.5 190.71,-112.5 149.71,-112.5"/>
<text text-anchor="middle" x="170.21" y="-119.5" font-family="Helvetica,sans-Serif" font-size="10.00">string</text>
</a>
</g>
</g>
<!-- Node4&#45;&gt;Node5 -->
<g id="edge4" class="edge">
<title>Node4&#45;&gt;Node5</title>
<path fill="none" stroke="midnightblue" d="M239.04,-168.32C226.37,-159.98 206.98,-147.21 192.01,-137.35"/>
<polygon fill="midnightblue" stroke="midnightblue" points="193.63,-134.23 183.36,-131.65 189.78,-140.08 193.63,-134.23"/>
</g>
<!-- Node6 -->
<g id="node6" class="node">
<title>Node6</title>
<g id="a_node6"><a xlink:title=" ">
<polygon fill="white" stroke="#bfbfbf" points="307.71,-112.5 307.71,-131.5 336.71,-131.5 336.71,-112.5 307.71,-112.5"/>
<text text-anchor="middle" x="322.21" y="-119.5" font-family="Helvetica,sans-Serif" font-size="10.00">list</text>
</a>
</g>
</g>
<!-- Node4&#45;&gt;Node6 -->
<g id="edge5" class="edge">
<title>Node4&#45;&gt;Node6</title>
<path fill="none" stroke="midnightblue" d="M263.46,-168.32C274.01,-160.18 290.01,-147.84 302.66,-138.09"/>
<polygon fill="midnightblue" stroke="midnightblue" points="304.98,-140.71 310.76,-131.83 300.71,-135.17 304.98,-140.71"/>
</g>
<!-- Node7 -->
<g id="node7" class="node">
<title>Node7</title>
<g id="a_node7"><a xlink:href="config_8h.html" target="_top" xlink:title=" ">
<polygon fill="white" stroke="black" points="208.71,-112.5 208.71,-131.5 289.71,-131.5 289.71,-112.5 208.71,-112.5"/>
<text text-anchor="middle" x="249.21" y="-119.5" font-family="Helvetica,sans-Serif" font-size="10.00">engine/config.h</text>
</a>
</g>
</g>
<!-- Node4&#45;&gt;Node7 -->
<g id="edge6" class="edge">
<title>Node4&#45;&gt;Node7</title>
<path fill="none" stroke="midnightblue" d="M251.72,-168.08C251.32,-161.01 250.76,-150.86 250.27,-141.99"/>
<polygon fill="midnightblue" stroke="midnightblue" points="253.75,-141.54 249.7,-131.75 246.76,-141.93 253.75,-141.54"/>
</g>
<!-- Node13 -->
<g id="node13" class="node">
<title>Node13</title>
<g id="a_node13"><a xlink:href="engine_2_action_8h.html" target="_top" xlink:title=" ">
<polygon fill="white" stroke="black" points="370.71,-112.5 370.71,-131.5 453.71,-131.5 453.71,-112.5 370.71,-112.5"/>
<text text-anchor="middle" x="412.21" y="-119.5" font-family="Helvetica,sans-Serif" font-size="10.00">engine/Action.h</text>
</a>
</g>
</g>
<!-- Node4&#45;&gt;Node13 -->
<g id="edge14" class="edge">
<title>Node4&#45;&gt;Node13</title>
<path fill="none" stroke="midnightblue" d="M277.57,-168.44C304.48,-159.36 347.21,-144.94 377.3,-134.78"/>
<polygon fill="midnightblue" stroke="midnightblue" points="378.62,-138.03 386.98,-131.52 376.39,-131.4 378.62,-138.03"/>
</g>
<!-- Node8 -->
<g id="node8" class="node">
<title>Node8</title>
<g id="a_node8"><a xlink:href="_s_f_m_l_facade_8h.html" target="_top" xlink:title=" ">
<polygon fill="white" stroke="black" points="12.71,-56.5 12.71,-75.5 135.71,-75.5 135.71,-56.5 12.71,-56.5"/>
<text text-anchor="middle" x="74.21" y="-63.5" font-family="Helvetica,sans-Serif" font-size="10.00">graphics/SFMLFacade.h</text>
</a>
</g>
</g>
<!-- Node7&#45;&gt;Node8 -->
<g id="edge7" class="edge">
<title>Node7&#45;&gt;Node8</title>
<path fill="none" stroke="midnightblue" d="M221.48,-112.44C191.79,-103.28 144.5,-88.69 111.54,-78.52"/>
<polygon fill="midnightblue" stroke="midnightblue" points="112.4,-75.12 101.81,-75.52 110.34,-81.81 112.4,-75.12"/>
</g>
<!-- Node11 -->
<g id="node11" class="node">
<title>Node11</title>
<g id="a_node11"><a xlink:href="_fan_facade_8h.html" target="_top" xlink:title=" ">
<polygon fill="white" stroke="black" points="153.71,-56.5 153.71,-75.5 266.71,-75.5 266.71,-56.5 153.71,-56.5"/>
<text text-anchor="middle" x="210.21" y="-63.5" font-family="Helvetica,sans-Serif" font-size="10.00">graphics/FanFacade.h</text>
</a>
</g>
</g>
<!-- Node7&#45;&gt;Node11 -->
<g id="edge10" class="edge">
<title>Node7&#45;&gt;Node11</title>
<path fill="none" stroke="midnightblue" d="M242.77,-112.08C237.26,-104.46 229.18,-93.26 222.45,-83.94"/>
<polygon fill="midnightblue" stroke="midnightblue" points="225.23,-81.81 216.53,-75.75 219.55,-85.91 225.23,-81.81"/>
</g>
<!-- Node12 -->
<g id="node12" class="node">
<title>Node12</title>
<g id="a_node12"><a xlink:title=" ">
<polygon fill="white" stroke="#bfbfbf" points="285.21,-56.5 285.21,-75.5 383.21,-75.5 383.21,-56.5 285.21,-56.5"/>
<text text-anchor="middle" x="334.21" y="-63.5" font-family="Helvetica,sans-Serif" font-size="10.00">nlohmann/json.hpp</text>
</a>
</g>
</g>
<!-- Node7&#45;&gt;Node12 -->
<g id="edge13" class="edge">
<title>Node7&#45;&gt;Node12</title>
<path fill="none" stroke="midnightblue" d="M262.87,-112.32C276.13,-103.9 296.48,-90.97 312.06,-81.07"/>
<polygon fill="midnightblue" stroke="midnightblue" points="314.03,-83.97 320.59,-75.65 310.27,-78.06 314.03,-83.97"/>
</g>
<!-- Node9 -->
<g id="node9" class="node">
<title>Node9</title>
<g id="a_node9"><a xlink:title=" ">
<polygon fill="white" stroke="#bfbfbf" points="139.21,-0.5 139.21,-19.5 243.21,-19.5 243.21,-0.5 139.21,-0.5"/>
<text text-anchor="middle" x="191.21" y="-7.5" font-family="Helvetica,sans-Serif" font-size="10.00">SFML/Graphics.hpp</text>
</a>
</g>
</g>
<!-- Node8&#45;&gt;Node9 -->
<g id="edge8" class="edge">
<title>Node8&#45;&gt;Node9</title>
<path fill="none" stroke="midnightblue" d="M92.75,-56.44C111.84,-47.64 141.79,-33.81 163.65,-23.72"/>
<polygon fill="midnightblue" stroke="midnightblue" points="165.15,-26.88 172.76,-19.52 162.21,-20.53 165.15,-26.88"/>
</g>
<!-- Node10 -->
<g id="node10" class="node">
<title>Node10</title>
<g id="a_node10"><a xlink:href="_facade_8h.html" target="_top" xlink:title=" ">
<polygon fill="white" stroke="black" points="46.21,-0.5 46.21,-19.5 102.21,-19.5 102.21,-0.5 46.21,-0.5"/>
<text text-anchor="middle" x="74.21" y="-7.5" font-family="Helvetica,sans-Serif" font-size="10.00">Facade.h</text>
</a>
</g>
</g>
<!-- Node8&#45;&gt;Node10 -->
<g id="edge9" class="edge">
<title>Node8&#45;&gt;Node10</title>
<path fill="none" stroke="midnightblue" d="M74.21,-56.08C74.21,-49.01 74.21,-38.86 74.21,-29.99"/>
<polygon fill="midnightblue" stroke="midnightblue" points="77.71,-29.75 74.21,-19.75 70.71,-29.75 77.71,-29.75"/>
</g>
<!-- Node11&#45;&gt;Node9 -->
<g id="edge11" class="edge">
<title>Node11&#45;&gt;Node9</title>
<path fill="none" stroke="midnightblue" d="M207.08,-56.08C204.53,-48.85 200.86,-38.41 197.69,-29.4"/>
<polygon fill="midnightblue" stroke="midnightblue" points="200.91,-28.02 194.29,-19.75 194.31,-30.35 200.91,-28.02"/>
</g>
<!-- Node11&#45;&gt;Node10 -->
<g id="edge12" class="edge">
<title>Node11&#45;&gt;Node10</title>
<path fill="none" stroke="midnightblue" d="M188.66,-56.44C166.18,-47.52 130.73,-33.44 105.23,-23.32"/>
<polygon fill="midnightblue" stroke="midnightblue" points="106.25,-19.95 95.66,-19.52 103.66,-26.46 106.25,-19.95"/>
</g>
<!-- Node14 -->
<g id="node14" class="node">
<title>Node14</title>
<g id="a_node14"><a xlink:title=" ">
<polygon fill="white" stroke="#bfbfbf" points="401.21,-56.5 401.21,-75.5 455.21,-75.5 455.21,-56.5 401.21,-56.5"/>
<text text-anchor="middle" x="428.21" y="-63.5" font-family="Helvetica,sans-Serif" font-size="10.00">iostream</text>
</a>
</g>
</g>
<!-- Node13&#45;&gt;Node14 -->
<g id="edge15" class="edge">
<title>Node13&#45;&gt;Node14</title>
<path fill="none" stroke="midnightblue" d="M414.86,-112.08C417,-104.85 420.09,-94.41 422.76,-85.4"/>
<polygon fill="midnightblue" stroke="midnightblue" points="426.14,-86.33 425.62,-75.75 419.42,-84.34 426.14,-86.33"/>
</g>
<!-- Node15 -->
<g id="node15" class="node">
<title>Node15</title>
<g id="a_node15"><a xlink:title=" ">
<polygon fill="white" stroke="#bfbfbf" points="473.71,-56.5 473.71,-75.5 524.71,-75.5 524.71,-56.5 473.71,-56.5"/>
<text text-anchor="middle" x="499.21" y="-63.5" font-family="Helvetica,sans-Serif" font-size="10.00">memory</text>
</a>
</g>
</g>
<!-- Node13&#45;&gt;Node15 -->
<g id="edge16" class="edge">
<title>Node13&#45;&gt;Node15</title>
<path fill="none" stroke="midnightblue" d="M426.19,-112.32C439.76,-103.9 460.59,-90.97 476.54,-81.07"/>
<polygon fill="midnightblue" stroke="midnightblue" points="478.62,-83.9 485.27,-75.65 474.93,-77.95 478.62,-83.9"/>
</g>
<!-- Node16&#45;&gt;Node13 -->
<g id="edge18" class="edge">
<title>Node16&#45;&gt;Node13</title>
<path fill="none" stroke="midnightblue" d="M386.33,-168.08C390.62,-160.61 396.87,-149.72 402.16,-140.52"/>
<polygon fill="midnightblue" stroke="midnightblue" points="405.25,-142.17 407.19,-131.75 399.18,-138.68 405.25,-142.17"/>
</g>
<!-- Node23&#45;&gt;Node8 -->
<g id="edge27" class="edge">
<title>Node23&#45;&gt;Node8</title>
<path fill="none" stroke="midnightblue" d="M74.21,-112.08C74.21,-105.01 74.21,-94.86 74.21,-85.99"/>
<polygon fill="midnightblue" stroke="midnightblue" points="77.71,-85.75 74.21,-75.75 70.71,-85.75 77.71,-85.75"/>
</g>
<!-- Node23&#45;&gt;Node10 -->
<g id="edge26" class="edge">
<title>Node23&#45;&gt;Node10</title>
<path fill="none" stroke="midnightblue" d="M50.92,-112.35C25.32,-101.39 -10.48,-80.89 3.21,-56 11.1,-41.66 25.7,-31.25 39.62,-24.08"/>
<polygon fill="midnightblue" stroke="midnightblue" points="41.51,-27.06 49.05,-19.62 38.52,-20.73 41.51,-27.06"/>
</g>
<!-- Node24&#45;&gt;Node5 -->
<g id="edge29" class="edge">
<title>Node24&#45;&gt;Node5</title>
<path fill="none" stroke="midnightblue" d="M219.29,-224.3C210.24,-215.86 197.11,-202.27 189.21,-188 181.21,-173.53 176.26,-155.35 173.43,-141.89"/>
<polygon fill="midnightblue" stroke="midnightblue" points="176.84,-141.06 171.53,-131.89 169.96,-142.37 176.84,-141.06"/>
</g>
</g>
</svg>
