<?xml version="1.0" encoding="UTF-8" standalone="no"?>
<!DOCTYPE svg PUBLIC "-//W3C//DTD SVG 1.1//EN"
 "http://www.w3.org/Graphics/SVG/1.1/DTD/svg11.dtd">
<!-- Generated by graphviz version 2.47.1 (20210421.1823)
 -->
<!-- Title: src/engine/NetworkManager.cpp Pages: 1 -->
<svg width="533pt" height="308pt"
 viewBox="0.00 0.00 532.50 308.00" xmlns="http://www.w3.org/2000/svg" xmlns:xlink="http://www.w3.org/1999/xlink">
<g id="graph0" class="graph" transform="scale(1 1) rotate(0) translate(4 304)">
<title>src/engine/NetworkManager.cpp</title>
<polygon fill="white" stroke="transparent" points="-4,4 -4,-304 528.5,-304 528.5,4 -4,4"/>
<!-- Node1 -->
<g id="node1" class="node">
<title>Node1</title>
<g id="a_node1"><a xlink:title=" ">
<polygon fill="#bfbfbf" stroke="black" points="250,-280.5 250,-299.5 407,-299.5 407,-280.5 250,-280.5"/>
<text text-anchor="middle" x="328.5" y="-287.5" font-family="Helvetica,sans-Serif" font-size="10.00">src/engine/NetworkManager.cpp</text>
</a>
</g>
</g>
<!-- Node2 -->
<g id="node2" class="node">
<title>Node2</title>
<g id="a_node2"><a xlink:title=" ">
<polygon fill="white" stroke="#bfbfbf" points="87.5,-224.5 87.5,-243.5 139.5,-243.5 139.5,-224.5 87.5,-224.5"/>
<text text-anchor="middle" x="113.5" y="-231.5" font-family="Helvetica,sans-Serif" font-size="10.00">sstream</text>
</a>
</g>
</g>
<!-- Node1&#45;&gt;Node2 -->
<g id="edge1" class="edge">
<title>Node1&#45;&gt;Node2</title>
<path fill="none" stroke="midnightblue" d="M293.98,-280.44C259.71,-271.93 205.43,-258.41 149.57,-244.26"/>
<polygon fill="midnightblue" stroke="midnightblue" points="150.42,-240.87 139.87,-241.8 148.7,-247.65 150.42,-240.87"/>
</g>
<!-- Node3 -->
<g id="node3" class="node">
<title>Node3</title>
<g id="a_node3"><a xlink:href="_network_manager_8h.html" target="_top" xlink:title=" ">
<polygon fill="white" stroke="black" points="157.5,-224.5 157.5,-243.5 287.5,-243.5 287.5,-224.5 157.5,-224.5"/>
<text text-anchor="middle" x="222.5" y="-231.5" font-family="Helvetica,sans-Serif" font-size="10.00">engine/NetworkManager.h</text>
</a>
</g>
</g>
<!-- Node1&#45;&gt;Node3 -->
<g id="edge2" class="edge">
<title>Node1&#45;&gt;Node3</title>
<path fill="none" stroke="midnightblue" d="M311.47,-280.32C294.47,-271.66 268.12,-258.24 248.51,-248.25"/>
<polygon fill="midnightblue" stroke="midnightblue" points="249.99,-245.08 239.49,-243.65 246.81,-251.31 249.99,-245.08"/>
</g>
<!-- Node17 -->
<g id="node17" class="node">
<title>Node17</title>
<g id="a_node17"><a xlink:title=" ">
<polygon fill="white" stroke="#bfbfbf" points="305.5,-224.5 305.5,-243.5 351.5,-243.5 351.5,-224.5 305.5,-224.5"/>
<text text-anchor="middle" x="328.5" y="-231.5" font-family="Helvetica,sans-Serif" font-size="10.00">chrono</text>
</a>
</g>
</g>
<!-- Node1&#45;&gt;Node17 -->
<g id="edge17" class="edge">
<title>Node1&#45;&gt;Node17</title>
<path fill="none" stroke="midnightblue" d="M328.5,-280.08C328.5,-273.01 328.5,-262.86 328.5,-253.99"/>
<polygon fill="midnightblue" stroke="midnightblue" points="332,-253.75 328.5,-243.75 325,-253.75 332,-253.75"/>
</g>
<!-- Node18 -->
<g id="node18" class="node">
<title>Node18</title>
<g id="a_node18"><a xlink:title=" ">
<polygon fill="white" stroke="#bfbfbf" points="369.5,-224.5 369.5,-243.5 413.5,-243.5 413.5,-224.5 369.5,-224.5"/>
<text text-anchor="middle" x="391.5" y="-231.5" font-family="Helvetica,sans-Serif" font-size="10.00">thread</text>
</a>
</g>
</g>
<!-- Node1&#45;&gt;Node18 -->
<g id="edge18" class="edge">
<title>Node1&#45;&gt;Node18</title>
<path fill="none" stroke="midnightblue" d="M338.62,-280.32C348.03,-272.26 362.24,-260.08 373.57,-250.37"/>
<polygon fill="midnightblue" stroke="midnightblue" points="375.88,-253 381.19,-243.83 371.32,-247.68 375.88,-253"/>
</g>
<!-- Node19 -->
<g id="node19" class="node">
<title>Node19</title>
<g id="a_node19"><a xlink:href="_player_8h.html" target="_top" xlink:title=" ">
<polygon fill="white" stroke="black" points="416,-112.5 416,-131.5 467,-131.5 467,-112.5 416,-112.5"/>
<text text-anchor="middle" x="441.5" y="-119.5" font-family="Helvetica,sans-Serif" font-size="10.00">Player.h</text>
</a>
</g>
</g>
<!-- Node1&#45;&gt;Node19 -->
<g id="edge19" class="edge">
<title>Node1&#45;&gt;Node19</title>
<path fill="none" stroke="midnightblue" d="M365.13,-280.43C385.17,-273.83 408.67,-262.58 422.5,-244 444.97,-213.83 445.46,-167.57 443.61,-141.87"/>
<polygon fill="midnightblue" stroke="midnightblue" points="447.07,-141.28 442.67,-131.64 440.1,-141.92 447.07,-141.28"/>
</g>
<!-- Node4 -->
<g id="node4" class="node">
<title>Node4</title>
<g id="a_node4"><a xlink:href="game_object_8h.html" target="_top" xlink:title=" ">
<polygon fill="white" stroke="black" points="283.5,-168.5 283.5,-187.5 391.5,-187.5 391.5,-168.5 283.5,-168.5"/>
<text text-anchor="middle" x="337.5" y="-175.5" font-family="Helvetica,sans-Serif" font-size="10.00">engine/gameObject.h</text>
</a>
</g>
</g>
<!-- Node3&#45;&gt;Node4 -->
<g id="edge3" class="edge">
<title>Node3&#45;&gt;Node4</title>
<path fill="none" stroke="midnightblue" d="M240.72,-224.44C259.4,-215.68 288.66,-201.94 310.12,-191.86"/>
<polygon fill="midnightblue" stroke="midnightblue" points="311.8,-194.93 319.36,-187.52 308.82,-188.6 311.8,-194.93"/>
</g>
<!-- Node14 -->
<g id="node14" class="node">
<title>Node14</title>
<g id="a_node14"><a xlink:href="_none_8h.html" target="_top" xlink:title=" ">
<polygon fill="white" stroke="black" points="0,-168.5 0,-187.5 113,-187.5 113,-168.5 0,-168.5"/>
<text text-anchor="middle" x="56.5" y="-175.5" font-family="Helvetica,sans-Serif" font-size="10.00">engine/actions/None.h</text>
</a>
</g>
</g>
<!-- Node3&#45;&gt;Node14 -->
<g id="edge13" class="edge">
<title>Node3&#45;&gt;Node14</title>
<path fill="none" stroke="midnightblue" d="M196.2,-224.44C168.15,-215.32 123.56,-200.81 92.32,-190.65"/>
<polygon fill="midnightblue" stroke="midnightblue" points="93.27,-187.28 82.68,-187.52 91.11,-193.94 93.27,-187.28"/>
</g>
<!-- Node15 -->
<g id="node15" class="node">
<title>Node15</title>
<g id="a_node15"><a xlink:title=" ">
<polygon fill="white" stroke="#bfbfbf" points="131.5,-168.5 131.5,-187.5 175.5,-187.5 175.5,-168.5 131.5,-168.5"/>
<text text-anchor="middle" x="153.5" y="-175.5" font-family="Helvetica,sans-Serif" font-size="10.00">vector</text>
</a>
</g>
</g>
<!-- Node3&#45;&gt;Node15 -->
<g id="edge15" class="edge">
<title>Node3&#45;&gt;Node15</title>
<path fill="none" stroke="midnightblue" d="M211.41,-224.32C201.01,-216.18 185.24,-203.84 172.78,-194.09"/>
<polygon fill="midnightblue" stroke="midnightblue" points="174.82,-191.24 164.79,-187.83 170.51,-196.75 174.82,-191.24"/>
</g>
<!-- Node16 -->
<g id="node16" class="node">
<title>Node16</title>
<g id="a_node16"><a xlink:title=" ">
<polygon fill="white" stroke="#bfbfbf" points="194,-168.5 194,-187.5 265,-187.5 265,-168.5 194,-168.5"/>
<text text-anchor="middle" x="229.5" y="-175.5" font-family="Helvetica,sans-Serif" font-size="10.00">sys/socket.h</text>
</a>
</g>
</g>
<!-- Node3&#45;&gt;Node16 -->
<g id="edge16" class="edge">
<title>Node3&#45;&gt;Node16</title>
<path fill="none" stroke="midnightblue" d="M223.66,-224.08C224.58,-216.93 225.92,-206.64 227.08,-197.69"/>
<polygon fill="midnightblue" stroke="midnightblue" points="230.55,-198.12 228.37,-187.75 223.61,-197.22 230.55,-198.12"/>
</g>
<!-- Node5 -->
<g id="node5" class="node">
<title>Node5</title>
<g id="a_node5"><a xlink:title=" ">
<polygon fill="white" stroke="#bfbfbf" points="257,-112.5 257,-131.5 286,-131.5 286,-112.5 257,-112.5"/>
<text text-anchor="middle" x="271.5" y="-119.5" font-family="Helvetica,sans-Serif" font-size="10.00">list</text>
</a>
</g>
</g>
<!-- Node4&#45;&gt;Node5 -->
<g id="edge4" class="edge">
<title>Node4&#45;&gt;Node5</title>
<path fill="none" stroke="midnightblue" d="M326.9,-168.32C317.04,-160.26 302.15,-148.08 290.28,-138.37"/>
<polygon fill="midnightblue" stroke="midnightblue" points="292.25,-135.46 282.3,-131.83 287.82,-140.88 292.25,-135.46"/>
</g>
<!-- Node6 -->
<g id="node6" class="node">
<title>Node6</title>
<g id="a_node6"><a xlink:href="config_8h.html" target="_top" xlink:title=" ">
<polygon fill="white" stroke="black" points="304,-112.5 304,-131.5 385,-131.5 385,-112.5 304,-112.5"/>
<text text-anchor="middle" x="344.5" y="-119.5" font-family="Helvetica,sans-Serif" font-size="10.00">engine/config.h</text>
</a>
</g>
</g>
<!-- Node4&#45;&gt;Node6 -->
<g id="edge5" class="edge">
<title>Node4&#45;&gt;Node6</title>
<path fill="none" stroke="midnightblue" d="M338.66,-168.08C339.58,-160.93 340.92,-150.64 342.08,-141.69"/>
<polygon fill="midnightblue" stroke="midnightblue" points="345.55,-142.12 343.37,-131.75 338.61,-141.22 345.55,-142.12"/>
</g>
<!-- Node11 -->
<g id="node11" class="node">
<title>Node11</title>
<g id="a_node11"><a xlink:href="engine_2_action_8h.html" target="_top" xlink:title=" ">
<polygon fill="white" stroke="black" points="51,-112.5 51,-131.5 134,-131.5 134,-112.5 51,-112.5"/>
<text text-anchor="middle" x="92.5" y="-119.5" font-family="Helvetica,sans-Serif" font-size="10.00">engine/Action.h</text>
</a>
</g>
</g>
<!-- Node4&#45;&gt;Node11 -->
<g id="edge10" class="edge">
<title>Node4&#45;&gt;Node11</title>
<path fill="none" stroke="midnightblue" d="M298.68,-168.44C255.94,-159.02 187.17,-143.87 140.93,-133.68"/>
<polygon fill="midnightblue" stroke="midnightblue" points="141.66,-130.25 131.14,-131.52 140.15,-137.09 141.66,-130.25"/>
</g>
<!-- Node7 -->
<g id="node7" class="node">
<title>Node7</title>
<g id="a_node7"><a xlink:href="_s_f_m_l_facade_8h.html" target="_top" xlink:title=" ">
<polygon fill="white" stroke="black" points="345,-56.5 345,-75.5 468,-75.5 468,-56.5 345,-56.5"/>
<text text-anchor="middle" x="406.5" y="-63.5" font-family="Helvetica,sans-Serif" font-size="10.00">graphics/SFMLFacade.h</text>
</a>
</g>
</g>
<!-- Node6&#45;&gt;Node7 -->
<g id="edge6" class="edge">
<title>Node6&#45;&gt;Node7</title>
<path fill="none" stroke="midnightblue" d="M354.46,-112.32C363.63,-104.34 377.44,-92.31 388.53,-82.65"/>
<polygon fill="midnightblue" stroke="midnightblue" points="391.12,-85.04 396.36,-75.83 386.52,-79.76 391.12,-85.04"/>
</g>
<!-- Node10 -->
<g id="node10" class="node">
<title>Node10</title>
<g id="a_node10"><a xlink:title=" ">
<polygon fill="white" stroke="#bfbfbf" points="228.5,-56.5 228.5,-75.5 326.5,-75.5 326.5,-56.5 228.5,-56.5"/>
<text text-anchor="middle" x="277.5" y="-63.5" font-family="Helvetica,sans-Serif" font-size="10.00">nlohmann/json.hpp</text>
</a>
</g>
</g>
<!-- Node6&#45;&gt;Node10 -->
<g id="edge9" class="edge">
<title>Node6&#45;&gt;Node10</title>
<path fill="none" stroke="midnightblue" d="M333.74,-112.32C323.73,-104.26 308.61,-92.08 296.57,-82.37"/>
<polygon fill="midnightblue" stroke="midnightblue" points="298.44,-79.38 288.46,-75.83 294.05,-84.83 298.44,-79.38"/>
</g>
<!-- Node8 -->
<g id="node8" class="node">
<title>Node8</title>
<g id="a_node8"><a xlink:title=" ">
<polygon fill="white" stroke="#bfbfbf" points="346.5,-0.5 346.5,-19.5 450.5,-19.5 450.5,-0.5 346.5,-0.5"/>
<text text-anchor="middle" x="398.5" y="-7.5" font-family="Helvetica,sans-Serif" font-size="10.00">SFML/Graphics.hpp</text>
</a>
</g>
</g>
<!-- Node7&#45;&gt;Node8 -->
<g id="edge7" class="edge">
<title>Node7&#45;&gt;Node8</title>
<path fill="none" stroke="midnightblue" d="M405.18,-56.08C404.12,-48.93 402.59,-38.64 401.27,-29.69"/>
<polygon fill="midnightblue" stroke="midnightblue" points="404.72,-29.13 399.8,-19.75 397.8,-30.16 404.72,-29.13"/>
</g>
<!-- Node9 -->
<g id="node9" class="node">
<title>Node9</title>
<g id="a_node9"><a xlink:href="_facade_8h.html" target="_top" xlink:title=" ">
<polygon fill="white" stroke="black" points="468.5,-0.5 468.5,-19.5 524.5,-19.5 524.5,-0.5 468.5,-0.5"/>
<text text-anchor="middle" x="496.5" y="-7.5" font-family="Helvetica,sans-Serif" font-size="10.00">Facade.h</text>
</a>
</g>
</g>
<!-- Node7&#45;&gt;Node9 -->
<g id="edge8" class="edge">
<title>Node7&#45;&gt;Node9</title>
<path fill="none" stroke="midnightblue" d="M420.96,-56.32C435,-47.9 456.55,-34.97 473.04,-25.07"/>
<polygon fill="midnightblue" stroke="midnightblue" points="475.3,-27.8 482.08,-19.65 471.7,-21.8 475.3,-27.8"/>
</g>
<!-- Node12 -->
<g id="node12" class="node">
<title>Node12</title>
<g id="a_node12"><a xlink:title=" ">
<polygon fill="white" stroke="#bfbfbf" points="105.5,-56.5 105.5,-75.5 159.5,-75.5 159.5,-56.5 105.5,-56.5"/>
<text text-anchor="middle" x="132.5" y="-63.5" font-family="Helvetica,sans-Serif" font-size="10.00">iostream</text>
</a>
</g>
</g>
<!-- Node11&#45;&gt;Node12 -->
<g id="edge11" class="edge">
<title>Node11&#45;&gt;Node12</title>
<path fill="none" stroke="midnightblue" d="M99.11,-112.08C104.76,-104.46 113.04,-93.26 119.95,-83.94"/>
<polygon fill="midnightblue" stroke="midnightblue" points="122.88,-85.87 126.02,-75.75 117.25,-81.7 122.88,-85.87"/>
</g>
<!-- Node13 -->
<g id="node13" class="node">
<title>Node13</title>
<g id="a_node13"><a xlink:title=" ">
<polygon fill="white" stroke="#bfbfbf" points="36,-56.5 36,-75.5 87,-75.5 87,-56.5 36,-56.5"/>
<text text-anchor="middle" x="61.5" y="-63.5" font-family="Helvetica,sans-Serif" font-size="10.00">memory</text>
</a>
</g>
</g>
<!-- Node11&#45;&gt;Node13 -->
<g id="edge12" class="edge">
<title>Node11&#45;&gt;Node13</title>
<path fill="none" stroke="midnightblue" d="M87.38,-112.08C83.09,-104.61 76.84,-93.72 71.56,-84.52"/>
<polygon fill="midnightblue" stroke="midnightblue" points="74.54,-82.68 66.52,-75.75 68.47,-86.17 74.54,-82.68"/>
</g>
<!-- Node14&#45;&gt;Node11 -->
<g id="edge14" class="edge">
<title>Node14&#45;&gt;Node11</title>
<path fill="none" stroke="midnightblue" d="M62.44,-168.08C67.48,-160.53 74.84,-149.49 81.01,-140.23"/>
<polygon fill="midnightblue" stroke="midnightblue" points="84.03,-142.01 86.67,-131.75 78.21,-138.13 84.03,-142.01"/>
</g>
<!-- Node19&#45;&gt;Node7 -->
<g id="edge21" class="edge">
<title>Node19&#45;&gt;Node7</title>
<path fill="none" stroke="midnightblue" d="M435.72,-112.08C430.83,-104.53 423.67,-93.49 417.67,-84.23"/>
<polygon fill="midnightblue" stroke="midnightblue" points="420.55,-82.24 412.17,-75.75 414.67,-86.05 420.55,-82.24"/>
</g>
<!-- Node19&#45;&gt;Node9 -->
<g id="edge20" class="edge">
<title>Node19&#45;&gt;Node9</title>
<path fill="none" stroke="midnightblue" d="M450.08,-112.43C458.2,-103.88 470.21,-90.02 477.5,-76 485.13,-61.33 490.11,-43.16 493.05,-29.77"/>
<polygon fill="midnightblue" stroke="midnightblue" points="496.51,-30.31 495.05,-19.82 489.65,-28.93 496.51,-30.31"/>
</g>
</g>
</svg>
