<?xml version="1.0" encoding="UTF-8" standalone="no"?>
<!DOCTYPE svg PUBLIC "-//W3C//DTD SVG 1.1//EN"
 "http://www.w3.org/Graphics/SVG/1.1/DTD/svg11.dtd">
<!-- Generated by graphviz version 2.47.1 (20210421.1823)
 -->
<!-- Title: src/GameLogic/Player.cpp Pages: 1 -->
<svg width="324pt" height="196pt"
 viewBox="0.00 0.00 324.00 196.00" xmlns="http://www.w3.org/2000/svg" xmlns:xlink="http://www.w3.org/1999/xlink">
<g id="graph0" class="graph" transform="scale(1 1) rotate(0) translate(4 192)">
<title>src/GameLogic/Player.cpp</title>
<polygon fill="white" stroke="transparent" points="-4,4 -4,-192 320,-192 320,4 -4,4"/>
<!-- Node1 -->
<g id="node1" class="node">
<title>Node1</title>
<g id="a_node1"><a xlink:title=" ">
<polygon fill="#bfbfbf" stroke="black" points="72.5,-168.5 72.5,-187.5 203.5,-187.5 203.5,-168.5 72.5,-168.5"/>
<text text-anchor="middle" x="138" y="-175.5" font-family="Helvetica,sans-Serif" font-size="10.00">src/GameLogic/Player.cpp</text>
</a>
</g>
</g>
<!-- Node2 -->
<g id="node2" class="node">
<title>Node2</title>
<g id="a_node2"><a xlink:href="_player_8h.html" target="_top" xlink:title=" ">
<polygon fill="white" stroke="black" points="70.5,-112.5 70.5,-131.5 121.5,-131.5 121.5,-112.5 70.5,-112.5"/>
<text text-anchor="middle" x="96" y="-119.5" font-family="Helvetica,sans-Serif" font-size="10.00">Player.h</text>
</a>
</g>
</g>
<!-- Node1&#45;&gt;Node2 -->
<g id="edge1" class="edge">
<title>Node1&#45;&gt;Node2</title>
<path fill="none" stroke="midnightblue" d="M131.06,-168.08C125.07,-160.38 116.25,-149.03 108.95,-139.65"/>
<polygon fill="midnightblue" stroke="midnightblue" points="111.71,-137.5 102.81,-131.75 106.18,-141.79 111.71,-137.5"/>
</g>
<!-- Node6 -->
<g id="node6" class="node">
<title>Node6</title>
<g id="a_node6"><a xlink:href="config_8h.html" target="_top" xlink:title=" ">
<polygon fill="white" stroke="black" points="139.5,-112.5 139.5,-131.5 220.5,-131.5 220.5,-112.5 139.5,-112.5"/>
<text text-anchor="middle" x="180" y="-119.5" font-family="Helvetica,sans-Serif" font-size="10.00">engine/config.h</text>
</a>
</g>
</g>
<!-- Node1&#45;&gt;Node6 -->
<g id="edge6" class="edge">
<title>Node1&#45;&gt;Node6</title>
<path fill="none" stroke="midnightblue" d="M144.94,-168.08C150.93,-160.38 159.75,-149.03 167.05,-139.65"/>
<polygon fill="midnightblue" stroke="midnightblue" points="169.82,-141.79 173.19,-131.75 164.29,-137.5 169.82,-141.79"/>
</g>
<!-- Node3 -->
<g id="node3" class="node">
<title>Node3</title>
<g id="a_node3"><a xlink:href="_facade_8h.html" target="_top" xlink:title=" ">
<polygon fill="white" stroke="black" points="0,-0.5 0,-19.5 96,-19.5 96,-0.5 0,-0.5"/>
<text text-anchor="middle" x="48" y="-7.5" font-family="Helvetica,sans-Serif" font-size="10.00">graphics/Facade.h</text>
</a>
</g>
</g>
<!-- Node2&#45;&gt;Node3 -->
<g id="edge2" class="edge">
<title>Node2&#45;&gt;Node3</title>
<path fill="none" stroke="midnightblue" d="M89.43,-112.47C82.96,-103.72 73.18,-89.53 67,-76 60.13,-60.96 55.08,-42.83 51.91,-29.54"/>
<polygon fill="midnightblue" stroke="midnightblue" points="55.31,-28.69 49.7,-19.7 48.48,-30.22 55.31,-28.69"/>
</g>
<!-- Node4 -->
<g id="node4" class="node">
<title>Node4</title>
<g id="a_node4"><a xlink:href="_s_f_m_l_facade_8h.html" target="_top" xlink:title=" ">
<polygon fill="white" stroke="black" points="76.5,-56.5 76.5,-75.5 199.5,-75.5 199.5,-56.5 76.5,-56.5"/>
<text text-anchor="middle" x="138" y="-63.5" font-family="Helvetica,sans-Serif" font-size="10.00">graphics/SFMLFacade.h</text>
</a>
</g>
</g>
<!-- Node2&#45;&gt;Node4 -->
<g id="edge3" class="edge">
<title>Node2&#45;&gt;Node4</title>
<path fill="none" stroke="midnightblue" d="M102.94,-112.08C108.93,-104.38 117.75,-93.03 125.05,-83.65"/>
<polygon fill="midnightblue" stroke="midnightblue" points="127.82,-85.79 131.19,-75.75 122.29,-81.5 127.82,-85.79"/>
</g>
<!-- Node4&#45;&gt;Node3 -->
<g id="edge5" class="edge">
<title>Node4&#45;&gt;Node3</title>
<path fill="none" stroke="midnightblue" d="M123.54,-56.32C109.5,-47.9 87.95,-34.97 71.46,-25.07"/>
<polygon fill="midnightblue" stroke="midnightblue" points="72.8,-21.8 62.42,-19.65 69.2,-27.8 72.8,-21.8"/>
</g>
<!-- Node5 -->
<g id="node5" class="node">
<title>Node5</title>
<g id="a_node5"><a xlink:title=" ">
<polygon fill="white" stroke="#bfbfbf" points="114,-0.5 114,-19.5 218,-19.5 218,-0.5 114,-0.5"/>
<text text-anchor="middle" x="166" y="-7.5" font-family="Helvetica,sans-Serif" font-size="10.00">SFML/Graphics.hpp</text>
</a>
</g>
</g>
<!-- Node4&#45;&gt;Node5 -->
<g id="edge4" class="edge">
<title>Node4&#45;&gt;Node5</title>
<path fill="none" stroke="midnightblue" d="M142.62,-56.08C146.46,-48.69 152.02,-37.95 156.76,-28.81"/>
<polygon fill="midnightblue" stroke="midnightblue" points="159.97,-30.24 161.46,-19.75 153.75,-27.02 159.97,-30.24"/>
</g>
<!-- Node6&#45;&gt;Node4 -->
<g id="edge7" class="edge">
<title>Node6&#45;&gt;Node4</title>
<path fill="none" stroke="midnightblue" d="M173.06,-112.08C167.07,-104.38 158.25,-93.03 150.95,-83.65"/>
<polygon fill="midnightblue" stroke="midnightblue" points="153.71,-81.5 144.81,-75.75 148.18,-85.79 153.71,-81.5"/>
</g>
<!-- Node7 -->
<g id="node7" class="node">
<title>Node7</title>
<g id="a_node7"><a xlink:title=" ">
<polygon fill="white" stroke="#bfbfbf" points="218,-56.5 218,-75.5 316,-75.5 316,-56.5 218,-56.5"/>
<text text-anchor="middle" x="267" y="-63.5" font-family="Helvetica,sans-Serif" font-size="10.00">nlohmann/json.hpp</text>
</a>
</g>
</g>
<!-- Node6&#45;&gt;Node7 -->
<g id="edge8" class="edge">
<title>Node6&#45;&gt;Node7</title>
<path fill="none" stroke="midnightblue" d="M193.98,-112.32C207.55,-103.9 228.38,-90.97 244.32,-81.07"/>
<polygon fill="midnightblue" stroke="midnightblue" points="246.41,-83.9 253.06,-75.65 242.71,-77.95 246.41,-83.9"/>
</g>
</g>
</svg>
