<?xml version="1.0" encoding="UTF-8" standalone="no"?>
<!DOCTYPE svg PUBLIC "-//W3C//DTD SVG 1.1//EN"
 "http://www.w3.org/Graphics/SVG/1.1/DTD/svg11.dtd">
<!-- Generated by graphviz version 2.47.1 (20210421.1823)
 -->
<!-- Title: include/GameLogic/Player.h Pages: 1 -->
<svg width="1731pt" height="553pt"
 viewBox="0.00 0.00 1730.53 553.00" xmlns="http://www.w3.org/2000/svg" xmlns:xlink="http://www.w3.org/1999/xlink">
<g id="graph0" class="graph" transform="scale(1 1) rotate(0) translate(4 549)">
<title>include/GameLogic/Player.h</title>
<polygon fill="white" stroke="transparent" points="-4,4 -4,-549 1726.53,-549 1726.53,4 -4,4"/>
<!-- Node1 -->
<g id="node1" class="node">
<title>Node1</title>
<g id="a_node1"><a xlink:title=" ">
<polygon fill="#bfbfbf" stroke="black" points="1094,-525.5 1094,-544.5 1232,-544.5 1232,-525.5 1094,-525.5"/>
<text text-anchor="middle" x="1163" y="-532.5" font-family="Helvetica,sans-Serif" font-size="10.00">include/GameLogic/Player.h</text>
</a>
</g>
</g>
<!-- Node2 -->
<g id="node2" class="node">
<title>Node2</title>
<g id="a_node2"><a xlink:href="_network_manager_8cpp.html" target="_top" xlink:title=" ">
<polygon fill="white" stroke="black" points="774.5,-469.5 774.5,-488.5 931.5,-488.5 931.5,-469.5 774.5,-469.5"/>
<text text-anchor="middle" x="853" y="-476.5" font-family="Helvetica,sans-Serif" font-size="10.00">src/engine/NetworkManager.cpp</text>
</a>
</g>
</g>
<!-- Node1&#45;&gt;Node2 -->
<g id="edge1" class="edge">
<title>Node1&#45;&gt;Node2</title>
<path fill="none" stroke="midnightblue" d="M1103.66,-523.66C1045.08,-513.46 956.55,-498.04 901.89,-488.52"/>
<polygon fill="midnightblue" stroke="midnightblue" points="1103.43,-527.18 1113.88,-525.44 1104.63,-520.28 1103.43,-527.18"/>
</g>
<!-- Node3 -->
<g id="node3" class="node">
<title>Node3</title>
<g id="a_node3"><a xlink:href="_player_8cpp.html" target="_top" xlink:title=" ">
<polygon fill="white" stroke="black" points="949.5,-469.5 949.5,-488.5 1080.5,-488.5 1080.5,-469.5 949.5,-469.5"/>
<text text-anchor="middle" x="1015" y="-476.5" font-family="Helvetica,sans-Serif" font-size="10.00">src/GameLogic/Player.cpp</text>
</a>
</g>
</g>
<!-- Node1&#45;&gt;Node3 -->
<g id="edge2" class="edge">
<title>Node1&#45;&gt;Node3</title>
<path fill="none" stroke="midnightblue" d="M1129.85,-521.91C1102.03,-511.75 1062.98,-497.51 1038.34,-488.52"/>
<polygon fill="midnightblue" stroke="midnightblue" points="1128.96,-525.3 1139.55,-525.44 1131.35,-518.73 1128.96,-525.3"/>
</g>
<!-- Node4 -->
<g id="node4" class="node">
<title>Node4</title>
<g id="a_node4"><a xlink:href="_cell_8h.html" target="_top" xlink:title=" ">
<polygon fill="white" stroke="black" points="1099,-469.5 1099,-488.5 1227,-488.5 1227,-469.5 1099,-469.5"/>
<text text-anchor="middle" x="1163" y="-476.5" font-family="Helvetica,sans-Serif" font-size="10.00">include/GameLogic/Cell.h</text>
</a>
</g>
</g>
<!-- Node1&#45;&gt;Node4 -->
<g id="edge3" class="edge">
<title>Node1&#45;&gt;Node4</title>
<path fill="none" stroke="midnightblue" d="M1163,-514.8C1163,-505.91 1163,-495.78 1163,-488.75"/>
<polygon fill="midnightblue" stroke="midnightblue" points="1159.5,-515.08 1163,-525.08 1166.5,-515.08 1159.5,-515.08"/>
</g>
<!-- Node12 -->
<g id="node12" class="node">
<title>Node12</title>
<g id="a_node12"><a xlink:href="_squad_8h.html" target="_top" xlink:title=" ">
<polygon fill="white" stroke="black" points="822.5,-335.5 822.5,-365.5 953.5,-365.5 953.5,-335.5 822.5,-335.5"/>
<text text-anchor="start" x="830.5" y="-353.5" font-family="Helvetica,sans-Serif" font-size="10.00">include/GameLogic/Squad</text>
<text text-anchor="middle" x="888" y="-342.5" font-family="Helvetica,sans-Serif" font-size="10.00">/Squad.h</text>
</a>
</g>
</g>
<!-- Node1&#45;&gt;Node12 -->
<g id="edge67" class="edge">
<title>Node1&#45;&gt;Node12</title>
<path fill="none" stroke="midnightblue" d="M1198.45,-521.2C1212.78,-514.06 1227.84,-503.61 1236,-489 1254.35,-456.13 1213.63,-412.88 1198,-402 1159.51,-375.21 1032.8,-361.62 953.8,-355.59"/>
<polygon fill="midnightblue" stroke="midnightblue" points="1196.85,-518.08 1189.21,-525.41 1199.76,-524.44 1196.85,-518.08"/>
</g>
<!-- Node26 -->
<g id="node26" class="node">
<title>Node26</title>
<g id="a_node26"><a xlink:href="_squad_template_8h.html" target="_top" xlink:title=" ">
<polygon fill="white" stroke="black" points="1562.5,-134.5 1562.5,-164.5 1693.5,-164.5 1693.5,-134.5 1562.5,-134.5"/>
<text text-anchor="start" x="1570.5" y="-152.5" font-family="Helvetica,sans-Serif" font-size="10.00">include/GameLogic/Squad</text>
<text text-anchor="middle" x="1628" y="-141.5" font-family="Helvetica,sans-Serif" font-size="10.00">/SquadTemplate.h</text>
</a>
</g>
</g>
<!-- Node1&#45;&gt;Node26 -->
<g id="edge68" class="edge">
<title>Node1&#45;&gt;Node26</title>
<path fill="none" stroke="midnightblue" d="M1242.42,-532.69C1388.27,-528.12 1684,-507.85 1684,-418.5 1684,-418.5 1684,-418.5 1684,-282.5 1684,-236.45 1654.76,-188.02 1638.53,-164.7"/>
<polygon fill="midnightblue" stroke="midnightblue" points="1242.08,-529.2 1232.18,-533 1242.28,-536.2 1242.08,-529.2"/>
</g>
<!-- Node5 -->
<g id="node5" class="node">
<title>Node5</title>
<g id="a_node5"><a xlink:href="_cell_8cpp.html" target="_top" xlink:title=" ">
<polygon fill="white" stroke="black" points="977.5,-408 977.5,-427 1098.5,-427 1098.5,-408 977.5,-408"/>
<text text-anchor="middle" x="1038" y="-415" font-family="Helvetica,sans-Serif" font-size="10.00">src/GameLogic/Cell.cpp</text>
</a>
</g>
</g>
<!-- Node4&#45;&gt;Node5 -->
<g id="edge4" class="edge">
<title>Node4&#45;&gt;Node5</title>
<path fill="none" stroke="midnightblue" d="M1136.06,-465.17C1111.8,-453.63 1076.84,-436.99 1055.88,-427.01"/>
<polygon fill="midnightblue" stroke="midnightblue" points="1134.56,-468.34 1145.09,-469.48 1137.57,-462.02 1134.56,-468.34"/>
</g>
<!-- Node6 -->
<g id="node6" class="node">
<title>Node6</title>
<g id="a_node6"><a xlink:href="main_8cpp.html" target="_top" xlink:title=" ">
<polygon fill="white" stroke="black" points="1117,-408 1117,-427 1189,-427 1189,-408 1117,-408"/>
<text text-anchor="middle" x="1153" y="-415" font-family="Helvetica,sans-Serif" font-size="10.00">src/main.cpp</text>
</a>
</g>
</g>
<!-- Node4&#45;&gt;Node6 -->
<g id="edge5" class="edge">
<title>Node4&#45;&gt;Node6</title>
<path fill="none" stroke="midnightblue" d="M1159.86,-459.32C1158.04,-448.5 1155.84,-435.4 1154.43,-427.01"/>
<polygon fill="midnightblue" stroke="midnightblue" points="1156.46,-460.19 1161.57,-469.48 1163.36,-459.03 1156.46,-460.19"/>
</g>
<!-- Node7 -->
<g id="node7" class="node">
<title>Node7</title>
<g id="a_node7"><a xlink:href="_set_squad_path_8h.html" target="_top" xlink:title=" ">
<polygon fill="white" stroke="black" points="1245.5,-268.5 1245.5,-298.5 1358.5,-298.5 1358.5,-268.5 1245.5,-268.5"/>
<text text-anchor="start" x="1253.5" y="-286.5" font-family="Helvetica,sans-Serif" font-size="10.00">include/engine/actions</text>
<text text-anchor="middle" x="1302" y="-275.5" font-family="Helvetica,sans-Serif" font-size="10.00">/SetSquadPath.h</text>
</a>
</g>
</g>
<!-- Node4&#45;&gt;Node7 -->
<g id="edge6" class="edge">
<title>Node4&#45;&gt;Node7</title>
<path fill="none" stroke="midnightblue" d="M1182.82,-464.15C1195.33,-456.42 1210.89,-445.77 1222,-433 1258.58,-390.96 1280.63,-326.8 1293.04,-298.62"/>
<polygon fill="midnightblue" stroke="midnightblue" points="1180.72,-461.33 1173.96,-469.48 1184.33,-467.32 1180.72,-461.33"/>
</g>
<!-- Node10 -->
<g id="node10" class="node">
<title>Node10</title>
<g id="a_node10"><a xlink:href="_game_logic_2_squad_2_action_8h.html" target="_top" xlink:title=" ">
<polygon fill="white" stroke="black" points="771.5,-402.5 771.5,-432.5 902.5,-432.5 902.5,-402.5 771.5,-402.5"/>
<text text-anchor="start" x="779.5" y="-420.5" font-family="Helvetica,sans-Serif" font-size="10.00">include/GameLogic/Squad</text>
<text text-anchor="middle" x="837" y="-409.5" font-family="Helvetica,sans-Serif" font-size="10.00">/Action.h</text>
</a>
</g>
</g>
<!-- Node4&#45;&gt;Node10 -->
<g id="edge10" class="edge">
<title>Node4&#45;&gt;Node10</title>
<path fill="none" stroke="midnightblue" d="M1106.42,-467.67C1049.74,-457.33 962.54,-441.41 902.79,-430.51"/>
<polygon fill="midnightblue" stroke="midnightblue" points="1105.83,-471.12 1116.29,-469.48 1107.08,-464.24 1105.83,-471.12"/>
</g>
<!-- Node4&#45;&gt;Node12 -->
<g id="edge64" class="edge">
<title>Node4&#45;&gt;Node12</title>
<path fill="none" stroke="midnightblue" d="M1094.91,-467.68C1045.1,-458.84 982.61,-445.59 960,-433 929.5,-416.01 902.85,-384.16 891.91,-365.71"/>
<polygon fill="midnightblue" stroke="midnightblue" points="1094.56,-471.17 1105.01,-469.44 1095.76,-464.27 1094.56,-471.17"/>
</g>
<!-- Node23 -->
<g id="node23" class="node">
<title>Node23</title>
<g id="a_node23"><a xlink:href="_factory_8h.html" target="_top" xlink:title=" ">
<polygon fill="white" stroke="black" points="1127.5,-201.5 1127.5,-231.5 1254.5,-231.5 1254.5,-201.5 1127.5,-201.5"/>
<text text-anchor="start" x="1135.5" y="-219.5" font-family="Helvetica,sans-Serif" font-size="10.00">include/GameLogic/Units</text>
<text text-anchor="middle" x="1191" y="-208.5" font-family="Helvetica,sans-Serif" font-size="10.00">/Factory.h</text>
</a>
</g>
</g>
<!-- Node4&#45;&gt;Node23 -->
<g id="edge65" class="edge">
<title>Node4&#45;&gt;Node23</title>
<path fill="none" stroke="midnightblue" d="M1179.65,-462.04C1186.77,-454.08 1194.28,-443.84 1198,-433 1222.78,-360.77 1203.62,-266.81 1194.82,-231.62"/>
<polygon fill="midnightblue" stroke="midnightblue" points="1176.95,-459.81 1172.56,-469.45 1182,-464.65 1176.95,-459.81"/>
</g>
<!-- Node41 -->
<g id="node41" class="node">
<title>Node41</title>
<g id="a_node41"><a xlink:href="pathfinding_8h.html" target="_top" xlink:title=" ">
<polygon fill="white" stroke="black" points="406,-274 406,-293 526,-293 526,-274 406,-274"/>
<text text-anchor="middle" x="466" y="-281" font-family="Helvetica,sans-Serif" font-size="10.00">include/util/pathfinding.h</text>
</a>
</g>
</g>
<!-- Node4&#45;&gt;Node41 -->
<g id="edge66" class="edge">
<title>Node4&#45;&gt;Node41</title>
<path fill="none" stroke="midnightblue" d="M1088.66,-468.9C942.41,-453.01 899.49,-473.6 762,-433 645.1,-398.48 518.82,-319.29 478.87,-293.09"/>
<polygon fill="midnightblue" stroke="midnightblue" points="1088.58,-472.41 1098.91,-470.05 1089.37,-465.45 1088.58,-472.41"/>
</g>
<!-- Node7&#45;&gt;Node4 -->
<g id="edge9" class="edge">
<title>Node7&#45;&gt;Node4</title>
<path fill="none" stroke="midnightblue" d="M1301.09,-308.67C1293.82,-340.09 1272.72,-395.4 1240,-433 1226.06,-449.02 1205.11,-461.72 1188.34,-469.48"/>
<polygon fill="midnightblue" stroke="midnightblue" points="1304.57,-309.11 1303.08,-298.62 1297.7,-307.74 1304.57,-309.11"/>
</g>
<!-- Node8 -->
<g id="node8" class="node">
<title>Node8</title>
<g id="a_node8"><a xlink:href="engine_2_action_8cpp.html" target="_top" xlink:title=" ">
<polygon fill="white" stroke="black" points="1273,-207 1273,-226 1383,-226 1383,-207 1273,-207"/>
<text text-anchor="middle" x="1328" y="-214" font-family="Helvetica,sans-Serif" font-size="10.00">src/engine/Action.cpp</text>
</a>
</g>
</g>
<!-- Node7&#45;&gt;Node8 -->
<g id="edge7" class="edge">
<title>Node7&#45;&gt;Node8</title>
<path fill="none" stroke="midnightblue" d="M1311.42,-258.94C1315.98,-247.54 1321.18,-234.55 1324.52,-226.19"/>
<polygon fill="midnightblue" stroke="midnightblue" points="1308.11,-257.81 1307.64,-268.4 1314.61,-260.41 1308.11,-257.81"/>
</g>
<!-- Node9 -->
<g id="node9" class="node">
<title>Node9</title>
<g id="a_node9"><a xlink:href="_set_squad_path_8cpp.html" target="_top" xlink:title=" ">
<polygon fill="white" stroke="black" points="1401.5,-201.5 1401.5,-231.5 1502.5,-231.5 1502.5,-201.5 1401.5,-201.5"/>
<text text-anchor="start" x="1409.5" y="-219.5" font-family="Helvetica,sans-Serif" font-size="10.00">src/engine/actions</text>
<text text-anchor="middle" x="1452" y="-208.5" font-family="Helvetica,sans-Serif" font-size="10.00">/SetSquadPath.cpp</text>
</a>
</g>
</g>
<!-- Node7&#45;&gt;Node9 -->
<g id="edge8" class="edge">
<title>Node7&#45;&gt;Node9</title>
<path fill="none" stroke="midnightblue" d="M1343.75,-264.41C1367.7,-254.03 1397.32,-241.2 1419.52,-231.58"/>
<polygon fill="midnightblue" stroke="midnightblue" points="1342.33,-261.21 1334.55,-268.4 1345.11,-267.63 1342.33,-261.21"/>
</g>
<!-- Node11 -->
<g id="node11" class="node">
<title>Node11</title>
<g id="a_node11"><a xlink:href="_game_logic_2_squad_2_action_8cpp.html" target="_top" xlink:title=" ">
<polygon fill="white" stroke="black" points="101,-201.5 101,-231.5 215,-231.5 215,-201.5 101,-201.5"/>
<text text-anchor="start" x="109" y="-219.5" font-family="Helvetica,sans-Serif" font-size="10.00">src/GameLogic/Squad</text>
<text text-anchor="middle" x="158" y="-208.5" font-family="Helvetica,sans-Serif" font-size="10.00">/Action.cpp</text>
</a>
</g>
</g>
<!-- Node10&#45;&gt;Node11 -->
<g id="edge11" class="edge">
<title>Node10&#45;&gt;Node11</title>
<path fill="none" stroke="midnightblue" d="M769.63,-400.02C682.95,-378.47 527.94,-338.76 397,-299 325.69,-277.35 243.69,-248.51 196.65,-231.58"/>
<polygon fill="midnightblue" stroke="midnightblue" points="768.79,-403.42 779.34,-402.43 770.48,-396.62 768.79,-403.42"/>
</g>
<!-- Node10&#45;&gt;Node12 -->
<g id="edge12" class="edge">
<title>Node10&#45;&gt;Node12</title>
<path fill="none" stroke="midnightblue" d="M848.08,-394.16C854.94,-384.68 863.64,-373.92 871.28,-365.58"/>
<polygon fill="midnightblue" stroke="midnightblue" points="845.19,-392.18 842.39,-402.4 850.95,-396.16 845.19,-392.18"/>
</g>
<!-- Node12&#45;&gt;Node4 -->
<g id="edge15" class="edge">
<title>Node12&#45;&gt;Node4</title>
<path fill="none" stroke="midnightblue" d="M910.87,-373.2C927.57,-391.89 951.31,-418.14 978,-433 1002.16,-446.46 1071.9,-460.67 1118.61,-469.44"/>
<polygon fill="midnightblue" stroke="midnightblue" points="913.44,-370.82 904.16,-365.71 908.23,-375.5 913.44,-370.82"/>
</g>
<!-- Node12&#45;&gt;Node7 -->
<g id="edge14" class="edge">
<title>Node12&#45;&gt;Node7</title>
<path fill="none" stroke="midnightblue" d="M963.77,-337.6C1045.07,-324.84 1172.32,-304.86 1245.36,-293.39"/>
<polygon fill="midnightblue" stroke="midnightblue" points="962.94,-334.19 953.6,-339.2 964.02,-341.11 962.94,-334.19"/>
</g>
<!-- Node12&#45;&gt;Node10 -->
<g id="edge16" class="edge">
<title>Node12&#45;&gt;Node10</title>
<path fill="none" stroke="midnightblue" d="M876.94,-373.81C870.09,-383.29 861.39,-394.05 853.74,-402.4"/>
<polygon fill="midnightblue" stroke="midnightblue" points="879.83,-375.79 882.63,-365.58 874.07,-371.81 879.83,-375.79"/>
</g>
<!-- Node13 -->
<g id="node13" class="node">
<title>Node13</title>
<g id="a_node13"><a xlink:href="_squad_8cpp.html" target="_top" xlink:title=" ">
<polygon fill="white" stroke="black" points="1210,-67.5 1210,-97.5 1324,-97.5 1324,-67.5 1210,-67.5"/>
<text text-anchor="start" x="1218" y="-85.5" font-family="Helvetica,sans-Serif" font-size="10.00">src/GameLogic/Squad</text>
<text text-anchor="middle" x="1267" y="-74.5" font-family="Helvetica,sans-Serif" font-size="10.00">/Squad.cpp</text>
</a>
</g>
</g>
<!-- Node12&#45;&gt;Node13 -->
<g id="edge13" class="edge">
<title>Node12&#45;&gt;Node13</title>
<path fill="none" stroke="midnightblue" d="M911.47,-328.72C957.93,-288.18 1065.79,-197.04 1166,-134 1188.07,-120.12 1214.47,-107.03 1234.74,-97.66"/>
<polygon fill="midnightblue" stroke="midnightblue" points="909,-326.23 903.79,-335.45 913.61,-331.49 909,-326.23"/>
</g>
<!-- Node14 -->
<g id="node14" class="node">
<title>Node14</title>
<g id="a_node14"><a xlink:href="_unit_8h.html" target="_top" xlink:title=" ">
<polygon fill="white" stroke="black" points="633.5,-268.5 633.5,-298.5 760.5,-298.5 760.5,-268.5 633.5,-268.5"/>
<text text-anchor="start" x="641.5" y="-286.5" font-family="Helvetica,sans-Serif" font-size="10.00">include/GameLogic/Units</text>
<text text-anchor="middle" x="697" y="-275.5" font-family="Helvetica,sans-Serif" font-size="10.00">/Unit.h</text>
</a>
</g>
</g>
<!-- Node12&#45;&gt;Node14 -->
<g id="edge17" class="edge">
<title>Node12&#45;&gt;Node14</title>
<path fill="none" stroke="midnightblue" d="M831.2,-332.23C799.25,-321.71 760.41,-308.45 732.69,-298.58"/>
<polygon fill="midnightblue" stroke="midnightblue" points="830.28,-335.61 840.88,-335.4 832.46,-328.96 830.28,-335.61"/>
</g>
<!-- Node12&#45;&gt;Node41 -->
<g id="edge61" class="edge">
<title>Node12&#45;&gt;Node41</title>
<path fill="none" stroke="midnightblue" d="M812.11,-337.81C728.43,-324.92 595.82,-304.5 521.39,-293.03"/>
<polygon fill="midnightblue" stroke="midnightblue" points="811.65,-341.28 822.06,-339.34 812.71,-334.36 811.65,-341.28"/>
</g>
<!-- Node14&#45;&gt;Node12 -->
<g id="edge19" class="edge">
<title>Node14&#45;&gt;Node12</title>
<path fill="none" stroke="midnightblue" d="M753.71,-301.74C785.64,-312.25 824.5,-325.52 852.23,-335.4"/>
<polygon fill="midnightblue" stroke="midnightblue" points="754.63,-298.36 744.04,-298.58 752.45,-305.01 754.63,-298.36"/>
</g>
<!-- Node15 -->
<g id="node15" class="node">
<title>Node15</title>
<g id="a_node15"><a xlink:href="_unit_8cpp.html" target="_top" xlink:title=" ">
<polygon fill="white" stroke="black" points="0,-134.5 0,-164.5 110,-164.5 110,-134.5 0,-134.5"/>
<text text-anchor="start" x="8" y="-152.5" font-family="Helvetica,sans-Serif" font-size="10.00">src/GameLogic/Units</text>
<text text-anchor="middle" x="55" y="-141.5" font-family="Helvetica,sans-Serif" font-size="10.00">/Unit.cpp</text>
</a>
</g>
</g>
<!-- Node14&#45;&gt;Node15 -->
<g id="edge18" class="edge">
<title>Node14&#45;&gt;Node15</title>
<path fill="none" stroke="midnightblue" d="M623.39,-274.53C547.25,-265.52 433.99,-249.78 394,-232 373.77,-223 375.29,-209.86 355,-201 257.75,-158.56 223.25,-184.73 119,-165 116.09,-164.45 113.11,-163.86 110.11,-163.25"/>
<polygon fill="midnightblue" stroke="midnightblue" points="623.08,-278.01 633.41,-275.7 623.89,-271.06 623.08,-278.01"/>
</g>
<!-- Node16 -->
<g id="node16" class="node">
<title>Node16</title>
<g id="a_node16"><a xlink:href="_squad_order_8h.html" target="_top" xlink:title=" ">
<polygon fill="white" stroke="black" points="256.5,-134.5 256.5,-164.5 387.5,-164.5 387.5,-134.5 256.5,-134.5"/>
<text text-anchor="start" x="264.5" y="-152.5" font-family="Helvetica,sans-Serif" font-size="10.00">include/GameLogic/Squad</text>
<text text-anchor="middle" x="322" y="-141.5" font-family="Helvetica,sans-Serif" font-size="10.00">/SquadOrder.h</text>
</a>
</g>
</g>
<!-- Node14&#45;&gt;Node16 -->
<g id="edge20" class="edge">
<title>Node14&#45;&gt;Node16</title>
<path fill="none" stroke="midnightblue" d="M647.13,-264.82C625.25,-256.19 599.68,-244.89 578,-232 558.97,-220.68 558.94,-210.63 539,-201 525.29,-194.37 446.31,-176.79 387.56,-164.23"/>
<polygon fill="midnightblue" stroke="midnightblue" points="645.98,-268.13 656.57,-268.47 648.5,-261.6 645.98,-268.13"/>
</g>
<!-- Node18 -->
<g id="node18" class="node">
<title>Node18</title>
<g id="a_node18"><a xlink:href="_armored_unit_8h.html" target="_top" xlink:title=" ">
<polygon fill="white" stroke="black" points="679.5,-134.5 679.5,-164.5 806.5,-164.5 806.5,-134.5 679.5,-134.5"/>
<text text-anchor="start" x="687.5" y="-152.5" font-family="Helvetica,sans-Serif" font-size="10.00">include/GameLogic/Units</text>
<text text-anchor="middle" x="743" y="-141.5" font-family="Helvetica,sans-Serif" font-size="10.00">/ArmoredUnit.h</text>
</a>
</g>
</g>
<!-- Node14&#45;&gt;Node18 -->
<g id="edge22" class="edge">
<title>Node14&#45;&gt;Node18</title>
<path fill="none" stroke="midnightblue" d="M710.31,-259.45C714.8,-251.01 719.53,-241.26 723,-232 731.58,-209.08 737.51,-181.14 740.58,-164.64"/>
<polygon fill="midnightblue" stroke="midnightblue" points="707.18,-257.88 705.44,-268.33 713.32,-261.25 707.18,-257.88"/>
</g>
<!-- Node14&#45;&gt;Node23 -->
<g id="edge27" class="edge">
<title>Node14&#45;&gt;Node23</title>
<path fill="none" stroke="midnightblue" d="M770.57,-272.82C867.31,-260.09 1035.71,-237.93 1127.28,-225.88"/>
<polygon fill="midnightblue" stroke="midnightblue" points="770.03,-269.36 760.57,-274.14 770.94,-276.3 770.03,-269.36"/>
</g>
<!-- Node35 -->
<g id="node35" class="node">
<title>Node35</title>
<g id="a_node35"><a xlink:href="_land_unit_8h.html" target="_top" xlink:title=" ">
<polygon fill="white" stroke="black" points="587.5,-201.5 587.5,-231.5 714.5,-231.5 714.5,-201.5 587.5,-201.5"/>
<text text-anchor="start" x="595.5" y="-219.5" font-family="Helvetica,sans-Serif" font-size="10.00">include/GameLogic/Units</text>
<text text-anchor="middle" x="651" y="-208.5" font-family="Helvetica,sans-Serif" font-size="10.00">/LandUnit.h</text>
</a>
</g>
</g>
<!-- Node14&#45;&gt;Node35 -->
<g id="edge49" class="edge">
<title>Node14&#45;&gt;Node35</title>
<path fill="none" stroke="midnightblue" d="M681.19,-260.16C674.48,-250.68 666.87,-239.92 660.96,-231.58"/>
<polygon fill="midnightblue" stroke="midnightblue" points="678.38,-262.26 687.02,-268.4 684.1,-258.21 678.38,-262.26"/>
</g>
<!-- Node37 -->
<g id="node37" class="node">
<title>Node37</title>
<g id="a_node37"><a xlink:href="_transport_unit_8h.html" target="_top" xlink:title=" ">
<polygon fill="white" stroke="black" points="794.5,-201.5 794.5,-231.5 921.5,-231.5 921.5,-201.5 794.5,-201.5"/>
<text text-anchor="start" x="802.5" y="-219.5" font-family="Helvetica,sans-Serif" font-size="10.00">include/GameLogic/Units</text>
<text text-anchor="middle" x="858" y="-208.5" font-family="Helvetica,sans-Serif" font-size="10.00">/TransportUnit.h</text>
</a>
</g>
</g>
<!-- Node14&#45;&gt;Node37 -->
<g id="edge52" class="edge">
<title>Node14&#45;&gt;Node37</title>
<path fill="none" stroke="midnightblue" d="M741.48,-264.54C767.24,-254.14 799.2,-241.24 823.13,-231.58"/>
<polygon fill="midnightblue" stroke="midnightblue" points="739.9,-261.41 731.93,-268.4 742.52,-267.9 739.9,-261.41"/>
</g>
<!-- Node39 -->
<g id="node39" class="node">
<title>Node39</title>
<g id="a_node39"><a xlink:href="_unit_order_8h.html" target="_top" xlink:title=" ">
<polygon fill="white" stroke="black" points="403.5,-201.5 403.5,-231.5 530.5,-231.5 530.5,-201.5 403.5,-201.5"/>
<text text-anchor="start" x="411.5" y="-219.5" font-family="Helvetica,sans-Serif" font-size="10.00">include/GameLogic/Units</text>
<text text-anchor="middle" x="467" y="-208.5" font-family="Helvetica,sans-Serif" font-size="10.00">/UnitOrder.h</text>
</a>
</g>
</g>
<!-- Node14&#45;&gt;Node39 -->
<g id="edge56" class="edge">
<title>Node14&#45;&gt;Node39</title>
<path fill="none" stroke="midnightblue" d="M631.61,-265.71C593.08,-255.14 545.41,-241.63 511.25,-231.61"/>
<polygon fill="midnightblue" stroke="midnightblue" points="631.14,-269.21 641.71,-268.48 632.99,-262.46 631.14,-269.21"/>
</g>
<!-- Node17 -->
<g id="node17" class="node">
<title>Node17</title>
<g id="a_node17"><a xlink:href="_squad_order_8cpp.html" target="_top" xlink:title=" ">
<polygon fill="white" stroke="black" points="265,-67.5 265,-97.5 379,-97.5 379,-67.5 265,-67.5"/>
<text text-anchor="start" x="273" y="-85.5" font-family="Helvetica,sans-Serif" font-size="10.00">src/GameLogic/Squad</text>
<text text-anchor="middle" x="322" y="-74.5" font-family="Helvetica,sans-Serif" font-size="10.00">/SquadOrder.cpp</text>
</a>
</g>
</g>
<!-- Node16&#45;&gt;Node17 -->
<g id="edge21" class="edge">
<title>Node16&#45;&gt;Node17</title>
<path fill="none" stroke="midnightblue" d="M322,-124.11C322,-115.15 322,-105.32 322,-97.58"/>
<polygon fill="midnightblue" stroke="midnightblue" points="318.5,-124.4 322,-134.4 325.5,-124.4 318.5,-124.4"/>
</g>
<!-- Node19 -->
<g id="node19" class="node">
<title>Node19</title>
<g id="a_node19"><a xlink:href="_armored_unit_8cpp.html" target="_top" xlink:title=" ">
<polygon fill="white" stroke="black" points="698,-67.5 698,-97.5 808,-97.5 808,-67.5 698,-67.5"/>
<text text-anchor="start" x="706" y="-85.5" font-family="Helvetica,sans-Serif" font-size="10.00">src/GameLogic/Units</text>
<text text-anchor="middle" x="753" y="-74.5" font-family="Helvetica,sans-Serif" font-size="10.00">/ArmoredUnit.cpp</text>
</a>
</g>
</g>
<!-- Node18&#45;&gt;Node19 -->
<g id="edge23" class="edge">
<title>Node18&#45;&gt;Node19</title>
<path fill="none" stroke="midnightblue" d="M746.71,-124.4C748.1,-115.37 749.63,-105.41 750.83,-97.58"/>
<polygon fill="midnightblue" stroke="midnightblue" points="743.23,-123.98 745.17,-134.4 750.15,-125.04 743.23,-123.98"/>
</g>
<!-- Node20 -->
<g id="node20" class="node">
<title>Node20</title>
<g id="a_node20"><a xlink:href="_armored_unit_factory_8h.html" target="_top" xlink:title=" ">
<polygon fill="white" stroke="black" points="1045.5,-67.5 1045.5,-97.5 1172.5,-97.5 1172.5,-67.5 1045.5,-67.5"/>
<text text-anchor="start" x="1053.5" y="-85.5" font-family="Helvetica,sans-Serif" font-size="10.00">include/GameLogic/Units</text>
<text text-anchor="middle" x="1109" y="-74.5" font-family="Helvetica,sans-Serif" font-size="10.00">/ArmoredUnitFactory.h</text>
</a>
</g>
</g>
<!-- Node18&#45;&gt;Node20 -->
<g id="edge24" class="edge">
<title>Node18&#45;&gt;Node20</title>
<path fill="none" stroke="midnightblue" d="M816.52,-133.93C901.64,-118.22 988.27,-103.51 1045.47,-93.97"/>
<polygon fill="midnightblue" stroke="midnightblue" points="815.88,-130.49 806.68,-135.75 817.15,-137.37 815.88,-130.49"/>
</g>
<!-- Node21 -->
<g id="node21" class="node">
<title>Node21</title>
<g id="a_node21"><a xlink:href="_all_units_8cpp.html" target="_top" xlink:title=" ">
<polygon fill="white" stroke="black" points="962,-0.5 962,-30.5 1072,-30.5 1072,-0.5 962,-0.5"/>
<text text-anchor="start" x="970" y="-18.5" font-family="Helvetica,sans-Serif" font-size="10.00">src/GameLogic/Units</text>
<text text-anchor="middle" x="1017" y="-7.5" font-family="Helvetica,sans-Serif" font-size="10.00">/AllUnits.cpp</text>
</a>
</g>
</g>
<!-- Node20&#45;&gt;Node21 -->
<g id="edge25" class="edge">
<title>Node20&#45;&gt;Node21</title>
<path fill="none" stroke="midnightblue" d="M1080.62,-61.45C1066.47,-51.45 1049.69,-39.6 1036.92,-30.58"/>
<polygon fill="midnightblue" stroke="midnightblue" points="1078.85,-64.48 1089.04,-67.4 1082.89,-58.77 1078.85,-64.48"/>
</g>
<!-- Node22 -->
<g id="node22" class="node">
<title>Node22</title>
<g id="a_node22"><a xlink:href="_armored_unit_factory_8cpp.html" target="_top" xlink:title=" ">
<polygon fill="white" stroke="black" points="1090.5,-0.5 1090.5,-30.5 1215.5,-30.5 1215.5,-0.5 1090.5,-0.5"/>
<text text-anchor="start" x="1098.5" y="-18.5" font-family="Helvetica,sans-Serif" font-size="10.00">src/GameLogic/Units</text>
<text text-anchor="middle" x="1153" y="-7.5" font-family="Helvetica,sans-Serif" font-size="10.00">/ArmoredUnitFactory.cpp</text>
</a>
</g>
</g>
<!-- Node20&#45;&gt;Node22 -->
<g id="edge26" class="edge">
<title>Node20&#45;&gt;Node22</title>
<path fill="none" stroke="midnightblue" d="M1124.32,-58.87C1130.69,-49.46 1137.88,-38.83 1143.47,-30.58"/>
<polygon fill="midnightblue" stroke="midnightblue" points="1121.25,-57.15 1118.55,-67.4 1127.05,-61.08 1121.25,-57.15"/>
</g>
<!-- Node23&#45;&gt;Node20 -->
<g id="edge41" class="edge">
<title>Node23&#45;&gt;Node20</title>
<path fill="none" stroke="midnightblue" d="M1176.92,-192.83C1159.92,-165.47 1131.85,-120.28 1117.71,-97.52"/>
<polygon fill="midnightblue" stroke="midnightblue" points="1173.97,-194.73 1182.22,-201.37 1179.92,-191.03 1173.97,-194.73"/>
</g>
<!-- Node24 -->
<g id="node24" class="node">
<title>Node24</title>
<g id="a_node24"><a xlink:href="_spawn_action_8cpp.html" target="_top" xlink:title=" ">
<polygon fill="white" stroke="black" points="1303,-134.5 1303,-164.5 1399,-164.5 1399,-134.5 1303,-134.5"/>
<text text-anchor="start" x="1311" y="-152.5" font-family="Helvetica,sans-Serif" font-size="10.00">src/engine/actions</text>
<text text-anchor="middle" x="1351" y="-141.5" font-family="Helvetica,sans-Serif" font-size="10.00">/SpawnAction.cpp</text>
</a>
</g>
</g>
<!-- Node23&#45;&gt;Node24 -->
<g id="edge28" class="edge">
<title>Node23&#45;&gt;Node24</title>
<path fill="none" stroke="midnightblue" d="M1235.2,-197.54C1260.8,-187.14 1292.57,-174.24 1316.35,-164.58"/>
<polygon fill="midnightblue" stroke="midnightblue" points="1233.66,-194.39 1225.72,-201.4 1236.3,-200.87 1233.66,-194.39"/>
</g>
<!-- Node25 -->
<g id="node25" class="node">
<title>Node25</title>
<g id="a_node25"><a xlink:href="_factory_8cpp.html" target="_top" xlink:title=" ">
<polygon fill="white" stroke="black" points="1175,-134.5 1175,-164.5 1285,-164.5 1285,-134.5 1175,-134.5"/>
<text text-anchor="start" x="1183" y="-152.5" font-family="Helvetica,sans-Serif" font-size="10.00">src/GameLogic/Units</text>
<text text-anchor="middle" x="1230" y="-141.5" font-family="Helvetica,sans-Serif" font-size="10.00">/Factory.cpp</text>
</a>
</g>
</g>
<!-- Node23&#45;&gt;Node25 -->
<g id="edge29" class="edge">
<title>Node23&#45;&gt;Node25</title>
<path fill="none" stroke="midnightblue" d="M1204.75,-192.58C1210.36,-183.24 1216.65,-172.75 1221.55,-164.58"/>
<polygon fill="midnightblue" stroke="midnightblue" points="1201.61,-191.02 1199.46,-201.4 1207.61,-194.62 1201.61,-191.02"/>
</g>
<!-- Node23&#45;&gt;Node26 -->
<g id="edge30" class="edge">
<title>Node23&#45;&gt;Node26</title>
<path fill="none" stroke="midnightblue" d="M1264.55,-200.99C1393.92,-180.57 1428.88,-185 1554,-165 1556.71,-164.57 1559.48,-164.11 1562.28,-163.63"/>
<polygon fill="midnightblue" stroke="midnightblue" points="1263.97,-197.54 1254.65,-202.57 1265.08,-204.45 1263.97,-197.54"/>
</g>
<!-- Node30 -->
<g id="node30" class="node">
<title>Node30</title>
<g id="a_node30"><a xlink:href="_all_units_8h.html" target="_top" xlink:title=" ">
<polygon fill="white" stroke="black" points="1417.5,-134.5 1417.5,-164.5 1544.5,-164.5 1544.5,-134.5 1417.5,-134.5"/>
<text text-anchor="start" x="1425.5" y="-152.5" font-family="Helvetica,sans-Serif" font-size="10.00">include/GameLogic/Units</text>
<text text-anchor="middle" x="1481" y="-141.5" font-family="Helvetica,sans-Serif" font-size="10.00">/AllUnits.h</text>
</a>
</g>
</g>
<!-- Node23&#45;&gt;Node30 -->
<g id="edge35" class="edge">
<title>Node23&#45;&gt;Node30</title>
<path fill="none" stroke="midnightblue" d="M1263.49,-199.25C1311.02,-188.6 1372.56,-174.81 1418.04,-164.61"/>
<polygon fill="midnightblue" stroke="midnightblue" points="1262.56,-195.87 1253.57,-201.48 1264.09,-202.7 1262.56,-195.87"/>
</g>
<!-- Node31 -->
<g id="node31" class="node">
<title>Node31</title>
<g id="a_node31"><a xlink:href="_land_unit_factory_8h.html" target="_top" xlink:title=" ">
<polygon fill="white" stroke="black" points="534.5,-134.5 534.5,-164.5 661.5,-164.5 661.5,-134.5 534.5,-134.5"/>
<text text-anchor="start" x="542.5" y="-152.5" font-family="Helvetica,sans-Serif" font-size="10.00">include/GameLogic/Units</text>
<text text-anchor="middle" x="598" y="-141.5" font-family="Helvetica,sans-Serif" font-size="10.00">/LandUnitFactory.h</text>
</a>
</g>
</g>
<!-- Node23&#45;&gt;Node31 -->
<g id="edge42" class="edge">
<title>Node23&#45;&gt;Node31</title>
<path fill="none" stroke="midnightblue" d="M1117.27,-210.74C1016.06,-203.65 828.6,-188.59 670,-165 667.23,-164.59 664.4,-164.14 661.54,-163.66"/>
<polygon fill="midnightblue" stroke="midnightblue" points="1117.17,-214.24 1127.39,-211.44 1117.65,-207.25 1117.17,-214.24"/>
</g>
<!-- Node33 -->
<g id="node33" class="node">
<title>Node33</title>
<g id="a_node33"><a xlink:href="_transport_unit_factory_8h.html" target="_top" xlink:title=" ">
<polygon fill="white" stroke="black" points="953.5,-134.5 953.5,-164.5 1080.5,-164.5 1080.5,-134.5 953.5,-134.5"/>
<text text-anchor="start" x="961.5" y="-152.5" font-family="Helvetica,sans-Serif" font-size="10.00">include/GameLogic/Units</text>
<text text-anchor="middle" x="1017" y="-141.5" font-family="Helvetica,sans-Serif" font-size="10.00">/TransportUnitFactory.h</text>
</a>
</g>
</g>
<!-- Node23&#45;&gt;Node33 -->
<g id="edge45" class="edge">
<title>Node23&#45;&gt;Node33</title>
<path fill="none" stroke="midnightblue" d="M1143.67,-197.82C1115.7,-187.37 1080.77,-174.32 1054.68,-164.58"/>
<polygon fill="midnightblue" stroke="midnightblue" points="1142.65,-201.18 1153.24,-201.4 1145.1,-194.62 1142.65,-201.18"/>
</g>
<!-- Node27 -->
<g id="node27" class="node">
<title>Node27</title>
<g id="a_node27"><a xlink:href="_squad_template_8cpp.html" target="_top" xlink:title=" ">
<polygon fill="white" stroke="black" points="1427,-67.5 1427,-97.5 1541,-97.5 1541,-67.5 1427,-67.5"/>
<text text-anchor="start" x="1435" y="-85.5" font-family="Helvetica,sans-Serif" font-size="10.00">src/GameLogic/Squad</text>
<text text-anchor="middle" x="1484" y="-74.5" font-family="Helvetica,sans-Serif" font-size="10.00">/SquadTemplate.cpp</text>
</a>
</g>
</g>
<!-- Node26&#45;&gt;Node27 -->
<g id="edge31" class="edge">
<title>Node26&#45;&gt;Node27</title>
<path fill="none" stroke="midnightblue" d="M1587.61,-130.27C1564.68,-119.92 1536.4,-107.15 1515.18,-97.58"/>
<polygon fill="midnightblue" stroke="midnightblue" points="1586.2,-133.47 1596.75,-134.4 1589.08,-127.09 1586.2,-133.47"/>
</g>
<!-- Node28 -->
<g id="node28" class="node">
<title>Node28</title>
<g id="a_node28"><a xlink:href="_all_squad_templates_8h.html" target="_top" xlink:title=" ">
<polygon fill="white" stroke="black" points="1562.5,-67.5 1562.5,-97.5 1693.5,-97.5 1693.5,-67.5 1562.5,-67.5"/>
<text text-anchor="start" x="1570.5" y="-85.5" font-family="Helvetica,sans-Serif" font-size="10.00">include/GameLogic/Squad</text>
<text text-anchor="middle" x="1628" y="-74.5" font-family="Helvetica,sans-Serif" font-size="10.00">/AllSquadTemplates.h</text>
</a>
</g>
</g>
<!-- Node26&#45;&gt;Node28 -->
<g id="edge32" class="edge">
<title>Node26&#45;&gt;Node28</title>
<path fill="none" stroke="midnightblue" d="M1628,-124.11C1628,-115.15 1628,-105.32 1628,-97.58"/>
<polygon fill="midnightblue" stroke="midnightblue" points="1624.5,-124.4 1628,-134.4 1631.5,-124.4 1624.5,-124.4"/>
</g>
<!-- Node28&#45;&gt;Node4 -->
<g id="edge34" class="edge">
<title>Node28&#45;&gt;Node4</title>
<path fill="none" stroke="midnightblue" d="M1668.02,-102.72C1680.93,-110.73 1694.17,-121.19 1703,-134 1724.11,-164.62 1722,-178.31 1722,-215.5 1722,-284.5 1722,-284.5 1722,-284.5 1722,-419.12 1585.28,-389.14 1458,-433 1381.22,-459.46 1287.87,-470.39 1227.02,-474.88"/>
<polygon fill="midnightblue" stroke="midnightblue" points="1669.6,-99.58 1659.2,-97.56 1666.07,-105.63 1669.6,-99.58"/>
</g>
<!-- Node29 -->
<g id="node29" class="node">
<title>Node29</title>
<g id="a_node29"><a xlink:href="_all_squad_templates_8cpp.html" target="_top" xlink:title=" ">
<polygon fill="white" stroke="black" points="1567,-0.5 1567,-30.5 1689,-30.5 1689,-0.5 1567,-0.5"/>
<text text-anchor="start" x="1575" y="-18.5" font-family="Helvetica,sans-Serif" font-size="10.00">src/GameLogic/Squad</text>
<text text-anchor="middle" x="1628" y="-7.5" font-family="Helvetica,sans-Serif" font-size="10.00">/AllSquadTemplates.cpp</text>
</a>
</g>
</g>
<!-- Node28&#45;&gt;Node29 -->
<g id="edge33" class="edge">
<title>Node28&#45;&gt;Node29</title>
<path fill="none" stroke="midnightblue" d="M1628,-57.11C1628,-48.15 1628,-38.32 1628,-30.58"/>
<polygon fill="midnightblue" stroke="midnightblue" points="1624.5,-57.4 1628,-67.4 1631.5,-57.4 1624.5,-57.4"/>
</g>
<!-- Node30&#45;&gt;Node4 -->
<g id="edge39" class="edge">
<title>Node30&#45;&gt;Node4</title>
<path fill="none" stroke="midnightblue" d="M1497.17,-173.33C1502.52,-181.72 1508.1,-191.5 1512,-201 1526.13,-235.4 1531,-245.31 1531,-282.5 1531,-351.5 1531,-351.5 1531,-351.5 1531,-415.09 1332.01,-453.56 1226.68,-469.47"/>
<polygon fill="midnightblue" stroke="midnightblue" points="1499.99,-171.25 1491.54,-164.86 1494.16,-175.12 1499.99,-171.25"/>
</g>
<!-- Node30&#45;&gt;Node13 -->
<g id="edge36" class="edge">
<title>Node30&#45;&gt;Node13</title>
<path fill="none" stroke="midnightblue" d="M1424.85,-131.44C1390.16,-120.91 1346.18,-107.55 1313.46,-97.61"/>
<polygon fill="midnightblue" stroke="midnightblue" points="1424.24,-134.92 1434.83,-134.48 1426.28,-128.22 1424.24,-134.92"/>
</g>
<!-- Node30&#45;&gt;Node21 -->
<g id="edge38" class="edge">
<title>Node30&#45;&gt;Node21</title>
<path fill="none" stroke="midnightblue" d="M1452.68,-128.82C1423.9,-109.83 1377.37,-81.85 1333,-67 1226.13,-31.24 1192.86,-51.28 1082,-31 1078.82,-30.42 1075.55,-29.79 1072.26,-29.13"/>
<polygon fill="midnightblue" stroke="midnightblue" points="1450.76,-131.74 1461.02,-134.4 1454.65,-125.93 1450.76,-131.74"/>
</g>
<!-- Node30&#45;&gt;Node27 -->
<g id="edge37" class="edge">
<title>Node30&#45;&gt;Node27</title>
<path fill="none" stroke="midnightblue" d="M1482.11,-124.4C1482.53,-115.37 1482.99,-105.41 1483.35,-97.58"/>
<polygon fill="midnightblue" stroke="midnightblue" points="1478.62,-124.25 1481.65,-134.4 1485.61,-124.57 1478.62,-124.25"/>
</g>
<!-- Node30&#45;&gt;Node28 -->
<g id="edge40" class="edge">
<title>Node30&#45;&gt;Node28</title>
<path fill="none" stroke="midnightblue" d="M1522.23,-130.27C1545.64,-119.92 1574.51,-107.15 1596.17,-97.58"/>
<polygon fill="midnightblue" stroke="midnightblue" points="1520.63,-127.15 1512.9,-134.4 1523.46,-133.55 1520.63,-127.15"/>
</g>
<!-- Node31&#45;&gt;Node21 -->
<g id="edge43" class="edge">
<title>Node31&#45;&gt;Node21</title>
<path fill="none" stroke="midnightblue" d="M620.08,-127.51C644.34,-104.65 680.95,-70.8 689,-67 736.27,-44.65 881.39,-28.61 961.84,-21.16"/>
<polygon fill="midnightblue" stroke="midnightblue" points="617.56,-125.08 612.69,-134.5 622.36,-130.17 617.56,-125.08"/>
</g>
<!-- Node32 -->
<g id="node32" class="node">
<title>Node32</title>
<g id="a_node32"><a xlink:href="_land_unit_factory_8cpp.html" target="_top" xlink:title=" ">
<polygon fill="white" stroke="black" points="532,-67.5 532,-97.5 642,-97.5 642,-67.5 532,-67.5"/>
<text text-anchor="start" x="540" y="-85.5" font-family="Helvetica,sans-Serif" font-size="10.00">src/GameLogic/Units</text>
<text text-anchor="middle" x="587" y="-74.5" font-family="Helvetica,sans-Serif" font-size="10.00">/LandUnitFactory.cpp</text>
</a>
</g>
</g>
<!-- Node31&#45;&gt;Node32 -->
<g id="edge44" class="edge">
<title>Node31&#45;&gt;Node32</title>
<path fill="none" stroke="midnightblue" d="M593.92,-124.4C592.39,-115.37 590.71,-105.41 589.38,-97.58"/>
<polygon fill="midnightblue" stroke="midnightblue" points="590.49,-125.12 595.61,-134.4 597.4,-123.95 590.49,-125.12"/>
</g>
<!-- Node33&#45;&gt;Node20 -->
<g id="edge48" class="edge">
<title>Node33&#45;&gt;Node20</title>
<path fill="none" stroke="midnightblue" d="M1045.38,-128.45C1059.53,-118.45 1076.31,-106.6 1089.08,-97.58"/>
<polygon fill="midnightblue" stroke="midnightblue" points="1043.11,-125.77 1036.96,-134.4 1047.15,-131.48 1043.11,-125.77"/>
</g>
<!-- Node33&#45;&gt;Node21 -->
<g id="edge46" class="edge">
<title>Node33&#45;&gt;Node21</title>
<path fill="none" stroke="midnightblue" d="M1017,-124.02C1017,-96.51 1017,-52.79 1017,-30.52"/>
<polygon fill="midnightblue" stroke="midnightblue" points="1013.5,-124.37 1017,-134.37 1020.5,-124.37 1013.5,-124.37"/>
</g>
<!-- Node34 -->
<g id="node34" class="node">
<title>Node34</title>
<g id="a_node34"><a xlink:href="_transport_unit_factory_8cpp.html" target="_top" xlink:title=" ">
<polygon fill="white" stroke="black" points="859.5,-67.5 859.5,-97.5 988.5,-97.5 988.5,-67.5 859.5,-67.5"/>
<text text-anchor="start" x="867.5" y="-85.5" font-family="Helvetica,sans-Serif" font-size="10.00">src/GameLogic/Units</text>
<text text-anchor="middle" x="924" y="-74.5" font-family="Helvetica,sans-Serif" font-size="10.00">/TransportUnitFactory.cpp</text>
</a>
</g>
</g>
<!-- Node33&#45;&gt;Node34 -->
<g id="edge47" class="edge">
<title>Node33&#45;&gt;Node34</title>
<path fill="none" stroke="midnightblue" d="M988.31,-128.45C974.01,-118.45 957.05,-106.6 944.14,-97.58"/>
<polygon fill="midnightblue" stroke="midnightblue" points="986.62,-131.54 996.82,-134.4 990.63,-125.8 986.62,-131.54"/>
</g>
<!-- Node35&#45;&gt;Node31 -->
<g id="edge51" class="edge">
<title>Node35&#45;&gt;Node31</title>
<path fill="none" stroke="midnightblue" d="M633.02,-193.45C625.23,-183.9 616.35,-173 609.48,-164.58"/>
<polygon fill="midnightblue" stroke="midnightblue" points="630.47,-195.86 639.5,-201.4 635.89,-191.43 630.47,-195.86"/>
</g>
<!-- Node36 -->
<g id="node36" class="node">
<title>Node36</title>
<g id="a_node36"><a xlink:href="_land_unit_8cpp.html" target="_top" xlink:title=" ">
<polygon fill="white" stroke="black" points="406,-134.5 406,-164.5 516,-164.5 516,-134.5 406,-134.5"/>
<text text-anchor="start" x="414" y="-152.5" font-family="Helvetica,sans-Serif" font-size="10.00">src/GameLogic/Units</text>
<text text-anchor="middle" x="461" y="-141.5" font-family="Helvetica,sans-Serif" font-size="10.00">/LandUnit.cpp</text>
</a>
</g>
</g>
<!-- Node35&#45;&gt;Node36 -->
<g id="edge50" class="edge">
<title>Node35&#45;&gt;Node36</title>
<path fill="none" stroke="midnightblue" d="M600.11,-198.09C569.44,-187.6 530.89,-174.41 502.15,-164.58"/>
<polygon fill="midnightblue" stroke="midnightblue" points="599.18,-201.47 609.77,-201.4 601.44,-194.85 599.18,-201.47"/>
</g>
<!-- Node37&#45;&gt;Node18 -->
<g id="edge54" class="edge">
<title>Node37&#45;&gt;Node18</title>
<path fill="none" stroke="midnightblue" d="M824.02,-196.3C806.03,-186.12 784.32,-173.85 767.9,-164.58"/>
<polygon fill="midnightblue" stroke="midnightblue" points="822.62,-199.52 833.05,-201.4 826.06,-193.43 822.62,-199.52"/>
</g>
<!-- Node37&#45;&gt;Node33 -->
<g id="edge55" class="edge">
<title>Node37&#45;&gt;Node33</title>
<path fill="none" stroke="midnightblue" d="M901.92,-197.54C927.37,-187.14 958.93,-174.24 982.57,-164.58"/>
<polygon fill="midnightblue" stroke="midnightblue" points="900.43,-194.37 892.5,-201.4 903.08,-200.85 900.43,-194.37"/>
</g>
<!-- Node38 -->
<g id="node38" class="node">
<title>Node38</title>
<g id="a_node38"><a xlink:href="_transport_unit_8cpp.html" target="_top" xlink:title=" ">
<polygon fill="white" stroke="black" points="825,-134.5 825,-164.5 935,-164.5 935,-134.5 825,-134.5"/>
<text text-anchor="start" x="833" y="-152.5" font-family="Helvetica,sans-Serif" font-size="10.00">src/GameLogic/Units</text>
<text text-anchor="middle" x="880" y="-141.5" font-family="Helvetica,sans-Serif" font-size="10.00">/TransportUnit.cpp</text>
</a>
</g>
</g>
<!-- Node37&#45;&gt;Node38 -->
<g id="edge53" class="edge">
<title>Node37&#45;&gt;Node38</title>
<path fill="none" stroke="midnightblue" d="M866.06,-191.7C869.14,-182.59 872.56,-172.49 875.24,-164.58"/>
<polygon fill="midnightblue" stroke="midnightblue" points="862.66,-190.8 862.77,-201.4 869.29,-193.05 862.66,-190.8"/>
</g>
<!-- Node39&#45;&gt;Node14 -->
<g id="edge60" class="edge">
<title>Node39&#45;&gt;Node14</title>
<path fill="none" stroke="midnightblue" d="M532.72,-234.38C571.31,-244.97 618.97,-258.47 653.04,-268.48"/>
<polygon fill="midnightblue" stroke="midnightblue" points="533.18,-230.87 522.61,-231.61 531.33,-237.63 533.18,-230.87"/>
</g>
<!-- Node39&#45;&gt;Node15 -->
<g id="edge57" class="edge">
<title>Node39&#45;&gt;Node15</title>
<path fill="none" stroke="midnightblue" d="M392.93,-201.64C391.61,-201.42 390.3,-201.21 389,-201 269.45,-181.93 238.16,-186.4 119,-165 116.08,-164.48 113.1,-163.91 110.09,-163.31"/>
<polygon fill="midnightblue" stroke="midnightblue" points="392.75,-205.15 403.2,-203.36 393.92,-198.25 392.75,-205.15"/>
</g>
<!-- Node39&#45;&gt;Node16 -->
<g id="edge59" class="edge">
<title>Node39&#45;&gt;Node16</title>
<path fill="none" stroke="midnightblue" d="M426.33,-197.27C403.24,-186.92 374.76,-174.15 353.4,-164.58"/>
<polygon fill="midnightblue" stroke="midnightblue" points="424.98,-200.5 435.54,-201.4 427.84,-194.11 424.98,-200.5"/>
</g>
<!-- Node40 -->
<g id="node40" class="node">
<title>Node40</title>
<g id="a_node40"><a xlink:href="_unit_order_8cpp.html" target="_top" xlink:title=" ">
<polygon fill="white" stroke="black" points="128,-134.5 128,-164.5 238,-164.5 238,-134.5 128,-134.5"/>
<text text-anchor="start" x="136" y="-152.5" font-family="Helvetica,sans-Serif" font-size="10.00">src/GameLogic/Units</text>
<text text-anchor="middle" x="183" y="-141.5" font-family="Helvetica,sans-Serif" font-size="10.00">/UnitOrder.cpp</text>
</a>
</g>
</g>
<!-- Node39&#45;&gt;Node40 -->
<g id="edge58" class="edge">
<title>Node39&#45;&gt;Node40</title>
<path fill="none" stroke="midnightblue" d="M395.87,-199.22C347.12,-188.06 283.38,-173.47 238.39,-163.18"/>
<polygon fill="midnightblue" stroke="midnightblue" points="395.2,-202.66 405.73,-201.48 396.76,-195.83 395.2,-202.66"/>
</g>
<!-- Node41&#45;&gt;Node11 -->
<g id="edge62" class="edge">
<title>Node41&#45;&gt;Node11</title>
<path fill="none" stroke="midnightblue" d="M414.39,-271.9C365.38,-261.78 289.63,-246.06 224,-232 221.13,-231.39 218.19,-230.75 215.23,-230.11"/>
<polygon fill="midnightblue" stroke="midnightblue" points="413.93,-275.37 424.43,-273.96 415.35,-268.52 413.93,-275.37"/>
</g>
<!-- Node42 -->
<g id="node42" class="node">
<title>Node42</title>
<g id="a_node42"><a xlink:href="pathfinding_8cpp.html" target="_top" xlink:title=" ">
<polygon fill="white" stroke="black" points="233.5,-207 233.5,-226 346.5,-226 346.5,-207 233.5,-207"/>
<text text-anchor="middle" x="290" y="-214" font-family="Helvetica,sans-Serif" font-size="10.00">src/util/pathfinding.cpp</text>
</a>
</g>
</g>
<!-- Node41&#45;&gt;Node42 -->
<g id="edge63" class="edge">
<title>Node41&#45;&gt;Node42</title>
<path fill="none" stroke="midnightblue" d="M432.89,-270.27C397.96,-257.37 343.82,-237.38 313.19,-226.06"/>
<polygon fill="midnightblue" stroke="midnightblue" points="432.04,-273.69 442.63,-273.87 434.46,-267.12 432.04,-273.69"/>
</g>
</g>
</svg>
