<?xml version="1.0" encoding="UTF-8" standalone="no"?>
<!DOCTYPE svg PUBLIC "-//W3C//DTD SVG 1.1//EN"
 "http://www.w3.org/Graphics/SVG/1.1/DTD/svg11.dtd">
<!-- Generated by graphviz version 2.47.0 (20210407.0042)
 -->
<!-- Title: src/graphics/SFMLFacade.cpp Pages: 1 -->
<svg width="287pt" height="196pt"
 viewBox="0.00 0.00 287.00 196.00" xmlns="http://www.w3.org/2000/svg" xmlns:xlink="http://www.w3.org/1999/xlink">
<g id="graph0" class="graph" transform="scale(1 1) rotate(0) translate(4 192)">
<title>src/graphics/SFMLFacade.cpp</title>
<polygon fill="white" stroke="transparent" points="-4,4 -4,-192 283,-192 283,4 -4,4"/>
<!-- Node1 -->
<g id="node1" class="node">
<title>Node1</title>
<g id="a_node1"><a xlink:title=" ">
<polygon fill="#bfbfbf" stroke="black" points="95,-168.5 95,-187.5 245,-187.5 245,-168.5 95,-168.5"/>
<text text-anchor="middle" x="170" y="-175.5" font-family="Helvetica,sans-Serif" font-size="10.00">src/graphics/SFMLFacade.cpp</text>
</a>
</g>
</g>
<!-- Node2 -->
<g id="node2" class="node">
<title>Node2</title>
<g id="a_node2"><a xlink:href="_s_f_m_l_facade_8h.html" target="_top" xlink:title=" ">
<polygon fill="white" stroke="black" points="39.5,-56.5 39.5,-75.5 162.5,-75.5 162.5,-56.5 39.5,-56.5"/>
<text text-anchor="middle" x="101" y="-63.5" font-family="Helvetica,sans-Serif" font-size="10.00">graphics/SFMLFacade.h</text>
</a>
</g>
</g>
<!-- Node1&#45;&gt;Node2 -->
<g id="edge1" class="edge">
<title>Node1&#45;&gt;Node2</title>
<path fill="none" stroke="midnightblue" d="M157.39,-168.42C146.3,-160.27 130.5,-147.04 121,-132 112.04,-117.81 106.86,-99.33 104.03,-85.7"/>
<polygon fill="midnightblue" stroke="midnightblue" points="107.42,-84.8 102.17,-75.6 100.54,-86.07 107.42,-84.8"/>
</g>
<!-- Node5 -->
<g id="node5" class="node">
<title>Node5</title>
<g id="a_node5"><a xlink:href="config_8h.html" target="_top" xlink:title=" ">
<polygon fill="white" stroke="black" points="129.5,-112.5 129.5,-131.5 210.5,-131.5 210.5,-112.5 129.5,-112.5"/>
<text text-anchor="middle" x="170" y="-119.5" font-family="Helvetica,sans-Serif" font-size="10.00">engine/config.h</text>
</a>
</g>
</g>
<!-- Node1&#45;&gt;Node5 -->
<g id="edge4" class="edge">
<title>Node1&#45;&gt;Node5</title>
<path fill="none" stroke="midnightblue" d="M170,-168.08C170,-161.01 170,-150.86 170,-141.99"/>
<polygon fill="midnightblue" stroke="midnightblue" points="173.5,-141.75 170,-131.75 166.5,-141.75 173.5,-141.75"/>
</g>
<!-- Node7 -->
<g id="node7" class="node">
<title>Node7</title>
<g id="a_node7"><a xlink:title=" ">
<polygon fill="white" stroke="#bfbfbf" points="229,-112.5 229,-131.5 273,-131.5 273,-112.5 229,-112.5"/>
<text text-anchor="middle" x="251" y="-119.5" font-family="Helvetica,sans-Serif" font-size="10.00">cmath</text>
</a>
</g>
</g>
<!-- Node1&#45;&gt;Node7 -->
<g id="edge7" class="edge">
<title>Node1&#45;&gt;Node7</title>
<path fill="none" stroke="midnightblue" d="M183.01,-168.32C195.53,-159.98 214.68,-147.21 229.47,-137.35"/>
<polygon fill="midnightblue" stroke="midnightblue" points="231.64,-140.11 238.02,-131.65 227.76,-134.29 231.64,-140.11"/>
</g>
<!-- Node3 -->
<g id="node3" class="node">
<title>Node3</title>
<g id="a_node3"><a xlink:title=" ">
<polygon fill="white" stroke="#bfbfbf" points="0,-0.5 0,-19.5 104,-19.5 104,-0.5 0,-0.5"/>
<text text-anchor="middle" x="52" y="-7.5" font-family="Helvetica,sans-Serif" font-size="10.00">SFML/Graphics.hpp</text>
</a>
</g>
</g>
<!-- Node2&#45;&gt;Node3 -->
<g id="edge2" class="edge">
<title>Node2&#45;&gt;Node3</title>
<path fill="none" stroke="midnightblue" d="M92.91,-56.08C85.84,-48.3 75.41,-36.8 66.85,-27.37"/>
<polygon fill="midnightblue" stroke="midnightblue" points="69.25,-24.8 59.94,-19.75 64.07,-29.51 69.25,-24.8"/>
</g>
<!-- Node4 -->
<g id="node4" class="node">
<title>Node4</title>
<g id="a_node4"><a xlink:href="_facade_8h.html" target="_top" xlink:title=" ">
<polygon fill="white" stroke="black" points="122,-0.5 122,-19.5 178,-19.5 178,-0.5 122,-0.5"/>
<text text-anchor="middle" x="150" y="-7.5" font-family="Helvetica,sans-Serif" font-size="10.00">Facade.h</text>
</a>
</g>
</g>
<!-- Node2&#45;&gt;Node4 -->
<g id="edge3" class="edge">
<title>Node2&#45;&gt;Node4</title>
<path fill="none" stroke="midnightblue" d="M109.09,-56.08C116.16,-48.3 126.59,-36.8 135.15,-27.37"/>
<polygon fill="midnightblue" stroke="midnightblue" points="137.93,-29.51 142.06,-19.75 132.75,-24.8 137.93,-29.51"/>
</g>
<!-- Node5&#45;&gt;Node2 -->
<g id="edge5" class="edge">
<title>Node5&#45;&gt;Node2</title>
<path fill="none" stroke="midnightblue" d="M158.91,-112.32C148.51,-104.18 132.74,-91.84 120.28,-82.09"/>
<polygon fill="midnightblue" stroke="midnightblue" points="122.32,-79.24 112.29,-75.83 118.01,-84.75 122.32,-79.24"/>
</g>
<!-- Node6 -->
<g id="node6" class="node">
<title>Node6</title>
<g id="a_node6"><a xlink:title=" ">
<polygon fill="white" stroke="#bfbfbf" points="181,-56.5 181,-75.5 279,-75.5 279,-56.5 181,-56.5"/>
<text text-anchor="middle" x="230" y="-63.5" font-family="Helvetica,sans-Serif" font-size="10.00">nlohmann/json.hpp</text>
</a>
</g>
</g>
<!-- Node5&#45;&gt;Node6 -->
<g id="edge6" class="edge">
<title>Node5&#45;&gt;Node6</title>
<path fill="none" stroke="midnightblue" d="M179.64,-112.32C188.51,-104.34 201.87,-92.31 212.61,-82.65"/>
<polygon fill="midnightblue" stroke="midnightblue" points="215.09,-85.13 220.18,-75.83 210.41,-79.92 215.09,-85.13"/>
</g>
</g>
</svg>
