<?xml version="1.0" encoding="UTF-8" standalone="no"?>
<!DOCTYPE svg PUBLIC "-//W3C//DTD SVG 1.1//EN"
 "http://www.w3.org/Graphics/SVG/1.1/DTD/svg11.dtd">
<!-- Generated by graphviz version 2.47.1 (20210421.1823)
 -->
<!-- Title: src/graphics/SFMLFacade.cpp Pages: 1 -->
<svg width="379pt" height="196pt"
 viewBox="0.00 0.00 379.00 196.00" xmlns="http://www.w3.org/2000/svg" xmlns:xlink="http://www.w3.org/1999/xlink">
<g id="graph0" class="graph" transform="scale(1 1) rotate(0) translate(4 192)">
<title>src/graphics/SFMLFacade.cpp</title>
<polygon fill="white" stroke="transparent" points="-4,4 -4,-192 375,-192 375,4 -4,4"/>
<!-- Node1 -->
<g id="node1" class="node">
<title>Node1</title>
<g id="a_node1"><a xlink:title=" ">
<polygon fill="#bfbfbf" stroke="black" points="219.5,-168.5 219.5,-187.5 369.5,-187.5 369.5,-168.5 219.5,-168.5"/>
<text text-anchor="middle" x="294.5" y="-175.5" font-family="Helvetica,sans-Serif" font-size="10.00">src/graphics/SFMLFacade.cpp</text>
</a>
</g>
</g>
<!-- Node2 -->
<g id="node2" class="node">
<title>Node2</title>
<g id="a_node2"><a xlink:href="_s_f_m_l_facade_8h.html" target="_top" xlink:title=" ">
<polygon fill="white" stroke="black" points="248,-56.5 248,-75.5 371,-75.5 371,-56.5 248,-56.5"/>
<text text-anchor="middle" x="309.5" y="-63.5" font-family="Helvetica,sans-Serif" font-size="10.00">graphics/SFMLFacade.h</text>
</a>
</g>
</g>
<!-- Node1&#45;&gt;Node2 -->
<g id="edge1" class="edge">
<title>Node1&#45;&gt;Node2</title>
<path fill="none" stroke="midnightblue" d="M295.68,-168.37C298.1,-150.62 303.68,-109.67 306.96,-85.6"/>
<polygon fill="midnightblue" stroke="midnightblue" points="310.45,-85.97 308.33,-75.59 303.51,-85.03 310.45,-85.97"/>
</g>
<!-- Node5 -->
<g id="node5" class="node">
<title>Node5</title>
<g id="a_node5"><a xlink:href="config_8h.html" target="_top" xlink:title=" ">
<polygon fill="white" stroke="black" points="170,-112.5 170,-131.5 251,-131.5 251,-112.5 170,-112.5"/>
<text text-anchor="middle" x="210.5" y="-119.5" font-family="Helvetica,sans-Serif" font-size="10.00">engine/config.h</text>
</a>
</g>
</g>
<!-- Node1&#45;&gt;Node5 -->
<g id="edge4" class="edge">
<title>Node1&#45;&gt;Node5</title>
<path fill="none" stroke="midnightblue" d="M281,-168.32C267.9,-159.9 247.79,-146.97 232.39,-137.07"/>
<polygon fill="midnightblue" stroke="midnightblue" points="234.27,-134.12 223.96,-131.65 230.48,-140.01 234.27,-134.12"/>
</g>
<!-- Node8 -->
<g id="node8" class="node">
<title>Node8</title>
<g id="a_node8"><a xlink:title=" ">
<polygon fill="white" stroke="#bfbfbf" points="322.5,-112.5 322.5,-131.5 366.5,-131.5 366.5,-112.5 322.5,-112.5"/>
<text text-anchor="middle" x="344.5" y="-119.5" font-family="Helvetica,sans-Serif" font-size="10.00">cmath</text>
</a>
</g>
</g>
<!-- Node1&#45;&gt;Node8 -->
<g id="edge10" class="edge">
<title>Node1&#45;&gt;Node8</title>
<path fill="none" stroke="midnightblue" d="M302.76,-168.08C309.96,-160.3 320.61,-148.8 329.35,-139.37"/>
<polygon fill="midnightblue" stroke="midnightblue" points="332.17,-141.47 336.4,-131.75 327.03,-136.71 332.17,-141.47"/>
</g>
<!-- Node3 -->
<g id="node3" class="node">
<title>Node3</title>
<g id="a_node3"><a xlink:title=" ">
<polygon fill="white" stroke="#bfbfbf" points="81.5,-0.5 81.5,-19.5 185.5,-19.5 185.5,-0.5 81.5,-0.5"/>
<text text-anchor="middle" x="133.5" y="-7.5" font-family="Helvetica,sans-Serif" font-size="10.00">SFML/Graphics.hpp</text>
</a>
</g>
</g>
<!-- Node2&#45;&gt;Node3 -->
<g id="edge2" class="edge">
<title>Node2&#45;&gt;Node3</title>
<path fill="none" stroke="midnightblue" d="M281.61,-56.44C251.75,-47.28 204.19,-32.69 171.04,-22.52"/>
<polygon fill="midnightblue" stroke="midnightblue" points="171.84,-19.1 161.26,-19.52 169.79,-25.8 171.84,-19.1"/>
</g>
<!-- Node4 -->
<g id="node4" class="node">
<title>Node4</title>
<g id="a_node4"><a xlink:href="_facade_8h.html" target="_top" xlink:title=" ">
<polygon fill="white" stroke="black" points="242.5,-0.5 242.5,-19.5 298.5,-19.5 298.5,-0.5 242.5,-0.5"/>
<text text-anchor="middle" x="270.5" y="-7.5" font-family="Helvetica,sans-Serif" font-size="10.00">Facade.h</text>
</a>
</g>
</g>
<!-- Node2&#45;&gt;Node4 -->
<g id="edge3" class="edge">
<title>Node2&#45;&gt;Node4</title>
<path fill="none" stroke="midnightblue" d="M303.06,-56.08C297.55,-48.46 289.47,-37.26 282.74,-27.94"/>
<polygon fill="midnightblue" stroke="midnightblue" points="285.51,-25.81 276.82,-19.75 279.84,-29.91 285.51,-25.81"/>
</g>
<!-- Node5&#45;&gt;Node2 -->
<g id="edge5" class="edge">
<title>Node5&#45;&gt;Node2</title>
<path fill="none" stroke="midnightblue" d="M226.41,-112.32C242.14,-103.74 266.44,-90.49 284.71,-80.52"/>
<polygon fill="midnightblue" stroke="midnightblue" points="286.53,-83.52 293.63,-75.65 283.18,-77.37 286.53,-83.52"/>
</g>
<!-- Node6 -->
<g id="node6" class="node">
<title>Node6</title>
<g id="a_node6"><a xlink:href="_fan_facade_8h.html" target="_top" xlink:title=" ">
<polygon fill="white" stroke="black" points="0,-56.5 0,-75.5 113,-75.5 113,-56.5 0,-56.5"/>
<text text-anchor="middle" x="56.5" y="-63.5" font-family="Helvetica,sans-Serif" font-size="10.00">graphics/FanFacade.h</text>
</a>
</g>
</g>
<!-- Node5&#45;&gt;Node6 -->
<g id="edge6" class="edge">
<title>Node5&#45;&gt;Node6</title>
<path fill="none" stroke="midnightblue" d="M186.1,-112.44C160.3,-103.4 119.42,-89.06 90.48,-78.92"/>
<polygon fill="midnightblue" stroke="midnightblue" points="91.38,-75.52 80.79,-75.52 89.07,-82.13 91.38,-75.52"/>
</g>
<!-- Node7 -->
<g id="node7" class="node">
<title>Node7</title>
<g id="a_node7"><a xlink:title=" ">
<polygon fill="white" stroke="#bfbfbf" points="131.5,-56.5 131.5,-75.5 229.5,-75.5 229.5,-56.5 131.5,-56.5"/>
<text text-anchor="middle" x="180.5" y="-63.5" font-family="Helvetica,sans-Serif" font-size="10.00">nlohmann/json.hpp</text>
</a>
</g>
</g>
<!-- Node5&#45;&gt;Node7 -->
<g id="edge9" class="edge">
<title>Node5&#45;&gt;Node7</title>
<path fill="none" stroke="midnightblue" d="M205.55,-112.08C201.4,-104.61 195.35,-93.72 190.23,-84.52"/>
<polygon fill="midnightblue" stroke="midnightblue" points="193.28,-82.79 185.36,-75.75 187.16,-86.19 193.28,-82.79"/>
</g>
<!-- Node6&#45;&gt;Node3 -->
<g id="edge7" class="edge">
<title>Node6&#45;&gt;Node3</title>
<path fill="none" stroke="midnightblue" d="M68.87,-56.32C80.66,-48.06 98.63,-35.45 112.64,-25.63"/>
<polygon fill="midnightblue" stroke="midnightblue" points="114.98,-28.26 121.16,-19.65 110.96,-22.53 114.98,-28.26"/>
</g>
<!-- Node6&#45;&gt;Node4 -->
<g id="edge8" class="edge">
<title>Node6&#45;&gt;Node4</title>
<path fill="none" stroke="midnightblue" d="M90.41,-56.44C129.09,-46.68 192.17,-30.76 232.49,-20.59"/>
<polygon fill="midnightblue" stroke="midnightblue" points="233.38,-23.98 242.22,-18.14 231.66,-17.19 233.38,-23.98"/>
</g>
</g>
</svg>
