<?xml version="1.0" encoding="UTF-8" standalone="no"?>
<!DOCTYPE svg PUBLIC "-//W3C//DTD SVG 1.1//EN"
 "http://www.w3.org/Graphics/SVG/1.1/DTD/svg11.dtd">
<!-- Generated by graphviz version 2.47.1 (20210421.1823)
 -->
<!-- Title: include/engine/actions/SetSquadPath.h Pages: 1 -->
<svg width="1542pt" height="722pt"
 viewBox="0.00 0.00 1541.50 722.00" xmlns="http://www.w3.org/2000/svg" xmlns:xlink="http://www.w3.org/1999/xlink">
<g id="graph0" class="graph" transform="scale(1 1) rotate(0) translate(4 718)">
<title>include/engine/actions/SetSquadPath.h</title>
<polygon fill="white" stroke="transparent" points="-4,4 -4,-718 1537.5,-718 1537.5,4 -4,4"/>
<!-- Node1 -->
<g id="node1" class="node">
<title>Node1</title>
<g id="a_node1"><a xlink:title=" ">
<polygon fill="#bfbfbf" stroke="black" points="1420.5,-683.5 1420.5,-713.5 1533.5,-713.5 1533.5,-683.5 1420.5,-683.5"/>
<text text-anchor="start" x="1428.5" y="-701.5" font-family="Helvetica,sans-Serif" font-size="10.00">include/engine/actions</text>
<text text-anchor="middle" x="1477" y="-690.5" font-family="Helvetica,sans-Serif" font-size="10.00">/SetSquadPath.h</text>
</a>
</g>
</g>
<!-- Node2 -->
<g id="node2" class="node">
<title>Node2</title>
<g id="a_node2"><a xlink:href="engine_2_action_8h.html" target="_top" xlink:title=" ">
<polygon fill="white" stroke="black" points="1061.5,-112.5 1061.5,-131.5 1144.5,-131.5 1144.5,-112.5 1061.5,-112.5"/>
<text text-anchor="middle" x="1103" y="-119.5" font-family="Helvetica,sans-Serif" font-size="10.00">engine/Action.h</text>
</a>
</g>
</g>
<!-- Node1&#45;&gt;Node2 -->
<g id="edge1" class="edge">
<title>Node1&#45;&gt;Node2</title>
<path fill="none" stroke="midnightblue" d="M1486.97,-683.31C1500.76,-662.24 1524,-620.97 1524,-582 1524,-582 1524,-582 1524,-401 1524,-225.82 1267.03,-154.68 1154.61,-131.94"/>
<polygon fill="midnightblue" stroke="midnightblue" points="1155.01,-128.45 1144.52,-129.95 1153.65,-135.32 1155.01,-128.45"/>
</g>
<!-- Node5 -->
<g id="node5" class="node">
<title>Node5</title>
<g id="a_node5"><a xlink:href="_squad_8h.html" target="_top" xlink:title=" ">
<polygon fill="white" stroke="black" points="670,-627.5 670,-646.5 806,-646.5 806,-627.5 670,-627.5"/>
<text text-anchor="middle" x="738" y="-634.5" font-family="Helvetica,sans-Serif" font-size="10.00">GameLogic/Squad/Squad.h</text>
</a>
</g>
</g>
<!-- Node1&#45;&gt;Node5 -->
<g id="edge4" class="edge">
<title>Node1&#45;&gt;Node5</title>
<path fill="none" stroke="midnightblue" d="M1420.24,-692.93C1289.24,-682.38 965.6,-656.33 816.06,-644.28"/>
<polygon fill="midnightblue" stroke="midnightblue" points="816.28,-640.79 806.03,-643.48 815.72,-647.77 816.28,-640.79"/>
</g>
<!-- Node6 -->
<g id="node6" class="node">
<title>Node6</title>
<g id="a_node6"><a xlink:href="_cell_8h.html" target="_top" xlink:title=" ">
<polygon fill="white" stroke="black" points="845,-515.5 845,-534.5 939,-534.5 939,-515.5 845,-515.5"/>
<text text-anchor="middle" x="892" y="-522.5" font-family="Helvetica,sans-Serif" font-size="10.00">GameLogic/Cell.h</text>
</a>
</g>
</g>
<!-- Node1&#45;&gt;Node6 -->
<g id="edge87" class="edge">
<title>Node1&#45;&gt;Node6</title>
<path fill="none" stroke="midnightblue" d="M1425.22,-683.47C1308.41,-650.36 1027.29,-567.92 927.65,-537.5"/>
<polygon fill="midnightblue" stroke="midnightblue" points="928.63,-534.14 918.04,-534.56 926.58,-540.84 928.63,-534.14"/>
</g>
<!-- Node3 -->
<g id="node3" class="node">
<title>Node3</title>
<g id="a_node3"><a xlink:title=" ">
<polygon fill="white" stroke="#bfbfbf" points="1253,-56.5 1253,-75.5 1307,-75.5 1307,-56.5 1253,-56.5"/>
<text text-anchor="middle" x="1280" y="-63.5" font-family="Helvetica,sans-Serif" font-size="10.00">iostream</text>
</a>
</g>
</g>
<!-- Node2&#45;&gt;Node3 -->
<g id="edge2" class="edge">
<title>Node2&#45;&gt;Node3</title>
<path fill="none" stroke="midnightblue" d="M1131.05,-112.44C1161.35,-103.2 1209.76,-88.43 1243.12,-78.25"/>
<polygon fill="midnightblue" stroke="midnightblue" points="1244.41,-81.52 1252.96,-75.25 1242.37,-74.82 1244.41,-81.52"/>
</g>
<!-- Node4 -->
<g id="node4" class="node">
<title>Node4</title>
<g id="a_node4"><a xlink:title=" ">
<polygon fill="white" stroke="#bfbfbf" points="765.5,-56.5 765.5,-75.5 816.5,-75.5 816.5,-56.5 765.5,-56.5"/>
<text text-anchor="middle" x="791" y="-63.5" font-family="Helvetica,sans-Serif" font-size="10.00">memory</text>
</a>
</g>
</g>
<!-- Node2&#45;&gt;Node4 -->
<g id="edge3" class="edge">
<title>Node2&#45;&gt;Node4</title>
<path fill="none" stroke="midnightblue" d="M1061.25,-113.77C999.5,-103.09 884.89,-83.25 826.78,-73.19"/>
<polygon fill="midnightblue" stroke="midnightblue" points="827.06,-69.69 816.61,-71.43 825.87,-76.59 827.06,-69.69"/>
</g>
<!-- Node5&#45;&gt;Node6 -->
<g id="edge5" class="edge">
<title>Node5&#45;&gt;Node6</title>
<path fill="none" stroke="midnightblue" d="M733.83,-627.14C733.26,-613.28 740.51,-586.47 757,-571 778.03,-551.27 808.29,-540.09 834.92,-533.81"/>
<polygon fill="midnightblue" stroke="midnightblue" points="835.89,-537.18 844.91,-531.64 834.4,-530.34 835.89,-537.18"/>
</g>
<!-- Node9 -->
<g id="node9" class="node">
<title>Node9</title>
<g id="a_node9"><a xlink:href="gameplay_clickable_game_object_8h.html" target="_top" xlink:title=" ">
<polygon fill="white" stroke="black" points="477.5,-448.5 477.5,-478.5 606.5,-478.5 606.5,-448.5 477.5,-448.5"/>
<text text-anchor="start" x="485.5" y="-466.5" font-family="Helvetica,sans-Serif" font-size="10.00">engine/gameplayClickable</text>
<text text-anchor="middle" x="542" y="-455.5" font-family="Helvetica,sans-Serif" font-size="10.00">GameObject.h</text>
</a>
</g>
</g>
<!-- Node5&#45;&gt;Node9 -->
<g id="edge80" class="edge">
<title>Node5&#45;&gt;Node9</title>
<path fill="none" stroke="midnightblue" d="M728.28,-627.5C698.67,-601.59 609,-523.12 565.78,-485.31"/>
<polygon fill="midnightblue" stroke="midnightblue" points="567.86,-482.48 558.03,-478.53 563.26,-487.75 567.86,-482.48"/>
</g>
<!-- Node12 -->
<g id="node12" class="node">
<title>Node12</title>
<g id="a_node12"><a xlink:href="config_8h.html" target="_top" xlink:title=" ">
<polygon fill="white" stroke="black" points="38.5,-112.5 38.5,-131.5 119.5,-131.5 119.5,-112.5 38.5,-112.5"/>
<text text-anchor="middle" x="79" y="-119.5" font-family="Helvetica,sans-Serif" font-size="10.00">engine/config.h</text>
</a>
</g>
</g>
<!-- Node5&#45;&gt;Node12 -->
<g id="edge84" class="edge">
<title>Node5&#45;&gt;Node12</title>
<path fill="none" stroke="midnightblue" d="M669.86,-631.83C500.12,-620.55 72,-586.13 72,-526 72,-526 72,-526 72,-233 72,-200.88 75.01,-163.6 77.08,-141.73"/>
<polygon fill="midnightblue" stroke="midnightblue" points="80.59,-141.84 78.08,-131.55 73.62,-141.15 80.59,-141.84"/>
</g>
<!-- Node15 -->
<g id="node15" class="node">
<title>Node15</title>
<g id="a_node15"><a xlink:href="_facade_8h.html" target="_top" xlink:title=" ">
<polygon fill="white" stroke="black" points="895,-0.5 895,-19.5 951,-19.5 951,-0.5 895,-0.5"/>
<text text-anchor="middle" x="923" y="-7.5" font-family="Helvetica,sans-Serif" font-size="10.00">Facade.h</text>
</a>
</g>
</g>
<!-- Node5&#45;&gt;Node15 -->
<g id="edge85" class="edge">
<title>Node5&#45;&gt;Node15</title>
<path fill="none" stroke="midnightblue" d="M806.16,-636.44C936.68,-634.04 1225.98,-612.72 1418,-479 1515.03,-411.43 1524,-353.24 1524,-235 1524,-235 1524,-235 1524,-121 1524,-77.56 1490.91,-73.17 1451,-56 1362.86,-18.08 1067.82,-12.08 961.56,-11.16"/>
<polygon fill="midnightblue" stroke="midnightblue" points="961.32,-7.66 951.29,-11.08 961.26,-14.66 961.32,-7.66"/>
</g>
<!-- Node31 -->
<g id="node31" class="node">
<title>Node31</title>
<g id="a_node31"><a xlink:href="_unit_8h.html" target="_top" xlink:title=" ">
<polygon fill="white" stroke="black" points="298,-280.5 298,-299.5 340,-299.5 340,-280.5 298,-280.5"/>
<text text-anchor="middle" x="319" y="-287.5" font-family="Helvetica,sans-Serif" font-size="10.00">Unit.h</text>
</a>
</g>
</g>
<!-- Node5&#45;&gt;Node31 -->
<g id="edge79" class="edge">
<title>Node5&#45;&gt;Node31</title>
<path fill="none" stroke="midnightblue" d="M669.69,-632.51C548.77,-624.31 310,-598.67 310,-526 310,-526 310,-526 310,-401 310,-368.8 310,-331.3 312.57,-309.45"/>
<polygon fill="midnightblue" stroke="midnightblue" points="316.03,-309.99 314.16,-299.56 309.12,-308.87 316.03,-309.99"/>
</g>
<!-- Node42 -->
<g id="node42" class="node">
<title>Node42</title>
<g id="a_node42"><a xlink:href="_player_8h.html" target="_top" xlink:title=" ">
<polygon fill="white" stroke="black" points="356,-336.5 356,-355.5 460,-355.5 460,-336.5 356,-336.5"/>
<text text-anchor="middle" x="408" y="-343.5" font-family="Helvetica,sans-Serif" font-size="10.00">GameLogic/Player.h</text>
</a>
</g>
</g>
<!-- Node5&#45;&gt;Node42 -->
<g id="edge86" class="edge">
<title>Node5&#45;&gt;Node42</title>
<path fill="none" stroke="midnightblue" d="M670.82,-627.46C574.33,-613.28 408,-580.88 408,-526 408,-526 408,-526 408,-462.5 408,-428.36 408,-388.55 408,-365.71"/>
<polygon fill="midnightblue" stroke="midnightblue" points="411.5,-365.69 408,-355.69 404.5,-365.69 411.5,-365.69"/>
</g>
<!-- Node43 -->
<g id="node43" class="node">
<title>Node43</title>
<g id="a_node43"><a xlink:href="_game_logic_2_squad_2_action_8h.html" target="_top" xlink:title=" ">
<polygon fill="white" stroke="black" points="775,-571.5 775,-590.5 911,-590.5 911,-571.5 775,-571.5"/>
<text text-anchor="middle" x="843" y="-578.5" font-family="Helvetica,sans-Serif" font-size="10.00">GameLogic/Squad/Action.h</text>
</a>
</g>
</g>
<!-- Node5&#45;&gt;Node43 -->
<g id="edge81" class="edge">
<title>Node5&#45;&gt;Node43</title>
<path fill="none" stroke="midnightblue" d="M749.76,-627.32C764.86,-618.59 791.02,-605 811.9,-594.98"/>
<polygon fill="midnightblue" stroke="midnightblue" points="813.51,-598.09 821.06,-590.65 810.52,-591.76 813.51,-598.09"/>
</g>
<!-- Node6&#45;&gt;Node1 -->
<g id="edge44" class="edge">
<title>Node6&#45;&gt;Node1</title>
<path fill="none" stroke="midnightblue" d="M924.36,-534.56C1020.44,-561.44 1304.17,-644.51 1423.38,-680.54"/>
<polygon fill="midnightblue" stroke="midnightblue" points="1422.45,-683.92 1433.04,-683.47 1424.48,-677.22 1422.45,-683.92"/>
</g>
<!-- Node6&#45;&gt;Node3 -->
<g id="edge29" class="edge">
<title>Node6&#45;&gt;Node3</title>
<path fill="none" stroke="midnightblue" d="M939.29,-523.21C1038.72,-520.9 1265.97,-512.06 1335,-479 1377.8,-458.5 1410,-450.46 1410,-403 1410,-403 1410,-403 1410,-177 1410,-127.12 1353.54,-95.21 1315.04,-79.25"/>
<polygon fill="midnightblue" stroke="midnightblue" points="1316.27,-75.97 1305.68,-75.53 1313.69,-82.48 1316.27,-75.97"/>
</g>
<!-- Node6&#45;&gt;Node5 -->
<g id="edge28" class="edge">
<title>Node6&#45;&gt;Node5</title>
<path fill="none" stroke="midnightblue" d="M848.08,-534.54C824.04,-540.94 795.24,-552.01 775,-571 761.73,-583.45 754.45,-603.24 748.92,-617.72"/>
<polygon fill="midnightblue" stroke="midnightblue" points="745.61,-616.55 745.14,-627.14 752.11,-619.16 745.61,-616.55"/>
</g>
<!-- Node7 -->
<g id="node7" class="node">
<title>Node7</title>
<g id="a_node7"><a xlink:title=" ">
<polygon fill="white" stroke="#bfbfbf" points="1346.5,-336.5 1346.5,-355.5 1381.5,-355.5 1381.5,-336.5 1346.5,-336.5"/>
<text text-anchor="middle" x="1364" y="-343.5" font-family="Helvetica,sans-Serif" font-size="10.00">map</text>
</a>
</g>
</g>
<!-- Node6&#45;&gt;Node7 -->
<g id="edge6" class="edge">
<title>Node6&#45;&gt;Node7</title>
<path fill="none" stroke="midnightblue" d="M939.1,-520.92C1017.14,-515.25 1169.45,-501.63 1218,-479 1276.66,-451.66 1328.44,-392.52 1351.41,-363.6"/>
<polygon fill="midnightblue" stroke="midnightblue" points="1354.21,-365.7 1357.59,-355.66 1348.68,-361.4 1354.21,-365.7"/>
</g>
<!-- Node8 -->
<g id="node8" class="node">
<title>Node8</title>
<g id="a_node8"><a xlink:title=" ">
<polygon fill="white" stroke="#bfbfbf" points="1296,-454 1296,-473 1326,-473 1326,-454 1296,-454"/>
<text text-anchor="middle" x="1311" y="-461" font-family="Helvetica,sans-Serif" font-size="10.00">set</text>
</a>
</g>
</g>
<!-- Node6&#45;&gt;Node8 -->
<g id="edge7" class="edge">
<title>Node6&#45;&gt;Node8</title>
<path fill="none" stroke="midnightblue" d="M939.28,-523.8C1013.72,-522.33 1162.13,-514.68 1282,-479 1283.67,-478.5 1285.36,-477.91 1287.04,-477.26"/>
<polygon fill="midnightblue" stroke="midnightblue" points="1288.68,-480.36 1296.36,-473.06 1285.8,-473.98 1288.68,-480.36"/>
</g>
<!-- Node6&#45;&gt;Node9 -->
<g id="edge8" class="edge">
<title>Node6&#45;&gt;Node9</title>
<path fill="none" stroke="midnightblue" d="M844.96,-516.44C790.88,-507.68 699.46,-492.71 621,-479 619.54,-478.74 618.07,-478.49 616.58,-478.22"/>
<polygon fill="midnightblue" stroke="midnightblue" points="617.11,-474.76 606.65,-476.46 615.89,-481.66 617.11,-474.76"/>
</g>
<!-- Node6&#45;&gt;Node12 -->
<g id="edge26" class="edge">
<title>Node6&#45;&gt;Node12</title>
<path fill="none" stroke="midnightblue" d="M844.84,-521.71C675.77,-512.89 110,-477.79 110,-403 110,-403 110,-403 110,-233 110,-199.41 96.44,-162.14 87.26,-140.75"/>
<polygon fill="midnightblue" stroke="midnightblue" points="90.45,-139.31 83.18,-131.61 84.06,-142.17 90.45,-139.31"/>
</g>
<!-- Node6&#45;&gt;Node15 -->
<g id="edge27" class="edge">
<title>Node6&#45;&gt;Node15</title>
<path fill="none" stroke="midnightblue" d="M939.09,-523.89C1045.6,-522.97 1301.67,-516.76 1378,-479 1419.16,-458.64 1448,-448.92 1448,-403 1448,-403 1448,-403 1448,-345 1448,-269.31 1486,-254.69 1486,-179 1486,-179 1486,-179 1486,-121 1486,-13.84 1088.16,-9.11 961.34,-10.33"/>
<polygon fill="midnightblue" stroke="midnightblue" points="961.26,-6.83 951.31,-10.44 961.34,-13.83 961.26,-6.83"/>
</g>
<!-- Node17 -->
<g id="node17" class="node">
<title>Node17</title>
<g id="a_node17"><a xlink:href="cellgen_8h.html" target="_top" xlink:title=" ">
<polygon fill="white" stroke="black" points="1168.5,-392.5 1168.5,-411.5 1239.5,-411.5 1239.5,-392.5 1168.5,-392.5"/>
<text text-anchor="middle" x="1204" y="-399.5" font-family="Helvetica,sans-Serif" font-size="10.00">util/cellgen.h</text>
</a>
</g>
</g>
<!-- Node6&#45;&gt;Node17 -->
<g id="edge17" class="edge">
<title>Node6&#45;&gt;Node17</title>
<path fill="none" stroke="midnightblue" d="M939.23,-523.95C1016.24,-522.78 1163.71,-515.67 1198,-479 1212.16,-463.85 1211.24,-438.78 1208.39,-421.6"/>
<polygon fill="midnightblue" stroke="midnightblue" points="1211.79,-420.75 1206.38,-411.64 1204.92,-422.13 1211.79,-420.75"/>
</g>
<!-- Node20 -->
<g id="node20" class="node">
<title>Node20</title>
<g id="a_node20"><a xlink:href="_all_flags_8h.html" target="_top" xlink:title=" ">
<polygon fill="white" stroke="black" points="436.5,-224.5 436.5,-243.5 495.5,-243.5 495.5,-224.5 436.5,-224.5"/>
<text text-anchor="middle" x="466" y="-231.5" font-family="Helvetica,sans-Serif" font-size="10.00">AllFlags.h</text>
</a>
</g>
</g>
<!-- Node6&#45;&gt;Node20 -->
<g id="edge21" class="edge">
<title>Node6&#45;&gt;Node20</title>
<path fill="none" stroke="midnightblue" d="M844.7,-519.67C813.17,-514.55 772.61,-503.38 745,-479 713.23,-450.96 733.51,-424.23 706,-392 645.55,-321.16 545.33,-270.03 495.71,-247.62"/>
<polygon fill="midnightblue" stroke="midnightblue" points="497.05,-244.39 486.49,-243.53 494.21,-250.78 497.05,-244.39"/>
</g>
<!-- Node23 -->
<g id="node23" class="node">
<title>Node23</title>
<g id="a_node23"><a xlink:href="geometry_8h.html" target="_top" xlink:title=" ">
<polygon fill="white" stroke="black" points="1109,-454 1109,-473 1189,-473 1189,-454 1109,-454"/>
<text text-anchor="middle" x="1149" y="-461" font-family="Helvetica,sans-Serif" font-size="10.00">util/geometry.h</text>
</a>
</g>
</g>
<!-- Node6&#45;&gt;Node23 -->
<g id="edge30" class="edge">
<title>Node6&#45;&gt;Node23</title>
<path fill="none" stroke="midnightblue" d="M932.95,-515.48C974.04,-506.8 1039.08,-492.7 1095,-479 1099.36,-477.93 1103.91,-476.78 1108.43,-475.6"/>
<polygon fill="midnightblue" stroke="midnightblue" points="1109.44,-478.95 1118.22,-473.02 1107.66,-472.18 1109.44,-478.95"/>
</g>
<!-- Node24 -->
<g id="node24" class="node">
<title>Node24</title>
<g id="a_node24"><a xlink:href="_none_8h.html" target="_top" xlink:title=" ">
<polygon fill="white" stroke="black" points="1046.5,-168.5 1046.5,-187.5 1159.5,-187.5 1159.5,-168.5 1046.5,-168.5"/>
<text text-anchor="middle" x="1103" y="-175.5" font-family="Helvetica,sans-Serif" font-size="10.00">engine/actions/None.h</text>
</a>
</g>
</g>
<!-- Node6&#45;&gt;Node24 -->
<g id="edge33" class="edge">
<title>Node6&#45;&gt;Node24</title>
<path fill="none" stroke="midnightblue" d="M900.45,-515.18C927.98,-486.14 1016.65,-390.25 1075,-300 1090.11,-276.63 1096.61,-271.08 1103,-244 1106.61,-228.71 1106.29,-210.83 1105.25,-197.69"/>
<polygon fill="midnightblue" stroke="midnightblue" points="1108.72,-197.16 1104.23,-187.56 1101.75,-197.86 1108.72,-197.16"/>
</g>
<!-- Node25 -->
<g id="node25" class="node">
<title>Node25</title>
<g id="a_node25"><a xlink:href="game_controller_8h.html" target="_top" xlink:title=" ">
<polygon fill="white" stroke="black" points="916.5,-280.5 916.5,-299.5 1037.5,-299.5 1037.5,-280.5 916.5,-280.5"/>
<text text-anchor="middle" x="977" y="-287.5" font-family="Helvetica,sans-Serif" font-size="10.00">engine/gameController.h</text>
</a>
</g>
</g>
<!-- Node6&#45;&gt;Node25 -->
<g id="edge35" class="edge">
<title>Node6&#45;&gt;Node25</title>
<path fill="none" stroke="midnightblue" d="M895.27,-515.27C904.57,-490.41 931.91,-417.11 954,-356 959.66,-340.34 965.96,-322.52 970.53,-309.5"/>
<polygon fill="midnightblue" stroke="midnightblue" points="973.91,-310.44 973.91,-299.84 967.3,-308.12 973.91,-310.44"/>
</g>
<!-- Node29 -->
<g id="node29" class="node">
<title>Node29</title>
<g id="a_node29"><a xlink:href="_all_units_8h.html" target="_top" xlink:title=" ">
<polygon fill="white" stroke="black" points="638.5,-392.5 638.5,-411.5 697.5,-411.5 697.5,-392.5 638.5,-392.5"/>
<text text-anchor="middle" x="668" y="-399.5" font-family="Helvetica,sans-Serif" font-size="10.00">AllUnits.h</text>
</a>
</g>
</g>
<!-- Node6&#45;&gt;Node29 -->
<g id="edge45" class="edge">
<title>Node6&#45;&gt;Node29</title>
<path fill="none" stroke="midnightblue" d="M844.83,-522.19C805.76,-518.52 750.6,-508.07 712,-479 692.64,-464.42 680.35,-438.63 673.82,-421.18"/>
<polygon fill="midnightblue" stroke="midnightblue" points="677.07,-419.87 670.49,-411.57 670.46,-422.17 677.07,-419.87"/>
</g>
<!-- Node36 -->
<g id="node36" class="node">
<title>Node36</title>
<g id="a_node36"><a xlink:href="_all_squad_templates_8h.html" target="_top" xlink:title=" ">
<polygon fill="white" stroke="black" points="754.5,-454 754.5,-473 863.5,-473 863.5,-454 754.5,-454"/>
<text text-anchor="middle" x="809" y="-461" font-family="Helvetica,sans-Serif" font-size="10.00">AllSquadTemplates.h</text>
</a>
</g>
</g>
<!-- Node6&#45;&gt;Node36 -->
<g id="edge61" class="edge">
<title>Node6&#45;&gt;Node36</title>
<path fill="none" stroke="midnightblue" d="M880.11,-515.48C866.8,-505.93 845,-490.31 829.04,-478.87"/>
<polygon fill="midnightblue" stroke="midnightblue" points="831.04,-475.99 820.87,-473.01 826.96,-481.68 831.04,-475.99"/>
</g>
<!-- Node6&#45;&gt;Node42 -->
<g id="edge78" class="edge">
<title>Node6&#45;&gt;Node42</title>
<path fill="none" stroke="midnightblue" d="M844.98,-524.72C747.45,-525.33 527.28,-521.77 468,-479 448.47,-464.91 424.61,-398.12 413.81,-365.3"/>
<polygon fill="midnightblue" stroke="midnightblue" points="417.08,-364.03 410.67,-355.59 410.42,-366.19 417.08,-364.03"/>
</g>
<!-- Node10 -->
<g id="node10" class="node">
<title>Node10</title>
<g id="a_node10"><a xlink:href="game_object_8h.html" target="_top" xlink:title=" ">
<polygon fill="white" stroke="black" points="621.5,-168.5 621.5,-187.5 698.5,-187.5 698.5,-168.5 621.5,-168.5"/>
<text text-anchor="middle" x="660" y="-175.5" font-family="Helvetica,sans-Serif" font-size="10.00">gameObject.h</text>
</a>
</g>
</g>
<!-- Node9&#45;&gt;Node10 -->
<g id="edge9" class="edge">
<title>Node9&#45;&gt;Node10</title>
<path fill="none" stroke="midnightblue" d="M546.05,-448.41C551.89,-426.79 562,-384.04 562,-347 562,-347 562,-347 562,-289 562,-258.9 562.34,-247.62 581,-224 592.43,-209.54 609.86,-198.91 625.45,-191.62"/>
<polygon fill="midnightblue" stroke="midnightblue" points="627.09,-194.73 634.85,-187.51 624.29,-188.31 627.09,-194.73"/>
</g>
<!-- Node10&#45;&gt;Node2 -->
<g id="edge16" class="edge">
<title>Node10&#45;&gt;Node2</title>
<path fill="none" stroke="midnightblue" d="M698.54,-172.3C778.3,-162.58 961.51,-140.25 1051.38,-129.29"/>
<polygon fill="midnightblue" stroke="midnightblue" points="1051.84,-132.76 1061.34,-128.08 1050.99,-125.81 1051.84,-132.76"/>
</g>
<!-- Node11 -->
<g id="node11" class="node">
<title>Node11</title>
<g id="a_node11"><a xlink:title=" ">
<polygon fill="white" stroke="#bfbfbf" points="723.5,-112.5 723.5,-131.5 752.5,-131.5 752.5,-112.5 723.5,-112.5"/>
<text text-anchor="middle" x="738" y="-119.5" font-family="Helvetica,sans-Serif" font-size="10.00">list</text>
</a>
</g>
</g>
<!-- Node10&#45;&gt;Node11 -->
<g id="edge10" class="edge">
<title>Node10&#45;&gt;Node11</title>
<path fill="none" stroke="midnightblue" d="M672.53,-168.32C684.59,-159.98 703.03,-147.21 717.27,-137.35"/>
<polygon fill="midnightblue" stroke="midnightblue" points="719.27,-140.22 725.5,-131.65 715.28,-134.47 719.27,-140.22"/>
</g>
<!-- Node10&#45;&gt;Node12 -->
<g id="edge11" class="edge">
<title>Node10&#45;&gt;Node12</title>
<path fill="none" stroke="midnightblue" d="M621.43,-173.42C519.8,-163.97 244.66,-138.4 130.11,-127.75"/>
<polygon fill="midnightblue" stroke="midnightblue" points="130.15,-124.24 119.87,-126.8 129.5,-131.21 130.15,-124.24"/>
</g>
<!-- Node13 -->
<g id="node13" class="node">
<title>Node13</title>
<g id="a_node13"><a xlink:href="_s_f_m_l_facade_8h.html" target="_top" xlink:title=" ">
<polygon fill="white" stroke="black" points="116.5,-56.5 116.5,-75.5 239.5,-75.5 239.5,-56.5 116.5,-56.5"/>
<text text-anchor="middle" x="178" y="-63.5" font-family="Helvetica,sans-Serif" font-size="10.00">graphics/SFMLFacade.h</text>
</a>
</g>
</g>
<!-- Node12&#45;&gt;Node13 -->
<g id="edge12" class="edge">
<title>Node12&#45;&gt;Node13</title>
<path fill="none" stroke="midnightblue" d="M94.91,-112.32C110.64,-103.74 134.94,-90.49 153.21,-80.52"/>
<polygon fill="midnightblue" stroke="midnightblue" points="155.03,-83.52 162.13,-75.65 151.68,-77.37 155.03,-83.52"/>
</g>
<!-- Node16 -->
<g id="node16" class="node">
<title>Node16</title>
<g id="a_node16"><a xlink:title=" ">
<polygon fill="white" stroke="#bfbfbf" points="0,-56.5 0,-75.5 98,-75.5 98,-56.5 0,-56.5"/>
<text text-anchor="middle" x="49" y="-63.5" font-family="Helvetica,sans-Serif" font-size="10.00">nlohmann/json.hpp</text>
</a>
</g>
</g>
<!-- Node12&#45;&gt;Node16 -->
<g id="edge15" class="edge">
<title>Node12&#45;&gt;Node16</title>
<path fill="none" stroke="midnightblue" d="M74.05,-112.08C69.9,-104.61 63.85,-93.72 58.73,-84.52"/>
<polygon fill="midnightblue" stroke="midnightblue" points="61.78,-82.79 53.86,-75.75 55.66,-86.19 61.78,-82.79"/>
</g>
<!-- Node14 -->
<g id="node14" class="node">
<title>Node14</title>
<g id="a_node14"><a xlink:title=" ">
<polygon fill="white" stroke="#bfbfbf" points="126,-0.5 126,-19.5 230,-19.5 230,-0.5 126,-0.5"/>
<text text-anchor="middle" x="178" y="-7.5" font-family="Helvetica,sans-Serif" font-size="10.00">SFML/Graphics.hpp</text>
</a>
</g>
</g>
<!-- Node13&#45;&gt;Node14 -->
<g id="edge13" class="edge">
<title>Node13&#45;&gt;Node14</title>
<path fill="none" stroke="midnightblue" d="M178,-56.08C178,-49.01 178,-38.86 178,-29.99"/>
<polygon fill="midnightblue" stroke="midnightblue" points="181.5,-29.75 178,-19.75 174.5,-29.75 181.5,-29.75"/>
</g>
<!-- Node13&#45;&gt;Node15 -->
<g id="edge14" class="edge">
<title>Node13&#45;&gt;Node15</title>
<path fill="none" stroke="midnightblue" d="M239.6,-60.54C388.33,-49.75 763.69,-22.55 884.74,-13.77"/>
<polygon fill="midnightblue" stroke="midnightblue" points="885.27,-17.24 894.99,-13.03 884.76,-10.26 885.27,-17.24"/>
</g>
<!-- Node17&#45;&gt;Node7 -->
<g id="edge19" class="edge">
<title>Node17&#45;&gt;Node7</title>
<path fill="none" stroke="midnightblue" d="M1229.35,-392.44C1258.52,-382.6 1306.24,-366.49 1336.34,-356.33"/>
<polygon fill="midnightblue" stroke="midnightblue" points="1337.84,-359.52 1346.2,-353.01 1335.6,-352.89 1337.84,-359.52"/>
</g>
<!-- Node18 -->
<g id="node18" class="node">
<title>Node18</title>
<g id="a_node18"><a xlink:title=" ">
<polygon fill="white" stroke="#bfbfbf" points="958,-112.5 958,-131.5 1002,-131.5 1002,-112.5 958,-112.5"/>
<text text-anchor="middle" x="980" y="-119.5" font-family="Helvetica,sans-Serif" font-size="10.00">vector</text>
</a>
</g>
</g>
<!-- Node17&#45;&gt;Node18 -->
<g id="edge18" class="edge">
<title>Node17&#45;&gt;Node18</title>
<path fill="none" stroke="midnightblue" d="M1200.66,-392.2C1197.45,-383.24 1192.82,-368.88 1191,-356 1189.75,-347.2 1190.03,-344.84 1191,-336 1192.79,-319.71 1196.99,-316.27 1199,-300 1206.18,-241.76 1239.14,-213.43 1202,-168 1190.05,-153.38 1071.09,-135.37 1012.4,-127.29"/>
<polygon fill="midnightblue" stroke="midnightblue" points="1012.57,-123.78 1002.19,-125.89 1011.62,-130.71 1012.57,-123.78"/>
</g>
<!-- Node19 -->
<g id="node19" class="node">
<title>Node19</title>
<g id="a_node19"><a xlink:title=" ">
<polygon fill="white" stroke="#bfbfbf" points="1200,-336.5 1200,-355.5 1328,-355.5 1328,-336.5 1200,-336.5"/>
<text text-anchor="middle" x="1264" y="-343.5" font-family="Helvetica,sans-Serif" font-size="10.00">scanline_triangulation.hpp</text>
</a>
</g>
</g>
<!-- Node17&#45;&gt;Node19 -->
<g id="edge20" class="edge">
<title>Node17&#45;&gt;Node19</title>
<path fill="none" stroke="midnightblue" d="M1213.64,-392.32C1222.51,-384.34 1235.87,-372.31 1246.61,-362.65"/>
<polygon fill="midnightblue" stroke="midnightblue" points="1249.09,-365.13 1254.18,-355.83 1244.41,-359.92 1249.09,-365.13"/>
</g>
<!-- Node20&#45;&gt;Node4 -->
<g id="edge25" class="edge">
<title>Node20&#45;&gt;Node4</title>
<path fill="none" stroke="midnightblue" d="M468.2,-224.1C472.08,-210.19 481.45,-183.3 499,-168 574.52,-102.16 695.29,-78.63 755.07,-70.72"/>
<polygon fill="midnightblue" stroke="midnightblue" points="755.67,-74.17 765.15,-69.46 754.8,-67.22 755.67,-74.17"/>
</g>
<!-- Node21 -->
<g id="node21" class="node">
<title>Node21</title>
<g id="a_node21"><a xlink:href="_flag_8h.html" target="_top" xlink:title=" ">
<polygon fill="white" stroke="black" points="508.5,-168.5 508.5,-187.5 551.5,-187.5 551.5,-168.5 508.5,-168.5"/>
<text text-anchor="middle" x="530" y="-175.5" font-family="Helvetica,sans-Serif" font-size="10.00">Flag.h</text>
</a>
</g>
</g>
<!-- Node20&#45;&gt;Node21 -->
<g id="edge22" class="edge">
<title>Node20&#45;&gt;Node21</title>
<path fill="none" stroke="midnightblue" d="M476.28,-224.32C485.84,-216.26 500.28,-204.08 511.78,-194.37"/>
<polygon fill="midnightblue" stroke="midnightblue" points="514.14,-196.96 519.53,-187.83 509.63,-191.61 514.14,-196.96"/>
</g>
<!-- Node21&#45;&gt;Node18 -->
<g id="edge23" class="edge">
<title>Node21&#45;&gt;Node18</title>
<path fill="none" stroke="midnightblue" d="M551.7,-174.4C624.68,-165.64 861.45,-137.23 947.97,-126.84"/>
<polygon fill="midnightblue" stroke="midnightblue" points="948.47,-130.31 957.99,-125.64 947.64,-123.36 948.47,-130.31"/>
</g>
<!-- Node22 -->
<g id="node22" class="node">
<title>Node22</title>
<g id="a_node22"><a xlink:title=" ">
<polygon fill="white" stroke="#bfbfbf" points="410.5,-112.5 410.5,-131.5 451.5,-131.5 451.5,-112.5 410.5,-112.5"/>
<text text-anchor="middle" x="431" y="-119.5" font-family="Helvetica,sans-Serif" font-size="10.00">string</text>
</a>
</g>
</g>
<!-- Node21&#45;&gt;Node22 -->
<g id="edge24" class="edge">
<title>Node21&#45;&gt;Node22</title>
<path fill="none" stroke="midnightblue" d="M514.09,-168.32C498.36,-159.74 474.06,-146.49 455.79,-136.52"/>
<polygon fill="midnightblue" stroke="midnightblue" points="457.32,-133.37 446.87,-131.65 453.97,-139.52 457.32,-133.37"/>
</g>
<!-- Node23&#45;&gt;Node17 -->
<g id="edge32" class="edge">
<title>Node23&#45;&gt;Node17</title>
<path fill="none" stroke="midnightblue" d="M1156.88,-453.98C1165.29,-444.87 1178.82,-430.24 1189.23,-418.98"/>
<polygon fill="midnightblue" stroke="midnightblue" points="1191.92,-421.23 1196.13,-411.51 1186.78,-416.48 1191.92,-421.23"/>
</g>
<!-- Node23&#45;&gt;Node18 -->
<g id="edge31" class="edge">
<title>Node23&#45;&gt;Node18</title>
<path fill="none" stroke="midnightblue" d="M1150.24,-453.83C1156.76,-407.56 1186.13,-190.98 1168,-168 1158.33,-155.74 1063.29,-137.51 1012.17,-128.48"/>
<polygon fill="midnightblue" stroke="midnightblue" points="1012.73,-125.02 1002.27,-126.75 1011.52,-131.92 1012.73,-125.02"/>
</g>
<!-- Node24&#45;&gt;Node2 -->
<g id="edge34" class="edge">
<title>Node24&#45;&gt;Node2</title>
<path fill="none" stroke="midnightblue" d="M1103,-168.08C1103,-161.01 1103,-150.86 1103,-141.99"/>
<polygon fill="midnightblue" stroke="midnightblue" points="1106.5,-141.75 1103,-131.75 1099.5,-141.75 1106.5,-141.75"/>
</g>
<!-- Node25&#45;&gt;Node10 -->
<g id="edge37" class="edge">
<title>Node25&#45;&gt;Node10</title>
<path fill="none" stroke="midnightblue" d="M934.14,-280.44C897.88,-272.65 844.81,-259.94 800,-244 758.44,-229.22 712.45,-206.57 684.91,-192.29"/>
<polygon fill="midnightblue" stroke="midnightblue" points="686.45,-189.15 675.97,-187.61 683.21,-195.35 686.45,-189.15"/>
</g>
<!-- Node25&#45;&gt;Node11 -->
<g id="edge36" class="edge">
<title>Node25&#45;&gt;Node11</title>
<path fill="none" stroke="midnightblue" d="M950.07,-280.41C927.88,-272.68 896.08,-260.07 871,-244 822.83,-213.13 775.46,-164.44 752.44,-139.27"/>
<polygon fill="midnightblue" stroke="midnightblue" points="754.9,-136.77 745.6,-131.7 749.7,-141.46 754.9,-136.77"/>
</g>
<!-- Node26 -->
<g id="node26" class="node">
<title>Node26</title>
<g id="a_node26"><a xlink:href="_network_manager_8h.html" target="_top" xlink:title=" ">
<polygon fill="white" stroke="black" points="948,-224.5 948,-243.5 1078,-243.5 1078,-224.5 948,-224.5"/>
<text text-anchor="middle" x="1013" y="-231.5" font-family="Helvetica,sans-Serif" font-size="10.00">engine/NetworkManager.h</text>
</a>
</g>
</g>
<!-- Node25&#45;&gt;Node26 -->
<g id="edge38" class="edge">
<title>Node25&#45;&gt;Node26</title>
<path fill="none" stroke="midnightblue" d="M982.94,-280.08C987.98,-272.53 995.34,-261.49 1001.51,-252.23"/>
<polygon fill="midnightblue" stroke="midnightblue" points="1004.53,-254.01 1007.17,-243.75 998.71,-250.13 1004.53,-254.01"/>
</g>
<!-- Node28 -->
<g id="node28" class="node">
<title>Node28</title>
<g id="a_node28"><a xlink:title=" ">
<polygon fill="white" stroke="#bfbfbf" points="880.5,-224.5 880.5,-243.5 929.5,-243.5 929.5,-224.5 880.5,-224.5"/>
<text text-anchor="middle" x="905" y="-231.5" font-family="Helvetica,sans-Serif" font-size="10.00">random</text>
</a>
</g>
</g>
<!-- Node25&#45;&gt;Node28 -->
<g id="edge43" class="edge">
<title>Node25&#45;&gt;Node28</title>
<path fill="none" stroke="midnightblue" d="M965.43,-280.32C954.58,-272.18 938.12,-259.84 925.12,-250.09"/>
<polygon fill="midnightblue" stroke="midnightblue" points="926.88,-247.03 916.78,-243.83 922.68,-252.63 926.88,-247.03"/>
</g>
<!-- Node26&#45;&gt;Node10 -->
<g id="edge39" class="edge">
<title>Node26&#45;&gt;Node10</title>
<path fill="none" stroke="midnightblue" d="M957.07,-224.44C888.51,-213.96 773.47,-196.36 708.5,-186.42"/>
<polygon fill="midnightblue" stroke="midnightblue" points="708.93,-182.94 698.52,-184.89 707.87,-189.86 708.93,-182.94"/>
</g>
<!-- Node26&#45;&gt;Node18 -->
<g id="edge41" class="edge">
<title>Node26&#45;&gt;Node18</title>
<path fill="none" stroke="midnightblue" d="M1010.41,-224.37C1005.06,-206.54 992.69,-165.3 985.48,-141.27"/>
<polygon fill="midnightblue" stroke="midnightblue" points="988.8,-140.16 982.58,-131.59 982.1,-142.18 988.8,-140.16"/>
</g>
<!-- Node26&#45;&gt;Node24 -->
<g id="edge40" class="edge">
<title>Node26&#45;&gt;Node24</title>
<path fill="none" stroke="midnightblue" d="M1027.46,-224.32C1041.5,-215.9 1063.05,-202.97 1079.54,-193.07"/>
<polygon fill="midnightblue" stroke="midnightblue" points="1081.8,-195.8 1088.58,-187.65 1078.2,-189.8 1081.8,-195.8"/>
</g>
<!-- Node27 -->
<g id="node27" class="node">
<title>Node27</title>
<g id="a_node27"><a xlink:title=" ">
<polygon fill="white" stroke="#bfbfbf" points="880.5,-168.5 880.5,-187.5 951.5,-187.5 951.5,-168.5 880.5,-168.5"/>
<text text-anchor="middle" x="916" y="-175.5" font-family="Helvetica,sans-Serif" font-size="10.00">sys/socket.h</text>
</a>
</g>
</g>
<!-- Node26&#45;&gt;Node27 -->
<g id="edge42" class="edge">
<title>Node26&#45;&gt;Node27</title>
<path fill="none" stroke="midnightblue" d="M997.42,-224.32C982,-215.74 958.19,-202.49 940.29,-192.52"/>
<polygon fill="midnightblue" stroke="midnightblue" points="941.99,-189.46 931.55,-187.65 938.58,-195.58 941.99,-189.46"/>
</g>
<!-- Node30 -->
<g id="node30" class="node">
<title>Node30</title>
<g id="a_node30"><a xlink:href="_factory_8h.html" target="_top" xlink:title=" ">
<polygon fill="white" stroke="black" points="478,-336.5 478,-355.5 534,-355.5 534,-336.5 478,-336.5"/>
<text text-anchor="middle" x="506" y="-343.5" font-family="Helvetica,sans-Serif" font-size="10.00">Factory.h</text>
</a>
</g>
</g>
<!-- Node29&#45;&gt;Node30 -->
<g id="edge46" class="edge">
<title>Node29&#45;&gt;Node30</title>
<path fill="none" stroke="midnightblue" d="M642.33,-392.44C615.08,-383.36 571.82,-368.94 541.35,-358.78"/>
<polygon fill="midnightblue" stroke="midnightblue" points="542.14,-355.36 531.55,-355.52 539.93,-362 542.14,-355.36"/>
</g>
<!-- Node30&#45;&gt;Node6 -->
<g id="edge48" class="edge">
<title>Node30&#45;&gt;Node6</title>
<path fill="none" stroke="midnightblue" d="M514.68,-355.7C538.93,-379.49 610.41,-446.02 683,-479 731.65,-501.1 791.67,-512.58 834.9,-518.39"/>
<polygon fill="midnightblue" stroke="midnightblue" points="834.59,-521.88 844.95,-519.68 835.48,-514.93 834.59,-521.88"/>
</g>
<!-- Node30&#45;&gt;Node10 -->
<g id="edge60" class="edge">
<title>Node30&#45;&gt;Node10</title>
<path fill="none" stroke="midnightblue" d="M506.59,-336.44C508.54,-314.74 516.55,-257 548,-224 564.86,-206.31 589.61,-195.4 611.56,-188.76"/>
<polygon fill="midnightblue" stroke="midnightblue" points="612.72,-192.07 621.4,-186 610.83,-185.33 612.72,-192.07"/>
</g>
<!-- Node30&#45;&gt;Node22 -->
<g id="edge47" class="edge">
<title>Node30&#45;&gt;Node22</title>
<path fill="none" stroke="midnightblue" d="M495.7,-336.3C477.62,-320.25 440.78,-283.99 427,-244 415.06,-209.35 421.24,-165.76 426.4,-141.49"/>
<polygon fill="midnightblue" stroke="midnightblue" points="429.86,-142.05 428.69,-131.52 423.04,-140.48 429.86,-142.05"/>
</g>
<!-- Node30&#45;&gt;Node31 -->
<g id="edge49" class="edge">
<title>Node30&#45;&gt;Node31</title>
<path fill="none" stroke="midnightblue" d="M477.6,-336.8C443.19,-326.86 385.43,-310.18 349.93,-299.93"/>
<polygon fill="midnightblue" stroke="midnightblue" points="350.69,-296.51 340.11,-297.1 348.74,-303.23 350.69,-296.51"/>
</g>
<!-- Node31&#45;&gt;Node5 -->
<g id="edge54" class="edge">
<title>Node31&#45;&gt;Node5</title>
<path fill="none" stroke="midnightblue" d="M323.84,-299.56C328,-318.06 328,-363.19 328,-401 328,-526 328,-526 328,-526 328,-594.6 540.78,-621.29 659.82,-630.96"/>
<polygon fill="midnightblue" stroke="midnightblue" points="659.74,-634.47 669.99,-631.77 660.29,-627.49 659.74,-634.47"/>
</g>
<!-- Node31&#45;&gt;Node20 -->
<g id="edge55" class="edge">
<title>Node31&#45;&gt;Node20</title>
<path fill="none" stroke="midnightblue" d="M340.06,-281.26C364.35,-272.34 404.58,-257.56 433.02,-247.11"/>
<polygon fill="midnightblue" stroke="midnightblue" points="434.37,-250.35 442.55,-243.62 431.95,-243.78 434.37,-250.35"/>
</g>
<!-- Node32 -->
<g id="node32" class="node">
<title>Node32</title>
<g id="a_node32"><a xlink:title=" ">
<polygon fill="white" stroke="#bfbfbf" points="298.5,-224.5 298.5,-243.5 341.5,-243.5 341.5,-224.5 298.5,-224.5"/>
<text text-anchor="middle" x="320" y="-231.5" font-family="Helvetica,sans-Serif" font-size="10.00">cstdio</text>
</a>
</g>
</g>
<!-- Node31&#45;&gt;Node32 -->
<g id="edge50" class="edge">
<title>Node31&#45;&gt;Node32</title>
<path fill="none" stroke="midnightblue" d="M319.17,-280.08C319.3,-273.01 319.48,-262.86 319.65,-253.99"/>
<polygon fill="midnightblue" stroke="midnightblue" points="323.15,-253.81 319.84,-243.75 316.15,-253.68 323.15,-253.81"/>
</g>
<!-- Node33 -->
<g id="node33" class="node">
<title>Node33</title>
<g id="a_node33"><a xlink:href="_unit_order_8h.html" target="_top" xlink:title=" ">
<polygon fill="white" stroke="black" points="214,-224.5 214,-243.5 280,-243.5 280,-224.5 214,-224.5"/>
<text text-anchor="middle" x="247" y="-231.5" font-family="Helvetica,sans-Serif" font-size="10.00">UnitOrder.h</text>
</a>
</g>
</g>
<!-- Node31&#45;&gt;Node33 -->
<g id="edge51" class="edge">
<title>Node31&#45;&gt;Node33</title>
<path fill="none" stroke="midnightblue" d="M302.32,-280.32C289.82,-272.26 273.23,-260.08 261.33,-250.37"/>
<polygon fill="midnightblue" stroke="midnightblue" points="263.52,-247.63 253.63,-243.83 258.99,-252.97 263.52,-247.63"/>
</g>
<!-- Node34 -->
<g id="node34" class="node">
<title>Node34</title>
<g id="a_node34"><a xlink:href="_textures_8h.html" target="_top" xlink:title=" ">
<polygon fill="white" stroke="black" points="176.5,-168.5 176.5,-187.5 277.5,-187.5 277.5,-168.5 176.5,-168.5"/>
<text text-anchor="middle" x="227" y="-175.5" font-family="Helvetica,sans-Serif" font-size="10.00">graphics/Textures.h</text>
</a>
</g>
</g>
<!-- Node31&#45;&gt;Node34 -->
<g id="edge56" class="edge">
<title>Node31&#45;&gt;Node34</title>
<path fill="none" stroke="midnightblue" d="M297.81,-287.53C271.01,-284.4 225.83,-274.61 205,-244 194.99,-229.29 204.14,-209.63 213.51,-195.8"/>
<polygon fill="midnightblue" stroke="midnightblue" points="216.39,-197.79 219.49,-187.66 210.75,-193.64 216.39,-197.79"/>
</g>
<!-- Node33&#45;&gt;Node22 -->
<g id="edge52" class="edge">
<title>Node33&#45;&gt;Node22</title>
<path fill="none" stroke="midnightblue" d="M261.44,-224.37C293.15,-205.41 369.11,-160 407.68,-136.94"/>
<polygon fill="midnightblue" stroke="midnightblue" points="409.84,-139.73 416.63,-131.59 406.25,-133.72 409.84,-139.73"/>
</g>
<!-- Node33&#45;&gt;Node31 -->
<g id="edge53" class="edge">
<title>Node33&#45;&gt;Node31</title>
<path fill="none" stroke="midnightblue" d="M263.65,-243.65C276.21,-251.76 292.93,-264.04 304.85,-273.78"/>
<polygon fill="midnightblue" stroke="midnightblue" points="302.66,-276.51 312.55,-280.32 307.2,-271.18 302.66,-276.51"/>
</g>
<!-- Node34&#45;&gt;Node12 -->
<g id="edge57" class="edge">
<title>Node34&#45;&gt;Node12</title>
<path fill="none" stroke="midnightblue" d="M203.55,-168.44C178.87,-159.44 139.81,-145.19 112.02,-135.05"/>
<polygon fill="midnightblue" stroke="midnightblue" points="112.94,-131.66 102.34,-131.52 110.54,-138.23 112.94,-131.66"/>
</g>
<!-- Node34&#45;&gt;Node18 -->
<g id="edge58" class="edge">
<title>Node34&#45;&gt;Node18</title>
<path fill="none" stroke="midnightblue" d="M277.58,-173.37C421.31,-163.07 829.42,-133.8 947.58,-125.32"/>
<polygon fill="midnightblue" stroke="midnightblue" points="948.06,-128.8 957.78,-124.59 947.56,-121.82 948.06,-128.8"/>
</g>
<!-- Node35 -->
<g id="node35" class="node">
<title>Node35</title>
<g id="a_node35"><a xlink:title=" ">
<polygon fill="white" stroke="#bfbfbf" points="185.5,-112.5 185.5,-131.5 268.5,-131.5 268.5,-112.5 185.5,-112.5"/>
<text text-anchor="middle" x="227" y="-119.5" font-family="Helvetica,sans-Serif" font-size="10.00">unordered_map</text>
</a>
</g>
</g>
<!-- Node34&#45;&gt;Node35 -->
<g id="edge59" class="edge">
<title>Node34&#45;&gt;Node35</title>
<path fill="none" stroke="midnightblue" d="M227,-168.08C227,-161.01 227,-150.86 227,-141.99"/>
<polygon fill="midnightblue" stroke="midnightblue" points="230.5,-141.75 227,-131.75 223.5,-141.75 230.5,-141.75"/>
</g>
<!-- Node36&#45;&gt;Node29 -->
<g id="edge77" class="edge">
<title>Node36&#45;&gt;Node29</title>
<path fill="none" stroke="midnightblue" d="M788.8,-453.98C764.93,-443.9 725,-427.05 697.63,-415.5"/>
<polygon fill="midnightblue" stroke="midnightblue" points="698.74,-412.17 688.16,-411.51 696.02,-418.62 698.74,-412.17"/>
</g>
<!-- Node37 -->
<g id="node37" class="node">
<title>Node37</title>
<g id="a_node37"><a xlink:href="_squad_template_8h.html" target="_top" xlink:title=" ">
<polygon fill="white" stroke="black" points="755,-392.5 755,-411.5 847,-411.5 847,-392.5 755,-392.5"/>
<text text-anchor="middle" x="801" y="-399.5" font-family="Helvetica,sans-Serif" font-size="10.00">SquadTemplate.h</text>
</a>
</g>
</g>
<!-- Node36&#45;&gt;Node37 -->
<g id="edge62" class="edge">
<title>Node36&#45;&gt;Node37</title>
<path fill="none" stroke="midnightblue" d="M807.85,-453.98C806.73,-445.58 804.96,-432.48 803.51,-421.66"/>
<polygon fill="midnightblue" stroke="midnightblue" points="806.95,-420.95 802.14,-411.51 800.01,-421.89 806.95,-420.95"/>
</g>
<!-- Node37&#45;&gt;Node18 -->
<g id="edge63" class="edge">
<title>Node37&#45;&gt;Node18</title>
<path fill="none" stroke="midnightblue" d="M847.28,-394.45C919.58,-381.24 1054.44,-343.6 1087,-244 1089.76,-235.55 1091.05,-231.91 1087,-224 1074.52,-199.63 1057.27,-206.41 1037,-188 1020.41,-172.93 1003.79,-153.33 992.81,-139.61"/>
<polygon fill="midnightblue" stroke="midnightblue" points="995.4,-137.24 986.47,-131.55 989.9,-141.57 995.4,-137.24"/>
</g>
<!-- Node37&#45;&gt;Node30 -->
<g id="edge64" class="edge">
<title>Node37&#45;&gt;Node30</title>
<path fill="none" stroke="midnightblue" d="M754.91,-392.56C696.75,-381.92 597.84,-363.81 543.87,-353.93"/>
<polygon fill="midnightblue" stroke="midnightblue" points="544.49,-350.49 534.02,-352.13 543.23,-357.37 544.49,-350.49"/>
</g>
<!-- Node38 -->
<g id="node38" class="node">
<title>Node38</title>
<g id="a_node38"><a xlink:href="_gui_list_8h.html" target="_top" xlink:title=" ">
<polygon fill="white" stroke="black" points="752,-280.5 752,-299.5 860,-299.5 860,-280.5 752,-280.5"/>
<text text-anchor="middle" x="806" y="-287.5" font-family="Helvetica,sans-Serif" font-size="10.00">engine/GUI/GuiList.h</text>
</a>
</g>
</g>
<!-- Node37&#45;&gt;Node38 -->
<g id="edge65" class="edge">
<title>Node37&#45;&gt;Node38</title>
<path fill="none" stroke="midnightblue" d="M801.39,-392.37C802.2,-374.62 804.06,-333.67 805.15,-309.6"/>
<polygon fill="midnightblue" stroke="midnightblue" points="808.65,-309.74 805.61,-299.59 801.66,-309.42 808.65,-309.74"/>
</g>
<!-- Node40 -->
<g id="node40" class="node">
<title>Node40</title>
<g id="a_node40"><a xlink:href="_gui_scroll_8h.html" target="_top" xlink:title=" ">
<polygon fill="white" stroke="black" points="829,-336.5 829,-355.5 945,-355.5 945,-336.5 829,-336.5"/>
<text text-anchor="middle" x="887" y="-343.5" font-family="Helvetica,sans-Serif" font-size="10.00">engine/GUI/GuiScroll.h</text>
</a>
</g>
</g>
<!-- Node37&#45;&gt;Node40 -->
<g id="edge69" class="edge">
<title>Node37&#45;&gt;Node40</title>
<path fill="none" stroke="midnightblue" d="M814.82,-392.32C828.23,-383.9 848.82,-370.97 864.59,-361.07"/>
<polygon fill="midnightblue" stroke="midnightblue" points="866.61,-363.94 873.22,-355.65 862.89,-358.01 866.61,-363.94"/>
</g>
<!-- Node41 -->
<g id="node41" class="node">
<title>Node41</title>
<g id="a_node41"><a xlink:href="_button_8h.html" target="_top" xlink:title=" ">
<polygon fill="white" stroke="black" points="628.5,-280.5 628.5,-299.5 733.5,-299.5 733.5,-280.5 628.5,-280.5"/>
<text text-anchor="middle" x="681" y="-287.5" font-family="Helvetica,sans-Serif" font-size="10.00">engine/GUI/Button.h</text>
</a>
</g>
</g>
<!-- Node37&#45;&gt;Node41 -->
<g id="edge72" class="edge">
<title>Node37&#45;&gt;Node41</title>
<path fill="none" stroke="midnightblue" d="M791.58,-392.37C771.34,-373.81 723.45,-329.91 697.84,-306.44"/>
<polygon fill="midnightblue" stroke="midnightblue" points="700.11,-303.77 690.37,-299.59 695.38,-308.93 700.11,-303.77"/>
</g>
<!-- Node37&#45;&gt;Node42 -->
<g id="edge74" class="edge">
<title>Node37&#45;&gt;Node42</title>
<path fill="none" stroke="midnightblue" d="M754.79,-394.91C692.57,-386.67 578.13,-371.39 470.31,-356.17"/>
<polygon fill="midnightblue" stroke="midnightblue" points="470.63,-352.68 460.24,-354.75 469.65,-359.61 470.63,-352.68"/>
</g>
<!-- Node38&#45;&gt;Node18 -->
<g id="edge68" class="edge">
<title>Node38&#45;&gt;Node18</title>
<path fill="none" stroke="midnightblue" d="M808.39,-280.41C814.87,-258.65 834.73,-200.77 871,-168 892.84,-148.27 924.51,-136.51 948.09,-129.99"/>
<polygon fill="midnightblue" stroke="midnightblue" points="949.17,-133.33 957.97,-127.43 947.42,-126.55 949.17,-133.33"/>
</g>
<!-- Node39 -->
<g id="node39" class="node">
<title>Node39</title>
<g id="a_node39"><a xlink:href="_gui_object_8h.html" target="_top" xlink:title=" ">
<polygon fill="white" stroke="black" points="590,-224.5 590,-243.5 710,-243.5 710,-224.5 590,-224.5"/>
<text text-anchor="middle" x="650" y="-231.5" font-family="Helvetica,sans-Serif" font-size="10.00">engine/GUI/GuiObject.h</text>
</a>
</g>
</g>
<!-- Node38&#45;&gt;Node39 -->
<g id="edge66" class="edge">
<title>Node38&#45;&gt;Node39</title>
<path fill="none" stroke="midnightblue" d="M781.28,-280.44C755.15,-271.4 713.74,-257.06 684.42,-246.92"/>
<polygon fill="midnightblue" stroke="midnightblue" points="685.2,-243.48 674.6,-243.52 682.91,-250.1 685.2,-243.48"/>
</g>
<!-- Node39&#45;&gt;Node10 -->
<g id="edge67" class="edge">
<title>Node39&#45;&gt;Node10</title>
<path fill="none" stroke="midnightblue" d="M651.65,-224.08C652.98,-216.93 654.88,-206.64 656.54,-197.69"/>
<polygon fill="midnightblue" stroke="midnightblue" points="660,-198.22 658.38,-187.75 653.12,-196.95 660,-198.22"/>
</g>
<!-- Node40&#45;&gt;Node11 -->
<g id="edge71" class="edge">
<title>Node40&#45;&gt;Node11</title>
<path fill="none" stroke="midnightblue" d="M886.04,-336.47C884.27,-323.51 879.68,-298.44 869,-280 840.17,-230.23 813.52,-233.23 778,-188 766.26,-173.05 755.12,-154.45 747.59,-140.98"/>
<polygon fill="midnightblue" stroke="midnightblue" points="750.45,-138.92 742.59,-131.83 744.31,-142.28 750.45,-138.92"/>
</g>
<!-- Node40&#45;&gt;Node38 -->
<g id="edge70" class="edge">
<title>Node40&#45;&gt;Node38</title>
<path fill="none" stroke="midnightblue" d="M873.99,-336.32C861.47,-327.98 842.32,-315.21 827.53,-305.35"/>
<polygon fill="midnightblue" stroke="midnightblue" points="829.24,-302.29 818.98,-299.65 825.36,-308.11 829.24,-302.29"/>
</g>
<!-- Node41&#45;&gt;Node39 -->
<g id="edge73" class="edge">
<title>Node41&#45;&gt;Node39</title>
<path fill="none" stroke="midnightblue" d="M675.88,-280.08C671.59,-272.61 665.34,-261.72 660.06,-252.52"/>
<polygon fill="midnightblue" stroke="midnightblue" points="663.04,-250.68 655.02,-243.75 656.97,-254.17 663.04,-250.68"/>
</g>
<!-- Node42&#45;&gt;Node13 -->
<g id="edge76" class="edge">
<title>Node42&#45;&gt;Node13</title>
<path fill="none" stroke="midnightblue" d="M355.7,-345.11C279.77,-342.22 148,-324.33 148,-235 148,-235 148,-235 148,-177 148,-143.64 161,-106.53 169.89,-85.07"/>
<polygon fill="midnightblue" stroke="midnightblue" points="173.21,-86.19 173.95,-75.62 166.78,-83.42 173.21,-86.19"/>
</g>
<!-- Node42&#45;&gt;Node15 -->
<g id="edge75" class="edge">
<title>Node42&#45;&gt;Node15</title>
<path fill="none" stroke="midnightblue" d="M404.07,-336.09C389.82,-302.28 344.6,-180.36 401,-112 462.68,-37.24 774.45,-17.17 884.48,-12.37"/>
<polygon fill="midnightblue" stroke="midnightblue" points="884.94,-15.85 894.78,-11.94 884.65,-8.86 884.94,-15.85"/>
</g>
<!-- Node43&#45;&gt;Node5 -->
<g id="edge82" class="edge">
<title>Node43&#45;&gt;Node5</title>
<path fill="none" stroke="midnightblue" d="M831.52,-590.52C816.43,-599.27 789.97,-613.01 768.95,-623.1"/>
<polygon fill="midnightblue" stroke="midnightblue" points="767.28,-620.01 759.73,-627.44 770.26,-626.34 767.28,-620.01"/>
</g>
<!-- Node43&#45;&gt;Node6 -->
<g id="edge83" class="edge">
<title>Node43&#45;&gt;Node6</title>
<path fill="none" stroke="midnightblue" d="M851.09,-571.08C858.16,-563.3 868.59,-551.8 877.15,-542.37"/>
<polygon fill="midnightblue" stroke="midnightblue" points="879.93,-544.51 884.06,-534.75 874.75,-539.8 879.93,-544.51"/>
</g>
</g>
</svg>
