<?xml version="1.0" encoding="UTF-8" standalone="no"?>
<!DOCTYPE svg PUBLIC "-//W3C//DTD SVG 1.1//EN"
 "http://www.w3.org/Graphics/SVG/1.1/DTD/svg11.dtd">
<!-- Generated by graphviz version 2.47.1 (20210421.1823)
 -->
<!-- Title: include/engine/actions/SetSquadPath.h Pages: 1 -->
<svg width="1804pt" height="575pt"
 viewBox="0.00 0.00 1803.50 575.00" xmlns="http://www.w3.org/2000/svg" xmlns:xlink="http://www.w3.org/1999/xlink">
<g id="graph0" class="graph" transform="scale(1 1) rotate(0) translate(4 571)">
<title>include/engine/actions/SetSquadPath.h</title>
<polygon fill="white" stroke="transparent" points="-4,4 -4,-571 1799.5,-571 1799.5,4 -4,4"/>
<!-- Node1 -->
<g id="node1" class="node">
<title>Node1</title>
<g id="a_node1"><a xlink:title=" ">
<polygon fill="#bfbfbf" stroke="black" points="611.5,-536.5 611.5,-566.5 724.5,-566.5 724.5,-536.5 611.5,-536.5"/>
<text text-anchor="start" x="619.5" y="-554.5" font-family="Helvetica,sans-Serif" font-size="10.00">include/engine/actions</text>
<text text-anchor="middle" x="668" y="-543.5" font-family="Helvetica,sans-Serif" font-size="10.00">/SetSquadPath.h</text>
</a>
</g>
</g>
<!-- Node2 -->
<g id="node2" class="node">
<title>Node2</title>
<g id="a_node2"><a xlink:href="engine_2_action_8cpp.html" target="_top" xlink:title=" ">
<polygon fill="white" stroke="black" points="356,-475 356,-494 466,-494 466,-475 356,-475"/>
<text text-anchor="middle" x="411" y="-482" font-family="Helvetica,sans-Serif" font-size="10.00">src/engine/Action.cpp</text>
</a>
</g>
</g>
<!-- Node1&#45;&gt;Node2 -->
<g id="edge1" class="edge">
<title>Node1&#45;&gt;Node2</title>
<path fill="none" stroke="midnightblue" d="M602.72,-533.99C552.36,-521.25 484.73,-504.15 444.72,-494.03"/>
<polygon fill="midnightblue" stroke="midnightblue" points="602,-537.42 612.55,-536.48 603.71,-530.63 602,-537.42"/>
</g>
<!-- Node3 -->
<g id="node3" class="node">
<title>Node3</title>
<g id="a_node3"><a xlink:href="_set_squad_path_8cpp.html" target="_top" xlink:title=" ">
<polygon fill="white" stroke="black" points="484.5,-469.5 484.5,-499.5 585.5,-499.5 585.5,-469.5 484.5,-469.5"/>
<text text-anchor="start" x="492.5" y="-487.5" font-family="Helvetica,sans-Serif" font-size="10.00">src/engine/actions</text>
<text text-anchor="middle" x="535" y="-476.5" font-family="Helvetica,sans-Serif" font-size="10.00">/SetSquadPath.cpp</text>
</a>
</g>
</g>
<!-- Node1&#45;&gt;Node3 -->
<g id="edge2" class="edge">
<title>Node1&#45;&gt;Node3</title>
<path fill="none" stroke="midnightblue" d="M630.13,-531.99C609.05,-521.69 583.22,-509.07 563.8,-499.58"/>
<polygon fill="midnightblue" stroke="midnightblue" points="628.62,-535.15 639.14,-536.4 631.69,-528.86 628.62,-535.15"/>
</g>
<!-- Node4 -->
<g id="node4" class="node">
<title>Node4</title>
<g id="a_node4"><a xlink:href="_cell_8h.html" target="_top" xlink:title=" ">
<polygon fill="white" stroke="black" points="604,-475 604,-494 732,-494 732,-475 604,-475"/>
<text text-anchor="middle" x="668" y="-482" font-family="Helvetica,sans-Serif" font-size="10.00">include/GameLogic/Cell.h</text>
</a>
</g>
</g>
<!-- Node1&#45;&gt;Node4 -->
<g id="edge3" class="edge">
<title>Node1&#45;&gt;Node4</title>
<path fill="none" stroke="midnightblue" d="M661.45,-526.25C660.9,-515.02 661.49,-502.38 663.23,-494.19"/>
<polygon fill="midnightblue" stroke="midnightblue" points="657.98,-526.73 662.32,-536.4 664.95,-526.13 657.98,-526.73"/>
</g>
<!-- Node4&#45;&gt;Node1 -->
<g id="edge6" class="edge">
<title>Node4&#45;&gt;Node1</title>
<path fill="none" stroke="midnightblue" d="M674.18,-504.19C675.08,-514.45 674.92,-526.96 673.68,-536.4"/>
<polygon fill="midnightblue" stroke="midnightblue" points="677.63,-503.61 672.77,-494.19 670.7,-504.58 677.63,-503.61"/>
</g>
<!-- Node5 -->
<g id="node5" class="node">
<title>Node5</title>
<g id="a_node5"><a xlink:href="_cell_8cpp.html" target="_top" xlink:title=" ">
<polygon fill="white" stroke="black" points="331.5,-408 331.5,-427 452.5,-427 452.5,-408 331.5,-408"/>
<text text-anchor="middle" x="392" y="-415" font-family="Helvetica,sans-Serif" font-size="10.00">src/GameLogic/Cell.cpp</text>
</a>
</g>
</g>
<!-- Node4&#45;&gt;Node5 -->
<g id="edge4" class="edge">
<title>Node4&#45;&gt;Node5</title>
<path fill="none" stroke="midnightblue" d="M621.56,-472.56C567.15,-459.75 478.13,-438.78 428.45,-427.08"/>
<polygon fill="midnightblue" stroke="midnightblue" points="621.1,-476.05 631.63,-474.94 622.7,-469.24 621.1,-476.05"/>
</g>
<!-- Node6 -->
<g id="node6" class="node">
<title>Node6</title>
<g id="a_node6"><a xlink:href="main_8cpp.html" target="_top" xlink:title=" ">
<polygon fill="white" stroke="black" points="0,-73 0,-92 72,-92 72,-73 0,-73"/>
<text text-anchor="middle" x="36" y="-80" font-family="Helvetica,sans-Serif" font-size="10.00">src/main.cpp</text>
</a>
</g>
</g>
<!-- Node4&#45;&gt;Node6 -->
<g id="edge5" class="edge">
<title>Node4&#45;&gt;Node6</title>
<path fill="none" stroke="midnightblue" d="M619.67,-473.04C611.47,-471.51 603.01,-470.09 595,-469 487.03,-454.36 203.28,-482.09 106,-433 63.37,-411.49 36,-399.25 36,-351.5 36,-351.5 36,-351.5 36,-215.5 36,-168.98 36,-113.24 36,-92.15"/>
<polygon fill="midnightblue" stroke="midnightblue" points="619.02,-476.48 629.51,-474.94 620.35,-469.6 619.02,-476.48"/>
</g>
<!-- Node7 -->
<g id="node7" class="node">
<title>Node7</title>
<g id="a_node7"><a xlink:href="_game_logic_2_squad_2_action_8h.html" target="_top" xlink:title=" ">
<polygon fill="white" stroke="black" points="977.5,-402.5 977.5,-432.5 1108.5,-432.5 1108.5,-402.5 977.5,-402.5"/>
<text text-anchor="start" x="985.5" y="-420.5" font-family="Helvetica,sans-Serif" font-size="10.00">include/GameLogic/Squad</text>
<text text-anchor="middle" x="1043" y="-409.5" font-family="Helvetica,sans-Serif" font-size="10.00">/Action.h</text>
</a>
</g>
</g>
<!-- Node4&#45;&gt;Node7 -->
<g id="edge7" class="edge">
<title>Node4&#45;&gt;Node7</title>
<path fill="none" stroke="midnightblue" d="M727.55,-473.18C795.66,-461.37 906.84,-442.1 977.39,-429.87"/>
<polygon fill="midnightblue" stroke="midnightblue" points="726.67,-469.78 717.41,-474.94 727.86,-476.68 726.67,-469.78"/>
</g>
<!-- Node9 -->
<g id="node9" class="node">
<title>Node9</title>
<g id="a_node9"><a xlink:href="_squad_8h.html" target="_top" xlink:title=" ">
<polygon fill="white" stroke="black" points="977.5,-335.5 977.5,-365.5 1108.5,-365.5 1108.5,-335.5 977.5,-335.5"/>
<text text-anchor="start" x="985.5" y="-353.5" font-family="Helvetica,sans-Serif" font-size="10.00">include/GameLogic/Squad</text>
<text text-anchor="middle" x="1043" y="-342.5" font-family="Helvetica,sans-Serif" font-size="10.00">/Squad.h</text>
</a>
</g>
</g>
<!-- Node4&#45;&gt;Node9 -->
<g id="edge62" class="edge">
<title>Node4&#45;&gt;Node9</title>
<path fill="none" stroke="midnightblue" d="M698.2,-471.43C764.26,-446.96 921.25,-391.67 998.57,-365.6"/>
<polygon fill="midnightblue" stroke="midnightblue" points="696.92,-468.17 688.77,-474.94 699.37,-474.73 696.92,-468.17"/>
</g>
<!-- Node20 -->
<g id="node20" class="node">
<title>Node20</title>
<g id="a_node20"><a xlink:href="_factory_8h.html" target="_top" xlink:title=" ">
<polygon fill="white" stroke="black" points="509.5,-201.5 509.5,-231.5 636.5,-231.5 636.5,-201.5 509.5,-201.5"/>
<text text-anchor="start" x="517.5" y="-219.5" font-family="Helvetica,sans-Serif" font-size="10.00">include/GameLogic/Units</text>
<text text-anchor="middle" x="573" y="-208.5" font-family="Helvetica,sans-Serif" font-size="10.00">/Factory.h</text>
</a>
</g>
</g>
<!-- Node4&#45;&gt;Node20 -->
<g id="edge63" class="edge">
<title>Node4&#45;&gt;Node20</title>
<path fill="none" stroke="midnightblue" d="M661.57,-465.48C643.75,-415.6 594.03,-276.38 578.03,-231.58"/>
<polygon fill="midnightblue" stroke="midnightblue" points="658.29,-466.71 664.95,-474.95 664.88,-464.36 658.29,-466.71"/>
</g>
<!-- Node38 -->
<g id="node38" class="node">
<title>Node38</title>
<g id="a_node38"><a xlink:href="pathfinding_8h.html" target="_top" xlink:title=" ">
<polygon fill="white" stroke="black" points="1274,-274 1274,-293 1394,-293 1394,-274 1274,-274"/>
<text text-anchor="middle" x="1334" y="-281" font-family="Helvetica,sans-Serif" font-size="10.00">include/util/pathfinding.h</text>
</a>
</g>
</g>
<!-- Node4&#45;&gt;Node38 -->
<g id="edge64" class="edge">
<title>Node4&#45;&gt;Node38</title>
<path fill="none" stroke="midnightblue" d="M742.14,-479.56C851.66,-472.99 1050.95,-458.01 1118,-433 1208.39,-399.28 1297.2,-319.57 1325.06,-293.16"/>
<polygon fill="midnightblue" stroke="midnightblue" points="741.93,-476.06 732.15,-480.15 742.34,-483.05 741.93,-476.06"/>
</g>
<!-- Node8 -->
<g id="node8" class="node">
<title>Node8</title>
<g id="a_node8"><a xlink:href="_game_logic_2_squad_2_action_8cpp.html" target="_top" xlink:title=" ">
<polygon fill="white" stroke="black" points="1387,-201.5 1387,-231.5 1501,-231.5 1501,-201.5 1387,-201.5"/>
<text text-anchor="start" x="1395" y="-219.5" font-family="Helvetica,sans-Serif" font-size="10.00">src/GameLogic/Squad</text>
<text text-anchor="middle" x="1444" y="-208.5" font-family="Helvetica,sans-Serif" font-size="10.00">/Action.cpp</text>
</a>
</g>
</g>
<!-- Node7&#45;&gt;Node8 -->
<g id="edge8" class="edge">
<title>Node7&#45;&gt;Node8</title>
<path fill="none" stroke="midnightblue" d="M1073.07,-396.57C1086.83,-387.37 1103.32,-376.23 1118,-366 1182.42,-321.11 1193.42,-300.28 1265,-268 1304.15,-250.35 1350.93,-237.41 1386.85,-229.04"/>
<polygon fill="midnightblue" stroke="midnightblue" points="1070.84,-393.85 1064.46,-402.31 1074.72,-399.68 1070.84,-393.85"/>
</g>
<!-- Node7&#45;&gt;Node9 -->
<g id="edge9" class="edge">
<title>Node7&#45;&gt;Node9</title>
<path fill="none" stroke="midnightblue" d="M1036.45,-392.4C1036.01,-383.37 1036.3,-373.41 1037.33,-365.58"/>
<polygon fill="midnightblue" stroke="midnightblue" points="1032.97,-392.74 1037.32,-402.4 1039.94,-392.13 1032.97,-392.74"/>
</g>
<!-- Node9&#45;&gt;Node1 -->
<g id="edge11" class="edge">
<title>Node9&#45;&gt;Node1</title>
<path fill="none" stroke="midnightblue" d="M1086.7,-370.89C1099.08,-378.67 1111.06,-388.95 1118,-402 1124.47,-414.16 1126.42,-422.1 1118,-433 1069.94,-495.22 834.57,-530.78 724.7,-544.23"/>
<polygon fill="midnightblue" stroke="midnightblue" points="1088.1,-367.65 1077.69,-365.66 1084.58,-373.7 1088.1,-367.65"/>
</g>
<!-- Node9&#45;&gt;Node4 -->
<g id="edge12" class="edge">
<title>Node9&#45;&gt;Node4</title>
<path fill="none" stroke="midnightblue" d="M997.68,-369.13C919.12,-397.84 760.22,-453.63 695.86,-474.94"/>
<polygon fill="midnightblue" stroke="midnightblue" points="999.12,-372.33 1007.31,-365.6 996.71,-365.76 999.12,-372.33"/>
</g>
<!-- Node9&#45;&gt;Node7 -->
<g id="edge13" class="edge">
<title>Node9&#45;&gt;Node7</title>
<path fill="none" stroke="midnightblue" d="M1049.54,-375.57C1049.99,-384.6 1049.71,-394.56 1048.68,-402.4"/>
<polygon fill="midnightblue" stroke="midnightblue" points="1053.03,-375.24 1048.67,-365.58 1046.05,-375.84 1053.03,-375.24"/>
</g>
<!-- Node10 -->
<g id="node10" class="node">
<title>Node10</title>
<g id="a_node10"><a xlink:href="_squad_8cpp.html" target="_top" xlink:title=" ">
<polygon fill="white" stroke="black" points="448,-67.5 448,-97.5 562,-97.5 562,-67.5 448,-67.5"/>
<text text-anchor="start" x="456" y="-85.5" font-family="Helvetica,sans-Serif" font-size="10.00">src/GameLogic/Squad</text>
<text text-anchor="middle" x="505" y="-74.5" font-family="Helvetica,sans-Serif" font-size="10.00">/Squad.cpp</text>
</a>
</g>
</g>
<!-- Node9&#45;&gt;Node10 -->
<g id="edge10" class="edge">
<title>Node9&#45;&gt;Node10</title>
<path fill="none" stroke="midnightblue" d="M998.81,-331.37C927.14,-301.16 782.16,-236.73 669,-165 650.3,-153.15 649.13,-145.15 630,-134 604.22,-118.97 573.11,-106.39 548.38,-97.54"/>
<polygon fill="midnightblue" stroke="midnightblue" points="997.85,-334.76 1008.43,-335.4 1000.56,-328.3 997.85,-334.76"/>
</g>
<!-- Node11 -->
<g id="node11" class="node">
<title>Node11</title>
<g id="a_node11"><a xlink:href="_unit_8h.html" target="_top" xlink:title=" ">
<polygon fill="white" stroke="black" points="981.5,-268.5 981.5,-298.5 1108.5,-298.5 1108.5,-268.5 981.5,-268.5"/>
<text text-anchor="start" x="989.5" y="-286.5" font-family="Helvetica,sans-Serif" font-size="10.00">include/GameLogic/Units</text>
<text text-anchor="middle" x="1045" y="-275.5" font-family="Helvetica,sans-Serif" font-size="10.00">/Unit.h</text>
</a>
</g>
</g>
<!-- Node9&#45;&gt;Node11 -->
<g id="edge14" class="edge">
<title>Node9&#45;&gt;Node11</title>
<path fill="none" stroke="midnightblue" d="M1037.2,-325.4C1037.02,-316.37 1037.62,-306.41 1038.89,-298.58"/>
<polygon fill="midnightblue" stroke="midnightblue" points="1033.7,-325.61 1037.76,-335.4 1040.69,-325.22 1033.7,-325.61"/>
</g>
<!-- Node9&#45;&gt;Node38 -->
<g id="edge59" class="edge">
<title>Node9&#45;&gt;Node38</title>
<path fill="none" stroke="midnightblue" d="M1115.85,-333.23C1172.98,-320.47 1250.23,-303.21 1295.82,-293.03"/>
<polygon fill="midnightblue" stroke="midnightblue" points="1114.78,-329.88 1105.78,-335.48 1116.31,-336.71 1114.78,-329.88"/>
</g>
<!-- Node11&#45;&gt;Node9 -->
<g id="edge16" class="edge">
<title>Node11&#45;&gt;Node9</title>
<path fill="none" stroke="midnightblue" d="M1050.8,-308.57C1050.98,-317.6 1050.38,-327.56 1049.11,-335.4"/>
<polygon fill="midnightblue" stroke="midnightblue" points="1054.3,-308.36 1050.24,-298.58 1047.31,-308.76 1054.3,-308.36"/>
</g>
<!-- Node12 -->
<g id="node12" class="node">
<title>Node12</title>
<g id="a_node12"><a xlink:href="_unit_8cpp.html" target="_top" xlink:title=" ">
<polygon fill="white" stroke="black" points="1408,-134.5 1408,-164.5 1518,-164.5 1518,-134.5 1408,-134.5"/>
<text text-anchor="start" x="1416" y="-152.5" font-family="Helvetica,sans-Serif" font-size="10.00">src/GameLogic/Units</text>
<text text-anchor="middle" x="1463" y="-141.5" font-family="Helvetica,sans-Serif" font-size="10.00">/Unit.cpp</text>
</a>
</g>
</g>
<!-- Node11&#45;&gt;Node12 -->
<g id="edge15" class="edge">
<title>Node11&#45;&gt;Node12</title>
<path fill="none" stroke="midnightblue" d="M1088.68,-264.45C1108.75,-255.56 1132.58,-244.15 1153,-232 1172.94,-220.14 1173.68,-210.15 1195,-201 1279.61,-164.7 1308.74,-183.18 1399,-165 1401.9,-164.42 1404.88,-163.8 1407.88,-163.17"/>
<polygon fill="midnightblue" stroke="midnightblue" points="1087.22,-261.27 1079.45,-268.48 1090.02,-267.68 1087.22,-261.27"/>
</g>
<!-- Node13 -->
<g id="node13" class="node">
<title>Node13</title>
<g id="a_node13"><a xlink:href="_squad_order_8h.html" target="_top" xlink:title=" ">
<polygon fill="white" stroke="black" points="1664.5,-134.5 1664.5,-164.5 1795.5,-164.5 1795.5,-134.5 1664.5,-134.5"/>
<text text-anchor="start" x="1672.5" y="-152.5" font-family="Helvetica,sans-Serif" font-size="10.00">include/GameLogic/Squad</text>
<text text-anchor="middle" x="1730" y="-141.5" font-family="Helvetica,sans-Serif" font-size="10.00">/SquadOrder.h</text>
</a>
</g>
</g>
<!-- Node11&#45;&gt;Node13 -->
<g id="edge17" class="edge">
<title>Node11&#45;&gt;Node13</title>
<path fill="none" stroke="midnightblue" d="M1119.08,-268.69C1120.39,-268.46 1121.7,-268.23 1123,-268 1219.28,-251.07 1250.91,-272.25 1340,-232 1359.86,-223.03 1357.98,-209.62 1378,-201 1492.02,-151.88 1532.44,-184.79 1655,-165 1658.01,-164.51 1661.09,-164 1664.19,-163.46"/>
<polygon fill="midnightblue" stroke="midnightblue" points="1118.06,-265.32 1108.83,-270.53 1119.29,-272.21 1118.06,-265.32"/>
</g>
<!-- Node15 -->
<g id="node15" class="node">
<title>Node15</title>
<g id="a_node15"><a xlink:href="_armored_unit_8h.html" target="_top" xlink:title=" ">
<polygon fill="white" stroke="black" points="1262.5,-134.5 1262.5,-164.5 1389.5,-164.5 1389.5,-134.5 1262.5,-134.5"/>
<text text-anchor="start" x="1270.5" y="-152.5" font-family="Helvetica,sans-Serif" font-size="10.00">include/GameLogic/Units</text>
<text text-anchor="middle" x="1326" y="-141.5" font-family="Helvetica,sans-Serif" font-size="10.00">/ArmoredUnit.h</text>
</a>
</g>
</g>
<!-- Node11&#45;&gt;Node15 -->
<g id="edge19" class="edge">
<title>Node11&#45;&gt;Node15</title>
<path fill="none" stroke="midnightblue" d="M1073.92,-262.68C1087.37,-253.42 1103.54,-242.21 1118,-232 1137.24,-218.41 1139.9,-211.48 1161,-201 1193.2,-185.01 1231.47,-172.92 1263.04,-164.58"/>
<polygon fill="midnightblue" stroke="midnightblue" points="1071.78,-259.91 1065.53,-268.46 1075.75,-265.67 1071.78,-259.91"/>
</g>
<!-- Node11&#45;&gt;Node20 -->
<g id="edge24" class="edge">
<title>Node11&#45;&gt;Node20</title>
<path fill="none" stroke="midnightblue" d="M971.28,-272.35C879.37,-259.69 723.79,-238.27 636.78,-226.28"/>
<polygon fill="midnightblue" stroke="midnightblue" points="970.96,-275.84 981.34,-273.73 971.91,-268.9 970.96,-275.84"/>
</g>
<!-- Node32 -->
<g id="node32" class="node">
<title>Node32</title>
<g id="a_node32"><a xlink:href="_land_unit_8h.html" target="_top" xlink:title=" ">
<polygon fill="white" stroke="black" points="836.5,-201.5 836.5,-231.5 963.5,-231.5 963.5,-201.5 836.5,-201.5"/>
<text text-anchor="start" x="844.5" y="-219.5" font-family="Helvetica,sans-Serif" font-size="10.00">include/GameLogic/Units</text>
<text text-anchor="middle" x="900" y="-208.5" font-family="Helvetica,sans-Serif" font-size="10.00">/LandUnit.h</text>
</a>
</g>
</g>
<!-- Node11&#45;&gt;Node32 -->
<g id="edge47" class="edge">
<title>Node11&#45;&gt;Node32</title>
<path fill="none" stroke="midnightblue" d="M1004.33,-264.27C981.24,-253.92 952.76,-241.15 931.4,-231.58"/>
<polygon fill="midnightblue" stroke="midnightblue" points="1002.98,-267.5 1013.54,-268.4 1005.84,-261.11 1002.98,-267.5"/>
</g>
<!-- Node34 -->
<g id="node34" class="node">
<title>Node34</title>
<g id="a_node34"><a xlink:href="_transport_unit_8h.html" target="_top" xlink:title=" ">
<polygon fill="white" stroke="black" points="981.5,-201.5 981.5,-231.5 1108.5,-231.5 1108.5,-201.5 981.5,-201.5"/>
<text text-anchor="start" x="989.5" y="-219.5" font-family="Helvetica,sans-Serif" font-size="10.00">include/GameLogic/Units</text>
<text text-anchor="middle" x="1045" y="-208.5" font-family="Helvetica,sans-Serif" font-size="10.00">/TransportUnit.h</text>
</a>
</g>
</g>
<!-- Node11&#45;&gt;Node34 -->
<g id="edge50" class="edge">
<title>Node11&#45;&gt;Node34</title>
<path fill="none" stroke="midnightblue" d="M1045,-258.11C1045,-249.15 1045,-239.32 1045,-231.58"/>
<polygon fill="midnightblue" stroke="midnightblue" points="1041.5,-258.4 1045,-268.4 1048.5,-258.4 1041.5,-258.4"/>
</g>
<!-- Node36 -->
<g id="node36" class="node">
<title>Node36</title>
<g id="a_node36"><a xlink:href="_unit_order_8h.html" target="_top" xlink:title=" ">
<polygon fill="white" stroke="black" points="1203.5,-201.5 1203.5,-231.5 1330.5,-231.5 1330.5,-201.5 1203.5,-201.5"/>
<text text-anchor="start" x="1211.5" y="-219.5" font-family="Helvetica,sans-Serif" font-size="10.00">include/GameLogic/Units</text>
<text text-anchor="middle" x="1267" y="-208.5" font-family="Helvetica,sans-Serif" font-size="10.00">/UnitOrder.h</text>
</a>
</g>
</g>
<!-- Node11&#45;&gt;Node36 -->
<g id="edge54" class="edge">
<title>Node11&#45;&gt;Node36</title>
<path fill="none" stroke="midnightblue" d="M1097.23,-265.44C1132.14,-254.91 1177.88,-241.55 1213.13,-231.61"/>
<polygon fill="midnightblue" stroke="midnightblue" points="1095.78,-262.23 1087.23,-268.48 1097.81,-268.92 1095.78,-262.23"/>
</g>
<!-- Node14 -->
<g id="node14" class="node">
<title>Node14</title>
<g id="a_node14"><a xlink:href="_squad_order_8cpp.html" target="_top" xlink:title=" ">
<polygon fill="white" stroke="black" points="1673,-67.5 1673,-97.5 1787,-97.5 1787,-67.5 1673,-67.5"/>
<text text-anchor="start" x="1681" y="-85.5" font-family="Helvetica,sans-Serif" font-size="10.00">src/GameLogic/Squad</text>
<text text-anchor="middle" x="1730" y="-74.5" font-family="Helvetica,sans-Serif" font-size="10.00">/SquadOrder.cpp</text>
</a>
</g>
</g>
<!-- Node13&#45;&gt;Node14 -->
<g id="edge18" class="edge">
<title>Node13&#45;&gt;Node14</title>
<path fill="none" stroke="midnightblue" d="M1730,-124.11C1730,-115.15 1730,-105.32 1730,-97.58"/>
<polygon fill="midnightblue" stroke="midnightblue" points="1726.5,-124.4 1730,-134.4 1733.5,-124.4 1726.5,-124.4"/>
</g>
<!-- Node16 -->
<g id="node16" class="node">
<title>Node16</title>
<g id="a_node16"><a xlink:href="_armored_unit_8cpp.html" target="_top" xlink:title=" ">
<polygon fill="white" stroke="black" points="1271,-67.5 1271,-97.5 1381,-97.5 1381,-67.5 1271,-67.5"/>
<text text-anchor="start" x="1279" y="-85.5" font-family="Helvetica,sans-Serif" font-size="10.00">src/GameLogic/Units</text>
<text text-anchor="middle" x="1326" y="-74.5" font-family="Helvetica,sans-Serif" font-size="10.00">/ArmoredUnit.cpp</text>
</a>
</g>
</g>
<!-- Node15&#45;&gt;Node16 -->
<g id="edge20" class="edge">
<title>Node15&#45;&gt;Node16</title>
<path fill="none" stroke="midnightblue" d="M1326,-124.11C1326,-115.15 1326,-105.32 1326,-97.58"/>
<polygon fill="midnightblue" stroke="midnightblue" points="1322.5,-124.4 1326,-134.4 1329.5,-124.4 1322.5,-124.4"/>
</g>
<!-- Node17 -->
<g id="node17" class="node">
<title>Node17</title>
<g id="a_node17"><a xlink:href="_armored_unit_factory_8h.html" target="_top" xlink:title=" ">
<polygon fill="white" stroke="black" points="961.5,-67.5 961.5,-97.5 1088.5,-97.5 1088.5,-67.5 961.5,-67.5"/>
<text text-anchor="start" x="969.5" y="-85.5" font-family="Helvetica,sans-Serif" font-size="10.00">include/GameLogic/Units</text>
<text text-anchor="middle" x="1025" y="-74.5" font-family="Helvetica,sans-Serif" font-size="10.00">/ArmoredUnitFactory.h</text>
</a>
</g>
</g>
<!-- Node15&#45;&gt;Node17 -->
<g id="edge21" class="edge">
<title>Node15&#45;&gt;Node17</title>
<path fill="none" stroke="midnightblue" d="M1252.36,-132.6C1202.25,-121.78 1136.61,-107.6 1088.74,-97.26"/>
<polygon fill="midnightblue" stroke="midnightblue" points="1251.65,-136.03 1262.17,-134.72 1253.13,-129.18 1251.65,-136.03"/>
</g>
<!-- Node18 -->
<g id="node18" class="node">
<title>Node18</title>
<g id="a_node18"><a xlink:href="_all_units_8cpp.html" target="_top" xlink:title=" ">
<polygon fill="white" stroke="black" points="712,-0.5 712,-30.5 822,-30.5 822,-0.5 712,-0.5"/>
<text text-anchor="start" x="720" y="-18.5" font-family="Helvetica,sans-Serif" font-size="10.00">src/GameLogic/Units</text>
<text text-anchor="middle" x="767" y="-7.5" font-family="Helvetica,sans-Serif" font-size="10.00">/AllUnits.cpp</text>
</a>
</g>
</g>
<!-- Node17&#45;&gt;Node18 -->
<g id="edge22" class="edge">
<title>Node17&#45;&gt;Node18</title>
<path fill="none" stroke="midnightblue" d="M959.38,-64.97C916.93,-54.27 862.31,-40.51 822.12,-30.39"/>
<polygon fill="midnightblue" stroke="midnightblue" points="958.78,-68.43 969.34,-67.48 960.49,-61.64 958.78,-68.43"/>
</g>
<!-- Node19 -->
<g id="node19" class="node">
<title>Node19</title>
<g id="a_node19"><a xlink:href="_armored_unit_factory_8cpp.html" target="_top" xlink:title=" ">
<polygon fill="white" stroke="black" points="962.5,-0.5 962.5,-30.5 1087.5,-30.5 1087.5,-0.5 962.5,-0.5"/>
<text text-anchor="start" x="970.5" y="-18.5" font-family="Helvetica,sans-Serif" font-size="10.00">src/GameLogic/Units</text>
<text text-anchor="middle" x="1025" y="-7.5" font-family="Helvetica,sans-Serif" font-size="10.00">/ArmoredUnitFactory.cpp</text>
</a>
</g>
</g>
<!-- Node17&#45;&gt;Node19 -->
<g id="edge23" class="edge">
<title>Node17&#45;&gt;Node19</title>
<path fill="none" stroke="midnightblue" d="M1025,-57.11C1025,-48.15 1025,-38.32 1025,-30.58"/>
<polygon fill="midnightblue" stroke="midnightblue" points="1021.5,-57.4 1025,-67.4 1028.5,-57.4 1021.5,-57.4"/>
</g>
<!-- Node20&#45;&gt;Node17 -->
<g id="edge39" class="edge">
<title>Node20&#45;&gt;Node17</title>
<path fill="none" stroke="midnightblue" d="M646.89,-212.32C743.63,-207.06 907.02,-194.08 959,-165 986.97,-149.35 1007.67,-116.7 1017.89,-97.82"/>
<polygon fill="midnightblue" stroke="midnightblue" points="646.68,-208.82 636.88,-212.85 647.05,-215.81 646.68,-208.82"/>
</g>
<!-- Node21 -->
<g id="node21" class="node">
<title>Node21</title>
<g id="a_node21"><a xlink:href="_spawn_action_8cpp.html" target="_top" xlink:title=" ">
<polygon fill="white" stroke="black" points="525,-134.5 525,-164.5 621,-164.5 621,-134.5 525,-134.5"/>
<text text-anchor="start" x="533" y="-152.5" font-family="Helvetica,sans-Serif" font-size="10.00">src/engine/actions</text>
<text text-anchor="middle" x="573" y="-141.5" font-family="Helvetica,sans-Serif" font-size="10.00">/SpawnAction.cpp</text>
</a>
</g>
</g>
<!-- Node20&#45;&gt;Node21 -->
<g id="edge25" class="edge">
<title>Node20&#45;&gt;Node21</title>
<path fill="none" stroke="midnightblue" d="M573,-191.11C573,-182.15 573,-172.32 573,-164.58"/>
<polygon fill="midnightblue" stroke="midnightblue" points="569.5,-191.4 573,-201.4 576.5,-191.4 569.5,-191.4"/>
</g>
<!-- Node22 -->
<g id="node22" class="node">
<title>Node22</title>
<g id="a_node22"><a xlink:href="_factory_8cpp.html" target="_top" xlink:title=" ">
<polygon fill="white" stroke="black" points="397,-134.5 397,-164.5 507,-164.5 507,-134.5 397,-134.5"/>
<text text-anchor="start" x="405" y="-152.5" font-family="Helvetica,sans-Serif" font-size="10.00">src/GameLogic/Units</text>
<text text-anchor="middle" x="452" y="-141.5" font-family="Helvetica,sans-Serif" font-size="10.00">/Factory.cpp</text>
</a>
</g>
</g>
<!-- Node20&#45;&gt;Node22 -->
<g id="edge26" class="edge">
<title>Node20&#45;&gt;Node22</title>
<path fill="none" stroke="midnightblue" d="M537.77,-196.57C518.74,-186.35 495.63,-173.94 478.2,-164.58"/>
<polygon fill="midnightblue" stroke="midnightblue" points="536.28,-199.75 546.74,-201.4 539.59,-193.58 536.28,-199.75"/>
</g>
<!-- Node23 -->
<g id="node23" class="node">
<title>Node23</title>
<g id="a_node23"><a xlink:href="_squad_template_8h.html" target="_top" xlink:title=" ">
<polygon fill="white" stroke="black" points="247.5,-134.5 247.5,-164.5 378.5,-164.5 378.5,-134.5 247.5,-134.5"/>
<text text-anchor="start" x="255.5" y="-152.5" font-family="Helvetica,sans-Serif" font-size="10.00">include/GameLogic/Squad</text>
<text text-anchor="middle" x="313" y="-141.5" font-family="Helvetica,sans-Serif" font-size="10.00">/SquadTemplate.h</text>
</a>
</g>
</g>
<!-- Node20&#45;&gt;Node23 -->
<g id="edge27" class="edge">
<title>Node20&#45;&gt;Node23</title>
<path fill="none" stroke="midnightblue" d="M506.94,-198.98C464.47,-188.37 409.88,-174.72 369.44,-164.61"/>
<polygon fill="midnightblue" stroke="midnightblue" points="506.35,-202.45 516.9,-201.48 508.05,-195.66 506.35,-202.45"/>
</g>
<!-- Node27 -->
<g id="node27" class="node">
<title>Node27</title>
<g id="a_node27"><a xlink:href="_all_units_8h.html" target="_top" xlink:title=" ">
<polygon fill="white" stroke="black" points="102.5,-134.5 102.5,-164.5 229.5,-164.5 229.5,-134.5 102.5,-134.5"/>
<text text-anchor="start" x="110.5" y="-152.5" font-family="Helvetica,sans-Serif" font-size="10.00">include/GameLogic/Units</text>
<text text-anchor="middle" x="166" y="-141.5" font-family="Helvetica,sans-Serif" font-size="10.00">/AllUnits.h</text>
</a>
</g>
</g>
<!-- Node20&#45;&gt;Node27 -->
<g id="edge32" class="edge">
<title>Node20&#45;&gt;Node27</title>
<path fill="none" stroke="midnightblue" d="M498.93,-201.65C497.61,-201.43 496.3,-201.21 495,-201 381.16,-182.46 351.7,-184.39 238,-165 235.23,-164.53 232.41,-164.03 229.56,-163.51"/>
<polygon fill="midnightblue" stroke="midnightblue" points="498.74,-205.17 509.19,-203.4 499.92,-198.27 498.74,-205.17"/>
</g>
<!-- Node28 -->
<g id="node28" class="node">
<title>Node28</title>
<g id="a_node28"><a xlink:href="_land_unit_factory_8h.html" target="_top" xlink:title=" ">
<polygon fill="white" stroke="black" points="677.5,-134.5 677.5,-164.5 804.5,-164.5 804.5,-134.5 677.5,-134.5"/>
<text text-anchor="start" x="685.5" y="-152.5" font-family="Helvetica,sans-Serif" font-size="10.00">include/GameLogic/Units</text>
<text text-anchor="middle" x="741" y="-141.5" font-family="Helvetica,sans-Serif" font-size="10.00">/LandUnitFactory.h</text>
</a>
</g>
</g>
<!-- Node20&#45;&gt;Node28 -->
<g id="edge40" class="edge">
<title>Node20&#45;&gt;Node28</title>
<path fill="none" stroke="midnightblue" d="M619.05,-197.68C646,-187.26 679.54,-174.28 704.62,-164.58"/>
<polygon fill="midnightblue" stroke="midnightblue" points="617.52,-194.52 609.45,-201.4 620.04,-201.05 617.52,-194.52"/>
</g>
<!-- Node30 -->
<g id="node30" class="node">
<title>Node30</title>
<g id="a_node30"><a xlink:href="_transport_unit_factory_8h.html" target="_top" xlink:title=" ">
<polygon fill="white" stroke="black" points="822.5,-134.5 822.5,-164.5 949.5,-164.5 949.5,-134.5 822.5,-134.5"/>
<text text-anchor="start" x="830.5" y="-152.5" font-family="Helvetica,sans-Serif" font-size="10.00">include/GameLogic/Units</text>
<text text-anchor="middle" x="886" y="-141.5" font-family="Helvetica,sans-Serif" font-size="10.00">/TransportUnitFactory.h</text>
</a>
</g>
</g>
<!-- Node20&#45;&gt;Node30 -->
<g id="edge43" class="edge">
<title>Node20&#45;&gt;Node30</title>
<path fill="none" stroke="midnightblue" d="M646.8,-200.17C700.16,-189.09 771.52,-174.27 822.37,-163.71"/>
<polygon fill="midnightblue" stroke="midnightblue" points="645.8,-196.81 636.72,-202.27 647.22,-203.66 645.8,-196.81"/>
</g>
<!-- Node24 -->
<g id="node24" class="node">
<title>Node24</title>
<g id="a_node24"><a xlink:href="_squad_template_8cpp.html" target="_top" xlink:title=" ">
<polygon fill="white" stroke="black" points="278,-67.5 278,-97.5 392,-97.5 392,-67.5 278,-67.5"/>
<text text-anchor="start" x="286" y="-85.5" font-family="Helvetica,sans-Serif" font-size="10.00">src/GameLogic/Squad</text>
<text text-anchor="middle" x="335" y="-74.5" font-family="Helvetica,sans-Serif" font-size="10.00">/SquadTemplate.cpp</text>
</a>
</g>
</g>
<!-- Node23&#45;&gt;Node24 -->
<g id="edge28" class="edge">
<title>Node23&#45;&gt;Node24</title>
<path fill="none" stroke="midnightblue" d="M321.06,-124.7C324.14,-115.59 327.56,-105.49 330.24,-97.58"/>
<polygon fill="midnightblue" stroke="midnightblue" points="317.66,-123.8 317.77,-134.4 324.29,-126.05 317.66,-123.8"/>
</g>
<!-- Node25 -->
<g id="node25" class="node">
<title>Node25</title>
<g id="a_node25"><a xlink:href="_all_squad_templates_8h.html" target="_top" xlink:title=" ">
<polygon fill="white" stroke="black" points="90.5,-67.5 90.5,-97.5 221.5,-97.5 221.5,-67.5 90.5,-67.5"/>
<text text-anchor="start" x="98.5" y="-85.5" font-family="Helvetica,sans-Serif" font-size="10.00">include/GameLogic/Squad</text>
<text text-anchor="middle" x="156" y="-74.5" font-family="Helvetica,sans-Serif" font-size="10.00">/AllSquadTemplates.h</text>
</a>
</g>
</g>
<!-- Node23&#45;&gt;Node25 -->
<g id="edge29" class="edge">
<title>Node23&#45;&gt;Node25</title>
<path fill="none" stroke="midnightblue" d="M269.63,-130.54C244.51,-120.14 213.34,-107.24 190,-97.58"/>
<polygon fill="midnightblue" stroke="midnightblue" points="268.36,-133.8 278.93,-134.4 271.03,-127.34 268.36,-133.8"/>
</g>
<!-- Node25&#45;&gt;Node4 -->
<g id="edge31" class="edge">
<title>Node25&#45;&gt;Node4</title>
<path fill="none" stroke="midnightblue" d="M123.05,-103.4C111.99,-111.59 100.56,-122 93,-134 73.18,-165.47 74,-178.31 74,-215.5 74,-351.5 74,-351.5 74,-351.5 74,-470.19 477.9,-449.67 595,-469 605.58,-470.75 616.98,-472.88 627.54,-474.98"/>
<polygon fill="midnightblue" stroke="midnightblue" points="125.18,-106.18 131.36,-97.57 121.16,-100.44 125.18,-106.18"/>
</g>
<!-- Node26 -->
<g id="node26" class="node">
<title>Node26</title>
<g id="a_node26"><a xlink:href="_all_squad_templates_8cpp.html" target="_top" xlink:title=" ">
<polygon fill="white" stroke="black" points="95,-0.5 95,-30.5 217,-30.5 217,-0.5 95,-0.5"/>
<text text-anchor="start" x="103" y="-18.5" font-family="Helvetica,sans-Serif" font-size="10.00">src/GameLogic/Squad</text>
<text text-anchor="middle" x="156" y="-7.5" font-family="Helvetica,sans-Serif" font-size="10.00">/AllSquadTemplates.cpp</text>
</a>
</g>
</g>
<!-- Node25&#45;&gt;Node26 -->
<g id="edge30" class="edge">
<title>Node25&#45;&gt;Node26</title>
<path fill="none" stroke="midnightblue" d="M156,-57.11C156,-48.15 156,-38.32 156,-30.58"/>
<polygon fill="midnightblue" stroke="midnightblue" points="152.5,-57.4 156,-67.4 159.5,-57.4 152.5,-57.4"/>
</g>
<!-- Node27&#45;&gt;Node4 -->
<g id="edge37" class="edge">
<title>Node27&#45;&gt;Node4</title>
<path fill="none" stroke="midnightblue" d="M239.69,-165.98C332.79,-187.69 481,-230.44 481,-282.5 481,-351.5 481,-351.5 481,-351.5 481,-423.82 575.52,-460.03 630.16,-474.92"/>
<polygon fill="midnightblue" stroke="midnightblue" points="240.28,-162.52 229.74,-163.69 238.71,-169.34 240.28,-162.52"/>
</g>
<!-- Node27&#45;&gt;Node6 -->
<g id="edge36" class="edge">
<title>Node27&#45;&gt;Node6</title>
<path fill="none" stroke="midnightblue" d="M128.61,-129.8C103.68,-117.34 72.11,-101.56 53.01,-92.01"/>
<polygon fill="midnightblue" stroke="midnightblue" points="127.28,-133.05 137.79,-134.4 130.41,-126.79 127.28,-133.05"/>
</g>
<!-- Node27&#45;&gt;Node10 -->
<g id="edge33" class="edge">
<title>Node27&#45;&gt;Node10</title>
<path fill="none" stroke="midnightblue" d="M239.54,-133.71C317.15,-118.6 396.06,-103.77 447.93,-94.09"/>
<polygon fill="midnightblue" stroke="midnightblue" points="238.74,-130.3 229.6,-135.65 240.08,-137.17 238.74,-130.3"/>
</g>
<!-- Node27&#45;&gt;Node18 -->
<g id="edge35" class="edge">
<title>Node27&#45;&gt;Node18</title>
<path fill="none" stroke="midnightblue" d="M191.97,-128.04C203.61,-118.87 217.5,-107.9 230,-98 247.36,-84.25 248.49,-75.34 269,-67 348.09,-34.83 599.17,-22.29 711.62,-18.2"/>
<polygon fill="midnightblue" stroke="midnightblue" points="189.63,-125.43 183.94,-134.37 193.97,-130.93 189.63,-125.43"/>
</g>
<!-- Node27&#45;&gt;Node24 -->
<g id="edge34" class="edge">
<title>Node27&#45;&gt;Node24</title>
<path fill="none" stroke="midnightblue" d="M212.33,-130.68C239.43,-120.26 273.17,-107.28 298.4,-97.58"/>
<polygon fill="midnightblue" stroke="midnightblue" points="210.75,-127.54 202.67,-134.4 213.26,-134.07 210.75,-127.54"/>
</g>
<!-- Node27&#45;&gt;Node25 -->
<g id="edge38" class="edge">
<title>Node27&#45;&gt;Node25</title>
<path fill="none" stroke="midnightblue" d="M162.29,-124.4C160.9,-115.37 159.37,-105.41 158.17,-97.58"/>
<polygon fill="midnightblue" stroke="midnightblue" points="158.85,-125.04 163.83,-134.4 165.77,-123.98 158.85,-125.04"/>
</g>
<!-- Node28&#45;&gt;Node18 -->
<g id="edge41" class="edge">
<title>Node28&#45;&gt;Node18</title>
<path fill="none" stroke="midnightblue" d="M745.75,-124.39C751.16,-96.9 759.83,-52.89 764.24,-30.52"/>
<polygon fill="midnightblue" stroke="midnightblue" points="742.28,-123.89 743.78,-134.37 749.15,-125.24 742.28,-123.89"/>
</g>
<!-- Node29 -->
<g id="node29" class="node">
<title>Node29</title>
<g id="a_node29"><a xlink:href="_land_unit_factory_8cpp.html" target="_top" xlink:title=" ">
<polygon fill="white" stroke="black" points="610,-67.5 610,-97.5 720,-97.5 720,-67.5 610,-67.5"/>
<text text-anchor="start" x="618" y="-85.5" font-family="Helvetica,sans-Serif" font-size="10.00">src/GameLogic/Units</text>
<text text-anchor="middle" x="665" y="-74.5" font-family="Helvetica,sans-Serif" font-size="10.00">/LandUnitFactory.cpp</text>
</a>
</g>
</g>
<!-- Node28&#45;&gt;Node29 -->
<g id="edge42" class="edge">
<title>Node28&#45;&gt;Node29</title>
<path fill="none" stroke="midnightblue" d="M716.89,-127.88C705.34,-118.01 691.81,-106.43 681.46,-97.58"/>
<polygon fill="midnightblue" stroke="midnightblue" points="714.63,-130.56 724.51,-134.4 719.18,-125.24 714.63,-130.56"/>
</g>
<!-- Node30&#45;&gt;Node17 -->
<g id="edge46" class="edge">
<title>Node30&#45;&gt;Node17</title>
<path fill="none" stroke="midnightblue" d="M925.28,-130.13C947.37,-119.8 974.51,-107.11 994.9,-97.58"/>
<polygon fill="midnightblue" stroke="midnightblue" points="923.74,-126.99 916.16,-134.4 926.7,-133.33 923.74,-126.99"/>
</g>
<!-- Node30&#45;&gt;Node18 -->
<g id="edge44" class="edge">
<title>Node30&#45;&gt;Node18</title>
<path fill="none" stroke="midnightblue" d="M846.29,-129.38C832.26,-121.19 817.19,-110.58 806,-98 788.07,-77.84 776.63,-47.98 771.05,-30.55"/>
<polygon fill="midnightblue" stroke="midnightblue" points="844.88,-132.6 855.31,-134.41 848.28,-126.49 844.88,-132.6"/>
</g>
<!-- Node31 -->
<g id="node31" class="node">
<title>Node31</title>
<g id="a_node31"><a xlink:href="_transport_unit_factory_8cpp.html" target="_top" xlink:title=" ">
<polygon fill="white" stroke="black" points="814.5,-67.5 814.5,-97.5 943.5,-97.5 943.5,-67.5 814.5,-67.5"/>
<text text-anchor="start" x="822.5" y="-85.5" font-family="Helvetica,sans-Serif" font-size="10.00">src/GameLogic/Units</text>
<text text-anchor="middle" x="879" y="-74.5" font-family="Helvetica,sans-Serif" font-size="10.00">/TransportUnitFactory.cpp</text>
</a>
</g>
</g>
<!-- Node30&#45;&gt;Node31 -->
<g id="edge45" class="edge">
<title>Node30&#45;&gt;Node31</title>
<path fill="none" stroke="midnightblue" d="M883.4,-124.4C882.43,-115.37 881.36,-105.41 880.52,-97.58"/>
<polygon fill="midnightblue" stroke="midnightblue" points="879.93,-124.83 884.48,-134.4 886.89,-124.08 879.93,-124.83"/>
</g>
<!-- Node32&#45;&gt;Node28 -->
<g id="edge49" class="edge">
<title>Node32&#45;&gt;Node28</title>
<path fill="none" stroke="midnightblue" d="M856.08,-197.54C830.63,-187.14 799.07,-174.24 775.43,-164.58"/>
<polygon fill="midnightblue" stroke="midnightblue" points="854.92,-200.85 865.5,-201.4 857.57,-194.37 854.92,-200.85"/>
</g>
<!-- Node33 -->
<g id="node33" class="node">
<title>Node33</title>
<g id="a_node33"><a xlink:href="_land_unit_8cpp.html" target="_top" xlink:title=" ">
<polygon fill="white" stroke="black" points="1006,-134.5 1006,-164.5 1116,-164.5 1116,-134.5 1006,-134.5"/>
<text text-anchor="start" x="1014" y="-152.5" font-family="Helvetica,sans-Serif" font-size="10.00">src/GameLogic/Units</text>
<text text-anchor="middle" x="1061" y="-141.5" font-family="Helvetica,sans-Serif" font-size="10.00">/LandUnit.cpp</text>
</a>
</g>
</g>
<!-- Node32&#45;&gt;Node33 -->
<g id="edge48" class="edge">
<title>Node32&#45;&gt;Node33</title>
<path fill="none" stroke="midnightblue" d="M944.48,-197.54C970.24,-187.14 1002.2,-174.24 1026.13,-164.58"/>
<polygon fill="midnightblue" stroke="midnightblue" points="942.9,-194.41 934.93,-201.4 945.52,-200.9 942.9,-194.41"/>
</g>
<!-- Node34&#45;&gt;Node15 -->
<g id="edge52" class="edge">
<title>Node34&#45;&gt;Node15</title>
<path fill="none" stroke="midnightblue" d="M1115.53,-199.19C1161.55,-188.54 1221.02,-174.78 1265,-164.61"/>
<polygon fill="midnightblue" stroke="midnightblue" points="1114.58,-195.81 1105.63,-201.48 1116.16,-202.63 1114.58,-195.81"/>
</g>
<!-- Node34&#45;&gt;Node30 -->
<g id="edge53" class="edge">
<title>Node34&#45;&gt;Node30</title>
<path fill="none" stroke="midnightblue" d="M1001.08,-197.54C975.63,-187.14 944.07,-174.24 920.43,-164.58"/>
<polygon fill="midnightblue" stroke="midnightblue" points="999.92,-200.85 1010.5,-201.4 1002.57,-194.37 999.92,-200.85"/>
</g>
<!-- Node35 -->
<g id="node35" class="node">
<title>Node35</title>
<g id="a_node35"><a xlink:href="_transport_unit_8cpp.html" target="_top" xlink:title=" ">
<polygon fill="white" stroke="black" points="1134,-134.5 1134,-164.5 1244,-164.5 1244,-134.5 1134,-134.5"/>
<text text-anchor="start" x="1142" y="-152.5" font-family="Helvetica,sans-Serif" font-size="10.00">src/GameLogic/Units</text>
<text text-anchor="middle" x="1189" y="-141.5" font-family="Helvetica,sans-Serif" font-size="10.00">/TransportUnit.cpp</text>
</a>
</g>
</g>
<!-- Node34&#45;&gt;Node35 -->
<g id="edge51" class="edge">
<title>Node34&#45;&gt;Node35</title>
<path fill="none" stroke="midnightblue" d="M1085.39,-197.27C1108.32,-186.92 1136.6,-174.15 1157.82,-164.58"/>
<polygon fill="midnightblue" stroke="midnightblue" points="1083.92,-194.09 1076.25,-201.4 1086.8,-200.47 1083.92,-194.09"/>
</g>
<!-- Node36&#45;&gt;Node11 -->
<g id="edge58" class="edge">
<title>Node36&#45;&gt;Node11</title>
<path fill="none" stroke="midnightblue" d="M1214.91,-234.51C1179.88,-245.09 1133.9,-258.51 1098.57,-268.48"/>
<polygon fill="midnightblue" stroke="midnightblue" points="1215.93,-237.86 1224.49,-231.61 1213.9,-231.16 1215.93,-237.86"/>
</g>
<!-- Node36&#45;&gt;Node12 -->
<g id="edge55" class="edge">
<title>Node36&#45;&gt;Node12</title>
<path fill="none" stroke="midnightblue" d="M1319.08,-198.23C1350.79,-187.71 1390.78,-174.45 1420.55,-164.58"/>
<polygon fill="midnightblue" stroke="midnightblue" points="1317.92,-194.93 1309.53,-201.4 1320.12,-201.57 1317.92,-194.93"/>
</g>
<!-- Node36&#45;&gt;Node13 -->
<g id="edge57" class="edge">
<title>Node36&#45;&gt;Node13</title>
<path fill="none" stroke="midnightblue" d="M1341.06,-201.61C1342.38,-201.4 1343.7,-201.2 1345,-201 1482.15,-180.31 1517.92,-186.18 1655,-165 1658.01,-164.53 1661.09,-164.04 1664.2,-163.51"/>
<polygon fill="midnightblue" stroke="midnightblue" points="1340.1,-198.22 1330.79,-203.28 1341.22,-205.12 1340.1,-198.22"/>
</g>
<!-- Node37 -->
<g id="node37" class="node">
<title>Node37</title>
<g id="a_node37"><a xlink:href="_unit_order_8cpp.html" target="_top" xlink:title=" ">
<polygon fill="white" stroke="black" points="1536,-134.5 1536,-164.5 1646,-164.5 1646,-134.5 1536,-134.5"/>
<text text-anchor="start" x="1544" y="-152.5" font-family="Helvetica,sans-Serif" font-size="10.00">src/GameLogic/Units</text>
<text text-anchor="middle" x="1591" y="-141.5" font-family="Helvetica,sans-Serif" font-size="10.00">/UnitOrder.cpp</text>
</a>
</g>
</g>
<!-- Node36&#45;&gt;Node37 -->
<g id="edge56" class="edge">
<title>Node36&#45;&gt;Node37</title>
<path fill="none" stroke="midnightblue" d="M1340.52,-201.85C1392.65,-192.01 1464.22,-178.2 1527,-165 1529.9,-164.39 1532.87,-163.75 1535.87,-163.11"/>
<polygon fill="midnightblue" stroke="midnightblue" points="1339.87,-198.41 1330.69,-203.7 1341.16,-205.29 1339.87,-198.41"/>
</g>
<!-- Node38&#45;&gt;Node8 -->
<g id="edge60" class="edge">
<title>Node38&#45;&gt;Node8</title>
<path fill="none" stroke="midnightblue" d="M1357.52,-268.6C1375.99,-257.69 1401.6,-242.55 1420.16,-231.59"/>
<polygon fill="midnightblue" stroke="midnightblue" points="1355.66,-265.63 1348.84,-273.73 1359.22,-271.66 1355.66,-265.63"/>
</g>
<!-- Node39 -->
<g id="node39" class="node">
<title>Node39</title>
<g id="a_node39"><a xlink:href="pathfinding_8cpp.html" target="_top" xlink:title=" ">
<polygon fill="white" stroke="black" points="1519.5,-207 1519.5,-226 1632.5,-226 1632.5,-207 1519.5,-207"/>
<text text-anchor="middle" x="1576" y="-214" font-family="Helvetica,sans-Serif" font-size="10.00">src/util/pathfinding.cpp</text>
</a>
</g>
</g>
<!-- Node38&#45;&gt;Node39 -->
<g id="edge61" class="edge">
<title>Node38&#45;&gt;Node39</title>
<path fill="none" stroke="midnightblue" d="M1375.61,-271.32C1423.4,-258.49 1500.75,-237.71 1544.04,-226.08"/>
<polygon fill="midnightblue" stroke="midnightblue" points="1374.64,-267.96 1365.89,-273.94 1376.45,-274.72 1374.64,-267.96"/>
</g>
</g>
</svg>
