<?xml version="1.0" encoding="UTF-8" standalone="no"?>
<!DOCTYPE svg PUBLIC "-//W3C//DTD SVG 1.1//EN"
 "http://www.w3.org/Graphics/SVG/1.1/DTD/svg11.dtd">
<!-- Generated by graphviz version 2.47.1 (20210421.1823)
 -->
<!-- Title: include/engine/actions/SetSquadPath.h Pages: 1 -->
<svg width="1361pt" height="722pt"
 viewBox="0.00 0.00 1361.00 722.00" xmlns="http://www.w3.org/2000/svg" xmlns:xlink="http://www.w3.org/1999/xlink">
<g id="graph0" class="graph" transform="scale(1 1) rotate(0) translate(4 718)">
<title>include/engine/actions/SetSquadPath.h</title>
<polygon fill="white" stroke="transparent" points="-4,4 -4,-718 1357,-718 1357,4 -4,4"/>
<!-- Node1 -->
<g id="node1" class="node">
<title>Node1</title>
<g id="a_node1"><a xlink:title=" ">
<polygon fill="#bfbfbf" stroke="black" points="731.5,-683.5 731.5,-713.5 844.5,-713.5 844.5,-683.5 731.5,-683.5"/>
<text text-anchor="start" x="739.5" y="-701.5" font-family="Helvetica,sans-Serif" font-size="10.00">include/engine/actions</text>
<text text-anchor="middle" x="788" y="-690.5" font-family="Helvetica,sans-Serif" font-size="10.00">/SetSquadPath.h</text>
</a>
</g>
</g>
<!-- Node2 -->
<g id="node2" class="node">
<title>Node2</title>
<g id="a_node2"><a xlink:href="engine_2_action_8h.html" target="_top" xlink:title=" ">
<polygon fill="white" stroke="black" points="332.5,-112.5 332.5,-131.5 415.5,-131.5 415.5,-112.5 332.5,-112.5"/>
<text text-anchor="middle" x="374" y="-119.5" font-family="Helvetica,sans-Serif" font-size="10.00">engine/Action.h</text>
</a>
</g>
</g>
<!-- Node1&#45;&gt;Node2 -->
<g id="edge1" class="edge">
<title>Node1&#45;&gt;Node2</title>
<path fill="none" stroke="midnightblue" d="M731.33,-695.17C550.65,-686.98 0,-655.97 0,-582 0,-582 0,-582 0,-345 0,-250.7 37.2,-218.25 117,-168 150.38,-146.98 257.31,-133.73 322.26,-127.41"/>
<polygon fill="midnightblue" stroke="midnightblue" points="322.68,-130.89 332.3,-126.46 322.01,-123.92 322.68,-130.89"/>
</g>
<!-- Node5 -->
<g id="node5" class="node">
<title>Node5</title>
<g id="a_node5"><a xlink:href="_squad_8h.html" target="_top" xlink:title=" ">
<polygon fill="white" stroke="black" points="943,-627.5 943,-646.5 1079,-646.5 1079,-627.5 943,-627.5"/>
<text text-anchor="middle" x="1011" y="-634.5" font-family="Helvetica,sans-Serif" font-size="10.00">GameLogic/Squad/Squad.h</text>
</a>
</g>
</g>
<!-- Node1&#45;&gt;Node5 -->
<g id="edge4" class="edge">
<title>Node1&#45;&gt;Node5</title>
<path fill="none" stroke="midnightblue" d="M840.57,-683.47C879.88,-672.99 932.91,-658.84 969.32,-649.12"/>
<polygon fill="midnightblue" stroke="midnightblue" points="970.36,-652.47 979.12,-646.51 968.55,-645.7 970.36,-652.47"/>
</g>
<!-- Node6 -->
<g id="node6" class="node">
<title>Node6</title>
<g id="a_node6"><a xlink:href="_cell_8h.html" target="_top" xlink:title=" ">
<polygon fill="white" stroke="black" points="741,-515.5 741,-534.5 835,-534.5 835,-515.5 741,-515.5"/>
<text text-anchor="middle" x="788" y="-522.5" font-family="Helvetica,sans-Serif" font-size="10.00">GameLogic/Cell.h</text>
</a>
</g>
</g>
<!-- Node1&#45;&gt;Node6 -->
<g id="edge88" class="edge">
<title>Node1&#45;&gt;Node6</title>
<path fill="none" stroke="midnightblue" d="M784.09,-683.47C780.48,-652.7 780.31,-579.33 783.6,-544.7"/>
<polygon fill="midnightblue" stroke="midnightblue" points="787.1,-544.91 784.84,-534.56 780.15,-544.06 787.1,-544.91"/>
</g>
<!-- Node3 -->
<g id="node3" class="node">
<title>Node3</title>
<g id="a_node3"><a xlink:title=" ">
<polygon fill="white" stroke="#bfbfbf" points="168,-56.5 168,-75.5 222,-75.5 222,-56.5 168,-56.5"/>
<text text-anchor="middle" x="195" y="-63.5" font-family="Helvetica,sans-Serif" font-size="10.00">iostream</text>
</a>
</g>
</g>
<!-- Node2&#45;&gt;Node3 -->
<g id="edge2" class="edge">
<title>Node2&#45;&gt;Node3</title>
<path fill="none" stroke="midnightblue" d="M345.64,-112.44C314.9,-103.17 265.75,-88.34 232,-78.16"/>
<polygon fill="midnightblue" stroke="midnightblue" points="232.64,-74.7 222.06,-75.16 230.62,-81.4 232.64,-74.7"/>
</g>
<!-- Node4 -->
<g id="node4" class="node">
<title>Node4</title>
<g id="a_node4"><a xlink:title=" ">
<polygon fill="white" stroke="#bfbfbf" points="555.5,-56.5 555.5,-75.5 606.5,-75.5 606.5,-56.5 555.5,-56.5"/>
<text text-anchor="middle" x="581" y="-63.5" font-family="Helvetica,sans-Serif" font-size="10.00">memory</text>
</a>
</g>
</g>
<!-- Node2&#45;&gt;Node4 -->
<g id="edge3" class="edge">
<title>Node2&#45;&gt;Node4</title>
<path fill="none" stroke="midnightblue" d="M406.8,-112.44C444.58,-102.59 506.43,-86.45 545.36,-76.3"/>
<polygon fill="midnightblue" stroke="midnightblue" points="546.43,-79.64 555.22,-73.73 544.66,-72.86 546.43,-79.64"/>
</g>
<!-- Node5&#45;&gt;Node6 -->
<g id="edge5" class="edge">
<title>Node5&#45;&gt;Node6</title>
<path fill="none" stroke="midnightblue" d="M1004.25,-627.36C998.38,-613.32 991.55,-585.64 974,-571 954.3,-554.56 892.45,-542.12 845.35,-534.53"/>
<polygon fill="midnightblue" stroke="midnightblue" points="845.67,-531.03 835.25,-532.93 844.58,-537.95 845.67,-531.03"/>
</g>
<!-- Node9 -->
<g id="node9" class="node">
<title>Node9</title>
<g id="a_node9"><a xlink:href="gameplay_clickable_game_object_8h.html" target="_top" xlink:title=" ">
<polygon fill="white" stroke="black" points="66.5,-448.5 66.5,-478.5 195.5,-478.5 195.5,-448.5 66.5,-448.5"/>
<text text-anchor="start" x="74.5" y="-466.5" font-family="Helvetica,sans-Serif" font-size="10.00">engine/gameplayClickable</text>
<text text-anchor="middle" x="131" y="-455.5" font-family="Helvetica,sans-Serif" font-size="10.00">GameObject.h</text>
</a>
</g>
</g>
<!-- Node5&#45;&gt;Node9 -->
<g id="edge81" class="edge">
<title>Node5&#45;&gt;Node9</title>
<path fill="none" stroke="midnightblue" d="M967.36,-627.5C826.6,-600.06 383.44,-513.7 205.76,-479.07"/>
<polygon fill="midnightblue" stroke="midnightblue" points="206.21,-475.59 195.72,-477.11 204.87,-482.46 206.21,-475.59"/>
</g>
<!-- Node12 -->
<g id="node12" class="node">
<title>Node12</title>
<g id="a_node12"><a xlink:href="config_8h.html" target="_top" xlink:title=" ">
<polygon fill="white" stroke="black" points="1198.5,-112.5 1198.5,-131.5 1279.5,-131.5 1279.5,-112.5 1198.5,-112.5"/>
<text text-anchor="middle" x="1239" y="-119.5" font-family="Helvetica,sans-Serif" font-size="10.00">engine/config.h</text>
</a>
</g>
</g>
<!-- Node5&#45;&gt;Node12 -->
<g id="edge85" class="edge">
<title>Node5&#45;&gt;Node12</title>
<path fill="none" stroke="midnightblue" d="M1067.11,-627.47C1154.95,-612.52 1315,-578.13 1315,-526 1315,-526 1315,-526 1315,-233 1315,-193.28 1281.04,-157.5 1258.52,-138.15"/>
<polygon fill="midnightblue" stroke="midnightblue" points="1260.48,-135.24 1250.54,-131.57 1256.02,-140.63 1260.48,-135.24"/>
</g>
<!-- Node15 -->
<g id="node15" class="node">
<title>Node15</title>
<g id="a_node15"><a xlink:href="_facade_8h.html" target="_top" xlink:title=" ">
<polygon fill="white" stroke="black" points="951,-0.5 951,-19.5 1007,-19.5 1007,-0.5 951,-0.5"/>
<text text-anchor="middle" x="979" y="-7.5" font-family="Helvetica,sans-Serif" font-size="10.00">Facade.h</text>
</a>
</g>
</g>
<!-- Node5&#45;&gt;Node15 -->
<g id="edge86" class="edge">
<title>Node5&#45;&gt;Node15</title>
<path fill="none" stroke="midnightblue" d="M1079.09,-631.94C1130.93,-626.94 1203.15,-615.8 1262,-591 1307.8,-571.7 1353,-575.7 1353,-526 1353,-526 1353,-526 1353,-121 1353,-82.87 1330.58,-74.06 1297,-56 1188.93,2.13 1142.2,-40.62 1017.15,-19.95"/>
<polygon fill="midnightblue" stroke="midnightblue" points="1017.67,-16.49 1007.21,-18.2 1016.45,-23.38 1017.67,-16.49"/>
</g>
<!-- Node31 -->
<g id="node31" class="node">
<title>Node31</title>
<g id="a_node31"><a xlink:href="_unit_8h.html" target="_top" xlink:title=" ">
<polygon fill="white" stroke="black" points="1118,-280.5 1118,-299.5 1160,-299.5 1160,-280.5 1118,-280.5"/>
<text text-anchor="middle" x="1139" y="-287.5" font-family="Helvetica,sans-Serif" font-size="10.00">Unit.h</text>
</a>
</g>
</g>
<!-- Node5&#45;&gt;Node31 -->
<g id="edge80" class="edge">
<title>Node5&#45;&gt;Node31</title>
<path fill="none" stroke="midnightblue" d="M1034.29,-627.43C1071.9,-613.45 1141,-581.55 1141,-526 1141,-526 1141,-526 1141,-401 1141,-368.79 1136.27,-331.53 1135.55,-309.69"/>
<polygon fill="midnightblue" stroke="midnightblue" points="1139.05,-309.55 1135.6,-299.53 1132.05,-309.51 1139.05,-309.55"/>
</g>
<!-- Node42 -->
<g id="node42" class="node">
<title>Node42</title>
<g id="a_node42"><a xlink:href="_player_8h.html" target="_top" xlink:title=" ">
<polygon fill="white" stroke="black" points="969,-336.5 969,-355.5 1073,-355.5 1073,-336.5 969,-336.5"/>
<text text-anchor="middle" x="1021" y="-343.5" font-family="Helvetica,sans-Serif" font-size="10.00">GameLogic/Player.h</text>
</a>
</g>
</g>
<!-- Node5&#45;&gt;Node42 -->
<g id="edge87" class="edge">
<title>Node5&#45;&gt;Node42</title>
<path fill="none" stroke="midnightblue" d="M1018.74,-627.31C1033.67,-609.59 1065,-567.48 1065,-526 1065,-526 1065,-526 1065,-462.5 1065,-425.66 1045.21,-386.28 1032.17,-364.34"/>
<polygon fill="midnightblue" stroke="midnightblue" points="1034.98,-362.23 1026.75,-355.56 1029.02,-365.91 1034.98,-362.23"/>
</g>
<!-- Node43 -->
<g id="node43" class="node">
<title>Node43</title>
<g id="a_node43"><a xlink:href="_game_logic_2_squad_2_action_8h.html" target="_top" xlink:title=" ">
<polygon fill="white" stroke="black" points="838,-571.5 838,-590.5 974,-590.5 974,-571.5 838,-571.5"/>
<text text-anchor="middle" x="906" y="-578.5" font-family="Helvetica,sans-Serif" font-size="10.00">GameLogic/Squad/Action.h</text>
</a>
</g>
</g>
<!-- Node5&#45;&gt;Node43 -->
<g id="edge82" class="edge">
<title>Node5&#45;&gt;Node43</title>
<path fill="none" stroke="midnightblue" d="M989.27,-627.44C970.81,-618.91 944.78,-605.67 926.65,-595.68"/>
<polygon fill="midnightblue" stroke="midnightblue" points="927.91,-592.38 917.48,-590.52 924.47,-598.48 927.91,-592.38"/>
</g>
<!-- Node6&#45;&gt;Node1 -->
<g id="edge44" class="edge">
<title>Node6&#45;&gt;Node1</title>
<path fill="none" stroke="midnightblue" d="M791.16,-534.56C795.27,-559.71 795.85,-634.07 792.89,-673.04"/>
<polygon fill="midnightblue" stroke="midnightblue" points="789.36,-673.18 791.91,-683.47 796.33,-673.84 789.36,-673.18"/>
</g>
<!-- Node6&#45;&gt;Node3 -->
<g id="edge29" class="edge">
<title>Node6&#45;&gt;Node3</title>
<path fill="none" stroke="midnightblue" d="M741,-524.27C587.76,-524.73 109.46,-522.62 57,-479 30.23,-456.74 38,-437.82 38,-403 38,-403 38,-403 38,-345 38,-231.72 138.06,-122.13 178.42,-82.54"/>
<polygon fill="midnightblue" stroke="midnightblue" points="180.88,-85.03 185.65,-75.57 176.02,-79.99 180.88,-85.03"/>
</g>
<!-- Node6&#45;&gt;Node5 -->
<g id="edge28" class="edge">
<title>Node6&#45;&gt;Node5</title>
<path fill="none" stroke="midnightblue" d="M835.15,-531.05C887.98,-537.96 968.93,-551.74 992,-571 1005.98,-582.67 1013.16,-602.61 1014.98,-617.34"/>
<polygon fill="midnightblue" stroke="midnightblue" points="1011.48,-617.5 1015.35,-627.36 1018.48,-617.24 1011.48,-617.5"/>
</g>
<!-- Node7 -->
<g id="node7" class="node">
<title>Node7</title>
<g id="a_node7"><a xlink:title=" ">
<polygon fill="white" stroke="#bfbfbf" points="157.5,-336.5 157.5,-355.5 192.5,-355.5 192.5,-336.5 157.5,-336.5"/>
<text text-anchor="middle" x="175" y="-343.5" font-family="Helvetica,sans-Serif" font-size="10.00">map</text>
</a>
</g>
</g>
<!-- Node6&#45;&gt;Node7 -->
<g id="edge6" class="edge">
<title>Node6&#45;&gt;Node7</title>
<path fill="none" stroke="midnightblue" d="M740.62,-522.61C616.36,-518.61 287.87,-505.62 247,-479 206.46,-452.6 186.88,-395.25 179.16,-365.59"/>
<polygon fill="midnightblue" stroke="midnightblue" points="182.52,-364.6 176.77,-355.7 175.72,-366.25 182.52,-364.6"/>
</g>
<!-- Node8 -->
<g id="node8" class="node">
<title>Node8</title>
<g id="a_node8"><a xlink:title=" ">
<polygon fill="white" stroke="#bfbfbf" points="969,-454 969,-473 999,-473 999,-454 969,-454"/>
<text text-anchor="middle" x="984" y="-461" font-family="Helvetica,sans-Serif" font-size="10.00">set</text>
</a>
</g>
</g>
<!-- Node6&#45;&gt;Node8 -->
<g id="edge7" class="edge">
<title>Node6&#45;&gt;Node8</title>
<path fill="none" stroke="midnightblue" d="M828.53,-515.48C862.8,-507.71 912.9,-495.01 955,-479 956.59,-478.39 958.21,-477.73 959.83,-477.03"/>
<polygon fill="midnightblue" stroke="midnightblue" points="961.35,-480.18 968.91,-472.76 958.37,-473.85 961.35,-480.18"/>
</g>
<!-- Node6&#45;&gt;Node9 -->
<g id="edge8" class="edge">
<title>Node6&#45;&gt;Node9</title>
<path fill="none" stroke="midnightblue" d="M740.63,-521.98C641.71,-517.4 406.12,-504.56 210,-479 208.53,-478.81 207.05,-478.61 205.55,-478.4"/>
<polygon fill="midnightblue" stroke="midnightblue" points="205.99,-474.93 195.58,-476.92 204.96,-481.85 205.99,-474.93"/>
</g>
<!-- Node6&#45;&gt;Node12 -->
<g id="edge26" class="edge">
<title>Node6&#45;&gt;Node12</title>
<path fill="none" stroke="midnightblue" d="M835.2,-524.13C886.34,-522.33 968.82,-513.63 1030,-479 1151.38,-410.29 1170.96,-366.31 1238,-244 1254.59,-213.73 1259.53,-202.07 1254,-168 1252.53,-158.96 1249.51,-149.28 1246.56,-141.22"/>
<polygon fill="midnightblue" stroke="midnightblue" points="1249.76,-139.79 1242.86,-131.75 1243.24,-142.34 1249.76,-139.79"/>
</g>
<!-- Node6&#45;&gt;Node15 -->
<g id="edge27" class="edge">
<title>Node6&#45;&gt;Node15</title>
<path fill="none" stroke="midnightblue" d="M817.5,-515.46C861.96,-500.56 941,-465.31 941,-403 941,-403 941,-403 941,-121 941,-86.81 957.6,-49.76 968.86,-28.57"/>
<polygon fill="midnightblue" stroke="midnightblue" points="971.95,-30.22 973.72,-19.77 965.82,-26.83 971.95,-30.22"/>
</g>
<!-- Node17 -->
<g id="node17" class="node">
<title>Node17</title>
<g id="a_node17"><a xlink:href="cellgen_8h.html" target="_top" xlink:title=" ">
<polygon fill="white" stroke="black" points="260.5,-392.5 260.5,-411.5 331.5,-411.5 331.5,-392.5 260.5,-392.5"/>
<text text-anchor="middle" x="296" y="-399.5" font-family="Helvetica,sans-Serif" font-size="10.00">util/cellgen.h</text>
</a>
</g>
</g>
<!-- Node6&#45;&gt;Node17 -->
<g id="edge17" class="edge">
<title>Node6&#45;&gt;Node17</title>
<path fill="none" stroke="midnightblue" d="M740.71,-521.92C649.59,-517.38 453.21,-504.85 391,-479 373.8,-471.85 335.22,-438.49 312.87,-418.42"/>
<polygon fill="midnightblue" stroke="midnightblue" points="315.21,-415.81 305.45,-411.7 310.51,-421 315.21,-415.81"/>
</g>
<!-- Node20 -->
<g id="node20" class="node">
<title>Node20</title>
<g id="a_node20"><a xlink:href="_all_flags_8h.html" target="_top" xlink:title=" ">
<polygon fill="white" stroke="black" points="815.5,-224.5 815.5,-243.5 874.5,-243.5 874.5,-224.5 815.5,-224.5"/>
<text text-anchor="middle" x="845" y="-231.5" font-family="Helvetica,sans-Serif" font-size="10.00">AllFlags.h</text>
</a>
</g>
</g>
<!-- Node6&#45;&gt;Node20 -->
<g id="edge21" class="edge">
<title>Node6&#45;&gt;Node20</title>
<path fill="none" stroke="midnightblue" d="M763.53,-515.44C747.43,-508.38 727.62,-496.63 718,-479 711.4,-466.91 711.72,-460.26 718,-448 730.48,-423.63 748.45,-431.17 768,-412 790.21,-390.22 796.12,-383.84 810,-356 827.02,-321.87 837.09,-278.09 841.78,-253.65"/>
<polygon fill="midnightblue" stroke="midnightblue" points="845.27,-254.07 843.62,-243.6 838.38,-252.81 845.27,-254.07"/>
</g>
<!-- Node23 -->
<g id="node23" class="node">
<title>Node23</title>
<g id="a_node23"><a xlink:href="geometry_8h.html" target="_top" xlink:title=" ">
<polygon fill="white" stroke="black" points="256,-454 256,-473 336,-473 336,-454 256,-454"/>
<text text-anchor="middle" x="296" y="-461" font-family="Helvetica,sans-Serif" font-size="10.00">util/geometry.h</text>
</a>
</g>
</g>
<!-- Node6&#45;&gt;Node23 -->
<g id="edge30" class="edge">
<title>Node6&#45;&gt;Node23</title>
<path fill="none" stroke="midnightblue" d="M740.9,-521.47C660.59,-516.63 492.24,-504.24 352,-479 346.56,-478.02 340.88,-476.79 335.3,-475.47"/>
<polygon fill="midnightblue" stroke="midnightblue" points="336.01,-472.04 325.46,-473.01 334.32,-478.83 336.01,-472.04"/>
</g>
<!-- Node24 -->
<g id="node24" class="node">
<title>Node24</title>
<g id="a_node24"><a xlink:href="_none_8h.html" target="_top" xlink:title=" ">
<polygon fill="white" stroke="black" points="317.5,-168.5 317.5,-187.5 430.5,-187.5 430.5,-168.5 317.5,-168.5"/>
<text text-anchor="middle" x="374" y="-175.5" font-family="Helvetica,sans-Serif" font-size="10.00">engine/actions/None.h</text>
</a>
</g>
</g>
<!-- Node6&#45;&gt;Node24 -->
<g id="edge33" class="edge">
<title>Node6&#45;&gt;Node24</title>
<path fill="none" stroke="midnightblue" d="M740.75,-517.54C646.27,-503.28 443,-465.36 443,-403 443,-403 443,-403 443,-345 443,-286.7 406.27,-225.11 386.4,-196.06"/>
<polygon fill="midnightblue" stroke="midnightblue" points="389.23,-193.99 380.62,-187.82 383.5,-198.01 389.23,-193.99"/>
</g>
<!-- Node25 -->
<g id="node25" class="node">
<title>Node25</title>
<g id="a_node25"><a xlink:href="game_controller_8h.html" target="_top" xlink:title=" ">
<polygon fill="white" stroke="black" points="293.5,-280.5 293.5,-299.5 414.5,-299.5 414.5,-280.5 293.5,-280.5"/>
<text text-anchor="middle" x="354" y="-287.5" font-family="Helvetica,sans-Serif" font-size="10.00">engine/gameController.h</text>
</a>
</g>
</g>
<!-- Node6&#45;&gt;Node25 -->
<g id="edge35" class="edge">
<title>Node6&#45;&gt;Node25</title>
<path fill="none" stroke="midnightblue" d="M740.99,-524.13C654.74,-523.42 475.73,-517.24 429,-479 377.12,-436.54 409.08,-396.88 381,-336 376.61,-326.49 370.72,-316.44 365.56,-308.26"/>
<polygon fill="midnightblue" stroke="midnightblue" points="368.35,-306.13 359.97,-299.65 362.48,-309.95 368.35,-306.13"/>
</g>
<!-- Node29 -->
<g id="node29" class="node">
<title>Node29</title>
<g id="a_node29"><a xlink:href="_all_units_8h.html" target="_top" xlink:title=" ">
<polygon fill="white" stroke="black" points="815.5,-392.5 815.5,-411.5 874.5,-411.5 874.5,-392.5 815.5,-392.5"/>
<text text-anchor="middle" x="845" y="-399.5" font-family="Helvetica,sans-Serif" font-size="10.00">AllUnits.h</text>
</a>
</g>
</g>
<!-- Node6&#45;&gt;Node29 -->
<g id="edge45" class="edge">
<title>Node6&#45;&gt;Node29</title>
<path fill="none" stroke="midnightblue" d="M806.39,-515.47C820.1,-508 837.81,-495.71 846,-479 854.87,-460.9 852.8,-437.34 849.68,-421.28"/>
<polygon fill="midnightblue" stroke="midnightblue" points="853.1,-420.51 847.48,-411.52 846.27,-422.05 853.1,-420.51"/>
</g>
<!-- Node36 -->
<g id="node36" class="node">
<title>Node36</title>
<g id="a_node36"><a xlink:href="_all_squad_templates_8h.html" target="_top" xlink:title=" ">
<polygon fill="white" stroke="black" points="727.5,-454 727.5,-473 836.5,-473 836.5,-454 727.5,-454"/>
<text text-anchor="middle" x="782" y="-461" font-family="Helvetica,sans-Serif" font-size="10.00">AllSquadTemplates.h</text>
</a>
</g>
</g>
<!-- Node6&#45;&gt;Node36 -->
<g id="edge62" class="edge">
<title>Node6&#45;&gt;Node36</title>
<path fill="none" stroke="midnightblue" d="M787.14,-515.48C786.29,-507.08 784.97,-493.98 783.88,-483.16"/>
<polygon fill="midnightblue" stroke="midnightblue" points="787.34,-482.61 782.86,-473.01 780.38,-483.31 787.34,-482.61"/>
</g>
<!-- Node6&#45;&gt;Node42 -->
<g id="edge79" class="edge">
<title>Node6&#45;&gt;Node42</title>
<path fill="none" stroke="midnightblue" d="M835.26,-520.78C892.89,-515.79 985.42,-504.05 1008,-479 1036.18,-447.74 1030.75,-393.85 1025.34,-365.56"/>
<polygon fill="midnightblue" stroke="midnightblue" points="1028.76,-364.82 1023.26,-355.77 1021.91,-366.27 1028.76,-364.82"/>
</g>
<!-- Node10 -->
<g id="node10" class="node">
<title>Node10</title>
<g id="a_node10"><a xlink:href="game_object_8h.html" target="_top" xlink:title=" ">
<polygon fill="white" stroke="black" points="487.5,-168.5 487.5,-187.5 564.5,-187.5 564.5,-168.5 487.5,-168.5"/>
<text text-anchor="middle" x="526" y="-175.5" font-family="Helvetica,sans-Serif" font-size="10.00">gameObject.h</text>
</a>
</g>
</g>
<!-- Node9&#45;&gt;Node10 -->
<g id="edge9" class="edge">
<title>Node9&#45;&gt;Node10</title>
<path fill="none" stroke="midnightblue" d="M129.16,-448.23C126.7,-423.27 125.01,-371 148,-336 154.62,-325.92 322.83,-228.54 334,-224 380.97,-204.9 437.86,-192.84 477.47,-186.07"/>
<polygon fill="midnightblue" stroke="midnightblue" points="478.11,-189.51 487.4,-184.42 476.96,-182.6 478.11,-189.51"/>
</g>
<!-- Node10&#45;&gt;Node2 -->
<g id="edge16" class="edge">
<title>Node10&#45;&gt;Node2</title>
<path fill="none" stroke="midnightblue" d="M501.92,-168.44C476.46,-159.4 436.11,-145.06 407.54,-134.92"/>
<polygon fill="midnightblue" stroke="midnightblue" points="408.57,-131.57 397.97,-131.52 406.22,-138.16 408.57,-131.57"/>
</g>
<!-- Node11 -->
<g id="node11" class="node">
<title>Node11</title>
<g id="a_node11"><a xlink:title=" ">
<polygon fill="white" stroke="#bfbfbf" points="571.5,-112.5 571.5,-131.5 600.5,-131.5 600.5,-112.5 571.5,-112.5"/>
<text text-anchor="middle" x="586" y="-119.5" font-family="Helvetica,sans-Serif" font-size="10.00">list</text>
</a>
</g>
</g>
<!-- Node10&#45;&gt;Node11 -->
<g id="edge10" class="edge">
<title>Node10&#45;&gt;Node11</title>
<path fill="none" stroke="midnightblue" d="M535.64,-168.32C544.51,-160.34 557.87,-148.31 568.61,-138.65"/>
<polygon fill="midnightblue" stroke="midnightblue" points="571.09,-141.13 576.18,-131.83 566.41,-135.92 571.09,-141.13"/>
</g>
<!-- Node10&#45;&gt;Node12 -->
<g id="edge11" class="edge">
<title>Node10&#45;&gt;Node12</title>
<path fill="none" stroke="midnightblue" d="M564.69,-175.92C665.7,-172.77 945.75,-161.93 1188.35,-132.08"/>
<polygon fill="midnightblue" stroke="midnightblue" points="1188.92,-135.53 1198.41,-130.82 1188.06,-128.58 1188.92,-135.53"/>
</g>
<!-- Node13 -->
<g id="node13" class="node">
<title>Node13</title>
<g id="a_node13"><a xlink:href="_s_f_m_l_facade_8h.html" target="_top" xlink:title=" ">
<polygon fill="white" stroke="black" points="1011.5,-56.5 1011.5,-75.5 1134.5,-75.5 1134.5,-56.5 1011.5,-56.5"/>
<text text-anchor="middle" x="1073" y="-63.5" font-family="Helvetica,sans-Serif" font-size="10.00">graphics/SFMLFacade.h</text>
</a>
</g>
</g>
<!-- Node12&#45;&gt;Node13 -->
<g id="edge12" class="edge">
<title>Node12&#45;&gt;Node13</title>
<path fill="none" stroke="midnightblue" d="M1212.7,-112.44C1184.65,-103.32 1140.06,-88.81 1108.82,-78.65"/>
<polygon fill="midnightblue" stroke="midnightblue" points="1109.77,-75.28 1099.18,-75.52 1107.61,-81.94 1109.77,-75.28"/>
</g>
<!-- Node16 -->
<g id="node16" class="node">
<title>Node16</title>
<g id="a_node16"><a xlink:title=" ">
<polygon fill="white" stroke="#bfbfbf" points="1190,-56.5 1190,-75.5 1288,-75.5 1288,-56.5 1190,-56.5"/>
<text text-anchor="middle" x="1239" y="-63.5" font-family="Helvetica,sans-Serif" font-size="10.00">nlohmann/json.hpp</text>
</a>
</g>
</g>
<!-- Node12&#45;&gt;Node16 -->
<g id="edge15" class="edge">
<title>Node12&#45;&gt;Node16</title>
<path fill="none" stroke="midnightblue" d="M1239,-112.08C1239,-105.01 1239,-94.86 1239,-85.99"/>
<polygon fill="midnightblue" stroke="midnightblue" points="1242.5,-85.75 1239,-75.75 1235.5,-85.75 1242.5,-85.75"/>
</g>
<!-- Node14 -->
<g id="node14" class="node">
<title>Node14</title>
<g id="a_node14"><a xlink:title=" ">
<polygon fill="white" stroke="#bfbfbf" points="1025,-0.5 1025,-19.5 1129,-19.5 1129,-0.5 1025,-0.5"/>
<text text-anchor="middle" x="1077" y="-7.5" font-family="Helvetica,sans-Serif" font-size="10.00">SFML/Graphics.hpp</text>
</a>
</g>
</g>
<!-- Node13&#45;&gt;Node14 -->
<g id="edge13" class="edge">
<title>Node13&#45;&gt;Node14</title>
<path fill="none" stroke="midnightblue" d="M1073.66,-56.08C1074.18,-49.01 1074.94,-38.86 1075.59,-29.99"/>
<polygon fill="midnightblue" stroke="midnightblue" points="1079.1,-29.98 1076.35,-19.75 1072.12,-29.47 1079.1,-29.98"/>
</g>
<!-- Node13&#45;&gt;Node15 -->
<g id="edge14" class="edge">
<title>Node13&#45;&gt;Node15</title>
<path fill="none" stroke="midnightblue" d="M1057.9,-56.32C1043.1,-47.82 1020.31,-34.73 1003.02,-24.8"/>
<polygon fill="midnightblue" stroke="midnightblue" points="1004.48,-21.6 994.07,-19.65 1000.99,-27.67 1004.48,-21.6"/>
</g>
<!-- Node17&#45;&gt;Node7 -->
<g id="edge19" class="edge">
<title>Node17&#45;&gt;Node7</title>
<path fill="none" stroke="midnightblue" d="M276.83,-392.44C256.63,-383.43 224.65,-369.16 201.92,-359.02"/>
<polygon fill="midnightblue" stroke="midnightblue" points="203.07,-355.69 192.51,-354.82 200.22,-362.09 203.07,-355.69"/>
</g>
<!-- Node18 -->
<g id="node18" class="node">
<title>Node18</title>
<g id="a_node18"><a xlink:title=" ">
<polygon fill="white" stroke="#bfbfbf" points="510,-112.5 510,-131.5 554,-131.5 554,-112.5 510,-112.5"/>
<text text-anchor="middle" x="532" y="-119.5" font-family="Helvetica,sans-Serif" font-size="10.00">vector</text>
</a>
</g>
</g>
<!-- Node17&#45;&gt;Node18 -->
<g id="edge18" class="edge">
<title>Node17&#45;&gt;Node18</title>
<path fill="none" stroke="midnightblue" d="M311.74,-392.4C331.66,-380.37 361.8,-357.54 348,-336 321.61,-294.81 174.39,-285.19 148,-244 143.2,-236.52 144.46,-232.15 148,-224 162.54,-190.55 175.07,-183.68 208,-168 234.08,-155.58 423.31,-134.48 499.92,-126.34"/>
<polygon fill="midnightblue" stroke="midnightblue" points="500.38,-129.81 509.96,-125.28 499.65,-122.85 500.38,-129.81"/>
</g>
<!-- Node19 -->
<g id="node19" class="node">
<title>Node19</title>
<g id="a_node19"><a xlink:title=" ">
<polygon fill="white" stroke="#bfbfbf" points="211,-336.5 211,-355.5 339,-355.5 339,-336.5 211,-336.5"/>
<text text-anchor="middle" x="275" y="-343.5" font-family="Helvetica,sans-Serif" font-size="10.00">scanline_triangulation.hpp</text>
</a>
</g>
</g>
<!-- Node17&#45;&gt;Node19 -->
<g id="edge20" class="edge">
<title>Node17&#45;&gt;Node19</title>
<path fill="none" stroke="midnightblue" d="M292.53,-392.08C289.69,-384.77 285.57,-374.18 282.04,-365.1"/>
<polygon fill="midnightblue" stroke="midnightblue" points="285.29,-363.8 278.4,-355.75 278.77,-366.34 285.29,-363.8"/>
</g>
<!-- Node20&#45;&gt;Node4 -->
<g id="edge25" class="edge">
<title>Node20&#45;&gt;Node4</title>
<path fill="none" stroke="midnightblue" d="M835.3,-224.45C820.34,-211.46 790.5,-186.35 763,-168 710.25,-132.8 644.29,-98.39 608.02,-80.24"/>
<polygon fill="midnightblue" stroke="midnightblue" points="609.13,-76.88 598.62,-75.56 606.01,-83.15 609.13,-76.88"/>
</g>
<!-- Node21 -->
<g id="node21" class="node">
<title>Node21</title>
<g id="a_node21"><a xlink:href="_flag_8h.html" target="_top" xlink:title=" ">
<polygon fill="white" stroke="black" points="823.5,-168.5 823.5,-187.5 866.5,-187.5 866.5,-168.5 823.5,-168.5"/>
<text text-anchor="middle" x="845" y="-175.5" font-family="Helvetica,sans-Serif" font-size="10.00">Flag.h</text>
</a>
</g>
</g>
<!-- Node20&#45;&gt;Node21 -->
<g id="edge22" class="edge">
<title>Node20&#45;&gt;Node21</title>
<path fill="none" stroke="midnightblue" d="M845,-224.08C845,-217.01 845,-206.86 845,-197.99"/>
<polygon fill="midnightblue" stroke="midnightblue" points="848.5,-197.75 845,-187.75 841.5,-197.75 848.5,-197.75"/>
</g>
<!-- Node21&#45;&gt;Node18 -->
<g id="edge23" class="edge">
<title>Node21&#45;&gt;Node18</title>
<path fill="none" stroke="midnightblue" d="M823.15,-174.54C776.89,-169.11 665.52,-154.92 563.99,-132.24"/>
<polygon fill="midnightblue" stroke="midnightblue" points="564.72,-128.82 554.19,-130.02 563.17,-135.64 564.72,-128.82"/>
</g>
<!-- Node22 -->
<g id="node22" class="node">
<title>Node22</title>
<g id="a_node22"><a xlink:title=" ">
<polygon fill="white" stroke="#bfbfbf" points="871.5,-112.5 871.5,-131.5 912.5,-131.5 912.5,-112.5 871.5,-112.5"/>
<text text-anchor="middle" x="892" y="-119.5" font-family="Helvetica,sans-Serif" font-size="10.00">string</text>
</a>
</g>
</g>
<!-- Node21&#45;&gt;Node22 -->
<g id="edge24" class="edge">
<title>Node21&#45;&gt;Node22</title>
<path fill="none" stroke="midnightblue" d="M852.76,-168.08C859.54,-160.3 869.54,-148.8 877.76,-139.37"/>
<polygon fill="midnightblue" stroke="midnightblue" points="880.46,-141.59 884.38,-131.75 875.18,-137 880.46,-141.59"/>
</g>
<!-- Node23&#45;&gt;Node17 -->
<g id="edge32" class="edge">
<title>Node23&#45;&gt;Node17</title>
<path fill="none" stroke="midnightblue" d="M296,-453.98C296,-445.58 296,-432.48 296,-421.66"/>
<polygon fill="midnightblue" stroke="midnightblue" points="299.5,-421.51 296,-411.51 292.5,-421.51 299.5,-421.51"/>
</g>
<!-- Node23&#45;&gt;Node18 -->
<g id="edge31" class="edge">
<title>Node23&#45;&gt;Node18</title>
<path fill="none" stroke="midnightblue" d="M268.35,-453.94C212.4,-434.69 91,-382.41 91,-291 91,-291 91,-291 91,-233 91,-187.53 128.23,-185.96 170,-168 199.99,-155.1 416.55,-133.79 499.65,-125.98"/>
<polygon fill="midnightblue" stroke="midnightblue" points="500.15,-129.45 509.78,-125.03 499.5,-122.48 500.15,-129.45"/>
</g>
<!-- Node24&#45;&gt;Node2 -->
<g id="edge34" class="edge">
<title>Node24&#45;&gt;Node2</title>
<path fill="none" stroke="midnightblue" d="M374,-168.08C374,-161.01 374,-150.86 374,-141.99"/>
<polygon fill="midnightblue" stroke="midnightblue" points="377.5,-141.75 374,-131.75 370.5,-141.75 377.5,-141.75"/>
</g>
<!-- Node25&#45;&gt;Node10 -->
<g id="edge37" class="edge">
<title>Node25&#45;&gt;Node10</title>
<path fill="none" stroke="midnightblue" d="M390.78,-280.49C415.62,-273.5 448.27,-261.81 473,-244 490.83,-231.16 506.06,-210.86 515.56,-196.37"/>
<polygon fill="midnightblue" stroke="midnightblue" points="518.58,-198.14 520.94,-187.82 512.65,-194.42 518.58,-198.14"/>
</g>
<!-- Node25&#45;&gt;Node11 -->
<g id="edge36" class="edge">
<title>Node25&#45;&gt;Node11</title>
<path fill="none" stroke="midnightblue" d="M363.05,-280.41C372.54,-271.39 387.88,-256.76 401,-244 435.48,-210.48 437.96,-194.63 478,-168 485.3,-163.15 531.87,-144.37 561.43,-132.66"/>
<polygon fill="midnightblue" stroke="midnightblue" points="563.07,-135.78 571.08,-128.85 560.49,-129.27 563.07,-135.78"/>
</g>
<!-- Node26 -->
<g id="node26" class="node">
<title>Node26</title>
<g id="a_node26"><a xlink:href="_network_manager_8h.html" target="_top" xlink:title=" ">
<polygon fill="white" stroke="black" points="157,-224.5 157,-243.5 287,-243.5 287,-224.5 157,-224.5"/>
<text text-anchor="middle" x="222" y="-231.5" font-family="Helvetica,sans-Serif" font-size="10.00">engine/NetworkManager.h</text>
</a>
</g>
</g>
<!-- Node25&#45;&gt;Node26 -->
<g id="edge38" class="edge">
<title>Node25&#45;&gt;Node26</title>
<path fill="none" stroke="midnightblue" d="M333.08,-280.44C311.26,-271.52 276.85,-257.44 252.11,-247.32"/>
<polygon fill="midnightblue" stroke="midnightblue" points="253.4,-244.06 242.82,-243.52 250.75,-250.54 253.4,-244.06"/>
</g>
<!-- Node28 -->
<g id="node28" class="node">
<title>Node28</title>
<g id="a_node28"><a xlink:title=" ">
<polygon fill="white" stroke="#bfbfbf" points="343.5,-224.5 343.5,-243.5 392.5,-243.5 392.5,-224.5 343.5,-224.5"/>
<text text-anchor="middle" x="368" y="-231.5" font-family="Helvetica,sans-Serif" font-size="10.00">random</text>
</a>
</g>
</g>
<!-- Node25&#45;&gt;Node28 -->
<g id="edge43" class="edge">
<title>Node25&#45;&gt;Node28</title>
<path fill="none" stroke="midnightblue" d="M356.31,-280.08C358.17,-272.93 360.84,-262.64 363.15,-253.69"/>
<polygon fill="midnightblue" stroke="midnightblue" points="366.61,-254.31 365.73,-243.75 359.83,-252.55 366.61,-254.31"/>
</g>
<!-- Node26&#45;&gt;Node10 -->
<g id="edge39" class="edge">
<title>Node26&#45;&gt;Node10</title>
<path fill="none" stroke="midnightblue" d="M270.17,-224.44C326.75,-214.39 420.11,-197.81 477.03,-187.7"/>
<polygon fill="midnightblue" stroke="midnightblue" points="477.99,-191.08 487.22,-185.89 476.76,-184.19 477.99,-191.08"/>
</g>
<!-- Node26&#45;&gt;Node18 -->
<g id="edge41" class="edge">
<title>Node26&#45;&gt;Node18</title>
<path fill="none" stroke="midnightblue" d="M218.19,-224.2C212.89,-210.42 205.39,-183.71 219,-168 228.16,-157.42 421.31,-135.15 499.53,-126.52"/>
<polygon fill="midnightblue" stroke="midnightblue" points="500.22,-129.96 509.78,-125.39 499.46,-123.01 500.22,-129.96"/>
</g>
<!-- Node26&#45;&gt;Node24 -->
<g id="edge40" class="edge">
<title>Node26&#45;&gt;Node24</title>
<path fill="none" stroke="midnightblue" d="M246.08,-224.44C271.54,-215.4 311.89,-201.06 340.46,-190.92"/>
<polygon fill="midnightblue" stroke="midnightblue" points="341.78,-194.16 350.03,-187.52 339.43,-187.57 341.78,-194.16"/>
</g>
<!-- Node27 -->
<g id="node27" class="node">
<title>Node27</title>
<g id="a_node27"><a xlink:title=" ">
<polygon fill="white" stroke="#bfbfbf" points="228.5,-168.5 228.5,-187.5 299.5,-187.5 299.5,-168.5 228.5,-168.5"/>
<text text-anchor="middle" x="264" y="-175.5" font-family="Helvetica,sans-Serif" font-size="10.00">sys/socket.h</text>
</a>
</g>
</g>
<!-- Node26&#45;&gt;Node27 -->
<g id="edge42" class="edge">
<title>Node26&#45;&gt;Node27</title>
<path fill="none" stroke="midnightblue" d="M228.94,-224.08C234.93,-216.38 243.75,-205.03 251.05,-195.65"/>
<polygon fill="midnightblue" stroke="midnightblue" points="253.82,-197.79 257.19,-187.75 248.29,-193.5 253.82,-197.79"/>
</g>
<!-- Node30 -->
<g id="node30" class="node">
<title>Node30</title>
<g id="a_node30"><a xlink:href="_factory_8h.html" target="_top" xlink:title=" ">
<polygon fill="white" stroke="black" points="857,-336.5 857,-355.5 913,-355.5 913,-336.5 857,-336.5"/>
<text text-anchor="middle" x="885" y="-343.5" font-family="Helvetica,sans-Serif" font-size="10.00">Factory.h</text>
</a>
</g>
</g>
<!-- Node29&#45;&gt;Node30 -->
<g id="edge46" class="edge">
<title>Node29&#45;&gt;Node30</title>
<path fill="none" stroke="midnightblue" d="M851.61,-392.08C857.26,-384.46 865.54,-373.26 872.45,-363.94"/>
<polygon fill="midnightblue" stroke="midnightblue" points="875.38,-365.87 878.52,-355.75 869.75,-361.7 875.38,-365.87"/>
</g>
<!-- Node30&#45;&gt;Node6 -->
<g id="edge48" class="edge">
<title>Node30&#45;&gt;Node6</title>
<path fill="none" stroke="midnightblue" d="M886.16,-355.5C888.77,-378.23 892.75,-441.22 863,-479 851.98,-492.99 835.31,-503.61 820.49,-511.01"/>
<polygon fill="midnightblue" stroke="midnightblue" points="818.66,-508 811.09,-515.41 821.63,-514.34 818.66,-508"/>
</g>
<!-- Node30&#45;&gt;Node10 -->
<g id="edge61" class="edge">
<title>Node30&#45;&gt;Node10</title>
<path fill="none" stroke="midnightblue" d="M873.92,-336.38C845.36,-314.54 766.28,-256.49 692,-224 654.07,-207.41 608.53,-195.59 574.75,-188.24"/>
<polygon fill="midnightblue" stroke="midnightblue" points="575.17,-184.75 564.67,-186.1 573.72,-191.6 575.17,-184.75"/>
</g>
<!-- Node30&#45;&gt;Node22 -->
<g id="edge47" class="edge">
<title>Node30&#45;&gt;Node22</title>
<path fill="none" stroke="midnightblue" d="M885.27,-336.3C886.3,-303.63 889.95,-187.87 891.4,-141.96"/>
<polygon fill="midnightblue" stroke="midnightblue" points="894.9,-141.99 891.72,-131.88 887.91,-141.77 894.9,-141.99"/>
</g>
<!-- Node30&#45;&gt;Node31 -->
<g id="edge49" class="edge">
<title>Node30&#45;&gt;Node31</title>
<path fill="none" stroke="midnightblue" d="M913.15,-339.01C961.03,-328.84 1057.94,-308.23 1107.81,-297.63"/>
<polygon fill="midnightblue" stroke="midnightblue" points="1108.64,-301.03 1117.7,-295.53 1107.19,-294.18 1108.64,-301.03"/>
</g>
<!-- Node31&#45;&gt;Node5 -->
<g id="edge54" class="edge">
<title>Node31&#45;&gt;Node5</title>
<path fill="none" stroke="midnightblue" d="M1145.27,-299.53C1152.42,-317.98 1159,-363 1159,-401 1159,-526 1159,-526 1159,-526 1159,-577.64 1099.27,-608.85 1055.59,-624.22"/>
<polygon fill="midnightblue" stroke="midnightblue" points="1054.35,-620.94 1045.98,-627.43 1056.58,-627.58 1054.35,-620.94"/>
</g>
<!-- Node31&#45;&gt;Node12 -->
<g id="edge60" class="edge">
<title>Node31&#45;&gt;Node12</title>
<path fill="none" stroke="midnightblue" d="M1160.21,-283.06C1179.04,-276.63 1205.72,-264.44 1220,-244 1241.54,-213.16 1242.38,-167.16 1240.85,-141.68"/>
<polygon fill="midnightblue" stroke="midnightblue" points="1244.32,-141.24 1240.04,-131.55 1237.35,-141.79 1244.32,-141.24"/>
</g>
<!-- Node31&#45;&gt;Node20 -->
<g id="edge55" class="edge">
<title>Node31&#45;&gt;Node20</title>
<path fill="none" stroke="midnightblue" d="M1117.86,-285.12C1069.09,-276.16 948.09,-253.94 884.89,-242.33"/>
<polygon fill="midnightblue" stroke="midnightblue" points="885.36,-238.85 874.89,-240.49 884.09,-245.74 885.36,-238.85"/>
</g>
<!-- Node32 -->
<g id="node32" class="node">
<title>Node32</title>
<g id="a_node32"><a xlink:title=" ">
<polygon fill="white" stroke="#bfbfbf" points="1167.5,-224.5 1167.5,-243.5 1210.5,-243.5 1210.5,-224.5 1167.5,-224.5"/>
<text text-anchor="middle" x="1189" y="-231.5" font-family="Helvetica,sans-Serif" font-size="10.00">cstdio</text>
</a>
</g>
</g>
<!-- Node31&#45;&gt;Node32 -->
<g id="edge50" class="edge">
<title>Node31&#45;&gt;Node32</title>
<path fill="none" stroke="midnightblue" d="M1147.26,-280.08C1154.46,-272.3 1165.11,-260.8 1173.85,-251.37"/>
<polygon fill="midnightblue" stroke="midnightblue" points="1176.67,-253.47 1180.9,-243.75 1171.53,-248.71 1176.67,-253.47"/>
</g>
<!-- Node33 -->
<g id="node33" class="node">
<title>Node33</title>
<g id="a_node33"><a xlink:href="_unit_order_8h.html" target="_top" xlink:title=" ">
<polygon fill="white" stroke="black" points="1045,-224.5 1045,-243.5 1111,-243.5 1111,-224.5 1045,-224.5"/>
<text text-anchor="middle" x="1078" y="-231.5" font-family="Helvetica,sans-Serif" font-size="10.00">UnitOrder.h</text>
</a>
</g>
</g>
<!-- Node31&#45;&gt;Node33 -->
<g id="edge51" class="edge">
<title>Node31&#45;&gt;Node33</title>
<path fill="none" stroke="midnightblue" d="M1124.08,-280.32C1113.55,-272.5 1099.94,-260.78 1090.08,-251.22"/>
<polygon fill="midnightblue" stroke="midnightblue" points="1092.33,-248.52 1082.83,-243.83 1087.33,-253.42 1092.33,-248.52"/>
</g>
<!-- Node34 -->
<g id="node34" class="node">
<title>Node34</title>
<g id="a_node34"><a xlink:href="_textures_8h.html" target="_top" xlink:title=" ">
<polygon fill="white" stroke="black" points="1088.5,-168.5 1088.5,-187.5 1189.5,-187.5 1189.5,-168.5 1088.5,-168.5"/>
<text text-anchor="middle" x="1139" y="-175.5" font-family="Helvetica,sans-Serif" font-size="10.00">graphics/Textures.h</text>
</a>
</g>
</g>
<!-- Node31&#45;&gt;Node34 -->
<g id="edge56" class="edge">
<title>Node31&#45;&gt;Node34</title>
<path fill="none" stroke="midnightblue" d="M1139,-280.37C1139,-262.62 1139,-221.67 1139,-197.6"/>
<polygon fill="midnightblue" stroke="midnightblue" points="1142.5,-197.59 1139,-187.59 1135.5,-197.59 1142.5,-197.59"/>
</g>
<!-- Node33&#45;&gt;Node22 -->
<g id="edge52" class="edge">
<title>Node33&#45;&gt;Node22</title>
<path fill="none" stroke="midnightblue" d="M1063.4,-224.37C1031.35,-205.41 954.56,-160 915.58,-136.94"/>
<polygon fill="midnightblue" stroke="midnightblue" points="916.92,-133.67 906.53,-131.59 913.35,-139.69 916.92,-133.67"/>
</g>
<!-- Node33&#45;&gt;Node31 -->
<g id="edge53" class="edge">
<title>Node33&#45;&gt;Node31</title>
<path fill="none" stroke="midnightblue" d="M1093.02,-243.75C1103.52,-251.56 1117.04,-263.2 1126.86,-272.72"/>
<polygon fill="midnightblue" stroke="midnightblue" points="1124.59,-275.4 1134.09,-280.08 1129.58,-270.5 1124.59,-275.4"/>
</g>
<!-- Node34&#45;&gt;Node12 -->
<g id="edge57" class="edge">
<title>Node34&#45;&gt;Node12</title>
<path fill="none" stroke="midnightblue" d="M1155.07,-168.32C1170.96,-159.74 1195.51,-146.49 1213.96,-136.52"/>
<polygon fill="midnightblue" stroke="midnightblue" points="1215.84,-139.49 1222.97,-131.65 1212.51,-133.33 1215.84,-139.49"/>
</g>
<!-- Node34&#45;&gt;Node18 -->
<g id="edge58" class="edge">
<title>Node34&#45;&gt;Node18</title>
<path fill="none" stroke="midnightblue" d="M1088.39,-174.44C970.63,-168.28 680.07,-151.75 564.16,-132.02"/>
<polygon fill="midnightblue" stroke="midnightblue" points="564.61,-128.54 554.15,-130.22 563.37,-135.43 564.61,-128.54"/>
</g>
<!-- Node35 -->
<g id="node35" class="node">
<title>Node35</title>
<g id="a_node35"><a xlink:title=" ">
<polygon fill="white" stroke="#bfbfbf" points="1097.5,-112.5 1097.5,-131.5 1180.5,-131.5 1180.5,-112.5 1097.5,-112.5"/>
<text text-anchor="middle" x="1139" y="-119.5" font-family="Helvetica,sans-Serif" font-size="10.00">unordered_map</text>
</a>
</g>
</g>
<!-- Node34&#45;&gt;Node35 -->
<g id="edge59" class="edge">
<title>Node34&#45;&gt;Node35</title>
<path fill="none" stroke="midnightblue" d="M1139,-168.08C1139,-161.01 1139,-150.86 1139,-141.99"/>
<polygon fill="midnightblue" stroke="midnightblue" points="1142.5,-141.75 1139,-131.75 1135.5,-141.75 1142.5,-141.75"/>
</g>
<!-- Node36&#45;&gt;Node29 -->
<g id="edge78" class="edge">
<title>Node36&#45;&gt;Node29</title>
<path fill="none" stroke="midnightblue" d="M791.03,-453.98C800.76,-444.78 816.46,-429.96 828.42,-418.66"/>
<polygon fill="midnightblue" stroke="midnightblue" points="831.12,-420.92 835.99,-411.51 826.32,-415.83 831.12,-420.92"/>
</g>
<!-- Node37 -->
<g id="node37" class="node">
<title>Node37</title>
<g id="a_node37"><a xlink:href="_squad_template_8h.html" target="_top" xlink:title=" ">
<polygon fill="white" stroke="black" points="667,-392.5 667,-411.5 759,-411.5 759,-392.5 667,-392.5"/>
<text text-anchor="middle" x="713" y="-399.5" font-family="Helvetica,sans-Serif" font-size="10.00">SquadTemplate.h</text>
</a>
</g>
</g>
<!-- Node36&#45;&gt;Node37 -->
<g id="edge63" class="edge">
<title>Node36&#45;&gt;Node37</title>
<path fill="none" stroke="midnightblue" d="M772.11,-453.98C761.35,-444.7 743.93,-429.67 730.78,-418.33"/>
<polygon fill="midnightblue" stroke="midnightblue" points="732.73,-415.39 722.87,-411.51 728.16,-420.69 732.73,-415.39"/>
</g>
<!-- Node37&#45;&gt;Node18 -->
<g id="edge64" class="edge">
<title>Node37&#45;&gt;Node18</title>
<path fill="none" stroke="midnightblue" d="M666.92,-393.81C616.05,-383.14 536.54,-357.76 500,-300 495.25,-292.49 497.07,-288.39 500,-280 517.18,-230.71 555.82,-237.29 573,-188 575.93,-179.61 576.21,-176.29 573,-168 568.55,-156.5 559.63,-146.13 551.25,-138.25"/>
<polygon fill="midnightblue" stroke="midnightblue" points="553.37,-135.46 543.54,-131.51 548.76,-140.73 553.37,-135.46"/>
</g>
<!-- Node37&#45;&gt;Node30 -->
<g id="edge65" class="edge">
<title>Node37&#45;&gt;Node30</title>
<path fill="none" stroke="midnightblue" d="M740.25,-392.44C769.44,-383.28 815.92,-368.69 848.31,-358.52"/>
<polygon fill="midnightblue" stroke="midnightblue" points="849.38,-361.85 857.87,-355.52 847.28,-355.17 849.38,-361.85"/>
</g>
<!-- Node38 -->
<g id="node38" class="node">
<title>Node38</title>
<g id="a_node38"><a xlink:href="_gui_list_8h.html" target="_top" xlink:title=" ">
<polygon fill="white" stroke="black" points="633,-280.5 633,-299.5 741,-299.5 741,-280.5 633,-280.5"/>
<text text-anchor="middle" x="687" y="-287.5" font-family="Helvetica,sans-Serif" font-size="10.00">engine/GUI/GuiList.h</text>
</a>
</g>
</g>
<!-- Node37&#45;&gt;Node38 -->
<g id="edge66" class="edge">
<title>Node37&#45;&gt;Node38</title>
<path fill="none" stroke="midnightblue" d="M702.56,-392.24C693.58,-383.97 681.25,-370.66 676,-356 670.52,-340.7 674.5,-322.37 679.14,-309.08"/>
<polygon fill="midnightblue" stroke="midnightblue" points="682.44,-310.24 682.83,-299.66 675.92,-307.69 682.44,-310.24"/>
</g>
<!-- Node40 -->
<g id="node40" class="node">
<title>Node40</title>
<g id="a_node40"><a xlink:href="_gui_scroll_8h.html" target="_top" xlink:title=" ">
<polygon fill="white" stroke="black" points="685,-336.5 685,-355.5 801,-355.5 801,-336.5 685,-336.5"/>
<text text-anchor="middle" x="743" y="-343.5" font-family="Helvetica,sans-Serif" font-size="10.00">engine/GUI/GuiScroll.h</text>
</a>
</g>
</g>
<!-- Node37&#45;&gt;Node40 -->
<g id="edge70" class="edge">
<title>Node37&#45;&gt;Node40</title>
<path fill="none" stroke="midnightblue" d="M717.95,-392.08C722.1,-384.61 728.15,-373.72 733.27,-364.52"/>
<polygon fill="midnightblue" stroke="midnightblue" points="736.34,-366.19 738.14,-355.75 730.22,-362.79 736.34,-366.19"/>
</g>
<!-- Node41 -->
<g id="node41" class="node">
<title>Node41</title>
<g id="a_node41"><a xlink:href="_button_8h.html" target="_top" xlink:title=" ">
<polygon fill="white" stroke="black" points="509.5,-280.5 509.5,-299.5 614.5,-299.5 614.5,-280.5 509.5,-280.5"/>
<text text-anchor="middle" x="562" y="-287.5" font-family="Helvetica,sans-Serif" font-size="10.00">engine/GUI/Button.h</text>
</a>
</g>
</g>
<!-- Node37&#45;&gt;Node41 -->
<g id="edge73" class="edge">
<title>Node37&#45;&gt;Node41</title>
<path fill="none" stroke="midnightblue" d="M701.15,-392.37C675.35,-373.57 613.85,-328.77 581.95,-305.53"/>
<polygon fill="midnightblue" stroke="midnightblue" points="583.94,-302.65 573.79,-299.59 579.82,-308.31 583.94,-302.65"/>
</g>
<!-- Node37&#45;&gt;Node42 -->
<g id="edge75" class="edge">
<title>Node37&#45;&gt;Node42</title>
<path fill="none" stroke="midnightblue" d="M759.11,-392.92C813.29,-383.42 903.26,-367.64 962.35,-357.28"/>
<polygon fill="midnightblue" stroke="midnightblue" points="963.04,-360.72 972.28,-355.54 961.83,-353.82 963.04,-360.72"/>
</g>
<!-- Node38&#45;&gt;Node18 -->
<g id="edge69" class="edge">
<title>Node38&#45;&gt;Node18</title>
<path fill="none" stroke="midnightblue" d="M690.46,-280.39C695.12,-267.34 701.77,-242.13 692,-224 677.62,-197.3 600.77,-156.58 559.03,-135.95"/>
<polygon fill="midnightblue" stroke="midnightblue" points="560.48,-132.77 549.96,-131.51 557.4,-139.05 560.48,-132.77"/>
</g>
<!-- Node39 -->
<g id="node39" class="node">
<title>Node39</title>
<g id="a_node39"><a xlink:href="_gui_object_8h.html" target="_top" xlink:title=" ">
<polygon fill="white" stroke="black" points="563,-224.5 563,-243.5 683,-243.5 683,-224.5 563,-224.5"/>
<text text-anchor="middle" x="623" y="-231.5" font-family="Helvetica,sans-Serif" font-size="10.00">engine/GUI/GuiObject.h</text>
</a>
</g>
</g>
<!-- Node38&#45;&gt;Node39 -->
<g id="edge67" class="edge">
<title>Node38&#45;&gt;Node39</title>
<path fill="none" stroke="midnightblue" d="M676.72,-280.32C667.16,-272.26 652.72,-260.08 641.22,-250.37"/>
<polygon fill="midnightblue" stroke="midnightblue" points="643.37,-247.61 633.47,-243.83 638.86,-252.96 643.37,-247.61"/>
</g>
<!-- Node39&#45;&gt;Node10 -->
<g id="edge68" class="edge">
<title>Node39&#45;&gt;Node10</title>
<path fill="none" stroke="midnightblue" d="M607.42,-224.32C592,-215.74 568.19,-202.49 550.29,-192.52"/>
<polygon fill="midnightblue" stroke="midnightblue" points="551.99,-189.46 541.55,-187.65 548.58,-195.58 551.99,-189.46"/>
</g>
<!-- Node40&#45;&gt;Node11 -->
<g id="edge72" class="edge">
<title>Node40&#45;&gt;Node11</title>
<path fill="none" stroke="midnightblue" d="M746.16,-336.35C750.31,-323.66 756.35,-299.42 750,-280 727.02,-209.72 649.65,-158.13 609.94,-135.58"/>
<polygon fill="midnightblue" stroke="midnightblue" points="611.16,-132.26 600.72,-130.48 607.78,-138.38 611.16,-132.26"/>
</g>
<!-- Node40&#45;&gt;Node38 -->
<g id="edge71" class="edge">
<title>Node40&#45;&gt;Node38</title>
<path fill="none" stroke="midnightblue" d="M734,-336.32C725.81,-328.42 713.49,-316.55 703.53,-306.94"/>
<polygon fill="midnightblue" stroke="midnightblue" points="705.79,-304.26 696.16,-299.83 700.93,-309.29 705.79,-304.26"/>
</g>
<!-- Node41&#45;&gt;Node39 -->
<g id="edge74" class="edge">
<title>Node41&#45;&gt;Node39</title>
<path fill="none" stroke="midnightblue" d="M571.8,-280.32C580.82,-272.34 594.41,-260.31 605.32,-250.65"/>
<polygon fill="midnightblue" stroke="midnightblue" points="607.85,-253.08 613.02,-243.83 603.21,-247.84 607.85,-253.08"/>
</g>
<!-- Node42&#45;&gt;Node13 -->
<g id="edge77" class="edge">
<title>Node42&#45;&gt;Node13</title>
<path fill="none" stroke="midnightblue" d="M1021.74,-336.44C1023.53,-316.59 1028.49,-265.88 1036,-224 1045.07,-173.41 1060.15,-114.65 1067.97,-85.45"/>
<polygon fill="midnightblue" stroke="midnightblue" points="1071.35,-86.35 1070.58,-75.78 1064.59,-84.52 1071.35,-86.35"/>
</g>
<!-- Node42&#45;&gt;Node15 -->
<g id="edge76" class="edge">
<title>Node42&#45;&gt;Node15</title>
<path fill="none" stroke="midnightblue" d="M1015.16,-336.31C1003.62,-318.26 979,-275.07 979,-235 979,-235 979,-235 979,-121 979,-88.95 979,-51.64 979,-29.75"/>
<polygon fill="midnightblue" stroke="midnightblue" points="982.5,-29.56 979,-19.56 975.5,-29.56 982.5,-29.56"/>
</g>
<!-- Node43&#45;&gt;Node5 -->
<g id="edge83" class="edge">
<title>Node43&#45;&gt;Node5</title>
<path fill="none" stroke="midnightblue" d="M927.94,-590.65C946.3,-599.15 972.04,-612.24 990.1,-622.18"/>
<polygon fill="midnightblue" stroke="midnightblue" points="988.81,-625.47 999.24,-627.32 992.25,-619.37 988.81,-625.47"/>
</g>
<!-- Node43&#45;&gt;Node6 -->
<g id="edge84" class="edge">
<title>Node43&#45;&gt;Node6</title>
<path fill="none" stroke="midnightblue" d="M887.3,-571.44C868.06,-562.64 837.85,-548.81 815.8,-538.72"/>
<polygon fill="midnightblue" stroke="midnightblue" points="817.16,-535.5 806.61,-534.52 814.25,-541.86 817.16,-535.5"/>
</g>
</g>
</svg>
