<?xml version="1.0" encoding="UTF-8" standalone="no"?>
<!DOCTYPE svg PUBLIC "-//W3C//DTD SVG 1.1//EN"
 "http://www.w3.org/Graphics/SVG/1.1/DTD/svg11.dtd">
<!-- Generated by graphviz version 2.47.0 (20210407.0042)
 -->
<!-- Title: include/engine/actions/SetSquadPath.h Pages: 1 -->
<svg width="1251pt" height="666pt"
 viewBox="0.00 0.00 1251.00 666.00" xmlns="http://www.w3.org/2000/svg" xmlns:xlink="http://www.w3.org/1999/xlink">
<g id="graph0" class="graph" transform="scale(1 1) rotate(0) translate(4 662)">
<title>include/engine/actions/SetSquadPath.h</title>
<polygon fill="white" stroke="transparent" points="-4,4 -4,-662 1247,-662 1247,4 -4,4"/>
<!-- Node1 -->
<g id="node1" class="node">
<title>Node1</title>
<g id="a_node1"><a xlink:title=" ">
<polygon fill="#bfbfbf" stroke="black" points="729.5,-627.5 729.5,-657.5 842.5,-657.5 842.5,-627.5 729.5,-627.5"/>
<text text-anchor="start" x="737.5" y="-645.5" font-family="Helvetica,sans-Serif" font-size="10.00">include/engine/actions</text>
<text text-anchor="middle" x="786" y="-634.5" font-family="Helvetica,sans-Serif" font-size="10.00">/SetSquadPath.h</text>
</a>
</g>
</g>
<!-- Node2 -->
<g id="node2" class="node">
<title>Node2</title>
<g id="a_node2"><a xlink:href="engine_2_action_8h.html" target="_top" xlink:title=" ">
<polygon fill="white" stroke="black" points="872.5,-112.5 872.5,-131.5 955.5,-131.5 955.5,-112.5 872.5,-112.5"/>
<text text-anchor="middle" x="914" y="-119.5" font-family="Helvetica,sans-Serif" font-size="10.00">engine/Action.h</text>
</a>
</g>
</g>
<!-- Node1&#45;&gt;Node2 -->
<g id="edge1" class="edge">
<title>Node1&#45;&gt;Node2</title>
<path fill="none" stroke="midnightblue" d="M800.87,-627.36C820.61,-606.98 853,-567.26 853,-526 853,-526 853,-526 853,-345 853,-314.9 851.94,-302.44 872,-280 899.61,-249.11 929.03,-273.62 958,-244 976.7,-224.88 975.02,-214.27 980,-188 981.65,-179.27 984.15,-175.86 980,-168 972.58,-153.95 958.58,-143.47 945.38,-136.17"/>
<polygon fill="midnightblue" stroke="midnightblue" points="946.96,-133.04 936.46,-131.62 943.78,-139.28 946.96,-133.04"/>
</g>
<!-- Node5 -->
<g id="node5" class="node">
<title>Node5</title>
<g id="a_node5"><a xlink:href="_squad_8h.html" target="_top" xlink:title=" ">
<polygon fill="white" stroke="black" points="557,-571.5 557,-590.5 693,-590.5 693,-571.5 557,-571.5"/>
<text text-anchor="middle" x="625" y="-578.5" font-family="Helvetica,sans-Serif" font-size="10.00">GameLogic/Squad/Squad.h</text>
</a>
</g>
</g>
<!-- Node1&#45;&gt;Node5 -->
<g id="edge4" class="edge">
<title>Node1&#45;&gt;Node5</title>
<path fill="none" stroke="midnightblue" d="M747.85,-627.4C720.47,-617.28 683.96,-603.79 657.87,-594.15"/>
<polygon fill="midnightblue" stroke="midnightblue" points="659.02,-590.84 648.43,-590.66 656.59,-597.41 659.02,-590.84"/>
</g>
<!-- Node6 -->
<g id="node6" class="node">
<title>Node6</title>
<g id="a_node6"><a xlink:href="_cell_8h.html" target="_top" xlink:title=" ">
<polygon fill="white" stroke="black" points="683,-459.5 683,-478.5 777,-478.5 777,-459.5 683,-459.5"/>
<text text-anchor="middle" x="730" y="-466.5" font-family="Helvetica,sans-Serif" font-size="10.00">GameLogic/Cell.h</text>
</a>
</g>
</g>
<!-- Node1&#45;&gt;Node6 -->
<g id="edge75" class="edge">
<title>Node1&#45;&gt;Node6</title>
<path fill="none" stroke="midnightblue" d="M777.51,-627.47C763.85,-596.7 739.73,-523.33 731.7,-488.7"/>
<polygon fill="midnightblue" stroke="midnightblue" points="735.06,-487.66 729.64,-478.56 728.2,-489.06 735.06,-487.66"/>
</g>
<!-- Node3 -->
<g id="node3" class="node">
<title>Node3</title>
<g id="a_node3"><a xlink:title=" ">
<polygon fill="white" stroke="#bfbfbf" points="984,-56.5 984,-75.5 1038,-75.5 1038,-56.5 984,-56.5"/>
<text text-anchor="middle" x="1011" y="-63.5" font-family="Helvetica,sans-Serif" font-size="10.00">iostream</text>
</a>
</g>
</g>
<!-- Node2&#45;&gt;Node3 -->
<g id="edge2" class="edge">
<title>Node2&#45;&gt;Node3</title>
<path fill="none" stroke="midnightblue" d="M929.58,-112.32C945,-103.74 968.81,-90.49 986.71,-80.52"/>
<polygon fill="midnightblue" stroke="midnightblue" points="988.42,-83.58 995.45,-75.65 985.01,-77.46 988.42,-83.58"/>
</g>
<!-- Node4 -->
<g id="node4" class="node">
<title>Node4</title>
<g id="a_node4"><a xlink:title=" ">
<polygon fill="white" stroke="#bfbfbf" points="791.5,-56.5 791.5,-75.5 842.5,-75.5 842.5,-56.5 791.5,-56.5"/>
<text text-anchor="middle" x="817" y="-63.5" font-family="Helvetica,sans-Serif" font-size="10.00">memory</text>
</a>
</g>
</g>
<!-- Node2&#45;&gt;Node4 -->
<g id="edge3" class="edge">
<title>Node2&#45;&gt;Node4</title>
<path fill="none" stroke="midnightblue" d="M898.42,-112.32C883,-103.74 859.19,-90.49 841.29,-80.52"/>
<polygon fill="midnightblue" stroke="midnightblue" points="842.99,-77.46 832.55,-75.65 839.58,-83.58 842.99,-77.46"/>
</g>
<!-- Node5&#45;&gt;Node6 -->
<g id="edge5" class="edge">
<title>Node5&#45;&gt;Node6</title>
<path fill="none" stroke="midnightblue" d="M640.12,-571.44C655.4,-564.02 678.12,-551.81 693,-535 705.06,-521.37 712.53,-501.77 718.44,-487.65"/>
<polygon fill="midnightblue" stroke="midnightblue" points="721.63,-489.07 722.5,-478.51 715.24,-486.23 721.63,-489.07"/>
</g>
<!-- Node7 -->
<g id="node7" class="node">
<title>Node7</title>
<g id="a_node7"><a xlink:href="gameplay_clickable_game_object_8h.html" target="_top" xlink:title=" ">
<polygon fill="white" stroke="black" points="534.5,-392.5 534.5,-422.5 663.5,-422.5 663.5,-392.5 534.5,-392.5"/>
<text text-anchor="start" x="542.5" y="-410.5" font-family="Helvetica,sans-Serif" font-size="10.00">engine/gameplayClickable</text>
<text text-anchor="middle" x="599" y="-399.5" font-family="Helvetica,sans-Serif" font-size="10.00">GameObject.h</text>
</a>
</g>
</g>
<!-- Node5&#45;&gt;Node7 -->
<g id="edge69" class="edge">
<title>Node5&#45;&gt;Node7</title>
<path fill="none" stroke="midnightblue" d="M596.63,-571.49C579.25,-564.65 558.4,-553.13 548,-535 528.11,-500.34 556.6,-456.42 578.33,-430.49"/>
<polygon fill="midnightblue" stroke="midnightblue" points="581.15,-432.59 585.08,-422.75 575.87,-427.99 581.15,-432.59"/>
</g>
<!-- Node10 -->
<g id="node10" class="node">
<title>Node10</title>
<g id="a_node10"><a xlink:href="config_8h.html" target="_top" xlink:title=" ">
<polygon fill="white" stroke="black" points="26.5,-112.5 26.5,-131.5 107.5,-131.5 107.5,-112.5 26.5,-112.5"/>
<text text-anchor="middle" x="67" y="-119.5" font-family="Helvetica,sans-Serif" font-size="10.00">engine/config.h</text>
</a>
</g>
</g>
<!-- Node5&#45;&gt;Node10 -->
<g id="edge73" class="edge">
<title>Node5&#45;&gt;Node10</title>
<path fill="none" stroke="midnightblue" d="M556.92,-575.09C394.94,-562.5 0,-526.05 0,-470 0,-470 0,-470 0,-233 0,-194.7 29.99,-158.42 49.84,-138.59"/>
<polygon fill="midnightblue" stroke="midnightblue" points="52.33,-141.05 57.11,-131.6 47.48,-136 52.33,-141.05"/>
</g>
<!-- Node13 -->
<g id="node13" class="node">
<title>Node13</title>
<g id="a_node13"><a xlink:href="_facade_8h.html" target="_top" xlink:title=" ">
<polygon fill="white" stroke="black" points="1177,-0.5 1177,-19.5 1233,-19.5 1233,-0.5 1177,-0.5"/>
<text text-anchor="middle" x="1205" y="-7.5" font-family="Helvetica,sans-Serif" font-size="10.00">Facade.h</text>
</a>
</g>
</g>
<!-- Node5&#45;&gt;Node13 -->
<g id="edge74" class="edge">
<title>Node5&#45;&gt;Node13</title>
<path fill="none" stroke="midnightblue" d="M693.2,-574.94C853.92,-562.11 1243,-525.34 1243,-470 1243,-470 1243,-470 1243,-121 1243,-86.81 1226.4,-49.76 1215.14,-28.57"/>
<polygon fill="midnightblue" stroke="midnightblue" points="1218.18,-26.83 1210.28,-19.77 1212.05,-30.22 1218.18,-26.83"/>
</g>
<!-- Node30 -->
<g id="node30" class="node">
<title>Node30</title>
<g id="a_node30"><a xlink:href="_unit_8h.html" target="_top" xlink:title=" ">
<polygon fill="white" stroke="black" points="231,-224.5 231,-243.5 273,-243.5 273,-224.5 231,-224.5"/>
<text text-anchor="middle" x="252" y="-231.5" font-family="Helvetica,sans-Serif" font-size="10.00">Unit.h</text>
</a>
</g>
</g>
<!-- Node5&#45;&gt;Node30 -->
<g id="edge68" class="edge">
<title>Node5&#45;&gt;Node30</title>
<path fill="none" stroke="midnightblue" d="M556.78,-574.49C446.85,-563.43 243,-533.89 243,-470 243,-470 243,-470 243,-345 243,-312.8 243,-275.3 245.57,-253.45"/>
<polygon fill="midnightblue" stroke="midnightblue" points="249.03,-253.99 247.16,-243.56 242.12,-252.87 249.03,-253.99"/>
</g>
<!-- Node39 -->
<g id="node39" class="node">
<title>Node39</title>
<g id="a_node39"><a xlink:href="_game_logic_2_squad_2_action_8h.html" target="_top" xlink:title=" ">
<polygon fill="white" stroke="black" points="557,-515.5 557,-534.5 693,-534.5 693,-515.5 557,-515.5"/>
<text text-anchor="middle" x="625" y="-522.5" font-family="Helvetica,sans-Serif" font-size="10.00">GameLogic/Squad/Action.h</text>
</a>
</g>
</g>
<!-- Node5&#45;&gt;Node39 -->
<g id="edge70" class="edge">
<title>Node5&#45;&gt;Node39</title>
<path fill="none" stroke="midnightblue" d="M619.83,-571.08C618.32,-563.93 617.89,-553.64 618.54,-544.69"/>
<polygon fill="midnightblue" stroke="midnightblue" points="622.02,-545.13 619.87,-534.75 615.08,-544.2 622.02,-545.13"/>
</g>
<!-- Node6&#45;&gt;Node1 -->
<g id="edge43" class="edge">
<title>Node6&#45;&gt;Node1</title>
<path fill="none" stroke="midnightblue" d="M735.95,-478.56C748.34,-503.82 773.35,-578.71 783.03,-617.54"/>
<polygon fill="midnightblue" stroke="midnightblue" points="779.66,-618.51 785.33,-627.47 786.48,-616.93 779.66,-618.51"/>
</g>
<!-- Node6&#45;&gt;Node3 -->
<g id="edge28" class="edge">
<title>Node6&#45;&gt;Node3</title>
<path fill="none" stroke="midnightblue" d="M777.14,-468.55C842.82,-467.78 964.56,-460.74 1060,-423 1114.24,-401.55 1167,-405.33 1167,-347 1167,-347 1167,-347 1167,-177 1167,-118.96 1093.98,-88.85 1047.85,-75.62"/>
<polygon fill="midnightblue" stroke="midnightblue" points="1048.74,-72.23 1038.17,-72.97 1046.9,-78.98 1048.74,-72.23"/>
</g>
<!-- Node6&#45;&gt;Node5 -->
<g id="edge26" class="edge">
<title>Node6&#45;&gt;Node5</title>
<path fill="none" stroke="midnightblue" d="M733.81,-478.51C733.89,-491.9 725.98,-518.07 711,-535 698.56,-549.06 680.64,-559.89 664.26,-567.4"/>
<polygon fill="midnightblue" stroke="midnightblue" points="662.66,-564.28 654.85,-571.44 665.42,-570.71 662.66,-564.28"/>
</g>
<!-- Node6&#45;&gt;Node7 -->
<g id="edge6" class="edge">
<title>Node6&#45;&gt;Node7</title>
<path fill="none" stroke="midnightblue" d="M711.23,-459.48C692.49,-450.96 663.11,-437.62 639.11,-426.72"/>
<polygon fill="midnightblue" stroke="midnightblue" points="640.43,-423.47 629.87,-422.52 637.53,-429.85 640.43,-423.47"/>
</g>
<!-- Node6&#45;&gt;Node10 -->
<g id="edge24" class="edge">
<title>Node6&#45;&gt;Node10</title>
<path fill="none" stroke="midnightblue" d="M682.78,-465.5C595.85,-460.37 414.07,-447.07 356,-423 199.86,-358.28 130.87,-340.02 57,-188 49.91,-173.41 53.77,-155.01 58.6,-141.51"/>
<polygon fill="midnightblue" stroke="midnightblue" points="61.99,-142.48 62.5,-131.9 55.5,-139.85 61.99,-142.48"/>
</g>
<!-- Node6&#45;&gt;Node13 -->
<g id="edge25" class="edge">
<title>Node6&#45;&gt;Node13</title>
<path fill="none" stroke="midnightblue" d="M777.09,-465.93C866.26,-461.46 1056.17,-449.1 1116,-423 1163.67,-402.2 1205,-399.02 1205,-347 1205,-347 1205,-347 1205,-121 1205,-88.95 1205,-51.64 1205,-29.75"/>
<polygon fill="midnightblue" stroke="midnightblue" points="1208.5,-29.56 1205,-19.56 1201.5,-29.56 1208.5,-29.56"/>
</g>
<!-- Node15 -->
<g id="node15" class="node">
<title>Node15</title>
<g id="a_node15"><a xlink:href="cellgen_8h.html" target="_top" xlink:title=" ">
<polygon fill="white" stroke="black" points="950.5,-336.5 950.5,-355.5 1021.5,-355.5 1021.5,-336.5 950.5,-336.5"/>
<text text-anchor="middle" x="986" y="-343.5" font-family="Helvetica,sans-Serif" font-size="10.00">util/cellgen.h</text>
</a>
</g>
</g>
<!-- Node6&#45;&gt;Node15 -->
<g id="edge15" class="edge">
<title>Node6&#45;&gt;Node15</title>
<path fill="none" stroke="midnightblue" d="M748,-459.49C792.14,-438.63 905.99,-384.82 958.6,-359.95"/>
<polygon fill="midnightblue" stroke="midnightblue" points="960.13,-363.1 967.68,-355.66 957.14,-356.77 960.13,-363.1"/>
</g>
<!-- Node17 -->
<g id="node17" class="node">
<title>Node17</title>
<g id="a_node17"><a xlink:title=" ">
<polygon fill="white" stroke="#bfbfbf" points="1065.5,-280.5 1065.5,-299.5 1100.5,-299.5 1100.5,-280.5 1065.5,-280.5"/>
<text text-anchor="middle" x="1083" y="-287.5" font-family="Helvetica,sans-Serif" font-size="10.00">map</text>
</a>
</g>
</g>
<!-- Node6&#45;&gt;Node17 -->
<g id="edge27" class="edge">
<title>Node6&#45;&gt;Node17</title>
<path fill="none" stroke="midnightblue" d="M777.29,-466.8C852.9,-463.96 996.43,-454.46 1035,-423 1069.7,-394.7 1079.31,-339.08 1081.98,-309.9"/>
<polygon fill="midnightblue" stroke="midnightblue" points="1085.48,-310.03 1082.72,-299.8 1078.5,-309.52 1085.48,-310.03"/>
</g>
<!-- Node19 -->
<g id="node19" class="node">
<title>Node19</title>
<g id="a_node19"><a xlink:href="_all_flags_8h.html" target="_top" xlink:title=" ">
<polygon fill="white" stroke="black" points="369.5,-168.5 369.5,-187.5 428.5,-187.5 428.5,-168.5 369.5,-168.5"/>
<text text-anchor="middle" x="399" y="-175.5" font-family="Helvetica,sans-Serif" font-size="10.00">AllFlags.h</text>
</a>
</g>
</g>
<!-- Node6&#45;&gt;Node19 -->
<g id="edge19" class="edge">
<title>Node6&#45;&gt;Node19</title>
<path fill="none" stroke="midnightblue" d="M725.32,-459.39C716.62,-444.05 696.58,-411.75 672,-392 634.18,-361.61 510.3,-332.19 474,-300 440.84,-270.6 417.34,-223.03 406.23,-197.16"/>
<polygon fill="midnightblue" stroke="midnightblue" points="409.42,-195.71 402.36,-187.81 402.95,-198.39 409.42,-195.71"/>
</g>
<!-- Node22 -->
<g id="node22" class="node">
<title>Node22</title>
<g id="a_node22"><a xlink:href="geometry_8h.html" target="_top" xlink:title=" ">
<polygon fill="white" stroke="black" points="946,-398 946,-417 1026,-417 1026,-398 946,-398"/>
<text text-anchor="middle" x="986" y="-405" font-family="Helvetica,sans-Serif" font-size="10.00">util/geometry.h</text>
</a>
</g>
</g>
<!-- Node6&#45;&gt;Node22 -->
<g id="edge29" class="edge">
<title>Node6&#45;&gt;Node22</title>
<path fill="none" stroke="midnightblue" d="M766.68,-459.48C812.21,-448.89 889.9,-430.84 939.55,-419.3"/>
<polygon fill="midnightblue" stroke="midnightblue" points="940.44,-422.68 949.39,-417.01 938.86,-415.86 940.44,-422.68"/>
</g>
<!-- Node23 -->
<g id="node23" class="node">
<title>Node23</title>
<g id="a_node23"><a xlink:href="_none_8h.html" target="_top" xlink:title=" ">
<polygon fill="white" stroke="black" points="857.5,-168.5 857.5,-187.5 970.5,-187.5 970.5,-168.5 857.5,-168.5"/>
<text text-anchor="middle" x="914" y="-175.5" font-family="Helvetica,sans-Serif" font-size="10.00">engine/actions/None.h</text>
</a>
</g>
</g>
<!-- Node6&#45;&gt;Node23 -->
<g id="edge32" class="edge">
<title>Node6&#45;&gt;Node23</title>
<path fill="none" stroke="midnightblue" d="M732.55,-459.47C741.77,-430.07 776.19,-331.92 839,-280 876.38,-249.1 913.93,-283.54 942,-244 952.72,-228.9 941.11,-209.05 929.75,-195.28"/>
<polygon fill="midnightblue" stroke="midnightblue" points="932.17,-192.73 922.91,-187.58 926.94,-197.38 932.17,-192.73"/>
</g>
<!-- Node24 -->
<g id="node24" class="node">
<title>Node24</title>
<g id="a_node24"><a xlink:href="game_controller_8h.html" target="_top" xlink:title=" ">
<polygon fill="white" stroke="black" points="665.5,-280.5 665.5,-299.5 786.5,-299.5 786.5,-280.5 665.5,-280.5"/>
<text text-anchor="middle" x="726" y="-287.5" font-family="Helvetica,sans-Serif" font-size="10.00">engine/gameController.h</text>
</a>
</g>
</g>
<!-- Node6&#45;&gt;Node24 -->
<g id="edge34" class="edge">
<title>Node6&#45;&gt;Node24</title>
<path fill="none" stroke="midnightblue" d="M729.81,-459.46C729.2,-432.43 727.29,-348.24 726.43,-310.11"/>
<polygon fill="midnightblue" stroke="midnightblue" points="729.93,-309.79 726.2,-299.87 722.93,-309.94 729.93,-309.79"/>
</g>
<!-- Node28 -->
<g id="node28" class="node">
<title>Node28</title>
<g id="a_node28"><a xlink:href="_all_units_8h.html" target="_top" xlink:title=" ">
<polygon fill="white" stroke="black" points="365.5,-336.5 365.5,-355.5 424.5,-355.5 424.5,-336.5 365.5,-336.5"/>
<text text-anchor="middle" x="395" y="-343.5" font-family="Helvetica,sans-Serif" font-size="10.00">AllUnits.h</text>
</a>
</g>
</g>
<!-- Node6&#45;&gt;Node28 -->
<g id="edge44" class="edge">
<title>Node6&#45;&gt;Node28</title>
<path fill="none" stroke="midnightblue" d="M682.91,-468.72C600.48,-468.88 435.22,-463.94 398,-423 384.08,-407.69 386.08,-382.65 389.72,-365.53"/>
<polygon fill="midnightblue" stroke="midnightblue" points="393.17,-366.15 392.2,-355.6 386.38,-364.45 393.17,-366.15"/>
</g>
<!-- Node35 -->
<g id="node35" class="node">
<title>Node35</title>
<g id="a_node35"><a xlink:href="_all_squad_templates_8h.html" target="_top" xlink:title=" ">
<polygon fill="white" stroke="black" points="407.5,-398 407.5,-417 516.5,-417 516.5,-398 407.5,-398"/>
<text text-anchor="middle" x="462" y="-405" font-family="Helvetica,sans-Serif" font-size="10.00">AllSquadTemplates.h</text>
</a>
</g>
</g>
<!-- Node6&#45;&gt;Node35 -->
<g id="edge59" class="edge">
<title>Node6&#45;&gt;Node35</title>
<path fill="none" stroke="midnightblue" d="M690.67,-459.49C649.39,-450.53 582.59,-435.95 525,-423 519.73,-421.82 514.22,-420.56 508.73,-419.31"/>
<polygon fill="midnightblue" stroke="midnightblue" points="509.49,-415.89 498.96,-417.07 507.93,-422.72 509.49,-415.89"/>
</g>
<!-- Node8 -->
<g id="node8" class="node">
<title>Node8</title>
<g id="a_node8"><a xlink:href="game_object_8h.html" target="_top" xlink:title=" ">
<polygon fill="white" stroke="black" points="595.5,-168.5 595.5,-187.5 672.5,-187.5 672.5,-168.5 595.5,-168.5"/>
<text text-anchor="middle" x="634" y="-175.5" font-family="Helvetica,sans-Serif" font-size="10.00">gameObject.h</text>
</a>
</g>
</g>
<!-- Node7&#45;&gt;Node8 -->
<g id="edge7" class="edge">
<title>Node7&#45;&gt;Node8</title>
<path fill="none" stroke="midnightblue" d="M601.19,-392.27C607.25,-352.89 624.23,-242.49 631.08,-197.97"/>
<polygon fill="midnightblue" stroke="midnightblue" points="634.57,-198.34 632.63,-187.93 627.65,-197.28 634.57,-198.34"/>
</g>
<!-- Node8&#45;&gt;Node2 -->
<g id="edge14" class="edge">
<title>Node8&#45;&gt;Node2</title>
<path fill="none" stroke="midnightblue" d="M672.64,-169.55C721.93,-160.04 807.35,-143.57 862.23,-132.98"/>
<polygon fill="midnightblue" stroke="midnightblue" points="862.95,-136.41 872.11,-131.08 861.63,-129.54 862.95,-136.41"/>
</g>
<!-- Node9 -->
<g id="node9" class="node">
<title>Node9</title>
<g id="a_node9"><a xlink:title=" ">
<polygon fill="white" stroke="#bfbfbf" points="655.5,-112.5 655.5,-131.5 684.5,-131.5 684.5,-112.5 655.5,-112.5"/>
<text text-anchor="middle" x="670" y="-119.5" font-family="Helvetica,sans-Serif" font-size="10.00">list</text>
</a>
</g>
</g>
<!-- Node8&#45;&gt;Node9 -->
<g id="edge8" class="edge">
<title>Node8&#45;&gt;Node9</title>
<path fill="none" stroke="midnightblue" d="M639.94,-168.08C644.98,-160.53 652.34,-149.49 658.51,-140.23"/>
<polygon fill="midnightblue" stroke="midnightblue" points="661.53,-142.01 664.17,-131.75 655.71,-138.13 661.53,-142.01"/>
</g>
<!-- Node8&#45;&gt;Node10 -->
<g id="edge9" class="edge">
<title>Node8&#45;&gt;Node10</title>
<path fill="none" stroke="midnightblue" d="M595.2,-174.89C510.38,-170.02 301.96,-156.55 117.74,-132.12"/>
<polygon fill="midnightblue" stroke="midnightblue" points="117.97,-128.62 107.59,-130.76 117.04,-135.56 117.97,-128.62"/>
</g>
<!-- Node11 -->
<g id="node11" class="node">
<title>Node11</title>
<g id="a_node11"><a xlink:href="_s_f_m_l_facade_8h.html" target="_top" xlink:title=" ">
<polygon fill="white" stroke="black" points="5.5,-56.5 5.5,-75.5 128.5,-75.5 128.5,-56.5 5.5,-56.5"/>
<text text-anchor="middle" x="67" y="-63.5" font-family="Helvetica,sans-Serif" font-size="10.00">graphics/SFMLFacade.h</text>
</a>
</g>
</g>
<!-- Node10&#45;&gt;Node11 -->
<g id="edge10" class="edge">
<title>Node10&#45;&gt;Node11</title>
<path fill="none" stroke="midnightblue" d="M67,-112.08C67,-105.01 67,-94.86 67,-85.99"/>
<polygon fill="midnightblue" stroke="midnightblue" points="70.5,-85.75 67,-75.75 63.5,-85.75 70.5,-85.75"/>
</g>
<!-- Node14 -->
<g id="node14" class="node">
<title>Node14</title>
<g id="a_node14"><a xlink:title=" ">
<polygon fill="white" stroke="#bfbfbf" points="147,-56.5 147,-75.5 245,-75.5 245,-56.5 147,-56.5"/>
<text text-anchor="middle" x="196" y="-63.5" font-family="Helvetica,sans-Serif" font-size="10.00">nlohmann/json.hpp</text>
</a>
</g>
</g>
<!-- Node10&#45;&gt;Node14 -->
<g id="edge13" class="edge">
<title>Node10&#45;&gt;Node14</title>
<path fill="none" stroke="midnightblue" d="M87.44,-112.44C108.67,-103.56 142.1,-89.56 166.25,-79.45"/>
<polygon fill="midnightblue" stroke="midnightblue" points="167.78,-82.61 175.66,-75.52 165.08,-76.15 167.78,-82.61"/>
</g>
<!-- Node12 -->
<g id="node12" class="node">
<title>Node12</title>
<g id="a_node12"><a xlink:title=" ">
<polygon fill="white" stroke="#bfbfbf" points="15,-0.5 15,-19.5 119,-19.5 119,-0.5 15,-0.5"/>
<text text-anchor="middle" x="67" y="-7.5" font-family="Helvetica,sans-Serif" font-size="10.00">SFML/Graphics.hpp</text>
</a>
</g>
</g>
<!-- Node11&#45;&gt;Node12 -->
<g id="edge11" class="edge">
<title>Node11&#45;&gt;Node12</title>
<path fill="none" stroke="midnightblue" d="M67,-56.08C67,-49.01 67,-38.86 67,-29.99"/>
<polygon fill="midnightblue" stroke="midnightblue" points="70.5,-29.75 67,-19.75 63.5,-29.75 70.5,-29.75"/>
</g>
<!-- Node11&#45;&gt;Node13 -->
<g id="edge12" class="edge">
<title>Node11&#45;&gt;Node13</title>
<path fill="none" stroke="midnightblue" d="M128.54,-56.88C131.74,-56.56 134.9,-56.26 138,-56 539.54,-22.14 1028.33,-13.34 1166.82,-11.45"/>
<polygon fill="midnightblue" stroke="midnightblue" points="1166.97,-14.95 1176.92,-11.32 1166.87,-7.95 1166.97,-14.95"/>
</g>
<!-- Node16 -->
<g id="node16" class="node">
<title>Node16</title>
<g id="a_node16"><a xlink:title=" ">
<polygon fill="white" stroke="#bfbfbf" points="473,-56.5 473,-75.5 517,-75.5 517,-56.5 473,-56.5"/>
<text text-anchor="middle" x="495" y="-63.5" font-family="Helvetica,sans-Serif" font-size="10.00">vector</text>
</a>
</g>
</g>
<!-- Node15&#45;&gt;Node16 -->
<g id="edge16" class="edge">
<title>Node15&#45;&gt;Node16</title>
<path fill="none" stroke="midnightblue" d="M993.57,-336.26C1000.75,-327.58 1011.39,-313.63 1018,-300 1031.13,-272.92 1037,-265.1 1037,-235 1037,-235 1037,-235 1037,-177 1037,-133.89 1004.45,-129.38 965,-112 886.17,-77.28 619.97,-69.24 527.21,-67.47"/>
<polygon fill="midnightblue" stroke="midnightblue" points="527.09,-63.97 517.03,-67.29 526.96,-70.97 527.09,-63.97"/>
</g>
<!-- Node15&#45;&gt;Node17 -->
<g id="edge17" class="edge">
<title>Node15&#45;&gt;Node17</title>
<path fill="none" stroke="midnightblue" d="M1001.58,-336.32C1017,-327.74 1040.81,-314.49 1058.71,-304.52"/>
<polygon fill="midnightblue" stroke="midnightblue" points="1060.42,-307.58 1067.45,-299.65 1057.01,-301.46 1060.42,-307.58"/>
</g>
<!-- Node18 -->
<g id="node18" class="node">
<title>Node18</title>
<g id="a_node18"><a xlink:title=" ">
<polygon fill="white" stroke="#bfbfbf" points="881,-280.5 881,-299.5 1009,-299.5 1009,-280.5 881,-280.5"/>
<text text-anchor="middle" x="945" y="-287.5" font-family="Helvetica,sans-Serif" font-size="10.00">scanline_triangulation.hpp</text>
</a>
</g>
</g>
<!-- Node15&#45;&gt;Node18 -->
<g id="edge18" class="edge">
<title>Node15&#45;&gt;Node18</title>
<path fill="none" stroke="midnightblue" d="M979.23,-336.08C973.44,-328.46 964.94,-317.26 957.86,-307.94"/>
<polygon fill="midnightblue" stroke="midnightblue" points="960.48,-305.6 951.64,-299.75 954.9,-309.83 960.48,-305.6"/>
</g>
<!-- Node19&#45;&gt;Node4 -->
<g id="edge23" class="edge">
<title>Node19&#45;&gt;Node4</title>
<path fill="none" stroke="midnightblue" d="M428.73,-169.18C503.85,-149.41 701.06,-97.51 781.78,-76.27"/>
<polygon fill="midnightblue" stroke="midnightblue" points="782.7,-79.64 791.48,-73.71 780.92,-72.88 782.7,-79.64"/>
</g>
<!-- Node20 -->
<g id="node20" class="node">
<title>Node20</title>
<g id="a_node20"><a xlink:href="_flag_8h.html" target="_top" xlink:title=" ">
<polygon fill="white" stroke="black" points="377.5,-112.5 377.5,-131.5 420.5,-131.5 420.5,-112.5 377.5,-112.5"/>
<text text-anchor="middle" x="399" y="-119.5" font-family="Helvetica,sans-Serif" font-size="10.00">Flag.h</text>
</a>
</g>
</g>
<!-- Node19&#45;&gt;Node20 -->
<g id="edge20" class="edge">
<title>Node19&#45;&gt;Node20</title>
<path fill="none" stroke="midnightblue" d="M399,-168.08C399,-161.01 399,-150.86 399,-141.99"/>
<polygon fill="midnightblue" stroke="midnightblue" points="402.5,-141.75 399,-131.75 395.5,-141.75 402.5,-141.75"/>
</g>
<!-- Node20&#45;&gt;Node16 -->
<g id="edge21" class="edge">
<title>Node20&#45;&gt;Node16</title>
<path fill="none" stroke="midnightblue" d="M414.42,-112.32C429.54,-103.82 452.82,-90.73 470.47,-80.8"/>
<polygon fill="midnightblue" stroke="midnightblue" points="472.61,-83.61 479.61,-75.65 469.18,-77.51 472.61,-83.61"/>
</g>
<!-- Node21 -->
<g id="node21" class="node">
<title>Node21</title>
<g id="a_node21"><a xlink:title=" ">
<polygon fill="white" stroke="#bfbfbf" points="320.5,-56.5 320.5,-75.5 361.5,-75.5 361.5,-56.5 320.5,-56.5"/>
<text text-anchor="middle" x="341" y="-63.5" font-family="Helvetica,sans-Serif" font-size="10.00">string</text>
</a>
</g>
</g>
<!-- Node20&#45;&gt;Node21 -->
<g id="edge22" class="edge">
<title>Node20&#45;&gt;Node21</title>
<path fill="none" stroke="midnightblue" d="M389.68,-112.32C381.11,-104.34 368.19,-92.31 357.81,-82.65"/>
<polygon fill="midnightblue" stroke="midnightblue" points="360.19,-80.09 350.49,-75.83 355.42,-85.21 360.19,-80.09"/>
</g>
<!-- Node22&#45;&gt;Node15 -->
<g id="edge31" class="edge">
<title>Node22&#45;&gt;Node15</title>
<path fill="none" stroke="midnightblue" d="M986,-397.98C986,-389.58 986,-376.48 986,-365.66"/>
<polygon fill="midnightblue" stroke="midnightblue" points="989.5,-365.51 986,-355.51 982.5,-365.51 989.5,-365.51"/>
</g>
<!-- Node22&#45;&gt;Node16 -->
<g id="edge30" class="edge">
<title>Node22&#45;&gt;Node16</title>
<path fill="none" stroke="midnightblue" d="M1000.65,-397.95C1026.63,-382.03 1080.78,-345.31 1110,-300 1126.31,-274.71 1129,-265.1 1129,-235 1129,-235 1129,-235 1129,-177 1129,-113.2 1062.33,-129.59 1001,-112 911.32,-86.28 624.27,-72.34 527.33,-68.27"/>
<polygon fill="midnightblue" stroke="midnightblue" points="527.39,-64.77 517.25,-67.86 527.1,-71.77 527.39,-64.77"/>
</g>
<!-- Node23&#45;&gt;Node2 -->
<g id="edge33" class="edge">
<title>Node23&#45;&gt;Node2</title>
<path fill="none" stroke="midnightblue" d="M914,-168.08C914,-161.01 914,-150.86 914,-141.99"/>
<polygon fill="midnightblue" stroke="midnightblue" points="917.5,-141.75 914,-131.75 910.5,-141.75 917.5,-141.75"/>
</g>
<!-- Node24&#45;&gt;Node8 -->
<g id="edge36" class="edge">
<title>Node24&#45;&gt;Node8</title>
<path fill="none" stroke="midnightblue" d="M718.78,-280.37C703.46,-262.05 667.5,-219.05 647.68,-195.36"/>
<polygon fill="midnightblue" stroke="midnightblue" points="650.29,-193.02 641.19,-187.59 644.92,-197.51 650.29,-193.02"/>
</g>
<!-- Node24&#45;&gt;Node9 -->
<g id="edge35" class="edge">
<title>Node24&#45;&gt;Node9</title>
<path fill="none" stroke="midnightblue" d="M722.99,-280.08C714.14,-253.83 688.06,-176.55 676.11,-141.12"/>
<polygon fill="midnightblue" stroke="midnightblue" points="679.4,-139.92 672.89,-131.57 672.77,-142.16 679.4,-139.92"/>
</g>
<!-- Node25 -->
<g id="node25" class="node">
<title>Node25</title>
<g id="a_node25"><a xlink:href="_network_manager_8h.html" target="_top" xlink:title=" ">
<polygon fill="white" stroke="black" points="735,-224.5 735,-243.5 865,-243.5 865,-224.5 735,-224.5"/>
<text text-anchor="middle" x="800" y="-231.5" font-family="Helvetica,sans-Serif" font-size="10.00">engine/NetworkManager.h</text>
</a>
</g>
</g>
<!-- Node24&#45;&gt;Node25 -->
<g id="edge37" class="edge">
<title>Node24&#45;&gt;Node25</title>
<path fill="none" stroke="midnightblue" d="M737.89,-280.32C749.15,-272.11 766.29,-259.6 779.71,-249.81"/>
<polygon fill="midnightblue" stroke="midnightblue" points="781.88,-252.56 787.89,-243.83 777.75,-246.9 781.88,-252.56"/>
</g>
<!-- Node27 -->
<g id="node27" class="node">
<title>Node27</title>
<g id="a_node27"><a xlink:title=" ">
<polygon fill="white" stroke="#bfbfbf" points="883.5,-224.5 883.5,-243.5 932.5,-243.5 932.5,-224.5 883.5,-224.5"/>
<text text-anchor="middle" x="908" y="-231.5" font-family="Helvetica,sans-Serif" font-size="10.00">random</text>
</a>
</g>
</g>
<!-- Node24&#45;&gt;Node27 -->
<g id="edge42" class="edge">
<title>Node24&#45;&gt;Node27</title>
<path fill="none" stroke="midnightblue" d="M754.84,-280.44C787.13,-270.86 839.43,-255.34 873.77,-245.15"/>
<polygon fill="midnightblue" stroke="midnightblue" points="874.79,-248.5 883.38,-242.3 872.8,-241.79 874.79,-248.5"/>
</g>
<!-- Node25&#45;&gt;Node8 -->
<g id="edge38" class="edge">
<title>Node25&#45;&gt;Node8</title>
<path fill="none" stroke="midnightblue" d="M773.7,-224.44C745.65,-215.32 701.06,-200.81 669.82,-190.65"/>
<polygon fill="midnightblue" stroke="midnightblue" points="670.77,-187.28 660.18,-187.52 668.61,-193.94 670.77,-187.28"/>
</g>
<!-- Node25&#45;&gt;Node16 -->
<g id="edge40" class="edge">
<title>Node25&#45;&gt;Node16</title>
<path fill="none" stroke="midnightblue" d="M804.58,-224.25C810.82,-211.01 820.02,-185.56 809,-168 778.32,-119.11 601.25,-84.59 527.37,-72.12"/>
<polygon fill="midnightblue" stroke="midnightblue" points="527.68,-68.63 517.25,-70.45 526.54,-75.53 527.68,-68.63"/>
</g>
<!-- Node25&#45;&gt;Node23 -->
<g id="edge39" class="edge">
<title>Node25&#45;&gt;Node23</title>
<path fill="none" stroke="midnightblue" d="M818.06,-224.44C836.57,-215.68 865.58,-201.94 886.86,-191.86"/>
<polygon fill="midnightblue" stroke="midnightblue" points="888.48,-194.96 896.02,-187.52 885.49,-188.63 888.48,-194.96"/>
</g>
<!-- Node26 -->
<g id="node26" class="node">
<title>Node26</title>
<g id="a_node26"><a xlink:title=" ">
<polygon fill="white" stroke="#bfbfbf" points="729.5,-168.5 729.5,-187.5 800.5,-187.5 800.5,-168.5 729.5,-168.5"/>
<text text-anchor="middle" x="765" y="-175.5" font-family="Helvetica,sans-Serif" font-size="10.00">sys/socket.h</text>
</a>
</g>
</g>
<!-- Node25&#45;&gt;Node26 -->
<g id="edge41" class="edge">
<title>Node25&#45;&gt;Node26</title>
<path fill="none" stroke="midnightblue" d="M794.22,-224.08C789.33,-216.53 782.17,-205.49 776.17,-196.23"/>
<polygon fill="midnightblue" stroke="midnightblue" points="779.05,-194.24 770.67,-187.75 773.17,-198.05 779.05,-194.24"/>
</g>
<!-- Node29 -->
<g id="node29" class="node">
<title>Node29</title>
<g id="a_node29"><a xlink:href="_factory_8h.html" target="_top" xlink:title=" ">
<polygon fill="white" stroke="black" points="313,-280.5 313,-299.5 369,-299.5 369,-280.5 313,-280.5"/>
<text text-anchor="middle" x="341" y="-287.5" font-family="Helvetica,sans-Serif" font-size="10.00">Factory.h</text>
</a>
</g>
</g>
<!-- Node28&#45;&gt;Node29 -->
<g id="edge45" class="edge">
<title>Node28&#45;&gt;Node29</title>
<path fill="none" stroke="midnightblue" d="M386.08,-336.08C378.22,-328.22 366.57,-316.57 357.08,-307.08"/>
<polygon fill="midnightblue" stroke="midnightblue" points="359.3,-304.35 349.75,-299.75 354.35,-309.3 359.3,-304.35"/>
</g>
<!-- Node29&#45;&gt;Node6 -->
<g id="edge47" class="edge">
<title>Node29&#45;&gt;Node6</title>
<path fill="none" stroke="midnightblue" d="M340.77,-299.62C340.64,-323.79 343.96,-392.43 384,-423 428.12,-456.69 586.45,-465.21 672.81,-467.33"/>
<polygon fill="midnightblue" stroke="midnightblue" points="672.9,-470.83 682.97,-467.55 673.05,-463.83 672.9,-470.83"/>
</g>
<!-- Node29&#45;&gt;Node21 -->
<g id="edge46" class="edge">
<title>Node29&#45;&gt;Node21</title>
<path fill="none" stroke="midnightblue" d="M341,-280.3C341,-247.63 341,-131.87 341,-85.96"/>
<polygon fill="midnightblue" stroke="midnightblue" points="344.5,-85.88 341,-75.88 337.5,-85.88 344.5,-85.88"/>
</g>
<!-- Node29&#45;&gt;Node30 -->
<g id="edge48" class="edge">
<title>Node29&#45;&gt;Node30</title>
<path fill="none" stroke="midnightblue" d="M326.7,-280.32C312.82,-271.9 291.51,-258.97 275.2,-249.07"/>
<polygon fill="midnightblue" stroke="midnightblue" points="276.63,-245.85 266.26,-243.65 273,-251.83 276.63,-245.85"/>
</g>
<!-- Node30&#45;&gt;Node5 -->
<g id="edge53" class="edge">
<title>Node30&#45;&gt;Node5</title>
<path fill="none" stroke="midnightblue" d="M256.84,-243.56C261,-262.06 261,-307.19 261,-345 261,-470 261,-470 261,-470 261,-529.76 439.39,-559.47 546.46,-572.12"/>
<polygon fill="midnightblue" stroke="midnightblue" points="546.25,-575.62 556.59,-573.29 547.06,-568.66 546.25,-575.62"/>
</g>
<!-- Node30&#45;&gt;Node19 -->
<g id="edge54" class="edge">
<title>Node30&#45;&gt;Node19</title>
<path fill="none" stroke="midnightblue" d="M273.06,-225.26C297.35,-216.34 337.58,-201.56 366.02,-191.11"/>
<polygon fill="midnightblue" stroke="midnightblue" points="367.37,-194.35 375.55,-187.62 364.95,-187.78 367.37,-194.35"/>
</g>
<!-- Node31 -->
<g id="node31" class="node">
<title>Node31</title>
<g id="a_node31"><a xlink:title=" ">
<polygon fill="white" stroke="#bfbfbf" points="185.5,-168.5 185.5,-187.5 228.5,-187.5 228.5,-168.5 185.5,-168.5"/>
<text text-anchor="middle" x="207" y="-175.5" font-family="Helvetica,sans-Serif" font-size="10.00">cstdio</text>
</a>
</g>
</g>
<!-- Node30&#45;&gt;Node31 -->
<g id="edge49" class="edge">
<title>Node30&#45;&gt;Node31</title>
<path fill="none" stroke="midnightblue" d="M244.57,-224.08C238.15,-216.38 228.69,-205.03 220.88,-195.65"/>
<polygon fill="midnightblue" stroke="midnightblue" points="223.38,-193.19 214.29,-187.75 218.01,-197.67 223.38,-193.19"/>
</g>
<!-- Node32 -->
<g id="node32" class="node">
<title>Node32</title>
<g id="a_node32"><a xlink:href="_unit_order_8h.html" target="_top" xlink:title=" ">
<polygon fill="white" stroke="black" points="247,-168.5 247,-187.5 313,-187.5 313,-168.5 247,-168.5"/>
<text text-anchor="middle" x="280" y="-175.5" font-family="Helvetica,sans-Serif" font-size="10.00">UnitOrder.h</text>
</a>
</g>
</g>
<!-- Node30&#45;&gt;Node32 -->
<g id="edge50" class="edge">
<title>Node30&#45;&gt;Node32</title>
<path fill="none" stroke="midnightblue" d="M251.46,-224.08C253.78,-216.53 259.11,-205.49 264.73,-196.23"/>
<polygon fill="midnightblue" stroke="midnightblue" points="267.74,-198.02 270.33,-187.75 261.9,-194.16 267.74,-198.02"/>
</g>
<!-- Node33 -->
<g id="node33" class="node">
<title>Node33</title>
<g id="a_node33"><a xlink:href="_textures_8h.html" target="_top" xlink:title=" ">
<polygon fill="white" stroke="black" points="66.5,-168.5 66.5,-187.5 167.5,-187.5 167.5,-168.5 66.5,-168.5"/>
<text text-anchor="middle" x="117" y="-175.5" font-family="Helvetica,sans-Serif" font-size="10.00">graphics/Textures.h</text>
</a>
</g>
</g>
<!-- Node30&#45;&gt;Node33 -->
<g id="edge55" class="edge">
<title>Node30&#45;&gt;Node33</title>
<path fill="none" stroke="midnightblue" d="M230.91,-224.56C208.65,-215.66 173.34,-201.54 147.93,-191.37"/>
<polygon fill="midnightblue" stroke="midnightblue" points="148.98,-188.02 138.39,-187.56 146.38,-194.52 148.98,-188.02"/>
</g>
<!-- Node32&#45;&gt;Node21 -->
<g id="edge51" class="edge">
<title>Node32&#45;&gt;Node21</title>
<path fill="none" stroke="midnightblue" d="M284.79,-168.37C294.76,-150.38 317.96,-108.55 331.23,-84.63"/>
<polygon fill="midnightblue" stroke="midnightblue" points="334.45,-86.03 336.24,-75.59 328.33,-82.64 334.45,-86.03"/>
</g>
<!-- Node32&#45;&gt;Node30 -->
<g id="edge52" class="edge">
<title>Node32&#45;&gt;Node30</title>
<path fill="none" stroke="midnightblue" d="M280.59,-187.75C278.32,-195.25 273.01,-206.27 267.4,-215.57"/>
<polygon fill="midnightblue" stroke="midnightblue" points="264.37,-213.81 261.79,-224.08 270.21,-217.66 264.37,-213.81"/>
</g>
<!-- Node33&#45;&gt;Node10 -->
<g id="edge56" class="edge">
<title>Node33&#45;&gt;Node10</title>
<path fill="none" stroke="midnightblue" d="M108.74,-168.08C101.54,-160.3 90.89,-148.8 82.15,-139.37"/>
<polygon fill="midnightblue" stroke="midnightblue" points="84.47,-136.71 75.1,-131.75 79.33,-141.47 84.47,-136.71"/>
</g>
<!-- Node33&#45;&gt;Node16 -->
<g id="edge57" class="edge">
<title>Node33&#45;&gt;Node16</title>
<path fill="none" stroke="midnightblue" d="M146.35,-168.46C215.95,-148.2 390.6,-97.38 462.9,-76.34"/>
<polygon fill="midnightblue" stroke="midnightblue" points="464.17,-79.62 472.79,-73.46 462.21,-72.9 464.17,-79.62"/>
</g>
<!-- Node34 -->
<g id="node34" class="node">
<title>Node34</title>
<g id="a_node34"><a xlink:title=" ">
<polygon fill="white" stroke="#bfbfbf" points="125.5,-112.5 125.5,-131.5 208.5,-131.5 208.5,-112.5 125.5,-112.5"/>
<text text-anchor="middle" x="167" y="-119.5" font-family="Helvetica,sans-Serif" font-size="10.00">unordered_map</text>
</a>
</g>
</g>
<!-- Node33&#45;&gt;Node34 -->
<g id="edge58" class="edge">
<title>Node33&#45;&gt;Node34</title>
<path fill="none" stroke="midnightblue" d="M125.26,-168.08C132.46,-160.3 143.11,-148.8 151.85,-139.37"/>
<polygon fill="midnightblue" stroke="midnightblue" points="154.67,-141.47 158.9,-131.75 149.53,-136.71 154.67,-141.47"/>
</g>
<!-- Node35&#45;&gt;Node28 -->
<g id="edge67" class="edge">
<title>Node35&#45;&gt;Node28</title>
<path fill="none" stroke="midnightblue" d="M452.4,-397.98C441.95,-388.7 425.03,-373.67 412.26,-362.33"/>
<polygon fill="midnightblue" stroke="midnightblue" points="414.38,-359.53 404.58,-355.51 409.73,-364.77 414.38,-359.53"/>
</g>
<!-- Node36 -->
<g id="node36" class="node">
<title>Node36</title>
<g id="a_node36"><a xlink:href="_squad_template_8h.html" target="_top" xlink:title=" ">
<polygon fill="white" stroke="black" points="443,-336.5 443,-355.5 535,-355.5 535,-336.5 443,-336.5"/>
<text text-anchor="middle" x="489" y="-343.5" font-family="Helvetica,sans-Serif" font-size="10.00">SquadTemplate.h</text>
</a>
</g>
</g>
<!-- Node35&#45;&gt;Node36 -->
<g id="edge60" class="edge">
<title>Node35&#45;&gt;Node36</title>
<path fill="none" stroke="midnightblue" d="M465.87,-397.98C469.8,-389.32 476,-375.65 480.99,-364.65"/>
<polygon fill="midnightblue" stroke="midnightblue" points="484.19,-366.06 485.14,-355.51 477.82,-363.17 484.19,-366.06"/>
</g>
<!-- Node36&#45;&gt;Node16 -->
<g id="edge61" class="edge">
<title>Node36&#45;&gt;Node16</title>
<path fill="none" stroke="midnightblue" d="M485.39,-336.2C481.87,-327.25 476.69,-312.9 474,-300 456.95,-218.14 461.9,-193.4 481,-112 483.11,-103.03 486.07,-93.24 488.73,-85.09"/>
<polygon fill="midnightblue" stroke="midnightblue" points="492.07,-86.12 491.95,-75.53 485.44,-83.89 492.07,-86.12"/>
</g>
<!-- Node36&#45;&gt;Node29 -->
<g id="edge62" class="edge">
<title>Node36&#45;&gt;Node29</title>
<path fill="none" stroke="midnightblue" d="M465.55,-336.44C440.87,-327.44 401.81,-313.19 374.02,-303.05"/>
<polygon fill="midnightblue" stroke="midnightblue" points="374.94,-299.66 364.34,-299.52 372.54,-306.23 374.94,-299.66"/>
</g>
<!-- Node37 -->
<g id="node37" class="node">
<title>Node37</title>
<g id="a_node37"><a xlink:href="_gui_list_8h.html" target="_top" xlink:title=" ">
<polygon fill="white" stroke="black" points="483,-280.5 483,-299.5 591,-299.5 591,-280.5 483,-280.5"/>
<text text-anchor="middle" x="537" y="-287.5" font-family="Helvetica,sans-Serif" font-size="10.00">engine/GUI/GuiList.h</text>
</a>
</g>
</g>
<!-- Node36&#45;&gt;Node37 -->
<g id="edge63" class="edge">
<title>Node36&#45;&gt;Node37</title>
<path fill="none" stroke="midnightblue" d="M496.93,-336.08C503.85,-328.3 514.07,-316.8 522.45,-307.37"/>
<polygon fill="midnightblue" stroke="midnightblue" points="525.19,-309.55 529.22,-299.75 519.96,-304.9 525.19,-309.55"/>
</g>
<!-- Node37&#45;&gt;Node16 -->
<g id="edge66" class="edge">
<title>Node37&#45;&gt;Node16</title>
<path fill="none" stroke="midnightblue" d="M516.15,-280.43C501.42,-273.13 482.8,-261.09 474,-244 466.85,-230.11 484.05,-127.98 491.63,-85.48"/>
<polygon fill="midnightblue" stroke="midnightblue" points="495.08,-86.08 493.41,-75.62 488.19,-84.84 495.08,-86.08"/>
</g>
<!-- Node38 -->
<g id="node38" class="node">
<title>Node38</title>
<g id="a_node38"><a xlink:href="_gui_object_8h.html" target="_top" xlink:title=" ">
<polygon fill="white" stroke="black" points="483,-224.5 483,-243.5 603,-243.5 603,-224.5 483,-224.5"/>
<text text-anchor="middle" x="543" y="-231.5" font-family="Helvetica,sans-Serif" font-size="10.00">engine/GUI/GuiObject.h</text>
</a>
</g>
</g>
<!-- Node37&#45;&gt;Node38 -->
<g id="edge64" class="edge">
<title>Node37&#45;&gt;Node38</title>
<path fill="none" stroke="midnightblue" d="M537.99,-280.08C538.79,-272.93 539.93,-262.64 540.92,-253.69"/>
<polygon fill="midnightblue" stroke="midnightblue" points="544.4,-254.08 542.03,-243.75 537.44,-253.3 544.4,-254.08"/>
</g>
<!-- Node38&#45;&gt;Node8 -->
<g id="edge65" class="edge">
<title>Node38&#45;&gt;Node8</title>
<path fill="none" stroke="midnightblue" d="M557.62,-224.32C571.95,-215.82 594.01,-202.73 610.75,-192.8"/>
<polygon fill="midnightblue" stroke="midnightblue" points="612.6,-195.77 619.42,-187.65 609.03,-189.75 612.6,-195.77"/>
</g>
<!-- Node39&#45;&gt;Node5 -->
<g id="edge71" class="edge">
<title>Node39&#45;&gt;Node5</title>
<path fill="none" stroke="midnightblue" d="M630.13,-534.75C631.66,-541.86 632.1,-552.14 631.47,-561.1"/>
<polygon fill="midnightblue" stroke="midnightblue" points="627.99,-560.71 630.17,-571.08 634.93,-561.62 627.99,-560.71"/>
</g>
<!-- Node39&#45;&gt;Node6 -->
<g id="edge72" class="edge">
<title>Node39&#45;&gt;Node6</title>
<path fill="none" stroke="midnightblue" d="M641.87,-515.32C658.71,-506.66 684.81,-493.24 704.24,-483.25"/>
<polygon fill="midnightblue" stroke="midnightblue" points="705.88,-486.34 713.17,-478.65 702.68,-480.12 705.88,-486.34"/>
</g>
</g>
</svg>
