<?xml version="1.0" encoding="UTF-8" standalone="no"?>
<!DOCTYPE svg PUBLIC "-//W3C//DTD SVG 1.1//EN"
 "http://www.w3.org/Graphics/SVG/1.1/DTD/svg11.dtd">
<!-- Generated by graphviz version 2.47.1 (20210421.1823)
 -->
<!-- Title: include/GameLogic/Squad/SquadTemplate.h Pages: 1 -->
<svg width="1703pt" height="554pt"
 viewBox="0.00 0.00 1702.61 554.00" xmlns="http://www.w3.org/2000/svg" xmlns:xlink="http://www.w3.org/1999/xlink">
<g id="graph0" class="graph" transform="scale(1 1) rotate(0) translate(4 550)">
<title>include/GameLogic/Squad/SquadTemplate.h</title>
<polygon fill="white" stroke="transparent" points="-4,4 -4,-550 1698.61,-550 1698.61,4 -4,4"/>
<!-- Node1 -->
<g id="node1" class="node">
<title>Node1</title>
<g id="a_node1"><a xlink:title=" ">
<polygon fill="#bfbfbf" stroke="black" points="1400.5,-515.5 1400.5,-545.5 1531.5,-545.5 1531.5,-515.5 1400.5,-515.5"/>
<text text-anchor="start" x="1408.5" y="-533.5" font-family="Helvetica,sans-Serif" font-size="10.00">include/GameLogic/Squad</text>
<text text-anchor="middle" x="1466" y="-522.5" font-family="Helvetica,sans-Serif" font-size="10.00">/SquadTemplate.h</text>
</a>
</g>
</g>
<!-- Node2 -->
<g id="node2" class="node">
<title>Node2</title>
<g id="a_node2"><a xlink:title=" ">
<polygon fill="white" stroke="#bfbfbf" points="1005,-56.5 1005,-75.5 1049,-75.5 1049,-56.5 1005,-56.5"/>
<text text-anchor="middle" x="1027" y="-63.5" font-family="Helvetica,sans-Serif" font-size="10.00">vector</text>
</a>
</g>
</g>
<!-- Node1&#45;&gt;Node2 -->
<g id="edge1" class="edge">
<title>Node1&#45;&gt;Node2</title>
<path fill="none" stroke="midnightblue" d="M1531.8,-518.47C1554.43,-511.18 1577.45,-499.08 1591,-479 1616.9,-440.61 1851.3,-599.31 1514,-168 1482.14,-127.26 1461.26,-127.74 1412,-112 1286.3,-71.84 1127.29,-66.8 1059.74,-66.64"/>
<polygon fill="midnightblue" stroke="midnightblue" points="1059.33,-63.14 1049.33,-66.66 1059.34,-70.14 1059.33,-63.14"/>
</g>
<!-- Node3 -->
<g id="node3" class="node">
<title>Node3</title>
<g id="a_node3"><a xlink:href="_factory_8h.html" target="_top" xlink:title=" ">
<polygon fill="white" stroke="black" points="1446,-459.5 1446,-478.5 1582,-478.5 1582,-459.5 1446,-459.5"/>
<text text-anchor="middle" x="1514" y="-466.5" font-family="Helvetica,sans-Serif" font-size="10.00">GameLogic/Units/Factory.h</text>
</a>
</g>
</g>
<!-- Node1&#45;&gt;Node3 -->
<g id="edge2" class="edge">
<title>Node1&#45;&gt;Node3</title>
<path fill="none" stroke="midnightblue" d="M1477.38,-515.4C1484.35,-506.75 1493.31,-495.64 1500.63,-486.58"/>
<polygon fill="midnightblue" stroke="midnightblue" points="1503.46,-488.64 1507.02,-478.66 1498.01,-484.24 1503.46,-488.64"/>
</g>
<!-- Node38 -->
<g id="node38" class="node">
<title>Node38</title>
<g id="a_node38"><a xlink:href="_gui_list_8h.html" target="_top" xlink:title=" ">
<polygon fill="white" stroke="black" points="28,-291.5 28,-310.5 136,-310.5 136,-291.5 28,-291.5"/>
<text text-anchor="middle" x="82" y="-298.5" font-family="Helvetica,sans-Serif" font-size="10.00">engine/GUI/GuiList.h</text>
</a>
</g>
</g>
<!-- Node1&#45;&gt;Node38 -->
<g id="edge72" class="edge">
<title>Node1&#45;&gt;Node38</title>
<path fill="none" stroke="midnightblue" d="M1400.2,-526.82C1166.15,-516.47 375.94,-474.16 150,-367 126.81,-356 106.47,-334.01 94.21,-318.67"/>
<polygon fill="midnightblue" stroke="midnightblue" points="96.84,-316.34 87.97,-310.54 91.28,-320.6 96.84,-316.34"/>
</g>
<!-- Node4 -->
<g id="node4" class="node">
<title>Node4</title>
<g id="a_node4"><a xlink:title=" ">
<polygon fill="white" stroke="#bfbfbf" points="1500.5,-56.5 1500.5,-75.5 1541.5,-75.5 1541.5,-56.5 1500.5,-56.5"/>
<text text-anchor="middle" x="1521" y="-63.5" font-family="Helvetica,sans-Serif" font-size="10.00">string</text>
</a>
</g>
</g>
<!-- Node3&#45;&gt;Node4 -->
<g id="edge3" class="edge">
<title>Node3&#45;&gt;Node4</title>
<path fill="none" stroke="midnightblue" d="M1519.47,-459.08C1541.1,-422.64 1617.96,-281.6 1585,-168 1575.37,-134.81 1551.19,-102.07 1535.47,-83.23"/>
<polygon fill="midnightblue" stroke="midnightblue" points="1538.09,-80.91 1528.92,-75.6 1532.78,-85.47 1538.09,-80.91"/>
</g>
<!-- Node5 -->
<g id="node5" class="node">
<title>Node5</title>
<g id="a_node5"><a xlink:href="_cell_8h.html" target="_top" xlink:title=" ">
<polygon fill="white" stroke="black" points="1025.5,-403.5 1025.5,-422.5 1066.5,-422.5 1066.5,-403.5 1025.5,-403.5"/>
<text text-anchor="middle" x="1046" y="-410.5" font-family="Helvetica,sans-Serif" font-size="10.00">Cell.h</text>
</a>
</g>
</g>
<!-- Node3&#45;&gt;Node5 -->
<g id="edge4" class="edge">
<title>Node3&#45;&gt;Node5</title>
<path fill="none" stroke="midnightblue" d="M1445.95,-460.15C1343.01,-448.27 1151.81,-426.21 1077.08,-417.59"/>
<polygon fill="midnightblue" stroke="midnightblue" points="1077.26,-414.08 1066.92,-416.41 1076.45,-421.04 1077.26,-414.08"/>
</g>
<!-- Node23 -->
<g id="node23" class="node">
<title>Node23</title>
<g id="a_node23"><a xlink:href="_unit_8h.html" target="_top" xlink:title=" ">
<polygon fill="white" stroke="black" points="1335,-230 1335,-249 1457,-249 1457,-230 1335,-230"/>
<text text-anchor="middle" x="1396" y="-237" font-family="Helvetica,sans-Serif" font-size="10.00">GameLogic/Units/Unit.h</text>
</a>
</g>
</g>
<!-- Node3&#45;&gt;Node23 -->
<g id="edge71" class="edge">
<title>Node3&#45;&gt;Node23</title>
<path fill="none" stroke="midnightblue" d="M1515.74,-459.42C1517.47,-450.4 1520.01,-435.77 1521,-423 1523.69,-388.18 1517.88,-377.58 1501,-347 1479.65,-308.33 1440.31,-274.03 1416.32,-255.36"/>
<polygon fill="midnightblue" stroke="midnightblue" points="1418.31,-252.48 1408.23,-249.21 1414.07,-258.05 1418.31,-252.48"/>
</g>
<!-- Node6 -->
<g id="node6" class="node">
<title>Node6</title>
<g id="a_node6"><a xlink:href="gameplay_clickable_game_object_8h.html" target="_top" xlink:title=" ">
<polygon fill="white" stroke="black" points="793.5,-224.5 793.5,-254.5 922.5,-254.5 922.5,-224.5 793.5,-224.5"/>
<text text-anchor="start" x="801.5" y="-242.5" font-family="Helvetica,sans-Serif" font-size="10.00">engine/gameplayClickable</text>
<text text-anchor="middle" x="858" y="-231.5" font-family="Helvetica,sans-Serif" font-size="10.00">GameObject.h</text>
</a>
</g>
</g>
<!-- Node5&#45;&gt;Node6 -->
<g id="edge5" class="edge">
<title>Node5&#45;&gt;Node6</title>
<path fill="none" stroke="midnightblue" d="M1025.22,-412.19C988.97,-411.47 913.49,-405.09 866,-367 837.92,-344.48 831.25,-326.36 838,-291 839.75,-281.81 843.15,-272.16 846.65,-263.79"/>
<polygon fill="midnightblue" stroke="midnightblue" points="849.85,-265.21 850.72,-254.65 843.46,-262.36 849.85,-265.21"/>
</g>
<!-- Node9 -->
<g id="node9" class="node">
<title>Node9</title>
<g id="a_node9"><a xlink:href="config_8h.html" target="_top" xlink:title=" ">
<polygon fill="white" stroke="black" points="487.5,-112.5 487.5,-131.5 568.5,-131.5 568.5,-112.5 487.5,-112.5"/>
<text text-anchor="middle" x="528" y="-119.5" font-family="Helvetica,sans-Serif" font-size="10.00">engine/config.h</text>
</a>
</g>
</g>
<!-- Node5&#45;&gt;Node9 -->
<g id="edge25" class="edge">
<title>Node5&#45;&gt;Node9</title>
<path fill="none" stroke="midnightblue" d="M1025.2,-412.14C898.27,-412.51 229.72,-407.13 117,-255 108.8,-243.93 108.5,-234.84 117,-224 161.28,-167.52 377.28,-138.43 477.16,-127.81"/>
<polygon fill="midnightblue" stroke="midnightblue" points="477.73,-131.27 487.32,-126.75 477.01,-124.31 477.73,-131.27"/>
</g>
<!-- Node12 -->
<g id="node12" class="node">
<title>Node12</title>
<g id="a_node12"><a xlink:href="_facade_8h.html" target="_top" xlink:title=" ">
<polygon fill="white" stroke="black" points="1125,-0.5 1125,-19.5 1181,-19.5 1181,-0.5 1125,-0.5"/>
<text text-anchor="middle" x="1153" y="-7.5" font-family="Helvetica,sans-Serif" font-size="10.00">Facade.h</text>
</a>
</g>
</g>
<!-- Node5&#45;&gt;Node12 -->
<g id="edge26" class="edge">
<title>Node5&#45;&gt;Node12</title>
<path fill="none" stroke="midnightblue" d="M1066.53,-409.05C1102.37,-403.5 1178.34,-389.95 1239,-367 1305.58,-341.81 1315.76,-321.67 1380,-291 1417.39,-273.15 1433.59,-280.82 1466,-255 1534.88,-200.12 1537.01,-162.95 1551,-76 1552.41,-67.22 1556.92,-62.63 1551,-56 1527.25,-29.41 1286.18,-16.55 1191.18,-12.48"/>
<polygon fill="midnightblue" stroke="midnightblue" points="1191.27,-8.98 1181.13,-12.06 1190.98,-15.97 1191.27,-8.98"/>
</g>
<!-- Node15 -->
<g id="node15" class="node">
<title>Node15</title>
<g id="a_node15"><a xlink:title=" ">
<polygon fill="white" stroke="#bfbfbf" points="598,-56.5 598,-75.5 652,-75.5 652,-56.5 598,-56.5"/>
<text text-anchor="middle" x="625" y="-63.5" font-family="Helvetica,sans-Serif" font-size="10.00">iostream</text>
</a>
</g>
</g>
<!-- Node5&#45;&gt;Node15 -->
<g id="edge47" class="edge">
<title>Node5&#45;&gt;Node15</title>
<path fill="none" stroke="midnightblue" d="M1025.11,-412.07C877.68,-412.28 0,-409.05 0,-302 0,-302 0,-302 0,-177 0,-103.53 80.69,-129.71 152,-112 339.84,-65.35 394.76,-105.84 586,-76 586.6,-75.91 587.21,-75.81 587.81,-75.71"/>
<polygon fill="midnightblue" stroke="midnightblue" points="588.66,-79.11 597.82,-73.8 587.34,-72.23 588.66,-79.11"/>
</g>
<!-- Node17 -->
<g id="node17" class="node">
<title>Node17</title>
<g id="a_node17"><a xlink:href="cellgen_8h.html" target="_top" xlink:title=" ">
<polygon fill="white" stroke="black" points="847.5,-291.5 847.5,-310.5 918.5,-310.5 918.5,-291.5 847.5,-291.5"/>
<text text-anchor="middle" x="883" y="-298.5" font-family="Helvetica,sans-Serif" font-size="10.00">util/cellgen.h</text>
</a>
</g>
</g>
<!-- Node5&#45;&gt;Node17 -->
<g id="edge16" class="edge">
<title>Node5&#45;&gt;Node17</title>
<path fill="none" stroke="midnightblue" d="M1025.37,-409.65C984.21,-404.49 894.25,-390.71 876,-367 865.85,-353.81 869.62,-334.41 874.7,-320.23"/>
<polygon fill="midnightblue" stroke="midnightblue" points="878.09,-321.19 878.63,-310.61 871.61,-318.54 878.09,-321.19"/>
</g>
<!-- Node18 -->
<g id="node18" class="node">
<title>Node18</title>
<g id="a_node18"><a xlink:title=" ">
<polygon fill="white" stroke="#bfbfbf" points="593.5,-230 593.5,-249 628.5,-249 628.5,-230 593.5,-230"/>
<text text-anchor="middle" x="611" y="-237" font-family="Helvetica,sans-Serif" font-size="10.00">map</text>
</a>
</g>
</g>
<!-- Node5&#45;&gt;Node18 -->
<g id="edge46" class="edge">
<title>Node5&#45;&gt;Node18</title>
<path fill="none" stroke="midnightblue" d="M1025.28,-409.37C987.94,-404.2 907.22,-391.08 843,-367 760.9,-336.22 672.09,-280.9 632.34,-254.83"/>
<polygon fill="midnightblue" stroke="midnightblue" points="634.24,-251.89 623.97,-249.3 630.38,-257.73 634.24,-251.89"/>
</g>
<!-- Node20 -->
<g id="node20" class="node">
<title>Node20</title>
<g id="a_node20"><a xlink:href="_all_flags_8h.html" target="_top" xlink:title=" ">
<polygon fill="white" stroke="black" points="1181.5,-168.5 1181.5,-187.5 1240.5,-187.5 1240.5,-168.5 1181.5,-168.5"/>
<text text-anchor="middle" x="1211" y="-175.5" font-family="Helvetica,sans-Serif" font-size="10.00">AllFlags.h</text>
</a>
</g>
</g>
<!-- Node5&#45;&gt;Node20 -->
<g id="edge20" class="edge">
<title>Node5&#45;&gt;Node20</title>
<path fill="none" stroke="midnightblue" d="M1066.51,-411.39C1100.5,-409.39 1169.17,-401.08 1214,-367 1268.47,-325.59 1301.6,-285.2 1271,-224 1264.27,-210.54 1251.39,-200.07 1239.29,-192.62"/>
<polygon fill="midnightblue" stroke="midnightblue" points="1240.72,-189.41 1230.3,-187.52 1237.27,-195.5 1240.72,-189.41"/>
</g>
<!-- Node22 -->
<g id="node22" class="node">
<title>Node22</title>
<g id="a_node22"><a xlink:href="_squad_8h.html" target="_top" xlink:title=" ">
<polygon fill="white" stroke="black" points="1186,-291.5 1186,-310.5 1238,-310.5 1238,-291.5 1186,-291.5"/>
<text text-anchor="middle" x="1212" y="-298.5" font-family="Helvetica,sans-Serif" font-size="10.00">Squad.h</text>
</a>
</g>
</g>
<!-- Node5&#45;&gt;Node22 -->
<g id="edge27" class="edge">
<title>Node5&#45;&gt;Node22</title>
<path fill="none" stroke="midnightblue" d="M1066.67,-409.75C1094.66,-405.87 1143.91,-395.37 1175,-367 1188.44,-354.74 1195.7,-334.92 1201.17,-320.38"/>
<polygon fill="midnightblue" stroke="midnightblue" points="1204.49,-321.5 1204.91,-310.92 1197.98,-318.93 1204.49,-321.5"/>
</g>
<!-- Node29 -->
<g id="node29" class="node">
<title>Node29</title>
<g id="a_node29"><a xlink:href="geometry_8h.html" target="_top" xlink:title=" ">
<polygon fill="white" stroke="black" points="885,-347.5 885,-366.5 965,-366.5 965,-347.5 885,-347.5"/>
<text text-anchor="middle" x="925" y="-354.5" font-family="Helvetica,sans-Serif" font-size="10.00">util/geometry.h</text>
</a>
</g>
</g>
<!-- Node5&#45;&gt;Node29 -->
<g id="edge48" class="edge">
<title>Node5&#45;&gt;Node29</title>
<path fill="none" stroke="midnightblue" d="M1026.83,-403.44C1007.09,-394.64 976.11,-380.81 953.51,-370.72"/>
<polygon fill="midnightblue" stroke="midnightblue" points="954.64,-367.4 944.08,-366.52 951.79,-373.79 954.64,-367.4"/>
</g>
<!-- Node30 -->
<g id="node30" class="node">
<title>Node30</title>
<g id="a_node30"><a xlink:href="_none_8h.html" target="_top" xlink:title=" ">
<polygon fill="white" stroke="black" points="553.5,-168.5 553.5,-187.5 666.5,-187.5 666.5,-168.5 553.5,-168.5"/>
<text text-anchor="middle" x="610" y="-175.5" font-family="Helvetica,sans-Serif" font-size="10.00">engine/actions/None.h</text>
</a>
</g>
</g>
<!-- Node5&#45;&gt;Node30 -->
<g id="edge51" class="edge">
<title>Node5&#45;&gt;Node30</title>
<path fill="none" stroke="midnightblue" d="M1025.36,-410.58C981.36,-407.06 875.54,-396.05 792,-367 692.83,-332.52 637.84,-345.14 584,-255 572.88,-236.39 584.86,-212.35 595.98,-196.34"/>
<polygon fill="midnightblue" stroke="midnightblue" points="599.07,-198.05 602.25,-187.94 593.46,-193.86 599.07,-198.05"/>
</g>
<!-- Node31 -->
<g id="node31" class="node">
<title>Node31</title>
<g id="a_node31"><a xlink:href="game_controller_8h.html" target="_top" xlink:title=" ">
<polygon fill="white" stroke="black" points="318.5,-291.5 318.5,-310.5 439.5,-310.5 439.5,-291.5 318.5,-291.5"/>
<text text-anchor="middle" x="379" y="-298.5" font-family="Helvetica,sans-Serif" font-size="10.00">engine/gameController.h</text>
</a>
</g>
</g>
<!-- Node5&#45;&gt;Node31 -->
<g id="edge53" class="edge">
<title>Node5&#45;&gt;Node31</title>
<path fill="none" stroke="midnightblue" d="M1025.41,-412.11C957.01,-412.04 731.39,-408.47 551,-367 498.05,-354.83 439.48,-330.11 406.17,-314.91"/>
<polygon fill="midnightblue" stroke="midnightblue" points="407.62,-311.72 397.07,-310.71 404.68,-318.08 407.62,-311.72"/>
</g>
<!-- Node35 -->
<g id="node35" class="node">
<title>Node35</title>
<g id="a_node35"><a xlink:href="_set_squad_path_8h.html" target="_top" xlink:title=" ">
<polygon fill="white" stroke="black" points="1021.5,-347.5 1021.5,-366.5 1174.5,-366.5 1174.5,-347.5 1021.5,-347.5"/>
<text text-anchor="middle" x="1098" y="-354.5" font-family="Helvetica,sans-Serif" font-size="10.00">engine/actions/SetSquadPath.h</text>
</a>
</g>
</g>
<!-- Node5&#45;&gt;Node35 -->
<g id="edge62" class="edge">
<title>Node5&#45;&gt;Node35</title>
<path fill="none" stroke="midnightblue" d="M1049.42,-403.08C1055.45,-395.06 1066.63,-383.1 1076.89,-373.51"/>
<polygon fill="midnightblue" stroke="midnightblue" points="1079.32,-376.03 1084.44,-366.75 1074.66,-370.81 1079.32,-376.03"/>
</g>
<!-- Node36 -->
<g id="node36" class="node">
<title>Node36</title>
<g id="a_node36"><a xlink:href="_all_units_8h.html" target="_top" xlink:title=" ">
<polygon fill="white" stroke="black" points="1388.5,-291.5 1388.5,-310.5 1447.5,-310.5 1447.5,-291.5 1388.5,-291.5"/>
<text text-anchor="middle" x="1418" y="-298.5" font-family="Helvetica,sans-Serif" font-size="10.00">AllUnits.h</text>
</a>
</g>
</g>
<!-- Node5&#45;&gt;Node36 -->
<g id="edge66" class="edge">
<title>Node5&#45;&gt;Node36</title>
<path fill="none" stroke="midnightblue" d="M1066.62,-411.13C1112.12,-408.65 1223.99,-399.46 1311,-367 1344.17,-354.63 1378.45,-331.68 1399,-316.63"/>
<polygon fill="midnightblue" stroke="midnightblue" points="1401.25,-319.31 1407.17,-310.52 1397.06,-313.71 1401.25,-319.31"/>
</g>
<!-- Node37 -->
<g id="node37" class="node">
<title>Node37</title>
<g id="a_node37"><a xlink:href="_all_squad_templates_8h.html" target="_top" xlink:title=" ">
<polygon fill="white" stroke="black" points="1363.5,-347.5 1363.5,-366.5 1472.5,-366.5 1472.5,-347.5 1363.5,-347.5"/>
<text text-anchor="middle" x="1418" y="-354.5" font-family="Helvetica,sans-Serif" font-size="10.00">AllSquadTemplates.h</text>
</a>
</g>
</g>
<!-- Node5&#45;&gt;Node37 -->
<g id="edge68" class="edge">
<title>Node5&#45;&gt;Node37</title>
<path fill="none" stroke="midnightblue" d="M1066.53,-409.02C1120.37,-401.2 1267.41,-379.86 1353.29,-367.39"/>
<polygon fill="midnightblue" stroke="midnightblue" points="1353.8,-370.86 1363.19,-365.96 1352.79,-363.93 1353.8,-370.86"/>
</g>
<!-- Node7 -->
<g id="node7" class="node">
<title>Node7</title>
<g id="a_node7"><a xlink:href="game_object_8h.html" target="_top" xlink:title=" ">
<polygon fill="white" stroke="black" points="369.5,-168.5 369.5,-187.5 446.5,-187.5 446.5,-168.5 369.5,-168.5"/>
<text text-anchor="middle" x="408" y="-175.5" font-family="Helvetica,sans-Serif" font-size="10.00">gameObject.h</text>
</a>
</g>
</g>
<!-- Node6&#45;&gt;Node7 -->
<g id="edge6" class="edge">
<title>Node6&#45;&gt;Node7</title>
<path fill="none" stroke="midnightblue" d="M793.48,-225.52C790.28,-224.99 787.11,-224.47 784,-224 641.85,-202.34 602.23,-209.51 456.88,-188.18"/>
<polygon fill="midnightblue" stroke="midnightblue" points="457.09,-184.67 446.69,-186.66 456.06,-191.6 457.09,-184.67"/>
</g>
<!-- Node8 -->
<g id="node8" class="node">
<title>Node8</title>
<g id="a_node8"><a xlink:title=" ">
<polygon fill="white" stroke="#bfbfbf" points="359.5,-112.5 359.5,-131.5 388.5,-131.5 388.5,-112.5 359.5,-112.5"/>
<text text-anchor="middle" x="374" y="-119.5" font-family="Helvetica,sans-Serif" font-size="10.00">list</text>
</a>
</g>
</g>
<!-- Node7&#45;&gt;Node8 -->
<g id="edge7" class="edge">
<title>Node7&#45;&gt;Node8</title>
<path fill="none" stroke="midnightblue" d="M402.39,-168.08C397.63,-160.53 390.68,-149.49 384.85,-140.23"/>
<polygon fill="midnightblue" stroke="midnightblue" points="387.8,-138.35 379.51,-131.75 381.88,-142.08 387.8,-138.35"/>
</g>
<!-- Node7&#45;&gt;Node9 -->
<g id="edge8" class="edge">
<title>Node7&#45;&gt;Node9</title>
<path fill="none" stroke="midnightblue" d="M427.01,-168.44C446.59,-159.64 477.31,-145.81 499.73,-135.72"/>
<polygon fill="midnightblue" stroke="midnightblue" points="501.39,-138.81 509.07,-131.52 498.52,-132.43 501.39,-138.81"/>
</g>
<!-- Node14 -->
<g id="node14" class="node">
<title>Node14</title>
<g id="a_node14"><a xlink:href="engine_2_action_8h.html" target="_top" xlink:title=" ">
<polygon fill="white" stroke="black" points="586.5,-112.5 586.5,-131.5 669.5,-131.5 669.5,-112.5 586.5,-112.5"/>
<text text-anchor="middle" x="628" y="-119.5" font-family="Helvetica,sans-Serif" font-size="10.00">engine/Action.h</text>
</a>
</g>
</g>
<!-- Node7&#45;&gt;Node14 -->
<g id="edge13" class="edge">
<title>Node7&#45;&gt;Node14</title>
<path fill="none" stroke="midnightblue" d="M442.86,-168.44C480.92,-159.1 541.96,-144.12 583.46,-133.93"/>
<polygon fill="midnightblue" stroke="midnightblue" points="584.43,-137.3 593.3,-131.52 582.76,-130.5 584.43,-137.3"/>
</g>
<!-- Node10 -->
<g id="node10" class="node">
<title>Node10</title>
<g id="a_node10"><a xlink:href="_s_f_m_l_facade_8h.html" target="_top" xlink:title=" ">
<polygon fill="white" stroke="black" points="741.5,-56.5 741.5,-75.5 864.5,-75.5 864.5,-56.5 741.5,-56.5"/>
<text text-anchor="middle" x="803" y="-63.5" font-family="Helvetica,sans-Serif" font-size="10.00">graphics/SFMLFacade.h</text>
</a>
</g>
</g>
<!-- Node9&#45;&gt;Node10 -->
<g id="edge9" class="edge">
<title>Node9&#45;&gt;Node10</title>
<path fill="none" stroke="midnightblue" d="M568.58,-113.03C616.58,-103.61 696.65,-87.88 749.64,-77.48"/>
<polygon fill="midnightblue" stroke="midnightblue" points="750.39,-80.9 759.53,-75.54 749.04,-74.03 750.39,-80.9"/>
</g>
<!-- Node13 -->
<g id="node13" class="node">
<title>Node13</title>
<g id="a_node13"><a xlink:title=" ">
<polygon fill="white" stroke="#bfbfbf" points="479,-56.5 479,-75.5 577,-75.5 577,-56.5 479,-56.5"/>
<text text-anchor="middle" x="528" y="-63.5" font-family="Helvetica,sans-Serif" font-size="10.00">nlohmann/json.hpp</text>
</a>
</g>
</g>
<!-- Node9&#45;&gt;Node13 -->
<g id="edge12" class="edge">
<title>Node9&#45;&gt;Node13</title>
<path fill="none" stroke="midnightblue" d="M528,-112.08C528,-105.01 528,-94.86 528,-85.99"/>
<polygon fill="midnightblue" stroke="midnightblue" points="531.5,-85.75 528,-75.75 524.5,-85.75 531.5,-85.75"/>
</g>
<!-- Node11 -->
<g id="node11" class="node">
<title>Node11</title>
<g id="a_node11"><a xlink:title=" ">
<polygon fill="white" stroke="#bfbfbf" points="751,-0.5 751,-19.5 855,-19.5 855,-0.5 751,-0.5"/>
<text text-anchor="middle" x="803" y="-7.5" font-family="Helvetica,sans-Serif" font-size="10.00">SFML/Graphics.hpp</text>
</a>
</g>
</g>
<!-- Node10&#45;&gt;Node11 -->
<g id="edge10" class="edge">
<title>Node10&#45;&gt;Node11</title>
<path fill="none" stroke="midnightblue" d="M803,-56.08C803,-49.01 803,-38.86 803,-29.99"/>
<polygon fill="midnightblue" stroke="midnightblue" points="806.5,-29.75 803,-19.75 799.5,-29.75 806.5,-29.75"/>
</g>
<!-- Node10&#45;&gt;Node12 -->
<g id="edge11" class="edge">
<title>Node10&#45;&gt;Node12</title>
<path fill="none" stroke="midnightblue" d="M858.46,-56.44C930.07,-45.4 1052.83,-26.45 1114.81,-16.89"/>
<polygon fill="midnightblue" stroke="midnightblue" points="1115.59,-20.31 1124.94,-15.33 1114.52,-13.4 1115.59,-20.31"/>
</g>
<!-- Node14&#45;&gt;Node15 -->
<g id="edge14" class="edge">
<title>Node14&#45;&gt;Node15</title>
<path fill="none" stroke="midnightblue" d="M627.5,-112.08C627.11,-105.01 626.55,-94.86 626.05,-85.99"/>
<polygon fill="midnightblue" stroke="midnightblue" points="629.54,-85.54 625.49,-75.75 622.55,-85.93 629.54,-85.54"/>
</g>
<!-- Node16 -->
<g id="node16" class="node">
<title>Node16</title>
<g id="a_node16"><a xlink:title=" ">
<polygon fill="white" stroke="#bfbfbf" points="900.5,-56.5 900.5,-75.5 951.5,-75.5 951.5,-56.5 900.5,-56.5"/>
<text text-anchor="middle" x="926" y="-63.5" font-family="Helvetica,sans-Serif" font-size="10.00">memory</text>
</a>
</g>
</g>
<!-- Node14&#45;&gt;Node16 -->
<g id="edge15" class="edge">
<title>Node14&#45;&gt;Node16</title>
<path fill="none" stroke="midnightblue" d="M669.75,-113.43C728.59,-102.77 834.9,-83.51 890.28,-73.47"/>
<polygon fill="midnightblue" stroke="midnightblue" points="891.11,-76.88 900.32,-71.65 889.86,-69.99 891.11,-76.88"/>
</g>
<!-- Node17&#45;&gt;Node2 -->
<g id="edge17" class="edge">
<title>Node17&#45;&gt;Node2</title>
<path fill="none" stroke="midnightblue" d="M894.35,-291.28C904.81,-282.84 920.29,-269.24 931,-255 973.52,-198.47 1006.5,-120.3 1020.15,-85.27"/>
<polygon fill="midnightblue" stroke="midnightblue" points="1023.45,-86.44 1023.76,-75.85 1016.91,-83.94 1023.45,-86.44"/>
</g>
<!-- Node17&#45;&gt;Node18 -->
<g id="edge18" class="edge">
<title>Node17&#45;&gt;Node18</title>
<path fill="none" stroke="midnightblue" d="M847.22,-296.94C798.69,-292.01 709.83,-280.18 638,-255 636.76,-254.56 635.5,-254.08 634.25,-253.55"/>
<polygon fill="midnightblue" stroke="midnightblue" points="635.44,-250.24 624.91,-249.04 632.39,-256.54 635.44,-250.24"/>
</g>
<!-- Node19 -->
<g id="node19" class="node">
<title>Node19</title>
<g id="a_node19"><a xlink:title=" ">
<polygon fill="white" stroke="#bfbfbf" points="647,-230 647,-249 775,-249 775,-230 647,-230"/>
<text text-anchor="middle" x="711" y="-237" font-family="Helvetica,sans-Serif" font-size="10.00">scanline_triangulation.hpp</text>
</a>
</g>
</g>
<!-- Node17&#45;&gt;Node19 -->
<g id="edge19" class="edge">
<title>Node17&#45;&gt;Node19</title>
<path fill="none" stroke="midnightblue" d="M858.36,-291.48C828.72,-281.22 778.82,-263.96 745.4,-252.4"/>
<polygon fill="midnightblue" stroke="midnightblue" points="746.19,-248.97 735.6,-249.01 743.9,-255.59 746.19,-248.97"/>
</g>
<!-- Node20&#45;&gt;Node16 -->
<g id="edge24" class="edge">
<title>Node20&#45;&gt;Node16</title>
<path fill="none" stroke="midnightblue" d="M1188.64,-168.37C1138.27,-148.93 1015.84,-101.67 957.68,-79.23"/>
<polygon fill="midnightblue" stroke="midnightblue" points="958.85,-75.93 948.26,-75.59 956.33,-82.46 958.85,-75.93"/>
</g>
<!-- Node21 -->
<g id="node21" class="node">
<title>Node21</title>
<g id="a_node21"><a xlink:href="_flag_8h.html" target="_top" xlink:title=" ">
<polygon fill="white" stroke="black" points="1219.5,-112.5 1219.5,-131.5 1262.5,-131.5 1262.5,-112.5 1219.5,-112.5"/>
<text text-anchor="middle" x="1241" y="-119.5" font-family="Helvetica,sans-Serif" font-size="10.00">Flag.h</text>
</a>
</g>
</g>
<!-- Node20&#45;&gt;Node21 -->
<g id="edge21" class="edge">
<title>Node20&#45;&gt;Node21</title>
<path fill="none" stroke="midnightblue" d="M1215.95,-168.08C1220.1,-160.61 1226.15,-149.72 1231.27,-140.52"/>
<polygon fill="midnightblue" stroke="midnightblue" points="1234.34,-142.19 1236.14,-131.75 1228.22,-138.79 1234.34,-142.19"/>
</g>
<!-- Node21&#45;&gt;Node2 -->
<g id="edge22" class="edge">
<title>Node21&#45;&gt;Node2</title>
<path fill="none" stroke="midnightblue" d="M1219.3,-115.53C1181.43,-105.97 1103.09,-86.2 1058.98,-75.07"/>
<polygon fill="midnightblue" stroke="midnightblue" points="1059.63,-71.62 1049.07,-72.57 1057.91,-78.41 1059.63,-71.62"/>
</g>
<!-- Node21&#45;&gt;Node4 -->
<g id="edge23" class="edge">
<title>Node21&#45;&gt;Node4</title>
<path fill="none" stroke="midnightblue" d="M1262.51,-116.85C1311.81,-107.34 1433.15,-83.94 1490.29,-72.92"/>
<polygon fill="midnightblue" stroke="midnightblue" points="1491.03,-76.34 1500.18,-71.01 1489.7,-69.47 1491.03,-76.34"/>
</g>
<!-- Node22&#45;&gt;Node5 -->
<g id="edge28" class="edge">
<title>Node22&#45;&gt;Node5</title>
<path fill="none" stroke="midnightblue" d="M1216.22,-310.92C1216.86,-324.85 1209.7,-351.76 1193,-367 1160.92,-396.27 1109.48,-406.53 1076.55,-410.1"/>
<polygon fill="midnightblue" stroke="midnightblue" points="1076.19,-406.62 1066.56,-411.04 1076.84,-413.59 1076.19,-406.62"/>
</g>
<!-- Node22&#45;&gt;Node6 -->
<g id="edge40" class="edge">
<title>Node22&#45;&gt;Node6</title>
<path fill="none" stroke="midnightblue" d="M1185.97,-295.62C1133.22,-286.76 1011.99,-266.38 932.62,-253.04"/>
<polygon fill="midnightblue" stroke="midnightblue" points="933.12,-249.58 922.68,-251.37 931.96,-256.48 933.12,-249.58"/>
</g>
<!-- Node22&#45;&gt;Node9 -->
<g id="edge44" class="edge">
<title>Node22&#45;&gt;Node9</title>
<path fill="none" stroke="midnightblue" d="M1213.58,-291.26C1215.89,-275.42 1218.13,-241.95 1200,-224 1102.78,-127.75 732.24,-153.61 578.85,-132.13"/>
<polygon fill="midnightblue" stroke="midnightblue" points="579.04,-128.62 568.62,-130.57 577.98,-135.54 579.04,-128.62"/>
</g>
<!-- Node22&#45;&gt;Node12 -->
<g id="edge45" class="edge">
<title>Node22&#45;&gt;Node12</title>
<path fill="none" stroke="midnightblue" d="M1215.73,-291.5C1221.55,-276.87 1231.04,-246.37 1220,-224 1208.35,-200.41 1185.96,-210.9 1173,-188 1144,-136.73 1147.08,-63.77 1150.56,-29.78"/>
<polygon fill="midnightblue" stroke="midnightblue" points="1154.04,-30.17 1151.71,-19.83 1147.08,-29.36 1154.04,-30.17"/>
</g>
<!-- Node22&#45;&gt;Node23 -->
<g id="edge29" class="edge">
<title>Node22&#45;&gt;Node23</title>
<path fill="none" stroke="midnightblue" d="M1233.46,-291.48C1263.31,-281.09 1317.49,-263.51 1355.12,-251.95"/>
<polygon fill="midnightblue" stroke="midnightblue" points="1356.24,-255.27 1364.79,-249.01 1354.2,-248.58 1356.24,-255.27"/>
</g>
<!-- Node28 -->
<g id="node28" class="node">
<title>Node28</title>
<g id="a_node28"><a xlink:href="_game_logic_2_squad_2_action_8h.html" target="_top" xlink:title=" ">
<polygon fill="white" stroke="black" points="1055,-230 1055,-249 1191,-249 1191,-230 1055,-230"/>
<text text-anchor="middle" x="1123" y="-237" font-family="Helvetica,sans-Serif" font-size="10.00">GameLogic/Squad/Action.h</text>
</a>
</g>
</g>
<!-- Node22&#45;&gt;Node28 -->
<g id="edge41" class="edge">
<title>Node22&#45;&gt;Node28</title>
<path fill="none" stroke="midnightblue" d="M1194.35,-291.48C1178.14,-282.02 1154.73,-266.6 1139.06,-255.19"/>
<polygon fill="midnightblue" stroke="midnightblue" points="1140.93,-252.22 1130.83,-249.01 1136.72,-257.81 1140.93,-252.22"/>
</g>
<!-- Node23&#45;&gt;Node20 -->
<g id="edge35" class="edge">
<title>Node23&#45;&gt;Node20</title>
<path fill="none" stroke="midnightblue" d="M1369.49,-229.98C1337.35,-219.64 1283.01,-202.16 1247.07,-190.6"/>
<polygon fill="midnightblue" stroke="midnightblue" points="1248.05,-187.24 1237.46,-187.51 1245.9,-193.9 1248.05,-187.24"/>
</g>
<!-- Node23&#45;&gt;Node22 -->
<g id="edge34" class="edge">
<title>Node23&#45;&gt;Node22</title>
<path fill="none" stroke="midnightblue" d="M1374.36,-249.09C1343.15,-259.94 1285.58,-278.59 1247.96,-290.05"/>
<polygon fill="midnightblue" stroke="midnightblue" points="1246.95,-286.7 1238.38,-292.94 1248.97,-293.4 1246.95,-286.7"/>
</g>
<!-- Node24 -->
<g id="node24" class="node">
<title>Node24</title>
<g id="a_node24"><a xlink:title=" ">
<polygon fill="white" stroke="#bfbfbf" points="1377.5,-168.5 1377.5,-187.5 1420.5,-187.5 1420.5,-168.5 1377.5,-168.5"/>
<text text-anchor="middle" x="1399" y="-175.5" font-family="Helvetica,sans-Serif" font-size="10.00">cstdio</text>
</a>
</g>
</g>
<!-- Node23&#45;&gt;Node24 -->
<g id="edge30" class="edge">
<title>Node23&#45;&gt;Node24</title>
<path fill="none" stroke="midnightblue" d="M1396.43,-229.98C1396.85,-221.58 1397.51,-208.48 1398.06,-197.66"/>
<polygon fill="midnightblue" stroke="midnightblue" points="1401.56,-197.67 1398.57,-187.51 1394.57,-197.32 1401.56,-197.67"/>
</g>
<!-- Node25 -->
<g id="node25" class="node">
<title>Node25</title>
<g id="a_node25"><a xlink:href="_unit_order_8h.html" target="_top" xlink:title=" ">
<polygon fill="white" stroke="black" points="1439,-168.5 1439,-187.5 1505,-187.5 1505,-168.5 1439,-168.5"/>
<text text-anchor="middle" x="1472" y="-175.5" font-family="Helvetica,sans-Serif" font-size="10.00">UnitOrder.h</text>
</a>
</g>
</g>
<!-- Node23&#45;&gt;Node25 -->
<g id="edge31" class="edge">
<title>Node23&#45;&gt;Node25</title>
<path fill="none" stroke="midnightblue" d="M1401.99,-229.98C1412.1,-220.43 1431.73,-204.81 1447.77,-193.37"/>
<polygon fill="midnightblue" stroke="midnightblue" points="1450.01,-196.08 1456.23,-187.51 1446.02,-190.32 1450.01,-196.08"/>
</g>
<!-- Node26 -->
<g id="node26" class="node">
<title>Node26</title>
<g id="a_node26"><a xlink:href="_textures_8h.html" target="_top" xlink:title=" ">
<polygon fill="white" stroke="black" points="1258.5,-168.5 1258.5,-187.5 1359.5,-187.5 1359.5,-168.5 1258.5,-168.5"/>
<text text-anchor="middle" x="1309" y="-175.5" font-family="Helvetica,sans-Serif" font-size="10.00">graphics/Textures.h</text>
</a>
</g>
</g>
<!-- Node23&#45;&gt;Node26 -->
<g id="edge36" class="edge">
<title>Node23&#45;&gt;Node26</title>
<path fill="none" stroke="midnightblue" d="M1383.54,-229.98C1369.58,-220.43 1346.74,-204.81 1330.01,-193.37"/>
<polygon fill="midnightblue" stroke="midnightblue" points="1331.67,-190.27 1321.44,-187.51 1327.72,-196.04 1331.67,-190.27"/>
</g>
<!-- Node25&#45;&gt;Node4 -->
<g id="edge32" class="edge">
<title>Node25&#45;&gt;Node4</title>
<path fill="none" stroke="midnightblue" d="M1475.84,-168.37C1483.82,-150.46 1502.33,-108.92 1513,-84.95"/>
<polygon fill="midnightblue" stroke="midnightblue" points="1516.3,-86.15 1517.17,-75.59 1509.91,-83.3 1516.3,-86.15"/>
</g>
<!-- Node25&#45;&gt;Node23 -->
<g id="edge33" class="edge">
<title>Node25&#45;&gt;Node23</title>
<path fill="none" stroke="midnightblue" d="M1466.03,-187.51C1455.93,-197.05 1436.3,-212.67 1420.25,-224.11"/>
<polygon fill="midnightblue" stroke="midnightblue" points="1418.02,-221.4 1411.79,-229.98 1422,-227.16 1418.02,-221.4"/>
</g>
<!-- Node26&#45;&gt;Node2 -->
<g id="edge38" class="edge">
<title>Node26&#45;&gt;Node2</title>
<path fill="none" stroke="midnightblue" d="M1306.63,-168.21C1302.3,-153.96 1291.69,-125.98 1272,-112 1238.22,-88.02 1117.8,-74.73 1059.32,-69.56"/>
<polygon fill="midnightblue" stroke="midnightblue" points="1059.42,-66.05 1049.16,-68.69 1058.82,-73.03 1059.42,-66.05"/>
</g>
<!-- Node26&#45;&gt;Node9 -->
<g id="edge37" class="edge">
<title>Node26&#45;&gt;Node9</title>
<path fill="none" stroke="midnightblue" d="M1258.19,-168.93C1255.42,-168.59 1252.68,-168.28 1250,-168 955.38,-137.72 876.24,-166.47 578.8,-132.06"/>
<polygon fill="midnightblue" stroke="midnightblue" points="578.92,-128.55 568.58,-130.87 578.11,-135.51 578.92,-128.55"/>
</g>
<!-- Node27 -->
<g id="node27" class="node">
<title>Node27</title>
<g id="a_node27"><a xlink:title=" ">
<polygon fill="white" stroke="#bfbfbf" points="1319.5,-112.5 1319.5,-131.5 1402.5,-131.5 1402.5,-112.5 1319.5,-112.5"/>
<text text-anchor="middle" x="1361" y="-119.5" font-family="Helvetica,sans-Serif" font-size="10.00">unordered_map</text>
</a>
</g>
</g>
<!-- Node26&#45;&gt;Node27 -->
<g id="edge39" class="edge">
<title>Node26&#45;&gt;Node27</title>
<path fill="none" stroke="midnightblue" d="M1317.59,-168.08C1325.16,-160.22 1336.38,-148.57 1345.51,-139.08"/>
<polygon fill="midnightblue" stroke="midnightblue" points="1348.16,-141.38 1352.57,-131.75 1343.12,-136.53 1348.16,-141.38"/>
</g>
<!-- Node28&#45;&gt;Node5 -->
<g id="edge43" class="edge">
<title>Node28&#45;&gt;Node5</title>
<path fill="none" stroke="midnightblue" d="M1108.24,-249.03C1082.86,-264.65 1031.8,-300.57 1012,-347 1004.64,-364.27 1017.03,-383.2 1028.86,-396.16"/>
<polygon fill="midnightblue" stroke="midnightblue" points="1026.47,-398.71 1035.98,-403.38 1031.45,-393.8 1026.47,-398.71"/>
</g>
<!-- Node28&#45;&gt;Node22 -->
<g id="edge42" class="edge">
<title>Node28&#45;&gt;Node22</title>
<path fill="none" stroke="midnightblue" d="M1140.63,-249.01C1156.82,-258.46 1180.23,-273.88 1195.92,-285.29"/>
<polygon fill="midnightblue" stroke="midnightblue" points="1194.05,-288.27 1204.15,-291.48 1198.25,-282.67 1194.05,-288.27"/>
</g>
<!-- Node29&#45;&gt;Node2 -->
<g id="edge49" class="edge">
<title>Node29&#45;&gt;Node2</title>
<path fill="none" stroke="midnightblue" d="M929.1,-347.24C942.83,-317.61 987.7,-218.2 1013,-132 1017.53,-116.58 1021.27,-98.71 1023.74,-85.61"/>
<polygon fill="midnightblue" stroke="midnightblue" points="1027.23,-85.98 1025.58,-75.51 1020.35,-84.73 1027.23,-85.98"/>
</g>
<!-- Node29&#45;&gt;Node17 -->
<g id="edge50" class="edge">
<title>Node29&#45;&gt;Node17</title>
<path fill="none" stroke="midnightblue" d="M918.06,-347.08C912.07,-339.38 903.25,-328.03 895.95,-318.65"/>
<polygon fill="midnightblue" stroke="midnightblue" points="898.71,-316.5 889.81,-310.75 893.18,-320.79 898.71,-316.5"/>
</g>
<!-- Node30&#45;&gt;Node14 -->
<g id="edge52" class="edge">
<title>Node30&#45;&gt;Node14</title>
<path fill="none" stroke="midnightblue" d="M612.97,-168.08C615.38,-160.85 618.86,-150.41 621.87,-141.4"/>
<polygon fill="midnightblue" stroke="midnightblue" points="625.24,-142.34 625.08,-131.75 618.6,-140.13 625.24,-142.34"/>
</g>
<!-- Node31&#45;&gt;Node7 -->
<g id="edge55" class="edge">
<title>Node31&#45;&gt;Node7</title>
<path fill="none" stroke="midnightblue" d="M381.09,-291.3C385.77,-271.76 397.2,-224.06 403.55,-197.55"/>
<polygon fill="midnightblue" stroke="midnightblue" points="407.01,-198.16 405.93,-187.62 400.2,-196.53 407.01,-198.16"/>
</g>
<!-- Node31&#45;&gt;Node8 -->
<g id="edge54" class="edge">
<title>Node31&#45;&gt;Node8</title>
<path fill="none" stroke="midnightblue" d="M375.99,-291.34C369.02,-270.24 352.94,-214.47 360,-168 361.37,-159 364.19,-149.33 366.95,-141.26"/>
<polygon fill="midnightblue" stroke="midnightblue" points="370.27,-142.37 370.4,-131.78 363.69,-139.98 370.27,-142.37"/>
</g>
<!-- Node32 -->
<g id="node32" class="node">
<title>Node32</title>
<g id="a_node32"><a xlink:href="_network_manager_8h.html" target="_top" xlink:title=" ">
<polygon fill="white" stroke="black" points="407,-230 407,-249 537,-249 537,-230 407,-230"/>
<text text-anchor="middle" x="472" y="-237" font-family="Helvetica,sans-Serif" font-size="10.00">engine/NetworkManager.h</text>
</a>
</g>
</g>
<!-- Node31&#45;&gt;Node32 -->
<g id="edge56" class="edge">
<title>Node31&#45;&gt;Node32</title>
<path fill="none" stroke="midnightblue" d="M392.32,-291.48C407.38,-281.84 432.12,-266.02 450.04,-254.55"/>
<polygon fill="midnightblue" stroke="midnightblue" points="452.16,-257.35 458.7,-249.01 448.39,-251.45 452.16,-257.35"/>
</g>
<!-- Node34 -->
<g id="node34" class="node">
<title>Node34</title>
<g id="a_node34"><a xlink:title=" ">
<polygon fill="white" stroke="#bfbfbf" points="263.5,-230 263.5,-249 312.5,-249 312.5,-230 263.5,-230"/>
<text text-anchor="middle" x="288" y="-237" font-family="Helvetica,sans-Serif" font-size="10.00">random</text>
</a>
</g>
</g>
<!-- Node31&#45;&gt;Node34 -->
<g id="edge61" class="edge">
<title>Node31&#45;&gt;Node34</title>
<path fill="none" stroke="midnightblue" d="M365.96,-291.48C351.23,-281.84 327.03,-266.02 309.49,-254.55"/>
<polygon fill="midnightblue" stroke="midnightblue" points="311.3,-251.55 301.01,-249.01 307.47,-257.41 311.3,-251.55"/>
</g>
<!-- Node32&#45;&gt;Node2 -->
<g id="edge59" class="edge">
<title>Node32&#45;&gt;Node2</title>
<path fill="none" stroke="midnightblue" d="M510.43,-229.99C551.46,-220.67 618.23,-204.78 675,-188 794.75,-152.6 934.28,-101.7 995.5,-78.87"/>
<polygon fill="midnightblue" stroke="midnightblue" points="996.84,-82.1 1004.98,-75.32 994.39,-75.55 996.84,-82.1"/>
</g>
<!-- Node32&#45;&gt;Node7 -->
<g id="edge57" class="edge">
<title>Node32&#45;&gt;Node7</title>
<path fill="none" stroke="midnightblue" d="M462.83,-229.98C452.85,-220.7 436.69,-205.67 424.49,-194.33"/>
<polygon fill="midnightblue" stroke="midnightblue" points="426.86,-191.75 417.15,-187.51 422.09,-196.88 426.86,-191.75"/>
</g>
<!-- Node32&#45;&gt;Node30 -->
<g id="edge58" class="edge">
<title>Node32&#45;&gt;Node30</title>
<path fill="none" stroke="midnightblue" d="M491.77,-229.98C515.14,-219.9 554.21,-203.05 581,-191.5"/>
<polygon fill="midnightblue" stroke="midnightblue" points="582.47,-194.68 590.26,-187.51 579.7,-188.25 582.47,-194.68"/>
</g>
<!-- Node33 -->
<g id="node33" class="node">
<title>Node33</title>
<g id="a_node33"><a xlink:title=" ">
<polygon fill="white" stroke="#bfbfbf" points="464.5,-168.5 464.5,-187.5 535.5,-187.5 535.5,-168.5 464.5,-168.5"/>
<text text-anchor="middle" x="500" y="-175.5" font-family="Helvetica,sans-Serif" font-size="10.00">sys/socket.h</text>
</a>
</g>
</g>
<!-- Node32&#45;&gt;Node33 -->
<g id="edge60" class="edge">
<title>Node32&#45;&gt;Node33</title>
<path fill="none" stroke="midnightblue" d="M476.01,-229.98C480.09,-221.32 486.52,-207.65 491.7,-196.65"/>
<polygon fill="midnightblue" stroke="midnightblue" points="494.9,-198.05 496,-187.51 488.57,-195.07 494.9,-198.05"/>
</g>
<!-- Node35&#45;&gt;Node5 -->
<g id="edge65" class="edge">
<title>Node35&#45;&gt;Node5</title>
<path fill="none" stroke="midnightblue" d="M1094.64,-366.83C1088.61,-374.87 1077.36,-386.91 1067.06,-396.54"/>
<polygon fill="midnightblue" stroke="midnightblue" points="1064.59,-394.05 1059.47,-403.32 1069.26,-399.27 1064.59,-394.05"/>
</g>
<!-- Node35&#45;&gt;Node14 -->
<g id="edge63" class="edge">
<title>Node35&#45;&gt;Node14</title>
<path fill="none" stroke="midnightblue" d="M1089.38,-347.34C1065.95,-324.22 998.31,-260.36 931,-224 847.12,-178.69 739.24,-148.68 677.43,-133.86"/>
<polygon fill="midnightblue" stroke="midnightblue" points="678.09,-130.42 667.55,-131.53 676.48,-137.23 678.09,-130.42"/>
</g>
<!-- Node35&#45;&gt;Node22 -->
<g id="edge64" class="edge">
<title>Node35&#45;&gt;Node22</title>
<path fill="none" stroke="midnightblue" d="M1116.06,-347.44C1134.57,-338.68 1163.58,-324.94 1184.86,-314.86"/>
<polygon fill="midnightblue" stroke="midnightblue" points="1186.48,-317.96 1194.02,-310.52 1183.49,-311.63 1186.48,-317.96"/>
</g>
<!-- Node36&#45;&gt;Node3 -->
<g id="edge67" class="edge">
<title>Node36&#45;&gt;Node3</title>
<path fill="none" stroke="midnightblue" d="M1436.72,-310.62C1451.18,-318.21 1470.59,-330.61 1482,-347 1503.86,-378.39 1510.79,-423.83 1512.98,-449.15"/>
<polygon fill="midnightblue" stroke="midnightblue" points="1509.5,-449.51 1513.69,-459.24 1516.48,-449.02 1509.5,-449.51"/>
</g>
<!-- Node37&#45;&gt;Node1 -->
<g id="edge69" class="edge">
<title>Node37&#45;&gt;Node1</title>
<path fill="none" stroke="midnightblue" d="M1418.29,-366.77C1419.19,-387.08 1422.81,-438.68 1437,-479 1440.35,-488.52 1445.5,-498.3 1450.54,-506.69"/>
<polygon fill="midnightblue" stroke="midnightblue" points="1447.58,-508.56 1455.87,-515.16 1453.51,-504.83 1447.58,-508.56"/>
</g>
<!-- Node37&#45;&gt;Node36 -->
<g id="edge70" class="edge">
<title>Node37&#45;&gt;Node36</title>
<path fill="none" stroke="midnightblue" d="M1418,-347.08C1418,-340.01 1418,-329.86 1418,-320.99"/>
<polygon fill="midnightblue" stroke="midnightblue" points="1421.5,-320.75 1418,-310.75 1414.5,-320.75 1421.5,-320.75"/>
</g>
<!-- Node38&#45;&gt;Node2 -->
<g id="edge75" class="edge">
<title>Node38&#45;&gt;Node2</title>
<path fill="none" stroke="midnightblue" d="M78.88,-291.37C71.14,-268.32 53.83,-204.61 84,-168 161.27,-74.23 672.95,-103.71 960,-76 971.33,-74.91 983.7,-73.35 994.68,-71.84"/>
<polygon fill="midnightblue" stroke="midnightblue" points="995.3,-75.28 1004.71,-70.42 994.32,-68.35 995.3,-75.28"/>
</g>
<!-- Node39 -->
<g id="node39" class="node">
<title>Node39</title>
<g id="a_node39"><a xlink:href="_gui_object_8h.html" target="_top" xlink:title=" ">
<polygon fill="white" stroke="black" points="126,-230 126,-249 246,-249 246,-230 126,-230"/>
<text text-anchor="middle" x="186" y="-237" font-family="Helvetica,sans-Serif" font-size="10.00">engine/GUI/GuiObject.h</text>
</a>
</g>
</g>
<!-- Node38&#45;&gt;Node39 -->
<g id="edge73" class="edge">
<title>Node38&#45;&gt;Node39</title>
<path fill="none" stroke="midnightblue" d="M96.9,-291.48C113.97,-281.71 142.16,-265.58 162.26,-254.08"/>
<polygon fill="midnightblue" stroke="midnightblue" points="164.19,-257.01 171.13,-249.01 160.71,-250.94 164.19,-257.01"/>
</g>
<!-- Node39&#45;&gt;Node7 -->
<g id="edge74" class="edge">
<title>Node39&#45;&gt;Node7</title>
<path fill="none" stroke="midnightblue" d="M217.81,-229.98C256.88,-219.5 323.26,-201.71 366.36,-190.16"/>
<polygon fill="midnightblue" stroke="midnightblue" points="367.5,-193.48 376.25,-187.51 365.69,-186.72 367.5,-193.48"/>
</g>
</g>
</svg>
