<?xml version="1.0" encoding="UTF-8" standalone="no"?>
<!DOCTYPE svg PUBLIC "-//W3C//DTD SVG 1.1//EN"
 "http://www.w3.org/Graphics/SVG/1.1/DTD/svg11.dtd">
<!-- Generated by graphviz version 2.47.1 (20210421.1823)
 -->
<!-- Title: src/GameLogic/Squad/Squad.cpp Pages: 1 -->
<svg width="1299pt" height="666pt"
 viewBox="0.00 0.00 1299.20 666.00" xmlns="http://www.w3.org/2000/svg" xmlns:xlink="http://www.w3.org/1999/xlink">
<g id="graph0" class="graph" transform="scale(1 1) rotate(0) translate(4 662)">
<title>src/GameLogic/Squad/Squad.cpp</title>
<polygon fill="white" stroke="transparent" points="-4,4 -4,-662 1295.2,-662 1295.2,4 -4,4"/>
<!-- Node1 -->
<g id="node1" class="node">
<title>Node1</title>
<g id="a_node1"><a xlink:title=" ">
<polygon fill="#bfbfbf" stroke="black" points="595.2,-627.5 595.2,-657.5 709.2,-657.5 709.2,-627.5 595.2,-627.5"/>
<text text-anchor="start" x="603.2" y="-645.5" font-family="Helvetica,sans-Serif" font-size="10.00">src/GameLogic/Squad</text>
<text text-anchor="middle" x="652.2" y="-634.5" font-family="Helvetica,sans-Serif" font-size="10.00">/Squad.cpp</text>
</a>
</g>
</g>
<!-- Node2 -->
<g id="node2" class="node">
<title>Node2</title>
<g id="a_node2"><a xlink:href="_squad_8h.html" target="_top" xlink:title=" ">
<polygon fill="white" stroke="black" points="584.2,-571.5 584.2,-590.5 720.2,-590.5 720.2,-571.5 584.2,-571.5"/>
<text text-anchor="middle" x="652.2" y="-578.5" font-family="Helvetica,sans-Serif" font-size="10.00">GameLogic/Squad/Squad.h</text>
</a>
</g>
</g>
<!-- Node1&#45;&gt;Node2 -->
<g id="edge1" class="edge">
<title>Node1&#45;&gt;Node2</title>
<path fill="none" stroke="midnightblue" d="M652.2,-627.4C652.2,-619.47 652.2,-609.46 652.2,-600.86"/>
<polygon fill="midnightblue" stroke="midnightblue" points="655.7,-600.66 652.2,-590.66 648.7,-600.66 655.7,-600.66"/>
</g>
<!-- Node7 -->
<g id="node7" class="node">
<title>Node7</title>
<g id="a_node7"><a xlink:href="config_8h.html" target="_top" xlink:title=" ">
<polygon fill="white" stroke="black" points="927.7,-112.5 927.7,-131.5 1008.7,-131.5 1008.7,-112.5 927.7,-112.5"/>
<text text-anchor="middle" x="968.2" y="-119.5" font-family="Helvetica,sans-Serif" font-size="10.00">engine/config.h</text>
</a>
</g>
</g>
<!-- Node1&#45;&gt;Node7 -->
<g id="edge77" class="edge">
<title>Node1&#45;&gt;Node7</title>
<path fill="none" stroke="midnightblue" d="M709.22,-639.31C827.82,-634.24 1097.24,-619.84 1184.2,-591 1237.01,-573.48 1291.2,-581.64 1291.2,-526 1291.2,-526 1291.2,-526 1291.2,-406.5 1291.2,-285.35 1255.77,-241.16 1159.2,-168 1147.97,-159.5 1071.57,-143.21 1018.87,-132.73"/>
<polygon fill="midnightblue" stroke="midnightblue" points="1019.49,-129.29 1009,-130.79 1018.13,-136.16 1019.49,-129.29"/>
</g>
<!-- Node24 -->
<g id="node24" class="node">
<title>Node24</title>
<g id="a_node24"><a xlink:href="game_controller_8h.html" target="_top" xlink:title=" ">
<polygon fill="white" stroke="black" points="932.7,-280.5 932.7,-299.5 1053.7,-299.5 1053.7,-280.5 932.7,-280.5"/>
<text text-anchor="middle" x="993.2" y="-287.5" font-family="Helvetica,sans-Serif" font-size="10.00">engine/gameController.h</text>
</a>
</g>
</g>
<!-- Node1&#45;&gt;Node24 -->
<g id="edge79" class="edge">
<title>Node1&#45;&gt;Node24</title>
<path fill="none" stroke="midnightblue" d="M709.28,-641.76C852.41,-640.87 1215.2,-628.52 1215.2,-526 1215.2,-526 1215.2,-526 1215.2,-406.5 1215.2,-337.22 1129.06,-309.43 1064.09,-298.33"/>
<polygon fill="midnightblue" stroke="midnightblue" points="1064.29,-294.82 1053.86,-296.69 1063.18,-301.73 1064.29,-294.82"/>
</g>
<!-- Node29 -->
<g id="node29" class="node">
<title>Node29</title>
<g id="a_node29"><a xlink:href="_all_units_8h.html" target="_top" xlink:title=" ">
<polygon fill="white" stroke="black" points="176.7,-336.5 176.7,-355.5 235.7,-355.5 235.7,-336.5 176.7,-336.5"/>
<text text-anchor="middle" x="206.2" y="-343.5" font-family="Helvetica,sans-Serif" font-size="10.00">AllUnits.h</text>
</a>
</g>
</g>
<!-- Node1&#45;&gt;Node29 -->
<g id="edge80" class="edge">
<title>Node1&#45;&gt;Node29</title>
<path fill="none" stroke="midnightblue" d="M595.17,-642.41C495.78,-642.73 296.76,-637.38 248.2,-591 184.87,-530.52 195.74,-411.77 202.82,-365.8"/>
<polygon fill="midnightblue" stroke="midnightblue" points="206.3,-366.2 204.49,-355.76 199.39,-365.05 206.3,-366.2"/>
</g>
<!-- Node34 -->
<g id="node34" class="node">
<title>Node34</title>
<g id="a_node34"><a xlink:href="_textures_8h.html" target="_top" xlink:title=" ">
<polygon fill="white" stroke="black" points="243.7,-168.5 243.7,-187.5 344.7,-187.5 344.7,-168.5 243.7,-168.5"/>
<text text-anchor="middle" x="294.2" y="-175.5" font-family="Helvetica,sans-Serif" font-size="10.00">graphics/Textures.h</text>
</a>
</g>
</g>
<!-- Node1&#45;&gt;Node34 -->
<g id="edge78" class="edge">
<title>Node1&#45;&gt;Node34</title>
<path fill="none" stroke="midnightblue" d="M595.07,-636.55C486.75,-625.59 262.2,-594.58 262.2,-526 262.2,-526 262.2,-526 262.2,-468 262.2,-365.62 282.28,-244.07 290.63,-197.98"/>
<polygon fill="midnightblue" stroke="midnightblue" points="294.11,-198.42 292.48,-187.95 287.22,-197.15 294.11,-198.42"/>
</g>
<!-- Node3 -->
<g id="node3" class="node">
<title>Node3</title>
<g id="a_node3"><a xlink:href="_cell_8h.html" target="_top" xlink:title=" ">
<polygon fill="white" stroke="black" points="658.2,-459.5 658.2,-478.5 752.2,-478.5 752.2,-459.5 658.2,-459.5"/>
<text text-anchor="middle" x="705.2" y="-466.5" font-family="Helvetica,sans-Serif" font-size="10.00">GameLogic/Cell.h</text>
</a>
</g>
</g>
<!-- Node2&#45;&gt;Node3 -->
<g id="edge2" class="edge">
<title>Node2&#45;&gt;Node3</title>
<path fill="none" stroke="midnightblue" d="M650.65,-571.18C653.7,-562.2 661.89,-547.83 668.2,-535 675.98,-519.18 683.83,-500.69 690.81,-487.48"/>
<polygon fill="midnightblue" stroke="midnightblue" points="694,-488.95 695.97,-478.54 687.94,-485.45 694,-488.95"/>
</g>
<!-- Node4 -->
<g id="node4" class="node">
<title>Node4</title>
<g id="a_node4"><a xlink:href="gameplay_clickable_game_object_8h.html" target="_top" xlink:title=" ">
<polygon fill="white" stroke="black" points="771.7,-392.5 771.7,-422.5 900.7,-422.5 900.7,-392.5 771.7,-392.5"/>
<text text-anchor="start" x="779.7" y="-410.5" font-family="Helvetica,sans-Serif" font-size="10.00">engine/gameplayClickable</text>
<text text-anchor="middle" x="836.2" y="-399.5" font-family="Helvetica,sans-Serif" font-size="10.00">GameObject.h</text>
</a>
</g>
</g>
<!-- Node2&#45;&gt;Node4 -->
<g id="edge71" class="edge">
<title>Node2&#45;&gt;Node4</title>
<path fill="none" stroke="midnightblue" d="M662.69,-571.19C673.3,-562.23 690.08,-547.86 704.2,-535 743.76,-498.97 788.45,-455.55 814.37,-430.08"/>
<polygon fill="midnightblue" stroke="midnightblue" points="817.11,-432.29 821.78,-422.79 812.2,-427.31 817.11,-432.29"/>
</g>
<!-- Node2&#45;&gt;Node7 -->
<g id="edge75" class="edge">
<title>Node2&#45;&gt;Node7</title>
<path fill="none" stroke="midnightblue" d="M713.17,-571.48C842.33,-552.07 1136.53,-500.19 1196.2,-423 1247.81,-356.24 1157.08,-184.5 1139.2,-168 1130.17,-159.67 1065.54,-144.16 1018.4,-133.7"/>
<polygon fill="midnightblue" stroke="midnightblue" points="1019.15,-130.28 1008.63,-131.55 1017.65,-137.12 1019.15,-130.28"/>
</g>
<!-- Node10 -->
<g id="node10" class="node">
<title>Node10</title>
<g id="a_node10"><a xlink:href="_facade_8h.html" target="_top" xlink:title=" ">
<polygon fill="white" stroke="black" points="3.2,-0.5 3.2,-19.5 59.2,-19.5 59.2,-0.5 3.2,-0.5"/>
<text text-anchor="middle" x="31.2" y="-7.5" font-family="Helvetica,sans-Serif" font-size="10.00">Facade.h</text>
</a>
</g>
</g>
<!-- Node2&#45;&gt;Node10 -->
<g id="edge76" class="edge">
<title>Node2&#45;&gt;Node10</title>
<path fill="none" stroke="midnightblue" d="M583.97,-577.86C448.7,-573.1 156.27,-560.03 118.2,-535 -53.3,-422.26 7.64,-109.52 26.48,-29.72"/>
<polygon fill="midnightblue" stroke="midnightblue" points="29.96,-30.23 28.93,-19.69 23.16,-28.58 29.96,-30.23"/>
</g>
<!-- Node31 -->
<g id="node31" class="node">
<title>Node31</title>
<g id="a_node31"><a xlink:href="_unit_8h.html" target="_top" xlink:title=" ">
<polygon fill="white" stroke="black" points="118.2,-224.5 118.2,-243.5 160.2,-243.5 160.2,-224.5 118.2,-224.5"/>
<text text-anchor="middle" x="139.2" y="-231.5" font-family="Helvetica,sans-Serif" font-size="10.00">Unit.h</text>
</a>
</g>
</g>
<!-- Node2&#45;&gt;Node31 -->
<g id="edge70" class="edge">
<title>Node2&#45;&gt;Node31</title>
<path fill="none" stroke="midnightblue" d="M583.94,-580.74C432.73,-580.73 83.2,-570.19 83.2,-470 83.2,-470 83.2,-470 83.2,-345 83.2,-309.38 104.29,-272.12 120.92,-251.4"/>
<polygon fill="midnightblue" stroke="midnightblue" points="123.79,-253.43 127.7,-243.59 118.51,-248.85 123.79,-253.43"/>
</g>
<!-- Node40 -->
<g id="node40" class="node">
<title>Node40</title>
<g id="a_node40"><a xlink:href="_game_logic_2_squad_2_action_8h.html" target="_top" xlink:title=" ">
<polygon fill="white" stroke="black" points="532.2,-515.5 532.2,-534.5 668.2,-534.5 668.2,-515.5 532.2,-515.5"/>
<text text-anchor="middle" x="600.2" y="-522.5" font-family="Helvetica,sans-Serif" font-size="10.00">GameLogic/Squad/Action.h</text>
</a>
</g>
</g>
<!-- Node2&#45;&gt;Node40 -->
<g id="edge72" class="edge">
<title>Node2&#45;&gt;Node40</title>
<path fill="none" stroke="midnightblue" d="M638.73,-571.32C629.68,-563.65 618.31,-552.25 610.08,-542.8"/>
<polygon fill="midnightblue" stroke="midnightblue" points="612.6,-540.36 603.56,-534.83 607.18,-544.79 612.6,-540.36"/>
</g>
<!-- Node3&#45;&gt;Node2 -->
<g id="edge25" class="edge">
<title>Node3&#45;&gt;Node2</title>
<path fill="none" stroke="midnightblue" d="M707.71,-478.54C705.84,-491.08 695.96,-515.15 686.2,-535 681.57,-544.42 675.92,-554.68 670.3,-563.01"/>
<polygon fill="midnightblue" stroke="midnightblue" points="667.39,-561.06 664.25,-571.18 673.02,-565.22 667.39,-561.06"/>
</g>
<!-- Node3&#45;&gt;Node4 -->
<g id="edge3" class="edge">
<title>Node3&#45;&gt;Node4</title>
<path fill="none" stroke="midnightblue" d="M723.97,-459.48C742.71,-450.96 772.09,-437.62 796.09,-426.72"/>
<polygon fill="midnightblue" stroke="midnightblue" points="797.67,-429.85 805.33,-422.52 794.77,-423.47 797.67,-429.85"/>
</g>
<!-- Node3&#45;&gt;Node7 -->
<g id="edge23" class="edge">
<title>Node3&#45;&gt;Node7</title>
<path fill="none" stroke="midnightblue" d="M657.93,-462.59C632.76,-457.04 603.85,-445.78 588.2,-423 580.4,-411.64 583.56,-404.97 588.2,-392 606.71,-340.31 675.95,-233.47 785.2,-168 825.77,-143.68 878.89,-132.48 917.44,-127.33"/>
<polygon fill="midnightblue" stroke="midnightblue" points="917.91,-130.8 927.4,-126.1 917.05,-123.86 917.91,-130.8"/>
</g>
<!-- Node3&#45;&gt;Node10 -->
<g id="edge24" class="edge">
<title>Node3&#45;&gt;Node10</title>
<path fill="none" stroke="midnightblue" d="M658.16,-467.16C555.58,-464.74 315.04,-455.64 241.2,-423 118.1,-368.58 97.31,-314.08 50.2,-188 29.78,-133.36 29.14,-63.07 30.22,-29.92"/>
<polygon fill="midnightblue" stroke="midnightblue" points="33.72,-29.96 30.64,-19.82 26.72,-29.67 33.72,-29.96"/>
</g>
<!-- Node13 -->
<g id="node13" class="node">
<title>Node13</title>
<g id="a_node13"><a xlink:title=" ">
<polygon fill="white" stroke="#bfbfbf" points="1145.2,-56.5 1145.2,-75.5 1199.2,-75.5 1199.2,-56.5 1145.2,-56.5"/>
<text text-anchor="middle" x="1172.2" y="-63.5" font-family="Helvetica,sans-Serif" font-size="10.00">iostream</text>
</a>
</g>
</g>
<!-- Node3&#45;&gt;Node13 -->
<g id="edge27" class="edge">
<title>Node3&#45;&gt;Node13</title>
<path fill="none" stroke="midnightblue" d="M752.68,-468.02C808.24,-466.29 901.73,-457.81 973.2,-423 1026.23,-397.17 1144.94,-297.77 1169.2,-244 1193.17,-190.87 1183.27,-119.33 1176.53,-85.8"/>
<polygon fill="midnightblue" stroke="midnightblue" points="1179.87,-84.66 1174.34,-75.63 1173.02,-86.14 1179.87,-84.66"/>
</g>
<!-- Node15 -->
<g id="node15" class="node">
<title>Node15</title>
<g id="a_node15"><a xlink:href="cellgen_8h.html" target="_top" xlink:title=" ">
<polygon fill="white" stroke="black" points="643.7,-336.5 643.7,-355.5 714.7,-355.5 714.7,-336.5 643.7,-336.5"/>
<text text-anchor="middle" x="679.2" y="-343.5" font-family="Helvetica,sans-Serif" font-size="10.00">util/cellgen.h</text>
</a>
</g>
</g>
<!-- Node3&#45;&gt;Node15 -->
<g id="edge14" class="edge">
<title>Node3&#45;&gt;Node15</title>
<path fill="none" stroke="midnightblue" d="M703.33,-459.3C699.13,-439.76 688.88,-392.06 683.19,-365.55"/>
<polygon fill="midnightblue" stroke="midnightblue" points="686.58,-364.66 681.05,-355.62 679.73,-366.14 686.58,-364.66"/>
</g>
<!-- Node17 -->
<g id="node17" class="node">
<title>Node17</title>
<g id="a_node17"><a xlink:title=" ">
<polygon fill="white" stroke="#bfbfbf" points="840.7,-280.5 840.7,-299.5 875.7,-299.5 875.7,-280.5 840.7,-280.5"/>
<text text-anchor="middle" x="858.2" y="-287.5" font-family="Helvetica,sans-Serif" font-size="10.00">map</text>
</a>
</g>
</g>
<!-- Node3&#45;&gt;Node17 -->
<g id="edge26" class="edge">
<title>Node3&#45;&gt;Node17</title>
<path fill="none" stroke="midnightblue" d="M711.36,-459.34C721.66,-445 743.23,-415.55 763.2,-392 789.75,-360.69 823.07,-326.29 842.37,-306.79"/>
<polygon fill="midnightblue" stroke="midnightblue" points="844.92,-309.19 849.5,-299.64 839.96,-304.26 844.92,-309.19"/>
</g>
<!-- Node19 -->
<g id="node19" class="node">
<title>Node19</title>
<g id="a_node19"><a xlink:href="_all_flags_8h.html" target="_top" xlink:title=" ">
<polygon fill="white" stroke="black" points="362.7,-168.5 362.7,-187.5 421.7,-187.5 421.7,-168.5 362.7,-168.5"/>
<text text-anchor="middle" x="392.2" y="-175.5" font-family="Helvetica,sans-Serif" font-size="10.00">AllFlags.h</text>
</a>
</g>
</g>
<!-- Node3&#45;&gt;Node19 -->
<g id="edge18" class="edge">
<title>Node3&#45;&gt;Node19</title>
<path fill="none" stroke="midnightblue" d="M657.98,-460.99C626.87,-454.72 586.29,-443.27 555.2,-423 467.89,-366.07 416.02,-244.29 398.72,-197.68"/>
<polygon fill="midnightblue" stroke="midnightblue" points="401.91,-196.2 395.22,-187.99 395.32,-198.58 401.91,-196.2"/>
</g>
<!-- Node22 -->
<g id="node22" class="node">
<title>Node22</title>
<g id="a_node22"><a xlink:href="geometry_8h.html" target="_top" xlink:title=" ">
<polygon fill="white" stroke="black" points="597.2,-398 597.2,-417 677.2,-417 677.2,-398 597.2,-398"/>
<text text-anchor="middle" x="637.2" y="-405" font-family="Helvetica,sans-Serif" font-size="10.00">util/geometry.h</text>
</a>
</g>
</g>
<!-- Node3&#45;&gt;Node22 -->
<g id="edge28" class="edge">
<title>Node3&#45;&gt;Node22</title>
<path fill="none" stroke="midnightblue" d="M695.46,-459.48C684.85,-450.2 667.68,-435.17 654.72,-423.83"/>
<polygon fill="midnightblue" stroke="midnightblue" points="656.75,-420.96 646.92,-417.01 652.15,-426.23 656.75,-420.96"/>
</g>
<!-- Node23 -->
<g id="node23" class="node">
<title>Node23</title>
<g id="a_node23"><a xlink:href="_none_8h.html" target="_top" xlink:title=" ">
<polygon fill="white" stroke="black" points="1016.7,-168.5 1016.7,-187.5 1129.7,-187.5 1129.7,-168.5 1016.7,-168.5"/>
<text text-anchor="middle" x="1073.2" y="-175.5" font-family="Helvetica,sans-Serif" font-size="10.00">engine/actions/None.h</text>
</a>
</g>
</g>
<!-- Node3&#45;&gt;Node23 -->
<g id="edge31" class="edge">
<title>Node3&#45;&gt;Node23</title>
<path fill="none" stroke="midnightblue" d="M752.25,-466.93C801.49,-464.05 879.75,-454.38 939.2,-423 973.52,-404.88 1046.81,-335.18 1063.2,-300 1078.72,-266.68 1077.74,-222.61 1075.53,-197.89"/>
<polygon fill="midnightblue" stroke="midnightblue" points="1078.99,-197.3 1074.45,-187.73 1072.03,-198.04 1078.99,-197.3"/>
</g>
<!-- Node3&#45;&gt;Node24 -->
<g id="edge33" class="edge">
<title>Node3&#45;&gt;Node24</title>
<path fill="none" stroke="midnightblue" d="M752.47,-467.78C796.9,-465.37 863.4,-455.9 910.2,-423 951.04,-394.28 976.12,-338.43 986.94,-309.45"/>
<polygon fill="midnightblue" stroke="midnightblue" points="990.33,-310.36 990.4,-299.77 983.74,-308.01 990.33,-310.36"/>
</g>
<!-- Node28 -->
<g id="node28" class="node">
<title>Node28</title>
<g id="a_node28"><a xlink:href="_set_squad_path_8h.html" target="_top" xlink:title=" ">
<polygon fill="white" stroke="black" points="1033.7,-398 1033.7,-417 1186.7,-417 1186.7,-398 1033.7,-398"/>
<text text-anchor="middle" x="1110.2" y="-405" font-family="Helvetica,sans-Serif" font-size="10.00">engine/actions/SetSquadPath.h</text>
</a>
</g>
</g>
<!-- Node3&#45;&gt;Node28 -->
<g id="edge42" class="edge">
<title>Node3&#45;&gt;Node28</title>
<path fill="none" stroke="midnightblue" d="M752.39,-460.57C812.4,-451.85 918.86,-436.82 1010.2,-423 1019.36,-421.61 1029.03,-420.11 1038.61,-418.62"/>
<polygon fill="midnightblue" stroke="midnightblue" points="1039.2,-422.07 1048.54,-417.07 1038.13,-415.16 1039.2,-422.07"/>
</g>
<!-- Node3&#45;&gt;Node29 -->
<g id="edge46" class="edge">
<title>Node3&#45;&gt;Node29</title>
<path fill="none" stroke="midnightblue" d="M658.03,-466.72C562.85,-463.52 351.35,-453.15 286.2,-423 257.77,-409.85 233.03,-382.49 218.85,-364.44"/>
<polygon fill="midnightblue" stroke="midnightblue" points="221.27,-361.84 212.44,-355.98 215.69,-366.06 221.27,-361.84"/>
</g>
<!-- Node36 -->
<g id="node36" class="node">
<title>Node36</title>
<g id="a_node36"><a xlink:href="_all_squad_templates_8h.html" target="_top" xlink:title=" ">
<polygon fill="white" stroke="black" points="328.7,-398 328.7,-417 437.7,-417 437.7,-398 328.7,-398"/>
<text text-anchor="middle" x="383.2" y="-405" font-family="Helvetica,sans-Serif" font-size="10.00">AllSquadTemplates.h</text>
</a>
</g>
</g>
<!-- Node3&#45;&gt;Node36 -->
<g id="edge61" class="edge">
<title>Node3&#45;&gt;Node36</title>
<path fill="none" stroke="midnightblue" d="M658.02,-460.06C607.15,-451.39 523.81,-436.89 452.2,-423 445.97,-421.79 439.43,-420.48 432.97,-419.15"/>
<polygon fill="midnightblue" stroke="midnightblue" points="433.43,-415.67 422.93,-417.07 432.01,-422.53 433.43,-415.67"/>
</g>
<!-- Node5 -->
<g id="node5" class="node">
<title>Node5</title>
<g id="a_node5"><a xlink:href="game_object_8h.html" target="_top" xlink:title=" ">
<polygon fill="white" stroke="black" points="793.7,-168.5 793.7,-187.5 870.7,-187.5 870.7,-168.5 793.7,-168.5"/>
<text text-anchor="middle" x="832.2" y="-175.5" font-family="Helvetica,sans-Serif" font-size="10.00">gameObject.h</text>
</a>
</g>
</g>
<!-- Node4&#45;&gt;Node5 -->
<g id="edge4" class="edge">
<title>Node4&#45;&gt;Node5</title>
<path fill="none" stroke="midnightblue" d="M845.12,-392.39C857.02,-372.63 877.49,-335.19 885.2,-300 887.1,-291.32 889.21,-287.93 885.2,-280 873,-255.89 849.14,-267.72 836.2,-244 828.5,-229.89 828.12,-211.4 829.3,-197.75"/>
<polygon fill="midnightblue" stroke="midnightblue" points="832.8,-197.98 830.54,-187.63 825.85,-197.13 832.8,-197.98"/>
</g>
<!-- Node6 -->
<g id="node6" class="node">
<title>Node6</title>
<g id="a_node6"><a xlink:title=" ">
<polygon fill="white" stroke="#bfbfbf" points="767.7,-112.5 767.7,-131.5 796.7,-131.5 796.7,-112.5 767.7,-112.5"/>
<text text-anchor="middle" x="782.2" y="-119.5" font-family="Helvetica,sans-Serif" font-size="10.00">list</text>
</a>
</g>
</g>
<!-- Node5&#45;&gt;Node6 -->
<g id="edge5" class="edge">
<title>Node5&#45;&gt;Node6</title>
<path fill="none" stroke="midnightblue" d="M823.94,-168.08C816.74,-160.3 806.09,-148.8 797.35,-139.37"/>
<polygon fill="midnightblue" stroke="midnightblue" points="799.66,-136.71 790.3,-131.75 794.53,-141.47 799.66,-136.71"/>
</g>
<!-- Node5&#45;&gt;Node7 -->
<g id="edge6" class="edge">
<title>Node5&#45;&gt;Node7</title>
<path fill="none" stroke="midnightblue" d="M853.75,-168.44C876.23,-159.52 911.69,-145.44 937.18,-135.32"/>
<polygon fill="midnightblue" stroke="midnightblue" points="938.75,-138.46 946.75,-131.52 936.17,-131.95 938.75,-138.46"/>
</g>
<!-- Node12 -->
<g id="node12" class="node">
<title>Node12</title>
<g id="a_node12"><a xlink:href="engine_2_action_8h.html" target="_top" xlink:title=" ">
<polygon fill="white" stroke="black" points="1031.7,-112.5 1031.7,-131.5 1114.7,-131.5 1114.7,-112.5 1031.7,-112.5"/>
<text text-anchor="middle" x="1073.2" y="-119.5" font-family="Helvetica,sans-Serif" font-size="10.00">engine/Action.h</text>
</a>
</g>
</g>
<!-- Node5&#45;&gt;Node12 -->
<g id="edge11" class="edge">
<title>Node5&#45;&gt;Node12</title>
<path fill="none" stroke="midnightblue" d="M870.39,-168.44C912.34,-159.04 979.79,-143.93 1025.27,-133.74"/>
<polygon fill="midnightblue" stroke="midnightblue" points="1026.2,-137.12 1035.19,-131.52 1024.67,-130.29 1026.2,-137.12"/>
</g>
<!-- Node8 -->
<g id="node8" class="node">
<title>Node8</title>
<g id="a_node8"><a xlink:href="_s_f_m_l_facade_8h.html" target="_top" xlink:title=" ">
<polygon fill="white" stroke="black" points="717.7,-56.5 717.7,-75.5 840.7,-75.5 840.7,-56.5 717.7,-56.5"/>
<text text-anchor="middle" x="779.2" y="-63.5" font-family="Helvetica,sans-Serif" font-size="10.00">graphics/SFMLFacade.h</text>
</a>
</g>
</g>
<!-- Node7&#45;&gt;Node8 -->
<g id="edge7" class="edge">
<title>Node7&#45;&gt;Node8</title>
<path fill="none" stroke="midnightblue" d="M938.25,-112.44C906.04,-103.24 854.67,-88.56 819.06,-78.39"/>
<polygon fill="midnightblue" stroke="midnightblue" points="819.58,-74.9 809.01,-75.52 817.66,-81.63 819.58,-74.9"/>
</g>
<!-- Node11 -->
<g id="node11" class="node">
<title>Node11</title>
<g id="a_node11"><a xlink:title=" ">
<polygon fill="white" stroke="#bfbfbf" points="919.2,-56.5 919.2,-75.5 1017.2,-75.5 1017.2,-56.5 919.2,-56.5"/>
<text text-anchor="middle" x="968.2" y="-63.5" font-family="Helvetica,sans-Serif" font-size="10.00">nlohmann/json.hpp</text>
</a>
</g>
</g>
<!-- Node7&#45;&gt;Node11 -->
<g id="edge10" class="edge">
<title>Node7&#45;&gt;Node11</title>
<path fill="none" stroke="midnightblue" d="M968.2,-112.08C968.2,-105.01 968.2,-94.86 968.2,-85.99"/>
<polygon fill="midnightblue" stroke="midnightblue" points="971.7,-85.75 968.2,-75.75 964.7,-85.75 971.7,-85.75"/>
</g>
<!-- Node9 -->
<g id="node9" class="node">
<title>Node9</title>
<g id="a_node9"><a xlink:title=" ">
<polygon fill="white" stroke="#bfbfbf" points="727.2,-0.5 727.2,-19.5 831.2,-19.5 831.2,-0.5 727.2,-0.5"/>
<text text-anchor="middle" x="779.2" y="-7.5" font-family="Helvetica,sans-Serif" font-size="10.00">SFML/Graphics.hpp</text>
</a>
</g>
</g>
<!-- Node8&#45;&gt;Node9 -->
<g id="edge8" class="edge">
<title>Node8&#45;&gt;Node9</title>
<path fill="none" stroke="midnightblue" d="M779.2,-56.08C779.2,-49.01 779.2,-38.86 779.2,-29.99"/>
<polygon fill="midnightblue" stroke="midnightblue" points="782.7,-29.75 779.2,-19.75 775.7,-29.75 782.7,-29.75"/>
</g>
<!-- Node8&#45;&gt;Node10 -->
<g id="edge9" class="edge">
<title>Node8&#45;&gt;Node10</title>
<path fill="none" stroke="midnightblue" d="M717.56,-59.89C701.49,-58.59 684.2,-57.21 668.2,-56 441.28,-38.79 168.71,-20.25 69.6,-13.57"/>
<polygon fill="midnightblue" stroke="midnightblue" points="69.67,-10.07 59.46,-12.89 69.2,-17.05 69.67,-10.07"/>
</g>
<!-- Node12&#45;&gt;Node13 -->
<g id="edge12" class="edge">
<title>Node12&#45;&gt;Node13</title>
<path fill="none" stroke="midnightblue" d="M1089.11,-112.32C1104.84,-103.74 1129.14,-90.49 1147.41,-80.52"/>
<polygon fill="midnightblue" stroke="midnightblue" points="1149.23,-83.52 1156.33,-75.65 1145.88,-77.37 1149.23,-83.52"/>
</g>
<!-- Node14 -->
<g id="node14" class="node">
<title>Node14</title>
<g id="a_node14"><a xlink:title=" ">
<polygon fill="white" stroke="#bfbfbf" points="608.7,-56.5 608.7,-75.5 659.7,-75.5 659.7,-56.5 608.7,-56.5"/>
<text text-anchor="middle" x="634.2" y="-63.5" font-family="Helvetica,sans-Serif" font-size="10.00">memory</text>
</a>
</g>
</g>
<!-- Node12&#45;&gt;Node14 -->
<g id="edge13" class="edge">
<title>Node12&#45;&gt;Node14</title>
<path fill="none" stroke="midnightblue" d="M1031.49,-113.97C1027.01,-113.27 1022.51,-112.6 1018.2,-112 881.27,-92.83 846.51,-92.24 709.2,-76 696.38,-74.48 682.33,-72.8 669.89,-71.31"/>
<polygon fill="midnightblue" stroke="midnightblue" points="670.23,-67.82 659.88,-70.1 669.39,-74.77 670.23,-67.82"/>
</g>
<!-- Node16 -->
<g id="node16" class="node">
<title>Node16</title>
<g id="a_node16"><a xlink:title=" ">
<polygon fill="white" stroke="#bfbfbf" points="466.2,-56.5 466.2,-75.5 510.2,-75.5 510.2,-56.5 466.2,-56.5"/>
<text text-anchor="middle" x="488.2" y="-63.5" font-family="Helvetica,sans-Serif" font-size="10.00">vector</text>
</a>
</g>
</g>
<!-- Node15&#45;&gt;Node16 -->
<g id="edge15" class="edge">
<title>Node15&#45;&gt;Node16</title>
<path fill="none" stroke="midnightblue" d="M679.63,-336.48C680.29,-315.83 679.77,-262.02 659.2,-224 623.58,-158.15 549.62,-105.2 511.71,-81.1"/>
<polygon fill="midnightblue" stroke="midnightblue" points="513.23,-77.93 502.9,-75.61 509.53,-83.87 513.23,-77.93"/>
</g>
<!-- Node15&#45;&gt;Node17 -->
<g id="edge16" class="edge">
<title>Node15&#45;&gt;Node17</title>
<path fill="none" stroke="midnightblue" d="M709.29,-336.42C738.1,-328.13 783,-315.02 830.89,-300.02"/>
<polygon fill="midnightblue" stroke="midnightblue" points="832.02,-303.33 840.51,-296.99 829.92,-296.66 832.02,-303.33"/>
</g>
<!-- Node18 -->
<g id="node18" class="node">
<title>Node18</title>
<g id="a_node18"><a xlink:title=" ">
<polygon fill="white" stroke="#bfbfbf" points="694.2,-280.5 694.2,-299.5 822.2,-299.5 822.2,-280.5 694.2,-280.5"/>
<text text-anchor="middle" x="758.2" y="-287.5" font-family="Helvetica,sans-Serif" font-size="10.00">scanline_triangulation.hpp</text>
</a>
</g>
</g>
<!-- Node15&#45;&gt;Node18 -->
<g id="edge17" class="edge">
<title>Node15&#45;&gt;Node18</title>
<path fill="none" stroke="midnightblue" d="M691.89,-336.32C704.1,-327.98 722.78,-315.21 737.2,-305.35"/>
<polygon fill="midnightblue" stroke="midnightblue" points="739.26,-308.19 745.54,-299.65 735.31,-302.41 739.26,-308.19"/>
</g>
<!-- Node19&#45;&gt;Node14 -->
<g id="edge22" class="edge">
<title>Node19&#45;&gt;Node14</title>
<path fill="none" stroke="midnightblue" d="M411.19,-168.37C453.6,-149.09 556.2,-102.45 606.06,-79.79"/>
<polygon fill="midnightblue" stroke="midnightblue" points="607.64,-82.92 615.3,-75.59 604.75,-76.54 607.64,-82.92"/>
</g>
<!-- Node20 -->
<g id="node20" class="node">
<title>Node20</title>
<g id="a_node20"><a xlink:href="_flag_8h.html" target="_top" xlink:title=" ">
<polygon fill="white" stroke="black" points="378.7,-112.5 378.7,-131.5 421.7,-131.5 421.7,-112.5 378.7,-112.5"/>
<text text-anchor="middle" x="400.2" y="-119.5" font-family="Helvetica,sans-Serif" font-size="10.00">Flag.h</text>
</a>
</g>
</g>
<!-- Node19&#45;&gt;Node20 -->
<g id="edge19" class="edge">
<title>Node19&#45;&gt;Node20</title>
<path fill="none" stroke="midnightblue" d="M393.52,-168.08C394.58,-160.93 396.11,-150.64 397.43,-141.69"/>
<polygon fill="midnightblue" stroke="midnightblue" points="400.9,-142.16 398.9,-131.75 393.98,-141.13 400.9,-142.16"/>
</g>
<!-- Node20&#45;&gt;Node16 -->
<g id="edge20" class="edge">
<title>Node20&#45;&gt;Node16</title>
<path fill="none" stroke="midnightblue" d="M414.34,-112.32C428.07,-103.9 449.14,-90.97 465.26,-81.07"/>
<polygon fill="midnightblue" stroke="midnightblue" points="467.4,-83.87 474.1,-75.65 463.74,-77.9 467.4,-83.87"/>
</g>
<!-- Node21 -->
<g id="node21" class="node">
<title>Node21</title>
<g id="a_node21"><a xlink:title=" ">
<polygon fill="white" stroke="#bfbfbf" points="189.7,-56.5 189.7,-75.5 230.7,-75.5 230.7,-56.5 189.7,-56.5"/>
<text text-anchor="middle" x="210.2" y="-63.5" font-family="Helvetica,sans-Serif" font-size="10.00">string</text>
</a>
</g>
</g>
<!-- Node20&#45;&gt;Node21 -->
<g id="edge21" class="edge">
<title>Node20&#45;&gt;Node21</title>
<path fill="none" stroke="midnightblue" d="M378.4,-114.81C344.49,-105.17 279,-86.55 240.51,-75.61"/>
<polygon fill="midnightblue" stroke="midnightblue" points="241.45,-72.24 230.87,-72.88 239.54,-78.98 241.45,-72.24"/>
</g>
<!-- Node22&#45;&gt;Node15 -->
<g id="edge30" class="edge">
<title>Node22&#45;&gt;Node15</title>
<path fill="none" stroke="midnightblue" d="M643.22,-397.98C649.45,-389.14 659.37,-375.09 667.22,-363.98"/>
<polygon fill="midnightblue" stroke="midnightblue" points="670.29,-365.7 673.19,-355.51 664.57,-361.66 670.29,-365.7"/>
</g>
<!-- Node22&#45;&gt;Node16 -->
<g id="edge29" class="edge">
<title>Node22&#45;&gt;Node16</title>
<path fill="none" stroke="midnightblue" d="M612.62,-397.97C576.55,-383.95 510.6,-352.25 483.2,-300 463.81,-263.01 478.94,-134.15 485.53,-85.65"/>
<polygon fill="midnightblue" stroke="midnightblue" points="489.01,-86.01 486.93,-75.63 482.08,-85.05 489.01,-86.01"/>
</g>
<!-- Node23&#45;&gt;Node12 -->
<g id="edge32" class="edge">
<title>Node23&#45;&gt;Node12</title>
<path fill="none" stroke="midnightblue" d="M1073.2,-168.08C1073.2,-161.01 1073.2,-150.86 1073.2,-141.99"/>
<polygon fill="midnightblue" stroke="midnightblue" points="1076.7,-141.75 1073.2,-131.75 1069.7,-141.75 1076.7,-141.75"/>
</g>
<!-- Node24&#45;&gt;Node5 -->
<g id="edge35" class="edge">
<title>Node24&#45;&gt;Node5</title>
<path fill="none" stroke="midnightblue" d="M932.69,-282.58C904.88,-276.7 873.44,-265.46 852.2,-244 840.14,-231.82 835.33,-212.54 833.42,-198.14"/>
<polygon fill="midnightblue" stroke="midnightblue" points="836.87,-197.49 832.43,-187.87 829.9,-198.16 836.87,-197.49"/>
</g>
<!-- Node24&#45;&gt;Node6 -->
<g id="edge34" class="edge">
<title>Node24&#45;&gt;Node6</title>
<path fill="none" stroke="midnightblue" d="M935.97,-280.47C904.75,-273.95 866.43,-262.77 836.2,-244 807.6,-226.24 798.07,-219.1 785.2,-188 779.19,-173.47 778.83,-155.52 779.75,-142.17"/>
<polygon fill="midnightblue" stroke="midnightblue" points="783.27,-142.11 780.78,-131.82 776.31,-141.42 783.27,-142.11"/>
</g>
<!-- Node25 -->
<g id="node25" class="node">
<title>Node25</title>
<g id="a_node25"><a xlink:href="_network_manager_8h.html" target="_top" xlink:title=" ">
<polygon fill="white" stroke="black" points="928.2,-224.5 928.2,-243.5 1058.2,-243.5 1058.2,-224.5 928.2,-224.5"/>
<text text-anchor="middle" x="993.2" y="-231.5" font-family="Helvetica,sans-Serif" font-size="10.00">engine/NetworkManager.h</text>
</a>
</g>
</g>
<!-- Node24&#45;&gt;Node25 -->
<g id="edge36" class="edge">
<title>Node24&#45;&gt;Node25</title>
<path fill="none" stroke="midnightblue" d="M993.2,-280.08C993.2,-273.01 993.2,-262.86 993.2,-253.99"/>
<polygon fill="midnightblue" stroke="midnightblue" points="996.7,-253.75 993.2,-243.75 989.7,-253.75 996.7,-253.75"/>
</g>
<!-- Node27 -->
<g id="node27" class="node">
<title>Node27</title>
<g id="a_node27"><a xlink:title=" ">
<polygon fill="white" stroke="#bfbfbf" points="860.7,-224.5 860.7,-243.5 909.7,-243.5 909.7,-224.5 860.7,-224.5"/>
<text text-anchor="middle" x="885.2" y="-231.5" font-family="Helvetica,sans-Serif" font-size="10.00">random</text>
</a>
</g>
</g>
<!-- Node24&#45;&gt;Node27 -->
<g id="edge41" class="edge">
<title>Node24&#45;&gt;Node27</title>
<path fill="none" stroke="midnightblue" d="M975.85,-280.32C958.53,-271.66 931.68,-258.24 911.7,-248.25"/>
<polygon fill="midnightblue" stroke="midnightblue" points="913.02,-245 902.51,-243.65 909.89,-251.26 913.02,-245"/>
</g>
<!-- Node25&#45;&gt;Node5 -->
<g id="edge37" class="edge">
<title>Node25&#45;&gt;Node5</title>
<path fill="none" stroke="midnightblue" d="M967.69,-224.44C940.6,-215.36 897.61,-200.94 867.33,-190.78"/>
<polygon fill="midnightblue" stroke="midnightblue" points="868.19,-187.38 857.59,-187.52 865.96,-194.01 868.19,-187.38"/>
</g>
<!-- Node25&#45;&gt;Node16 -->
<g id="edge39" class="edge">
<title>Node25&#45;&gt;Node16</title>
<path fill="none" stroke="midnightblue" d="M978.62,-224.4C963.6,-215.48 939.59,-201.05 919.2,-188 868.22,-155.38 862.71,-133.68 806.2,-112 754.33,-92.1 590.53,-75.91 520.48,-69.72"/>
<polygon fill="midnightblue" stroke="midnightblue" points="520.73,-66.23 510.47,-68.84 520.12,-73.2 520.73,-66.23"/>
</g>
<!-- Node25&#45;&gt;Node23 -->
<g id="edge38" class="edge">
<title>Node25&#45;&gt;Node23</title>
<path fill="none" stroke="midnightblue" d="M1006.05,-224.32C1018.42,-215.98 1037.33,-203.21 1051.94,-193.35"/>
<polygon fill="midnightblue" stroke="midnightblue" points="1054.05,-196.15 1060.38,-187.65 1050.13,-190.35 1054.05,-196.15"/>
</g>
<!-- Node26 -->
<g id="node26" class="node">
<title>Node26</title>
<g id="a_node26"><a xlink:title=" ">
<polygon fill="white" stroke="#bfbfbf" points="927.7,-168.5 927.7,-187.5 998.7,-187.5 998.7,-168.5 927.7,-168.5"/>
<text text-anchor="middle" x="963.2" y="-175.5" font-family="Helvetica,sans-Serif" font-size="10.00">sys/socket.h</text>
</a>
</g>
</g>
<!-- Node25&#45;&gt;Node26 -->
<g id="edge40" class="edge">
<title>Node25&#45;&gt;Node26</title>
<path fill="none" stroke="midnightblue" d="M988.25,-224.08C984.1,-216.61 978.05,-205.72 972.93,-196.52"/>
<polygon fill="midnightblue" stroke="midnightblue" points="975.98,-194.79 968.06,-187.75 969.86,-198.19 975.98,-194.79"/>
</g>
<!-- Node28&#45;&gt;Node2 -->
<g id="edge44" class="edge">
<title>Node28&#45;&gt;Node2</title>
<path fill="none" stroke="midnightblue" d="M1087.35,-417.06C1012.07,-445.25 771.66,-535.27 684.31,-567.98"/>
<polygon fill="midnightblue" stroke="midnightblue" points="683.05,-564.71 674.91,-571.5 685.5,-571.27 683.05,-564.71"/>
</g>
<!-- Node28&#45;&gt;Node3 -->
<g id="edge45" class="edge">
<title>Node28&#45;&gt;Node3</title>
<path fill="none" stroke="midnightblue" d="M1066.04,-417.07C1053.81,-419.06 1040.54,-421.13 1028.2,-423 935.42,-437.04 827.05,-452.32 762.28,-460.98"/>
<polygon fill="midnightblue" stroke="midnightblue" points="761.73,-457.52 752.27,-462.31 762.65,-464.46 761.73,-457.52"/>
</g>
<!-- Node28&#45;&gt;Node12 -->
<g id="edge43" class="edge">
<title>Node28&#45;&gt;Node12</title>
<path fill="none" stroke="midnightblue" d="M1114.74,-397.61C1130.78,-364.82 1181.69,-248.39 1139.2,-168 1131.78,-153.95 1117.78,-143.47 1104.58,-136.17"/>
<polygon fill="midnightblue" stroke="midnightblue" points="1106.16,-133.04 1095.66,-131.62 1102.98,-139.28 1106.16,-133.04"/>
</g>
<!-- Node30 -->
<g id="node30" class="node">
<title>Node30</title>
<g id="a_node30"><a xlink:href="_factory_8h.html" target="_top" xlink:title=" ">
<polygon fill="white" stroke="black" points="187.2,-280.5 187.2,-299.5 243.2,-299.5 243.2,-280.5 187.2,-280.5"/>
<text text-anchor="middle" x="215.2" y="-287.5" font-family="Helvetica,sans-Serif" font-size="10.00">Factory.h</text>
</a>
</g>
</g>
<!-- Node29&#45;&gt;Node30 -->
<g id="edge47" class="edge">
<title>Node29&#45;&gt;Node30</title>
<path fill="none" stroke="midnightblue" d="M207.69,-336.08C208.88,-328.93 210.59,-318.64 212.08,-309.69"/>
<polygon fill="midnightblue" stroke="midnightblue" points="215.55,-310.19 213.74,-299.75 208.64,-309.04 215.55,-310.19"/>
</g>
<!-- Node30&#45;&gt;Node3 -->
<g id="edge49" class="edge">
<title>Node30&#45;&gt;Node3</title>
<path fill="none" stroke="midnightblue" d="M220.72,-299.64C238.09,-326.53 292.08,-407.84 319.2,-423 374.19,-453.74 554.36,-463.58 647.81,-466.65"/>
<polygon fill="midnightblue" stroke="midnightblue" points="647.84,-470.15 657.95,-466.97 648.06,-463.16 647.84,-470.15"/>
</g>
<!-- Node30&#45;&gt;Node21 -->
<g id="edge48" class="edge">
<title>Node30&#45;&gt;Node21</title>
<path fill="none" stroke="midnightblue" d="M215,-280.3C214.27,-247.63 211.66,-131.87 210.63,-85.96"/>
<polygon fill="midnightblue" stroke="midnightblue" points="214.12,-85.8 210.4,-75.88 207.13,-85.96 214.12,-85.8"/>
</g>
<!-- Node30&#45;&gt;Node31 -->
<g id="edge50" class="edge">
<title>Node30&#45;&gt;Node31</title>
<path fill="none" stroke="midnightblue" d="M202.99,-280.32C191.42,-272.11 173.82,-259.6 160.04,-249.81"/>
<polygon fill="midnightblue" stroke="midnightblue" points="161.81,-246.77 151.63,-243.83 157.76,-252.48 161.81,-246.77"/>
</g>
<!-- Node31&#45;&gt;Node2 -->
<g id="edge55" class="edge">
<title>Node31&#45;&gt;Node2</title>
<path fill="none" stroke="midnightblue" d="M137.63,-243.59C128.75,-261.44 101.2,-304.3 101.2,-345 101.2,-470 101.2,-470 101.2,-470 101.2,-565.95 421.72,-579.68 573.89,-580.68"/>
<polygon fill="midnightblue" stroke="midnightblue" points="574.09,-584.18 584.1,-580.73 574.12,-577.18 574.09,-584.18"/>
</g>
<!-- Node31&#45;&gt;Node19 -->
<g id="edge56" class="edge">
<title>Node31&#45;&gt;Node19</title>
<path fill="none" stroke="midnightblue" d="M160.49,-228.67C197.42,-221.12 275.96,-204.93 352.59,-188.1"/>
<polygon fill="midnightblue" stroke="midnightblue" points="353.39,-191.51 362.4,-185.94 351.88,-184.67 353.39,-191.51"/>
</g>
<!-- Node32 -->
<g id="node32" class="node">
<title>Node32</title>
<g id="a_node32"><a xlink:title=" ">
<polygon fill="white" stroke="#bfbfbf" points="143.7,-168.5 143.7,-187.5 186.7,-187.5 186.7,-168.5 143.7,-168.5"/>
<text text-anchor="middle" x="165.2" y="-175.5" font-family="Helvetica,sans-Serif" font-size="10.00">cstdio</text>
</a>
</g>
</g>
<!-- Node31&#45;&gt;Node32 -->
<g id="edge51" class="edge">
<title>Node31&#45;&gt;Node32</title>
<path fill="none" stroke="midnightblue" d="M143.49,-224.08C147.05,-216.69 152.22,-205.95 156.62,-196.81"/>
<polygon fill="midnightblue" stroke="midnightblue" points="159.8,-198.28 160.99,-187.75 153.49,-195.24 159.8,-198.28"/>
</g>
<!-- Node33 -->
<g id="node33" class="node">
<title>Node33</title>
<g id="a_node33"><a xlink:href="_unit_order_8h.html" target="_top" xlink:title=" ">
<polygon fill="white" stroke="black" points="59.2,-168.5 59.2,-187.5 125.2,-187.5 125.2,-168.5 59.2,-168.5"/>
<text text-anchor="middle" x="92.2" y="-175.5" font-family="Helvetica,sans-Serif" font-size="10.00">UnitOrder.h</text>
</a>
</g>
</g>
<!-- Node31&#45;&gt;Node33 -->
<g id="edge52" class="edge">
<title>Node31&#45;&gt;Node33</title>
<path fill="none" stroke="midnightblue" d="M126.53,-224.32C118.28,-216.73 108.09,-205.48 100.75,-196.09"/>
<polygon fill="midnightblue" stroke="midnightblue" points="103.45,-193.86 94.74,-187.83 97.79,-197.98 103.45,-193.86"/>
</g>
<!-- Node31&#45;&gt;Node34 -->
<g id="edge57" class="edge">
<title>Node31&#45;&gt;Node34</title>
<path fill="none" stroke="midnightblue" d="M160.43,-225.6C186.05,-216.68 229.48,-201.55 259.89,-190.95"/>
<polygon fill="midnightblue" stroke="midnightblue" points="261.36,-194.15 269.66,-187.55 259.06,-187.54 261.36,-194.15"/>
</g>
<!-- Node33&#45;&gt;Node21 -->
<g id="edge53" class="edge">
<title>Node33&#45;&gt;Node21</title>
<path fill="none" stroke="midnightblue" d="M101.46,-168.37C121.36,-149.81 168.46,-105.91 193.64,-82.44"/>
<polygon fill="midnightblue" stroke="midnightblue" points="196.06,-84.97 200.98,-75.59 191.28,-79.85 196.06,-84.97"/>
</g>
<!-- Node33&#45;&gt;Node31 -->
<g id="edge54" class="edge">
<title>Node33&#45;&gt;Node31</title>
<path fill="none" stroke="midnightblue" d="M104.95,-187.75C113.17,-195.33 123.3,-206.5 130.61,-215.86"/>
<polygon fill="midnightblue" stroke="midnightblue" points="127.89,-218.06 136.6,-224.08 133.55,-213.94 127.89,-218.06"/>
</g>
<!-- Node34&#45;&gt;Node7 -->
<g id="edge58" class="edge">
<title>Node34&#45;&gt;Node7</title>
<path fill="none" stroke="midnightblue" d="M345.01,-168.99C347.78,-168.63 350.52,-168.3 353.2,-168 462.11,-155.73 790.2,-134.3 917.21,-126.21"/>
<polygon fill="midnightblue" stroke="midnightblue" points="917.68,-129.69 927.43,-125.56 917.23,-122.71 917.68,-129.69"/>
</g>
<!-- Node34&#45;&gt;Node16 -->
<g id="edge59" class="edge">
<title>Node34&#45;&gt;Node16</title>
<path fill="none" stroke="midnightblue" d="M302.2,-168.32C315.14,-154.71 341.97,-128.24 369.2,-112 396.88,-95.49 431.66,-83.18 456.46,-75.65"/>
<polygon fill="midnightblue" stroke="midnightblue" points="457.49,-79 466.09,-72.81 455.51,-72.28 457.49,-79"/>
</g>
<!-- Node35 -->
<g id="node35" class="node">
<title>Node35</title>
<g id="a_node35"><a xlink:title=" ">
<polygon fill="white" stroke="#bfbfbf" points="238.7,-112.5 238.7,-131.5 321.7,-131.5 321.7,-112.5 238.7,-112.5"/>
<text text-anchor="middle" x="280.2" y="-119.5" font-family="Helvetica,sans-Serif" font-size="10.00">unordered_map</text>
</a>
</g>
</g>
<!-- Node34&#45;&gt;Node35 -->
<g id="edge60" class="edge">
<title>Node34&#45;&gt;Node35</title>
<path fill="none" stroke="midnightblue" d="M291.89,-168.08C290.03,-160.93 287.36,-150.64 285.05,-141.69"/>
<polygon fill="midnightblue" stroke="midnightblue" points="288.37,-140.55 282.47,-131.75 281.59,-142.31 288.37,-140.55"/>
</g>
<!-- Node36&#45;&gt;Node29 -->
<g id="edge69" class="edge">
<title>Node36&#45;&gt;Node29</title>
<path fill="none" stroke="midnightblue" d="M357.84,-397.98C327.22,-387.68 275.54,-370.31 241.15,-358.75"/>
<polygon fill="midnightblue" stroke="midnightblue" points="242.11,-355.38 231.51,-355.51 239.88,-362.01 242.11,-355.38"/>
</g>
<!-- Node37 -->
<g id="node37" class="node">
<title>Node37</title>
<g id="a_node37"><a xlink:href="_squad_template_8h.html" target="_top" xlink:title=" ">
<polygon fill="white" stroke="black" points="338.2,-336.5 338.2,-355.5 430.2,-355.5 430.2,-336.5 338.2,-336.5"/>
<text text-anchor="middle" x="384.2" y="-343.5" font-family="Helvetica,sans-Serif" font-size="10.00">SquadTemplate.h</text>
</a>
</g>
</g>
<!-- Node36&#45;&gt;Node37 -->
<g id="edge62" class="edge">
<title>Node36&#45;&gt;Node37</title>
<path fill="none" stroke="midnightblue" d="M383.34,-397.98C383.48,-389.58 383.7,-376.48 383.89,-365.66"/>
<polygon fill="midnightblue" stroke="midnightblue" points="387.39,-365.57 384.06,-355.51 380.39,-365.45 387.39,-365.57"/>
</g>
<!-- Node37&#45;&gt;Node16 -->
<g id="edge63" class="edge">
<title>Node37&#45;&gt;Node16</title>
<path fill="none" stroke="midnightblue" d="M387.43,-336.38C401.92,-297.62 461.21,-139.13 481.42,-85.13"/>
<polygon fill="midnightblue" stroke="midnightblue" points="484.78,-86.12 485.01,-75.52 478.23,-83.66 484.78,-86.12"/>
</g>
<!-- Node37&#45;&gt;Node30 -->
<g id="edge64" class="edge">
<title>Node37&#45;&gt;Node30</title>
<path fill="none" stroke="midnightblue" d="M357.42,-336.44C328.87,-327.32 283.47,-312.81 251.66,-302.65"/>
<polygon fill="midnightblue" stroke="midnightblue" points="252.44,-299.23 241.85,-299.52 250.31,-305.89 252.44,-299.23"/>
</g>
<!-- Node38 -->
<g id="node38" class="node">
<title>Node38</title>
<g id="a_node38"><a xlink:href="_gui_list_8h.html" target="_top" xlink:title=" ">
<polygon fill="white" stroke="black" points="492.2,-280.5 492.2,-299.5 600.2,-299.5 600.2,-280.5 492.2,-280.5"/>
<text text-anchor="middle" x="546.2" y="-287.5" font-family="Helvetica,sans-Serif" font-size="10.00">engine/GUI/GuiList.h</text>
</a>
</g>
</g>
<!-- Node37&#45;&gt;Node38 -->
<g id="edge65" class="edge">
<title>Node37&#45;&gt;Node38</title>
<path fill="none" stroke="midnightblue" d="M409.87,-336.44C437.12,-327.36 480.38,-312.94 510.85,-302.78"/>
<polygon fill="midnightblue" stroke="midnightblue" points="512.27,-306 520.65,-299.52 510.06,-299.36 512.27,-306"/>
</g>
<!-- Node38&#45;&gt;Node16 -->
<g id="edge68" class="edge">
<title>Node38&#45;&gt;Node16</title>
<path fill="none" stroke="midnightblue" d="M540.22,-280.48C534.39,-271.74 525.77,-257.55 521.2,-244 502.27,-187.83 515.27,-169.81 502.2,-112 500.17,-103.01 497.21,-93.22 494.54,-85.07"/>
<polygon fill="midnightblue" stroke="midnightblue" points="497.83,-83.86 491.29,-75.52 491.2,-86.11 497.83,-83.86"/>
</g>
<!-- Node39 -->
<g id="node39" class="node">
<title>Node39</title>
<g id="a_node39"><a xlink:href="_gui_object_8h.html" target="_top" xlink:title=" ">
<polygon fill="white" stroke="black" points="530.2,-224.5 530.2,-243.5 650.2,-243.5 650.2,-224.5 530.2,-224.5"/>
<text text-anchor="middle" x="590.2" y="-231.5" font-family="Helvetica,sans-Serif" font-size="10.00">engine/GUI/GuiObject.h</text>
</a>
</g>
</g>
<!-- Node38&#45;&gt;Node39 -->
<g id="edge66" class="edge">
<title>Node38&#45;&gt;Node39</title>
<path fill="none" stroke="midnightblue" d="M553.47,-280.08C559.74,-272.38 568.99,-261.03 576.63,-251.65"/>
<polygon fill="midnightblue" stroke="midnightblue" points="579.47,-253.71 583.07,-243.75 574.04,-249.29 579.47,-253.71"/>
</g>
<!-- Node39&#45;&gt;Node5 -->
<g id="edge67" class="edge">
<title>Node39&#45;&gt;Node5</title>
<path fill="none" stroke="midnightblue" d="M628.55,-224.44C670.67,-215.04 738.41,-199.93 784.07,-189.74"/>
<polygon fill="midnightblue" stroke="midnightblue" points="785.04,-193.11 794.03,-187.52 783.51,-186.28 785.04,-193.11"/>
</g>
<!-- Node40&#45;&gt;Node2 -->
<g id="edge73" class="edge">
<title>Node40&#45;&gt;Node2</title>
<path fill="none" stroke="midnightblue" d="M613.76,-534.75C622.77,-542.4 634.07,-553.74 642.28,-563.14"/>
<polygon fill="midnightblue" stroke="midnightblue" points="639.73,-565.57 648.78,-571.08 645.15,-561.13 639.73,-565.57"/>
</g>
<!-- Node40&#45;&gt;Node3 -->
<g id="edge74" class="edge">
<title>Node40&#45;&gt;Node3</title>
<path fill="none" stroke="midnightblue" d="M617.07,-515.32C633.91,-506.66 660.01,-493.24 679.44,-483.25"/>
<polygon fill="midnightblue" stroke="midnightblue" points="681.08,-486.34 688.37,-478.65 677.88,-480.12 681.08,-486.34"/>
</g>
</g>
</svg>
