<?xml version="1.0" encoding="UTF-8" standalone="no"?>
<!DOCTYPE svg PUBLIC "-//W3C//DTD SVG 1.1//EN"
 "http://www.w3.org/Graphics/SVG/1.1/DTD/svg11.dtd">
<!-- Generated by graphviz version 2.47.1 (20210421.1823)
 -->
<!-- Title: include/GameLogic/Squad/Squad.h Pages: 1 -->
<svg width="1606pt" height="666pt"
 viewBox="0.00 0.00 1605.50 666.00" xmlns="http://www.w3.org/2000/svg" xmlns:xlink="http://www.w3.org/1999/xlink">
<g id="graph0" class="graph" transform="scale(1 1) rotate(0) translate(4 662)">
<title>include/GameLogic/Squad/Squad.h</title>
<polygon fill="white" stroke="transparent" points="-4,4 -4,-662 1601.5,-662 1601.5,4 -4,4"/>
<!-- Node1 -->
<g id="node1" class="node">
<title>Node1</title>
<g id="a_node1"><a xlink:title=" ">
<polygon fill="#bfbfbf" stroke="black" points="370.5,-627.5 370.5,-657.5 501.5,-657.5 501.5,-627.5 370.5,-627.5"/>
<text text-anchor="start" x="378.5" y="-645.5" font-family="Helvetica,sans-Serif" font-size="10.00">include/GameLogic/Squad</text>
<text text-anchor="middle" x="436" y="-634.5" font-family="Helvetica,sans-Serif" font-size="10.00">/Squad.h</text>
</a>
</g>
</g>
<!-- Node2 -->
<g id="node2" class="node">
<title>Node2</title>
<g id="a_node2"><a xlink:href="_cell_8h.html" target="_top" xlink:title=" ">
<polygon fill="white" stroke="black" points="449,-515.5 449,-534.5 543,-534.5 543,-515.5 449,-515.5"/>
<text text-anchor="middle" x="496" y="-522.5" font-family="Helvetica,sans-Serif" font-size="10.00">GameLogic/Cell.h</text>
</a>
</g>
</g>
<!-- Node1&#45;&gt;Node2 -->
<g id="edge1" class="edge">
<title>Node1&#45;&gt;Node2</title>
<path fill="none" stroke="midnightblue" d="M433.76,-627.28C436.41,-612.71 444.87,-589.63 455,-571 460.5,-560.89 467.87,-550.37 475.08,-542.05"/>
<polygon fill="midnightblue" stroke="midnightblue" points="477.84,-544.23 482.16,-534.55 472.75,-539.42 477.84,-544.23"/>
</g>
<!-- Node5 -->
<g id="node5" class="node">
<title>Node5</title>
<g id="a_node5"><a xlink:href="gameplay_clickable_game_object_8h.html" target="_top" xlink:title=" ">
<polygon fill="white" stroke="black" points="727.5,-448.5 727.5,-478.5 856.5,-478.5 856.5,-448.5 727.5,-448.5"/>
<text text-anchor="start" x="735.5" y="-466.5" font-family="Helvetica,sans-Serif" font-size="10.00">engine/gameplayClickable</text>
<text text-anchor="middle" x="792" y="-455.5" font-family="Helvetica,sans-Serif" font-size="10.00">GameObject.h</text>
</a>
</g>
</g>
<!-- Node1&#45;&gt;Node5 -->
<g id="edge81" class="edge">
<title>Node1&#45;&gt;Node5</title>
<path fill="none" stroke="midnightblue" d="M501.63,-629.26C537.18,-621.17 581.23,-608.74 618,-591 676.97,-562.54 736.79,-513.72 768.62,-485.79"/>
<polygon fill="midnightblue" stroke="midnightblue" points="771.31,-488.08 776.47,-478.83 766.67,-482.85 771.31,-488.08"/>
</g>
<!-- Node8 -->
<g id="node8" class="node">
<title>Node8</title>
<g id="a_node8"><a xlink:href="config_8h.html" target="_top" xlink:title=" ">
<polygon fill="white" stroke="black" points="252.5,-112.5 252.5,-131.5 333.5,-131.5 333.5,-112.5 252.5,-112.5"/>
<text text-anchor="middle" x="293" y="-119.5" font-family="Helvetica,sans-Serif" font-size="10.00">engine/config.h</text>
</a>
</g>
</g>
<!-- Node1&#45;&gt;Node8 -->
<g id="edge85" class="edge">
<title>Node1&#45;&gt;Node8</title>
<path fill="none" stroke="midnightblue" d="M370.81,-627.43C298.21,-607.89 184.34,-564.79 133,-479 90.14,-407.37 217.39,-410.45 255,-356 272.11,-331.24 274,-321.1 274,-291 274,-291 274,-291 274,-233 274,-200.49 282.16,-163.35 287.78,-141.61"/>
<polygon fill="midnightblue" stroke="midnightblue" points="291.22,-142.32 290.44,-131.75 284.46,-140.5 291.22,-142.32"/>
</g>
<!-- Node11 -->
<g id="node11" class="node">
<title>Node11</title>
<g id="a_node11"><a xlink:href="_facade_8h.html" target="_top" xlink:title=" ">
<polygon fill="white" stroke="black" points="101,-0.5 101,-19.5 157,-19.5 157,-0.5 101,-0.5"/>
<text text-anchor="middle" x="129" y="-7.5" font-family="Helvetica,sans-Serif" font-size="10.00">Facade.h</text>
</a>
</g>
</g>
<!-- Node1&#45;&gt;Node11 -->
<g id="edge86" class="edge">
<title>Node1&#45;&gt;Node11</title>
<path fill="none" stroke="midnightblue" d="M370.17,-639.79C272.29,-636.14 94.19,-624.92 41,-591 12.2,-572.64 0,-560.16 0,-526 0,-526 0,-526 0,-121 0,-71.35 56.02,-39.37 94.23,-23.33"/>
<polygon fill="midnightblue" stroke="midnightblue" points="95.54,-26.57 103.51,-19.59 92.93,-20.08 95.54,-26.57"/>
</g>
<!-- Node31 -->
<g id="node31" class="node">
<title>Node31</title>
<g id="a_node31"><a xlink:href="_unit_8h.html" target="_top" xlink:title=" ">
<polygon fill="white" stroke="black" points="1368,-280.5 1368,-299.5 1410,-299.5 1410,-280.5 1368,-280.5"/>
<text text-anchor="middle" x="1389" y="-287.5" font-family="Helvetica,sans-Serif" font-size="10.00">Unit.h</text>
</a>
</g>
</g>
<!-- Node1&#45;&gt;Node31 -->
<g id="edge80" class="edge">
<title>Node1&#45;&gt;Node31</title>
<path fill="none" stroke="midnightblue" d="M501.54,-640.38C715.61,-635.92 1380,-615.06 1380,-526 1380,-526 1380,-526 1380,-401 1380,-368.8 1380,-331.3 1382.57,-309.45"/>
<polygon fill="midnightblue" stroke="midnightblue" points="1386.03,-309.99 1384.16,-299.56 1379.12,-308.87 1386.03,-309.99"/>
</g>
<!-- Node42 -->
<g id="node42" class="node">
<title>Node42</title>
<g id="a_node42"><a xlink:href="_player_8h.html" target="_top" xlink:title=" ">
<polygon fill="white" stroke="black" points="142,-336.5 142,-355.5 246,-355.5 246,-336.5 142,-336.5"/>
<text text-anchor="middle" x="194" y="-343.5" font-family="Helvetica,sans-Serif" font-size="10.00">GameLogic/Player.h</text>
</a>
</g>
</g>
<!-- Node1&#45;&gt;Node42 -->
<g id="edge87" class="edge">
<title>Node1&#45;&gt;Node42</title>
<path fill="none" stroke="midnightblue" d="M370.42,-640.59C276.07,-637.97 108.27,-628.08 62,-591 37.97,-571.74 38,-556.8 38,-526 38,-526 38,-526 38,-462.5 38,-406.15 104.57,-374.13 150.74,-358.7"/>
<polygon fill="midnightblue" stroke="midnightblue" points="152.07,-361.95 160.53,-355.57 149.94,-355.28 152.07,-361.95"/>
</g>
<!-- Node43 -->
<g id="node43" class="node">
<title>Node43</title>
<g id="a_node43"><a xlink:href="_game_logic_2_squad_2_action_8h.html" target="_top" xlink:title=" ">
<polygon fill="white" stroke="black" points="473,-571.5 473,-590.5 609,-590.5 609,-571.5 473,-571.5"/>
<text text-anchor="middle" x="541" y="-578.5" font-family="Helvetica,sans-Serif" font-size="10.00">GameLogic/Squad/Action.h</text>
</a>
</g>
</g>
<!-- Node1&#45;&gt;Node43 -->
<g id="edge82" class="edge">
<title>Node1&#45;&gt;Node43</title>
<path fill="none" stroke="midnightblue" d="M455.04,-627.4C470.94,-617.68 493.62,-604.86 511.77,-595.31"/>
<polygon fill="midnightblue" stroke="midnightblue" points="513.51,-598.35 520.79,-590.66 510.3,-592.13 513.51,-598.35"/>
</g>
<!-- Node2&#45;&gt;Node1 -->
<g id="edge26" class="edge">
<title>Node2&#45;&gt;Node1</title>
<path fill="none" stroke="midnightblue" d="M495.77,-534.55C491,-543.32 480.33,-557.53 473,-571 464.85,-585.99 457.78,-603.86 451.61,-617.86"/>
<polygon fill="midnightblue" stroke="midnightblue" points="448.28,-616.73 447.28,-627.28 454.64,-619.65 448.28,-616.73"/>
</g>
<!-- Node3 -->
<g id="node3" class="node">
<title>Node3</title>
<g id="a_node3"><a xlink:title=" ">
<polygon fill="white" stroke="#bfbfbf" points="466.5,-336.5 466.5,-355.5 501.5,-355.5 501.5,-336.5 466.5,-336.5"/>
<text text-anchor="middle" x="484" y="-343.5" font-family="Helvetica,sans-Serif" font-size="10.00">map</text>
</a>
</g>
</g>
<!-- Node2&#45;&gt;Node3 -->
<g id="edge2" class="edge">
<title>Node2&#45;&gt;Node3</title>
<path fill="none" stroke="midnightblue" d="M495.42,-515.46C493.59,-488.43 487.88,-404.24 485.3,-366.11"/>
<polygon fill="midnightblue" stroke="midnightblue" points="488.77,-365.61 484.6,-355.87 481.79,-366.08 488.77,-365.61"/>
</g>
<!-- Node4 -->
<g id="node4" class="node">
<title>Node4</title>
<g id="a_node4"><a xlink:title=" ">
<polygon fill="white" stroke="#bfbfbf" points="679,-454 679,-473 709,-473 709,-454 679,-454"/>
<text text-anchor="middle" x="694" y="-461" font-family="Helvetica,sans-Serif" font-size="10.00">set</text>
</a>
</g>
</g>
<!-- Node2&#45;&gt;Node4 -->
<g id="edge3" class="edge">
<title>Node2&#45;&gt;Node4</title>
<path fill="none" stroke="midnightblue" d="M537.37,-515.46C572.04,-507.72 622.55,-495.07 665,-479 666.59,-478.4 668.21,-477.73 669.83,-477.03"/>
<polygon fill="midnightblue" stroke="midnightblue" points="671.35,-480.19 678.91,-472.77 668.37,-473.85 671.35,-480.19"/>
</g>
<!-- Node2&#45;&gt;Node5 -->
<g id="edge4" class="edge">
<title>Node2&#45;&gt;Node5</title>
<path fill="none" stroke="midnightblue" d="M538.41,-515.48C585.01,-506.11 660.74,-490.88 717.34,-479.51"/>
<polygon fill="midnightblue" stroke="midnightblue" points="718.2,-482.91 727.31,-477.5 716.82,-476.04 718.2,-482.91"/>
</g>
<!-- Node2&#45;&gt;Node8 -->
<g id="edge24" class="edge">
<title>Node2&#45;&gt;Node8</title>
<path fill="none" stroke="midnightblue" d="M458.75,-515.45C435.71,-508.65 406.68,-497.2 386,-479 337.34,-436.18 324,-411.82 324,-347 324,-347 324,-347 324,-233 324,-199.41 310.44,-162.14 301.26,-140.75"/>
<polygon fill="midnightblue" stroke="midnightblue" points="304.45,-139.31 297.18,-131.61 298.06,-142.17 304.45,-139.31"/>
</g>
<!-- Node2&#45;&gt;Node11 -->
<g id="edge25" class="edge">
<title>Node2&#45;&gt;Node11</title>
<path fill="none" stroke="midnightblue" d="M448.87,-524.55C361.43,-524.56 178.83,-519.57 133,-479 106.93,-455.92 114,-437.82 114,-403 114,-403 114,-403 114,-121 114,-88.5 120.51,-51.1 124.95,-29.34"/>
<polygon fill="midnightblue" stroke="midnightblue" points="128.39,-30.01 127.04,-19.5 121.54,-28.56 128.39,-30.01"/>
</g>
<!-- Node14 -->
<g id="node14" class="node">
<title>Node14</title>
<g id="a_node14"><a xlink:title=" ">
<polygon fill="white" stroke="#bfbfbf" points="455,-56.5 455,-75.5 509,-75.5 509,-56.5 455,-56.5"/>
<text text-anchor="middle" x="482" y="-63.5" font-family="Helvetica,sans-Serif" font-size="10.00">iostream</text>
</a>
</g>
</g>
<!-- Node2&#45;&gt;Node14 -->
<g id="edge27" class="edge">
<title>Node2&#45;&gt;Node14</title>
<path fill="none" stroke="midnightblue" d="M482.66,-515.47C448.77,-492.63 362,-426.4 362,-347 362,-347 362,-347 362,-177 362,-129.08 414.64,-96.38 450.19,-79.76"/>
<polygon fill="midnightblue" stroke="midnightblue" points="452.01,-82.78 459.71,-75.5 449.15,-76.4 452.01,-82.78"/>
</g>
<!-- Node16 -->
<g id="node16" class="node">
<title>Node16</title>
<g id="a_node16"><a xlink:href="cellgen_8h.html" target="_top" xlink:title=" ">
<polygon fill="white" stroke="black" points="547.5,-392.5 547.5,-411.5 618.5,-411.5 618.5,-392.5 547.5,-392.5"/>
<text text-anchor="middle" x="583" y="-399.5" font-family="Helvetica,sans-Serif" font-size="10.00">util/cellgen.h</text>
</a>
</g>
</g>
<!-- Node2&#45;&gt;Node16 -->
<g id="edge15" class="edge">
<title>Node2&#45;&gt;Node16</title>
<path fill="none" stroke="midnightblue" d="M499.09,-515.45C504.64,-500.75 517.31,-470.15 534,-448 542.39,-436.87 553.75,-426.24 563.43,-418.1"/>
<polygon fill="midnightblue" stroke="midnightblue" points="565.82,-420.67 571.37,-411.65 561.41,-415.23 565.82,-420.67"/>
</g>
<!-- Node19 -->
<g id="node19" class="node">
<title>Node19</title>
<g id="a_node19"><a xlink:href="_all_flags_8h.html" target="_top" xlink:title=" ">
<polygon fill="white" stroke="black" points="1538.5,-224.5 1538.5,-243.5 1597.5,-243.5 1597.5,-224.5 1538.5,-224.5"/>
<text text-anchor="middle" x="1568" y="-231.5" font-family="Helvetica,sans-Serif" font-size="10.00">AllFlags.h</text>
</a>
</g>
</g>
<!-- Node2&#45;&gt;Node19 -->
<g id="edge19" class="edge">
<title>Node2&#45;&gt;Node19</title>
<path fill="none" stroke="midnightblue" d="M543.35,-522.45C662.81,-518.19 974,-504.88 1074,-479 1201.27,-446.06 1225.27,-414.5 1343,-356 1417.28,-319.09 1503.1,-271.54 1543.97,-248.59"/>
<polygon fill="midnightblue" stroke="midnightblue" points="1545.9,-251.51 1552.9,-243.56 1542.47,-245.41 1545.9,-251.51"/>
</g>
<!-- Node22 -->
<g id="node22" class="node">
<title>Node22</title>
<g id="a_node22"><a xlink:href="geometry_8h.html" target="_top" xlink:title=" ">
<polygon fill="white" stroke="black" points="543,-454 543,-473 623,-473 623,-454 543,-454"/>
<text text-anchor="middle" x="583" y="-461" font-family="Helvetica,sans-Serif" font-size="10.00">util/geometry.h</text>
</a>
</g>
</g>
<!-- Node2&#45;&gt;Node22 -->
<g id="edge28" class="edge">
<title>Node2&#45;&gt;Node22</title>
<path fill="none" stroke="midnightblue" d="M508.46,-515.48C522.42,-505.93 545.26,-490.31 561.99,-478.87"/>
<polygon fill="midnightblue" stroke="midnightblue" points="564.28,-481.54 570.56,-473.01 560.33,-475.77 564.28,-481.54"/>
</g>
<!-- Node23 -->
<g id="node23" class="node">
<title>Node23</title>
<g id="a_node23"><a xlink:href="_none_8h.html" target="_top" xlink:title=" ">
<polygon fill="white" stroke="black" points="453.5,-168.5 453.5,-187.5 566.5,-187.5 566.5,-168.5 453.5,-168.5"/>
<text text-anchor="middle" x="510" y="-175.5" font-family="Helvetica,sans-Serif" font-size="10.00">engine/actions/None.h</text>
</a>
</g>
</g>
<!-- Node2&#45;&gt;Node23 -->
<g id="edge31" class="edge">
<title>Node2&#45;&gt;Node23</title>
<path fill="none" stroke="midnightblue" d="M488.42,-515.28C472.7,-496.28 438,-449.13 438,-403 438,-403 438,-403 438,-289 438,-249.94 470.18,-213.94 491.51,-194.37"/>
<polygon fill="midnightblue" stroke="midnightblue" points="493.88,-196.94 499.06,-187.7 489.25,-191.7 493.88,-196.94"/>
</g>
<!-- Node24 -->
<g id="node24" class="node">
<title>Node24</title>
<g id="a_node24"><a xlink:href="game_controller_8h.html" target="_top" xlink:title=" ">
<polygon fill="white" stroke="black" points="1022.5,-280.5 1022.5,-299.5 1143.5,-299.5 1143.5,-280.5 1022.5,-280.5"/>
<text text-anchor="middle" x="1083" y="-287.5" font-family="Helvetica,sans-Serif" font-size="10.00">engine/gameController.h</text>
</a>
</g>
</g>
<!-- Node2&#45;&gt;Node24 -->
<g id="edge33" class="edge">
<title>Node2&#45;&gt;Node24</title>
<path fill="none" stroke="midnightblue" d="M533.88,-515.44C562.04,-508.15 600.82,-496.11 632,-479 651.11,-468.51 651.36,-459.3 670,-448 777.95,-382.58 812.28,-378.88 931,-336 967.28,-322.9 1009.39,-310.65 1040.08,-302.26"/>
<polygon fill="midnightblue" stroke="midnightblue" points="1041.29,-305.55 1050.02,-299.56 1039.46,-298.8 1041.29,-305.55"/>
</g>
<!-- Node28 -->
<g id="node28" class="node">
<title>Node28</title>
<g id="a_node28"><a xlink:href="_set_squad_path_8h.html" target="_top" xlink:title=" ">
<polygon fill="white" stroke="black" points="142.5,-454 142.5,-473 295.5,-473 295.5,-454 142.5,-454"/>
<text text-anchor="middle" x="219" y="-461" font-family="Helvetica,sans-Serif" font-size="10.00">engine/actions/SetSquadPath.h</text>
</a>
</g>
</g>
<!-- Node2&#45;&gt;Node28 -->
<g id="edge42" class="edge">
<title>Node2&#45;&gt;Node28</title>
<path fill="none" stroke="midnightblue" d="M451.41,-515.48C399.73,-504.87 315.27,-486.76 263.6,-475.22"/>
<polygon fill="midnightblue" stroke="midnightblue" points="264.24,-471.78 253.72,-473.01 262.71,-478.61 264.24,-471.78"/>
</g>
<!-- Node29 -->
<g id="node29" class="node">
<title>Node29</title>
<g id="a_node29"><a xlink:href="_all_units_8h.html" target="_top" xlink:title=" ">
<polygon fill="white" stroke="black" points="990.5,-392.5 990.5,-411.5 1049.5,-411.5 1049.5,-392.5 990.5,-392.5"/>
<text text-anchor="middle" x="1020" y="-399.5" font-family="Helvetica,sans-Serif" font-size="10.00">AllUnits.h</text>
</a>
</g>
</g>
<!-- Node2&#45;&gt;Node29 -->
<g id="edge46" class="edge">
<title>Node2&#45;&gt;Node29</title>
<path fill="none" stroke="midnightblue" d="M543.14,-522.59C660.32,-518.7 957.92,-506.22 993,-479 1010.51,-465.42 1016.69,-439.58 1018.85,-421.84"/>
<polygon fill="midnightblue" stroke="midnightblue" points="1022.35,-422.06 1019.76,-411.78 1015.38,-421.43 1022.35,-422.06"/>
</g>
<!-- Node36 -->
<g id="node36" class="node">
<title>Node36</title>
<g id="a_node36"><a xlink:href="_all_squad_templates_8h.html" target="_top" xlink:title=" ">
<polygon fill="white" stroke="black" points="874.5,-454 874.5,-473 983.5,-473 983.5,-454 874.5,-454"/>
<text text-anchor="middle" x="929" y="-461" font-family="Helvetica,sans-Serif" font-size="10.00">AllSquadTemplates.h</text>
</a>
</g>
</g>
<!-- Node2&#45;&gt;Node36 -->
<g id="edge62" class="edge">
<title>Node2&#45;&gt;Node36</title>
<path fill="none" stroke="midnightblue" d="M543.25,-519.86C613.82,-513.31 750.8,-499.21 866,-479 872.17,-477.92 878.64,-476.62 884.99,-475.25"/>
<polygon fill="midnightblue" stroke="midnightblue" points="885.8,-478.65 894.8,-473.06 884.28,-471.82 885.8,-478.65"/>
</g>
<!-- Node2&#45;&gt;Node42 -->
<g id="edge79" class="edge">
<title>Node2&#45;&gt;Node42</title>
<path fill="none" stroke="midnightblue" d="M451.36,-515.5C420.96,-508.51 380.49,-496.83 348,-479 317.83,-462.45 243.97,-394.23 210.71,-362.89"/>
<polygon fill="midnightblue" stroke="midnightblue" points="212.85,-360.1 203.18,-355.77 208.04,-365.18 212.85,-360.1"/>
</g>
<!-- Node6 -->
<g id="node6" class="node">
<title>Node6</title>
<g id="a_node6"><a xlink:href="game_object_8h.html" target="_top" xlink:title=" ">
<polygon fill="white" stroke="black" points="788.5,-168.5 788.5,-187.5 865.5,-187.5 865.5,-168.5 788.5,-168.5"/>
<text text-anchor="middle" x="827" y="-175.5" font-family="Helvetica,sans-Serif" font-size="10.00">gameObject.h</text>
</a>
</g>
</g>
<!-- Node5&#45;&gt;Node6 -->
<g id="edge5" class="edge">
<title>Node5&#45;&gt;Node6</title>
<path fill="none" stroke="midnightblue" d="M784.12,-448.28C769.31,-420.7 737.78,-357.58 726,-300 719.23,-266.9 706.55,-252.3 725,-224 737.03,-205.54 758.54,-194.6 778.72,-188.14"/>
<polygon fill="midnightblue" stroke="midnightblue" points="779.83,-191.46 788.47,-185.31 777.89,-184.73 779.83,-191.46"/>
</g>
<!-- Node7 -->
<g id="node7" class="node">
<title>Node7</title>
<g id="a_node7"><a xlink:title=" ">
<polygon fill="white" stroke="#bfbfbf" points="1235.5,-112.5 1235.5,-131.5 1264.5,-131.5 1264.5,-112.5 1235.5,-112.5"/>
<text text-anchor="middle" x="1250" y="-119.5" font-family="Helvetica,sans-Serif" font-size="10.00">list</text>
</a>
</g>
</g>
<!-- Node6&#45;&gt;Node7 -->
<g id="edge6" class="edge">
<title>Node6&#45;&gt;Node7</title>
<path fill="none" stroke="midnightblue" d="M865.54,-175.14C936.68,-171.15 1093.13,-159.77 1222,-132 1223.1,-131.76 1224.21,-131.5 1225.34,-131.22"/>
<polygon fill="midnightblue" stroke="midnightblue" points="1226.7,-134.47 1235.33,-128.32 1224.75,-127.75 1226.7,-134.47"/>
</g>
<!-- Node6&#45;&gt;Node8 -->
<g id="edge7" class="edge">
<title>Node6&#45;&gt;Node8</title>
<path fill="none" stroke="midnightblue" d="M788.17,-173.07C693.28,-163.48 449.71,-138.85 343.63,-128.12"/>
<polygon fill="midnightblue" stroke="midnightblue" points="343.8,-124.62 333.5,-127.1 343.1,-131.58 343.8,-124.62"/>
</g>
<!-- Node13 -->
<g id="node13" class="node">
<title>Node13</title>
<g id="a_node13"><a xlink:href="engine_2_action_8h.html" target="_top" xlink:title=" ">
<polygon fill="white" stroke="black" points="468.5,-112.5 468.5,-131.5 551.5,-131.5 551.5,-112.5 468.5,-112.5"/>
<text text-anchor="middle" x="510" y="-119.5" font-family="Helvetica,sans-Serif" font-size="10.00">engine/Action.h</text>
</a>
</g>
</g>
<!-- Node6&#45;&gt;Node13 -->
<g id="edge12" class="edge">
<title>Node6&#45;&gt;Node13</title>
<path fill="none" stroke="midnightblue" d="M788.45,-170.43C731.63,-160.75 625.3,-142.64 561.75,-131.81"/>
<polygon fill="midnightblue" stroke="midnightblue" points="561.99,-128.31 551.55,-130.08 560.82,-135.21 561.99,-128.31"/>
</g>
<!-- Node9 -->
<g id="node9" class="node">
<title>Node9</title>
<g id="a_node9"><a xlink:href="_s_f_m_l_facade_8h.html" target="_top" xlink:title=" ">
<polygon fill="white" stroke="black" points="180.5,-56.5 180.5,-75.5 303.5,-75.5 303.5,-56.5 180.5,-56.5"/>
<text text-anchor="middle" x="242" y="-63.5" font-family="Helvetica,sans-Serif" font-size="10.00">graphics/SFMLFacade.h</text>
</a>
</g>
</g>
<!-- Node8&#45;&gt;Node9 -->
<g id="edge8" class="edge">
<title>Node8&#45;&gt;Node9</title>
<path fill="none" stroke="midnightblue" d="M284.58,-112.08C277.15,-104.22 266.15,-92.57 257.19,-83.08"/>
<polygon fill="midnightblue" stroke="midnightblue" points="259.68,-80.62 250.26,-75.75 254.59,-85.42 259.68,-80.62"/>
</g>
<!-- Node12 -->
<g id="node12" class="node">
<title>Node12</title>
<g id="a_node12"><a xlink:title=" ">
<polygon fill="white" stroke="#bfbfbf" points="322,-56.5 322,-75.5 420,-75.5 420,-56.5 322,-56.5"/>
<text text-anchor="middle" x="371" y="-63.5" font-family="Helvetica,sans-Serif" font-size="10.00">nlohmann/json.hpp</text>
</a>
</g>
</g>
<!-- Node8&#45;&gt;Node12 -->
<g id="edge11" class="edge">
<title>Node8&#45;&gt;Node12</title>
<path fill="none" stroke="midnightblue" d="M305.53,-112.32C317.59,-103.98 336.03,-91.21 350.27,-81.35"/>
<polygon fill="midnightblue" stroke="midnightblue" points="352.27,-84.22 358.5,-75.65 348.28,-78.47 352.27,-84.22"/>
</g>
<!-- Node10 -->
<g id="node10" class="node">
<title>Node10</title>
<g id="a_node10"><a xlink:title=" ">
<polygon fill="white" stroke="#bfbfbf" points="190,-0.5 190,-19.5 294,-19.5 294,-0.5 190,-0.5"/>
<text text-anchor="middle" x="242" y="-7.5" font-family="Helvetica,sans-Serif" font-size="10.00">SFML/Graphics.hpp</text>
</a>
</g>
</g>
<!-- Node9&#45;&gt;Node10 -->
<g id="edge9" class="edge">
<title>Node9&#45;&gt;Node10</title>
<path fill="none" stroke="midnightblue" d="M242,-56.08C242,-49.01 242,-38.86 242,-29.99"/>
<polygon fill="midnightblue" stroke="midnightblue" points="245.5,-29.75 242,-19.75 238.5,-29.75 245.5,-29.75"/>
</g>
<!-- Node9&#45;&gt;Node11 -->
<g id="edge10" class="edge">
<title>Node9&#45;&gt;Node11</title>
<path fill="none" stroke="midnightblue" d="M224.09,-56.44C205.75,-47.68 176.99,-33.94 155.91,-23.86"/>
<polygon fill="midnightblue" stroke="midnightblue" points="157.35,-20.67 146.82,-19.52 154.33,-26.99 157.35,-20.67"/>
</g>
<!-- Node13&#45;&gt;Node14 -->
<g id="edge13" class="edge">
<title>Node13&#45;&gt;Node14</title>
<path fill="none" stroke="midnightblue" d="M505.38,-112.08C501.54,-104.69 495.98,-93.95 491.24,-84.81"/>
<polygon fill="midnightblue" stroke="midnightblue" points="494.25,-83.02 486.54,-75.75 488.03,-86.24 494.25,-83.02"/>
</g>
<!-- Node15 -->
<g id="node15" class="node">
<title>Node15</title>
<g id="a_node15"><a xlink:title=" ">
<polygon fill="white" stroke="#bfbfbf" points="1007.5,-56.5 1007.5,-75.5 1058.5,-75.5 1058.5,-56.5 1007.5,-56.5"/>
<text text-anchor="middle" x="1033" y="-63.5" font-family="Helvetica,sans-Serif" font-size="10.00">memory</text>
</a>
</g>
</g>
<!-- Node13&#45;&gt;Node15 -->
<g id="edge14" class="edge">
<title>Node13&#45;&gt;Node15</title>
<path fill="none" stroke="midnightblue" d="M551.92,-116.67C652.04,-106.33 903.75,-80.34 997.28,-70.69"/>
<polygon fill="midnightblue" stroke="midnightblue" points="997.78,-74.16 1007.37,-69.65 997.06,-67.19 997.78,-74.16"/>
</g>
<!-- Node16&#45;&gt;Node3 -->
<g id="edge17" class="edge">
<title>Node16&#45;&gt;Node3</title>
<path fill="none" stroke="midnightblue" d="M567.09,-392.32C551.36,-383.74 527.06,-370.49 508.79,-360.52"/>
<polygon fill="midnightblue" stroke="midnightblue" points="510.32,-357.37 499.87,-355.65 506.97,-363.52 510.32,-357.37"/>
</g>
<!-- Node17 -->
<g id="node17" class="node">
<title>Node17</title>
<g id="a_node17"><a xlink:title=" ">
<polygon fill="white" stroke="#bfbfbf" points="942,-112.5 942,-131.5 986,-131.5 986,-112.5 942,-112.5"/>
<text text-anchor="middle" x="964" y="-119.5" font-family="Helvetica,sans-Serif" font-size="10.00">vector</text>
</a>
</g>
</g>
<!-- Node16&#45;&gt;Node17 -->
<g id="edge16" class="edge">
<title>Node16&#45;&gt;Node17</title>
<path fill="none" stroke="midnightblue" d="M609.93,-392.36C626.72,-385.41 646.98,-373.82 657,-356 659.88,-350.88 654.46,-311.06 654,-300 651.56,-241.38 615.61,-212.36 654,-168 689.63,-126.83 859.15,-122.53 931.34,-122.61"/>
<polygon fill="midnightblue" stroke="midnightblue" points="931.64,-126.12 941.65,-122.66 931.67,-119.12 931.64,-126.12"/>
</g>
<!-- Node18 -->
<g id="node18" class="node">
<title>Node18</title>
<g id="a_node18"><a xlink:title=" ">
<polygon fill="white" stroke="#bfbfbf" points="520,-336.5 520,-355.5 648,-355.5 648,-336.5 520,-336.5"/>
<text text-anchor="middle" x="584" y="-343.5" font-family="Helvetica,sans-Serif" font-size="10.00">scanline_triangulation.hpp</text>
</a>
</g>
</g>
<!-- Node16&#45;&gt;Node18 -->
<g id="edge18" class="edge">
<title>Node16&#45;&gt;Node18</title>
<path fill="none" stroke="midnightblue" d="M583.17,-392.08C583.3,-385.01 583.48,-374.86 583.65,-365.99"/>
<polygon fill="midnightblue" stroke="midnightblue" points="587.15,-365.81 583.84,-355.75 580.15,-365.68 587.15,-365.81"/>
</g>
<!-- Node19&#45;&gt;Node15 -->
<g id="edge23" class="edge">
<title>Node19&#45;&gt;Node15</title>
<path fill="none" stroke="midnightblue" d="M1562.43,-224.32C1547.1,-201.29 1501.74,-138.58 1446,-112 1379.6,-80.34 1156.78,-70.56 1068.99,-67.9"/>
<polygon fill="midnightblue" stroke="midnightblue" points="1068.83,-64.39 1058.73,-67.6 1068.62,-71.39 1068.83,-64.39"/>
</g>
<!-- Node20 -->
<g id="node20" class="node">
<title>Node20</title>
<g id="a_node20"><a xlink:href="_flag_8h.html" target="_top" xlink:title=" ">
<polygon fill="white" stroke="black" points="1444.5,-168.5 1444.5,-187.5 1487.5,-187.5 1487.5,-168.5 1444.5,-168.5"/>
<text text-anchor="middle" x="1466" y="-175.5" font-family="Helvetica,sans-Serif" font-size="10.00">Flag.h</text>
</a>
</g>
</g>
<!-- Node19&#45;&gt;Node20 -->
<g id="edge20" class="edge">
<title>Node19&#45;&gt;Node20</title>
<path fill="none" stroke="midnightblue" d="M1551.61,-224.32C1535.33,-215.7 1510.13,-202.36 1491.28,-192.39"/>
<polygon fill="midnightblue" stroke="midnightblue" points="1492.82,-189.24 1482.35,-187.65 1489.55,-195.43 1492.82,-189.24"/>
</g>
<!-- Node20&#45;&gt;Node17 -->
<g id="edge21" class="edge">
<title>Node20&#45;&gt;Node17</title>
<path fill="none" stroke="midnightblue" d="M1444.43,-174.68C1365.28,-166.17 1090.54,-136.61 996.14,-126.46"/>
<polygon fill="midnightblue" stroke="midnightblue" points="996.37,-122.96 986.06,-125.37 995.62,-129.92 996.37,-122.96"/>
</g>
<!-- Node21 -->
<g id="node21" class="node">
<title>Node21</title>
<g id="a_node21"><a xlink:title=" ">
<polygon fill="white" stroke="#bfbfbf" points="1395.5,-112.5 1395.5,-131.5 1436.5,-131.5 1436.5,-112.5 1395.5,-112.5"/>
<text text-anchor="middle" x="1416" y="-119.5" font-family="Helvetica,sans-Serif" font-size="10.00">string</text>
</a>
</g>
</g>
<!-- Node20&#45;&gt;Node21 -->
<g id="edge22" class="edge">
<title>Node20&#45;&gt;Node21</title>
<path fill="none" stroke="midnightblue" d="M1457.74,-168.08C1450.54,-160.3 1439.89,-148.8 1431.15,-139.37"/>
<polygon fill="midnightblue" stroke="midnightblue" points="1433.47,-136.71 1424.1,-131.75 1428.33,-141.47 1433.47,-136.71"/>
</g>
<!-- Node22&#45;&gt;Node16 -->
<g id="edge30" class="edge">
<title>Node22&#45;&gt;Node16</title>
<path fill="none" stroke="midnightblue" d="M583,-453.98C583,-445.58 583,-432.48 583,-421.66"/>
<polygon fill="midnightblue" stroke="midnightblue" points="586.5,-421.51 583,-411.51 579.5,-421.51 586.5,-421.51"/>
</g>
<!-- Node22&#45;&gt;Node17 -->
<g id="edge29" class="edge">
<title>Node22&#45;&gt;Node17</title>
<path fill="none" stroke="midnightblue" d="M590.9,-453.65C599.79,-443.64 614.61,-426.8 627,-412 647.49,-387.51 657.1,-384.24 672,-356 700.61,-301.78 677.99,-275 712,-224 733.72,-191.43 744.99,-185.54 780,-168 829.72,-143.09 894.04,-131.46 931.98,-126.43"/>
<polygon fill="midnightblue" stroke="midnightblue" points="932.46,-129.89 941.94,-125.18 931.59,-122.95 932.46,-129.89"/>
</g>
<!-- Node23&#45;&gt;Node13 -->
<g id="edge32" class="edge">
<title>Node23&#45;&gt;Node13</title>
<path fill="none" stroke="midnightblue" d="M510,-168.08C510,-161.01 510,-150.86 510,-141.99"/>
<polygon fill="midnightblue" stroke="midnightblue" points="513.5,-141.75 510,-131.75 506.5,-141.75 513.5,-141.75"/>
</g>
<!-- Node24&#45;&gt;Node6 -->
<g id="edge35" class="edge">
<title>Node24&#45;&gt;Node6</title>
<path fill="none" stroke="midnightblue" d="M1062.66,-280.42C1041.31,-271.4 1006.77,-256.77 977,-244 935.05,-226.01 886.61,-204.97 856.39,-191.81"/>
<polygon fill="midnightblue" stroke="midnightblue" points="857.44,-188.45 846.88,-187.67 854.65,-194.87 857.44,-188.45"/>
</g>
<!-- Node24&#45;&gt;Node7 -->
<g id="edge34" class="edge">
<title>Node24&#45;&gt;Node7</title>
<path fill="none" stroke="midnightblue" d="M1117.72,-280.49C1140.87,-273.53 1170.97,-261.87 1193,-244 1225.51,-217.63 1240.5,-168.41 1246.52,-141.59"/>
<polygon fill="midnightblue" stroke="midnightblue" points="1249.99,-142.1 1248.58,-131.6 1243.13,-140.68 1249.99,-142.1"/>
</g>
<!-- Node25 -->
<g id="node25" class="node">
<title>Node25</title>
<g id="a_node25"><a xlink:href="_network_manager_8h.html" target="_top" xlink:title=" ">
<polygon fill="white" stroke="black" points="986,-224.5 986,-243.5 1116,-243.5 1116,-224.5 986,-224.5"/>
<text text-anchor="middle" x="1051" y="-231.5" font-family="Helvetica,sans-Serif" font-size="10.00">engine/NetworkManager.h</text>
</a>
</g>
</g>
<!-- Node24&#45;&gt;Node25 -->
<g id="edge36" class="edge">
<title>Node24&#45;&gt;Node25</title>
<path fill="none" stroke="midnightblue" d="M1077.72,-280.08C1073.29,-272.61 1066.84,-261.72 1061.38,-252.52"/>
<polygon fill="midnightblue" stroke="midnightblue" points="1064.29,-250.57 1056.19,-243.75 1058.27,-254.14 1064.29,-250.57"/>
</g>
<!-- Node27 -->
<g id="node27" class="node">
<title>Node27</title>
<g id="a_node27"><a xlink:title=" ">
<polygon fill="white" stroke="#bfbfbf" points="1134.5,-224.5 1134.5,-243.5 1183.5,-243.5 1183.5,-224.5 1134.5,-224.5"/>
<text text-anchor="middle" x="1159" y="-231.5" font-family="Helvetica,sans-Serif" font-size="10.00">random</text>
</a>
</g>
</g>
<!-- Node24&#45;&gt;Node27 -->
<g id="edge41" class="edge">
<title>Node24&#45;&gt;Node27</title>
<path fill="none" stroke="midnightblue" d="M1095.21,-280.32C1106.78,-272.11 1124.38,-259.6 1138.16,-249.81"/>
<polygon fill="midnightblue" stroke="midnightblue" points="1140.44,-252.48 1146.57,-243.83 1136.39,-246.77 1140.44,-252.48"/>
</g>
<!-- Node25&#45;&gt;Node6 -->
<g id="edge37" class="edge">
<title>Node25&#45;&gt;Node6</title>
<path fill="none" stroke="midnightblue" d="M1015.51,-224.44C976.68,-215.08 914.34,-200.06 872.08,-189.87"/>
<polygon fill="midnightblue" stroke="midnightblue" points="872.87,-186.46 862.33,-187.52 871.23,-193.26 872.87,-186.46"/>
</g>
<!-- Node25&#45;&gt;Node17 -->
<g id="edge39" class="edge">
<title>Node25&#45;&gt;Node17</title>
<path fill="none" stroke="midnightblue" d="M1031.58,-224.47C1016.55,-216.92 996.28,-204.53 984,-188 973.99,-174.52 968.93,-155.97 966.41,-142.13"/>
<polygon fill="midnightblue" stroke="midnightblue" points="969.8,-141.19 964.84,-131.83 962.89,-142.24 969.8,-141.19"/>
</g>
<!-- Node25&#45;&gt;Node23 -->
<g id="edge38" class="edge">
<title>Node25&#45;&gt;Node23</title>
<path fill="none" stroke="midnightblue" d="M985.74,-226.49C882.26,-216.16 681.54,-196.12 576.98,-185.69"/>
<polygon fill="midnightblue" stroke="midnightblue" points="577.16,-182.19 566.87,-184.68 576.47,-189.15 577.16,-182.19"/>
</g>
<!-- Node26 -->
<g id="node26" class="node">
<title>Node26</title>
<g id="a_node26"><a xlink:title=" ">
<polygon fill="white" stroke="#bfbfbf" points="992.5,-168.5 992.5,-187.5 1063.5,-187.5 1063.5,-168.5 992.5,-168.5"/>
<text text-anchor="middle" x="1028" y="-175.5" font-family="Helvetica,sans-Serif" font-size="10.00">sys/socket.h</text>
</a>
</g>
</g>
<!-- Node25&#45;&gt;Node26 -->
<g id="edge40" class="edge">
<title>Node25&#45;&gt;Node26</title>
<path fill="none" stroke="midnightblue" d="M1047.2,-224.08C1044.09,-216.77 1039.58,-206.18 1035.71,-197.1"/>
<polygon fill="midnightblue" stroke="midnightblue" points="1038.87,-195.58 1031.73,-187.75 1032.43,-198.32 1038.87,-195.58"/>
</g>
<!-- Node28&#45;&gt;Node1 -->
<g id="edge44" class="edge">
<title>Node28&#45;&gt;Node1</title>
<path fill="none" stroke="midnightblue" d="M229.88,-473.37C263.01,-500.4 363.28,-582.19 410.67,-620.84"/>
<polygon fill="midnightblue" stroke="midnightblue" points="408.65,-623.71 418.61,-627.31 413.07,-618.28 408.65,-623.71"/>
</g>
<!-- Node28&#45;&gt;Node2 -->
<g id="edge45" class="edge">
<title>Node28&#45;&gt;Node2</title>
<path fill="none" stroke="midnightblue" d="M263.51,-473.01C315.16,-483.61 399.62,-501.72 451.33,-513.26"/>
<polygon fill="midnightblue" stroke="midnightblue" points="450.69,-516.7 461.21,-515.48 452.22,-509.87 450.69,-516.7"/>
</g>
<!-- Node28&#45;&gt;Node13 -->
<g id="edge43" class="edge">
<title>Node28&#45;&gt;Node13</title>
<path fill="none" stroke="midnightblue" d="M265.14,-453.95C318.77,-441.04 400,-410.93 400,-347 400,-347 400,-347 400,-233 400,-186.91 448.88,-153.39 481.47,-136.16"/>
<polygon fill="midnightblue" stroke="midnightblue" points="483.25,-139.18 490.59,-131.54 480.09,-132.94 483.25,-139.18"/>
</g>
<!-- Node30 -->
<g id="node30" class="node">
<title>Node30</title>
<g id="a_node30"><a xlink:href="_factory_8h.html" target="_top" xlink:title=" ">
<polygon fill="white" stroke="black" points="1278,-336.5 1278,-355.5 1334,-355.5 1334,-336.5 1278,-336.5"/>
<text text-anchor="middle" x="1306" y="-343.5" font-family="Helvetica,sans-Serif" font-size="10.00">Factory.h</text>
</a>
</g>
</g>
<!-- Node29&#45;&gt;Node30 -->
<g id="edge47" class="edge">
<title>Node29&#45;&gt;Node30</title>
<path fill="none" stroke="midnightblue" d="M1049.73,-395.8C1095.73,-387.69 1186.9,-371.37 1264,-356 1265.23,-355.75 1266.49,-355.5 1267.75,-355.24"/>
<polygon fill="midnightblue" stroke="midnightblue" points="1268.48,-358.67 1277.56,-353.21 1267.05,-351.81 1268.48,-358.67"/>
</g>
<!-- Node30&#45;&gt;Node2 -->
<g id="edge49" class="edge">
<title>Node30&#45;&gt;Node2</title>
<path fill="none" stroke="midnightblue" d="M1291.87,-355.57C1250.94,-379.91 1128.09,-449.57 1016,-479 929.86,-501.61 669.42,-516.03 553.14,-521.51"/>
<polygon fill="midnightblue" stroke="midnightblue" points="552.84,-518.02 543.01,-521.98 553.16,-525.01 552.84,-518.02"/>
</g>
<!-- Node30&#45;&gt;Node6 -->
<g id="edge61" class="edge">
<title>Node30&#45;&gt;Node6</title>
<path fill="none" stroke="midnightblue" d="M1277.64,-344.52C1224.29,-342.77 1106.09,-334.92 1014,-300 971,-283.7 965.61,-268.97 927,-244 900.01,-226.54 868.99,-206.36 848.74,-193.17"/>
<polygon fill="midnightblue" stroke="midnightblue" points="850.54,-190.17 840.25,-187.64 846.72,-196.03 850.54,-190.17"/>
</g>
<!-- Node30&#45;&gt;Node21 -->
<g id="edge48" class="edge">
<title>Node30&#45;&gt;Node21</title>
<path fill="none" stroke="midnightblue" d="M1310.31,-336.3C1326.6,-303.42 1384.59,-186.39 1407.04,-141.09"/>
<polygon fill="midnightblue" stroke="midnightblue" points="1410.29,-142.4 1411.6,-131.88 1404.02,-139.29 1410.29,-142.4"/>
</g>
<!-- Node30&#45;&gt;Node31 -->
<g id="edge50" class="edge">
<title>Node30&#45;&gt;Node31</title>
<path fill="none" stroke="midnightblue" d="M1319.34,-336.32C1332.16,-327.98 1351.78,-315.21 1366.94,-305.35"/>
<polygon fill="midnightblue" stroke="midnightblue" points="1369.22,-308.04 1375.7,-299.65 1365.41,-302.17 1369.22,-308.04"/>
</g>
<!-- Node31&#45;&gt;Node1 -->
<g id="edge55" class="edge">
<title>Node31&#45;&gt;Node1</title>
<path fill="none" stroke="midnightblue" d="M1393.84,-299.56C1398,-318.06 1398,-363.19 1398,-401 1398,-526 1398,-526 1398,-526 1398,-614.69 739.17,-635.74 511.91,-640.32"/>
<polygon fill="midnightblue" stroke="midnightblue" points="511.68,-636.82 501.75,-640.52 511.81,-643.82 511.68,-636.82"/>
</g>
<!-- Node31&#45;&gt;Node19 -->
<g id="edge56" class="edge">
<title>Node31&#45;&gt;Node19</title>
<path fill="none" stroke="midnightblue" d="M1410.24,-282.59C1439.69,-273.71 1493.44,-257.49 1529.93,-246.48"/>
<polygon fill="midnightblue" stroke="midnightblue" points="1531.17,-249.77 1539.73,-243.53 1529.14,-243.07 1531.17,-249.77"/>
</g>
<!-- Node32 -->
<g id="node32" class="node">
<title>Node32</title>
<g id="a_node32"><a xlink:title=" ">
<polygon fill="white" stroke="#bfbfbf" points="1392.5,-224.5 1392.5,-243.5 1435.5,-243.5 1435.5,-224.5 1392.5,-224.5"/>
<text text-anchor="middle" x="1414" y="-231.5" font-family="Helvetica,sans-Serif" font-size="10.00">cstdio</text>
</a>
</g>
</g>
<!-- Node31&#45;&gt;Node32 -->
<g id="edge51" class="edge">
<title>Node31&#45;&gt;Node32</title>
<path fill="none" stroke="midnightblue" d="M1393.13,-280.08C1396.51,-272.77 1401.42,-262.18 1405.62,-253.1"/>
<polygon fill="midnightblue" stroke="midnightblue" points="1408.92,-254.3 1409.95,-243.75 1402.57,-251.36 1408.92,-254.3"/>
</g>
<!-- Node33 -->
<g id="node33" class="node">
<title>Node33</title>
<g id="a_node33"><a xlink:href="_unit_order_8h.html" target="_top" xlink:title=" ">
<polygon fill="white" stroke="black" points="1454,-224.5 1454,-243.5 1520,-243.5 1520,-224.5 1454,-224.5"/>
<text text-anchor="middle" x="1487" y="-231.5" font-family="Helvetica,sans-Serif" font-size="10.00">UnitOrder.h</text>
</a>
</g>
</g>
<!-- Node31&#45;&gt;Node33 -->
<g id="edge52" class="edge">
<title>Node31&#45;&gt;Node33</title>
<path fill="none" stroke="midnightblue" d="M1399.63,-280.32C1413.47,-271.66 1437.57,-258.24 1457.05,-248.25"/>
<polygon fill="midnightblue" stroke="midnightblue" points="1458.82,-251.28 1466.18,-243.65 1455.68,-245.02 1458.82,-251.28"/>
</g>
<!-- Node34 -->
<g id="node34" class="node">
<title>Node34</title>
<g id="a_node34"><a xlink:href="_textures_8h.html" target="_top" xlink:title=" ">
<polygon fill="white" stroke="black" points="1120.5,-168.5 1120.5,-187.5 1221.5,-187.5 1221.5,-168.5 1120.5,-168.5"/>
<text text-anchor="middle" x="1171" y="-175.5" font-family="Helvetica,sans-Serif" font-size="10.00">graphics/Textures.h</text>
</a>
</g>
</g>
<!-- Node31&#45;&gt;Node34 -->
<g id="edge57" class="edge">
<title>Node31&#45;&gt;Node34</title>
<path fill="none" stroke="midnightblue" d="M1372.9,-280.44C1349.16,-267.86 1303.35,-243.75 1264,-224 1242.02,-212.97 1216.91,-200.85 1198.33,-191.97"/>
<polygon fill="midnightblue" stroke="midnightblue" points="1199.79,-188.79 1189.25,-187.64 1196.77,-195.1 1199.79,-188.79"/>
</g>
<!-- Node33&#45;&gt;Node21 -->
<g id="edge53" class="edge">
<title>Node33&#45;&gt;Node21</title>
<path fill="none" stroke="midnightblue" d="M1473.41,-224.22C1461.89,-216.12 1445.73,-203.08 1436,-188 1426.9,-173.89 1421.74,-155.41 1418.95,-141.76"/>
<polygon fill="midnightblue" stroke="midnightblue" points="1422.34,-140.85 1417.13,-131.63 1415.45,-142.09 1422.34,-140.85"/>
</g>
<!-- Node33&#45;&gt;Node31 -->
<g id="edge54" class="edge">
<title>Node33&#45;&gt;Node31</title>
<path fill="none" stroke="midnightblue" d="M1476.4,-243.65C1462.58,-252.31 1438.49,-265.73 1419,-275.73"/>
<polygon fill="midnightblue" stroke="midnightblue" points="1417.22,-272.7 1409.86,-280.32 1420.37,-278.95 1417.22,-272.7"/>
</g>
<!-- Node34&#45;&gt;Node8 -->
<g id="edge58" class="edge">
<title>Node34&#45;&gt;Node8</title>
<path fill="none" stroke="midnightblue" d="M1120.42,-172.02C1105.18,-170.61 1088.42,-169.15 1073,-168 1000.7,-162.6 505.1,-134.83 343.69,-125.82"/>
<polygon fill="midnightblue" stroke="midnightblue" points="343.73,-122.32 333.55,-125.26 343.34,-129.31 343.73,-122.32"/>
</g>
<!-- Node34&#45;&gt;Node17 -->
<g id="edge59" class="edge">
<title>Node34&#45;&gt;Node17</title>
<path fill="none" stroke="midnightblue" d="M1138.2,-168.44C1099.17,-158.26 1034.43,-141.37 995.83,-131.3"/>
<polygon fill="midnightblue" stroke="midnightblue" points="996.7,-127.91 986.14,-128.78 994.94,-134.69 996.7,-127.91"/>
</g>
<!-- Node35 -->
<g id="node35" class="node">
<title>Node35</title>
<g id="a_node35"><a xlink:title=" ">
<polygon fill="white" stroke="#bfbfbf" points="1129.5,-112.5 1129.5,-131.5 1212.5,-131.5 1212.5,-112.5 1129.5,-112.5"/>
<text text-anchor="middle" x="1171" y="-119.5" font-family="Helvetica,sans-Serif" font-size="10.00">unordered_map</text>
</a>
</g>
</g>
<!-- Node34&#45;&gt;Node35 -->
<g id="edge60" class="edge">
<title>Node34&#45;&gt;Node35</title>
<path fill="none" stroke="midnightblue" d="M1171,-168.08C1171,-161.01 1171,-150.86 1171,-141.99"/>
<polygon fill="midnightblue" stroke="midnightblue" points="1174.5,-141.75 1171,-131.75 1167.5,-141.75 1174.5,-141.75"/>
</g>
<!-- Node36&#45;&gt;Node29 -->
<g id="edge78" class="edge">
<title>Node36&#45;&gt;Node29</title>
<path fill="none" stroke="midnightblue" d="M942.04,-453.98C956.77,-444.34 980.97,-428.52 998.51,-417.05"/>
<polygon fill="midnightblue" stroke="midnightblue" points="1000.53,-419.91 1006.99,-411.51 996.7,-414.05 1000.53,-419.91"/>
</g>
<!-- Node37 -->
<g id="node37" class="node">
<title>Node37</title>
<g id="a_node37"><a xlink:href="_squad_template_8h.html" target="_top" xlink:title=" ">
<polygon fill="white" stroke="black" points="880,-392.5 880,-411.5 972,-411.5 972,-392.5 880,-392.5"/>
<text text-anchor="middle" x="926" y="-399.5" font-family="Helvetica,sans-Serif" font-size="10.00">SquadTemplate.h</text>
</a>
</g>
</g>
<!-- Node36&#45;&gt;Node37 -->
<g id="edge63" class="edge">
<title>Node36&#45;&gt;Node37</title>
<path fill="none" stroke="midnightblue" d="M928.57,-453.98C928.15,-445.58 927.49,-432.48 926.94,-421.66"/>
<polygon fill="midnightblue" stroke="midnightblue" points="930.43,-421.32 926.43,-411.51 923.44,-421.67 930.43,-421.32"/>
</g>
<!-- Node37&#45;&gt;Node17 -->
<g id="edge64" class="edge">
<title>Node37&#45;&gt;Node17</title>
<path fill="none" stroke="midnightblue" d="M972.26,-392.65C1040.45,-377.34 1163.09,-337.33 1193,-244 1195.71,-235.54 1197.84,-231.45 1193,-224 1171.53,-190.97 1147.54,-204.99 1112,-188 1094.43,-179.6 1090.68,-176.17 1073,-168 1047.37,-156.16 1017.73,-144.02 995.83,-135.34"/>
<polygon fill="midnightblue" stroke="midnightblue" points="996.95,-132.02 986.36,-131.61 994.38,-138.53 996.95,-132.02"/>
</g>
<!-- Node37&#45;&gt;Node30 -->
<g id="edge65" class="edge">
<title>Node37&#45;&gt;Node30</title>
<path fill="none" stroke="midnightblue" d="M972.13,-393.47C975.47,-392.96 978.78,-392.46 982,-392 1107.06,-373.97 1139.45,-377.26 1264,-356 1265.24,-355.79 1266.5,-355.57 1267.77,-355.33"/>
<polygon fill="midnightblue" stroke="midnightblue" points="1268.45,-358.77 1277.6,-353.42 1267.11,-351.9 1268.45,-358.77"/>
</g>
<!-- Node38 -->
<g id="node38" class="node">
<title>Node38</title>
<g id="a_node38"><a xlink:href="_gui_list_8h.html" target="_top" xlink:title=" ">
<polygon fill="white" stroke="black" points="858,-280.5 858,-299.5 966,-299.5 966,-280.5 858,-280.5"/>
<text text-anchor="middle" x="912" y="-287.5" font-family="Helvetica,sans-Serif" font-size="10.00">engine/GUI/GuiList.h</text>
</a>
</g>
</g>
<!-- Node37&#45;&gt;Node38 -->
<g id="edge66" class="edge">
<title>Node37&#45;&gt;Node38</title>
<path fill="none" stroke="midnightblue" d="M924.9,-392.37C922.64,-374.62 917.43,-333.67 914.37,-309.6"/>
<polygon fill="midnightblue" stroke="midnightblue" points="917.83,-309.07 913.09,-299.59 910.88,-309.95 917.83,-309.07"/>
</g>
<!-- Node40 -->
<g id="node40" class="node">
<title>Node40</title>
<g id="a_node40"><a xlink:href="_gui_scroll_8h.html" target="_top" xlink:title=" ">
<polygon fill="white" stroke="black" points="940,-336.5 940,-355.5 1056,-355.5 1056,-336.5 940,-336.5"/>
<text text-anchor="middle" x="998" y="-343.5" font-family="Helvetica,sans-Serif" font-size="10.00">engine/GUI/GuiScroll.h</text>
</a>
</g>
</g>
<!-- Node37&#45;&gt;Node40 -->
<g id="edge70" class="edge">
<title>Node37&#45;&gt;Node40</title>
<path fill="none" stroke="midnightblue" d="M937.57,-392.32C948.42,-384.18 964.88,-371.84 977.88,-362.09"/>
<polygon fill="midnightblue" stroke="midnightblue" points="980.32,-364.63 986.22,-355.83 976.12,-359.03 980.32,-364.63"/>
</g>
<!-- Node41 -->
<g id="node41" class="node">
<title>Node41</title>
<g id="a_node41"><a xlink:href="_button_8h.html" target="_top" xlink:title=" ">
<polygon fill="white" stroke="black" points="734.5,-280.5 734.5,-299.5 839.5,-299.5 839.5,-280.5 734.5,-280.5"/>
<text text-anchor="middle" x="787" y="-287.5" font-family="Helvetica,sans-Serif" font-size="10.00">engine/GUI/Button.h</text>
</a>
</g>
</g>
<!-- Node37&#45;&gt;Node41 -->
<g id="edge73" class="edge">
<title>Node37&#45;&gt;Node41</title>
<path fill="none" stroke="midnightblue" d="M915.09,-392.37C891.44,-373.65 835.21,-329.15 805.74,-305.83"/>
<polygon fill="midnightblue" stroke="midnightblue" points="807.87,-303.05 797.86,-299.59 803.53,-308.54 807.87,-303.05"/>
</g>
<!-- Node37&#45;&gt;Node42 -->
<g id="edge75" class="edge">
<title>Node37&#45;&gt;Node42</title>
<path fill="none" stroke="midnightblue" d="M879.93,-397.6C753.44,-388.27 400.59,-362.24 256.5,-351.61"/>
<polygon fill="midnightblue" stroke="midnightblue" points="256.72,-348.12 246.49,-350.87 256.21,-355.1 256.72,-348.12"/>
</g>
<!-- Node38&#45;&gt;Node17 -->
<g id="edge69" class="edge">
<title>Node38&#45;&gt;Node17</title>
<path fill="none" stroke="midnightblue" d="M914.8,-280.08C923.02,-253.83 947.23,-176.55 958.32,-141.12"/>
<polygon fill="midnightblue" stroke="midnightblue" points="961.67,-142.16 961.32,-131.57 954.99,-140.06 961.67,-142.16"/>
</g>
<!-- Node39 -->
<g id="node39" class="node">
<title>Node39</title>
<g id="a_node39"><a xlink:href="_gui_object_8h.html" target="_top" xlink:title=" ">
<polygon fill="white" stroke="black" points="734,-224.5 734,-243.5 854,-243.5 854,-224.5 734,-224.5"/>
<text text-anchor="middle" x="794" y="-231.5" font-family="Helvetica,sans-Serif" font-size="10.00">engine/GUI/GuiObject.h</text>
</a>
</g>
</g>
<!-- Node38&#45;&gt;Node39 -->
<g id="edge67" class="edge">
<title>Node38&#45;&gt;Node39</title>
<path fill="none" stroke="midnightblue" d="M893.3,-280.44C874.06,-271.64 843.85,-257.81 821.8,-247.72"/>
<polygon fill="midnightblue" stroke="midnightblue" points="823.16,-244.5 812.61,-243.52 820.25,-250.86 823.16,-244.5"/>
</g>
<!-- Node39&#45;&gt;Node6 -->
<g id="edge68" class="edge">
<title>Node39&#45;&gt;Node6</title>
<path fill="none" stroke="midnightblue" d="M799.45,-224.08C804.01,-216.61 810.67,-205.72 816.29,-196.52"/>
<polygon fill="midnightblue" stroke="midnightblue" points="819.42,-198.11 821.65,-187.75 813.45,-194.46 819.42,-198.11"/>
</g>
<!-- Node40&#45;&gt;Node7 -->
<g id="edge72" class="edge">
<title>Node40&#45;&gt;Node7</title>
<path fill="none" stroke="midnightblue" d="M1048.06,-336.46C1079.58,-329.67 1120.33,-318.22 1153,-300 1210.26,-268.08 1230.85,-251 1249,-188 1253.35,-172.9 1253.26,-155 1252.28,-141.81"/>
<polygon fill="midnightblue" stroke="midnightblue" points="1255.74,-141.23 1251.28,-131.62 1248.77,-141.92 1255.74,-141.23"/>
</g>
<!-- Node40&#45;&gt;Node38 -->
<g id="edge71" class="edge">
<title>Node40&#45;&gt;Node38</title>
<path fill="none" stroke="midnightblue" d="M984.18,-336.32C970.77,-327.9 950.18,-314.97 934.41,-305.07"/>
<polygon fill="midnightblue" stroke="midnightblue" points="936.11,-302.01 925.78,-299.65 932.39,-307.94 936.11,-302.01"/>
</g>
<!-- Node41&#45;&gt;Node39 -->
<g id="edge74" class="edge">
<title>Node41&#45;&gt;Node39</title>
<path fill="none" stroke="midnightblue" d="M788.16,-280.08C789.08,-272.93 790.42,-262.64 791.58,-253.69"/>
<polygon fill="midnightblue" stroke="midnightblue" points="795.05,-254.12 792.87,-243.75 788.11,-253.22 795.05,-254.12"/>
</g>
<!-- Node42&#45;&gt;Node9 -->
<g id="edge77" class="edge">
<title>Node42&#45;&gt;Node9</title>
<path fill="none" stroke="midnightblue" d="M195.96,-336.5C200.03,-318.09 209,-273.16 209,-235 209,-235 209,-235 209,-177 209,-143.25 223.43,-106.03 233.21,-84.69"/>
<polygon fill="midnightblue" stroke="midnightblue" points="236.41,-86.11 237.55,-75.58 230.09,-83.1 236.41,-86.11"/>
</g>
<!-- Node42&#45;&gt;Node11 -->
<g id="edge76" class="edge">
<title>Node42&#45;&gt;Node11</title>
<path fill="none" stroke="midnightblue" d="M188.16,-336.31C176.62,-318.26 152,-275.07 152,-235 152,-235 152,-235 152,-121 152,-88.12 142.03,-50.86 135.22,-29.24"/>
<polygon fill="midnightblue" stroke="midnightblue" points="138.54,-28.12 132.1,-19.71 131.89,-30.3 138.54,-28.12"/>
</g>
<!-- Node43&#45;&gt;Node1 -->
<g id="edge83" class="edge">
<title>Node43&#45;&gt;Node1</title>
<path fill="none" stroke="midnightblue" d="M530.65,-590.66C517.71,-599.01 495.38,-611.93 475.59,-622.65"/>
<polygon fill="midnightblue" stroke="midnightblue" points="473.89,-619.59 466.72,-627.4 477.19,-625.77 473.89,-619.59"/>
</g>
<!-- Node43&#45;&gt;Node2 -->
<g id="edge84" class="edge">
<title>Node43&#45;&gt;Node2</title>
<path fill="none" stroke="midnightblue" d="M533.57,-571.08C527.15,-563.38 517.69,-552.03 509.88,-542.65"/>
<polygon fill="midnightblue" stroke="midnightblue" points="512.38,-540.19 503.29,-534.75 507.01,-544.67 512.38,-540.19"/>
</g>
</g>
</svg>
