<?xml version="1.0" encoding="UTF-8" standalone="no"?>
<!DOCTYPE svg PUBLIC "-//W3C//DTD SVG 1.1//EN"
 "http://www.w3.org/Graphics/SVG/1.1/DTD/svg11.dtd">
<!-- Generated by graphviz version 2.47.1 (20210421.1823)
 -->
<!-- Title: src/GameLogic/Squad/SquadTemplate.cpp Pages: 1 -->
<svg width="1650pt" height="610pt"
 viewBox="0.00 0.00 1650.00 610.00" xmlns="http://www.w3.org/2000/svg" xmlns:xlink="http://www.w3.org/1999/xlink">
<g id="graph0" class="graph" transform="scale(1 1) rotate(0) translate(4 606)">
<title>src/GameLogic/Squad/SquadTemplate.cpp</title>
<polygon fill="white" stroke="transparent" points="-4,4 -4,-606 1646,-606 1646,4 -4,4"/>
<!-- Node1 -->
<g id="node1" class="node">
<title>Node1</title>
<g id="a_node1"><a xlink:title=" ">
<polygon fill="#bfbfbf" stroke="black" points="1241,-571.5 1241,-601.5 1355,-601.5 1355,-571.5 1241,-571.5"/>
<text text-anchor="start" x="1249" y="-589.5" font-family="Helvetica,sans-Serif" font-size="10.00">src/GameLogic/Squad</text>
<text text-anchor="middle" x="1298" y="-578.5" font-family="Helvetica,sans-Serif" font-size="10.00">/SquadTemplate.cpp</text>
</a>
</g>
</g>
<!-- Node2 -->
<g id="node2" class="node">
<title>Node2</title>
<g id="a_node2"><a xlink:href="_squad_template_8h.html" target="_top" xlink:title=" ">
<polygon fill="white" stroke="black" points="1268,-515.5 1268,-534.5 1444,-534.5 1444,-515.5 1268,-515.5"/>
<text text-anchor="middle" x="1356" y="-522.5" font-family="Helvetica,sans-Serif" font-size="10.00">GameLogic/Squad/SquadTemplate.h</text>
</a>
</g>
</g>
<!-- Node1&#45;&gt;Node2 -->
<g id="edge1" class="edge">
<title>Node1&#45;&gt;Node2</title>
<path fill="none" stroke="midnightblue" d="M1311.75,-571.4C1320.35,-562.58 1331.45,-551.18 1340.39,-542.02"/>
<polygon fill="midnightblue" stroke="midnightblue" points="1343.09,-544.26 1347.56,-534.66 1338.07,-539.38 1343.09,-544.26"/>
</g>
<!-- Node17 -->
<g id="node17" class="node">
<title>Node17</title>
<g id="a_node17"><a xlink:title=" ">
<polygon fill="white" stroke="#bfbfbf" points="800.5,-56.5 800.5,-75.5 851.5,-75.5 851.5,-56.5 800.5,-56.5"/>
<text text-anchor="middle" x="826" y="-63.5" font-family="Helvetica,sans-Serif" font-size="10.00">memory</text>
</a>
</g>
</g>
<!-- Node1&#45;&gt;Node17 -->
<g id="edge82" class="edge">
<title>Node1&#45;&gt;Node17</title>
<path fill="none" stroke="midnightblue" d="M1355.11,-576.4C1427.73,-561.86 1540.19,-527.75 1509,-459 1493.38,-424.58 1476.38,-424.07 1445,-403 1415.3,-383.06 1399.33,-391.23 1373,-367 1272.96,-274.93 1321.4,-180.58 1204,-112 1146.39,-78.35 944.53,-69.79 861.79,-67.67"/>
<polygon fill="midnightblue" stroke="midnightblue" points="861.7,-64.17 851.62,-67.43 861.53,-71.17 861.7,-64.17"/>
</g>
<!-- Node37 -->
<g id="node37" class="node">
<title>Node37</title>
<g id="a_node37"><a xlink:href="_all_units_8h.html" target="_top" xlink:title=" ">
<polygon fill="white" stroke="black" points="107.5,-291.5 107.5,-310.5 166.5,-310.5 166.5,-291.5 107.5,-291.5"/>
<text text-anchor="middle" x="137" y="-298.5" font-family="Helvetica,sans-Serif" font-size="10.00">AllUnits.h</text>
</a>
</g>
</g>
<!-- Node1&#45;&gt;Node37 -->
<g id="edge84" class="edge">
<title>Node1&#45;&gt;Node37</title>
<path fill="none" stroke="midnightblue" d="M1240.59,-583.29C994.09,-573.43 38,-531.23 38,-470 38,-470 38,-470 38,-412 38,-381.9 38.28,-370.57 57,-347 68.49,-332.53 85.98,-321.94 101.68,-314.68"/>
<polygon fill="midnightblue" stroke="midnightblue" points="103.37,-317.77 111.16,-310.59 100.59,-311.34 103.37,-317.77"/>
</g>
<!-- Node41 -->
<g id="node41" class="node">
<title>Node41</title>
<g id="a_node41"><a xlink:href="_gui_scroll_8h.html" target="_top" xlink:title=" ">
<polygon fill="white" stroke="black" points="1384,-459.5 1384,-478.5 1500,-478.5 1500,-459.5 1384,-459.5"/>
<text text-anchor="middle" x="1442" y="-466.5" font-family="Helvetica,sans-Serif" font-size="10.00">engine/GUI/GuiScroll.h</text>
</a>
</g>
</g>
<!-- Node1&#45;&gt;Node41 -->
<g id="edge87" class="edge">
<title>Node1&#45;&gt;Node41</title>
<path fill="none" stroke="midnightblue" d="M1355.26,-582.88C1389.61,-578 1430.8,-565.58 1453,-535 1462.85,-521.44 1457.83,-502.12 1451.73,-488.07"/>
<polygon fill="midnightblue" stroke="midnightblue" points="1454.81,-486.4 1447.29,-478.93 1448.51,-489.45 1454.81,-486.4"/>
</g>
<!-- Node42 -->
<g id="node42" class="node">
<title>Node42</title>
<g id="a_node42"><a xlink:href="_button_8h.html" target="_top" xlink:title=" ">
<polygon fill="white" stroke="black" points="1213.5,-459.5 1213.5,-478.5 1318.5,-478.5 1318.5,-459.5 1213.5,-459.5"/>
<text text-anchor="middle" x="1266" y="-466.5" font-family="Helvetica,sans-Serif" font-size="10.00">engine/GUI/Button.h</text>
</a>
</g>
</g>
<!-- Node1&#45;&gt;Node42 -->
<g id="edge83" class="edge">
<title>Node1&#45;&gt;Node42</title>
<path fill="none" stroke="midnightblue" d="M1282.74,-571.17C1273.94,-561.83 1263.72,-548.84 1259,-535 1253.85,-519.89 1256.47,-501.77 1259.88,-488.5"/>
<polygon fill="midnightblue" stroke="midnightblue" points="1263.3,-489.25 1262.77,-478.67 1256.59,-487.28 1263.3,-489.25"/>
</g>
<!-- Node43 -->
<g id="node43" class="node">
<title>Node43</title>
<g id="a_node43"><a xlink:href="_gui_strip_8h.html" target="_top" xlink:title=" ">
<polygon fill="white" stroke="black" points="1100,-515.5 1100,-534.5 1212,-534.5 1212,-515.5 1100,-515.5"/>
<text text-anchor="middle" x="1156" y="-522.5" font-family="Helvetica,sans-Serif" font-size="10.00">engine/GUI/GuiStrip.h</text>
</a>
</g>
</g>
<!-- Node1&#45;&gt;Node43 -->
<g id="edge85" class="edge">
<title>Node1&#45;&gt;Node43</title>
<path fill="none" stroke="midnightblue" d="M1264.35,-571.4C1240.52,-561.42 1208.85,-548.15 1185.91,-538.53"/>
<polygon fill="midnightblue" stroke="midnightblue" points="1187.24,-535.29 1176.66,-534.66 1184.53,-541.75 1187.24,-535.29"/>
</g>
<!-- Node3 -->
<g id="node3" class="node">
<title>Node3</title>
<g id="a_node3"><a xlink:title=" ">
<polygon fill="white" stroke="#bfbfbf" points="1506,-56.5 1506,-75.5 1550,-75.5 1550,-56.5 1506,-56.5"/>
<text text-anchor="middle" x="1528" y="-63.5" font-family="Helvetica,sans-Serif" font-size="10.00">vector</text>
</a>
</g>
</g>
<!-- Node2&#45;&gt;Node3 -->
<g id="edge2" class="edge">
<title>Node2&#45;&gt;Node3</title>
<path fill="none" stroke="midnightblue" d="M1416.54,-515.42C1446.37,-509 1481.7,-497.93 1509,-479 1589.87,-422.93 1642,-400.4 1642,-302 1642,-302 1642,-302 1642,-177 1642,-130.11 1591.45,-96.89 1557.67,-79.93"/>
<polygon fill="midnightblue" stroke="midnightblue" points="1559.17,-76.77 1548.64,-75.58 1556.13,-83.07 1559.17,-76.77"/>
</g>
<!-- Node4 -->
<g id="node4" class="node">
<title>Node4</title>
<g id="a_node4"><a xlink:href="_factory_8h.html" target="_top" xlink:title=" ">
<polygon fill="white" stroke="black" points="212,-459.5 212,-478.5 348,-478.5 348,-459.5 212,-459.5"/>
<text text-anchor="middle" x="280" y="-466.5" font-family="Helvetica,sans-Serif" font-size="10.00">GameLogic/Units/Factory.h</text>
</a>
</g>
</g>
<!-- Node2&#45;&gt;Node4 -->
<g id="edge3" class="edge">
<title>Node2&#45;&gt;Node4</title>
<path fill="none" stroke="midnightblue" d="M1267.78,-517.88C1252.2,-516.87 1236.13,-515.87 1221,-515 901.24,-496.7 520.06,-480.06 358.53,-473.26"/>
<polygon fill="midnightblue" stroke="midnightblue" points="358.35,-469.75 348.21,-472.82 358.06,-476.74 358.35,-469.75"/>
</g>
<!-- Node39 -->
<g id="node39" class="node">
<title>Node39</title>
<g id="a_node39"><a xlink:href="_gui_list_8h.html" target="_top" xlink:title=" ">
<polygon fill="white" stroke="black" points="1328,-403.5 1328,-422.5 1436,-422.5 1436,-403.5 1328,-403.5"/>
<text text-anchor="middle" x="1382" y="-410.5" font-family="Helvetica,sans-Serif" font-size="10.00">engine/GUI/GuiList.h</text>
</a>
</g>
</g>
<!-- Node2&#45;&gt;Node39 -->
<g id="edge73" class="edge">
<title>Node2&#45;&gt;Node39</title>
<path fill="none" stroke="midnightblue" d="M1358.04,-515.37C1362.24,-497.62 1371.92,-456.67 1377.6,-432.6"/>
<polygon fill="midnightblue" stroke="midnightblue" points="1381.08,-433.13 1379.97,-422.59 1374.26,-431.52 1381.08,-433.13"/>
</g>
<!-- Node2&#45;&gt;Node41 -->
<g id="edge77" class="edge">
<title>Node2&#45;&gt;Node41</title>
<path fill="none" stroke="midnightblue" d="M1369.82,-515.32C1383.23,-506.9 1403.82,-493.97 1419.59,-484.07"/>
<polygon fill="midnightblue" stroke="midnightblue" points="1421.61,-486.94 1428.22,-478.65 1417.89,-481.01 1421.61,-486.94"/>
</g>
<!-- Node2&#45;&gt;Node42 -->
<g id="edge80" class="edge">
<title>Node2&#45;&gt;Node42</title>
<path fill="none" stroke="midnightblue" d="M1341.54,-515.32C1327.5,-506.9 1305.95,-493.97 1289.46,-484.07"/>
<polygon fill="midnightblue" stroke="midnightblue" points="1290.8,-480.8 1280.42,-478.65 1287.2,-486.8 1290.8,-480.8"/>
</g>
<!-- Node5 -->
<g id="node5" class="node">
<title>Node5</title>
<g id="a_node5"><a xlink:title=" ">
<polygon fill="white" stroke="#bfbfbf" points="278.5,-56.5 278.5,-75.5 319.5,-75.5 319.5,-56.5 278.5,-56.5"/>
<text text-anchor="middle" x="299" y="-63.5" font-family="Helvetica,sans-Serif" font-size="10.00">string</text>
</a>
</g>
</g>
<!-- Node4&#45;&gt;Node5 -->
<g id="edge4" class="edge">
<title>Node4&#45;&gt;Node5</title>
<path fill="none" stroke="midnightblue" d="M219.59,-459.5C137.28,-444.12 0,-403.3 0,-302 0,-302 0,-302 0,-177 0,-120.21 192.37,-83.75 268.51,-71.55"/>
<polygon fill="midnightblue" stroke="midnightblue" points="269.11,-74.99 278.45,-69.99 268.03,-68.08 269.11,-74.99"/>
</g>
<!-- Node6 -->
<g id="node6" class="node">
<title>Node6</title>
<g id="a_node6"><a xlink:href="_cell_8h.html" target="_top" xlink:title=" ">
<polygon fill="white" stroke="black" points="549.5,-403.5 549.5,-422.5 590.5,-422.5 590.5,-403.5 549.5,-403.5"/>
<text text-anchor="middle" x="570" y="-410.5" font-family="Helvetica,sans-Serif" font-size="10.00">Cell.h</text>
</a>
</g>
</g>
<!-- Node4&#45;&gt;Node6 -->
<g id="edge5" class="edge">
<title>Node4&#45;&gt;Node6</title>
<path fill="none" stroke="midnightblue" d="M325.95,-459.44C385.59,-448.34 488.06,-429.26 539.16,-419.74"/>
<polygon fill="midnightblue" stroke="midnightblue" points="540.06,-423.14 549.25,-417.86 538.77,-416.25 540.06,-423.14"/>
</g>
<!-- Node24 -->
<g id="node24" class="node">
<title>Node24</title>
<g id="a_node24"><a xlink:href="_unit_8h.html" target="_top" xlink:title=" ">
<polygon fill="white" stroke="black" points="204,-230 204,-249 326,-249 326,-230 204,-230"/>
<text text-anchor="middle" x="265" y="-237" font-family="Helvetica,sans-Serif" font-size="10.00">GameLogic/Units/Unit.h</text>
</a>
</g>
</g>
<!-- Node4&#45;&gt;Node24 -->
<g id="edge72" class="edge">
<title>Node4&#45;&gt;Node24</title>
<path fill="none" stroke="midnightblue" d="M279.43,-459.36C277.24,-426.14 269.33,-306.16 266.24,-259.37"/>
<polygon fill="midnightblue" stroke="midnightblue" points="269.72,-258.9 265.57,-249.15 262.74,-259.36 269.72,-258.9"/>
</g>
<!-- Node7 -->
<g id="node7" class="node">
<title>Node7</title>
<g id="a_node7"><a xlink:href="gameplay_clickable_game_object_8h.html" target="_top" xlink:title=" ">
<polygon fill="white" stroke="black" points="726.5,-224.5 726.5,-254.5 855.5,-254.5 855.5,-224.5 726.5,-224.5"/>
<text text-anchor="start" x="734.5" y="-242.5" font-family="Helvetica,sans-Serif" font-size="10.00">engine/gameplayClickable</text>
<text text-anchor="middle" x="791" y="-231.5" font-family="Helvetica,sans-Serif" font-size="10.00">GameObject.h</text>
</a>
</g>
</g>
<!-- Node6&#45;&gt;Node7 -->
<g id="edge6" class="edge">
<title>Node6&#45;&gt;Node7</title>
<path fill="none" stroke="midnightblue" d="M590.88,-409.94C620.57,-406.07 675.42,-395.37 712,-367 746.99,-339.86 770.48,-292.54 782.23,-264.1"/>
<polygon fill="midnightblue" stroke="midnightblue" points="785.58,-265.14 786.02,-254.55 779.08,-262.55 785.58,-265.14"/>
</g>
<!-- Node10 -->
<g id="node10" class="node">
<title>Node10</title>
<g id="a_node10"><a xlink:href="config_8h.html" target="_top" xlink:title=" ">
<polygon fill="white" stroke="black" points="527.5,-112.5 527.5,-131.5 608.5,-131.5 608.5,-112.5 527.5,-112.5"/>
<text text-anchor="middle" x="568" y="-119.5" font-family="Helvetica,sans-Serif" font-size="10.00">engine/config.h</text>
</a>
</g>
</g>
<!-- Node6&#45;&gt;Node10 -->
<g id="edge26" class="edge">
<title>Node6&#45;&gt;Node10</title>
<path fill="none" stroke="midnightblue" d="M578.75,-403.29C586.56,-394.84 597.45,-381.25 602,-367 604.7,-358.53 602.67,-355.86 602,-347 596.23,-270.58 579.55,-180.73 571.91,-142.16"/>
<polygon fill="midnightblue" stroke="midnightblue" points="575.25,-141.02 569.85,-131.91 568.39,-142.4 575.25,-141.02"/>
</g>
<!-- Node13 -->
<g id="node13" class="node">
<title>Node13</title>
<g id="a_node13"><a xlink:href="_facade_8h.html" target="_top" xlink:title=" ">
<polygon fill="white" stroke="black" points="331,-0.5 331,-19.5 387,-19.5 387,-0.5 331,-0.5"/>
<text text-anchor="middle" x="359" y="-7.5" font-family="Helvetica,sans-Serif" font-size="10.00">Facade.h</text>
</a>
</g>
</g>
<!-- Node6&#45;&gt;Node13 -->
<g id="edge27" class="edge">
<title>Node6&#45;&gt;Node13</title>
<path fill="none" stroke="midnightblue" d="M549.49,-408.88C515.15,-403.23 444.28,-389.75 388,-367 271.24,-319.81 176,-304.93 176,-179 176,-179 176,-179 176,-121 176,-53.96 267.32,-26.75 320.94,-16.54"/>
<polygon fill="midnightblue" stroke="midnightblue" points="321.58,-19.98 330.81,-14.78 320.35,-13.09 321.58,-19.98"/>
</g>
<!-- Node16 -->
<g id="node16" class="node">
<title>Node16</title>
<g id="a_node16"><a xlink:title=" ">
<polygon fill="white" stroke="#bfbfbf" points="721,-56.5 721,-75.5 775,-75.5 775,-56.5 721,-56.5"/>
<text text-anchor="middle" x="748" y="-63.5" font-family="Helvetica,sans-Serif" font-size="10.00">iostream</text>
</a>
</g>
</g>
<!-- Node6&#45;&gt;Node16 -->
<g id="edge48" class="edge">
<title>Node6&#45;&gt;Node16</title>
<path fill="none" stroke="midnightblue" d="M590.8,-406.07C610.09,-399.53 638.27,-387.18 655,-367 692.12,-322.24 731.94,-143.83 744.2,-85.53"/>
<polygon fill="midnightblue" stroke="midnightblue" points="747.66,-86.05 746.27,-75.55 740.81,-84.63 747.66,-86.05"/>
</g>
<!-- Node18 -->
<g id="node18" class="node">
<title>Node18</title>
<g id="a_node18"><a xlink:href="cellgen_8h.html" target="_top" xlink:title=" ">
<polygon fill="white" stroke="black" points="1362.5,-291.5 1362.5,-310.5 1433.5,-310.5 1433.5,-291.5 1362.5,-291.5"/>
<text text-anchor="middle" x="1398" y="-298.5" font-family="Helvetica,sans-Serif" font-size="10.00">util/cellgen.h</text>
</a>
</g>
</g>
<!-- Node6&#45;&gt;Node18 -->
<g id="edge17" class="edge">
<title>Node6&#45;&gt;Node18</title>
<path fill="none" stroke="midnightblue" d="M590.53,-411.4C680.96,-408.61 1044.07,-395.79 1154,-367 1174.39,-361.66 1177.05,-353.79 1197,-347 1248.97,-329.33 1310.87,-316.67 1352.12,-309.37"/>
<polygon fill="midnightblue" stroke="midnightblue" points="1352.89,-312.79 1362.14,-307.63 1351.69,-305.89 1352.89,-312.79"/>
</g>
<!-- Node19 -->
<g id="node19" class="node">
<title>Node19</title>
<g id="a_node19"><a xlink:title=" ">
<polygon fill="white" stroke="#bfbfbf" points="1242.5,-230 1242.5,-249 1277.5,-249 1277.5,-230 1242.5,-230"/>
<text text-anchor="middle" x="1260" y="-237" font-family="Helvetica,sans-Serif" font-size="10.00">map</text>
</a>
</g>
</g>
<!-- Node6&#45;&gt;Node19 -->
<g id="edge47" class="edge">
<title>Node6&#45;&gt;Node19</title>
<path fill="none" stroke="midnightblue" d="M590.6,-412.01C678.06,-411.82 1018.6,-408.35 1116,-367 1173.49,-342.59 1224.08,-285.98 1246.99,-257.5"/>
<polygon fill="midnightblue" stroke="midnightblue" points="1250,-259.34 1253.43,-249.32 1244.5,-255.01 1250,-259.34"/>
</g>
<!-- Node21 -->
<g id="node21" class="node">
<title>Node21</title>
<g id="a_node21"><a xlink:href="_all_flags_8h.html" target="_top" xlink:title=" ">
<polygon fill="white" stroke="black" points="612.5,-168.5 612.5,-187.5 671.5,-187.5 671.5,-168.5 612.5,-168.5"/>
<text text-anchor="middle" x="642" y="-175.5" font-family="Helvetica,sans-Serif" font-size="10.00">AllFlags.h</text>
</a>
</g>
</g>
<!-- Node6&#45;&gt;Node21 -->
<g id="edge21" class="edge">
<title>Node6&#45;&gt;Node21</title>
<path fill="none" stroke="midnightblue" d="M590.69,-404.05C606.16,-396.89 626.25,-384.75 636,-367 666.35,-311.73 654.33,-232.87 646.59,-197.46"/>
<polygon fill="midnightblue" stroke="midnightblue" points="649.96,-196.52 644.28,-187.57 643.15,-198.11 649.96,-196.52"/>
</g>
<!-- Node23 -->
<g id="node23" class="node">
<title>Node23</title>
<g id="a_node23"><a xlink:href="_squad_8h.html" target="_top" xlink:title=" ">
<polygon fill="white" stroke="black" points="386,-291.5 386,-310.5 438,-310.5 438,-291.5 386,-291.5"/>
<text text-anchor="middle" x="412" y="-298.5" font-family="Helvetica,sans-Serif" font-size="10.00">Squad.h</text>
</a>
</g>
</g>
<!-- Node6&#45;&gt;Node23 -->
<g id="edge28" class="edge">
<title>Node6&#45;&gt;Node23</title>
<path fill="none" stroke="midnightblue" d="M549.44,-411.52C517.16,-409.78 455.94,-401.93 422,-367 410.1,-354.76 405.59,-335.49 405.55,-321.11"/>
<polygon fill="midnightblue" stroke="midnightblue" points="409.07,-321.11 406.43,-310.85 402.09,-320.52 409.07,-321.11"/>
</g>
<!-- Node30 -->
<g id="node30" class="node">
<title>Node30</title>
<g id="a_node30"><a xlink:href="geometry_8h.html" target="_top" xlink:title=" ">
<polygon fill="white" stroke="black" points="1382,-347.5 1382,-366.5 1462,-366.5 1462,-347.5 1382,-347.5"/>
<text text-anchor="middle" x="1422" y="-354.5" font-family="Helvetica,sans-Serif" font-size="10.00">util/geometry.h</text>
</a>
</g>
</g>
<!-- Node6&#45;&gt;Node30 -->
<g id="edge49" class="edge">
<title>Node6&#45;&gt;Node30</title>
<path fill="none" stroke="midnightblue" d="M590.71,-411.12C679.89,-407.26 1039.95,-390.93 1335,-367 1346.82,-366.04 1359.53,-364.83 1371.48,-363.61"/>
<polygon fill="midnightblue" stroke="midnightblue" points="1372.17,-367.06 1381.75,-362.54 1371.44,-360.09 1372.17,-367.06"/>
</g>
<!-- Node31 -->
<g id="node31" class="node">
<title>Node31</title>
<g id="a_node31"><a xlink:href="_none_8h.html" target="_top" xlink:title=" ">
<polygon fill="white" stroke="black" points="996.5,-168.5 996.5,-187.5 1109.5,-187.5 1109.5,-168.5 996.5,-168.5"/>
<text text-anchor="middle" x="1053" y="-175.5" font-family="Helvetica,sans-Serif" font-size="10.00">engine/actions/None.h</text>
</a>
</g>
</g>
<!-- Node6&#45;&gt;Node31 -->
<g id="edge52" class="edge">
<title>Node6&#45;&gt;Node31</title>
<path fill="none" stroke="midnightblue" d="M590.79,-410.2C688.22,-401.23 1097.37,-357.76 1157,-255 1163.92,-243.08 1164.56,-235.52 1157,-224 1146.43,-207.91 1128.74,-197.54 1110.92,-190.88"/>
<polygon fill="midnightblue" stroke="midnightblue" points="1111.64,-187.43 1101.05,-187.54 1109.4,-194.06 1111.64,-187.43"/>
</g>
<!-- Node32 -->
<g id="node32" class="node">
<title>Node32</title>
<g id="a_node32"><a xlink:href="game_controller_8h.html" target="_top" xlink:title=" ">
<polygon fill="white" stroke="black" points="929.5,-291.5 929.5,-310.5 1050.5,-310.5 1050.5,-291.5 929.5,-291.5"/>
<text text-anchor="middle" x="990" y="-298.5" font-family="Helvetica,sans-Serif" font-size="10.00">engine/gameController.h</text>
</a>
</g>
</g>
<!-- Node6&#45;&gt;Node32 -->
<g id="edge54" class="edge">
<title>Node6&#45;&gt;Node32</title>
<path fill="none" stroke="midnightblue" d="M590.7,-408.09C628.11,-400.88 709.39,-384.63 777,-367 840.07,-350.55 912.46,-327.57 954.53,-313.8"/>
<polygon fill="midnightblue" stroke="midnightblue" points="955.89,-317.04 964.29,-310.59 953.7,-310.39 955.89,-317.04"/>
</g>
<!-- Node36 -->
<g id="node36" class="node">
<title>Node36</title>
<g id="a_node36"><a xlink:href="_set_squad_path_8h.html" target="_top" xlink:title=" ">
<polygon fill="white" stroke="black" points="440.5,-347.5 440.5,-366.5 593.5,-366.5 593.5,-347.5 440.5,-347.5"/>
<text text-anchor="middle" x="517" y="-354.5" font-family="Helvetica,sans-Serif" font-size="10.00">engine/actions/SetSquadPath.h</text>
</a>
</g>
</g>
<!-- Node6&#45;&gt;Node36 -->
<g id="edge63" class="edge">
<title>Node6&#45;&gt;Node36</title>
<path fill="none" stroke="midnightblue" d="M556.37,-403.32C547.09,-395.58 535.36,-384.02 526.93,-374.51"/>
<polygon fill="midnightblue" stroke="midnightblue" points="529.62,-372.27 520.52,-366.83 524.24,-376.75 529.62,-372.27"/>
</g>
<!-- Node6&#45;&gt;Node37 -->
<g id="edge67" class="edge">
<title>Node6&#45;&gt;Node37</title>
<path fill="none" stroke="midnightblue" d="M549.33,-409.95C504.19,-405.17 393.62,-391.74 304,-367 253.72,-353.12 197.67,-329.54 164.97,-314.92"/>
<polygon fill="midnightblue" stroke="midnightblue" points="166.16,-311.62 155.61,-310.69 163.28,-318 166.16,-311.62"/>
</g>
<!-- Node38 -->
<g id="node38" class="node">
<title>Node38</title>
<g id="a_node38"><a xlink:href="_all_squad_templates_8h.html" target="_top" xlink:title=" ">
<polygon fill="white" stroke="black" points="66.5,-347.5 66.5,-366.5 175.5,-366.5 175.5,-347.5 66.5,-347.5"/>
<text text-anchor="middle" x="121" y="-354.5" font-family="Helvetica,sans-Serif" font-size="10.00">AllSquadTemplates.h</text>
</a>
</g>
</g>
<!-- Node6&#45;&gt;Node38 -->
<g id="edge69" class="edge">
<title>Node6&#45;&gt;Node38</title>
<path fill="none" stroke="midnightblue" d="M549.24,-409.5C485.23,-401.81 289,-378.2 185.87,-365.8"/>
<polygon fill="midnightblue" stroke="midnightblue" points="186.23,-362.32 175.89,-364.6 185.4,-369.27 186.23,-362.32"/>
</g>
<!-- Node8 -->
<g id="node8" class="node">
<title>Node8</title>
<g id="a_node8"><a xlink:href="game_object_8h.html" target="_top" xlink:title=" ">
<polygon fill="white" stroke="black" points="812.5,-168.5 812.5,-187.5 889.5,-187.5 889.5,-168.5 812.5,-168.5"/>
<text text-anchor="middle" x="851" y="-175.5" font-family="Helvetica,sans-Serif" font-size="10.00">gameObject.h</text>
</a>
</g>
</g>
<!-- Node7&#45;&gt;Node8 -->
<g id="edge7" class="edge">
<title>Node7&#45;&gt;Node8</title>
<path fill="none" stroke="midnightblue" d="M805.22,-224.4C814.21,-215.49 825.84,-203.95 835.13,-194.74"/>
<polygon fill="midnightblue" stroke="midnightblue" points="837.63,-197.18 842.27,-187.66 832.7,-192.21 837.63,-197.18"/>
</g>
<!-- Node9 -->
<g id="node9" class="node">
<title>Node9</title>
<g id="a_node9"><a xlink:title=" ">
<polygon fill="white" stroke="#bfbfbf" points="1166.5,-112.5 1166.5,-131.5 1195.5,-131.5 1195.5,-112.5 1166.5,-112.5"/>
<text text-anchor="middle" x="1181" y="-119.5" font-family="Helvetica,sans-Serif" font-size="10.00">list</text>
</a>
</g>
</g>
<!-- Node8&#45;&gt;Node9 -->
<g id="edge8" class="edge">
<title>Node8&#45;&gt;Node9</title>
<path fill="none" stroke="midnightblue" d="M889.71,-169.49C892.51,-168.97 895.3,-168.47 898,-168 993.21,-151.32 1106.93,-134.04 1156.2,-126.67"/>
<polygon fill="midnightblue" stroke="midnightblue" points="1156.87,-130.11 1166.24,-125.18 1155.84,-123.19 1156.87,-130.11"/>
</g>
<!-- Node8&#45;&gt;Node10 -->
<g id="edge9" class="edge">
<title>Node8&#45;&gt;Node10</title>
<path fill="none" stroke="midnightblue" d="M812.24,-169.6C761.94,-160.01 674.04,-143.23 618.54,-132.64"/>
<polygon fill="midnightblue" stroke="midnightblue" points="619.05,-129.18 608.57,-130.74 617.74,-136.05 619.05,-129.18"/>
</g>
<!-- Node15 -->
<g id="node15" class="node">
<title>Node15</title>
<g id="a_node15"><a xlink:href="engine_2_action_8h.html" target="_top" xlink:title=" ">
<polygon fill="white" stroke="black" points="784.5,-112.5 784.5,-131.5 867.5,-131.5 867.5,-112.5 784.5,-112.5"/>
<text text-anchor="middle" x="826" y="-119.5" font-family="Helvetica,sans-Serif" font-size="10.00">engine/Action.h</text>
</a>
</g>
</g>
<!-- Node8&#45;&gt;Node15 -->
<g id="edge14" class="edge">
<title>Node8&#45;&gt;Node15</title>
<path fill="none" stroke="midnightblue" d="M846.87,-168.08C843.49,-160.77 838.58,-150.18 834.38,-141.1"/>
<polygon fill="midnightblue" stroke="midnightblue" points="837.43,-139.36 830.05,-131.75 831.08,-142.3 837.43,-139.36"/>
</g>
<!-- Node11 -->
<g id="node11" class="node">
<title>Node11</title>
<g id="a_node11"><a xlink:href="_s_f_m_l_facade_8h.html" target="_top" xlink:title=" ">
<polygon fill="white" stroke="black" points="506.5,-56.5 506.5,-75.5 629.5,-75.5 629.5,-56.5 506.5,-56.5"/>
<text text-anchor="middle" x="568" y="-63.5" font-family="Helvetica,sans-Serif" font-size="10.00">graphics/SFMLFacade.h</text>
</a>
</g>
</g>
<!-- Node10&#45;&gt;Node11 -->
<g id="edge10" class="edge">
<title>Node10&#45;&gt;Node11</title>
<path fill="none" stroke="midnightblue" d="M568,-112.08C568,-105.01 568,-94.86 568,-85.99"/>
<polygon fill="midnightblue" stroke="midnightblue" points="571.5,-85.75 568,-75.75 564.5,-85.75 571.5,-85.75"/>
</g>
<!-- Node14 -->
<g id="node14" class="node">
<title>Node14</title>
<g id="a_node14"><a xlink:title=" ">
<polygon fill="white" stroke="#bfbfbf" points="390,-56.5 390,-75.5 488,-75.5 488,-56.5 390,-56.5"/>
<text text-anchor="middle" x="439" y="-63.5" font-family="Helvetica,sans-Serif" font-size="10.00">nlohmann/json.hpp</text>
</a>
</g>
</g>
<!-- Node10&#45;&gt;Node14 -->
<g id="edge13" class="edge">
<title>Node10&#45;&gt;Node14</title>
<path fill="none" stroke="midnightblue" d="M547.56,-112.44C526.33,-103.56 492.9,-89.56 468.75,-79.45"/>
<polygon fill="midnightblue" stroke="midnightblue" points="469.92,-76.15 459.34,-75.52 467.22,-82.61 469.92,-76.15"/>
</g>
<!-- Node12 -->
<g id="node12" class="node">
<title>Node12</title>
<g id="a_node12"><a xlink:title=" ">
<polygon fill="white" stroke="#bfbfbf" points="516,-0.5 516,-19.5 620,-19.5 620,-0.5 516,-0.5"/>
<text text-anchor="middle" x="568" y="-7.5" font-family="Helvetica,sans-Serif" font-size="10.00">SFML/Graphics.hpp</text>
</a>
</g>
</g>
<!-- Node11&#45;&gt;Node12 -->
<g id="edge11" class="edge">
<title>Node11&#45;&gt;Node12</title>
<path fill="none" stroke="midnightblue" d="M568,-56.08C568,-49.01 568,-38.86 568,-29.99"/>
<polygon fill="midnightblue" stroke="midnightblue" points="571.5,-29.75 568,-19.75 564.5,-29.75 571.5,-29.75"/>
</g>
<!-- Node11&#45;&gt;Node13 -->
<g id="edge12" class="edge">
<title>Node11&#45;&gt;Node13</title>
<path fill="none" stroke="midnightblue" d="M534.88,-56.44C497.4,-46.76 436.45,-31.01 397.04,-20.83"/>
<polygon fill="midnightblue" stroke="midnightblue" points="397.83,-17.42 387.27,-18.3 396.08,-24.19 397.83,-17.42"/>
</g>
<!-- Node15&#45;&gt;Node16 -->
<g id="edge15" class="edge">
<title>Node15&#45;&gt;Node16</title>
<path fill="none" stroke="midnightblue" d="M813.47,-112.32C801.41,-103.98 782.97,-91.21 768.73,-81.35"/>
<polygon fill="midnightblue" stroke="midnightblue" points="770.72,-78.47 760.5,-75.65 766.73,-84.22 770.72,-78.47"/>
</g>
<!-- Node15&#45;&gt;Node17 -->
<g id="edge16" class="edge">
<title>Node15&#45;&gt;Node17</title>
<path fill="none" stroke="midnightblue" d="M826,-112.08C826,-105.01 826,-94.86 826,-85.99"/>
<polygon fill="midnightblue" stroke="midnightblue" points="829.5,-85.75 826,-75.75 822.5,-85.75 829.5,-85.75"/>
</g>
<!-- Node18&#45;&gt;Node3 -->
<g id="edge18" class="edge">
<title>Node18&#45;&gt;Node3</title>
<path fill="none" stroke="midnightblue" d="M1420.18,-291.45C1436.45,-284.1 1457.92,-271.98 1471,-255 1511.19,-202.83 1523.18,-122.39 1526.65,-86.02"/>
<polygon fill="midnightblue" stroke="midnightblue" points="1530.15,-86.11 1527.5,-75.85 1523.18,-85.52 1530.15,-86.11"/>
</g>
<!-- Node18&#45;&gt;Node19 -->
<g id="edge19" class="edge">
<title>Node18&#45;&gt;Node19</title>
<path fill="none" stroke="midnightblue" d="M1378.23,-291.48C1354.2,-281.12 1313.55,-263.59 1286.74,-252.03"/>
<polygon fill="midnightblue" stroke="midnightblue" points="1288.12,-248.81 1277.55,-248.07 1285.35,-255.24 1288.12,-248.81"/>
</g>
<!-- Node20 -->
<g id="node20" class="node">
<title>Node20</title>
<g id="a_node20"><a xlink:title=" ">
<polygon fill="white" stroke="#bfbfbf" points="1334,-230 1334,-249 1462,-249 1462,-230 1334,-230"/>
<text text-anchor="middle" x="1398" y="-237" font-family="Helvetica,sans-Serif" font-size="10.00">scanline_triangulation.hpp</text>
</a>
</g>
</g>
<!-- Node18&#45;&gt;Node20 -->
<g id="edge20" class="edge">
<title>Node18&#45;&gt;Node20</title>
<path fill="none" stroke="midnightblue" d="M1398,-291.48C1398,-283.08 1398,-269.98 1398,-259.16"/>
<polygon fill="midnightblue" stroke="midnightblue" points="1401.5,-259.01 1398,-249.01 1394.5,-259.01 1401.5,-259.01"/>
</g>
<!-- Node21&#45;&gt;Node17 -->
<g id="edge25" class="edge">
<title>Node21&#45;&gt;Node17</title>
<path fill="none" stroke="midnightblue" d="M656.44,-168.37C688.15,-149.41 764.11,-104 802.68,-80.94"/>
<polygon fill="midnightblue" stroke="midnightblue" points="804.84,-83.73 811.63,-75.59 801.25,-77.72 804.84,-83.73"/>
</g>
<!-- Node22 -->
<g id="node22" class="node">
<title>Node22</title>
<g id="a_node22"><a xlink:href="_flag_8h.html" target="_top" xlink:title=" ">
<polygon fill="white" stroke="black" points="626.5,-112.5 626.5,-131.5 669.5,-131.5 669.5,-112.5 626.5,-112.5"/>
<text text-anchor="middle" x="648" y="-119.5" font-family="Helvetica,sans-Serif" font-size="10.00">Flag.h</text>
</a>
</g>
</g>
<!-- Node21&#45;&gt;Node22 -->
<g id="edge22" class="edge">
<title>Node21&#45;&gt;Node22</title>
<path fill="none" stroke="midnightblue" d="M642.99,-168.08C643.79,-160.93 644.93,-150.64 645.92,-141.69"/>
<polygon fill="midnightblue" stroke="midnightblue" points="649.4,-142.08 647.03,-131.75 642.44,-141.3 649.4,-142.08"/>
</g>
<!-- Node22&#45;&gt;Node3 -->
<g id="edge23" class="edge">
<title>Node22&#45;&gt;Node3</title>
<path fill="none" stroke="midnightblue" d="M669.57,-119.4C694.83,-117.54 737.94,-114.42 775,-112 1053.94,-93.78 1391.2,-74.66 1495.62,-68.81"/>
<polygon fill="midnightblue" stroke="midnightblue" points="1496.03,-72.29 1505.82,-68.24 1495.64,-65.3 1496.03,-72.29"/>
</g>
<!-- Node22&#45;&gt;Node5 -->
<g id="edge24" class="edge">
<title>Node22&#45;&gt;Node5</title>
<path fill="none" stroke="midnightblue" d="M626.42,-114.31C623.28,-113.46 620.07,-112.66 617,-112 562.41,-100.27 398.59,-79.35 329.87,-70.8"/>
<polygon fill="midnightblue" stroke="midnightblue" points="330.05,-67.3 319.69,-69.54 329.18,-74.24 330.05,-67.3"/>
</g>
<!-- Node23&#45;&gt;Node6 -->
<g id="edge29" class="edge">
<title>Node23&#45;&gt;Node6</title>
<path fill="none" stroke="midnightblue" d="M417.74,-310.85C421.7,-324.69 424.92,-351.49 440,-367 466.53,-394.3 509.72,-405.06 539.11,-409.28"/>
<polygon fill="midnightblue" stroke="midnightblue" points="538.9,-412.79 549.26,-410.57 539.77,-405.84 538.9,-412.79"/>
</g>
<!-- Node23&#45;&gt;Node7 -->
<g id="edge41" class="edge">
<title>Node23&#45;&gt;Node7</title>
<path fill="none" stroke="midnightblue" d="M438.05,-295.91C494.68,-287.02 630.77,-265.66 716.45,-252.2"/>
<polygon fill="midnightblue" stroke="midnightblue" points="717.05,-255.65 726.39,-250.64 715.96,-248.74 717.05,-255.65"/>
</g>
<!-- Node23&#45;&gt;Node10 -->
<g id="edge45" class="edge">
<title>Node23&#45;&gt;Node10</title>
<path fill="none" stroke="midnightblue" d="M438.16,-295.66C462.92,-290.25 499.57,-278.65 522,-255 552.38,-222.96 562.81,-169.79 566.31,-141.71"/>
<polygon fill="midnightblue" stroke="midnightblue" points="569.8,-141.97 567.39,-131.65 562.84,-141.22 569.8,-141.97"/>
</g>
<!-- Node23&#45;&gt;Node13 -->
<g id="edge46" class="edge">
<title>Node23&#45;&gt;Node13</title>
<path fill="none" stroke="midnightblue" d="M438.08,-292.38C455.88,-285.66 478.13,-273.94 489,-255 495.86,-243.05 496.7,-235.42 489,-224 465.15,-188.62 430.02,-218.32 400,-188 357.15,-144.71 355.61,-66.02 357.45,-29.97"/>
<polygon fill="midnightblue" stroke="midnightblue" points="360.95,-30.06 358.11,-19.86 353.96,-29.6 360.95,-30.06"/>
</g>
<!-- Node23&#45;&gt;Node24 -->
<g id="edge30" class="edge">
<title>Node23&#45;&gt;Node24</title>
<path fill="none" stroke="midnightblue" d="M386.04,-291.48C359.07,-281.45 317.45,-264.7 290.62,-253.15"/>
<polygon fill="midnightblue" stroke="midnightblue" points="291.69,-249.8 281.13,-249.01 288.89,-256.22 291.69,-249.8"/>
</g>
<!-- Node29 -->
<g id="node29" class="node">
<title>Node29</title>
<g id="a_node29"><a xlink:href="_game_logic_2_squad_2_action_8h.html" target="_top" xlink:title=" ">
<polygon fill="white" stroke="black" points="344,-230 344,-249 480,-249 480,-230 344,-230"/>
<text text-anchor="middle" x="412" y="-237" font-family="Helvetica,sans-Serif" font-size="10.00">GameLogic/Squad/Action.h</text>
</a>
</g>
</g>
<!-- Node23&#45;&gt;Node29 -->
<g id="edge42" class="edge">
<title>Node23&#45;&gt;Node29</title>
<path fill="none" stroke="midnightblue" d="M407.1,-291.48C405.27,-283.08 404.8,-269.98 405.69,-259.16"/>
<polygon fill="midnightblue" stroke="midnightblue" points="409.19,-259.4 407.1,-249.01 402.25,-258.43 409.19,-259.4"/>
</g>
<!-- Node24&#45;&gt;Node21 -->
<g id="edge36" class="edge">
<title>Node24&#45;&gt;Node21</title>
<path fill="none" stroke="midnightblue" d="M304.17,-229.96C314.19,-227.89 324.98,-225.77 335,-224 430.58,-207.11 543.7,-191.7 602.32,-184.06"/>
<polygon fill="midnightblue" stroke="midnightblue" points="602.8,-187.53 612.27,-182.77 601.9,-180.58 602.8,-187.53"/>
</g>
<!-- Node24&#45;&gt;Node23 -->
<g id="edge35" class="edge">
<title>Node24&#45;&gt;Node23</title>
<path fill="none" stroke="midnightblue" d="M290.92,-249.01C317.87,-259.03 359.49,-275.78 386.33,-287.33"/>
<polygon fill="midnightblue" stroke="midnightblue" points="385.27,-290.68 395.84,-291.48 388.07,-284.27 385.27,-290.68"/>
</g>
<!-- Node25 -->
<g id="node25" class="node">
<title>Node25</title>
<g id="a_node25"><a xlink:title=" ">
<polygon fill="white" stroke="#bfbfbf" points="204.5,-168.5 204.5,-187.5 247.5,-187.5 247.5,-168.5 204.5,-168.5"/>
<text text-anchor="middle" x="226" y="-175.5" font-family="Helvetica,sans-Serif" font-size="10.00">cstdio</text>
</a>
</g>
</g>
<!-- Node24&#45;&gt;Node25 -->
<g id="edge31" class="edge">
<title>Node24&#45;&gt;Node25</title>
<path fill="none" stroke="midnightblue" d="M259.41,-229.98C253.62,-221.14 244.41,-207.09 237.13,-195.98"/>
<polygon fill="midnightblue" stroke="midnightblue" points="239.99,-193.95 231.58,-187.51 234.13,-197.79 239.99,-193.95"/>
</g>
<!-- Node26 -->
<g id="node26" class="node">
<title>Node26</title>
<g id="a_node26"><a xlink:href="_unit_order_8h.html" target="_top" xlink:title=" ">
<polygon fill="white" stroke="black" points="266,-168.5 266,-187.5 332,-187.5 332,-168.5 266,-168.5"/>
<text text-anchor="middle" x="299" y="-175.5" font-family="Helvetica,sans-Serif" font-size="10.00">UnitOrder.h</text>
</a>
</g>
</g>
<!-- Node24&#45;&gt;Node26 -->
<g id="edge32" class="edge">
<title>Node24&#45;&gt;Node26</title>
<path fill="none" stroke="midnightblue" d="M264.97,-229.98C268.12,-221.05 275.85,-206.81 283.36,-195.64"/>
<polygon fill="midnightblue" stroke="midnightblue" points="286.22,-197.66 289.24,-187.51 280.54,-193.56 286.22,-197.66"/>
</g>
<!-- Node27 -->
<g id="node27" class="node">
<title>Node27</title>
<g id="a_node27"><a xlink:href="_textures_8h.html" target="_top" xlink:title=" ">
<polygon fill="white" stroke="black" points="409.5,-168.5 409.5,-187.5 510.5,-187.5 510.5,-168.5 409.5,-168.5"/>
<text text-anchor="middle" x="460" y="-175.5" font-family="Helvetica,sans-Serif" font-size="10.00">graphics/Textures.h</text>
</a>
</g>
</g>
<!-- Node24&#45;&gt;Node27 -->
<g id="edge37" class="edge">
<title>Node24&#45;&gt;Node27</title>
<path fill="none" stroke="midnightblue" d="M292.94,-229.98C326.97,-219.59 384.58,-202.01 422.46,-190.45"/>
<polygon fill="midnightblue" stroke="midnightblue" points="423.57,-193.78 432.11,-187.51 421.53,-187.08 423.57,-193.78"/>
</g>
<!-- Node26&#45;&gt;Node5 -->
<g id="edge33" class="edge">
<title>Node26&#45;&gt;Node5</title>
<path fill="none" stroke="midnightblue" d="M299,-168.37C299,-150.62 299,-109.67 299,-85.6"/>
<polygon fill="midnightblue" stroke="midnightblue" points="302.5,-85.59 299,-75.59 295.5,-85.59 302.5,-85.59"/>
</g>
<!-- Node26&#45;&gt;Node24 -->
<g id="edge34" class="edge">
<title>Node26&#45;&gt;Node24</title>
<path fill="none" stroke="midnightblue" d="M299.03,-187.51C295.89,-196.43 288.16,-210.67 280.65,-221.84"/>
<polygon fill="midnightblue" stroke="midnightblue" points="277.79,-219.82 274.77,-229.98 283.47,-223.92 277.79,-219.82"/>
</g>
<!-- Node27&#45;&gt;Node3 -->
<g id="edge39" class="edge">
<title>Node27&#45;&gt;Node3</title>
<path fill="none" stroke="midnightblue" d="M464.67,-168.26C473.08,-153.54 492.32,-124.2 518,-112 607.99,-69.26 1332.73,-66.94 1495.59,-66.96"/>
<polygon fill="midnightblue" stroke="midnightblue" points="1495.91,-70.46 1505.91,-66.96 1495.91,-63.46 1495.91,-70.46"/>
</g>
<!-- Node27&#45;&gt;Node10 -->
<g id="edge38" class="edge">
<title>Node27&#45;&gt;Node10</title>
<path fill="none" stroke="midnightblue" d="M477.35,-168.32C494.67,-159.66 521.52,-146.24 541.5,-136.25"/>
<polygon fill="midnightblue" stroke="midnightblue" points="543.31,-139.26 550.69,-131.65 540.18,-133 543.31,-139.26"/>
</g>
<!-- Node28 -->
<g id="node28" class="node">
<title>Node28</title>
<g id="a_node28"><a xlink:title=" ">
<polygon fill="white" stroke="#bfbfbf" points="387.5,-112.5 387.5,-131.5 470.5,-131.5 470.5,-112.5 387.5,-112.5"/>
<text text-anchor="middle" x="429" y="-119.5" font-family="Helvetica,sans-Serif" font-size="10.00">unordered_map</text>
</a>
</g>
</g>
<!-- Node27&#45;&gt;Node28 -->
<g id="edge40" class="edge">
<title>Node27&#45;&gt;Node28</title>
<path fill="none" stroke="midnightblue" d="M454.88,-168.08C450.59,-160.61 444.34,-149.72 439.06,-140.52"/>
<polygon fill="midnightblue" stroke="midnightblue" points="442.04,-138.68 434.02,-131.75 435.97,-142.17 442.04,-138.68"/>
</g>
<!-- Node29&#45;&gt;Node6 -->
<g id="edge44" class="edge">
<title>Node29&#45;&gt;Node6</title>
<path fill="none" stroke="midnightblue" d="M403.39,-249.25C394.8,-258.66 382.16,-274.51 377,-291 365.67,-327.24 385.18,-344.84 416,-367 453.24,-393.78 506.3,-404.73 539.41,-409.13"/>
<polygon fill="midnightblue" stroke="midnightblue" points="539.06,-412.61 549.41,-410.34 539.91,-405.66 539.06,-412.61"/>
</g>
<!-- Node29&#45;&gt;Node23 -->
<g id="edge43" class="edge">
<title>Node29&#45;&gt;Node23</title>
<path fill="none" stroke="midnightblue" d="M416.9,-249.01C418.73,-257.4 419.2,-270.5 418.32,-281.32"/>
<polygon fill="midnightblue" stroke="midnightblue" points="414.81,-281.09 416.9,-291.48 421.75,-282.05 414.81,-281.09"/>
</g>
<!-- Node30&#45;&gt;Node3 -->
<g id="edge50" class="edge">
<title>Node30&#45;&gt;Node3</title>
<path fill="none" stroke="midnightblue" d="M1450.45,-347.49C1492.42,-332.97 1566,-299.15 1566,-240.5 1566,-240.5 1566,-240.5 1566,-177 1566,-142.81 1549.4,-105.76 1538.14,-84.57"/>
<polygon fill="midnightblue" stroke="midnightblue" points="1541.18,-82.83 1533.28,-75.77 1535.05,-86.22 1541.18,-82.83"/>
</g>
<!-- Node30&#45;&gt;Node18 -->
<g id="edge51" class="edge">
<title>Node30&#45;&gt;Node18</title>
<path fill="none" stroke="midnightblue" d="M1418.04,-347.08C1414.79,-339.77 1410.08,-329.18 1406.05,-320.1"/>
<polygon fill="midnightblue" stroke="midnightblue" points="1409.15,-318.47 1401.89,-310.75 1402.75,-321.31 1409.15,-318.47"/>
</g>
<!-- Node31&#45;&gt;Node15 -->
<g id="edge53" class="edge">
<title>Node31&#45;&gt;Node15</title>
<path fill="none" stroke="midnightblue" d="M1017.03,-168.44C977.68,-159.08 914.51,-144.06 871.69,-133.87"/>
<polygon fill="midnightblue" stroke="midnightblue" points="872.34,-130.43 861.8,-131.52 870.72,-137.24 872.34,-130.43"/>
</g>
<!-- Node32&#45;&gt;Node8 -->
<g id="edge56" class="edge">
<title>Node32&#45;&gt;Node8</title>
<path fill="none" stroke="midnightblue" d="M990.16,-291.29C989.96,-275.79 987.35,-243.26 970,-224 959.31,-212.13 922.71,-199.31 892.89,-190.4"/>
<polygon fill="midnightblue" stroke="midnightblue" points="893.66,-186.98 883.08,-187.53 891.7,-193.7 893.66,-186.98"/>
</g>
<!-- Node32&#45;&gt;Node9 -->
<g id="edge55" class="edge">
<title>Node32&#45;&gt;Node9</title>
<path fill="none" stroke="midnightblue" d="M1050.7,-299.09C1086.6,-295.22 1130.17,-284.17 1157,-255 1185.69,-223.81 1185.72,-170.29 1183.34,-141.92"/>
<polygon fill="midnightblue" stroke="midnightblue" points="1186.8,-141.34 1182.29,-131.76 1179.84,-142.06 1186.8,-141.34"/>
</g>
<!-- Node33 -->
<g id="node33" class="node">
<title>Node33</title>
<g id="a_node33"><a xlink:href="_network_manager_8h.html" target="_top" xlink:title=" ">
<polygon fill="white" stroke="black" points="1018,-230 1018,-249 1148,-249 1148,-230 1018,-230"/>
<text text-anchor="middle" x="1083" y="-237" font-family="Helvetica,sans-Serif" font-size="10.00">engine/NetworkManager.h</text>
</a>
</g>
</g>
<!-- Node32&#45;&gt;Node33 -->
<g id="edge57" class="edge">
<title>Node32&#45;&gt;Node33</title>
<path fill="none" stroke="midnightblue" d="M1003.32,-291.48C1018.38,-281.84 1043.12,-266.02 1061.04,-254.55"/>
<polygon fill="midnightblue" stroke="midnightblue" points="1063.16,-257.35 1069.7,-249.01 1059.39,-251.45 1063.16,-257.35"/>
</g>
<!-- Node35 -->
<g id="node35" class="node">
<title>Node35</title>
<g id="a_node35"><a xlink:title=" ">
<polygon fill="white" stroke="#bfbfbf" points="912.5,-230 912.5,-249 961.5,-249 961.5,-230 912.5,-230"/>
<text text-anchor="middle" x="937" y="-237" font-family="Helvetica,sans-Serif" font-size="10.00">random</text>
</a>
</g>
</g>
<!-- Node32&#45;&gt;Node35 -->
<g id="edge62" class="edge">
<title>Node32&#45;&gt;Node35</title>
<path fill="none" stroke="midnightblue" d="M982.41,-291.48C974.3,-282.37 961.27,-267.74 951.24,-256.48"/>
<polygon fill="midnightblue" stroke="midnightblue" points="953.84,-254.15 944.58,-249.01 948.62,-258.8 953.84,-254.15"/>
</g>
<!-- Node33&#45;&gt;Node3 -->
<g id="edge60" class="edge">
<title>Node33&#45;&gt;Node3</title>
<path fill="none" stroke="midnightblue" d="M1089.56,-229.8C1096.88,-219.91 1108.89,-203.19 1118,-188 1137.52,-155.44 1125.85,-133.71 1157,-112 1211.4,-74.09 1415.42,-68.03 1495.47,-67.13"/>
<polygon fill="midnightblue" stroke="midnightblue" points="1495.95,-70.62 1505.92,-67.03 1495.89,-63.62 1495.95,-70.62"/>
</g>
<!-- Node33&#45;&gt;Node8 -->
<g id="edge58" class="edge">
<title>Node33&#45;&gt;Node8</title>
<path fill="none" stroke="midnightblue" d="M1049.76,-229.98C1008.76,-219.46 938.97,-201.56 893.95,-190.01"/>
<polygon fill="midnightblue" stroke="midnightblue" points="894.73,-186.6 884.18,-187.51 893,-193.38 894.73,-186.6"/>
</g>
<!-- Node33&#45;&gt;Node31 -->
<g id="edge59" class="edge">
<title>Node33&#45;&gt;Node31</title>
<path fill="none" stroke="midnightblue" d="M1078.7,-229.98C1074.34,-221.32 1067.44,-207.65 1061.9,-196.65"/>
<polygon fill="midnightblue" stroke="midnightblue" points="1064.92,-194.86 1057.29,-187.51 1058.67,-198.01 1064.92,-194.86"/>
</g>
<!-- Node34 -->
<g id="node34" class="node">
<title>Node34</title>
<g id="a_node34"><a xlink:title=" ">
<polygon fill="white" stroke="#bfbfbf" points="907.5,-168.5 907.5,-187.5 978.5,-187.5 978.5,-168.5 907.5,-168.5"/>
<text text-anchor="middle" x="943" y="-175.5" font-family="Helvetica,sans-Serif" font-size="10.00">sys/socket.h</text>
</a>
</g>
</g>
<!-- Node33&#45;&gt;Node34 -->
<g id="edge61" class="edge">
<title>Node33&#45;&gt;Node34</title>
<path fill="none" stroke="midnightblue" d="M1062.94,-229.98C1039.24,-219.9 999.59,-203.05 972.42,-191.5"/>
<polygon fill="midnightblue" stroke="midnightblue" points="973.59,-188.2 963.02,-187.51 970.86,-194.64 973.59,-188.2"/>
</g>
<!-- Node36&#45;&gt;Node6 -->
<g id="edge66" class="edge">
<title>Node36&#45;&gt;Node6</title>
<path fill="none" stroke="midnightblue" d="M530.72,-366.75C539.88,-374.4 551.39,-385.74 559.76,-395.14"/>
<polygon fill="midnightblue" stroke="midnightblue" points="557.31,-397.67 566.41,-403.08 562.68,-393.17 557.31,-397.67"/>
</g>
<!-- Node36&#45;&gt;Node15 -->
<g id="edge64" class="edge">
<title>Node36&#45;&gt;Node15</title>
<path fill="none" stroke="midnightblue" d="M528.36,-347.43C574.45,-312.68 747.75,-182 806.43,-137.75"/>
<polygon fill="midnightblue" stroke="midnightblue" points="808.66,-140.46 814.53,-131.65 804.44,-134.87 808.66,-140.46"/>
</g>
<!-- Node36&#45;&gt;Node23 -->
<g id="edge65" class="edge">
<title>Node36&#45;&gt;Node23</title>
<path fill="none" stroke="midnightblue" d="M500.13,-347.32C483.29,-338.66 457.19,-325.24 437.76,-315.25"/>
<polygon fill="midnightblue" stroke="midnightblue" points="439.32,-312.12 428.83,-310.65 436.12,-318.34 439.32,-312.12"/>
</g>
<!-- Node37&#45;&gt;Node4 -->
<g id="edge68" class="edge">
<title>Node37&#45;&gt;Node4</title>
<path fill="none" stroke="midnightblue" d="M146.74,-310.6C156.51,-319.4 171.83,-333.64 184,-347 216.21,-382.35 250.13,-427.16 267.74,-451.11"/>
<polygon fill="midnightblue" stroke="midnightblue" points="265.13,-453.46 273.86,-459.46 270.78,-449.33 265.13,-453.46"/>
</g>
<!-- Node38&#45;&gt;Node2 -->
<g id="edge70" class="edge">
<title>Node38&#45;&gt;Node2</title>
<path fill="none" stroke="midnightblue" d="M123.81,-366.81C131.79,-390.15 157.03,-453.57 203,-479 252.52,-506.39 1164.48,-512.12 1221,-515 1232.82,-515.6 1245.22,-516.32 1257.51,-517.08"/>
<polygon fill="midnightblue" stroke="midnightblue" points="1257.59,-520.59 1267.79,-517.72 1258.03,-513.6 1257.59,-520.59"/>
</g>
<!-- Node38&#45;&gt;Node37 -->
<g id="edge71" class="edge">
<title>Node38&#45;&gt;Node37</title>
<path fill="none" stroke="midnightblue" d="M123.64,-347.08C125.79,-339.85 128.88,-329.41 131.55,-320.4"/>
<polygon fill="midnightblue" stroke="midnightblue" points="134.92,-321.33 134.41,-310.75 128.21,-319.34 134.92,-321.33"/>
</g>
<!-- Node39&#45;&gt;Node3 -->
<g id="edge76" class="edge">
<title>Node39&#45;&gt;Node3</title>
<path fill="none" stroke="midnightblue" d="M1436.02,-408.38C1501.74,-400.7 1604,-376.74 1604,-302 1604,-302 1604,-302 1604,-177 1604,-137.28 1570.04,-101.5 1547.52,-82.15"/>
<polygon fill="midnightblue" stroke="midnightblue" points="1549.48,-79.24 1539.54,-75.57 1545.02,-84.63 1549.48,-79.24"/>
</g>
<!-- Node40 -->
<g id="node40" class="node">
<title>Node40</title>
<g id="a_node40"><a xlink:href="_gui_object_8h.html" target="_top" xlink:title=" ">
<polygon fill="white" stroke="black" points="1206,-347.5 1206,-366.5 1326,-366.5 1326,-347.5 1206,-347.5"/>
<text text-anchor="middle" x="1266" y="-354.5" font-family="Helvetica,sans-Serif" font-size="10.00">engine/GUI/GuiObject.h</text>
</a>
</g>
</g>
<!-- Node39&#45;&gt;Node40 -->
<g id="edge74" class="edge">
<title>Node39&#45;&gt;Node40</title>
<path fill="none" stroke="midnightblue" d="M1363.62,-403.44C1344.78,-394.68 1315.27,-380.94 1293.62,-370.86"/>
<polygon fill="midnightblue" stroke="midnightblue" points="1294.84,-367.56 1284.29,-366.52 1291.88,-373.91 1294.84,-367.56"/>
</g>
<!-- Node40&#45;&gt;Node8 -->
<g id="edge75" class="edge">
<title>Node40&#45;&gt;Node8</title>
<path fill="none" stroke="midnightblue" d="M1205.88,-354.75C1119.31,-351.88 964.96,-342.37 920,-311 899.71,-296.84 871.2,-230.09 858.09,-197.29"/>
<polygon fill="midnightblue" stroke="midnightblue" points="861.2,-195.61 854.27,-187.59 854.68,-198.17 861.2,-195.61"/>
</g>
<!-- Node41&#45;&gt;Node9 -->
<g id="edge79" class="edge">
<title>Node41&#45;&gt;Node9</title>
<path fill="none" stroke="midnightblue" d="M1448.67,-459.44C1461.86,-441.62 1490,-398.84 1490,-358 1490,-358 1490,-358 1490,-300 1490,-265.18 1494.49,-249.7 1471,-224 1398.85,-145.04 1261.68,-127.81 1205.71,-124.05"/>
<polygon fill="midnightblue" stroke="midnightblue" points="1205.83,-120.55 1195.64,-123.46 1205.42,-127.54 1205.83,-120.55"/>
</g>
<!-- Node41&#45;&gt;Node39 -->
<g id="edge78" class="edge">
<title>Node41&#45;&gt;Node39</title>
<path fill="none" stroke="midnightblue" d="M1432.36,-459.32C1423.49,-451.34 1410.13,-439.31 1399.39,-429.65"/>
<polygon fill="midnightblue" stroke="midnightblue" points="1401.59,-426.92 1391.82,-422.83 1396.91,-432.13 1401.59,-426.92"/>
</g>
<!-- Node42&#45;&gt;Node40 -->
<g id="edge81" class="edge">
<title>Node42&#45;&gt;Node40</title>
<path fill="none" stroke="midnightblue" d="M1266,-459.37C1266,-441.62 1266,-400.67 1266,-376.6"/>
<polygon fill="midnightblue" stroke="midnightblue" points="1269.5,-376.59 1266,-366.59 1262.5,-376.59 1269.5,-376.59"/>
</g>
<!-- Node43&#45;&gt;Node40 -->
<g id="edge86" class="edge">
<title>Node43&#45;&gt;Node40</title>
<path fill="none" stroke="midnightblue" d="M1161.91,-515.08C1179.45,-488.61 1231.4,-410.21 1254.6,-375.21"/>
<polygon fill="midnightblue" stroke="midnightblue" points="1257.72,-376.84 1260.32,-366.57 1251.88,-372.97 1257.72,-376.84"/>
</g>
</g>
</svg>
