<?xml version="1.0" encoding="UTF-8" standalone="no"?>
<!DOCTYPE svg PUBLIC "-//W3C//DTD SVG 1.1//EN"
 "http://www.w3.org/Graphics/SVG/1.1/DTD/svg11.dtd">
<!-- Generated by graphviz version 2.47.1 (20210421.1823)
 -->
<!-- Title: include/GameLogic/Squad/SquadTemplate.h Pages: 1 -->
<svg width="1765pt" height="554pt"
 viewBox="0.00 0.00 1764.50 554.00" xmlns="http://www.w3.org/2000/svg" xmlns:xlink="http://www.w3.org/1999/xlink">
<g id="graph0" class="graph" transform="scale(1 1) rotate(0) translate(4 550)">
<title>include/GameLogic/Squad/SquadTemplate.h</title>
<polygon fill="white" stroke="transparent" points="-4,4 -4,-550 1760.5,-550 1760.5,4 -4,4"/>
<!-- Node1 -->
<g id="node1" class="node">
<title>Node1</title>
<g id="a_node1"><a xlink:title=" ">
<polygon fill="#bfbfbf" stroke="black" points="382.5,-515.5 382.5,-545.5 513.5,-545.5 513.5,-515.5 382.5,-515.5"/>
<text text-anchor="start" x="390.5" y="-533.5" font-family="Helvetica,sans-Serif" font-size="10.00">include/GameLogic/Squad</text>
<text text-anchor="middle" x="448" y="-522.5" font-family="Helvetica,sans-Serif" font-size="10.00">/SquadTemplate.h</text>
</a>
</g>
</g>
<!-- Node2 -->
<g id="node2" class="node">
<title>Node2</title>
<g id="a_node2"><a xlink:title=" ">
<polygon fill="white" stroke="#bfbfbf" points="274,-56.5 274,-75.5 318,-75.5 318,-56.5 274,-56.5"/>
<text text-anchor="middle" x="296" y="-63.5" font-family="Helvetica,sans-Serif" font-size="10.00">vector</text>
</a>
</g>
</g>
<!-- Node1&#45;&gt;Node2 -->
<g id="edge1" class="edge">
<title>Node1&#45;&gt;Node2</title>
<path fill="none" stroke="midnightblue" d="M382.38,-526.2C257.94,-518.13 0,-492.01 0,-414 0,-414 0,-414 0,-177 0,-140 20.25,-131 52,-112 119.32,-71.72 214.36,-65.98 263.6,-66.02"/>
<polygon fill="midnightblue" stroke="midnightblue" points="263.64,-69.52 273.67,-66.11 263.7,-62.52 263.64,-69.52"/>
</g>
<!-- Node3 -->
<g id="node3" class="node">
<title>Node3</title>
<g id="a_node3"><a xlink:href="_factory_8h.html" target="_top" xlink:title=" ">
<polygon fill="white" stroke="black" points="1359,-459.5 1359,-478.5 1495,-478.5 1495,-459.5 1359,-459.5"/>
<text text-anchor="middle" x="1427" y="-466.5" font-family="Helvetica,sans-Serif" font-size="10.00">GameLogic/Units/Factory.h</text>
</a>
</g>
</g>
<!-- Node1&#45;&gt;Node3 -->
<g id="edge2" class="edge">
<title>Node1&#45;&gt;Node3</title>
<path fill="none" stroke="midnightblue" d="M513.76,-525.5C688.04,-514.91 1161.29,-486.15 1348.88,-474.75"/>
<polygon fill="midnightblue" stroke="midnightblue" points="1349.17,-478.24 1358.94,-474.14 1348.75,-471.25 1349.17,-478.24"/>
</g>
<!-- Node30 -->
<g id="node30" class="node">
<title>Node30</title>
<g id="a_node30"><a xlink:href="_player_8h.html" target="_top" xlink:title=" ">
<polygon fill="white" stroke="black" points="1611.5,-230 1611.5,-249 1662.5,-249 1662.5,-230 1611.5,-230"/>
<text text-anchor="middle" x="1637" y="-237" font-family="Helvetica,sans-Serif" font-size="10.00">Player.h</text>
</a>
</g>
</g>
<!-- Node1&#45;&gt;Node30 -->
<g id="edge87" class="edge">
<title>Node1&#45;&gt;Node30</title>
<path fill="none" stroke="midnightblue" d="M513.52,-530.1C763.47,-531.53 1643,-528.44 1643,-414 1643,-414 1643,-414 1643,-356 1643,-321.82 1640.35,-282.02 1638.57,-259.19"/>
<polygon fill="midnightblue" stroke="midnightblue" points="1642.05,-258.87 1637.76,-249.19 1635.08,-259.43 1642.05,-258.87"/>
</g>
<!-- Node40 -->
<g id="node40" class="node">
<title>Node40</title>
<g id="a_node40"><a xlink:href="_gui_list_8h.html" target="_top" xlink:title=" ">
<polygon fill="white" stroke="black" points="269,-403.5 269,-422.5 377,-422.5 377,-403.5 269,-403.5"/>
<text text-anchor="middle" x="323" y="-410.5" font-family="Helvetica,sans-Serif" font-size="10.00">engine/GUI/GuiList.h</text>
</a>
</g>
</g>
<!-- Node1&#45;&gt;Node40 -->
<g id="edge78" class="edge">
<title>Node1&#45;&gt;Node40</title>
<path fill="none" stroke="midnightblue" d="M438.37,-515.5C427.64,-500.49 409.25,-476.47 390,-459 376.85,-447.07 360.29,-435.92 346.93,-427.7"/>
<polygon fill="midnightblue" stroke="midnightblue" points="348.65,-424.65 338.27,-422.51 345.05,-430.65 348.65,-424.65"/>
</g>
<!-- Node42 -->
<g id="node42" class="node">
<title>Node42</title>
<g id="a_node42"><a xlink:href="_gui_scroll_8h.html" target="_top" xlink:title=" ">
<polygon fill="white" stroke="black" points="265,-459.5 265,-478.5 381,-478.5 381,-459.5 265,-459.5"/>
<text text-anchor="middle" x="323" y="-466.5" font-family="Helvetica,sans-Serif" font-size="10.00">engine/GUI/GuiScroll.h</text>
</a>
</g>
</g>
<!-- Node1&#45;&gt;Node42 -->
<g id="edge82" class="edge">
<title>Node1&#45;&gt;Node42</title>
<path fill="none" stroke="midnightblue" d="M418.38,-515.4C397.78,-505.59 370.52,-492.62 350.42,-483.05"/>
<polygon fill="midnightblue" stroke="midnightblue" points="351.72,-479.8 341.19,-478.66 348.71,-486.12 351.72,-479.8"/>
</g>
<!-- Node43 -->
<g id="node43" class="node">
<title>Node43</title>
<g id="a_node43"><a xlink:href="_button_8h.html" target="_top" xlink:title=" ">
<polygon fill="white" stroke="black" points="395.5,-403.5 395.5,-422.5 500.5,-422.5 500.5,-403.5 395.5,-403.5"/>
<text text-anchor="middle" x="448" y="-410.5" font-family="Helvetica,sans-Serif" font-size="10.00">engine/GUI/Button.h</text>
</a>
</g>
</g>
<!-- Node1&#45;&gt;Node43 -->
<g id="edge85" class="edge">
<title>Node1&#45;&gt;Node43</title>
<path fill="none" stroke="midnightblue" d="M448,-515.34C448,-494.62 448,-456.02 448,-432.9"/>
<polygon fill="midnightblue" stroke="midnightblue" points="451.5,-432.67 448,-422.67 444.5,-432.67 451.5,-432.67"/>
</g>
<!-- Node4 -->
<g id="node4" class="node">
<title>Node4</title>
<g id="a_node4"><a xlink:title=" ">
<polygon fill="white" stroke="#bfbfbf" points="1244.5,-56.5 1244.5,-75.5 1285.5,-75.5 1285.5,-56.5 1244.5,-56.5"/>
<text text-anchor="middle" x="1265" y="-63.5" font-family="Helvetica,sans-Serif" font-size="10.00">string</text>
</a>
</g>
</g>
<!-- Node3&#45;&gt;Node4 -->
<g id="edge3" class="edge">
<title>Node3&#45;&gt;Node4</title>
<path fill="none" stroke="midnightblue" d="M1449.32,-459.45C1465.32,-452.16 1486.08,-440.13 1498,-423 1578.5,-307.31 1651.84,-218.91 1560,-112 1526.19,-72.65 1364.72,-67.33 1296.03,-66.87"/>
<polygon fill="midnightblue" stroke="midnightblue" points="1295.85,-63.37 1285.84,-66.84 1295.83,-70.37 1295.85,-63.37"/>
</g>
<!-- Node5 -->
<g id="node5" class="node">
<title>Node5</title>
<g id="a_node5"><a xlink:href="_cell_8h.html" target="_top" xlink:title=" ">
<polygon fill="white" stroke="black" points="1015.5,-403.5 1015.5,-422.5 1056.5,-422.5 1056.5,-403.5 1015.5,-403.5"/>
<text text-anchor="middle" x="1036" y="-410.5" font-family="Helvetica,sans-Serif" font-size="10.00">Cell.h</text>
</a>
</g>
</g>
<!-- Node3&#45;&gt;Node5 -->
<g id="edge4" class="edge">
<title>Node3&#45;&gt;Node5</title>
<path fill="none" stroke="midnightblue" d="M1365.04,-459.44C1280.16,-447.72 1130.94,-427.11 1066.76,-418.25"/>
<polygon fill="midnightblue" stroke="midnightblue" points="1066.89,-414.73 1056.51,-416.83 1065.93,-421.67 1066.89,-414.73"/>
</g>
<!-- Node9 -->
<g id="node9" class="node">
<title>Node9</title>
<g id="a_node9"><a xlink:href="game_object_8h.html" target="_top" xlink:title=" ">
<polygon fill="white" stroke="black" points="538.5,-168.5 538.5,-187.5 615.5,-187.5 615.5,-168.5 538.5,-168.5"/>
<text text-anchor="middle" x="577" y="-175.5" font-family="Helvetica,sans-Serif" font-size="10.00">gameObject.h</text>
</a>
</g>
</g>
<!-- Node3&#45;&gt;Node9 -->
<g id="edge77" class="edge">
<title>Node3&#45;&gt;Node9</title>
<path fill="none" stroke="midnightblue" d="M1358.85,-468.9C1185.79,-469.73 735.47,-462.47 628,-367 578.51,-323.04 574.88,-236.39 575.92,-198.03"/>
<polygon fill="midnightblue" stroke="midnightblue" points="579.43,-197.92 576.35,-187.78 572.43,-197.63 579.43,-197.92"/>
</g>
<!-- Node24 -->
<g id="node24" class="node">
<title>Node24</title>
<g id="a_node24"><a xlink:href="_unit_8h.html" target="_top" xlink:title=" ">
<polygon fill="white" stroke="black" points="1277,-230 1277,-249 1399,-249 1399,-230 1277,-230"/>
<text text-anchor="middle" x="1338" y="-237" font-family="Helvetica,sans-Serif" font-size="10.00">GameLogic/Units/Unit.h</text>
</a>
</g>
</g>
<!-- Node3&#45;&gt;Node24 -->
<g id="edge76" class="edge">
<title>Node3&#45;&gt;Node24</title>
<path fill="none" stroke="midnightblue" d="M1442.23,-459.4C1454.56,-451.58 1471.25,-438.85 1480,-423 1496.41,-393.26 1498.55,-379.28 1488,-347 1478.41,-317.68 1470.86,-310.55 1447,-291 1425.92,-273.73 1397.96,-260.93 1375.64,-252.54"/>
<polygon fill="midnightblue" stroke="midnightblue" points="1376.73,-249.22 1366.14,-249.11 1374.35,-255.8 1376.73,-249.22"/>
</g>
<!-- Node6 -->
<g id="node6" class="node">
<title>Node6</title>
<g id="a_node6"><a xlink:title=" ">
<polygon fill="white" stroke="#bfbfbf" points="770.5,-230 770.5,-249 805.5,-249 805.5,-230 770.5,-230"/>
<text text-anchor="middle" x="788" y="-237" font-family="Helvetica,sans-Serif" font-size="10.00">map</text>
</a>
</g>
</g>
<!-- Node5&#45;&gt;Node6 -->
<g id="edge5" class="edge">
<title>Node5&#45;&gt;Node6</title>
<path fill="none" stroke="midnightblue" d="M1015.32,-411.5C980.68,-409.66 910.2,-401.6 864,-367 826.53,-338.93 803.83,-286.48 793.9,-258.75"/>
<polygon fill="midnightblue" stroke="midnightblue" points="797.16,-257.47 790.62,-249.14 790.54,-259.73 797.16,-257.47"/>
</g>
<!-- Node7 -->
<g id="node7" class="node">
<title>Node7</title>
<g id="a_node7"><a xlink:title=" ">
<polygon fill="white" stroke="#bfbfbf" points="887,-347.5 887,-366.5 917,-366.5 917,-347.5 887,-347.5"/>
<text text-anchor="middle" x="902" y="-354.5" font-family="Helvetica,sans-Serif" font-size="10.00">set</text>
</a>
</g>
</g>
<!-- Node5&#45;&gt;Node7 -->
<g id="edge6" class="edge">
<title>Node5&#45;&gt;Node7</title>
<path fill="none" stroke="midnightblue" d="M1015.36,-403.68C991.38,-394.02 951.86,-378.09 926.38,-367.83"/>
<polygon fill="midnightblue" stroke="midnightblue" points="927.64,-364.56 917.05,-364.07 925.02,-371.05 927.64,-364.56"/>
</g>
<!-- Node8 -->
<g id="node8" class="node">
<title>Node8</title>
<g id="a_node8"><a xlink:href="gameplay_clickable_game_object_8h.html" target="_top" xlink:title=" ">
<polygon fill="white" stroke="black" points="823.5,-224.5 823.5,-254.5 952.5,-254.5 952.5,-224.5 823.5,-224.5"/>
<text text-anchor="start" x="831.5" y="-242.5" font-family="Helvetica,sans-Serif" font-size="10.00">engine/gameplayClickable</text>
<text text-anchor="middle" x="888" y="-231.5" font-family="Helvetica,sans-Serif" font-size="10.00">GameObject.h</text>
</a>
</g>
</g>
<!-- Node5&#45;&gt;Node8 -->
<g id="edge7" class="edge">
<title>Node5&#45;&gt;Node8</title>
<path fill="none" stroke="midnightblue" d="M1015.32,-409.2C976.39,-403.46 894.63,-389.02 878,-367 855.64,-337.38 867.04,-291.96 877.45,-264.36"/>
<polygon fill="midnightblue" stroke="midnightblue" points="880.84,-265.31 881.32,-254.73 874.34,-262.7 880.84,-265.31"/>
</g>
<!-- Node11 -->
<g id="node11" class="node">
<title>Node11</title>
<g id="a_node11"><a xlink:href="config_8h.html" target="_top" xlink:title=" ">
<polygon fill="white" stroke="black" points="1469.5,-112.5 1469.5,-131.5 1550.5,-131.5 1550.5,-112.5 1469.5,-112.5"/>
<text text-anchor="middle" x="1510" y="-119.5" font-family="Helvetica,sans-Serif" font-size="10.00">engine/config.h</text>
</a>
</g>
</g>
<!-- Node5&#45;&gt;Node11 -->
<g id="edge27" class="edge">
<title>Node5&#45;&gt;Node11</title>
<path fill="none" stroke="midnightblue" d="M1056.65,-404.61C1058.45,-404.04 1060.25,-403.49 1062,-403 1133.4,-382.83 1155.31,-392.44 1225,-367 1293.35,-342.05 1304.8,-323.31 1370,-291 1403.85,-274.23 1416.77,-277.65 1447,-255 1478.75,-231.21 1490.85,-224.67 1506,-188 1512.01,-173.45 1512.67,-155.5 1512.01,-142.16"/>
<polygon fill="midnightblue" stroke="midnightblue" points="1515.47,-141.51 1511.21,-131.81 1508.5,-142.05 1515.47,-141.51"/>
</g>
<!-- Node14 -->
<g id="node14" class="node">
<title>Node14</title>
<g id="a_node14"><a xlink:href="_facade_8h.html" target="_top" xlink:title=" ">
<polygon fill="white" stroke="black" points="1335,-0.5 1335,-19.5 1391,-19.5 1391,-0.5 1335,-0.5"/>
<text text-anchor="middle" x="1363" y="-7.5" font-family="Helvetica,sans-Serif" font-size="10.00">Facade.h</text>
</a>
</g>
</g>
<!-- Node5&#45;&gt;Node14 -->
<g id="edge28" class="edge">
<title>Node5&#45;&gt;Node14</title>
<path fill="none" stroke="midnightblue" d="M1015.14,-411.22C950.64,-408.52 748.91,-398.02 585,-367 552.79,-360.9 545.93,-354.44 514,-347 428.6,-327.09 403.94,-336.39 320,-311 259.39,-292.67 227.42,-305.33 189,-255 150.16,-204.13 140.51,-167.72 172,-112 195.74,-70 218.79,-69.87 265,-56 368.08,-25.07 1142.39,-13.71 1324.66,-11.44"/>
<polygon fill="midnightblue" stroke="midnightblue" points="1324.88,-14.94 1334.84,-11.32 1324.8,-7.94 1324.88,-14.94"/>
</g>
<!-- Node17 -->
<g id="node17" class="node">
<title>Node17</title>
<g id="a_node17"><a xlink:title=" ">
<polygon fill="white" stroke="#bfbfbf" points="625,-56.5 625,-75.5 679,-75.5 679,-56.5 625,-56.5"/>
<text text-anchor="middle" x="652" y="-63.5" font-family="Helvetica,sans-Serif" font-size="10.00">iostream</text>
</a>
</g>
</g>
<!-- Node5&#45;&gt;Node17 -->
<g id="edge51" class="edge">
<title>Node5&#45;&gt;Node17</title>
<path fill="none" stroke="midnightblue" d="M1015.47,-411.03C969.07,-408.33 853.06,-398.69 762,-367 744.71,-360.98 742.19,-355.54 726,-347 694.36,-330.31 683.07,-331.86 654,-311 585.66,-261.95 494.2,-244.12 530,-168 549.43,-126.69 594.97,-96.48 624.59,-80.35"/>
<polygon fill="midnightblue" stroke="midnightblue" points="626.37,-83.36 633.59,-75.61 623.11,-77.17 626.37,-83.36"/>
</g>
<!-- Node19 -->
<g id="node19" class="node">
<title>Node19</title>
<g id="a_node19"><a xlink:href="cellgen_8h.html" target="_top" xlink:title=" ">
<polygon fill="white" stroke="black" points="662.5,-291.5 662.5,-310.5 733.5,-310.5 733.5,-291.5 662.5,-291.5"/>
<text text-anchor="middle" x="698" y="-298.5" font-family="Helvetica,sans-Serif" font-size="10.00">util/cellgen.h</text>
</a>
</g>
</g>
<!-- Node5&#45;&gt;Node19 -->
<g id="edge18" class="edge">
<title>Node5&#45;&gt;Node19</title>
<path fill="none" stroke="midnightblue" d="M1015.44,-410.34C974.55,-406.52 880.59,-395.19 807,-367 773.51,-354.17 738.55,-331.38 717.52,-316.48"/>
<polygon fill="midnightblue" stroke="midnightblue" points="719.57,-313.64 709.41,-310.63 715.47,-319.32 719.57,-313.64"/>
</g>
<!-- Node21 -->
<g id="node21" class="node">
<title>Node21</title>
<g id="a_node21"><a xlink:href="_all_flags_8h.html" target="_top" xlink:title=" ">
<polygon fill="white" stroke="black" points="1154.5,-168.5 1154.5,-187.5 1213.5,-187.5 1213.5,-168.5 1154.5,-168.5"/>
<text text-anchor="middle" x="1184" y="-175.5" font-family="Helvetica,sans-Serif" font-size="10.00">AllFlags.h</text>
</a>
</g>
</g>
<!-- Node5&#45;&gt;Node21 -->
<g id="edge22" class="edge">
<title>Node5&#45;&gt;Node21</title>
<path fill="none" stroke="midnightblue" d="M1056.67,-404.67C1058.47,-404.09 1060.26,-403.52 1062,-403 1123.52,-384.48 1152.02,-407.37 1202,-367 1252.08,-326.55 1250.46,-283.12 1225,-224 1220.12,-212.67 1211.17,-202.32 1202.87,-194.41"/>
<polygon fill="midnightblue" stroke="midnightblue" points="1205.06,-191.67 1195.27,-187.62 1200.4,-196.89 1205.06,-191.67"/>
</g>
<!-- Node23 -->
<g id="node23" class="node">
<title>Node23</title>
<g id="a_node23"><a xlink:href="_squad_8h.html" target="_top" xlink:title=" ">
<polygon fill="white" stroke="black" points="1169,-291.5 1169,-310.5 1221,-310.5 1221,-291.5 1169,-291.5"/>
<text text-anchor="middle" x="1195" y="-298.5" font-family="Helvetica,sans-Serif" font-size="10.00">Squad.h</text>
</a>
</g>
</g>
<!-- Node5&#45;&gt;Node23 -->
<g id="edge29" class="edge">
<title>Node5&#45;&gt;Node23</title>
<path fill="none" stroke="midnightblue" d="M1056.66,-410.33C1085.02,-406.99 1135.1,-396.98 1165,-367 1177.28,-354.69 1182.38,-335.16 1186.19,-320.71"/>
<polygon fill="midnightblue" stroke="midnightblue" points="1189.62,-321.44 1188.95,-310.87 1182.88,-319.55 1189.62,-321.44"/>
</g>
<!-- Node5&#45;&gt;Node30 -->
<g id="edge75" class="edge">
<title>Node5&#45;&gt;Node30</title>
<path fill="none" stroke="midnightblue" d="M1056.61,-411.35C1132.35,-408.76 1394.84,-397.68 1472,-367 1535.5,-341.75 1595.31,-284.67 1622.17,-256.64"/>
<polygon fill="midnightblue" stroke="midnightblue" points="1624.82,-258.93 1629.13,-249.25 1619.73,-254.13 1624.82,-258.93"/>
</g>
<!-- Node31 -->
<g id="node31" class="node">
<title>Node31</title>
<g id="a_node31"><a xlink:href="geometry_8h.html" target="_top" xlink:title=" ">
<polygon fill="white" stroke="black" points="637,-347.5 637,-366.5 717,-366.5 717,-347.5 637,-347.5"/>
<text text-anchor="middle" x="677" y="-354.5" font-family="Helvetica,sans-Serif" font-size="10.00">util/geometry.h</text>
</a>
</g>
</g>
<!-- Node5&#45;&gt;Node31 -->
<g id="edge52" class="edge">
<title>Node5&#45;&gt;Node31</title>
<path fill="none" stroke="midnightblue" d="M1015.27,-409.08C965.96,-402.1 837.81,-383.78 731,-367 729.73,-366.8 728.45,-366.6 727.15,-366.39"/>
<polygon fill="midnightblue" stroke="midnightblue" points="727.52,-362.91 717.09,-364.77 726.41,-369.82 727.52,-362.91"/>
</g>
<!-- Node32 -->
<g id="node32" class="node">
<title>Node32</title>
<g id="a_node32"><a xlink:href="_none_8h.html" target="_top" xlink:title=" ">
<polygon fill="white" stroke="black" points="765.5,-168.5 765.5,-187.5 878.5,-187.5 878.5,-168.5 765.5,-168.5"/>
<text text-anchor="middle" x="822" y="-175.5" font-family="Helvetica,sans-Serif" font-size="10.00">engine/actions/None.h</text>
</a>
</g>
</g>
<!-- Node5&#45;&gt;Node32 -->
<g id="edge55" class="edge">
<title>Node5&#45;&gt;Node32</title>
<path fill="none" stroke="midnightblue" d="M1025.9,-403.39C1016.74,-395.01 1003.53,-381.46 996,-367 965.83,-309.06 1006.37,-271.95 962,-224 943.09,-203.56 914.88,-192.37 888.73,-186.26"/>
<polygon fill="midnightblue" stroke="midnightblue" points="889.34,-182.81 878.83,-184.15 887.88,-189.66 889.34,-182.81"/>
</g>
<!-- Node33 -->
<g id="node33" class="node">
<title>Node33</title>
<g id="a_node33"><a xlink:href="game_controller_8h.html" target="_top" xlink:title=" ">
<polygon fill="white" stroke="black" points="328.5,-291.5 328.5,-310.5 449.5,-310.5 449.5,-291.5 328.5,-291.5"/>
<text text-anchor="middle" x="389" y="-298.5" font-family="Helvetica,sans-Serif" font-size="10.00">engine/gameController.h</text>
</a>
</g>
</g>
<!-- Node5&#45;&gt;Node33 -->
<g id="edge57" class="edge">
<title>Node5&#45;&gt;Node33</title>
<path fill="none" stroke="midnightblue" d="M1015.17,-412.07C954.34,-411.76 772.13,-407.29 628,-367 607.7,-361.33 604.94,-353.84 585,-347 540.49,-331.73 488.53,-320.07 449.29,-312.44"/>
<polygon fill="midnightblue" stroke="midnightblue" points="449.83,-308.98 439.35,-310.55 448.51,-315.86 449.83,-308.98"/>
</g>
<!-- Node37 -->
<g id="node37" class="node">
<title>Node37</title>
<g id="a_node37"><a xlink:href="_set_squad_path_8h.html" target="_top" xlink:title=" ">
<polygon fill="white" stroke="black" points="1011.5,-347.5 1011.5,-366.5 1164.5,-366.5 1164.5,-347.5 1011.5,-347.5"/>
<text text-anchor="middle" x="1088" y="-354.5" font-family="Helvetica,sans-Serif" font-size="10.00">engine/actions/SetSquadPath.h</text>
</a>
</g>
</g>
<!-- Node5&#45;&gt;Node37 -->
<g id="edge66" class="edge">
<title>Node5&#45;&gt;Node37</title>
<path fill="none" stroke="midnightblue" d="M1039.42,-403.08C1045.45,-395.06 1056.63,-383.1 1066.89,-373.51"/>
<polygon fill="midnightblue" stroke="midnightblue" points="1069.32,-376.03 1074.44,-366.75 1064.66,-370.81 1069.32,-376.03"/>
</g>
<!-- Node38 -->
<g id="node38" class="node">
<title>Node38</title>
<g id="a_node38"><a xlink:href="_all_units_8h.html" target="_top" xlink:title=" ">
<polygon fill="white" stroke="black" points="1378.5,-291.5 1378.5,-310.5 1437.5,-310.5 1437.5,-291.5 1378.5,-291.5"/>
<text text-anchor="middle" x="1408" y="-298.5" font-family="Helvetica,sans-Serif" font-size="10.00">AllUnits.h</text>
</a>
</g>
</g>
<!-- Node5&#45;&gt;Node38 -->
<g id="edge70" class="edge">
<title>Node5&#45;&gt;Node38</title>
<path fill="none" stroke="midnightblue" d="M1056.62,-411.13C1102.12,-408.65 1213.99,-399.46 1301,-367 1334.17,-354.63 1368.45,-331.68 1389,-316.63"/>
<polygon fill="midnightblue" stroke="midnightblue" points="1391.25,-319.31 1397.17,-310.52 1387.06,-313.71 1391.25,-319.31"/>
</g>
<!-- Node39 -->
<g id="node39" class="node">
<title>Node39</title>
<g id="a_node39"><a xlink:href="_all_squad_templates_8h.html" target="_top" xlink:title=" ">
<polygon fill="white" stroke="black" points="1353.5,-347.5 1353.5,-366.5 1462.5,-366.5 1462.5,-347.5 1353.5,-347.5"/>
<text text-anchor="middle" x="1408" y="-354.5" font-family="Helvetica,sans-Serif" font-size="10.00">AllSquadTemplates.h</text>
</a>
</g>
</g>
<!-- Node5&#45;&gt;Node39 -->
<g id="edge72" class="edge">
<title>Node5&#45;&gt;Node39</title>
<path fill="none" stroke="midnightblue" d="M1056.53,-409.02C1110.37,-401.2 1257.41,-379.86 1343.29,-367.39"/>
<polygon fill="midnightblue" stroke="midnightblue" points="1343.8,-370.86 1353.19,-365.96 1342.79,-363.93 1343.8,-370.86"/>
</g>
<!-- Node8&#45;&gt;Node9 -->
<g id="edge8" class="edge">
<title>Node8&#45;&gt;Node9</title>
<path fill="none" stroke="midnightblue" d="M823.13,-225.58C820.38,-225.05 817.66,-224.52 815,-224 749.48,-211.3 673.72,-197.05 625.61,-188.05"/>
<polygon fill="midnightblue" stroke="midnightblue" points="626.24,-184.61 615.77,-186.22 624.96,-191.49 626.24,-184.61"/>
</g>
<!-- Node10 -->
<g id="node10" class="node">
<title>Node10</title>
<g id="a_node10"><a xlink:title=" ">
<polygon fill="white" stroke="#bfbfbf" points="180.5,-112.5 180.5,-131.5 209.5,-131.5 209.5,-112.5 180.5,-112.5"/>
<text text-anchor="middle" x="195" y="-119.5" font-family="Helvetica,sans-Serif" font-size="10.00">list</text>
</a>
</g>
</g>
<!-- Node9&#45;&gt;Node10 -->
<g id="edge9" class="edge">
<title>Node9&#45;&gt;Node10</title>
<path fill="none" stroke="midnightblue" d="M538.27,-171.53C459.91,-160.45 284.53,-135.66 219.7,-126.49"/>
<polygon fill="midnightblue" stroke="midnightblue" points="219.99,-123 209.6,-125.06 219.02,-129.93 219.99,-123"/>
</g>
<!-- Node9&#45;&gt;Node11 -->
<g id="edge10" class="edge">
<title>Node9&#45;&gt;Node11</title>
<path fill="none" stroke="midnightblue" d="M615.61,-175.07C774.44,-167.12 1372.77,-137.13 1459.37,-131.62"/>
<polygon fill="midnightblue" stroke="midnightblue" points="1459.7,-135.1 1469.42,-130.88 1459.19,-128.12 1459.7,-135.1"/>
</g>
<!-- Node16 -->
<g id="node16" class="node">
<title>Node16</title>
<g id="a_node16"><a xlink:href="engine_2_action_8h.html" target="_top" xlink:title=" ">
<polygon fill="white" stroke="black" points="780.5,-112.5 780.5,-131.5 863.5,-131.5 863.5,-112.5 780.5,-112.5"/>
<text text-anchor="middle" x="822" y="-119.5" font-family="Helvetica,sans-Serif" font-size="10.00">engine/Action.h</text>
</a>
</g>
</g>
<!-- Node9&#45;&gt;Node16 -->
<g id="edge15" class="edge">
<title>Node9&#45;&gt;Node16</title>
<path fill="none" stroke="midnightblue" d="M615.55,-168.5C658.24,-159.09 727.12,-143.91 773.45,-133.7"/>
<polygon fill="midnightblue" stroke="midnightblue" points="774.26,-137.11 783.27,-131.54 772.75,-130.27 774.26,-137.11"/>
</g>
<!-- Node12 -->
<g id="node12" class="node">
<title>Node12</title>
<g id="a_node12"><a xlink:href="_s_f_m_l_facade_8h.html" target="_top" xlink:title=" ">
<polygon fill="white" stroke="black" points="1633.5,-56.5 1633.5,-75.5 1756.5,-75.5 1756.5,-56.5 1633.5,-56.5"/>
<text text-anchor="middle" x="1695" y="-63.5" font-family="Helvetica,sans-Serif" font-size="10.00">graphics/SFMLFacade.h</text>
</a>
</g>
</g>
<!-- Node11&#45;&gt;Node12 -->
<g id="edge11" class="edge">
<title>Node11&#45;&gt;Node12</title>
<path fill="none" stroke="midnightblue" d="M1539.31,-112.44C1570.84,-103.24 1621.13,-88.56 1655.99,-78.39"/>
<polygon fill="midnightblue" stroke="midnightblue" points="1657.2,-81.68 1665.82,-75.52 1655.24,-74.96 1657.2,-81.68"/>
</g>
<!-- Node15 -->
<g id="node15" class="node">
<title>Node15</title>
<g id="a_node15"><a xlink:title=" ">
<polygon fill="white" stroke="#bfbfbf" points="1461,-56.5 1461,-75.5 1559,-75.5 1559,-56.5 1461,-56.5"/>
<text text-anchor="middle" x="1510" y="-63.5" font-family="Helvetica,sans-Serif" font-size="10.00">nlohmann/json.hpp</text>
</a>
</g>
</g>
<!-- Node11&#45;&gt;Node15 -->
<g id="edge14" class="edge">
<title>Node11&#45;&gt;Node15</title>
<path fill="none" stroke="midnightblue" d="M1510,-112.08C1510,-105.01 1510,-94.86 1510,-85.99"/>
<polygon fill="midnightblue" stroke="midnightblue" points="1513.5,-85.75 1510,-75.75 1506.5,-85.75 1513.5,-85.75"/>
</g>
<!-- Node13 -->
<g id="node13" class="node">
<title>Node13</title>
<g id="a_node13"><a xlink:title=" ">
<polygon fill="white" stroke="#bfbfbf" points="1643,-0.5 1643,-19.5 1747,-19.5 1747,-0.5 1643,-0.5"/>
<text text-anchor="middle" x="1695" y="-7.5" font-family="Helvetica,sans-Serif" font-size="10.00">SFML/Graphics.hpp</text>
</a>
</g>
</g>
<!-- Node12&#45;&gt;Node13 -->
<g id="edge12" class="edge">
<title>Node12&#45;&gt;Node13</title>
<path fill="none" stroke="midnightblue" d="M1695,-56.08C1695,-49.01 1695,-38.86 1695,-29.99"/>
<polygon fill="midnightblue" stroke="midnightblue" points="1698.5,-29.75 1695,-19.75 1691.5,-29.75 1698.5,-29.75"/>
</g>
<!-- Node12&#45;&gt;Node14 -->
<g id="edge13" class="edge">
<title>Node12&#45;&gt;Node14</title>
<path fill="none" stroke="midnightblue" d="M1642.39,-56.44C1575.3,-45.53 1460.85,-26.92 1401.4,-17.25"/>
<polygon fill="midnightblue" stroke="midnightblue" points="1401.74,-13.76 1391.31,-15.6 1400.62,-20.67 1401.74,-13.76"/>
</g>
<!-- Node16&#45;&gt;Node17 -->
<g id="edge16" class="edge">
<title>Node16&#45;&gt;Node17</title>
<path fill="none" stroke="midnightblue" d="M795.06,-112.44C766.34,-103.32 720.67,-88.81 688.68,-78.65"/>
<polygon fill="midnightblue" stroke="midnightblue" points="689.4,-75.21 678.81,-75.52 687.28,-81.88 689.4,-75.21"/>
</g>
<!-- Node18 -->
<g id="node18" class="node">
<title>Node18</title>
<g id="a_node18"><a xlink:title=" ">
<polygon fill="white" stroke="#bfbfbf" points="1165.5,-56.5 1165.5,-75.5 1216.5,-75.5 1216.5,-56.5 1165.5,-56.5"/>
<text text-anchor="middle" x="1191" y="-63.5" font-family="Helvetica,sans-Serif" font-size="10.00">memory</text>
</a>
</g>
</g>
<!-- Node16&#45;&gt;Node18 -->
<g id="edge17" class="edge">
<title>Node16&#45;&gt;Node18</title>
<path fill="none" stroke="midnightblue" d="M863.61,-114.91C936.61,-104.23 1086.49,-82.29 1155.18,-72.24"/>
<polygon fill="midnightblue" stroke="midnightblue" points="1156.09,-75.65 1165.48,-70.73 1155.08,-68.72 1156.09,-75.65"/>
</g>
<!-- Node19&#45;&gt;Node2 -->
<g id="edge19" class="edge">
<title>Node19&#45;&gt;Node2</title>
<path fill="none" stroke="midnightblue" d="M662.31,-298.32C571.88,-293.7 339.15,-279.55 315,-255 269.96,-209.23 282.69,-123.53 291.18,-85.73"/>
<polygon fill="midnightblue" stroke="midnightblue" points="294.67,-86.18 293.61,-75.64 287.86,-84.54 294.67,-86.18"/>
</g>
<!-- Node19&#45;&gt;Node6 -->
<g id="edge20" class="edge">
<title>Node19&#45;&gt;Node6</title>
<path fill="none" stroke="midnightblue" d="M710.89,-291.48C725.46,-281.84 749.4,-266.02 766.75,-254.55"/>
<polygon fill="midnightblue" stroke="midnightblue" points="768.72,-257.44 775.13,-249.01 764.86,-251.6 768.72,-257.44"/>
</g>
<!-- Node20 -->
<g id="node20" class="node">
<title>Node20</title>
<g id="a_node20"><a xlink:title=" ">
<polygon fill="white" stroke="#bfbfbf" points="624,-230 624,-249 752,-249 752,-230 624,-230"/>
<text text-anchor="middle" x="688" y="-237" font-family="Helvetica,sans-Serif" font-size="10.00">scanline_triangulation.hpp</text>
</a>
</g>
</g>
<!-- Node19&#45;&gt;Node20 -->
<g id="edge21" class="edge">
<title>Node19&#45;&gt;Node20</title>
<path fill="none" stroke="midnightblue" d="M696.57,-291.48C695.16,-283.08 692.95,-269.98 691.14,-259.16"/>
<polygon fill="midnightblue" stroke="midnightblue" points="694.54,-258.29 689.43,-249.01 687.64,-259.45 694.54,-258.29"/>
</g>
<!-- Node21&#45;&gt;Node18 -->
<g id="edge26" class="edge">
<title>Node21&#45;&gt;Node18</title>
<path fill="none" stroke="midnightblue" d="M1190.1,-168.19C1195.75,-159.46 1203.76,-145.48 1207,-132 1210.82,-116.13 1205.63,-98.11 1200.17,-85.07"/>
<polygon fill="midnightblue" stroke="midnightblue" points="1203.27,-83.44 1195.9,-75.82 1196.92,-86.37 1203.27,-83.44"/>
</g>
<!-- Node22 -->
<g id="node22" class="node">
<title>Node22</title>
<g id="a_node22"><a xlink:href="_flag_8h.html" target="_top" xlink:title=" ">
<polygon fill="white" stroke="black" points="1154.5,-112.5 1154.5,-131.5 1197.5,-131.5 1197.5,-112.5 1154.5,-112.5"/>
<text text-anchor="middle" x="1176" y="-119.5" font-family="Helvetica,sans-Serif" font-size="10.00">Flag.h</text>
</a>
</g>
</g>
<!-- Node21&#45;&gt;Node22 -->
<g id="edge23" class="edge">
<title>Node21&#45;&gt;Node22</title>
<path fill="none" stroke="midnightblue" d="M1182.68,-168.08C1181.62,-160.93 1180.09,-150.64 1178.77,-141.69"/>
<polygon fill="midnightblue" stroke="midnightblue" points="1182.22,-141.13 1177.3,-131.75 1175.3,-142.16 1182.22,-141.13"/>
</g>
<!-- Node22&#45;&gt;Node2 -->
<g id="edge24" class="edge">
<title>Node22&#45;&gt;Node2</title>
<path fill="none" stroke="midnightblue" d="M1154.25,-119.67C1035.98,-112.41 470.4,-77.7 328.4,-68.99"/>
<polygon fill="midnightblue" stroke="midnightblue" points="328.37,-65.48 318.18,-68.36 327.95,-72.47 328.37,-65.48"/>
</g>
<!-- Node22&#45;&gt;Node4 -->
<g id="edge25" class="edge">
<title>Node22&#45;&gt;Node4</title>
<path fill="none" stroke="midnightblue" d="M1190.3,-112.32C1204.18,-103.9 1225.49,-90.97 1241.8,-81.07"/>
<polygon fill="midnightblue" stroke="midnightblue" points="1244,-83.83 1250.74,-75.65 1240.37,-77.85 1244,-83.83"/>
</g>
<!-- Node23&#45;&gt;Node5 -->
<g id="edge30" class="edge">
<title>Node23&#45;&gt;Node5</title>
<path fill="none" stroke="midnightblue" d="M1200.27,-310.87C1202.52,-324.73 1198.41,-351.55 1183,-367 1152.25,-397.83 1100.14,-407.54 1066.74,-410.6"/>
<polygon fill="midnightblue" stroke="midnightblue" points="1066.31,-407.12 1056.61,-411.38 1066.85,-414.1 1066.31,-407.12"/>
</g>
<!-- Node23&#45;&gt;Node8 -->
<g id="edge42" class="edge">
<title>Node23&#45;&gt;Node8</title>
<path fill="none" stroke="midnightblue" d="M1168.83,-294.93C1123.66,-286.17 1029.5,-267.92 962.68,-254.97"/>
<polygon fill="midnightblue" stroke="midnightblue" points="963.1,-251.49 952.62,-253.02 961.77,-258.36 963.1,-251.49"/>
</g>
<!-- Node23&#45;&gt;Node11 -->
<g id="edge46" class="edge">
<title>Node23&#45;&gt;Node11</title>
<path fill="none" stroke="midnightblue" d="M1221.23,-298.54C1262.79,-295.36 1345.46,-285.42 1408,-255 1449.71,-234.71 1461.81,-226.28 1488,-188 1497.56,-174.02 1503.29,-155.52 1506.49,-141.83"/>
<polygon fill="midnightblue" stroke="midnightblue" points="1510,-142.17 1508.62,-131.67 1503.14,-140.74 1510,-142.17"/>
</g>
<!-- Node23&#45;&gt;Node14 -->
<g id="edge47" class="edge">
<title>Node23&#45;&gt;Node14</title>
<path fill="none" stroke="midnightblue" d="M1196.87,-291.44C1199.63,-276.73 1203.31,-246.1 1192,-224 1180.17,-200.89 1157.37,-211.34 1146,-188 1120.21,-135.08 1115.81,-98.06 1157,-56 1179.93,-32.58 1271.57,-19.91 1324.58,-14.4"/>
<polygon fill="midnightblue" stroke="midnightblue" points="1325.03,-17.88 1334.63,-13.4 1324.33,-10.91 1325.03,-17.88"/>
</g>
<!-- Node23&#45;&gt;Node24 -->
<g id="edge31" class="edge">
<title>Node23&#45;&gt;Node24</title>
<path fill="none" stroke="midnightblue" d="M1210.59,-291.48C1232.79,-281.31 1273.56,-264.26 1303.11,-252.7"/>
<polygon fill="midnightblue" stroke="midnightblue" points="1304.59,-255.88 1312.65,-249.01 1302.06,-249.35 1304.59,-255.88"/>
</g>
<!-- Node29 -->
<g id="node29" class="node">
<title>Node29</title>
<g id="a_node29"><a xlink:href="_game_logic_2_squad_2_action_8h.html" target="_top" xlink:title=" ">
<polygon fill="white" stroke="black" points="1047,-230 1047,-249 1183,-249 1183,-230 1047,-230"/>
<text text-anchor="middle" x="1115" y="-237" font-family="Helvetica,sans-Serif" font-size="10.00">GameLogic/Squad/Action.h</text>
</a>
</g>
</g>
<!-- Node23&#45;&gt;Node29 -->
<g id="edge43" class="edge">
<title>Node23&#45;&gt;Node29</title>
<path fill="none" stroke="midnightblue" d="M1178.64,-291.48C1164,-282.11 1143.18,-266.88 1129.23,-255.51"/>
<polygon fill="midnightblue" stroke="midnightblue" points="1131.44,-252.79 1121.54,-249.01 1126.92,-258.14 1131.44,-252.79"/>
</g>
<!-- Node23&#45;&gt;Node30 -->
<g id="edge48" class="edge">
<title>Node23&#45;&gt;Node30</title>
<path fill="none" stroke="midnightblue" d="M1221.33,-296.46C1296.97,-286.27 1515.04,-256.92 1601.28,-245.31"/>
<polygon fill="midnightblue" stroke="midnightblue" points="1601.92,-248.75 1611.37,-243.95 1600.99,-241.82 1601.92,-248.75"/>
</g>
<!-- Node24&#45;&gt;Node21 -->
<g id="edge37" class="edge">
<title>Node24&#45;&gt;Node21</title>
<path fill="none" stroke="midnightblue" d="M1315.94,-229.98C1289.63,-219.81 1245.49,-202.76 1215.58,-191.2"/>
<polygon fill="midnightblue" stroke="midnightblue" points="1216.61,-187.85 1206.02,-187.51 1214.09,-194.38 1216.61,-187.85"/>
</g>
<!-- Node24&#45;&gt;Node23 -->
<g id="edge36" class="edge">
<title>Node24&#45;&gt;Node23</title>
<path fill="none" stroke="midnightblue" d="M1322.45,-249.01C1300.26,-259.16 1259.49,-276.22 1229.94,-287.78"/>
<polygon fill="midnightblue" stroke="midnightblue" points="1228.45,-284.6 1220.39,-291.48 1230.98,-291.13 1228.45,-284.6"/>
</g>
<!-- Node25 -->
<g id="node25" class="node">
<title>Node25</title>
<g id="a_node25"><a xlink:title=" ">
<polygon fill="white" stroke="#bfbfbf" points="1316.5,-168.5 1316.5,-187.5 1359.5,-187.5 1359.5,-168.5 1316.5,-168.5"/>
<text text-anchor="middle" x="1338" y="-175.5" font-family="Helvetica,sans-Serif" font-size="10.00">cstdio</text>
</a>
</g>
</g>
<!-- Node24&#45;&gt;Node25 -->
<g id="edge32" class="edge">
<title>Node24&#45;&gt;Node25</title>
<path fill="none" stroke="midnightblue" d="M1338,-229.98C1338,-221.58 1338,-208.48 1338,-197.66"/>
<polygon fill="midnightblue" stroke="midnightblue" points="1341.5,-197.51 1338,-187.51 1334.5,-197.51 1341.5,-197.51"/>
</g>
<!-- Node26 -->
<g id="node26" class="node">
<title>Node26</title>
<g id="a_node26"><a xlink:href="_unit_order_8h.html" target="_top" xlink:title=" ">
<polygon fill="white" stroke="black" points="1232,-168.5 1232,-187.5 1298,-187.5 1298,-168.5 1232,-168.5"/>
<text text-anchor="middle" x="1265" y="-175.5" font-family="Helvetica,sans-Serif" font-size="10.00">UnitOrder.h</text>
</a>
</g>
</g>
<!-- Node24&#45;&gt;Node26 -->
<g id="edge33" class="edge">
<title>Node24&#45;&gt;Node26</title>
<path fill="none" stroke="midnightblue" d="M1322.64,-229.98C1309.36,-220.78 1290.79,-205.96 1278.18,-194.66"/>
<polygon fill="midnightblue" stroke="midnightblue" points="1280.24,-191.78 1270.54,-187.51 1275.45,-196.9 1280.24,-191.78"/>
</g>
<!-- Node27 -->
<g id="node27" class="node">
<title>Node27</title>
<g id="a_node27"><a xlink:href="_textures_8h.html" target="_top" xlink:title=" ">
<polygon fill="white" stroke="black" points="1377.5,-168.5 1377.5,-187.5 1478.5,-187.5 1478.5,-168.5 1377.5,-168.5"/>
<text text-anchor="middle" x="1428" y="-175.5" font-family="Helvetica,sans-Serif" font-size="10.00">graphics/Textures.h</text>
</a>
</g>
</g>
<!-- Node24&#45;&gt;Node27 -->
<g id="edge38" class="edge">
<title>Node24&#45;&gt;Node27</title>
<path fill="none" stroke="midnightblue" d="M1350.89,-229.98C1365.46,-220.34 1389.4,-204.52 1406.75,-193.05"/>
<polygon fill="midnightblue" stroke="midnightblue" points="1408.72,-195.94 1415.13,-187.51 1404.86,-190.1 1408.72,-195.94"/>
</g>
<!-- Node26&#45;&gt;Node4 -->
<g id="edge34" class="edge">
<title>Node26&#45;&gt;Node4</title>
<path fill="none" stroke="midnightblue" d="M1265,-168.37C1265,-150.62 1265,-109.67 1265,-85.6"/>
<polygon fill="midnightblue" stroke="midnightblue" points="1268.5,-85.59 1265,-75.59 1261.5,-85.59 1268.5,-85.59"/>
</g>
<!-- Node26&#45;&gt;Node24 -->
<g id="edge35" class="edge">
<title>Node26&#45;&gt;Node24</title>
<path fill="none" stroke="midnightblue" d="M1280.34,-187.51C1293.61,-196.69 1312.18,-211.52 1324.8,-222.82"/>
<polygon fill="midnightblue" stroke="midnightblue" points="1322.75,-225.7 1332.44,-229.98 1327.53,-220.59 1322.75,-225.7"/>
</g>
<!-- Node27&#45;&gt;Node2 -->
<g id="edge40" class="edge">
<title>Node27&#45;&gt;Node2</title>
<path fill="none" stroke="midnightblue" d="M1405.51,-168.45C1366.02,-153.88 1281.33,-124.58 1207,-112 1119.04,-97.11 480.07,-73.57 328.28,-68.14"/>
<polygon fill="midnightblue" stroke="midnightblue" points="328.33,-64.64 318.21,-67.78 328.08,-71.64 328.33,-64.64"/>
</g>
<!-- Node27&#45;&gt;Node11 -->
<g id="edge39" class="edge">
<title>Node27&#45;&gt;Node11</title>
<path fill="none" stroke="midnightblue" d="M1441.17,-168.32C1453.85,-159.98 1473.23,-147.21 1488.21,-137.35"/>
<polygon fill="midnightblue" stroke="midnightblue" points="1490.43,-140.08 1496.86,-131.65 1486.58,-134.23 1490.43,-140.08"/>
</g>
<!-- Node28 -->
<g id="node28" class="node">
<title>Node28</title>
<g id="a_node28"><a xlink:title=" ">
<polygon fill="white" stroke="#bfbfbf" points="1368.5,-112.5 1368.5,-131.5 1451.5,-131.5 1451.5,-112.5 1368.5,-112.5"/>
<text text-anchor="middle" x="1410" y="-119.5" font-family="Helvetica,sans-Serif" font-size="10.00">unordered_map</text>
</a>
</g>
</g>
<!-- Node27&#45;&gt;Node28 -->
<g id="edge41" class="edge">
<title>Node27&#45;&gt;Node28</title>
<path fill="none" stroke="midnightblue" d="M1425.03,-168.08C1422.62,-160.85 1419.14,-150.41 1416.13,-141.4"/>
<polygon fill="midnightblue" stroke="midnightblue" points="1419.4,-140.13 1412.92,-131.75 1412.76,-142.34 1419.4,-140.13"/>
</g>
<!-- Node29&#45;&gt;Node5 -->
<g id="edge45" class="edge">
<title>Node29&#45;&gt;Node5</title>
<path fill="none" stroke="midnightblue" d="M1099.7,-249.24C1073.97,-264.94 1022.89,-300.64 1003,-347 995.64,-364.14 1007.7,-383.1 1019.25,-396.09"/>
<polygon fill="midnightblue" stroke="midnightblue" points="1016.76,-398.54 1026.2,-403.34 1021.81,-393.7 1016.76,-398.54"/>
</g>
<!-- Node29&#45;&gt;Node23 -->
<g id="edge44" class="edge">
<title>Node29&#45;&gt;Node23</title>
<path fill="none" stroke="midnightblue" d="M1131.34,-249.01C1145.97,-258.37 1166.79,-273.59 1180.75,-284.97"/>
<polygon fill="midnightblue" stroke="midnightblue" points="1178.54,-287.69 1188.44,-291.48 1183.06,-282.35 1178.54,-287.69"/>
</g>
<!-- Node30&#45;&gt;Node12 -->
<g id="edge50" class="edge">
<title>Node30&#45;&gt;Node12</title>
<path fill="none" stroke="midnightblue" d="M1639.96,-229.76C1648.99,-203.04 1676.39,-122.02 1688.79,-85.36"/>
<polygon fill="midnightblue" stroke="midnightblue" points="1692.23,-86.11 1692.12,-75.52 1685.6,-83.87 1692.23,-86.11"/>
</g>
<!-- Node30&#45;&gt;Node14 -->
<g id="edge49" class="edge">
<title>Node30&#45;&gt;Node14</title>
<path fill="none" stroke="midnightblue" d="M1636.72,-229.79C1635.26,-199.84 1626.04,-100.54 1568,-56 1542.31,-36.28 1453.46,-22.25 1401.55,-15.52"/>
<polygon fill="midnightblue" stroke="midnightblue" points="1401.74,-12.01 1391.38,-14.23 1400.86,-18.96 1401.74,-12.01"/>
</g>
<!-- Node31&#45;&gt;Node2 -->
<g id="edge53" class="edge">
<title>Node31&#45;&gt;Node2</title>
<path fill="none" stroke="midnightblue" d="M636.95,-354.58C570.16,-351.4 432.3,-341.44 320,-311 258.89,-294.44 238.94,-293.93 189,-255 159.48,-231.99 149.96,-223.46 138,-188 126.17,-152.94 143.38,-135.46 172,-112 198.58,-90.21 236.61,-78.5 263.53,-72.55"/>
<polygon fill="midnightblue" stroke="midnightblue" points="264.53,-75.91 273.61,-70.47 263.11,-69.06 264.53,-75.91"/>
</g>
<!-- Node31&#45;&gt;Node19 -->
<g id="edge54" class="edge">
<title>Node31&#45;&gt;Node19</title>
<path fill="none" stroke="midnightblue" d="M680.47,-347.08C683.31,-339.77 687.43,-329.18 690.96,-320.1"/>
<polygon fill="midnightblue" stroke="midnightblue" points="694.23,-321.34 694.6,-310.75 687.71,-318.8 694.23,-321.34"/>
</g>
<!-- Node32&#45;&gt;Node16 -->
<g id="edge56" class="edge">
<title>Node32&#45;&gt;Node16</title>
<path fill="none" stroke="midnightblue" d="M822,-168.08C822,-161.01 822,-150.86 822,-141.99"/>
<polygon fill="midnightblue" stroke="midnightblue" points="825.5,-141.75 822,-131.75 818.5,-141.75 825.5,-141.75"/>
</g>
<!-- Node33&#45;&gt;Node9 -->
<g id="edge59" class="edge">
<title>Node33&#45;&gt;Node9</title>
<path fill="none" stroke="midnightblue" d="M403.57,-291.38C418.58,-282.45 442.58,-268.01 463,-255 495.8,-234.11 533.19,-208.91 555.94,-193.42"/>
<polygon fill="midnightblue" stroke="midnightblue" points="558.17,-196.14 564.46,-187.61 554.23,-190.35 558.17,-196.14"/>
</g>
<!-- Node33&#45;&gt;Node10 -->
<g id="edge58" class="edge">
<title>Node33&#45;&gt;Node10</title>
<path fill="none" stroke="midnightblue" d="M328.18,-292.19C282.61,-285.01 225.56,-272.78 210,-255 182.37,-223.42 186.44,-170.06 191.1,-141.82"/>
<polygon fill="midnightblue" stroke="midnightblue" points="194.6,-142.18 192.98,-131.71 187.71,-140.9 194.6,-142.18"/>
</g>
<!-- Node34 -->
<g id="node34" class="node">
<title>Node34</title>
<g id="a_node34"><a xlink:href="_network_manager_8h.html" target="_top" xlink:title=" ">
<polygon fill="white" stroke="black" points="324,-230 324,-249 454,-249 454,-230 324,-230"/>
<text text-anchor="middle" x="389" y="-237" font-family="Helvetica,sans-Serif" font-size="10.00">engine/NetworkManager.h</text>
</a>
</g>
</g>
<!-- Node33&#45;&gt;Node34 -->
<g id="edge60" class="edge">
<title>Node33&#45;&gt;Node34</title>
<path fill="none" stroke="midnightblue" d="M389,-291.48C389,-283.08 389,-269.98 389,-259.16"/>
<polygon fill="midnightblue" stroke="midnightblue" points="392.5,-259.01 389,-249.01 385.5,-259.01 392.5,-259.01"/>
</g>
<!-- Node36 -->
<g id="node36" class="node">
<title>Node36</title>
<g id="a_node36"><a xlink:title=" ">
<polygon fill="white" stroke="#bfbfbf" points="218.5,-230 218.5,-249 267.5,-249 267.5,-230 218.5,-230"/>
<text text-anchor="middle" x="243" y="-237" font-family="Helvetica,sans-Serif" font-size="10.00">random</text>
</a>
</g>
</g>
<!-- Node33&#45;&gt;Node36 -->
<g id="edge65" class="edge">
<title>Node33&#45;&gt;Node36</title>
<path fill="none" stroke="midnightblue" d="M368.08,-291.48C343.25,-281.36 301.66,-264.4 273.31,-252.85"/>
<polygon fill="midnightblue" stroke="midnightblue" points="274.46,-249.54 263.88,-249.01 271.82,-256.02 274.46,-249.54"/>
</g>
<!-- Node34&#45;&gt;Node2 -->
<g id="edge63" class="edge">
<title>Node34&#45;&gt;Node2</title>
<path fill="none" stroke="midnightblue" d="M382.36,-229.84C374.97,-220 362.9,-203.31 354,-188 333.5,-152.74 313.91,-109.11 303.58,-85.05"/>
<polygon fill="midnightblue" stroke="midnightblue" points="306.76,-83.58 299.62,-75.75 300.31,-86.32 306.76,-83.58"/>
</g>
<!-- Node34&#45;&gt;Node9 -->
<g id="edge61" class="edge">
<title>Node34&#45;&gt;Node9</title>
<path fill="none" stroke="midnightblue" d="M415.94,-229.98C448.6,-219.64 503.82,-202.16 540.34,-190.6"/>
<polygon fill="midnightblue" stroke="midnightblue" points="541.64,-193.86 550.11,-187.51 539.52,-187.19 541.64,-193.86"/>
</g>
<!-- Node34&#45;&gt;Node32 -->
<g id="edge62" class="edge">
<title>Node34&#45;&gt;Node32</title>
<path fill="none" stroke="midnightblue" d="M451.04,-229.98C531.74,-218.89 672.19,-199.59 755.17,-188.18"/>
<polygon fill="midnightblue" stroke="midnightblue" points="755.82,-191.63 765.25,-186.8 754.87,-184.69 755.82,-191.63"/>
</g>
<!-- Node35 -->
<g id="node35" class="node">
<title>Node35</title>
<g id="a_node35"><a xlink:title=" ">
<polygon fill="white" stroke="#bfbfbf" points="362.5,-168.5 362.5,-187.5 433.5,-187.5 433.5,-168.5 362.5,-168.5"/>
<text text-anchor="middle" x="398" y="-175.5" font-family="Helvetica,sans-Serif" font-size="10.00">sys/socket.h</text>
</a>
</g>
</g>
<!-- Node34&#45;&gt;Node35 -->
<g id="edge64" class="edge">
<title>Node34&#45;&gt;Node35</title>
<path fill="none" stroke="midnightblue" d="M390.29,-229.98C391.56,-221.58 393.54,-208.48 395.18,-197.66"/>
<polygon fill="midnightblue" stroke="midnightblue" points="398.68,-197.92 396.71,-187.51 391.76,-196.87 398.68,-197.92"/>
</g>
<!-- Node37&#45;&gt;Node5 -->
<g id="edge69" class="edge">
<title>Node37&#45;&gt;Node5</title>
<path fill="none" stroke="midnightblue" d="M1084.64,-366.83C1078.61,-374.87 1067.36,-386.91 1057.06,-396.54"/>
<polygon fill="midnightblue" stroke="midnightblue" points="1054.59,-394.05 1049.47,-403.32 1059.26,-399.27 1054.59,-394.05"/>
</g>
<!-- Node37&#45;&gt;Node16 -->
<g id="edge67" class="edge">
<title>Node37&#45;&gt;Node16</title>
<path fill="none" stroke="midnightblue" d="M1082.85,-347.44C1069.1,-325.1 1029.56,-264 985,-224 942.61,-185.95 884.06,-153.64 849.9,-136.4"/>
<polygon fill="midnightblue" stroke="midnightblue" points="851.05,-133.06 840.53,-131.74 847.93,-139.33 851.05,-133.06"/>
</g>
<!-- Node37&#45;&gt;Node23 -->
<g id="edge68" class="edge">
<title>Node37&#45;&gt;Node23</title>
<path fill="none" stroke="midnightblue" d="M1105.19,-347.32C1122.35,-338.66 1148.95,-325.24 1168.75,-315.25"/>
<polygon fill="midnightblue" stroke="midnightblue" points="1170.5,-318.28 1177.85,-310.65 1167.35,-312.04 1170.5,-318.28"/>
</g>
<!-- Node38&#45;&gt;Node3 -->
<g id="edge71" class="edge">
<title>Node38&#45;&gt;Node3</title>
<path fill="none" stroke="midnightblue" d="M1429.48,-310.64C1444.39,-317.91 1463.11,-329.88 1472,-347 1490.58,-382.78 1460.82,-428.03 1441.49,-451.77"/>
<polygon fill="midnightblue" stroke="midnightblue" points="1438.75,-449.59 1434.95,-459.48 1444.08,-454.12 1438.75,-449.59"/>
</g>
<!-- Node39&#45;&gt;Node1 -->
<g id="edge73" class="edge">
<title>Node39&#45;&gt;Node1</title>
<path fill="none" stroke="midnightblue" d="M1364.32,-366.55C1299.34,-379.21 1173.34,-403.55 1066,-423 870.82,-458.36 640.44,-497.33 523.82,-516.86"/>
<polygon fill="midnightblue" stroke="midnightblue" points="523.2,-513.42 513.92,-518.52 524.36,-520.32 523.2,-513.42"/>
</g>
<!-- Node39&#45;&gt;Node38 -->
<g id="edge74" class="edge">
<title>Node39&#45;&gt;Node38</title>
<path fill="none" stroke="midnightblue" d="M1408,-347.08C1408,-340.01 1408,-329.86 1408,-320.99"/>
<polygon fill="midnightblue" stroke="midnightblue" points="1411.5,-320.75 1408,-310.75 1404.5,-320.75 1411.5,-320.75"/>
</g>
<!-- Node40&#45;&gt;Node2 -->
<g id="edge81" class="edge">
<title>Node40&#45;&gt;Node2</title>
<path fill="none" stroke="midnightblue" d="M273.68,-403.45C192.11,-387.9 38,-351.92 38,-302 38,-302 38,-302 38,-177 38,-80.17 193.68,-67.4 263.18,-66.52"/>
<polygon fill="midnightblue" stroke="midnightblue" points="263.57,-70.02 273.56,-66.47 263.54,-63.02 263.57,-70.02"/>
</g>
<!-- Node41 -->
<g id="node41" class="node">
<title>Node41</title>
<g id="a_node41"><a xlink:href="_gui_object_8h.html" target="_top" xlink:title=" ">
<polygon fill="white" stroke="black" points="385,-347.5 385,-366.5 505,-366.5 505,-347.5 385,-347.5"/>
<text text-anchor="middle" x="445" y="-354.5" font-family="Helvetica,sans-Serif" font-size="10.00">engine/GUI/GuiObject.h</text>
</a>
</g>
</g>
<!-- Node40&#45;&gt;Node41 -->
<g id="edge79" class="edge">
<title>Node40&#45;&gt;Node41</title>
<path fill="none" stroke="midnightblue" d="M342.33,-403.44C362.32,-394.6 393.74,-380.69 416.56,-370.59"/>
<polygon fill="midnightblue" stroke="midnightblue" points="418.03,-373.76 425.76,-366.52 415.2,-367.36 418.03,-373.76"/>
</g>
<!-- Node41&#45;&gt;Node9 -->
<g id="edge80" class="edge">
<title>Node41&#45;&gt;Node9</title>
<path fill="none" stroke="midnightblue" d="M451.37,-347.46C471.88,-319.96 536.49,-233.32 564.19,-196.18"/>
<polygon fill="midnightblue" stroke="midnightblue" points="567.21,-197.98 570.39,-187.87 561.6,-193.79 567.21,-197.98"/>
</g>
<!-- Node42&#45;&gt;Node10 -->
<g id="edge84" class="edge">
<title>Node42&#45;&gt;Node10</title>
<path fill="none" stroke="midnightblue" d="M264.78,-462.19C202.94,-452.42 114,-426.48 114,-358 114,-358 114,-358 114,-300 114,-235.99 158.34,-169.81 181.41,-139.71"/>
<polygon fill="midnightblue" stroke="midnightblue" points="184.38,-141.59 187.81,-131.57 178.88,-137.26 184.38,-141.59"/>
</g>
<!-- Node42&#45;&gt;Node40 -->
<g id="edge83" class="edge">
<title>Node42&#45;&gt;Node40</title>
<path fill="none" stroke="midnightblue" d="M323,-459.08C323,-452.01 323,-441.86 323,-432.99"/>
<polygon fill="midnightblue" stroke="midnightblue" points="326.5,-432.75 323,-422.75 319.5,-432.75 326.5,-432.75"/>
</g>
<!-- Node43&#45;&gt;Node41 -->
<g id="edge86" class="edge">
<title>Node43&#45;&gt;Node41</title>
<path fill="none" stroke="midnightblue" d="M447.5,-403.08C447.11,-396.01 446.55,-385.86 446.05,-376.99"/>
<polygon fill="midnightblue" stroke="midnightblue" points="449.54,-376.54 445.49,-366.75 442.55,-376.93 449.54,-376.54"/>
</g>
</g>
</svg>
