<?xml version="1.0" encoding="UTF-8" standalone="no"?>
<!DOCTYPE svg PUBLIC "-//W3C//DTD SVG 1.1//EN"
 "http://www.w3.org/Graphics/SVG/1.1/DTD/svg11.dtd">
<!-- Generated by graphviz version 2.47.0 (20210407.0042)
 -->
<!-- Title: include/GameLogic/Squad/Squad.h Pages: 1 -->
<svg width="1456pt" height="441pt"
 viewBox="0.00 0.00 1455.79 441.00" xmlns="http://www.w3.org/2000/svg" xmlns:xlink="http://www.w3.org/1999/xlink">
<g id="graph0" class="graph" transform="scale(1 1) rotate(0) translate(4 437)">
<title>include/GameLogic/Squad/Squad.h</title>
<polygon fill="white" stroke="transparent" points="-4,4 -4,-437 1451.79,-437 1451.79,4 -4,4"/>
<!-- Node1 -->
<g id="node1" class="node">
<title>Node1</title>
<g id="a_node1"><a xlink:title=" ">
<polygon fill="#bfbfbf" stroke="black" points="513.79,-402.5 513.79,-432.5 644.79,-432.5 644.79,-402.5 513.79,-402.5"/>
<text text-anchor="start" x="521.79" y="-420.5" font-family="Helvetica,sans-Serif" font-size="10.00">include/GameLogic/Squad</text>
<text text-anchor="middle" x="579.29" y="-409.5" font-family="Helvetica,sans-Serif" font-size="10.00">/Squad.h</text>
</a>
</g>
</g>
<!-- Node2 -->
<g id="node2" class="node">
<title>Node2</title>
<g id="a_node2"><a xlink:href="_squad_8cpp.html" target="_top" xlink:title=" ">
<polygon fill="white" stroke="black" points="87.29,-67.5 87.29,-97.5 201.29,-97.5 201.29,-67.5 87.29,-67.5"/>
<text text-anchor="start" x="95.29" y="-85.5" font-family="Helvetica,sans-Serif" font-size="10.00">src/GameLogic/Squad</text>
<text text-anchor="middle" x="144.29" y="-74.5" font-family="Helvetica,sans-Serif" font-size="10.00">/Squad.cpp</text>
</a>
</g>
</g>
<!-- Node1&#45;&gt;Node2 -->
<g id="edge1" class="edge">
<title>Node1&#45;&gt;Node2</title>
<path fill="none" stroke="midnightblue" d="M503.5,-414.93C346.72,-409.61 1.29,-386.35 1.29,-284.5 1.29,-284.5 1.29,-284.5 1.29,-215.5 1.29,-178.31 -3.86,-162.29 20.29,-134 37.26,-114.11 63.27,-101.95 87.08,-94.56"/>
<polygon fill="midnightblue" stroke="midnightblue" points="503.44,-418.43 513.55,-415.25 503.66,-411.43 503.44,-418.43"/>
</g>
<!-- Node3 -->
<g id="node3" class="node">
<title>Node3</title>
<g id="a_node3"><a xlink:href="_set_squad_path_8h.html" target="_top" xlink:title=" ">
<polygon fill="white" stroke="black" points="428.79,-335.5 428.79,-365.5 541.79,-365.5 541.79,-335.5 428.79,-335.5"/>
<text text-anchor="start" x="436.79" y="-353.5" font-family="Helvetica,sans-Serif" font-size="10.00">include/engine/actions</text>
<text text-anchor="middle" x="485.29" y="-342.5" font-family="Helvetica,sans-Serif" font-size="10.00">/SetSquadPath.h</text>
</a>
</g>
</g>
<!-- Node1&#45;&gt;Node3 -->
<g id="edge2" class="edge">
<title>Node1&#45;&gt;Node3</title>
<path fill="none" stroke="midnightblue" d="M550.29,-396.45C535.83,-386.45 518.69,-374.6 505.64,-365.58"/>
<polygon fill="midnightblue" stroke="midnightblue" points="548.67,-399.59 558.89,-402.4 552.66,-393.83 548.67,-399.59"/>
</g>
<!-- Node6 -->
<g id="node6" class="node">
<title>Node6</title>
<g id="a_node6"><a xlink:href="_cell_8h.html" target="_top" xlink:title=" ">
<polygon fill="white" stroke="black" points="491.29,-274 491.29,-293 619.29,-293 619.29,-274 491.29,-274"/>
<text text-anchor="middle" x="555.29" y="-281" font-family="Helvetica,sans-Serif" font-size="10.00">include/GameLogic/Cell.h</text>
</a>
</g>
</g>
<!-- Node1&#45;&gt;Node6 -->
<g id="edge31" class="edge">
<title>Node1&#45;&gt;Node6</title>
<path fill="none" stroke="midnightblue" d="M569.63,-392.71C561.83,-362.81 553.36,-313 553.3,-293.1"/>
<polygon fill="midnightblue" stroke="midnightblue" points="566.27,-393.69 572.35,-402.37 573.01,-391.8 566.27,-393.69"/>
</g>
<!-- Node9 -->
<g id="node9" class="node">
<title>Node9</title>
<g id="a_node9"><a xlink:href="_game_logic_2_squad_2_action_8h.html" target="_top" xlink:title=" ">
<polygon fill="white" stroke="black" points="599.79,-201.5 599.79,-231.5 730.79,-231.5 730.79,-201.5 599.79,-201.5"/>
<text text-anchor="start" x="607.79" y="-219.5" font-family="Helvetica,sans-Serif" font-size="10.00">include/GameLogic/Squad</text>
<text text-anchor="middle" x="665.29" y="-208.5" font-family="Helvetica,sans-Serif" font-size="10.00">/Action.h</text>
</a>
</g>
</g>
<!-- Node1&#45;&gt;Node9 -->
<g id="edge32" class="edge">
<title>Node1&#45;&gt;Node9</title>
<path fill="none" stroke="midnightblue" d="M585.06,-392.53C600,-350.65 637.14,-265.4 655.47,-231.68"/>
<polygon fill="midnightblue" stroke="midnightblue" points="581.68,-391.59 581.77,-402.19 588.31,-393.85 581.68,-391.59"/>
</g>
<!-- Node20 -->
<g id="node20" class="node">
<title>Node20</title>
<g id="a_node20"><a xlink:href="pathfinding_8h.html" target="_top" xlink:title=" ">
<polygon fill="white" stroke="black" points="155.29,-207 155.29,-226 275.29,-226 275.29,-207 155.29,-207"/>
<text text-anchor="middle" x="215.29" y="-214" font-family="Helvetica,sans-Serif" font-size="10.00">include/util/pathfinding.h</text>
</a>
</g>
</g>
<!-- Node1&#45;&gt;Node20 -->
<g id="edge47" class="edge">
<title>Node1&#45;&gt;Node20</title>
<path fill="none" stroke="midnightblue" d="M503.14,-411.81C424.17,-402.72 302.84,-376.2 234.29,-299 215.76,-278.14 214.34,-242.73 214.78,-226.32"/>
<polygon fill="midnightblue" stroke="midnightblue" points="503.2,-415.33 513.51,-412.93 503.95,-408.37 503.2,-415.33"/>
</g>
<!-- Node23 -->
<g id="node23" class="node">
<title>Node23</title>
<g id="a_node23"><a xlink:href="_unit_8h.html" target="_top" xlink:title=" ">
<polygon fill="white" stroke="black" points="968.79,-335.5 968.79,-365.5 1095.79,-365.5 1095.79,-335.5 968.79,-335.5"/>
<text text-anchor="start" x="976.79" y="-353.5" font-family="Helvetica,sans-Serif" font-size="10.00">include/GameLogic/Units</text>
<text text-anchor="middle" x="1032.29" y="-342.5" font-family="Helvetica,sans-Serif" font-size="10.00">/Unit.h</text>
</a>
</g>
</g>
<!-- Node1&#45;&gt;Node23 -->
<g id="edge33" class="edge">
<title>Node1&#45;&gt;Node23</title>
<path fill="none" stroke="midnightblue" d="M654.91,-404.89C742.74,-391.98 885.98,-371.46 968.45,-359.98"/>
<polygon fill="midnightblue" stroke="midnightblue" points="654.39,-401.43 645.01,-406.34 655.41,-408.35 654.39,-401.43"/>
</g>
<!-- Node4 -->
<g id="node4" class="node">
<title>Node4</title>
<g id="a_node4"><a xlink:href="engine_2_action_8cpp.html" target="_top" xlink:title=" ">
<polygon fill="white" stroke="black" points="363.29,-274 363.29,-293 473.29,-293 473.29,-274 363.29,-274"/>
<text text-anchor="middle" x="418.29" y="-281" font-family="Helvetica,sans-Serif" font-size="10.00">src/engine/Action.cpp</text>
</a>
</g>
</g>
<!-- Node3&#45;&gt;Node4 -->
<g id="edge3" class="edge">
<title>Node3&#45;&gt;Node4</title>
<path fill="none" stroke="midnightblue" d="M463.47,-328.34C451.17,-316.4 436.47,-302.14 427.25,-293.19"/>
<polygon fill="midnightblue" stroke="midnightblue" points="461.13,-330.94 470.75,-335.4 466.01,-325.92 461.13,-330.94"/>
</g>
<!-- Node5 -->
<g id="node5" class="node">
<title>Node5</title>
<g id="a_node5"><a xlink:href="_set_squad_path_8cpp.html" target="_top" xlink:title=" ">
<polygon fill="white" stroke="black" points="243.79,-268.5 243.79,-298.5 344.79,-298.5 344.79,-268.5 243.79,-268.5"/>
<text text-anchor="start" x="251.79" y="-286.5" font-family="Helvetica,sans-Serif" font-size="10.00">src/engine/actions</text>
<text text-anchor="middle" x="294.29" y="-275.5" font-family="Helvetica,sans-Serif" font-size="10.00">/SetSquadPath.cpp</text>
</a>
</g>
</g>
<!-- Node3&#45;&gt;Node5 -->
<g id="edge4" class="edge">
<title>Node3&#45;&gt;Node5</title>
<path fill="none" stroke="midnightblue" d="M434.13,-332.09C403.3,-321.6 364.54,-308.41 335.65,-298.58"/>
<polygon fill="midnightblue" stroke="midnightblue" points="433.25,-335.49 443.84,-335.4 435.5,-328.86 433.25,-335.49"/>
</g>
<!-- Node3&#45;&gt;Node6 -->
<g id="edge5" class="edge">
<title>Node3&#45;&gt;Node6</title>
<path fill="none" stroke="midnightblue" d="M502.05,-328C514.03,-316.13 529.73,-302.05 541.15,-293.19"/>
<polygon fill="midnightblue" stroke="midnightblue" points="499.3,-325.8 494.8,-335.4 504.3,-330.7 499.3,-325.8"/>
</g>
<!-- Node6&#45;&gt;Node1 -->
<g id="edge11" class="edge">
<title>Node6&#45;&gt;Node1</title>
<path fill="none" stroke="midnightblue" d="M563.43,-302.7C570.97,-329.31 579.72,-378.29 581.09,-402.37"/>
<polygon fill="midnightblue" stroke="midnightblue" points="566.74,-301.58 560.4,-293.1 560.07,-303.69 566.74,-301.58"/>
</g>
<!-- Node6&#45;&gt;Node3 -->
<g id="edge8" class="edge">
<title>Node6&#45;&gt;Node3</title>
<path fill="none" stroke="midnightblue" d="M543.85,-300.62C533.53,-311.3 518.52,-325.16 506.15,-335.4"/>
<polygon fill="midnightblue" stroke="midnightblue" points="546.49,-302.92 550.7,-293.19 541.34,-298.17 546.49,-302.92"/>
</g>
<!-- Node7 -->
<g id="node7" class="node">
<title>Node7</title>
<g id="a_node7"><a xlink:href="_cell_8cpp.html" target="_top" xlink:title=" ">
<polygon fill="white" stroke="black" points="369.79,-207 369.79,-226 490.79,-226 490.79,-207 369.79,-207"/>
<text text-anchor="middle" x="430.29" y="-214" font-family="Helvetica,sans-Serif" font-size="10.00">src/GameLogic/Cell.cpp</text>
</a>
</g>
</g>
<!-- Node6&#45;&gt;Node7 -->
<g id="edge6" class="edge">
<title>Node6&#45;&gt;Node7</title>
<path fill="none" stroke="midnightblue" d="M529.52,-269.1C504.77,-256.23 468.09,-237.16 446.95,-226.17"/>
<polygon fill="midnightblue" stroke="midnightblue" points="528.2,-272.36 538.69,-273.87 531.43,-266.15 528.2,-272.36"/>
</g>
<!-- Node8 -->
<g id="node8" class="node">
<title>Node8</title>
<g id="a_node8"><a xlink:href="main_8cpp.html" target="_top" xlink:title=" ">
<polygon fill="white" stroke="black" points="509.29,-207 509.29,-226 581.29,-226 581.29,-207 509.29,-207"/>
<text text-anchor="middle" x="545.29" y="-214" font-family="Helvetica,sans-Serif" font-size="10.00">src/main.cpp</text>
</a>
</g>
</g>
<!-- Node6&#45;&gt;Node8 -->
<g id="edge7" class="edge">
<title>Node6&#45;&gt;Node8</title>
<path fill="none" stroke="midnightblue" d="M552.37,-263.54C550.47,-251.17 548.07,-235.62 546.61,-226.13"/>
<polygon fill="midnightblue" stroke="midnightblue" points="548.96,-264.38 553.94,-273.73 555.88,-263.32 548.96,-264.38"/>
</g>
<!-- Node6&#45;&gt;Node9 -->
<g id="edge9" class="edge">
<title>Node6&#45;&gt;Node9</title>
<path fill="none" stroke="midnightblue" d="M578.8,-268.6C597.27,-257.69 622.89,-242.55 641.44,-231.59"/>
<polygon fill="midnightblue" stroke="midnightblue" points="576.95,-265.63 570.12,-273.73 580.51,-271.66 576.95,-265.63"/>
</g>
<!-- Node10 -->
<g id="node10" class="node">
<title>Node10</title>
<g id="a_node10"><a xlink:href="_factory_8h.html" target="_top" xlink:title=" ">
<polygon fill="white" stroke="black" points="748.79,-201.5 748.79,-231.5 875.79,-231.5 875.79,-201.5 748.79,-201.5"/>
<text text-anchor="start" x="756.79" y="-219.5" font-family="Helvetica,sans-Serif" font-size="10.00">include/GameLogic/Units</text>
<text text-anchor="middle" x="812.29" y="-208.5" font-family="Helvetica,sans-Serif" font-size="10.00">/Factory.h</text>
</a>
</g>
</g>
<!-- Node6&#45;&gt;Node10 -->
<g id="edge12" class="edge">
<title>Node6&#45;&gt;Node10</title>
<path fill="none" stroke="midnightblue" d="M598.87,-271.48C642.37,-260.47 709.39,-243.52 756.7,-231.56"/>
<polygon fill="midnightblue" stroke="midnightblue" points="597.99,-268.09 589.15,-273.94 599.7,-274.88 597.99,-268.09"/>
</g>
<!-- Node6&#45;&gt;Node20 -->
<g id="edge28" class="edge">
<title>Node6&#45;&gt;Node20</title>
<path fill="none" stroke="midnightblue" d="M502.83,-272C495.92,-270.64 488.94,-269.28 482.29,-268 396.6,-251.5 374.99,-248.39 289.29,-232 279.26,-230.08 268.47,-227.99 258.32,-226"/>
<polygon fill="midnightblue" stroke="midnightblue" points="502.35,-275.48 512.84,-273.98 503.71,-268.61 502.35,-275.48"/>
</g>
<!-- Node9&#45;&gt;Node1 -->
<g id="edge10" class="edge">
<title>Node9&#45;&gt;Node1</title>
<path fill="none" stroke="midnightblue" d="M659.57,-241.31C644.69,-283.08 607.55,-368.34 589.17,-402.19"/>
<polygon fill="midnightblue" stroke="midnightblue" points="662.93,-242.28 662.85,-231.68 656.31,-240.02 662.93,-242.28"/>
</g>
<!-- Node11 -->
<g id="node11" class="node">
<title>Node11</title>
<g id="a_node11"><a xlink:href="_factory_8cpp.html" target="_top" xlink:title=" ">
<polygon fill="white" stroke="black" points="692.29,-134.5 692.29,-164.5 802.29,-164.5 802.29,-134.5 692.29,-134.5"/>
<text text-anchor="start" x="700.29" y="-152.5" font-family="Helvetica,sans-Serif" font-size="10.00">src/GameLogic/Units</text>
<text text-anchor="middle" x="747.29" y="-141.5" font-family="Helvetica,sans-Serif" font-size="10.00">/Factory.cpp</text>
</a>
</g>
</g>
<!-- Node10&#45;&gt;Node11 -->
<g id="edge13" class="edge">
<title>Node10&#45;&gt;Node11</title>
<path fill="none" stroke="midnightblue" d="M791.1,-194.31C781.35,-184.56 770.05,-173.26 761.36,-164.58"/>
<polygon fill="midnightblue" stroke="midnightblue" points="788.64,-196.8 798.18,-201.4 793.59,-191.85 788.64,-196.8"/>
</g>
<!-- Node12 -->
<g id="node12" class="node">
<title>Node12</title>
<g id="a_node12"><a xlink:href="_squad_template_8h.html" target="_top" xlink:title=" ">
<polygon fill="white" stroke="black" points="509.79,-134.5 509.79,-164.5 640.79,-164.5 640.79,-134.5 509.79,-134.5"/>
<text text-anchor="start" x="517.79" y="-152.5" font-family="Helvetica,sans-Serif" font-size="10.00">include/GameLogic/Squad</text>
<text text-anchor="middle" x="575.29" y="-141.5" font-family="Helvetica,sans-Serif" font-size="10.00">/SquadTemplate.h</text>
</a>
</g>
</g>
<!-- Node10&#45;&gt;Node12 -->
<g id="edge14" class="edge">
<title>Node10&#45;&gt;Node12</title>
<path fill="none" stroke="midnightblue" d="M751.09,-198.71C712.52,-188.14 663.29,-174.63 626.74,-164.61"/>
<polygon fill="midnightblue" stroke="midnightblue" points="750.58,-202.21 761.15,-201.48 752.43,-195.46 750.58,-202.21"/>
</g>
<!-- Node16 -->
<g id="node16" class="node">
<title>Node16</title>
<g id="a_node16"><a xlink:href="_all_units_8h.html" target="_top" xlink:title=" ">
<polygon fill="white" stroke="black" points="364.79,-134.5 364.79,-164.5 491.79,-164.5 491.79,-134.5 364.79,-134.5"/>
<text text-anchor="start" x="372.79" y="-152.5" font-family="Helvetica,sans-Serif" font-size="10.00">include/GameLogic/Units</text>
<text text-anchor="middle" x="428.29" y="-141.5" font-family="Helvetica,sans-Serif" font-size="10.00">/AllUnits.h</text>
</a>
</g>
</g>
<!-- Node10&#45;&gt;Node16 -->
<g id="edge19" class="edge">
<title>Node10&#45;&gt;Node16</title>
<path fill="none" stroke="midnightblue" d="M738.58,-200.75C632.76,-182.44 603.9,-182.91 501.29,-165 498.23,-164.47 495.11,-163.91 491.96,-163.33"/>
<polygon fill="midnightblue" stroke="midnightblue" points="738.26,-204.25 748.72,-202.52 739.47,-197.35 738.26,-204.25"/>
</g>
<!-- Node18 -->
<g id="node18" class="node">
<title>Node18</title>
<g id="a_node18"><a xlink:href="_land_unit_factory_8h.html" target="_top" xlink:title=" ">
<polygon fill="white" stroke="black" points="820.79,-134.5 820.79,-164.5 947.79,-164.5 947.79,-134.5 820.79,-134.5"/>
<text text-anchor="start" x="828.79" y="-152.5" font-family="Helvetica,sans-Serif" font-size="10.00">include/GameLogic/Units</text>
<text text-anchor="middle" x="884.29" y="-141.5" font-family="Helvetica,sans-Serif" font-size="10.00">/LandUnitFactory.h</text>
</a>
</g>
</g>
<!-- Node10&#45;&gt;Node18 -->
<g id="edge25" class="edge">
<title>Node10&#45;&gt;Node18</title>
<path fill="none" stroke="midnightblue" d="M835.44,-194.6C846.31,-184.78 858.98,-173.34 868.69,-164.58"/>
<polygon fill="midnightblue" stroke="midnightblue" points="832.99,-192.1 827.91,-201.4 837.68,-197.29 832.99,-192.1"/>
</g>
<!-- Node13 -->
<g id="node13" class="node">
<title>Node13</title>
<g id="a_node13"><a xlink:href="_squad_template_8cpp.html" target="_top" xlink:title=" ">
<polygon fill="white" stroke="black" points="515.29,-67.5 515.29,-97.5 629.29,-97.5 629.29,-67.5 515.29,-67.5"/>
<text text-anchor="start" x="523.29" y="-85.5" font-family="Helvetica,sans-Serif" font-size="10.00">src/GameLogic/Squad</text>
<text text-anchor="middle" x="572.29" y="-74.5" font-family="Helvetica,sans-Serif" font-size="10.00">/SquadTemplate.cpp</text>
</a>
</g>
</g>
<!-- Node12&#45;&gt;Node13 -->
<g id="edge15" class="edge">
<title>Node12&#45;&gt;Node13</title>
<path fill="none" stroke="midnightblue" d="M574.17,-124.4C573.76,-115.37 573.3,-105.41 572.94,-97.58"/>
<polygon fill="midnightblue" stroke="midnightblue" points="570.68,-124.57 574.64,-134.4 577.67,-124.25 570.68,-124.57"/>
</g>
<!-- Node14 -->
<g id="node14" class="node">
<title>Node14</title>
<g id="a_node14"><a xlink:href="_all_squad_templates_8h.html" target="_top" xlink:title=" ">
<polygon fill="white" stroke="black" points="362.79,-67.5 362.79,-97.5 493.79,-97.5 493.79,-67.5 362.79,-67.5"/>
<text text-anchor="start" x="370.79" y="-85.5" font-family="Helvetica,sans-Serif" font-size="10.00">include/GameLogic/Squad</text>
<text text-anchor="middle" x="428.29" y="-74.5" font-family="Helvetica,sans-Serif" font-size="10.00">/AllSquadTemplates.h</text>
</a>
</g>
</g>
<!-- Node12&#45;&gt;Node14 -->
<g id="edge16" class="edge">
<title>Node12&#45;&gt;Node14</title>
<path fill="none" stroke="midnightblue" d="M534.06,-130.27C510.64,-119.92 481.78,-107.15 460.12,-97.58"/>
<polygon fill="midnightblue" stroke="midnightblue" points="532.83,-133.55 543.39,-134.4 535.66,-127.15 532.83,-133.55"/>
</g>
<!-- Node14&#45;&gt;Node6 -->
<g id="edge18" class="edge">
<title>Node14&#45;&gt;Node6</title>
<path fill="none" stroke="midnightblue" d="M386.79,-102.97C374.56,-110.83 362.52,-121.14 355.29,-134 341.17,-159.09 341.92,-220.04 351.29,-232 356.4,-238.54 457.35,-261.3 515.29,-273.92"/>
<polygon fill="midnightblue" stroke="midnightblue" points="388.88,-105.81 395.67,-97.68 385.29,-99.79 388.88,-105.81"/>
</g>
<!-- Node15 -->
<g id="node15" class="node">
<title>Node15</title>
<g id="a_node15"><a xlink:href="_all_squad_templates_8cpp.html" target="_top" xlink:title=" ">
<polygon fill="white" stroke="black" points="367.29,-0.5 367.29,-30.5 489.29,-30.5 489.29,-0.5 367.29,-0.5"/>
<text text-anchor="start" x="375.29" y="-18.5" font-family="Helvetica,sans-Serif" font-size="10.00">src/GameLogic/Squad</text>
<text text-anchor="middle" x="428.29" y="-7.5" font-family="Helvetica,sans-Serif" font-size="10.00">/AllSquadTemplates.cpp</text>
</a>
</g>
</g>
<!-- Node14&#45;&gt;Node15 -->
<g id="edge17" class="edge">
<title>Node14&#45;&gt;Node15</title>
<path fill="none" stroke="midnightblue" d="M428.29,-57.11C428.29,-48.15 428.29,-38.32 428.29,-30.58"/>
<polygon fill="midnightblue" stroke="midnightblue" points="424.79,-57.4 428.29,-67.4 431.79,-57.4 424.79,-57.4"/>
</g>
<!-- Node16&#45;&gt;Node2 -->
<g id="edge20" class="edge">
<title>Node16&#45;&gt;Node2</title>
<path fill="none" stroke="midnightblue" d="M356.99,-132.18C308.94,-121.19 246.39,-106.87 201.58,-96.61"/>
<polygon fill="midnightblue" stroke="midnightblue" points="356.48,-135.66 367.01,-134.48 358.05,-128.83 356.48,-135.66"/>
</g>
<!-- Node16&#45;&gt;Node6 -->
<g id="edge23" class="edge">
<title>Node16&#45;&gt;Node6</title>
<path fill="none" stroke="midnightblue" d="M393.52,-170.1C369.1,-186.4 343.54,-210.36 360.29,-232 365.17,-238.31 462.19,-261.29 517.5,-273.96"/>
<polygon fill="midnightblue" stroke="midnightblue" points="395.49,-172.99 402.04,-164.67 391.73,-167.09 395.49,-172.99"/>
</g>
<!-- Node16&#45;&gt;Node13 -->
<g id="edge21" class="edge">
<title>Node16&#45;&gt;Node13</title>
<path fill="none" stroke="midnightblue" d="M468.68,-130.27C491.61,-119.92 519.89,-107.15 541.1,-97.58"/>
<polygon fill="midnightblue" stroke="midnightblue" points="467.21,-127.09 459.53,-134.4 470.09,-133.47 467.21,-127.09"/>
</g>
<!-- Node16&#45;&gt;Node14 -->
<g id="edge24" class="edge">
<title>Node16&#45;&gt;Node14</title>
<path fill="none" stroke="midnightblue" d="M428.29,-124.11C428.29,-115.15 428.29,-105.32 428.29,-97.58"/>
<polygon fill="midnightblue" stroke="midnightblue" points="424.79,-124.4 428.29,-134.4 431.79,-124.4 424.79,-124.4"/>
</g>
<!-- Node17 -->
<g id="node17" class="node">
<title>Node17</title>
<g id="a_node17"><a xlink:href="_all_units_8cpp.html" target="_top" xlink:title=" ">
<polygon fill="white" stroke="black" points="674.29,-67.5 674.29,-97.5 784.29,-97.5 784.29,-67.5 674.29,-67.5"/>
<text text-anchor="start" x="682.29" y="-85.5" font-family="Helvetica,sans-Serif" font-size="10.00">src/GameLogic/Units</text>
<text text-anchor="middle" x="729.29" y="-74.5" font-family="Helvetica,sans-Serif" font-size="10.00">/AllUnits.cpp</text>
</a>
</g>
</g>
<!-- Node16&#45;&gt;Node17 -->
<g id="edge22" class="edge">
<title>Node16&#45;&gt;Node17</title>
<path fill="none" stroke="midnightblue" d="M502.17,-132.55C555.32,-121.07 625.85,-105.84 674.13,-95.41"/>
<polygon fill="midnightblue" stroke="midnightblue" points="501.16,-129.18 492.12,-134.72 502.63,-136.03 501.16,-129.18"/>
</g>
<!-- Node18&#45;&gt;Node17 -->
<g id="edge26" class="edge">
<title>Node18&#45;&gt;Node17</title>
<path fill="none" stroke="midnightblue" d="M841.14,-130.41C816.4,-120.03 785.79,-107.2 762.85,-97.58"/>
<polygon fill="midnightblue" stroke="midnightblue" points="840.08,-133.76 850.65,-134.4 842.79,-127.3 840.08,-133.76"/>
</g>
<!-- Node19 -->
<g id="node19" class="node">
<title>Node19</title>
<g id="a_node19"><a xlink:href="_land_unit_factory_8cpp.html" target="_top" xlink:title=" ">
<polygon fill="white" stroke="black" points="829.29,-67.5 829.29,-97.5 939.29,-97.5 939.29,-67.5 829.29,-67.5"/>
<text text-anchor="start" x="837.29" y="-85.5" font-family="Helvetica,sans-Serif" font-size="10.00">src/GameLogic/Units</text>
<text text-anchor="middle" x="884.29" y="-74.5" font-family="Helvetica,sans-Serif" font-size="10.00">/LandUnitFactory.cpp</text>
</a>
</g>
</g>
<!-- Node18&#45;&gt;Node19 -->
<g id="edge27" class="edge">
<title>Node18&#45;&gt;Node19</title>
<path fill="none" stroke="midnightblue" d="M884.29,-124.11C884.29,-115.15 884.29,-105.32 884.29,-97.58"/>
<polygon fill="midnightblue" stroke="midnightblue" points="880.79,-124.4 884.29,-134.4 887.79,-124.4 880.79,-124.4"/>
</g>
<!-- Node21 -->
<g id="node21" class="node">
<title>Node21</title>
<g id="a_node21"><a xlink:href="_game_logic_2_squad_2_action_8cpp.html" target="_top" xlink:title=" ">
<polygon fill="white" stroke="black" points="29.29,-134.5 29.29,-164.5 143.29,-164.5 143.29,-134.5 29.29,-134.5"/>
<text text-anchor="start" x="37.29" y="-152.5" font-family="Helvetica,sans-Serif" font-size="10.00">src/GameLogic/Squad</text>
<text text-anchor="middle" x="86.29" y="-141.5" font-family="Helvetica,sans-Serif" font-size="10.00">/Action.cpp</text>
</a>
</g>
</g>
<!-- Node20&#45;&gt;Node21 -->
<g id="edge29" class="edge">
<title>Node20&#45;&gt;Node21</title>
<path fill="none" stroke="midnightblue" d="M189.17,-202.34C167.46,-191.4 136.62,-175.86 114.37,-164.65"/>
<polygon fill="midnightblue" stroke="midnightblue" points="187.65,-205.49 198.16,-206.87 190.8,-199.24 187.65,-205.49"/>
</g>
<!-- Node22 -->
<g id="node22" class="node">
<title>Node22</title>
<g id="a_node22"><a xlink:href="pathfinding_8cpp.html" target="_top" xlink:title=" ">
<polygon fill="white" stroke="black" points="161.79,-140 161.79,-159 274.79,-159 274.79,-140 161.79,-140"/>
<text text-anchor="middle" x="218.29" y="-147" font-family="Helvetica,sans-Serif" font-size="10.00">src/util/pathfinding.cpp</text>
</a>
</g>
</g>
<!-- Node20&#45;&gt;Node22 -->
<g id="edge30" class="edge">
<title>Node20&#45;&gt;Node22</title>
<path fill="none" stroke="midnightblue" d="M216.16,-196.54C216.73,-184.17 217.45,-168.62 217.89,-159.13"/>
<polygon fill="midnightblue" stroke="midnightblue" points="212.66,-196.58 215.69,-206.73 219.65,-196.91 212.66,-196.58"/>
</g>
<!-- Node23&#45;&gt;Node1 -->
<g id="edge35" class="edge">
<title>Node23&#45;&gt;Node1</title>
<path fill="none" stroke="midnightblue" d="M958.61,-362.83C871.68,-375.61 728.57,-396.12 645.17,-407.73"/>
<polygon fill="midnightblue" stroke="midnightblue" points="959.29,-366.27 968.67,-361.35 958.27,-359.34 959.29,-366.27"/>
</g>
<!-- Node23&#45;&gt;Node10 -->
<g id="edge38" class="edge">
<title>Node23&#45;&gt;Node10</title>
<path fill="none" stroke="midnightblue" d="M982.82,-331.79C961.13,-323.16 935.77,-311.86 914.29,-299 880.83,-278.98 846.29,-249.07 827.22,-231.6"/>
<polygon fill="midnightblue" stroke="midnightblue" points="981.6,-335.07 992.19,-335.44 984.15,-328.55 981.6,-335.07"/>
</g>
<!-- Node24 -->
<g id="node24" class="node">
<title>Node24</title>
<g id="a_node24"><a xlink:href="_unit_8cpp.html" target="_top" xlink:title=" ">
<polygon fill="white" stroke="black" points="1060.29,-201.5 1060.29,-231.5 1170.29,-231.5 1170.29,-201.5 1060.29,-201.5"/>
<text text-anchor="start" x="1068.29" y="-219.5" font-family="Helvetica,sans-Serif" font-size="10.00">src/GameLogic/Units</text>
<text text-anchor="middle" x="1115.29" y="-208.5" font-family="Helvetica,sans-Serif" font-size="10.00">/Unit.cpp</text>
</a>
</g>
</g>
<!-- Node23&#45;&gt;Node24 -->
<g id="edge34" class="edge">
<title>Node23&#45;&gt;Node24</title>
<path fill="none" stroke="midnightblue" d="M1046.54,-326.83C1063.75,-299.47 1092.16,-254.28 1106.47,-231.52"/>
<polygon fill="midnightblue" stroke="midnightblue" points="1043.53,-325.05 1041.17,-335.37 1049.46,-328.77 1043.53,-325.05"/>
</g>
<!-- Node25 -->
<g id="node25" class="node">
<title>Node25</title>
<g id="a_node25"><a xlink:href="_squad_order_8h.html" target="_top" xlink:title=" ">
<polygon fill="white" stroke="black" points="1316.79,-201.5 1316.79,-231.5 1447.79,-231.5 1447.79,-201.5 1316.79,-201.5"/>
<text text-anchor="start" x="1324.79" y="-219.5" font-family="Helvetica,sans-Serif" font-size="10.00">include/GameLogic/Squad</text>
<text text-anchor="middle" x="1382.29" y="-208.5" font-family="Helvetica,sans-Serif" font-size="10.00">/SquadOrder.h</text>
</a>
</g>
</g>
<!-- Node23&#45;&gt;Node25 -->
<g id="edge36" class="edge">
<title>Node23&#45;&gt;Node25</title>
<path fill="none" stroke="midnightblue" d="M1106.1,-337.39C1147.37,-329.25 1199.22,-316.73 1243.29,-299 1288.44,-280.83 1336.43,-249.71 1362.54,-231.64"/>
<polygon fill="midnightblue" stroke="midnightblue" points="1105.27,-333.98 1096.11,-339.31 1106.6,-340.85 1105.27,-333.98"/>
</g>
<!-- Node27 -->
<g id="node27" class="node">
<title>Node27</title>
<g id="a_node27"><a xlink:href="_land_unit_8h.html" target="_top" xlink:title=" ">
<polygon fill="white" stroke="black" points="922.79,-268.5 922.79,-298.5 1049.79,-298.5 1049.79,-268.5 922.79,-268.5"/>
<text text-anchor="start" x="930.79" y="-286.5" font-family="Helvetica,sans-Serif" font-size="10.00">include/GameLogic/Units</text>
<text text-anchor="middle" x="986.29" y="-275.5" font-family="Helvetica,sans-Serif" font-size="10.00">/LandUnit.h</text>
</a>
</g>
</g>
<!-- Node23&#45;&gt;Node27 -->
<g id="edge39" class="edge">
<title>Node23&#45;&gt;Node27</title>
<path fill="none" stroke="midnightblue" d="M1016.47,-327.16C1009.77,-317.68 1002.15,-306.92 996.25,-298.58"/>
<polygon fill="midnightblue" stroke="midnightblue" points="1013.67,-329.26 1022.31,-335.4 1019.39,-325.21 1013.67,-329.26"/>
</g>
<!-- Node29 -->
<g id="node29" class="node">
<title>Node29</title>
<g id="a_node29"><a xlink:href="_unit_order_8h.html" target="_top" xlink:title=" ">
<polygon fill="white" stroke="black" points="1106.79,-268.5 1106.79,-298.5 1233.79,-298.5 1233.79,-268.5 1106.79,-268.5"/>
<text text-anchor="start" x="1114.79" y="-286.5" font-family="Helvetica,sans-Serif" font-size="10.00">include/GameLogic/Units</text>
<text text-anchor="middle" x="1170.29" y="-275.5" font-family="Helvetica,sans-Serif" font-size="10.00">/UnitOrder.h</text>
</a>
</g>
</g>
<!-- Node23&#45;&gt;Node29 -->
<g id="edge42" class="edge">
<title>Node23&#45;&gt;Node29</title>
<path fill="none" stroke="midnightblue" d="M1065.7,-330.85C1086.61,-320.58 1113.42,-308.03 1134.73,-298.58"/>
<polygon fill="midnightblue" stroke="midnightblue" points="1063.95,-327.81 1056.55,-335.4 1067.07,-334.08 1063.95,-327.81"/>
</g>
<!-- Node26 -->
<g id="node26" class="node">
<title>Node26</title>
<g id="a_node26"><a xlink:href="_squad_order_8cpp.html" target="_top" xlink:title=" ">
<polygon fill="white" stroke="black" points="1325.29,-134.5 1325.29,-164.5 1439.29,-164.5 1439.29,-134.5 1325.29,-134.5"/>
<text text-anchor="start" x="1333.29" y="-152.5" font-family="Helvetica,sans-Serif" font-size="10.00">src/GameLogic/Squad</text>
<text text-anchor="middle" x="1382.29" y="-141.5" font-family="Helvetica,sans-Serif" font-size="10.00">/SquadOrder.cpp</text>
</a>
</g>
</g>
<!-- Node25&#45;&gt;Node26 -->
<g id="edge37" class="edge">
<title>Node25&#45;&gt;Node26</title>
<path fill="none" stroke="midnightblue" d="M1382.29,-191.11C1382.29,-182.15 1382.29,-172.32 1382.29,-164.58"/>
<polygon fill="midnightblue" stroke="midnightblue" points="1378.79,-191.4 1382.29,-201.4 1385.79,-191.4 1378.79,-191.4"/>
</g>
<!-- Node27&#45;&gt;Node18 -->
<g id="edge41" class="edge">
<title>Node27&#45;&gt;Node18</title>
<path fill="none" stroke="midnightblue" d="M1003.84,-260.11C1015.1,-242.83 1025.52,-218.93 1013.29,-201 998.44,-179.25 972.69,-166.86 948.09,-159.81"/>
<polygon fill="midnightblue" stroke="midnightblue" points="1000.85,-258.27 997.99,-268.47 1006.59,-262.29 1000.85,-258.27"/>
</g>
<!-- Node28 -->
<g id="node28" class="node">
<title>Node28</title>
<g id="a_node28"><a xlink:href="_land_unit_8cpp.html" target="_top" xlink:title=" ">
<polygon fill="white" stroke="black" points="894.29,-201.5 894.29,-231.5 1004.29,-231.5 1004.29,-201.5 894.29,-201.5"/>
<text text-anchor="start" x="902.29" y="-219.5" font-family="Helvetica,sans-Serif" font-size="10.00">src/GameLogic/Units</text>
<text text-anchor="middle" x="949.29" y="-208.5" font-family="Helvetica,sans-Serif" font-size="10.00">/LandUnit.cpp</text>
</a>
</g>
</g>
<!-- Node27&#45;&gt;Node28 -->
<g id="edge40" class="edge">
<title>Node27&#45;&gt;Node28</title>
<path fill="none" stroke="midnightblue" d="M973.24,-259.58C967.92,-250.24 961.95,-239.75 957.3,-231.58"/>
<polygon fill="midnightblue" stroke="midnightblue" points="970.27,-261.44 978.26,-268.4 976.35,-257.97 970.27,-261.44"/>
</g>
<!-- Node29&#45;&gt;Node23 -->
<g id="edge46" class="edge">
<title>Node29&#45;&gt;Node23</title>
<path fill="none" stroke="midnightblue" d="M1136.93,-303.12C1116.03,-313.39 1089.22,-325.94 1067.91,-335.4"/>
<polygon fill="midnightblue" stroke="midnightblue" points="1138.68,-306.16 1146.08,-298.58 1135.56,-299.89 1138.68,-306.16"/>
</g>
<!-- Node29&#45;&gt;Node24 -->
<g id="edge43" class="edge">
<title>Node29&#45;&gt;Node24</title>
<path fill="none" stroke="midnightblue" d="M1151.87,-260.74C1143.73,-251.12 1134.4,-240.09 1127.2,-231.58"/>
<polygon fill="midnightblue" stroke="midnightblue" points="1149.22,-263.02 1158.35,-268.4 1154.56,-258.5 1149.22,-263.02"/>
</g>
<!-- Node29&#45;&gt;Node25 -->
<g id="edge45" class="edge">
<title>Node29&#45;&gt;Node25</title>
<path fill="none" stroke="midnightblue" d="M1225.91,-265.44C1260.28,-254.91 1303.85,-241.55 1336.26,-231.61"/>
<polygon fill="midnightblue" stroke="midnightblue" points="1224.56,-262.2 1216.03,-268.48 1226.61,-268.89 1224.56,-262.2"/>
</g>
<!-- Node30 -->
<g id="node30" class="node">
<title>Node30</title>
<g id="a_node30"><a xlink:href="_unit_order_8cpp.html" target="_top" xlink:title=" ">
<polygon fill="white" stroke="black" points="1188.29,-201.5 1188.29,-231.5 1298.29,-231.5 1298.29,-201.5 1188.29,-201.5"/>
<text text-anchor="start" x="1196.29" y="-219.5" font-family="Helvetica,sans-Serif" font-size="10.00">src/GameLogic/Units</text>
<text text-anchor="middle" x="1243.29" y="-208.5" font-family="Helvetica,sans-Serif" font-size="10.00">/UnitOrder.cpp</text>
</a>
</g>
</g>
<!-- Node29&#45;&gt;Node30 -->
<g id="edge44" class="edge">
<title>Node29&#45;&gt;Node30</title>
<path fill="none" stroke="midnightblue" d="M1193.76,-261.6C1204.78,-251.78 1217.63,-240.34 1227.48,-231.58"/>
<polygon fill="midnightblue" stroke="midnightblue" points="1191.27,-259.13 1186.13,-268.4 1195.92,-264.36 1191.27,-259.13"/>
</g>
</g>
</svg>
