<?xml version="1.0" encoding="UTF-8" standalone="no"?>
<!DOCTYPE svg PUBLIC "-//W3C//DTD SVG 1.1//EN"
 "http://www.w3.org/Graphics/SVG/1.1/DTD/svg11.dtd">
<!-- Generated by graphviz version 2.47.1 (20210421.1823)
 -->
<!-- Title: include/GameLogic/Squad/Squad.h Pages: 1 -->
<svg width="1450pt" height="666pt"
 viewBox="0.00 0.00 1450.00 666.00" xmlns="http://www.w3.org/2000/svg" xmlns:xlink="http://www.w3.org/1999/xlink">
<g id="graph0" class="graph" transform="scale(1 1) rotate(0) translate(4 662)">
<title>include/GameLogic/Squad/Squad.h</title>
<polygon fill="white" stroke="transparent" points="-4,4 -4,-662 1446,-662 1446,4 -4,4"/>
<!-- Node1 -->
<g id="node1" class="node">
<title>Node1</title>
<g id="a_node1"><a xlink:title=" ">
<polygon fill="#bfbfbf" stroke="black" points="874.5,-627.5 874.5,-657.5 1005.5,-657.5 1005.5,-627.5 874.5,-627.5"/>
<text text-anchor="start" x="882.5" y="-645.5" font-family="Helvetica,sans-Serif" font-size="10.00">include/GameLogic/Squad</text>
<text text-anchor="middle" x="940" y="-634.5" font-family="Helvetica,sans-Serif" font-size="10.00">/Squad.h</text>
</a>
</g>
</g>
<!-- Node2 -->
<g id="node2" class="node">
<title>Node2</title>
<g id="a_node2"><a xlink:href="_cell_8h.html" target="_top" xlink:title=" ">
<polygon fill="white" stroke="black" points="788,-515.5 788,-534.5 882,-534.5 882,-515.5 788,-515.5"/>
<text text-anchor="middle" x="835" y="-522.5" font-family="Helvetica,sans-Serif" font-size="10.00">GameLogic/Cell.h</text>
</a>
</g>
</g>
<!-- Node1&#45;&gt;Node2 -->
<g id="edge1" class="edge">
<title>Node1&#45;&gt;Node2</title>
<path fill="none" stroke="midnightblue" d="M902.29,-627.38C885.51,-618.7 866.85,-606.3 854,-591 842.76,-577.62 835.37,-559.05 832.56,-545.19"/>
<polygon fill="midnightblue" stroke="midnightblue" points="835.99,-544.36 831.3,-534.86 829.04,-545.21 835.99,-544.36"/>
</g>
<!-- Node5 -->
<g id="node5" class="node">
<title>Node5</title>
<g id="a_node5"><a xlink:href="gameplay_clickable_game_object_8h.html" target="_top" xlink:title=" ">
<polygon fill="white" stroke="black" points="960.5,-448.5 960.5,-478.5 1089.5,-478.5 1089.5,-448.5 960.5,-448.5"/>
<text text-anchor="start" x="968.5" y="-466.5" font-family="Helvetica,sans-Serif" font-size="10.00">engine/gameplayClickable</text>
<text text-anchor="middle" x="1025" y="-455.5" font-family="Helvetica,sans-Serif" font-size="10.00">GameObject.h</text>
</a>
</g>
</g>
<!-- Node1&#45;&gt;Node5 -->
<g id="edge82" class="edge">
<title>Node1&#45;&gt;Node5</title>
<path fill="none" stroke="midnightblue" d="M975.13,-627.3C990.71,-619.11 1007.6,-607.17 1017,-591 1035.38,-559.4 1033.27,-515.55 1029.53,-488.65"/>
<polygon fill="midnightblue" stroke="midnightblue" points="1032.96,-487.9 1027.94,-478.57 1026.04,-488.99 1032.96,-487.9"/>
</g>
<!-- Node8 -->
<g id="node8" class="node">
<title>Node8</title>
<g id="a_node8"><a xlink:href="config_8h.html" target="_top" xlink:title=" ">
<polygon fill="white" stroke="black" points="743.5,-112.5 743.5,-131.5 824.5,-131.5 824.5,-112.5 743.5,-112.5"/>
<text text-anchor="middle" x="784" y="-119.5" font-family="Helvetica,sans-Serif" font-size="10.00">engine/config.h</text>
</a>
</g>
</g>
<!-- Node1&#45;&gt;Node8 -->
<g id="edge86" class="edge">
<title>Node1&#45;&gt;Node8</title>
<path fill="none" stroke="midnightblue" d="M1005.99,-638.77C1134.09,-631.65 1404,-607.04 1404,-526 1404,-526 1404,-526 1404,-345 1404,-209.22 1281.62,-217.02 1155,-168 1140.24,-162.29 932.51,-139.15 834.5,-128.46"/>
<polygon fill="midnightblue" stroke="midnightblue" points="834.84,-124.98 824.52,-127.37 834.08,-131.93 834.84,-124.98"/>
</g>
<!-- Node11 -->
<g id="node11" class="node">
<title>Node11</title>
<g id="a_node11"><a xlink:href="_facade_8h.html" target="_top" xlink:title=" ">
<polygon fill="white" stroke="black" points="1323,-0.5 1323,-19.5 1379,-19.5 1379,-0.5 1323,-0.5"/>
<text text-anchor="middle" x="1351" y="-7.5" font-family="Helvetica,sans-Serif" font-size="10.00">Facade.h</text>
</a>
</g>
</g>
<!-- Node1&#45;&gt;Node11 -->
<g id="edge87" class="edge">
<title>Node1&#45;&gt;Node11</title>
<path fill="none" stroke="midnightblue" d="M1005.63,-640.03C1141.7,-635.21 1442,-614.54 1442,-526 1442,-526 1442,-526 1442,-121 1442,-78.47 1401.11,-43.53 1374.15,-25.12"/>
<polygon fill="midnightblue" stroke="midnightblue" points="1375.9,-22.08 1365.62,-19.52 1372.06,-27.93 1375.9,-22.08"/>
</g>
<!-- Node31 -->
<g id="node31" class="node">
<title>Node31</title>
<g id="a_node31"><a xlink:href="_unit_8h.html" target="_top" xlink:title=" ">
<polygon fill="white" stroke="black" points="178,-280.5 178,-299.5 220,-299.5 220,-280.5 178,-280.5"/>
<text text-anchor="middle" x="199" y="-287.5" font-family="Helvetica,sans-Serif" font-size="10.00">Unit.h</text>
</a>
</g>
</g>
<!-- Node1&#45;&gt;Node31 -->
<g id="edge81" class="edge">
<title>Node1&#45;&gt;Node31</title>
<path fill="none" stroke="midnightblue" d="M874.18,-639.48C674.87,-632.36 92,-604.43 92,-526 92,-526 92,-526 92,-401 92,-369.54 99.66,-360 120,-336 132.81,-320.89 151.97,-309.06 168.39,-301.33"/>
<polygon fill="midnightblue" stroke="midnightblue" points="169.93,-304.48 177.68,-297.26 167.11,-298.07 169.93,-304.48"/>
</g>
<!-- Node42 -->
<g id="node42" class="node">
<title>Node42</title>
<g id="a_node42"><a xlink:href="_player_8h.html" target="_top" xlink:title=" ">
<polygon fill="white" stroke="black" points="1202,-336.5 1202,-355.5 1306,-355.5 1306,-336.5 1202,-336.5"/>
<text text-anchor="middle" x="1254" y="-343.5" font-family="Helvetica,sans-Serif" font-size="10.00">GameLogic/Player.h</text>
</a>
</g>
</g>
<!-- Node1&#45;&gt;Node42 -->
<g id="edge88" class="edge">
<title>Node1&#45;&gt;Node42</title>
<path fill="none" stroke="midnightblue" d="M1005.71,-634.24C1092.55,-620.7 1242.32,-582.8 1309,-479 1333.82,-440.36 1294.06,-388.64 1270.08,-362.92"/>
<polygon fill="midnightblue" stroke="midnightblue" points="1272.42,-360.3 1262.95,-355.53 1267.38,-365.16 1272.42,-360.3"/>
</g>
<!-- Node43 -->
<g id="node43" class="node">
<title>Node43</title>
<g id="a_node43"><a xlink:href="_game_logic_2_squad_2_action_8h.html" target="_top" xlink:title=" ">
<polygon fill="white" stroke="black" points="872,-571.5 872,-590.5 1008,-590.5 1008,-571.5 872,-571.5"/>
<text text-anchor="middle" x="940" y="-578.5" font-family="Helvetica,sans-Serif" font-size="10.00">GameLogic/Squad/Action.h</text>
</a>
</g>
</g>
<!-- Node1&#45;&gt;Node43 -->
<g id="edge83" class="edge">
<title>Node1&#45;&gt;Node43</title>
<path fill="none" stroke="midnightblue" d="M934.16,-627.4C933.13,-619.38 932.97,-609.23 933.69,-600.57"/>
<polygon fill="midnightblue" stroke="midnightblue" points="937.16,-601.04 935.07,-590.66 930.23,-600.08 937.16,-601.04"/>
</g>
<!-- Node2&#45;&gt;Node1 -->
<g id="edge26" class="edge">
<title>Node2&#45;&gt;Node1</title>
<path fill="none" stroke="midnightblue" d="M842.83,-534.86C849.53,-548.25 857.62,-573.87 872,-591 882.44,-603.43 896.72,-613.95 909.58,-622.11"/>
<polygon fill="midnightblue" stroke="midnightblue" points="907.84,-625.15 918.19,-627.38 911.49,-619.18 907.84,-625.15"/>
</g>
<!-- Node3 -->
<g id="node3" class="node">
<title>Node3</title>
<g id="a_node3"><a xlink:title=" ">
<polygon fill="white" stroke="#bfbfbf" points="284.5,-336.5 284.5,-355.5 319.5,-355.5 319.5,-336.5 284.5,-336.5"/>
<text text-anchor="middle" x="302" y="-343.5" font-family="Helvetica,sans-Serif" font-size="10.00">map</text>
</a>
</g>
</g>
<!-- Node2&#45;&gt;Node3 -->
<g id="edge2" class="edge">
<title>Node2&#45;&gt;Node3</title>
<path fill="none" stroke="midnightblue" d="M787.59,-523.26C665.82,-520.9 349.29,-511.66 316,-479 285.79,-449.37 291.72,-394.33 297.48,-365.58"/>
<polygon fill="midnightblue" stroke="midnightblue" points="300.94,-366.16 299.68,-355.64 294.1,-364.65 300.94,-366.16"/>
</g>
<!-- Node4 -->
<g id="node4" class="node">
<title>Node4</title>
<g id="a_node4"><a xlink:title=" ">
<polygon fill="white" stroke="#bfbfbf" points="874,-454 874,-473 904,-473 904,-454 874,-454"/>
<text text-anchor="middle" x="889" y="-461" font-family="Helvetica,sans-Serif" font-size="10.00">set</text>
</a>
</g>
</g>
<!-- Node2&#45;&gt;Node4 -->
<g id="edge3" class="edge">
<title>Node2&#45;&gt;Node4</title>
<path fill="none" stroke="midnightblue" d="M842.74,-515.48C851,-506.37 864.28,-491.74 874.49,-480.48"/>
<polygon fill="midnightblue" stroke="midnightblue" points="877.15,-482.77 881.28,-473.01 871.97,-478.06 877.15,-482.77"/>
</g>
<!-- Node2&#45;&gt;Node5 -->
<g id="edge4" class="edge">
<title>Node2&#45;&gt;Node5</title>
<path fill="none" stroke="midnightblue" d="M862.22,-515.48C890.36,-506.66 935.05,-492.67 970.49,-481.57"/>
<polygon fill="midnightblue" stroke="midnightblue" points="971.72,-484.85 980.22,-478.52 969.63,-478.17 971.72,-484.85"/>
</g>
<!-- Node2&#45;&gt;Node8 -->
<g id="edge24" class="edge">
<title>Node2&#45;&gt;Node8</title>
<path fill="none" stroke="midnightblue" d="M836.83,-515.21C843.29,-481.75 862.24,-360.2 815,-280 800.36,-255.15 774.61,-269.43 761,-244 745.06,-214.22 753.09,-200.84 761,-168 763.31,-158.42 768.02,-148.58 772.58,-140.56"/>
<polygon fill="midnightblue" stroke="midnightblue" points="775.69,-142.17 777.9,-131.81 769.71,-138.54 775.69,-142.17"/>
</g>
<!-- Node2&#45;&gt;Node11 -->
<g id="edge25" class="edge">
<title>Node2&#45;&gt;Node11</title>
<path fill="none" stroke="midnightblue" d="M882.34,-522.22C995.53,-517.58 1274.99,-503.74 1309,-479 1360.68,-441.41 1366,-410.9 1366,-347 1366,-347 1366,-347 1366,-121 1366,-88.5 1359.49,-51.1 1355.05,-29.34"/>
<polygon fill="midnightblue" stroke="midnightblue" points="1358.46,-28.56 1352.96,-19.5 1351.61,-30.01 1358.46,-28.56"/>
</g>
<!-- Node14 -->
<g id="node14" class="node">
<title>Node14</title>
<g id="a_node14"><a xlink:title=" ">
<polygon fill="white" stroke="#bfbfbf" points="263,-56.5 263,-75.5 317,-75.5 317,-56.5 263,-56.5"/>
<text text-anchor="middle" x="290" y="-63.5" font-family="Helvetica,sans-Serif" font-size="10.00">iostream</text>
</a>
</g>
</g>
<!-- Node2&#45;&gt;Node14 -->
<g id="edge27" class="edge">
<title>Node2&#45;&gt;Node14</title>
<path fill="none" stroke="midnightblue" d="M787.65,-523.74C666.67,-522.53 348.91,-515.84 251,-479 120.55,-429.92 0,-430.38 0,-291 0,-291 0,-291 0,-177 0,-128.38 43.76,-132.17 88,-112 142.25,-87.27 211.04,-75.69 252.73,-70.61"/>
<polygon fill="midnightblue" stroke="midnightblue" points="253.19,-74.08 262.72,-69.45 252.38,-67.12 253.19,-74.08"/>
</g>
<!-- Node16 -->
<g id="node16" class="node">
<title>Node16</title>
<g id="a_node16"><a xlink:href="cellgen_8h.html" target="_top" xlink:title=" ">
<polygon fill="white" stroke="black" points="197.5,-392.5 197.5,-411.5 268.5,-411.5 268.5,-392.5 197.5,-392.5"/>
<text text-anchor="middle" x="233" y="-399.5" font-family="Helvetica,sans-Serif" font-size="10.00">util/cellgen.h</text>
</a>
</g>
</g>
<!-- Node2&#45;&gt;Node16 -->
<g id="edge15" class="edge">
<title>Node2&#45;&gt;Node16</title>
<path fill="none" stroke="midnightblue" d="M787.69,-522.51C661.91,-518.2 325.91,-504.44 283,-479 261.19,-466.07 247.08,-439.48 239.58,-421.44"/>
<polygon fill="midnightblue" stroke="midnightblue" points="242.79,-420.04 235.92,-411.98 236.26,-422.56 242.79,-420.04"/>
</g>
<!-- Node19 -->
<g id="node19" class="node">
<title>Node19</title>
<g id="a_node19"><a xlink:href="_all_flags_8h.html" target="_top" xlink:title=" ">
<polygon fill="white" stroke="black" points="288.5,-224.5 288.5,-243.5 347.5,-243.5 347.5,-224.5 288.5,-224.5"/>
<text text-anchor="middle" x="318" y="-231.5" font-family="Helvetica,sans-Serif" font-size="10.00">AllFlags.h</text>
</a>
</g>
</g>
<!-- Node2&#45;&gt;Node19 -->
<g id="edge19" class="edge">
<title>Node2&#45;&gt;Node19</title>
<path fill="none" stroke="midnightblue" d="M809.48,-515.41C760.94,-498.62 652.61,-458.95 568,-412 520.19,-385.47 387.86,-287.34 337.66,-249.77"/>
<polygon fill="midnightblue" stroke="midnightblue" points="339.64,-246.88 329.54,-243.68 335.44,-252.48 339.64,-246.88"/>
</g>
<!-- Node22 -->
<g id="node22" class="node">
<title>Node22</title>
<g id="a_node22"><a xlink:href="geometry_8h.html" target="_top" xlink:title=" ">
<polygon fill="white" stroke="black" points="325,-454 325,-473 405,-473 405,-454 325,-454"/>
<text text-anchor="middle" x="365" y="-461" font-family="Helvetica,sans-Serif" font-size="10.00">util/geometry.h</text>
</a>
</g>
</g>
<!-- Node2&#45;&gt;Node22 -->
<g id="edge28" class="edge">
<title>Node2&#45;&gt;Node22</title>
<path fill="none" stroke="midnightblue" d="M787.86,-521.28C710.38,-516.28 551.45,-503.79 419,-479 413.88,-478.04 408.54,-476.85 403.29,-475.56"/>
<polygon fill="midnightblue" stroke="midnightblue" points="403.95,-472.12 393.4,-473.01 402.2,-478.9 403.95,-472.12"/>
</g>
<!-- Node23 -->
<g id="node23" class="node">
<title>Node23</title>
<g id="a_node23"><a xlink:href="_none_8h.html" target="_top" xlink:title=" ">
<polygon fill="white" stroke="black" points="1032.5,-168.5 1032.5,-187.5 1145.5,-187.5 1145.5,-168.5 1032.5,-168.5"/>
<text text-anchor="middle" x="1089" y="-175.5" font-family="Helvetica,sans-Serif" font-size="10.00">engine/actions/None.h</text>
</a>
</g>
</g>
<!-- Node2&#45;&gt;Node23 -->
<g id="edge31" class="edge">
<title>Node2&#45;&gt;Node23</title>
<path fill="none" stroke="midnightblue" d="M854.68,-515.39C871.35,-507.48 895.31,-494.64 913,-479 987.65,-413 1001.42,-388.09 1048,-300 1066.08,-265.81 1078.55,-222.05 1084.67,-197.63"/>
<polygon fill="midnightblue" stroke="midnightblue" points="1088.15,-198.14 1087.09,-187.59 1081.34,-196.49 1088.15,-198.14"/>
</g>
<!-- Node24 -->
<g id="node24" class="node">
<title>Node24</title>
<g id="a_node24"><a xlink:href="game_controller_8h.html" target="_top" xlink:title=" ">
<polygon fill="white" stroke="black" points="863.5,-280.5 863.5,-299.5 984.5,-299.5 984.5,-280.5 863.5,-280.5"/>
<text text-anchor="middle" x="924" y="-287.5" font-family="Helvetica,sans-Serif" font-size="10.00">engine/gameController.h</text>
</a>
</g>
</g>
<!-- Node2&#45;&gt;Node24 -->
<g id="edge33" class="edge">
<title>Node2&#45;&gt;Node24</title>
<path fill="none" stroke="midnightblue" d="M838.27,-515.43C851.19,-481.61 898.81,-356.95 916.93,-309.5"/>
<polygon fill="midnightblue" stroke="midnightblue" points="920.3,-310.49 920.6,-299.9 913.76,-307.99 920.3,-310.49"/>
</g>
<!-- Node28 -->
<g id="node28" class="node">
<title>Node28</title>
<g id="a_node28"><a xlink:href="_set_squad_path_8h.html" target="_top" xlink:title=" ">
<polygon fill="white" stroke="black" points="1146.5,-454 1146.5,-473 1299.5,-473 1299.5,-454 1146.5,-454"/>
<text text-anchor="middle" x="1223" y="-461" font-family="Helvetica,sans-Serif" font-size="10.00">engine/actions/SetSquadPath.h</text>
</a>
</g>
</g>
<!-- Node2&#45;&gt;Node28 -->
<g id="edge42" class="edge">
<title>Node2&#45;&gt;Node28</title>
<path fill="none" stroke="midnightblue" d="M882.08,-515.99C939.17,-507.09 1037.97,-492.22 1123,-479 1132.15,-477.58 1141.82,-476.06 1151.4,-474.56"/>
<polygon fill="midnightblue" stroke="midnightblue" points="1151.99,-478.01 1161.33,-473 1150.91,-471.09 1151.99,-478.01"/>
</g>
<!-- Node29 -->
<g id="node29" class="node">
<title>Node29</title>
<g id="a_node29"><a xlink:href="_all_units_8h.html" target="_top" xlink:title=" ">
<polygon fill="white" stroke="black" points="461.5,-392.5 461.5,-411.5 520.5,-411.5 520.5,-392.5 461.5,-392.5"/>
<text text-anchor="middle" x="491" y="-399.5" font-family="Helvetica,sans-Serif" font-size="10.00">AllUnits.h</text>
</a>
</g>
</g>
<!-- Node2&#45;&gt;Node29 -->
<g id="edge46" class="edge">
<title>Node2&#45;&gt;Node29</title>
<path fill="none" stroke="midnightblue" d="M787.81,-524.49C705.13,-524.29 539.16,-518.78 500,-479 485.4,-464.17 485.3,-439.02 487.42,-421.74"/>
<polygon fill="midnightblue" stroke="midnightblue" points="490.9,-422.14 489,-411.71 483.99,-421.04 490.9,-422.14"/>
</g>
<!-- Node36 -->
<g id="node36" class="node">
<title>Node36</title>
<g id="a_node36"><a xlink:href="_all_squad_templates_8h.html" target="_top" xlink:title=" ">
<polygon fill="white" stroke="black" points="509.5,-454 509.5,-473 618.5,-473 618.5,-454 509.5,-454"/>
<text text-anchor="middle" x="564" y="-461" font-family="Helvetica,sans-Serif" font-size="10.00">AllSquadTemplates.h</text>
</a>
</g>
</g>
<!-- Node2&#45;&gt;Node36 -->
<g id="edge63" class="edge">
<title>Node2&#45;&gt;Node36</title>
<path fill="none" stroke="midnightblue" d="M796.17,-515.48C747.88,-504.87 665.39,-486.76 612.85,-475.22"/>
<polygon fill="midnightblue" stroke="midnightblue" points="613.27,-471.74 602.76,-473.01 611.77,-478.57 613.27,-471.74"/>
</g>
<!-- Node2&#45;&gt;Node42 -->
<g id="edge80" class="edge">
<title>Node2&#45;&gt;Node42</title>
<path fill="none" stroke="midnightblue" d="M882.05,-523.43C936.65,-521.11 1028.23,-512.07 1099,-479 1107,-475.26 1197,-396.89 1236.07,-362.71"/>
<polygon fill="midnightblue" stroke="midnightblue" points="1238.79,-364.98 1244.01,-355.76 1234.18,-359.72 1238.79,-364.98"/>
</g>
<!-- Node6 -->
<g id="node6" class="node">
<title>Node6</title>
<g id="a_node6"><a xlink:href="game_object_8h.html" target="_top" xlink:title=" ">
<polygon fill="white" stroke="black" points="898.5,-168.5 898.5,-187.5 975.5,-187.5 975.5,-168.5 898.5,-168.5"/>
<text text-anchor="middle" x="937" y="-175.5" font-family="Helvetica,sans-Serif" font-size="10.00">gameObject.h</text>
</a>
</g>
</g>
<!-- Node5&#45;&gt;Node6 -->
<g id="edge5" class="edge">
<title>Node5&#45;&gt;Node6</title>
<path fill="none" stroke="midnightblue" d="M1026.82,-448.3C1029.45,-426.54 1034,-383.61 1034,-347 1034,-347 1034,-347 1034,-289 1034,-245.35 990.49,-210.83 961.76,-192.79"/>
<polygon fill="midnightblue" stroke="midnightblue" points="963.39,-189.68 953.02,-187.52 959.77,-195.68 963.39,-189.68"/>
</g>
<!-- Node7 -->
<g id="node7" class="node">
<title>Node7</title>
<g id="a_node7"><a xlink:title=" ">
<polygon fill="white" stroke="#bfbfbf" points="885.5,-112.5 885.5,-131.5 914.5,-131.5 914.5,-112.5 885.5,-112.5"/>
<text text-anchor="middle" x="900" y="-119.5" font-family="Helvetica,sans-Serif" font-size="10.00">list</text>
</a>
</g>
</g>
<!-- Node6&#45;&gt;Node7 -->
<g id="edge6" class="edge">
<title>Node6&#45;&gt;Node7</title>
<path fill="none" stroke="midnightblue" d="M930.89,-168.08C925.72,-160.53 918.15,-149.49 911.81,-140.23"/>
<polygon fill="midnightblue" stroke="midnightblue" points="914.54,-138.02 906,-131.75 908.76,-141.98 914.54,-138.02"/>
</g>
<!-- Node6&#45;&gt;Node8 -->
<g id="edge7" class="edge">
<title>Node6&#45;&gt;Node8</title>
<path fill="none" stroke="midnightblue" d="M912.76,-168.44C887.13,-159.4 846.51,-145.06 817.76,-134.92"/>
<polygon fill="midnightblue" stroke="midnightblue" points="818.72,-131.54 808.13,-131.52 816.39,-138.15 818.72,-131.54"/>
</g>
<!-- Node13 -->
<g id="node13" class="node">
<title>Node13</title>
<g id="a_node13"><a xlink:href="engine_2_action_8h.html" target="_top" xlink:title=" ">
<polygon fill="white" stroke="black" points="932.5,-112.5 932.5,-131.5 1015.5,-131.5 1015.5,-112.5 932.5,-112.5"/>
<text text-anchor="middle" x="974" y="-119.5" font-family="Helvetica,sans-Serif" font-size="10.00">engine/Action.h</text>
</a>
</g>
</g>
<!-- Node6&#45;&gt;Node13 -->
<g id="edge12" class="edge">
<title>Node6&#45;&gt;Node13</title>
<path fill="none" stroke="midnightblue" d="M943.11,-168.08C948.28,-160.53 955.85,-149.49 962.19,-140.23"/>
<polygon fill="midnightblue" stroke="midnightblue" points="965.24,-141.98 968,-131.75 959.46,-138.02 965.24,-141.98"/>
</g>
<!-- Node9 -->
<g id="node9" class="node">
<title>Node9</title>
<g id="a_node9"><a xlink:href="_s_f_m_l_facade_8h.html" target="_top" xlink:title=" ">
<polygon fill="white" stroke="black" points="1176.5,-56.5 1176.5,-75.5 1299.5,-75.5 1299.5,-56.5 1176.5,-56.5"/>
<text text-anchor="middle" x="1238" y="-63.5" font-family="Helvetica,sans-Serif" font-size="10.00">graphics/SFMLFacade.h</text>
</a>
</g>
</g>
<!-- Node8&#45;&gt;Node9 -->
<g id="edge8" class="edge">
<title>Node8&#45;&gt;Node9</title>
<path fill="none" stroke="midnightblue" d="M824.69,-116.16C901.73,-107 1069.8,-87.01 1166.2,-75.54"/>
<polygon fill="midnightblue" stroke="midnightblue" points="1166.65,-79.01 1176.16,-74.36 1165.82,-72.06 1166.65,-79.01"/>
</g>
<!-- Node12 -->
<g id="node12" class="node">
<title>Node12</title>
<g id="a_node12"><a xlink:title=" ">
<polygon fill="white" stroke="#bfbfbf" points="735,-56.5 735,-75.5 833,-75.5 833,-56.5 735,-56.5"/>
<text text-anchor="middle" x="784" y="-63.5" font-family="Helvetica,sans-Serif" font-size="10.00">nlohmann/json.hpp</text>
</a>
</g>
</g>
<!-- Node8&#45;&gt;Node12 -->
<g id="edge11" class="edge">
<title>Node8&#45;&gt;Node12</title>
<path fill="none" stroke="midnightblue" d="M784,-112.08C784,-105.01 784,-94.86 784,-85.99"/>
<polygon fill="midnightblue" stroke="midnightblue" points="787.5,-85.75 784,-75.75 780.5,-85.75 787.5,-85.75"/>
</g>
<!-- Node10 -->
<g id="node10" class="node">
<title>Node10</title>
<g id="a_node10"><a xlink:title=" ">
<polygon fill="white" stroke="#bfbfbf" points="1186,-0.5 1186,-19.5 1290,-19.5 1290,-0.5 1186,-0.5"/>
<text text-anchor="middle" x="1238" y="-7.5" font-family="Helvetica,sans-Serif" font-size="10.00">SFML/Graphics.hpp</text>
</a>
</g>
</g>
<!-- Node9&#45;&gt;Node10 -->
<g id="edge9" class="edge">
<title>Node9&#45;&gt;Node10</title>
<path fill="none" stroke="midnightblue" d="M1238,-56.08C1238,-49.01 1238,-38.86 1238,-29.99"/>
<polygon fill="midnightblue" stroke="midnightblue" points="1241.5,-29.75 1238,-19.75 1234.5,-29.75 1241.5,-29.75"/>
</g>
<!-- Node9&#45;&gt;Node11 -->
<g id="edge10" class="edge">
<title>Node9&#45;&gt;Node11</title>
<path fill="none" stroke="midnightblue" d="M1255.91,-56.44C1274.25,-47.68 1303.01,-33.94 1324.09,-23.86"/>
<polygon fill="midnightblue" stroke="midnightblue" points="1325.67,-26.99 1333.18,-19.52 1322.65,-20.67 1325.67,-26.99"/>
</g>
<!-- Node13&#45;&gt;Node14 -->
<g id="edge13" class="edge">
<title>Node13&#45;&gt;Node14</title>
<path fill="none" stroke="midnightblue" d="M932.31,-113.14C929.5,-112.72 926.71,-112.34 924,-112 691.89,-83.24 632.22,-93.62 399,-76 375.19,-74.2 348.47,-72 327.44,-70.22"/>
<polygon fill="midnightblue" stroke="midnightblue" points="327.58,-66.72 317.32,-69.36 326.98,-73.69 327.58,-66.72"/>
</g>
<!-- Node15 -->
<g id="node15" class="node">
<title>Node15</title>
<g id="a_node15"><a xlink:title=" ">
<polygon fill="white" stroke="#bfbfbf" points="408.5,-56.5 408.5,-75.5 459.5,-75.5 459.5,-56.5 408.5,-56.5"/>
<text text-anchor="middle" x="434" y="-63.5" font-family="Helvetica,sans-Serif" font-size="10.00">memory</text>
</a>
</g>
</g>
<!-- Node13&#45;&gt;Node15 -->
<g id="edge14" class="edge">
<title>Node13&#45;&gt;Node15</title>
<path fill="none" stroke="midnightblue" d="M932.3,-113.22C929.5,-112.78 926.71,-112.37 924,-112 754.68,-89.03 550.82,-74.48 469.76,-69.22"/>
<polygon fill="midnightblue" stroke="midnightblue" points="469.8,-65.71 459.59,-68.57 469.35,-72.7 469.8,-65.71"/>
</g>
<!-- Node16&#45;&gt;Node3 -->
<g id="edge17" class="edge">
<title>Node16&#45;&gt;Node3</title>
<path fill="none" stroke="midnightblue" d="M244.09,-392.32C254.49,-384.18 270.26,-371.84 282.72,-362.09"/>
<polygon fill="midnightblue" stroke="midnightblue" points="284.99,-364.75 290.71,-355.83 280.68,-359.24 284.99,-364.75"/>
</g>
<!-- Node17 -->
<g id="node17" class="node">
<title>Node17</title>
<g id="a_node17"><a xlink:title=" ">
<polygon fill="white" stroke="#bfbfbf" points="393,-112.5 393,-131.5 437,-131.5 437,-112.5 393,-112.5"/>
<text text-anchor="middle" x="415" y="-119.5" font-family="Helvetica,sans-Serif" font-size="10.00">vector</text>
</a>
</g>
</g>
<!-- Node16&#45;&gt;Node17 -->
<g id="edge16" class="edge">
<title>Node16&#45;&gt;Node17</title>
<path fill="none" stroke="midnightblue" d="M197.09,-393.04C174.89,-386.46 147.25,-375.03 129,-356 86.29,-311.47 49.33,-273.62 86,-224 88.29,-220.9 300.79,-157.13 383.02,-132.55"/>
<polygon fill="midnightblue" stroke="midnightblue" points="384.25,-135.83 392.83,-129.62 382.24,-129.13 384.25,-135.83"/>
</g>
<!-- Node18 -->
<g id="node18" class="node">
<title>Node18</title>
<g id="a_node18"><a xlink:title=" ">
<polygon fill="white" stroke="#bfbfbf" points="138,-336.5 138,-355.5 266,-355.5 266,-336.5 138,-336.5"/>
<text text-anchor="middle" x="202" y="-343.5" font-family="Helvetica,sans-Serif" font-size="10.00">scanline_triangulation.hpp</text>
</a>
</g>
</g>
<!-- Node16&#45;&gt;Node18 -->
<g id="edge18" class="edge">
<title>Node16&#45;&gt;Node18</title>
<path fill="none" stroke="midnightblue" d="M227.88,-392.08C223.59,-384.61 217.34,-373.72 212.06,-364.52"/>
<polygon fill="midnightblue" stroke="midnightblue" points="215.04,-362.68 207.02,-355.75 208.97,-366.17 215.04,-362.68"/>
</g>
<!-- Node19&#45;&gt;Node15 -->
<g id="edge23" class="edge">
<title>Node19&#45;&gt;Node15</title>
<path fill="none" stroke="midnightblue" d="M305.5,-224.3C295.13,-216.25 281.11,-203.24 275,-188 267.78,-169.99 272.06,-123.72 282,-112 310.48,-78.44 362.71,-69.25 397.89,-67.08"/>
<polygon fill="midnightblue" stroke="midnightblue" points="398.39,-70.56 408.22,-66.61 398.07,-63.56 398.39,-70.56"/>
</g>
<!-- Node20 -->
<g id="node20" class="node">
<title>Node20</title>
<g id="a_node20"><a xlink:href="_flag_8h.html" target="_top" xlink:title=" ">
<polygon fill="white" stroke="black" points="146.5,-168.5 146.5,-187.5 189.5,-187.5 189.5,-168.5 146.5,-168.5"/>
<text text-anchor="middle" x="168" y="-175.5" font-family="Helvetica,sans-Serif" font-size="10.00">Flag.h</text>
</a>
</g>
</g>
<!-- Node19&#45;&gt;Node20 -->
<g id="edge20" class="edge">
<title>Node19&#45;&gt;Node20</title>
<path fill="none" stroke="midnightblue" d="M294.23,-224.44C268.52,-215.19 227.41,-200.39 199.13,-190.21"/>
<polygon fill="midnightblue" stroke="midnightblue" points="200.3,-186.91 189.71,-186.82 197.93,-193.5 200.3,-186.91"/>
</g>
<!-- Node20&#45;&gt;Node17 -->
<g id="edge21" class="edge">
<title>Node20&#45;&gt;Node17</title>
<path fill="none" stroke="midnightblue" d="M189.78,-172.95C227.13,-165.89 305.99,-150.52 382.83,-131.9"/>
<polygon fill="midnightblue" stroke="midnightblue" points="383.79,-135.26 392.67,-129.49 382.13,-128.46 383.79,-135.26"/>
</g>
<!-- Node21 -->
<g id="node21" class="node">
<title>Node21</title>
<g id="a_node21"><a xlink:title=" ">
<polygon fill="white" stroke="#bfbfbf" points="97.5,-112.5 97.5,-131.5 138.5,-131.5 138.5,-112.5 97.5,-112.5"/>
<text text-anchor="middle" x="118" y="-119.5" font-family="Helvetica,sans-Serif" font-size="10.00">string</text>
</a>
</g>
</g>
<!-- Node20&#45;&gt;Node21 -->
<g id="edge22" class="edge">
<title>Node20&#45;&gt;Node21</title>
<path fill="none" stroke="midnightblue" d="M159.74,-168.08C152.54,-160.3 141.89,-148.8 133.15,-139.37"/>
<polygon fill="midnightblue" stroke="midnightblue" points="135.47,-136.71 126.1,-131.75 130.33,-141.47 135.47,-136.71"/>
</g>
<!-- Node22&#45;&gt;Node16 -->
<g id="edge30" class="edge">
<title>Node22&#45;&gt;Node16</title>
<path fill="none" stroke="midnightblue" d="M346.09,-453.98C323.84,-443.95 286.69,-427.2 261.07,-415.65"/>
<polygon fill="midnightblue" stroke="midnightblue" points="262.43,-412.43 251.88,-411.51 259.56,-418.81 262.43,-412.43"/>
</g>
<!-- Node22&#45;&gt;Node17 -->
<g id="edge29" class="edge">
<title>Node22&#45;&gt;Node17</title>
<path fill="none" stroke="midnightblue" d="M365.47,-453.88C366.64,-433.38 370.05,-380.13 376,-336 385.73,-263.74 403.1,-178.72 410.95,-141.75"/>
<polygon fill="midnightblue" stroke="midnightblue" points="414.39,-142.39 413.06,-131.88 407.55,-140.93 414.39,-142.39"/>
</g>
<!-- Node23&#45;&gt;Node13 -->
<g id="edge32" class="edge">
<title>Node23&#45;&gt;Node13</title>
<path fill="none" stroke="midnightblue" d="M1070.78,-168.44C1052.1,-159.68 1022.84,-145.94 1001.38,-135.86"/>
<polygon fill="midnightblue" stroke="midnightblue" points="1002.68,-132.6 992.14,-131.52 999.7,-138.93 1002.68,-132.6"/>
</g>
<!-- Node24&#45;&gt;Node6 -->
<g id="edge35" class="edge">
<title>Node24&#45;&gt;Node6</title>
<path fill="none" stroke="midnightblue" d="M940.33,-280.39C952.96,-272.72 969.5,-260.21 977,-244 985.23,-226.21 970.59,-207.27 956.76,-194.45"/>
<polygon fill="midnightblue" stroke="midnightblue" points="958.75,-191.55 948.89,-187.67 954.18,-196.85 958.75,-191.55"/>
</g>
<!-- Node24&#45;&gt;Node7 -->
<g id="edge34" class="edge">
<title>Node24&#45;&gt;Node7</title>
<path fill="none" stroke="midnightblue" d="M947.45,-280.41C963.16,-273.28 982.62,-261.46 992,-244 1000.32,-228.53 998.03,-186.88 985,-168 977.44,-157.05 946.34,-142.29 923.94,-132.71"/>
<polygon fill="midnightblue" stroke="midnightblue" points="925.25,-129.46 914.68,-128.82 922.55,-135.92 925.25,-129.46"/>
</g>
<!-- Node25 -->
<g id="node25" class="node">
<title>Node25</title>
<g id="a_node25"><a xlink:href="_network_manager_8h.html" target="_top" xlink:title=" ">
<polygon fill="white" stroke="black" points="838,-224.5 838,-243.5 968,-243.5 968,-224.5 838,-224.5"/>
<text text-anchor="middle" x="903" y="-231.5" font-family="Helvetica,sans-Serif" font-size="10.00">engine/NetworkManager.h</text>
</a>
</g>
</g>
<!-- Node24&#45;&gt;Node25 -->
<g id="edge36" class="edge">
<title>Node24&#45;&gt;Node25</title>
<path fill="none" stroke="midnightblue" d="M920.53,-280.08C917.69,-272.77 913.57,-262.18 910.04,-253.1"/>
<polygon fill="midnightblue" stroke="midnightblue" points="913.29,-251.8 906.4,-243.75 906.77,-254.34 913.29,-251.8"/>
</g>
<!-- Node27 -->
<g id="node27" class="node">
<title>Node27</title>
<g id="a_node27"><a xlink:title=" ">
<polygon fill="white" stroke="#bfbfbf" points="770.5,-224.5 770.5,-243.5 819.5,-243.5 819.5,-224.5 770.5,-224.5"/>
<text text-anchor="middle" x="795" y="-231.5" font-family="Helvetica,sans-Serif" font-size="10.00">random</text>
</a>
</g>
</g>
<!-- Node24&#45;&gt;Node27 -->
<g id="edge41" class="edge">
<title>Node24&#45;&gt;Node27</title>
<path fill="none" stroke="midnightblue" d="M903.56,-280.44C882.33,-271.56 848.9,-257.56 824.75,-247.45"/>
<polygon fill="midnightblue" stroke="midnightblue" points="825.92,-244.15 815.34,-243.52 823.22,-250.61 825.92,-244.15"/>
</g>
<!-- Node25&#45;&gt;Node6 -->
<g id="edge37" class="edge">
<title>Node25&#45;&gt;Node6</title>
<path fill="none" stroke="midnightblue" d="M908.61,-224.08C913.37,-216.53 920.32,-205.49 926.15,-196.23"/>
<polygon fill="midnightblue" stroke="midnightblue" points="929.12,-198.08 931.49,-187.75 923.2,-194.35 929.12,-198.08"/>
</g>
<!-- Node25&#45;&gt;Node17 -->
<g id="edge39" class="edge">
<title>Node25&#45;&gt;Node17</title>
<path fill="none" stroke="midnightblue" d="M898.99,-224.43C891.71,-209.97 874.85,-181.01 851,-168 781.35,-130 535.89,-124.05 447.24,-123.15"/>
<polygon fill="midnightblue" stroke="midnightblue" points="447.26,-119.65 437.23,-123.06 447.2,-126.65 447.26,-119.65"/>
</g>
<!-- Node25&#45;&gt;Node23 -->
<g id="edge38" class="edge">
<title>Node25&#45;&gt;Node23</title>
<path fill="none" stroke="midnightblue" d="M932.47,-224.44C964.17,-215.24 1014.73,-200.56 1049.77,-190.39"/>
<polygon fill="midnightblue" stroke="midnightblue" points="1051.04,-193.67 1059.67,-187.52 1049.09,-186.94 1051.04,-193.67"/>
</g>
<!-- Node26 -->
<g id="node26" class="node">
<title>Node26</title>
<g id="a_node26"><a xlink:title=" ">
<polygon fill="white" stroke="#bfbfbf" points="770.5,-168.5 770.5,-187.5 841.5,-187.5 841.5,-168.5 770.5,-168.5"/>
<text text-anchor="middle" x="806" y="-175.5" font-family="Helvetica,sans-Serif" font-size="10.00">sys/socket.h</text>
</a>
</g>
</g>
<!-- Node25&#45;&gt;Node26 -->
<g id="edge40" class="edge">
<title>Node25&#45;&gt;Node26</title>
<path fill="none" stroke="midnightblue" d="M887.42,-224.32C872,-215.74 848.19,-202.49 830.29,-192.52"/>
<polygon fill="midnightblue" stroke="midnightblue" points="831.99,-189.46 821.55,-187.65 828.58,-195.58 831.99,-189.46"/>
</g>
<!-- Node28&#45;&gt;Node1 -->
<g id="edge44" class="edge">
<title>Node28&#45;&gt;Node1</title>
<path fill="none" stroke="midnightblue" d="M1210.97,-473.24C1181.57,-494.44 1103.48,-549.91 1035,-591 1016.31,-602.21 994.93,-613.69 977.19,-622.87"/>
<polygon fill="midnightblue" stroke="midnightblue" points="975.57,-619.76 968.27,-627.44 978.77,-625.99 975.57,-619.76"/>
</g>
<!-- Node28&#45;&gt;Node2 -->
<g id="edge45" class="edge">
<title>Node28&#45;&gt;Node2</title>
<path fill="none" stroke="midnightblue" d="M1178.82,-473C1166.59,-474.99 1153.33,-477.08 1141,-479 1054.48,-492.45 953.69,-507.61 892.03,-516.46"/>
<polygon fill="midnightblue" stroke="midnightblue" points="891.51,-513 882.11,-517.88 892.5,-519.93 891.51,-513"/>
</g>
<!-- Node28&#45;&gt;Node13 -->
<g id="edge43" class="edge">
<title>Node28&#45;&gt;Node13</title>
<path fill="none" stroke="midnightblue" d="M1216.39,-453.76C1203.02,-435.18 1174,-389.91 1174,-347 1174,-347 1174,-347 1174,-233 1174,-202.9 1176.71,-188.84 1155,-168 1136.61,-150.35 1072.38,-137.39 1025.65,-130.02"/>
<polygon fill="midnightblue" stroke="midnightblue" points="1026.08,-126.55 1015.67,-128.49 1025.02,-133.47 1026.08,-126.55"/>
</g>
<!-- Node30 -->
<g id="node30" class="node">
<title>Node30</title>
<g id="a_node30"><a xlink:href="_factory_8h.html" target="_top" xlink:title=" ">
<polygon fill="white" stroke="black" points="385,-336.5 385,-355.5 441,-355.5 441,-336.5 385,-336.5"/>
<text text-anchor="middle" x="413" y="-343.5" font-family="Helvetica,sans-Serif" font-size="10.00">Factory.h</text>
</a>
</g>
</g>
<!-- Node29&#45;&gt;Node30 -->
<g id="edge47" class="edge">
<title>Node29&#45;&gt;Node30</title>
<path fill="none" stroke="midnightblue" d="M478.47,-392.32C466.41,-383.98 447.97,-371.21 433.73,-361.35"/>
<polygon fill="midnightblue" stroke="midnightblue" points="435.72,-358.47 425.5,-355.65 431.73,-364.22 435.72,-358.47"/>
</g>
<!-- Node30&#45;&gt;Node2 -->
<g id="edge49" class="edge">
<title>Node30&#45;&gt;Node2</title>
<path fill="none" stroke="midnightblue" d="M414.77,-355.6C420.22,-379.7 439.19,-448.18 484,-479 530.46,-510.95 690.72,-520.22 777.72,-522.9"/>
<polygon fill="midnightblue" stroke="midnightblue" points="777.86,-526.41 787.96,-523.2 778.06,-519.41 777.86,-526.41"/>
</g>
<!-- Node30&#45;&gt;Node6 -->
<g id="edge62" class="edge">
<title>Node30&#45;&gt;Node6</title>
<path fill="none" stroke="midnightblue" d="M421.75,-336.4C445.57,-313.58 514.54,-251.34 585,-224 598.96,-218.58 794.82,-195.43 888.18,-184.61"/>
<polygon fill="midnightblue" stroke="midnightblue" points="888.7,-188.08 898.23,-183.45 887.89,-181.12 888.7,-188.08"/>
</g>
<!-- Node30&#45;&gt;Node21 -->
<g id="edge48" class="edge">
<title>Node30&#45;&gt;Node21</title>
<path fill="none" stroke="midnightblue" d="M402.8,-336.25C377.16,-314.62 307.3,-257.94 241,-224 197.46,-201.71 170.73,-223.42 137,-188 125.23,-175.64 120.7,-156.39 118.98,-142.04"/>
<polygon fill="midnightblue" stroke="midnightblue" points="122.45,-141.49 118.12,-131.82 115.47,-142.07 122.45,-141.49"/>
</g>
<!-- Node30&#45;&gt;Node31 -->
<g id="edge50" class="edge">
<title>Node30&#45;&gt;Node31</title>
<path fill="none" stroke="midnightblue" d="M384.58,-337.83C344.44,-327.7 271.41,-309.27 229.94,-298.81"/>
<polygon fill="midnightblue" stroke="midnightblue" points="230.67,-295.38 220.11,-296.33 228.95,-302.17 230.67,-295.38"/>
</g>
<!-- Node31&#45;&gt;Node1 -->
<g id="edge55" class="edge">
<title>Node31&#45;&gt;Node1</title>
<path fill="none" stroke="midnightblue" d="M186.78,-299.56C173.06,-307.2 151.83,-319.69 138,-336 117.66,-360 110,-369.54 110,-401 110,-526 110,-526 110,-526 110,-602.14 659.24,-630.68 864.18,-638.8"/>
<polygon fill="midnightblue" stroke="midnightblue" points="864.13,-642.3 874.26,-639.2 864.4,-635.31 864.13,-642.3"/>
</g>
<!-- Node31&#45;&gt;Node8 -->
<g id="edge61" class="edge">
<title>Node31&#45;&gt;Node8</title>
<path fill="none" stroke="midnightblue" d="M220.01,-283.63C250.3,-275.74 307.89,-260.18 356,-244 444.55,-214.21 462.23,-193.89 552,-168 613.33,-150.31 685.81,-137.5 733.23,-130.18"/>
<polygon fill="midnightblue" stroke="midnightblue" points="733.89,-133.62 743.25,-128.65 732.83,-126.7 733.89,-133.62"/>
</g>
<!-- Node31&#45;&gt;Node19 -->
<g id="edge56" class="edge">
<title>Node31&#45;&gt;Node19</title>
<path fill="none" stroke="midnightblue" d="M217.86,-280.44C237.27,-271.64 267.73,-257.81 289.96,-247.72"/>
<polygon fill="midnightblue" stroke="midnightblue" points="291.57,-250.84 299.23,-243.52 288.68,-244.46 291.57,-250.84"/>
</g>
<!-- Node32 -->
<g id="node32" class="node">
<title>Node32</title>
<g id="a_node32"><a xlink:title=" ">
<polygon fill="white" stroke="#bfbfbf" points="104.5,-224.5 104.5,-243.5 147.5,-243.5 147.5,-224.5 104.5,-224.5"/>
<text text-anchor="middle" x="126" y="-231.5" font-family="Helvetica,sans-Serif" font-size="10.00">cstdio</text>
</a>
</g>
</g>
<!-- Node31&#45;&gt;Node32 -->
<g id="edge51" class="edge">
<title>Node31&#45;&gt;Node32</title>
<path fill="none" stroke="midnightblue" d="M187.27,-280.32C176.16,-272.11 159.26,-259.6 146.02,-249.81"/>
<polygon fill="midnightblue" stroke="midnightblue" points="148.06,-246.97 137.94,-243.83 143.9,-252.59 148.06,-246.97"/>
</g>
<!-- Node33 -->
<g id="node33" class="node">
<title>Node33</title>
<g id="a_node33"><a xlink:href="_unit_order_8h.html" target="_top" xlink:title=" ">
<polygon fill="white" stroke="black" points="166,-224.5 166,-243.5 232,-243.5 232,-224.5 166,-224.5"/>
<text text-anchor="middle" x="199" y="-231.5" font-family="Helvetica,sans-Serif" font-size="10.00">UnitOrder.h</text>
</a>
</g>
</g>
<!-- Node31&#45;&gt;Node33 -->
<g id="edge52" class="edge">
<title>Node31&#45;&gt;Node33</title>
<path fill="none" stroke="midnightblue" d="M193.83,-280.08C192.32,-272.93 191.89,-262.64 192.54,-253.69"/>
<polygon fill="midnightblue" stroke="midnightblue" points="196.02,-254.13 193.87,-243.75 189.08,-253.2 196.02,-254.13"/>
</g>
<!-- Node34 -->
<g id="node34" class="node">
<title>Node34</title>
<g id="a_node34"><a xlink:href="_textures_8h.html" target="_top" xlink:title=" ">
<polygon fill="white" stroke="black" points="284.5,-168.5 284.5,-187.5 385.5,-187.5 385.5,-168.5 284.5,-168.5"/>
<text text-anchor="middle" x="335" y="-175.5" font-family="Helvetica,sans-Serif" font-size="10.00">graphics/Textures.h</text>
</a>
</g>
</g>
<!-- Node31&#45;&gt;Node34 -->
<g id="edge57" class="edge">
<title>Node31&#45;&gt;Node34</title>
<path fill="none" stroke="midnightblue" d="M177.85,-284.74C140.45,-276.29 68.89,-255.46 95,-224 100.77,-217.05 205.15,-199.42 274.34,-188.4"/>
<polygon fill="midnightblue" stroke="midnightblue" points="274.95,-191.85 284.28,-186.83 273.86,-184.94 274.95,-191.85"/>
</g>
<!-- Node33&#45;&gt;Node21 -->
<g id="edge53" class="edge">
<title>Node33&#45;&gt;Node21</title>
<path fill="none" stroke="midnightblue" d="M165.64,-226.7C144.02,-220.7 117.47,-209.28 104,-188 94.96,-173.71 100.84,-154.5 107.54,-140.67"/>
<polygon fill="midnightblue" stroke="midnightblue" points="110.71,-142.17 112.35,-131.7 104.54,-138.86 110.71,-142.17"/>
</g>
<!-- Node33&#45;&gt;Node31 -->
<g id="edge54" class="edge">
<title>Node33&#45;&gt;Node31</title>
<path fill="none" stroke="midnightblue" d="M204.13,-243.75C205.66,-250.86 206.1,-261.14 205.47,-270.1"/>
<polygon fill="midnightblue" stroke="midnightblue" points="201.99,-269.71 204.17,-280.08 208.93,-270.62 201.99,-269.71"/>
</g>
<!-- Node34&#45;&gt;Node8 -->
<g id="edge58" class="edge">
<title>Node34&#45;&gt;Node8</title>
<path fill="none" stroke="midnightblue" d="M385.63,-170.91C472.02,-160.52 646.92,-139.49 733.34,-129.09"/>
<polygon fill="midnightblue" stroke="midnightblue" points="733.91,-132.55 743.42,-127.88 733.08,-125.6 733.91,-132.55"/>
</g>
<!-- Node34&#45;&gt;Node17 -->
<g id="edge59" class="edge">
<title>Node34&#45;&gt;Node17</title>
<path fill="none" stroke="midnightblue" d="M347.85,-168.32C360.22,-159.98 379.13,-147.21 393.74,-137.35"/>
<polygon fill="midnightblue" stroke="midnightblue" points="395.85,-140.15 402.18,-131.65 391.93,-134.35 395.85,-140.15"/>
</g>
<!-- Node35 -->
<g id="node35" class="node">
<title>Node35</title>
<g id="a_node35"><a xlink:title=" ">
<polygon fill="white" stroke="#bfbfbf" points="291.5,-112.5 291.5,-131.5 374.5,-131.5 374.5,-112.5 291.5,-112.5"/>
<text text-anchor="middle" x="333" y="-119.5" font-family="Helvetica,sans-Serif" font-size="10.00">unordered_map</text>
</a>
</g>
</g>
<!-- Node34&#45;&gt;Node35 -->
<g id="edge60" class="edge">
<title>Node34&#45;&gt;Node35</title>
<path fill="none" stroke="midnightblue" d="M334.67,-168.08C334.41,-161.01 334.03,-150.86 333.7,-141.99"/>
<polygon fill="midnightblue" stroke="midnightblue" points="337.19,-141.61 333.32,-131.75 330.2,-141.87 337.19,-141.61"/>
</g>
<!-- Node36&#45;&gt;Node29 -->
<g id="edge79" class="edge">
<title>Node36&#45;&gt;Node29</title>
<path fill="none" stroke="midnightblue" d="M553.54,-453.98C542.05,-444.61 523.37,-429.38 509.41,-418.01"/>
<polygon fill="midnightblue" stroke="midnightblue" points="511.4,-415.11 501.44,-411.51 506.98,-420.54 511.4,-415.11"/>
</g>
<!-- Node37 -->
<g id="node37" class="node">
<title>Node37</title>
<g id="a_node37"><a xlink:href="_squad_template_8h.html" target="_top" xlink:title=" ">
<polygon fill="white" stroke="black" points="577,-392.5 577,-411.5 669,-411.5 669,-392.5 577,-392.5"/>
<text text-anchor="middle" x="623" y="-399.5" font-family="Helvetica,sans-Serif" font-size="10.00">SquadTemplate.h</text>
</a>
</g>
</g>
<!-- Node36&#45;&gt;Node37 -->
<g id="edge64" class="edge">
<title>Node36&#45;&gt;Node37</title>
<path fill="none" stroke="midnightblue" d="M572.45,-453.98C581.57,-444.78 596.27,-429.96 607.48,-418.66"/>
<polygon fill="midnightblue" stroke="midnightblue" points="610.01,-421.07 614.56,-411.51 605.04,-416.15 610.01,-421.07"/>
</g>
<!-- Node37&#45;&gt;Node17 -->
<g id="edge65" class="edge">
<title>Node37&#45;&gt;Node17</title>
<path fill="none" stroke="midnightblue" d="M613.76,-392.32C596.04,-375.45 556.54,-336.66 528,-300 485.18,-244.99 443.28,-173.41 424.82,-140.7"/>
<polygon fill="midnightblue" stroke="midnightblue" points="427.81,-138.87 419.87,-131.86 421.7,-142.29 427.81,-138.87"/>
</g>
<!-- Node37&#45;&gt;Node30 -->
<g id="edge66" class="edge">
<title>Node37&#45;&gt;Node30</title>
<path fill="none" stroke="midnightblue" d="M589.72,-392.44C551.96,-382.73 490.47,-366.92 450.89,-356.74"/>
<polygon fill="midnightblue" stroke="midnightblue" points="451.64,-353.32 441.08,-354.22 449.89,-360.1 451.64,-353.32"/>
</g>
<!-- Node38 -->
<g id="node38" class="node">
<title>Node38</title>
<g id="a_node38"><a xlink:href="_gui_list_8h.html" target="_top" xlink:title=" ">
<polygon fill="white" stroke="black" points="537,-280.5 537,-299.5 645,-299.5 645,-280.5 537,-280.5"/>
<text text-anchor="middle" x="591" y="-287.5" font-family="Helvetica,sans-Serif" font-size="10.00">engine/GUI/GuiList.h</text>
</a>
</g>
</g>
<!-- Node37&#45;&gt;Node38 -->
<g id="edge67" class="edge">
<title>Node37&#45;&gt;Node38</title>
<path fill="none" stroke="midnightblue" d="M617.79,-392.36C612.71,-383.54 605.16,-369.28 601,-356 596.25,-340.83 593.71,-322.94 592.38,-309.77"/>
<polygon fill="midnightblue" stroke="midnightblue" points="595.85,-309.26 591.5,-299.6 588.87,-309.86 595.85,-309.26"/>
</g>
<!-- Node40 -->
<g id="node40" class="node">
<title>Node40</title>
<g id="a_node40"><a xlink:href="_gui_scroll_8h.html" target="_top" xlink:title=" ">
<polygon fill="white" stroke="black" points="610,-336.5 610,-355.5 726,-355.5 726,-336.5 610,-336.5"/>
<text text-anchor="middle" x="668" y="-343.5" font-family="Helvetica,sans-Serif" font-size="10.00">engine/GUI/GuiScroll.h</text>
</a>
</g>
</g>
<!-- Node37&#45;&gt;Node40 -->
<g id="edge71" class="edge">
<title>Node37&#45;&gt;Node40</title>
<path fill="none" stroke="midnightblue" d="M630.43,-392.08C636.85,-384.38 646.31,-373.03 654.12,-363.65"/>
<polygon fill="midnightblue" stroke="midnightblue" points="656.99,-365.67 660.71,-355.75 651.62,-361.19 656.99,-365.67"/>
</g>
<!-- Node41 -->
<g id="node41" class="node">
<title>Node41</title>
<g id="a_node41"><a xlink:href="_button_8h.html" target="_top" xlink:title=" ">
<polygon fill="white" stroke="black" points="701.5,-280.5 701.5,-299.5 806.5,-299.5 806.5,-280.5 701.5,-280.5"/>
<text text-anchor="middle" x="754" y="-287.5" font-family="Helvetica,sans-Serif" font-size="10.00">engine/GUI/Button.h</text>
</a>
</g>
</g>
<!-- Node37&#45;&gt;Node41 -->
<g id="edge74" class="edge">
<title>Node37&#45;&gt;Node41</title>
<path fill="none" stroke="midnightblue" d="M668.82,-392.49C691.58,-386.05 717.83,-374.94 735,-356 746.47,-343.36 751.04,-324.15 752.85,-309.89"/>
<polygon fill="midnightblue" stroke="midnightblue" points="756.35,-310.01 753.79,-299.73 749.38,-309.37 756.35,-310.01"/>
</g>
<!-- Node37&#45;&gt;Node42 -->
<g id="edge76" class="edge">
<title>Node37&#45;&gt;Node42</title>
<path fill="none" stroke="midnightblue" d="M669.14,-397.05C780.65,-387.51 1064.86,-363.19 1191.48,-352.35"/>
<polygon fill="midnightblue" stroke="midnightblue" points="1192.12,-355.81 1201.78,-351.47 1191.52,-348.83 1192.12,-355.81"/>
</g>
<!-- Node38&#45;&gt;Node17 -->
<g id="edge70" class="edge">
<title>Node38&#45;&gt;Node17</title>
<path fill="none" stroke="midnightblue" d="M582.34,-280.35C562.22,-260.3 510.58,-209.21 466,-168 455.16,-157.98 442.75,-147.02 432.88,-138.42"/>
<polygon fill="midnightblue" stroke="midnightblue" points="435.13,-135.74 425.28,-131.83 430.54,-141.03 435.13,-135.74"/>
</g>
<!-- Node39 -->
<g id="node39" class="node">
<title>Node39</title>
<g id="a_node39"><a xlink:href="_gui_object_8h.html" target="_top" xlink:title=" ">
<polygon fill="white" stroke="black" points="594,-224.5 594,-243.5 714,-243.5 714,-224.5 594,-224.5"/>
<text text-anchor="middle" x="654" y="-231.5" font-family="Helvetica,sans-Serif" font-size="10.00">engine/GUI/GuiObject.h</text>
</a>
</g>
</g>
<!-- Node38&#45;&gt;Node39 -->
<g id="edge68" class="edge">
<title>Node38&#45;&gt;Node39</title>
<path fill="none" stroke="midnightblue" d="M601.12,-280.32C610.53,-272.26 624.74,-260.08 636.07,-250.37"/>
<polygon fill="midnightblue" stroke="midnightblue" points="638.38,-253 643.69,-243.83 633.82,-247.68 638.38,-253"/>
</g>
<!-- Node39&#45;&gt;Node6 -->
<g id="edge69" class="edge">
<title>Node39&#45;&gt;Node6</title>
<path fill="none" stroke="midnightblue" d="M698.84,-224.44C750.53,-214.58 835.17,-198.43 888.4,-188.27"/>
<polygon fill="midnightblue" stroke="midnightblue" points="889.11,-191.7 898.28,-186.39 887.8,-184.82 889.11,-191.7"/>
</g>
<!-- Node40&#45;&gt;Node7 -->
<g id="edge73" class="edge">
<title>Node40&#45;&gt;Node7</title>
<path fill="none" stroke="midnightblue" d="M668.36,-336.48C668.47,-323.08 666.87,-296.9 654,-280 630.07,-248.58 561.72,-255.91 585,-224 620.27,-175.66 806.86,-139.09 875.04,-127.16"/>
<polygon fill="midnightblue" stroke="midnightblue" points="876.01,-130.55 885.27,-125.4 874.82,-123.65 876.01,-130.55"/>
</g>
<!-- Node40&#45;&gt;Node38 -->
<g id="edge72" class="edge">
<title>Node40&#45;&gt;Node38</title>
<path fill="none" stroke="midnightblue" d="M655.63,-336.32C643.84,-328.06 625.87,-315.45 611.86,-305.63"/>
<polygon fill="midnightblue" stroke="midnightblue" points="613.54,-302.53 603.34,-299.65 609.52,-308.26 613.54,-302.53"/>
</g>
<!-- Node41&#45;&gt;Node39 -->
<g id="edge75" class="edge">
<title>Node41&#45;&gt;Node39</title>
<path fill="none" stroke="midnightblue" d="M737.93,-280.32C722.04,-271.74 697.49,-258.49 679.04,-248.52"/>
<polygon fill="midnightblue" stroke="midnightblue" points="680.49,-245.33 670.03,-243.65 677.16,-251.49 680.49,-245.33"/>
</g>
<!-- Node42&#45;&gt;Node9 -->
<g id="edge78" class="edge">
<title>Node42&#45;&gt;Node9</title>
<path fill="none" stroke="midnightblue" d="M1253.74,-336.44C1253.2,-317.94 1252,-272.82 1252,-235 1252,-235 1252,-235 1252,-177 1252,-144.54 1245.93,-107.12 1241.78,-85.36"/>
<polygon fill="midnightblue" stroke="midnightblue" points="1245.21,-84.64 1239.83,-75.51 1238.34,-86 1245.21,-84.64"/>
</g>
<!-- Node42&#45;&gt;Node11 -->
<g id="edge77" class="edge">
<title>Node42&#45;&gt;Node11</title>
<path fill="none" stroke="midnightblue" d="M1265.24,-336.36C1285.94,-319.38 1328,-279.42 1328,-235 1328,-235 1328,-235 1328,-121 1328,-88.12 1337.97,-50.86 1344.78,-29.24"/>
<polygon fill="midnightblue" stroke="midnightblue" points="1348.11,-30.3 1347.9,-19.71 1341.46,-28.12 1348.11,-30.3"/>
</g>
<!-- Node43&#45;&gt;Node1 -->
<g id="edge84" class="edge">
<title>Node43&#45;&gt;Node1</title>
<path fill="none" stroke="midnightblue" d="M944.93,-590.66C946.43,-597.65 947.01,-607.86 946.64,-617.29"/>
<polygon fill="midnightblue" stroke="midnightblue" points="943.14,-617.15 945.84,-627.4 950.12,-617.71 943.14,-617.15"/>
</g>
<!-- Node43&#45;&gt;Node2 -->
<g id="edge85" class="edge">
<title>Node43&#45;&gt;Node2</title>
<path fill="none" stroke="midnightblue" d="M923.13,-571.32C906.29,-562.66 880.19,-549.24 860.76,-539.25"/>
<polygon fill="midnightblue" stroke="midnightblue" points="862.32,-536.12 851.83,-534.65 859.12,-542.34 862.32,-536.12"/>
</g>
</g>
</svg>
