<?xml version="1.0" encoding="UTF-8" standalone="no"?>
<!DOCTYPE svg PUBLIC "-//W3C//DTD SVG 1.1//EN"
 "http://www.w3.org/Graphics/SVG/1.1/DTD/svg11.dtd">
<!-- Generated by graphviz version 2.47.0 (20210407.0042)
 -->
<!-- Title: include/GameLogic/Squad/SquadTemplate.h Pages: 1 -->
<svg width="1653pt" height="642pt"
 viewBox="0.00 0.00 1652.50 642.00" xmlns="http://www.w3.org/2000/svg" xmlns:xlink="http://www.w3.org/1999/xlink">
<g id="graph0" class="graph" transform="scale(1 1) rotate(0) translate(4 638)">
<title>include/GameLogic/Squad/SquadTemplate.h</title>
<polygon fill="white" stroke="transparent" points="-4,4 -4,-638 1648.5,-638 1648.5,4 -4,4"/>
<!-- Node1 -->
<g id="node1" class="node">
<title>Node1</title>
<g id="a_node1"><a xlink:title=" ">
<polygon fill="#bfbfbf" stroke="black" points="58.5,-603.5 58.5,-633.5 189.5,-633.5 189.5,-603.5 58.5,-603.5"/>
<text text-anchor="start" x="66.5" y="-621.5" font-family="Helvetica,sans-Serif" font-size="10.00">include/GameLogic/Squad</text>
<text text-anchor="middle" x="124" y="-610.5" font-family="Helvetica,sans-Serif" font-size="10.00">/SquadTemplate.h</text>
</a>
</g>
</g>
<!-- Node2 -->
<g id="node2" class="node">
<title>Node2</title>
<g id="a_node2"><a xlink:href="_squad_template_8cpp.html" target="_top" xlink:title=" ">
<polygon fill="white" stroke="black" points="0,-67.5 0,-97.5 114,-97.5 114,-67.5 0,-67.5"/>
<text text-anchor="start" x="8" y="-85.5" font-family="Helvetica,sans-Serif" font-size="10.00">src/GameLogic/Squad</text>
<text text-anchor="middle" x="57" y="-74.5" font-family="Helvetica,sans-Serif" font-size="10.00">/SquadTemplate.cpp</text>
</a>
</g>
</g>
<!-- Node1&#45;&gt;Node2 -->
<g id="edge1" class="edge">
<title>Node1&#45;&gt;Node2</title>
<path fill="none" stroke="midnightblue" d="M103.01,-595.84C81.44,-571.22 51,-528.79 51,-485.5 51,-485.5 51,-485.5 51,-215.5 51,-172.6 54.2,-121.94 55.93,-97.75"/>
<polygon fill="midnightblue" stroke="midnightblue" points="100.62,-598.42 109.92,-603.48 105.81,-593.72 100.62,-598.42"/>
</g>
<!-- Node3 -->
<g id="node3" class="node">
<title>Node3</title>
<g id="a_node3"><a xlink:href="_all_squad_templates_8h.html" target="_top" xlink:title=" ">
<polygon fill="white" stroke="black" points="168.5,-536.5 168.5,-566.5 299.5,-566.5 299.5,-536.5 168.5,-536.5"/>
<text text-anchor="start" x="176.5" y="-554.5" font-family="Helvetica,sans-Serif" font-size="10.00">include/GameLogic/Squad</text>
<text text-anchor="middle" x="234" y="-543.5" font-family="Helvetica,sans-Serif" font-size="10.00">/AllSquadTemplates.h</text>
</a>
</g>
</g>
<!-- Node1&#45;&gt;Node3 -->
<g id="edge2" class="edge">
<title>Node1&#45;&gt;Node3</title>
<path fill="none" stroke="midnightblue" d="M156.5,-598.3C173.71,-588.12 194.48,-575.85 210.18,-566.58"/>
<polygon fill="midnightblue" stroke="midnightblue" points="154.7,-595.3 147.87,-603.4 158.26,-601.32 154.7,-595.3"/>
</g>
<!-- Node4 -->
<g id="node4" class="node">
<title>Node4</title>
<g id="a_node4"><a xlink:href="_all_squad_templates_8cpp.html" target="_top" xlink:title=" ">
<polygon fill="white" stroke="black" points="190,-469.5 190,-499.5 312,-499.5 312,-469.5 190,-469.5"/>
<text text-anchor="start" x="198" y="-487.5" font-family="Helvetica,sans-Serif" font-size="10.00">src/GameLogic/Squad</text>
<text text-anchor="middle" x="251" y="-476.5" font-family="Helvetica,sans-Serif" font-size="10.00">/AllSquadTemplates.cpp</text>
</a>
</g>
</g>
<!-- Node3&#45;&gt;Node4 -->
<g id="edge3" class="edge">
<title>Node3&#45;&gt;Node4</title>
<path fill="none" stroke="midnightblue" d="M240.23,-526.7C242.61,-517.59 245.25,-507.49 247.32,-499.58"/>
<polygon fill="midnightblue" stroke="midnightblue" points="236.83,-525.84 237.69,-536.4 243.61,-527.61 236.83,-525.84"/>
</g>
<!-- Node5 -->
<g id="node5" class="node">
<title>Node5</title>
<g id="a_node5"><a xlink:href="_cell_8h.html" target="_top" xlink:title=" ">
<polygon fill="white" stroke="black" points="634,-475 634,-494 762,-494 762,-475 634,-475"/>
<text text-anchor="middle" x="698" y="-482" font-family="Helvetica,sans-Serif" font-size="10.00">include/GameLogic/Cell.h</text>
</a>
</g>
</g>
<!-- Node3&#45;&gt;Node5 -->
<g id="edge4" class="edge">
<title>Node3&#45;&gt;Node5</title>
<path fill="none" stroke="midnightblue" d="M310,-539.85C401.39,-527.05 552.95,-505.82 637.04,-494.04"/>
<polygon fill="midnightblue" stroke="midnightblue" points="309.4,-536.4 299.99,-541.26 310.38,-543.33 309.4,-536.4"/>
</g>
<!-- Node6 -->
<g id="node6" class="node">
<title>Node6</title>
<g id="a_node6"><a xlink:href="_cell_8cpp.html" target="_top" xlink:title=" ">
<polygon fill="white" stroke="black" points="247.5,-408 247.5,-427 368.5,-427 368.5,-408 247.5,-408"/>
<text text-anchor="middle" x="308" y="-415" font-family="Helvetica,sans-Serif" font-size="10.00">src/GameLogic/Cell.cpp</text>
</a>
</g>
</g>
<!-- Node5&#45;&gt;Node6 -->
<g id="edge5" class="edge">
<title>Node5&#45;&gt;Node6</title>
<path fill="none" stroke="midnightblue" d="M628.47,-473.5C563.54,-463.94 464,-448.68 378,-433 368.11,-431.2 357.47,-429.08 347.55,-427.04"/>
<polygon fill="midnightblue" stroke="midnightblue" points="628.18,-477 638.58,-474.99 629.2,-470.07 628.18,-477"/>
</g>
<!-- Node7 -->
<g id="node7" class="node">
<title>Node7</title>
<g id="a_node7"><a xlink:href="main_8cpp.html" target="_top" xlink:title=" ">
<polygon fill="white" stroke="black" points="387,-408 387,-427 459,-427 459,-408 387,-408"/>
<text text-anchor="middle" x="423" y="-415" font-family="Helvetica,sans-Serif" font-size="10.00">src/main.cpp</text>
</a>
</g>
</g>
<!-- Node5&#45;&gt;Node7 -->
<g id="edge6" class="edge">
<title>Node5&#45;&gt;Node7</title>
<path fill="none" stroke="midnightblue" d="M646.37,-472.86C600.63,-463.2 532.12,-448.19 473,-433 465.91,-431.18 458.3,-429.06 451.21,-427.01"/>
<polygon fill="midnightblue" stroke="midnightblue" points="645.84,-476.32 656.35,-474.95 647.28,-469.47 645.84,-476.32"/>
</g>
<!-- Node8 -->
<g id="node8" class="node">
<title>Node8</title>
<g id="a_node8"><a xlink:href="_set_squad_path_8h.html" target="_top" xlink:title=" ">
<polygon fill="white" stroke="black" points="1021.5,-268.5 1021.5,-298.5 1134.5,-298.5 1134.5,-268.5 1021.5,-268.5"/>
<text text-anchor="start" x="1029.5" y="-286.5" font-family="Helvetica,sans-Serif" font-size="10.00">include/engine/actions</text>
<text text-anchor="middle" x="1078" y="-275.5" font-family="Helvetica,sans-Serif" font-size="10.00">/SetSquadPath.h</text>
</a>
</g>
</g>
<!-- Node5&#45;&gt;Node8 -->
<g id="edge7" class="edge">
<title>Node5&#45;&gt;Node8</title>
<path fill="none" stroke="midnightblue" d="M728.64,-471.68C755.06,-462.48 793.63,-448.67 826,-433 912.78,-390.99 1008.35,-326.82 1052.94,-298.62"/>
<polygon fill="midnightblue" stroke="midnightblue" points="727.44,-468.39 719.14,-474.98 729.74,-475.01 727.44,-468.39"/>
</g>
<!-- Node11 -->
<g id="node11" class="node">
<title>Node11</title>
<g id="a_node11"><a xlink:href="_game_logic_2_squad_2_action_8h.html" target="_top" xlink:title=" ">
<polygon fill="white" stroke="black" points="632.5,-402.5 632.5,-432.5 763.5,-432.5 763.5,-402.5 632.5,-402.5"/>
<text text-anchor="start" x="640.5" y="-420.5" font-family="Helvetica,sans-Serif" font-size="10.00">include/GameLogic/Squad</text>
<text text-anchor="middle" x="698" y="-409.5" font-family="Helvetica,sans-Serif" font-size="10.00">/Action.h</text>
</a>
</g>
</g>
<!-- Node5&#45;&gt;Node11 -->
<g id="edge11" class="edge">
<title>Node5&#45;&gt;Node11</title>
<path fill="none" stroke="midnightblue" d="M698,-464.41C698,-454.22 698,-441.9 698,-432.59"/>
<polygon fill="midnightblue" stroke="midnightblue" points="694.5,-464.73 698,-474.73 701.5,-464.73 694.5,-464.73"/>
</g>
<!-- Node12 -->
<g id="node12" class="node">
<title>Node12</title>
<g id="a_node12"><a xlink:href="_squad_8h.html" target="_top" xlink:title=" ">
<polygon fill="white" stroke="black" points="735.5,-335.5 735.5,-365.5 866.5,-365.5 866.5,-335.5 735.5,-335.5"/>
<text text-anchor="start" x="743.5" y="-353.5" font-family="Helvetica,sans-Serif" font-size="10.00">include/GameLogic/Squad</text>
<text text-anchor="middle" x="801" y="-342.5" font-family="Helvetica,sans-Serif" font-size="10.00">/Squad.h</text>
</a>
</g>
</g>
<!-- Node5&#45;&gt;Node12 -->
<g id="edge59" class="edge">
<title>Node5&#45;&gt;Node12</title>
<path fill="none" stroke="midnightblue" d="M719.02,-469.86C733.51,-461.23 751.93,-448.73 764,-433 779.58,-412.7 786.84,-383.16 792.62,-365.78"/>
<polygon fill="midnightblue" stroke="midnightblue" points="717.09,-466.94 710.18,-474.97 720.59,-473 717.09,-466.94"/>
</g>
<!-- Node23 -->
<g id="node23" class="node">
<title>Node23</title>
<g id="a_node23"><a xlink:href="_factory_8h.html" target="_top" xlink:title=" ">
<polygon fill="white" stroke="black" points="261.5,-201.5 261.5,-231.5 388.5,-231.5 388.5,-201.5 261.5,-201.5"/>
<text text-anchor="start" x="269.5" y="-219.5" font-family="Helvetica,sans-Serif" font-size="10.00">include/GameLogic/Units</text>
<text text-anchor="middle" x="325" y="-208.5" font-family="Helvetica,sans-Serif" font-size="10.00">/Factory.h</text>
</a>
</g>
</g>
<!-- Node5&#45;&gt;Node23 -->
<g id="edge60" class="edge">
<title>Node5&#45;&gt;Node23</title>
<path fill="none" stroke="midnightblue" d="M676.62,-469.12C661.79,-459.1 641.61,-445.35 624,-433 517.4,-358.23 391.34,-266.16 344.12,-231.54"/>
<polygon fill="midnightblue" stroke="midnightblue" points="674.85,-472.15 685.1,-474.84 678.77,-466.35 674.85,-472.15"/>
</g>
<!-- Node36 -->
<g id="node36" class="node">
<title>Node36</title>
<g id="a_node36"><a xlink:href="pathfinding_8h.html" target="_top" xlink:title=" ">
<polygon fill="white" stroke="black" points="883,-274 883,-293 1003,-293 1003,-274 883,-274"/>
<text text-anchor="middle" x="943" y="-281" font-family="Helvetica,sans-Serif" font-size="10.00">include/util/pathfinding.h</text>
</a>
</g>
</g>
<!-- Node5&#45;&gt;Node36 -->
<g id="edge61" class="edge">
<title>Node5&#45;&gt;Node36</title>
<path fill="none" stroke="midnightblue" d="M730.09,-470.99C751.59,-461.92 780.05,-448.54 803,-433 864.6,-391.27 919.35,-318.07 937.03,-293.12"/>
<polygon fill="midnightblue" stroke="midnightblue" points="728.66,-467.79 720.75,-474.85 731.33,-474.26 728.66,-467.79"/>
</g>
<!-- Node8&#45;&gt;Node5 -->
<g id="edge10" class="edge">
<title>Node8&#45;&gt;Node5</title>
<path fill="none" stroke="midnightblue" d="M1054.93,-304.7C1013.69,-335.24 925.01,-393.78 844,-433 807.49,-450.67 763.11,-465.98 732.75,-474.98"/>
<polygon fill="midnightblue" stroke="midnightblue" points="1057.11,-307.44 1062.99,-298.62 1052.9,-301.85 1057.11,-307.44"/>
</g>
<!-- Node9 -->
<g id="node9" class="node">
<title>Node9</title>
<g id="a_node9"><a xlink:href="engine_2_action_8cpp.html" target="_top" xlink:title=" ">
<polygon fill="white" stroke="black" points="1415,-207 1415,-226 1525,-226 1525,-207 1415,-207"/>
<text text-anchor="middle" x="1470" y="-214" font-family="Helvetica,sans-Serif" font-size="10.00">src/engine/Action.cpp</text>
</a>
</g>
</g>
<!-- Node8&#45;&gt;Node9 -->
<g id="edge8" class="edge">
<title>Node8&#45;&gt;Node9</title>
<path fill="none" stroke="midnightblue" d="M1144.42,-273.66C1210.85,-264.5 1315.82,-249.14 1406,-232 1415.18,-230.26 1425.04,-228.14 1434.21,-226.07"/>
<polygon fill="midnightblue" stroke="midnightblue" points="1143.93,-270.2 1134.5,-275.03 1144.89,-277.13 1143.93,-270.2"/>
</g>
<!-- Node10 -->
<g id="node10" class="node">
<title>Node10</title>
<g id="a_node10"><a xlink:href="_set_squad_path_8cpp.html" target="_top" xlink:title=" ">
<polygon fill="white" stroke="black" points="1543.5,-201.5 1543.5,-231.5 1644.5,-231.5 1644.5,-201.5 1543.5,-201.5"/>
<text text-anchor="start" x="1551.5" y="-219.5" font-family="Helvetica,sans-Serif" font-size="10.00">src/engine/actions</text>
<text text-anchor="middle" x="1594" y="-208.5" font-family="Helvetica,sans-Serif" font-size="10.00">/SetSquadPath.cpp</text>
</a>
</g>
</g>
<!-- Node8&#45;&gt;Node10 -->
<g id="edge9" class="edge">
<title>Node8&#45;&gt;Node10</title>
<path fill="none" stroke="midnightblue" d="M1144.82,-277.77C1234.02,-270.84 1396.7,-256.09 1534,-232 1537.06,-231.46 1540.2,-230.86 1543.36,-230.22"/>
<polygon fill="midnightblue" stroke="midnightblue" points="1144.55,-274.28 1134.84,-278.53 1145.08,-281.26 1144.55,-274.28"/>
</g>
<!-- Node11&#45;&gt;Node12 -->
<g id="edge12" class="edge">
<title>Node11&#45;&gt;Node12</title>
<path fill="none" stroke="midnightblue" d="M723.06,-396.73C738.19,-386.68 757.39,-374.68 773.02,-365.58"/>
<polygon fill="midnightblue" stroke="midnightblue" points="721,-393.9 714.67,-402.4 724.92,-399.7 721,-393.9"/>
</g>
<!-- Node12&#45;&gt;Node5 -->
<g id="edge15" class="edge">
<title>Node12&#45;&gt;Node5</title>
<path fill="none" stroke="midnightblue" d="M804.36,-376.2C801.96,-393.48 794.78,-416.35 782,-433 767.28,-452.18 743.13,-466.56 724.26,-474.97"/>
<polygon fill="midnightblue" stroke="midnightblue" points="807.89,-376.04 805.26,-365.78 800.91,-375.44 807.89,-376.04"/>
</g>
<!-- Node12&#45;&gt;Node8 -->
<g id="edge14" class="edge">
<title>Node12&#45;&gt;Node8</title>
<path fill="none" stroke="midnightblue" d="M870.76,-333.13C917.26,-322.22 977.61,-308.06 1021.18,-297.83"/>
<polygon fill="midnightblue" stroke="midnightblue" points="869.7,-329.78 860.76,-335.48 871.3,-336.6 869.7,-329.78"/>
</g>
<!-- Node12&#45;&gt;Node11 -->
<g id="edge16" class="edge">
<title>Node12&#45;&gt;Node11</title>
<path fill="none" stroke="midnightblue" d="M775.99,-371.24C760.86,-381.29 741.67,-393.28 726.03,-402.4"/>
<polygon fill="midnightblue" stroke="midnightblue" points="778.04,-374.07 784.37,-365.58 774.12,-368.27 778.04,-374.07"/>
</g>
<!-- Node13 -->
<g id="node13" class="node">
<title>Node13</title>
<g id="a_node13"><a xlink:href="_squad_8cpp.html" target="_top" xlink:title=" ">
<polygon fill="white" stroke="black" points="200,-67.5 200,-97.5 314,-97.5 314,-67.5 200,-67.5"/>
<text text-anchor="start" x="208" y="-85.5" font-family="Helvetica,sans-Serif" font-size="10.00">src/GameLogic/Squad</text>
<text text-anchor="middle" x="257" y="-74.5" font-family="Helvetica,sans-Serif" font-size="10.00">/Squad.cpp</text>
</a>
</g>
</g>
<!-- Node12&#45;&gt;Node13 -->
<g id="edge13" class="edge">
<title>Node12&#45;&gt;Node13</title>
<path fill="none" stroke="midnightblue" d="M756.24,-331.57C683.43,-301.57 535.94,-237.35 421,-165 402.26,-153.2 401.13,-145.15 382,-134 356.22,-118.97 325.11,-106.39 300.38,-97.54"/>
<polygon fill="midnightblue" stroke="midnightblue" points="755,-334.84 765.58,-335.4 757.66,-328.36 755,-334.84"/>
</g>
<!-- Node14 -->
<g id="node14" class="node">
<title>Node14</title>
<g id="a_node14"><a xlink:href="_unit_8h.html" target="_top" xlink:title=" ">
<polygon fill="white" stroke="black" points="737.5,-268.5 737.5,-298.5 864.5,-298.5 864.5,-268.5 737.5,-268.5"/>
<text text-anchor="start" x="745.5" y="-286.5" font-family="Helvetica,sans-Serif" font-size="10.00">include/GameLogic/Units</text>
<text text-anchor="middle" x="801" y="-275.5" font-family="Helvetica,sans-Serif" font-size="10.00">/Unit.h</text>
</a>
</g>
</g>
<!-- Node12&#45;&gt;Node14 -->
<g id="edge17" class="edge">
<title>Node12&#45;&gt;Node14</title>
<path fill="none" stroke="midnightblue" d="M794.45,-325.4C794.01,-316.37 794.3,-306.41 795.33,-298.58"/>
<polygon fill="midnightblue" stroke="midnightblue" points="790.97,-325.74 795.32,-335.4 797.94,-325.13 790.97,-325.74"/>
</g>
<!-- Node12&#45;&gt;Node36 -->
<g id="edge56" class="edge">
<title>Node12&#45;&gt;Node36</title>
<path fill="none" stroke="midnightblue" d="M841.13,-331.13C868.46,-318.62 903.37,-302.64 924.42,-293.01"/>
<polygon fill="midnightblue" stroke="midnightblue" points="839.45,-328.05 831.81,-335.4 842.36,-334.42 839.45,-328.05"/>
</g>
<!-- Node14&#45;&gt;Node12 -->
<g id="edge19" class="edge">
<title>Node14&#45;&gt;Node12</title>
<path fill="none" stroke="midnightblue" d="M807.54,-308.57C807.99,-317.6 807.71,-327.56 806.68,-335.4"/>
<polygon fill="midnightblue" stroke="midnightblue" points="811.03,-308.24 806.67,-298.58 804.05,-308.84 811.03,-308.24"/>
</g>
<!-- Node15 -->
<g id="node15" class="node">
<title>Node15</title>
<g id="a_node15"><a xlink:href="_unit_8cpp.html" target="_top" xlink:title=" ">
<polygon fill="white" stroke="black" points="1400,-134.5 1400,-164.5 1510,-164.5 1510,-134.5 1400,-134.5"/>
<text text-anchor="start" x="1408" y="-152.5" font-family="Helvetica,sans-Serif" font-size="10.00">src/GameLogic/Units</text>
<text text-anchor="middle" x="1455" y="-141.5" font-family="Helvetica,sans-Serif" font-size="10.00">/Unit.cpp</text>
</a>
</g>
</g>
<!-- Node14&#45;&gt;Node15 -->
<g id="edge18" class="edge">
<title>Node14&#45;&gt;Node15</title>
<path fill="none" stroke="midnightblue" d="M874.56,-268.02C977.97,-251.32 1012.38,-272.89 1104,-232 1123.9,-223.12 1122.04,-209.77 1142,-201 1244.37,-156.02 1281.05,-185.37 1391,-165 1393.91,-164.46 1396.89,-163.88 1399.9,-163.27"/>
<polygon fill="midnightblue" stroke="midnightblue" points="873.95,-264.57 864.67,-269.69 875.12,-271.47 873.95,-264.57"/>
</g>
<!-- Node16 -->
<g id="node16" class="node">
<title>Node16</title>
<g id="a_node16"><a xlink:href="_squad_order_8h.html" target="_top" xlink:title=" ">
<polygon fill="white" stroke="black" points="1122.5,-134.5 1122.5,-164.5 1253.5,-164.5 1253.5,-134.5 1122.5,-134.5"/>
<text text-anchor="start" x="1130.5" y="-152.5" font-family="Helvetica,sans-Serif" font-size="10.00">include/GameLogic/Squad</text>
<text text-anchor="middle" x="1188" y="-141.5" font-family="Helvetica,sans-Serif" font-size="10.00">/SquadOrder.h</text>
</a>
</g>
</g>
<!-- Node14&#45;&gt;Node16 -->
<g id="edge20" class="edge">
<title>Node14&#45;&gt;Node16</title>
<path fill="none" stroke="midnightblue" d="M850.87,-264.82C872.75,-256.19 898.32,-244.89 920,-232 939.03,-220.68 939.01,-210.52 959,-201 973.75,-193.98 1060.02,-175.91 1122.33,-163.41"/>
<polygon fill="midnightblue" stroke="midnightblue" points="849.5,-261.6 841.43,-268.47 852.02,-268.13 849.5,-261.6"/>
</g>
<!-- Node18 -->
<g id="node18" class="node">
<title>Node18</title>
<g id="a_node18"><a xlink:href="_armored_unit_8h.html" target="_top" xlink:title=" ">
<polygon fill="white" stroke="black" points="703.5,-134.5 703.5,-164.5 830.5,-164.5 830.5,-134.5 703.5,-134.5"/>
<text text-anchor="start" x="711.5" y="-152.5" font-family="Helvetica,sans-Serif" font-size="10.00">include/GameLogic/Units</text>
<text text-anchor="middle" x="767" y="-141.5" font-family="Helvetica,sans-Serif" font-size="10.00">/ArmoredUnit.h</text>
</a>
</g>
</g>
<!-- Node14&#45;&gt;Node18 -->
<g id="edge22" class="edge">
<title>Node14&#45;&gt;Node18</title>
<path fill="none" stroke="midnightblue" d="M786.75,-259.33C782.26,-251 777.76,-241.35 775,-232 768.25,-209.09 766.91,-181.15 766.79,-164.65"/>
<polygon fill="midnightblue" stroke="midnightblue" points="783.74,-261.12 791.72,-268.09 789.83,-257.67 783.74,-261.12"/>
</g>
<!-- Node14&#45;&gt;Node23 -->
<g id="edge27" class="edge">
<title>Node14&#45;&gt;Node23</title>
<path fill="none" stroke="midnightblue" d="M727.14,-272.41C634.3,-259.74 476.49,-238.19 388.7,-226.2"/>
<polygon fill="midnightblue" stroke="midnightblue" points="726.92,-275.92 737.3,-273.8 727.86,-268.98 726.92,-275.92"/>
</g>
<!-- Node30 -->
<g id="node30" class="node">
<title>Node30</title>
<g id="a_node30"><a xlink:href="_land_unit_8h.html" target="_top" xlink:title=" ">
<polygon fill="white" stroke="black" points="783.5,-201.5 783.5,-231.5 910.5,-231.5 910.5,-201.5 783.5,-201.5"/>
<text text-anchor="start" x="791.5" y="-219.5" font-family="Helvetica,sans-Serif" font-size="10.00">include/GameLogic/Units</text>
<text text-anchor="middle" x="847" y="-208.5" font-family="Helvetica,sans-Serif" font-size="10.00">/LandUnit.h</text>
</a>
</g>
</g>
<!-- Node14&#45;&gt;Node30 -->
<g id="edge44" class="edge">
<title>Node14&#45;&gt;Node30</title>
<path fill="none" stroke="midnightblue" d="M816.81,-260.16C823.52,-250.68 831.13,-239.92 837.04,-231.58"/>
<polygon fill="midnightblue" stroke="midnightblue" points="813.9,-258.21 810.98,-268.4 819.62,-262.26 813.9,-258.21"/>
</g>
<!-- Node32 -->
<g id="node32" class="node">
<title>Node32</title>
<g id="a_node32"><a xlink:href="_transport_unit_8h.html" target="_top" xlink:title=" ">
<polygon fill="white" stroke="black" points="577.5,-201.5 577.5,-231.5 704.5,-231.5 704.5,-201.5 577.5,-201.5"/>
<text text-anchor="start" x="585.5" y="-219.5" font-family="Helvetica,sans-Serif" font-size="10.00">include/GameLogic/Units</text>
<text text-anchor="middle" x="641" y="-208.5" font-family="Helvetica,sans-Serif" font-size="10.00">/TransportUnit.h</text>
</a>
</g>
</g>
<!-- Node14&#45;&gt;Node32 -->
<g id="edge47" class="edge">
<title>Node14&#45;&gt;Node32</title>
<path fill="none" stroke="midnightblue" d="M756.8,-264.54C731.2,-254.14 699.43,-241.24 675.65,-231.58"/>
<polygon fill="midnightblue" stroke="midnightblue" points="755.7,-267.87 766.28,-268.4 758.34,-261.39 755.7,-267.87"/>
</g>
<!-- Node34 -->
<g id="node34" class="node">
<title>Node34</title>
<g id="a_node34"><a xlink:href="_unit_order_8h.html" target="_top" xlink:title=" ">
<polygon fill="white" stroke="black" points="967.5,-201.5 967.5,-231.5 1094.5,-231.5 1094.5,-201.5 967.5,-201.5"/>
<text text-anchor="start" x="975.5" y="-219.5" font-family="Helvetica,sans-Serif" font-size="10.00">include/GameLogic/Units</text>
<text text-anchor="middle" x="1031" y="-208.5" font-family="Helvetica,sans-Serif" font-size="10.00">/UnitOrder.h</text>
</a>
</g>
</g>
<!-- Node14&#45;&gt;Node34 -->
<g id="edge51" class="edge">
<title>Node14&#45;&gt;Node34</title>
<path fill="none" stroke="midnightblue" d="M854.86,-265.58C891.13,-255.02 938.76,-241.59 975.39,-231.61"/>
<polygon fill="midnightblue" stroke="midnightblue" points="853.57,-262.31 844.96,-268.48 855.54,-269.03 853.57,-262.31"/>
</g>
<!-- Node17 -->
<g id="node17" class="node">
<title>Node17</title>
<g id="a_node17"><a xlink:href="_squad_order_8cpp.html" target="_top" xlink:title=" ">
<polygon fill="white" stroke="black" points="1131,-67.5 1131,-97.5 1245,-97.5 1245,-67.5 1131,-67.5"/>
<text text-anchor="start" x="1139" y="-85.5" font-family="Helvetica,sans-Serif" font-size="10.00">src/GameLogic/Squad</text>
<text text-anchor="middle" x="1188" y="-74.5" font-family="Helvetica,sans-Serif" font-size="10.00">/SquadOrder.cpp</text>
</a>
</g>
</g>
<!-- Node16&#45;&gt;Node17 -->
<g id="edge21" class="edge">
<title>Node16&#45;&gt;Node17</title>
<path fill="none" stroke="midnightblue" d="M1188,-124.11C1188,-115.15 1188,-105.32 1188,-97.58"/>
<polygon fill="midnightblue" stroke="midnightblue" points="1184.5,-124.4 1188,-134.4 1191.5,-124.4 1184.5,-124.4"/>
</g>
<!-- Node19 -->
<g id="node19" class="node">
<title>Node19</title>
<g id="a_node19"><a xlink:href="_armored_unit_8cpp.html" target="_top" xlink:title=" ">
<polygon fill="white" stroke="black" points="701,-67.5 701,-97.5 811,-97.5 811,-67.5 701,-67.5"/>
<text text-anchor="start" x="709" y="-85.5" font-family="Helvetica,sans-Serif" font-size="10.00">src/GameLogic/Units</text>
<text text-anchor="middle" x="756" y="-74.5" font-family="Helvetica,sans-Serif" font-size="10.00">/ArmoredUnit.cpp</text>
</a>
</g>
</g>
<!-- Node18&#45;&gt;Node19 -->
<g id="edge23" class="edge">
<title>Node18&#45;&gt;Node19</title>
<path fill="none" stroke="midnightblue" d="M762.92,-124.4C761.39,-115.37 759.71,-105.41 758.38,-97.58"/>
<polygon fill="midnightblue" stroke="midnightblue" points="759.49,-125.12 764.61,-134.4 766.4,-123.95 759.49,-125.12"/>
</g>
<!-- Node20 -->
<g id="node20" class="node">
<title>Node20</title>
<g id="a_node20"><a xlink:href="_armored_unit_factory_8h.html" target="_top" xlink:title=" ">
<polygon fill="white" stroke="black" points="337.5,-67.5 337.5,-97.5 464.5,-97.5 464.5,-67.5 337.5,-67.5"/>
<text text-anchor="start" x="345.5" y="-85.5" font-family="Helvetica,sans-Serif" font-size="10.00">include/GameLogic/Units</text>
<text text-anchor="middle" x="401" y="-74.5" font-family="Helvetica,sans-Serif" font-size="10.00">/ArmoredUnitFactory.h</text>
</a>
</g>
</g>
<!-- Node18&#45;&gt;Node20 -->
<g id="edge24" class="edge">
<title>Node18&#45;&gt;Node20</title>
<path fill="none" stroke="midnightblue" d="M693.48,-133.93C608.36,-118.22 521.73,-103.51 464.53,-93.97"/>
<polygon fill="midnightblue" stroke="midnightblue" points="692.85,-137.37 703.32,-135.75 694.12,-130.49 692.85,-137.37"/>
</g>
<!-- Node21 -->
<g id="node21" class="node">
<title>Node21</title>
<g id="a_node21"><a xlink:href="_all_units_8cpp.html" target="_top" xlink:title=" ">
<polygon fill="white" stroke="black" points="438,-0.5 438,-30.5 548,-30.5 548,-0.5 438,-0.5"/>
<text text-anchor="start" x="446" y="-18.5" font-family="Helvetica,sans-Serif" font-size="10.00">src/GameLogic/Units</text>
<text text-anchor="middle" x="493" y="-7.5" font-family="Helvetica,sans-Serif" font-size="10.00">/AllUnits.cpp</text>
</a>
</g>
</g>
<!-- Node20&#45;&gt;Node21 -->
<g id="edge25" class="edge">
<title>Node20&#45;&gt;Node21</title>
<path fill="none" stroke="midnightblue" d="M429.38,-61.45C443.53,-51.45 460.31,-39.6 473.08,-30.58"/>
<polygon fill="midnightblue" stroke="midnightblue" points="427.11,-58.77 420.96,-67.4 431.15,-64.48 427.11,-58.77"/>
</g>
<!-- Node22 -->
<g id="node22" class="node">
<title>Node22</title>
<g id="a_node22"><a xlink:href="_armored_unit_factory_8cpp.html" target="_top" xlink:title=" ">
<polygon fill="white" stroke="black" points="294.5,-0.5 294.5,-30.5 419.5,-30.5 419.5,-0.5 294.5,-0.5"/>
<text text-anchor="start" x="302.5" y="-18.5" font-family="Helvetica,sans-Serif" font-size="10.00">src/GameLogic/Units</text>
<text text-anchor="middle" x="357" y="-7.5" font-family="Helvetica,sans-Serif" font-size="10.00">/ArmoredUnitFactory.cpp</text>
</a>
</g>
</g>
<!-- Node20&#45;&gt;Node22 -->
<g id="edge26" class="edge">
<title>Node20&#45;&gt;Node22</title>
<path fill="none" stroke="midnightblue" d="M385.68,-58.87C379.31,-49.46 372.12,-38.83 366.53,-30.58"/>
<polygon fill="midnightblue" stroke="midnightblue" points="382.95,-61.08 391.45,-67.4 388.75,-57.15 382.95,-61.08"/>
</g>
<!-- Node23&#45;&gt;Node1 -->
<g id="edge29" class="edge">
<title>Node23&#45;&gt;Node1</title>
<path fill="none" stroke="midnightblue" d="M310.43,-240.17C282.96,-283.51 222.51,-381.56 181,-469 158.26,-516.9 137.57,-576.48 128.64,-603.28"/>
<polygon fill="midnightblue" stroke="midnightblue" points="313.51,-241.86 315.93,-231.55 307.6,-238.1 313.51,-241.86"/>
</g>
<!-- Node23&#45;&gt;Node20 -->
<g id="edge36" class="edge">
<title>Node23&#45;&gt;Node20</title>
<path fill="none" stroke="midnightblue" d="M284.18,-196.04C272.25,-188.18 260.64,-177.87 254,-165 247.68,-152.76 246,-145.21 254,-134 264.27,-119.61 302.52,-106.73 337.43,-97.57"/>
<polygon fill="midnightblue" stroke="midnightblue" points="282.49,-199.12 292.85,-201.34 286.14,-193.14 282.49,-199.12"/>
</g>
<!-- Node24 -->
<g id="node24" class="node">
<title>Node24</title>
<g id="a_node24"><a xlink:href="_factory_8cpp.html" target="_top" xlink:title=" ">
<polygon fill="white" stroke="black" points="263,-134.5 263,-164.5 373,-164.5 373,-134.5 263,-134.5"/>
<text text-anchor="start" x="271" y="-152.5" font-family="Helvetica,sans-Serif" font-size="10.00">src/GameLogic/Units</text>
<text text-anchor="middle" x="318" y="-141.5" font-family="Helvetica,sans-Serif" font-size="10.00">/Factory.cpp</text>
</a>
</g>
</g>
<!-- Node23&#45;&gt;Node24 -->
<g id="edge28" class="edge">
<title>Node23&#45;&gt;Node24</title>
<path fill="none" stroke="midnightblue" d="M322.4,-191.4C321.43,-182.37 320.36,-172.41 319.52,-164.58"/>
<polygon fill="midnightblue" stroke="midnightblue" points="318.93,-191.83 323.48,-201.4 325.89,-191.08 318.93,-191.83"/>
</g>
<!-- Node25 -->
<g id="node25" class="node">
<title>Node25</title>
<g id="a_node25"><a xlink:href="_all_units_8h.html" target="_top" xlink:title=" ">
<polygon fill="white" stroke="black" points="79.5,-134.5 79.5,-164.5 206.5,-164.5 206.5,-134.5 79.5,-134.5"/>
<text text-anchor="start" x="87.5" y="-152.5" font-family="Helvetica,sans-Serif" font-size="10.00">include/GameLogic/Units</text>
<text text-anchor="middle" x="143" y="-141.5" font-family="Helvetica,sans-Serif" font-size="10.00">/AllUnits.h</text>
</a>
</g>
</g>
<!-- Node23&#45;&gt;Node25 -->
<g id="edge30" class="edge">
<title>Node23&#45;&gt;Node25</title>
<path fill="none" stroke="midnightblue" d="M275.87,-197.96C246.56,-187.48 209.82,-174.37 182.41,-164.58"/>
<polygon fill="midnightblue" stroke="midnightblue" points="274.91,-201.33 285.51,-201.4 277.27,-194.74 274.91,-201.33"/>
</g>
<!-- Node26 -->
<g id="node26" class="node">
<title>Node26</title>
<g id="a_node26"><a xlink:href="_land_unit_factory_8h.html" target="_top" xlink:title=" ">
<polygon fill="white" stroke="black" points="848.5,-134.5 848.5,-164.5 975.5,-164.5 975.5,-134.5 848.5,-134.5"/>
<text text-anchor="start" x="856.5" y="-152.5" font-family="Helvetica,sans-Serif" font-size="10.00">include/GameLogic/Units</text>
<text text-anchor="middle" x="912" y="-141.5" font-family="Helvetica,sans-Serif" font-size="10.00">/LandUnitFactory.h</text>
</a>
</g>
</g>
<!-- Node23&#45;&gt;Node26 -->
<g id="edge37" class="edge">
<title>Node23&#45;&gt;Node26</title>
<path fill="none" stroke="midnightblue" d="M398.7,-210.62C498.93,-203.46 683.66,-188.35 840,-165 842.77,-164.59 845.6,-164.14 848.46,-163.66"/>
<polygon fill="midnightblue" stroke="midnightblue" points="398.41,-207.14 388.68,-211.33 398.9,-214.12 398.41,-207.14"/>
</g>
<!-- Node28 -->
<g id="node28" class="node">
<title>Node28</title>
<g id="a_node28"><a xlink:href="_transport_unit_factory_8h.html" target="_top" xlink:title=" ">
<polygon fill="white" stroke="black" points="429.5,-134.5 429.5,-164.5 556.5,-164.5 556.5,-134.5 429.5,-134.5"/>
<text text-anchor="start" x="437.5" y="-152.5" font-family="Helvetica,sans-Serif" font-size="10.00">include/GameLogic/Units</text>
<text text-anchor="middle" x="493" y="-141.5" font-family="Helvetica,sans-Serif" font-size="10.00">/TransportUnitFactory.h</text>
</a>
</g>
</g>
<!-- Node23&#45;&gt;Node28 -->
<g id="edge40" class="edge">
<title>Node23&#45;&gt;Node28</title>
<path fill="none" stroke="midnightblue" d="M371.05,-197.68C398,-187.26 431.54,-174.28 456.62,-164.58"/>
<polygon fill="midnightblue" stroke="midnightblue" points="369.52,-194.52 361.45,-201.4 372.04,-201.05 369.52,-194.52"/>
</g>
<!-- Node25&#45;&gt;Node2 -->
<g id="edge32" class="edge">
<title>Node25&#45;&gt;Node2</title>
<path fill="none" stroke="midnightblue" d="M116.1,-128.17C102.95,-118.23 87.45,-106.51 75.62,-97.58"/>
<polygon fill="midnightblue" stroke="midnightblue" points="114.25,-131.16 124.34,-134.4 118.47,-125.57 114.25,-131.16"/>
</g>
<!-- Node25&#45;&gt;Node3 -->
<g id="edge35" class="edge">
<title>Node25&#45;&gt;Node3</title>
<path fill="none" stroke="midnightblue" d="M140.15,-175.02C134.37,-234.36 126.14,-388.96 181,-500 188.26,-514.7 201.66,-527.41 213.17,-536.4"/>
<polygon fill="midnightblue" stroke="midnightblue" points="143.66,-175.08 141.22,-164.77 136.7,-174.36 143.66,-175.08"/>
</g>
<!-- Node25&#45;&gt;Node5 -->
<g id="edge34" class="edge">
<title>Node25&#45;&gt;Node5</title>
<path fill="none" stroke="midnightblue" d="M150.36,-174.42C170.97,-241.07 228.43,-424.52 239,-433 269.16,-457.21 514.73,-473.62 633.77,-480.23"/>
<polygon fill="midnightblue" stroke="midnightblue" points="153.68,-173.3 147.38,-164.78 146.99,-175.36 153.68,-173.3"/>
</g>
<!-- Node25&#45;&gt;Node13 -->
<g id="edge31" class="edge">
<title>Node25&#45;&gt;Node13</title>
<path fill="none" stroke="midnightblue" d="M176.68,-129.3C194.52,-119.12 216.04,-106.85 232.31,-97.58"/>
<polygon fill="midnightblue" stroke="midnightblue" points="174.69,-126.4 167.74,-134.4 178.16,-132.48 174.69,-126.4"/>
</g>
<!-- Node25&#45;&gt;Node21 -->
<g id="edge33" class="edge">
<title>Node25&#45;&gt;Node21</title>
<path fill="none" stroke="midnightblue" d="M150.6,-124.68C157.88,-105.89 170.8,-80.65 191,-67 279.64,-7.1 323.87,-50.83 429,-31 431.91,-30.45 434.89,-29.86 437.89,-29.25"/>
<polygon fill="midnightblue" stroke="midnightblue" points="147.21,-123.74 147.12,-134.34 153.8,-126.12 147.21,-123.74"/>
</g>
<!-- Node26&#45;&gt;Node21 -->
<g id="edge38" class="edge">
<title>Node26&#45;&gt;Node21</title>
<path fill="none" stroke="midnightblue" d="M889.66,-127.51C865.13,-104.65 828.1,-70.81 820,-67 731.22,-25.3 615.4,-16.76 548.1,-15.7"/>
<polygon fill="midnightblue" stroke="midnightblue" points="887.44,-130.23 897.14,-134.5 892.22,-125.11 887.44,-130.23"/>
</g>
<!-- Node27 -->
<g id="node27" class="node">
<title>Node27</title>
<g id="a_node27"><a xlink:href="_land_unit_factory_8cpp.html" target="_top" xlink:title=" ">
<polygon fill="white" stroke="black" points="867,-67.5 867,-97.5 977,-97.5 977,-67.5 867,-67.5"/>
<text text-anchor="start" x="875" y="-85.5" font-family="Helvetica,sans-Serif" font-size="10.00">src/GameLogic/Units</text>
<text text-anchor="middle" x="922" y="-74.5" font-family="Helvetica,sans-Serif" font-size="10.00">/LandUnitFactory.cpp</text>
</a>
</g>
</g>
<!-- Node26&#45;&gt;Node27 -->
<g id="edge39" class="edge">
<title>Node26&#45;&gt;Node27</title>
<path fill="none" stroke="midnightblue" d="M915.71,-124.4C917.1,-115.37 918.63,-105.41 919.83,-97.58"/>
<polygon fill="midnightblue" stroke="midnightblue" points="912.23,-123.98 914.17,-134.4 919.15,-125.04 912.23,-123.98"/>
</g>
<!-- Node28&#45;&gt;Node20 -->
<g id="edge43" class="edge">
<title>Node28&#45;&gt;Node20</title>
<path fill="none" stroke="midnightblue" d="M464.62,-128.45C450.47,-118.45 433.69,-106.6 420.92,-97.58"/>
<polygon fill="midnightblue" stroke="midnightblue" points="462.85,-131.48 473.04,-134.4 466.89,-125.77 462.85,-131.48"/>
</g>
<!-- Node28&#45;&gt;Node21 -->
<g id="edge41" class="edge">
<title>Node28&#45;&gt;Node21</title>
<path fill="none" stroke="midnightblue" d="M493,-124.02C493,-96.51 493,-52.79 493,-30.52"/>
<polygon fill="midnightblue" stroke="midnightblue" points="489.5,-124.37 493,-134.37 496.5,-124.37 489.5,-124.37"/>
</g>
<!-- Node29 -->
<g id="node29" class="node">
<title>Node29</title>
<g id="a_node29"><a xlink:href="_transport_unit_factory_8cpp.html" target="_top" xlink:title=" ">
<polygon fill="white" stroke="black" points="521.5,-67.5 521.5,-97.5 650.5,-97.5 650.5,-67.5 521.5,-67.5"/>
<text text-anchor="start" x="529.5" y="-85.5" font-family="Helvetica,sans-Serif" font-size="10.00">src/GameLogic/Units</text>
<text text-anchor="middle" x="586" y="-74.5" font-family="Helvetica,sans-Serif" font-size="10.00">/TransportUnitFactory.cpp</text>
</a>
</g>
</g>
<!-- Node28&#45;&gt;Node29 -->
<g id="edge42" class="edge">
<title>Node28&#45;&gt;Node29</title>
<path fill="none" stroke="midnightblue" d="M521.69,-128.45C535.99,-118.45 552.95,-106.6 565.86,-97.58"/>
<polygon fill="midnightblue" stroke="midnightblue" points="519.37,-125.8 513.18,-134.4 523.38,-131.54 519.37,-125.8"/>
</g>
<!-- Node30&#45;&gt;Node26 -->
<g id="edge46" class="edge">
<title>Node30&#45;&gt;Node26</title>
<path fill="none" stroke="midnightblue" d="M868.19,-194.31C877.94,-184.56 889.24,-173.26 897.92,-164.58"/>
<polygon fill="midnightblue" stroke="midnightblue" points="865.7,-191.85 861.1,-201.4 870.65,-196.8 865.7,-191.85"/>
</g>
<!-- Node31 -->
<g id="node31" class="node">
<title>Node31</title>
<g id="a_node31"><a xlink:href="_land_unit_8cpp.html" target="_top" xlink:title=" ">
<polygon fill="white" stroke="black" points="994,-134.5 994,-164.5 1104,-164.5 1104,-134.5 994,-134.5"/>
<text text-anchor="start" x="1002" y="-152.5" font-family="Helvetica,sans-Serif" font-size="10.00">src/GameLogic/Units</text>
<text text-anchor="middle" x="1049" y="-141.5" font-family="Helvetica,sans-Serif" font-size="10.00">/LandUnit.cpp</text>
</a>
</g>
</g>
<!-- Node30&#45;&gt;Node31 -->
<g id="edge45" class="edge">
<title>Node30&#45;&gt;Node31</title>
<path fill="none" stroke="midnightblue" d="M900.68,-198.23C933.35,-187.71 974.57,-174.45 1005.25,-164.58"/>
<polygon fill="midnightblue" stroke="midnightblue" points="899.28,-195 890.83,-201.4 901.42,-201.66 899.28,-195"/>
</g>
<!-- Node32&#45;&gt;Node18 -->
<g id="edge49" class="edge">
<title>Node32&#45;&gt;Node18</title>
<path fill="none" stroke="midnightblue" d="M677.42,-196.71C697.29,-186.46 721.48,-173.98 739.71,-164.58"/>
<polygon fill="midnightblue" stroke="midnightblue" points="675.62,-193.7 668.34,-201.4 678.83,-199.92 675.62,-193.7"/>
</g>
<!-- Node32&#45;&gt;Node28 -->
<g id="edge50" class="edge">
<title>Node32&#45;&gt;Node28</title>
<path fill="none" stroke="midnightblue" d="M599.49,-197.27C575.92,-186.92 546.86,-174.15 525.05,-164.58"/>
<polygon fill="midnightblue" stroke="midnightblue" points="598.32,-200.58 608.89,-201.4 601.14,-194.17 598.32,-200.58"/>
</g>
<!-- Node33 -->
<g id="node33" class="node">
<title>Node33</title>
<g id="a_node33"><a xlink:href="_transport_unit_8cpp.html" target="_top" xlink:title=" ">
<polygon fill="white" stroke="black" points="575,-134.5 575,-164.5 685,-164.5 685,-134.5 575,-134.5"/>
<text text-anchor="start" x="583" y="-152.5" font-family="Helvetica,sans-Serif" font-size="10.00">src/GameLogic/Units</text>
<text text-anchor="middle" x="630" y="-141.5" font-family="Helvetica,sans-Serif" font-size="10.00">/TransportUnit.cpp</text>
</a>
</g>
</g>
<!-- Node32&#45;&gt;Node33 -->
<g id="edge48" class="edge">
<title>Node32&#45;&gt;Node33</title>
<path fill="none" stroke="midnightblue" d="M636.92,-191.4C635.39,-182.37 633.71,-172.41 632.38,-164.58"/>
<polygon fill="midnightblue" stroke="midnightblue" points="633.49,-192.12 638.61,-201.4 640.4,-190.95 633.49,-192.12"/>
</g>
<!-- Node34&#45;&gt;Node14 -->
<g id="edge55" class="edge">
<title>Node34&#45;&gt;Node14</title>
<path fill="none" stroke="midnightblue" d="M976.82,-234.51C940.49,-245.09 892.85,-258.51 856.29,-268.48"/>
<polygon fill="midnightblue" stroke="midnightblue" points="978.13,-237.78 986.75,-231.61 976.17,-231.06 978.13,-237.78"/>
</g>
<!-- Node34&#45;&gt;Node15 -->
<g id="edge52" class="edge">
<title>Node34&#45;&gt;Node15</title>
<path fill="none" stroke="midnightblue" d="M1105.06,-201.63C1106.39,-201.41 1107.7,-201.2 1109,-201 1233.83,-181.45 1266.58,-186.98 1391,-165 1393.92,-164.48 1396.9,-163.92 1399.91,-163.33"/>
<polygon fill="midnightblue" stroke="midnightblue" points="1104.09,-198.24 1094.8,-203.33 1105.24,-205.14 1104.09,-198.24"/>
</g>
<!-- Node34&#45;&gt;Node16 -->
<g id="edge54" class="edge">
<title>Node34&#45;&gt;Node16</title>
<path fill="none" stroke="midnightblue" d="M1074.37,-197.54C1099.49,-187.14 1130.66,-174.24 1154,-164.58"/>
<polygon fill="midnightblue" stroke="midnightblue" points="1072.97,-194.34 1065.07,-201.4 1075.64,-200.8 1072.97,-194.34"/>
</g>
<!-- Node35 -->
<g id="node35" class="node">
<title>Node35</title>
<g id="a_node35"><a xlink:href="_unit_order_8cpp.html" target="_top" xlink:title=" ">
<polygon fill="white" stroke="black" points="1272,-134.5 1272,-164.5 1382,-164.5 1382,-134.5 1272,-134.5"/>
<text text-anchor="start" x="1280" y="-152.5" font-family="Helvetica,sans-Serif" font-size="10.00">src/GameLogic/Units</text>
<text text-anchor="middle" x="1327" y="-141.5" font-family="Helvetica,sans-Serif" font-size="10.00">/UnitOrder.cpp</text>
</a>
</g>
</g>
<!-- Node34&#45;&gt;Node35 -->
<g id="edge53" class="edge">
<title>Node34&#45;&gt;Node35</title>
<path fill="none" stroke="midnightblue" d="M1104.36,-199.7C1150.02,-189.82 1209.95,-176.78 1263,-165 1265.89,-164.36 1268.86,-163.7 1271.85,-163.03"/>
<polygon fill="midnightblue" stroke="midnightblue" points="1103.58,-196.29 1094.54,-201.82 1105.06,-203.13 1103.58,-196.29"/>
</g>
<!-- Node37 -->
<g id="node37" class="node">
<title>Node37</title>
<g id="a_node37"><a xlink:href="_game_logic_2_squad_2_action_8cpp.html" target="_top" xlink:title=" ">
<polygon fill="white" stroke="black" points="1151,-201.5 1151,-231.5 1265,-231.5 1265,-201.5 1151,-201.5"/>
<text text-anchor="start" x="1159" y="-219.5" font-family="Helvetica,sans-Serif" font-size="10.00">src/GameLogic/Squad</text>
<text text-anchor="middle" x="1208" y="-208.5" font-family="Helvetica,sans-Serif" font-size="10.00">/Action.cpp</text>
</a>
</g>
</g>
<!-- Node36&#45;&gt;Node37 -->
<g id="edge57" class="edge">
<title>Node36&#45;&gt;Node37</title>
<path fill="none" stroke="midnightblue" d="M987.67,-271.54C1032.6,-260.52 1102.04,-243.49 1150.93,-231.5"/>
<polygon fill="midnightblue" stroke="midnightblue" points="986.79,-268.15 977.92,-273.94 988.46,-274.95 986.79,-268.15"/>
</g>
<!-- Node38 -->
<g id="node38" class="node">
<title>Node38</title>
<g id="a_node38"><a xlink:href="pathfinding_8cpp.html" target="_top" xlink:title=" ">
<polygon fill="white" stroke="black" points="1283.5,-207 1283.5,-226 1396.5,-226 1396.5,-207 1283.5,-207"/>
<text text-anchor="middle" x="1340" y="-214" font-family="Helvetica,sans-Serif" font-size="10.00">src/util/pathfinding.cpp</text>
</a>
</g>
</g>
<!-- Node36&#45;&gt;Node38 -->
<g id="edge58" class="edge">
<title>Node36&#45;&gt;Node38</title>
<path fill="none" stroke="midnightblue" d="M991.96,-271.92C999.01,-270.53 1006.18,-269.18 1013,-268 1128.4,-248.11 1158.72,-252.58 1274,-232 1283.59,-230.29 1293.89,-228.16 1303.45,-226.07"/>
<polygon fill="midnightblue" stroke="midnightblue" points="990.9,-268.57 981.79,-273.98 992.28,-275.43 990.9,-268.57"/>
</g>
</g>
</svg>
