<?xml version="1.0" encoding="UTF-8" standalone="no"?>
<!DOCTYPE svg PUBLIC "-//W3C//DTD SVG 1.1//EN"
 "http://www.w3.org/Graphics/SVG/1.1/DTD/svg11.dtd">
<!-- Generated by graphviz version 2.47.1 (20210421.1823)
 -->
<!-- Title: src/GameLogic/Squad/SquadOrder.cpp Pages: 1 -->
<svg width="1368pt" height="834pt"
 viewBox="0.00 0.00 1367.50 834.00" xmlns="http://www.w3.org/2000/svg" xmlns:xlink="http://www.w3.org/1999/xlink">
<g id="graph0" class="graph" transform="scale(1 1) rotate(0) translate(4 830)">
<title>src/GameLogic/Squad/SquadOrder.cpp</title>
<polygon fill="white" stroke="transparent" points="-4,4 -4,-830 1363.5,-830 1363.5,4 -4,4"/>
<!-- Node1 -->
<g id="node1" class="node">
<title>Node1</title>
<g id="a_node1"><a xlink:title=" ">
<polygon fill="#bfbfbf" stroke="black" points="632,-795.5 632,-825.5 746,-825.5 746,-795.5 632,-795.5"/>
<text text-anchor="start" x="640" y="-813.5" font-family="Helvetica,sans-Serif" font-size="10.00">src/GameLogic/Squad</text>
<text text-anchor="middle" x="689" y="-802.5" font-family="Helvetica,sans-Serif" font-size="10.00">/SquadOrder.cpp</text>
</a>
</g>
</g>
<!-- Node2 -->
<g id="node2" class="node">
<title>Node2</title>
<g id="a_node2"><a xlink:href="_squad_order_8h.html" target="_top" xlink:title=" ">
<polygon fill="white" stroke="black" points="609,-739.5 609,-758.5 769,-758.5 769,-739.5 609,-739.5"/>
<text text-anchor="middle" x="689" y="-746.5" font-family="Helvetica,sans-Serif" font-size="10.00">GameLogic/Squad/SquadOrder.h</text>
</a>
</g>
</g>
<!-- Node1&#45;&gt;Node2 -->
<g id="edge1" class="edge">
<title>Node1&#45;&gt;Node2</title>
<path fill="none" stroke="midnightblue" d="M689,-795.4C689,-787.47 689,-777.46 689,-768.86"/>
<polygon fill="midnightblue" stroke="midnightblue" points="692.5,-768.66 689,-758.66 685.5,-768.66 692.5,-768.66"/>
</g>
<!-- Node3 -->
<g id="node3" class="node">
<title>Node3</title>
<g id="a_node3"><a xlink:href="_unit_order_8h.html" target="_top" xlink:title=" ">
<polygon fill="white" stroke="black" points="566,-683.5 566,-702.5 712,-702.5 712,-683.5 566,-683.5"/>
<text text-anchor="middle" x="639" y="-690.5" font-family="Helvetica,sans-Serif" font-size="10.00">GameLogic/Units/UnitOrder.h</text>
</a>
</g>
</g>
<!-- Node2&#45;&gt;Node3 -->
<g id="edge2" class="edge">
<title>Node2&#45;&gt;Node3</title>
<path fill="none" stroke="midnightblue" d="M680.74,-739.08C673.54,-731.3 662.89,-719.8 654.15,-710.37"/>
<polygon fill="midnightblue" stroke="midnightblue" points="656.47,-707.71 647.1,-702.75 651.33,-712.47 656.47,-707.71"/>
</g>
<!-- Node5 -->
<g id="node5" class="node">
<title>Node5</title>
<g id="a_node5"><a xlink:href="_unit_8h.html" target="_top" xlink:title=" ">
<polygon fill="white" stroke="black" points="629,-627.5 629,-646.5 751,-646.5 751,-627.5 629,-627.5"/>
<text text-anchor="middle" x="690" y="-634.5" font-family="Helvetica,sans-Serif" font-size="10.00">GameLogic/Units/Unit.h</text>
</a>
</g>
</g>
<!-- Node2&#45;&gt;Node5 -->
<g id="edge78" class="edge">
<title>Node2&#45;&gt;Node5</title>
<path fill="none" stroke="midnightblue" d="M697.75,-739.29C705.56,-730.84 716.45,-717.25 721,-703 726.5,-685.78 715.89,-667.27 705.62,-654.42"/>
<polygon fill="midnightblue" stroke="midnightblue" points="707.96,-651.78 698.77,-646.52 702.67,-656.37 707.96,-651.78"/>
</g>
<!-- Node4 -->
<g id="node4" class="node">
<title>Node4</title>
<g id="a_node4"><a xlink:title=" ">
<polygon fill="white" stroke="#bfbfbf" points="517.5,-224.5 517.5,-243.5 558.5,-243.5 558.5,-224.5 517.5,-224.5"/>
<text text-anchor="middle" x="538" y="-231.5" font-family="Helvetica,sans-Serif" font-size="10.00">string</text>
</a>
</g>
</g>
<!-- Node3&#45;&gt;Node4 -->
<g id="edge3" class="edge">
<title>Node3&#45;&gt;Node4</title>
<path fill="none" stroke="midnightblue" d="M565.96,-687.83C474.11,-677.97 322.55,-644.96 274,-535 247.84,-475.75 256.28,-437.87 302,-392 360.18,-333.63 395.76,-347.66 463,-300 484.59,-284.7 507.26,-264.37 521.95,-250.54"/>
<polygon fill="midnightblue" stroke="midnightblue" points="524.41,-253.04 529.24,-243.61 519.58,-247.97 524.41,-253.04"/>
</g>
<!-- Node3&#45;&gt;Node5 -->
<g id="edge4" class="edge">
<title>Node3&#45;&gt;Node5</title>
<path fill="none" stroke="midnightblue" d="M642.26,-683.08C648.14,-675.06 659.1,-663.1 669.17,-653.51"/>
<polygon fill="midnightblue" stroke="midnightblue" points="671.56,-656.07 676.6,-646.75 666.85,-650.89 671.56,-656.07"/>
</g>
<!-- Node5&#45;&gt;Node3 -->
<g id="edge6" class="edge">
<title>Node5&#45;&gt;Node3</title>
<path fill="none" stroke="midnightblue" d="M686.81,-646.83C680.93,-654.87 669.9,-666.91 659.77,-676.54"/>
<polygon fill="midnightblue" stroke="midnightblue" points="657.35,-674.01 652.31,-683.32 662.06,-679.19 657.35,-674.01"/>
</g>
<!-- Node6 -->
<g id="node6" class="node">
<title>Node6</title>
<g id="a_node6"><a xlink:title=" ">
<polygon fill="white" stroke="#bfbfbf" points="1295.5,-571.5 1295.5,-590.5 1338.5,-590.5 1338.5,-571.5 1295.5,-571.5"/>
<text text-anchor="middle" x="1317" y="-578.5" font-family="Helvetica,sans-Serif" font-size="10.00">cstdio</text>
</a>
</g>
</g>
<!-- Node5&#45;&gt;Node6 -->
<g id="edge5" class="edge">
<title>Node5&#45;&gt;Node6</title>
<path fill="none" stroke="midnightblue" d="M751.23,-634.74C858.99,-631.77 1089.27,-622.04 1281,-591 1282.47,-590.76 1283.97,-590.49 1285.48,-590.2"/>
<polygon fill="midnightblue" stroke="midnightblue" points="1286.4,-593.58 1295.42,-588.02 1284.9,-586.75 1286.4,-593.58"/>
</g>
<!-- Node7 -->
<g id="node7" class="node">
<title>Node7</title>
<g id="a_node7"><a xlink:href="_squad_8h.html" target="_top" xlink:title=" ">
<polygon fill="white" stroke="black" points="622,-571.5 622,-590.5 758,-590.5 758,-571.5 622,-571.5"/>
<text text-anchor="middle" x="690" y="-578.5" font-family="Helvetica,sans-Serif" font-size="10.00">GameLogic/Squad/Squad.h</text>
</a>
</g>
</g>
<!-- Node5&#45;&gt;Node7 -->
<g id="edge7" class="edge">
<title>Node5&#45;&gt;Node7</title>
<path fill="none" stroke="midnightblue" d="M684.83,-627.08C683.32,-619.93 682.89,-609.64 683.54,-600.69"/>
<polygon fill="midnightblue" stroke="midnightblue" points="687.02,-601.13 684.87,-590.75 680.08,-600.2 687.02,-601.13"/>
</g>
<!-- Node24 -->
<g id="node24" class="node">
<title>Node24</title>
<g id="a_node24"><a xlink:href="_all_flags_8h.html" target="_top" xlink:title=" ">
<polygon fill="white" stroke="black" points="1053.5,-398 1053.5,-417 1112.5,-417 1112.5,-398 1053.5,-398"/>
<text text-anchor="middle" x="1083" y="-405" font-family="Helvetica,sans-Serif" font-size="10.00">AllFlags.h</text>
</a>
</g>
</g>
<!-- Node5&#45;&gt;Node24 -->
<g id="edge73" class="edge">
<title>Node5&#45;&gt;Node24</title>
<path fill="none" stroke="midnightblue" d="M704.93,-627.36C764.5,-592.87 985.6,-464.88 1059.08,-422.35"/>
<polygon fill="midnightblue" stroke="midnightblue" points="1061.16,-425.19 1068.06,-417.15 1057.65,-419.13 1061.16,-425.19"/>
</g>
<!-- Node40 -->
<g id="node40" class="node">
<title>Node40</title>
<g id="a_node40"><a xlink:href="_textures_8h.html" target="_top" xlink:title=" ">
<polygon fill="white" stroke="black" points="1238.5,-280.5 1238.5,-299.5 1339.5,-299.5 1339.5,-280.5 1238.5,-280.5"/>
<text text-anchor="middle" x="1289" y="-287.5" font-family="Helvetica,sans-Serif" font-size="10.00">graphics/Textures.h</text>
</a>
</g>
</g>
<!-- Node5&#45;&gt;Node40 -->
<g id="edge74" class="edge">
<title>Node5&#45;&gt;Node40</title>
<path fill="none" stroke="midnightblue" d="M751.2,-630.72C899.7,-617.08 1267,-578.07 1267,-526 1267,-526 1267,-526 1267,-406.5 1267,-371.59 1276.82,-331.78 1283.34,-309.19"/>
<polygon fill="midnightblue" stroke="midnightblue" points="1286.7,-310.17 1286.21,-299.59 1279.99,-308.16 1286.7,-310.17"/>
</g>
<!-- Node7&#45;&gt;Node5 -->
<g id="edge66" class="edge">
<title>Node7&#45;&gt;Node5</title>
<path fill="none" stroke="midnightblue" d="M695.13,-590.75C696.66,-597.86 697.1,-608.14 696.47,-617.1"/>
<polygon fill="midnightblue" stroke="midnightblue" points="692.99,-616.71 695.17,-627.08 699.93,-617.62 692.99,-616.71"/>
</g>
<!-- Node8 -->
<g id="node8" class="node">
<title>Node8</title>
<g id="a_node8"><a xlink:href="_cell_8h.html" target="_top" xlink:title=" ">
<polygon fill="white" stroke="black" points="538,-459.5 538,-478.5 632,-478.5 632,-459.5 538,-459.5"/>
<text text-anchor="middle" x="585" y="-466.5" font-family="Helvetica,sans-Serif" font-size="10.00">GameLogic/Cell.h</text>
</a>
</g>
</g>
<!-- Node7&#45;&gt;Node8 -->
<g id="edge8" class="edge">
<title>Node7&#45;&gt;Node8</title>
<path fill="none" stroke="midnightblue" d="M660.15,-571.44C641.6,-564.02 618.88,-551.81 604,-535 592.18,-521.64 584.76,-502.53 582.19,-488.48"/>
<polygon fill="midnightblue" stroke="midnightblue" points="585.67,-488.11 581.19,-478.51 578.71,-488.82 585.67,-488.11"/>
</g>
<!-- Node9 -->
<g id="node9" class="node">
<title>Node9</title>
<g id="a_node9"><a xlink:href="gameplay_clickable_game_object_8h.html" target="_top" xlink:title=" ">
<polygon fill="white" stroke="black" points="876.5,-392.5 876.5,-422.5 1005.5,-422.5 1005.5,-392.5 876.5,-392.5"/>
<text text-anchor="start" x="884.5" y="-410.5" font-family="Helvetica,sans-Serif" font-size="10.00">engine/gameplayClickable</text>
<text text-anchor="middle" x="941" y="-399.5" font-family="Helvetica,sans-Serif" font-size="10.00">GameObject.h</text>
</a>
</g>
</g>
<!-- Node7&#45;&gt;Node9 -->
<g id="edge67" class="edge">
<title>Node7&#45;&gt;Node9</title>
<path fill="none" stroke="midnightblue" d="M705.61,-571.48C721.37,-562.74 746.26,-548.55 767,-535 820.81,-499.84 880.92,-454.77 914.53,-429.02"/>
<polygon fill="midnightblue" stroke="midnightblue" points="917.09,-431.47 922.88,-422.6 912.82,-425.92 917.09,-431.47"/>
</g>
<!-- Node12 -->
<g id="node12" class="node">
<title>Node12</title>
<g id="a_node12"><a xlink:href="config_8h.html" target="_top" xlink:title=" ">
<polygon fill="white" stroke="black" points="1162.5,-112.5 1162.5,-131.5 1243.5,-131.5 1243.5,-112.5 1162.5,-112.5"/>
<text text-anchor="middle" x="1203" y="-119.5" font-family="Helvetica,sans-Serif" font-size="10.00">engine/config.h</text>
</a>
</g>
</g>
<!-- Node7&#45;&gt;Node12 -->
<g id="edge71" class="edge">
<title>Node7&#45;&gt;Node12</title>
<path fill="none" stroke="midnightblue" d="M751.63,-571.48C846.29,-555.87 1029.64,-515.36 1155,-423 1188.57,-398.27 1210,-388.69 1210,-347 1210,-347 1210,-347 1210,-233 1210,-200.88 1206.99,-163.6 1204.92,-141.73"/>
<polygon fill="midnightblue" stroke="midnightblue" points="1208.38,-141.15 1203.92,-131.55 1201.41,-141.84 1208.38,-141.15"/>
</g>
<!-- Node15 -->
<g id="node15" class="node">
<title>Node15</title>
<g id="a_node15"><a xlink:href="_facade_8h.html" target="_top" xlink:title=" ">
<polygon fill="white" stroke="black" points="11,-0.5 11,-19.5 67,-19.5 67,-0.5 11,-0.5"/>
<text text-anchor="middle" x="39" y="-7.5" font-family="Helvetica,sans-Serif" font-size="10.00">Facade.h</text>
</a>
</g>
</g>
<!-- Node7&#45;&gt;Node15 -->
<g id="edge72" class="edge">
<title>Node7&#45;&gt;Node15</title>
<path fill="none" stroke="midnightblue" d="M647.65,-571.48C605.15,-562.81 537.87,-548.71 480,-535 247.13,-479.82 0,-530.31 0,-291 0,-291 0,-291 0,-121 0,-86.72 17.04,-49.7 28.59,-28.54"/>
<polygon fill="midnightblue" stroke="midnightblue" points="31.69,-30.17 33.58,-19.75 25.6,-26.72 31.69,-30.17"/>
</g>
<!-- Node39 -->
<g id="node39" class="node">
<title>Node39</title>
<g id="a_node39"><a xlink:href="_game_logic_2_squad_2_action_8h.html" target="_top" xlink:title=" ">
<polygon fill="white" stroke="black" points="622,-515.5 622,-534.5 758,-534.5 758,-515.5 622,-515.5"/>
<text text-anchor="middle" x="690" y="-522.5" font-family="Helvetica,sans-Serif" font-size="10.00">GameLogic/Squad/Action.h</text>
</a>
</g>
</g>
<!-- Node7&#45;&gt;Node39 -->
<g id="edge68" class="edge">
<title>Node7&#45;&gt;Node39</title>
<path fill="none" stroke="midnightblue" d="M684.83,-571.08C683.32,-563.93 682.89,-553.64 683.54,-544.69"/>
<polygon fill="midnightblue" stroke="midnightblue" points="687.02,-545.13 684.87,-534.75 680.08,-544.2 687.02,-545.13"/>
</g>
<!-- Node8&#45;&gt;Node7 -->
<g id="edge31" class="edge">
<title>Node8&#45;&gt;Node7</title>
<path fill="none" stroke="midnightblue" d="M592.5,-478.51C599.11,-491.9 607.02,-518.07 622,-535 634.09,-548.66 651.36,-559.28 665.6,-566.76"/>
<polygon fill="midnightblue" stroke="midnightblue" points="664.38,-570.06 674.88,-571.44 667.53,-563.81 664.38,-570.06"/>
</g>
<!-- Node8&#45;&gt;Node9 -->
<g id="edge9" class="edge">
<title>Node8&#45;&gt;Node9</title>
<path fill="none" stroke="midnightblue" d="M632.49,-460.94C686.58,-452.79 777.85,-438.68 866.5,-423.05"/>
<polygon fill="midnightblue" stroke="midnightblue" points="867.22,-426.48 876.45,-421.29 865.99,-419.59 867.22,-426.48"/>
</g>
<!-- Node8&#45;&gt;Node12 -->
<g id="edge29" class="edge">
<title>Node8&#45;&gt;Node12</title>
<path fill="none" stroke="midnightblue" d="M632.36,-466.39C755.75,-461.86 1080.43,-447.71 1122,-423 1156.76,-402.34 1172,-387.43 1172,-347 1172,-347 1172,-347 1172,-233 1172,-199.41 1185.56,-162.14 1194.74,-140.75"/>
<polygon fill="midnightblue" stroke="midnightblue" points="1197.94,-142.17 1198.82,-131.61 1191.55,-139.31 1197.94,-142.17"/>
</g>
<!-- Node8&#45;&gt;Node15 -->
<g id="edge30" class="edge">
<title>Node8&#45;&gt;Node15</title>
<path fill="none" stroke="midnightblue" d="M537.98,-462.02C486.44,-454.93 401.56,-441.67 330,-423 308.14,-417.3 155.31,-370.53 138,-356 68.96,-298.05 39,-269.14 39,-179 39,-179 39,-179 39,-121 39,-88.95 39,-51.64 39,-29.75"/>
<polygon fill="midnightblue" stroke="midnightblue" points="42.5,-29.56 39,-19.56 35.5,-29.56 42.5,-29.56"/>
</g>
<!-- Node18 -->
<g id="node18" class="node">
<title>Node18</title>
<g id="a_node18"><a xlink:title=" ">
<polygon fill="white" stroke="#bfbfbf" points="102,-56.5 102,-75.5 156,-75.5 156,-56.5 102,-56.5"/>
<text text-anchor="middle" x="129" y="-63.5" font-family="Helvetica,sans-Serif" font-size="10.00">iostream</text>
</a>
</g>
</g>
<!-- Node8&#45;&gt;Node18 -->
<g id="edge33" class="edge">
<title>Node8&#45;&gt;Node18</title>
<path fill="none" stroke="midnightblue" d="M537.64,-464.71C492.24,-460.08 422.71,-449.05 368,-423 348.32,-413.63 349.67,-401.39 330,-392 259.52,-358.36 213.36,-411.09 158,-356 83.41,-281.77 111.16,-136.51 123.96,-85.36"/>
<polygon fill="midnightblue" stroke="midnightblue" points="127.35,-86.24 126.49,-75.68 120.58,-84.47 127.35,-86.24"/>
</g>
<!-- Node20 -->
<g id="node20" class="node">
<title>Node20</title>
<g id="a_node20"><a xlink:href="cellgen_8h.html" target="_top" xlink:title=" ">
<polygon fill="white" stroke="black" points="782.5,-336.5 782.5,-355.5 853.5,-355.5 853.5,-336.5 782.5,-336.5"/>
<text text-anchor="middle" x="818" y="-343.5" font-family="Helvetica,sans-Serif" font-size="10.00">util/cellgen.h</text>
</a>
</g>
</g>
<!-- Node8&#45;&gt;Node20 -->
<g id="edge20" class="edge">
<title>Node8&#45;&gt;Node20</title>
<path fill="none" stroke="midnightblue" d="M625.54,-459.43C654.66,-452.25 694.2,-440.36 726,-423 741.88,-414.33 778.93,-382.11 800.86,-362.51"/>
<polygon fill="midnightblue" stroke="midnightblue" points="803.35,-364.98 808.45,-355.69 798.67,-359.77 803.35,-364.98"/>
</g>
<!-- Node22 -->
<g id="node22" class="node">
<title>Node22</title>
<g id="a_node22"><a xlink:title=" ">
<polygon fill="white" stroke="#bfbfbf" points="748.5,-280.5 748.5,-299.5 783.5,-299.5 783.5,-280.5 748.5,-280.5"/>
<text text-anchor="middle" x="766" y="-287.5" font-family="Helvetica,sans-Serif" font-size="10.00">map</text>
</a>
</g>
</g>
<!-- Node8&#45;&gt;Node22 -->
<g id="edge32" class="edge">
<title>Node8&#45;&gt;Node22</title>
<path fill="none" stroke="midnightblue" d="M619.3,-459.42C641.47,-452.5 669.84,-440.92 690,-423 726.12,-390.9 749.4,-337.36 759.76,-309.35"/>
<polygon fill="midnightblue" stroke="midnightblue" points="763.16,-310.25 763.21,-299.66 756.56,-307.91 763.16,-310.25"/>
</g>
<!-- Node8&#45;&gt;Node24 -->
<g id="edge24" class="edge">
<title>Node8&#45;&gt;Node24</title>
<path fill="none" stroke="midnightblue" d="M632.18,-464.64C711.4,-458.65 876.03,-444.68 1014,-423 1023.5,-421.51 1033.67,-419.56 1043.2,-417.59"/>
<polygon fill="midnightblue" stroke="midnightblue" points="1044.18,-420.96 1053.24,-415.45 1042.73,-414.11 1044.18,-420.96"/>
</g>
<!-- Node26 -->
<g id="node26" class="node">
<title>Node26</title>
<g id="a_node26"><a xlink:href="geometry_8h.html" target="_top" xlink:title=" ">
<polygon fill="white" stroke="black" points="778,-398 778,-417 858,-417 858,-398 778,-398"/>
<text text-anchor="middle" x="818" y="-405" font-family="Helvetica,sans-Serif" font-size="10.00">util/geometry.h</text>
</a>
</g>
</g>
<!-- Node8&#45;&gt;Node26 -->
<g id="edge34" class="edge">
<title>Node8&#45;&gt;Node26</title>
<path fill="none" stroke="midnightblue" d="M619.69,-459.45C655.78,-450.52 713.91,-436.02 764,-423 768.12,-421.93 772.42,-420.8 776.71,-419.66"/>
<polygon fill="midnightblue" stroke="midnightblue" points="777.85,-422.98 786.61,-417.02 776.05,-416.21 777.85,-422.98"/>
</g>
<!-- Node27 -->
<g id="node27" class="node">
<title>Node27</title>
<g id="a_node27"><a xlink:href="_none_8h.html" target="_top" xlink:title=" ">
<polygon fill="white" stroke="black" points="143.5,-224.5 143.5,-243.5 256.5,-243.5 256.5,-224.5 143.5,-224.5"/>
<text text-anchor="middle" x="200" y="-231.5" font-family="Helvetica,sans-Serif" font-size="10.00">engine/actions/None.h</text>
</a>
</g>
</g>
<!-- Node8&#45;&gt;Node27 -->
<g id="edge37" class="edge">
<title>Node8&#45;&gt;Node27</title>
<path fill="none" stroke="midnightblue" d="M537.79,-461.9C500.51,-455.76 447.95,-444.06 406,-423 386.52,-413.22 387.79,-401.14 368,-392 287.19,-354.69 228,-424.36 171,-356 145.87,-325.86 171.01,-277.55 187.73,-252.05"/>
<polygon fill="midnightblue" stroke="midnightblue" points="190.65,-253.99 193.4,-243.76 184.87,-250.04 190.65,-253.99"/>
</g>
<!-- Node28 -->
<g id="node28" class="node">
<title>Node28</title>
<g id="a_node28"><a xlink:href="game_controller_8h.html" target="_top" xlink:title=" ">
<polygon fill="white" stroke="black" points="180.5,-336.5 180.5,-355.5 301.5,-355.5 301.5,-336.5 180.5,-336.5"/>
<text text-anchor="middle" x="241" y="-343.5" font-family="Helvetica,sans-Serif" font-size="10.00">engine/gameController.h</text>
</a>
</g>
</g>
<!-- Node8&#45;&gt;Node28 -->
<g id="edge39" class="edge">
<title>Node8&#45;&gt;Node28</title>
<path fill="none" stroke="midnightblue" d="M562.32,-459.43C539.39,-450.66 503,-436.44 472,-423 442.27,-410.11 436.41,-403.19 406,-392 367.62,-377.87 322.77,-365.92 289.52,-357.89"/>
<polygon fill="midnightblue" stroke="midnightblue" points="290.14,-354.44 279.6,-355.53 288.52,-361.25 290.14,-354.44"/>
</g>
<!-- Node32 -->
<g id="node32" class="node">
<title>Node32</title>
<g id="a_node32"><a xlink:href="_set_squad_path_8h.html" target="_top" xlink:title=" ">
<polygon fill="white" stroke="black" points="58.5,-398 58.5,-417 211.5,-417 211.5,-398 58.5,-398"/>
<text text-anchor="middle" x="135" y="-405" font-family="Helvetica,sans-Serif" font-size="10.00">engine/actions/SetSquadPath.h</text>
</a>
</g>
</g>
<!-- Node8&#45;&gt;Node32 -->
<g id="edge48" class="edge">
<title>Node8&#45;&gt;Node32</title>
<path fill="none" stroke="midnightblue" d="M537.67,-462.29C458.08,-452.17 297.33,-430.96 204.78,-418.41"/>
<polygon fill="midnightblue" stroke="midnightblue" points="205.04,-414.92 194.66,-417.04 204.1,-421.85 205.04,-414.92"/>
</g>
<!-- Node33 -->
<g id="node33" class="node">
<title>Node33</title>
<g id="a_node33"><a xlink:href="_all_units_8h.html" target="_top" xlink:title=" ">
<polygon fill="white" stroke="black" points="514.5,-336.5 514.5,-355.5 573.5,-355.5 573.5,-336.5 514.5,-336.5"/>
<text text-anchor="middle" x="544" y="-343.5" font-family="Helvetica,sans-Serif" font-size="10.00">AllUnits.h</text>
</a>
</g>
</g>
<!-- Node8&#45;&gt;Node33 -->
<g id="edge52" class="edge">
<title>Node8&#45;&gt;Node33</title>
<path fill="none" stroke="midnightblue" d="M580.05,-459.28C575.17,-450.38 567.77,-436.07 563,-423 556.02,-403.88 550.71,-381.14 547.5,-365.54"/>
<polygon fill="midnightblue" stroke="midnightblue" points="550.91,-364.74 545.54,-355.61 544.04,-366.1 550.91,-364.74"/>
</g>
<!-- Node35 -->
<g id="node35" class="node">
<title>Node35</title>
<g id="a_node35"><a xlink:href="_all_squad_templates_8h.html" target="_top" xlink:title=" ">
<polygon fill="white" stroke="black" points="572.5,-398 572.5,-417 681.5,-417 681.5,-398 572.5,-398"/>
<text text-anchor="middle" x="627" y="-405" font-family="Helvetica,sans-Serif" font-size="10.00">AllSquadTemplates.h</text>
</a>
</g>
</g>
<!-- Node8&#45;&gt;Node35 -->
<g id="edge57" class="edge">
<title>Node8&#45;&gt;Node35</title>
<path fill="none" stroke="midnightblue" d="M591.02,-459.48C597.26,-450.64 607.17,-436.59 615.02,-425.48"/>
<polygon fill="midnightblue" stroke="midnightblue" points="618.09,-427.2 620.99,-417.01 612.37,-423.16 618.09,-427.2"/>
</g>
<!-- Node10 -->
<g id="node10" class="node">
<title>Node10</title>
<g id="a_node10"><a xlink:href="game_object_8h.html" target="_top" xlink:title=" ">
<polygon fill="white" stroke="black" points="413.5,-168.5 413.5,-187.5 490.5,-187.5 490.5,-168.5 413.5,-168.5"/>
<text text-anchor="middle" x="452" y="-175.5" font-family="Helvetica,sans-Serif" font-size="10.00">gameObject.h</text>
</a>
</g>
</g>
<!-- Node9&#45;&gt;Node10 -->
<g id="edge10" class="edge">
<title>Node9&#45;&gt;Node10</title>
<path fill="none" stroke="midnightblue" d="M959.48,-392.35C981.85,-373.92 1018.34,-339.39 1033,-300 1045.78,-265.65 1031.92,-243.68 1001,-224 959.36,-197.5 627.85,-184.48 501.07,-180.43"/>
<polygon fill="midnightblue" stroke="midnightblue" points="500.98,-176.92 490.87,-180.11 500.76,-183.92 500.98,-176.92"/>
</g>
<!-- Node11 -->
<g id="node11" class="node">
<title>Node11</title>
<g id="a_node11"><a xlink:title=" ">
<polygon fill="white" stroke="#bfbfbf" points="354.5,-112.5 354.5,-131.5 383.5,-131.5 383.5,-112.5 354.5,-112.5"/>
<text text-anchor="middle" x="369" y="-119.5" font-family="Helvetica,sans-Serif" font-size="10.00">list</text>
</a>
</g>
</g>
<!-- Node10&#45;&gt;Node11 -->
<g id="edge11" class="edge">
<title>Node10&#45;&gt;Node11</title>
<path fill="none" stroke="midnightblue" d="M438.66,-168.32C425.84,-159.98 406.22,-147.21 391.06,-137.35"/>
<polygon fill="midnightblue" stroke="midnightblue" points="392.59,-134.17 382.3,-131.65 388.78,-140.04 392.59,-134.17"/>
</g>
<!-- Node10&#45;&gt;Node12 -->
<g id="edge12" class="edge">
<title>Node10&#45;&gt;Node12</title>
<path fill="none" stroke="midnightblue" d="M490.53,-174.23C615.65,-165.23 1010.55,-136.84 1151.98,-126.67"/>
<polygon fill="midnightblue" stroke="midnightblue" points="1152.39,-130.15 1162.12,-125.94 1151.89,-123.17 1152.39,-130.15"/>
</g>
<!-- Node17 -->
<g id="node17" class="node">
<title>Node17</title>
<g id="a_node17"><a xlink:href="engine_2_action_8h.html" target="_top" xlink:title=" ">
<polygon fill="white" stroke="black" points="158.5,-112.5 158.5,-131.5 241.5,-131.5 241.5,-112.5 158.5,-112.5"/>
<text text-anchor="middle" x="200" y="-119.5" font-family="Helvetica,sans-Serif" font-size="10.00">engine/Action.h</text>
</a>
</g>
</g>
<!-- Node10&#45;&gt;Node17 -->
<g id="edge17" class="edge">
<title>Node10&#45;&gt;Node17</title>
<path fill="none" stroke="midnightblue" d="M413.45,-168.74C369.56,-159.33 297.73,-143.94 249.67,-133.64"/>
<polygon fill="midnightblue" stroke="midnightblue" points="250.3,-130.2 239.79,-131.53 248.84,-137.04 250.3,-130.2"/>
</g>
<!-- Node13 -->
<g id="node13" class="node">
<title>Node13</title>
<g id="a_node13"><a xlink:href="_s_f_m_l_facade_8h.html" target="_top" xlink:title=" ">
<polygon fill="white" stroke="black" points="645.5,-56.5 645.5,-75.5 768.5,-75.5 768.5,-56.5 645.5,-56.5"/>
<text text-anchor="middle" x="707" y="-63.5" font-family="Helvetica,sans-Serif" font-size="10.00">graphics/SFMLFacade.h</text>
</a>
</g>
</g>
<!-- Node12&#45;&gt;Node13 -->
<g id="edge13" class="edge">
<title>Node12&#45;&gt;Node13</title>
<path fill="none" stroke="midnightblue" d="M1162.49,-114.09C1157.62,-113.34 1152.7,-112.62 1148,-112 1018.29,-94.79 866.36,-80.59 778.93,-72.99"/>
<polygon fill="midnightblue" stroke="midnightblue" points="779.12,-69.5 768.85,-72.12 778.51,-76.47 779.12,-69.5"/>
</g>
<!-- Node16 -->
<g id="node16" class="node">
<title>Node16</title>
<g id="a_node16"><a xlink:title=" ">
<polygon fill="white" stroke="#bfbfbf" points="1154,-56.5 1154,-75.5 1252,-75.5 1252,-56.5 1154,-56.5"/>
<text text-anchor="middle" x="1203" y="-63.5" font-family="Helvetica,sans-Serif" font-size="10.00">nlohmann/json.hpp</text>
</a>
</g>
</g>
<!-- Node12&#45;&gt;Node16 -->
<g id="edge16" class="edge">
<title>Node12&#45;&gt;Node16</title>
<path fill="none" stroke="midnightblue" d="M1203,-112.08C1203,-105.01 1203,-94.86 1203,-85.99"/>
<polygon fill="midnightblue" stroke="midnightblue" points="1206.5,-85.75 1203,-75.75 1199.5,-85.75 1206.5,-85.75"/>
</g>
<!-- Node14 -->
<g id="node14" class="node">
<title>Node14</title>
<g id="a_node14"><a xlink:title=" ">
<polygon fill="white" stroke="#bfbfbf" points="655,-0.5 655,-19.5 759,-19.5 759,-0.5 655,-0.5"/>
<text text-anchor="middle" x="707" y="-7.5" font-family="Helvetica,sans-Serif" font-size="10.00">SFML/Graphics.hpp</text>
</a>
</g>
</g>
<!-- Node13&#45;&gt;Node14 -->
<g id="edge14" class="edge">
<title>Node13&#45;&gt;Node14</title>
<path fill="none" stroke="midnightblue" d="M707,-56.08C707,-49.01 707,-38.86 707,-29.99"/>
<polygon fill="midnightblue" stroke="midnightblue" points="710.5,-29.75 707,-19.75 703.5,-29.75 710.5,-29.75"/>
</g>
<!-- Node13&#45;&gt;Node15 -->
<g id="edge15" class="edge">
<title>Node13&#45;&gt;Node15</title>
<path fill="none" stroke="midnightblue" d="M645.35,-60.02C509.56,-49.04 187.91,-23.04 77.21,-14.09"/>
<polygon fill="midnightblue" stroke="midnightblue" points="77.42,-10.59 67.17,-13.28 76.86,-17.57 77.42,-10.59"/>
</g>
<!-- Node17&#45;&gt;Node18 -->
<g id="edge18" class="edge">
<title>Node17&#45;&gt;Node18</title>
<path fill="none" stroke="midnightblue" d="M188.59,-112.32C177.89,-104.18 161.66,-91.84 148.84,-82.09"/>
<polygon fill="midnightblue" stroke="midnightblue" points="150.69,-79.1 140.61,-75.83 146.46,-84.67 150.69,-79.1"/>
</g>
<!-- Node19 -->
<g id="node19" class="node">
<title>Node19</title>
<g id="a_node19"><a xlink:title=" ">
<polygon fill="white" stroke="#bfbfbf" points="209.5,-56.5 209.5,-75.5 260.5,-75.5 260.5,-56.5 209.5,-56.5"/>
<text text-anchor="middle" x="235" y="-63.5" font-family="Helvetica,sans-Serif" font-size="10.00">memory</text>
</a>
</g>
</g>
<!-- Node17&#45;&gt;Node19 -->
<g id="edge19" class="edge">
<title>Node17&#45;&gt;Node19</title>
<path fill="none" stroke="midnightblue" d="M205.78,-112.08C210.67,-104.53 217.83,-93.49 223.83,-84.23"/>
<polygon fill="midnightblue" stroke="midnightblue" points="226.83,-86.05 229.33,-75.75 220.95,-82.24 226.83,-86.05"/>
</g>
<!-- Node21 -->
<g id="node21" class="node">
<title>Node21</title>
<g id="a_node21"><a xlink:title=" ">
<polygon fill="white" stroke="#bfbfbf" points="948,-224.5 948,-243.5 992,-243.5 992,-224.5 948,-224.5"/>
<text text-anchor="middle" x="970" y="-231.5" font-family="Helvetica,sans-Serif" font-size="10.00">vector</text>
</a>
</g>
</g>
<!-- Node20&#45;&gt;Node21 -->
<g id="edge21" class="edge">
<title>Node20&#45;&gt;Node21</title>
<path fill="none" stroke="midnightblue" d="M853.82,-341.32C901.58,-335.58 982.19,-322.75 1000,-300 1011.66,-285.11 998.86,-264.96 986.56,-251.06"/>
<polygon fill="midnightblue" stroke="midnightblue" points="988.99,-248.53 979.57,-243.69 983.91,-253.35 988.99,-248.53"/>
</g>
<!-- Node20&#45;&gt;Node22 -->
<g id="edge22" class="edge">
<title>Node20&#45;&gt;Node22</title>
<path fill="none" stroke="midnightblue" d="M809.41,-336.08C801.84,-328.22 790.62,-316.57 781.49,-307.08"/>
<polygon fill="midnightblue" stroke="midnightblue" points="783.88,-304.53 774.43,-299.75 778.84,-309.38 783.88,-304.53"/>
</g>
<!-- Node23 -->
<g id="node23" class="node">
<title>Node23</title>
<g id="a_node23"><a xlink:title=" ">
<polygon fill="white" stroke="#bfbfbf" points="802,-280.5 802,-299.5 930,-299.5 930,-280.5 802,-280.5"/>
<text text-anchor="middle" x="866" y="-287.5" font-family="Helvetica,sans-Serif" font-size="10.00">scanline_triangulation.hpp</text>
</a>
</g>
</g>
<!-- Node20&#45;&gt;Node23 -->
<g id="edge23" class="edge">
<title>Node20&#45;&gt;Node23</title>
<path fill="none" stroke="midnightblue" d="M825.93,-336.08C832.85,-328.3 843.07,-316.8 851.45,-307.37"/>
<polygon fill="midnightblue" stroke="midnightblue" points="854.19,-309.55 858.22,-299.75 848.96,-304.9 854.19,-309.55"/>
</g>
<!-- Node24&#45;&gt;Node19 -->
<g id="edge28" class="edge">
<title>Node24&#45;&gt;Node19</title>
<path fill="none" stroke="midnightblue" d="M1089.88,-397.8C1103.8,-379.3 1134,-334.18 1134,-291 1134,-291 1134,-291 1134,-177 1134,-88.49 438.49,-70.58 270.97,-67.55"/>
<polygon fill="midnightblue" stroke="midnightblue" points="271,-64.05 260.94,-67.38 270.87,-71.05 271,-64.05"/>
</g>
<!-- Node25 -->
<g id="node25" class="node">
<title>Node25</title>
<g id="a_node25"><a xlink:href="_flag_8h.html" target="_top" xlink:title=" ">
<polygon fill="white" stroke="black" points="948.5,-280.5 948.5,-299.5 991.5,-299.5 991.5,-280.5 948.5,-280.5"/>
<text text-anchor="middle" x="970" y="-287.5" font-family="Helvetica,sans-Serif" font-size="10.00">Flag.h</text>
</a>
</g>
</g>
<!-- Node24&#45;&gt;Node25 -->
<g id="edge25" class="edge">
<title>Node24&#45;&gt;Node25</title>
<path fill="none" stroke="midnightblue" d="M1074.51,-397.82C1055.61,-378.5 1009.85,-331.74 985.64,-306.98"/>
<polygon fill="midnightblue" stroke="midnightblue" points="988.09,-304.48 978.59,-299.78 983.08,-309.38 988.09,-304.48"/>
</g>
<!-- Node25&#45;&gt;Node4 -->
<g id="edge27" class="edge">
<title>Node25&#45;&gt;Node4</title>
<path fill="none" stroke="midnightblue" d="M948.44,-282.19C945.3,-281.36 942.08,-280.59 939,-280 776.75,-248.83 731.25,-275.17 569,-244 568.79,-243.96 568.57,-243.92 568.36,-243.87"/>
<polygon fill="midnightblue" stroke="midnightblue" points="569.09,-240.45 558.55,-241.54 567.47,-247.26 569.09,-240.45"/>
</g>
<!-- Node25&#45;&gt;Node21 -->
<g id="edge26" class="edge">
<title>Node25&#45;&gt;Node21</title>
<path fill="none" stroke="midnightblue" d="M970,-280.08C970,-273.01 970,-262.86 970,-253.99"/>
<polygon fill="midnightblue" stroke="midnightblue" points="973.5,-253.75 970,-243.75 966.5,-253.75 973.5,-253.75"/>
</g>
<!-- Node26&#45;&gt;Node20 -->
<g id="edge36" class="edge">
<title>Node26&#45;&gt;Node20</title>
<path fill="none" stroke="midnightblue" d="M818,-397.98C818,-389.58 818,-376.48 818,-365.66"/>
<polygon fill="midnightblue" stroke="midnightblue" points="821.5,-365.51 818,-355.51 814.5,-365.51 821.5,-365.51"/>
</g>
<!-- Node26&#45;&gt;Node21 -->
<g id="edge35" class="edge">
<title>Node26&#45;&gt;Node21</title>
<path fill="none" stroke="midnightblue" d="M840.22,-397.99C887.83,-379.25 996.96,-333.45 1017,-300 1027.85,-281.89 1009.37,-262.44 992.49,-249.58"/>
<polygon fill="midnightblue" stroke="midnightblue" points="994.15,-246.47 983.98,-243.5 990.08,-252.16 994.15,-246.47"/>
</g>
<!-- Node27&#45;&gt;Node17 -->
<g id="edge38" class="edge">
<title>Node27&#45;&gt;Node17</title>
<path fill="none" stroke="midnightblue" d="M200,-224.37C200,-206.62 200,-165.67 200,-141.6"/>
<polygon fill="midnightblue" stroke="midnightblue" points="203.5,-141.59 200,-131.59 196.5,-141.59 203.5,-141.59"/>
</g>
<!-- Node28&#45;&gt;Node10 -->
<g id="edge41" class="edge">
<title>Node28&#45;&gt;Node10</title>
<path fill="none" stroke="midnightblue" d="M239.44,-336.21C237.56,-322.91 235.92,-297.39 247,-280 260.27,-259.17 320.87,-234.96 343,-224 367.98,-211.63 397.22,-199.69 419.12,-191.22"/>
<polygon fill="midnightblue" stroke="midnightblue" points="420.54,-194.43 428.63,-187.58 418.04,-187.89 420.54,-194.43"/>
</g>
<!-- Node28&#45;&gt;Node11 -->
<g id="edge40" class="edge">
<title>Node28&#45;&gt;Node11</title>
<path fill="none" stroke="midnightblue" d="M238.09,-336.27C234.31,-323.49 228.99,-299.13 236,-280 237.56,-275.73 320.77,-178.95 354.76,-139.5"/>
<polygon fill="midnightblue" stroke="midnightblue" points="357.69,-141.46 361.57,-131.6 352.39,-136.89 357.69,-141.46"/>
</g>
<!-- Node29 -->
<g id="node29" class="node">
<title>Node29</title>
<g id="a_node29"><a xlink:href="_network_manager_8h.html" target="_top" xlink:title=" ">
<polygon fill="white" stroke="black" points="324,-280.5 324,-299.5 454,-299.5 454,-280.5 324,-280.5"/>
<text text-anchor="middle" x="389" y="-287.5" font-family="Helvetica,sans-Serif" font-size="10.00">engine/NetworkManager.h</text>
</a>
</g>
</g>
<!-- Node28&#45;&gt;Node29 -->
<g id="edge42" class="edge">
<title>Node28&#45;&gt;Node29</title>
<path fill="none" stroke="midnightblue" d="M264.45,-336.44C289.13,-327.44 328.19,-313.19 355.98,-303.05"/>
<polygon fill="midnightblue" stroke="midnightblue" points="357.46,-306.23 365.66,-299.52 355.06,-299.66 357.46,-306.23"/>
</g>
<!-- Node31 -->
<g id="node31" class="node">
<title>Node31</title>
<g id="a_node31"><a xlink:title=" ">
<polygon fill="white" stroke="#bfbfbf" points="256.5,-280.5 256.5,-299.5 305.5,-299.5 305.5,-280.5 256.5,-280.5"/>
<text text-anchor="middle" x="281" y="-287.5" font-family="Helvetica,sans-Serif" font-size="10.00">random</text>
</a>
</g>
</g>
<!-- Node28&#45;&gt;Node31 -->
<g id="edge47" class="edge">
<title>Node28&#45;&gt;Node31</title>
<path fill="none" stroke="midnightblue" d="M247.61,-336.08C253.26,-328.46 261.54,-317.26 268.45,-307.94"/>
<polygon fill="midnightblue" stroke="midnightblue" points="271.38,-309.87 274.52,-299.75 265.75,-305.7 271.38,-309.87"/>
</g>
<!-- Node29&#45;&gt;Node10 -->
<g id="edge43" class="edge">
<title>Node29&#45;&gt;Node10</title>
<path fill="none" stroke="midnightblue" d="M399.65,-280.42C409.37,-272.07 423.47,-258.54 432,-244 440.5,-229.52 445.72,-211.07 448.69,-197.53"/>
<polygon fill="midnightblue" stroke="midnightblue" points="452.17,-198 450.68,-187.51 445.3,-196.64 452.17,-198"/>
</g>
<!-- Node29&#45;&gt;Node21 -->
<g id="edge45" class="edge">
<title>Node29&#45;&gt;Node21</title>
<path fill="none" stroke="midnightblue" d="M454.24,-282.94C578.56,-271.38 845.27,-246.59 937.69,-238"/>
<polygon fill="midnightblue" stroke="midnightblue" points="938.19,-241.47 947.82,-237.06 937.54,-234.5 938.19,-241.47"/>
</g>
<!-- Node29&#45;&gt;Node27 -->
<g id="edge44" class="edge">
<title>Node29&#45;&gt;Node27</title>
<path fill="none" stroke="midnightblue" d="M359.05,-280.44C326.84,-271.24 275.47,-256.56 239.86,-246.39"/>
<polygon fill="midnightblue" stroke="midnightblue" points="240.38,-242.9 229.81,-243.52 238.46,-249.63 240.38,-242.9"/>
</g>
<!-- Node30 -->
<g id="node30" class="node">
<title>Node30</title>
<g id="a_node30"><a xlink:title=" ">
<polygon fill="white" stroke="#bfbfbf" points="352.5,-224.5 352.5,-243.5 423.5,-243.5 423.5,-224.5 352.5,-224.5"/>
<text text-anchor="middle" x="388" y="-231.5" font-family="Helvetica,sans-Serif" font-size="10.00">sys/socket.h</text>
</a>
</g>
</g>
<!-- Node29&#45;&gt;Node30 -->
<g id="edge46" class="edge">
<title>Node29&#45;&gt;Node30</title>
<path fill="none" stroke="midnightblue" d="M388.83,-280.08C388.7,-273.01 388.52,-262.86 388.35,-253.99"/>
<polygon fill="midnightblue" stroke="midnightblue" points="391.85,-253.68 388.16,-243.75 384.85,-253.81 391.85,-253.68"/>
</g>
<!-- Node32&#45;&gt;Node7 -->
<g id="edge50" class="edge">
<title>Node32&#45;&gt;Node7</title>
<path fill="none" stroke="midnightblue" d="M162.69,-417.06C254.38,-445.39 548.2,-536.18 652.68,-568.47"/>
<polygon fill="midnightblue" stroke="midnightblue" points="651.89,-571.89 662.48,-571.5 653.96,-565.2 651.89,-571.89"/>
</g>
<!-- Node32&#45;&gt;Node8 -->
<g id="edge51" class="edge">
<title>Node32&#45;&gt;Node8</title>
<path fill="none" stroke="midnightblue" d="M204.29,-417.01C293.13,-428.43 445.4,-448.57 527.92,-459.81"/>
<polygon fill="midnightblue" stroke="midnightblue" points="527.49,-463.29 537.87,-461.17 528.44,-456.35 527.49,-463.29"/>
</g>
<!-- Node32&#45;&gt;Node17 -->
<g id="edge49" class="edge">
<title>Node32&#45;&gt;Node17</title>
<path fill="none" stroke="midnightblue" d="M133.22,-397.88C128.1,-371.29 114.83,-288.38 134,-224 143.95,-190.57 168.88,-157.9 185.09,-139.15"/>
<polygon fill="midnightblue" stroke="midnightblue" points="187.81,-141.35 191.84,-131.55 182.58,-136.7 187.81,-141.35"/>
</g>
<!-- Node34 -->
<g id="node34" class="node">
<title>Node34</title>
<g id="a_node34"><a xlink:href="_factory_8h.html" target="_top" xlink:title=" ">
<polygon fill="white" stroke="black" points="510,-280.5 510,-299.5 566,-299.5 566,-280.5 510,-280.5"/>
<text text-anchor="middle" x="538" y="-287.5" font-family="Helvetica,sans-Serif" font-size="10.00">Factory.h</text>
</a>
</g>
</g>
<!-- Node33&#45;&gt;Node34 -->
<g id="edge53" class="edge">
<title>Node33&#45;&gt;Node34</title>
<path fill="none" stroke="midnightblue" d="M543.01,-336.08C542.21,-328.93 541.07,-318.64 540.08,-309.69"/>
<polygon fill="midnightblue" stroke="midnightblue" points="543.56,-309.3 538.97,-299.75 536.6,-310.08 543.56,-309.3"/>
</g>
<!-- Node34&#45;&gt;Node4 -->
<g id="edge54" class="edge">
<title>Node34&#45;&gt;Node4</title>
<path fill="none" stroke="midnightblue" d="M538,-280.08C538,-273.01 538,-262.86 538,-253.99"/>
<polygon fill="midnightblue" stroke="midnightblue" points="541.5,-253.75 538,-243.75 534.5,-253.75 541.5,-253.75"/>
</g>
<!-- Node34&#45;&gt;Node5 -->
<g id="edge56" class="edge">
<title>Node34&#45;&gt;Node5</title>
<path fill="none" stroke="midnightblue" d="M518.03,-299.57C457.15,-326.32 278,-409.98 278,-468 278,-526 278,-526 278,-526 278,-595.69 500.82,-622.37 618.73,-631.61"/>
<polygon fill="midnightblue" stroke="midnightblue" points="618.53,-635.1 628.76,-632.37 619.06,-628.12 618.53,-635.1"/>
</g>
<!-- Node34&#45;&gt;Node8 -->
<g id="edge55" class="edge">
<title>Node34&#45;&gt;Node8</title>
<path fill="none" stroke="midnightblue" d="M528.98,-299.66C520.93,-308.07 509.7,-321.64 505,-336 502.23,-344.45 502.41,-347.5 505,-356 516.93,-395.15 548.7,-432.04 568.43,-452.18"/>
<polygon fill="midnightblue" stroke="midnightblue" points="566.01,-454.71 575.57,-459.28 570.95,-449.75 566.01,-454.71"/>
</g>
<!-- Node35&#45;&gt;Node33 -->
<g id="edge65" class="edge">
<title>Node35&#45;&gt;Node33</title>
<path fill="none" stroke="midnightblue" d="M615.11,-397.98C601.8,-388.43 580,-372.81 564.04,-361.37"/>
<polygon fill="midnightblue" stroke="midnightblue" points="566.04,-358.49 555.87,-355.51 561.96,-364.18 566.04,-358.49"/>
</g>
<!-- Node36 -->
<g id="node36" class="node">
<title>Node36</title>
<g id="a_node36"><a xlink:href="_squad_template_8h.html" target="_top" xlink:title=" ">
<polygon fill="white" stroke="black" points="592,-336.5 592,-355.5 684,-355.5 684,-336.5 592,-336.5"/>
<text text-anchor="middle" x="638" y="-343.5" font-family="Helvetica,sans-Serif" font-size="10.00">SquadTemplate.h</text>
</a>
</g>
</g>
<!-- Node35&#45;&gt;Node36 -->
<g id="edge58" class="edge">
<title>Node35&#45;&gt;Node36</title>
<path fill="none" stroke="midnightblue" d="M628.58,-397.98C630.13,-389.58 632.55,-376.48 634.55,-365.66"/>
<polygon fill="midnightblue" stroke="midnightblue" points="638.05,-365.98 636.43,-355.51 631.17,-364.71 638.05,-365.98"/>
</g>
<!-- Node36&#45;&gt;Node21 -->
<g id="edge59" class="edge">
<title>Node36&#45;&gt;Node21</title>
<path fill="none" stroke="midnightblue" d="M649.95,-336.49C672.4,-320.64 720.33,-287.5 739,-280 806.56,-252.85 892.01,-241.69 937.69,-237.42"/>
<polygon fill="midnightblue" stroke="midnightblue" points="938.23,-240.89 947.88,-236.52 937.61,-233.91 938.23,-240.89"/>
</g>
<!-- Node36&#45;&gt;Node34 -->
<g id="edge60" class="edge">
<title>Node36&#45;&gt;Node34</title>
<path fill="none" stroke="midnightblue" d="M621.93,-336.32C606.04,-327.74 581.49,-314.49 563.04,-304.52"/>
<polygon fill="midnightblue" stroke="midnightblue" points="564.49,-301.33 554.03,-299.65 561.16,-307.49 564.49,-301.33"/>
</g>
<!-- Node37 -->
<g id="node37" class="node">
<title>Node37</title>
<g id="a_node37"><a xlink:href="_gui_list_8h.html" target="_top" xlink:title=" ">
<polygon fill="white" stroke="black" points="584,-280.5 584,-299.5 692,-299.5 692,-280.5 584,-280.5"/>
<text text-anchor="middle" x="638" y="-287.5" font-family="Helvetica,sans-Serif" font-size="10.00">engine/GUI/GuiList.h</text>
</a>
</g>
</g>
<!-- Node36&#45;&gt;Node37 -->
<g id="edge61" class="edge">
<title>Node36&#45;&gt;Node37</title>
<path fill="none" stroke="midnightblue" d="M638,-336.08C638,-329.01 638,-318.86 638,-309.99"/>
<polygon fill="midnightblue" stroke="midnightblue" points="641.5,-309.75 638,-299.75 634.5,-309.75 641.5,-309.75"/>
</g>
<!-- Node37&#45;&gt;Node21 -->
<g id="edge64" class="edge">
<title>Node37&#45;&gt;Node21</title>
<path fill="none" stroke="midnightblue" d="M690.61,-280.44C760.15,-269.13 880.54,-249.55 937.87,-240.23"/>
<polygon fill="midnightblue" stroke="midnightblue" points="938.5,-243.67 947.81,-238.61 937.38,-236.76 938.5,-243.67"/>
</g>
<!-- Node38 -->
<g id="node38" class="node">
<title>Node38</title>
<g id="a_node38"><a xlink:href="_gui_object_8h.html" target="_top" xlink:title=" ">
<polygon fill="white" stroke="black" points="578,-224.5 578,-243.5 698,-243.5 698,-224.5 578,-224.5"/>
<text text-anchor="middle" x="638" y="-231.5" font-family="Helvetica,sans-Serif" font-size="10.00">engine/GUI/GuiObject.h</text>
</a>
</g>
</g>
<!-- Node37&#45;&gt;Node38 -->
<g id="edge62" class="edge">
<title>Node37&#45;&gt;Node38</title>
<path fill="none" stroke="midnightblue" d="M638,-280.08C638,-273.01 638,-262.86 638,-253.99"/>
<polygon fill="midnightblue" stroke="midnightblue" points="641.5,-253.75 638,-243.75 634.5,-253.75 641.5,-253.75"/>
</g>
<!-- Node38&#45;&gt;Node10 -->
<g id="edge63" class="edge">
<title>Node38&#45;&gt;Node10</title>
<path fill="none" stroke="midnightblue" d="M608.53,-224.44C576.83,-215.24 526.27,-200.56 491.23,-190.39"/>
<polygon fill="midnightblue" stroke="midnightblue" points="491.91,-186.94 481.33,-187.52 489.96,-193.67 491.91,-186.94"/>
</g>
<!-- Node39&#45;&gt;Node7 -->
<g id="edge69" class="edge">
<title>Node39&#45;&gt;Node7</title>
<path fill="none" stroke="midnightblue" d="M695.13,-534.75C696.66,-541.86 697.1,-552.14 696.47,-561.1"/>
<polygon fill="midnightblue" stroke="midnightblue" points="692.99,-560.71 695.17,-571.08 699.93,-561.62 692.99,-560.71"/>
</g>
<!-- Node39&#45;&gt;Node8 -->
<g id="edge70" class="edge">
<title>Node39&#45;&gt;Node8</title>
<path fill="none" stroke="midnightblue" d="M673.13,-515.32C656.29,-506.66 630.19,-493.24 610.76,-483.25"/>
<polygon fill="midnightblue" stroke="midnightblue" points="612.32,-480.12 601.83,-478.65 609.12,-486.34 612.32,-480.12"/>
</g>
<!-- Node40&#45;&gt;Node12 -->
<g id="edge75" class="edge">
<title>Node40&#45;&gt;Node12</title>
<path fill="none" stroke="midnightblue" d="M1284.38,-280.08C1270.72,-253.72 1230.39,-175.88 1212.15,-140.66"/>
<polygon fill="midnightblue" stroke="midnightblue" points="1215.15,-138.84 1207.44,-131.57 1208.93,-142.06 1215.15,-138.84"/>
</g>
<!-- Node40&#45;&gt;Node21 -->
<g id="edge76" class="edge">
<title>Node40&#45;&gt;Node21</title>
<path fill="none" stroke="midnightblue" d="M1238.45,-280.44C1172.11,-269.21 1057.58,-249.82 1002.04,-240.42"/>
<polygon fill="midnightblue" stroke="midnightblue" points="1002.51,-236.95 992.07,-238.74 1001.35,-243.86 1002.51,-236.95"/>
</g>
<!-- Node41 -->
<g id="node41" class="node">
<title>Node41</title>
<g id="a_node41"><a xlink:title=" ">
<polygon fill="white" stroke="#bfbfbf" points="1276.5,-224.5 1276.5,-243.5 1359.5,-243.5 1359.5,-224.5 1276.5,-224.5"/>
<text text-anchor="middle" x="1318" y="-231.5" font-family="Helvetica,sans-Serif" font-size="10.00">unordered_map</text>
</a>
</g>
</g>
<!-- Node40&#45;&gt;Node41 -->
<g id="edge77" class="edge">
<title>Node40&#45;&gt;Node41</title>
<path fill="none" stroke="midnightblue" d="M1293.79,-280.08C1297.76,-272.69 1303.53,-261.95 1308.43,-252.81"/>
<polygon fill="midnightblue" stroke="midnightblue" points="1311.65,-254.22 1313.3,-243.75 1305.49,-250.91 1311.65,-254.22"/>
</g>
</g>
</svg>
