<?xml version="1.0" encoding="UTF-8" standalone="no"?>
<!DOCTYPE svg PUBLIC "-//W3C//DTD SVG 1.1//EN"
 "http://www.w3.org/Graphics/SVG/1.1/DTD/svg11.dtd">
<!-- Generated by graphviz version 2.47.1 (20210421.1823)
 -->
<!-- Title: include/GameLogic/Squad/Squad.h Pages: 1 -->
<svg width="2181pt" height="441pt"
 viewBox="0.00 0.00 2180.50 441.00" xmlns="http://www.w3.org/2000/svg" xmlns:xlink="http://www.w3.org/1999/xlink">
<g id="graph0" class="graph" transform="scale(1 1) rotate(0) translate(4 437)">
<title>include/GameLogic/Squad/Squad.h</title>
<polygon fill="white" stroke="transparent" points="-4,4 -4,-437 2176.5,-437 2176.5,4 -4,4"/>
<!-- Node1 -->
<g id="node1" class="node">
<title>Node1</title>
<g id="a_node1"><a xlink:title=" ">
<polygon fill="#bfbfbf" stroke="black" points="377.5,-402.5 377.5,-432.5 508.5,-432.5 508.5,-402.5 377.5,-402.5"/>
<text text-anchor="start" x="385.5" y="-420.5" font-family="Helvetica,sans-Serif" font-size="10.00">include/GameLogic/Squad</text>
<text text-anchor="middle" x="443" y="-409.5" font-family="Helvetica,sans-Serif" font-size="10.00">/Squad.h</text>
</a>
</g>
</g>
<!-- Node2 -->
<g id="node2" class="node">
<title>Node2</title>
<g id="a_node2"><a xlink:href="_squad_8cpp.html" target="_top" xlink:title=" ">
<polygon fill="white" stroke="black" points="23,-67.5 23,-97.5 137,-97.5 137,-67.5 23,-67.5"/>
<text text-anchor="start" x="31" y="-85.5" font-family="Helvetica,sans-Serif" font-size="10.00">src/GameLogic/Squad</text>
<text text-anchor="middle" x="80" y="-74.5" font-family="Helvetica,sans-Serif" font-size="10.00">/Squad.cpp</text>
</a>
</g>
</g>
<!-- Node1&#45;&gt;Node2 -->
<g id="edge1" class="edge">
<title>Node1&#45;&gt;Node2</title>
<path fill="none" stroke="midnightblue" d="M367.13,-409.61C240.55,-396.01 0,-360.19 0,-284.5 0,-284.5 0,-284.5 0,-215.5 0,-166.46 40.88,-120.08 64.19,-97.62"/>
<polygon fill="midnightblue" stroke="midnightblue" points="366.84,-413.1 377.16,-410.67 367.58,-406.14 366.84,-413.1"/>
</g>
<!-- Node3 -->
<g id="node3" class="node">
<title>Node3</title>
<g id="a_node3"><a xlink:href="_set_squad_path_8h.html" target="_top" xlink:title=" ">
<polygon fill="white" stroke="black" points="292.5,-335.5 292.5,-365.5 405.5,-365.5 405.5,-335.5 292.5,-335.5"/>
<text text-anchor="start" x="300.5" y="-353.5" font-family="Helvetica,sans-Serif" font-size="10.00">include/engine/actions</text>
<text text-anchor="middle" x="349" y="-342.5" font-family="Helvetica,sans-Serif" font-size="10.00">/SetSquadPath.h</text>
</a>
</g>
</g>
<!-- Node1&#45;&gt;Node3 -->
<g id="edge2" class="edge">
<title>Node1&#45;&gt;Node3</title>
<path fill="none" stroke="midnightblue" d="M414.01,-396.45C399.55,-386.45 382.41,-374.6 369.36,-365.58"/>
<polygon fill="midnightblue" stroke="midnightblue" points="412.39,-399.59 422.6,-402.4 416.37,-393.83 412.39,-399.59"/>
</g>
<!-- Node6 -->
<g id="node6" class="node">
<title>Node6</title>
<g id="a_node6"><a xlink:href="_cell_8h.html" target="_top" xlink:title=" ">
<polygon fill="white" stroke="black" points="379,-274 379,-293 507,-293 507,-274 379,-274"/>
<text text-anchor="middle" x="443" y="-281" font-family="Helvetica,sans-Serif" font-size="10.00">include/GameLogic/Cell.h</text>
</a>
</g>
</g>
<!-- Node1&#45;&gt;Node6 -->
<g id="edge41" class="edge">
<title>Node1&#45;&gt;Node6</title>
<path fill="none" stroke="midnightblue" d="M437.64,-392.32C435.31,-362.38 435.91,-312.91 439.45,-293.1"/>
<polygon fill="midnightblue" stroke="midnightblue" points="434.17,-392.77 438.63,-402.37 441.13,-392.08 434.17,-392.77"/>
</g>
<!-- Node9 -->
<g id="node9" class="node">
<title>Node9</title>
<g id="a_node9"><a xlink:href="_game_logic_2_squad_2_action_8h.html" target="_top" xlink:title=" ">
<polygon fill="white" stroke="black" points="28.5,-201.5 28.5,-231.5 159.5,-231.5 159.5,-201.5 28.5,-201.5"/>
<text text-anchor="start" x="36.5" y="-219.5" font-family="Helvetica,sans-Serif" font-size="10.00">include/GameLogic/Squad</text>
<text text-anchor="middle" x="94" y="-208.5" font-family="Helvetica,sans-Serif" font-size="10.00">/Action.h</text>
</a>
</g>
</g>
<!-- Node1&#45;&gt;Node9 -->
<g id="edge42" class="edge">
<title>Node1&#45;&gt;Node9</title>
<path fill="none" stroke="midnightblue" d="M366.99,-409.29C292,-398.08 179.42,-369.78 113,-299 95.29,-280.13 88.73,-249.54 89.11,-231.69"/>
<polygon fill="midnightblue" stroke="midnightblue" points="366.92,-412.81 377.31,-410.76 367.91,-405.88 366.92,-412.81"/>
</g>
<!-- Node26 -->
<g id="node26" class="node">
<title>Node26</title>
<g id="a_node26"><a xlink:href="pathfinding_8h.html" target="_top" xlink:title=" ">
<polygon fill="white" stroke="black" points="394,-207 394,-226 514,-226 514,-207 394,-207"/>
<text text-anchor="middle" x="454" y="-214" font-family="Helvetica,sans-Serif" font-size="10.00">include/util/pathfinding.h</text>
</a>
</g>
</g>
<!-- Node1&#45;&gt;Node26 -->
<g id="edge64" class="edge">
<title>Node1&#45;&gt;Node26</title>
<path fill="none" stroke="midnightblue" d="M462.08,-394.37C479.99,-372.03 505.54,-335.66 516,-299 519.78,-285.75 521.91,-280.44 516,-268 506.88,-248.82 486.52,-234.52 471.61,-226.13"/>
<polygon fill="midnightblue" stroke="midnightblue" points="459.28,-392.27 455.64,-402.22 464.69,-396.71 459.28,-392.27"/>
</g>
<!-- Node28 -->
<g id="node28" class="node">
<title>Node28</title>
<g id="a_node28"><a xlink:href="_unit_8h.html" target="_top" xlink:title=" ">
<polygon fill="white" stroke="black" points="1575.5,-268.5 1575.5,-298.5 1702.5,-298.5 1702.5,-268.5 1575.5,-268.5"/>
<text text-anchor="start" x="1583.5" y="-286.5" font-family="Helvetica,sans-Serif" font-size="10.00">include/GameLogic/Units</text>
<text text-anchor="middle" x="1639" y="-275.5" font-family="Helvetica,sans-Serif" font-size="10.00">/Unit.h</text>
</a>
</g>
</g>
<!-- Node1&#45;&gt;Node28 -->
<g id="edge43" class="edge">
<title>Node1&#45;&gt;Node28</title>
<path fill="none" stroke="midnightblue" d="M518.81,-407.74C738.33,-383.03 1371.55,-313.16 1575.17,-291.19"/>
<polygon fill="midnightblue" stroke="midnightblue" points="518.21,-404.28 508.67,-408.88 519,-411.24 518.21,-404.28"/>
</g>
<!-- Node4 -->
<g id="node4" class="node">
<title>Node4</title>
<g id="a_node4"><a xlink:href="engine_2_action_8cpp.html" target="_top" xlink:title=" ">
<polygon fill="white" stroke="black" points="251,-274 251,-293 361,-293 361,-274 251,-274"/>
<text text-anchor="middle" x="306" y="-281" font-family="Helvetica,sans-Serif" font-size="10.00">src/engine/Action.cpp</text>
</a>
</g>
</g>
<!-- Node3&#45;&gt;Node4 -->
<g id="edge3" class="edge">
<title>Node3&#45;&gt;Node4</title>
<path fill="none" stroke="midnightblue" d="M334.1,-326.97C326.4,-315.33 317.44,-301.8 311.75,-293.19"/>
<polygon fill="midnightblue" stroke="midnightblue" points="331.23,-328.99 339.67,-335.4 337.07,-325.12 331.23,-328.99"/>
</g>
<!-- Node5 -->
<g id="node5" class="node">
<title>Node5</title>
<g id="a_node5"><a xlink:href="_set_squad_path_8cpp.html" target="_top" xlink:title=" ">
<polygon fill="white" stroke="black" points="131.5,-268.5 131.5,-298.5 232.5,-298.5 232.5,-268.5 131.5,-268.5"/>
<text text-anchor="start" x="139.5" y="-286.5" font-family="Helvetica,sans-Serif" font-size="10.00">src/engine/actions</text>
<text text-anchor="middle" x="182" y="-275.5" font-family="Helvetica,sans-Serif" font-size="10.00">/SetSquadPath.cpp</text>
</a>
</g>
</g>
<!-- Node3&#45;&gt;Node5 -->
<g id="edge4" class="edge">
<title>Node3&#45;&gt;Node5</title>
<path fill="none" stroke="midnightblue" d="M303.22,-331.68C276.44,-321.26 243.1,-308.28 218.17,-298.58"/>
<polygon fill="midnightblue" stroke="midnightblue" points="302.17,-335.03 312.76,-335.4 304.71,-328.51 302.17,-335.03"/>
</g>
<!-- Node3&#45;&gt;Node6 -->
<g id="edge5" class="edge">
<title>Node3&#45;&gt;Node6</title>
<path fill="none" stroke="midnightblue" d="M371.9,-329.31C388.62,-317.1 410.72,-302.18 425.96,-293.01"/>
<polygon fill="midnightblue" stroke="midnightblue" points="369.65,-326.62 363.72,-335.4 373.83,-332.23 369.65,-326.62"/>
</g>
<!-- Node6&#45;&gt;Node1 -->
<g id="edge12" class="edge">
<title>Node6&#45;&gt;Node1</title>
<path fill="none" stroke="midnightblue" d="M447.87,-303.06C450.53,-329.75 450.37,-378.4 447.37,-402.37"/>
<polygon fill="midnightblue" stroke="midnightblue" points="451.33,-302.55 446.55,-293.1 444.39,-303.47 451.33,-302.55"/>
</g>
<!-- Node6&#45;&gt;Node3 -->
<g id="edge8" class="edge">
<title>Node6&#45;&gt;Node3</title>
<path fill="none" stroke="midnightblue" d="M427.26,-299.38C412.94,-310.2 391.85,-324.76 375.08,-335.4"/>
<polygon fill="midnightblue" stroke="midnightblue" points="429.46,-302.1 435.2,-293.19 425.16,-296.58 429.46,-302.1"/>
</g>
<!-- Node7 -->
<g id="node7" class="node">
<title>Node7</title>
<g id="a_node7"><a xlink:href="_cell_8cpp.html" target="_top" xlink:title=" ">
<polygon fill="white" stroke="black" points="254.5,-207 254.5,-226 375.5,-226 375.5,-207 254.5,-207"/>
<text text-anchor="middle" x="315" y="-214" font-family="Helvetica,sans-Serif" font-size="10.00">src/GameLogic/Cell.cpp</text>
</a>
</g>
</g>
<!-- Node6&#45;&gt;Node7 -->
<g id="edge6" class="edge">
<title>Node6&#45;&gt;Node7</title>
<path fill="none" stroke="midnightblue" d="M416.95,-269.27C391.6,-256.4 353.81,-237.21 332.07,-226.17"/>
<polygon fill="midnightblue" stroke="midnightblue" points="415.5,-272.46 426,-273.87 418.67,-266.22 415.5,-272.46"/>
</g>
<!-- Node8 -->
<g id="node8" class="node">
<title>Node8</title>
<g id="a_node8"><a xlink:href="main_8cpp.html" target="_top" xlink:title=" ">
<polygon fill="white" stroke="black" points="314,-73 314,-92 386,-92 386,-73 314,-73"/>
<text text-anchor="middle" x="350" y="-80" font-family="Helvetica,sans-Serif" font-size="10.00">src/main.cpp</text>
</a>
</g>
</g>
<!-- Node6&#45;&gt;Node8 -->
<g id="edge7" class="edge">
<title>Node6&#45;&gt;Node8</title>
<path fill="none" stroke="midnightblue" d="M390.76,-271.92C323.5,-258.18 214.84,-235.53 212,-232 184.69,-198.07 187.05,-169.7 212,-134 234.8,-101.38 281.06,-89.76 313.72,-85.66"/>
<polygon fill="midnightblue" stroke="midnightblue" points="390.27,-275.39 400.77,-273.96 391.67,-268.54 390.27,-275.39"/>
</g>
<!-- Node6&#45;&gt;Node9 -->
<g id="edge9" class="edge">
<title>Node6&#45;&gt;Node9</title>
<path fill="none" stroke="midnightblue" d="M390.55,-271.98C383.64,-270.63 376.65,-269.27 370,-268 330.7,-260.5 228.22,-241.84 159.8,-229.42"/>
<polygon fill="midnightblue" stroke="midnightblue" points="390.07,-275.46 400.56,-273.96 391.43,-268.59 390.07,-275.46"/>
</g>
<!-- Node11 -->
<g id="node11" class="node">
<title>Node11</title>
<g id="a_node11"><a xlink:href="_factory_8h.html" target="_top" xlink:title=" ">
<polygon fill="white" stroke="black" points="917.5,-201.5 917.5,-231.5 1044.5,-231.5 1044.5,-201.5 917.5,-201.5"/>
<text text-anchor="start" x="925.5" y="-219.5" font-family="Helvetica,sans-Serif" font-size="10.00">include/GameLogic/Units</text>
<text text-anchor="middle" x="981" y="-208.5" font-family="Helvetica,sans-Serif" font-size="10.00">/Factory.h</text>
</a>
</g>
</g>
<!-- Node6&#45;&gt;Node11 -->
<g id="edge13" class="edge">
<title>Node6&#45;&gt;Node11</title>
<path fill="none" stroke="midnightblue" d="M517.1,-273.55C623.35,-260.71 817.18,-237.29 917.33,-225.19"/>
<polygon fill="midnightblue" stroke="midnightblue" points="516.6,-270.08 507.09,-274.76 517.44,-277.03 516.6,-270.08"/>
</g>
<!-- Node6&#45;&gt;Node26 -->
<g id="edge38" class="edge">
<title>Node6&#45;&gt;Node26</title>
<path fill="none" stroke="midnightblue" d="M446.21,-263.54C448.3,-251.17 450.93,-235.62 452.54,-226.13"/>
<polygon fill="midnightblue" stroke="midnightblue" points="442.7,-263.29 444.48,-273.73 449.6,-264.46 442.7,-263.29"/>
</g>
<!-- Node9&#45;&gt;Node1 -->
<g id="edge11" class="edge">
<title>Node9&#45;&gt;Node1</title>
<path fill="none" stroke="midnightblue" d="M104.26,-241.4C109.18,-259.26 116.19,-283.22 131,-299 196.49,-368.78 306.83,-397.27 377.3,-408.8"/>
<polygon fill="midnightblue" stroke="midnightblue" points="107.61,-240.39 101.56,-231.69 100.87,-242.27 107.61,-240.39"/>
</g>
<!-- Node10 -->
<g id="node10" class="node">
<title>Node10</title>
<g id="a_node10"><a xlink:href="_game_logic_2_squad_2_action_8cpp.html" target="_top" xlink:title=" ">
<polygon fill="white" stroke="black" points="254,-134.5 254,-164.5 368,-164.5 368,-134.5 254,-134.5"/>
<text text-anchor="start" x="262" y="-152.5" font-family="Helvetica,sans-Serif" font-size="10.00">src/GameLogic/Squad</text>
<text text-anchor="middle" x="311" y="-141.5" font-family="Helvetica,sans-Serif" font-size="10.00">/Action.cpp</text>
</a>
</g>
</g>
<!-- Node9&#45;&gt;Node10 -->
<g id="edge10" class="edge">
<title>Node9&#45;&gt;Node10</title>
<path fill="none" stroke="midnightblue" d="M150.49,-198.58C185.73,-188.02 230.57,-174.59 263.89,-164.61"/>
<polygon fill="midnightblue" stroke="midnightblue" points="149.39,-195.25 140.82,-201.48 151.4,-201.96 149.39,-195.25"/>
</g>
<!-- Node12 -->
<g id="node12" class="node">
<title>Node12</title>
<g id="a_node12"><a xlink:href="_spawn_action_8cpp.html" target="_top" xlink:title=" ">
<polygon fill="white" stroke="black" points="812,-134.5 812,-164.5 908,-164.5 908,-134.5 812,-134.5"/>
<text text-anchor="start" x="820" y="-152.5" font-family="Helvetica,sans-Serif" font-size="10.00">src/engine/actions</text>
<text text-anchor="middle" x="860" y="-141.5" font-family="Helvetica,sans-Serif" font-size="10.00">/SpawnAction.cpp</text>
</a>
</g>
</g>
<!-- Node11&#45;&gt;Node12 -->
<g id="edge14" class="edge">
<title>Node11&#45;&gt;Node12</title>
<path fill="none" stroke="midnightblue" d="M945.77,-196.57C926.74,-186.35 903.63,-173.94 886.2,-164.58"/>
<polygon fill="midnightblue" stroke="midnightblue" points="944.28,-199.75 954.74,-201.4 947.59,-193.58 944.28,-199.75"/>
</g>
<!-- Node13 -->
<g id="node13" class="node">
<title>Node13</title>
<g id="a_node13"><a xlink:href="_factory_8cpp.html" target="_top" xlink:title=" ">
<polygon fill="white" stroke="black" points="926,-134.5 926,-164.5 1036,-164.5 1036,-134.5 926,-134.5"/>
<text text-anchor="start" x="934" y="-152.5" font-family="Helvetica,sans-Serif" font-size="10.00">src/GameLogic/Units</text>
<text text-anchor="middle" x="981" y="-141.5" font-family="Helvetica,sans-Serif" font-size="10.00">/Factory.cpp</text>
</a>
</g>
</g>
<!-- Node11&#45;&gt;Node13 -->
<g id="edge15" class="edge">
<title>Node11&#45;&gt;Node13</title>
<path fill="none" stroke="midnightblue" d="M981,-191.11C981,-182.15 981,-172.32 981,-164.58"/>
<polygon fill="midnightblue" stroke="midnightblue" points="977.5,-191.4 981,-201.4 984.5,-191.4 977.5,-191.4"/>
</g>
<!-- Node14 -->
<g id="node14" class="node">
<title>Node14</title>
<g id="a_node14"><a xlink:href="_squad_template_8h.html" target="_top" xlink:title=" ">
<polygon fill="white" stroke="black" points="662.5,-134.5 662.5,-164.5 793.5,-164.5 793.5,-134.5 662.5,-134.5"/>
<text text-anchor="start" x="670.5" y="-152.5" font-family="Helvetica,sans-Serif" font-size="10.00">include/GameLogic/Squad</text>
<text text-anchor="middle" x="728" y="-141.5" font-family="Helvetica,sans-Serif" font-size="10.00">/SquadTemplate.h</text>
</a>
</g>
</g>
<!-- Node11&#45;&gt;Node14 -->
<g id="edge16" class="edge">
<title>Node11&#45;&gt;Node14</title>
<path fill="none" stroke="midnightblue" d="M916.72,-198.98C875.39,-188.37 822.27,-174.72 782.92,-164.61"/>
<polygon fill="midnightblue" stroke="midnightblue" points="915.86,-202.38 926.41,-201.48 917.6,-195.6 915.86,-202.38"/>
</g>
<!-- Node18 -->
<g id="node18" class="node">
<title>Node18</title>
<g id="a_node18"><a xlink:href="_all_units_8h.html" target="_top" xlink:title=" ">
<polygon fill="white" stroke="black" points="517.5,-134.5 517.5,-164.5 644.5,-164.5 644.5,-134.5 517.5,-134.5"/>
<text text-anchor="start" x="525.5" y="-152.5" font-family="Helvetica,sans-Serif" font-size="10.00">include/GameLogic/Units</text>
<text text-anchor="middle" x="581" y="-141.5" font-family="Helvetica,sans-Serif" font-size="10.00">/AllUnits.h</text>
</a>
</g>
</g>
<!-- Node11&#45;&gt;Node18 -->
<g id="edge21" class="edge">
<title>Node11&#45;&gt;Node18</title>
<path fill="none" stroke="midnightblue" d="M907.31,-205.04C840.94,-195.4 740.76,-180.31 654,-165 650.95,-164.46 647.82,-163.9 644.67,-163.31"/>
<polygon fill="midnightblue" stroke="midnightblue" points="906.86,-208.51 917.26,-206.48 907.87,-201.58 906.86,-208.51"/>
</g>
<!-- Node20 -->
<g id="node20" class="node">
<title>Node20</title>
<g id="a_node20"><a xlink:href="_armored_unit_factory_8h.html" target="_top" xlink:title=" ">
<polygon fill="white" stroke="black" points="1360.5,-67.5 1360.5,-97.5 1487.5,-97.5 1487.5,-67.5 1360.5,-67.5"/>
<text text-anchor="start" x="1368.5" y="-85.5" font-family="Helvetica,sans-Serif" font-size="10.00">include/GameLogic/Units</text>
<text text-anchor="middle" x="1424" y="-74.5" font-family="Helvetica,sans-Serif" font-size="10.00">/ArmoredUnitFactory.h</text>
</a>
</g>
</g>
<!-- Node11&#45;&gt;Node20 -->
<g id="edge28" class="edge">
<title>Node11&#45;&gt;Node20</title>
<path fill="none" stroke="midnightblue" d="M1054.79,-210.2C1143.83,-202.91 1287.63,-188.02 1336,-165 1344.74,-160.84 1387.24,-119.7 1409.82,-97.52"/>
<polygon fill="midnightblue" stroke="midnightblue" points="1054.43,-206.72 1044.74,-211.01 1054.99,-213.7 1054.43,-206.72"/>
</g>
<!-- Node22 -->
<g id="node22" class="node">
<title>Node22</title>
<g id="a_node22"><a xlink:href="_land_unit_factory_8h.html" target="_top" xlink:title=" ">
<polygon fill="white" stroke="black" points="1054.5,-134.5 1054.5,-164.5 1181.5,-164.5 1181.5,-134.5 1054.5,-134.5"/>
<text text-anchor="start" x="1062.5" y="-152.5" font-family="Helvetica,sans-Serif" font-size="10.00">include/GameLogic/Units</text>
<text text-anchor="middle" x="1118" y="-141.5" font-family="Helvetica,sans-Serif" font-size="10.00">/LandUnitFactory.h</text>
</a>
</g>
</g>
<!-- Node11&#45;&gt;Node22 -->
<g id="edge31" class="edge">
<title>Node11&#45;&gt;Node22</title>
<path fill="none" stroke="midnightblue" d="M1020.01,-196.99C1041.72,-186.69 1068.33,-174.07 1088.33,-164.58"/>
<polygon fill="midnightblue" stroke="midnightblue" points="1018.26,-193.95 1010.73,-201.4 1021.26,-200.27 1018.26,-193.95"/>
</g>
<!-- Node24 -->
<g id="node24" class="node">
<title>Node24</title>
<g id="a_node24"><a xlink:href="_transport_unit_factory_8h.html" target="_top" xlink:title=" ">
<polygon fill="white" stroke="black" points="1199.5,-134.5 1199.5,-164.5 1326.5,-164.5 1326.5,-134.5 1199.5,-134.5"/>
<text text-anchor="start" x="1207.5" y="-152.5" font-family="Helvetica,sans-Serif" font-size="10.00">include/GameLogic/Units</text>
<text text-anchor="middle" x="1263" y="-141.5" font-family="Helvetica,sans-Serif" font-size="10.00">/TransportUnitFactory.h</text>
</a>
</g>
</g>
<!-- Node11&#45;&gt;Node24 -->
<g id="edge34" class="edge">
<title>Node11&#45;&gt;Node24</title>
<path fill="none" stroke="midnightblue" d="M1051.78,-199.19C1097.96,-188.54 1157.64,-174.78 1201.78,-164.61"/>
<polygon fill="midnightblue" stroke="midnightblue" points="1050.8,-195.82 1041.84,-201.48 1052.37,-202.64 1050.8,-195.82"/>
</g>
<!-- Node15 -->
<g id="node15" class="node">
<title>Node15</title>
<g id="a_node15"><a xlink:href="_squad_template_8cpp.html" target="_top" xlink:title=" ">
<polygon fill="white" stroke="black" points="671,-67.5 671,-97.5 785,-97.5 785,-67.5 671,-67.5"/>
<text text-anchor="start" x="679" y="-85.5" font-family="Helvetica,sans-Serif" font-size="10.00">src/GameLogic/Squad</text>
<text text-anchor="middle" x="728" y="-74.5" font-family="Helvetica,sans-Serif" font-size="10.00">/SquadTemplate.cpp</text>
</a>
</g>
</g>
<!-- Node14&#45;&gt;Node15 -->
<g id="edge17" class="edge">
<title>Node14&#45;&gt;Node15</title>
<path fill="none" stroke="midnightblue" d="M728,-124.11C728,-115.15 728,-105.32 728,-97.58"/>
<polygon fill="midnightblue" stroke="midnightblue" points="724.5,-124.4 728,-134.4 731.5,-124.4 724.5,-124.4"/>
</g>
<!-- Node16 -->
<g id="node16" class="node">
<title>Node16</title>
<g id="a_node16"><a xlink:href="_all_squad_templates_8h.html" target="_top" xlink:title=" ">
<polygon fill="white" stroke="black" points="483.5,-67.5 483.5,-97.5 614.5,-97.5 614.5,-67.5 483.5,-67.5"/>
<text text-anchor="start" x="491.5" y="-85.5" font-family="Helvetica,sans-Serif" font-size="10.00">include/GameLogic/Squad</text>
<text text-anchor="middle" x="549" y="-74.5" font-family="Helvetica,sans-Serif" font-size="10.00">/AllSquadTemplates.h</text>
</a>
</g>
</g>
<!-- Node14&#45;&gt;Node16 -->
<g id="edge18" class="edge">
<title>Node14&#45;&gt;Node16</title>
<path fill="none" stroke="midnightblue" d="M679.68,-130.96C650.85,-120.48 614.72,-107.37 587.76,-97.58"/>
<polygon fill="midnightblue" stroke="midnightblue" points="678.57,-134.27 689.16,-134.4 680.95,-127.69 678.57,-134.27"/>
</g>
<!-- Node16&#45;&gt;Node6 -->
<g id="edge20" class="edge">
<title>Node16&#45;&gt;Node6</title>
<path fill="none" stroke="midnightblue" d="M473.15,-91C387.97,-100.2 259.65,-116.72 245,-134 216.84,-167.23 218.28,-197.61 245,-232 249.97,-238.39 348.48,-261.33 404.64,-273.98"/>
<polygon fill="midnightblue" stroke="midnightblue" points="473.74,-94.46 483.31,-89.91 473,-87.5 473.74,-94.46"/>
</g>
<!-- Node17 -->
<g id="node17" class="node">
<title>Node17</title>
<g id="a_node17"><a xlink:href="_all_squad_templates_8cpp.html" target="_top" xlink:title=" ">
<polygon fill="white" stroke="black" points="488,-0.5 488,-30.5 610,-30.5 610,-0.5 488,-0.5"/>
<text text-anchor="start" x="496" y="-18.5" font-family="Helvetica,sans-Serif" font-size="10.00">src/GameLogic/Squad</text>
<text text-anchor="middle" x="549" y="-7.5" font-family="Helvetica,sans-Serif" font-size="10.00">/AllSquadTemplates.cpp</text>
</a>
</g>
</g>
<!-- Node16&#45;&gt;Node17 -->
<g id="edge19" class="edge">
<title>Node16&#45;&gt;Node17</title>
<path fill="none" stroke="midnightblue" d="M549,-57.11C549,-48.15 549,-38.32 549,-30.58"/>
<polygon fill="midnightblue" stroke="midnightblue" points="545.5,-57.4 549,-67.4 552.5,-57.4 545.5,-57.4"/>
</g>
<!-- Node18&#45;&gt;Node2 -->
<g id="edge22" class="edge">
<title>Node18&#45;&gt;Node2</title>
<path fill="none" stroke="midnightblue" d="M507.51,-133.84C369.12,-112.13 217.58,-96.42 137.11,-88.73"/>
<polygon fill="midnightblue" stroke="midnightblue" points="507.02,-137.3 517.45,-135.41 508.12,-130.39 507.02,-137.3"/>
</g>
<!-- Node18&#45;&gt;Node6 -->
<g id="edge26" class="edge">
<title>Node18&#45;&gt;Node6</title>
<path fill="none" stroke="midnightblue" d="M567.9,-173.68C557.31,-191.08 541.2,-214.78 523,-232 504.03,-249.95 477.76,-265.08 460.58,-273.97"/>
<polygon fill="midnightblue" stroke="midnightblue" points="571.11,-175.13 573.2,-164.74 565.09,-171.56 571.11,-175.13"/>
</g>
<!-- Node18&#45;&gt;Node8 -->
<g id="edge25" class="edge">
<title>Node18&#45;&gt;Node8</title>
<path fill="none" stroke="midnightblue" d="M521.47,-131.75C476.3,-119.04 416.05,-102.09 380.31,-92.03"/>
<polygon fill="midnightblue" stroke="midnightblue" points="520.59,-135.14 531.16,-134.48 522.48,-128.4 520.59,-135.14"/>
</g>
<!-- Node18&#45;&gt;Node15 -->
<g id="edge23" class="edge">
<title>Node18&#45;&gt;Node15</title>
<path fill="none" stroke="midnightblue" d="M622.23,-130.27C645.64,-119.92 674.51,-107.15 696.17,-97.58"/>
<polygon fill="midnightblue" stroke="midnightblue" points="620.63,-127.15 612.9,-134.4 623.46,-133.55 620.63,-127.15"/>
</g>
<!-- Node18&#45;&gt;Node16 -->
<g id="edge27" class="edge">
<title>Node18&#45;&gt;Node16</title>
<path fill="none" stroke="midnightblue" d="M569.57,-125.28C565.01,-116.02 559.91,-105.66 555.93,-97.58"/>
<polygon fill="midnightblue" stroke="midnightblue" points="566.5,-126.97 574.06,-134.4 572.78,-123.88 566.5,-126.97"/>
</g>
<!-- Node19 -->
<g id="node19" class="node">
<title>Node19</title>
<g id="a_node19"><a xlink:href="_all_units_8cpp.html" target="_top" xlink:title=" ">
<polygon fill="white" stroke="black" points="1047,-0.5 1047,-30.5 1157,-30.5 1157,-0.5 1047,-0.5"/>
<text text-anchor="start" x="1055" y="-18.5" font-family="Helvetica,sans-Serif" font-size="10.00">src/GameLogic/Units</text>
<text text-anchor="middle" x="1102" y="-7.5" font-family="Helvetica,sans-Serif" font-size="10.00">/AllUnits.cpp</text>
</a>
</g>
</g>
<!-- Node18&#45;&gt;Node19 -->
<g id="edge24" class="edge">
<title>Node18&#45;&gt;Node19</title>
<path fill="none" stroke="midnightblue" d="M599.77,-126.56C618.79,-104.92 647.44,-74.06 662,-67 728.68,-34.68 944.39,-22.4 1046.91,-18.31"/>
<polygon fill="midnightblue" stroke="midnightblue" points="596.92,-124.5 593,-134.34 602.2,-129.1 596.92,-124.5"/>
</g>
<!-- Node20&#45;&gt;Node19 -->
<g id="edge29" class="edge">
<title>Node20&#45;&gt;Node19</title>
<path fill="none" stroke="midnightblue" d="M1350.41,-66.65C1291.61,-54.78 1210.49,-38.4 1157.17,-27.64"/>
<polygon fill="midnightblue" stroke="midnightblue" points="1349.89,-70.11 1360.38,-68.66 1351.27,-63.25 1349.89,-70.11"/>
</g>
<!-- Node21 -->
<g id="node21" class="node">
<title>Node21</title>
<g id="a_node21"><a xlink:href="_armored_unit_factory_8cpp.html" target="_top" xlink:title=" ">
<polygon fill="white" stroke="black" points="1361.5,-0.5 1361.5,-30.5 1486.5,-30.5 1486.5,-0.5 1361.5,-0.5"/>
<text text-anchor="start" x="1369.5" y="-18.5" font-family="Helvetica,sans-Serif" font-size="10.00">src/GameLogic/Units</text>
<text text-anchor="middle" x="1424" y="-7.5" font-family="Helvetica,sans-Serif" font-size="10.00">/ArmoredUnitFactory.cpp</text>
</a>
</g>
</g>
<!-- Node20&#45;&gt;Node21 -->
<g id="edge30" class="edge">
<title>Node20&#45;&gt;Node21</title>
<path fill="none" stroke="midnightblue" d="M1424,-57.11C1424,-48.15 1424,-38.32 1424,-30.58"/>
<polygon fill="midnightblue" stroke="midnightblue" points="1420.5,-57.4 1424,-67.4 1427.5,-57.4 1420.5,-57.4"/>
</g>
<!-- Node22&#45;&gt;Node19 -->
<g id="edge32" class="edge">
<title>Node22&#45;&gt;Node19</title>
<path fill="none" stroke="midnightblue" d="M1071.16,-129.53C1058.07,-121.8 1045.41,-111.44 1038,-98 1031.35,-85.93 1031.99,-79.4 1038,-67 1045.59,-51.33 1060.66,-39.06 1074.28,-30.54"/>
<polygon fill="midnightblue" stroke="midnightblue" points="1069.77,-132.76 1080.23,-134.47 1073.12,-126.61 1069.77,-132.76"/>
</g>
<!-- Node23 -->
<g id="node23" class="node">
<title>Node23</title>
<g id="a_node23"><a xlink:href="_land_unit_factory_8cpp.html" target="_top" xlink:title=" ">
<polygon fill="white" stroke="black" points="1047,-67.5 1047,-97.5 1157,-97.5 1157,-67.5 1047,-67.5"/>
<text text-anchor="start" x="1055" y="-85.5" font-family="Helvetica,sans-Serif" font-size="10.00">src/GameLogic/Units</text>
<text text-anchor="middle" x="1102" y="-74.5" font-family="Helvetica,sans-Serif" font-size="10.00">/LandUnitFactory.cpp</text>
</a>
</g>
</g>
<!-- Node22&#45;&gt;Node23 -->
<g id="edge33" class="edge">
<title>Node22&#45;&gt;Node23</title>
<path fill="none" stroke="midnightblue" d="M1112.07,-124.4C1109.84,-115.37 1107.39,-105.41 1105.46,-97.58"/>
<polygon fill="midnightblue" stroke="midnightblue" points="1108.74,-125.52 1114.53,-134.4 1115.54,-123.85 1108.74,-125.52"/>
</g>
<!-- Node24&#45;&gt;Node19 -->
<g id="edge35" class="edge">
<title>Node24&#45;&gt;Node19</title>
<path fill="none" stroke="midnightblue" d="M1238.51,-127.56C1219,-110.97 1190.92,-87.29 1166,-67 1150.63,-54.49 1132.93,-40.56 1120.05,-30.5"/>
<polygon fill="midnightblue" stroke="midnightblue" points="1236.43,-130.39 1246.31,-134.21 1240.96,-125.06 1236.43,-130.39"/>
</g>
<!-- Node24&#45;&gt;Node20 -->
<g id="edge37" class="edge">
<title>Node24&#45;&gt;Node20</title>
<path fill="none" stroke="midnightblue" d="M1307.48,-130.54C1333.24,-120.14 1365.2,-107.24 1389.13,-97.58"/>
<polygon fill="midnightblue" stroke="midnightblue" points="1305.9,-127.41 1297.93,-134.4 1308.52,-133.9 1305.9,-127.41"/>
</g>
<!-- Node25 -->
<g id="node25" class="node">
<title>Node25</title>
<g id="a_node25"><a xlink:href="_transport_unit_factory_8cpp.html" target="_top" xlink:title=" ">
<polygon fill="white" stroke="black" points="1213.5,-67.5 1213.5,-97.5 1342.5,-97.5 1342.5,-67.5 1213.5,-67.5"/>
<text text-anchor="start" x="1221.5" y="-85.5" font-family="Helvetica,sans-Serif" font-size="10.00">src/GameLogic/Units</text>
<text text-anchor="middle" x="1278" y="-74.5" font-family="Helvetica,sans-Serif" font-size="10.00">/TransportUnitFactory.cpp</text>
</a>
</g>
</g>
<!-- Node24&#45;&gt;Node25 -->
<g id="edge36" class="edge">
<title>Node24&#45;&gt;Node25</title>
<path fill="none" stroke="midnightblue" d="M1268.56,-124.4C1270.65,-115.37 1272.94,-105.41 1274.75,-97.58"/>
<polygon fill="midnightblue" stroke="midnightblue" points="1265.09,-123.87 1266.25,-134.4 1271.91,-125.44 1265.09,-123.87"/>
</g>
<!-- Node26&#45;&gt;Node10 -->
<g id="edge39" class="edge">
<title>Node26&#45;&gt;Node10</title>
<path fill="none" stroke="midnightblue" d="M425.67,-202.62C401.48,-191.63 366.75,-175.84 341.86,-164.53"/>
<polygon fill="midnightblue" stroke="midnightblue" points="424.46,-205.92 435.01,-206.87 427.36,-199.54 424.46,-205.92"/>
</g>
<!-- Node27 -->
<g id="node27" class="node">
<title>Node27</title>
<g id="a_node27"><a xlink:href="pathfinding_8cpp.html" target="_top" xlink:title=" ">
<polygon fill="white" stroke="black" points="386.5,-140 386.5,-159 499.5,-159 499.5,-140 386.5,-140"/>
<text text-anchor="middle" x="443" y="-147" font-family="Helvetica,sans-Serif" font-size="10.00">src/util/pathfinding.cpp</text>
</a>
</g>
</g>
<!-- Node26&#45;&gt;Node27 -->
<g id="edge40" class="edge">
<title>Node26&#45;&gt;Node27</title>
<path fill="none" stroke="midnightblue" d="M450.79,-196.54C448.7,-184.17 446.07,-168.62 444.46,-159.13"/>
<polygon fill="midnightblue" stroke="midnightblue" points="447.4,-197.46 452.52,-206.73 454.3,-196.29 447.4,-197.46"/>
</g>
<!-- Node28&#45;&gt;Node1 -->
<g id="edge45" class="edge">
<title>Node28&#45;&gt;Node1</title>
<path fill="none" stroke="midnightblue" d="M1565.2,-293.04C1348.26,-317.46 715.23,-387.32 508.84,-409.59"/>
<polygon fill="midnightblue" stroke="midnightblue" points="1565.67,-296.51 1575.21,-291.91 1564.88,-289.55 1565.67,-296.51"/>
</g>
<!-- Node28&#45;&gt;Node11 -->
<g id="edge51" class="edge">
<title>Node28&#45;&gt;Node11</title>
<path fill="none" stroke="midnightblue" d="M1565.05,-275.19C1434.92,-262.34 1167.22,-235.9 1044.72,-223.8"/>
<polygon fill="midnightblue" stroke="midnightblue" points="1565.01,-278.71 1575.31,-276.21 1565.7,-271.74 1565.01,-278.71"/>
</g>
<!-- Node29 -->
<g id="node29" class="node">
<title>Node29</title>
<g id="a_node29"><a xlink:href="_unit_8cpp.html" target="_top" xlink:title=" ">
<polygon fill="white" stroke="black" points="1785,-134.5 1785,-164.5 1895,-164.5 1895,-134.5 1785,-134.5"/>
<text text-anchor="start" x="1793" y="-152.5" font-family="Helvetica,sans-Serif" font-size="10.00">src/GameLogic/Units</text>
<text text-anchor="middle" x="1840" y="-141.5" font-family="Helvetica,sans-Serif" font-size="10.00">/Unit.cpp</text>
</a>
</g>
</g>
<!-- Node28&#45;&gt;Node29 -->
<g id="edge44" class="edge">
<title>Node28&#45;&gt;Node29</title>
<path fill="none" stroke="midnightblue" d="M1669.01,-262.79C1710.06,-235.84 1782.71,-188.13 1818.64,-164.52"/>
<polygon fill="midnightblue" stroke="midnightblue" points="1666.95,-259.96 1660.51,-268.37 1670.79,-265.81 1666.95,-259.96"/>
</g>
<!-- Node30 -->
<g id="node30" class="node">
<title>Node30</title>
<g id="a_node30"><a xlink:href="_squad_order_8h.html" target="_top" xlink:title=" ">
<polygon fill="white" stroke="black" points="2041.5,-134.5 2041.5,-164.5 2172.5,-164.5 2172.5,-134.5 2041.5,-134.5"/>
<text text-anchor="start" x="2049.5" y="-152.5" font-family="Helvetica,sans-Serif" font-size="10.00">include/GameLogic/Squad</text>
<text text-anchor="middle" x="2107" y="-141.5" font-family="Helvetica,sans-Serif" font-size="10.00">/SquadOrder.h</text>
</a>
</g>
</g>
<!-- Node28&#45;&gt;Node30 -->
<g id="edge46" class="edge">
<title>Node28&#45;&gt;Node30</title>
<path fill="none" stroke="midnightblue" d="M1712.9,-273.28C1768.63,-265.28 1846.57,-251.82 1913,-232 1973.91,-213.82 2041.64,-182.71 2078.79,-164.63"/>
<polygon fill="midnightblue" stroke="midnightblue" points="1712.17,-269.85 1702.76,-274.72 1713.15,-276.78 1712.17,-269.85"/>
</g>
<!-- Node32 -->
<g id="node32" class="node">
<title>Node32</title>
<g id="a_node32"><a xlink:href="_armored_unit_8h.html" target="_top" xlink:title=" ">
<polygon fill="white" stroke="black" points="1639.5,-134.5 1639.5,-164.5 1766.5,-164.5 1766.5,-134.5 1639.5,-134.5"/>
<text text-anchor="start" x="1647.5" y="-152.5" font-family="Helvetica,sans-Serif" font-size="10.00">include/GameLogic/Units</text>
<text text-anchor="middle" x="1703" y="-141.5" font-family="Helvetica,sans-Serif" font-size="10.00">/ArmoredUnit.h</text>
</a>
</g>
</g>
<!-- Node28&#45;&gt;Node32 -->
<g id="edge48" class="edge">
<title>Node28&#45;&gt;Node32</title>
<path fill="none" stroke="midnightblue" d="M1650.34,-259.12C1663.64,-231.68 1685.26,-187.09 1696.2,-164.52"/>
<polygon fill="midnightblue" stroke="midnightblue" points="1647.06,-257.85 1645.85,-268.37 1653.36,-260.9 1647.06,-257.85"/>
</g>
<!-- Node34 -->
<g id="node34" class="node">
<title>Node34</title>
<g id="a_node34"><a xlink:href="_land_unit_8h.html" target="_top" xlink:title=" ">
<polygon fill="white" stroke="black" points="1374.5,-201.5 1374.5,-231.5 1501.5,-231.5 1501.5,-201.5 1374.5,-201.5"/>
<text text-anchor="start" x="1382.5" y="-219.5" font-family="Helvetica,sans-Serif" font-size="10.00">include/GameLogic/Units</text>
<text text-anchor="middle" x="1438" y="-208.5" font-family="Helvetica,sans-Serif" font-size="10.00">/LandUnit.h</text>
</a>
</g>
</g>
<!-- Node28&#45;&gt;Node34 -->
<g id="edge52" class="edge">
<title>Node28&#45;&gt;Node34</title>
<path fill="none" stroke="midnightblue" d="M1585.59,-265.23C1553.07,-254.71 1512.06,-241.45 1481.53,-231.58"/>
<polygon fill="midnightblue" stroke="midnightblue" points="1584.79,-268.65 1595.39,-268.4 1586.95,-261.99 1584.79,-268.65"/>
</g>
<!-- Node36 -->
<g id="node36" class="node">
<title>Node36</title>
<g id="a_node36"><a xlink:href="_transport_unit_8h.html" target="_top" xlink:title=" ">
<polygon fill="white" stroke="black" points="1526.5,-201.5 1526.5,-231.5 1653.5,-231.5 1653.5,-201.5 1526.5,-201.5"/>
<text text-anchor="start" x="1534.5" y="-219.5" font-family="Helvetica,sans-Serif" font-size="10.00">include/GameLogic/Units</text>
<text text-anchor="middle" x="1590" y="-208.5" font-family="Helvetica,sans-Serif" font-size="10.00">/TransportUnit.h</text>
</a>
</g>
</g>
<!-- Node28&#45;&gt;Node36 -->
<g id="edge55" class="edge">
<title>Node28&#45;&gt;Node36</title>
<path fill="none" stroke="midnightblue" d="M1622.16,-260.16C1615.01,-250.68 1606.9,-239.92 1600.61,-231.58"/>
<polygon fill="midnightblue" stroke="midnightblue" points="1619.55,-262.52 1628.37,-268.4 1625.14,-258.3 1619.55,-262.52"/>
</g>
<!-- Node38 -->
<g id="node38" class="node">
<title>Node38</title>
<g id="a_node38"><a xlink:href="_unit_order_8h.html" target="_top" xlink:title=" ">
<polygon fill="white" stroke="black" points="1776.5,-201.5 1776.5,-231.5 1903.5,-231.5 1903.5,-201.5 1776.5,-201.5"/>
<text text-anchor="start" x="1784.5" y="-219.5" font-family="Helvetica,sans-Serif" font-size="10.00">include/GameLogic/Units</text>
<text text-anchor="middle" x="1840" y="-208.5" font-family="Helvetica,sans-Serif" font-size="10.00">/UnitOrder.h</text>
</a>
</g>
</g>
<!-- Node28&#45;&gt;Node38 -->
<g id="edge59" class="edge">
<title>Node28&#45;&gt;Node38</title>
<path fill="none" stroke="midnightblue" d="M1686.78,-265.09C1718.18,-254.6 1759.1,-241.41 1790.8,-231.58"/>
<polygon fill="midnightblue" stroke="midnightblue" points="1685.3,-261.89 1676.94,-268.4 1687.53,-268.53 1685.3,-261.89"/>
</g>
<!-- Node31 -->
<g id="node31" class="node">
<title>Node31</title>
<g id="a_node31"><a xlink:href="_squad_order_8cpp.html" target="_top" xlink:title=" ">
<polygon fill="white" stroke="black" points="2050,-67.5 2050,-97.5 2164,-97.5 2164,-67.5 2050,-67.5"/>
<text text-anchor="start" x="2058" y="-85.5" font-family="Helvetica,sans-Serif" font-size="10.00">src/GameLogic/Squad</text>
<text text-anchor="middle" x="2107" y="-74.5" font-family="Helvetica,sans-Serif" font-size="10.00">/SquadOrder.cpp</text>
</a>
</g>
</g>
<!-- Node30&#45;&gt;Node31 -->
<g id="edge47" class="edge">
<title>Node30&#45;&gt;Node31</title>
<path fill="none" stroke="midnightblue" d="M2107,-124.11C2107,-115.15 2107,-105.32 2107,-97.58"/>
<polygon fill="midnightblue" stroke="midnightblue" points="2103.5,-124.4 2107,-134.4 2110.5,-124.4 2103.5,-124.4"/>
</g>
<!-- Node32&#45;&gt;Node20 -->
<g id="edge50" class="edge">
<title>Node32&#45;&gt;Node20</title>
<path fill="none" stroke="midnightblue" d="M1632.97,-132.19C1587.28,-121.54 1528.23,-107.78 1484.57,-97.61"/>
<polygon fill="midnightblue" stroke="midnightblue" points="1632.27,-135.62 1642.8,-134.48 1633.86,-128.8 1632.27,-135.62"/>
</g>
<!-- Node33 -->
<g id="node33" class="node">
<title>Node33</title>
<g id="a_node33"><a xlink:href="_armored_unit_8cpp.html" target="_top" xlink:title=" ">
<polygon fill="white" stroke="black" points="1648,-67.5 1648,-97.5 1758,-97.5 1758,-67.5 1648,-67.5"/>
<text text-anchor="start" x="1656" y="-85.5" font-family="Helvetica,sans-Serif" font-size="10.00">src/GameLogic/Units</text>
<text text-anchor="middle" x="1703" y="-74.5" font-family="Helvetica,sans-Serif" font-size="10.00">/ArmoredUnit.cpp</text>
</a>
</g>
</g>
<!-- Node32&#45;&gt;Node33 -->
<g id="edge49" class="edge">
<title>Node32&#45;&gt;Node33</title>
<path fill="none" stroke="midnightblue" d="M1703,-124.11C1703,-115.15 1703,-105.32 1703,-97.58"/>
<polygon fill="midnightblue" stroke="midnightblue" points="1699.5,-124.4 1703,-134.4 1706.5,-124.4 1699.5,-124.4"/>
</g>
<!-- Node34&#45;&gt;Node22 -->
<g id="edge54" class="edge">
<title>Node34&#45;&gt;Node22</title>
<path fill="none" stroke="midnightblue" d="M1364.33,-200.54C1309.14,-189.33 1234.39,-174.14 1181.76,-163.45"/>
<polygon fill="midnightblue" stroke="midnightblue" points="1363.9,-204.02 1374.4,-202.58 1365.29,-197.16 1363.9,-204.02"/>
</g>
<!-- Node35 -->
<g id="node35" class="node">
<title>Node35</title>
<g id="a_node35"><a xlink:href="_land_unit_8cpp.html" target="_top" xlink:title=" ">
<polygon fill="white" stroke="black" points="1383,-134.5 1383,-164.5 1493,-164.5 1493,-134.5 1383,-134.5"/>
<text text-anchor="start" x="1391" y="-152.5" font-family="Helvetica,sans-Serif" font-size="10.00">src/GameLogic/Units</text>
<text text-anchor="middle" x="1438" y="-141.5" font-family="Helvetica,sans-Serif" font-size="10.00">/LandUnit.cpp</text>
</a>
</g>
</g>
<!-- Node34&#45;&gt;Node35 -->
<g id="edge53" class="edge">
<title>Node34&#45;&gt;Node35</title>
<path fill="none" stroke="midnightblue" d="M1438,-191.11C1438,-182.15 1438,-172.32 1438,-164.58"/>
<polygon fill="midnightblue" stroke="midnightblue" points="1434.5,-191.4 1438,-201.4 1441.5,-191.4 1434.5,-191.4"/>
</g>
<!-- Node36&#45;&gt;Node24 -->
<g id="edge58" class="edge">
<title>Node36&#45;&gt;Node24</title>
<path fill="none" stroke="midnightblue" d="M1516.14,-200.82C1459.09,-189.48 1380.97,-173.95 1326.66,-163.15"/>
<polygon fill="midnightblue" stroke="midnightblue" points="1515.68,-204.3 1526.17,-202.81 1517.05,-197.43 1515.68,-204.3"/>
</g>
<!-- Node36&#45;&gt;Node32 -->
<g id="edge57" class="edge">
<title>Node36&#45;&gt;Node32</title>
<path fill="none" stroke="midnightblue" d="M1623.39,-196.3C1641.07,-186.12 1662.4,-173.85 1678.53,-164.58"/>
<polygon fill="midnightblue" stroke="midnightblue" points="1621.44,-193.38 1614.52,-201.4 1624.93,-199.44 1621.44,-193.38"/>
</g>
<!-- Node37 -->
<g id="node37" class="node">
<title>Node37</title>
<g id="a_node37"><a xlink:href="_transport_unit_8cpp.html" target="_top" xlink:title=" ">
<polygon fill="white" stroke="black" points="1511,-134.5 1511,-164.5 1621,-164.5 1621,-134.5 1511,-134.5"/>
<text text-anchor="start" x="1519" y="-152.5" font-family="Helvetica,sans-Serif" font-size="10.00">src/GameLogic/Units</text>
<text text-anchor="middle" x="1566" y="-141.5" font-family="Helvetica,sans-Serif" font-size="10.00">/TransportUnit.cpp</text>
</a>
</g>
</g>
<!-- Node36&#45;&gt;Node37 -->
<g id="edge56" class="edge">
<title>Node36&#45;&gt;Node37</title>
<path fill="none" stroke="midnightblue" d="M1581.32,-191.99C1577.93,-182.8 1574.15,-172.58 1571.2,-164.58"/>
<polygon fill="midnightblue" stroke="midnightblue" points="1578.05,-193.23 1584.79,-201.4 1584.61,-190.8 1578.05,-193.23"/>
</g>
<!-- Node38&#45;&gt;Node28 -->
<g id="edge63" class="edge">
<title>Node38&#45;&gt;Node28</title>
<path fill="none" stroke="midnightblue" d="M1792.19,-234.92C1760.73,-245.43 1719.74,-258.64 1688.03,-268.48"/>
<polygon fill="midnightblue" stroke="midnightblue" points="1793.68,-238.11 1802.04,-231.61 1791.45,-231.48 1793.68,-238.11"/>
</g>
<!-- Node38&#45;&gt;Node29 -->
<g id="edge60" class="edge">
<title>Node38&#45;&gt;Node29</title>
<path fill="none" stroke="midnightblue" d="M1840,-191.11C1840,-182.15 1840,-172.32 1840,-164.58"/>
<polygon fill="midnightblue" stroke="midnightblue" points="1836.5,-191.4 1840,-201.4 1843.5,-191.4 1836.5,-191.4"/>
</g>
<!-- Node38&#45;&gt;Node30 -->
<g id="edge62" class="edge">
<title>Node38&#45;&gt;Node30</title>
<path fill="none" stroke="midnightblue" d="M1907.57,-199.05C1951.22,-188.43 2007.42,-174.74 2049.04,-164.61"/>
<polygon fill="midnightblue" stroke="midnightblue" points="1906.49,-195.71 1897.61,-201.48 1908.15,-202.51 1906.49,-195.71"/>
</g>
<!-- Node39 -->
<g id="node39" class="node">
<title>Node39</title>
<g id="a_node39"><a xlink:href="_unit_order_8cpp.html" target="_top" xlink:title=" ">
<polygon fill="white" stroke="black" points="1913,-134.5 1913,-164.5 2023,-164.5 2023,-134.5 1913,-134.5"/>
<text text-anchor="start" x="1921" y="-152.5" font-family="Helvetica,sans-Serif" font-size="10.00">src/GameLogic/Units</text>
<text text-anchor="middle" x="1968" y="-141.5" font-family="Helvetica,sans-Serif" font-size="10.00">/UnitOrder.cpp</text>
</a>
</g>
</g>
<!-- Node38&#45;&gt;Node39 -->
<g id="edge61" class="edge">
<title>Node38&#45;&gt;Node39</title>
<path fill="none" stroke="midnightblue" d="M1876.72,-196.85C1896.96,-186.58 1921.67,-174.03 1940.28,-164.58"/>
<polygon fill="midnightblue" stroke="midnightblue" points="1875.11,-193.75 1867.77,-201.4 1878.28,-199.99 1875.11,-193.75"/>
</g>
</g>
</svg>
