<?xml version="1.0" encoding="UTF-8" standalone="no"?>
<!DOCTYPE svg PUBLIC "-//W3C//DTD SVG 1.1//EN"
 "http://www.w3.org/Graphics/SVG/1.1/DTD/svg11.dtd">
<!-- Generated by graphviz version 2.47.1 (20210421.1823)
 -->
<!-- Title: include/GameLogic/Squad/SquadOrder.h Pages: 1 -->
<svg width="1595pt" height="834pt"
 viewBox="0.00 0.00 1594.50 834.00" xmlns="http://www.w3.org/2000/svg" xmlns:xlink="http://www.w3.org/1999/xlink">
<g id="graph0" class="graph" transform="scale(1 1) rotate(0) translate(4 830)">
<title>include/GameLogic/Squad/SquadOrder.h</title>
<polygon fill="white" stroke="transparent" points="-4,4 -4,-830 1590.5,-830 1590.5,4 -4,4"/>
<!-- Node1 -->
<g id="node1" class="node">
<title>Node1</title>
<g id="a_node1"><a xlink:title=" ">
<polygon fill="#bfbfbf" stroke="black" points="921,-795.5 921,-825.5 1052,-825.5 1052,-795.5 921,-795.5"/>
<text text-anchor="start" x="929" y="-813.5" font-family="Helvetica,sans-Serif" font-size="10.00">include/GameLogic/Squad</text>
<text text-anchor="middle" x="986.5" y="-802.5" font-family="Helvetica,sans-Serif" font-size="10.00">/SquadOrder.h</text>
</a>
</g>
</g>
<!-- Node2 -->
<g id="node2" class="node">
<title>Node2</title>
<g id="a_node2"><a xlink:href="_unit_order_8h.html" target="_top" xlink:title=" ">
<polygon fill="white" stroke="black" points="964.5,-739.5 964.5,-758.5 1110.5,-758.5 1110.5,-739.5 964.5,-739.5"/>
<text text-anchor="middle" x="1037.5" y="-746.5" font-family="Helvetica,sans-Serif" font-size="10.00">GameLogic/Units/UnitOrder.h</text>
</a>
</g>
</g>
<!-- Node1&#45;&gt;Node2 -->
<g id="edge1" class="edge">
<title>Node1&#45;&gt;Node2</title>
<path fill="none" stroke="midnightblue" d="M998.59,-795.4C1006.07,-786.66 1015.72,-775.41 1023.53,-766.3"/>
<polygon fill="midnightblue" stroke="midnightblue" points="1026.23,-768.53 1030.08,-758.66 1020.91,-763.97 1026.23,-768.53"/>
</g>
<!-- Node4 -->
<g id="node4" class="node">
<title>Node4</title>
<g id="a_node4"><a xlink:href="_unit_8h.html" target="_top" xlink:title=" ">
<polygon fill="white" stroke="black" points="925.5,-683.5 925.5,-702.5 1047.5,-702.5 1047.5,-683.5 925.5,-683.5"/>
<text text-anchor="middle" x="986.5" y="-690.5" font-family="Helvetica,sans-Serif" font-size="10.00">GameLogic/Units/Unit.h</text>
</a>
</g>
</g>
<!-- Node1&#45;&gt;Node4 -->
<g id="edge89" class="edge">
<title>Node1&#45;&gt;Node4</title>
<path fill="none" stroke="midnightblue" d="M973.59,-795.28C962.5,-781.3 949.22,-759.17 955.5,-739 958.73,-728.62 965.28,-718.52 971.52,-710.53"/>
<polygon fill="midnightblue" stroke="midnightblue" points="974.29,-712.68 978.02,-702.77 968.92,-708.19 974.29,-712.68"/>
</g>
<!-- Node3 -->
<g id="node3" class="node">
<title>Node3</title>
<g id="a_node3"><a xlink:title=" ">
<polygon fill="white" stroke="#bfbfbf" points="1095,-280.5 1095,-299.5 1136,-299.5 1136,-280.5 1095,-280.5"/>
<text text-anchor="middle" x="1115.5" y="-287.5" font-family="Helvetica,sans-Serif" font-size="10.00">string</text>
</a>
</g>
</g>
<!-- Node2&#45;&gt;Node3 -->
<g id="edge2" class="edge">
<title>Node2&#45;&gt;Node3</title>
<path fill="none" stroke="midnightblue" d="M1097.11,-739.49C1187.92,-724.82 1350.5,-691.13 1350.5,-638 1350.5,-638 1350.5,-638 1350.5,-524 1350.5,-501.9 1301.8,-350.93 1285.5,-336 1239.22,-293.62 1207.91,-316.31 1145.96,-301.01"/>
<polygon fill="midnightblue" stroke="midnightblue" points="1146.74,-297.59 1136.17,-298.34 1144.89,-304.35 1146.74,-297.59"/>
</g>
<!-- Node2&#45;&gt;Node4 -->
<g id="edge3" class="edge">
<title>Node2&#45;&gt;Node4</title>
<path fill="none" stroke="midnightblue" d="M1024.19,-739.32C1015.29,-731.65 1004.12,-720.25 996.06,-710.8"/>
<polygon fill="midnightblue" stroke="midnightblue" points="998.67,-708.46 989.69,-702.83 993.21,-712.83 998.67,-708.46"/>
</g>
<!-- Node4&#45;&gt;Node2 -->
<g id="edge5" class="edge">
<title>Node4&#45;&gt;Node2</title>
<path fill="none" stroke="midnightblue" d="M999.9,-702.75C1008.77,-710.4 1019.86,-721.74 1027.89,-731.14"/>
<polygon fill="midnightblue" stroke="midnightblue" points="1025.26,-733.46 1034.24,-739.08 1030.73,-729.09 1025.26,-733.46"/>
</g>
<!-- Node5 -->
<g id="node5" class="node">
<title>Node5</title>
<g id="a_node5"><a xlink:title=" ">
<polygon fill="white" stroke="#bfbfbf" points="1015,-627.5 1015,-646.5 1058,-646.5 1058,-627.5 1015,-627.5"/>
<text text-anchor="middle" x="1036.5" y="-634.5" font-family="Helvetica,sans-Serif" font-size="10.00">cstdio</text>
</a>
</g>
</g>
<!-- Node4&#45;&gt;Node5 -->
<g id="edge4" class="edge">
<title>Node4&#45;&gt;Node5</title>
<path fill="none" stroke="midnightblue" d="M994.76,-683.08C1001.96,-675.3 1012.61,-663.8 1021.35,-654.37"/>
<polygon fill="midnightblue" stroke="midnightblue" points="1024.17,-656.47 1028.4,-646.75 1019.03,-651.71 1024.17,-656.47"/>
</g>
<!-- Node6 -->
<g id="node6" class="node">
<title>Node6</title>
<g id="a_node6"><a xlink:href="_squad_8h.html" target="_top" xlink:title=" ">
<polygon fill="white" stroke="black" points="535.5,-627.5 535.5,-646.5 671.5,-646.5 671.5,-627.5 535.5,-627.5"/>
<text text-anchor="middle" x="603.5" y="-634.5" font-family="Helvetica,sans-Serif" font-size="10.00">GameLogic/Squad/Squad.h</text>
</a>
</g>
</g>
<!-- Node4&#45;&gt;Node6 -->
<g id="edge6" class="edge">
<title>Node4&#45;&gt;Node6</title>
<path fill="none" stroke="midnightblue" d="M925.46,-684.09C855.38,-674.53 741,-658.42 669.08,-648"/>
<polygon fill="midnightblue" stroke="midnightblue" points="669.18,-644.48 658.78,-646.51 668.18,-651.41 669.18,-644.48"/>
</g>
<!-- Node24 -->
<g id="node24" class="node">
<title>Node24</title>
<g id="a_node24"><a xlink:href="_all_flags_8h.html" target="_top" xlink:title=" ">
<polygon fill="white" stroke="black" points="1333,-392.5 1333,-411.5 1392,-411.5 1392,-392.5 1333,-392.5"/>
<text text-anchor="middle" x="1362.5" y="-399.5" font-family="Helvetica,sans-Serif" font-size="10.00">AllFlags.h</text>
</a>
</g>
</g>
<!-- Node4&#45;&gt;Node24 -->
<g id="edge84" class="edge">
<title>Node4&#45;&gt;Node24</title>
<path fill="none" stroke="midnightblue" d="M1047.82,-684.06C1142.25,-670.09 1312.5,-637.25 1312.5,-582 1312.5,-582 1312.5,-582 1312.5,-524 1312.5,-484.42 1335.63,-442.7 1350.43,-420.07"/>
<polygon fill="midnightblue" stroke="midnightblue" points="1353.46,-421.84 1356.17,-411.6 1347.66,-417.91 1353.46,-421.84"/>
</g>
<!-- Node43 -->
<g id="node43" class="node">
<title>Node43</title>
<g id="a_node43"><a xlink:href="_textures_8h.html" target="_top" xlink:title=" ">
<polygon fill="white" stroke="black" points="20,-280.5 20,-299.5 121,-299.5 121,-280.5 20,-280.5"/>
<text text-anchor="middle" x="70.5" y="-287.5" font-family="Helvetica,sans-Serif" font-size="10.00">graphics/Textures.h</text>
</a>
</g>
</g>
<!-- Node4&#45;&gt;Node43 -->
<g id="edge85" class="edge">
<title>Node4&#45;&gt;Node43</title>
<path fill="none" stroke="midnightblue" d="M925.34,-690.92C723.51,-686.56 91.5,-666.2 91.5,-582 91.5,-582 91.5,-582 91.5,-401 91.5,-368.38 82.48,-331.28 76.27,-309.57"/>
<polygon fill="midnightblue" stroke="midnightblue" points="79.54,-308.32 73.33,-299.73 72.83,-310.32 79.54,-308.32"/>
</g>
<!-- Node6&#45;&gt;Node4 -->
<g id="edge76" class="edge">
<title>Node6&#45;&gt;Node4</title>
<path fill="none" stroke="midnightblue" d="M668.98,-646.52C739.34,-656.14 850.38,-671.78 920.81,-681.98"/>
<polygon fill="midnightblue" stroke="midnightblue" points="920.5,-685.47 930.9,-683.44 921.51,-678.54 920.5,-685.47"/>
</g>
<!-- Node7 -->
<g id="node7" class="node">
<title>Node7</title>
<g id="a_node7"><a xlink:href="_cell_8h.html" target="_top" xlink:title=" ">
<polygon fill="white" stroke="black" points="671.5,-515.5 671.5,-534.5 765.5,-534.5 765.5,-515.5 671.5,-515.5"/>
<text text-anchor="middle" x="718.5" y="-522.5" font-family="Helvetica,sans-Serif" font-size="10.00">GameLogic/Cell.h</text>
</a>
</g>
</g>
<!-- Node6&#45;&gt;Node7 -->
<g id="edge7" class="edge">
<title>Node6&#45;&gt;Node7</title>
<path fill="none" stroke="midnightblue" d="M599.58,-627.39C599.37,-613.88 607.09,-587.54 622.5,-571 636.19,-556.3 655.77,-545.59 673.78,-538.31"/>
<polygon fill="midnightblue" stroke="midnightblue" points="675.45,-541.42 683.57,-534.62 672.98,-534.87 675.45,-541.42"/>
</g>
<!-- Node10 -->
<g id="node10" class="node">
<title>Node10</title>
<g id="a_node10"><a xlink:href="gameplay_clickable_game_object_8h.html" target="_top" xlink:title=" ">
<polygon fill="white" stroke="black" points="463,-448.5 463,-478.5 592,-478.5 592,-448.5 463,-448.5"/>
<text text-anchor="start" x="471" y="-466.5" font-family="Helvetica,sans-Serif" font-size="10.00">engine/gameplayClickable</text>
<text text-anchor="middle" x="527.5" y="-455.5" font-family="Helvetica,sans-Serif" font-size="10.00">GameObject.h</text>
</a>
</g>
</g>
<!-- Node6&#45;&gt;Node10 -->
<g id="edge77" class="edge">
<title>Node6&#45;&gt;Node10</title>
<path fill="none" stroke="midnightblue" d="M599.63,-627.26C588.33,-601.76 555.11,-526.81 537.98,-488.15"/>
<polygon fill="midnightblue" stroke="midnightblue" points="541.05,-486.45 533.8,-478.72 534.65,-489.28 541.05,-486.45"/>
</g>
<!-- Node13 -->
<g id="node13" class="node">
<title>Node13</title>
<g id="a_node13"><a xlink:href="config_8h.html" target="_top" xlink:title=" ">
<polygon fill="white" stroke="black" points="128,-112.5 128,-131.5 209,-131.5 209,-112.5 128,-112.5"/>
<text text-anchor="middle" x="168.5" y="-119.5" font-family="Helvetica,sans-Serif" font-size="10.00">engine/config.h</text>
</a>
</g>
</g>
<!-- Node6&#45;&gt;Node13 -->
<g id="edge81" class="edge">
<title>Node6&#45;&gt;Node13</title>
<path fill="none" stroke="midnightblue" d="M535.36,-633.73C438.55,-629.58 266.77,-618.5 211.5,-591 175.76,-573.22 149.5,-565.92 149.5,-526 149.5,-526 149.5,-526 149.5,-233 149.5,-200.49 157.66,-163.35 163.28,-141.61"/>
<polygon fill="midnightblue" stroke="midnightblue" points="166.72,-142.32 165.94,-131.75 159.96,-140.5 166.72,-142.32"/>
</g>
<!-- Node16 -->
<g id="node16" class="node">
<title>Node16</title>
<g id="a_node16"><a xlink:href="_facade_8h.html" target="_top" xlink:title=" ">
<polygon fill="white" stroke="black" points="296.5,-0.5 296.5,-19.5 352.5,-19.5 352.5,-0.5 296.5,-0.5"/>
<text text-anchor="middle" x="324.5" y="-7.5" font-family="Helvetica,sans-Serif" font-size="10.00">Facade.h</text>
</a>
</g>
</g>
<!-- Node6&#45;&gt;Node16 -->
<g id="edge82" class="edge">
<title>Node6&#45;&gt;Node16</title>
<path fill="none" stroke="midnightblue" d="M535.37,-636.29C472.34,-634.19 377.36,-624.86 302.5,-591 261.69,-572.54 225.5,-570.79 225.5,-526 225.5,-526 225.5,-526 225.5,-345 225.5,-263.86 301.5,-260.14 301.5,-179 301.5,-179 301.5,-179 301.5,-121 301.5,-88.12 311.47,-50.86 318.28,-29.24"/>
<polygon fill="midnightblue" stroke="midnightblue" points="321.61,-30.3 321.4,-19.71 314.96,-28.12 321.61,-30.3"/>
</g>
<!-- Node41 -->
<g id="node41" class="node">
<title>Node41</title>
<g id="a_node41"><a xlink:href="_player_8h.html" target="_top" xlink:title=" ">
<polygon fill="white" stroke="black" points="287.5,-336.5 287.5,-355.5 391.5,-355.5 391.5,-336.5 287.5,-336.5"/>
<text text-anchor="middle" x="339.5" y="-343.5" font-family="Helvetica,sans-Serif" font-size="10.00">GameLogic/Player.h</text>
</a>
</g>
</g>
<!-- Node6&#45;&gt;Node41 -->
<g id="edge83" class="edge">
<title>Node6&#45;&gt;Node41</title>
<path fill="none" stroke="midnightblue" d="M535.1,-627.95C435.82,-614.32 263.5,-582.53 263.5,-526 263.5,-526 263.5,-526 263.5,-462.5 263.5,-420.81 298.48,-382.53 320.98,-362.22"/>
<polygon fill="midnightblue" stroke="midnightblue" points="323.36,-364.78 328.61,-355.58 318.77,-359.5 323.36,-364.78"/>
</g>
<!-- Node42 -->
<g id="node42" class="node">
<title>Node42</title>
<g id="a_node42"><a xlink:href="_game_logic_2_squad_2_action_8h.html" target="_top" xlink:title=" ">
<polygon fill="white" stroke="black" points="640.5,-571.5 640.5,-590.5 776.5,-590.5 776.5,-571.5 640.5,-571.5"/>
<text text-anchor="middle" x="708.5" y="-578.5" font-family="Helvetica,sans-Serif" font-size="10.00">GameLogic/Squad/Action.h</text>
</a>
</g>
</g>
<!-- Node6&#45;&gt;Node42 -->
<g id="edge78" class="edge">
<title>Node6&#45;&gt;Node42</title>
<path fill="none" stroke="midnightblue" d="M615.26,-627.32C630.36,-618.59 656.52,-605 677.4,-594.98"/>
<polygon fill="midnightblue" stroke="midnightblue" points="679.01,-598.09 686.56,-590.65 676.02,-591.76 679.01,-598.09"/>
</g>
<!-- Node7&#45;&gt;Node6 -->
<g id="edge32" class="edge">
<title>Node7&#45;&gt;Node6</title>
<path fill="none" stroke="midnightblue" d="M698.62,-534.62C681.23,-541.76 656.73,-553.58 640.5,-571 628.1,-584.31 620.68,-603.97 614.88,-618.18"/>
<polygon fill="midnightblue" stroke="midnightblue" points="611.65,-616.82 610.9,-627.39 618.08,-619.6 611.65,-616.82"/>
</g>
<!-- Node8 -->
<g id="node8" class="node">
<title>Node8</title>
<g id="a_node8"><a xlink:title=" ">
<polygon fill="white" stroke="#bfbfbf" points="1241,-336.5 1241,-355.5 1276,-355.5 1276,-336.5 1241,-336.5"/>
<text text-anchor="middle" x="1258.5" y="-343.5" font-family="Helvetica,sans-Serif" font-size="10.00">map</text>
</a>
</g>
</g>
<!-- Node7&#45;&gt;Node8 -->
<g id="edge8" class="edge">
<title>Node7&#45;&gt;Node8</title>
<path fill="none" stroke="midnightblue" d="M765.56,-523.5C858.78,-521.76 1063.02,-513.95 1122.5,-479 1163.44,-454.94 1149.73,-424.33 1184.5,-392 1198.41,-379.07 1216.61,-367.94 1231.48,-359.99"/>
<polygon fill="midnightblue" stroke="midnightblue" points="1233.41,-362.93 1240.7,-355.23 1230.2,-356.71 1233.41,-362.93"/>
</g>
<!-- Node9 -->
<g id="node9" class="node">
<title>Node9</title>
<g id="a_node9"><a xlink:title=" ">
<polygon fill="white" stroke="#bfbfbf" points="724.5,-454 724.5,-473 754.5,-473 754.5,-454 724.5,-454"/>
<text text-anchor="middle" x="739.5" y="-461" font-family="Helvetica,sans-Serif" font-size="10.00">set</text>
</a>
</g>
</g>
<!-- Node7&#45;&gt;Node9 -->
<g id="edge9" class="edge">
<title>Node7&#45;&gt;Node9</title>
<path fill="none" stroke="midnightblue" d="M721.51,-515.48C724.53,-506.9 729.29,-493.43 733.15,-482.48"/>
<polygon fill="midnightblue" stroke="midnightblue" points="736.47,-483.6 736.5,-473.01 729.87,-481.27 736.47,-483.6"/>
</g>
<!-- Node7&#45;&gt;Node10 -->
<g id="edge10" class="edge">
<title>Node7&#45;&gt;Node10</title>
<path fill="none" stroke="midnightblue" d="M691.13,-515.48C662.85,-506.66 617.92,-492.67 582.3,-481.57"/>
<polygon fill="midnightblue" stroke="midnightblue" points="583.1,-478.16 572.51,-478.52 581.02,-484.84 583.1,-478.16"/>
</g>
<!-- Node7&#45;&gt;Node13 -->
<g id="edge30" class="edge">
<title>Node7&#45;&gt;Node13</title>
<path fill="none" stroke="midnightblue" d="M671.5,-522.49C573.78,-518.8 352.04,-507.49 282.5,-479 232.46,-458.5 187.5,-457.07 187.5,-403 187.5,-403 187.5,-403 187.5,-233 187.5,-200.49 179.34,-163.35 173.72,-141.61"/>
<polygon fill="midnightblue" stroke="midnightblue" points="177.04,-140.5 171.06,-131.75 170.28,-142.32 177.04,-140.5"/>
</g>
<!-- Node7&#45;&gt;Node16 -->
<g id="edge31" class="edge">
<title>Node7&#45;&gt;Node16</title>
<path fill="none" stroke="midnightblue" d="M708.73,-515.1C673.43,-481.91 554.5,-360.76 554.5,-235 554.5,-235 554.5,-235 554.5,-121 554.5,-37.14 428.53,-17.16 363.05,-12.44"/>
<polygon fill="midnightblue" stroke="midnightblue" points="362.9,-8.92 352.7,-11.78 362.46,-15.91 362.9,-8.92"/>
</g>
<!-- Node19 -->
<g id="node19" class="node">
<title>Node19</title>
<g id="a_node19"><a xlink:title=" ">
<polygon fill="white" stroke="#bfbfbf" points="764.5,-56.5 764.5,-75.5 818.5,-75.5 818.5,-56.5 764.5,-56.5"/>
<text text-anchor="middle" x="791.5" y="-63.5" font-family="Helvetica,sans-Serif" font-size="10.00">iostream</text>
</a>
</g>
</g>
<!-- Node7&#45;&gt;Node19 -->
<g id="edge33" class="edge">
<title>Node7&#45;&gt;Node19</title>
<path fill="none" stroke="midnightblue" d="M715.41,-515.25C705.79,-488.21 675.18,-403.74 644.5,-336 623.67,-290.01 592.5,-285.49 592.5,-235 592.5,-235 592.5,-235 592.5,-177 592.5,-103.98 696.41,-79.05 754.06,-70.84"/>
<polygon fill="midnightblue" stroke="midnightblue" points="754.79,-74.27 764.25,-69.49 753.87,-67.33 754.79,-74.27"/>
</g>
<!-- Node21 -->
<g id="node21" class="node">
<title>Node21</title>
<g id="a_node21"><a xlink:href="cellgen_8h.html" target="_top" xlink:title=" ">
<polygon fill="white" stroke="black" points="1061,-392.5 1061,-411.5 1132,-411.5 1132,-392.5 1061,-392.5"/>
<text text-anchor="middle" x="1096.5" y="-399.5" font-family="Helvetica,sans-Serif" font-size="10.00">util/cellgen.h</text>
</a>
</g>
</g>
<!-- Node7&#45;&gt;Node21 -->
<g id="edge21" class="edge">
<title>Node7&#45;&gt;Node21</title>
<path fill="none" stroke="midnightblue" d="M765.79,-521.93C863.71,-517.16 1081.38,-503.85 1103.5,-479 1117.36,-463.43 1111.54,-438.29 1104.99,-421.22"/>
<polygon fill="midnightblue" stroke="midnightblue" points="1108.12,-419.64 1100.99,-411.8 1101.68,-422.37 1108.12,-419.64"/>
</g>
<!-- Node7&#45;&gt;Node24 -->
<g id="edge25" class="edge">
<title>Node7&#45;&gt;Node24</title>
<path fill="none" stroke="midnightblue" d="M765.64,-523.06C878.56,-520.32 1161.7,-510.44 1250.5,-479 1255.57,-477.21 1310.59,-439.17 1341.58,-417.6"/>
<polygon fill="midnightblue" stroke="midnightblue" points="1343.78,-420.33 1349.98,-411.74 1339.78,-414.59 1343.78,-420.33"/>
</g>
<!-- Node26 -->
<g id="node26" class="node">
<title>Node26</title>
<g id="a_node26"><a xlink:href="geometry_8h.html" target="_top" xlink:title=" ">
<polygon fill="white" stroke="black" points="1014.5,-454 1014.5,-473 1094.5,-473 1094.5,-454 1014.5,-454"/>
<text text-anchor="middle" x="1054.5" y="-461" font-family="Helvetica,sans-Serif" font-size="10.00">util/geometry.h</text>
</a>
</g>
</g>
<!-- Node7&#45;&gt;Node26 -->
<g id="edge34" class="edge">
<title>Node7&#45;&gt;Node26</title>
<path fill="none" stroke="midnightblue" d="M765.57,-515.66C828.58,-504.51 939.85,-484.8 1004.37,-473.38"/>
<polygon fill="midnightblue" stroke="midnightblue" points="1005.07,-476.81 1014.31,-471.62 1003.85,-469.91 1005.07,-476.81"/>
</g>
<!-- Node27 -->
<g id="node27" class="node">
<title>Node27</title>
<g id="a_node27"><a xlink:href="_none_8h.html" target="_top" xlink:title=" ">
<polygon fill="white" stroke="black" points="1301,-224.5 1301,-243.5 1414,-243.5 1414,-224.5 1301,-224.5"/>
<text text-anchor="middle" x="1357.5" y="-231.5" font-family="Helvetica,sans-Serif" font-size="10.00">engine/actions/None.h</text>
</a>
</g>
</g>
<!-- Node7&#45;&gt;Node27 -->
<g id="edge37" class="edge">
<title>Node7&#45;&gt;Node27</title>
<path fill="none" stroke="midnightblue" d="M765.58,-521.8C862.33,-516.84 1080.31,-503.29 1150.5,-479 1219.02,-455.29 1223.5,-424.12 1288.5,-392 1329.73,-371.63 1359.24,-393.75 1385.5,-356 1407.66,-324.14 1384.81,-277.26 1369.3,-252.23"/>
<polygon fill="midnightblue" stroke="midnightblue" points="1372.2,-250.27 1363.82,-243.79 1366.32,-254.08 1372.2,-250.27"/>
</g>
<!-- Node28 -->
<g id="node28" class="node">
<title>Node28</title>
<g id="a_node28"><a xlink:href="game_controller_8h.html" target="_top" xlink:title=" ">
<polygon fill="white" stroke="black" points="1433,-336.5 1433,-355.5 1554,-355.5 1554,-336.5 1433,-336.5"/>
<text text-anchor="middle" x="1493.5" y="-343.5" font-family="Helvetica,sans-Serif" font-size="10.00">engine/gameController.h</text>
</a>
</g>
</g>
<!-- Node7&#45;&gt;Node28 -->
<g id="edge39" class="edge">
<title>Node7&#45;&gt;Node28</title>
<path fill="none" stroke="midnightblue" d="M765.61,-523.2C872.89,-520.82 1132.27,-511.75 1212.5,-479 1232.68,-470.76 1233.36,-461.47 1250.5,-448 1282.93,-422.52 1287.43,-410.09 1324.5,-392 1358.01,-375.65 1398.25,-364.63 1431.07,-357.59"/>
<polygon fill="midnightblue" stroke="midnightblue" points="1431.91,-360.99 1440.99,-355.53 1430.49,-354.13 1431.91,-360.99"/>
</g>
<!-- Node32 -->
<g id="node32" class="node">
<title>Node32</title>
<g id="a_node32"><a xlink:href="_set_squad_path_8h.html" target="_top" xlink:title=" ">
<polygon fill="white" stroke="black" points="292,-454 292,-473 445,-473 445,-454 292,-454"/>
<text text-anchor="middle" x="368.5" y="-461" font-family="Helvetica,sans-Serif" font-size="10.00">engine/actions/SetSquadPath.h</text>
</a>
</g>
</g>
<!-- Node7&#45;&gt;Node32 -->
<g id="edge48" class="edge">
<title>Node7&#45;&gt;Node32</title>
<path fill="none" stroke="midnightblue" d="M671.39,-517.07C616.59,-508.24 523.86,-492.51 444.5,-479 436.42,-477.62 427.91,-476.18 419.61,-474.74"/>
<polygon fill="midnightblue" stroke="midnightblue" points="420.08,-471.28 409.63,-473.02 418.89,-478.17 420.08,-471.28"/>
</g>
<!-- Node33 -->
<g id="node33" class="node">
<title>Node33</title>
<g id="a_node33"><a xlink:href="_all_units_8h.html" target="_top" xlink:title=" ">
<polygon fill="white" stroke="black" points="861,-392.5 861,-411.5 920,-411.5 920,-392.5 861,-392.5"/>
<text text-anchor="middle" x="890.5" y="-399.5" font-family="Helvetica,sans-Serif" font-size="10.00">AllUnits.h</text>
</a>
</g>
</g>
<!-- Node7&#45;&gt;Node33 -->
<g id="edge52" class="edge">
<title>Node7&#45;&gt;Node33</title>
<path fill="none" stroke="midnightblue" d="M765.71,-518.13C811.2,-511.4 875.32,-498.67 890.5,-479 903.07,-462.72 900.33,-438.09 896.27,-421.32"/>
<polygon fill="midnightblue" stroke="midnightblue" points="899.61,-420.28 893.55,-411.59 892.87,-422.17 899.61,-420.28"/>
</g>
<!-- Node35 -->
<g id="node35" class="node">
<title>Node35</title>
<g id="a_node35"><a xlink:href="_all_squad_templates_8h.html" target="_top" xlink:title=" ">
<polygon fill="white" stroke="black" points="773,-454 773,-473 882,-473 882,-454 773,-454"/>
<text text-anchor="middle" x="827.5" y="-461" font-family="Helvetica,sans-Serif" font-size="10.00">AllSquadTemplates.h</text>
</a>
</g>
</g>
<!-- Node7&#45;&gt;Node35 -->
<g id="edge58" class="edge">
<title>Node7&#45;&gt;Node35</title>
<path fill="none" stroke="midnightblue" d="M734.12,-515.48C752.09,-505.67 781.82,-489.43 802.91,-477.92"/>
<polygon fill="midnightblue" stroke="midnightblue" points="804.81,-480.87 811.91,-473.01 801.46,-474.73 804.81,-480.87"/>
</g>
<!-- Node7&#45;&gt;Node41 -->
<g id="edge75" class="edge">
<title>Node7&#45;&gt;Node41</title>
<path fill="none" stroke="midnightblue" d="M703.86,-515.49C688.8,-506.65 664.75,-492.27 644.5,-479 624.49,-465.89 621.59,-459.29 600.5,-448 525.2,-407.69 430.25,-375.12 378.14,-358.66"/>
<polygon fill="midnightblue" stroke="midnightblue" points="378.9,-355.23 368.31,-355.59 376.81,-361.91 378.9,-355.23"/>
</g>
<!-- Node11 -->
<g id="node11" class="node">
<title>Node11</title>
<g id="a_node11"><a xlink:href="game_object_8h.html" target="_top" xlink:title=" ">
<polygon fill="white" stroke="black" points="934,-168.5 934,-187.5 1011,-187.5 1011,-168.5 934,-168.5"/>
<text text-anchor="middle" x="972.5" y="-175.5" font-family="Helvetica,sans-Serif" font-size="10.00">gameObject.h</text>
</a>
</g>
</g>
<!-- Node10&#45;&gt;Node11 -->
<g id="edge11" class="edge">
<title>Node10&#45;&gt;Node11</title>
<path fill="none" stroke="midnightblue" d="M533.72,-448.28C548.96,-414.86 591.23,-330.32 649.5,-280 729.02,-211.33 855.05,-189.31 923.81,-182.28"/>
<polygon fill="midnightblue" stroke="midnightblue" points="924.31,-185.75 933.93,-181.31 923.65,-178.78 924.31,-185.75"/>
</g>
<!-- Node12 -->
<g id="node12" class="node">
<title>Node12</title>
<g id="a_node12"><a xlink:title=" ">
<polygon fill="white" stroke="#bfbfbf" points="1428,-112.5 1428,-131.5 1457,-131.5 1457,-112.5 1428,-112.5"/>
<text text-anchor="middle" x="1442.5" y="-119.5" font-family="Helvetica,sans-Serif" font-size="10.00">list</text>
</a>
</g>
</g>
<!-- Node11&#45;&gt;Node12 -->
<g id="edge12" class="edge">
<title>Node11&#45;&gt;Node12</title>
<path fill="none" stroke="midnightblue" d="M1011.36,-172.54C1104.85,-161.79 1340.3,-134.74 1417.53,-125.87"/>
<polygon fill="midnightblue" stroke="midnightblue" points="1418.21,-129.31 1427.74,-124.7 1417.41,-122.36 1418.21,-129.31"/>
</g>
<!-- Node11&#45;&gt;Node13 -->
<g id="edge13" class="edge">
<title>Node11&#45;&gt;Node13</title>
<path fill="none" stroke="midnightblue" d="M933.99,-174.41C802.15,-165.56 368.81,-136.45 219.55,-126.43"/>
<polygon fill="midnightblue" stroke="midnightblue" points="219.52,-122.92 209.31,-125.74 219.05,-129.9 219.52,-122.92"/>
</g>
<!-- Node18 -->
<g id="node18" class="node">
<title>Node18</title>
<g id="a_node18"><a xlink:href="engine_2_action_8h.html" target="_top" xlink:title=" ">
<polygon fill="white" stroke="black" points="931,-112.5 931,-131.5 1014,-131.5 1014,-112.5 931,-112.5"/>
<text text-anchor="middle" x="972.5" y="-119.5" font-family="Helvetica,sans-Serif" font-size="10.00">engine/Action.h</text>
</a>
</g>
</g>
<!-- Node11&#45;&gt;Node18 -->
<g id="edge18" class="edge">
<title>Node11&#45;&gt;Node18</title>
<path fill="none" stroke="midnightblue" d="M972.5,-168.08C972.5,-161.01 972.5,-150.86 972.5,-141.99"/>
<polygon fill="midnightblue" stroke="midnightblue" points="976,-141.75 972.5,-131.75 969,-141.75 976,-141.75"/>
</g>
<!-- Node14 -->
<g id="node14" class="node">
<title>Node14</title>
<g id="a_node14"><a xlink:href="_s_f_m_l_facade_8h.html" target="_top" xlink:title=" ">
<polygon fill="white" stroke="black" points="150,-56.5 150,-75.5 273,-75.5 273,-56.5 150,-56.5"/>
<text text-anchor="middle" x="211.5" y="-63.5" font-family="Helvetica,sans-Serif" font-size="10.00">graphics/SFMLFacade.h</text>
</a>
</g>
</g>
<!-- Node13&#45;&gt;Node14 -->
<g id="edge14" class="edge">
<title>Node13&#45;&gt;Node14</title>
<path fill="none" stroke="midnightblue" d="M175.6,-112.08C181.74,-104.38 190.77,-93.03 198.24,-83.65"/>
<polygon fill="midnightblue" stroke="midnightblue" points="201.04,-85.75 204.53,-75.75 195.56,-81.39 201.04,-85.75"/>
</g>
<!-- Node17 -->
<g id="node17" class="node">
<title>Node17</title>
<g id="a_node17"><a xlink:title=" ">
<polygon fill="white" stroke="#bfbfbf" points="33.5,-56.5 33.5,-75.5 131.5,-75.5 131.5,-56.5 33.5,-56.5"/>
<text text-anchor="middle" x="82.5" y="-63.5" font-family="Helvetica,sans-Serif" font-size="10.00">nlohmann/json.hpp</text>
</a>
</g>
</g>
<!-- Node13&#45;&gt;Node17 -->
<g id="edge17" class="edge">
<title>Node13&#45;&gt;Node17</title>
<path fill="none" stroke="midnightblue" d="M154.68,-112.32C141.27,-103.9 120.68,-90.97 104.91,-81.07"/>
<polygon fill="midnightblue" stroke="midnightblue" points="106.61,-78.01 96.28,-75.65 102.89,-83.94 106.61,-78.01"/>
</g>
<!-- Node15 -->
<g id="node15" class="node">
<title>Node15</title>
<g id="a_node15"><a xlink:title=" ">
<polygon fill="white" stroke="#bfbfbf" points="159.5,-0.5 159.5,-19.5 263.5,-19.5 263.5,-0.5 159.5,-0.5"/>
<text text-anchor="middle" x="211.5" y="-7.5" font-family="Helvetica,sans-Serif" font-size="10.00">SFML/Graphics.hpp</text>
</a>
</g>
</g>
<!-- Node14&#45;&gt;Node15 -->
<g id="edge15" class="edge">
<title>Node14&#45;&gt;Node15</title>
<path fill="none" stroke="midnightblue" d="M211.5,-56.08C211.5,-49.01 211.5,-38.86 211.5,-29.99"/>
<polygon fill="midnightblue" stroke="midnightblue" points="215,-29.75 211.5,-19.75 208,-29.75 215,-29.75"/>
</g>
<!-- Node14&#45;&gt;Node16 -->
<g id="edge16" class="edge">
<title>Node14&#45;&gt;Node16</title>
<path fill="none" stroke="midnightblue" d="M229.41,-56.44C247.75,-47.68 276.51,-33.94 297.59,-23.86"/>
<polygon fill="midnightblue" stroke="midnightblue" points="299.17,-26.99 306.68,-19.52 296.15,-20.67 299.17,-26.99"/>
</g>
<!-- Node18&#45;&gt;Node19 -->
<g id="edge19" class="edge">
<title>Node18&#45;&gt;Node19</title>
<path fill="none" stroke="midnightblue" d="M943.82,-112.44C912.52,-103.11 862.32,-88.13 828.18,-77.94"/>
<polygon fill="midnightblue" stroke="midnightblue" points="829.15,-74.58 818.57,-75.08 827.15,-81.29 829.15,-74.58"/>
</g>
<!-- Node20 -->
<g id="node20" class="node">
<title>Node20</title>
<g id="a_node20"><a xlink:title=" ">
<polygon fill="white" stroke="#bfbfbf" points="1254,-56.5 1254,-75.5 1305,-75.5 1305,-56.5 1254,-56.5"/>
<text text-anchor="middle" x="1279.5" y="-63.5" font-family="Helvetica,sans-Serif" font-size="10.00">memory</text>
</a>
</g>
</g>
<!-- Node18&#45;&gt;Node20 -->
<g id="edge20" class="edge">
<title>Node18&#45;&gt;Node20</title>
<path fill="none" stroke="midnightblue" d="M1014.22,-113.66C1074.88,-102.99 1186.39,-83.38 1243.59,-73.32"/>
<polygon fill="midnightblue" stroke="midnightblue" points="1244.37,-76.73 1253.61,-71.55 1243.16,-69.84 1244.37,-76.73"/>
</g>
<!-- Node21&#45;&gt;Node8 -->
<g id="edge23" class="edge">
<title>Node21&#45;&gt;Node8</title>
<path fill="none" stroke="midnightblue" d="M1122.17,-392.44C1151.99,-382.5 1200.97,-366.18 1231.39,-356.04"/>
<polygon fill="midnightblue" stroke="midnightblue" points="1232.56,-359.34 1240.94,-352.85 1230.35,-352.7 1232.56,-359.34"/>
</g>
<!-- Node22 -->
<g id="node22" class="node">
<title>Node22</title>
<g id="a_node22"><a xlink:title=" ">
<polygon fill="white" stroke="#bfbfbf" points="1006.5,-224.5 1006.5,-243.5 1050.5,-243.5 1050.5,-224.5 1006.5,-224.5"/>
<text text-anchor="middle" x="1028.5" y="-231.5" font-family="Helvetica,sans-Serif" font-size="10.00">vector</text>
</a>
</g>
</g>
<!-- Node21&#45;&gt;Node22 -->
<g id="edge22" class="edge">
<title>Node21&#45;&gt;Node22</title>
<path fill="none" stroke="midnightblue" d="M1092.84,-392.08C1082.09,-365.83 1050.43,-288.55 1035.92,-253.12"/>
<polygon fill="midnightblue" stroke="midnightblue" points="1039.04,-251.5 1032.01,-243.57 1032.56,-254.15 1039.04,-251.5"/>
</g>
<!-- Node23 -->
<g id="node23" class="node">
<title>Node23</title>
<g id="a_node23"><a xlink:title=" ">
<polygon fill="white" stroke="#bfbfbf" points="1094.5,-336.5 1094.5,-355.5 1222.5,-355.5 1222.5,-336.5 1094.5,-336.5"/>
<text text-anchor="middle" x="1158.5" y="-343.5" font-family="Helvetica,sans-Serif" font-size="10.00">scanline_triangulation.hpp</text>
</a>
</g>
</g>
<!-- Node21&#45;&gt;Node23 -->
<g id="edge24" class="edge">
<title>Node21&#45;&gt;Node23</title>
<path fill="none" stroke="midnightblue" d="M1106.46,-392.32C1115.63,-384.34 1129.44,-372.31 1140.53,-362.65"/>
<polygon fill="midnightblue" stroke="midnightblue" points="1143.12,-365.04 1148.36,-355.83 1138.52,-359.76 1143.12,-365.04"/>
</g>
<!-- Node24&#45;&gt;Node20 -->
<g id="edge29" class="edge">
<title>Node24&#45;&gt;Node20</title>
<path fill="none" stroke="midnightblue" d="M1392.19,-397.88C1441.74,-392.12 1538.35,-378.3 1563.5,-356 1586.43,-335.67 1586.5,-321.64 1586.5,-291 1586.5,-291 1586.5,-291 1586.5,-177 1586.5,-119.97 1396.39,-84.58 1315.37,-72.09"/>
<polygon fill="midnightblue" stroke="midnightblue" points="1315.56,-68.57 1305.15,-70.54 1314.51,-75.5 1315.56,-68.57"/>
</g>
<!-- Node25 -->
<g id="node25" class="node">
<title>Node25</title>
<g id="a_node25"><a xlink:href="_flag_8h.html" target="_top" xlink:title=" ">
<polygon fill="white" stroke="black" points="1333,-336.5 1333,-355.5 1376,-355.5 1376,-336.5 1333,-336.5"/>
<text text-anchor="middle" x="1354.5" y="-343.5" font-family="Helvetica,sans-Serif" font-size="10.00">Flag.h</text>
</a>
</g>
</g>
<!-- Node24&#45;&gt;Node25 -->
<g id="edge26" class="edge">
<title>Node24&#45;&gt;Node25</title>
<path fill="none" stroke="midnightblue" d="M1361.18,-392.08C1360.12,-384.93 1358.59,-374.64 1357.27,-365.69"/>
<polygon fill="midnightblue" stroke="midnightblue" points="1360.72,-365.13 1355.8,-355.75 1353.8,-366.16 1360.72,-365.13"/>
</g>
<!-- Node25&#45;&gt;Node3 -->
<g id="edge28" class="edge">
<title>Node25&#45;&gt;Node3</title>
<path fill="none" stroke="midnightblue" d="M1332.83,-339.46C1328.11,-338.28 1323.14,-337.08 1318.5,-336 1244.12,-318.74 1224.83,-317.51 1150.5,-300 1149.05,-299.66 1147.57,-299.3 1146.07,-298.94"/>
<polygon fill="midnightblue" stroke="midnightblue" points="1146.74,-295.5 1136.19,-296.47 1145.05,-302.29 1146.74,-295.5"/>
</g>
<!-- Node25&#45;&gt;Node22 -->
<g id="edge27" class="edge">
<title>Node25&#45;&gt;Node22</title>
<path fill="none" stroke="midnightblue" d="M1332.71,-339.59C1294.09,-329.91 1215.22,-309.75 1188.5,-300 1168.7,-292.77 1164.9,-288.23 1145.5,-280 1116.93,-267.88 1083.87,-255.29 1060.2,-246.53"/>
<polygon fill="midnightblue" stroke="midnightblue" points="1061.27,-243.19 1050.67,-243.02 1058.85,-249.76 1061.27,-243.19"/>
</g>
<!-- Node26&#45;&gt;Node21 -->
<g id="edge36" class="edge">
<title>Node26&#45;&gt;Node21</title>
<path fill="none" stroke="midnightblue" d="M1060.52,-453.98C1066.76,-445.14 1076.67,-431.09 1084.52,-419.98"/>
<polygon fill="midnightblue" stroke="midnightblue" points="1087.59,-421.7 1090.49,-411.51 1081.87,-417.66 1087.59,-421.7"/>
</g>
<!-- Node26&#45;&gt;Node22 -->
<g id="edge35" class="edge">
<title>Node26&#45;&gt;Node22</title>
<path fill="none" stroke="midnightblue" d="M1053.51,-453.86C1049.72,-420.64 1036,-300.66 1030.66,-253.87"/>
<polygon fill="midnightblue" stroke="midnightblue" points="1034.1,-253.19 1029.49,-243.65 1027.15,-253.98 1034.1,-253.19"/>
</g>
<!-- Node27&#45;&gt;Node18 -->
<g id="edge38" class="edge">
<title>Node27&#45;&gt;Node18</title>
<path fill="none" stroke="midnightblue" d="M1327.61,-224.46C1258.88,-204.82 1089.58,-156.45 1012.22,-134.35"/>
<polygon fill="midnightblue" stroke="midnightblue" points="1012.95,-130.92 1002.37,-131.53 1011.02,-137.65 1012.95,-130.92"/>
</g>
<!-- Node28&#45;&gt;Node11 -->
<g id="edge41" class="edge">
<title>Node28&#45;&gt;Node11</title>
<path fill="none" stroke="midnightblue" d="M1432.9,-340.05C1376.98,-334.29 1292.18,-322.55 1221.5,-300 1202.18,-293.84 1198.73,-288.87 1180.5,-280 1115.45,-248.34 1038.9,-211.2 999.28,-191.99"/>
<polygon fill="midnightblue" stroke="midnightblue" points="1000.56,-188.72 990.04,-187.5 997.51,-195.01 1000.56,-188.72"/>
</g>
<!-- Node28&#45;&gt;Node12 -->
<g id="edge40" class="edge">
<title>Node28&#45;&gt;Node12</title>
<path fill="none" stroke="midnightblue" d="M1492.01,-336.46C1487.48,-310.78 1473.13,-232.12 1456.5,-168 1454.19,-159.08 1451.2,-149.3 1448.58,-141.14"/>
<polygon fill="midnightblue" stroke="midnightblue" points="1451.88,-139.97 1445.43,-131.56 1445.22,-142.15 1451.88,-139.97"/>
</g>
<!-- Node29 -->
<g id="node29" class="node">
<title>Node29</title>
<g id="a_node29"><a xlink:href="_network_manager_8h.html" target="_top" xlink:title=" ">
<polygon fill="white" stroke="black" points="1230.5,-280.5 1230.5,-299.5 1360.5,-299.5 1360.5,-280.5 1230.5,-280.5"/>
<text text-anchor="middle" x="1295.5" y="-287.5" font-family="Helvetica,sans-Serif" font-size="10.00">engine/NetworkManager.h</text>
</a>
</g>
</g>
<!-- Node28&#45;&gt;Node29 -->
<g id="edge42" class="edge">
<title>Node28&#45;&gt;Node29</title>
<path fill="none" stroke="midnightblue" d="M1462.13,-336.44C1428.24,-327.2 1374.1,-312.44 1336.78,-302.26"/>
<polygon fill="midnightblue" stroke="midnightblue" points="1337.3,-298.77 1326.73,-299.52 1335.45,-305.52 1337.3,-298.77"/>
</g>
<!-- Node31 -->
<g id="node31" class="node">
<title>Node31</title>
<g id="a_node31"><a xlink:title=" ">
<polygon fill="white" stroke="#bfbfbf" points="1509,-280.5 1509,-299.5 1558,-299.5 1558,-280.5 1509,-280.5"/>
<text text-anchor="middle" x="1533.5" y="-287.5" font-family="Helvetica,sans-Serif" font-size="10.00">random</text>
</a>
</g>
</g>
<!-- Node28&#45;&gt;Node31 -->
<g id="edge47" class="edge">
<title>Node28&#45;&gt;Node31</title>
<path fill="none" stroke="midnightblue" d="M1500.11,-336.08C1505.76,-328.46 1514.04,-317.26 1520.95,-307.94"/>
<polygon fill="midnightblue" stroke="midnightblue" points="1523.88,-309.87 1527.02,-299.75 1518.25,-305.7 1523.88,-309.87"/>
</g>
<!-- Node29&#45;&gt;Node11 -->
<g id="edge43" class="edge">
<title>Node29&#45;&gt;Node11</title>
<path fill="none" stroke="midnightblue" d="M1278.06,-280.41C1244.14,-263.75 1171.52,-228.27 1159.5,-224 1113.57,-207.7 1059.22,-195.36 1020.99,-187.76"/>
<polygon fill="midnightblue" stroke="midnightblue" points="1021.63,-184.32 1011.15,-185.84 1020.29,-191.19 1021.63,-184.32"/>
</g>
<!-- Node29&#45;&gt;Node22 -->
<g id="edge45" class="edge">
<title>Node29&#45;&gt;Node22</title>
<path fill="none" stroke="midnightblue" d="M1253.19,-280.44C1199.63,-269.61 1108.55,-251.19 1060.45,-241.46"/>
<polygon fill="midnightblue" stroke="midnightblue" points="1061.08,-238.02 1050.58,-239.47 1059.69,-244.88 1061.08,-238.02"/>
</g>
<!-- Node29&#45;&gt;Node27 -->
<g id="edge44" class="edge">
<title>Node29&#45;&gt;Node27</title>
<path fill="none" stroke="midnightblue" d="M1305.46,-280.32C1314.63,-272.34 1328.44,-260.31 1339.53,-250.65"/>
<polygon fill="midnightblue" stroke="midnightblue" points="1342.12,-253.04 1347.36,-243.83 1337.52,-247.76 1342.12,-253.04"/>
</g>
<!-- Node30 -->
<g id="node30" class="node">
<title>Node30</title>
<g id="a_node30"><a xlink:title=" ">
<polygon fill="white" stroke="#bfbfbf" points="1212,-224.5 1212,-243.5 1283,-243.5 1283,-224.5 1212,-224.5"/>
<text text-anchor="middle" x="1247.5" y="-231.5" font-family="Helvetica,sans-Serif" font-size="10.00">sys/socket.h</text>
</a>
</g>
</g>
<!-- Node29&#45;&gt;Node30 -->
<g id="edge46" class="edge">
<title>Node29&#45;&gt;Node30</title>
<path fill="none" stroke="midnightblue" d="M1287.57,-280.08C1280.65,-272.3 1270.43,-260.8 1262.05,-251.37"/>
<polygon fill="midnightblue" stroke="midnightblue" points="1264.54,-248.9 1255.28,-243.75 1259.31,-253.55 1264.54,-248.9"/>
</g>
<!-- Node32&#45;&gt;Node6 -->
<g id="edge50" class="edge">
<title>Node32&#45;&gt;Node6</title>
<path fill="none" stroke="midnightblue" d="M380.22,-473.06C417.91,-500.56 536.25,-586.92 583.61,-621.49"/>
<polygon fill="midnightblue" stroke="midnightblue" points="581.71,-624.43 591.85,-627.5 585.83,-618.77 581.71,-624.43"/>
</g>
<!-- Node32&#45;&gt;Node7 -->
<g id="edge51" class="edge">
<title>Node32&#45;&gt;Node7</title>
<path fill="none" stroke="midnightblue" d="M427.14,-473.02C438.92,-474.98 451.14,-477.07 462.5,-479 532.58,-490.93 613.1,-504.6 664.92,-513.71"/>
<polygon fill="midnightblue" stroke="midnightblue" points="664.43,-517.18 674.89,-515.47 665.65,-510.28 664.43,-517.18"/>
</g>
<!-- Node32&#45;&gt;Node18 -->
<g id="edge49" class="edge">
<title>Node32&#45;&gt;Node18</title>
<path fill="none" stroke="midnightblue" d="M378.44,-453.8C417.21,-420.21 563,-297.21 700.5,-224 778.57,-182.44 877.49,-150.38 931.94,-134.34"/>
<polygon fill="midnightblue" stroke="midnightblue" points="932.96,-137.69 941.58,-131.53 931,-130.97 932.96,-137.69"/>
</g>
<!-- Node34 -->
<g id="node34" class="node">
<title>Node34</title>
<g id="a_node34"><a xlink:href="_factory_8h.html" target="_top" xlink:title=" ">
<polygon fill="white" stroke="black" points="944.5,-336.5 944.5,-355.5 1000.5,-355.5 1000.5,-336.5 944.5,-336.5"/>
<text text-anchor="middle" x="972.5" y="-343.5" font-family="Helvetica,sans-Serif" font-size="10.00">Factory.h</text>
</a>
</g>
</g>
<!-- Node33&#45;&gt;Node34 -->
<g id="edge53" class="edge">
<title>Node33&#45;&gt;Node34</title>
<path fill="none" stroke="midnightblue" d="M903.67,-392.32C916.35,-383.98 935.73,-371.21 950.71,-361.35"/>
<polygon fill="midnightblue" stroke="midnightblue" points="952.93,-364.08 959.36,-355.65 949.08,-358.23 952.93,-364.08"/>
</g>
<!-- Node34&#45;&gt;Node3 -->
<g id="edge54" class="edge">
<title>Node34&#45;&gt;Node3</title>
<path fill="none" stroke="midnightblue" d="M995.16,-336.44C1019.46,-327.27 1058.18,-312.64 1085.11,-302.47"/>
<polygon fill="midnightblue" stroke="midnightblue" points="1086.69,-305.62 1094.8,-298.82 1084.21,-299.07 1086.69,-305.62"/>
</g>
<!-- Node34&#45;&gt;Node4 -->
<g id="edge56" class="edge">
<title>Node34&#45;&gt;Node4</title>
<path fill="none" stroke="midnightblue" d="M974.27,-355.65C978.04,-374.81 986.5,-422.3 986.5,-462.5 986.5,-582 986.5,-582 986.5,-582 986.5,-614.05 986.5,-651.36 986.5,-673.25"/>
<polygon fill="midnightblue" stroke="midnightblue" points="983,-673.44 986.5,-683.44 990,-673.44 983,-673.44"/>
</g>
<!-- Node34&#45;&gt;Node7 -->
<g id="edge55" class="edge">
<title>Node34&#45;&gt;Node7</title>
<path fill="none" stroke="midnightblue" d="M971.02,-355.69C966.51,-379.43 950.62,-445.85 909.5,-479 871.84,-509.35 817.21,-519.88 776.02,-523.24"/>
<polygon fill="midnightblue" stroke="midnightblue" points="775.58,-519.76 765.85,-523.94 776.07,-526.74 775.58,-519.76"/>
</g>
<!-- Node34&#45;&gt;Node11 -->
<g id="edge57" class="edge">
<title>Node34&#45;&gt;Node11</title>
<path fill="none" stroke="midnightblue" d="M972.5,-336.08C972.5,-309.95 972.5,-233.21 972.5,-197.58"/>
<polygon fill="midnightblue" stroke="midnightblue" points="976,-197.57 972.5,-187.57 969,-197.57 976,-197.57"/>
</g>
<!-- Node35&#45;&gt;Node33 -->
<g id="edge74" class="edge">
<title>Node35&#45;&gt;Node33</title>
<path fill="none" stroke="midnightblue" d="M836.53,-453.98C846.26,-444.78 861.96,-429.96 873.92,-418.66"/>
<polygon fill="midnightblue" stroke="midnightblue" points="876.62,-420.92 881.49,-411.51 871.82,-415.83 876.62,-420.92"/>
</g>
<!-- Node36 -->
<g id="node36" class="node">
<title>Node36</title>
<g id="a_node36"><a xlink:href="_squad_template_8h.html" target="_top" xlink:title=" ">
<polygon fill="white" stroke="black" points="750.5,-392.5 750.5,-411.5 842.5,-411.5 842.5,-392.5 750.5,-392.5"/>
<text text-anchor="middle" x="796.5" y="-399.5" font-family="Helvetica,sans-Serif" font-size="10.00">SquadTemplate.h</text>
</a>
</g>
</g>
<!-- Node35&#45;&gt;Node36 -->
<g id="edge59" class="edge">
<title>Node35&#45;&gt;Node36</title>
<path fill="none" stroke="midnightblue" d="M823.06,-453.98C818.55,-445.32 811.43,-431.65 805.69,-420.65"/>
<polygon fill="midnightblue" stroke="midnightblue" points="808.66,-418.76 800.93,-411.51 802.45,-421.99 808.66,-418.76"/>
</g>
<!-- Node36&#45;&gt;Node22 -->
<g id="edge60" class="edge">
<title>Node36&#45;&gt;Node22</title>
<path fill="none" stroke="midnightblue" d="M821.74,-392.39C842.91,-384.57 873.45,-371.84 897.5,-356 944.89,-324.79 991.57,-276.25 1014.27,-251.19"/>
<polygon fill="midnightblue" stroke="midnightblue" points="1016.95,-253.44 1021.01,-243.65 1011.73,-248.77 1016.95,-253.44"/>
</g>
<!-- Node36&#45;&gt;Node34 -->
<g id="edge61" class="edge">
<title>Node36&#45;&gt;Node34</title>
<path fill="none" stroke="midnightblue" d="M824.39,-392.44C854.25,-383.28 901.81,-368.69 934.96,-358.52"/>
<polygon fill="midnightblue" stroke="midnightblue" points="936.21,-361.8 944.74,-355.52 934.16,-355.1 936.21,-361.8"/>
</g>
<!-- Node37 -->
<g id="node37" class="node">
<title>Node37</title>
<g id="a_node37"><a xlink:href="_gui_list_8h.html" target="_top" xlink:title=" ">
<polygon fill="white" stroke="black" points="782.5,-280.5 782.5,-299.5 890.5,-299.5 890.5,-280.5 782.5,-280.5"/>
<text text-anchor="middle" x="836.5" y="-287.5" font-family="Helvetica,sans-Serif" font-size="10.00">engine/GUI/GuiList.h</text>
</a>
</g>
</g>
<!-- Node36&#45;&gt;Node37 -->
<g id="edge62" class="edge">
<title>Node36&#45;&gt;Node37</title>
<path fill="none" stroke="midnightblue" d="M786.57,-392.47C773.22,-379.94 752.4,-355.89 763.5,-336 771.66,-321.39 786.72,-310.94 801.05,-303.8"/>
<polygon fill="midnightblue" stroke="midnightblue" points="802.65,-306.92 810.29,-299.59 799.74,-300.56 802.65,-306.92"/>
</g>
<!-- Node39 -->
<g id="node39" class="node">
<title>Node39</title>
<g id="a_node39"><a xlink:href="_gui_scroll_8h.html" target="_top" xlink:title=" ">
<polygon fill="white" stroke="black" points="772.5,-336.5 772.5,-355.5 888.5,-355.5 888.5,-336.5 772.5,-336.5"/>
<text text-anchor="middle" x="830.5" y="-343.5" font-family="Helvetica,sans-Serif" font-size="10.00">engine/GUI/GuiScroll.h</text>
</a>
</g>
</g>
<!-- Node36&#45;&gt;Node39 -->
<g id="edge66" class="edge">
<title>Node36&#45;&gt;Node39</title>
<path fill="none" stroke="midnightblue" d="M802.11,-392.08C806.87,-384.53 813.82,-373.49 819.65,-364.23"/>
<polygon fill="midnightblue" stroke="midnightblue" points="822.62,-366.08 824.99,-355.75 816.7,-362.35 822.62,-366.08"/>
</g>
<!-- Node40 -->
<g id="node40" class="node">
<title>Node40</title>
<g id="a_node40"><a xlink:href="_button_8h.html" target="_top" xlink:title=" ">
<polygon fill="white" stroke="black" points="659,-280.5 659,-299.5 764,-299.5 764,-280.5 659,-280.5"/>
<text text-anchor="middle" x="711.5" y="-287.5" font-family="Helvetica,sans-Serif" font-size="10.00">engine/GUI/Button.h</text>
</a>
</g>
</g>
<!-- Node36&#45;&gt;Node40 -->
<g id="edge69" class="edge">
<title>Node36&#45;&gt;Node40</title>
<path fill="none" stroke="midnightblue" d="M788.2,-392.31C779.88,-383.44 766.83,-369.15 756.5,-356 744.22,-340.37 731.43,-321.62 722.64,-308.28"/>
<polygon fill="midnightblue" stroke="midnightblue" points="725.4,-306.11 717.01,-299.65 719.54,-309.94 725.4,-306.11"/>
</g>
<!-- Node36&#45;&gt;Node41 -->
<g id="edge71" class="edge">
<title>Node36&#45;&gt;Node41</title>
<path fill="none" stroke="midnightblue" d="M750.17,-395.53C667.49,-385.76 494.53,-365.32 401.64,-354.34"/>
<polygon fill="midnightblue" stroke="midnightblue" points="401.88,-350.85 391.54,-353.15 401.06,-357.8 401.88,-350.85"/>
</g>
<!-- Node37&#45;&gt;Node22 -->
<g id="edge65" class="edge">
<title>Node37&#45;&gt;Node22</title>
<path fill="none" stroke="midnightblue" d="M866.92,-280.44C902.24,-270.51 960.25,-254.2 996.31,-244.05"/>
<polygon fill="midnightblue" stroke="midnightblue" points="997.62,-247.32 1006.3,-241.24 995.73,-240.58 997.62,-247.32"/>
</g>
<!-- Node38 -->
<g id="node38" class="node">
<title>Node38</title>
<g id="a_node38"><a xlink:href="_gui_object_8h.html" target="_top" xlink:title=" ">
<polygon fill="white" stroke="black" points="776.5,-224.5 776.5,-243.5 896.5,-243.5 896.5,-224.5 776.5,-224.5"/>
<text text-anchor="middle" x="836.5" y="-231.5" font-family="Helvetica,sans-Serif" font-size="10.00">engine/GUI/GuiObject.h</text>
</a>
</g>
</g>
<!-- Node37&#45;&gt;Node38 -->
<g id="edge63" class="edge">
<title>Node37&#45;&gt;Node38</title>
<path fill="none" stroke="midnightblue" d="M836.5,-280.08C836.5,-273.01 836.5,-262.86 836.5,-253.99"/>
<polygon fill="midnightblue" stroke="midnightblue" points="840,-253.75 836.5,-243.75 833,-253.75 840,-253.75"/>
</g>
<!-- Node38&#45;&gt;Node11 -->
<g id="edge64" class="edge">
<title>Node38&#45;&gt;Node11</title>
<path fill="none" stroke="midnightblue" d="M858.05,-224.44C880.53,-215.52 915.99,-201.44 941.48,-191.32"/>
<polygon fill="midnightblue" stroke="midnightblue" points="943.05,-194.46 951.05,-187.52 940.47,-187.95 943.05,-194.46"/>
</g>
<!-- Node39&#45;&gt;Node12 -->
<g id="edge68" class="edge">
<title>Node39&#45;&gt;Node12</title>
<path fill="none" stroke="midnightblue" d="M888.54,-340C903.81,-338.69 920.28,-337.28 935.5,-336 1031.93,-327.87 1282.07,-341.5 1369.5,-300 1400.74,-285.17 1408.1,-274.96 1423.5,-244 1440.01,-210.8 1442.84,-166.68 1442.97,-141.93"/>
<polygon fill="midnightblue" stroke="midnightblue" points="1446.47,-141.71 1442.87,-131.75 1439.47,-141.78 1446.47,-141.71"/>
</g>
<!-- Node39&#45;&gt;Node37 -->
<g id="edge67" class="edge">
<title>Node39&#45;&gt;Node37</title>
<path fill="none" stroke="midnightblue" d="M831.49,-336.08C832.29,-328.93 833.43,-318.64 834.42,-309.69"/>
<polygon fill="midnightblue" stroke="midnightblue" points="837.9,-310.08 835.53,-299.75 830.94,-309.3 837.9,-310.08"/>
</g>
<!-- Node40&#45;&gt;Node38 -->
<g id="edge70" class="edge">
<title>Node40&#45;&gt;Node38</title>
<path fill="none" stroke="midnightblue" d="M731.31,-280.44C751.79,-271.6 783.98,-257.69 807.36,-247.59"/>
<polygon fill="midnightblue" stroke="midnightblue" points="808.99,-250.7 816.79,-243.52 806.22,-244.27 808.99,-250.7"/>
</g>
<!-- Node41&#45;&gt;Node14 -->
<g id="edge73" class="edge">
<title>Node41&#45;&gt;Node14</title>
<path fill="none" stroke="midnightblue" d="M327.96,-336.43C306.7,-319.57 263.5,-279.8 263.5,-235 263.5,-235 263.5,-235 263.5,-177 263.5,-141.12 240.61,-104.42 225.2,-83.79"/>
<polygon fill="midnightblue" stroke="midnightblue" points="227.85,-81.5 218.95,-75.74 222.32,-85.79 227.85,-81.5"/>
</g>
<!-- Node41&#45;&gt;Node16 -->
<g id="edge72" class="edge">
<title>Node41&#45;&gt;Node16</title>
<path fill="none" stroke="midnightblue" d="M339.5,-336.44C339.5,-317.94 339.5,-272.81 339.5,-235 339.5,-235 339.5,-235 339.5,-121 339.5,-88.5 332.99,-51.1 328.55,-29.34"/>
<polygon fill="midnightblue" stroke="midnightblue" points="331.96,-28.56 326.46,-19.5 325.11,-30.01 331.96,-28.56"/>
</g>
<!-- Node42&#45;&gt;Node6 -->
<g id="edge79" class="edge">
<title>Node42&#45;&gt;Node6</title>
<path fill="none" stroke="midnightblue" d="M697.02,-590.52C681.93,-599.27 655.47,-613.01 634.45,-623.1"/>
<polygon fill="midnightblue" stroke="midnightblue" points="632.78,-620.01 625.23,-627.44 635.76,-626.34 632.78,-620.01"/>
</g>
<!-- Node42&#45;&gt;Node7 -->
<g id="edge80" class="edge">
<title>Node42&#45;&gt;Node7</title>
<path fill="none" stroke="midnightblue" d="M710.15,-571.08C711.48,-563.93 713.38,-553.64 715.04,-544.69"/>
<polygon fill="midnightblue" stroke="midnightblue" points="718.5,-545.22 716.88,-534.75 711.62,-543.95 718.5,-545.22"/>
</g>
<!-- Node43&#45;&gt;Node13 -->
<g id="edge86" class="edge">
<title>Node43&#45;&gt;Node13</title>
<path fill="none" stroke="midnightblue" d="M74.67,-280.26C84.44,-260.01 109.92,-208.54 135.5,-168 141.57,-158.37 149.02,-148.1 155.31,-139.81"/>
<polygon fill="midnightblue" stroke="midnightblue" points="158.22,-141.77 161.55,-131.71 152.67,-137.49 158.22,-141.77"/>
</g>
<!-- Node43&#45;&gt;Node22 -->
<g id="edge87" class="edge">
<title>Node43&#45;&gt;Node22</title>
<path fill="none" stroke="midnightblue" d="M121.35,-286.6C251.72,-280.37 608.49,-262.87 905.5,-244 936.21,-242.05 971.21,-239.45 996,-237.55"/>
<polygon fill="midnightblue" stroke="midnightblue" points="996.59,-241.01 1006.29,-236.75 996.05,-234.03 996.59,-241.01"/>
</g>
<!-- Node44 -->
<g id="node44" class="node">
<title>Node44</title>
<g id="a_node44"><a xlink:title=" ">
<polygon fill="white" stroke="#bfbfbf" points="0,-224.5 0,-243.5 83,-243.5 83,-224.5 0,-224.5"/>
<text text-anchor="middle" x="41.5" y="-231.5" font-family="Helvetica,sans-Serif" font-size="10.00">unordered_map</text>
</a>
</g>
</g>
<!-- Node43&#45;&gt;Node44 -->
<g id="edge88" class="edge">
<title>Node43&#45;&gt;Node44</title>
<path fill="none" stroke="midnightblue" d="M65.71,-280.08C61.74,-272.69 55.97,-261.95 51.07,-252.81"/>
<polygon fill="midnightblue" stroke="midnightblue" points="54.01,-250.91 46.2,-243.75 47.85,-254.22 54.01,-250.91"/>
</g>
</g>
</svg>
