<?xml version="1.0" encoding="UTF-8" standalone="no"?>
<!DOCTYPE svg PUBLIC "-//W3C//DTD SVG 1.1//EN"
 "http://www.w3.org/Graphics/SVG/1.1/DTD/svg11.dtd">
<!-- Generated by graphviz version 2.47.1 (20210421.1823)
 -->
<!-- Title: include/GameLogic/Squad/SquadTemplate.h Pages: 1 -->
<svg width="1518pt" height="554pt"
 viewBox="0.00 0.00 1518.00 554.00" xmlns="http://www.w3.org/2000/svg" xmlns:xlink="http://www.w3.org/1999/xlink">
<g id="graph0" class="graph" transform="scale(1 1) rotate(0) translate(4 550)">
<title>include/GameLogic/Squad/SquadTemplate.h</title>
<polygon fill="white" stroke="transparent" points="-4,4 -4,-550 1514,-550 1514,4 -4,4"/>
<!-- Node1 -->
<g id="node1" class="node">
<title>Node1</title>
<g id="a_node1"><a xlink:title=" ">
<polygon fill="#bfbfbf" stroke="black" points="1218.5,-515.5 1218.5,-545.5 1349.5,-545.5 1349.5,-515.5 1218.5,-515.5"/>
<text text-anchor="start" x="1226.5" y="-533.5" font-family="Helvetica,sans-Serif" font-size="10.00">include/GameLogic/Squad</text>
<text text-anchor="middle" x="1284" y="-522.5" font-family="Helvetica,sans-Serif" font-size="10.00">/SquadTemplate.h</text>
</a>
</g>
</g>
<!-- Node2 -->
<g id="node2" class="node">
<title>Node2</title>
<g id="a_node2"><a xlink:title=" ">
<polygon fill="white" stroke="#bfbfbf" points="1222,-56.5 1222,-75.5 1266,-75.5 1266,-56.5 1222,-56.5"/>
<text text-anchor="middle" x="1244" y="-63.5" font-family="Helvetica,sans-Serif" font-size="10.00">vector</text>
</a>
</g>
</g>
<!-- Node1&#45;&gt;Node2 -->
<g id="edge1" class="edge">
<title>Node1&#45;&gt;Node2</title>
<path fill="none" stroke="midnightblue" d="M1349.67,-523.61C1416.4,-513.59 1510,-486.59 1510,-414 1510,-414 1510,-414 1510,-177 1510,-76.94 1347.29,-66.11 1276.38,-66.14"/>
<polygon fill="midnightblue" stroke="midnightblue" points="1276.19,-62.64 1266.22,-66.22 1276.25,-69.64 1276.19,-62.64"/>
</g>
<!-- Node3 -->
<g id="node3" class="node">
<title>Node3</title>
<g id="a_node3"><a xlink:href="_factory_8h.html" target="_top" xlink:title=" ">
<polygon fill="white" stroke="black" points="553,-459.5 553,-478.5 689,-478.5 689,-459.5 553,-459.5"/>
<text text-anchor="middle" x="621" y="-466.5" font-family="Helvetica,sans-Serif" font-size="10.00">GameLogic/Units/Factory.h</text>
</a>
</g>
</g>
<!-- Node1&#45;&gt;Node3 -->
<g id="edge2" class="edge">
<title>Node1&#45;&gt;Node3</title>
<path fill="none" stroke="midnightblue" d="M1218.31,-523.6C1095.41,-512.58 831.24,-488.87 699.31,-477.03"/>
<polygon fill="midnightblue" stroke="midnightblue" points="699.55,-473.54 689.28,-476.13 698.92,-480.51 699.55,-473.54"/>
</g>
<!-- Node38 -->
<g id="node38" class="node">
<title>Node38</title>
<g id="a_node38"><a xlink:href="_gui_list_8h.html" target="_top" xlink:title=" ">
<polygon fill="white" stroke="black" points="1336,-403.5 1336,-422.5 1444,-422.5 1444,-403.5 1336,-403.5"/>
<text text-anchor="middle" x="1390" y="-410.5" font-family="Helvetica,sans-Serif" font-size="10.00">engine/GUI/GuiList.h</text>
</a>
</g>
</g>
<!-- Node1&#45;&gt;Node38 -->
<g id="edge72" class="edge">
<title>Node1&#45;&gt;Node38</title>
<path fill="none" stroke="midnightblue" d="M1289.48,-515.28C1295.85,-500.08 1307.49,-475.9 1323,-459 1334.62,-446.33 1350.49,-435.47 1363.87,-427.59"/>
<polygon fill="midnightblue" stroke="midnightblue" points="1365.67,-430.6 1372.65,-422.63 1362.22,-424.5 1365.67,-430.6"/>
</g>
<!-- Node40 -->
<g id="node40" class="node">
<title>Node40</title>
<g id="a_node40"><a xlink:href="_gui_scroll_8h.html" target="_top" xlink:title=" ">
<polygon fill="white" stroke="black" points="1332,-459.5 1332,-478.5 1448,-478.5 1448,-459.5 1332,-459.5"/>
<text text-anchor="middle" x="1390" y="-466.5" font-family="Helvetica,sans-Serif" font-size="10.00">engine/GUI/GuiScroll.h</text>
</a>
</g>
</g>
<!-- Node1&#45;&gt;Node40 -->
<g id="edge76" class="edge">
<title>Node1&#45;&gt;Node40</title>
<path fill="none" stroke="midnightblue" d="M1309.12,-515.4C1326.27,-505.77 1348.86,-493.09 1365.81,-483.58"/>
<polygon fill="midnightblue" stroke="midnightblue" points="1367.57,-486.6 1374.58,-478.66 1364.14,-480.5 1367.57,-486.6"/>
</g>
<!-- Node41 -->
<g id="node41" class="node">
<title>Node41</title>
<g id="a_node41"><a xlink:href="_button_8h.html" target="_top" xlink:title=" ">
<polygon fill="white" stroke="black" points="1212.5,-403.5 1212.5,-422.5 1317.5,-422.5 1317.5,-403.5 1212.5,-403.5"/>
<text text-anchor="middle" x="1265" y="-410.5" font-family="Helvetica,sans-Serif" font-size="10.00">engine/GUI/Button.h</text>
</a>
</g>
</g>
<!-- Node1&#45;&gt;Node41 -->
<g id="edge79" class="edge">
<title>Node1&#45;&gt;Node41</title>
<path fill="none" stroke="midnightblue" d="M1281.67,-515.34C1278.25,-494.53 1271.85,-455.66 1268.06,-432.58"/>
<polygon fill="midnightblue" stroke="midnightblue" points="1271.5,-431.97 1266.43,-422.67 1264.6,-433.1 1271.5,-431.97"/>
</g>
<!-- Node4 -->
<g id="node4" class="node">
<title>Node4</title>
<g id="a_node4"><a xlink:title=" ">
<polygon fill="white" stroke="#bfbfbf" points="116.5,-56.5 116.5,-75.5 157.5,-75.5 157.5,-56.5 116.5,-56.5"/>
<text text-anchor="middle" x="137" y="-63.5" font-family="Helvetica,sans-Serif" font-size="10.00">string</text>
</a>
</g>
</g>
<!-- Node3&#45;&gt;Node4 -->
<g id="edge3" class="edge">
<title>Node3&#45;&gt;Node4</title>
<path fill="none" stroke="midnightblue" d="M552.77,-463C391.45,-450.27 0,-413.64 0,-358 0,-358 0,-358 0,-238.5 0,-166.35 74.93,-107.12 113.96,-81.16"/>
<polygon fill="midnightblue" stroke="midnightblue" points="116.1,-83.94 122.6,-75.57 112.3,-78.06 116.1,-83.94"/>
</g>
<!-- Node5 -->
<g id="node5" class="node">
<title>Node5</title>
<g id="a_node5"><a xlink:href="_cell_8h.html" target="_top" xlink:title=" ">
<polygon fill="white" stroke="black" points="600.5,-403.5 600.5,-422.5 641.5,-422.5 641.5,-403.5 600.5,-403.5"/>
<text text-anchor="middle" x="621" y="-410.5" font-family="Helvetica,sans-Serif" font-size="10.00">Cell.h</text>
</a>
</g>
</g>
<!-- Node3&#45;&gt;Node5 -->
<g id="edge4" class="edge">
<title>Node3&#45;&gt;Node5</title>
<path fill="none" stroke="midnightblue" d="M621,-459.08C621,-452.01 621,-441.86 621,-432.99"/>
<polygon fill="midnightblue" stroke="midnightblue" points="624.5,-432.75 621,-422.75 617.5,-432.75 624.5,-432.75"/>
</g>
<!-- Node23 -->
<g id="node23" class="node">
<title>Node23</title>
<g id="a_node23"><a xlink:href="_unit_8h.html" target="_top" xlink:title=" ">
<polygon fill="white" stroke="black" points="110,-230 110,-249 232,-249 232,-230 110,-230"/>
<text text-anchor="middle" x="171" y="-237" font-family="Helvetica,sans-Serif" font-size="10.00">GameLogic/Units/Unit.h</text>
</a>
</g>
</g>
<!-- Node3&#45;&gt;Node23 -->
<g id="edge71" class="edge">
<title>Node3&#45;&gt;Node23</title>
<path fill="none" stroke="midnightblue" d="M568.5,-459.46C502.03,-446.93 385.72,-419.19 299,-367 249.45,-337.18 204.65,-284.36 183.62,-257.38"/>
<polygon fill="midnightblue" stroke="midnightblue" points="186.29,-255.11 177.43,-249.29 180.73,-259.36 186.29,-255.11"/>
</g>
<!-- Node6 -->
<g id="node6" class="node">
<title>Node6</title>
<g id="a_node6"><a xlink:href="gameplay_clickable_game_object_8h.html" target="_top" xlink:title=" ">
<polygon fill="white" stroke="black" points="556.5,-224.5 556.5,-254.5 685.5,-254.5 685.5,-224.5 556.5,-224.5"/>
<text text-anchor="start" x="564.5" y="-242.5" font-family="Helvetica,sans-Serif" font-size="10.00">engine/gameplayClickable</text>
<text text-anchor="middle" x="621" y="-231.5" font-family="Helvetica,sans-Serif" font-size="10.00">GameObject.h</text>
</a>
</g>
</g>
<!-- Node5&#45;&gt;Node6 -->
<g id="edge5" class="edge">
<title>Node5&#45;&gt;Node6</title>
<path fill="none" stroke="midnightblue" d="M621,-403.26C621,-377.97 621,-304.08 621,-265.15"/>
<polygon fill="midnightblue" stroke="midnightblue" points="624.5,-264.72 621,-254.72 617.5,-264.72 624.5,-264.72"/>
</g>
<!-- Node9 -->
<g id="node9" class="node">
<title>Node9</title>
<g id="a_node9"><a xlink:href="config_8h.html" target="_top" xlink:title=" ">
<polygon fill="white" stroke="black" points="389.5,-112.5 389.5,-131.5 470.5,-131.5 470.5,-112.5 389.5,-112.5"/>
<text text-anchor="middle" x="430" y="-119.5" font-family="Helvetica,sans-Serif" font-size="10.00">engine/config.h</text>
</a>
</g>
</g>
<!-- Node5&#45;&gt;Node9 -->
<g id="edge25" class="edge">
<title>Node5&#45;&gt;Node9</title>
<path fill="none" stroke="midnightblue" d="M600.25,-411.93C504.07,-411.41 104.73,-406.84 68,-367 57.83,-355.97 12.31,-248.72 95,-168 138.63,-125.41 301.33,-140.14 379,-131.83"/>
<polygon fill="midnightblue" stroke="midnightblue" points="379.9,-135.24 389.37,-130.5 379.01,-128.3 379.9,-135.24"/>
</g>
<!-- Node12 -->
<g id="node12" class="node">
<title>Node12</title>
<g id="a_node12"><a xlink:href="_facade_8h.html" target="_top" xlink:title=" ">
<polygon fill="white" stroke="black" points="230,-0.5 230,-19.5 286,-19.5 286,-0.5 230,-0.5"/>
<text text-anchor="middle" x="258" y="-7.5" font-family="Helvetica,sans-Serif" font-size="10.00">Facade.h</text>
</a>
</g>
</g>
<!-- Node5&#45;&gt;Node12 -->
<g id="edge26" class="edge">
<title>Node5&#45;&gt;Node12</title>
<path fill="none" stroke="midnightblue" d="M600.42,-411.77C548.46,-410.63 408.32,-404.06 299,-367 203.25,-334.54 155.78,-339.97 101,-255 53.05,-180.63 50.41,-124.02 107,-56 134.35,-23.13 184.61,-13.62 219.59,-11.2"/>
<polygon fill="midnightblue" stroke="midnightblue" points="220.11,-14.68 229.92,-10.66 219.75,-7.69 220.11,-14.68"/>
</g>
<!-- Node15 -->
<g id="node15" class="node">
<title>Node15</title>
<g id="a_node15"><a xlink:title=" ">
<polygon fill="white" stroke="#bfbfbf" points="692,-56.5 692,-75.5 746,-75.5 746,-56.5 692,-56.5"/>
<text text-anchor="middle" x="719" y="-63.5" font-family="Helvetica,sans-Serif" font-size="10.00">iostream</text>
</a>
</g>
</g>
<!-- Node5&#45;&gt;Node15 -->
<g id="edge47" class="edge">
<title>Node5&#45;&gt;Node15</title>
<path fill="none" stroke="midnightblue" d="M641.61,-410.9C690.53,-407.85 817.14,-397.41 918,-367 938.18,-360.92 941.19,-354.19 961,-347 1019.37,-325.83 1037.93,-333 1096,-311 1114.59,-303.96 1117.59,-298.48 1136,-291 1184.83,-271.15 1217.9,-297.55 1249,-255 1375.34,-82.16 896.35,-67.48 756.37,-66.83"/>
<polygon fill="midnightblue" stroke="midnightblue" points="756.14,-63.33 746.14,-66.8 756.13,-70.33 756.14,-63.33"/>
</g>
<!-- Node17 -->
<g id="node17" class="node">
<title>Node17</title>
<g id="a_node17"><a xlink:href="cellgen_8h.html" target="_top" xlink:title=" ">
<polygon fill="white" stroke="black" points="1016.5,-291.5 1016.5,-310.5 1087.5,-310.5 1087.5,-291.5 1016.5,-291.5"/>
<text text-anchor="middle" x="1052" y="-298.5" font-family="Helvetica,sans-Serif" font-size="10.00">util/cellgen.h</text>
</a>
</g>
</g>
<!-- Node5&#45;&gt;Node17 -->
<g id="edge16" class="edge">
<title>Node5&#45;&gt;Node17</title>
<path fill="none" stroke="midnightblue" d="M641.84,-409.97C686.29,-405.3 793.46,-392.21 880,-367 902.19,-360.54 906.47,-355.39 928,-347 958.01,-335.31 992.47,-322.88 1017.43,-314.06"/>
<polygon fill="midnightblue" stroke="midnightblue" points="1018.9,-317.25 1027.17,-310.63 1016.58,-310.65 1018.9,-317.25"/>
</g>
<!-- Node18 -->
<g id="node18" class="node">
<title>Node18</title>
<g id="a_node18"><a xlink:title=" ">
<polygon fill="white" stroke="#bfbfbf" points="1034.5,-230 1034.5,-249 1069.5,-249 1069.5,-230 1034.5,-230"/>
<text text-anchor="middle" x="1052" y="-237" font-family="Helvetica,sans-Serif" font-size="10.00">map</text>
</a>
</g>
</g>
<!-- Node5&#45;&gt;Node18 -->
<g id="edge46" class="edge">
<title>Node5&#45;&gt;Node18</title>
<path fill="none" stroke="midnightblue" d="M641.77,-405.66C668.44,-397.39 716.04,-382.17 756,-367 856.62,-328.8 973.37,-276.48 1025.03,-252.91"/>
<polygon fill="midnightblue" stroke="midnightblue" points="1026.55,-256.06 1034.19,-248.72 1023.64,-249.7 1026.55,-256.06"/>
</g>
<!-- Node20 -->
<g id="node20" class="node">
<title>Node20</title>
<g id="a_node20"><a xlink:href="_all_flags_8h.html" target="_top" xlink:title=" ">
<polygon fill="white" stroke="black" points="446.5,-168.5 446.5,-187.5 505.5,-187.5 505.5,-168.5 446.5,-168.5"/>
<text text-anchor="middle" x="476" y="-175.5" font-family="Helvetica,sans-Serif" font-size="10.00">AllFlags.h</text>
</a>
</g>
</g>
<!-- Node5&#45;&gt;Node20 -->
<g id="edge20" class="edge">
<title>Node5&#45;&gt;Node20</title>
<path fill="none" stroke="midnightblue" d="M615.67,-403.43C594.49,-369.4 516.06,-243.37 486.96,-196.61"/>
<polygon fill="midnightblue" stroke="midnightblue" points="489.79,-194.54 481.54,-187.9 483.85,-198.24 489.79,-194.54"/>
</g>
<!-- Node22 -->
<g id="node22" class="node">
<title>Node22</title>
<g id="a_node22"><a xlink:href="_squad_8h.html" target="_top" xlink:title=" ">
<polygon fill="white" stroke="black" points="269,-291.5 269,-310.5 321,-310.5 321,-291.5 269,-291.5"/>
<text text-anchor="middle" x="295" y="-298.5" font-family="Helvetica,sans-Serif" font-size="10.00">Squad.h</text>
</a>
</g>
</g>
<!-- Node5&#45;&gt;Node22 -->
<g id="edge27" class="edge">
<title>Node5&#45;&gt;Node22</title>
<path fill="none" stroke="midnightblue" d="M600.19,-411.78C537.06,-410.68 351.02,-404.26 307,-367 293.58,-355.64 288.66,-335.65 288.64,-320.82"/>
<polygon fill="midnightblue" stroke="midnightblue" points="292.14,-320.99 289.53,-310.73 285.17,-320.38 292.14,-320.99"/>
</g>
<!-- Node29 -->
<g id="node29" class="node">
<title>Node29</title>
<g id="a_node29"><a xlink:href="geometry_8h.html" target="_top" xlink:title=" ">
<polygon fill="white" stroke="black" points="970,-347.5 970,-366.5 1050,-366.5 1050,-347.5 970,-347.5"/>
<text text-anchor="middle" x="1010" y="-354.5" font-family="Helvetica,sans-Serif" font-size="10.00">util/geometry.h</text>
</a>
</g>
</g>
<!-- Node5&#45;&gt;Node29 -->
<g id="edge48" class="edge">
<title>Node5&#45;&gt;Node29</title>
<path fill="none" stroke="midnightblue" d="M641.81,-409.44C694.48,-402.9 837.33,-384.85 956,-367 957.27,-366.81 958.55,-366.61 959.85,-366.41"/>
<polygon fill="midnightblue" stroke="midnightblue" points="960.59,-369.84 969.92,-364.83 959.49,-362.93 960.59,-369.84"/>
</g>
<!-- Node30 -->
<g id="node30" class="node">
<title>Node30</title>
<g id="a_node30"><a xlink:href="_none_8h.html" target="_top" xlink:title=" ">
<polygon fill="white" stroke="black" points="618.5,-168.5 618.5,-187.5 731.5,-187.5 731.5,-168.5 618.5,-168.5"/>
<text text-anchor="middle" x="675" y="-175.5" font-family="Helvetica,sans-Serif" font-size="10.00">engine/actions/None.h</text>
</a>
</g>
</g>
<!-- Node5&#45;&gt;Node30 -->
<g id="edge51" class="edge">
<title>Node5&#45;&gt;Node30</title>
<path fill="none" stroke="midnightblue" d="M626.74,-403.29C641.51,-380.28 680.63,-315.46 694,-255 696.97,-241.55 696.73,-237.5 694,-224 692.11,-214.65 688.21,-204.83 684.43,-196.75"/>
<polygon fill="midnightblue" stroke="midnightblue" points="687.47,-195.01 679.88,-187.63 681.21,-198.14 687.47,-195.01"/>
</g>
<!-- Node31 -->
<g id="node31" class="node">
<title>Node31</title>
<g id="a_node31"><a xlink:href="game_controller_8h.html" target="_top" xlink:title=" ">
<polygon fill="white" stroke="black" points="742.5,-291.5 742.5,-310.5 863.5,-310.5 863.5,-291.5 742.5,-291.5"/>
<text text-anchor="middle" x="803" y="-298.5" font-family="Helvetica,sans-Serif" font-size="10.00">engine/gameController.h</text>
</a>
</g>
</g>
<!-- Node5&#45;&gt;Node31 -->
<g id="edge53" class="edge">
<title>Node5&#45;&gt;Node31</title>
<path fill="none" stroke="midnightblue" d="M641.65,-405.5C663.91,-398.01 699.93,-384.45 728,-367 750.72,-352.88 773.47,-331.98 787.85,-317.72"/>
<polygon fill="midnightblue" stroke="midnightblue" points="790.39,-320.13 794.93,-310.56 785.41,-315.21 790.39,-320.13"/>
</g>
<!-- Node35 -->
<g id="node35" class="node">
<title>Node35</title>
<g id="a_node35"><a xlink:href="_set_squad_path_8h.html" target="_top" xlink:title=" ">
<polygon fill="white" stroke="black" points="325.5,-347.5 325.5,-366.5 478.5,-366.5 478.5,-347.5 325.5,-347.5"/>
<text text-anchor="middle" x="402" y="-354.5" font-family="Helvetica,sans-Serif" font-size="10.00">engine/actions/SetSquadPath.h</text>
</a>
</g>
</g>
<!-- Node5&#45;&gt;Node35 -->
<g id="edge62" class="edge">
<title>Node5&#45;&gt;Node35</title>
<path fill="none" stroke="midnightblue" d="M600.37,-407.85C563.85,-399.64 487.92,-381.06 441.23,-369.05"/>
<polygon fill="midnightblue" stroke="midnightblue" points="442.02,-365.63 431.46,-366.52 440.26,-372.41 442.02,-365.63"/>
</g>
<!-- Node36 -->
<g id="node36" class="node">
<title>Node36</title>
<g id="a_node36"><a xlink:href="_all_units_8h.html" target="_top" xlink:title=" ">
<polygon fill="white" stroke="black" points="1194.5,-291.5 1194.5,-310.5 1253.5,-310.5 1253.5,-291.5 1194.5,-291.5"/>
<text text-anchor="middle" x="1224" y="-298.5" font-family="Helvetica,sans-Serif" font-size="10.00">AllUnits.h</text>
</a>
</g>
</g>
<!-- Node5&#45;&gt;Node36 -->
<g id="edge66" class="edge">
<title>Node5&#45;&gt;Node36</title>
<path fill="none" stroke="midnightblue" d="M641.62,-412.62C705.3,-413.97 903.87,-413.87 1059,-367 1077.27,-361.48 1079.52,-354.65 1097,-347 1126.51,-334.08 1161.03,-322.04 1186.62,-313.67"/>
<polygon fill="midnightblue" stroke="midnightblue" points="1187.87,-316.95 1196.31,-310.54 1185.71,-310.29 1187.87,-316.95"/>
</g>
<!-- Node37 -->
<g id="node37" class="node">
<title>Node37</title>
<g id="a_node37"><a xlink:href="_all_squad_templates_8h.html" target="_top" xlink:title=" ">
<polygon fill="white" stroke="black" points="1106.5,-347.5 1106.5,-366.5 1215.5,-366.5 1215.5,-347.5 1106.5,-347.5"/>
<text text-anchor="middle" x="1161" y="-354.5" font-family="Helvetica,sans-Serif" font-size="10.00">AllSquadTemplates.h</text>
</a>
</g>
</g>
<!-- Node5&#45;&gt;Node37 -->
<g id="edge68" class="edge">
<title>Node5&#45;&gt;Node37</title>
<path fill="none" stroke="midnightblue" d="M641.69,-410.28C707.53,-404.75 918.14,-386.64 1092,-367 1093.46,-366.83 1094.94,-366.66 1096.44,-366.49"/>
<polygon fill="midnightblue" stroke="midnightblue" points="1096.89,-369.96 1106.41,-365.3 1096.06,-363.01 1096.89,-369.96"/>
</g>
<!-- Node7 -->
<g id="node7" class="node">
<title>Node7</title>
<g id="a_node7"><a xlink:href="game_object_8h.html" target="_top" xlink:title=" ">
<polygon fill="white" stroke="black" points="749.5,-168.5 749.5,-187.5 826.5,-187.5 826.5,-168.5 749.5,-168.5"/>
<text text-anchor="middle" x="788" y="-175.5" font-family="Helvetica,sans-Serif" font-size="10.00">gameObject.h</text>
</a>
</g>
</g>
<!-- Node6&#45;&gt;Node7 -->
<g id="edge6" class="edge">
<title>Node6&#45;&gt;Node7</title>
<path fill="none" stroke="midnightblue" d="M660.58,-224.4C689.1,-214.24 727.17,-200.67 754.26,-191.02"/>
<polygon fill="midnightblue" stroke="midnightblue" points="755.45,-194.31 763.7,-187.66 753.11,-187.72 755.45,-194.31"/>
</g>
<!-- Node8 -->
<g id="node8" class="node">
<title>Node8</title>
<g id="a_node8"><a xlink:title=" ">
<polygon fill="white" stroke="#bfbfbf" points="991.5,-112.5 991.5,-131.5 1020.5,-131.5 1020.5,-112.5 991.5,-112.5"/>
<text text-anchor="middle" x="1006" y="-119.5" font-family="Helvetica,sans-Serif" font-size="10.00">list</text>
</a>
</g>
</g>
<!-- Node7&#45;&gt;Node8 -->
<g id="edge7" class="edge">
<title>Node7&#45;&gt;Node8</title>
<path fill="none" stroke="midnightblue" d="M822.54,-168.44C866.88,-157.46 942.69,-138.68 981.52,-129.06"/>
<polygon fill="midnightblue" stroke="midnightblue" points="982.56,-132.41 991.43,-126.61 980.88,-125.62 982.56,-132.41"/>
</g>
<!-- Node7&#45;&gt;Node9 -->
<g id="edge8" class="edge">
<title>Node7&#45;&gt;Node9</title>
<path fill="none" stroke="midnightblue" d="M749.25,-169.59C746.12,-169.04 743.01,-168.5 740,-168 648.97,-152.87 542.42,-138.02 480.92,-129.74"/>
<polygon fill="midnightblue" stroke="midnightblue" points="481.08,-126.23 470.71,-128.36 480.15,-133.16 481.08,-126.23"/>
</g>
<!-- Node14 -->
<g id="node14" class="node">
<title>Node14</title>
<g id="a_node14"><a xlink:href="engine_2_action_8h.html" target="_top" xlink:title=" ">
<polygon fill="white" stroke="black" points="633.5,-112.5 633.5,-131.5 716.5,-131.5 716.5,-112.5 633.5,-112.5"/>
<text text-anchor="middle" x="675" y="-119.5" font-family="Helvetica,sans-Serif" font-size="10.00">engine/Action.h</text>
</a>
</g>
</g>
<!-- Node7&#45;&gt;Node14 -->
<g id="edge13" class="edge">
<title>Node7&#45;&gt;Node14</title>
<path fill="none" stroke="midnightblue" d="M770.09,-168.44C751.75,-159.68 722.99,-145.94 701.91,-135.86"/>
<polygon fill="midnightblue" stroke="midnightblue" points="703.35,-132.67 692.82,-131.52 700.33,-138.99 703.35,-132.67"/>
</g>
<!-- Node10 -->
<g id="node10" class="node">
<title>Node10</title>
<g id="a_node10"><a xlink:href="_s_f_m_l_facade_8h.html" target="_top" xlink:title=" ">
<polygon fill="white" stroke="black" points="292.5,-56.5 292.5,-75.5 415.5,-75.5 415.5,-56.5 292.5,-56.5"/>
<text text-anchor="middle" x="354" y="-63.5" font-family="Helvetica,sans-Serif" font-size="10.00">graphics/SFMLFacade.h</text>
</a>
</g>
</g>
<!-- Node9&#45;&gt;Node10 -->
<g id="edge9" class="edge">
<title>Node9&#45;&gt;Node10</title>
<path fill="none" stroke="midnightblue" d="M417.79,-112.32C406.22,-104.11 388.62,-91.6 374.84,-81.81"/>
<polygon fill="midnightblue" stroke="midnightblue" points="376.61,-78.77 366.43,-75.83 372.56,-84.48 376.61,-78.77"/>
</g>
<!-- Node13 -->
<g id="node13" class="node">
<title>Node13</title>
<g id="a_node13"><a xlink:title=" ">
<polygon fill="white" stroke="#bfbfbf" points="434,-56.5 434,-75.5 532,-75.5 532,-56.5 434,-56.5"/>
<text text-anchor="middle" x="483" y="-63.5" font-family="Helvetica,sans-Serif" font-size="10.00">nlohmann/json.hpp</text>
</a>
</g>
</g>
<!-- Node9&#45;&gt;Node13 -->
<g id="edge12" class="edge">
<title>Node9&#45;&gt;Node13</title>
<path fill="none" stroke="midnightblue" d="M438.75,-112.08C446.47,-104.22 457.9,-92.57 467.22,-83.08"/>
<polygon fill="midnightblue" stroke="midnightblue" points="469.9,-85.34 474.41,-75.75 464.91,-80.44 469.9,-85.34"/>
</g>
<!-- Node11 -->
<g id="node11" class="node">
<title>Node11</title>
<g id="a_node11"><a xlink:title=" ">
<polygon fill="white" stroke="#bfbfbf" points="304,-0.5 304,-19.5 408,-19.5 408,-0.5 304,-0.5"/>
<text text-anchor="middle" x="356" y="-7.5" font-family="Helvetica,sans-Serif" font-size="10.00">SFML/Graphics.hpp</text>
</a>
</g>
</g>
<!-- Node10&#45;&gt;Node11 -->
<g id="edge10" class="edge">
<title>Node10&#45;&gt;Node11</title>
<path fill="none" stroke="midnightblue" d="M354.33,-56.08C354.59,-49.01 354.97,-38.86 355.3,-29.99"/>
<polygon fill="midnightblue" stroke="midnightblue" points="358.8,-29.87 355.68,-19.75 351.81,-29.61 358.8,-29.87"/>
</g>
<!-- Node10&#45;&gt;Node12 -->
<g id="edge11" class="edge">
<title>Node10&#45;&gt;Node12</title>
<path fill="none" stroke="midnightblue" d="M338.58,-56.32C323.46,-47.82 300.18,-34.73 282.53,-24.8"/>
<polygon fill="midnightblue" stroke="midnightblue" points="283.82,-21.51 273.39,-19.65 280.39,-27.61 283.82,-21.51"/>
</g>
<!-- Node14&#45;&gt;Node15 -->
<g id="edge14" class="edge">
<title>Node14&#45;&gt;Node15</title>
<path fill="none" stroke="midnightblue" d="M682.27,-112.08C688.54,-104.38 697.79,-93.03 705.43,-83.65"/>
<polygon fill="midnightblue" stroke="midnightblue" points="708.27,-85.71 711.87,-75.75 702.84,-81.29 708.27,-85.71"/>
</g>
<!-- Node16 -->
<g id="node16" class="node">
<title>Node16</title>
<g id="a_node16"><a xlink:title=" ">
<polygon fill="white" stroke="#bfbfbf" points="605.5,-56.5 605.5,-75.5 656.5,-75.5 656.5,-56.5 605.5,-56.5"/>
<text text-anchor="middle" x="631" y="-63.5" font-family="Helvetica,sans-Serif" font-size="10.00">memory</text>
</a>
</g>
</g>
<!-- Node14&#45;&gt;Node16 -->
<g id="edge15" class="edge">
<title>Node14&#45;&gt;Node16</title>
<path fill="none" stroke="midnightblue" d="M667.73,-112.08C661.46,-104.38 652.21,-93.03 644.57,-83.65"/>
<polygon fill="midnightblue" stroke="midnightblue" points="647.16,-81.29 638.13,-75.75 641.73,-85.71 647.16,-81.29"/>
</g>
<!-- Node17&#45;&gt;Node2 -->
<g id="edge17" class="edge">
<title>Node17&#45;&gt;Node2</title>
<path fill="none" stroke="midnightblue" d="M1087.89,-292.93C1135.89,-283.15 1216.01,-265.49 1225,-255 1266.59,-206.46 1255.88,-122.9 1248.39,-85.75"/>
<polygon fill="midnightblue" stroke="midnightblue" points="1251.77,-84.83 1246.23,-75.8 1244.93,-86.32 1251.77,-84.83"/>
</g>
<!-- Node17&#45;&gt;Node18 -->
<g id="edge18" class="edge">
<title>Node17&#45;&gt;Node18</title>
<path fill="none" stroke="midnightblue" d="M1052,-291.48C1052,-283.08 1052,-269.98 1052,-259.16"/>
<polygon fill="midnightblue" stroke="midnightblue" points="1055.5,-259.01 1052,-249.01 1048.5,-259.01 1055.5,-259.01"/>
</g>
<!-- Node19 -->
<g id="node19" class="node">
<title>Node19</title>
<g id="a_node19"><a xlink:title=" ">
<polygon fill="white" stroke="#bfbfbf" points="1088,-230 1088,-249 1216,-249 1216,-230 1088,-230"/>
<text text-anchor="middle" x="1152" y="-237" font-family="Helvetica,sans-Serif" font-size="10.00">scanline_triangulation.hpp</text>
</a>
</g>
</g>
<!-- Node17&#45;&gt;Node19 -->
<g id="edge19" class="edge">
<title>Node17&#45;&gt;Node19</title>
<path fill="none" stroke="midnightblue" d="M1066.33,-291.48C1082.66,-281.75 1109.6,-265.73 1128.91,-254.24"/>
<polygon fill="midnightblue" stroke="midnightblue" points="1130.89,-257.13 1137.7,-249.01 1127.32,-251.11 1130.89,-257.13"/>
</g>
<!-- Node20&#45;&gt;Node16 -->
<g id="edge24" class="edge">
<title>Node20&#45;&gt;Node16</title>
<path fill="none" stroke="midnightblue" d="M485.99,-168.1C500.79,-155.11 529.62,-130.49 556,-112 572.22,-100.63 591.38,-89.17 606.27,-80.65"/>
<polygon fill="midnightblue" stroke="midnightblue" points="608.38,-83.48 615.37,-75.52 604.94,-77.39 608.38,-83.48"/>
</g>
<!-- Node21 -->
<g id="node21" class="node">
<title>Node21</title>
<g id="a_node21"><a xlink:href="_flag_8h.html" target="_top" xlink:title=" ">
<polygon fill="white" stroke="black" points="565.5,-112.5 565.5,-131.5 608.5,-131.5 608.5,-112.5 565.5,-112.5"/>
<text text-anchor="middle" x="587" y="-119.5" font-family="Helvetica,sans-Serif" font-size="10.00">Flag.h</text>
</a>
</g>
</g>
<!-- Node20&#45;&gt;Node21 -->
<g id="edge21" class="edge">
<title>Node20&#45;&gt;Node21</title>
<path fill="none" stroke="midnightblue" d="M493.83,-168.32C511.72,-159.62 539.48,-146.12 560.05,-136.11"/>
<polygon fill="midnightblue" stroke="midnightblue" points="561.75,-139.18 569.21,-131.65 558.69,-132.88 561.75,-139.18"/>
</g>
<!-- Node21&#45;&gt;Node2 -->
<g id="edge22" class="edge">
<title>Node21&#45;&gt;Node2</title>
<path fill="none" stroke="midnightblue" d="M608.79,-115.06C613.76,-113.89 619.04,-112.78 624,-112 847.07,-77.02 1119.63,-69.16 1211.8,-67.46"/>
<polygon fill="midnightblue" stroke="midnightblue" points="1211.95,-70.95 1221.88,-67.28 1211.82,-63.95 1211.95,-70.95"/>
</g>
<!-- Node21&#45;&gt;Node4 -->
<g id="edge23" class="edge">
<title>Node21&#45;&gt;Node4</title>
<path fill="none" stroke="midnightblue" d="M565.3,-118.4C491.97,-109.6 253.3,-80.96 167.81,-70.7"/>
<polygon fill="midnightblue" stroke="midnightblue" points="168.05,-67.2 157.71,-69.48 167.22,-74.15 168.05,-67.2"/>
</g>
<!-- Node22&#45;&gt;Node5 -->
<g id="edge28" class="edge">
<title>Node22&#45;&gt;Node5</title>
<path fill="none" stroke="midnightblue" d="M300.62,-310.73C304.71,-324.89 308.16,-352.75 325,-367 365.04,-400.89 522.58,-409.26 590.16,-411.33"/>
<polygon fill="midnightblue" stroke="midnightblue" points="590.11,-414.83 600.21,-411.61 590.31,-407.83 590.11,-414.83"/>
</g>
<!-- Node22&#45;&gt;Node6 -->
<g id="edge40" class="edge">
<title>Node22&#45;&gt;Node6</title>
<path fill="none" stroke="midnightblue" d="M321.13,-295.23C369.47,-286.41 474.49,-267.24 546.48,-254.1"/>
<polygon fill="midnightblue" stroke="midnightblue" points="547.2,-257.53 556.41,-252.29 545.95,-250.64 547.2,-257.53"/>
</g>
<!-- Node22&#45;&gt;Node9 -->
<g id="edge44" class="edge">
<title>Node22&#45;&gt;Node9</title>
<path fill="none" stroke="midnightblue" d="M295.21,-291.37C296.04,-276.01 299.85,-243.67 317,-224 342.89,-194.31 369.6,-215.3 398,-188 411.29,-175.22 419.86,-155.75 424.75,-141.46"/>
<polygon fill="midnightblue" stroke="midnightblue" points="428.15,-142.31 427.79,-131.73 421.47,-140.23 428.15,-142.31"/>
</g>
<!-- Node22&#45;&gt;Node12 -->
<g id="edge45" class="edge">
<title>Node22&#45;&gt;Node12</title>
<path fill="none" stroke="midnightblue" d="M290.71,-291.44C281.36,-271.99 260,-222.74 260,-179 260,-179 260,-179 260,-121 260,-88.94 259.14,-51.64 258.55,-29.75"/>
<polygon fill="midnightblue" stroke="midnightblue" points="262.04,-29.45 258.26,-19.56 255.04,-29.65 262.04,-29.45"/>
</g>
<!-- Node22&#45;&gt;Node23 -->
<g id="edge29" class="edge">
<title>Node22&#45;&gt;Node23</title>
<path fill="none" stroke="midnightblue" d="M272.33,-291.48C249.65,-281.62 215.33,-265.29 192.93,-253.77"/>
<polygon fill="midnightblue" stroke="midnightblue" points="194.32,-250.55 183.84,-249.01 191.07,-256.75 194.32,-250.55"/>
</g>
<!-- Node28 -->
<g id="node28" class="node">
<title>Node28</title>
<g id="a_node28"><a xlink:href="_game_logic_2_squad_2_action_8h.html" target="_top" xlink:title=" ">
<polygon fill="white" stroke="black" points="326,-230 326,-249 462,-249 462,-230 326,-230"/>
<text text-anchor="middle" x="394" y="-237" font-family="Helvetica,sans-Serif" font-size="10.00">GameLogic/Squad/Action.h</text>
</a>
</g>
</g>
<!-- Node22&#45;&gt;Node28 -->
<g id="edge41" class="edge">
<title>Node22&#45;&gt;Node28</title>
<path fill="none" stroke="midnightblue" d="M304.28,-291.48C318.46,-281.67 345.19,-265.43 365.91,-253.92"/>
<polygon fill="midnightblue" stroke="midnightblue" points="367.83,-256.86 374.94,-249.01 364.49,-250.72 367.83,-256.86"/>
</g>
<!-- Node23&#45;&gt;Node20 -->
<g id="edge35" class="edge">
<title>Node23&#45;&gt;Node20</title>
<path fill="none" stroke="midnightblue" d="M214.7,-229.98C273.93,-218.42 378.87,-197.95 436.08,-186.79"/>
<polygon fill="midnightblue" stroke="midnightblue" points="437.04,-190.17 446.19,-184.82 435.7,-183.3 437.04,-190.17"/>
</g>
<!-- Node23&#45;&gt;Node22 -->
<g id="edge34" class="edge">
<title>Node23&#45;&gt;Node22</title>
<path fill="none" stroke="midnightblue" d="M193.63,-249.01C216.3,-258.86 250.62,-275.19 273.04,-286.71"/>
<polygon fill="midnightblue" stroke="midnightblue" points="271.65,-289.94 282.13,-291.48 274.9,-283.74 271.65,-289.94"/>
</g>
<!-- Node24 -->
<g id="node24" class="node">
<title>Node24</title>
<g id="a_node24"><a xlink:title=" ">
<polygon fill="white" stroke="#bfbfbf" points="188.5,-168.5 188.5,-187.5 231.5,-187.5 231.5,-168.5 188.5,-168.5"/>
<text text-anchor="middle" x="210" y="-175.5" font-family="Helvetica,sans-Serif" font-size="10.00">cstdio</text>
</a>
</g>
</g>
<!-- Node23&#45;&gt;Node24 -->
<g id="edge30" class="edge">
<title>Node23&#45;&gt;Node24</title>
<path fill="none" stroke="midnightblue" d="M176.59,-229.98C182.38,-221.14 191.59,-207.09 198.87,-195.98"/>
<polygon fill="midnightblue" stroke="midnightblue" points="201.87,-197.79 204.42,-187.51 196.01,-193.95 201.87,-197.79"/>
</g>
<!-- Node25 -->
<g id="node25" class="node">
<title>Node25</title>
<g id="a_node25"><a xlink:href="_unit_order_8h.html" target="_top" xlink:title=" ">
<polygon fill="white" stroke="black" points="104,-168.5 104,-187.5 170,-187.5 170,-168.5 104,-168.5"/>
<text text-anchor="middle" x="137" y="-175.5" font-family="Helvetica,sans-Serif" font-size="10.00">UnitOrder.h</text>
</a>
</g>
</g>
<!-- Node23&#45;&gt;Node25 -->
<g id="edge31" class="edge">
<title>Node23&#45;&gt;Node25</title>
<path fill="none" stroke="midnightblue" d="M161.23,-229.98C154.46,-221.4 146.31,-207.93 141.02,-196.98"/>
<polygon fill="midnightblue" stroke="midnightblue" points="144.12,-195.33 136.97,-187.51 137.68,-198.08 144.12,-195.33"/>
</g>
<!-- Node26 -->
<g id="node26" class="node">
<title>Node26</title>
<g id="a_node26"><a xlink:href="_textures_8h.html" target="_top" xlink:title=" ">
<polygon fill="white" stroke="black" points="288.5,-168.5 288.5,-187.5 389.5,-187.5 389.5,-168.5 288.5,-168.5"/>
<text text-anchor="middle" x="339" y="-175.5" font-family="Helvetica,sans-Serif" font-size="10.00">graphics/Textures.h</text>
</a>
</g>
</g>
<!-- Node23&#45;&gt;Node26 -->
<g id="edge36" class="edge">
<title>Node23&#45;&gt;Node26</title>
<path fill="none" stroke="midnightblue" d="M195.07,-229.98C224.01,-219.72 272.76,-202.46 305.4,-190.9"/>
<polygon fill="midnightblue" stroke="midnightblue" points="306.72,-194.15 314.97,-187.51 304.38,-187.55 306.72,-194.15"/>
</g>
<!-- Node25&#45;&gt;Node4 -->
<g id="edge32" class="edge">
<title>Node25&#45;&gt;Node4</title>
<path fill="none" stroke="midnightblue" d="M137,-168.37C137,-150.62 137,-109.67 137,-85.6"/>
<polygon fill="midnightblue" stroke="midnightblue" points="140.5,-85.59 137,-75.59 133.5,-85.59 140.5,-85.59"/>
</g>
<!-- Node25&#45;&gt;Node23 -->
<g id="edge33" class="edge">
<title>Node25&#45;&gt;Node23</title>
<path fill="none" stroke="midnightblue" d="M146.76,-187.51C153.53,-196.07 161.68,-209.55 166.97,-220.5"/>
<polygon fill="midnightblue" stroke="midnightblue" points="163.88,-222.16 171.03,-229.98 170.31,-219.4 163.88,-222.16"/>
</g>
<!-- Node26&#45;&gt;Node2 -->
<g id="edge38" class="edge">
<title>Node26&#45;&gt;Node2</title>
<path fill="none" stroke="midnightblue" d="M364.79,-168.47C413.74,-152.43 518.55,-118.74 556,-112 805.24,-67.12 1112.42,-65.68 1211.54,-66.54"/>
<polygon fill="midnightblue" stroke="midnightblue" points="1211.76,-70.04 1221.8,-66.64 1211.84,-63.04 1211.76,-70.04"/>
</g>
<!-- Node26&#45;&gt;Node9 -->
<g id="edge37" class="edge">
<title>Node26&#45;&gt;Node9</title>
<path fill="none" stroke="midnightblue" d="M353.62,-168.32C367.95,-159.82 390.01,-146.73 406.75,-136.8"/>
<polygon fill="midnightblue" stroke="midnightblue" points="408.6,-139.77 415.42,-131.65 405.03,-133.75 408.6,-139.77"/>
</g>
<!-- Node27 -->
<g id="node27" class="node">
<title>Node27</title>
<g id="a_node27"><a xlink:title=" ">
<polygon fill="white" stroke="#bfbfbf" points="288.5,-112.5 288.5,-131.5 371.5,-131.5 371.5,-112.5 288.5,-112.5"/>
<text text-anchor="middle" x="330" y="-119.5" font-family="Helvetica,sans-Serif" font-size="10.00">unordered_map</text>
</a>
</g>
</g>
<!-- Node26&#45;&gt;Node27 -->
<g id="edge39" class="edge">
<title>Node26&#45;&gt;Node27</title>
<path fill="none" stroke="midnightblue" d="M337.51,-168.08C336.32,-160.93 334.61,-150.64 333.12,-141.69"/>
<polygon fill="midnightblue" stroke="midnightblue" points="336.55,-141.04 331.46,-131.75 329.65,-142.19 336.55,-141.04"/>
</g>
<!-- Node28&#45;&gt;Node5 -->
<g id="edge43" class="edge">
<title>Node28&#45;&gt;Node5</title>
<path fill="none" stroke="midnightblue" d="M401.64,-249.07C421.39,-270.85 476.4,-329.28 531,-367 549.8,-379.99 572.88,-391.45 590.96,-399.55"/>
<polygon fill="midnightblue" stroke="midnightblue" points="589.87,-402.9 600.43,-403.7 592.67,-396.48 589.87,-402.9"/>
</g>
<!-- Node28&#45;&gt;Node22 -->
<g id="edge42" class="edge">
<title>Node28&#45;&gt;Node22</title>
<path fill="none" stroke="midnightblue" d="M384.74,-249.01C370.57,-258.81 343.85,-275.04 323.12,-286.56"/>
<polygon fill="midnightblue" stroke="midnightblue" points="321.19,-283.62 314.08,-291.48 324.54,-289.77 321.19,-283.62"/>
</g>
<!-- Node29&#45;&gt;Node2 -->
<g id="edge49" class="edge">
<title>Node29&#45;&gt;Node2</title>
<path fill="none" stroke="midnightblue" d="M1035.22,-347.36C1060.75,-338.53 1101.29,-324.28 1136,-311 1157.97,-302.6 1162.62,-298.23 1185,-291 1249.83,-270.07 1291.86,-308.53 1334,-255 1373.31,-205.06 1367.41,-166.06 1334,-112 1321.43,-91.66 1296.57,-80.21 1276.16,-73.95"/>
<polygon fill="midnightblue" stroke="midnightblue" points="1276.85,-70.51 1266.28,-71.21 1274.98,-77.25 1276.85,-70.51"/>
</g>
<!-- Node29&#45;&gt;Node17 -->
<g id="edge50" class="edge">
<title>Node29&#45;&gt;Node17</title>
<path fill="none" stroke="midnightblue" d="M1016.94,-347.08C1022.93,-339.38 1031.75,-328.03 1039.05,-318.65"/>
<polygon fill="midnightblue" stroke="midnightblue" points="1041.82,-320.79 1045.19,-310.75 1036.29,-316.5 1041.82,-320.79"/>
</g>
<!-- Node30&#45;&gt;Node14 -->
<g id="edge52" class="edge">
<title>Node30&#45;&gt;Node14</title>
<path fill="none" stroke="midnightblue" d="M675,-168.08C675,-161.01 675,-150.86 675,-141.99"/>
<polygon fill="midnightblue" stroke="midnightblue" points="678.5,-141.75 675,-131.75 671.5,-141.75 678.5,-141.75"/>
</g>
<!-- Node31&#45;&gt;Node7 -->
<g id="edge55" class="edge">
<title>Node31&#45;&gt;Node7</title>
<path fill="none" stroke="midnightblue" d="M794.25,-291.29C786.44,-282.84 775.55,-269.25 771,-255 764.78,-235.54 771.83,-212.57 778.65,-197.01"/>
<polygon fill="midnightblue" stroke="midnightblue" points="782.01,-198.1 783.17,-187.57 775.7,-195.08 782.01,-198.1"/>
</g>
<!-- Node31&#45;&gt;Node8 -->
<g id="edge54" class="edge">
<title>Node31&#45;&gt;Node8</title>
<path fill="none" stroke="midnightblue" d="M863.57,-292.42C910.27,-285.29 969.56,-273 986,-255 1014.43,-223.86 1012.55,-170.31 1009.09,-141.93"/>
<polygon fill="midnightblue" stroke="midnightblue" points="1012.51,-141.17 1007.64,-131.76 1005.58,-142.16 1012.51,-141.17"/>
</g>
<!-- Node32 -->
<g id="node32" class="node">
<title>Node32</title>
<g id="a_node32"><a xlink:href="_network_manager_8h.html" target="_top" xlink:title=" ">
<polygon fill="white" stroke="black" points="780,-230 780,-249 910,-249 910,-230 780,-230"/>
<text text-anchor="middle" x="845" y="-237" font-family="Helvetica,sans-Serif" font-size="10.00">engine/NetworkManager.h</text>
</a>
</g>
</g>
<!-- Node31&#45;&gt;Node32 -->
<g id="edge56" class="edge">
<title>Node31&#45;&gt;Node32</title>
<path fill="none" stroke="midnightblue" d="M809.02,-291.48C815.26,-282.64 825.17,-268.59 833.02,-257.48"/>
<polygon fill="midnightblue" stroke="midnightblue" points="836.09,-259.2 838.99,-249.01 830.37,-255.16 836.09,-259.2"/>
</g>
<!-- Node34 -->
<g id="node34" class="node">
<title>Node34</title>
<g id="a_node34"><a xlink:title=" ">
<polygon fill="white" stroke="#bfbfbf" points="928.5,-230 928.5,-249 977.5,-249 977.5,-230 928.5,-230"/>
<text text-anchor="middle" x="953" y="-237" font-family="Helvetica,sans-Serif" font-size="10.00">random</text>
</a>
</g>
</g>
<!-- Node31&#45;&gt;Node34 -->
<g id="edge61" class="edge">
<title>Node31&#45;&gt;Node34</title>
<path fill="none" stroke="midnightblue" d="M825.76,-291.43C849.21,-282.53 886.79,-268.11 919,-255 920.59,-254.35 922.23,-253.68 923.87,-253"/>
<polygon fill="midnightblue" stroke="midnightblue" points="925.41,-256.15 933.27,-249.04 922.69,-249.69 925.41,-256.15"/>
</g>
<!-- Node32&#45;&gt;Node2 -->
<g id="edge59" class="edge">
<title>Node32&#45;&gt;Node2</title>
<path fill="none" stroke="midnightblue" d="M861.91,-229.96C878.77,-220.95 904.83,-205.64 924,-188 955.27,-159.23 945.65,-134.01 982,-112 1020.17,-88.88 1150.19,-75.01 1211.5,-69.61"/>
<polygon fill="midnightblue" stroke="midnightblue" points="1212.1,-73.07 1221.77,-68.73 1211.5,-66.1 1212.1,-73.07"/>
</g>
<!-- Node32&#45;&gt;Node7 -->
<g id="edge57" class="edge">
<title>Node32&#45;&gt;Node7</title>
<path fill="none" stroke="midnightblue" d="M836.83,-229.98C828.11,-220.87 814.1,-206.24 803.31,-194.98"/>
<polygon fill="midnightblue" stroke="midnightblue" points="805.6,-192.31 796.15,-187.51 800.54,-197.15 805.6,-192.31"/>
</g>
<!-- Node32&#45;&gt;Node30 -->
<g id="edge58" class="edge">
<title>Node32&#45;&gt;Node30</title>
<path fill="none" stroke="midnightblue" d="M820.64,-229.98C791.36,-219.72 742.03,-202.46 709,-190.9"/>
<polygon fill="midnightblue" stroke="midnightblue" points="709.91,-187.51 699.31,-187.51 707.59,-194.12 709.91,-187.51"/>
</g>
<!-- Node33 -->
<g id="node33" class="node">
<title>Node33</title>
<g id="a_node33"><a xlink:title=" ">
<polygon fill="white" stroke="#bfbfbf" points="844.5,-168.5 844.5,-187.5 915.5,-187.5 915.5,-168.5 844.5,-168.5"/>
<text text-anchor="middle" x="880" y="-175.5" font-family="Helvetica,sans-Serif" font-size="10.00">sys/socket.h</text>
</a>
</g>
</g>
<!-- Node32&#45;&gt;Node33 -->
<g id="edge60" class="edge">
<title>Node32&#45;&gt;Node33</title>
<path fill="none" stroke="midnightblue" d="M850.01,-229.98C855.16,-221.23 863.31,-207.37 869.82,-196.31"/>
<polygon fill="midnightblue" stroke="midnightblue" points="872.94,-197.9 874.99,-187.51 866.91,-194.35 872.94,-197.9"/>
</g>
<!-- Node35&#45;&gt;Node5 -->
<g id="edge65" class="edge">
<title>Node35&#45;&gt;Node5</title>
<path fill="none" stroke="midnightblue" d="M441.59,-366.51C484.48,-376.54 551.74,-393.12 590.66,-403.25"/>
<polygon fill="midnightblue" stroke="midnightblue" points="589.81,-406.65 600.37,-405.81 591.59,-399.88 589.81,-406.65"/>
</g>
<!-- Node35&#45;&gt;Node14 -->
<g id="edge63" class="edge">
<title>Node35&#45;&gt;Node14</title>
<path fill="none" stroke="midnightblue" d="M410.68,-347.28C438.4,-319.62 527.73,-231.93 609,-168 622.95,-157.03 639.44,-145.78 652.45,-137.28"/>
<polygon fill="midnightblue" stroke="midnightblue" points="654.72,-139.98 661.22,-131.61 650.92,-134.1 654.72,-139.98"/>
</g>
<!-- Node35&#45;&gt;Node22 -->
<g id="edge64" class="edge">
<title>Node35&#45;&gt;Node22</title>
<path fill="none" stroke="midnightblue" d="M384.81,-347.32C367.65,-338.66 341.05,-325.24 321.25,-315.25"/>
<polygon fill="midnightblue" stroke="midnightblue" points="322.65,-312.04 312.15,-310.65 319.5,-318.28 322.65,-312.04"/>
</g>
<!-- Node36&#45;&gt;Node3 -->
<g id="edge67" class="edge">
<title>Node36&#45;&gt;Node3</title>
<path fill="none" stroke="midnightblue" d="M1227.18,-310.77C1231.55,-324.51 1237.41,-351.15 1224,-367 1157.66,-445.38 847.15,-462.97 699.45,-466.89"/>
<polygon fill="midnightblue" stroke="midnightblue" points="699.02,-463.4 689.11,-467.15 699.19,-470.4 699.02,-463.4"/>
</g>
<!-- Node37&#45;&gt;Node1 -->
<g id="edge69" class="edge">
<title>Node37&#45;&gt;Node1</title>
<path fill="none" stroke="midnightblue" d="M1166.23,-366.55C1173.99,-379.11 1189.11,-403.2 1203,-423 1223.88,-452.75 1249.49,-485.91 1266.25,-507.2"/>
<polygon fill="midnightblue" stroke="midnightblue" points="1263.69,-509.61 1272.64,-515.29 1269.19,-505.27 1263.69,-509.61"/>
</g>
<!-- Node37&#45;&gt;Node36 -->
<g id="edge70" class="edge">
<title>Node37&#45;&gt;Node36</title>
<path fill="none" stroke="midnightblue" d="M1171.12,-347.32C1180.53,-339.26 1194.74,-327.08 1206.07,-317.37"/>
<polygon fill="midnightblue" stroke="midnightblue" points="1208.38,-320 1213.69,-310.83 1203.82,-314.68 1208.38,-320"/>
</g>
<!-- Node38&#45;&gt;Node2 -->
<g id="edge75" class="edge">
<title>Node38&#45;&gt;Node2</title>
<path fill="none" stroke="midnightblue" d="M1396.12,-403.35C1408.21,-385.38 1434,-342.31 1434,-302 1434,-302 1434,-302 1434,-177 1434,-105 1330.54,-79.36 1276.31,-70.87"/>
<polygon fill="midnightblue" stroke="midnightblue" points="1276.57,-67.37 1266.17,-69.39 1275.56,-74.3 1276.57,-67.37"/>
</g>
<!-- Node39 -->
<g id="node39" class="node">
<title>Node39</title>
<g id="a_node39"><a xlink:href="_gui_object_8h.html" target="_top" xlink:title=" ">
<polygon fill="white" stroke="black" points="1272,-347.5 1272,-366.5 1392,-366.5 1392,-347.5 1272,-347.5"/>
<text text-anchor="middle" x="1332" y="-354.5" font-family="Helvetica,sans-Serif" font-size="10.00">engine/GUI/GuiObject.h</text>
</a>
</g>
</g>
<!-- Node38&#45;&gt;Node39 -->
<g id="edge73" class="edge">
<title>Node38&#45;&gt;Node39</title>
<path fill="none" stroke="midnightblue" d="M1380.68,-403.32C1372.11,-395.34 1359.19,-383.31 1348.81,-373.65"/>
<polygon fill="midnightblue" stroke="midnightblue" points="1351.19,-371.09 1341.49,-366.83 1346.42,-376.21 1351.19,-371.09"/>
</g>
<!-- Node39&#45;&gt;Node7 -->
<g id="edge74" class="edge">
<title>Node39&#45;&gt;Node7</title>
<path fill="none" stroke="midnightblue" d="M1328,-347.22C1316.28,-322.65 1279.38,-253.06 1225,-224 1150.86,-184.38 936.52,-199.09 836.82,-187.99"/>
<polygon fill="midnightblue" stroke="midnightblue" points="837.04,-184.49 826.68,-186.72 836.16,-191.44 837.04,-184.49"/>
</g>
<!-- Node40&#45;&gt;Node8 -->
<g id="edge78" class="edge">
<title>Node40&#45;&gt;Node8</title>
<path fill="none" stroke="midnightblue" d="M1410.85,-459.43C1425.58,-452.13 1444.2,-440.09 1453,-423 1457.07,-415.1 1456.25,-411.27 1453,-403 1434.14,-354.98 1307.75,-253.67 1259,-224 1181.23,-176.66 1077.36,-143.4 1030.62,-129.82"/>
<polygon fill="midnightblue" stroke="midnightblue" points="1031.35,-126.39 1020.78,-127.01 1029.43,-133.12 1031.35,-126.39"/>
</g>
<!-- Node40&#45;&gt;Node38 -->
<g id="edge77" class="edge">
<title>Node40&#45;&gt;Node38</title>
<path fill="none" stroke="midnightblue" d="M1390,-459.08C1390,-452.01 1390,-441.86 1390,-432.99"/>
<polygon fill="midnightblue" stroke="midnightblue" points="1393.5,-432.75 1390,-422.75 1386.5,-432.75 1393.5,-432.75"/>
</g>
<!-- Node41&#45;&gt;Node39 -->
<g id="edge80" class="edge">
<title>Node41&#45;&gt;Node39</title>
<path fill="none" stroke="midnightblue" d="M1275.76,-403.32C1285.77,-395.26 1300.89,-383.08 1312.93,-373.37"/>
<polygon fill="midnightblue" stroke="midnightblue" points="1315.45,-375.83 1321.04,-366.83 1311.06,-370.38 1315.45,-375.83"/>
</g>
</g>
</svg>
