<?xml version="1.0" encoding="UTF-8" standalone="no"?>
<!DOCTYPE svg PUBLIC "-//W3C//DTD SVG 1.1//EN"
 "http://www.w3.org/Graphics/SVG/1.1/DTD/svg11.dtd">
<!-- Generated by graphviz version 2.47.0 (20210407.0042)
 -->
<!-- Title: src/GameLogic/Squad/SquadTemplate.cpp Pages: 1 -->
<svg width="1595pt" height="610pt"
 viewBox="0.00 0.00 1595.00 610.00" xmlns="http://www.w3.org/2000/svg" xmlns:xlink="http://www.w3.org/1999/xlink">
<g id="graph0" class="graph" transform="scale(1 1) rotate(0) translate(4 606)">
<title>src/GameLogic/Squad/SquadTemplate.cpp</title>
<polygon fill="white" stroke="transparent" points="-4,4 -4,-606 1591,-606 1591,4 -4,4"/>
<!-- Node1 -->
<g id="node1" class="node">
<title>Node1</title>
<g id="a_node1"><a xlink:title=" ">
<polygon fill="#bfbfbf" stroke="black" points="1161,-571.5 1161,-601.5 1275,-601.5 1275,-571.5 1161,-571.5"/>
<text text-anchor="start" x="1169" y="-589.5" font-family="Helvetica,sans-Serif" font-size="10.00">src/GameLogic/Squad</text>
<text text-anchor="middle" x="1218" y="-578.5" font-family="Helvetica,sans-Serif" font-size="10.00">/SquadTemplate.cpp</text>
</a>
</g>
</g>
<!-- Node2 -->
<g id="node2" class="node">
<title>Node2</title>
<g id="a_node2"><a xlink:href="_squad_template_8h.html" target="_top" xlink:title=" ">
<polygon fill="white" stroke="black" points="1072,-515.5 1072,-534.5 1248,-534.5 1248,-515.5 1072,-515.5"/>
<text text-anchor="middle" x="1160" y="-522.5" font-family="Helvetica,sans-Serif" font-size="10.00">GameLogic/Squad/SquadTemplate.h</text>
</a>
</g>
</g>
<!-- Node1&#45;&gt;Node2 -->
<g id="edge1" class="edge">
<title>Node1&#45;&gt;Node2</title>
<path fill="none" stroke="midnightblue" d="M1204.25,-571.4C1195.65,-562.58 1184.55,-551.18 1175.61,-542.02"/>
<polygon fill="midnightblue" stroke="midnightblue" points="1177.93,-539.38 1168.44,-534.66 1172.91,-544.26 1177.93,-539.38"/>
</g>
<!-- Node17 -->
<g id="node17" class="node">
<title>Node17</title>
<g id="a_node17"><a xlink:title=" ">
<polygon fill="white" stroke="#bfbfbf" points="495.5,-56.5 495.5,-75.5 546.5,-75.5 546.5,-56.5 495.5,-56.5"/>
<text text-anchor="middle" x="521" y="-63.5" font-family="Helvetica,sans-Serif" font-size="10.00">memory</text>
</a>
</g>
</g>
<!-- Node1&#45;&gt;Node17 -->
<g id="edge77" class="edge">
<title>Node1&#45;&gt;Node17</title>
<path fill="none" stroke="midnightblue" d="M1160.74,-585.11C950.44,-583.38 228.04,-574.58 133,-535 29.76,-492.01 38,-413.83 38,-302 38,-302 38,-302 38,-177 38,-77.73 366.84,-96.18 485.31,-75.98"/>
<polygon fill="midnightblue" stroke="midnightblue" points="486.28,-79.36 495.44,-74.05 484.96,-72.49 486.28,-79.36"/>
</g>
<!-- Node37 -->
<g id="node37" class="node">
<title>Node37</title>
<g id="a_node37"><a xlink:href="_all_units_8h.html" target="_top" xlink:title=" ">
<polygon fill="white" stroke="black" points="160.5,-291.5 160.5,-310.5 219.5,-310.5 219.5,-291.5 160.5,-291.5"/>
<text text-anchor="middle" x="190" y="-298.5" font-family="Helvetica,sans-Serif" font-size="10.00">AllUnits.h</text>
</a>
</g>
</g>
<!-- Node1&#45;&gt;Node37 -->
<g id="edge80" class="edge">
<title>Node1&#45;&gt;Node37</title>
<path fill="none" stroke="midnightblue" d="M1160.98,-585.79C929.97,-586.2 76,-580.29 76,-470 76,-470 76,-470 76,-412 76,-381.9 75.46,-369.9 95,-347 109.32,-330.21 131.31,-319.24 150.53,-312.34"/>
<polygon fill="midnightblue" stroke="midnightblue" points="151.89,-315.58 160.27,-309.1 149.68,-308.94 151.89,-315.58"/>
</g>
<!-- Node41 -->
<g id="node41" class="node">
<title>Node41</title>
<g id="a_node41"><a xlink:href="_button_8h.html" target="_top" xlink:title=" ">
<polygon fill="white" stroke="black" points="1251.5,-459.5 1251.5,-478.5 1356.5,-478.5 1356.5,-459.5 1251.5,-459.5"/>
<text text-anchor="middle" x="1304" y="-466.5" font-family="Helvetica,sans-Serif" font-size="10.00">engine/GUI/Button.h</text>
</a>
</g>
</g>
<!-- Node1&#45;&gt;Node41 -->
<g id="edge78" class="edge">
<title>Node1&#45;&gt;Node41</title>
<path fill="none" stroke="midnightblue" d="M1229.05,-571.44C1236.92,-561.36 1247.72,-547.42 1257,-535 1269.06,-518.87 1282.49,-500.22 1291.9,-487.04"/>
<polygon fill="midnightblue" stroke="midnightblue" points="1294.75,-489.07 1297.7,-478.9 1289.05,-485.01 1294.75,-489.07"/>
</g>
<!-- Node42 -->
<g id="node42" class="node">
<title>Node42</title>
<g id="a_node42"><a xlink:href="_gui_strip_8h.html" target="_top" xlink:title=" ">
<polygon fill="white" stroke="black" points="1304,-515.5 1304,-534.5 1416,-534.5 1416,-515.5 1304,-515.5"/>
<text text-anchor="middle" x="1360" y="-522.5" font-family="Helvetica,sans-Serif" font-size="10.00">engine/GUI/GuiStrip.h</text>
</a>
</g>
</g>
<!-- Node1&#45;&gt;Node42 -->
<g id="edge81" class="edge">
<title>Node1&#45;&gt;Node42</title>
<path fill="none" stroke="midnightblue" d="M1251.65,-571.4C1275.48,-561.42 1307.15,-548.15 1330.09,-538.53"/>
<polygon fill="midnightblue" stroke="midnightblue" points="1331.47,-541.75 1339.34,-534.66 1328.76,-535.29 1331.47,-541.75"/>
</g>
<!-- Node43 -->
<g id="node43" class="node">
<title>Node43</title>
<g id="a_node43"><a xlink:href="_gui_scroll_8h.html" target="_top" xlink:title=" ">
<polygon fill="white" stroke="black" points="1434,-515.5 1434,-534.5 1550,-534.5 1550,-515.5 1434,-515.5"/>
<text text-anchor="middle" x="1492" y="-522.5" font-family="Helvetica,sans-Serif" font-size="10.00">engine/GUI/GuiScroll.h</text>
</a>
</g>
</g>
<!-- Node1&#45;&gt;Node43 -->
<g id="edge83" class="edge">
<title>Node1&#45;&gt;Node43</title>
<path fill="none" stroke="midnightblue" d="M1275.11,-573.1C1324.64,-562.34 1395.59,-546.94 1442.69,-536.71"/>
<polygon fill="midnightblue" stroke="midnightblue" points="1443.63,-540.09 1452.66,-534.54 1442.14,-533.25 1443.63,-540.09"/>
</g>
<!-- Node3 -->
<g id="node3" class="node">
<title>Node3</title>
<g id="a_node3"><a xlink:title=" ">
<polygon fill="white" stroke="#bfbfbf" points="1121,-56.5 1121,-75.5 1165,-75.5 1165,-56.5 1121,-56.5"/>
<text text-anchor="middle" x="1143" y="-63.5" font-family="Helvetica,sans-Serif" font-size="10.00">vector</text>
</a>
</g>
</g>
<!-- Node2&#45;&gt;Node3 -->
<g id="edge2" class="edge">
<title>Node2&#45;&gt;Node3</title>
<path fill="none" stroke="midnightblue" d="M1170.89,-515.3C1230.13,-467.94 1511,-243.3 1511,-240.5 1511,-240.5 1511,-240.5 1511,-177 1511,-140 1491.13,-130.34 1459,-112 1410.94,-84.56 1245.5,-72.54 1175.11,-68.59"/>
<polygon fill="midnightblue" stroke="midnightblue" points="1175.22,-65.09 1165.05,-68.04 1174.84,-72.08 1175.22,-65.09"/>
</g>
<!-- Node4 -->
<g id="node4" class="node">
<title>Node4</title>
<g id="a_node4"><a xlink:href="_factory_8h.html" target="_top" xlink:title=" ">
<polygon fill="white" stroke="black" points="212,-459.5 212,-478.5 348,-478.5 348,-459.5 212,-459.5"/>
<text text-anchor="middle" x="280" y="-466.5" font-family="Helvetica,sans-Serif" font-size="10.00">GameLogic/Units/Factory.h</text>
</a>
</g>
</g>
<!-- Node2&#45;&gt;Node4 -->
<g id="edge3" class="edge">
<title>Node2&#45;&gt;Node4</title>
<path fill="none" stroke="midnightblue" d="M1072,-518.6C900.07,-508.05 522.07,-484.85 358.26,-474.8"/>
<polygon fill="midnightblue" stroke="midnightblue" points="358.45,-471.31 348.26,-474.19 358.02,-478.29 358.45,-471.31"/>
</g>
<!-- Node39 -->
<g id="node39" class="node">
<title>Node39</title>
<g id="a_node39"><a xlink:href="_gui_list_8h.html" target="_top" xlink:title=" ">
<polygon fill="white" stroke="black" points="1413,-459.5 1413,-478.5 1521,-478.5 1521,-459.5 1413,-459.5"/>
<text text-anchor="middle" x="1467" y="-466.5" font-family="Helvetica,sans-Serif" font-size="10.00">engine/GUI/GuiList.h</text>
</a>
</g>
</g>
<!-- Node2&#45;&gt;Node39 -->
<g id="edge73" class="edge">
<title>Node2&#45;&gt;Node39</title>
<path fill="none" stroke="midnightblue" d="M1208.65,-515.44C1262.87,-505.9 1350.55,-490.48 1408.48,-480.29"/>
<polygon fill="midnightblue" stroke="midnightblue" points="1409.34,-483.7 1418.58,-478.52 1408.13,-476.8 1409.34,-483.7"/>
</g>
<!-- Node5 -->
<g id="node5" class="node">
<title>Node5</title>
<g id="a_node5"><a xlink:title=" ">
<polygon fill="white" stroke="#bfbfbf" points="179.5,-56.5 179.5,-75.5 220.5,-75.5 220.5,-56.5 179.5,-56.5"/>
<text text-anchor="middle" x="200" y="-63.5" font-family="Helvetica,sans-Serif" font-size="10.00">string</text>
</a>
</g>
</g>
<!-- Node4&#45;&gt;Node5 -->
<g id="edge4" class="edge">
<title>Node4&#45;&gt;Node5</title>
<path fill="none" stroke="midnightblue" d="M219.59,-459.5C137.28,-444.12 0,-403.3 0,-302 0,-302 0,-302 0,-177 0,-146.2 1.13,-132.62 24,-112 64.47,-75.52 130.47,-67.78 169.11,-66.61"/>
<polygon fill="midnightblue" stroke="midnightblue" points="169.3,-70.1 179.24,-66.43 169.18,-63.11 169.3,-70.1"/>
</g>
<!-- Node6 -->
<g id="node6" class="node">
<title>Node6</title>
<g id="a_node6"><a xlink:href="_cell_8h.html" target="_top" xlink:title=" ">
<polygon fill="white" stroke="black" points="572.5,-403.5 572.5,-422.5 613.5,-422.5 613.5,-403.5 572.5,-403.5"/>
<text text-anchor="middle" x="593" y="-410.5" font-family="Helvetica,sans-Serif" font-size="10.00">Cell.h</text>
</a>
</g>
</g>
<!-- Node4&#45;&gt;Node6 -->
<g id="edge5" class="edge">
<title>Node4&#45;&gt;Node6</title>
<path fill="none" stroke="midnightblue" d="M329.6,-459.44C395.05,-448.15 508.28,-428.62 562.43,-419.27"/>
<polygon fill="midnightblue" stroke="midnightblue" points="563.18,-422.7 572.44,-417.55 561.99,-415.8 563.18,-422.7"/>
</g>
<!-- Node24 -->
<g id="node24" class="node">
<title>Node24</title>
<g id="a_node24"><a xlink:href="_unit_8h.html" target="_top" xlink:title=" ">
<polygon fill="white" stroke="black" points="225,-230 225,-249 347,-249 347,-230 225,-230"/>
<text text-anchor="middle" x="286" y="-237" font-family="Helvetica,sans-Serif" font-size="10.00">GameLogic/Units/Unit.h</text>
</a>
</g>
</g>
<!-- Node4&#45;&gt;Node24 -->
<g id="edge72" class="edge">
<title>Node4&#45;&gt;Node24</title>
<path fill="none" stroke="midnightblue" d="M280.23,-459.36C281.1,-426.14 284.27,-306.16 285.5,-259.37"/>
<polygon fill="midnightblue" stroke="midnightblue" points="289.01,-259.24 285.77,-249.15 282.01,-259.05 289.01,-259.24"/>
</g>
<!-- Node7 -->
<g id="node7" class="node">
<title>Node7</title>
<g id="a_node7"><a xlink:href="gameplay_clickable_game_object_8h.html" target="_top" xlink:title=" ">
<polygon fill="white" stroke="black" points="671.5,-224.5 671.5,-254.5 800.5,-254.5 800.5,-224.5 671.5,-224.5"/>
<text text-anchor="start" x="679.5" y="-242.5" font-family="Helvetica,sans-Serif" font-size="10.00">engine/gameplayClickable</text>
<text text-anchor="middle" x="736" y="-231.5" font-family="Helvetica,sans-Serif" font-size="10.00">GameObject.h</text>
</a>
</g>
</g>
<!-- Node6&#45;&gt;Node7 -->
<g id="edge6" class="edge">
<title>Node6&#45;&gt;Node7</title>
<path fill="none" stroke="midnightblue" d="M613.74,-407.98C636.49,-402.53 672.6,-390.62 694,-367 720.06,-338.23 730,-292.86 733.76,-264.99"/>
<polygon fill="midnightblue" stroke="midnightblue" points="737.25,-265.23 734.95,-254.89 730.3,-264.41 737.25,-265.23"/>
</g>
<!-- Node10 -->
<g id="node10" class="node">
<title>Node10</title>
<g id="a_node10"><a xlink:href="config_8h.html" target="_top" xlink:title=" ">
<polygon fill="white" stroke="black" points="378.5,-112.5 378.5,-131.5 459.5,-131.5 459.5,-112.5 378.5,-112.5"/>
<text text-anchor="middle" x="419" y="-119.5" font-family="Helvetica,sans-Serif" font-size="10.00">engine/config.h</text>
</a>
</g>
</g>
<!-- Node6&#45;&gt;Node10 -->
<g id="edge26" class="edge">
<title>Node6&#45;&gt;Node10</title>
<path fill="none" stroke="midnightblue" d="M572.22,-406.25C546.12,-398.7 500.23,-384.36 463,-367 403.38,-339.21 396.19,-317.54 336,-291 285.05,-268.53 257.37,-292.27 216,-255 192.02,-233.4 194.35,-219.64 188,-188 186.25,-179.28 182.35,-174.86 188,-168 189.45,-166.24 300.69,-145.15 368.26,-132.48"/>
<polygon fill="midnightblue" stroke="midnightblue" points="369.11,-135.88 378.3,-130.59 367.82,-129 369.11,-135.88"/>
</g>
<!-- Node13 -->
<g id="node13" class="node">
<title>Node13</title>
<g id="a_node13"><a xlink:href="_facade_8h.html" target="_top" xlink:title=" ">
<polygon fill="white" stroke="black" points="223,-0.5 223,-19.5 279,-19.5 279,-0.5 223,-0.5"/>
<text text-anchor="middle" x="251" y="-7.5" font-family="Helvetica,sans-Serif" font-size="10.00">Facade.h</text>
</a>
</g>
</g>
<!-- Node6&#45;&gt;Node13 -->
<g id="edge27" class="edge">
<title>Node6&#45;&gt;Node13</title>
<path fill="none" stroke="midnightblue" d="M572.32,-407.82C540.07,-401.01 476.1,-386.31 424,-367 370.32,-347.1 225.94,-301.1 192,-255 139.25,-183.34 124.87,-132.69 170,-56 179.48,-39.89 197.04,-29.13 213.39,-22.19"/>
<polygon fill="midnightblue" stroke="midnightblue" points="214.76,-25.41 222.81,-18.53 212.22,-18.89 214.76,-25.41"/>
</g>
<!-- Node16 -->
<g id="node16" class="node">
<title>Node16</title>
<g id="a_node16"><a xlink:title=" ">
<polygon fill="white" stroke="#bfbfbf" points="987,-56.5 987,-75.5 1041,-75.5 1041,-56.5 987,-56.5"/>
<text text-anchor="middle" x="1014" y="-63.5" font-family="Helvetica,sans-Serif" font-size="10.00">iostream</text>
</a>
</g>
</g>
<!-- Node6&#45;&gt;Node16 -->
<g id="edge48" class="edge">
<title>Node6&#45;&gt;Node16</title>
<path fill="none" stroke="midnightblue" d="M613.68,-411.71C665.89,-410.42 806.76,-403.54 917,-367 966.09,-350.73 977.77,-342.23 1019,-311 1046.81,-289.94 1060.8,-287.29 1074,-255 1079.22,-242.25 1076.5,-237.55 1074,-224 1064.24,-171.1 1037.42,-112.97 1023.17,-84.58"/>
<polygon fill="midnightblue" stroke="midnightblue" points="1026.22,-82.84 1018.55,-75.53 1019.98,-86.02 1026.22,-82.84"/>
</g>
<!-- Node18 -->
<g id="node18" class="node">
<title>Node18</title>
<g id="a_node18"><a xlink:href="cellgen_8h.html" target="_top" xlink:title=" ">
<polygon fill="white" stroke="black" points="939.5,-291.5 939.5,-310.5 1010.5,-310.5 1010.5,-291.5 939.5,-291.5"/>
<text text-anchor="middle" x="975" y="-298.5" font-family="Helvetica,sans-Serif" font-size="10.00">util/cellgen.h</text>
</a>
</g>
</g>
<!-- Node6&#45;&gt;Node18 -->
<g id="edge17" class="edge">
<title>Node6&#45;&gt;Node18</title>
<path fill="none" stroke="midnightblue" d="M613.7,-412.09C662.75,-411.6 789.14,-406.31 885,-367 913.5,-355.31 941.5,-332.88 958.51,-317.67"/>
<polygon fill="midnightblue" stroke="midnightblue" points="960.93,-320.21 965.93,-310.87 956.2,-315.05 960.93,-320.21"/>
</g>
<!-- Node19 -->
<g id="node19" class="node">
<title>Node19</title>
<g id="a_node19"><a xlink:title=" ">
<polygon fill="white" stroke="#bfbfbf" points="857.5,-230 857.5,-249 892.5,-249 892.5,-230 857.5,-230"/>
<text text-anchor="middle" x="875" y="-237" font-family="Helvetica,sans-Serif" font-size="10.00">map</text>
</a>
</g>
</g>
<!-- Node6&#45;&gt;Node19 -->
<g id="edge47" class="edge">
<title>Node6&#45;&gt;Node19</title>
<path fill="none" stroke="midnightblue" d="M613.69,-411.09C667.46,-408.29 809.7,-398.06 843,-367 873.01,-339.01 876.57,-287.31 876.09,-259.45"/>
<polygon fill="midnightblue" stroke="midnightblue" points="879.57,-258.98 875.7,-249.11 872.58,-259.24 879.57,-258.98"/>
</g>
<!-- Node21 -->
<g id="node21" class="node">
<title>Node21</title>
<g id="a_node21"><a xlink:href="_all_flags_8h.html" target="_top" xlink:title=" ">
<polygon fill="white" stroke="black" points="500.5,-168.5 500.5,-187.5 559.5,-187.5 559.5,-168.5 500.5,-168.5"/>
<text text-anchor="middle" x="530" y="-175.5" font-family="Helvetica,sans-Serif" font-size="10.00">AllFlags.h</text>
</a>
</g>
</g>
<!-- Node6&#45;&gt;Node21 -->
<g id="edge21" class="edge">
<title>Node6&#45;&gt;Node21</title>
<path fill="none" stroke="midnightblue" d="M572.39,-406C550.68,-399.01 516.23,-385.94 491,-367 465.02,-347.49 456.99,-340.78 444,-311 428.49,-275.44 416.39,-256.87 437,-224 448.74,-205.28 470.71,-194.16 490.36,-187.65"/>
<polygon fill="midnightblue" stroke="midnightblue" points="491.48,-190.97 500.05,-184.74 489.47,-184.27 491.48,-190.97"/>
</g>
<!-- Node23 -->
<g id="node23" class="node">
<title>Node23</title>
<g id="a_node23"><a xlink:href="_squad_8h.html" target="_top" xlink:title=" ">
<polygon fill="white" stroke="black" points="453,-291.5 453,-310.5 505,-310.5 505,-291.5 453,-291.5"/>
<text text-anchor="middle" x="479" y="-298.5" font-family="Helvetica,sans-Serif" font-size="10.00">Squad.h</text>
</a>
</g>
</g>
<!-- Node6&#45;&gt;Node23 -->
<g id="edge28" class="edge">
<title>Node6&#45;&gt;Node23</title>
<path fill="none" stroke="midnightblue" d="M572.14,-407.72C550.5,-401.56 517.94,-388.5 498,-367 485.87,-353.92 478.49,-334.77 476.02,-320.64"/>
<polygon fill="midnightblue" stroke="midnightblue" points="479.5,-320.23 475.09,-310.6 472.53,-320.88 479.5,-320.23"/>
</g>
<!-- Node30 -->
<g id="node30" class="node">
<title>Node30</title>
<g id="a_node30"><a xlink:href="geometry_8h.html" target="_top" xlink:title=" ">
<polygon fill="white" stroke="black" points="1110,-347.5 1110,-366.5 1190,-366.5 1190,-347.5 1110,-347.5"/>
<text text-anchor="middle" x="1150" y="-354.5" font-family="Helvetica,sans-Serif" font-size="10.00">util/geometry.h</text>
</a>
</g>
</g>
<!-- Node6&#45;&gt;Node30 -->
<g id="edge49" class="edge">
<title>Node6&#45;&gt;Node30</title>
<path fill="none" stroke="midnightblue" d="M613.66,-410.72C682.38,-406.33 909.46,-390.85 1096,-367 1097.27,-366.84 1098.56,-366.67 1099.86,-366.49"/>
<polygon fill="midnightblue" stroke="midnightblue" points="1100.55,-369.93 1109.95,-365.02 1099.55,-363 1100.55,-369.93"/>
</g>
<!-- Node31 -->
<g id="node31" class="node">
<title>Node31</title>
<g id="a_node31"><a xlink:href="_none_8h.html" target="_top" xlink:title=" ">
<polygon fill="white" stroke="black" points="834.5,-168.5 834.5,-187.5 947.5,-187.5 947.5,-168.5 834.5,-168.5"/>
<text text-anchor="middle" x="891" y="-175.5" font-family="Helvetica,sans-Serif" font-size="10.00">engine/actions/None.h</text>
</a>
</g>
</g>
<!-- Node6&#45;&gt;Node31 -->
<g id="edge52" class="edge">
<title>Node6&#45;&gt;Node31</title>
<path fill="none" stroke="midnightblue" d="M613.79,-407.49C639.23,-401.29 682.87,-388.4 715,-367 787.24,-318.89 788.46,-287.16 848,-224 857.1,-214.35 867.36,-203.6 875.58,-195.04"/>
<polygon fill="midnightblue" stroke="midnightblue" points="878.32,-197.23 882.72,-187.59 873.27,-192.38 878.32,-197.23"/>
</g>
<!-- Node32 -->
<g id="node32" class="node">
<title>Node32</title>
<g id="a_node32"><a xlink:href="game_controller_8h.html" target="_top" xlink:title=" ">
<polygon fill="white" stroke="black" points="1213.5,-291.5 1213.5,-310.5 1334.5,-310.5 1334.5,-291.5 1213.5,-291.5"/>
<text text-anchor="middle" x="1274" y="-298.5" font-family="Helvetica,sans-Serif" font-size="10.00">engine/gameController.h</text>
</a>
</g>
</g>
<!-- Node6&#45;&gt;Node32 -->
<g id="edge54" class="edge">
<title>Node6&#45;&gt;Node32</title>
<path fill="none" stroke="midnightblue" d="M613.61,-412.19C706.9,-412.8 1089.78,-412.42 1199,-367 1224.24,-356.51 1246.99,-334.06 1260.66,-318.5"/>
<polygon fill="midnightblue" stroke="midnightblue" points="1263.48,-320.58 1267.27,-310.69 1258.14,-316.06 1263.48,-320.58"/>
</g>
<!-- Node36 -->
<g id="node36" class="node">
<title>Node36</title>
<g id="a_node36"><a xlink:href="_set_squad_path_8h.html" target="_top" xlink:title=" ">
<polygon fill="white" stroke="black" points="516.5,-347.5 516.5,-366.5 669.5,-366.5 669.5,-347.5 516.5,-347.5"/>
<text text-anchor="middle" x="593" y="-354.5" font-family="Helvetica,sans-Serif" font-size="10.00">engine/actions/SetSquadPath.h</text>
</a>
</g>
</g>
<!-- Node6&#45;&gt;Node36 -->
<g id="edge63" class="edge">
<title>Node6&#45;&gt;Node36</title>
<path fill="none" stroke="midnightblue" d="M587.83,-403.08C586.32,-395.93 585.89,-385.64 586.54,-376.69"/>
<polygon fill="midnightblue" stroke="midnightblue" points="590.02,-377.13 587.87,-366.75 583.08,-376.2 590.02,-377.13"/>
</g>
<!-- Node6&#45;&gt;Node37 -->
<g id="edge67" class="edge">
<title>Node6&#45;&gt;Node37</title>
<path fill="none" stroke="midnightblue" d="M572.46,-409.92C529.15,-405.17 425.55,-392 342,-367 296.3,-353.32 245.87,-330.01 216.11,-315.33"/>
<polygon fill="midnightblue" stroke="midnightblue" points="217.36,-312.04 206.85,-310.71 214.24,-318.31 217.36,-312.04"/>
</g>
<!-- Node38 -->
<g id="node38" class="node">
<title>Node38</title>
<g id="a_node38"><a xlink:href="_all_squad_templates_8h.html" target="_top" xlink:title=" ">
<polygon fill="white" stroke="black" points="104.5,-347.5 104.5,-366.5 213.5,-366.5 213.5,-347.5 104.5,-347.5"/>
<text text-anchor="middle" x="159" y="-354.5" font-family="Helvetica,sans-Serif" font-size="10.00">AllSquadTemplates.h</text>
</a>
</g>
</g>
<!-- Node6&#45;&gt;Node38 -->
<g id="edge69" class="edge">
<title>Node6&#45;&gt;Node38</title>
<path fill="none" stroke="midnightblue" d="M572.36,-409.43C510.31,-401.71 323.59,-378.48 223.7,-366.05"/>
<polygon fill="midnightblue" stroke="midnightblue" points="224.08,-362.57 213.73,-364.81 223.22,-369.52 224.08,-362.57"/>
</g>
<!-- Node8 -->
<g id="node8" class="node">
<title>Node8</title>
<g id="a_node8"><a xlink:href="game_object_8h.html" target="_top" xlink:title=" ">
<polygon fill="white" stroke="black" points="1171.5,-168.5 1171.5,-187.5 1248.5,-187.5 1248.5,-168.5 1171.5,-168.5"/>
<text text-anchor="middle" x="1210" y="-175.5" font-family="Helvetica,sans-Serif" font-size="10.00">gameObject.h</text>
</a>
</g>
</g>
<!-- Node7&#45;&gt;Node8 -->
<g id="edge7" class="edge">
<title>Node7&#45;&gt;Node8</title>
<path fill="none" stroke="midnightblue" d="M800.55,-230.09C816.09,-228.08 832.63,-225.95 848,-224 960.05,-209.78 1091.67,-193.53 1161.21,-184.99"/>
<polygon fill="midnightblue" stroke="midnightblue" points="1161.92,-188.42 1171.42,-183.73 1161.07,-181.48 1161.92,-188.42"/>
</g>
<!-- Node9 -->
<g id="node9" class="node">
<title>Node9</title>
<g id="a_node9"><a xlink:title=" ">
<polygon fill="white" stroke="#bfbfbf" points="1420.5,-112.5 1420.5,-131.5 1449.5,-131.5 1449.5,-112.5 1420.5,-112.5"/>
<text text-anchor="middle" x="1435" y="-119.5" font-family="Helvetica,sans-Serif" font-size="10.00">list</text>
</a>
</g>
</g>
<!-- Node8&#45;&gt;Node9 -->
<g id="edge8" class="edge">
<title>Node8&#45;&gt;Node9</title>
<path fill="none" stroke="midnightblue" d="M1245.65,-168.44C1291.74,-157.38 1370.77,-138.41 1410.58,-128.86"/>
<polygon fill="midnightblue" stroke="midnightblue" points="1411.57,-132.22 1420.48,-126.48 1409.94,-125.41 1411.57,-132.22"/>
</g>
<!-- Node8&#45;&gt;Node10 -->
<g id="edge9" class="edge">
<title>Node8&#45;&gt;Node10</title>
<path fill="none" stroke="midnightblue" d="M1171.48,-175.05C1065.42,-169.57 760.2,-153.04 507,-132 494.92,-131 481.93,-129.76 469.74,-128.52"/>
<polygon fill="midnightblue" stroke="midnightblue" points="470.02,-125.03 459.72,-127.49 469.3,-132 470.02,-125.03"/>
</g>
<!-- Node15 -->
<g id="node15" class="node">
<title>Node15</title>
<g id="a_node15"><a xlink:href="engine_2_action_8h.html" target="_top" xlink:title=" ">
<polygon fill="white" stroke="black" points="849.5,-112.5 849.5,-131.5 932.5,-131.5 932.5,-112.5 849.5,-112.5"/>
<text text-anchor="middle" x="891" y="-119.5" font-family="Helvetica,sans-Serif" font-size="10.00">engine/Action.h</text>
</a>
</g>
</g>
<!-- Node8&#45;&gt;Node15 -->
<g id="edge14" class="edge">
<title>Node8&#45;&gt;Node15</title>
<path fill="none" stroke="midnightblue" d="M1171.2,-170.43C1113.83,-160.72 1006.29,-142.52 942.41,-131.7"/>
<polygon fill="midnightblue" stroke="midnightblue" points="943,-128.25 932.55,-130.03 941.83,-135.15 943,-128.25"/>
</g>
<!-- Node11 -->
<g id="node11" class="node">
<title>Node11</title>
<g id="a_node11"><a xlink:href="_s_f_m_l_facade_8h.html" target="_top" xlink:title=" ">
<polygon fill="white" stroke="black" points="238.5,-56.5 238.5,-75.5 361.5,-75.5 361.5,-56.5 238.5,-56.5"/>
<text text-anchor="middle" x="300" y="-63.5" font-family="Helvetica,sans-Serif" font-size="10.00">graphics/SFMLFacade.h</text>
</a>
</g>
</g>
<!-- Node10&#45;&gt;Node11 -->
<g id="edge10" class="edge">
<title>Node10&#45;&gt;Node11</title>
<path fill="none" stroke="midnightblue" d="M400.14,-112.44C380.73,-103.64 350.27,-89.81 328.04,-79.72"/>
<polygon fill="midnightblue" stroke="midnightblue" points="329.32,-76.46 318.77,-75.52 326.43,-82.84 329.32,-76.46"/>
</g>
<!-- Node14 -->
<g id="node14" class="node">
<title>Node14</title>
<g id="a_node14"><a xlink:title=" ">
<polygon fill="white" stroke="#bfbfbf" points="380,-56.5 380,-75.5 478,-75.5 478,-56.5 380,-56.5"/>
<text text-anchor="middle" x="429" y="-63.5" font-family="Helvetica,sans-Serif" font-size="10.00">nlohmann/json.hpp</text>
</a>
</g>
</g>
<!-- Node10&#45;&gt;Node14 -->
<g id="edge13" class="edge">
<title>Node10&#45;&gt;Node14</title>
<path fill="none" stroke="midnightblue" d="M420.65,-112.08C421.98,-104.93 423.88,-94.64 425.54,-85.69"/>
<polygon fill="midnightblue" stroke="midnightblue" points="429,-86.22 427.38,-75.75 422.12,-84.95 429,-86.22"/>
</g>
<!-- Node12 -->
<g id="node12" class="node">
<title>Node12</title>
<g id="a_node12"><a xlink:title=" ">
<polygon fill="white" stroke="#bfbfbf" points="297,-0.5 297,-19.5 401,-19.5 401,-0.5 297,-0.5"/>
<text text-anchor="middle" x="349" y="-7.5" font-family="Helvetica,sans-Serif" font-size="10.00">SFML/Graphics.hpp</text>
</a>
</g>
</g>
<!-- Node11&#45;&gt;Node12 -->
<g id="edge11" class="edge">
<title>Node11&#45;&gt;Node12</title>
<path fill="none" stroke="midnightblue" d="M308.09,-56.08C315.16,-48.3 325.59,-36.8 334.15,-27.37"/>
<polygon fill="midnightblue" stroke="midnightblue" points="336.93,-29.51 341.06,-19.75 331.75,-24.8 336.93,-29.51"/>
</g>
<!-- Node11&#45;&gt;Node13 -->
<g id="edge12" class="edge">
<title>Node11&#45;&gt;Node13</title>
<path fill="none" stroke="midnightblue" d="M291.91,-56.08C284.84,-48.3 274.41,-36.8 265.85,-27.37"/>
<polygon fill="midnightblue" stroke="midnightblue" points="268.25,-24.8 258.94,-19.75 263.07,-29.51 268.25,-24.8"/>
</g>
<!-- Node15&#45;&gt;Node16 -->
<g id="edge15" class="edge">
<title>Node15&#45;&gt;Node16</title>
<path fill="none" stroke="midnightblue" d="M910.49,-112.44C930.64,-103.6 962.32,-89.69 985.33,-79.59"/>
<polygon fill="midnightblue" stroke="midnightblue" points="986.85,-82.74 994.6,-75.52 984.04,-76.33 986.85,-82.74"/>
</g>
<!-- Node15&#45;&gt;Node17 -->
<g id="edge16" class="edge">
<title>Node15&#45;&gt;Node17</title>
<path fill="none" stroke="midnightblue" d="M849.28,-114.91C775.93,-104.21 625.17,-82.2 556.49,-72.18"/>
<polygon fill="midnightblue" stroke="midnightblue" points="556.99,-68.72 546.59,-70.73 555.98,-75.64 556.99,-68.72"/>
</g>
<!-- Node18&#45;&gt;Node3 -->
<g id="edge18" class="edge">
<title>Node18&#45;&gt;Node3</title>
<path fill="none" stroke="midnightblue" d="M995.05,-291.39C1011.02,-283.73 1033.09,-271.23 1048,-255 1095.99,-202.78 1125.79,-121.78 1137.42,-85.58"/>
<polygon fill="midnightblue" stroke="midnightblue" points="1140.81,-86.46 1140.44,-75.87 1134.13,-84.37 1140.81,-86.46"/>
</g>
<!-- Node18&#45;&gt;Node19 -->
<g id="edge19" class="edge">
<title>Node18&#45;&gt;Node19</title>
<path fill="none" stroke="midnightblue" d="M960.67,-291.48C944.34,-281.75 917.4,-265.73 898.09,-254.24"/>
<polygon fill="midnightblue" stroke="midnightblue" points="899.68,-251.11 889.3,-249.01 896.11,-257.13 899.68,-251.11"/>
</g>
<!-- Node20 -->
<g id="node20" class="node">
<title>Node20</title>
<g id="a_node20"><a xlink:title=" ">
<polygon fill="white" stroke="#bfbfbf" points="911,-230 911,-249 1039,-249 1039,-230 911,-230"/>
<text text-anchor="middle" x="975" y="-237" font-family="Helvetica,sans-Serif" font-size="10.00">scanline_triangulation.hpp</text>
</a>
</g>
</g>
<!-- Node18&#45;&gt;Node20 -->
<g id="edge20" class="edge">
<title>Node18&#45;&gt;Node20</title>
<path fill="none" stroke="midnightblue" d="M975,-291.48C975,-283.08 975,-269.98 975,-259.16"/>
<polygon fill="midnightblue" stroke="midnightblue" points="978.5,-259.01 975,-249.01 971.5,-259.01 978.5,-259.01"/>
</g>
<!-- Node21&#45;&gt;Node17 -->
<g id="edge25" class="edge">
<title>Node21&#45;&gt;Node17</title>
<path fill="none" stroke="midnightblue" d="M523.9,-168.19C518.25,-159.46 510.24,-145.48 507,-132 503.21,-116.24 507.79,-98.2 512.7,-85.14"/>
<polygon fill="midnightblue" stroke="midnightblue" points="515.95,-86.44 516.55,-75.86 509.48,-83.75 515.95,-86.44"/>
</g>
<!-- Node22 -->
<g id="node22" class="node">
<title>Node22</title>
<g id="a_node22"><a xlink:href="_flag_8h.html" target="_top" xlink:title=" ">
<polygon fill="white" stroke="black" points="516.5,-112.5 516.5,-131.5 559.5,-131.5 559.5,-112.5 516.5,-112.5"/>
<text text-anchor="middle" x="538" y="-119.5" font-family="Helvetica,sans-Serif" font-size="10.00">Flag.h</text>
</a>
</g>
</g>
<!-- Node21&#45;&gt;Node22 -->
<g id="edge22" class="edge">
<title>Node21&#45;&gt;Node22</title>
<path fill="none" stroke="midnightblue" d="M531.32,-168.08C532.38,-160.93 533.91,-150.64 535.23,-141.69"/>
<polygon fill="midnightblue" stroke="midnightblue" points="538.7,-142.16 536.7,-131.75 531.78,-141.13 538.7,-142.16"/>
</g>
<!-- Node22&#45;&gt;Node3 -->
<g id="edge23" class="edge">
<title>Node22&#45;&gt;Node3</title>
<path fill="none" stroke="midnightblue" d="M559.71,-119.16C630.36,-113.16 860.08,-93.54 1050,-76 1070.16,-74.14 1092.77,-71.95 1110.64,-70.2"/>
<polygon fill="midnightblue" stroke="midnightblue" points="1111.22,-73.66 1120.83,-69.2 1110.54,-66.7 1111.22,-73.66"/>
</g>
<!-- Node22&#45;&gt;Node5 -->
<g id="edge24" class="edge">
<title>Node22&#45;&gt;Node5</title>
<path fill="none" stroke="midnightblue" d="M516.24,-118.03C455.16,-109.67 283.6,-86.01 230.68,-75.93"/>
<polygon fill="midnightblue" stroke="midnightblue" points="231.31,-72.48 220.8,-73.88 229.89,-79.34 231.31,-72.48"/>
</g>
<!-- Node23&#45;&gt;Node6 -->
<g id="edge29" class="edge">
<title>Node23&#45;&gt;Node6</title>
<path fill="none" stroke="midnightblue" d="M486.41,-310.6C492.89,-324.1 500.63,-350.42 516,-367 529.38,-381.43 548.45,-392.06 564.37,-399.35"/>
<polygon fill="midnightblue" stroke="midnightblue" points="563.24,-402.67 573.81,-403.46 566.04,-396.26 563.24,-402.67"/>
</g>
<!-- Node23&#45;&gt;Node7 -->
<g id="edge41" class="edge">
<title>Node23&#45;&gt;Node7</title>
<path fill="none" stroke="midnightblue" d="M505.06,-293.97C542.34,-285.34 612.28,-269.14 665.46,-256.83"/>
<polygon fill="midnightblue" stroke="midnightblue" points="666.56,-260.17 675.52,-254.5 664.99,-253.35 666.56,-260.17"/>
</g>
<!-- Node23&#45;&gt;Node10 -->
<g id="edge45" class="edge">
<title>Node23&#45;&gt;Node10</title>
<path fill="none" stroke="midnightblue" d="M466.79,-291.24C456.65,-283.14 442.96,-270.11 437,-255 431.95,-242.18 434.3,-237.51 437,-224 440.4,-207 448.6,-205 452,-188 453.74,-179.28 454.77,-176.45 452,-168 448.51,-157.34 441.43,-147.12 434.71,-139.12"/>
<polygon fill="midnightblue" stroke="midnightblue" points="437.3,-136.76 428.02,-131.66 432.1,-141.44 437.3,-136.76"/>
</g>
<!-- Node23&#45;&gt;Node13 -->
<g id="edge46" class="edge">
<title>Node23&#45;&gt;Node13</title>
<path fill="none" stroke="midnightblue" d="M474.41,-291.1C467.26,-275.87 455.7,-244.48 470,-224 496.56,-185.95 541.44,-226.05 568,-188 601.74,-139.66 598.6,-95.68 555,-56 512.8,-17.59 361.94,-29.77 289.34,-19.82"/>
<polygon fill="midnightblue" stroke="midnightblue" points="289.65,-16.33 279.22,-18.19 288.53,-23.24 289.65,-16.33"/>
</g>
<!-- Node23&#45;&gt;Node24 -->
<g id="edge30" class="edge">
<title>Node23&#45;&gt;Node24</title>
<path fill="none" stroke="midnightblue" d="M452.77,-293.29C417.72,-283.3 356.02,-264.39 318.21,-252.12"/>
<polygon fill="midnightblue" stroke="midnightblue" points="319.27,-248.79 308.68,-249 317.1,-255.44 319.27,-248.79"/>
</g>
<!-- Node29 -->
<g id="node29" class="node">
<title>Node29</title>
<g id="a_node29"><a xlink:href="_game_logic_2_squad_2_action_8h.html" target="_top" xlink:title=" ">
<polygon fill="white" stroke="black" points="479,-230 479,-249 615,-249 615,-230 479,-230"/>
<text text-anchor="middle" x="547" y="-237" font-family="Helvetica,sans-Serif" font-size="10.00">GameLogic/Squad/Action.h</text>
</a>
</g>
</g>
<!-- Node23&#45;&gt;Node29 -->
<g id="edge42" class="edge">
<title>Node23&#45;&gt;Node29</title>
<path fill="none" stroke="midnightblue" d="M483.84,-291.48C492.59,-282.02 509.88,-266.6 524.3,-255.19"/>
<polygon fill="midnightblue" stroke="midnightblue" points="526.56,-257.86 532.38,-249.01 522.31,-252.3 526.56,-257.86"/>
</g>
<!-- Node24&#45;&gt;Node21 -->
<g id="edge36" class="edge">
<title>Node24&#45;&gt;Node21</title>
<path fill="none" stroke="midnightblue" d="M320.96,-229.98C365.89,-219.02 443.69,-200.05 490.65,-188.6"/>
<polygon fill="midnightblue" stroke="midnightblue" points="491.58,-191.97 500.47,-186.2 489.92,-185.17 491.58,-191.97"/>
</g>
<!-- Node24&#45;&gt;Node23 -->
<g id="edge35" class="edge">
<title>Node24&#45;&gt;Node23</title>
<path fill="none" stroke="midnightblue" d="M318.5,-249.01C354.11,-259.3 410.66,-276.67 446.33,-288.23"/>
<polygon fill="midnightblue" stroke="midnightblue" points="445.66,-291.69 456.25,-291.48 447.83,-285.04 445.66,-291.69"/>
</g>
<!-- Node25 -->
<g id="node25" class="node">
<title>Node25</title>
<g id="a_node25"><a xlink:title=" ">
<polygon fill="white" stroke="#bfbfbf" points="281.5,-168.5 281.5,-187.5 324.5,-187.5 324.5,-168.5 281.5,-168.5"/>
<text text-anchor="middle" x="303" y="-175.5" font-family="Helvetica,sans-Serif" font-size="10.00">cstdio</text>
</a>
</g>
</g>
<!-- Node24&#45;&gt;Node25 -->
<g id="edge31" class="edge">
<title>Node24&#45;&gt;Node25</title>
<path fill="none" stroke="midnightblue" d="M288.44,-229.98C290.86,-221.49 294.66,-208.2 297.77,-197.32"/>
<polygon fill="midnightblue" stroke="midnightblue" points="301.19,-198.09 300.57,-187.51 294.46,-196.16 301.19,-198.09"/>
</g>
<!-- Node26 -->
<g id="node26" class="node">
<title>Node26</title>
<g id="a_node26"><a xlink:href="_unit_order_8h.html" target="_top" xlink:title=" ">
<polygon fill="white" stroke="black" points="197,-168.5 197,-187.5 263,-187.5 263,-168.5 197,-168.5"/>
<text text-anchor="middle" x="230" y="-175.5" font-family="Helvetica,sans-Serif" font-size="10.00">UnitOrder.h</text>
</a>
</g>
</g>
<!-- Node24&#45;&gt;Node26 -->
<g id="edge32" class="edge">
<title>Node24&#45;&gt;Node26</title>
<path fill="none" stroke="midnightblue" d="M273.08,-229.98C262.73,-221.05 248.91,-206.81 239.53,-195.64"/>
<polygon fill="midnightblue" stroke="midnightblue" points="242.06,-193.19 233.11,-187.51 236.56,-197.53 242.06,-193.19"/>
</g>
<!-- Node27 -->
<g id="node27" class="node">
<title>Node27</title>
<g id="a_node27"><a xlink:href="_textures_8h.html" target="_top" xlink:title=" ">
<polygon fill="white" stroke="black" points="342.5,-168.5 342.5,-187.5 443.5,-187.5 443.5,-168.5 342.5,-168.5"/>
<text text-anchor="middle" x="393" y="-175.5" font-family="Helvetica,sans-Serif" font-size="10.00">graphics/Textures.h</text>
</a>
</g>
</g>
<!-- Node24&#45;&gt;Node27 -->
<g id="edge37" class="edge">
<title>Node24&#45;&gt;Node27</title>
<path fill="none" stroke="midnightblue" d="M301.33,-229.98C318.97,-220.17 348.16,-203.93 368.86,-192.42"/>
<polygon fill="midnightblue" stroke="midnightblue" points="370.66,-195.43 377.7,-187.51 367.26,-189.31 370.66,-195.43"/>
</g>
<!-- Node26&#45;&gt;Node5 -->
<g id="edge33" class="edge">
<title>Node26&#45;&gt;Node5</title>
<path fill="none" stroke="midnightblue" d="M227.65,-168.37C222.78,-150.54 211.54,-109.3 204.98,-85.27"/>
<polygon fill="midnightblue" stroke="midnightblue" points="208.35,-84.32 202.34,-75.59 201.6,-86.16 208.35,-84.32"/>
</g>
<!-- Node26&#45;&gt;Node24 -->
<g id="edge34" class="edge">
<title>Node26&#45;&gt;Node24</title>
<path fill="none" stroke="midnightblue" d="M242.91,-187.51C253.25,-196.43 267.06,-210.67 276.45,-221.84"/>
<polygon fill="midnightblue" stroke="midnightblue" points="273.93,-224.3 282.88,-229.98 279.43,-219.96 273.93,-224.3"/>
</g>
<!-- Node27&#45;&gt;Node3 -->
<g id="edge39" class="edge">
<title>Node27&#45;&gt;Node3</title>
<path fill="none" stroke="midnightblue" d="M443.67,-169.57C587.11,-148.53 993.19,-88.97 1110.74,-71.73"/>
<polygon fill="midnightblue" stroke="midnightblue" points="1111.51,-75.16 1120.89,-70.24 1110.49,-68.23 1111.51,-75.16"/>
</g>
<!-- Node27&#45;&gt;Node10 -->
<g id="edge38" class="edge">
<title>Node27&#45;&gt;Node10</title>
<path fill="none" stroke="midnightblue" d="M397.29,-168.08C400.85,-160.69 406.02,-149.95 410.42,-140.81"/>
<polygon fill="midnightblue" stroke="midnightblue" points="413.6,-142.28 414.79,-131.75 407.29,-139.24 413.6,-142.28"/>
</g>
<!-- Node28 -->
<g id="node28" class="node">
<title>Node28</title>
<g id="a_node28"><a xlink:title=" ">
<polygon fill="white" stroke="#bfbfbf" points="277.5,-112.5 277.5,-131.5 360.5,-131.5 360.5,-112.5 277.5,-112.5"/>
<text text-anchor="middle" x="319" y="-119.5" font-family="Helvetica,sans-Serif" font-size="10.00">unordered_map</text>
</a>
</g>
</g>
<!-- Node27&#45;&gt;Node28 -->
<g id="edge40" class="edge">
<title>Node27&#45;&gt;Node28</title>
<path fill="none" stroke="midnightblue" d="M381.11,-168.32C369.85,-160.11 352.71,-147.6 339.29,-137.81"/>
<polygon fill="midnightblue" stroke="midnightblue" points="341.25,-134.9 331.11,-131.83 337.12,-140.56 341.25,-134.9"/>
</g>
<!-- Node29&#45;&gt;Node6 -->
<g id="edge44" class="edge">
<title>Node29&#45;&gt;Node6</title>
<path fill="none" stroke="midnightblue" d="M566.26,-249.23C596.66,-264.22 654.7,-298.04 678,-347 691.05,-374.43 652.75,-393.34 623.38,-403.42"/>
<polygon fill="midnightblue" stroke="midnightblue" points="622.28,-400.09 613.84,-406.5 624.43,-406.76 622.28,-400.09"/>
</g>
<!-- Node29&#45;&gt;Node23 -->
<g id="edge43" class="edge">
<title>Node29&#45;&gt;Node23</title>
<path fill="none" stroke="midnightblue" d="M542.17,-249.01C533.44,-258.46 516.15,-273.88 501.72,-285.29"/>
<polygon fill="midnightblue" stroke="midnightblue" points="499.46,-282.62 493.64,-291.48 503.71,-288.18 499.46,-282.62"/>
</g>
<!-- Node30&#45;&gt;Node3 -->
<g id="edge50" class="edge">
<title>Node30&#45;&gt;Node3</title>
<path fill="none" stroke="midnightblue" d="M1149.11,-347.32C1147.23,-328.09 1143,-280.48 1143,-240.5 1143,-240.5 1143,-240.5 1143,-177 1143,-144.95 1143,-107.64 1143,-85.75"/>
<polygon fill="midnightblue" stroke="midnightblue" points="1146.5,-85.56 1143,-75.56 1139.5,-85.56 1146.5,-85.56"/>
</g>
<!-- Node30&#45;&gt;Node18 -->
<g id="edge51" class="edge">
<title>Node30&#45;&gt;Node18</title>
<path fill="none" stroke="midnightblue" d="M1122.27,-347.44C1092.57,-338.28 1045.28,-323.69 1012.33,-313.52"/>
<polygon fill="midnightblue" stroke="midnightblue" points="1013.19,-310.12 1002.6,-310.52 1011.12,-316.81 1013.19,-310.12"/>
</g>
<!-- Node31&#45;&gt;Node15 -->
<g id="edge53" class="edge">
<title>Node31&#45;&gt;Node15</title>
<path fill="none" stroke="midnightblue" d="M891,-168.08C891,-161.01 891,-150.86 891,-141.99"/>
<polygon fill="midnightblue" stroke="midnightblue" points="894.5,-141.75 891,-131.75 887.5,-141.75 894.5,-141.75"/>
</g>
<!-- Node32&#45;&gt;Node8 -->
<g id="edge56" class="edge">
<title>Node32&#45;&gt;Node8</title>
<path fill="none" stroke="midnightblue" d="M1247.07,-291.36C1230.28,-284.41 1210.02,-272.82 1200,-255 1189.94,-237.11 1195.63,-213.19 1201.74,-197"/>
<polygon fill="midnightblue" stroke="midnightblue" points="1205.04,-198.2 1205.66,-187.62 1198.58,-195.5 1205.04,-198.2"/>
</g>
<!-- Node32&#45;&gt;Node9 -->
<g id="edge55" class="edge">
<title>Node32&#45;&gt;Node9</title>
<path fill="none" stroke="midnightblue" d="M1334.65,-295.43C1363.47,-290.03 1395.93,-278.67 1416,-255 1443.25,-222.88 1441.36,-169.74 1437.99,-141.69"/>
<polygon fill="midnightblue" stroke="midnightblue" points="1441.44,-141.06 1436.59,-131.64 1434.5,-142.03 1441.44,-141.06"/>
</g>
<!-- Node33 -->
<g id="node33" class="node">
<title>Node33</title>
<g id="a_node33"><a xlink:href="_network_manager_8h.html" target="_top" xlink:title=" ">
<polygon fill="white" stroke="black" points="1209,-230 1209,-249 1339,-249 1339,-230 1209,-230"/>
<text text-anchor="middle" x="1274" y="-237" font-family="Helvetica,sans-Serif" font-size="10.00">engine/NetworkManager.h</text>
</a>
</g>
</g>
<!-- Node32&#45;&gt;Node33 -->
<g id="edge57" class="edge">
<title>Node32&#45;&gt;Node33</title>
<path fill="none" stroke="midnightblue" d="M1274,-291.48C1274,-283.08 1274,-269.98 1274,-259.16"/>
<polygon fill="midnightblue" stroke="midnightblue" points="1277.5,-259.01 1274,-249.01 1270.5,-259.01 1277.5,-259.01"/>
</g>
<!-- Node35 -->
<g id="node35" class="node">
<title>Node35</title>
<g id="a_node35"><a xlink:title=" ">
<polygon fill="white" stroke="#bfbfbf" points="1357.5,-230 1357.5,-249 1406.5,-249 1406.5,-230 1357.5,-230"/>
<text text-anchor="middle" x="1382" y="-237" font-family="Helvetica,sans-Serif" font-size="10.00">random</text>
</a>
</g>
</g>
<!-- Node32&#45;&gt;Node35 -->
<g id="edge62" class="edge">
<title>Node32&#45;&gt;Node35</title>
<path fill="none" stroke="midnightblue" d="M1289.47,-291.48C1307.28,-281.67 1336.74,-265.43 1357.63,-253.92"/>
<polygon fill="midnightblue" stroke="midnightblue" points="1359.49,-256.9 1366.55,-249.01 1356.11,-250.77 1359.49,-256.9"/>
</g>
<!-- Node33&#45;&gt;Node3 -->
<g id="edge60" class="edge">
<title>Node33&#45;&gt;Node3</title>
<path fill="none" stroke="midnightblue" d="M1295.72,-229.87C1322.72,-217.79 1363.35,-194.35 1347,-168 1309.21,-107.13 1222.64,-81.82 1175.33,-72.23"/>
<polygon fill="midnightblue" stroke="midnightblue" points="1175.78,-68.76 1165.31,-70.32 1174.47,-75.63 1175.78,-68.76"/>
</g>
<!-- Node33&#45;&gt;Node8 -->
<g id="edge58" class="edge">
<title>Node33&#45;&gt;Node8</title>
<path fill="none" stroke="midnightblue" d="M1264.83,-229.98C1254.85,-220.7 1238.69,-205.67 1226.49,-194.33"/>
<polygon fill="midnightblue" stroke="midnightblue" points="1228.86,-191.75 1219.15,-187.51 1224.09,-196.88 1228.86,-191.75"/>
</g>
<!-- Node33&#45;&gt;Node31 -->
<g id="edge59" class="edge">
<title>Node33&#45;&gt;Node31</title>
<path fill="none" stroke="midnightblue" d="M1219.13,-229.98C1149.59,-219.17 1029.9,-200.58 955.9,-189.08"/>
<polygon fill="midnightblue" stroke="midnightblue" points="956.19,-185.59 945.77,-187.51 955.12,-192.5 956.19,-185.59"/>
</g>
<!-- Node34 -->
<g id="node34" class="node">
<title>Node34</title>
<g id="a_node34"><a xlink:title=" ">
<polygon fill="white" stroke="#bfbfbf" points="1266.5,-168.5 1266.5,-187.5 1337.5,-187.5 1337.5,-168.5 1266.5,-168.5"/>
<text text-anchor="middle" x="1302" y="-175.5" font-family="Helvetica,sans-Serif" font-size="10.00">sys/socket.h</text>
</a>
</g>
</g>
<!-- Node33&#45;&gt;Node34 -->
<g id="edge61" class="edge">
<title>Node33&#45;&gt;Node34</title>
<path fill="none" stroke="midnightblue" d="M1278.01,-229.98C1282.09,-221.32 1288.52,-207.65 1293.7,-196.65"/>
<polygon fill="midnightblue" stroke="midnightblue" points="1296.9,-198.05 1298,-187.51 1290.57,-195.07 1296.9,-198.05"/>
</g>
<!-- Node36&#45;&gt;Node6 -->
<g id="edge66" class="edge">
<title>Node36&#45;&gt;Node6</title>
<path fill="none" stroke="midnightblue" d="M598.13,-366.75C599.66,-373.86 600.1,-384.14 599.47,-393.1"/>
<polygon fill="midnightblue" stroke="midnightblue" points="595.99,-392.71 598.17,-403.08 602.93,-393.62 595.99,-392.71"/>
</g>
<!-- Node36&#45;&gt;Node15 -->
<g id="edge64" class="edge">
<title>Node36&#45;&gt;Node15</title>
<path fill="none" stroke="midnightblue" d="M595.32,-347.36C601.92,-324.31 622.92,-260.57 662,-224 713.75,-175.57 792.53,-147.85 842.88,-134.11"/>
<polygon fill="midnightblue" stroke="midnightblue" points="843.79,-137.49 852.56,-131.55 841.99,-130.73 843.79,-137.49"/>
</g>
<!-- Node36&#45;&gt;Node23 -->
<g id="edge65" class="edge">
<title>Node36&#45;&gt;Node23</title>
<path fill="none" stroke="midnightblue" d="M574.94,-347.44C556.43,-338.68 527.42,-324.94 506.14,-314.86"/>
<polygon fill="midnightblue" stroke="midnightblue" points="507.51,-311.63 496.98,-310.52 504.52,-317.96 507.51,-311.63"/>
</g>
<!-- Node37&#45;&gt;Node4 -->
<g id="edge68" class="edge">
<title>Node37&#45;&gt;Node4</title>
<path fill="none" stroke="midnightblue" d="M196.84,-310.66C203.66,-319.51 214.21,-333.79 222,-347 242.71,-382.14 262.22,-425.81 272.49,-449.91"/>
<polygon fill="midnightblue" stroke="midnightblue" points="269.31,-451.37 276.41,-459.23 275.76,-448.66 269.31,-451.37"/>
</g>
<!-- Node38&#45;&gt;Node2 -->
<g id="edge70" class="edge">
<title>Node38&#45;&gt;Node2</title>
<path fill="none" stroke="midnightblue" d="M159.12,-366.59C159.97,-389.39 165.74,-451.57 203,-479 237.15,-504.14 824.27,-517.78 1061.62,-522.29"/>
<polygon fill="midnightblue" stroke="midnightblue" points="1061.57,-525.79 1071.63,-522.48 1061.7,-518.79 1061.57,-525.79"/>
</g>
<!-- Node38&#45;&gt;Node37 -->
<g id="edge71" class="edge">
<title>Node38&#45;&gt;Node37</title>
<path fill="none" stroke="midnightblue" d="M164.12,-347.08C168.41,-339.61 174.66,-328.72 179.94,-319.52"/>
<polygon fill="midnightblue" stroke="midnightblue" points="183.03,-321.17 184.98,-310.75 176.96,-317.68 183.03,-321.17"/>
</g>
<!-- Node39&#45;&gt;Node3 -->
<g id="edge76" class="edge">
<title>Node39&#45;&gt;Node3</title>
<path fill="none" stroke="midnightblue" d="M1489.29,-459.5C1523.99,-444.63 1587,-410.43 1587,-358 1587,-358 1587,-358 1587,-177 1587,-137.08 1560.72,-129.84 1525,-112 1463.82,-81.45 1256.04,-70.98 1175.38,-68.01"/>
<polygon fill="midnightblue" stroke="midnightblue" points="1175.43,-64.51 1165.31,-67.66 1175.18,-71.51 1175.43,-64.51"/>
</g>
<!-- Node40 -->
<g id="node40" class="node">
<title>Node40</title>
<g id="a_node40"><a xlink:href="_gui_object_8h.html" target="_top" xlink:title=" ">
<polygon fill="white" stroke="black" points="1364,-403.5 1364,-422.5 1484,-422.5 1484,-403.5 1364,-403.5"/>
<text text-anchor="middle" x="1424" y="-410.5" font-family="Helvetica,sans-Serif" font-size="10.00">engine/GUI/GuiObject.h</text>
</a>
</g>
</g>
<!-- Node39&#45;&gt;Node40 -->
<g id="edge74" class="edge">
<title>Node39&#45;&gt;Node40</title>
<path fill="none" stroke="midnightblue" d="M1459.9,-459.08C1453.76,-451.38 1444.73,-440.03 1437.26,-430.65"/>
<polygon fill="midnightblue" stroke="midnightblue" points="1439.94,-428.39 1430.97,-422.75 1434.46,-432.75 1439.94,-428.39"/>
</g>
<!-- Node40&#45;&gt;Node8 -->
<g id="edge75" class="edge">
<title>Node40&#45;&gt;Node8</title>
<path fill="none" stroke="midnightblue" d="M1426.93,-403.21C1436.12,-373.82 1461.2,-277.76 1416,-224 1413.43,-220.95 1318.75,-201.17 1258.65,-188.87"/>
<polygon fill="midnightblue" stroke="midnightblue" points="1259.09,-185.39 1248.6,-186.81 1257.69,-192.24 1259.09,-185.39"/>
</g>
<!-- Node41&#45;&gt;Node40 -->
<g id="edge79" class="edge">
<title>Node41&#45;&gt;Node40</title>
<path fill="none" stroke="midnightblue" d="M1323.01,-459.44C1342.59,-450.64 1373.31,-436.81 1395.73,-426.72"/>
<polygon fill="midnightblue" stroke="midnightblue" points="1397.39,-429.81 1405.07,-422.52 1394.52,-423.43 1397.39,-429.81"/>
</g>
<!-- Node42&#45;&gt;Node40 -->
<g id="edge82" class="edge">
<title>Node42&#45;&gt;Node40</title>
<path fill="none" stroke="midnightblue" d="M1365.02,-515.37C1375.54,-497.3 1400.04,-455.18 1413.93,-431.31"/>
<polygon fill="midnightblue" stroke="midnightblue" points="1417,-433 1419,-422.59 1410.95,-429.47 1417,-433"/>
</g>
<!-- Node43&#45;&gt;Node9 -->
<g id="edge85" class="edge">
<title>Node43&#45;&gt;Node9</title>
<path fill="none" stroke="midnightblue" d="M1501.41,-515.2C1509.99,-506.69 1522.45,-493.05 1530,-479 1544.24,-452.48 1549,-444.1 1549,-414 1549,-414 1549,-414 1549,-300 1549,-230.55 1486.19,-166.68 1453.81,-138.37"/>
<polygon fill="midnightblue" stroke="midnightblue" points="1455.81,-135.48 1445.93,-131.66 1451.27,-140.8 1455.81,-135.48"/>
</g>
<!-- Node43&#45;&gt;Node39 -->
<g id="edge84" class="edge">
<title>Node43&#45;&gt;Node39</title>
<path fill="none" stroke="midnightblue" d="M1487.87,-515.08C1484.49,-507.77 1479.58,-497.18 1475.38,-488.1"/>
<polygon fill="midnightblue" stroke="midnightblue" points="1478.43,-486.36 1471.05,-478.75 1472.08,-489.3 1478.43,-486.36"/>
</g>
</g>
</svg>
