<?xml version="1.0" encoding="UTF-8" standalone="no"?>
<!DOCTYPE svg PUBLIC "-//W3C//DTD SVG 1.1//EN"
 "http://www.w3.org/Graphics/SVG/1.1/DTD/svg11.dtd">
<!-- Generated by graphviz version 2.47.1 (20210421.1823)
 -->
<!-- Title: include/graphics/Textures.h Pages: 1 -->
<svg width="405pt" height="196pt"
 viewBox="0.00 0.00 405.00 196.00" xmlns="http://www.w3.org/2000/svg" xmlns:xlink="http://www.w3.org/1999/xlink">
<g id="graph0" class="graph" transform="scale(1 1) rotate(0) translate(4 192)">
<title>include/graphics/Textures.h</title>
<polygon fill="white" stroke="transparent" points="-4,4 -4,-192 401,-192 401,4 -4,4"/>
<!-- Node1 -->
<g id="node1" class="node">
<title>Node1</title>
<g id="a_node1"><a xlink:title=" ">
<polygon fill="#bfbfbf" stroke="black" points="206,-168.5 206,-187.5 341,-187.5 341,-168.5 206,-168.5"/>
<text text-anchor="middle" x="273.5" y="-175.5" font-family="Helvetica,sans-Serif" font-size="10.00">include/graphics/Textures.h</text>
</a>
</g>
</g>
<!-- Node2 -->
<g id="node2" class="node">
<title>Node2</title>
<g id="a_node2"><a xlink:href="config_8h.html" target="_top" xlink:title=" ">
<polygon fill="white" stroke="black" points="152,-112.5 152,-131.5 233,-131.5 233,-112.5 152,-112.5"/>
<text text-anchor="middle" x="192.5" y="-119.5" font-family="Helvetica,sans-Serif" font-size="10.00">engine/config.h</text>
</a>
</g>
</g>
<!-- Node1&#45;&gt;Node2 -->
<g id="edge1" class="edge">
<title>Node1&#45;&gt;Node2</title>
<path fill="none" stroke="midnightblue" d="M260.49,-168.32C247.97,-159.98 228.82,-147.21 214.03,-137.35"/>
<polygon fill="midnightblue" stroke="midnightblue" points="215.74,-134.29 205.48,-131.65 211.86,-140.11 215.74,-134.29"/>
</g>
<!-- Node8 -->
<g id="node8" class="node">
<title>Node8</title>
<g id="a_node8"><a xlink:title=" ">
<polygon fill="white" stroke="#bfbfbf" points="251.5,-112.5 251.5,-131.5 295.5,-131.5 295.5,-112.5 251.5,-112.5"/>
<text text-anchor="middle" x="273.5" y="-119.5" font-family="Helvetica,sans-Serif" font-size="10.00">vector</text>
</a>
</g>
</g>
<!-- Node1&#45;&gt;Node8 -->
<g id="edge9" class="edge">
<title>Node1&#45;&gt;Node8</title>
<path fill="none" stroke="midnightblue" d="M273.5,-168.08C273.5,-161.01 273.5,-150.86 273.5,-141.99"/>
<polygon fill="midnightblue" stroke="midnightblue" points="277,-141.75 273.5,-131.75 270,-141.75 277,-141.75"/>
</g>
<!-- Node9 -->
<g id="node9" class="node">
<title>Node9</title>
<g id="a_node9"><a xlink:title=" ">
<polygon fill="white" stroke="#bfbfbf" points="314,-112.5 314,-131.5 397,-131.5 397,-112.5 314,-112.5"/>
<text text-anchor="middle" x="355.5" y="-119.5" font-family="Helvetica,sans-Serif" font-size="10.00">unordered_map</text>
</a>
</g>
</g>
<!-- Node1&#45;&gt;Node9 -->
<g id="edge10" class="edge">
<title>Node1&#45;&gt;Node9</title>
<path fill="none" stroke="midnightblue" d="M286.67,-168.32C299.35,-159.98 318.73,-147.21 333.71,-137.35"/>
<polygon fill="midnightblue" stroke="midnightblue" points="335.93,-140.08 342.36,-131.65 332.08,-134.23 335.93,-140.08"/>
</g>
<!-- Node3 -->
<g id="node3" class="node">
<title>Node3</title>
<g id="a_node3"><a xlink:href="_s_f_m_l_facade_8h.html" target="_top" xlink:title=" ">
<polygon fill="white" stroke="black" points="131,-56.5 131,-75.5 254,-75.5 254,-56.5 131,-56.5"/>
<text text-anchor="middle" x="192.5" y="-63.5" font-family="Helvetica,sans-Serif" font-size="10.00">graphics/SFMLFacade.h</text>
</a>
</g>
</g>
<!-- Node2&#45;&gt;Node3 -->
<g id="edge2" class="edge">
<title>Node2&#45;&gt;Node3</title>
<path fill="none" stroke="midnightblue" d="M192.5,-112.08C192.5,-105.01 192.5,-94.86 192.5,-85.99"/>
<polygon fill="midnightblue" stroke="midnightblue" points="196,-85.75 192.5,-75.75 189,-85.75 196,-85.75"/>
</g>
<!-- Node6 -->
<g id="node6" class="node">
<title>Node6</title>
<g id="a_node6"><a xlink:href="_fan_facade_8h.html" target="_top" xlink:title=" ">
<polygon fill="white" stroke="black" points="0,-56.5 0,-75.5 113,-75.5 113,-56.5 0,-56.5"/>
<text text-anchor="middle" x="56.5" y="-63.5" font-family="Helvetica,sans-Serif" font-size="10.00">graphics/FanFacade.h</text>
</a>
</g>
</g>
<!-- Node2&#45;&gt;Node6 -->
<g id="edge5" class="edge">
<title>Node2&#45;&gt;Node6</title>
<path fill="none" stroke="midnightblue" d="M170.95,-112.44C148.47,-103.52 113.01,-89.44 87.52,-79.32"/>
<polygon fill="midnightblue" stroke="midnightblue" points="88.53,-75.95 77.95,-75.52 85.95,-82.46 88.53,-75.95"/>
</g>
<!-- Node7 -->
<g id="node7" class="node">
<title>Node7</title>
<g id="a_node7"><a xlink:title=" ">
<polygon fill="white" stroke="#bfbfbf" points="272.5,-56.5 272.5,-75.5 370.5,-75.5 370.5,-56.5 272.5,-56.5"/>
<text text-anchor="middle" x="321.5" y="-63.5" font-family="Helvetica,sans-Serif" font-size="10.00">nlohmann/json.hpp</text>
</a>
</g>
</g>
<!-- Node2&#45;&gt;Node7 -->
<g id="edge8" class="edge">
<title>Node2&#45;&gt;Node7</title>
<path fill="none" stroke="midnightblue" d="M212.94,-112.44C234.17,-103.56 267.6,-89.56 291.75,-79.45"/>
<polygon fill="midnightblue" stroke="midnightblue" points="293.28,-82.61 301.16,-75.52 290.58,-76.15 293.28,-82.61"/>
</g>
<!-- Node4 -->
<g id="node4" class="node">
<title>Node4</title>
<g id="a_node4"><a xlink:title=" ">
<polygon fill="white" stroke="#bfbfbf" points="23.5,-0.5 23.5,-19.5 127.5,-19.5 127.5,-0.5 23.5,-0.5"/>
<text text-anchor="middle" x="75.5" y="-7.5" font-family="Helvetica,sans-Serif" font-size="10.00">SFML/Graphics.hpp</text>
</a>
</g>
</g>
<!-- Node3&#45;&gt;Node4 -->
<g id="edge3" class="edge">
<title>Node3&#45;&gt;Node4</title>
<path fill="none" stroke="midnightblue" d="M173.96,-56.44C154.88,-47.64 124.93,-33.81 103.06,-23.72"/>
<polygon fill="midnightblue" stroke="midnightblue" points="104.5,-20.53 93.95,-19.52 101.57,-26.88 104.5,-20.53"/>
</g>
<!-- Node5 -->
<g id="node5" class="node">
<title>Node5</title>
<g id="a_node5"><a xlink:href="_facade_8h.html" target="_top" xlink:title=" ">
<polygon fill="white" stroke="black" points="154.5,-0.5 154.5,-19.5 210.5,-19.5 210.5,-0.5 154.5,-0.5"/>
<text text-anchor="middle" x="182.5" y="-7.5" font-family="Helvetica,sans-Serif" font-size="10.00">Facade.h</text>
</a>
</g>
</g>
<!-- Node3&#45;&gt;Node5 -->
<g id="edge4" class="edge">
<title>Node3&#45;&gt;Node5</title>
<path fill="none" stroke="midnightblue" d="M190.85,-56.08C189.52,-48.93 187.62,-38.64 185.96,-29.69"/>
<polygon fill="midnightblue" stroke="midnightblue" points="189.38,-28.95 184.12,-19.75 182.5,-30.22 189.38,-28.95"/>
</g>
<!-- Node6&#45;&gt;Node4 -->
<g id="edge6" class="edge">
<title>Node6&#45;&gt;Node4</title>
<path fill="none" stroke="midnightblue" d="M59.64,-56.08C62.18,-48.85 65.86,-38.41 69.03,-29.4"/>
<polygon fill="midnightblue" stroke="midnightblue" points="72.4,-30.35 72.42,-19.75 65.8,-28.02 72.4,-30.35"/>
</g>
<!-- Node6&#45;&gt;Node5 -->
<g id="edge7" class="edge">
<title>Node6&#45;&gt;Node5</title>
<path fill="none" stroke="midnightblue" d="M76.47,-56.44C97.11,-47.6 129.56,-33.69 153.13,-23.59"/>
<polygon fill="midnightblue" stroke="midnightblue" points="154.82,-26.67 162.63,-19.52 152.06,-20.24 154.82,-26.67"/>
</g>
</g>
</svg>
