<?xml version="1.0" encoding="UTF-8" standalone="no"?>
<!DOCTYPE svg PUBLIC "-//W3C//DTD SVG 1.1//EN"
 "http://www.w3.org/Graphics/SVG/1.1/DTD/svg11.dtd">
<!-- Generated by graphviz version 2.47.1 (20210421.1823)
 -->
<!-- Title: include/graphics/Textures.h Pages: 1 -->
<svg width="1678pt" height="564pt"
 viewBox="0.00 0.00 1678.00 564.00" xmlns="http://www.w3.org/2000/svg" xmlns:xlink="http://www.w3.org/1999/xlink">
<g id="graph0" class="graph" transform="scale(1 1) rotate(0) translate(4 560)">
<title>include/graphics/Textures.h</title>
<polygon fill="white" stroke="transparent" points="-4,4 -4,-560 1674,-560 1674,4 -4,4"/>
<!-- Node1 -->
<g id="node1" class="node">
<title>Node1</title>
<g id="a_node1"><a xlink:title=" ">
<polygon fill="#bfbfbf" stroke="black" points="865.5,-536.5 865.5,-555.5 1000.5,-555.5 1000.5,-536.5 865.5,-536.5"/>
<text text-anchor="middle" x="933" y="-543.5" font-family="Helvetica,sans-Serif" font-size="10.00">include/graphics/Textures.h</text>
</a>
</g>
</g>
<!-- Node2 -->
<g id="node2" class="node">
<title>Node2</title>
<g id="a_node2"><a xlink:href="_squad_8cpp.html" target="_top" xlink:title=" ">
<polygon fill="white" stroke="black" points="0,-67.5 0,-97.5 114,-97.5 114,-67.5 0,-67.5"/>
<text text-anchor="start" x="8" y="-85.5" font-family="Helvetica,sans-Serif" font-size="10.00">src/GameLogic/Squad</text>
<text text-anchor="middle" x="57" y="-74.5" font-family="Helvetica,sans-Serif" font-size="10.00">/Squad.cpp</text>
</a>
</g>
</g>
<!-- Node1&#45;&gt;Node2 -->
<g id="edge1" class="edge">
<title>Node1&#45;&gt;Node2</title>
<path fill="none" stroke="midnightblue" d="M855.17,-545.59C683.1,-546.07 275.29,-542.54 145,-500 81.6,-479.3 19,-485.19 19,-418.5 19,-418.5 19,-418.5 19,-215.5 19,-171.14 39.06,-121.56 50.03,-97.76"/>
<polygon fill="midnightblue" stroke="midnightblue" points="855.43,-549.09 865.42,-545.55 855.41,-542.09 855.43,-549.09"/>
</g>
<!-- Node3 -->
<g id="node3" class="node">
<title>Node3</title>
<g id="a_node3"><a xlink:href="_all_units_8cpp.html" target="_top" xlink:title=" ">
<polygon fill="white" stroke="black" points="1128,-0.5 1128,-30.5 1238,-30.5 1238,-0.5 1128,-0.5"/>
<text text-anchor="start" x="1136" y="-18.5" font-family="Helvetica,sans-Serif" font-size="10.00">src/GameLogic/Units</text>
<text text-anchor="middle" x="1183" y="-7.5" font-family="Helvetica,sans-Serif" font-size="10.00">/AllUnits.cpp</text>
</a>
</g>
</g>
<!-- Node1&#45;&gt;Node3 -->
<g id="edge2" class="edge">
<title>Node1&#45;&gt;Node3</title>
<path fill="none" stroke="midnightblue" d="M1010.65,-544.16C1168.92,-540.34 1514,-520.33 1514,-418.5 1514,-418.5 1514,-418.5 1514,-148.5 1514,-111.31 1522.19,-92.38 1495,-67 1476.5,-49.73 1322.61,-31.12 1238.09,-22.08"/>
<polygon fill="midnightblue" stroke="midnightblue" points="1010.42,-540.66 1000.5,-544.39 1010.58,-547.66 1010.42,-540.66"/>
</g>
<!-- Node4 -->
<g id="node4" class="node">
<title>Node4</title>
<g id="a_node4"><a xlink:href="_textures_8cpp.html" target="_top" xlink:title=" ">
<polygon fill="white" stroke="black" points="1542,-475 1542,-494 1670,-494 1670,-475 1542,-475"/>
<text text-anchor="middle" x="1606" y="-482" font-family="Helvetica,sans-Serif" font-size="10.00">src/graphics/Textures.cpp</text>
</a>
</g>
</g>
<!-- Node1&#45;&gt;Node4 -->
<g id="edge3" class="edge">
<title>Node1&#45;&gt;Node4</title>
<path fill="none" stroke="midnightblue" d="M1010.63,-541.81C1124.49,-536.54 1343.28,-524.08 1528,-500 1540.02,-498.43 1552.99,-496.23 1564.84,-494.01"/>
<polygon fill="midnightblue" stroke="midnightblue" points="1010.44,-538.32 1000.61,-542.27 1010.76,-545.31 1010.44,-538.32"/>
</g>
<!-- Node5 -->
<g id="node5" class="node">
<title>Node5</title>
<g id="a_node5"><a xlink:href="main_8cpp.html" target="_top" xlink:title=" ">
<polygon fill="white" stroke="black" points="85,-207 85,-226 157,-226 157,-207 85,-207"/>
<text text-anchor="middle" x="121" y="-214" font-family="Helvetica,sans-Serif" font-size="10.00">src/main.cpp</text>
</a>
</g>
</g>
<!-- Node1&#45;&gt;Node5 -->
<g id="edge4" class="edge">
<title>Node1&#45;&gt;Node5</title>
<path fill="none" stroke="midnightblue" d="M855.12,-541.89C640.61,-532.28 57,-498.77 57,-418.5 57,-418.5 57,-418.5 57,-349.5 57,-298.31 96.45,-246.13 113.41,-226.07"/>
<polygon fill="midnightblue" stroke="midnightblue" points="855.21,-545.39 865.35,-542.34 855.52,-538.4 855.21,-545.39"/>
</g>
<!-- Node6 -->
<g id="node6" class="node">
<title>Node6</title>
<g id="a_node6"><a xlink:href="_unit_8h.html" target="_top" xlink:title=" ">
<polygon fill="white" stroke="black" points="869.5,-469.5 869.5,-499.5 996.5,-499.5 996.5,-469.5 869.5,-469.5"/>
<text text-anchor="start" x="877.5" y="-487.5" font-family="Helvetica,sans-Serif" font-size="10.00">include/GameLogic/Units</text>
<text text-anchor="middle" x="933" y="-476.5" font-family="Helvetica,sans-Serif" font-size="10.00">/Unit.h</text>
</a>
</g>
</g>
<!-- Node1&#45;&gt;Node6 -->
<g id="edge5" class="edge">
<title>Node1&#45;&gt;Node6</title>
<path fill="none" stroke="midnightblue" d="M933,-526.23C933,-517.59 933,-507.5 933,-499.52"/>
<polygon fill="midnightblue" stroke="midnightblue" points="929.5,-526.48 933,-536.48 936.5,-526.48 929.5,-526.48"/>
</g>
<!-- Node7 -->
<g id="node7" class="node">
<title>Node7</title>
<g id="a_node7"><a xlink:href="_unit_8cpp.html" target="_top" xlink:title=" ">
<polygon fill="white" stroke="black" points="1006,-335.5 1006,-365.5 1116,-365.5 1116,-335.5 1006,-335.5"/>
<text text-anchor="start" x="1014" y="-353.5" font-family="Helvetica,sans-Serif" font-size="10.00">src/GameLogic/Units</text>
<text text-anchor="middle" x="1061" y="-342.5" font-family="Helvetica,sans-Serif" font-size="10.00">/Unit.cpp</text>
</a>
</g>
</g>
<!-- Node6&#45;&gt;Node7 -->
<g id="edge6" class="edge">
<title>Node6&#45;&gt;Node7</title>
<path fill="none" stroke="midnightblue" d="M966.83,-463.87C979.91,-455.36 994.47,-444.67 1006,-433 1026.52,-412.24 1044.17,-382.85 1053.62,-365.62"/>
<polygon fill="midnightblue" stroke="midnightblue" points="964.65,-461.11 958.07,-469.41 968.39,-467.03 964.65,-461.11"/>
</g>
<!-- Node8 -->
<g id="node8" class="node">
<title>Node8</title>
<g id="a_node8"><a xlink:href="_squad_8h.html" target="_top" xlink:title=" ">
<polygon fill="white" stroke="black" points="365.5,-402.5 365.5,-432.5 496.5,-432.5 496.5,-402.5 365.5,-402.5"/>
<text text-anchor="start" x="373.5" y="-420.5" font-family="Helvetica,sans-Serif" font-size="10.00">include/GameLogic/Squad</text>
<text text-anchor="middle" x="431" y="-409.5" font-family="Helvetica,sans-Serif" font-size="10.00">/Squad.h</text>
</a>
</g>
</g>
<!-- Node6&#45;&gt;Node8 -->
<g id="edge7" class="edge">
<title>Node6&#45;&gt;Node8</title>
<path fill="none" stroke="midnightblue" d="M859.29,-474.58C761.44,-462.24 590.27,-440.08 496.65,-427.63"/>
<polygon fill="midnightblue" stroke="midnightblue" points="859.04,-478.08 869.4,-475.85 859.91,-471.13 859.04,-478.08"/>
</g>
<!-- Node16 -->
<g id="node16" class="node">
<title>Node16</title>
<g id="a_node16"><a xlink:href="_factory_8h.html" target="_top" xlink:title=" ">
<polygon fill="white" stroke="black" points="1028.5,-201.5 1028.5,-231.5 1155.5,-231.5 1155.5,-201.5 1028.5,-201.5"/>
<text text-anchor="start" x="1036.5" y="-219.5" font-family="Helvetica,sans-Serif" font-size="10.00">include/GameLogic/Units</text>
<text text-anchor="middle" x="1092" y="-208.5" font-family="Helvetica,sans-Serif" font-size="10.00">/Factory.h</text>
</a>
</g>
</g>
<!-- Node6&#45;&gt;Node16 -->
<g id="edge56" class="edge">
<title>Node6&#45;&gt;Node16</title>
<path fill="none" stroke="midnightblue" d="M992.13,-466.01C1038.12,-448.84 1098.43,-417.57 1125,-366 1148.35,-320.69 1117.73,-259.3 1101.25,-231.82"/>
<polygon fill="midnightblue" stroke="midnightblue" points="990.77,-462.78 982.55,-469.47 993.14,-469.37 990.77,-462.78"/>
</g>
<!-- Node32 -->
<g id="node32" class="node">
<title>Node32</title>
<g id="a_node32"><a xlink:href="_squad_order_8h.html" target="_top" xlink:title=" ">
<polygon fill="white" stroke="black" points="728.5,-335.5 728.5,-365.5 859.5,-365.5 859.5,-335.5 728.5,-335.5"/>
<text text-anchor="start" x="736.5" y="-353.5" font-family="Helvetica,sans-Serif" font-size="10.00">include/GameLogic/Squad</text>
<text text-anchor="middle" x="794" y="-342.5" font-family="Helvetica,sans-Serif" font-size="10.00">/SquadOrder.h</text>
</a>
</g>
</g>
<!-- Node6&#45;&gt;Node32 -->
<g id="edge51" class="edge">
<title>Node6&#45;&gt;Node32</title>
<path fill="none" stroke="midnightblue" d="M901.08,-463.83C888.04,-455.12 873.19,-444.3 861,-433 838.16,-411.84 816.11,-382.84 803.87,-365.75"/>
<polygon fill="midnightblue" stroke="midnightblue" points="899.47,-466.96 909.76,-469.5 903.3,-461.1 899.47,-466.96"/>
</g>
<!-- Node34 -->
<g id="node34" class="node">
<title>Node34</title>
<g id="a_node34"><a xlink:href="_armored_unit_8h.html" target="_top" xlink:title=" ">
<polygon fill="white" stroke="black" points="1338.5,-335.5 1338.5,-365.5 1465.5,-365.5 1465.5,-335.5 1338.5,-335.5"/>
<text text-anchor="start" x="1346.5" y="-353.5" font-family="Helvetica,sans-Serif" font-size="10.00">include/GameLogic/Units</text>
<text text-anchor="middle" x="1402" y="-342.5" font-family="Helvetica,sans-Serif" font-size="10.00">/ArmoredUnit.h</text>
</a>
</g>
</g>
<!-- Node6&#45;&gt;Node34 -->
<g id="edge53" class="edge">
<title>Node6&#45;&gt;Node34</title>
<path fill="none" stroke="midnightblue" d="M1006.75,-480.14C1105.25,-474.63 1273.67,-461.31 1328,-433 1358,-417.37 1381.89,-384.39 1393.78,-365.53"/>
<polygon fill="midnightblue" stroke="midnightblue" points="1006.36,-476.66 996.56,-480.7 1006.74,-483.65 1006.36,-476.66"/>
</g>
<!-- Node36 -->
<g id="node36" class="node">
<title>Node36</title>
<g id="a_node36"><a xlink:href="_land_unit_8h.html" target="_top" xlink:title=" ">
<polygon fill="white" stroke="black" points="636.5,-402.5 636.5,-432.5 763.5,-432.5 763.5,-402.5 636.5,-402.5"/>
<text text-anchor="start" x="644.5" y="-420.5" font-family="Helvetica,sans-Serif" font-size="10.00">include/GameLogic/Units</text>
<text text-anchor="middle" x="700" y="-409.5" font-family="Helvetica,sans-Serif" font-size="10.00">/LandUnit.h</text>
</a>
</g>
</g>
<!-- Node6&#45;&gt;Node36 -->
<g id="edge57" class="edge">
<title>Node6&#45;&gt;Node36</title>
<path fill="none" stroke="midnightblue" d="M872.83,-466.71C834.92,-456.14 786.51,-442.63 750.58,-432.61"/>
<polygon fill="midnightblue" stroke="midnightblue" points="872.16,-470.16 882.73,-469.48 874.04,-463.42 872.16,-470.16"/>
</g>
<!-- Node38 -->
<g id="node38" class="node">
<title>Node38</title>
<g id="a_node38"><a xlink:href="_transport_unit_8h.html" target="_top" xlink:title=" ">
<polygon fill="white" stroke="black" points="1191.5,-402.5 1191.5,-432.5 1318.5,-432.5 1318.5,-402.5 1191.5,-402.5"/>
<text text-anchor="start" x="1199.5" y="-420.5" font-family="Helvetica,sans-Serif" font-size="10.00">include/GameLogic/Units</text>
<text text-anchor="middle" x="1255" y="-409.5" font-family="Helvetica,sans-Serif" font-size="10.00">/TransportUnit.h</text>
</a>
</g>
</g>
<!-- Node6&#45;&gt;Node38 -->
<g id="edge60" class="edge">
<title>Node6&#45;&gt;Node38</title>
<path fill="none" stroke="midnightblue" d="M1006.43,-468.68C1062.17,-457.43 1138.03,-442.11 1191.24,-431.37"/>
<polygon fill="midnightblue" stroke="midnightblue" points="1005.73,-465.25 996.62,-470.66 1007.11,-472.11 1005.73,-465.25"/>
</g>
<!-- Node40 -->
<g id="node40" class="node">
<title>Node40</title>
<g id="a_node40"><a xlink:href="_unit_order_8h.html" target="_top" xlink:title=" ">
<polygon fill="white" stroke="black" points="869.5,-402.5 869.5,-432.5 996.5,-432.5 996.5,-402.5 869.5,-402.5"/>
<text text-anchor="start" x="877.5" y="-420.5" font-family="Helvetica,sans-Serif" font-size="10.00">include/GameLogic/Units</text>
<text text-anchor="middle" x="933" y="-409.5" font-family="Helvetica,sans-Serif" font-size="10.00">/UnitOrder.h</text>
</a>
</g>
</g>
<!-- Node6&#45;&gt;Node40 -->
<g id="edge64" class="edge">
<title>Node6&#45;&gt;Node40</title>
<path fill="none" stroke="midnightblue" d="M926.45,-459.4C926.01,-450.37 926.3,-440.41 927.33,-432.58"/>
<polygon fill="midnightblue" stroke="midnightblue" points="922.97,-459.74 927.32,-469.4 929.94,-459.13 922.97,-459.74"/>
</g>
<!-- Node8&#45;&gt;Node2 -->
<g id="edge8" class="edge">
<title>Node8&#45;&gt;Node2</title>
<path fill="none" stroke="midnightblue" d="M355.37,-400.99C270.86,-379.22 137.8,-330.67 76,-232 49.23,-189.27 52.12,-126.02 55.09,-97.89"/>
<polygon fill="midnightblue" stroke="midnightblue" points="354.62,-404.41 365.17,-403.45 356.32,-397.62 354.62,-404.41"/>
</g>
<!-- Node8&#45;&gt;Node6 -->
<g id="edge49" class="edge">
<title>Node8&#45;&gt;Node6</title>
<path fill="none" stroke="midnightblue" d="M506.74,-427.68C605.61,-440.15 776.79,-462.32 869.32,-474.63"/>
<polygon fill="midnightblue" stroke="midnightblue" points="506.88,-424.17 496.52,-426.39 506,-431.11 506.88,-424.17"/>
</g>
<!-- Node9 -->
<g id="node9" class="node">
<title>Node9</title>
<g id="a_node9"><a xlink:href="_set_squad_path_8h.html" target="_top" xlink:title=" ">
<polygon fill="white" stroke="black" points="374.5,-335.5 374.5,-365.5 487.5,-365.5 487.5,-335.5 374.5,-335.5"/>
<text text-anchor="start" x="382.5" y="-353.5" font-family="Helvetica,sans-Serif" font-size="10.00">include/engine/actions</text>
<text text-anchor="middle" x="431" y="-342.5" font-family="Helvetica,sans-Serif" font-size="10.00">/SetSquadPath.h</text>
</a>
</g>
</g>
<!-- Node8&#45;&gt;Node9 -->
<g id="edge9" class="edge">
<title>Node8&#45;&gt;Node9</title>
<path fill="none" stroke="midnightblue" d="M431,-392.11C431,-383.15 431,-373.32 431,-365.58"/>
<polygon fill="midnightblue" stroke="midnightblue" points="427.5,-392.4 431,-402.4 434.5,-392.4 427.5,-392.4"/>
</g>
<!-- Node12 -->
<g id="node12" class="node">
<title>Node12</title>
<g id="a_node12"><a xlink:href="_cell_8h.html" target="_top" xlink:title=" ">
<polygon fill="white" stroke="black" points="544,-274 544,-293 672,-293 672,-274 544,-274"/>
<text text-anchor="middle" x="608" y="-281" font-family="Helvetica,sans-Serif" font-size="10.00">include/GameLogic/Cell.h</text>
</a>
</g>
</g>
<!-- Node8&#45;&gt;Node12 -->
<g id="edge47" class="edge">
<title>Node8&#45;&gt;Node12</title>
<path fill="none" stroke="midnightblue" d="M453.73,-395.77C490.54,-366.33 561.63,-313.69 592.92,-293.1"/>
<polygon fill="midnightblue" stroke="midnightblue" points="451.14,-393.36 445.57,-402.37 455.55,-398.8 451.14,-393.36"/>
</g>
<!-- Node14 -->
<g id="node14" class="node">
<title>Node14</title>
<g id="a_node14"><a xlink:href="_game_logic_2_squad_2_action_8h.html" target="_top" xlink:title=" ">
<polygon fill="white" stroke="black" points="313.5,-201.5 313.5,-231.5 444.5,-231.5 444.5,-201.5 313.5,-201.5"/>
<text text-anchor="start" x="321.5" y="-219.5" font-family="Helvetica,sans-Serif" font-size="10.00">include/GameLogic/Squad</text>
<text text-anchor="middle" x="379" y="-208.5" font-family="Helvetica,sans-Serif" font-size="10.00">/Action.h</text>
</a>
</g>
</g>
<!-- Node8&#45;&gt;Node14 -->
<g id="edge48" class="edge">
<title>Node8&#45;&gt;Node14</title>
<path fill="none" stroke="midnightblue" d="M385.09,-397.75C348.05,-378.48 299.04,-344.82 278,-299 272.25,-286.48 270.98,-279.86 278,-268 288.07,-250.99 306.13,-239.32 324.28,-231.53"/>
<polygon fill="midnightblue" stroke="midnightblue" points="383.71,-400.98 394.22,-402.34 386.86,-394.73 383.71,-400.98"/>
</g>
<!-- Node30 -->
<g id="node30" class="node">
<title>Node30</title>
<g id="a_node30"><a xlink:href="pathfinding_8h.html" target="_top" xlink:title=" ">
<polygon fill="white" stroke="black" points="175,-207 175,-226 295,-226 295,-207 175,-207"/>
<text text-anchor="middle" x="235" y="-214" font-family="Helvetica,sans-Serif" font-size="10.00">include/util/pathfinding.h</text>
</a>
</g>
</g>
<!-- Node8&#45;&gt;Node30 -->
<g id="edge50" class="edge">
<title>Node8&#45;&gt;Node30</title>
<path fill="none" stroke="midnightblue" d="M364.72,-398.89C345.06,-391.23 324.63,-380.58 309,-366 264.76,-324.75 243.31,-251.25 237.02,-226.17"/>
<polygon fill="midnightblue" stroke="midnightblue" points="363.69,-402.25 374.28,-402.42 366.11,-395.68 363.69,-402.25"/>
</g>
<!-- Node10 -->
<g id="node10" class="node">
<title>Node10</title>
<g id="a_node10"><a xlink:href="engine_2_action_8cpp.html" target="_top" xlink:title=" ">
<polygon fill="white" stroke="black" points="296,-274 296,-293 406,-293 406,-274 296,-274"/>
<text text-anchor="middle" x="351" y="-281" font-family="Helvetica,sans-Serif" font-size="10.00">src/engine/Action.cpp</text>
</a>
</g>
</g>
<!-- Node9&#45;&gt;Node10 -->
<g id="edge10" class="edge">
<title>Node9&#45;&gt;Node10</title>
<path fill="none" stroke="midnightblue" d="M405.78,-329.01C390.93,-316.94 372.91,-302.3 361.7,-293.19"/>
<polygon fill="midnightblue" stroke="midnightblue" points="403.67,-331.81 413.64,-335.4 408.09,-326.37 403.67,-331.81"/>
</g>
<!-- Node11 -->
<g id="node11" class="node">
<title>Node11</title>
<g id="a_node11"><a xlink:href="_set_squad_path_8cpp.html" target="_top" xlink:title=" ">
<polygon fill="white" stroke="black" points="424.5,-268.5 424.5,-298.5 525.5,-298.5 525.5,-268.5 424.5,-268.5"/>
<text text-anchor="start" x="432.5" y="-286.5" font-family="Helvetica,sans-Serif" font-size="10.00">src/engine/actions</text>
<text text-anchor="middle" x="475" y="-275.5" font-family="Helvetica,sans-Serif" font-size="10.00">/SetSquadPath.cpp</text>
</a>
</g>
</g>
<!-- Node9&#45;&gt;Node11 -->
<g id="edge11" class="edge">
<title>Node9&#45;&gt;Node11</title>
<path fill="none" stroke="midnightblue" d="M446.32,-326.87C452.69,-317.46 459.88,-306.83 465.47,-298.58"/>
<polygon fill="midnightblue" stroke="midnightblue" points="443.25,-325.15 440.55,-335.4 449.05,-329.08 443.25,-325.15"/>
</g>
<!-- Node9&#45;&gt;Node12 -->
<g id="edge12" class="edge">
<title>Node9&#45;&gt;Node12</title>
<path fill="none" stroke="midnightblue" d="M473.16,-331.78C506.26,-319.18 551.3,-302.81 580.1,-293.01"/>
<polygon fill="midnightblue" stroke="midnightblue" points="471.81,-328.55 463.73,-335.4 474.32,-335.09 471.81,-328.55"/>
</g>
<!-- Node12&#45;&gt;Node5 -->
<g id="edge14" class="edge">
<title>Node12&#45;&gt;Node5</title>
<path fill="none" stroke="midnightblue" d="M558.14,-272.05C550.09,-270.56 541.83,-269.15 534,-268 371.4,-244.17 326.91,-265.39 166,-232 158.93,-230.53 151.4,-228.36 144.57,-226.14"/>
<polygon fill="midnightblue" stroke="midnightblue" points="557.7,-275.53 568.18,-273.97 559.01,-268.66 557.7,-275.53"/>
</g>
<!-- Node12&#45;&gt;Node8 -->
<g id="edge19" class="edge">
<title>Node12&#45;&gt;Node8</title>
<path fill="none" stroke="midnightblue" d="M592.22,-299.62C560.76,-325.35 491.03,-377.33 454.31,-402.37"/>
<polygon fill="midnightblue" stroke="midnightblue" points="594.59,-302.2 600.02,-293.1 590.1,-296.83 594.59,-302.2"/>
</g>
<!-- Node12&#45;&gt;Node9 -->
<g id="edge15" class="edge">
<title>Node12&#45;&gt;Node9</title>
<path fill="none" stroke="midnightblue" d="M579.91,-296.81C551.66,-307.8 507.93,-323.89 475.08,-335.4"/>
<polygon fill="midnightblue" stroke="midnightblue" points="581.54,-299.93 589.57,-293.01 578.98,-293.41 581.54,-299.93"/>
</g>
<!-- Node13 -->
<g id="node13" class="node">
<title>Node13</title>
<g id="a_node13"><a xlink:href="_cell_8cpp.html" target="_top" xlink:title=" ">
<polygon fill="white" stroke="black" points="462.5,-207 462.5,-226 583.5,-226 583.5,-207 462.5,-207"/>
<text text-anchor="middle" x="523" y="-214" font-family="Helvetica,sans-Serif" font-size="10.00">src/GameLogic/Cell.cpp</text>
</a>
</g>
</g>
<!-- Node12&#45;&gt;Node13 -->
<g id="edge13" class="edge">
<title>Node12&#45;&gt;Node13</title>
<path fill="none" stroke="midnightblue" d="M588.47,-267.57C571.7,-254.74 548.09,-236.69 534.28,-226.13"/>
<polygon fill="midnightblue" stroke="midnightblue" points="586.47,-270.44 596.54,-273.73 590.72,-264.88 586.47,-270.44"/>
</g>
<!-- Node12&#45;&gt;Node14 -->
<g id="edge16" class="edge">
<title>Node12&#45;&gt;Node14</title>
<path fill="none" stroke="midnightblue" d="M567.69,-271.06C528.86,-260.04 470.05,-243.34 428.42,-231.53"/>
<polygon fill="midnightblue" stroke="midnightblue" points="567.01,-274.5 577.59,-273.87 568.93,-267.77 567.01,-274.5"/>
</g>
<!-- Node12&#45;&gt;Node16 -->
<g id="edge20" class="edge">
<title>Node12&#45;&gt;Node16</title>
<path fill="none" stroke="midnightblue" d="M681.84,-272.58C776.51,-259.87 939.07,-238.04 1028.47,-226.03"/>
<polygon fill="midnightblue" stroke="midnightblue" points="681.22,-269.14 671.77,-273.94 682.15,-276.07 681.22,-269.14"/>
</g>
<!-- Node12&#45;&gt;Node30 -->
<g id="edge44" class="edge">
<title>Node12&#45;&gt;Node30</title>
<path fill="none" stroke="midnightblue" d="M555.89,-272.03C548.55,-270.63 541.09,-269.25 534,-268 432.1,-250.05 405.77,-250.65 304,-232 294.25,-230.21 283.76,-228.11 273.98,-226.06"/>
<polygon fill="midnightblue" stroke="midnightblue" points="555.31,-275.48 565.79,-273.94 556.63,-268.61 555.31,-275.48"/>
</g>
<!-- Node14&#45;&gt;Node8 -->
<g id="edge18" class="edge">
<title>Node14&#45;&gt;Node8</title>
<path fill="none" stroke="midnightblue" d="M331.6,-236.22C317.77,-243.78 304.22,-254.11 296,-268 288.98,-279.86 290.25,-286.48 296,-299 318.83,-348.7 374.55,-384.1 406.99,-402.34"/>
<polygon fill="midnightblue" stroke="midnightblue" points="333.33,-239.27 340.68,-231.64 330.18,-233.02 333.33,-239.27"/>
</g>
<!-- Node15 -->
<g id="node15" class="node">
<title>Node15</title>
<g id="a_node15"><a xlink:href="_game_logic_2_squad_2_action_8cpp.html" target="_top" xlink:title=" ">
<polygon fill="white" stroke="black" points="316,-134.5 316,-164.5 430,-164.5 430,-134.5 316,-134.5"/>
<text text-anchor="start" x="324" y="-152.5" font-family="Helvetica,sans-Serif" font-size="10.00">src/GameLogic/Squad</text>
<text text-anchor="middle" x="373" y="-141.5" font-family="Helvetica,sans-Serif" font-size="10.00">/Action.cpp</text>
</a>
</g>
</g>
<!-- Node14&#45;&gt;Node15 -->
<g id="edge17" class="edge">
<title>Node14&#45;&gt;Node15</title>
<path fill="none" stroke="midnightblue" d="M376.78,-191.4C375.94,-182.37 375.02,-172.41 374.3,-164.58"/>
<polygon fill="midnightblue" stroke="midnightblue" points="373.29,-191.76 377.7,-201.4 380.26,-191.12 373.29,-191.76"/>
</g>
<!-- Node17 -->
<g id="node17" class="node">
<title>Node17</title>
<g id="a_node17"><a xlink:href="_spawn_action_8cpp.html" target="_top" xlink:title=" ">
<polygon fill="white" stroke="black" points="1165,-134.5 1165,-164.5 1261,-164.5 1261,-134.5 1165,-134.5"/>
<text text-anchor="start" x="1173" y="-152.5" font-family="Helvetica,sans-Serif" font-size="10.00">src/engine/actions</text>
<text text-anchor="middle" x="1213" y="-141.5" font-family="Helvetica,sans-Serif" font-size="10.00">/SpawnAction.cpp</text>
</a>
</g>
</g>
<!-- Node16&#45;&gt;Node17 -->
<g id="edge21" class="edge">
<title>Node16&#45;&gt;Node17</title>
<path fill="none" stroke="midnightblue" d="M1127.23,-196.57C1146.26,-186.35 1169.37,-173.94 1186.8,-164.58"/>
<polygon fill="midnightblue" stroke="midnightblue" points="1125.41,-193.58 1118.26,-201.4 1128.72,-199.75 1125.41,-193.58"/>
</g>
<!-- Node18 -->
<g id="node18" class="node">
<title>Node18</title>
<g id="a_node18"><a xlink:href="_factory_8cpp.html" target="_top" xlink:title=" ">
<polygon fill="white" stroke="black" points="1037,-134.5 1037,-164.5 1147,-164.5 1147,-134.5 1037,-134.5"/>
<text text-anchor="start" x="1045" y="-152.5" font-family="Helvetica,sans-Serif" font-size="10.00">src/GameLogic/Units</text>
<text text-anchor="middle" x="1092" y="-141.5" font-family="Helvetica,sans-Serif" font-size="10.00">/Factory.cpp</text>
</a>
</g>
</g>
<!-- Node16&#45;&gt;Node18 -->
<g id="edge22" class="edge">
<title>Node16&#45;&gt;Node18</title>
<path fill="none" stroke="midnightblue" d="M1092,-191.11C1092,-182.15 1092,-172.32 1092,-164.58"/>
<polygon fill="midnightblue" stroke="midnightblue" points="1088.5,-191.4 1092,-201.4 1095.5,-191.4 1088.5,-191.4"/>
</g>
<!-- Node19 -->
<g id="node19" class="node">
<title>Node19</title>
<g id="a_node19"><a xlink:href="_squad_template_8h.html" target="_top" xlink:title=" ">
<polygon fill="white" stroke="black" points="742.5,-134.5 742.5,-164.5 873.5,-164.5 873.5,-134.5 742.5,-134.5"/>
<text text-anchor="start" x="750.5" y="-152.5" font-family="Helvetica,sans-Serif" font-size="10.00">include/GameLogic/Squad</text>
<text text-anchor="middle" x="808" y="-141.5" font-family="Helvetica,sans-Serif" font-size="10.00">/SquadTemplate.h</text>
</a>
</g>
</g>
<!-- Node16&#45;&gt;Node19 -->
<g id="edge23" class="edge">
<title>Node16&#45;&gt;Node19</title>
<path fill="none" stroke="midnightblue" d="M1020.72,-199.19C974.21,-188.54 914.1,-174.78 869.65,-164.61"/>
<polygon fill="midnightblue" stroke="midnightblue" points="1020.2,-202.66 1030.73,-201.48 1021.76,-195.83 1020.2,-202.66"/>
</g>
<!-- Node23 -->
<g id="node23" class="node">
<title>Node23</title>
<g id="a_node23"><a xlink:href="_all_units_8h.html" target="_top" xlink:title=" ">
<polygon fill="white" stroke="black" points="597.5,-134.5 597.5,-164.5 724.5,-164.5 724.5,-134.5 597.5,-134.5"/>
<text text-anchor="start" x="605.5" y="-152.5" font-family="Helvetica,sans-Serif" font-size="10.00">include/GameLogic/Units</text>
<text text-anchor="middle" x="661" y="-141.5" font-family="Helvetica,sans-Serif" font-size="10.00">/AllUnits.h</text>
</a>
</g>
</g>
<!-- Node16&#45;&gt;Node23 -->
<g id="edge28" class="edge">
<title>Node16&#45;&gt;Node23</title>
<path fill="none" stroke="midnightblue" d="M1018.51,-206.36C946.01,-197.05 832.11,-181.65 734,-165 730.94,-164.48 727.82,-163.93 724.66,-163.36"/>
<polygon fill="midnightblue" stroke="midnightblue" points="1018.1,-209.83 1028.46,-207.63 1018.98,-202.89 1018.1,-209.83"/>
</g>
<!-- Node24 -->
<g id="node24" class="node">
<title>Node24</title>
<g id="a_node24"><a xlink:href="_armored_unit_factory_8h.html" target="_top" xlink:title=" ">
<polygon fill="white" stroke="black" points="1358.5,-67.5 1358.5,-97.5 1485.5,-97.5 1485.5,-67.5 1358.5,-67.5"/>
<text text-anchor="start" x="1366.5" y="-85.5" font-family="Helvetica,sans-Serif" font-size="10.00">include/GameLogic/Units</text>
<text text-anchor="middle" x="1422" y="-74.5" font-family="Helvetica,sans-Serif" font-size="10.00">/ArmoredUnitFactory.h</text>
</a>
</g>
</g>
<!-- Node16&#45;&gt;Node24 -->
<g id="edge34" class="edge">
<title>Node16&#45;&gt;Node24</title>
<path fill="none" stroke="midnightblue" d="M1165.89,-214.28C1250.95,-211.18 1383.18,-200.59 1416,-165 1432.73,-146.85 1429.49,-115.72 1425.7,-97.64"/>
<polygon fill="midnightblue" stroke="midnightblue" points="1165.64,-210.79 1155.76,-214.62 1165.88,-217.78 1165.64,-210.79"/>
</g>
<!-- Node26 -->
<g id="node26" class="node">
<title>Node26</title>
<g id="a_node26"><a xlink:href="_land_unit_factory_8h.html" target="_top" xlink:title=" ">
<polygon fill="white" stroke="black" points="891.5,-134.5 891.5,-164.5 1018.5,-164.5 1018.5,-134.5 891.5,-134.5"/>
<text text-anchor="start" x="899.5" y="-152.5" font-family="Helvetica,sans-Serif" font-size="10.00">include/GameLogic/Units</text>
<text text-anchor="middle" x="955" y="-141.5" font-family="Helvetica,sans-Serif" font-size="10.00">/LandUnitFactory.h</text>
</a>
</g>
</g>
<!-- Node16&#45;&gt;Node26 -->
<g id="edge37" class="edge">
<title>Node16&#45;&gt;Node26</title>
<path fill="none" stroke="midnightblue" d="M1052.99,-196.99C1031.28,-186.69 1004.67,-174.07 984.67,-164.58"/>
<polygon fill="midnightblue" stroke="midnightblue" points="1051.74,-200.27 1062.27,-201.4 1054.74,-193.95 1051.74,-200.27"/>
</g>
<!-- Node28 -->
<g id="node28" class="node">
<title>Node28</title>
<g id="a_node28"><a xlink:href="_transport_unit_factory_8h.html" target="_top" xlink:title=" ">
<polygon fill="white" stroke="black" points="1279.5,-134.5 1279.5,-164.5 1406.5,-164.5 1406.5,-134.5 1279.5,-134.5"/>
<text text-anchor="start" x="1287.5" y="-152.5" font-family="Helvetica,sans-Serif" font-size="10.00">include/GameLogic/Units</text>
<text text-anchor="middle" x="1343" y="-141.5" font-family="Helvetica,sans-Serif" font-size="10.00">/TransportUnitFactory.h</text>
</a>
</g>
</g>
<!-- Node16&#45;&gt;Node28 -->
<g id="edge40" class="edge">
<title>Node16&#45;&gt;Node28</title>
<path fill="none" stroke="midnightblue" d="M1156.04,-198.92C1197,-188.31 1249.56,-174.7 1288.51,-164.61"/>
<polygon fill="midnightblue" stroke="midnightblue" points="1154.96,-195.58 1146.15,-201.48 1156.71,-202.36 1154.96,-195.58"/>
</g>
<!-- Node20 -->
<g id="node20" class="node">
<title>Node20</title>
<g id="a_node20"><a xlink:href="_squad_template_8cpp.html" target="_top" xlink:title=" ">
<polygon fill="white" stroke="black" points="751,-67.5 751,-97.5 865,-97.5 865,-67.5 751,-67.5"/>
<text text-anchor="start" x="759" y="-85.5" font-family="Helvetica,sans-Serif" font-size="10.00">src/GameLogic/Squad</text>
<text text-anchor="middle" x="808" y="-74.5" font-family="Helvetica,sans-Serif" font-size="10.00">/SquadTemplate.cpp</text>
</a>
</g>
</g>
<!-- Node19&#45;&gt;Node20 -->
<g id="edge24" class="edge">
<title>Node19&#45;&gt;Node20</title>
<path fill="none" stroke="midnightblue" d="M808,-124.11C808,-115.15 808,-105.32 808,-97.58"/>
<polygon fill="midnightblue" stroke="midnightblue" points="804.5,-124.4 808,-134.4 811.5,-124.4 804.5,-124.4"/>
</g>
<!-- Node21 -->
<g id="node21" class="node">
<title>Node21</title>
<g id="a_node21"><a xlink:href="_all_squad_templates_8h.html" target="_top" xlink:title=" ">
<polygon fill="white" stroke="black" points="563.5,-67.5 563.5,-97.5 694.5,-97.5 694.5,-67.5 563.5,-67.5"/>
<text text-anchor="start" x="571.5" y="-85.5" font-family="Helvetica,sans-Serif" font-size="10.00">include/GameLogic/Squad</text>
<text text-anchor="middle" x="629" y="-74.5" font-family="Helvetica,sans-Serif" font-size="10.00">/AllSquadTemplates.h</text>
</a>
</g>
</g>
<!-- Node19&#45;&gt;Node21 -->
<g id="edge25" class="edge">
<title>Node19&#45;&gt;Node21</title>
<path fill="none" stroke="midnightblue" d="M759.68,-130.96C730.85,-120.48 694.72,-107.37 667.76,-97.58"/>
<polygon fill="midnightblue" stroke="midnightblue" points="758.57,-134.27 769.16,-134.4 760.95,-127.69 758.57,-134.27"/>
</g>
<!-- Node21&#45;&gt;Node12 -->
<g id="edge27" class="edge">
<title>Node21&#45;&gt;Node12</title>
<path fill="none" stroke="midnightblue" d="M606.09,-105.04C598.86,-113.32 591.78,-123.35 588,-134 583.39,-146.98 586.84,-151.27 588,-165 591.47,-206.03 601.63,-254.27 605.98,-273.72"/>
<polygon fill="midnightblue" stroke="midnightblue" points="608.7,-107.38 612.97,-97.68 603.59,-102.6 608.7,-107.38"/>
</g>
<!-- Node22 -->
<g id="node22" class="node">
<title>Node22</title>
<g id="a_node22"><a xlink:href="_all_squad_templates_8cpp.html" target="_top" xlink:title=" ">
<polygon fill="white" stroke="black" points="568,-0.5 568,-30.5 690,-30.5 690,-0.5 568,-0.5"/>
<text text-anchor="start" x="576" y="-18.5" font-family="Helvetica,sans-Serif" font-size="10.00">src/GameLogic/Squad</text>
<text text-anchor="middle" x="629" y="-7.5" font-family="Helvetica,sans-Serif" font-size="10.00">/AllSquadTemplates.cpp</text>
</a>
</g>
</g>
<!-- Node21&#45;&gt;Node22 -->
<g id="edge26" class="edge">
<title>Node21&#45;&gt;Node22</title>
<path fill="none" stroke="midnightblue" d="M629,-57.11C629,-48.15 629,-38.32 629,-30.58"/>
<polygon fill="midnightblue" stroke="midnightblue" points="625.5,-57.4 629,-67.4 632.5,-57.4 625.5,-57.4"/>
</g>
<!-- Node23&#45;&gt;Node2 -->
<g id="edge29" class="edge">
<title>Node23&#45;&gt;Node2</title>
<path fill="none" stroke="midnightblue" d="M587.22,-140.56C465.3,-127.44 224.32,-101.51 114.26,-89.66"/>
<polygon fill="midnightblue" stroke="midnightblue" points="586.9,-144.05 597.22,-141.64 587.65,-137.09 586.9,-144.05"/>
</g>
<!-- Node23&#45;&gt;Node3 -->
<g id="edge31" class="edge">
<title>Node23&#45;&gt;Node3</title>
<path fill="none" stroke="midnightblue" d="M679.77,-126.56C698.79,-104.91 727.43,-74.06 742,-67 808.84,-34.61 1025.03,-22.37 1127.78,-18.29"/>
<polygon fill="midnightblue" stroke="midnightblue" points="676.92,-124.5 673,-134.34 682.2,-129.1 676.92,-124.5"/>
</g>
<!-- Node23&#45;&gt;Node12 -->
<g id="edge32" class="edge">
<title>Node23&#45;&gt;Node12</title>
<path fill="none" stroke="midnightblue" d="M651.38,-174.45C639.38,-204.34 619.47,-253.93 611.48,-273.84"/>
<polygon fill="midnightblue" stroke="midnightblue" points="654.79,-175.37 655.27,-164.78 648.29,-172.76 654.79,-175.37"/>
</g>
<!-- Node23&#45;&gt;Node20 -->
<g id="edge30" class="edge">
<title>Node23&#45;&gt;Node20</title>
<path fill="none" stroke="midnightblue" d="M702.23,-130.27C725.64,-119.92 754.51,-107.15 776.17,-97.58"/>
<polygon fill="midnightblue" stroke="midnightblue" points="700.63,-127.15 692.9,-134.4 703.46,-133.55 700.63,-127.15"/>
</g>
<!-- Node23&#45;&gt;Node21 -->
<g id="edge33" class="edge">
<title>Node23&#45;&gt;Node21</title>
<path fill="none" stroke="midnightblue" d="M649.57,-125.28C645.01,-116.02 639.91,-105.66 635.93,-97.58"/>
<polygon fill="midnightblue" stroke="midnightblue" points="646.5,-126.97 654.06,-134.4 652.78,-123.88 646.5,-126.97"/>
</g>
<!-- Node24&#45;&gt;Node3 -->
<g id="edge35" class="edge">
<title>Node24&#45;&gt;Node3</title>
<path fill="none" stroke="midnightblue" d="M1360.78,-64.85C1321.81,-54.25 1271.9,-40.68 1234.88,-30.61"/>
<polygon fill="midnightblue" stroke="midnightblue" points="1359.87,-68.23 1370.43,-67.48 1361.7,-61.47 1359.87,-68.23"/>
</g>
<!-- Node25 -->
<g id="node25" class="node">
<title>Node25</title>
<g id="a_node25"><a xlink:href="_armored_unit_factory_8cpp.html" target="_top" xlink:title=" ">
<polygon fill="white" stroke="black" points="1359.5,-0.5 1359.5,-30.5 1484.5,-30.5 1484.5,-0.5 1359.5,-0.5"/>
<text text-anchor="start" x="1367.5" y="-18.5" font-family="Helvetica,sans-Serif" font-size="10.00">src/GameLogic/Units</text>
<text text-anchor="middle" x="1422" y="-7.5" font-family="Helvetica,sans-Serif" font-size="10.00">/ArmoredUnitFactory.cpp</text>
</a>
</g>
</g>
<!-- Node24&#45;&gt;Node25 -->
<g id="edge36" class="edge">
<title>Node24&#45;&gt;Node25</title>
<path fill="none" stroke="midnightblue" d="M1422,-57.11C1422,-48.15 1422,-38.32 1422,-30.58"/>
<polygon fill="midnightblue" stroke="midnightblue" points="1418.5,-57.4 1422,-67.4 1425.5,-57.4 1418.5,-57.4"/>
</g>
<!-- Node26&#45;&gt;Node3 -->
<g id="edge38" class="edge">
<title>Node26&#45;&gt;Node3</title>
<path fill="none" stroke="midnightblue" d="M954.25,-124.17C955.05,-106.04 959.19,-81.93 974,-67 995.29,-45.53 1073.33,-31.01 1127.77,-23.24"/>
<polygon fill="midnightblue" stroke="midnightblue" points="950.75,-124.25 954.12,-134.3 957.75,-124.34 950.75,-124.25"/>
</g>
<!-- Node27 -->
<g id="node27" class="node">
<title>Node27</title>
<g id="a_node27"><a xlink:href="_land_unit_factory_8cpp.html" target="_top" xlink:title=" ">
<polygon fill="white" stroke="black" points="983,-67.5 983,-97.5 1093,-97.5 1093,-67.5 983,-67.5"/>
<text text-anchor="start" x="991" y="-85.5" font-family="Helvetica,sans-Serif" font-size="10.00">src/GameLogic/Units</text>
<text text-anchor="middle" x="1038" y="-74.5" font-family="Helvetica,sans-Serif" font-size="10.00">/LandUnitFactory.cpp</text>
</a>
</g>
</g>
<!-- Node26&#45;&gt;Node27 -->
<g id="edge39" class="edge">
<title>Node26&#45;&gt;Node27</title>
<path fill="none" stroke="midnightblue" d="M980.96,-128.17C993.65,-118.23 1008.61,-106.51 1020.03,-97.58"/>
<polygon fill="midnightblue" stroke="midnightblue" points="978.72,-125.47 973.01,-134.4 983.04,-130.99 978.72,-125.47"/>
</g>
<!-- Node28&#45;&gt;Node3 -->
<g id="edge41" class="edge">
<title>Node28&#45;&gt;Node3</title>
<path fill="none" stroke="midnightblue" d="M1278.38,-131.6C1246.98,-122.16 1213.73,-109.92 1203,-98 1186.14,-79.26 1182.94,-48.63 1182.63,-30.74"/>
<polygon fill="midnightblue" stroke="midnightblue" points="1277.46,-134.98 1288.04,-134.44 1279.44,-128.26 1277.46,-134.98"/>
</g>
<!-- Node28&#45;&gt;Node24 -->
<g id="edge43" class="edge">
<title>Node28&#45;&gt;Node24</title>
<path fill="none" stroke="midnightblue" d="M1368.06,-127.88C1380.06,-118.01 1394.13,-106.43 1404.89,-97.58"/>
<polygon fill="midnightblue" stroke="midnightblue" points="1365.64,-125.34 1360.14,-134.4 1370.09,-130.75 1365.64,-125.34"/>
</g>
<!-- Node29 -->
<g id="node29" class="node">
<title>Node29</title>
<g id="a_node29"><a xlink:href="_transport_unit_factory_8cpp.html" target="_top" xlink:title=" ">
<polygon fill="white" stroke="black" points="1211.5,-67.5 1211.5,-97.5 1340.5,-97.5 1340.5,-67.5 1211.5,-67.5"/>
<text text-anchor="start" x="1219.5" y="-85.5" font-family="Helvetica,sans-Serif" font-size="10.00">src/GameLogic/Units</text>
<text text-anchor="middle" x="1276" y="-74.5" font-family="Helvetica,sans-Serif" font-size="10.00">/TransportUnitFactory.cpp</text>
</a>
</g>
</g>
<!-- Node28&#45;&gt;Node29 -->
<g id="edge42" class="edge">
<title>Node28&#45;&gt;Node29</title>
<path fill="none" stroke="midnightblue" d="M1321.16,-127.31C1311.11,-117.56 1299.46,-106.26 1290.51,-97.58"/>
<polygon fill="midnightblue" stroke="midnightblue" points="1318.85,-129.94 1328.46,-134.4 1323.72,-124.92 1318.85,-129.94"/>
</g>
<!-- Node30&#45;&gt;Node15 -->
<g id="edge45" class="edge">
<title>Node30&#45;&gt;Node15</title>
<path fill="none" stroke="midnightblue" d="M262.66,-202.47C285.99,-191.49 319.31,-175.79 343.22,-164.53"/>
<polygon fill="midnightblue" stroke="midnightblue" points="260.88,-199.44 253.33,-206.87 263.86,-205.77 260.88,-199.44"/>
</g>
<!-- Node31 -->
<g id="node31" class="node">
<title>Node31</title>
<g id="a_node31"><a xlink:href="pathfinding_8cpp.html" target="_top" xlink:title=" ">
<polygon fill="white" stroke="black" points="178.5,-140 178.5,-159 291.5,-159 291.5,-140 178.5,-140"/>
<text text-anchor="middle" x="235" y="-147" font-family="Helvetica,sans-Serif" font-size="10.00">src/util/pathfinding.cpp</text>
</a>
</g>
</g>
<!-- Node30&#45;&gt;Node31 -->
<g id="edge46" class="edge">
<title>Node30&#45;&gt;Node31</title>
<path fill="none" stroke="midnightblue" d="M235,-196.54C235,-184.17 235,-168.62 235,-159.13"/>
<polygon fill="midnightblue" stroke="midnightblue" points="231.5,-196.73 235,-206.73 238.5,-196.73 231.5,-196.73"/>
</g>
<!-- Node33 -->
<g id="node33" class="node">
<title>Node33</title>
<g id="a_node33"><a xlink:href="_squad_order_8cpp.html" target="_top" xlink:title=" ">
<polygon fill="white" stroke="black" points="737,-268.5 737,-298.5 851,-298.5 851,-268.5 737,-268.5"/>
<text text-anchor="start" x="745" y="-286.5" font-family="Helvetica,sans-Serif" font-size="10.00">src/GameLogic/Squad</text>
<text text-anchor="middle" x="794" y="-275.5" font-family="Helvetica,sans-Serif" font-size="10.00">/SquadOrder.cpp</text>
</a>
</g>
</g>
<!-- Node32&#45;&gt;Node33 -->
<g id="edge52" class="edge">
<title>Node32&#45;&gt;Node33</title>
<path fill="none" stroke="midnightblue" d="M794,-325.11C794,-316.15 794,-306.32 794,-298.58"/>
<polygon fill="midnightblue" stroke="midnightblue" points="790.5,-325.4 794,-335.4 797.5,-325.4 790.5,-325.4"/>
</g>
<!-- Node34&#45;&gt;Node24 -->
<g id="edge55" class="edge">
<title>Node34&#45;&gt;Node24</title>
<path fill="none" stroke="midnightblue" d="M1432.8,-329.13C1442.4,-321.01 1451.83,-310.78 1457,-299 1488.18,-228.04 1447.21,-132.93 1429.47,-97.54"/>
<polygon fill="midnightblue" stroke="midnightblue" points="1430.47,-326.5 1424.78,-335.44 1434.8,-332 1430.47,-326.5"/>
</g>
<!-- Node35 -->
<g id="node35" class="node">
<title>Node35</title>
<g id="a_node35"><a xlink:href="_armored_unit_8cpp.html" target="_top" xlink:title=" ">
<polygon fill="white" stroke="black" points="1338,-268.5 1338,-298.5 1448,-298.5 1448,-268.5 1338,-268.5"/>
<text text-anchor="start" x="1346" y="-286.5" font-family="Helvetica,sans-Serif" font-size="10.00">src/GameLogic/Units</text>
<text text-anchor="middle" x="1393" y="-275.5" font-family="Helvetica,sans-Serif" font-size="10.00">/ArmoredUnit.cpp</text>
</a>
</g>
</g>
<!-- Node34&#45;&gt;Node35 -->
<g id="edge54" class="edge">
<title>Node34&#45;&gt;Node35</title>
<path fill="none" stroke="midnightblue" d="M1398.66,-325.4C1397.41,-316.37 1396.03,-306.41 1394.95,-298.58"/>
<polygon fill="midnightblue" stroke="midnightblue" points="1395.21,-325.97 1400.05,-335.4 1402.14,-325.01 1395.21,-325.97"/>
</g>
<!-- Node36&#45;&gt;Node26 -->
<g id="edge59" class="edge">
<title>Node36&#45;&gt;Node26</title>
<path fill="none" stroke="midnightblue" d="M698.4,-392.06C697.59,-360.34 700.68,-304.71 728,-268 769.59,-212.11 845.55,-180.58 898.07,-164.55"/>
<polygon fill="midnightblue" stroke="midnightblue" points="694.9,-392.37 698.81,-402.21 701.9,-392.08 694.9,-392.37"/>
</g>
<!-- Node37 -->
<g id="node37" class="node">
<title>Node37</title>
<g id="a_node37"><a xlink:href="_land_unit_8cpp.html" target="_top" xlink:title=" ">
<polygon fill="white" stroke="black" points="562,-335.5 562,-365.5 672,-365.5 672,-335.5 562,-335.5"/>
<text text-anchor="start" x="570" y="-353.5" font-family="Helvetica,sans-Serif" font-size="10.00">src/GameLogic/Units</text>
<text text-anchor="middle" x="617" y="-342.5" font-family="Helvetica,sans-Serif" font-size="10.00">/LandUnit.cpp</text>
</a>
</g>
</g>
<!-- Node36&#45;&gt;Node37 -->
<g id="edge58" class="edge">
<title>Node36&#45;&gt;Node37</title>
<path fill="none" stroke="midnightblue" d="M674.04,-396.17C661.35,-386.23 646.39,-374.51 634.97,-365.58"/>
<polygon fill="midnightblue" stroke="midnightblue" points="671.96,-398.99 681.99,-402.4 676.28,-393.47 671.96,-398.99"/>
</g>
<!-- Node38&#45;&gt;Node28 -->
<g id="edge63" class="edge">
<title>Node38&#45;&gt;Node28</title>
<path fill="none" stroke="midnightblue" d="M1273.46,-394.51C1279.8,-386.04 1286.44,-375.99 1291,-366 1323.59,-294.57 1337.26,-200.14 1341.47,-164.72"/>
<polygon fill="midnightblue" stroke="midnightblue" points="1270.7,-392.36 1267.31,-402.4 1276.22,-396.66 1270.7,-392.36"/>
</g>
<!-- Node38&#45;&gt;Node34 -->
<g id="edge62" class="edge">
<title>Node38&#45;&gt;Node34</title>
<path fill="none" stroke="midnightblue" d="M1296.23,-398.27C1319.64,-387.92 1348.51,-375.15 1370.17,-365.58"/>
<polygon fill="midnightblue" stroke="midnightblue" points="1294.63,-395.15 1286.9,-402.4 1297.46,-401.55 1294.63,-395.15"/>
</g>
<!-- Node39 -->
<g id="node39" class="node">
<title>Node39</title>
<g id="a_node39"><a xlink:href="_transport_unit_8cpp.html" target="_top" xlink:title=" ">
<polygon fill="white" stroke="black" points="1172,-335.5 1172,-365.5 1282,-365.5 1282,-335.5 1172,-335.5"/>
<text text-anchor="start" x="1180" y="-353.5" font-family="Helvetica,sans-Serif" font-size="10.00">src/GameLogic/Units</text>
<text text-anchor="middle" x="1227" y="-342.5" font-family="Helvetica,sans-Serif" font-size="10.00">/TransportUnit.cpp</text>
</a>
</g>
</g>
<!-- Node38&#45;&gt;Node39 -->
<g id="edge61" class="edge">
<title>Node38&#45;&gt;Node39</title>
<path fill="none" stroke="midnightblue" d="M1244.87,-392.99C1240.92,-383.8 1236.51,-373.58 1233.06,-365.58"/>
<polygon fill="midnightblue" stroke="midnightblue" points="1241.75,-394.6 1248.92,-402.4 1248.18,-391.83 1241.75,-394.6"/>
</g>
<!-- Node40&#45;&gt;Node6 -->
<g id="edge68" class="edge">
<title>Node40&#45;&gt;Node6</title>
<path fill="none" stroke="midnightblue" d="M939.54,-442.57C939.99,-451.6 939.71,-461.56 938.68,-469.4"/>
<polygon fill="midnightblue" stroke="midnightblue" points="943.03,-442.24 938.67,-432.58 936.05,-442.84 943.03,-442.24"/>
</g>
<!-- Node40&#45;&gt;Node7 -->
<g id="edge65" class="edge">
<title>Node40&#45;&gt;Node7</title>
<path fill="none" stroke="midnightblue" d="M969.72,-397.85C989.96,-387.58 1014.67,-375.03 1033.28,-365.58"/>
<polygon fill="midnightblue" stroke="midnightblue" points="968.11,-394.75 960.77,-402.4 971.28,-400.99 968.11,-394.75"/>
</g>
<!-- Node40&#45;&gt;Node32 -->
<g id="edge67" class="edge">
<title>Node40&#45;&gt;Node32</title>
<path fill="none" stroke="midnightblue" d="M893.72,-398.13C871.63,-387.8 844.49,-375.11 824.1,-365.58"/>
<polygon fill="midnightblue" stroke="midnightblue" points="892.3,-401.33 902.84,-402.4 895.26,-394.99 892.3,-401.33"/>
</g>
<!-- Node41 -->
<g id="node41" class="node">
<title>Node41</title>
<g id="a_node41"><a xlink:href="_unit_order_8cpp.html" target="_top" xlink:title=" ">
<polygon fill="white" stroke="black" points="878,-335.5 878,-365.5 988,-365.5 988,-335.5 878,-335.5"/>
<text text-anchor="start" x="886" y="-353.5" font-family="Helvetica,sans-Serif" font-size="10.00">src/GameLogic/Units</text>
<text text-anchor="middle" x="933" y="-342.5" font-family="Helvetica,sans-Serif" font-size="10.00">/UnitOrder.cpp</text>
</a>
</g>
</g>
<!-- Node40&#45;&gt;Node41 -->
<g id="edge66" class="edge">
<title>Node40&#45;&gt;Node41</title>
<path fill="none" stroke="midnightblue" d="M933,-392.11C933,-383.15 933,-373.32 933,-365.58"/>
<polygon fill="midnightblue" stroke="midnightblue" points="929.5,-392.4 933,-402.4 936.5,-392.4 929.5,-392.4"/>
</g>
</g>
</svg>
