<?xml version="1.0" encoding="UTF-8" standalone="no"?>
<!DOCTYPE svg PUBLIC "-//W3C//DTD SVG 1.1//EN"
 "http://www.w3.org/Graphics/SVG/1.1/DTD/svg11.dtd">
<!-- Generated by graphviz version 2.47.1 (20210421.1823)
 -->
<!-- Title: include/GameLogic/Units/TransportUnitFactory.h Pages: 1 -->
<svg width="1594pt" height="666pt"
 viewBox="0.00 0.00 1593.50 666.00" xmlns="http://www.w3.org/2000/svg" xmlns:xlink="http://www.w3.org/1999/xlink">
<g id="graph0" class="graph" transform="scale(1 1) rotate(0) translate(4 662)">
<title>include/GameLogic/Units/TransportUnitFactory.h</title>
<polygon fill="white" stroke="transparent" points="-4,4 -4,-662 1589.5,-662 1589.5,4 -4,4"/>
<!-- Node1 -->
<g id="node1" class="node">
<title>Node1</title>
<g id="a_node1"><a xlink:title=" ">
<polygon fill="#bfbfbf" stroke="black" points="195,-627.5 195,-657.5 322,-657.5 322,-627.5 195,-627.5"/>
<text text-anchor="start" x="203" y="-645.5" font-family="Helvetica,sans-Serif" font-size="10.00">include/GameLogic/Units</text>
<text text-anchor="middle" x="258.5" y="-634.5" font-family="Helvetica,sans-Serif" font-size="10.00">/TransportUnitFactory.h</text>
</a>
</g>
</g>
<!-- Node2 -->
<g id="node2" class="node">
<title>Node2</title>
<g id="a_node2"><a xlink:href="_factory_8h.html" target="_top" xlink:title=" ">
<polygon fill="white" stroke="black" points="351.5,-571.5 351.5,-590.5 407.5,-590.5 407.5,-571.5 351.5,-571.5"/>
<text text-anchor="middle" x="379.5" y="-578.5" font-family="Helvetica,sans-Serif" font-size="10.00">Factory.h</text>
</a>
</g>
</g>
<!-- Node1&#45;&gt;Node2 -->
<g id="edge1" class="edge">
<title>Node1&#45;&gt;Node2</title>
<path fill="none" stroke="midnightblue" d="M287.18,-627.4C307.02,-617.64 333.26,-604.74 352.69,-595.18"/>
<polygon fill="midnightblue" stroke="midnightblue" points="354.46,-598.21 361.89,-590.66 351.38,-591.93 354.46,-598.21"/>
</g>
<!-- Node45 -->
<g id="node45" class="node">
<title>Node45</title>
<g id="a_node45"><a xlink:href="_transport_unit_8h.html" target="_top" xlink:title=" ">
<polygon fill="white" stroke="black" points="86,-515.5 86,-534.5 169,-534.5 169,-515.5 86,-515.5"/>
<text text-anchor="middle" x="127.5" y="-522.5" font-family="Helvetica,sans-Serif" font-size="10.00">TransportUnit.h</text>
</a>
</g>
</g>
<!-- Node1&#45;&gt;Node45 -->
<g id="edge89" class="edge">
<title>Node1&#45;&gt;Node45</title>
<path fill="none" stroke="midnightblue" d="M242.44,-627.34C217.76,-605.58 170.7,-564.09 145.12,-541.54"/>
<polygon fill="midnightblue" stroke="midnightblue" points="147.15,-538.66 137.33,-534.67 142.52,-543.91 147.15,-538.66"/>
</g>
<!-- Node3 -->
<g id="node3" class="node">
<title>Node3</title>
<g id="a_node3"><a xlink:title=" ">
<polygon fill="white" stroke="#bfbfbf" points="0,-168.5 0,-187.5 41,-187.5 41,-168.5 0,-168.5"/>
<text text-anchor="middle" x="20.5" y="-175.5" font-family="Helvetica,sans-Serif" font-size="10.00">string</text>
</a>
</g>
</g>
<!-- Node2&#45;&gt;Node3 -->
<g id="edge2" class="edge">
<title>Node2&#45;&gt;Node3</title>
<path fill="none" stroke="midnightblue" d="M351.18,-577.99C285.51,-572.98 124.74,-558.61 76.5,-535 38.95,-516.62 8.5,-511.81 8.5,-470 8.5,-470 8.5,-470 8.5,-289 8.5,-256.76 13.66,-219.51 17.21,-197.68"/>
<polygon fill="midnightblue" stroke="midnightblue" points="20.71,-197.97 18.93,-187.52 13.81,-196.8 20.71,-197.97"/>
</g>
<!-- Node4 -->
<g id="node4" class="node">
<title>Node4</title>
<g id="a_node4"><a xlink:href="_cell_8h.html" target="_top" xlink:title=" ">
<polygon fill="white" stroke="black" points="764,-515.5 764,-534.5 805,-534.5 805,-515.5 764,-515.5"/>
<text text-anchor="middle" x="784.5" y="-522.5" font-family="Helvetica,sans-Serif" font-size="10.00">Cell.h</text>
</a>
</g>
</g>
<!-- Node2&#45;&gt;Node4 -->
<g id="edge3" class="edge">
<title>Node2&#45;&gt;Node4</title>
<path fill="none" stroke="midnightblue" d="M407.66,-576.25C480.98,-566.47 677.43,-540.28 753.66,-530.11"/>
<polygon fill="midnightblue" stroke="midnightblue" points="754.15,-533.58 763.6,-528.79 753.22,-526.64 754.15,-533.58"/>
</g>
<!-- Node8 -->
<g id="node8" class="node">
<title>Node8</title>
<g id="a_node8"><a xlink:href="game_object_8h.html" target="_top" xlink:title=" ">
<polygon fill="white" stroke="black" points="1044,-168.5 1044,-187.5 1121,-187.5 1121,-168.5 1044,-168.5"/>
<text text-anchor="middle" x="1082.5" y="-175.5" font-family="Helvetica,sans-Serif" font-size="10.00">gameObject.h</text>
</a>
</g>
</g>
<!-- Node2&#45;&gt;Node8 -->
<g id="edge88" class="edge">
<title>Node2&#45;&gt;Node8</title>
<path fill="none" stroke="midnightblue" d="M407.57,-579.56C543.39,-577.05 1132.28,-561.47 1292.5,-479 1322.7,-463.46 1332.09,-454.61 1344.5,-423 1357.46,-390 1314.11,-337.64 1312.5,-336 1248.09,-270.55 1196.94,-304.09 1127.5,-244 1112.13,-230.7 1099.49,-211.04 1091.56,-196.83"/>
<polygon fill="midnightblue" stroke="midnightblue" points="1094.44,-194.79 1086.64,-187.61 1088.26,-198.08 1094.44,-194.79"/>
</g>
<!-- Node24 -->
<g id="node24" class="node">
<title>Node24</title>
<g id="a_node24"><a xlink:href="_unit_8h.html" target="_top" xlink:title=" ">
<polygon fill="white" stroke="black" points="85.5,-342 85.5,-361 207.5,-361 207.5,-342 85.5,-342"/>
<text text-anchor="middle" x="146.5" y="-349" font-family="Helvetica,sans-Serif" font-size="10.00">GameLogic/Units/Unit.h</text>
</a>
</g>
</g>
<!-- Node2&#45;&gt;Node24 -->
<g id="edge87" class="edge">
<title>Node2&#45;&gt;Node24</title>
<path fill="none" stroke="midnightblue" d="M360.48,-571.48C328.62,-556.48 263.82,-522.77 221.5,-479 189.52,-445.93 165.41,-396.75 153.93,-370.52"/>
<polygon fill="midnightblue" stroke="midnightblue" points="157.05,-368.91 149.91,-361.08 150.61,-371.65 157.05,-368.91"/>
</g>
<!-- Node5 -->
<g id="node5" class="node">
<title>Node5</title>
<g id="a_node5"><a xlink:title=" ">
<polygon fill="white" stroke="#bfbfbf" points="1268,-342 1268,-361 1303,-361 1303,-342 1268,-342"/>
<text text-anchor="middle" x="1285.5" y="-349" font-family="Helvetica,sans-Serif" font-size="10.00">map</text>
</a>
</g>
</g>
<!-- Node4&#45;&gt;Node5 -->
<g id="edge4" class="edge">
<title>Node4&#45;&gt;Node5</title>
<path fill="none" stroke="midnightblue" d="M805.11,-522.7C869.49,-518.42 1066.06,-503.62 1124.5,-479 1186.25,-452.98 1244.35,-396.69 1270.7,-368.82"/>
<polygon fill="midnightblue" stroke="midnightblue" points="1273.59,-370.86 1277.83,-361.15 1268.46,-366.09 1273.59,-370.86"/>
</g>
<!-- Node6 -->
<g id="node6" class="node">
<title>Node6</title>
<g id="a_node6"><a xlink:title=" ">
<polygon fill="white" stroke="#bfbfbf" points="725.5,-459.5 725.5,-478.5 755.5,-478.5 755.5,-459.5 725.5,-459.5"/>
<text text-anchor="middle" x="740.5" y="-466.5" font-family="Helvetica,sans-Serif" font-size="10.00">set</text>
</a>
</g>
</g>
<!-- Node4&#45;&gt;Node6 -->
<g id="edge5" class="edge">
<title>Node4&#45;&gt;Node6</title>
<path fill="none" stroke="midnightblue" d="M777.23,-515.08C770.96,-507.38 761.71,-496.03 754.07,-486.65"/>
<polygon fill="midnightblue" stroke="midnightblue" points="756.66,-484.29 747.63,-478.75 751.23,-488.71 756.66,-484.29"/>
</g>
<!-- Node7 -->
<g id="node7" class="node">
<title>Node7</title>
<g id="a_node7"><a xlink:href="gameplay_clickable_game_object_8h.html" target="_top" xlink:title=" ">
<polygon fill="white" stroke="black" points="898,-336.5 898,-366.5 1027,-366.5 1027,-336.5 898,-336.5"/>
<text text-anchor="start" x="906" y="-354.5" font-family="Helvetica,sans-Serif" font-size="10.00">engine/gameplayClickable</text>
<text text-anchor="middle" x="962.5" y="-343.5" font-family="Helvetica,sans-Serif" font-size="10.00">GameObject.h</text>
</a>
</g>
</g>
<!-- Node4&#45;&gt;Node7 -->
<g id="edge6" class="edge">
<title>Node4&#45;&gt;Node7</title>
<path fill="none" stroke="midnightblue" d="M805.33,-521.69C832.57,-517.62 880.24,-506.8 909.5,-479 938.74,-451.22 952.49,-404.83 958.44,-376.61"/>
<polygon fill="midnightblue" stroke="midnightblue" points="961.89,-377.25 960.36,-366.77 955.01,-375.91 961.89,-377.25"/>
</g>
<!-- Node10 -->
<g id="node10" class="node">
<title>Node10</title>
<g id="a_node10"><a xlink:href="config_8h.html" target="_top" xlink:title=" ">
<polygon fill="white" stroke="black" points="222,-112.5 222,-131.5 303,-131.5 303,-112.5 222,-112.5"/>
<text text-anchor="middle" x="262.5" y="-119.5" font-family="Helvetica,sans-Serif" font-size="10.00">engine/config.h</text>
</a>
</g>
</g>
<!-- Node4&#45;&gt;Node10 -->
<g id="edge26" class="edge">
<title>Node4&#45;&gt;Node10</title>
<path fill="none" stroke="midnightblue" d="M763.72,-522.89C694.78,-519.01 474.29,-504.82 408.5,-479 369.11,-463.54 361.29,-453.05 331.5,-423 285.24,-376.34 267.65,-363.14 249.5,-300 233.43,-244.11 248.12,-174.42 256.95,-141.66"/>
<polygon fill="midnightblue" stroke="midnightblue" points="260.42,-142.27 259.77,-131.69 253.68,-140.36 260.42,-142.27"/>
</g>
<!-- Node13 -->
<g id="node13" class="node">
<title>Node13</title>
<g id="a_node13"><a xlink:href="_facade_8h.html" target="_top" xlink:title=" ">
<polygon fill="white" stroke="black" points="417.5,-0.5 417.5,-19.5 473.5,-19.5 473.5,-0.5 417.5,-0.5"/>
<text text-anchor="middle" x="445.5" y="-7.5" font-family="Helvetica,sans-Serif" font-size="10.00">Facade.h</text>
</a>
</g>
</g>
<!-- Node4&#45;&gt;Node13 -->
<g id="edge27" class="edge">
<title>Node4&#45;&gt;Node13</title>
<path fill="none" stroke="midnightblue" d="M805.14,-523.05C894.81,-518.78 1248.12,-500.73 1292.5,-479 1323,-464.06 1329.49,-453.47 1344.5,-423 1375.41,-360.23 1440.28,-164.03 1393.5,-112 1331.61,-43.17 654,-17.51 484.01,-12.13"/>
<polygon fill="midnightblue" stroke="midnightblue" points="483.88,-8.62 473.78,-11.81 483.67,-15.62 483.88,-8.62"/>
</g>
<!-- Node16 -->
<g id="node16" class="node">
<title>Node16</title>
<g id="a_node16"><a xlink:title=" ">
<polygon fill="white" stroke="#bfbfbf" points="1515.5,-56.5 1515.5,-75.5 1569.5,-75.5 1569.5,-56.5 1515.5,-56.5"/>
<text text-anchor="middle" x="1542.5" y="-63.5" font-family="Helvetica,sans-Serif" font-size="10.00">iostream</text>
</a>
</g>
</g>
<!-- Node4&#45;&gt;Node16 -->
<g id="edge50" class="edge">
<title>Node4&#45;&gt;Node16</title>
<path fill="none" stroke="midnightblue" d="M805.14,-523.3C899.47,-519.95 1290.14,-504.79 1409.5,-479 1491,-461.39 1585.5,-497.39 1585.5,-414 1585.5,-414 1585.5,-414 1585.5,-177 1585.5,-142.31 1566.72,-105.42 1553.98,-84.4"/>
<polygon fill="midnightblue" stroke="midnightblue" points="1556.77,-82.27 1548.48,-75.67 1550.85,-86 1556.77,-82.27"/>
</g>
<!-- Node18 -->
<g id="node18" class="node">
<title>Node18</title>
<g id="a_node18"><a xlink:href="cellgen_8h.html" target="_top" xlink:title=" ">
<polygon fill="white" stroke="black" points="1088,-403.5 1088,-422.5 1159,-422.5 1159,-403.5 1088,-403.5"/>
<text text-anchor="middle" x="1123.5" y="-410.5" font-family="Helvetica,sans-Serif" font-size="10.00">util/cellgen.h</text>
</a>
</g>
</g>
<!-- Node4&#45;&gt;Node18 -->
<g id="edge17" class="edge">
<title>Node4&#45;&gt;Node18</title>
<path fill="none" stroke="midnightblue" d="M805.17,-523.92C868.69,-523.26 1059.41,-517.99 1104.5,-479 1117.68,-467.6 1121.97,-447.61 1123.24,-432.8"/>
<polygon fill="midnightblue" stroke="midnightblue" points="1126.74,-432.87 1123.73,-422.71 1119.75,-432.53 1126.74,-432.87"/>
</g>
<!-- Node21 -->
<g id="node21" class="node">
<title>Node21</title>
<g id="a_node21"><a xlink:href="_all_flags_8h.html" target="_top" xlink:title=" ">
<polygon fill="white" stroke="black" points="259,-280.5 259,-299.5 318,-299.5 318,-280.5 259,-280.5"/>
<text text-anchor="middle" x="288.5" y="-287.5" font-family="Helvetica,sans-Serif" font-size="10.00">AllFlags.h</text>
</a>
</g>
</g>
<!-- Node4&#45;&gt;Node21 -->
<g id="edge21" class="edge">
<title>Node4&#45;&gt;Node21</title>
<path fill="none" stroke="midnightblue" d="M763.75,-524.63C710.75,-525.5 566.93,-523.28 458.5,-479 381.14,-447.41 353.9,-436.49 307.5,-367 296.07,-349.89 291.52,-326.46 289.7,-310.16"/>
<polygon fill="midnightblue" stroke="midnightblue" points="293.15,-309.4 288.8,-299.74 286.17,-310 293.15,-309.4"/>
</g>
<!-- Node23 -->
<g id="node23" class="node">
<title>Node23</title>
<g id="a_node23"><a xlink:href="_squad_8h.html" target="_top" xlink:title=" ">
<polygon fill="white" stroke="black" points="445.5,-403.5 445.5,-422.5 497.5,-422.5 497.5,-403.5 445.5,-403.5"/>
<text text-anchor="middle" x="471.5" y="-410.5" font-family="Helvetica,sans-Serif" font-size="10.00">Squad.h</text>
</a>
</g>
</g>
<!-- Node4&#45;&gt;Node23 -->
<g id="edge28" class="edge">
<title>Node4&#45;&gt;Node23</title>
<path fill="none" stroke="midnightblue" d="M763.76,-523.03C705.76,-519.73 544.97,-507.52 502.5,-479 486.19,-468.05 475.36,-447.99 470.88,-433.04"/>
<polygon fill="midnightblue" stroke="midnightblue" points="474.21,-431.89 468.7,-422.84 467.36,-433.35 474.21,-431.89"/>
</g>
<!-- Node30 -->
<g id="node30" class="node">
<title>Node30</title>
<g id="a_node30"><a xlink:href="_player_8h.html" target="_top" xlink:title=" ">
<polygon fill="white" stroke="black" points="350,-342 350,-361 401,-361 401,-342 350,-342"/>
<text text-anchor="middle" x="375.5" y="-349" font-family="Helvetica,sans-Serif" font-size="10.00">Player.h</text>
</a>
</g>
</g>
<!-- Node4&#45;&gt;Node30 -->
<g id="edge86" class="edge">
<title>Node4&#45;&gt;Node30</title>
<path fill="none" stroke="midnightblue" d="M763.6,-522.58C704.53,-518.28 537.58,-504.16 489.5,-479 440.76,-453.49 402.65,-398.24 385.46,-369.95"/>
<polygon fill="midnightblue" stroke="midnightblue" points="388.37,-368 380.27,-361.17 382.35,-371.56 388.37,-368"/>
</g>
<!-- Node31 -->
<g id="node31" class="node">
<title>Node31</title>
<g id="a_node31"><a xlink:href="geometry_8h.html" target="_top" xlink:title=" ">
<polygon fill="white" stroke="black" points="1015.5,-459.5 1015.5,-478.5 1095.5,-478.5 1095.5,-459.5 1015.5,-459.5"/>
<text text-anchor="middle" x="1055.5" y="-466.5" font-family="Helvetica,sans-Serif" font-size="10.00">util/geometry.h</text>
</a>
</g>
</g>
<!-- Node4&#45;&gt;Node31 -->
<g id="edge51" class="edge">
<title>Node4&#45;&gt;Node31</title>
<path fill="none" stroke="midnightblue" d="M805.31,-519.85C847.73,-511.4 945.21,-491.98 1005.2,-480.02"/>
<polygon fill="midnightblue" stroke="midnightblue" points="1006.09,-483.41 1015.21,-478.03 1004.72,-476.55 1006.09,-483.41"/>
</g>
<!-- Node32 -->
<g id="node32" class="node">
<title>Node32</title>
<g id="a_node32"><a xlink:href="_none_8h.html" target="_top" xlink:title=" ">
<polygon fill="white" stroke="black" points="1228,-168.5 1228,-187.5 1341,-187.5 1341,-168.5 1228,-168.5"/>
<text text-anchor="middle" x="1284.5" y="-175.5" font-family="Helvetica,sans-Serif" font-size="10.00">engine/actions/None.h</text>
</a>
</g>
</g>
<!-- Node4&#45;&gt;Node32 -->
<g id="edge54" class="edge">
<title>Node4&#45;&gt;Node32</title>
<path fill="none" stroke="midnightblue" d="M805.28,-524.33C905.19,-525.38 1331.5,-523.46 1331.5,-414 1331.5,-414 1331.5,-414 1331.5,-289 1331.5,-253.7 1310.78,-216.79 1296.86,-195.96"/>
<polygon fill="midnightblue" stroke="midnightblue" points="1299.62,-193.8 1291.04,-187.59 1293.87,-197.8 1299.62,-193.8"/>
</g>
<!-- Node33 -->
<g id="node33" class="node">
<title>Node33</title>
<g id="a_node33"><a xlink:href="game_controller_8h.html" target="_top" xlink:title=" ">
<polygon fill="white" stroke="black" points="1436,-280.5 1436,-299.5 1557,-299.5 1557,-280.5 1436,-280.5"/>
<text text-anchor="middle" x="1496.5" y="-287.5" font-family="Helvetica,sans-Serif" font-size="10.00">engine/gameController.h</text>
</a>
</g>
</g>
<!-- Node4&#45;&gt;Node33 -->
<g id="edge56" class="edge">
<title>Node4&#45;&gt;Node33</title>
<path fill="none" stroke="midnightblue" d="M805.18,-523.56C904.91,-521.32 1333.34,-509.91 1383.5,-479 1447.67,-439.46 1480.16,-348.68 1491.6,-309.53"/>
<polygon fill="midnightblue" stroke="midnightblue" points="1495.01,-310.31 1494.33,-299.74 1488.27,-308.43 1495.01,-310.31"/>
</g>
<!-- Node37 -->
<g id="node37" class="node">
<title>Node37</title>
<g id="a_node37"><a xlink:href="_set_squad_path_8h.html" target="_top" xlink:title=" ">
<polygon fill="white" stroke="black" points="554,-459.5 554,-478.5 707,-478.5 707,-459.5 554,-459.5"/>
<text text-anchor="middle" x="630.5" y="-466.5" font-family="Helvetica,sans-Serif" font-size="10.00">engine/actions/SetSquadPath.h</text>
</a>
</g>
</g>
<!-- Node4&#45;&gt;Node37 -->
<g id="edge65" class="edge">
<title>Node4&#45;&gt;Node37</title>
<path fill="none" stroke="midnightblue" d="M763.97,-518.32C736.97,-509.78 689.87,-493.43 659.35,-482.13"/>
<polygon fill="midnightblue" stroke="midnightblue" points="660.28,-478.74 649.69,-478.51 657.83,-485.3 660.28,-478.74"/>
</g>
<!-- Node38 -->
<g id="node38" class="node">
<title>Node38</title>
<g id="a_node38"><a xlink:href="_all_units_8h.html" target="_top" xlink:title=" ">
<polygon fill="white" stroke="black" points="862,-403.5 862,-422.5 921,-422.5 921,-403.5 862,-403.5"/>
<text text-anchor="middle" x="891.5" y="-410.5" font-family="Helvetica,sans-Serif" font-size="10.00">AllUnits.h</text>
</a>
</g>
</g>
<!-- Node4&#45;&gt;Node38 -->
<g id="edge69" class="edge">
<title>Node4&#45;&gt;Node38</title>
<path fill="none" stroke="midnightblue" d="M805.31,-521.97C830.61,-518.26 872.32,-507.87 891.5,-479 900.47,-465.5 899.37,-446.69 896.69,-432.78"/>
<polygon fill="midnightblue" stroke="midnightblue" points="900.05,-431.8 894.35,-422.87 893.24,-433.4 900.05,-431.8"/>
</g>
<!-- Node39 -->
<g id="node39" class="node">
<title>Node39</title>
<g id="a_node39"><a xlink:href="_all_squad_templates_8h.html" target="_top" xlink:title=" ">
<polygon fill="white" stroke="black" points="774,-459.5 774,-478.5 883,-478.5 883,-459.5 774,-459.5"/>
<text text-anchor="middle" x="828.5" y="-466.5" font-family="Helvetica,sans-Serif" font-size="10.00">AllSquadTemplates.h</text>
</a>
</g>
</g>
<!-- Node4&#45;&gt;Node39 -->
<g id="edge71" class="edge">
<title>Node4&#45;&gt;Node39</title>
<path fill="none" stroke="midnightblue" d="M791.77,-515.08C798.04,-507.38 807.29,-496.03 814.93,-486.65"/>
<polygon fill="midnightblue" stroke="midnightblue" points="817.77,-488.71 821.37,-478.75 812.34,-484.29 817.77,-488.71"/>
</g>
<!-- Node7&#45;&gt;Node8 -->
<g id="edge7" class="edge">
<title>Node7&#45;&gt;Node8</title>
<path fill="none" stroke="midnightblue" d="M972.32,-336.47C994.22,-305.17 1046.98,-229.76 1070.65,-195.93"/>
<polygon fill="midnightblue" stroke="midnightblue" points="1073.65,-197.76 1076.51,-187.56 1067.91,-193.75 1073.65,-197.76"/>
</g>
<!-- Node9 -->
<g id="node9" class="node">
<title>Node9</title>
<g id="a_node9"><a xlink:title=" ">
<polygon fill="white" stroke="#bfbfbf" points="1355,-112.5 1355,-131.5 1384,-131.5 1384,-112.5 1355,-112.5"/>
<text text-anchor="middle" x="1369.5" y="-119.5" font-family="Helvetica,sans-Serif" font-size="10.00">list</text>
</a>
</g>
</g>
<!-- Node8&#45;&gt;Node9 -->
<g id="edge8" class="edge">
<title>Node8&#45;&gt;Node9</title>
<path fill="none" stroke="midnightblue" d="M1121.21,-169.72C1181.22,-158.43 1294.99,-137.02 1344.94,-127.62"/>
<polygon fill="midnightblue" stroke="midnightblue" points="1345.68,-131.04 1354.86,-125.75 1344.39,-124.16 1345.68,-131.04"/>
</g>
<!-- Node8&#45;&gt;Node10 -->
<g id="edge9" class="edge">
<title>Node8&#45;&gt;Node10</title>
<path fill="none" stroke="midnightblue" d="M1043.78,-174.45C909.69,-165.62 465.16,-136.35 313.62,-126.37"/>
<polygon fill="midnightblue" stroke="midnightblue" points="313.44,-122.85 303.23,-125.68 312.98,-129.83 313.44,-122.85"/>
</g>
<!-- Node15 -->
<g id="node15" class="node">
<title>Node15</title>
<g id="a_node15"><a xlink:href="engine_2_action_8h.html" target="_top" xlink:title=" ">
<polygon fill="white" stroke="black" points="1041,-112.5 1041,-131.5 1124,-131.5 1124,-112.5 1041,-112.5"/>
<text text-anchor="middle" x="1082.5" y="-119.5" font-family="Helvetica,sans-Serif" font-size="10.00">engine/Action.h</text>
</a>
</g>
</g>
<!-- Node8&#45;&gt;Node15 -->
<g id="edge14" class="edge">
<title>Node8&#45;&gt;Node15</title>
<path fill="none" stroke="midnightblue" d="M1082.5,-168.08C1082.5,-161.01 1082.5,-150.86 1082.5,-141.99"/>
<polygon fill="midnightblue" stroke="midnightblue" points="1086,-141.75 1082.5,-131.75 1079,-141.75 1086,-141.75"/>
</g>
<!-- Node11 -->
<g id="node11" class="node">
<title>Node11</title>
<g id="a_node11"><a xlink:href="_s_f_m_l_facade_8h.html" target="_top" xlink:title=" ">
<polygon fill="white" stroke="black" points="271,-56.5 271,-75.5 394,-75.5 394,-56.5 271,-56.5"/>
<text text-anchor="middle" x="332.5" y="-63.5" font-family="Helvetica,sans-Serif" font-size="10.00">graphics/SFMLFacade.h</text>
</a>
</g>
</g>
<!-- Node10&#45;&gt;Node11 -->
<g id="edge10" class="edge">
<title>Node10&#45;&gt;Node11</title>
<path fill="none" stroke="midnightblue" d="M273.75,-112.32C284.3,-104.18 300.3,-91.84 312.94,-82.09"/>
<polygon fill="midnightblue" stroke="midnightblue" points="315.27,-84.71 321.05,-75.83 310.99,-79.17 315.27,-84.71"/>
</g>
<!-- Node14 -->
<g id="node14" class="node">
<title>Node14</title>
<g id="a_node14"><a xlink:title=" ">
<polygon fill="white" stroke="#bfbfbf" points="154.5,-56.5 154.5,-75.5 252.5,-75.5 252.5,-56.5 154.5,-56.5"/>
<text text-anchor="middle" x="203.5" y="-63.5" font-family="Helvetica,sans-Serif" font-size="10.00">nlohmann/json.hpp</text>
</a>
</g>
</g>
<!-- Node10&#45;&gt;Node14 -->
<g id="edge13" class="edge">
<title>Node10&#45;&gt;Node14</title>
<path fill="none" stroke="midnightblue" d="M253.02,-112.32C244.3,-104.34 231.16,-92.31 220.6,-82.65"/>
<polygon fill="midnightblue" stroke="midnightblue" points="222.89,-80 213.15,-75.83 218.17,-85.17 222.89,-80"/>
</g>
<!-- Node12 -->
<g id="node12" class="node">
<title>Node12</title>
<g id="a_node12"><a xlink:title=" ">
<polygon fill="white" stroke="#bfbfbf" points="280.5,-0.5 280.5,-19.5 384.5,-19.5 384.5,-0.5 280.5,-0.5"/>
<text text-anchor="middle" x="332.5" y="-7.5" font-family="Helvetica,sans-Serif" font-size="10.00">SFML/Graphics.hpp</text>
</a>
</g>
</g>
<!-- Node11&#45;&gt;Node12 -->
<g id="edge11" class="edge">
<title>Node11&#45;&gt;Node12</title>
<path fill="none" stroke="midnightblue" d="M332.5,-56.08C332.5,-49.01 332.5,-38.86 332.5,-29.99"/>
<polygon fill="midnightblue" stroke="midnightblue" points="336,-29.75 332.5,-19.75 329,-29.75 336,-29.75"/>
</g>
<!-- Node11&#45;&gt;Node13 -->
<g id="edge12" class="edge">
<title>Node11&#45;&gt;Node13</title>
<path fill="none" stroke="midnightblue" d="M350.41,-56.44C368.75,-47.68 397.51,-33.94 418.59,-23.86"/>
<polygon fill="midnightblue" stroke="midnightblue" points="420.17,-26.99 427.68,-19.52 417.15,-20.67 420.17,-26.99"/>
</g>
<!-- Node15&#45;&gt;Node16 -->
<g id="edge15" class="edge">
<title>Node15&#45;&gt;Node16</title>
<path fill="none" stroke="midnightblue" d="M1124.13,-116.11C1213.09,-105.67 1420.48,-81.32 1505.32,-71.36"/>
<polygon fill="midnightblue" stroke="midnightblue" points="1505.75,-74.84 1515.28,-70.2 1504.94,-67.89 1505.75,-74.84"/>
</g>
<!-- Node17 -->
<g id="node17" class="node">
<title>Node17</title>
<g id="a_node17"><a xlink:title=" ">
<polygon fill="white" stroke="#bfbfbf" points="770,-56.5 770,-75.5 821,-75.5 821,-56.5 770,-56.5"/>
<text text-anchor="middle" x="795.5" y="-63.5" font-family="Helvetica,sans-Serif" font-size="10.00">memory</text>
</a>
</g>
</g>
<!-- Node15&#45;&gt;Node17 -->
<g id="edge16" class="edge">
<title>Node15&#45;&gt;Node17</title>
<path fill="none" stroke="midnightblue" d="M1040.77,-113.15C984.22,-102.51 884.22,-83.69 831.06,-73.69"/>
<polygon fill="midnightblue" stroke="midnightblue" points="831.55,-70.22 821.08,-71.81 830.26,-77.1 831.55,-70.22"/>
</g>
<!-- Node18&#45;&gt;Node5 -->
<g id="edge19" class="edge">
<title>Node18&#45;&gt;Node5</title>
<path fill="none" stroke="midnightblue" d="M1154.08,-403.44C1181.81,-395.29 1223.57,-382.07 1258.5,-367 1259.5,-366.57 1260.52,-366.11 1261.53,-365.64"/>
<polygon fill="midnightblue" stroke="midnightblue" points="1263.22,-368.71 1270.59,-361.09 1260.08,-362.45 1263.22,-368.71"/>
</g>
<!-- Node19 -->
<g id="node19" class="node">
<title>Node19</title>
<g id="a_node19"><a xlink:title=" ">
<polygon fill="white" stroke="#bfbfbf" points="758.5,-168.5 758.5,-187.5 802.5,-187.5 802.5,-168.5 758.5,-168.5"/>
<text text-anchor="middle" x="780.5" y="-175.5" font-family="Helvetica,sans-Serif" font-size="10.00">vector</text>
</a>
</g>
</g>
<!-- Node18&#45;&gt;Node19 -->
<g id="edge18" class="edge">
<title>Node18&#45;&gt;Node19</title>
<path fill="none" stroke="midnightblue" d="M1120.87,-403.12C1111.35,-372.6 1075.55,-271.24 1007.5,-224 976.4,-202.41 868.09,-188.22 813.09,-182.24"/>
<polygon fill="midnightblue" stroke="midnightblue" points="813.15,-178.72 802.84,-181.15 812.41,-185.69 813.15,-178.72"/>
</g>
<!-- Node20 -->
<g id="node20" class="node">
<title>Node20</title>
<g id="a_node20"><a xlink:title=" ">
<polygon fill="white" stroke="#bfbfbf" points="1121.5,-342 1121.5,-361 1249.5,-361 1249.5,-342 1121.5,-342"/>
<text text-anchor="middle" x="1185.5" y="-349" font-family="Helvetica,sans-Serif" font-size="10.00">scanline_triangulation.hpp</text>
</a>
</g>
</g>
<!-- Node18&#45;&gt;Node20 -->
<g id="edge20" class="edge">
<title>Node18&#45;&gt;Node20</title>
<path fill="none" stroke="midnightblue" d="M1132.38,-403.48C1141.96,-394.28 1157.41,-379.46 1169.19,-368.16"/>
<polygon fill="midnightblue" stroke="midnightblue" points="1171.84,-370.46 1176.63,-361.01 1166.99,-365.41 1171.84,-370.46"/>
</g>
<!-- Node21&#45;&gt;Node17 -->
<g id="edge25" class="edge">
<title>Node21&#45;&gt;Node17</title>
<path fill="none" stroke="midnightblue" d="M280.58,-280.22C269.59,-266.94 252.46,-241.46 265.5,-224 326.42,-142.42 650.45,-88.22 759.59,-72.05"/>
<polygon fill="midnightblue" stroke="midnightblue" points="760.37,-75.48 769.76,-70.57 759.36,-68.55 760.37,-75.48"/>
</g>
<!-- Node22 -->
<g id="node22" class="node">
<title>Node22</title>
<g id="a_node22"><a xlink:href="_flag_8h.html" target="_top" xlink:title=" ">
<polygon fill="white" stroke="black" points="275,-224.5 275,-243.5 318,-243.5 318,-224.5 275,-224.5"/>
<text text-anchor="middle" x="296.5" y="-231.5" font-family="Helvetica,sans-Serif" font-size="10.00">Flag.h</text>
</a>
</g>
</g>
<!-- Node21&#45;&gt;Node22 -->
<g id="edge22" class="edge">
<title>Node21&#45;&gt;Node22</title>
<path fill="none" stroke="midnightblue" d="M289.82,-280.08C290.88,-272.93 292.41,-262.64 293.73,-253.69"/>
<polygon fill="midnightblue" stroke="midnightblue" points="297.2,-254.16 295.2,-243.75 290.28,-253.13 297.2,-254.16"/>
</g>
<!-- Node22&#45;&gt;Node3 -->
<g id="edge24" class="edge">
<title>Node22&#45;&gt;Node3</title>
<path fill="none" stroke="midnightblue" d="M274.84,-229.95C233.2,-223.91 138.98,-209.31 50.89,-188.11"/>
<polygon fill="midnightblue" stroke="midnightblue" points="51.55,-184.67 41.01,-185.7 49.89,-191.47 51.55,-184.67"/>
</g>
<!-- Node22&#45;&gt;Node19 -->
<g id="edge23" class="edge">
<title>Node22&#45;&gt;Node19</title>
<path fill="none" stroke="midnightblue" d="M318.24,-230.57C395.38,-221.97 656.31,-192.86 748.17,-182.61"/>
<polygon fill="midnightblue" stroke="midnightblue" points="748.72,-186.07 758.27,-181.48 747.94,-179.11 748.72,-186.07"/>
</g>
<!-- Node23&#45;&gt;Node4 -->
<g id="edge29" class="edge">
<title>Node23&#45;&gt;Node4</title>
<path fill="none" stroke="midnightblue" d="M479.8,-422.84C488.19,-437.17 500.04,-465.26 520.5,-479 558.69,-504.64 692.51,-517.1 753.75,-521.75"/>
<polygon fill="midnightblue" stroke="midnightblue" points="753.73,-525.26 763.96,-522.51 754.24,-518.28 753.73,-525.26"/>
</g>
<!-- Node23&#45;&gt;Node7 -->
<g id="edge41" class="edge">
<title>Node23&#45;&gt;Node7</title>
<path fill="none" stroke="midnightblue" d="M497.7,-408.99C559.28,-401.88 718,-383.44 850.5,-367 862.63,-365.49 875.49,-363.86 888.01,-362.26"/>
<polygon fill="midnightblue" stroke="midnightblue" points="888.49,-365.72 897.96,-360.97 887.59,-358.78 888.49,-365.72"/>
</g>
<!-- Node23&#45;&gt;Node10 -->
<g id="edge45" class="edge">
<title>Node23&#45;&gt;Node10</title>
<path fill="none" stroke="midnightblue" d="M445.39,-411.01C415.01,-408.34 365.77,-398.98 340.5,-367 320.7,-341.95 336.88,-254.19 326.5,-224 315.31,-191.46 291.78,-158.72 276.58,-139.68"/>
<polygon fill="midnightblue" stroke="midnightblue" points="279.11,-137.24 270.07,-131.71 273.69,-141.67 279.11,-137.24"/>
</g>
<!-- Node23&#45;&gt;Node13 -->
<g id="edge46" class="edge">
<title>Node23&#45;&gt;Node13</title>
<path fill="none" stroke="midnightblue" d="M465.4,-403.19C459.75,-394.46 451.74,-380.48 448.5,-367 445.28,-353.6 447.69,-349.75 448.5,-336 451.17,-290.87 460.5,-280.2 460.5,-235 460.5,-235 460.5,-235 460.5,-121 460.5,-88.5 453.99,-51.1 449.55,-29.34"/>
<polygon fill="midnightblue" stroke="midnightblue" points="452.96,-28.56 447.46,-19.5 446.11,-30.01 452.96,-28.56"/>
</g>
<!-- Node23&#45;&gt;Node24 -->
<g id="edge30" class="edge">
<title>Node23&#45;&gt;Node24</title>
<path fill="none" stroke="midnightblue" d="M445.26,-407.86C391.48,-398.66 268.5,-376.24 198.18,-362.93"/>
<polygon fill="midnightblue" stroke="midnightblue" points="198.68,-359.46 188.2,-361.03 197.37,-366.34 198.68,-359.46"/>
</g>
<!-- Node29 -->
<g id="node29" class="node">
<title>Node29</title>
<g id="a_node29"><a xlink:href="_game_logic_2_squad_2_action_8h.html" target="_top" xlink:title=" ">
<polygon fill="white" stroke="black" points="457.5,-342 457.5,-361 593.5,-361 593.5,-342 457.5,-342"/>
<text text-anchor="middle" x="525.5" y="-349" font-family="Helvetica,sans-Serif" font-size="10.00">GameLogic/Squad/Action.h</text>
</a>
</g>
</g>
<!-- Node23&#45;&gt;Node29 -->
<g id="edge42" class="edge">
<title>Node23&#45;&gt;Node29</title>
<path fill="none" stroke="midnightblue" d="M474.34,-403.48C480.67,-394.28 493.76,-379.46 505.27,-368.16"/>
<polygon fill="midnightblue" stroke="midnightblue" points="507.98,-370.4 512.88,-361.01 503.19,-365.3 507.98,-370.4"/>
</g>
<!-- Node23&#45;&gt;Node30 -->
<g id="edge47" class="edge">
<title>Node23&#45;&gt;Node30</title>
<path fill="none" stroke="midnightblue" d="M457.75,-403.48C442.13,-393.8 416.44,-377.87 397.92,-366.39"/>
<polygon fill="midnightblue" stroke="midnightblue" points="399.57,-363.3 389.23,-361.01 395.88,-369.25 399.57,-363.3"/>
</g>
<!-- Node24&#45;&gt;Node21 -->
<g id="edge36" class="edge">
<title>Node24&#45;&gt;Node21</title>
<path fill="none" stroke="midnightblue" d="M166.85,-341.98C190.89,-331.9 231.1,-315.05 258.66,-303.5"/>
<polygon fill="midnightblue" stroke="midnightblue" points="260.32,-306.6 268.19,-299.51 257.62,-300.15 260.32,-306.6"/>
</g>
<!-- Node24&#45;&gt;Node23 -->
<g id="edge35" class="edge">
<title>Node24&#45;&gt;Node23</title>
<path fill="none" stroke="midnightblue" d="M198.06,-361.04C264.29,-372.7 377.34,-393.41 435.21,-404.5"/>
<polygon fill="midnightblue" stroke="midnightblue" points="434.86,-408 445.35,-406.46 436.19,-401.13 434.86,-408"/>
</g>
<!-- Node25 -->
<g id="node25" class="node">
<title>Node25</title>
<g id="a_node25"><a xlink:title=" ">
<polygon fill="white" stroke="#bfbfbf" points="159,-280.5 159,-299.5 202,-299.5 202,-280.5 159,-280.5"/>
<text text-anchor="middle" x="180.5" y="-287.5" font-family="Helvetica,sans-Serif" font-size="10.00">cstdio</text>
</a>
</g>
</g>
<!-- Node24&#45;&gt;Node25 -->
<g id="edge31" class="edge">
<title>Node24&#45;&gt;Node25</title>
<path fill="none" stroke="midnightblue" d="M151.37,-341.98C156.37,-333.23 164.29,-319.37 170.61,-308.31"/>
<polygon fill="midnightblue" stroke="midnightblue" points="173.72,-309.93 175.64,-299.51 167.64,-306.46 173.72,-309.93"/>
</g>
<!-- Node26 -->
<g id="node26" class="node">
<title>Node26</title>
<g id="a_node26"><a xlink:href="_unit_order_8h.html" target="_top" xlink:title=" ">
<polygon fill="white" stroke="black" points="36.5,-280.5 36.5,-299.5 102.5,-299.5 102.5,-280.5 36.5,-280.5"/>
<text text-anchor="middle" x="69.5" y="-287.5" font-family="Helvetica,sans-Serif" font-size="10.00">UnitOrder.h</text>
</a>
</g>
</g>
<!-- Node24&#45;&gt;Node26 -->
<g id="edge32" class="edge">
<title>Node24&#45;&gt;Node26</title>
<path fill="none" stroke="midnightblue" d="M130.57,-341.98C116.54,-332.7 96.73,-317.67 83.35,-306.33"/>
<polygon fill="midnightblue" stroke="midnightblue" points="85.43,-303.5 75.61,-299.51 80.8,-308.75 85.43,-303.5"/>
</g>
<!-- Node27 -->
<g id="node27" class="node">
<title>Node27</title>
<g id="a_node27"><a xlink:href="_textures_8h.html" target="_top" xlink:title=" ">
<polygon fill="white" stroke="black" points="79,-224.5 79,-243.5 180,-243.5 180,-224.5 79,-224.5"/>
<text text-anchor="middle" x="129.5" y="-231.5" font-family="Helvetica,sans-Serif" font-size="10.00">graphics/Textures.h</text>
</a>
</g>
</g>
<!-- Node24&#45;&gt;Node27 -->
<g id="edge37" class="edge">
<title>Node24&#45;&gt;Node27</title>
<path fill="none" stroke="midnightblue" d="M145.22,-341.82C142.49,-323.26 136.03,-279.34 132.29,-253.97"/>
<polygon fill="midnightblue" stroke="midnightblue" points="135.71,-253.17 130.79,-243.78 128.79,-254.19 135.71,-253.17"/>
</g>
<!-- Node26&#45;&gt;Node3 -->
<g id="edge33" class="edge">
<title>Node26&#45;&gt;Node3</title>
<path fill="none" stroke="midnightblue" d="M65.66,-280.37C57.68,-262.46 39.17,-220.92 28.5,-196.95"/>
<polygon fill="midnightblue" stroke="midnightblue" points="31.59,-195.3 24.33,-187.59 25.2,-198.15 31.59,-195.3"/>
</g>
<!-- Node26&#45;&gt;Node24 -->
<g id="edge34" class="edge">
<title>Node26&#45;&gt;Node24</title>
<path fill="none" stroke="midnightblue" d="M85.41,-299.51C99.43,-308.78 119.24,-323.81 132.63,-335.15"/>
<polygon fill="midnightblue" stroke="midnightblue" points="130.55,-337.99 140.37,-341.98 135.18,-332.74 130.55,-337.99"/>
</g>
<!-- Node27&#45;&gt;Node10 -->
<g id="edge38" class="edge">
<title>Node27&#45;&gt;Node10</title>
<path fill="none" stroke="midnightblue" d="M137.02,-224.45C148.64,-211.48 172.01,-186.38 194.5,-168 208.57,-156.5 225.63,-145.22 239.14,-136.83"/>
<polygon fill="midnightblue" stroke="midnightblue" points="241.14,-139.71 247.85,-131.51 237.49,-133.74 241.14,-139.71"/>
</g>
<!-- Node27&#45;&gt;Node19 -->
<g id="edge39" class="edge">
<title>Node27&#45;&gt;Node19</title>
<path fill="none" stroke="midnightblue" d="M180.04,-228.81C308.13,-218.18 642.8,-190.42 748.21,-181.68"/>
<polygon fill="midnightblue" stroke="midnightblue" points="748.57,-185.16 758.25,-180.85 747.99,-178.18 748.57,-185.16"/>
</g>
<!-- Node28 -->
<g id="node28" class="node">
<title>Node28</title>
<g id="a_node28"><a xlink:title=" ">
<polygon fill="white" stroke="#bfbfbf" points="59,-168.5 59,-187.5 142,-187.5 142,-168.5 59,-168.5"/>
<text text-anchor="middle" x="100.5" y="-175.5" font-family="Helvetica,sans-Serif" font-size="10.00">unordered_map</text>
</a>
</g>
</g>
<!-- Node27&#45;&gt;Node28 -->
<g id="edge40" class="edge">
<title>Node27&#45;&gt;Node28</title>
<path fill="none" stroke="midnightblue" d="M124.71,-224.08C120.74,-216.69 114.97,-205.95 110.07,-196.81"/>
<polygon fill="midnightblue" stroke="midnightblue" points="113.01,-194.91 105.2,-187.75 106.85,-198.22 113.01,-194.91"/>
</g>
<!-- Node29&#45;&gt;Node4 -->
<g id="edge44" class="edge">
<title>Node29&#45;&gt;Node4</title>
<path fill="none" stroke="midnightblue" d="M523.76,-361.32C519.79,-384.22 512.74,-446.07 544.5,-479 572.97,-508.52 695.47,-519.12 753.62,-522.54"/>
<polygon fill="midnightblue" stroke="midnightblue" points="753.52,-526.04 763.7,-523.1 753.91,-519.05 753.52,-526.04"/>
</g>
<!-- Node29&#45;&gt;Node23 -->
<g id="edge43" class="edge">
<title>Node29&#45;&gt;Node23</title>
<path fill="none" stroke="midnightblue" d="M522.67,-361.01C516.35,-370.19 503.27,-385.02 491.75,-396.32"/>
<polygon fill="midnightblue" stroke="midnightblue" points="489.03,-394.08 484.14,-403.48 493.82,-399.18 489.03,-394.08"/>
</g>
<!-- Node30&#45;&gt;Node11 -->
<g id="edge49" class="edge">
<title>Node30&#45;&gt;Node11</title>
<path fill="none" stroke="midnightblue" d="M376.64,-341.82C379.06,-322.62 384.5,-275.02 384.5,-235 384.5,-235 384.5,-235 384.5,-177 384.5,-141.12 361.61,-104.42 346.2,-83.79"/>
<polygon fill="midnightblue" stroke="midnightblue" points="348.85,-81.5 339.95,-75.74 343.32,-85.79 348.85,-81.5"/>
</g>
<!-- Node30&#45;&gt;Node13 -->
<g id="edge48" class="edge">
<title>Node30&#45;&gt;Node13</title>
<path fill="none" stroke="midnightblue" d="M381.84,-341.72C394.67,-323.05 422.5,-277.65 422.5,-235 422.5,-235 422.5,-235 422.5,-121 422.5,-88.12 432.47,-50.86 439.28,-29.24"/>
<polygon fill="midnightblue" stroke="midnightblue" points="442.61,-30.3 442.4,-19.71 435.96,-28.12 442.61,-30.3"/>
</g>
<!-- Node31&#45;&gt;Node18 -->
<g id="edge53" class="edge">
<title>Node31&#45;&gt;Node18</title>
<path fill="none" stroke="midnightblue" d="M1066.43,-459.32C1076.67,-451.18 1092.22,-438.84 1104.5,-429.09"/>
<polygon fill="midnightblue" stroke="midnightblue" points="1106.72,-431.79 1112.38,-422.83 1102.37,-426.31 1106.72,-431.79"/>
</g>
<!-- Node31&#45;&gt;Node19 -->
<g id="edge52" class="edge">
<title>Node31&#45;&gt;Node19</title>
<path fill="none" stroke="midnightblue" d="M1055.77,-459.4C1056.37,-423.42 1053.38,-283.97 974.5,-224 926.64,-187.62 854.31,-179.9 812.82,-178.69"/>
<polygon fill="midnightblue" stroke="midnightblue" points="812.78,-175.19 802.72,-178.51 812.65,-182.19 812.78,-175.19"/>
</g>
<!-- Node32&#45;&gt;Node15 -->
<g id="edge55" class="edge">
<title>Node32&#45;&gt;Node15</title>
<path fill="none" stroke="midnightblue" d="M1252.49,-168.44C1217.77,-159.16 1162.21,-144.31 1124.12,-134.13"/>
<polygon fill="midnightblue" stroke="midnightblue" points="1124.92,-130.72 1114.36,-131.52 1123.11,-137.48 1124.92,-130.72"/>
</g>
<!-- Node33&#45;&gt;Node8 -->
<g id="edge58" class="edge">
<title>Node33&#45;&gt;Node8</title>
<path fill="none" stroke="midnightblue" d="M1435.79,-282.53C1346.81,-272.79 1188.88,-254.38 1164.5,-244 1138.03,-232.73 1112.92,-210.52 1097.63,-195.23"/>
<polygon fill="midnightblue" stroke="midnightblue" points="1100.04,-192.69 1090.57,-187.95 1095.02,-197.57 1100.04,-192.69"/>
</g>
<!-- Node33&#45;&gt;Node9 -->
<g id="edge57" class="edge">
<title>Node33&#45;&gt;Node9</title>
<path fill="none" stroke="midnightblue" d="M1498.39,-280.46C1500.8,-267.49 1503.64,-242.4 1494.5,-224 1472.98,-180.67 1423.26,-149.7 1393.42,-134.23"/>
<polygon fill="midnightblue" stroke="midnightblue" points="1394.64,-130.92 1384.13,-129.58 1391.51,-137.18 1394.64,-130.92"/>
</g>
<!-- Node34 -->
<g id="node34" class="node">
<title>Node34</title>
<g id="a_node34"><a xlink:href="_network_manager_8h.html" target="_top" xlink:title=" ">
<polygon fill="white" stroke="black" points="1173.5,-224.5 1173.5,-243.5 1303.5,-243.5 1303.5,-224.5 1173.5,-224.5"/>
<text text-anchor="middle" x="1238.5" y="-231.5" font-family="Helvetica,sans-Serif" font-size="10.00">engine/NetworkManager.h</text>
</a>
</g>
</g>
<!-- Node33&#45;&gt;Node34 -->
<g id="edge59" class="edge">
<title>Node33&#45;&gt;Node34</title>
<path fill="none" stroke="midnightblue" d="M1455.62,-280.44C1410.52,-271 1337.89,-255.8 1289.2,-245.61"/>
<polygon fill="midnightblue" stroke="midnightblue" points="1289.69,-242.14 1279.19,-243.52 1288.26,-248.99 1289.69,-242.14"/>
</g>
<!-- Node36 -->
<g id="node36" class="node">
<title>Node36</title>
<g id="a_node36"><a xlink:title=" ">
<polygon fill="white" stroke="#bfbfbf" points="1436,-224.5 1436,-243.5 1485,-243.5 1485,-224.5 1436,-224.5"/>
<text text-anchor="middle" x="1460.5" y="-231.5" font-family="Helvetica,sans-Serif" font-size="10.00">random</text>
</a>
</g>
</g>
<!-- Node33&#45;&gt;Node36 -->
<g id="edge64" class="edge">
<title>Node33&#45;&gt;Node36</title>
<path fill="none" stroke="midnightblue" d="M1490.56,-280.08C1485.52,-272.53 1478.16,-261.49 1471.99,-252.23"/>
<polygon fill="midnightblue" stroke="midnightblue" points="1474.79,-250.13 1466.33,-243.75 1468.97,-254.01 1474.79,-250.13"/>
</g>
<!-- Node34&#45;&gt;Node8 -->
<g id="edge60" class="edge">
<title>Node34&#45;&gt;Node8</title>
<path fill="none" stroke="midnightblue" d="M1213.78,-224.44C1187.65,-215.4 1146.24,-201.06 1116.92,-190.92"/>
<polygon fill="midnightblue" stroke="midnightblue" points="1117.7,-187.48 1107.1,-187.52 1115.41,-194.1 1117.7,-187.48"/>
</g>
<!-- Node34&#45;&gt;Node19 -->
<g id="edge62" class="edge">
<title>Node34&#45;&gt;Node19</title>
<path fill="none" stroke="midnightblue" d="M1173.37,-225.32C1073.8,-213.58 887.43,-191.61 812.71,-182.8"/>
<polygon fill="midnightblue" stroke="midnightblue" points="812.86,-179.29 802.52,-181.6 812.04,-186.24 812.86,-179.29"/>
</g>
<!-- Node34&#45;&gt;Node32 -->
<g id="edge61" class="edge">
<title>Node34&#45;&gt;Node32</title>
<path fill="none" stroke="midnightblue" d="M1246.1,-224.08C1252.73,-216.3 1262.52,-204.8 1270.56,-195.37"/>
<polygon fill="midnightblue" stroke="midnightblue" points="1273.23,-197.63 1277.05,-187.75 1267.9,-193.09 1273.23,-197.63"/>
</g>
<!-- Node35 -->
<g id="node35" class="node">
<title>Node35</title>
<g id="a_node35"><a xlink:title=" ">
<polygon fill="white" stroke="#bfbfbf" points="1139,-168.5 1139,-187.5 1210,-187.5 1210,-168.5 1139,-168.5"/>
<text text-anchor="middle" x="1174.5" y="-175.5" font-family="Helvetica,sans-Serif" font-size="10.00">sys/socket.h</text>
</a>
</g>
</g>
<!-- Node34&#45;&gt;Node35 -->
<g id="edge63" class="edge">
<title>Node34&#45;&gt;Node35</title>
<path fill="none" stroke="midnightblue" d="M1228.22,-224.32C1218.66,-216.26 1204.22,-204.08 1192.72,-194.37"/>
<polygon fill="midnightblue" stroke="midnightblue" points="1194.87,-191.61 1184.97,-187.83 1190.36,-196.96 1194.87,-191.61"/>
</g>
<!-- Node37&#45;&gt;Node4 -->
<g id="edge68" class="edge">
<title>Node37&#45;&gt;Node4</title>
<path fill="none" stroke="midnightblue" d="M659.87,-478.52C687.49,-487.51 728.34,-501.75 755.75,-511.91"/>
<polygon fill="midnightblue" stroke="midnightblue" points="754.59,-515.21 765.19,-515.44 757.05,-508.66 754.59,-515.21"/>
</g>
<!-- Node37&#45;&gt;Node15 -->
<g id="edge66" class="edge">
<title>Node37&#45;&gt;Node15</title>
<path fill="none" stroke="midnightblue" d="M642.98,-459.45C653.92,-451.3 669.45,-438.08 678.5,-423 695.2,-395.17 697.5,-384.95 697.5,-352.5 697.5,-352.5 697.5,-352.5 697.5,-233 697.5,-196 717.31,-186.23 749.5,-168 796.48,-141.4 949.59,-129.74 1030.81,-125.32"/>
<polygon fill="midnightblue" stroke="midnightblue" points="1031.02,-128.82 1040.83,-124.8 1030.65,-121.83 1031.02,-128.82"/>
</g>
<!-- Node37&#45;&gt;Node23 -->
<g id="edge67" class="edge">
<title>Node37&#45;&gt;Node23</title>
<path fill="none" stroke="midnightblue" d="M605.31,-459.44C578.56,-450.36 536.1,-435.94 506.19,-425.78"/>
<polygon fill="midnightblue" stroke="midnightblue" points="507.17,-422.42 496.58,-422.52 504.92,-429.05 507.17,-422.42"/>
</g>
<!-- Node38&#45;&gt;Node2 -->
<g id="edge70" class="edge">
<title>Node38&#45;&gt;Node2</title>
<path fill="none" stroke="midnightblue" d="M897.8,-422.52C906.54,-435.46 920.11,-460.52 909.5,-479 884.9,-521.83 860.45,-519.66 813.5,-535 740.34,-558.9 509.87,-573.21 417.93,-578.1"/>
<polygon fill="midnightblue" stroke="midnightblue" points="417.48,-574.62 407.68,-578.63 417.85,-581.61 417.48,-574.62"/>
</g>
<!-- Node39&#45;&gt;Node38 -->
<g id="edge85" class="edge">
<title>Node39&#45;&gt;Node38</title>
<path fill="none" stroke="midnightblue" d="M838.62,-459.32C848.03,-451.26 862.24,-439.08 873.57,-429.37"/>
<polygon fill="midnightblue" stroke="midnightblue" points="875.88,-432 881.19,-422.83 871.32,-426.68 875.88,-432"/>
</g>
<!-- Node40 -->
<g id="node40" class="node">
<title>Node40</title>
<g id="a_node40"><a xlink:href="_squad_template_8h.html" target="_top" xlink:title=" ">
<polygon fill="white" stroke="black" points="577.5,-403.5 577.5,-422.5 669.5,-422.5 669.5,-403.5 577.5,-403.5"/>
<text text-anchor="middle" x="623.5" y="-410.5" font-family="Helvetica,sans-Serif" font-size="10.00">SquadTemplate.h</text>
</a>
</g>
</g>
<!-- Node39&#45;&gt;Node40 -->
<g id="edge72" class="edge">
<title>Node39&#45;&gt;Node40</title>
<path fill="none" stroke="midnightblue" d="M796.02,-459.44C760.78,-450.16 704.4,-435.31 665.74,-425.13"/>
<polygon fill="midnightblue" stroke="midnightblue" points="666.39,-421.68 655.83,-422.52 664.61,-428.45 666.39,-421.68"/>
</g>
<!-- Node40&#45;&gt;Node2 -->
<g id="edge74" class="edge">
<title>Node40&#45;&gt;Node2</title>
<path fill="none" stroke="midnightblue" d="M607.14,-422.6C590.93,-431.29 565.56,-445.35 544.5,-459 489.7,-494.53 428.51,-541.44 398.37,-565.05"/>
<polygon fill="midnightblue" stroke="midnightblue" points="396.09,-562.4 390.39,-571.33 400.41,-567.9 396.09,-562.4"/>
</g>
<!-- Node40&#45;&gt;Node19 -->
<g id="edge73" class="edge">
<title>Node40&#45;&gt;Node19</title>
<path fill="none" stroke="midnightblue" d="M629.46,-403.1C638.97,-388.91 658.17,-360.25 674.5,-336 708.82,-285.02 749.52,-224.81 768.99,-196.01"/>
<polygon fill="midnightblue" stroke="midnightblue" points="772.04,-197.75 774.75,-187.5 766.24,-193.83 772.04,-197.75"/>
</g>
<!-- Node40&#45;&gt;Node30 -->
<g id="edge84" class="edge">
<title>Node40&#45;&gt;Node30</title>
<path fill="none" stroke="midnightblue" d="M587.97,-403.48C540.8,-392.16 458,-372.29 410.9,-360.99"/>
<polygon fill="midnightblue" stroke="midnightblue" points="411.68,-357.58 401.14,-358.65 410.05,-364.39 411.68,-357.58"/>
</g>
<!-- Node41 -->
<g id="node41" class="node">
<title>Node41</title>
<g id="a_node41"><a xlink:href="_gui_list_8h.html" target="_top" xlink:title=" ">
<polygon fill="white" stroke="black" points="726.5,-280.5 726.5,-299.5 834.5,-299.5 834.5,-280.5 726.5,-280.5"/>
<text text-anchor="middle" x="780.5" y="-287.5" font-family="Helvetica,sans-Serif" font-size="10.00">engine/GUI/GuiList.h</text>
</a>
</g>
</g>
<!-- Node40&#45;&gt;Node41 -->
<g id="edge75" class="edge">
<title>Node40&#45;&gt;Node41</title>
<path fill="none" stroke="midnightblue" d="M633.63,-403.32C650.51,-388.94 685.6,-359.44 716.5,-336 730.43,-325.43 746.54,-314.11 759.11,-305.47"/>
<polygon fill="midnightblue" stroke="midnightblue" points="761.27,-308.23 767.55,-299.7 757.32,-302.45 761.27,-308.23"/>
</g>
<!-- Node43 -->
<g id="node43" class="node">
<title>Node43</title>
<g id="a_node43"><a xlink:href="_gui_scroll_8h.html" target="_top" xlink:title=" ">
<polygon fill="white" stroke="black" points="725.5,-342 725.5,-361 841.5,-361 841.5,-342 725.5,-342"/>
<text text-anchor="middle" x="783.5" y="-349" font-family="Helvetica,sans-Serif" font-size="10.00">engine/GUI/GuiScroll.h</text>
</a>
</g>
</g>
<!-- Node40&#45;&gt;Node43 -->
<g id="edge79" class="edge">
<title>Node40&#45;&gt;Node43</title>
<path fill="none" stroke="midnightblue" d="M646.42,-403.48C673.87,-393.27 720.02,-376.11 751.1,-364.55"/>
<polygon fill="midnightblue" stroke="midnightblue" points="752.47,-367.78 760.62,-361.01 750.03,-361.21 752.47,-367.78"/>
</g>
<!-- Node44 -->
<g id="node44" class="node">
<title>Node44</title>
<g id="a_node44"><a xlink:href="_button_8h.html" target="_top" xlink:title=" ">
<polygon fill="white" stroke="black" points="853,-280.5 853,-299.5 958,-299.5 958,-280.5 853,-280.5"/>
<text text-anchor="middle" x="905.5" y="-287.5" font-family="Helvetica,sans-Serif" font-size="10.00">engine/GUI/Button.h</text>
</a>
</g>
</g>
<!-- Node40&#45;&gt;Node44 -->
<g id="edge82" class="edge">
<title>Node40&#45;&gt;Node44</title>
<path fill="none" stroke="midnightblue" d="M669.78,-412.49C718.41,-410.92 795.37,-402.34 850.5,-367 872.51,-352.89 888.54,-326.6 897.44,-308.95"/>
<polygon fill="midnightblue" stroke="midnightblue" points="900.7,-310.24 901.84,-299.71 894.38,-307.23 900.7,-310.24"/>
</g>
<!-- Node41&#45;&gt;Node19 -->
<g id="edge78" class="edge">
<title>Node41&#45;&gt;Node19</title>
<path fill="none" stroke="midnightblue" d="M780.5,-280.37C780.5,-262.62 780.5,-221.67 780.5,-197.6"/>
<polygon fill="midnightblue" stroke="midnightblue" points="784,-197.59 780.5,-187.59 777,-197.59 784,-197.59"/>
</g>
<!-- Node42 -->
<g id="node42" class="node">
<title>Node42</title>
<g id="a_node42"><a xlink:href="_gui_object_8h.html" target="_top" xlink:title=" ">
<polygon fill="white" stroke="black" points="845.5,-224.5 845.5,-243.5 965.5,-243.5 965.5,-224.5 845.5,-224.5"/>
<text text-anchor="middle" x="905.5" y="-231.5" font-family="Helvetica,sans-Serif" font-size="10.00">engine/GUI/GuiObject.h</text>
</a>
</g>
</g>
<!-- Node41&#45;&gt;Node42 -->
<g id="edge76" class="edge">
<title>Node41&#45;&gt;Node42</title>
<path fill="none" stroke="midnightblue" d="M800.31,-280.44C820.79,-271.6 852.98,-257.69 876.36,-247.59"/>
<polygon fill="midnightblue" stroke="midnightblue" points="877.99,-250.7 885.79,-243.52 875.22,-244.27 877.99,-250.7"/>
</g>
<!-- Node42&#45;&gt;Node8 -->
<g id="edge77" class="edge">
<title>Node42&#45;&gt;Node8</title>
<path fill="none" stroke="midnightblue" d="M933.55,-224.44C963.58,-215.28 1011.41,-200.69 1044.74,-190.52"/>
<polygon fill="midnightblue" stroke="midnightblue" points="1046.04,-193.78 1054.59,-187.52 1044,-187.09 1046.04,-193.78"/>
</g>
<!-- Node43&#45;&gt;Node9 -->
<g id="edge81" class="edge">
<title>Node43&#45;&gt;Node9</title>
<path fill="none" stroke="midnightblue" d="M837.98,-341.93C964.99,-321.61 1273,-270.25 1312.5,-244 1347.68,-220.61 1361.65,-169.36 1366.78,-141.65"/>
<polygon fill="midnightblue" stroke="midnightblue" points="1370.25,-142.12 1368.43,-131.68 1363.35,-140.97 1370.25,-142.12"/>
</g>
<!-- Node43&#45;&gt;Node41 -->
<g id="edge80" class="edge">
<title>Node43&#45;&gt;Node41</title>
<path fill="none" stroke="midnightblue" d="M783.07,-341.98C782.65,-333.58 781.99,-320.48 781.44,-309.66"/>
<polygon fill="midnightblue" stroke="midnightblue" points="784.93,-309.32 780.93,-299.51 777.94,-309.67 784.93,-309.32"/>
</g>
<!-- Node44&#45;&gt;Node42 -->
<g id="edge83" class="edge">
<title>Node44&#45;&gt;Node42</title>
<path fill="none" stroke="midnightblue" d="M905.5,-280.08C905.5,-273.01 905.5,-262.86 905.5,-253.99"/>
<polygon fill="midnightblue" stroke="midnightblue" points="909,-253.75 905.5,-243.75 902,-253.75 909,-253.75"/>
</g>
<!-- Node45&#45;&gt;Node24 -->
<g id="edge90" class="edge">
<title>Node45&#45;&gt;Node24</title>
<path fill="none" stroke="midnightblue" d="M128.47,-515.26C131.42,-488.65 140.33,-408.21 144.41,-371.34"/>
<polygon fill="midnightblue" stroke="midnightblue" points="147.93,-371.34 145.56,-361.02 140.98,-370.57 147.93,-371.34"/>
</g>
</g>
</svg>
