<?xml version="1.0" encoding="UTF-8" standalone="no"?>
<!DOCTYPE svg PUBLIC "-//W3C//DTD SVG 1.1//EN"
 "http://www.w3.org/Graphics/SVG/1.1/DTD/svg11.dtd">
<!-- Generated by graphviz version 2.47.1 (20210421.1823)
 -->
<!-- Title: include/GameLogic/Units/Unit.h Pages: 1 -->
<svg width="1501pt" height="722pt"
 viewBox="0.00 0.00 1500.50 722.00" xmlns="http://www.w3.org/2000/svg" xmlns:xlink="http://www.w3.org/1999/xlink">
<g id="graph0" class="graph" transform="scale(1 1) rotate(0) translate(4 718)">
<title>include/GameLogic/Units/Unit.h</title>
<polygon fill="white" stroke="transparent" points="-4,4 -4,-718 1496.5,-718 1496.5,4 -4,4"/>
<!-- Node1 -->
<g id="node1" class="node">
<title>Node1</title>
<g id="a_node1"><a xlink:title=" ">
<polygon fill="#bfbfbf" stroke="black" points="1169.5,-683.5 1169.5,-713.5 1296.5,-713.5 1296.5,-683.5 1169.5,-683.5"/>
<text text-anchor="start" x="1177.5" y="-701.5" font-family="Helvetica,sans-Serif" font-size="10.00">include/GameLogic/Units</text>
<text text-anchor="middle" x="1233" y="-690.5" font-family="Helvetica,sans-Serif" font-size="10.00">/Unit.h</text>
</a>
</g>
</g>
<!-- Node2 -->
<g id="node2" class="node">
<title>Node2</title>
<g id="a_node2"><a xlink:title=" ">
<polygon fill="white" stroke="#bfbfbf" points="520.5,-627.5 520.5,-646.5 563.5,-646.5 563.5,-627.5 520.5,-627.5"/>
<text text-anchor="middle" x="542" y="-634.5" font-family="Helvetica,sans-Serif" font-size="10.00">cstdio</text>
</a>
</g>
</g>
<!-- Node1&#45;&gt;Node2 -->
<g id="edge1" class="edge">
<title>Node1&#45;&gt;Node2</title>
<path fill="none" stroke="midnightblue" d="M1169.19,-696.97C1052.48,-695.06 796.88,-686.49 573.49,-646.67"/>
<polygon fill="midnightblue" stroke="midnightblue" points="574.01,-643.21 563.54,-644.87 572.76,-650.09 574.01,-643.21"/>
</g>
<!-- Node3 -->
<g id="node3" class="node">
<title>Node3</title>
<g id="a_node3"><a xlink:href="_unit_order_8h.html" target="_top" xlink:title=" ">
<polygon fill="white" stroke="black" points="1319,-627.5 1319,-646.5 1385,-646.5 1385,-627.5 1319,-627.5"/>
<text text-anchor="middle" x="1352" y="-634.5" font-family="Helvetica,sans-Serif" font-size="10.00">UnitOrder.h</text>
</a>
</g>
</g>
<!-- Node1&#45;&gt;Node3 -->
<g id="edge2" class="edge">
<title>Node1&#45;&gt;Node3</title>
<path fill="none" stroke="midnightblue" d="M1255.36,-683.4C1273.8,-673.55 1299.95,-660.5 1320.48,-650.92"/>
<polygon fill="midnightblue" stroke="midnightblue" points="1322.13,-654.01 1329.76,-646.66 1319.21,-647.65 1322.13,-654.01"/>
</g>
<!-- Node5 -->
<g id="node5" class="node">
<title>Node5</title>
<g id="a_node5"><a xlink:href="_squad_8h.html" target="_top" xlink:title=" ">
<polygon fill="white" stroke="black" points="582,-627.5 582,-646.5 718,-646.5 718,-627.5 582,-627.5"/>
<text text-anchor="middle" x="650" y="-634.5" font-family="Helvetica,sans-Serif" font-size="10.00">GameLogic/Squad/Squad.h</text>
</a>
</g>
</g>
<!-- Node1&#45;&gt;Node5 -->
<g id="edge5" class="edge">
<title>Node1&#45;&gt;Node5</title>
<path fill="none" stroke="midnightblue" d="M1169.34,-691.44C1061.88,-680.79 845.08,-658.68 728.43,-646.5"/>
<polygon fill="midnightblue" stroke="midnightblue" points="728.46,-642.99 718.15,-645.43 727.73,-649.95 728.46,-642.99"/>
</g>
<!-- Node22 -->
<g id="node22" class="node">
<title>Node22</title>
<g id="a_node22"><a xlink:href="_all_flags_8h.html" target="_top" xlink:title=" ">
<polygon fill="white" stroke="black" points="1041.5,-454 1041.5,-473 1100.5,-473 1100.5,-454 1041.5,-454"/>
<text text-anchor="middle" x="1071" y="-461" font-family="Helvetica,sans-Serif" font-size="10.00">AllFlags.h</text>
</a>
</g>
</g>
<!-- Node1&#45;&gt;Node22 -->
<g id="edge76" class="edge">
<title>Node1&#45;&gt;Node22</title>
<path fill="none" stroke="midnightblue" d="M1223.11,-683.28C1194.82,-642.59 1113.64,-525.83 1082.95,-481.69"/>
<polygon fill="midnightblue" stroke="midnightblue" points="1085.63,-479.41 1077.05,-473.2 1079.88,-483.41 1085.63,-479.41"/>
</g>
<!-- Node40 -->
<g id="node40" class="node">
<title>Node40</title>
<g id="a_node40"><a xlink:href="_textures_8h.html" target="_top" xlink:title=" ">
<polygon fill="white" stroke="black" points="1371.5,-280.5 1371.5,-299.5 1472.5,-299.5 1472.5,-280.5 1371.5,-280.5"/>
<text text-anchor="middle" x="1422" y="-287.5" font-family="Helvetica,sans-Serif" font-size="10.00">graphics/Textures.h</text>
</a>
</g>
</g>
<!-- Node1&#45;&gt;Node40 -->
<g id="edge77" class="edge">
<title>Node1&#45;&gt;Node40</title>
<path fill="none" stroke="midnightblue" d="M1296.56,-691.32C1329.44,-685.04 1368.03,-672.4 1394,-647 1415.81,-625.68 1416,-612.5 1416,-582 1416,-582 1416,-582 1416,-401 1416,-368.9 1418.58,-331.61 1420.36,-309.73"/>
<polygon fill="midnightblue" stroke="midnightblue" points="1423.86,-309.81 1421.22,-299.55 1416.89,-309.22 1423.86,-309.81"/>
</g>
<!-- Node3&#45;&gt;Node1 -->
<g id="edge4" class="edge">
<title>Node3&#45;&gt;Node1</title>
<path fill="none" stroke="midnightblue" d="M1339.61,-646.66C1324.51,-655.12 1298.65,-668.28 1276.13,-679.08"/>
<polygon fill="midnightblue" stroke="midnightblue" points="1274.57,-675.95 1267.04,-683.4 1277.58,-682.27 1274.57,-675.95"/>
</g>
<!-- Node4 -->
<g id="node4" class="node">
<title>Node4</title>
<g id="a_node4"><a xlink:title=" ">
<polygon fill="white" stroke="#bfbfbf" points="1192.5,-280.5 1192.5,-299.5 1233.5,-299.5 1233.5,-280.5 1192.5,-280.5"/>
<text text-anchor="middle" x="1213" y="-287.5" font-family="Helvetica,sans-Serif" font-size="10.00">string</text>
</a>
</g>
</g>
<!-- Node3&#45;&gt;Node4 -->
<g id="edge3" class="edge">
<title>Node3&#45;&gt;Node4</title>
<path fill="none" stroke="midnightblue" d="M1353.96,-627.5C1358.03,-609.09 1367,-564.16 1367,-526 1367,-526 1367,-526 1367,-462.5 1367,-386.82 1282.95,-329.36 1239.04,-304.5"/>
<polygon fill="midnightblue" stroke="midnightblue" points="1240.52,-301.32 1230.07,-299.56 1237.14,-307.45 1240.52,-301.32"/>
</g>
<!-- Node5&#45;&gt;Node1 -->
<g id="edge69" class="edge">
<title>Node5&#45;&gt;Node1</title>
<path fill="none" stroke="midnightblue" d="M718.37,-644.53C828.82,-655.49 1045.39,-677.59 1159.21,-689.48"/>
<polygon fill="midnightblue" stroke="midnightblue" points="1158.92,-692.97 1169.23,-690.53 1159.65,-686.01 1158.92,-692.97"/>
</g>
<!-- Node6 -->
<g id="node6" class="node">
<title>Node6</title>
<g id="a_node6"><a xlink:href="_cell_8h.html" target="_top" xlink:title=" ">
<polygon fill="white" stroke="black" points="550,-515.5 550,-534.5 644,-534.5 644,-515.5 550,-515.5"/>
<text text-anchor="middle" x="597" y="-522.5" font-family="Helvetica,sans-Serif" font-size="10.00">GameLogic/Cell.h</text>
</a>
</g>
</g>
<!-- Node5&#45;&gt;Node6 -->
<g id="edge6" class="edge">
<title>Node5&#45;&gt;Node6</title>
<path fill="none" stroke="midnightblue" d="M640.77,-627.46C632.64,-614.92 622.76,-590.85 613,-571 608.56,-561.98 603.2,-552.19 599.34,-544.06"/>
<polygon fill="midnightblue" stroke="midnightblue" points="602.56,-542.68 595.45,-534.82 596.11,-545.4 602.56,-542.68"/>
</g>
<!-- Node7 -->
<g id="node7" class="node">
<title>Node7</title>
<g id="a_node7"><a xlink:href="gameplay_clickable_game_object_8h.html" target="_top" xlink:title=" ">
<polygon fill="white" stroke="black" points="199.5,-448.5 199.5,-478.5 328.5,-478.5 328.5,-448.5 199.5,-448.5"/>
<text text-anchor="start" x="207.5" y="-466.5" font-family="Helvetica,sans-Serif" font-size="10.00">engine/gameplayClickable</text>
<text text-anchor="middle" x="264" y="-455.5" font-family="Helvetica,sans-Serif" font-size="10.00">GameObject.h</text>
</a>
</g>
</g>
<!-- Node5&#45;&gt;Node7 -->
<g id="edge70" class="edge">
<title>Node5&#45;&gt;Node7</title>
<path fill="none" stroke="midnightblue" d="M597.23,-627.48C560.13,-620.41 509.84,-608.63 468,-591 399.91,-562.32 328.29,-512.69 290.69,-484.89"/>
<polygon fill="midnightblue" stroke="midnightblue" points="292.43,-481.82 282.32,-478.64 288.24,-487.43 292.43,-481.82"/>
</g>
<!-- Node10 -->
<g id="node10" class="node">
<title>Node10</title>
<g id="a_node10"><a xlink:href="config_8h.html" target="_top" xlink:title=" ">
<polygon fill="white" stroke="black" points="1228.5,-112.5 1228.5,-131.5 1309.5,-131.5 1309.5,-112.5 1228.5,-112.5"/>
<text text-anchor="middle" x="1269" y="-119.5" font-family="Helvetica,sans-Serif" font-size="10.00">engine/config.h</text>
</a>
</g>
</g>
<!-- Node5&#45;&gt;Node10 -->
<g id="edge74" class="edge">
<title>Node5&#45;&gt;Node10</title>
<path fill="none" stroke="midnightblue" d="M718.21,-632.05C890.4,-621.17 1329,-587.43 1329,-526 1329,-526 1329,-526 1329,-462.5 1329,-330.02 1312.98,-297.04 1283,-168 1280.91,-159.02 1277.95,-149.23 1275.29,-141.08"/>
<polygon fill="midnightblue" stroke="midnightblue" points="1278.58,-139.88 1272.06,-131.52 1271.95,-142.12 1278.58,-139.88"/>
</g>
<!-- Node13 -->
<g id="node13" class="node">
<title>Node13</title>
<g id="a_node13"><a xlink:href="_facade_8h.html" target="_top" xlink:title=" ">
<polygon fill="white" stroke="black" points="206,-0.5 206,-19.5 262,-19.5 262,-0.5 206,-0.5"/>
<text text-anchor="middle" x="234" y="-7.5" font-family="Helvetica,sans-Serif" font-size="10.00">Facade.h</text>
</a>
</g>
</g>
<!-- Node5&#45;&gt;Node13 -->
<g id="edge75" class="edge">
<title>Node5&#45;&gt;Node13</title>
<path fill="none" stroke="midnightblue" d="M581.97,-628.02C415.29,-608.03 0,-555.27 0,-526 0,-526 0,-526 0,-121 0,-35.57 129.33,-16.36 195.69,-12.14"/>
<polygon fill="midnightblue" stroke="midnightblue" points="195.98,-15.63 205.77,-11.58 195.6,-8.64 195.98,-15.63"/>
</g>
<!-- Node39 -->
<g id="node39" class="node">
<title>Node39</title>
<g id="a_node39"><a xlink:href="_game_logic_2_squad_2_action_8h.html" target="_top" xlink:title=" ">
<polygon fill="white" stroke="black" points="477,-571.5 477,-590.5 613,-590.5 613,-571.5 477,-571.5"/>
<text text-anchor="middle" x="545" y="-578.5" font-family="Helvetica,sans-Serif" font-size="10.00">GameLogic/Squad/Action.h</text>
</a>
</g>
</g>
<!-- Node5&#45;&gt;Node39 -->
<g id="edge71" class="edge">
<title>Node5&#45;&gt;Node39</title>
<path fill="none" stroke="midnightblue" d="M628.27,-627.44C609.81,-618.91 583.78,-605.67 565.65,-595.68"/>
<polygon fill="midnightblue" stroke="midnightblue" points="566.91,-592.38 556.48,-590.52 563.47,-598.48 566.91,-592.38"/>
</g>
<!-- Node6&#45;&gt;Node5 -->
<g id="edge29" class="edge">
<title>Node6&#45;&gt;Node5</title>
<path fill="none" stroke="midnightblue" d="M609.05,-534.82C616.5,-543.8 624.69,-558.17 631,-571 638.55,-586.35 646.17,-604.23 650.1,-617.35"/>
<polygon fill="midnightblue" stroke="midnightblue" points="646.79,-618.55 652.51,-627.46 653.6,-616.92 646.79,-618.55"/>
</g>
<!-- Node6&#45;&gt;Node7 -->
<g id="edge7" class="edge">
<title>Node6&#45;&gt;Node7</title>
<path fill="none" stroke="midnightblue" d="M549.7,-515.71C498.68,-506.75 415.06,-492 343,-479 341.54,-478.74 340.07,-478.47 338.58,-478.2"/>
<polygon fill="midnightblue" stroke="midnightblue" points="339.13,-474.74 328.66,-476.4 337.88,-481.63 339.13,-474.74"/>
</g>
<!-- Node6&#45;&gt;Node10 -->
<g id="edge27" class="edge">
<title>Node6&#45;&gt;Node10</title>
<path fill="none" stroke="midnightblue" d="M644.24,-522.67C773.32,-518.71 1125.29,-505.57 1170,-479 1251.18,-430.75 1269,-385.43 1269,-291 1269,-291 1269,-291 1269,-233 1269,-200.95 1269,-163.64 1269,-141.75"/>
<polygon fill="midnightblue" stroke="midnightblue" points="1272.5,-141.56 1269,-131.56 1265.5,-141.56 1272.5,-141.56"/>
</g>
<!-- Node6&#45;&gt;Node13 -->
<g id="edge28" class="edge">
<title>Node6&#45;&gt;Node13</title>
<path fill="none" stroke="midnightblue" d="M549.92,-516.44C451.7,-497.72 234,-439.46 234,-291 234,-291 234,-291 234,-121 234,-88.95 234,-51.64 234,-29.75"/>
<polygon fill="midnightblue" stroke="midnightblue" points="237.5,-29.56 234,-19.56 230.5,-29.56 237.5,-29.56"/>
</g>
<!-- Node16 -->
<g id="node16" class="node">
<title>Node16</title>
<g id="a_node16"><a xlink:title=" ">
<polygon fill="white" stroke="#bfbfbf" points="316,-56.5 316,-75.5 370,-75.5 370,-56.5 316,-56.5"/>
<text text-anchor="middle" x="343" y="-63.5" font-family="Helvetica,sans-Serif" font-size="10.00">iostream</text>
</a>
</g>
</g>
<!-- Node6&#45;&gt;Node16 -->
<g id="edge31" class="edge">
<title>Node6&#45;&gt;Node16</title>
<path fill="none" stroke="midnightblue" d="M563.72,-515.5C539.8,-508.33 507.56,-496.42 483,-479 366.06,-396.06 272,-378.37 272,-235 272,-235 272,-235 272,-177 272,-138.1 303.73,-102.05 324.77,-82.43"/>
<polygon fill="midnightblue" stroke="midnightblue" points="327.11,-85.02 332.22,-75.74 322.44,-79.81 327.11,-85.02"/>
</g>
<!-- Node18 -->
<g id="node18" class="node">
<title>Node18</title>
<g id="a_node18"><a xlink:href="cellgen_8h.html" target="_top" xlink:title=" ">
<polygon fill="white" stroke="black" points="642.5,-392.5 642.5,-411.5 713.5,-411.5 713.5,-392.5 642.5,-392.5"/>
<text text-anchor="middle" x="678" y="-399.5" font-family="Helvetica,sans-Serif" font-size="10.00">util/cellgen.h</text>
</a>
</g>
</g>
<!-- Node6&#45;&gt;Node18 -->
<g id="edge18" class="edge">
<title>Node6&#45;&gt;Node18</title>
<path fill="none" stroke="midnightblue" d="M600.43,-515.09C606.31,-500.39 619.21,-470.44 635,-448 642.45,-437.42 652.33,-426.89 660.75,-418.68"/>
<polygon fill="midnightblue" stroke="midnightblue" points="663.38,-421.01 668.24,-411.6 658.57,-415.93 663.38,-421.01"/>
</g>
<!-- Node20 -->
<g id="node20" class="node">
<title>Node20</title>
<g id="a_node20"><a xlink:title=" ">
<polygon fill="white" stroke="#bfbfbf" points="560.5,-336.5 560.5,-355.5 595.5,-355.5 595.5,-336.5 560.5,-336.5"/>
<text text-anchor="middle" x="578" y="-343.5" font-family="Helvetica,sans-Serif" font-size="10.00">map</text>
</a>
</g>
</g>
<!-- Node6&#45;&gt;Node20 -->
<g id="edge30" class="edge">
<title>Node6&#45;&gt;Node20</title>
<path fill="none" stroke="midnightblue" d="M596.08,-515.46C593.18,-488.43 584.14,-404.24 580.05,-366.11"/>
<polygon fill="midnightblue" stroke="midnightblue" points="583.5,-365.44 578.95,-355.87 576.54,-366.18 583.5,-365.44"/>
</g>
<!-- Node6&#45;&gt;Node22 -->
<g id="edge22" class="edge">
<title>Node6&#45;&gt;Node22</title>
<path fill="none" stroke="midnightblue" d="M644.24,-519.41C717.7,-512.08 863.71,-496.74 987,-479 1001.36,-476.93 1017.03,-474.32 1030.92,-471.89"/>
<polygon fill="midnightblue" stroke="midnightblue" points="1031.9,-475.27 1041.13,-470.08 1030.67,-468.38 1031.9,-475.27"/>
</g>
<!-- Node24 -->
<g id="node24" class="node">
<title>Node24</title>
<g id="a_node24"><a xlink:href="geometry_8h.html" target="_top" xlink:title=" ">
<polygon fill="white" stroke="black" points="644,-454 644,-473 724,-473 724,-454 644,-454"/>
<text text-anchor="middle" x="684" y="-461" font-family="Helvetica,sans-Serif" font-size="10.00">util/geometry.h</text>
</a>
</g>
</g>
<!-- Node6&#45;&gt;Node24 -->
<g id="edge32" class="edge">
<title>Node6&#45;&gt;Node24</title>
<path fill="none" stroke="midnightblue" d="M609.46,-515.48C623.42,-505.93 646.26,-490.31 662.99,-478.87"/>
<polygon fill="midnightblue" stroke="midnightblue" points="665.28,-481.54 671.56,-473.01 661.33,-475.77 665.28,-481.54"/>
</g>
<!-- Node25 -->
<g id="node25" class="node">
<title>Node25</title>
<g id="a_node25"><a xlink:href="_none_8h.html" target="_top" xlink:title=" ">
<polygon fill="white" stroke="black" points="376.5,-224.5 376.5,-243.5 489.5,-243.5 489.5,-224.5 376.5,-224.5"/>
<text text-anchor="middle" x="433" y="-231.5" font-family="Helvetica,sans-Serif" font-size="10.00">engine/actions/None.h</text>
</a>
</g>
</g>
<!-- Node6&#45;&gt;Node25 -->
<g id="edge35" class="edge">
<title>Node6&#45;&gt;Node25</title>
<path fill="none" stroke="midnightblue" d="M581.14,-515.42C543.72,-494.19 450.19,-435.12 412,-356 397.3,-325.54 399.52,-312.74 408,-280 410.55,-270.18 415.75,-260.21 420.76,-252.17"/>
<polygon fill="midnightblue" stroke="midnightblue" points="423.75,-253.99 426.37,-243.73 417.92,-250.11 423.75,-253.99"/>
</g>
<!-- Node26 -->
<g id="node26" class="node">
<title>Node26</title>
<g id="a_node26"><a xlink:href="game_controller_8h.html" target="_top" xlink:title=" ">
<polygon fill="white" stroke="black" points="421.5,-336.5 421.5,-355.5 542.5,-355.5 542.5,-336.5 421.5,-336.5"/>
<text text-anchor="middle" x="482" y="-343.5" font-family="Helvetica,sans-Serif" font-size="10.00">engine/gameController.h</text>
</a>
</g>
</g>
<!-- Node6&#45;&gt;Node26 -->
<g id="edge37" class="edge">
<title>Node6&#45;&gt;Node26</title>
<path fill="none" stroke="midnightblue" d="M591.45,-515.46C573.66,-488.08 517.77,-402.05 493.47,-364.65"/>
<polygon fill="midnightblue" stroke="midnightblue" points="496.15,-362.35 487.76,-355.87 490.28,-366.16 496.15,-362.35"/>
</g>
<!-- Node30 -->
<g id="node30" class="node">
<title>Node30</title>
<g id="a_node30"><a xlink:href="_set_squad_path_8h.html" target="_top" xlink:title=" ">
<polygon fill="white" stroke="black" points="28.5,-454 28.5,-473 181.5,-473 181.5,-454 28.5,-454"/>
<text text-anchor="middle" x="105" y="-461" font-family="Helvetica,sans-Serif" font-size="10.00">engine/actions/SetSquadPath.h</text>
</a>
</g>
</g>
<!-- Node6&#45;&gt;Node30 -->
<g id="edge46" class="edge">
<title>Node6&#45;&gt;Node30</title>
<path fill="none" stroke="midnightblue" d="M549.92,-520.21C472.48,-513.31 314.05,-497.69 181,-479 172.06,-477.74 162.62,-476.28 153.52,-474.76"/>
<polygon fill="midnightblue" stroke="midnightblue" points="153.88,-471.28 143.44,-473.05 152.71,-478.18 153.88,-471.28"/>
</g>
<!-- Node31 -->
<g id="node31" class="node">
<title>Node31</title>
<g id="a_node31"><a xlink:href="_all_units_8h.html" target="_top" xlink:title=" ">
<polygon fill="white" stroke="black" points="1127.5,-392.5 1127.5,-411.5 1186.5,-411.5 1186.5,-392.5 1127.5,-392.5"/>
<text text-anchor="middle" x="1157" y="-399.5" font-family="Helvetica,sans-Serif" font-size="10.00">AllUnits.h</text>
</a>
</g>
</g>
<!-- Node6&#45;&gt;Node31 -->
<g id="edge50" class="edge">
<title>Node6&#45;&gt;Node31</title>
<path fill="none" stroke="midnightblue" d="M644.01,-522.27C763.26,-517.54 1070.85,-503.12 1110,-479 1131.2,-465.94 1144.29,-439.38 1151.11,-421.39"/>
<polygon fill="midnightblue" stroke="midnightblue" points="1154.41,-422.54 1154.41,-411.95 1147.8,-420.23 1154.41,-422.54"/>
</g>
<!-- Node33 -->
<g id="node33" class="node">
<title>Node33</title>
<g id="a_node33"><a xlink:href="_all_squad_templates_8h.html" target="_top" xlink:title=" ">
<polygon fill="white" stroke="black" points="868.5,-454 868.5,-473 977.5,-473 977.5,-454 868.5,-454"/>
<text text-anchor="middle" x="923" y="-461" font-family="Helvetica,sans-Serif" font-size="10.00">AllSquadTemplates.h</text>
</a>
</g>
</g>
<!-- Node6&#45;&gt;Node33 -->
<g id="edge55" class="edge">
<title>Node6&#45;&gt;Node33</title>
<path fill="none" stroke="midnightblue" d="M643.71,-515.48C702.41,-504.76 803.11,-486.38 866.2,-474.87"/>
<polygon fill="midnightblue" stroke="midnightblue" points="867.17,-478.25 876.38,-473.01 865.91,-471.36 867.17,-478.25"/>
</g>
<!-- Node8 -->
<g id="node8" class="node">
<title>Node8</title>
<g id="a_node8"><a xlink:href="game_object_8h.html" target="_top" xlink:title=" ">
<polygon fill="white" stroke="black" points="578.5,-168.5 578.5,-187.5 655.5,-187.5 655.5,-168.5 578.5,-168.5"/>
<text text-anchor="middle" x="617" y="-175.5" font-family="Helvetica,sans-Serif" font-size="10.00">gameObject.h</text>
</a>
</g>
</g>
<!-- Node7&#45;&gt;Node8 -->
<g id="edge8" class="edge">
<title>Node7&#45;&gt;Node8</title>
<path fill="none" stroke="midnightblue" d="M283.48,-448.5C308.3,-428.87 348,-390.64 348,-347 348,-347 348,-347 348,-289 348,-258.9 344.62,-244.12 367,-224 395.97,-197.96 504.01,-186.43 568.2,-181.78"/>
<polygon fill="midnightblue" stroke="midnightblue" points="568.75,-185.25 578.49,-181.07 568.27,-178.27 568.75,-185.25"/>
</g>
<!-- Node9 -->
<g id="node9" class="node">
<title>Node9</title>
<g id="a_node9"><a xlink:title=" ">
<polygon fill="white" stroke="#bfbfbf" points="669.5,-112.5 669.5,-131.5 698.5,-131.5 698.5,-112.5 669.5,-112.5"/>
<text text-anchor="middle" x="684" y="-119.5" font-family="Helvetica,sans-Serif" font-size="10.00">list</text>
</a>
</g>
</g>
<!-- Node8&#45;&gt;Node9 -->
<g id="edge9" class="edge">
<title>Node8&#45;&gt;Node9</title>
<path fill="none" stroke="midnightblue" d="M627.76,-168.32C637.77,-160.26 652.89,-148.08 664.93,-138.37"/>
<polygon fill="midnightblue" stroke="midnightblue" points="667.45,-140.83 673.04,-131.83 663.06,-135.38 667.45,-140.83"/>
</g>
<!-- Node8&#45;&gt;Node10 -->
<g id="edge10" class="edge">
<title>Node8&#45;&gt;Node10</title>
<path fill="none" stroke="midnightblue" d="M655.83,-173.78C767.96,-164.5 1092.23,-137.64 1218.15,-127.21"/>
<polygon fill="midnightblue" stroke="midnightblue" points="1218.62,-130.68 1228.3,-126.37 1218.04,-123.71 1218.62,-130.68"/>
</g>
<!-- Node15 -->
<g id="node15" class="node">
<title>Node15</title>
<g id="a_node15"><a xlink:href="engine_2_action_8h.html" target="_top" xlink:title=" ">
<polygon fill="white" stroke="black" points="391.5,-112.5 391.5,-131.5 474.5,-131.5 474.5,-112.5 391.5,-112.5"/>
<text text-anchor="middle" x="433" y="-119.5" font-family="Helvetica,sans-Serif" font-size="10.00">engine/Action.h</text>
</a>
</g>
</g>
<!-- Node8&#45;&gt;Node15 -->
<g id="edge15" class="edge">
<title>Node8&#45;&gt;Node15</title>
<path fill="none" stroke="midnightblue" d="M587.84,-168.44C556.49,-159.24 506.47,-144.56 471.8,-134.39"/>
<polygon fill="midnightblue" stroke="midnightblue" points="472.6,-130.97 462.02,-131.52 470.63,-137.69 472.6,-130.97"/>
</g>
<!-- Node11 -->
<g id="node11" class="node">
<title>Node11</title>
<g id="a_node11"><a xlink:href="_s_f_m_l_facade_8h.html" target="_top" xlink:title=" ">
<polygon fill="white" stroke="black" points="794.5,-56.5 794.5,-75.5 917.5,-75.5 917.5,-56.5 794.5,-56.5"/>
<text text-anchor="middle" x="856" y="-63.5" font-family="Helvetica,sans-Serif" font-size="10.00">graphics/SFMLFacade.h</text>
</a>
</g>
</g>
<!-- Node10&#45;&gt;Node11 -->
<g id="edge11" class="edge">
<title>Node10&#45;&gt;Node11</title>
<path fill="none" stroke="midnightblue" d="M1228.27,-115.67C1158.39,-106.54 1014.78,-87.76 927.78,-76.39"/>
<polygon fill="midnightblue" stroke="midnightblue" points="928.09,-72.9 917.72,-75.07 927.18,-79.84 928.09,-72.9"/>
</g>
<!-- Node14 -->
<g id="node14" class="node">
<title>Node14</title>
<g id="a_node14"><a xlink:title=" ">
<polygon fill="white" stroke="#bfbfbf" points="1220,-56.5 1220,-75.5 1318,-75.5 1318,-56.5 1220,-56.5"/>
<text text-anchor="middle" x="1269" y="-63.5" font-family="Helvetica,sans-Serif" font-size="10.00">nlohmann/json.hpp</text>
</a>
</g>
</g>
<!-- Node10&#45;&gt;Node14 -->
<g id="edge14" class="edge">
<title>Node10&#45;&gt;Node14</title>
<path fill="none" stroke="midnightblue" d="M1269,-112.08C1269,-105.01 1269,-94.86 1269,-85.99"/>
<polygon fill="midnightblue" stroke="midnightblue" points="1272.5,-85.75 1269,-75.75 1265.5,-85.75 1272.5,-85.75"/>
</g>
<!-- Node12 -->
<g id="node12" class="node">
<title>Node12</title>
<g id="a_node12"><a xlink:title=" ">
<polygon fill="white" stroke="#bfbfbf" points="804,-0.5 804,-19.5 908,-19.5 908,-0.5 804,-0.5"/>
<text text-anchor="middle" x="856" y="-7.5" font-family="Helvetica,sans-Serif" font-size="10.00">SFML/Graphics.hpp</text>
</a>
</g>
</g>
<!-- Node11&#45;&gt;Node12 -->
<g id="edge12" class="edge">
<title>Node11&#45;&gt;Node12</title>
<path fill="none" stroke="midnightblue" d="M856,-56.08C856,-49.01 856,-38.86 856,-29.99"/>
<polygon fill="midnightblue" stroke="midnightblue" points="859.5,-29.75 856,-19.75 852.5,-29.75 859.5,-29.75"/>
</g>
<!-- Node11&#45;&gt;Node13 -->
<g id="edge13" class="edge">
<title>Node11&#45;&gt;Node13</title>
<path fill="none" stroke="midnightblue" d="M794.37,-59.65C666.65,-48.56 376.28,-23.35 272.09,-14.31"/>
<polygon fill="midnightblue" stroke="midnightblue" points="272.3,-10.81 262.03,-13.43 271.69,-17.79 272.3,-10.81"/>
</g>
<!-- Node15&#45;&gt;Node16 -->
<g id="edge16" class="edge">
<title>Node15&#45;&gt;Node16</title>
<path fill="none" stroke="midnightblue" d="M418.54,-112.32C404.5,-103.9 382.95,-90.97 366.46,-81.07"/>
<polygon fill="midnightblue" stroke="midnightblue" points="367.8,-77.8 357.42,-75.65 364.2,-83.8 367.8,-77.8"/>
</g>
<!-- Node17 -->
<g id="node17" class="node">
<title>Node17</title>
<g id="a_node17"><a xlink:title=" ">
<polygon fill="white" stroke="#bfbfbf" points="442.5,-56.5 442.5,-75.5 493.5,-75.5 493.5,-56.5 442.5,-56.5"/>
<text text-anchor="middle" x="468" y="-63.5" font-family="Helvetica,sans-Serif" font-size="10.00">memory</text>
</a>
</g>
</g>
<!-- Node15&#45;&gt;Node17 -->
<g id="edge17" class="edge">
<title>Node15&#45;&gt;Node17</title>
<path fill="none" stroke="midnightblue" d="M438.78,-112.08C443.67,-104.53 450.83,-93.49 456.83,-84.23"/>
<polygon fill="midnightblue" stroke="midnightblue" points="459.83,-86.05 462.33,-75.75 453.95,-82.24 459.83,-86.05"/>
</g>
<!-- Node19 -->
<g id="node19" class="node">
<title>Node19</title>
<g id="a_node19"><a xlink:title=" ">
<polygon fill="white" stroke="#bfbfbf" points="941,-224.5 941,-243.5 985,-243.5 985,-224.5 941,-224.5"/>
<text text-anchor="middle" x="963" y="-231.5" font-family="Helvetica,sans-Serif" font-size="10.00">vector</text>
</a>
</g>
</g>
<!-- Node18&#45;&gt;Node19 -->
<g id="edge19" class="edge">
<title>Node18&#45;&gt;Node19</title>
<path fill="none" stroke="midnightblue" d="M704.21,-392.41C720.85,-385.44 741.06,-373.81 751,-356 767.7,-326.08 716.27,-306.5 738,-280 750.18,-265.14 871.78,-247.12 930.96,-239.14"/>
<polygon fill="midnightblue" stroke="midnightblue" points="931.46,-242.61 940.91,-237.82 930.54,-235.67 931.46,-242.61"/>
</g>
<!-- Node18&#45;&gt;Node20 -->
<g id="edge20" class="edge">
<title>Node18&#45;&gt;Node20</title>
<path fill="none" stroke="midnightblue" d="M661.93,-392.32C646.04,-383.74 621.49,-370.49 603.04,-360.52"/>
<polygon fill="midnightblue" stroke="midnightblue" points="604.49,-357.33 594.03,-355.65 601.16,-363.49 604.49,-357.33"/>
</g>
<!-- Node21 -->
<g id="node21" class="node">
<title>Node21</title>
<g id="a_node21"><a xlink:title=" ">
<polygon fill="white" stroke="#bfbfbf" points="614,-336.5 614,-355.5 742,-355.5 742,-336.5 614,-336.5"/>
<text text-anchor="middle" x="678" y="-343.5" font-family="Helvetica,sans-Serif" font-size="10.00">scanline_triangulation.hpp</text>
</a>
</g>
</g>
<!-- Node18&#45;&gt;Node21 -->
<g id="edge21" class="edge">
<title>Node18&#45;&gt;Node21</title>
<path fill="none" stroke="midnightblue" d="M678,-392.08C678,-385.01 678,-374.86 678,-365.99"/>
<polygon fill="midnightblue" stroke="midnightblue" points="681.5,-365.75 678,-355.75 674.5,-365.75 681.5,-365.75"/>
</g>
<!-- Node22&#45;&gt;Node17 -->
<g id="edge26" class="edge">
<title>Node22&#45;&gt;Node17</title>
<path fill="none" stroke="midnightblue" d="M1076.96,-453.99C1091.84,-432.62 1129.97,-376.9 1138,-356 1157.57,-305.05 1159,-289.58 1159,-235 1159,-235 1159,-235 1159,-177 1159,-110.03 646.33,-76.82 504.17,-68.9"/>
<polygon fill="midnightblue" stroke="midnightblue" points="504,-65.38 493.83,-68.33 503.62,-72.37 504,-65.38"/>
</g>
<!-- Node23 -->
<g id="node23" class="node">
<title>Node23</title>
<g id="a_node23"><a xlink:href="_flag_8h.html" target="_top" xlink:title=" ">
<polygon fill="white" stroke="black" points="1085.5,-336.5 1085.5,-355.5 1128.5,-355.5 1128.5,-336.5 1085.5,-336.5"/>
<text text-anchor="middle" x="1107" y="-343.5" font-family="Helvetica,sans-Serif" font-size="10.00">Flag.h</text>
</a>
</g>
</g>
<!-- Node22&#45;&gt;Node23 -->
<g id="edge23" class="edge">
<title>Node22&#45;&gt;Node23</title>
<path fill="none" stroke="midnightblue" d="M1072.01,-453.63C1073.73,-440.07 1077.74,-413.52 1085,-392 1088.16,-382.63 1092.86,-372.7 1097.1,-364.56"/>
<polygon fill="midnightblue" stroke="midnightblue" points="1100.23,-366.14 1101.92,-355.68 1094.07,-362.8 1100.23,-366.14"/>
</g>
<!-- Node23&#45;&gt;Node4 -->
<g id="edge25" class="edge">
<title>Node23&#45;&gt;Node4</title>
<path fill="none" stroke="midnightblue" d="M1124.03,-336.32C1141.03,-327.66 1167.38,-314.24 1186.99,-304.25"/>
<polygon fill="midnightblue" stroke="midnightblue" points="1188.69,-307.31 1196.01,-299.65 1185.51,-301.08 1188.69,-307.31"/>
</g>
<!-- Node23&#45;&gt;Node19 -->
<g id="edge24" class="edge">
<title>Node23&#45;&gt;Node19</title>
<path fill="none" stroke="midnightblue" d="M1102.48,-336.35C1095.03,-322.78 1078.96,-296.36 1059,-280 1040,-264.43 1014.72,-252.86 994.87,-245.36"/>
<polygon fill="midnightblue" stroke="midnightblue" points="995.93,-242.02 985.33,-241.9 993.54,-248.6 995.93,-242.02"/>
</g>
<!-- Node24&#45;&gt;Node18 -->
<g id="edge34" class="edge">
<title>Node24&#45;&gt;Node18</title>
<path fill="none" stroke="midnightblue" d="M683.14,-453.98C682.29,-445.58 680.97,-432.48 679.88,-421.66"/>
<polygon fill="midnightblue" stroke="midnightblue" points="683.34,-421.11 678.86,-411.51 676.38,-421.81 683.34,-421.11"/>
</g>
<!-- Node24&#45;&gt;Node19 -->
<g id="edge33" class="edge">
<title>Node24&#45;&gt;Node19</title>
<path fill="none" stroke="midnightblue" d="M693.67,-453.84C723.63,-427.12 817.84,-343.88 900,-280 913.66,-269.38 929.52,-258.06 941.9,-249.43"/>
<polygon fill="midnightblue" stroke="midnightblue" points="944,-252.24 950.23,-243.67 940.01,-246.48 944,-252.24"/>
</g>
<!-- Node25&#45;&gt;Node15 -->
<g id="edge36" class="edge">
<title>Node25&#45;&gt;Node15</title>
<path fill="none" stroke="midnightblue" d="M433,-224.37C433,-206.62 433,-165.67 433,-141.6"/>
<polygon fill="midnightblue" stroke="midnightblue" points="436.5,-141.59 433,-131.59 429.5,-141.59 436.5,-141.59"/>
</g>
<!-- Node26&#45;&gt;Node8 -->
<g id="edge39" class="edge">
<title>Node26&#45;&gt;Node8</title>
<path fill="none" stroke="midnightblue" d="M498.02,-336.42C532.72,-317.46 612.81,-271.45 626,-244 633.01,-229.42 629.47,-211.01 624.93,-197.51"/>
<polygon fill="midnightblue" stroke="midnightblue" points="628.1,-195.99 621.26,-187.9 621.56,-198.49 628.1,-195.99"/>
</g>
<!-- Node26&#45;&gt;Node9 -->
<g id="edge38" class="edge">
<title>Node26&#45;&gt;Node9</title>
<path fill="none" stroke="midnightblue" d="M542.74,-337.12C588.26,-329.91 645.3,-317.66 661,-300 700.76,-255.29 693.63,-177.32 687.72,-141.71"/>
<polygon fill="midnightblue" stroke="midnightblue" points="691.14,-140.94 685.9,-131.73 684.25,-142.19 691.14,-140.94"/>
</g>
<!-- Node27 -->
<g id="node27" class="node">
<title>Node27</title>
<g id="a_node27"><a xlink:href="_network_manager_8h.html" target="_top" xlink:title=" ">
<polygon fill="white" stroke="black" points="417,-280.5 417,-299.5 547,-299.5 547,-280.5 417,-280.5"/>
<text text-anchor="middle" x="482" y="-287.5" font-family="Helvetica,sans-Serif" font-size="10.00">engine/NetworkManager.h</text>
</a>
</g>
</g>
<!-- Node26&#45;&gt;Node27 -->
<g id="edge40" class="edge">
<title>Node26&#45;&gt;Node27</title>
<path fill="none" stroke="midnightblue" d="M482,-336.08C482,-329.01 482,-318.86 482,-309.99"/>
<polygon fill="midnightblue" stroke="midnightblue" points="485.5,-309.75 482,-299.75 478.5,-309.75 485.5,-309.75"/>
</g>
<!-- Node29 -->
<g id="node29" class="node">
<title>Node29</title>
<g id="a_node29"><a xlink:title=" ">
<polygon fill="white" stroke="#bfbfbf" points="603.5,-280.5 603.5,-299.5 652.5,-299.5 652.5,-280.5 603.5,-280.5"/>
<text text-anchor="middle" x="628" y="-287.5" font-family="Helvetica,sans-Serif" font-size="10.00">random</text>
</a>
</g>
</g>
<!-- Node26&#45;&gt;Node29 -->
<g id="edge45" class="edge">
<title>Node26&#45;&gt;Node29</title>
<path fill="none" stroke="midnightblue" d="M505.13,-336.44C529.48,-327.44 568.01,-313.19 595.42,-303.05"/>
<polygon fill="midnightblue" stroke="midnightblue" points="596.81,-306.27 604.97,-299.52 594.38,-299.7 596.81,-306.27"/>
</g>
<!-- Node27&#45;&gt;Node8 -->
<g id="edge41" class="edge">
<title>Node27&#45;&gt;Node8</title>
<path fill="none" stroke="midnightblue" d="M487.93,-280.14C497.21,-266.76 516.26,-241.14 537,-224 552.46,-211.22 572.06,-200.13 587.99,-192.16"/>
<polygon fill="midnightblue" stroke="midnightblue" points="589.9,-195.12 597.36,-187.61 586.84,-188.83 589.9,-195.12"/>
</g>
<!-- Node27&#45;&gt;Node19 -->
<g id="edge43" class="edge">
<title>Node27&#45;&gt;Node19</title>
<path fill="none" stroke="midnightblue" d="M547.12,-281.69C651.54,-269.97 852.62,-247.39 930.8,-238.61"/>
<polygon fill="midnightblue" stroke="midnightblue" points="931.45,-242.06 941,-237.47 930.67,-235.11 931.45,-242.06"/>
</g>
<!-- Node27&#45;&gt;Node25 -->
<g id="edge42" class="edge">
<title>Node27&#45;&gt;Node25</title>
<path fill="none" stroke="midnightblue" d="M473.91,-280.08C466.84,-272.3 456.41,-260.8 447.85,-251.37"/>
<polygon fill="midnightblue" stroke="midnightblue" points="450.25,-248.8 440.94,-243.75 445.07,-253.51 450.25,-248.8"/>
</g>
<!-- Node28 -->
<g id="node28" class="node">
<title>Node28</title>
<g id="a_node28"><a xlink:title=" ">
<polygon fill="white" stroke="#bfbfbf" points="546.5,-224.5 546.5,-243.5 617.5,-243.5 617.5,-224.5 546.5,-224.5"/>
<text text-anchor="middle" x="582" y="-231.5" font-family="Helvetica,sans-Serif" font-size="10.00">sys/socket.h</text>
</a>
</g>
</g>
<!-- Node27&#45;&gt;Node28 -->
<g id="edge44" class="edge">
<title>Node27&#45;&gt;Node28</title>
<path fill="none" stroke="midnightblue" d="M498.07,-280.32C513.96,-271.74 538.51,-258.49 556.96,-248.52"/>
<polygon fill="midnightblue" stroke="midnightblue" points="558.84,-251.49 565.97,-243.65 555.51,-245.33 558.84,-251.49"/>
</g>
<!-- Node30&#45;&gt;Node5 -->
<g id="edge48" class="edge">
<title>Node30&#45;&gt;Node5</title>
<path fill="none" stroke="midnightblue" d="M123.41,-473.1C171.91,-495.45 307.65,-556.09 426,-591 477.99,-606.34 538.31,-618.12 583.25,-625.78"/>
<polygon fill="midnightblue" stroke="midnightblue" points="582.73,-629.24 593.17,-627.44 583.89,-622.34 582.73,-629.24"/>
</g>
<!-- Node30&#45;&gt;Node6 -->
<g id="edge49" class="edge">
<title>Node30&#45;&gt;Node6</title>
<path fill="none" stroke="midnightblue" d="M160.82,-473.05C173.43,-475.14 186.7,-477.27 199,-479 320.11,-496.01 462.23,-510.48 539.71,-518.14"/>
<polygon fill="midnightblue" stroke="midnightblue" points="539.46,-521.63 549.75,-519.13 540.14,-514.67 539.46,-521.63"/>
</g>
<!-- Node30&#45;&gt;Node15 -->
<g id="edge47" class="edge">
<title>Node30&#45;&gt;Node15</title>
<path fill="none" stroke="midnightblue" d="M113.44,-453.77C157.3,-408.37 359.47,-199.11 417.43,-139.12"/>
<polygon fill="midnightblue" stroke="midnightblue" points="420.19,-141.3 424.62,-131.68 415.15,-136.44 420.19,-141.3"/>
</g>
<!-- Node32 -->
<g id="node32" class="node">
<title>Node32</title>
<g id="a_node32"><a xlink:href="_factory_8h.html" target="_top" xlink:title=" ">
<polygon fill="white" stroke="black" points="1185,-336.5 1185,-355.5 1241,-355.5 1241,-336.5 1185,-336.5"/>
<text text-anchor="middle" x="1213" y="-343.5" font-family="Helvetica,sans-Serif" font-size="10.00">Factory.h</text>
</a>
</g>
</g>
<!-- Node31&#45;&gt;Node32 -->
<g id="edge51" class="edge">
<title>Node31&#45;&gt;Node32</title>
<path fill="none" stroke="midnightblue" d="M1166,-392.32C1174.19,-384.42 1186.51,-372.55 1196.47,-362.94"/>
<polygon fill="midnightblue" stroke="midnightblue" points="1199.07,-365.29 1203.84,-355.83 1194.21,-360.26 1199.07,-365.29"/>
</g>
<!-- Node32&#45;&gt;Node1 -->
<g id="edge54" class="edge">
<title>Node32&#45;&gt;Node1</title>
<path fill="none" stroke="midnightblue" d="M1224.18,-355.51C1245.74,-373 1291,-415.32 1291,-462.5 1291,-582 1291,-582 1291,-582 1291,-617.46 1268.9,-653.15 1251.98,-675.28"/>
<polygon fill="midnightblue" stroke="midnightblue" points="1249.06,-673.33 1245.59,-683.34 1254.54,-677.68 1249.06,-673.33"/>
</g>
<!-- Node32&#45;&gt;Node4 -->
<g id="edge52" class="edge">
<title>Node32&#45;&gt;Node4</title>
<path fill="none" stroke="midnightblue" d="M1213,-336.08C1213,-329.01 1213,-318.86 1213,-309.99"/>
<polygon fill="midnightblue" stroke="midnightblue" points="1216.5,-309.75 1213,-299.75 1209.5,-309.75 1216.5,-309.75"/>
</g>
<!-- Node32&#45;&gt;Node6 -->
<g id="edge53" class="edge">
<title>Node32&#45;&gt;Node6</title>
<path fill="none" stroke="midnightblue" d="M1212,-355.88C1210.26,-368.86 1205.86,-393.46 1196,-412 1177.37,-447.03 1172.45,-461.17 1137,-479 1053.7,-520.89 775.64,-524.89 654.37,-524.56"/>
<polygon fill="midnightblue" stroke="midnightblue" points="654.19,-521.06 644.18,-524.52 654.16,-528.06 654.19,-521.06"/>
</g>
<!-- Node33&#45;&gt;Node31 -->
<g id="edge68" class="edge">
<title>Node33&#45;&gt;Node31</title>
<path fill="none" stroke="midnightblue" d="M956.53,-453.98C999.06,-443.16 1072.29,-424.54 1117.49,-413.05"/>
<polygon fill="midnightblue" stroke="midnightblue" points="1118.41,-416.42 1127.24,-410.57 1116.69,-409.64 1118.41,-416.42"/>
</g>
<!-- Node34 -->
<g id="node34" class="node">
<title>Node34</title>
<g id="a_node34"><a xlink:href="_squad_template_8h.html" target="_top" xlink:title=" ">
<polygon fill="white" stroke="black" points="877,-392.5 877,-411.5 969,-411.5 969,-392.5 877,-392.5"/>
<text text-anchor="middle" x="923" y="-399.5" font-family="Helvetica,sans-Serif" font-size="10.00">SquadTemplate.h</text>
</a>
</g>
</g>
<!-- Node33&#45;&gt;Node34 -->
<g id="edge56" class="edge">
<title>Node33&#45;&gt;Node34</title>
<path fill="none" stroke="midnightblue" d="M923,-453.98C923,-445.58 923,-432.48 923,-421.66"/>
<polygon fill="midnightblue" stroke="midnightblue" points="926.5,-421.51 923,-411.51 919.5,-421.51 926.5,-421.51"/>
</g>
<!-- Node34&#45;&gt;Node19 -->
<g id="edge57" class="edge">
<title>Node34&#45;&gt;Node19</title>
<path fill="none" stroke="midnightblue" d="M923.26,-392.31C924.11,-378.69 927.65,-352.19 942,-336 968.94,-305.6 1003.64,-333.91 1026,-300 1039.31,-279.82 1013.88,-260.43 991.46,-248.16"/>
<polygon fill="midnightblue" stroke="midnightblue" points="992.97,-244.99 982.48,-243.51 989.75,-251.21 992.97,-244.99"/>
</g>
<!-- Node34&#45;&gt;Node32 -->
<g id="edge58" class="edge">
<title>Node34&#45;&gt;Node32</title>
<path fill="none" stroke="midnightblue" d="M968.95,-392.44C1025.85,-381.85 1121.72,-364 1174.78,-354.12"/>
<polygon fill="midnightblue" stroke="midnightblue" points="1175.61,-357.52 1184.8,-352.25 1174.33,-350.64 1175.61,-357.52"/>
</g>
<!-- Node35 -->
<g id="node35" class="node">
<title>Node35</title>
<g id="a_node35"><a xlink:href="_gui_list_8h.html" target="_top" xlink:title=" ">
<polygon fill="white" stroke="black" points="909,-280.5 909,-299.5 1017,-299.5 1017,-280.5 909,-280.5"/>
<text text-anchor="middle" x="963" y="-287.5" font-family="Helvetica,sans-Serif" font-size="10.00">engine/GUI/GuiList.h</text>
</a>
</g>
</g>
<!-- Node34&#45;&gt;Node35 -->
<g id="edge59" class="edge">
<title>Node34&#45;&gt;Node35</title>
<path fill="none" stroke="midnightblue" d="M917.7,-392.19C910.69,-379.31 900.19,-354.82 909,-336 915.04,-323.09 926.81,-312.6 937.82,-305"/>
<polygon fill="midnightblue" stroke="midnightblue" points="939.83,-307.87 946.37,-299.54 936.06,-301.97 939.83,-307.87"/>
</g>
<!-- Node37 -->
<g id="node37" class="node">
<title>Node37</title>
<g id="a_node37"><a xlink:href="_gui_scroll_8h.html" target="_top" xlink:title=" ">
<polygon fill="white" stroke="black" points="951,-336.5 951,-355.5 1067,-355.5 1067,-336.5 951,-336.5"/>
<text text-anchor="middle" x="1009" y="-343.5" font-family="Helvetica,sans-Serif" font-size="10.00">engine/GUI/GuiScroll.h</text>
</a>
</g>
</g>
<!-- Node34&#45;&gt;Node37 -->
<g id="edge63" class="edge">
<title>Node34&#45;&gt;Node37</title>
<path fill="none" stroke="midnightblue" d="M936.82,-392.32C950.23,-383.9 970.82,-370.97 986.59,-361.07"/>
<polygon fill="midnightblue" stroke="midnightblue" points="988.61,-363.94 995.22,-355.65 984.89,-358.01 988.61,-363.94"/>
</g>
<!-- Node38 -->
<g id="node38" class="node">
<title>Node38</title>
<g id="a_node38"><a xlink:href="_button_8h.html" target="_top" xlink:title=" ">
<polygon fill="white" stroke="black" points="747.5,-280.5 747.5,-299.5 852.5,-299.5 852.5,-280.5 747.5,-280.5"/>
<text text-anchor="middle" x="800" y="-287.5" font-family="Helvetica,sans-Serif" font-size="10.00">engine/GUI/Button.h</text>
</a>
</g>
</g>
<!-- Node34&#45;&gt;Node38 -->
<g id="edge66" class="edge">
<title>Node34&#45;&gt;Node38</title>
<path fill="none" stroke="midnightblue" d="M913.35,-392.37C892.6,-373.81 843.51,-329.91 817.26,-306.44"/>
<polygon fill="midnightblue" stroke="midnightblue" points="819.39,-303.65 809.61,-299.59 814.73,-308.87 819.39,-303.65"/>
</g>
<!-- Node35&#45;&gt;Node19 -->
<g id="edge62" class="edge">
<title>Node35&#45;&gt;Node19</title>
<path fill="none" stroke="midnightblue" d="M963,-280.08C963,-273.01 963,-262.86 963,-253.99"/>
<polygon fill="midnightblue" stroke="midnightblue" points="966.5,-253.75 963,-243.75 959.5,-253.75 966.5,-253.75"/>
</g>
<!-- Node36 -->
<g id="node36" class="node">
<title>Node36</title>
<g id="a_node36"><a xlink:href="_gui_object_8h.html" target="_top" xlink:title=" ">
<polygon fill="white" stroke="black" points="740,-224.5 740,-243.5 860,-243.5 860,-224.5 740,-224.5"/>
<text text-anchor="middle" x="800" y="-231.5" font-family="Helvetica,sans-Serif" font-size="10.00">engine/GUI/GuiObject.h</text>
</a>
</g>
</g>
<!-- Node35&#45;&gt;Node36 -->
<g id="edge60" class="edge">
<title>Node35&#45;&gt;Node36</title>
<path fill="none" stroke="midnightblue" d="M937.17,-280.44C909.75,-271.36 866.22,-256.94 835.57,-246.78"/>
<polygon fill="midnightblue" stroke="midnightblue" points="836.3,-243.34 825.71,-243.52 834.1,-249.98 836.3,-243.34"/>
</g>
<!-- Node36&#45;&gt;Node8 -->
<g id="edge61" class="edge">
<title>Node36&#45;&gt;Node8</title>
<path fill="none" stroke="midnightblue" d="M771,-224.44C739.82,-215.24 690.07,-200.56 655.59,-190.39"/>
<polygon fill="midnightblue" stroke="midnightblue" points="656.44,-186.99 645.86,-187.52 654.46,-193.7 656.44,-186.99"/>
</g>
<!-- Node37&#45;&gt;Node9 -->
<g id="edge65" class="edge">
<title>Node37&#45;&gt;Node9</title>
<path fill="none" stroke="midnightblue" d="M1018.23,-336.43C1030.2,-324.25 1048.66,-301.04 1041,-280 1029.89,-249.47 1020.93,-242.18 994,-224 900.1,-160.61 763.53,-134.6 708.41,-126.27"/>
<polygon fill="midnightblue" stroke="midnightblue" points="708.91,-122.81 698.51,-124.84 707.91,-129.74 708.91,-122.81"/>
</g>
<!-- Node37&#45;&gt;Node35 -->
<g id="edge64" class="edge">
<title>Node37&#45;&gt;Node35</title>
<path fill="none" stroke="midnightblue" d="M1001.4,-336.08C994.77,-328.3 984.98,-316.8 976.94,-307.37"/>
<polygon fill="midnightblue" stroke="midnightblue" points="979.6,-305.09 970.45,-299.75 974.27,-309.63 979.6,-305.09"/>
</g>
<!-- Node38&#45;&gt;Node36 -->
<g id="edge67" class="edge">
<title>Node38&#45;&gt;Node36</title>
<path fill="none" stroke="midnightblue" d="M800,-280.08C800,-273.01 800,-262.86 800,-253.99"/>
<polygon fill="midnightblue" stroke="midnightblue" points="803.5,-253.75 800,-243.75 796.5,-253.75 803.5,-253.75"/>
</g>
<!-- Node39&#45;&gt;Node5 -->
<g id="edge72" class="edge">
<title>Node39&#45;&gt;Node5</title>
<path fill="none" stroke="midnightblue" d="M566.94,-590.65C585.3,-599.15 611.04,-612.24 629.1,-622.18"/>
<polygon fill="midnightblue" stroke="midnightblue" points="627.81,-625.47 638.24,-627.32 631.25,-619.37 627.81,-625.47"/>
</g>
<!-- Node39&#45;&gt;Node6 -->
<g id="edge73" class="edge">
<title>Node39&#45;&gt;Node6</title>
<path fill="none" stroke="midnightblue" d="M553.59,-571.08C561.16,-563.22 572.38,-551.57 581.51,-542.08"/>
<polygon fill="midnightblue" stroke="midnightblue" points="584.16,-544.38 588.57,-534.75 579.12,-539.53 584.16,-544.38"/>
</g>
<!-- Node40&#45;&gt;Node10 -->
<g id="edge78" class="edge">
<title>Node40&#45;&gt;Node10</title>
<path fill="none" stroke="midnightblue" d="M1417.7,-280.29C1404.68,-254.02 1366.03,-176.85 1357,-168 1342.21,-153.51 1321.82,-142.68 1304.38,-135.28"/>
<polygon fill="midnightblue" stroke="midnightblue" points="1305.64,-132.02 1295.06,-131.52 1303.02,-138.51 1305.64,-132.02"/>
</g>
<!-- Node40&#45;&gt;Node19 -->
<g id="edge79" class="edge">
<title>Node40&#45;&gt;Node19</title>
<path fill="none" stroke="midnightblue" d="M1371.13,-283.01C1276.16,-271.84 1074.4,-248.11 995.55,-238.83"/>
<polygon fill="midnightblue" stroke="midnightblue" points="995.6,-235.31 985.26,-237.62 994.78,-242.26 995.6,-235.31"/>
</g>
<!-- Node41 -->
<g id="node41" class="node">
<title>Node41</title>
<g id="a_node41"><a xlink:title=" ">
<polygon fill="white" stroke="#bfbfbf" points="1409.5,-224.5 1409.5,-243.5 1492.5,-243.5 1492.5,-224.5 1409.5,-224.5"/>
<text text-anchor="middle" x="1451" y="-231.5" font-family="Helvetica,sans-Serif" font-size="10.00">unordered_map</text>
</a>
</g>
</g>
<!-- Node40&#45;&gt;Node41 -->
<g id="edge80" class="edge">
<title>Node40&#45;&gt;Node41</title>
<path fill="none" stroke="midnightblue" d="M1426.79,-280.08C1430.76,-272.69 1436.53,-261.95 1441.43,-252.81"/>
<polygon fill="midnightblue" stroke="midnightblue" points="1444.65,-254.22 1446.3,-243.75 1438.49,-250.91 1444.65,-254.22"/>
</g>
</g>
</svg>
