<?xml version="1.0" encoding="UTF-8" standalone="no"?>
<!DOCTYPE svg PUBLIC "-//W3C//DTD SVG 1.1//EN"
 "http://www.w3.org/Graphics/SVG/1.1/DTD/svg11.dtd">
<!-- Generated by graphviz version 2.47.1 (20210421.1823)
 -->
<!-- Title: include/GameLogic/Units/UnitOrder.h Pages: 1 -->
<svg width="1653pt" height="575pt"
 viewBox="0.00 0.00 1653.00 575.00" xmlns="http://www.w3.org/2000/svg" xmlns:xlink="http://www.w3.org/1999/xlink">
<g id="graph0" class="graph" transform="scale(1 1) rotate(0) translate(4 571)">
<title>include/GameLogic/Units/UnitOrder.h</title>
<polygon fill="white" stroke="transparent" points="-4,4 -4,-571 1649,-571 1649,4 -4,4"/>
<!-- Node1 -->
<g id="node1" class="node">
<title>Node1</title>
<g id="a_node1"><a xlink:title=" ">
<polygon fill="#bfbfbf" stroke="black" points="566.5,-536.5 566.5,-566.5 693.5,-566.5 693.5,-536.5 566.5,-536.5"/>
<text text-anchor="start" x="574.5" y="-554.5" font-family="Helvetica,sans-Serif" font-size="10.00">include/GameLogic/Units</text>
<text text-anchor="middle" x="630" y="-543.5" font-family="Helvetica,sans-Serif" font-size="10.00">/UnitOrder.h</text>
</a>
</g>
</g>
<!-- Node2 -->
<g id="node2" class="node">
<title>Node2</title>
<g id="a_node2"><a xlink:href="_unit_8cpp.html" target="_top" xlink:title=" ">
<polygon fill="white" stroke="black" points="287,-402.5 287,-432.5 397,-432.5 397,-402.5 287,-402.5"/>
<text text-anchor="start" x="295" y="-420.5" font-family="Helvetica,sans-Serif" font-size="10.00">src/GameLogic/Units</text>
<text text-anchor="middle" x="342" y="-409.5" font-family="Helvetica,sans-Serif" font-size="10.00">/Unit.cpp</text>
</a>
</g>
</g>
<!-- Node1&#45;&gt;Node2 -->
<g id="edge1" class="edge">
<title>Node1&#45;&gt;Node2</title>
<path fill="none" stroke="midnightblue" d="M590.21,-532.26C532.08,-505.62 425.14,-456.6 372.67,-432.56"/>
<polygon fill="midnightblue" stroke="midnightblue" points="588.9,-535.51 599.45,-536.5 591.82,-529.15 588.9,-535.51"/>
</g>
<!-- Node3 -->
<g id="node3" class="node">
<title>Node3</title>
<g id="a_node3"><a xlink:href="_unit_order_8cpp.html" target="_top" xlink:title=" ">
<polygon fill="white" stroke="black" points="712,-469.5 712,-499.5 822,-499.5 822,-469.5 712,-469.5"/>
<text text-anchor="start" x="720" y="-487.5" font-family="Helvetica,sans-Serif" font-size="10.00">src/GameLogic/Units</text>
<text text-anchor="middle" x="767" y="-476.5" font-family="Helvetica,sans-Serif" font-size="10.00">/UnitOrder.cpp</text>
</a>
</g>
</g>
<!-- Node1&#45;&gt;Node3 -->
<g id="edge2" class="edge">
<title>Node1&#45;&gt;Node3</title>
<path fill="none" stroke="midnightblue" d="M669.01,-531.99C690.72,-521.69 717.33,-509.07 737.33,-499.58"/>
<polygon fill="midnightblue" stroke="midnightblue" points="667.26,-528.95 659.73,-536.4 670.26,-535.27 667.26,-528.95"/>
</g>
<!-- Node4 -->
<g id="node4" class="node">
<title>Node4</title>
<g id="a_node4"><a xlink:href="_squad_order_8h.html" target="_top" xlink:title=" ">
<polygon fill="white" stroke="black" points="415.5,-402.5 415.5,-432.5 546.5,-432.5 546.5,-402.5 415.5,-402.5"/>
<text text-anchor="start" x="423.5" y="-420.5" font-family="Helvetica,sans-Serif" font-size="10.00">include/GameLogic/Squad</text>
<text text-anchor="middle" x="481" y="-409.5" font-family="Helvetica,sans-Serif" font-size="10.00">/SquadOrder.h</text>
</a>
</g>
</g>
<!-- Node1&#45;&gt;Node4 -->
<g id="edge3" class="edge">
<title>Node1&#45;&gt;Node4</title>
<path fill="none" stroke="midnightblue" d="M598.63,-530.95C585.31,-522.11 569.91,-511.16 557,-500 532.12,-478.49 506.77,-449.61 492.54,-432.63"/>
<polygon fill="midnightblue" stroke="midnightblue" points="596.75,-533.9 607.04,-536.44 600.58,-528.04 596.75,-533.9"/>
</g>
<!-- Node6 -->
<g id="node6" class="node">
<title>Node6</title>
<g id="a_node6"><a xlink:href="_unit_8h.html" target="_top" xlink:title=" ">
<polygon fill="white" stroke="black" points="566.5,-469.5 566.5,-499.5 693.5,-499.5 693.5,-469.5 566.5,-469.5"/>
<text text-anchor="start" x="574.5" y="-487.5" font-family="Helvetica,sans-Serif" font-size="10.00">include/GameLogic/Units</text>
<text text-anchor="middle" x="630" y="-476.5" font-family="Helvetica,sans-Serif" font-size="10.00">/Unit.h</text>
</a>
</g>
</g>
<!-- Node1&#45;&gt;Node6 -->
<g id="edge5" class="edge">
<title>Node1&#45;&gt;Node6</title>
<path fill="none" stroke="midnightblue" d="M623.45,-526.4C623.01,-517.37 623.3,-507.41 624.33,-499.58"/>
<polygon fill="midnightblue" stroke="midnightblue" points="619.97,-526.74 624.32,-536.4 626.94,-526.13 619.97,-526.74"/>
</g>
<!-- Node5 -->
<g id="node5" class="node">
<title>Node5</title>
<g id="a_node5"><a xlink:href="_squad_order_8cpp.html" target="_top" xlink:title=" ">
<polygon fill="white" stroke="black" points="0,-335.5 0,-365.5 114,-365.5 114,-335.5 0,-335.5"/>
<text text-anchor="start" x="8" y="-353.5" font-family="Helvetica,sans-Serif" font-size="10.00">src/GameLogic/Squad</text>
<text text-anchor="middle" x="57" y="-342.5" font-family="Helvetica,sans-Serif" font-size="10.00">/SquadOrder.cpp</text>
</a>
</g>
</g>
<!-- Node4&#45;&gt;Node5 -->
<g id="edge4" class="edge">
<title>Node4&#45;&gt;Node5</title>
<path fill="none" stroke="midnightblue" d="M405.31,-401.96C281.31,-382.37 247.77,-385.96 128,-366 123.53,-365.26 118.92,-364.43 114.28,-363.57"/>
<polygon fill="midnightblue" stroke="midnightblue" points="404.76,-405.41 415.19,-403.54 405.87,-398.5 404.76,-405.41"/>
</g>
<!-- Node6&#45;&gt;Node1 -->
<g id="edge64" class="edge">
<title>Node6&#45;&gt;Node1</title>
<path fill="none" stroke="midnightblue" d="M636.54,-509.57C636.99,-518.6 636.71,-528.56 635.68,-536.4"/>
<polygon fill="midnightblue" stroke="midnightblue" points="640.03,-509.24 635.67,-499.58 633.05,-509.84 640.03,-509.24"/>
</g>
<!-- Node6&#45;&gt;Node2 -->
<g id="edge6" class="edge">
<title>Node6&#45;&gt;Node2</title>
<path fill="none" stroke="midnightblue" d="M557.71,-467.22C513.83,-457.34 456.68,-444.45 406,-433 403.11,-432.35 400.15,-431.68 397.16,-431"/>
<polygon fill="midnightblue" stroke="midnightblue" points="557.19,-470.69 567.72,-469.48 558.73,-463.86 557.19,-470.69"/>
</g>
<!-- Node6&#45;&gt;Node4 -->
<g id="edge52" class="edge">
<title>Node6&#45;&gt;Node4</title>
<path fill="none" stroke="midnightblue" d="M588.21,-465.27C564.48,-454.92 535.22,-442.15 513.27,-432.58"/>
<polygon fill="midnightblue" stroke="midnightblue" points="587.1,-468.61 597.67,-469.4 589.9,-462.19 587.1,-468.61"/>
</g>
<!-- Node7 -->
<g id="node7" class="node">
<title>Node7</title>
<g id="a_node7"><a xlink:href="_squad_8h.html" target="_top" xlink:title=" ">
<polygon fill="white" stroke="black" points="564.5,-402.5 564.5,-432.5 695.5,-432.5 695.5,-402.5 564.5,-402.5"/>
<text text-anchor="start" x="572.5" y="-420.5" font-family="Helvetica,sans-Serif" font-size="10.00">include/GameLogic/Squad</text>
<text text-anchor="middle" x="630" y="-409.5" font-family="Helvetica,sans-Serif" font-size="10.00">/Squad.h</text>
</a>
</g>
</g>
<!-- Node6&#45;&gt;Node7 -->
<g id="edge7" class="edge">
<title>Node6&#45;&gt;Node7</title>
<path fill="none" stroke="midnightblue" d="M623.45,-459.4C623.01,-450.37 623.3,-440.41 624.33,-432.58"/>
<polygon fill="midnightblue" stroke="midnightblue" points="619.97,-459.74 624.32,-469.4 626.94,-459.13 619.97,-459.74"/>
</g>
<!-- Node17 -->
<g id="node17" class="node">
<title>Node17</title>
<g id="a_node17"><a xlink:href="_factory_8h.html" target="_top" xlink:title=" ">
<polygon fill="white" stroke="black" points="952.5,-201.5 952.5,-231.5 1079.5,-231.5 1079.5,-201.5 952.5,-201.5"/>
<text text-anchor="start" x="960.5" y="-219.5" font-family="Helvetica,sans-Serif" font-size="10.00">include/GameLogic/Units</text>
<text text-anchor="middle" x="1016" y="-208.5" font-family="Helvetica,sans-Serif" font-size="10.00">/Factory.h</text>
</a>
</g>
</g>
<!-- Node6&#45;&gt;Node17 -->
<g id="edge56" class="edge">
<title>Node6&#45;&gt;Node17</title>
<path fill="none" stroke="midnightblue" d="M659.68,-463.65C673.49,-454.38 690.11,-443.17 705,-433 815.11,-357.79 946.15,-266.35 995.69,-231.71"/>
<polygon fill="midnightblue" stroke="midnightblue" points="657.42,-460.95 651.06,-469.43 661.32,-466.76 657.42,-460.95"/>
</g>
<!-- Node34 -->
<g id="node34" class="node">
<title>Node34</title>
<g id="a_node34"><a xlink:href="_armored_unit_8h.html" target="_top" xlink:title=" ">
<polygon fill="white" stroke="black" points="1066.5,-335.5 1066.5,-365.5 1193.5,-365.5 1193.5,-335.5 1066.5,-335.5"/>
<text text-anchor="start" x="1074.5" y="-353.5" font-family="Helvetica,sans-Serif" font-size="10.00">include/GameLogic/Units</text>
<text text-anchor="middle" x="1130" y="-342.5" font-family="Helvetica,sans-Serif" font-size="10.00">/ArmoredUnit.h</text>
</a>
</g>
</g>
<!-- Node6&#45;&gt;Node34 -->
<g id="edge53" class="edge">
<title>Node6&#45;&gt;Node34</title>
<path fill="none" stroke="midnightblue" d="M703.68,-468.93C798.33,-452.11 825.23,-457.08 914,-433 981.31,-414.74 1056.91,-383.65 1098.43,-365.61"/>
<polygon fill="midnightblue" stroke="midnightblue" points="702.9,-465.52 693.68,-470.75 704.15,-472.4 702.9,-465.52"/>
</g>
<!-- Node36 -->
<g id="node36" class="node">
<title>Node36</title>
<g id="a_node36"><a xlink:href="_land_unit_8h.html" target="_top" xlink:title=" ">
<polygon fill="white" stroke="black" points="1369.5,-402.5 1369.5,-432.5 1496.5,-432.5 1496.5,-402.5 1369.5,-402.5"/>
<text text-anchor="start" x="1377.5" y="-420.5" font-family="Helvetica,sans-Serif" font-size="10.00">include/GameLogic/Units</text>
<text text-anchor="middle" x="1433" y="-409.5" font-family="Helvetica,sans-Serif" font-size="10.00">/LandUnit.h</text>
</a>
</g>
</g>
<!-- Node6&#45;&gt;Node36 -->
<g id="edge57" class="edge">
<title>Node6&#45;&gt;Node36</title>
<path fill="none" stroke="midnightblue" d="M703.81,-469.03C955.57,-436.7 1022.11,-452.02 1271,-433 1303.38,-430.53 1339.36,-427.35 1369.17,-424.6"/>
<polygon fill="midnightblue" stroke="midnightblue" points="703.09,-465.59 693.62,-470.35 703.99,-472.53 703.09,-465.59"/>
</g>
<!-- Node38 -->
<g id="node38" class="node">
<title>Node38</title>
<g id="a_node38"><a xlink:href="_transport_unit_8h.html" target="_top" xlink:title=" ">
<polygon fill="white" stroke="black" points="1134.5,-402.5 1134.5,-432.5 1261.5,-432.5 1261.5,-402.5 1134.5,-402.5"/>
<text text-anchor="start" x="1142.5" y="-420.5" font-family="Helvetica,sans-Serif" font-size="10.00">include/GameLogic/Units</text>
<text text-anchor="middle" x="1198" y="-409.5" font-family="Helvetica,sans-Serif" font-size="10.00">/TransportUnit.h</text>
</a>
</g>
</g>
<!-- Node6&#45;&gt;Node38 -->
<g id="edge60" class="edge">
<title>Node6&#45;&gt;Node38</title>
<path fill="none" stroke="midnightblue" d="M703.75,-469.23C760.01,-462.72 1013.94,-437.06 1134.42,-424.91"/>
<polygon fill="midnightblue" stroke="midnightblue" points="703.13,-465.78 693.64,-470.49 704,-472.73 703.13,-465.78"/>
</g>
<!-- Node7&#45;&gt;Node6 -->
<g id="edge50" class="edge">
<title>Node7&#45;&gt;Node6</title>
<path fill="none" stroke="midnightblue" d="M636.54,-442.57C636.99,-451.6 636.71,-461.56 635.68,-469.4"/>
<polygon fill="midnightblue" stroke="midnightblue" points="640.03,-442.24 635.67,-432.58 633.05,-442.84 640.03,-442.24"/>
</g>
<!-- Node8 -->
<g id="node8" class="node">
<title>Node8</title>
<g id="a_node8"><a xlink:href="_squad_8cpp.html" target="_top" xlink:title=" ">
<polygon fill="white" stroke="black" points="262,-67.5 262,-97.5 376,-97.5 376,-67.5 262,-67.5"/>
<text text-anchor="start" x="270" y="-85.5" font-family="Helvetica,sans-Serif" font-size="10.00">src/GameLogic/Squad</text>
<text text-anchor="middle" x="319" y="-74.5" font-family="Helvetica,sans-Serif" font-size="10.00">/Squad.cpp</text>
</a>
</g>
</g>
<!-- Node7&#45;&gt;Node8 -->
<g id="edge8" class="edge">
<title>Node7&#45;&gt;Node8</title>
<path fill="none" stroke="midnightblue" d="M554.05,-401.97C359.7,-370.91 142,-472.08 142,-284.5 142,-284.5 142,-284.5 142,-215.5 142,-177.98 138.16,-161.2 164,-134 189.34,-107.32 228.91,-94.72 261.73,-88.77"/>
<polygon fill="midnightblue" stroke="midnightblue" points="553.71,-405.46 564.16,-403.71 554.9,-398.56 553.71,-405.46"/>
</g>
<!-- Node9 -->
<g id="node9" class="node">
<title>Node9</title>
<g id="a_node9"><a xlink:href="_set_squad_path_8h.html" target="_top" xlink:title=" ">
<polygon fill="white" stroke="black" points="526.5,-335.5 526.5,-365.5 639.5,-365.5 639.5,-335.5 526.5,-335.5"/>
<text text-anchor="start" x="534.5" y="-353.5" font-family="Helvetica,sans-Serif" font-size="10.00">include/engine/actions</text>
<text text-anchor="middle" x="583" y="-342.5" font-family="Helvetica,sans-Serif" font-size="10.00">/SetSquadPath.h</text>
</a>
</g>
</g>
<!-- Node7&#45;&gt;Node9 -->
<g id="edge9" class="edge">
<title>Node7&#45;&gt;Node9</title>
<path fill="none" stroke="midnightblue" d="M613.84,-394.16C606.99,-384.68 599.21,-373.92 593.18,-365.58"/>
<polygon fill="midnightblue" stroke="midnightblue" points="611.11,-396.34 619.8,-402.4 616.78,-392.24 611.11,-396.34"/>
</g>
<!-- Node12 -->
<g id="node12" class="node">
<title>Node12</title>
<g id="a_node12"><a xlink:href="_cell_8h.html" target="_top" xlink:title=" ">
<polygon fill="white" stroke="black" points="613,-274 613,-293 741,-293 741,-274 613,-274"/>
<text text-anchor="middle" x="677" y="-281" font-family="Helvetica,sans-Serif" font-size="10.00">include/GameLogic/Cell.h</text>
</a>
</g>
</g>
<!-- Node7&#45;&gt;Node12 -->
<g id="edge48" class="edge">
<title>Node7&#45;&gt;Node12</title>
<path fill="none" stroke="midnightblue" d="M630.7,-392.52C633.35,-384.15 636.88,-374.68 640,-366 649.52,-339.53 660.16,-307.99 668.7,-293.09"/>
<polygon fill="midnightblue" stroke="midnightblue" points="627.26,-391.82 627.91,-402.39 633.99,-393.72 627.26,-391.82"/>
</g>
<!-- Node15 -->
<g id="node15" class="node">
<title>Node15</title>
<g id="a_node15"><a xlink:href="_game_logic_2_squad_2_action_8h.html" target="_top" xlink:title=" ">
<polygon fill="white" stroke="black" points="308.5,-201.5 308.5,-231.5 439.5,-231.5 439.5,-201.5 308.5,-201.5"/>
<text text-anchor="start" x="316.5" y="-219.5" font-family="Helvetica,sans-Serif" font-size="10.00">include/GameLogic/Squad</text>
<text text-anchor="middle" x="374" y="-208.5" font-family="Helvetica,sans-Serif" font-size="10.00">/Action.h</text>
</a>
</g>
</g>
<!-- Node7&#45;&gt;Node15 -->
<g id="edge49" class="edge">
<title>Node7&#45;&gt;Node15</title>
<path fill="none" stroke="midnightblue" d="M565.05,-399.61C489.38,-377.34 371.78,-336.58 347,-299 333.36,-278.31 345.97,-248.9 358.54,-231.65"/>
<polygon fill="midnightblue" stroke="midnightblue" points="564.4,-403.06 574.98,-402.49 566.35,-396.34 564.4,-403.06"/>
</g>
<!-- Node32 -->
<g id="node32" class="node">
<title>Node32</title>
<g id="a_node32"><a xlink:href="pathfinding_8h.html" target="_top" xlink:title=" ">
<polygon fill="white" stroke="black" points="170,-207 170,-226 290,-226 290,-207 170,-207"/>
<text text-anchor="middle" x="230" y="-214" font-family="Helvetica,sans-Serif" font-size="10.00">include/util/pathfinding.h</text>
</a>
</g>
</g>
<!-- Node7&#45;&gt;Node32 -->
<g id="edge51" class="edge">
<title>Node7&#45;&gt;Node32</title>
<path fill="none" stroke="midnightblue" d="M554.37,-401.48C494.1,-389.2 417.61,-372.8 404,-366 329.03,-328.56 259.44,-251.96 237.29,-226.18"/>
<polygon fill="midnightblue" stroke="midnightblue" points="553.78,-404.93 564.27,-403.49 555.17,-398.07 553.78,-404.93"/>
</g>
<!-- Node10 -->
<g id="node10" class="node">
<title>Node10</title>
<g id="a_node10"><a xlink:href="engine_2_action_8cpp.html" target="_top" xlink:title=" ">
<polygon fill="white" stroke="black" points="365,-274 365,-293 475,-293 475,-274 365,-274"/>
<text text-anchor="middle" x="420" y="-281" font-family="Helvetica,sans-Serif" font-size="10.00">src/engine/Action.cpp</text>
</a>
</g>
</g>
<!-- Node9&#45;&gt;Node10 -->
<g id="edge10" class="edge">
<title>Node9&#45;&gt;Node10</title>
<path fill="none" stroke="midnightblue" d="M538.17,-331.62C506.62,-319.04 465.81,-302.77 441.33,-293.01"/>
<polygon fill="midnightblue" stroke="midnightblue" points="537.05,-334.94 547.63,-335.4 539.64,-328.44 537.05,-334.94"/>
</g>
<!-- Node11 -->
<g id="node11" class="node">
<title>Node11</title>
<g id="a_node11"><a xlink:href="_set_squad_path_8cpp.html" target="_top" xlink:title=" ">
<polygon fill="white" stroke="black" points="493.5,-268.5 493.5,-298.5 594.5,-298.5 594.5,-268.5 493.5,-268.5"/>
<text text-anchor="start" x="501.5" y="-286.5" font-family="Helvetica,sans-Serif" font-size="10.00">src/engine/actions</text>
<text text-anchor="middle" x="544" y="-275.5" font-family="Helvetica,sans-Serif" font-size="10.00">/SetSquadPath.cpp</text>
</a>
</g>
</g>
<!-- Node9&#45;&gt;Node11 -->
<g id="edge11" class="edge">
<title>Node9&#45;&gt;Node11</title>
<path fill="none" stroke="midnightblue" d="M569.25,-326.58C563.64,-317.24 557.35,-306.75 552.45,-298.58"/>
<polygon fill="midnightblue" stroke="midnightblue" points="566.39,-328.62 574.54,-335.4 572.39,-325.02 566.39,-328.62"/>
</g>
<!-- Node9&#45;&gt;Node12 -->
<g id="edge12" class="edge">
<title>Node9&#45;&gt;Node12</title>
<path fill="none" stroke="midnightblue" d="M605.9,-329.31C622.62,-317.1 644.72,-302.18 659.96,-293.01"/>
<polygon fill="midnightblue" stroke="midnightblue" points="603.65,-326.62 597.72,-335.4 607.83,-332.23 603.65,-326.62"/>
</g>
<!-- Node12&#45;&gt;Node7 -->
<g id="edge19" class="edge">
<title>Node12&#45;&gt;Node7</title>
<path fill="none" stroke="midnightblue" d="M677.87,-303.08C674.21,-319.64 665.74,-344.5 658,-366 653.56,-378.34 648.29,-392.29 642.96,-402.39"/>
<polygon fill="midnightblue" stroke="midnightblue" points="681.35,-303.54 679.57,-293.09 674.45,-302.37 681.35,-303.54"/>
</g>
<!-- Node12&#45;&gt;Node9 -->
<g id="edge15" class="edge">
<title>Node12&#45;&gt;Node9</title>
<path fill="none" stroke="midnightblue" d="M661.26,-299.38C646.94,-310.2 625.85,-324.76 609.08,-335.4"/>
<polygon fill="midnightblue" stroke="midnightblue" points="663.46,-302.1 669.2,-293.19 659.16,-296.58 663.46,-302.1"/>
</g>
<!-- Node13 -->
<g id="node13" class="node">
<title>Node13</title>
<g id="a_node13"><a xlink:href="_cell_8cpp.html" target="_top" xlink:title=" ">
<polygon fill="white" stroke="black" points="457.5,-207 457.5,-226 578.5,-226 578.5,-207 457.5,-207"/>
<text text-anchor="middle" x="518" y="-214" font-family="Helvetica,sans-Serif" font-size="10.00">src/GameLogic/Cell.cpp</text>
</a>
</g>
</g>
<!-- Node12&#45;&gt;Node13 -->
<g id="edge13" class="edge">
<title>Node12&#45;&gt;Node13</title>
<path fill="none" stroke="midnightblue" d="M646.27,-269.94C614.69,-257.03 566.38,-237.28 538.95,-226.06"/>
<polygon fill="midnightblue" stroke="midnightblue" points="645.31,-273.32 655.89,-273.87 647.95,-266.84 645.31,-273.32"/>
</g>
<!-- Node14 -->
<g id="node14" class="node">
<title>Node14</title>
<g id="a_node14"><a xlink:href="main_8cpp.html" target="_top" xlink:title=" ">
<polygon fill="white" stroke="black" points="571,-73 571,-92 643,-92 643,-73 571,-73"/>
<text text-anchor="middle" x="607" y="-80" font-family="Helvetica,sans-Serif" font-size="10.00">src/main.cpp</text>
</a>
</g>
</g>
<!-- Node12&#45;&gt;Node14 -->
<g id="edge14" class="edge">
<title>Node12&#45;&gt;Node14</title>
<path fill="none" stroke="midnightblue" d="M666.92,-264.93C661.72,-255.39 655.53,-243.27 651,-232 630.26,-180.35 614.29,-115.13 608.94,-92.06"/>
<polygon fill="midnightblue" stroke="midnightblue" points="663.94,-266.78 671.88,-273.8 670.05,-263.36 663.94,-266.78"/>
</g>
<!-- Node12&#45;&gt;Node15 -->
<g id="edge16" class="edge">
<title>Node12&#45;&gt;Node15</title>
<path fill="none" stroke="midnightblue" d="M627.23,-271.82C575.99,-260.83 495.9,-243.65 439.54,-231.56"/>
<polygon fill="midnightblue" stroke="midnightblue" points="626.56,-275.26 637.08,-273.94 628.03,-268.42 626.56,-275.26"/>
</g>
<!-- Node12&#45;&gt;Node17 -->
<g id="edge20" class="edge">
<title>Node12&#45;&gt;Node17</title>
<path fill="none" stroke="midnightblue" d="M731.75,-272C792.04,-260.44 888.84,-241.88 952.44,-229.69"/>
<polygon fill="midnightblue" stroke="midnightblue" points="730.83,-268.61 721.67,-273.94 732.15,-275.49 730.83,-268.61"/>
</g>
<!-- Node12&#45;&gt;Node32 -->
<g id="edge45" class="edge">
<title>Node12&#45;&gt;Node32</title>
<path fill="none" stroke="midnightblue" d="M626.99,-272.03C619.31,-270.57 611.45,-269.18 604,-268 469.18,-246.69 433.7,-254.06 299,-232 288.73,-230.32 277.68,-228.16 267.49,-226.02"/>
<polygon fill="midnightblue" stroke="midnightblue" points="626.46,-275.49 636.94,-273.95 627.79,-268.62 626.46,-275.49"/>
</g>
<!-- Node15&#45;&gt;Node7 -->
<g id="edge18" class="edge">
<title>Node15&#45;&gt;Node7</title>
<path fill="none" stroke="midnightblue" d="M367.33,-241.03C360.54,-258.31 353.6,-281.71 365,-299 390.89,-338.27 518.13,-381.01 586.53,-402.49"/>
<polygon fill="midnightblue" stroke="midnightblue" points="370.62,-242.23 371.17,-231.65 364.14,-239.58 370.62,-242.23"/>
</g>
<!-- Node16 -->
<g id="node16" class="node">
<title>Node16</title>
<g id="a_node16"><a xlink:href="_game_logic_2_squad_2_action_8cpp.html" target="_top" xlink:title=" ">
<polygon fill="white" stroke="black" points="311,-134.5 311,-164.5 425,-164.5 425,-134.5 311,-134.5"/>
<text text-anchor="start" x="319" y="-152.5" font-family="Helvetica,sans-Serif" font-size="10.00">src/GameLogic/Squad</text>
<text text-anchor="middle" x="368" y="-141.5" font-family="Helvetica,sans-Serif" font-size="10.00">/Action.cpp</text>
</a>
</g>
</g>
<!-- Node15&#45;&gt;Node16 -->
<g id="edge17" class="edge">
<title>Node15&#45;&gt;Node16</title>
<path fill="none" stroke="midnightblue" d="M371.78,-191.4C370.94,-182.37 370.02,-172.41 369.3,-164.58"/>
<polygon fill="midnightblue" stroke="midnightblue" points="368.29,-191.76 372.7,-201.4 375.26,-191.12 368.29,-191.76"/>
</g>
<!-- Node18 -->
<g id="node18" class="node">
<title>Node18</title>
<g id="a_node18"><a xlink:href="_spawn_action_8cpp.html" target="_top" xlink:title=" ">
<polygon fill="white" stroke="black" points="968,-134.5 968,-164.5 1064,-164.5 1064,-134.5 968,-134.5"/>
<text text-anchor="start" x="976" y="-152.5" font-family="Helvetica,sans-Serif" font-size="10.00">src/engine/actions</text>
<text text-anchor="middle" x="1016" y="-141.5" font-family="Helvetica,sans-Serif" font-size="10.00">/SpawnAction.cpp</text>
</a>
</g>
</g>
<!-- Node17&#45;&gt;Node18 -->
<g id="edge21" class="edge">
<title>Node17&#45;&gt;Node18</title>
<path fill="none" stroke="midnightblue" d="M1016,-191.11C1016,-182.15 1016,-172.32 1016,-164.58"/>
<polygon fill="midnightblue" stroke="midnightblue" points="1012.5,-191.4 1016,-201.4 1019.5,-191.4 1012.5,-191.4"/>
</g>
<!-- Node19 -->
<g id="node19" class="node">
<title>Node19</title>
<g id="a_node19"><a xlink:href="_factory_8cpp.html" target="_top" xlink:title=" ">
<polygon fill="white" stroke="black" points="1082,-134.5 1082,-164.5 1192,-164.5 1192,-134.5 1082,-134.5"/>
<text text-anchor="start" x="1090" y="-152.5" font-family="Helvetica,sans-Serif" font-size="10.00">src/GameLogic/Units</text>
<text text-anchor="middle" x="1137" y="-141.5" font-family="Helvetica,sans-Serif" font-size="10.00">/Factory.cpp</text>
</a>
</g>
</g>
<!-- Node17&#45;&gt;Node19 -->
<g id="edge22" class="edge">
<title>Node17&#45;&gt;Node19</title>
<path fill="none" stroke="midnightblue" d="M1051.23,-196.57C1070.26,-186.35 1093.37,-173.94 1110.8,-164.58"/>
<polygon fill="midnightblue" stroke="midnightblue" points="1049.41,-193.58 1042.26,-201.4 1052.72,-199.75 1049.41,-193.58"/>
</g>
<!-- Node20 -->
<g id="node20" class="node">
<title>Node20</title>
<g id="a_node20"><a xlink:href="_squad_template_8h.html" target="_top" xlink:title=" ">
<polygon fill="white" stroke="black" points="818.5,-134.5 818.5,-164.5 949.5,-164.5 949.5,-134.5 818.5,-134.5"/>
<text text-anchor="start" x="826.5" y="-152.5" font-family="Helvetica,sans-Serif" font-size="10.00">include/GameLogic/Squad</text>
<text text-anchor="middle" x="884" y="-141.5" font-family="Helvetica,sans-Serif" font-size="10.00">/SquadTemplate.h</text>
</a>
</g>
</g>
<!-- Node17&#45;&gt;Node20 -->
<g id="edge23" class="edge">
<title>Node17&#45;&gt;Node20</title>
<path fill="none" stroke="midnightblue" d="M978.13,-196.85C957.26,-186.58 931.77,-174.03 912.59,-164.58"/>
<polygon fill="midnightblue" stroke="midnightblue" points="976.84,-200.12 987.36,-201.4 979.93,-193.84 976.84,-200.12"/>
</g>
<!-- Node24 -->
<g id="node24" class="node">
<title>Node24</title>
<g id="a_node24"><a xlink:href="_all_units_8h.html" target="_top" xlink:title=" ">
<polygon fill="white" stroke="black" points="673.5,-134.5 673.5,-164.5 800.5,-164.5 800.5,-134.5 673.5,-134.5"/>
<text text-anchor="start" x="681.5" y="-152.5" font-family="Helvetica,sans-Serif" font-size="10.00">include/GameLogic/Units</text>
<text text-anchor="middle" x="737" y="-141.5" font-family="Helvetica,sans-Serif" font-size="10.00">/AllUnits.h</text>
</a>
</g>
</g>
<!-- Node17&#45;&gt;Node24 -->
<g id="edge28" class="edge">
<title>Node17&#45;&gt;Node24</title>
<path fill="none" stroke="midnightblue" d="M945.97,-199.19C900.28,-188.54 841.23,-174.78 797.57,-164.61"/>
<polygon fill="midnightblue" stroke="midnightblue" points="945.27,-202.62 955.8,-201.48 946.86,-195.8 945.27,-202.62"/>
</g>
<!-- Node26 -->
<g id="node26" class="node">
<title>Node26</title>
<g id="a_node26"><a xlink:href="_armored_unit_factory_8h.html" target="_top" xlink:title=" ">
<polygon fill="white" stroke="black" points="1165.5,-67.5 1165.5,-97.5 1292.5,-97.5 1292.5,-67.5 1165.5,-67.5"/>
<text text-anchor="start" x="1173.5" y="-85.5" font-family="Helvetica,sans-Serif" font-size="10.00">include/GameLogic/Units</text>
<text text-anchor="middle" x="1229" y="-74.5" font-family="Helvetica,sans-Serif" font-size="10.00">/ArmoredUnitFactory.h</text>
</a>
</g>
</g>
<!-- Node17&#45;&gt;Node26 -->
<g id="edge35" class="edge">
<title>Node17&#45;&gt;Node26</title>
<path fill="none" stroke="midnightblue" d="M1090.2,-211.38C1127.62,-205.65 1171.25,-192.89 1201,-165 1219.99,-147.2 1226.1,-115.94 1228.07,-97.75"/>
<polygon fill="midnightblue" stroke="midnightblue" points="1089.25,-207.98 1079.83,-212.81 1090.21,-214.91 1089.25,-207.98"/>
</g>
<!-- Node28 -->
<g id="node28" class="node">
<title>Node28</title>
<g id="a_node28"><a xlink:href="_land_unit_factory_8h.html" target="_top" xlink:title=" ">
<polygon fill="white" stroke="black" points="1448.5,-134.5 1448.5,-164.5 1575.5,-164.5 1575.5,-134.5 1448.5,-134.5"/>
<text text-anchor="start" x="1456.5" y="-152.5" font-family="Helvetica,sans-Serif" font-size="10.00">include/GameLogic/Units</text>
<text text-anchor="middle" x="1512" y="-141.5" font-family="Helvetica,sans-Serif" font-size="10.00">/LandUnitFactory.h</text>
</a>
</g>
</g>
<!-- Node17&#45;&gt;Node28 -->
<g id="edge38" class="edge">
<title>Node17&#45;&gt;Node28</title>
<path fill="none" stroke="midnightblue" d="M1089.72,-207.21C1171.34,-197.83 1306.75,-181.68 1423,-165 1431.21,-163.82 1439.84,-162.51 1448.36,-161.17"/>
<polygon fill="midnightblue" stroke="midnightblue" points="1089.08,-203.76 1079.55,-208.37 1089.88,-210.71 1089.08,-203.76"/>
</g>
<!-- Node30 -->
<g id="node30" class="node">
<title>Node30</title>
<g id="a_node30"><a xlink:href="_transport_unit_factory_8h.html" target="_top" xlink:title=" ">
<polygon fill="white" stroke="black" points="1286.5,-134.5 1286.5,-164.5 1413.5,-164.5 1413.5,-134.5 1286.5,-134.5"/>
<text text-anchor="start" x="1294.5" y="-152.5" font-family="Helvetica,sans-Serif" font-size="10.00">include/GameLogic/Units</text>
<text text-anchor="middle" x="1350" y="-141.5" font-family="Helvetica,sans-Serif" font-size="10.00">/TransportUnitFactory.h</text>
</a>
</g>
</g>
<!-- Node17&#45;&gt;Node30 -->
<g id="edge41" class="edge">
<title>Node17&#45;&gt;Node30</title>
<path fill="none" stroke="midnightblue" d="M1089.59,-201.18C1148.49,-189.72 1230.24,-173.81 1286.34,-162.89"/>
<polygon fill="midnightblue" stroke="midnightblue" points="1088.76,-197.78 1079.61,-203.12 1090.09,-204.65 1088.76,-197.78"/>
</g>
<!-- Node21 -->
<g id="node21" class="node">
<title>Node21</title>
<g id="a_node21"><a xlink:href="_squad_template_8cpp.html" target="_top" xlink:title=" ">
<polygon fill="white" stroke="black" points="849,-67.5 849,-97.5 963,-97.5 963,-67.5 849,-67.5"/>
<text text-anchor="start" x="857" y="-85.5" font-family="Helvetica,sans-Serif" font-size="10.00">src/GameLogic/Squad</text>
<text text-anchor="middle" x="906" y="-74.5" font-family="Helvetica,sans-Serif" font-size="10.00">/SquadTemplate.cpp</text>
</a>
</g>
</g>
<!-- Node20&#45;&gt;Node21 -->
<g id="edge24" class="edge">
<title>Node20&#45;&gt;Node21</title>
<path fill="none" stroke="midnightblue" d="M892.06,-124.7C895.14,-115.59 898.56,-105.49 901.24,-97.58"/>
<polygon fill="midnightblue" stroke="midnightblue" points="888.66,-123.8 888.77,-134.4 895.29,-126.05 888.66,-123.8"/>
</g>
<!-- Node22 -->
<g id="node22" class="node">
<title>Node22</title>
<g id="a_node22"><a xlink:href="_all_squad_templates_8h.html" target="_top" xlink:title=" ">
<polygon fill="white" stroke="black" points="661.5,-67.5 661.5,-97.5 792.5,-97.5 792.5,-67.5 661.5,-67.5"/>
<text text-anchor="start" x="669.5" y="-85.5" font-family="Helvetica,sans-Serif" font-size="10.00">include/GameLogic/Squad</text>
<text text-anchor="middle" x="727" y="-74.5" font-family="Helvetica,sans-Serif" font-size="10.00">/AllSquadTemplates.h</text>
</a>
</g>
</g>
<!-- Node20&#45;&gt;Node22 -->
<g id="edge25" class="edge">
<title>Node20&#45;&gt;Node22</title>
<path fill="none" stroke="midnightblue" d="M840.63,-130.54C815.51,-120.14 784.34,-107.24 761,-97.58"/>
<polygon fill="midnightblue" stroke="midnightblue" points="839.36,-133.8 849.93,-134.4 842.03,-127.34 839.36,-133.8"/>
</g>
<!-- Node22&#45;&gt;Node12 -->
<g id="edge27" class="edge">
<title>Node22&#45;&gt;Node12</title>
<path fill="none" stroke="midnightblue" d="M691.92,-103.46C681.26,-111.46 670.83,-121.73 665,-134 641.91,-182.59 664.26,-250.26 673.46,-273.92"/>
<polygon fill="midnightblue" stroke="midnightblue" points="694.23,-106.12 700.44,-97.53 690.23,-100.37 694.23,-106.12"/>
</g>
<!-- Node23 -->
<g id="node23" class="node">
<title>Node23</title>
<g id="a_node23"><a xlink:href="_all_squad_templates_8cpp.html" target="_top" xlink:title=" ">
<polygon fill="white" stroke="black" points="666,-0.5 666,-30.5 788,-30.5 788,-0.5 666,-0.5"/>
<text text-anchor="start" x="674" y="-18.5" font-family="Helvetica,sans-Serif" font-size="10.00">src/GameLogic/Squad</text>
<text text-anchor="middle" x="727" y="-7.5" font-family="Helvetica,sans-Serif" font-size="10.00">/AllSquadTemplates.cpp</text>
</a>
</g>
</g>
<!-- Node22&#45;&gt;Node23 -->
<g id="edge26" class="edge">
<title>Node22&#45;&gt;Node23</title>
<path fill="none" stroke="midnightblue" d="M727,-57.11C727,-48.15 727,-38.32 727,-30.58"/>
<polygon fill="midnightblue" stroke="midnightblue" points="723.5,-57.4 727,-67.4 730.5,-57.4 723.5,-57.4"/>
</g>
<!-- Node24&#45;&gt;Node8 -->
<g id="edge29" class="edge">
<title>Node24&#45;&gt;Node8</title>
<path fill="none" stroke="midnightblue" d="M663.07,-137C581.13,-124.26 450.73,-103.98 376.21,-92.4"/>
<polygon fill="midnightblue" stroke="midnightblue" points="662.64,-140.48 673.06,-138.56 663.72,-133.56 662.64,-140.48"/>
</g>
<!-- Node24&#45;&gt;Node12 -->
<g id="edge33" class="edge">
<title>Node24&#45;&gt;Node12</title>
<path fill="none" stroke="midnightblue" d="M726.29,-174.06C712.73,-203.9 690.02,-253.85 680.94,-273.84"/>
<polygon fill="midnightblue" stroke="midnightblue" points="729.56,-175.34 730.51,-164.78 723.18,-172.44 729.56,-175.34"/>
</g>
<!-- Node24&#45;&gt;Node14 -->
<g id="edge32" class="edge">
<title>Node24&#45;&gt;Node14</title>
<path fill="none" stroke="midnightblue" d="M699.61,-129.8C674.68,-117.34 643.11,-101.56 624.01,-92.01"/>
<polygon fill="midnightblue" stroke="midnightblue" points="698.28,-133.05 708.79,-134.4 701.41,-126.79 698.28,-133.05"/>
</g>
<!-- Node24&#45;&gt;Node21 -->
<g id="edge30" class="edge">
<title>Node24&#45;&gt;Node21</title>
<path fill="none" stroke="midnightblue" d="M783.33,-130.68C810.43,-120.26 844.17,-107.28 869.4,-97.58"/>
<polygon fill="midnightblue" stroke="midnightblue" points="781.75,-127.54 773.67,-134.4 784.26,-134.07 781.75,-127.54"/>
</g>
<!-- Node24&#45;&gt;Node22 -->
<g id="edge34" class="edge">
<title>Node24&#45;&gt;Node22</title>
<path fill="none" stroke="midnightblue" d="M733.29,-124.4C731.9,-115.37 730.37,-105.41 729.17,-97.58"/>
<polygon fill="midnightblue" stroke="midnightblue" points="729.85,-125.04 734.83,-134.4 736.77,-123.98 729.85,-125.04"/>
</g>
<!-- Node25 -->
<g id="node25" class="node">
<title>Node25</title>
<g id="a_node25"><a xlink:href="_all_units_8cpp.html" target="_top" xlink:title=" ">
<polygon fill="white" stroke="black" points="1266,-0.5 1266,-30.5 1376,-30.5 1376,-0.5 1266,-0.5"/>
<text text-anchor="start" x="1274" y="-18.5" font-family="Helvetica,sans-Serif" font-size="10.00">src/GameLogic/Units</text>
<text text-anchor="middle" x="1321" y="-7.5" font-family="Helvetica,sans-Serif" font-size="10.00">/AllUnits.cpp</text>
</a>
</g>
</g>
<!-- Node24&#45;&gt;Node25 -->
<g id="edge31" class="edge">
<title>Node24&#45;&gt;Node25</title>
<path fill="none" stroke="midnightblue" d="M763.47,-128.16C775.31,-119.01 789.41,-108.03 802,-98 819.05,-84.42 819.8,-75.19 840,-67 1012.39,2.9 1073.19,-59.62 1257,-31 1259.93,-30.54 1262.92,-30.03 1265.93,-29.48"/>
<polygon fill="midnightblue" stroke="midnightblue" points="761.08,-125.59 755.3,-134.47 765.36,-131.13 761.08,-125.59"/>
</g>
<!-- Node26&#45;&gt;Node25 -->
<g id="edge36" class="edge">
<title>Node26&#45;&gt;Node25</title>
<path fill="none" stroke="midnightblue" d="M1257.38,-61.45C1271.53,-51.45 1288.31,-39.6 1301.08,-30.58"/>
<polygon fill="midnightblue" stroke="midnightblue" points="1255.11,-58.77 1248.96,-67.4 1259.15,-64.48 1255.11,-58.77"/>
</g>
<!-- Node27 -->
<g id="node27" class="node">
<title>Node27</title>
<g id="a_node27"><a xlink:href="_armored_unit_factory_8cpp.html" target="_top" xlink:title=" ">
<polygon fill="white" stroke="black" points="1122.5,-0.5 1122.5,-30.5 1247.5,-30.5 1247.5,-0.5 1122.5,-0.5"/>
<text text-anchor="start" x="1130.5" y="-18.5" font-family="Helvetica,sans-Serif" font-size="10.00">src/GameLogic/Units</text>
<text text-anchor="middle" x="1185" y="-7.5" font-family="Helvetica,sans-Serif" font-size="10.00">/ArmoredUnitFactory.cpp</text>
</a>
</g>
</g>
<!-- Node26&#45;&gt;Node27 -->
<g id="edge37" class="edge">
<title>Node26&#45;&gt;Node27</title>
<path fill="none" stroke="midnightblue" d="M1213.68,-58.87C1207.31,-49.46 1200.12,-38.83 1194.53,-30.58"/>
<polygon fill="midnightblue" stroke="midnightblue" points="1210.95,-61.08 1219.45,-67.4 1216.75,-57.15 1210.95,-61.08"/>
</g>
<!-- Node28&#45;&gt;Node25 -->
<g id="edge39" class="edge">
<title>Node28&#45;&gt;Node25</title>
<path fill="none" stroke="midnightblue" d="M1510.87,-124.3C1508.75,-106.23 1503.04,-82.15 1488,-67 1458.66,-37.44 1412.66,-25.07 1376.36,-19.95"/>
<polygon fill="midnightblue" stroke="midnightblue" points="1507.39,-124.72 1511.76,-134.38 1514.36,-124.11 1507.39,-124.72"/>
</g>
<!-- Node29 -->
<g id="node29" class="node">
<title>Node29</title>
<g id="a_node29"><a xlink:href="_land_unit_factory_8cpp.html" target="_top" xlink:title=" ">
<polygon fill="white" stroke="black" points="1535,-67.5 1535,-97.5 1645,-97.5 1645,-67.5 1535,-67.5"/>
<text text-anchor="start" x="1543" y="-85.5" font-family="Helvetica,sans-Serif" font-size="10.00">src/GameLogic/Units</text>
<text text-anchor="middle" x="1590" y="-74.5" font-family="Helvetica,sans-Serif" font-size="10.00">/LandUnitFactory.cpp</text>
</a>
</g>
</g>
<!-- Node28&#45;&gt;Node29 -->
<g id="edge40" class="edge">
<title>Node28&#45;&gt;Node29</title>
<path fill="none" stroke="midnightblue" d="M1536.74,-127.88C1548.59,-118.01 1562.48,-106.43 1573.11,-97.58"/>
<polygon fill="midnightblue" stroke="midnightblue" points="1534.37,-125.31 1528.92,-134.4 1538.85,-130.68 1534.37,-125.31"/>
</g>
<!-- Node30&#45;&gt;Node25 -->
<g id="edge42" class="edge">
<title>Node30&#45;&gt;Node25</title>
<path fill="none" stroke="midnightblue" d="M1344.7,-124.39C1338.66,-96.9 1328.99,-52.89 1324.08,-30.52"/>
<polygon fill="midnightblue" stroke="midnightblue" points="1341.33,-125.36 1346.9,-134.37 1348.17,-123.86 1341.33,-125.36"/>
</g>
<!-- Node30&#45;&gt;Node26 -->
<g id="edge44" class="edge">
<title>Node30&#45;&gt;Node26</title>
<path fill="none" stroke="midnightblue" d="M1314.77,-129.57C1295.74,-119.35 1272.63,-106.94 1255.2,-97.58"/>
<polygon fill="midnightblue" stroke="midnightblue" points="1313.28,-132.75 1323.74,-134.4 1316.59,-126.58 1313.28,-132.75"/>
</g>
<!-- Node31 -->
<g id="node31" class="node">
<title>Node31</title>
<g id="a_node31"><a xlink:href="_transport_unit_factory_8cpp.html" target="_top" xlink:title=" ">
<polygon fill="white" stroke="black" points="1349.5,-67.5 1349.5,-97.5 1478.5,-97.5 1478.5,-67.5 1349.5,-67.5"/>
<text text-anchor="start" x="1357.5" y="-85.5" font-family="Helvetica,sans-Serif" font-size="10.00">src/GameLogic/Units</text>
<text text-anchor="middle" x="1414" y="-74.5" font-family="Helvetica,sans-Serif" font-size="10.00">/TransportUnitFactory.cpp</text>
</a>
</g>
</g>
<!-- Node30&#45;&gt;Node31 -->
<g id="edge43" class="edge">
<title>Node30&#45;&gt;Node31</title>
<path fill="none" stroke="midnightblue" d="M1371.15,-127.02C1380.68,-117.34 1391.67,-106.17 1400.14,-97.58"/>
<polygon fill="midnightblue" stroke="midnightblue" points="1368.41,-124.81 1363.89,-134.4 1373.4,-129.73 1368.41,-124.81"/>
</g>
<!-- Node32&#45;&gt;Node16 -->
<g id="edge46" class="edge">
<title>Node32&#45;&gt;Node16</title>
<path fill="none" stroke="midnightblue" d="M257.66,-202.47C280.99,-191.49 314.31,-175.79 338.22,-164.53"/>
<polygon fill="midnightblue" stroke="midnightblue" points="255.88,-199.44 248.33,-206.87 258.86,-205.77 255.88,-199.44"/>
</g>
<!-- Node33 -->
<g id="node33" class="node">
<title>Node33</title>
<g id="a_node33"><a xlink:href="pathfinding_8cpp.html" target="_top" xlink:title=" ">
<polygon fill="white" stroke="black" points="173.5,-140 173.5,-159 286.5,-159 286.5,-140 173.5,-140"/>
<text text-anchor="middle" x="230" y="-147" font-family="Helvetica,sans-Serif" font-size="10.00">src/util/pathfinding.cpp</text>
</a>
</g>
</g>
<!-- Node32&#45;&gt;Node33 -->
<g id="edge47" class="edge">
<title>Node32&#45;&gt;Node33</title>
<path fill="none" stroke="midnightblue" d="M230,-196.54C230,-184.17 230,-168.62 230,-159.13"/>
<polygon fill="midnightblue" stroke="midnightblue" points="226.5,-196.73 230,-206.73 233.5,-196.73 226.5,-196.73"/>
</g>
<!-- Node34&#45;&gt;Node26 -->
<g id="edge55" class="edge">
<title>Node34&#45;&gt;Node26</title>
<path fill="none" stroke="midnightblue" d="M1145.74,-326.4C1167.79,-292.66 1207.05,-227.14 1224,-165 1230.27,-142.02 1230.46,-114.1 1229.85,-97.63"/>
<polygon fill="midnightblue" stroke="midnightblue" points="1142.62,-324.78 1140.02,-335.05 1148.46,-328.65 1142.62,-324.78"/>
</g>
<!-- Node35 -->
<g id="node35" class="node">
<title>Node35</title>
<g id="a_node35"><a xlink:href="_armored_unit_8cpp.html" target="_top" xlink:title=" ">
<polygon fill="white" stroke="black" points="1212,-268.5 1212,-298.5 1322,-298.5 1322,-268.5 1212,-268.5"/>
<text text-anchor="start" x="1220" y="-286.5" font-family="Helvetica,sans-Serif" font-size="10.00">src/GameLogic/Units</text>
<text text-anchor="middle" x="1267" y="-275.5" font-family="Helvetica,sans-Serif" font-size="10.00">/ArmoredUnit.cpp</text>
</a>
</g>
</g>
<!-- Node34&#45;&gt;Node35 -->
<g id="edge54" class="edge">
<title>Node34&#45;&gt;Node35</title>
<path fill="none" stroke="midnightblue" d="M1169.01,-330.99C1190.72,-320.69 1217.33,-308.07 1237.33,-298.58"/>
<polygon fill="midnightblue" stroke="midnightblue" points="1167.26,-327.95 1159.73,-335.4 1170.26,-334.27 1167.26,-327.95"/>
</g>
<!-- Node36&#45;&gt;Node28 -->
<g id="edge59" class="edge">
<title>Node36&#45;&gt;Node28</title>
<path fill="none" stroke="midnightblue" d="M1468.37,-396.75C1479.44,-388.71 1490.47,-378.37 1497,-366 1532.92,-298.02 1520.93,-200.73 1514.73,-164.66"/>
<polygon fill="midnightblue" stroke="midnightblue" points="1466.28,-393.94 1459.96,-402.44 1470.2,-399.73 1466.28,-393.94"/>
</g>
<!-- Node37 -->
<g id="node37" class="node">
<title>Node37</title>
<g id="a_node37"><a xlink:href="_land_unit_8cpp.html" target="_top" xlink:title=" ">
<polygon fill="white" stroke="black" points="1378,-335.5 1378,-365.5 1488,-365.5 1488,-335.5 1378,-335.5"/>
<text text-anchor="start" x="1386" y="-353.5" font-family="Helvetica,sans-Serif" font-size="10.00">src/GameLogic/Units</text>
<text text-anchor="middle" x="1433" y="-342.5" font-family="Helvetica,sans-Serif" font-size="10.00">/LandUnit.cpp</text>
</a>
</g>
</g>
<!-- Node36&#45;&gt;Node37 -->
<g id="edge58" class="edge">
<title>Node36&#45;&gt;Node37</title>
<path fill="none" stroke="midnightblue" d="M1433,-392.11C1433,-383.15 1433,-373.32 1433,-365.58"/>
<polygon fill="midnightblue" stroke="midnightblue" points="1429.5,-392.4 1433,-402.4 1436.5,-392.4 1429.5,-392.4"/>
</g>
<!-- Node38&#45;&gt;Node30 -->
<g id="edge63" class="edge">
<title>Node38&#45;&gt;Node30</title>
<path fill="none" stroke="midnightblue" d="M1271.37,-404.39C1293.89,-397.01 1316.52,-385.13 1331,-366 1377.81,-304.16 1361.46,-201.87 1353.39,-164.62"/>
<polygon fill="midnightblue" stroke="midnightblue" points="1270.31,-401.05 1261.75,-407.29 1272.33,-407.76 1270.31,-401.05"/>
</g>
<!-- Node38&#45;&gt;Node34 -->
<g id="edge62" class="edge">
<title>Node38&#45;&gt;Node34</title>
<path fill="none" stroke="midnightblue" d="M1175.83,-395.31C1165.63,-385.56 1153.81,-374.26 1144.73,-365.58"/>
<polygon fill="midnightblue" stroke="midnightblue" points="1173.6,-398.02 1183.25,-402.4 1178.43,-392.96 1173.6,-398.02"/>
</g>
<!-- Node39 -->
<g id="node39" class="node">
<title>Node39</title>
<g id="a_node39"><a xlink:href="_transport_unit_8cpp.html" target="_top" xlink:title=" ">
<polygon fill="white" stroke="black" points="1212,-335.5 1212,-365.5 1322,-365.5 1322,-335.5 1212,-335.5"/>
<text text-anchor="start" x="1220" y="-353.5" font-family="Helvetica,sans-Serif" font-size="10.00">src/GameLogic/Units</text>
<text text-anchor="middle" x="1267" y="-342.5" font-family="Helvetica,sans-Serif" font-size="10.00">/TransportUnit.cpp</text>
</a>
</g>
</g>
<!-- Node38&#45;&gt;Node39 -->
<g id="edge61" class="edge">
<title>Node38&#45;&gt;Node39</title>
<path fill="none" stroke="midnightblue" d="M1220.49,-395.31C1230.84,-385.56 1242.84,-374.26 1252.06,-365.58"/>
<polygon fill="midnightblue" stroke="midnightblue" points="1217.85,-392.99 1212.97,-402.4 1222.65,-398.09 1217.85,-392.99"/>
</g>
</g>
</svg>
