<?xml version="1.0" encoding="UTF-8" standalone="no"?>
<!DOCTYPE svg PUBLIC "-//W3C//DTD SVG 1.1//EN"
 "http://www.w3.org/Graphics/SVG/1.1/DTD/svg11.dtd">
<!-- Generated by graphviz version 2.47.1 (20210421.1823)
 -->
<!-- Title: src/GameLogic/Units/Unit.cpp Pages: 1 -->
<svg width="1514pt" height="778pt"
 viewBox="0.00 0.00 1514.00 778.00" xmlns="http://www.w3.org/2000/svg" xmlns:xlink="http://www.w3.org/1999/xlink">
<g id="graph0" class="graph" transform="scale(1 1) rotate(0) translate(4 774)">
<title>src/GameLogic/Units/Unit.cpp</title>
<polygon fill="white" stroke="transparent" points="-4,4 -4,-774 1510,-774 1510,4 -4,4"/>
<!-- Node1 -->
<g id="node1" class="node">
<title>Node1</title>
<g id="a_node1"><a xlink:title=" ">
<polygon fill="#bfbfbf" stroke="black" points="122,-739.5 122,-769.5 232,-769.5 232,-739.5 122,-739.5"/>
<text text-anchor="start" x="130" y="-757.5" font-family="Helvetica,sans-Serif" font-size="10.00">src/GameLogic/Units</text>
<text text-anchor="middle" x="177" y="-746.5" font-family="Helvetica,sans-Serif" font-size="10.00">/Unit.cpp</text>
</a>
</g>
</g>
<!-- Node2 -->
<g id="node2" class="node">
<title>Node2</title>
<g id="a_node2"><a xlink:href="_unit_8h.html" target="_top" xlink:title=" ">
<polygon fill="white" stroke="black" points="161,-683.5 161,-702.5 283,-702.5 283,-683.5 161,-683.5"/>
<text text-anchor="middle" x="222" y="-690.5" font-family="Helvetica,sans-Serif" font-size="10.00">GameLogic/Units/Unit.h</text>
</a>
</g>
</g>
<!-- Node1&#45;&gt;Node2 -->
<g id="edge1" class="edge">
<title>Node1&#45;&gt;Node2</title>
<path fill="none" stroke="midnightblue" d="M187.66,-739.4C194.14,-730.84 202.43,-719.87 209.25,-710.86"/>
<polygon fill="midnightblue" stroke="midnightblue" points="212.21,-712.74 215.45,-702.66 206.63,-708.52 212.21,-712.74"/>
</g>
<!-- Node4 -->
<g id="node4" class="node">
<title>Node4</title>
<g id="a_node4"><a xlink:href="_unit_order_8h.html" target="_top" xlink:title=" ">
<polygon fill="white" stroke="black" points="114,-627.5 114,-646.5 180,-646.5 180,-627.5 114,-627.5"/>
<text text-anchor="middle" x="147" y="-634.5" font-family="Helvetica,sans-Serif" font-size="10.00">UnitOrder.h</text>
</a>
</g>
</g>
<!-- Node1&#45;&gt;Node4 -->
<g id="edge90" class="edge">
<title>Node1&#45;&gt;Node4</title>
<path fill="none" stroke="midnightblue" d="M167.99,-739.07C162.36,-729.28 155.53,-715.83 152,-703 147.82,-687.81 146.71,-669.91 146.57,-656.75"/>
<polygon fill="midnightblue" stroke="midnightblue" points="150.07,-656.61 146.63,-646.59 143.07,-656.57 150.07,-656.61"/>
</g>
<!-- Node3 -->
<g id="node3" class="node">
<title>Node3</title>
<g id="a_node3"><a xlink:title=" ">
<polygon fill="white" stroke="#bfbfbf" points="274.5,-627.5 274.5,-646.5 317.5,-646.5 317.5,-627.5 274.5,-627.5"/>
<text text-anchor="middle" x="296" y="-634.5" font-family="Helvetica,sans-Serif" font-size="10.00">cstdio</text>
</a>
</g>
</g>
<!-- Node2&#45;&gt;Node3 -->
<g id="edge2" class="edge">
<title>Node2&#45;&gt;Node3</title>
<path fill="none" stroke="midnightblue" d="M233.89,-683.32C245.15,-675.11 262.29,-662.6 275.71,-652.81"/>
<polygon fill="midnightblue" stroke="midnightblue" points="277.88,-655.56 283.89,-646.83 273.75,-649.9 277.88,-655.56"/>
</g>
<!-- Node2&#45;&gt;Node4 -->
<g id="edge3" class="edge">
<title>Node2&#45;&gt;Node4</title>
<path fill="none" stroke="midnightblue" d="M204.84,-683.32C191.89,-675.26 174.62,-663.08 162.19,-653.37"/>
<polygon fill="midnightblue" stroke="midnightblue" points="164.09,-650.41 154.12,-646.83 159.69,-655.85 164.09,-650.41"/>
</g>
<!-- Node6 -->
<g id="node6" class="node">
<title>Node6</title>
<g id="a_node6"><a xlink:href="_squad_8h.html" target="_top" xlink:title=" ">
<polygon fill="white" stroke="black" points="914,-627.5 914,-646.5 1050,-646.5 1050,-627.5 914,-627.5"/>
<text text-anchor="middle" x="982" y="-634.5" font-family="Helvetica,sans-Serif" font-size="10.00">GameLogic/Squad/Squad.h</text>
</a>
</g>
</g>
<!-- Node2&#45;&gt;Node6 -->
<g id="edge6" class="edge">
<title>Node2&#45;&gt;Node6</title>
<path fill="none" stroke="midnightblue" d="M283.14,-687.37C420.19,-677.38 751.58,-653.83 903.55,-643.27"/>
<polygon fill="midnightblue" stroke="midnightblue" points="904.01,-646.75 913.74,-642.57 903.52,-639.77 904.01,-646.75"/>
</g>
<!-- Node13 -->
<g id="node13" class="node">
<title>Node13</title>
<g id="a_node13"><a xlink:href="config_8h.html" target="_top" xlink:title=" ">
<polygon fill="white" stroke="black" points="222.5,-112.5 222.5,-131.5 303.5,-131.5 303.5,-112.5 222.5,-112.5"/>
<text text-anchor="middle" x="263" y="-119.5" font-family="Helvetica,sans-Serif" font-size="10.00">engine/config.h</text>
</a>
</g>
</g>
<!-- Node2&#45;&gt;Node13 -->
<g id="edge89" class="edge">
<title>Node2&#45;&gt;Node13</title>
<path fill="none" stroke="midnightblue" d="M160.75,-687.48C95.04,-678.91 0,-654.05 0,-582 0,-582 0,-582 0,-233 0,-142.01 135.65,-124.98 212.11,-122.6"/>
<polygon fill="midnightblue" stroke="midnightblue" points="212.57,-126.09 222.48,-122.36 212.4,-119.1 212.57,-126.09"/>
</g>
<!-- Node24 -->
<g id="node24" class="node">
<title>Node24</title>
<g id="a_node24"><a xlink:href="_all_flags_8h.html" target="_top" xlink:title=" ">
<polygon fill="white" stroke="black" points="227.5,-392.5 227.5,-411.5 286.5,-411.5 286.5,-392.5 227.5,-392.5"/>
<text text-anchor="middle" x="257" y="-399.5" font-family="Helvetica,sans-Serif" font-size="10.00">AllFlags.h</text>
</a>
</g>
</g>
<!-- Node2&#45;&gt;Node24 -->
<g id="edge84" class="edge">
<title>Node2&#45;&gt;Node24</title>
<path fill="none" stroke="midnightblue" d="M220.17,-683.49C216.37,-665.07 208,-620.12 208,-582 208,-582 208,-582 208,-524 208,-484.54 230.67,-442.78 245.17,-420.1"/>
<polygon fill="midnightblue" stroke="midnightblue" points="248.19,-421.89 250.79,-411.62 242.35,-418.02 248.19,-421.89"/>
</g>
<!-- Node43 -->
<g id="node43" class="node">
<title>Node43</title>
<g id="a_node43"><a xlink:href="_textures_8h.html" target="_top" xlink:title=" ">
<polygon fill="white" stroke="black" points="38.5,-280.5 38.5,-299.5 139.5,-299.5 139.5,-280.5 38.5,-280.5"/>
<text text-anchor="middle" x="89" y="-287.5" font-family="Helvetica,sans-Serif" font-size="10.00">graphics/Textures.h</text>
</a>
</g>
</g>
<!-- Node2&#45;&gt;Node43 -->
<g id="edge85" class="edge">
<title>Node2&#45;&gt;Node43</title>
<path fill="none" stroke="midnightblue" d="M172.11,-683.42C148.83,-677.03 122.47,-665.97 105,-647 84.62,-624.86 86,-612.1 86,-582 86,-582 86,-582 86,-401 86,-368.94 87.29,-331.63 88.18,-309.74"/>
<polygon fill="midnightblue" stroke="midnightblue" points="91.68,-309.69 88.61,-299.56 84.69,-309.4 91.68,-309.69"/>
</g>
<!-- Node4&#45;&gt;Node2 -->
<g id="edge5" class="edge">
<title>Node4&#45;&gt;Node2</title>
<path fill="none" stroke="midnightblue" d="M164.13,-646.65C177.14,-654.76 194.54,-667.04 207,-676.78"/>
<polygon fill="midnightblue" stroke="midnightblue" points="205.1,-679.74 215.06,-683.32 209.51,-674.3 205.1,-679.74"/>
</g>
<!-- Node5 -->
<g id="node5" class="node">
<title>Node5</title>
<g id="a_node5"><a xlink:title=" ">
<polygon fill="white" stroke="#bfbfbf" points="239.5,-280.5 239.5,-299.5 280.5,-299.5 280.5,-280.5 239.5,-280.5"/>
<text text-anchor="middle" x="260" y="-287.5" font-family="Helvetica,sans-Serif" font-size="10.00">string</text>
</a>
</g>
</g>
<!-- Node4&#45;&gt;Node5 -->
<g id="edge4" class="edge">
<title>Node4&#45;&gt;Node5</title>
<path fill="none" stroke="midnightblue" d="M145.43,-627.48C142.18,-609.04 135,-564.04 135,-526 135,-526 135,-526 135,-401 135,-350.58 193.02,-317.8 230,-302.03"/>
<polygon fill="midnightblue" stroke="midnightblue" points="231.42,-305.23 239.36,-298.21 228.78,-298.75 231.42,-305.23"/>
</g>
<!-- Node6&#45;&gt;Node2 -->
<g id="edge76" class="edge">
<title>Node6&#45;&gt;Node2</title>
<path fill="none" stroke="midnightblue" d="M913.98,-643.13C770.76,-653.55 439.56,-677.08 293.41,-687.21"/>
<polygon fill="midnightblue" stroke="midnightblue" points="292.95,-683.74 283.22,-687.92 293.44,-690.72 292.95,-683.74"/>
</g>
<!-- Node7 -->
<g id="node7" class="node">
<title>Node7</title>
<g id="a_node7"><a xlink:href="_cell_8h.html" target="_top" xlink:title=" ">
<polygon fill="white" stroke="black" points="830,-515.5 830,-534.5 924,-534.5 924,-515.5 830,-515.5"/>
<text text-anchor="middle" x="877" y="-522.5" font-family="Helvetica,sans-Serif" font-size="10.00">GameLogic/Cell.h</text>
</a>
</g>
</g>
<!-- Node6&#45;&gt;Node7 -->
<g id="edge7" class="edge">
<title>Node6&#45;&gt;Node7</title>
<path fill="none" stroke="midnightblue" d="M952.15,-627.44C933.6,-620.02 910.88,-607.81 896,-591 884.18,-577.64 876.76,-558.53 874.19,-544.48"/>
<polygon fill="midnightblue" stroke="midnightblue" points="877.67,-544.11 873.19,-534.51 870.71,-544.82 877.67,-544.11"/>
</g>
<!-- Node10 -->
<g id="node10" class="node">
<title>Node10</title>
<g id="a_node10"><a xlink:href="gameplay_clickable_game_object_8h.html" target="_top" xlink:title=" ">
<polygon fill="white" stroke="black" points="1177.5,-448.5 1177.5,-478.5 1306.5,-478.5 1306.5,-448.5 1177.5,-448.5"/>
<text text-anchor="start" x="1185.5" y="-466.5" font-family="Helvetica,sans-Serif" font-size="10.00">engine/gameplayClickable</text>
<text text-anchor="middle" x="1242" y="-455.5" font-family="Helvetica,sans-Serif" font-size="10.00">GameObject.h</text>
</a>
</g>
</g>
<!-- Node6&#45;&gt;Node10 -->
<g id="edge77" class="edge">
<title>Node6&#45;&gt;Node10</title>
<path fill="none" stroke="midnightblue" d="M1029.72,-627.49C1058.86,-620.77 1095.98,-609.38 1125,-591 1168.78,-563.27 1206.89,-515.13 1226.95,-486.91"/>
<polygon fill="midnightblue" stroke="midnightblue" points="1229.97,-488.71 1232.82,-478.5 1224.23,-484.7 1229.97,-488.71"/>
</g>
<!-- Node6&#45;&gt;Node13 -->
<g id="edge81" class="edge">
<title>Node6&#45;&gt;Node13</title>
<path fill="none" stroke="midnightblue" d="M913.93,-634.96C781.45,-630.06 483.67,-604.71 275,-479 196.09,-431.46 203.92,-371.19 217,-280 224.4,-228.39 244.84,-170.08 255.81,-141.21"/>
<polygon fill="midnightblue" stroke="midnightblue" points="259.16,-142.25 259.51,-131.66 252.63,-139.72 259.16,-142.25"/>
</g>
<!-- Node16 -->
<g id="node16" class="node">
<title>Node16</title>
<g id="a_node16"><a xlink:href="_facade_8h.html" target="_top" xlink:title=" ">
<polygon fill="white" stroke="black" points="1077,-0.5 1077,-19.5 1133,-19.5 1133,-0.5 1077,-0.5"/>
<text text-anchor="middle" x="1105" y="-7.5" font-family="Helvetica,sans-Serif" font-size="10.00">Facade.h</text>
</a>
</g>
</g>
<!-- Node6&#45;&gt;Node16 -->
<g id="edge82" class="edge">
<title>Node6&#45;&gt;Node16</title>
<path fill="none" stroke="midnightblue" d="M1050.24,-635.79C1192.14,-633.52 1506,-618.08 1506,-526 1506,-526 1506,-526 1506,-121 1506,-46.22 1243.39,-20.43 1143.2,-13.32"/>
<polygon fill="midnightblue" stroke="midnightblue" points="1143.41,-9.82 1133.2,-12.63 1142.93,-16.81 1143.41,-9.82"/>
</g>
<!-- Node41 -->
<g id="node41" class="node">
<title>Node41</title>
<g id="a_node41"><a xlink:href="_player_8h.html" target="_top" xlink:title=" ">
<polygon fill="white" stroke="black" points="937,-336.5 937,-355.5 1041,-355.5 1041,-336.5 937,-336.5"/>
<text text-anchor="middle" x="989" y="-343.5" font-family="Helvetica,sans-Serif" font-size="10.00">GameLogic/Player.h</text>
</a>
</g>
</g>
<!-- Node6&#45;&gt;Node41 -->
<g id="edge83" class="edge">
<title>Node6&#45;&gt;Node41</title>
<path fill="none" stroke="midnightblue" d="M1007.49,-627.41C1045.08,-612.93 1111,-579.86 1111,-526 1111,-526 1111,-526 1111,-462.5 1111,-412.16 1055.56,-377.21 1019.42,-359.77"/>
<polygon fill="midnightblue" stroke="midnightblue" points="1020.8,-356.54 1010.25,-355.51 1017.85,-362.89 1020.8,-356.54"/>
</g>
<!-- Node42 -->
<g id="node42" class="node">
<title>Node42</title>
<g id="a_node42"><a xlink:href="_game_logic_2_squad_2_action_8h.html" target="_top" xlink:title=" ">
<polygon fill="white" stroke="black" points="914,-571.5 914,-590.5 1050,-590.5 1050,-571.5 914,-571.5"/>
<text text-anchor="middle" x="982" y="-578.5" font-family="Helvetica,sans-Serif" font-size="10.00">GameLogic/Squad/Action.h</text>
</a>
</g>
</g>
<!-- Node6&#45;&gt;Node42 -->
<g id="edge78" class="edge">
<title>Node6&#45;&gt;Node42</title>
<path fill="none" stroke="midnightblue" d="M976.83,-627.08C975.32,-619.93 974.89,-609.64 975.54,-600.69"/>
<polygon fill="midnightblue" stroke="midnightblue" points="979.02,-601.13 976.87,-590.75 972.08,-600.2 979.02,-601.13"/>
</g>
<!-- Node7&#45;&gt;Node6 -->
<g id="edge32" class="edge">
<title>Node7&#45;&gt;Node6</title>
<path fill="none" stroke="midnightblue" d="M884.5,-534.51C891.11,-547.9 899.02,-574.07 914,-591 926.09,-604.66 943.36,-615.28 957.6,-622.76"/>
<polygon fill="midnightblue" stroke="midnightblue" points="956.38,-626.06 966.88,-627.44 959.53,-619.81 956.38,-626.06"/>
</g>
<!-- Node8 -->
<g id="node8" class="node">
<title>Node8</title>
<g id="a_node8"><a xlink:title=" ">
<polygon fill="white" stroke="#bfbfbf" points="339.5,-336.5 339.5,-355.5 374.5,-355.5 374.5,-336.5 339.5,-336.5"/>
<text text-anchor="middle" x="357" y="-343.5" font-family="Helvetica,sans-Serif" font-size="10.00">map</text>
</a>
</g>
</g>
<!-- Node7&#45;&gt;Node8 -->
<g id="edge8" class="edge">
<title>Node7&#45;&gt;Node8</title>
<path fill="none" stroke="midnightblue" d="M829.94,-522.12C718.85,-517.29 447.12,-503.15 414,-479 376.79,-451.86 363.61,-395.28 359.15,-365.79"/>
<polygon fill="midnightblue" stroke="midnightblue" points="362.58,-365.06 357.8,-355.61 355.64,-365.98 362.58,-365.06"/>
</g>
<!-- Node9 -->
<g id="node9" class="node">
<title>Node9</title>
<g id="a_node9"><a xlink:title=" ">
<polygon fill="white" stroke="#bfbfbf" points="644,-454 644,-473 674,-473 674,-454 644,-454"/>
<text text-anchor="middle" x="659" y="-461" font-family="Helvetica,sans-Serif" font-size="10.00">set</text>
</a>
</g>
</g>
<!-- Node7&#45;&gt;Node9 -->
<g id="edge9" class="edge">
<title>Node7&#45;&gt;Node9</title>
<path fill="none" stroke="midnightblue" d="M829.91,-515.91C791.13,-508.52 735.07,-496.11 688,-479 686.4,-478.42 684.77,-477.77 683.15,-477.08"/>
<polygon fill="midnightblue" stroke="midnightblue" points="684.6,-473.9 674.06,-472.85 681.65,-480.25 684.6,-473.9"/>
</g>
<!-- Node7&#45;&gt;Node10 -->
<g id="edge10" class="edge">
<title>Node7&#45;&gt;Node10</title>
<path fill="none" stroke="midnightblue" d="M924.13,-516.96C980.86,-508.4 1079.01,-493.31 1163,-479 1164.46,-478.75 1165.94,-478.5 1167.42,-478.24"/>
<polygon fill="midnightblue" stroke="midnightblue" points="1168.11,-481.67 1177.35,-476.5 1166.9,-474.78 1168.11,-481.67"/>
</g>
<!-- Node7&#45;&gt;Node13 -->
<g id="edge30" class="edge">
<title>Node7&#45;&gt;Node13</title>
<path fill="none" stroke="midnightblue" d="M829.82,-522.42C713.29,-518.15 418.69,-504.88 383,-479 325.47,-437.29 278.94,-208.68 266.36,-141.54"/>
<polygon fill="midnightblue" stroke="midnightblue" points="269.78,-140.78 264.52,-131.58 262.9,-142.05 269.78,-140.78"/>
</g>
<!-- Node7&#45;&gt;Node16 -->
<g id="edge31" class="edge">
<title>Node7&#45;&gt;Node16</title>
<path fill="none" stroke="midnightblue" d="M923.1,-515.46C963.54,-507.5 1023.73,-494.56 1075,-479 1094.92,-472.96 1233.11,-424.17 1250,-412 1302.31,-374.31 1330,-355.47 1330,-291 1330,-291 1330,-291 1330,-121 1330,-38.83 1207.39,-18.03 1143.19,-12.77"/>
<polygon fill="midnightblue" stroke="midnightblue" points="1143.27,-9.27 1133.04,-12.03 1142.76,-16.25 1143.27,-9.27"/>
</g>
<!-- Node19 -->
<g id="node19" class="node">
<title>Node19</title>
<g id="a_node19"><a xlink:title=" ">
<polygon fill="white" stroke="#bfbfbf" points="1195,-56.5 1195,-75.5 1249,-75.5 1249,-56.5 1195,-56.5"/>
<text text-anchor="middle" x="1222" y="-63.5" font-family="Helvetica,sans-Serif" font-size="10.00">iostream</text>
</a>
</g>
</g>
<!-- Node7&#45;&gt;Node19 -->
<g id="edge33" class="edge">
<title>Node7&#45;&gt;Node19</title>
<path fill="none" stroke="midnightblue" d="M909.95,-515.48C938.77,-507.54 981.47,-494.6 1017,-479 1152.56,-419.48 1292,-439.05 1292,-291 1292,-291 1292,-291 1292,-177 1292,-138.23 1260.67,-102.1 1239.93,-82.43"/>
<polygon fill="midnightblue" stroke="midnightblue" points="1242.08,-79.65 1232.33,-75.5 1237.36,-84.83 1242.08,-79.65"/>
</g>
<!-- Node21 -->
<g id="node21" class="node">
<title>Node21</title>
<g id="a_node21"><a xlink:href="cellgen_8h.html" target="_top" xlink:title=" ">
<polygon fill="white" stroke="black" points="431.5,-392.5 431.5,-411.5 502.5,-411.5 502.5,-392.5 431.5,-392.5"/>
<text text-anchor="middle" x="467" y="-399.5" font-family="Helvetica,sans-Serif" font-size="10.00">util/cellgen.h</text>
</a>
</g>
</g>
<!-- Node7&#45;&gt;Node21 -->
<g id="edge21" class="edge">
<title>Node7&#45;&gt;Node21</title>
<path fill="none" stroke="midnightblue" d="M829.79,-518.65C780.41,-512.26 701.05,-499.75 635,-479 582.14,-462.4 523.95,-433.5 491.81,-416.53"/>
<polygon fill="midnightblue" stroke="midnightblue" points="493.18,-413.29 482.71,-411.67 489.88,-419.46 493.18,-413.29"/>
</g>
<!-- Node7&#45;&gt;Node24 -->
<g id="edge25" class="edge">
<title>Node7&#45;&gt;Node24</title>
<path fill="none" stroke="midnightblue" d="M829.64,-522.61C701.14,-518.5 352.53,-505.05 308,-479 285.99,-466.12 271.53,-439.52 263.81,-421.46"/>
<polygon fill="midnightblue" stroke="midnightblue" points="266.98,-419.98 260.03,-411.99 260.48,-422.57 266.98,-419.98"/>
</g>
<!-- Node26 -->
<g id="node26" class="node">
<title>Node26</title>
<g id="a_node26"><a xlink:href="geometry_8h.html" target="_top" xlink:title=" ">
<polygon fill="white" stroke="black" points="423,-454 423,-473 503,-473 503,-454 423,-454"/>
<text text-anchor="middle" x="463" y="-461" font-family="Helvetica,sans-Serif" font-size="10.00">util/geometry.h</text>
</a>
</g>
</g>
<!-- Node7&#45;&gt;Node26 -->
<g id="edge34" class="edge">
<title>Node7&#45;&gt;Node26</title>
<path fill="none" stroke="midnightblue" d="M829.91,-517.23C751.26,-505.93 593.85,-483.31 513.18,-471.71"/>
<polygon fill="midnightblue" stroke="midnightblue" points="513.66,-468.25 503.26,-470.29 512.66,-475.17 513.66,-468.25"/>
</g>
<!-- Node27 -->
<g id="node27" class="node">
<title>Node27</title>
<g id="a_node27"><a xlink:href="_none_8h.html" target="_top" xlink:title=" ">
<polygon fill="white" stroke="black" points="1112.5,-224.5 1112.5,-243.5 1225.5,-243.5 1225.5,-224.5 1112.5,-224.5"/>
<text text-anchor="middle" x="1169" y="-231.5" font-family="Helvetica,sans-Serif" font-size="10.00">engine/actions/None.h</text>
</a>
</g>
</g>
<!-- Node7&#45;&gt;Node27 -->
<g id="edge37" class="edge">
<title>Node7&#45;&gt;Node27</title>
<path fill="none" stroke="midnightblue" d="M895.85,-515.29C960.93,-485.04 1173.11,-384.79 1190,-356 1209.25,-323.19 1191.47,-277.34 1178.92,-252.56"/>
<polygon fill="midnightblue" stroke="midnightblue" points="1181.94,-250.79 1174.14,-243.61 1175.76,-254.08 1181.94,-250.79"/>
</g>
<!-- Node28 -->
<g id="node28" class="node">
<title>Node28</title>
<g id="a_node28"><a xlink:href="game_controller_8h.html" target="_top" xlink:title=" ">
<polygon fill="white" stroke="black" points="1059.5,-336.5 1059.5,-355.5 1180.5,-355.5 1180.5,-336.5 1059.5,-336.5"/>
<text text-anchor="middle" x="1120" y="-343.5" font-family="Helvetica,sans-Serif" font-size="10.00">engine/gameController.h</text>
</a>
</g>
</g>
<!-- Node7&#45;&gt;Node28 -->
<g id="edge39" class="edge">
<title>Node7&#45;&gt;Node28</title>
<path fill="none" stroke="midnightblue" d="M890.43,-515.44C903.7,-506.78 924.35,-492.76 941,-479 983.88,-443.56 985.67,-424.25 1031,-392 1049.21,-379.04 1071.69,-367.71 1089.5,-359.66"/>
<polygon fill="midnightblue" stroke="midnightblue" points="1091.12,-362.77 1098.85,-355.53 1088.29,-356.37 1091.12,-362.77"/>
</g>
<!-- Node32 -->
<g id="node32" class="node">
<title>Node32</title>
<g id="a_node32"><a xlink:href="_set_squad_path_8h.html" target="_top" xlink:title=" ">
<polygon fill="white" stroke="black" points="1324.5,-454 1324.5,-473 1477.5,-473 1477.5,-454 1324.5,-454"/>
<text text-anchor="middle" x="1401" y="-461" font-family="Helvetica,sans-Serif" font-size="10.00">engine/actions/SetSquadPath.h</text>
</a>
</g>
</g>
<!-- Node7&#45;&gt;Node32 -->
<g id="edge48" class="edge">
<title>Node7&#45;&gt;Node32</title>
<path fill="none" stroke="midnightblue" d="M924.13,-519.73C1003.44,-512.8 1168.08,-497.95 1307,-479 1316.25,-477.74 1326.03,-476.23 1335.67,-474.67"/>
<polygon fill="midnightblue" stroke="midnightblue" points="1336.34,-478.11 1345.64,-473.04 1335.21,-471.2 1336.34,-478.11"/>
</g>
<!-- Node33 -->
<g id="node33" class="node">
<title>Node33</title>
<g id="a_node33"><a xlink:href="_all_units_8h.html" target="_top" xlink:title=" ">
<polygon fill="white" stroke="black" points="730.5,-392.5 730.5,-411.5 789.5,-411.5 789.5,-392.5 730.5,-392.5"/>
<text text-anchor="middle" x="760" y="-399.5" font-family="Helvetica,sans-Serif" font-size="10.00">AllUnits.h</text>
</a>
</g>
</g>
<!-- Node7&#45;&gt;Node33 -->
<g id="edge52" class="edge">
<title>Node7&#45;&gt;Node33</title>
<path fill="none" stroke="midnightblue" d="M849.81,-515.41C831.1,-508.28 806.87,-496.45 791,-479 776.2,-462.73 767.98,-438.44 763.78,-421.73"/>
<polygon fill="midnightblue" stroke="midnightblue" points="767.1,-420.54 761.49,-411.56 760.27,-422.08 767.1,-420.54"/>
</g>
<!-- Node35 -->
<g id="node35" class="node">
<title>Node35</title>
<g id="a_node35"><a xlink:href="_all_squad_templates_8h.html" target="_top" xlink:title=" ">
<polygon fill="white" stroke="black" points="799.5,-454 799.5,-473 908.5,-473 908.5,-454 799.5,-454"/>
<text text-anchor="middle" x="854" y="-461" font-family="Helvetica,sans-Serif" font-size="10.00">AllSquadTemplates.h</text>
</a>
</g>
</g>
<!-- Node7&#45;&gt;Node35 -->
<g id="edge58" class="edge">
<title>Node7&#45;&gt;Node35</title>
<path fill="none" stroke="midnightblue" d="M873.7,-515.48C870.39,-506.9 865.18,-493.43 860.95,-482.48"/>
<polygon fill="midnightblue" stroke="midnightblue" points="864.16,-481.07 857.29,-473.01 857.63,-483.6 864.16,-481.07"/>
</g>
<!-- Node7&#45;&gt;Node41 -->
<g id="edge75" class="edge">
<title>Node7&#45;&gt;Node41</title>
<path fill="none" stroke="midnightblue" d="M886.18,-515.26C894.99,-506.58 908.35,-492.63 918,-479 944.96,-440.93 968.99,-391.43 980.96,-365.19"/>
<polygon fill="midnightblue" stroke="midnightblue" points="984.29,-366.32 985.2,-355.76 977.91,-363.45 984.29,-366.32"/>
</g>
<!-- Node11 -->
<g id="node11" class="node">
<title>Node11</title>
<g id="a_node11"><a xlink:href="game_object_8h.html" target="_top" xlink:title=" ">
<polygon fill="white" stroke="black" points="969.5,-168.5 969.5,-187.5 1046.5,-187.5 1046.5,-168.5 969.5,-168.5"/>
<text text-anchor="middle" x="1008" y="-175.5" font-family="Helvetica,sans-Serif" font-size="10.00">gameObject.h</text>
</a>
</g>
</g>
<!-- Node10&#45;&gt;Node11 -->
<g id="edge11" class="edge">
<title>Node10&#45;&gt;Node11</title>
<path fill="none" stroke="midnightblue" d="M1244.43,-448.32C1247.93,-426.59 1254,-383.69 1254,-347 1254,-347 1254,-347 1254,-289 1254,-258.9 1257.2,-244.32 1235,-224 1209.48,-200.65 1115.62,-188.36 1056.88,-182.81"/>
<polygon fill="midnightblue" stroke="midnightblue" points="1056.98,-179.3 1046.7,-181.88 1056.34,-186.27 1056.98,-179.3"/>
</g>
<!-- Node12 -->
<g id="node12" class="node">
<title>Node12</title>
<g id="a_node12"><a xlink:title=" ">
<polygon fill="white" stroke="#bfbfbf" points="993.5,-112.5 993.5,-131.5 1022.5,-131.5 1022.5,-112.5 993.5,-112.5"/>
<text text-anchor="middle" x="1008" y="-119.5" font-family="Helvetica,sans-Serif" font-size="10.00">list</text>
</a>
</g>
</g>
<!-- Node11&#45;&gt;Node12 -->
<g id="edge12" class="edge">
<title>Node11&#45;&gt;Node12</title>
<path fill="none" stroke="midnightblue" d="M1008,-168.08C1008,-161.01 1008,-150.86 1008,-141.99"/>
<polygon fill="midnightblue" stroke="midnightblue" points="1011.5,-141.75 1008,-131.75 1004.5,-141.75 1011.5,-141.75"/>
</g>
<!-- Node11&#45;&gt;Node13 -->
<g id="edge13" class="edge">
<title>Node11&#45;&gt;Node13</title>
<path fill="none" stroke="midnightblue" d="M969.25,-174.19C844.69,-165.16 454.44,-136.88 313.99,-126.7"/>
<polygon fill="midnightblue" stroke="midnightblue" points="314.15,-123.2 303.93,-125.97 313.65,-130.18 314.15,-123.2"/>
</g>
<!-- Node18 -->
<g id="node18" class="node">
<title>Node18</title>
<g id="a_node18"><a xlink:href="engine_2_action_8h.html" target="_top" xlink:title=" ">
<polygon fill="white" stroke="black" points="1127.5,-112.5 1127.5,-131.5 1210.5,-131.5 1210.5,-112.5 1127.5,-112.5"/>
<text text-anchor="middle" x="1169" y="-119.5" font-family="Helvetica,sans-Serif" font-size="10.00">engine/Action.h</text>
</a>
</g>
</g>
<!-- Node11&#45;&gt;Node18 -->
<g id="edge18" class="edge">
<title>Node11&#45;&gt;Node18</title>
<path fill="none" stroke="midnightblue" d="M1033.51,-168.44C1060.6,-159.36 1103.59,-144.94 1133.87,-134.78"/>
<polygon fill="midnightblue" stroke="midnightblue" points="1135.24,-138.01 1143.61,-131.52 1133.01,-131.38 1135.24,-138.01"/>
</g>
<!-- Node14 -->
<g id="node14" class="node">
<title>Node14</title>
<g id="a_node14"><a xlink:href="_s_f_m_l_facade_8h.html" target="_top" xlink:title=" ">
<polygon fill="white" stroke="black" points="659.5,-56.5 659.5,-75.5 782.5,-75.5 782.5,-56.5 659.5,-56.5"/>
<text text-anchor="middle" x="721" y="-63.5" font-family="Helvetica,sans-Serif" font-size="10.00">graphics/SFMLFacade.h</text>
</a>
</g>
</g>
<!-- Node13&#45;&gt;Node14 -->
<g id="edge14" class="edge">
<title>Node13&#45;&gt;Node14</title>
<path fill="none" stroke="midnightblue" d="M303.64,-116.21C381.35,-107.05 551.89,-86.94 649.21,-75.46"/>
<polygon fill="midnightblue" stroke="midnightblue" points="649.74,-78.93 659.26,-74.28 648.92,-71.97 649.74,-78.93"/>
</g>
<!-- Node17 -->
<g id="node17" class="node">
<title>Node17</title>
<g id="a_node17"><a xlink:title=" ">
<polygon fill="white" stroke="#bfbfbf" points="214,-56.5 214,-75.5 312,-75.5 312,-56.5 214,-56.5"/>
<text text-anchor="middle" x="263" y="-63.5" font-family="Helvetica,sans-Serif" font-size="10.00">nlohmann/json.hpp</text>
</a>
</g>
</g>
<!-- Node13&#45;&gt;Node17 -->
<g id="edge17" class="edge">
<title>Node13&#45;&gt;Node17</title>
<path fill="none" stroke="midnightblue" d="M263,-112.08C263,-105.01 263,-94.86 263,-85.99"/>
<polygon fill="midnightblue" stroke="midnightblue" points="266.5,-85.75 263,-75.75 259.5,-85.75 266.5,-85.75"/>
</g>
<!-- Node15 -->
<g id="node15" class="node">
<title>Node15</title>
<g id="a_node15"><a xlink:title=" ">
<polygon fill="white" stroke="#bfbfbf" points="669,-0.5 669,-19.5 773,-19.5 773,-0.5 669,-0.5"/>
<text text-anchor="middle" x="721" y="-7.5" font-family="Helvetica,sans-Serif" font-size="10.00">SFML/Graphics.hpp</text>
</a>
</g>
</g>
<!-- Node14&#45;&gt;Node15 -->
<g id="edge15" class="edge">
<title>Node14&#45;&gt;Node15</title>
<path fill="none" stroke="midnightblue" d="M721,-56.08C721,-49.01 721,-38.86 721,-29.99"/>
<polygon fill="midnightblue" stroke="midnightblue" points="724.5,-29.75 721,-19.75 717.5,-29.75 724.5,-29.75"/>
</g>
<!-- Node14&#45;&gt;Node16 -->
<g id="edge16" class="edge">
<title>Node14&#45;&gt;Node16</title>
<path fill="none" stroke="midnightblue" d="M781.85,-56.44C861.74,-45.21 999.67,-25.81 1066.5,-16.41"/>
<polygon fill="midnightblue" stroke="midnightblue" points="1067.18,-19.85 1076.59,-15 1066.2,-12.92 1067.18,-19.85"/>
</g>
<!-- Node18&#45;&gt;Node19 -->
<g id="edge19" class="edge">
<title>Node18&#45;&gt;Node19</title>
<path fill="none" stroke="midnightblue" d="M1177.75,-112.08C1185.47,-104.22 1196.9,-92.57 1206.22,-83.08"/>
<polygon fill="midnightblue" stroke="midnightblue" points="1208.9,-85.34 1213.41,-75.75 1203.91,-80.44 1208.9,-85.34"/>
</g>
<!-- Node20 -->
<g id="node20" class="node">
<title>Node20</title>
<g id="a_node20"><a xlink:title=" ">
<polygon fill="white" stroke="#bfbfbf" points="800.5,-56.5 800.5,-75.5 851.5,-75.5 851.5,-56.5 800.5,-56.5"/>
<text text-anchor="middle" x="826" y="-63.5" font-family="Helvetica,sans-Serif" font-size="10.00">memory</text>
</a>
</g>
</g>
<!-- Node18&#45;&gt;Node20 -->
<g id="edge20" class="edge">
<title>Node18&#45;&gt;Node20</title>
<path fill="none" stroke="midnightblue" d="M1127.28,-114.43C1059.3,-103.73 925.78,-82.71 861.82,-72.64"/>
<polygon fill="midnightblue" stroke="midnightblue" points="862.23,-69.16 851.81,-71.06 861.14,-76.08 862.23,-69.16"/>
</g>
<!-- Node21&#45;&gt;Node8 -->
<g id="edge23" class="edge">
<title>Node21&#45;&gt;Node8</title>
<path fill="none" stroke="midnightblue" d="M449.33,-392.32C431.61,-383.62 404.1,-370.12 383.71,-360.11"/>
<polygon fill="midnightblue" stroke="midnightblue" points="385.15,-356.92 374.63,-355.65 382.06,-363.2 385.15,-356.92"/>
</g>
<!-- Node22 -->
<g id="node22" class="node">
<title>Node22</title>
<g id="a_node22"><a xlink:title=" ">
<polygon fill="white" stroke="#bfbfbf" points="406,-224.5 406,-243.5 450,-243.5 450,-224.5 406,-224.5"/>
<text text-anchor="middle" x="428" y="-231.5" font-family="Helvetica,sans-Serif" font-size="10.00">vector</text>
</a>
</g>
</g>
<!-- Node21&#45;&gt;Node22 -->
<g id="edge22" class="edge">
<title>Node21&#45;&gt;Node22</title>
<path fill="none" stroke="midnightblue" d="M502.79,-393.09C539.36,-383.27 588.14,-364.28 568,-336 539.63,-296.16 501.44,-331.48 464,-300 449.38,-287.71 439.63,-267.89 434.01,-253.37"/>
<polygon fill="midnightblue" stroke="midnightblue" points="437.29,-252.15 430.63,-243.91 430.7,-254.5 437.29,-252.15"/>
</g>
<!-- Node23 -->
<g id="node23" class="node">
<title>Node23</title>
<g id="a_node23"><a xlink:title=" ">
<polygon fill="white" stroke="#bfbfbf" points="431,-336.5 431,-355.5 559,-355.5 559,-336.5 431,-336.5"/>
<text text-anchor="middle" x="495" y="-343.5" font-family="Helvetica,sans-Serif" font-size="10.00">scanline_triangulation.hpp</text>
</a>
</g>
</g>
<!-- Node21&#45;&gt;Node23 -->
<g id="edge24" class="edge">
<title>Node21&#45;&gt;Node23</title>
<path fill="none" stroke="midnightblue" d="M471.62,-392.08C475.46,-384.69 481.02,-373.95 485.76,-364.81"/>
<polygon fill="midnightblue" stroke="midnightblue" points="488.97,-366.24 490.46,-355.75 482.75,-363.02 488.97,-366.24"/>
</g>
<!-- Node24&#45;&gt;Node20 -->
<g id="edge29" class="edge">
<title>Node24&#45;&gt;Node20</title>
<path fill="none" stroke="midnightblue" d="M249.85,-392.36C243.23,-383.76 233.84,-369.87 230,-356 220.98,-323.45 210.55,-307.61 230,-280 264.28,-231.35 667.43,-112.48 790.53,-77.1"/>
<polygon fill="midnightblue" stroke="midnightblue" points="791.59,-80.44 800.23,-74.31 789.66,-73.71 791.59,-80.44"/>
</g>
<!-- Node25 -->
<g id="node25" class="node">
<title>Node25</title>
<g id="a_node25"><a xlink:href="_flag_8h.html" target="_top" xlink:title=" ">
<polygon fill="white" stroke="black" points="239.5,-336.5 239.5,-355.5 282.5,-355.5 282.5,-336.5 239.5,-336.5"/>
<text text-anchor="middle" x="261" y="-343.5" font-family="Helvetica,sans-Serif" font-size="10.00">Flag.h</text>
</a>
</g>
</g>
<!-- Node24&#45;&gt;Node25 -->
<g id="edge26" class="edge">
<title>Node24&#45;&gt;Node25</title>
<path fill="none" stroke="midnightblue" d="M257.66,-392.08C258.18,-385.01 258.94,-374.86 259.59,-365.99"/>
<polygon fill="midnightblue" stroke="midnightblue" points="263.1,-365.98 260.35,-355.75 256.12,-365.47 263.1,-365.98"/>
</g>
<!-- Node25&#45;&gt;Node5 -->
<g id="edge28" class="edge">
<title>Node25&#45;&gt;Node5</title>
<path fill="none" stroke="midnightblue" d="M260.83,-336.08C260.7,-329.01 260.52,-318.86 260.35,-309.99"/>
<polygon fill="midnightblue" stroke="midnightblue" points="263.85,-309.68 260.16,-299.75 256.85,-309.81 263.85,-309.68"/>
</g>
<!-- Node25&#45;&gt;Node22 -->
<g id="edge27" class="edge">
<title>Node25&#45;&gt;Node22</title>
<path fill="none" stroke="midnightblue" d="M274.1,-336.37C302.76,-317.49 371.24,-272.38 406.39,-249.24"/>
<polygon fill="midnightblue" stroke="midnightblue" points="408.53,-252.02 414.96,-243.59 404.68,-246.17 408.53,-252.02"/>
</g>
<!-- Node26&#45;&gt;Node21 -->
<g id="edge36" class="edge">
<title>Node26&#45;&gt;Node21</title>
<path fill="none" stroke="midnightblue" d="M463.57,-453.98C464.14,-445.58 465.02,-432.48 465.75,-421.66"/>
<polygon fill="midnightblue" stroke="midnightblue" points="469.25,-421.72 466.43,-411.51 462.26,-421.25 469.25,-421.72"/>
</g>
<!-- Node26&#45;&gt;Node22 -->
<g id="edge35" class="edge">
<title>Node26&#45;&gt;Node22</title>
<path fill="none" stroke="midnightblue" d="M452.58,-453.71C442.55,-444.5 428.04,-429.03 422,-412 402.59,-357.31 415.06,-287.05 422.96,-253.91"/>
<polygon fill="midnightblue" stroke="midnightblue" points="426.45,-254.37 425.5,-243.82 419.66,-252.66 426.45,-254.37"/>
</g>
<!-- Node27&#45;&gt;Node18 -->
<g id="edge38" class="edge">
<title>Node27&#45;&gt;Node18</title>
<path fill="none" stroke="midnightblue" d="M1169,-224.37C1169,-206.62 1169,-165.67 1169,-141.6"/>
<polygon fill="midnightblue" stroke="midnightblue" points="1172.5,-141.59 1169,-131.59 1165.5,-141.59 1172.5,-141.59"/>
</g>
<!-- Node28&#45;&gt;Node11 -->
<g id="edge41" class="edge">
<title>Node28&#45;&gt;Node11</title>
<path fill="none" stroke="midnightblue" d="M1121.4,-336.41C1123.09,-323.38 1124.63,-298.21 1115,-280 1103.03,-257.36 1088.88,-261.31 1070,-244 1052.86,-228.29 1034.66,-208.84 1022.45,-195.33"/>
<polygon fill="midnightblue" stroke="midnightblue" points="1024.96,-192.88 1015.68,-187.77 1019.74,-197.55 1024.96,-192.88"/>
</g>
<!-- Node28&#45;&gt;Node12 -->
<g id="edge40" class="edge">
<title>Node28&#45;&gt;Node12</title>
<path fill="none" stroke="midnightblue" d="M1124.32,-336.38C1130.05,-323.74 1138.7,-299.54 1132,-280 1125.42,-260.83 1115.65,-260.59 1104,-244 1081.04,-211.3 1081.44,-198.8 1056,-168 1047.11,-157.24 1035.77,-146.5 1026.34,-138.21"/>
<polygon fill="midnightblue" stroke="midnightblue" points="1028.53,-135.47 1018.66,-131.62 1023.97,-140.79 1028.53,-135.47"/>
</g>
<!-- Node29 -->
<g id="node29" class="node">
<title>Node29</title>
<g id="a_node29"><a xlink:href="_network_manager_8h.html" target="_top" xlink:title=" ">
<polygon fill="white" stroke="black" points="976,-280.5 976,-299.5 1106,-299.5 1106,-280.5 976,-280.5"/>
<text text-anchor="middle" x="1041" y="-287.5" font-family="Helvetica,sans-Serif" font-size="10.00">engine/NetworkManager.h</text>
</a>
</g>
</g>
<!-- Node28&#45;&gt;Node29 -->
<g id="edge42" class="edge">
<title>Node28&#45;&gt;Node29</title>
<path fill="none" stroke="midnightblue" d="M1107.31,-336.32C1095.1,-327.98 1076.42,-315.21 1062,-305.35"/>
<polygon fill="midnightblue" stroke="midnightblue" points="1063.89,-302.41 1053.66,-299.65 1059.94,-308.19 1063.89,-302.41"/>
</g>
<!-- Node31 -->
<g id="node31" class="node">
<title>Node31</title>
<g id="a_node31"><a xlink:title=" ">
<polygon fill="white" stroke="#bfbfbf" points="908.5,-280.5 908.5,-299.5 957.5,-299.5 957.5,-280.5 908.5,-280.5"/>
<text text-anchor="middle" x="933" y="-287.5" font-family="Helvetica,sans-Serif" font-size="10.00">random</text>
</a>
</g>
</g>
<!-- Node28&#45;&gt;Node31 -->
<g id="edge47" class="edge">
<title>Node28&#45;&gt;Node31</title>
<path fill="none" stroke="midnightblue" d="M1090.37,-336.44C1057,-326.81 1002.84,-311.17 967.57,-300.98"/>
<polygon fill="midnightblue" stroke="midnightblue" points="968.29,-297.55 957.71,-298.14 966.35,-304.27 968.29,-297.55"/>
</g>
<!-- Node29&#45;&gt;Node11 -->
<g id="edge43" class="edge">
<title>Node29&#45;&gt;Node11</title>
<path fill="none" stroke="midnightblue" d="M1038.41,-280.37C1033.06,-262.54 1020.69,-221.3 1013.48,-197.27"/>
<polygon fill="midnightblue" stroke="midnightblue" points="1016.8,-196.16 1010.58,-187.59 1010.1,-198.18 1016.8,-196.16"/>
</g>
<!-- Node29&#45;&gt;Node22 -->
<g id="edge45" class="edge">
<title>Node29&#45;&gt;Node22</title>
<path fill="none" stroke="midnightblue" d="M975.65,-280.92C972.72,-280.6 969.83,-280.29 967,-280 775.04,-260.32 543.96,-243.24 460.25,-237.27"/>
<polygon fill="midnightblue" stroke="midnightblue" points="460.33,-233.76 450.1,-236.54 459.83,-240.75 460.33,-233.76"/>
</g>
<!-- Node29&#45;&gt;Node27 -->
<g id="edge44" class="edge">
<title>Node29&#45;&gt;Node27</title>
<path fill="none" stroke="midnightblue" d="M1061.28,-280.44C1082.35,-271.56 1115.52,-257.56 1139.49,-247.45"/>
<polygon fill="midnightblue" stroke="midnightblue" points="1140.96,-250.63 1148.81,-243.52 1138.24,-244.18 1140.96,-250.63"/>
</g>
<!-- Node30 -->
<g id="node30" class="node">
<title>Node30</title>
<g id="a_node30"><a xlink:title=" ">
<polygon fill="white" stroke="#bfbfbf" points="908.5,-224.5 908.5,-243.5 979.5,-243.5 979.5,-224.5 908.5,-224.5"/>
<text text-anchor="middle" x="944" y="-231.5" font-family="Helvetica,sans-Serif" font-size="10.00">sys/socket.h</text>
</a>
</g>
</g>
<!-- Node29&#45;&gt;Node30 -->
<g id="edge46" class="edge">
<title>Node29&#45;&gt;Node30</title>
<path fill="none" stroke="midnightblue" d="M1025.42,-280.32C1010,-271.74 986.19,-258.49 968.29,-248.52"/>
<polygon fill="midnightblue" stroke="midnightblue" points="969.99,-245.46 959.55,-243.65 966.58,-251.58 969.99,-245.46"/>
</g>
<!-- Node32&#45;&gt;Node6 -->
<g id="edge50" class="edge">
<title>Node32&#45;&gt;Node6</title>
<path fill="none" stroke="midnightblue" d="M1386.89,-473.02C1349.69,-495.18 1245.33,-555.4 1152,-591 1113.32,-605.76 1067.91,-617.51 1033.76,-625.29"/>
<polygon fill="midnightblue" stroke="midnightblue" points="1032.99,-621.88 1023.99,-627.48 1034.52,-628.71 1032.99,-621.88"/>
</g>
<!-- Node32&#45;&gt;Node7 -->
<g id="edge51" class="edge">
<title>Node32&#45;&gt;Node7</title>
<path fill="none" stroke="midnightblue" d="M1363,-473.04C1350.89,-475.16 1337.46,-477.3 1325,-479 1185.31,-498.05 1019.61,-512.97 934.13,-519.85"/>
<polygon fill="midnightblue" stroke="midnightblue" points="933.8,-516.36 924.11,-520.65 934.36,-523.34 933.8,-516.36"/>
</g>
<!-- Node32&#45;&gt;Node18 -->
<g id="edge49" class="edge">
<title>Node32&#45;&gt;Node18</title>
<path fill="none" stroke="midnightblue" d="M1399.61,-453.83C1396.65,-434.64 1390,-387.08 1390,-347 1390,-347 1390,-347 1390,-233 1390,-157.74 1286.01,-133.97 1220.7,-126.46"/>
<polygon fill="midnightblue" stroke="midnightblue" points="1220.88,-122.96 1210.57,-125.39 1220.15,-129.93 1220.88,-122.96"/>
</g>
<!-- Node34 -->
<g id="node34" class="node">
<title>Node34</title>
<g id="a_node34"><a xlink:href="_factory_8h.html" target="_top" xlink:title=" ">
<polygon fill="white" stroke="black" points="615,-336.5 615,-355.5 671,-355.5 671,-336.5 615,-336.5"/>
<text text-anchor="middle" x="643" y="-343.5" font-family="Helvetica,sans-Serif" font-size="10.00">Factory.h</text>
</a>
</g>
</g>
<!-- Node33&#45;&gt;Node34 -->
<g id="edge53" class="edge">
<title>Node33&#45;&gt;Node34</title>
<path fill="none" stroke="midnightblue" d="M741.46,-392.44C722.38,-383.64 692.43,-369.81 670.56,-359.72"/>
<polygon fill="midnightblue" stroke="midnightblue" points="672,-356.53 661.45,-355.52 669.07,-362.88 672,-356.53"/>
</g>
<!-- Node34&#45;&gt;Node2 -->
<g id="edge56" class="edge">
<title>Node34&#45;&gt;Node2</title>
<path fill="none" stroke="midnightblue" d="M635.68,-355.77C616.76,-378.09 564.1,-438.18 512,-479 411.25,-557.92 357.49,-538.55 265,-627 250.68,-640.7 238.67,-659.99 231.02,-674"/>
<polygon fill="midnightblue" stroke="midnightblue" points="227.78,-672.63 226.24,-683.11 233.98,-675.88 227.78,-672.63"/>
</g>
<!-- Node34&#45;&gt;Node5 -->
<g id="edge54" class="edge">
<title>Node34&#45;&gt;Node5</title>
<path fill="none" stroke="midnightblue" d="M614.84,-341.03C544.86,-331.16 363.5,-305.59 290.81,-295.34"/>
<polygon fill="midnightblue" stroke="midnightblue" points="291.29,-291.88 280.89,-293.95 290.31,-298.81 291.29,-291.88"/>
</g>
<!-- Node34&#45;&gt;Node7 -->
<g id="edge55" class="edge">
<title>Node34&#45;&gt;Node7</title>
<path fill="none" stroke="midnightblue" d="M649.07,-355.59C665.66,-378.53 714.16,-442 768,-479 789.22,-493.58 815.89,-504.69 837.54,-512.23"/>
<polygon fill="midnightblue" stroke="midnightblue" points="836.5,-515.57 847.09,-515.44 838.73,-508.94 836.5,-515.57"/>
</g>
<!-- Node34&#45;&gt;Node11 -->
<g id="edge57" class="edge">
<title>Node34&#45;&gt;Node11</title>
<path fill="none" stroke="midnightblue" d="M614.81,-339.91C575.75,-331.56 512.41,-312.54 535,-280 583.18,-210.58 847.94,-187.89 958.97,-181.36"/>
<polygon fill="midnightblue" stroke="midnightblue" points="959.44,-184.84 969.23,-180.77 959.04,-177.85 959.44,-184.84"/>
</g>
<!-- Node35&#45;&gt;Node33 -->
<g id="edge74" class="edge">
<title>Node35&#45;&gt;Node33</title>
<path fill="none" stroke="midnightblue" d="M840.53,-453.98C825.32,-444.34 800.31,-428.52 782.2,-417.05"/>
<polygon fill="midnightblue" stroke="midnightblue" points="783.76,-413.9 773.44,-411.51 780.02,-419.81 783.76,-413.9"/>
</g>
<!-- Node36 -->
<g id="node36" class="node">
<title>Node36</title>
<g id="a_node36"><a xlink:href="_squad_template_8h.html" target="_top" xlink:title=" ">
<polygon fill="white" stroke="black" points="808,-392.5 808,-411.5 900,-411.5 900,-392.5 808,-392.5"/>
<text text-anchor="middle" x="854" y="-399.5" font-family="Helvetica,sans-Serif" font-size="10.00">SquadTemplate.h</text>
</a>
</g>
</g>
<!-- Node35&#45;&gt;Node36 -->
<g id="edge59" class="edge">
<title>Node35&#45;&gt;Node36</title>
<path fill="none" stroke="midnightblue" d="M854,-453.98C854,-445.58 854,-432.48 854,-421.66"/>
<polygon fill="midnightblue" stroke="midnightblue" points="857.5,-421.51 854,-411.51 850.5,-421.51 857.5,-421.51"/>
</g>
<!-- Node36&#45;&gt;Node22 -->
<g id="edge60" class="edge">
<title>Node36&#45;&gt;Node22</title>
<path fill="none" stroke="midnightblue" d="M819.54,-392.45C790.46,-384.67 748.08,-371.96 713,-356 697.39,-348.9 695.84,-342.59 680,-336 618.69,-310.5 596.3,-325.53 535,-300 502.67,-286.53 468.64,-264.26 447.86,-249.61"/>
<polygon fill="midnightblue" stroke="midnightblue" points="449.73,-246.64 439.56,-243.66 445.65,-252.33 449.73,-246.64"/>
</g>
<!-- Node36&#45;&gt;Node34 -->
<g id="edge61" class="edge">
<title>Node36&#45;&gt;Node34</title>
<path fill="none" stroke="midnightblue" d="M820.57,-392.44C782.62,-382.73 720.84,-366.92 681.07,-356.74"/>
<polygon fill="midnightblue" stroke="midnightblue" points="681.77,-353.31 671.21,-354.22 680.03,-360.09 681.77,-353.31"/>
</g>
<!-- Node37 -->
<g id="node37" class="node">
<title>Node37</title>
<g id="a_node37"><a xlink:href="_gui_list_8h.html" target="_top" xlink:title=" ">
<polygon fill="white" stroke="black" points="544,-280.5 544,-299.5 652,-299.5 652,-280.5 544,-280.5"/>
<text text-anchor="middle" x="598" y="-287.5" font-family="Helvetica,sans-Serif" font-size="10.00">engine/GUI/GuiList.h</text>
</a>
</g>
</g>
<!-- Node36&#45;&gt;Node37 -->
<g id="edge62" class="edge">
<title>Node36&#45;&gt;Node37</title>
<path fill="none" stroke="midnightblue" d="M835.2,-392.4C815.46,-383.36 783.53,-368.72 756,-356 736.87,-347.16 732.38,-344.29 713,-336 685.4,-324.2 653.6,-311.84 630.44,-303.07"/>
<polygon fill="midnightblue" stroke="midnightblue" points="631.67,-299.8 621.08,-299.55 629.2,-306.35 631.67,-299.8"/>
</g>
<!-- Node39 -->
<g id="node39" class="node">
<title>Node39</title>
<g id="a_node39"><a xlink:href="_gui_scroll_8h.html" target="_top" xlink:title=" ">
<polygon fill="white" stroke="black" points="765,-336.5 765,-355.5 881,-355.5 881,-336.5 765,-336.5"/>
<text text-anchor="middle" x="823" y="-343.5" font-family="Helvetica,sans-Serif" font-size="10.00">engine/GUI/GuiScroll.h</text>
</a>
</g>
</g>
<!-- Node36&#45;&gt;Node39 -->
<g id="edge66" class="edge">
<title>Node36&#45;&gt;Node39</title>
<path fill="none" stroke="midnightblue" d="M848.88,-392.08C844.59,-384.61 838.34,-373.72 833.06,-364.52"/>
<polygon fill="midnightblue" stroke="midnightblue" points="836.04,-362.68 828.02,-355.75 829.97,-366.17 836.04,-362.68"/>
</g>
<!-- Node40 -->
<g id="node40" class="node">
<title>Node40</title>
<g id="a_node40"><a xlink:href="_button_8h.html" target="_top" xlink:title=" ">
<polygon fill="white" stroke="black" points="708.5,-280.5 708.5,-299.5 813.5,-299.5 813.5,-280.5 708.5,-280.5"/>
<text text-anchor="middle" x="761" y="-287.5" font-family="Helvetica,sans-Serif" font-size="10.00">engine/GUI/Button.h</text>
</a>
</g>
</g>
<!-- Node36&#45;&gt;Node40 -->
<g id="edge69" class="edge">
<title>Node36&#45;&gt;Node40</title>
<path fill="none" stroke="midnightblue" d="M865.19,-392.22C880.19,-379.38 903.45,-354.93 890,-336 880.38,-322.46 842.7,-310.27 810.52,-302"/>
<polygon fill="midnightblue" stroke="midnightblue" points="811.3,-298.59 800.75,-299.57 809.61,-305.38 811.3,-298.59"/>
</g>
<!-- Node36&#45;&gt;Node41 -->
<g id="edge71" class="edge">
<title>Node36&#45;&gt;Node41</title>
<path fill="none" stroke="midnightblue" d="M875.39,-392.44C897.71,-383.52 932.9,-369.44 958.21,-359.32"/>
<polygon fill="midnightblue" stroke="midnightblue" points="959.72,-362.48 967.71,-355.52 957.12,-355.98 959.72,-362.48"/>
</g>
<!-- Node37&#45;&gt;Node22 -->
<g id="edge65" class="edge">
<title>Node37&#45;&gt;Node22</title>
<path fill="none" stroke="midnightblue" d="M571.06,-280.44C540.9,-270.86 492.06,-255.35 459.99,-245.16"/>
<polygon fill="midnightblue" stroke="midnightblue" points="460.8,-241.75 450.21,-242.05 458.68,-248.42 460.8,-241.75"/>
</g>
<!-- Node38 -->
<g id="node38" class="node">
<title>Node38</title>
<g id="a_node38"><a xlink:href="_gui_object_8h.html" target="_top" xlink:title=" ">
<polygon fill="white" stroke="black" points="694,-224.5 694,-243.5 814,-243.5 814,-224.5 694,-224.5"/>
<text text-anchor="middle" x="754" y="-231.5" font-family="Helvetica,sans-Serif" font-size="10.00">engine/GUI/GuiObject.h</text>
</a>
</g>
</g>
<!-- Node37&#45;&gt;Node38 -->
<g id="edge63" class="edge">
<title>Node37&#45;&gt;Node38</title>
<path fill="none" stroke="midnightblue" d="M622.72,-280.44C648.85,-271.4 690.26,-257.06 719.58,-246.92"/>
<polygon fill="midnightblue" stroke="midnightblue" points="721.09,-250.1 729.4,-243.52 718.8,-243.48 721.09,-250.1"/>
</g>
<!-- Node38&#45;&gt;Node11 -->
<g id="edge64" class="edge">
<title>Node38&#45;&gt;Node11</title>
<path fill="none" stroke="midnightblue" d="M794.25,-224.44C839.04,-214.92 911.42,-199.53 959.35,-189.34"/>
<polygon fill="midnightblue" stroke="midnightblue" points="960.14,-192.75 969.19,-187.25 958.68,-185.91 960.14,-192.75"/>
</g>
<!-- Node39&#45;&gt;Node12 -->
<g id="edge68" class="edge">
<title>Node39&#45;&gt;Node12</title>
<path fill="none" stroke="midnightblue" d="M767.6,-336.48C743.8,-330.14 717.5,-319.13 700,-300 676.76,-274.6 664.42,-251.6 685,-224 718.54,-179.02 752.4,-204.59 806,-188 870.34,-168.08 945.8,-143.46 983.69,-131.02"/>
<polygon fill="midnightblue" stroke="midnightblue" points="984.93,-134.29 993.33,-127.84 982.74,-127.64 984.93,-134.29"/>
</g>
<!-- Node39&#45;&gt;Node37 -->
<g id="edge67" class="edge">
<title>Node39&#45;&gt;Node37</title>
<path fill="none" stroke="midnightblue" d="M787.35,-336.44C748.34,-327.08 685.73,-312.06 643.28,-301.87"/>
<polygon fill="midnightblue" stroke="midnightblue" points="644.03,-298.45 633.49,-299.52 642.39,-305.25 644.03,-298.45"/>
</g>
<!-- Node40&#45;&gt;Node38 -->
<g id="edge70" class="edge">
<title>Node40&#45;&gt;Node38</title>
<path fill="none" stroke="midnightblue" d="M759.84,-280.08C758.92,-272.93 757.58,-262.64 756.42,-253.69"/>
<polygon fill="midnightblue" stroke="midnightblue" points="759.89,-253.22 755.13,-243.75 752.95,-254.12 759.89,-253.22"/>
</g>
<!-- Node41&#45;&gt;Node14 -->
<g id="edge73" class="edge">
<title>Node41&#45;&gt;Node14</title>
<path fill="none" stroke="midnightblue" d="M943.56,-336.46C918.47,-329.9 888.03,-318.68 866,-300 836.4,-274.9 843.14,-257.18 823,-224 791.63,-172.32 752.01,-112.87 732.68,-84.21"/>
<polygon fill="midnightblue" stroke="midnightblue" points="735.44,-82.06 726.94,-75.73 729.65,-85.98 735.44,-82.06"/>
</g>
<!-- Node41&#45;&gt;Node16 -->
<g id="edge72" class="edge">
<title>Node41&#45;&gt;Node16</title>
<path fill="none" stroke="midnightblue" d="M958.67,-336.47C939.35,-329.58 915.18,-318 900,-300 880.51,-276.89 880,-265.23 880,-235 880,-235 880,-235 880,-121 880,-38.83 1002.61,-18.03 1066.81,-12.77"/>
<polygon fill="midnightblue" stroke="midnightblue" points="1067.24,-16.25 1076.96,-12.03 1066.73,-9.27 1067.24,-16.25"/>
</g>
<!-- Node42&#45;&gt;Node6 -->
<g id="edge79" class="edge">
<title>Node42&#45;&gt;Node6</title>
<path fill="none" stroke="midnightblue" d="M987.13,-590.75C988.66,-597.86 989.1,-608.14 988.47,-617.1"/>
<polygon fill="midnightblue" stroke="midnightblue" points="984.99,-616.71 987.17,-627.08 991.93,-617.62 984.99,-616.71"/>
</g>
<!-- Node42&#45;&gt;Node7 -->
<g id="edge80" class="edge">
<title>Node42&#45;&gt;Node7</title>
<path fill="none" stroke="midnightblue" d="M965.13,-571.32C948.29,-562.66 922.19,-549.24 902.76,-539.25"/>
<polygon fill="midnightblue" stroke="midnightblue" points="904.32,-536.12 893.83,-534.65 901.12,-542.34 904.32,-536.12"/>
</g>
<!-- Node43&#45;&gt;Node13 -->
<g id="edge86" class="edge">
<title>Node43&#45;&gt;Node13</title>
<path fill="none" stroke="midnightblue" d="M79.11,-280.34C65.86,-267.64 45.28,-243.37 57,-224 90.19,-169.17 163.05,-143.36 212.59,-131.76"/>
<polygon fill="midnightblue" stroke="midnightblue" points="213.48,-135.15 222.48,-129.56 211.95,-128.31 213.48,-135.15"/>
</g>
<!-- Node43&#45;&gt;Node22 -->
<g id="edge87" class="edge">
<title>Node43&#45;&gt;Node22</title>
<path fill="none" stroke="midnightblue" d="M139.75,-280.92C210.49,-269.65 336.7,-249.54 395.8,-240.13"/>
<polygon fill="midnightblue" stroke="midnightblue" points="396.37,-243.58 405.69,-238.55 395.27,-236.67 396.37,-243.58"/>
</g>
<!-- Node44 -->
<g id="node44" class="node">
<title>Node44</title>
<g id="a_node44"><a xlink:title=" ">
<polygon fill="white" stroke="#bfbfbf" points="66.5,-224.5 66.5,-243.5 149.5,-243.5 149.5,-224.5 66.5,-224.5"/>
<text text-anchor="middle" x="108" y="-231.5" font-family="Helvetica,sans-Serif" font-size="10.00">unordered_map</text>
</a>
</g>
</g>
<!-- Node43&#45;&gt;Node44 -->
<g id="edge88" class="edge">
<title>Node43&#45;&gt;Node44</title>
<path fill="none" stroke="midnightblue" d="M92.14,-280.08C94.68,-272.85 98.36,-262.41 101.53,-253.4"/>
<polygon fill="midnightblue" stroke="midnightblue" points="104.9,-254.35 104.92,-243.75 98.3,-252.02 104.9,-254.35"/>
</g>
</g>
</svg>
