<?xml version="1.0" encoding="UTF-8" standalone="no"?>
<!DOCTYPE svg PUBLIC "-//W3C//DTD SVG 1.1//EN"
 "http://www.w3.org/Graphics/SVG/1.1/DTD/svg11.dtd">
<!-- Generated by graphviz version 2.47.1 (20210421.1823)
 -->
<!-- Title: include/GameLogic/Units/UnitOrder.h Pages: 1 -->
<svg width="1451pt" height="575pt"
 viewBox="0.00 0.00 1451.44 575.00" xmlns="http://www.w3.org/2000/svg" xmlns:xlink="http://www.w3.org/1999/xlink">
<g id="graph0" class="graph" transform="scale(1 1) rotate(0) translate(4 571)">
<title>include/GameLogic/Units/UnitOrder.h</title>
<polygon fill="white" stroke="transparent" points="-4,4 -4,-571 1447.44,-571 1447.44,4 -4,4"/>
<!-- Node1 -->
<g id="node1" class="node">
<title>Node1</title>
<g id="a_node1"><a xlink:title=" ">
<polygon fill="#bfbfbf" stroke="black" points="323.5,-536.5 323.5,-566.5 450.5,-566.5 450.5,-536.5 323.5,-536.5"/>
<text text-anchor="start" x="331.5" y="-554.5" font-family="Helvetica,sans-Serif" font-size="10.00">include/GameLogic/Units</text>
<text text-anchor="middle" x="387" y="-543.5" font-family="Helvetica,sans-Serif" font-size="10.00">/UnitOrder.h</text>
</a>
</g>
</g>
<!-- Node2 -->
<g id="node2" class="node">
<title>Node2</title>
<g id="a_node2"><a xlink:href="_unit_8cpp.html" target="_top" xlink:title=" ">
<polygon fill="white" stroke="black" points="0,-402.5 0,-432.5 110,-432.5 110,-402.5 0,-402.5"/>
<text text-anchor="start" x="8" y="-420.5" font-family="Helvetica,sans-Serif" font-size="10.00">src/GameLogic/Units</text>
<text text-anchor="middle" x="55" y="-409.5" font-family="Helvetica,sans-Serif" font-size="10.00">/Unit.cpp</text>
</a>
</g>
</g>
<!-- Node1&#45;&gt;Node2 -->
<g id="edge1" class="edge">
<title>Node1&#45;&gt;Node2</title>
<path fill="none" stroke="midnightblue" d="M342.37,-532.76C275.64,-506.23 151.21,-456.75 90.35,-432.56"/>
<polygon fill="midnightblue" stroke="midnightblue" points="341.2,-536.06 351.78,-536.5 343.79,-529.55 341.2,-536.06"/>
</g>
<!-- Node3 -->
<g id="node3" class="node">
<title>Node3</title>
<g id="a_node3"><a xlink:href="_unit_order_8cpp.html" target="_top" xlink:title=" ">
<polygon fill="white" stroke="black" points="469,-469.5 469,-499.5 579,-499.5 579,-469.5 469,-469.5"/>
<text text-anchor="start" x="477" y="-487.5" font-family="Helvetica,sans-Serif" font-size="10.00">src/GameLogic/Units</text>
<text text-anchor="middle" x="524" y="-476.5" font-family="Helvetica,sans-Serif" font-size="10.00">/UnitOrder.cpp</text>
</a>
</g>
</g>
<!-- Node1&#45;&gt;Node3 -->
<g id="edge2" class="edge">
<title>Node1&#45;&gt;Node3</title>
<path fill="none" stroke="midnightblue" d="M426.01,-531.99C447.72,-521.69 474.33,-509.07 494.33,-499.58"/>
<polygon fill="midnightblue" stroke="midnightblue" points="424.26,-528.95 416.73,-536.4 427.26,-535.27 424.26,-528.95"/>
</g>
<!-- Node4 -->
<g id="node4" class="node">
<title>Node4</title>
<g id="a_node4"><a xlink:href="_squad_order_8h.html" target="_top" xlink:title=" ">
<polygon fill="white" stroke="black" points="128.5,-402.5 128.5,-432.5 259.5,-432.5 259.5,-402.5 128.5,-402.5"/>
<text text-anchor="start" x="136.5" y="-420.5" font-family="Helvetica,sans-Serif" font-size="10.00">include/GameLogic/Squad</text>
<text text-anchor="middle" x="194" y="-409.5" font-family="Helvetica,sans-Serif" font-size="10.00">/SquadOrder.h</text>
</a>
</g>
</g>
<!-- Node1&#45;&gt;Node4 -->
<g id="edge3" class="edge">
<title>Node1&#45;&gt;Node4</title>
<path fill="none" stroke="midnightblue" d="M357.94,-530.62C318.48,-503.64 248.94,-456.08 214.51,-432.52"/>
<polygon fill="midnightblue" stroke="midnightblue" points="356.12,-533.62 366.35,-536.37 360.07,-527.84 356.12,-533.62"/>
</g>
<!-- Node6 -->
<g id="node6" class="node">
<title>Node6</title>
<g id="a_node6"><a xlink:href="_unit_8h.html" target="_top" xlink:title=" ">
<polygon fill="white" stroke="black" points="323.5,-469.5 323.5,-499.5 450.5,-499.5 450.5,-469.5 323.5,-469.5"/>
<text text-anchor="start" x="331.5" y="-487.5" font-family="Helvetica,sans-Serif" font-size="10.00">include/GameLogic/Units</text>
<text text-anchor="middle" x="387" y="-476.5" font-family="Helvetica,sans-Serif" font-size="10.00">/Unit.h</text>
</a>
</g>
</g>
<!-- Node1&#45;&gt;Node6 -->
<g id="edge5" class="edge">
<title>Node1&#45;&gt;Node6</title>
<path fill="none" stroke="midnightblue" d="M380.45,-526.4C380.01,-517.37 380.3,-507.41 381.33,-499.58"/>
<polygon fill="midnightblue" stroke="midnightblue" points="376.97,-526.74 381.32,-536.4 383.94,-526.13 376.97,-526.74"/>
</g>
<!-- Node5 -->
<g id="node5" class="node">
<title>Node5</title>
<g id="a_node5"><a xlink:href="_squad_order_8cpp.html" target="_top" xlink:title=" ">
<polygon fill="white" stroke="black" points="34,-335.5 34,-365.5 148,-365.5 148,-335.5 34,-335.5"/>
<text text-anchor="start" x="42" y="-353.5" font-family="Helvetica,sans-Serif" font-size="10.00">src/GameLogic/Squad</text>
<text text-anchor="middle" x="91" y="-342.5" font-family="Helvetica,sans-Serif" font-size="10.00">/SquadOrder.cpp</text>
</a>
</g>
</g>
<!-- Node4&#45;&gt;Node5 -->
<g id="edge4" class="edge">
<title>Node4&#45;&gt;Node5</title>
<path fill="none" stroke="midnightblue" d="M163.12,-397.02C147.1,-386.9 127.87,-374.77 113.31,-365.58"/>
<polygon fill="midnightblue" stroke="midnightblue" points="161.33,-400.02 171.65,-402.4 165.06,-394.1 161.33,-400.02"/>
</g>
<!-- Node6&#45;&gt;Node1 -->
<g id="edge63" class="edge">
<title>Node6&#45;&gt;Node1</title>
<path fill="none" stroke="midnightblue" d="M393.54,-509.57C393.99,-518.6 393.71,-528.56 392.68,-536.4"/>
<polygon fill="midnightblue" stroke="midnightblue" points="397.03,-509.24 392.67,-499.58 390.05,-509.84 397.03,-509.24"/>
</g>
<!-- Node6&#45;&gt;Node2 -->
<g id="edge6" class="edge">
<title>Node6&#45;&gt;Node2</title>
<path fill="none" stroke="midnightblue" d="M313.09,-470.32C259.19,-460.53 184.44,-446.57 119,-433 116.1,-432.4 113.13,-431.77 110.13,-431.12"/>
<polygon fill="midnightblue" stroke="midnightblue" points="312.78,-473.82 323.25,-472.16 314.03,-466.94 312.78,-473.82"/>
</g>
<!-- Node6&#45;&gt;Node4 -->
<g id="edge51" class="edge">
<title>Node6&#45;&gt;Node4</title>
<path fill="none" stroke="midnightblue" d="M335.31,-466.09C304.16,-455.6 264.99,-442.41 235.8,-432.58"/>
<polygon fill="midnightblue" stroke="midnightblue" points="334.53,-469.52 345.12,-469.4 336.76,-462.89 334.53,-469.52"/>
</g>
<!-- Node7 -->
<g id="node7" class="node">
<title>Node7</title>
<g id="a_node7"><a xlink:href="_squad_8h.html" target="_top" xlink:title=" ">
<polygon fill="white" stroke="black" points="1066.5,-402.5 1066.5,-432.5 1197.5,-432.5 1197.5,-402.5 1066.5,-402.5"/>
<text text-anchor="start" x="1074.5" y="-420.5" font-family="Helvetica,sans-Serif" font-size="10.00">include/GameLogic/Squad</text>
<text text-anchor="middle" x="1132" y="-409.5" font-family="Helvetica,sans-Serif" font-size="10.00">/Squad.h</text>
</a>
</g>
</g>
<!-- Node6&#45;&gt;Node7 -->
<g id="edge7" class="edge">
<title>Node6&#45;&gt;Node7</title>
<path fill="none" stroke="midnightblue" d="M457.55,-468.14C683.16,-438.02 946.24,-425.14 1066.39,-420.59"/>
<polygon fill="midnightblue" stroke="midnightblue" points="456.96,-464.69 447.52,-469.49 457.9,-471.62 456.96,-464.69"/>
</g>
<!-- Node17 -->
<g id="node17" class="node">
<title>Node17</title>
<g id="a_node17"><a xlink:href="_factory_8h.html" target="_top" xlink:title=" ">
<polygon fill="white" stroke="black" points="590.5,-201.5 590.5,-231.5 717.5,-231.5 717.5,-201.5 590.5,-201.5"/>
<text text-anchor="start" x="598.5" y="-219.5" font-family="Helvetica,sans-Serif" font-size="10.00">include/GameLogic/Units</text>
<text text-anchor="middle" x="654" y="-208.5" font-family="Helvetica,sans-Serif" font-size="10.00">/Factory.h</text>
</a>
</g>
</g>
<!-- Node6&#45;&gt;Node17 -->
<g id="edge55" class="edge">
<title>Node6&#45;&gt;Node17</title>
<path fill="none" stroke="midnightblue" d="M460.49,-468.82C516.49,-457.14 585.84,-441.41 597,-433 661.61,-384.35 658.72,-271.5 655.48,-231.7"/>
<polygon fill="midnightblue" stroke="midnightblue" points="459.64,-465.42 450.56,-470.88 461.06,-472.28 459.64,-465.42"/>
</g>
<!-- Node34 -->
<g id="node34" class="node">
<title>Node34</title>
<g id="a_node34"><a xlink:href="_armored_unit_8h.html" target="_top" xlink:title=" ">
<polygon fill="white" stroke="black" points="332.5,-335.5 332.5,-365.5 459.5,-365.5 459.5,-335.5 332.5,-335.5"/>
<text text-anchor="start" x="340.5" y="-353.5" font-family="Helvetica,sans-Serif" font-size="10.00">include/GameLogic/Units</text>
<text text-anchor="middle" x="396" y="-342.5" font-family="Helvetica,sans-Serif" font-size="10.00">/ArmoredUnit.h</text>
</a>
</g>
</g>
<!-- Node6&#45;&gt;Node34 -->
<g id="edge52" class="edge">
<title>Node6&#45;&gt;Node34</title>
<path fill="none" stroke="midnightblue" d="M401.77,-460.47C406.31,-452.15 410.71,-442.47 413,-433 418.68,-409.54 409.72,-382.01 402.8,-365.7"/>
<polygon fill="midnightblue" stroke="midnightblue" points="398.7,-458.8 396.7,-469.21 404.75,-462.32 398.7,-458.8"/>
</g>
<!-- Node36 -->
<g id="node36" class="node">
<title>Node36</title>
<g id="a_node36"><a xlink:href="_land_unit_8h.html" target="_top" xlink:title=" ">
<polygon fill="white" stroke="black" points="461.5,-402.5 461.5,-432.5 588.5,-432.5 588.5,-402.5 461.5,-402.5"/>
<text text-anchor="start" x="469.5" y="-420.5" font-family="Helvetica,sans-Serif" font-size="10.00">include/GameLogic/Units</text>
<text text-anchor="middle" x="525" y="-409.5" font-family="Helvetica,sans-Serif" font-size="10.00">/LandUnit.h</text>
</a>
</g>
</g>
<!-- Node6&#45;&gt;Node36 -->
<g id="edge56" class="edge">
<title>Node6&#45;&gt;Node36</title>
<path fill="none" stroke="midnightblue" d="M426,-465.13C447.93,-454.8 474.87,-442.11 495.11,-432.58"/>
<polygon fill="midnightblue" stroke="midnightblue" points="424.5,-461.97 416.94,-469.4 427.48,-468.3 424.5,-461.97"/>
</g>
<!-- Node38 -->
<g id="node38" class="node">
<title>Node38</title>
<g id="a_node38"><a xlink:href="_transport_unit_8h.html" target="_top" xlink:title=" ">
<polygon fill="white" stroke="black" points="277.5,-402.5 277.5,-432.5 404.5,-432.5 404.5,-402.5 277.5,-402.5"/>
<text text-anchor="start" x="285.5" y="-420.5" font-family="Helvetica,sans-Serif" font-size="10.00">include/GameLogic/Units</text>
<text text-anchor="middle" x="341" y="-409.5" font-family="Helvetica,sans-Serif" font-size="10.00">/TransportUnit.h</text>
</a>
</g>
</g>
<!-- Node6&#45;&gt;Node38 -->
<g id="edge59" class="edge">
<title>Node6&#45;&gt;Node38</title>
<path fill="none" stroke="midnightblue" d="M371.19,-461.16C364.48,-451.68 356.87,-440.92 350.96,-432.58"/>
<polygon fill="midnightblue" stroke="midnightblue" points="368.38,-463.26 377.02,-469.4 374.1,-459.21 368.38,-463.26"/>
</g>
<!-- Node7&#45;&gt;Node6 -->
<g id="edge49" class="edge">
<title>Node7&#45;&gt;Node6</title>
<path fill="none" stroke="midnightblue" d="M1055.92,-421.45C932.32,-426.75 680.69,-440.13 469,-469 463.11,-469.8 456.98,-470.79 450.84,-471.86"/>
<polygon fill="midnightblue" stroke="midnightblue" points="1056.19,-424.94 1066.04,-421.03 1055.9,-417.95 1056.19,-424.94"/>
</g>
<!-- Node8 -->
<g id="node8" class="node">
<title>Node8</title>
<g id="a_node8"><a xlink:href="_squad_8cpp.html" target="_top" xlink:title=" ">
<polygon fill="white" stroke="black" points="1263,-67.5 1263,-97.5 1377,-97.5 1377,-67.5 1263,-67.5"/>
<text text-anchor="start" x="1271" y="-85.5" font-family="Helvetica,sans-Serif" font-size="10.00">src/GameLogic/Squad</text>
<text text-anchor="middle" x="1320" y="-74.5" font-family="Helvetica,sans-Serif" font-size="10.00">/Squad.cpp</text>
</a>
</g>
</g>
<!-- Node7&#45;&gt;Node8 -->
<g id="edge8" class="edge">
<title>Node7&#45;&gt;Node8</title>
<path fill="none" stroke="midnightblue" d="M1207.7,-415.94C1299.76,-410.79 1443,-386.41 1443,-284.5 1443,-284.5 1443,-284.5 1443,-215.5 1443,-177.98 1444.75,-163.05 1421,-134 1407.23,-117.15 1386.41,-105.42 1367.24,-97.54"/>
<polygon fill="midnightblue" stroke="midnightblue" points="1207.39,-412.45 1197.58,-416.44 1207.74,-419.44 1207.39,-412.45"/>
</g>
<!-- Node9 -->
<g id="node9" class="node">
<title>Node9</title>
<g id="a_node9"><a xlink:href="_set_squad_path_8h.html" target="_top" xlink:title=" ">
<polygon fill="white" stroke="black" points="981.5,-335.5 981.5,-365.5 1094.5,-365.5 1094.5,-335.5 981.5,-335.5"/>
<text text-anchor="start" x="989.5" y="-353.5" font-family="Helvetica,sans-Serif" font-size="10.00">include/engine/actions</text>
<text text-anchor="middle" x="1038" y="-342.5" font-family="Helvetica,sans-Serif" font-size="10.00">/SetSquadPath.h</text>
</a>
</g>
</g>
<!-- Node7&#45;&gt;Node9 -->
<g id="edge9" class="edge">
<title>Node7&#45;&gt;Node9</title>
<path fill="none" stroke="midnightblue" d="M1103.01,-396.45C1088.55,-386.45 1071.41,-374.6 1058.36,-365.58"/>
<polygon fill="midnightblue" stroke="midnightblue" points="1101.39,-399.59 1111.6,-402.4 1105.37,-393.83 1101.39,-399.59"/>
</g>
<!-- Node12 -->
<g id="node12" class="node">
<title>Node12</title>
<g id="a_node12"><a xlink:href="_cell_8h.html" target="_top" xlink:title=" ">
<polygon fill="white" stroke="black" points="1046,-274 1046,-293 1174,-293 1174,-274 1046,-274"/>
<text text-anchor="middle" x="1110" y="-281" font-family="Helvetica,sans-Serif" font-size="10.00">include/GameLogic/Cell.h</text>
</a>
</g>
</g>
<!-- Node7&#45;&gt;Node12 -->
<g id="edge47" class="edge">
<title>Node7&#45;&gt;Node12</title>
<path fill="none" stroke="midnightblue" d="M1122.7,-392.71C1115.35,-362.81 1107.65,-313 1107.88,-293.1"/>
<polygon fill="midnightblue" stroke="midnightblue" points="1119.32,-393.61 1125.28,-402.37 1126.09,-391.81 1119.32,-393.61"/>
</g>
<!-- Node15 -->
<g id="node15" class="node">
<title>Node15</title>
<g id="a_node15"><a xlink:href="_game_logic_2_squad_2_action_8h.html" target="_top" xlink:title=" ">
<polygon fill="white" stroke="black" points="1145.5,-201.5 1145.5,-231.5 1276.5,-231.5 1276.5,-201.5 1145.5,-201.5"/>
<text text-anchor="start" x="1153.5" y="-219.5" font-family="Helvetica,sans-Serif" font-size="10.00">include/GameLogic/Squad</text>
<text text-anchor="middle" x="1211" y="-208.5" font-family="Helvetica,sans-Serif" font-size="10.00">/Action.h</text>
</a>
</g>
</g>
<!-- Node7&#45;&gt;Node15 -->
<g id="edge48" class="edge">
<title>Node7&#45;&gt;Node15</title>
<path fill="none" stroke="midnightblue" d="M1136.14,-392.67C1144.73,-369.09 1161.24,-331.87 1174,-299 1183.04,-275.71 1192.2,-248.12 1199.98,-231.76"/>
<polygon fill="midnightblue" stroke="midnightblue" points="1132.81,-391.59 1132.88,-402.18 1139.43,-393.85 1132.81,-391.59"/>
</g>
<!-- Node32 -->
<g id="node32" class="node">
<title>Node32</title>
<g id="a_node32"><a xlink:href="pathfinding_8h.html" target="_top" xlink:title=" ">
<polygon fill="white" stroke="black" points="1295,-207 1295,-226 1415,-226 1415,-207 1295,-207"/>
<text text-anchor="middle" x="1355" y="-214" font-family="Helvetica,sans-Serif" font-size="10.00">include/util/pathfinding.h</text>
</a>
</g>
</g>
<!-- Node7&#45;&gt;Node32 -->
<g id="edge50" class="edge">
<title>Node7&#45;&gt;Node32</title>
<path fill="none" stroke="midnightblue" d="M1155.5,-395.53C1203.65,-352.56 1311.8,-256.05 1345.07,-226.36"/>
<polygon fill="midnightblue" stroke="midnightblue" points="1153.17,-392.92 1148.04,-402.19 1157.83,-398.14 1153.17,-392.92"/>
</g>
<!-- Node10 -->
<g id="node10" class="node">
<title>Node10</title>
<g id="a_node10"><a xlink:href="engine_2_action_8cpp.html" target="_top" xlink:title=" ">
<polygon fill="white" stroke="black" points="918,-274 918,-293 1028,-293 1028,-274 918,-274"/>
<text text-anchor="middle" x="973" y="-281" font-family="Helvetica,sans-Serif" font-size="10.00">src/engine/Action.cpp</text>
</a>
</g>
</g>
<!-- Node9&#45;&gt;Node10 -->
<g id="edge10" class="edge">
<title>Node9&#45;&gt;Node10</title>
<path fill="none" stroke="midnightblue" d="M1016.5,-328C1004.63,-316.13 990.55,-302.05 981.69,-293.19"/>
<polygon fill="midnightblue" stroke="midnightblue" points="1014.35,-330.8 1023.9,-335.4 1019.3,-325.85 1014.35,-330.8"/>
</g>
<!-- Node11 -->
<g id="node11" class="node">
<title>Node11</title>
<g id="a_node11"><a xlink:href="_set_squad_path_8cpp.html" target="_top" xlink:title=" ">
<polygon fill="white" stroke="black" points="798.5,-268.5 798.5,-298.5 899.5,-298.5 899.5,-268.5 798.5,-268.5"/>
<text text-anchor="start" x="806.5" y="-286.5" font-family="Helvetica,sans-Serif" font-size="10.00">src/engine/actions</text>
<text text-anchor="middle" x="849" y="-275.5" font-family="Helvetica,sans-Serif" font-size="10.00">/SetSquadPath.cpp</text>
</a>
</g>
</g>
<!-- Node9&#45;&gt;Node11 -->
<g id="edge11" class="edge">
<title>Node9&#45;&gt;Node11</title>
<path fill="none" stroke="midnightblue" d="M987.38,-332.09C956.87,-321.6 918.52,-308.41 889.93,-298.58"/>
<polygon fill="midnightblue" stroke="midnightblue" points="986.4,-335.45 996.99,-335.4 988.67,-328.83 986.4,-335.45"/>
</g>
<!-- Node9&#45;&gt;Node12 -->
<g id="edge12" class="edge">
<title>Node9&#45;&gt;Node12</title>
<path fill="none" stroke="midnightblue" d="M1055.07,-328.34C1067.46,-316.4 1083.8,-302.14 1095.6,-293.19"/>
<polygon fill="midnightblue" stroke="midnightblue" points="1052.59,-325.87 1047.94,-335.4 1057.51,-330.85 1052.59,-325.87"/>
</g>
<!-- Node12&#45;&gt;Node7 -->
<g id="edge19" class="edge">
<title>Node12&#45;&gt;Node7</title>
<path fill="none" stroke="midnightblue" d="M1117.86,-302.7C1125,-329.31 1133.01,-378.29 1134.02,-402.37"/>
<polygon fill="midnightblue" stroke="midnightblue" points="1121.21,-301.67 1114.98,-293.1 1114.5,-303.68 1121.21,-301.67"/>
</g>
<!-- Node12&#45;&gt;Node9 -->
<g id="edge15" class="edge">
<title>Node12&#45;&gt;Node9</title>
<path fill="none" stroke="midnightblue" d="M1098.06,-300.62C1087.42,-311.3 1071.98,-325.16 1059.3,-335.4"/>
<polygon fill="midnightblue" stroke="midnightblue" points="1100.78,-302.85 1105.14,-293.19 1095.71,-298.02 1100.78,-302.85"/>
</g>
<!-- Node13 -->
<g id="node13" class="node">
<title>Node13</title>
<g id="a_node13"><a xlink:href="_cell_8cpp.html" target="_top" xlink:title=" ">
<polygon fill="white" stroke="black" points="877.5,-207 877.5,-226 998.5,-226 998.5,-207 877.5,-207"/>
<text text-anchor="middle" x="938" y="-214" font-family="Helvetica,sans-Serif" font-size="10.00">src/GameLogic/Cell.cpp</text>
</a>
</g>
</g>
<!-- Node12&#45;&gt;Node13 -->
<g id="edge13" class="edge">
<title>Node12&#45;&gt;Node13</title>
<path fill="none" stroke="midnightblue" d="M1077.64,-270.27C1043.5,-257.37 990.59,-237.38 960.66,-226.06"/>
<polygon fill="midnightblue" stroke="midnightblue" points="1076.57,-273.61 1087.16,-273.87 1079.04,-267.06 1076.57,-273.61"/>
</g>
<!-- Node14 -->
<g id="node14" class="node">
<title>Node14</title>
<g id="a_node14"><a xlink:href="main_8cpp.html" target="_top" xlink:title=" ">
<polygon fill="white" stroke="black" points="1017,-207 1017,-226 1089,-226 1089,-207 1017,-207"/>
<text text-anchor="middle" x="1053" y="-214" font-family="Helvetica,sans-Serif" font-size="10.00">src/main.cpp</text>
</a>
</g>
</g>
<!-- Node12&#45;&gt;Node14 -->
<g id="edge14" class="edge">
<title>Node12&#45;&gt;Node14</title>
<path fill="none" stroke="midnightblue" d="M1095.65,-266.13C1084.5,-253.42 1069.48,-236.3 1060.57,-226.13"/>
<polygon fill="midnightblue" stroke="midnightblue" points="1093.09,-268.52 1102.31,-273.73 1098.35,-263.91 1093.09,-268.52"/>
</g>
<!-- Node12&#45;&gt;Node15 -->
<g id="edge16" class="edge">
<title>Node12&#45;&gt;Node15</title>
<path fill="none" stroke="midnightblue" d="M1132.29,-268.15C1149.2,-257.27 1172.3,-242.4 1189.11,-231.59"/>
<polygon fill="midnightblue" stroke="midnightblue" points="1130.14,-265.38 1123.62,-273.73 1133.92,-271.27 1130.14,-265.38"/>
</g>
<!-- Node12&#45;&gt;Node17 -->
<g id="edge20" class="edge">
<title>Node12&#45;&gt;Node17</title>
<path fill="none" stroke="midnightblue" d="M1059.7,-272.06C1052.11,-270.62 1044.36,-269.21 1037,-268 925,-249.51 793.69,-233.4 717.55,-224.6"/>
<polygon fill="midnightblue" stroke="midnightblue" points="1059.06,-275.51 1069.54,-273.98 1060.39,-268.63 1059.06,-275.51"/>
</g>
<!-- Node12&#45;&gt;Node32 -->
<g id="edge44" class="edge">
<title>Node12&#45;&gt;Node32</title>
<path fill="none" stroke="midnightblue" d="M1152.13,-271.32C1200.5,-258.49 1278.82,-237.71 1322.65,-226.08"/>
<polygon fill="midnightblue" stroke="midnightblue" points="1151.05,-267.99 1142.28,-273.94 1152.84,-274.75 1151.05,-267.99"/>
</g>
<!-- Node15&#45;&gt;Node7 -->
<g id="edge18" class="edge">
<title>Node15&#45;&gt;Node7</title>
<path fill="none" stroke="midnightblue" d="M1210.9,-241.58C1206.91,-257.9 1199.42,-279.89 1192,-299 1177.36,-336.73 1157.76,-380.2 1144.42,-402.18"/>
<polygon fill="midnightblue" stroke="midnightblue" points="1214.33,-242.26 1212.98,-231.76 1207.48,-240.82 1214.33,-242.26"/>
</g>
<!-- Node16 -->
<g id="node16" class="node">
<title>Node16</title>
<g id="a_node16"><a xlink:href="_game_logic_2_squad_2_action_8cpp.html" target="_top" xlink:title=" ">
<polygon fill="white" stroke="black" points="1160,-134.5 1160,-164.5 1274,-164.5 1274,-134.5 1160,-134.5"/>
<text text-anchor="start" x="1168" y="-152.5" font-family="Helvetica,sans-Serif" font-size="10.00">src/GameLogic/Squad</text>
<text text-anchor="middle" x="1217" y="-141.5" font-family="Helvetica,sans-Serif" font-size="10.00">/Action.cpp</text>
</a>
</g>
</g>
<!-- Node15&#45;&gt;Node16 -->
<g id="edge17" class="edge">
<title>Node15&#45;&gt;Node16</title>
<path fill="none" stroke="midnightblue" d="M1213.22,-191.4C1214.06,-182.37 1214.98,-172.41 1215.7,-164.58"/>
<polygon fill="midnightblue" stroke="midnightblue" points="1209.74,-191.12 1212.3,-201.4 1216.71,-191.76 1209.74,-191.12"/>
</g>
<!-- Node18 -->
<g id="node18" class="node">
<title>Node18</title>
<g id="a_node18"><a xlink:href="_spawn_action_8cpp.html" target="_top" xlink:title=" ">
<polygon fill="white" stroke="black" points="570,-134.5 570,-164.5 666,-164.5 666,-134.5 570,-134.5"/>
<text text-anchor="start" x="578" y="-152.5" font-family="Helvetica,sans-Serif" font-size="10.00">src/engine/actions</text>
<text text-anchor="middle" x="618" y="-141.5" font-family="Helvetica,sans-Serif" font-size="10.00">/SpawnAction.cpp</text>
</a>
</g>
</g>
<!-- Node17&#45;&gt;Node18 -->
<g id="edge21" class="edge">
<title>Node17&#45;&gt;Node18</title>
<path fill="none" stroke="midnightblue" d="M641.3,-192.58C636.13,-183.24 630.32,-172.75 625.8,-164.58"/>
<polygon fill="midnightblue" stroke="midnightblue" points="638.28,-194.34 646.19,-201.4 644.41,-190.95 638.28,-194.34"/>
</g>
<!-- Node19 -->
<g id="node19" class="node">
<title>Node19</title>
<g id="a_node19"><a xlink:href="_factory_8cpp.html" target="_top" xlink:title=" ">
<polygon fill="white" stroke="black" points="684,-134.5 684,-164.5 794,-164.5 794,-134.5 684,-134.5"/>
<text text-anchor="start" x="692" y="-152.5" font-family="Helvetica,sans-Serif" font-size="10.00">src/GameLogic/Units</text>
<text text-anchor="middle" x="739" y="-141.5" font-family="Helvetica,sans-Serif" font-size="10.00">/Factory.cpp</text>
</a>
</g>
</g>
<!-- Node17&#45;&gt;Node19 -->
<g id="edge22" class="edge">
<title>Node17&#45;&gt;Node19</title>
<path fill="none" stroke="midnightblue" d="M680.59,-195.17C693.59,-185.23 708.9,-173.51 720.59,-164.58"/>
<polygon fill="midnightblue" stroke="midnightblue" points="678.26,-192.54 672.44,-201.4 682.51,-198.1 678.26,-192.54"/>
</g>
<!-- Node20 -->
<g id="node20" class="node">
<title>Node20</title>
<g id="a_node20"><a xlink:href="_squad_template_8h.html" target="_top" xlink:title=" ">
<polygon fill="white" stroke="black" points="812.5,-134.5 812.5,-164.5 943.5,-164.5 943.5,-134.5 812.5,-134.5"/>
<text text-anchor="start" x="820.5" y="-152.5" font-family="Helvetica,sans-Serif" font-size="10.00">include/GameLogic/Squad</text>
<text text-anchor="middle" x="878" y="-141.5" font-family="Helvetica,sans-Serif" font-size="10.00">/SquadTemplate.h</text>
</a>
</g>
</g>
<!-- Node17&#45;&gt;Node20 -->
<g id="edge23" class="edge">
<title>Node17&#45;&gt;Node20</title>
<path fill="none" stroke="midnightblue" d="M712.31,-198.58C748.69,-188.02 794.97,-174.59 829.37,-164.61"/>
<polygon fill="midnightblue" stroke="midnightblue" points="710.96,-195.33 702.33,-201.48 712.91,-202.05 710.96,-195.33"/>
</g>
<!-- Node24 -->
<g id="node24" class="node">
<title>Node24</title>
<g id="a_node24"><a xlink:href="_all_units_8h.html" target="_top" xlink:title=" ">
<polygon fill="white" stroke="black" points="961.5,-134.5 961.5,-164.5 1088.5,-164.5 1088.5,-134.5 961.5,-134.5"/>
<text text-anchor="start" x="969.5" y="-152.5" font-family="Helvetica,sans-Serif" font-size="10.00">include/GameLogic/Units</text>
<text text-anchor="middle" x="1025" y="-141.5" font-family="Helvetica,sans-Serif" font-size="10.00">/AllUnits.h</text>
</a>
</g>
</g>
<!-- Node17&#45;&gt;Node24 -->
<g id="edge28" class="edge">
<title>Node17&#45;&gt;Node24</title>
<path fill="none" stroke="midnightblue" d="M727.91,-203.68C788.49,-193.83 876.42,-179.18 953,-165 955.76,-164.49 958.57,-163.96 961.42,-163.42"/>
<polygon fill="midnightblue" stroke="midnightblue" points="726.99,-200.28 717.68,-205.34 728.11,-207.19 726.99,-200.28"/>
</g>
<!-- Node26 -->
<g id="node26" class="node">
<title>Node26</title>
<g id="a_node26"><a xlink:href="_armored_unit_factory_8h.html" target="_top" xlink:title=" ">
<polygon fill="white" stroke="black" points="141.5,-67.5 141.5,-97.5 268.5,-97.5 268.5,-67.5 141.5,-67.5"/>
<text text-anchor="start" x="149.5" y="-85.5" font-family="Helvetica,sans-Serif" font-size="10.00">include/GameLogic/Units</text>
<text text-anchor="middle" x="205" y="-74.5" font-family="Helvetica,sans-Serif" font-size="10.00">/ArmoredUnitFactory.h</text>
</a>
</g>
</g>
<!-- Node17&#45;&gt;Node26 -->
<g id="edge34" class="edge">
<title>Node17&#45;&gt;Node26</title>
<path fill="none" stroke="midnightblue" d="M580.17,-212.32C483.86,-207.07 321.55,-194.11 270,-165 242.27,-149.33 221.94,-116.69 211.95,-97.81"/>
<polygon fill="midnightblue" stroke="midnightblue" points="580.26,-215.83 590.43,-212.86 580.63,-208.84 580.26,-215.83"/>
</g>
<!-- Node28 -->
<g id="node28" class="node">
<title>Node28</title>
<g id="a_node28"><a xlink:href="_land_unit_factory_8h.html" target="_top" xlink:title=" ">
<polygon fill="white" stroke="black" points="424.5,-134.5 424.5,-164.5 551.5,-164.5 551.5,-134.5 424.5,-134.5"/>
<text text-anchor="start" x="432.5" y="-152.5" font-family="Helvetica,sans-Serif" font-size="10.00">include/GameLogic/Units</text>
<text text-anchor="middle" x="488" y="-141.5" font-family="Helvetica,sans-Serif" font-size="10.00">/LandUnitFactory.h</text>
</a>
</g>
</g>
<!-- Node17&#45;&gt;Node28 -->
<g id="edge37" class="edge">
<title>Node17&#45;&gt;Node28</title>
<path fill="none" stroke="midnightblue" d="M608.49,-197.68C581.87,-187.26 548.73,-174.28 523.95,-164.58"/>
<polygon fill="midnightblue" stroke="midnightblue" points="607.39,-201.01 617.98,-201.4 609.95,-194.49 607.39,-201.01"/>
</g>
<!-- Node30 -->
<g id="node30" class="node">
<title>Node30</title>
<g id="a_node30"><a xlink:href="_transport_unit_factory_8h.html" target="_top" xlink:title=" ">
<polygon fill="white" stroke="black" points="279.5,-134.5 279.5,-164.5 406.5,-164.5 406.5,-134.5 279.5,-134.5"/>
<text text-anchor="start" x="287.5" y="-152.5" font-family="Helvetica,sans-Serif" font-size="10.00">include/GameLogic/Units</text>
<text text-anchor="middle" x="343" y="-141.5" font-family="Helvetica,sans-Serif" font-size="10.00">/TransportUnitFactory.h</text>
</a>
</g>
</g>
<!-- Node17&#45;&gt;Node30 -->
<g id="edge40" class="edge">
<title>Node17&#45;&gt;Node30</title>
<path fill="none" stroke="midnightblue" d="M580.33,-200.1C527.48,-189.06 457,-174.33 406.6,-163.79"/>
<polygon fill="midnightblue" stroke="midnightblue" points="579.81,-203.57 590.31,-202.19 581.24,-196.72 579.81,-203.57"/>
</g>
<!-- Node21 -->
<g id="node21" class="node">
<title>Node21</title>
<g id="a_node21"><a xlink:href="_squad_template_8cpp.html" target="_top" xlink:title=" ">
<polygon fill="white" stroke="black" points="821,-67.5 821,-97.5 935,-97.5 935,-67.5 821,-67.5"/>
<text text-anchor="start" x="829" y="-85.5" font-family="Helvetica,sans-Serif" font-size="10.00">src/GameLogic/Squad</text>
<text text-anchor="middle" x="878" y="-74.5" font-family="Helvetica,sans-Serif" font-size="10.00">/SquadTemplate.cpp</text>
</a>
</g>
</g>
<!-- Node20&#45;&gt;Node21 -->
<g id="edge24" class="edge">
<title>Node20&#45;&gt;Node21</title>
<path fill="none" stroke="midnightblue" d="M878,-124.11C878,-115.15 878,-105.32 878,-97.58"/>
<polygon fill="midnightblue" stroke="midnightblue" points="874.5,-124.4 878,-134.4 881.5,-124.4 874.5,-124.4"/>
</g>
<!-- Node22 -->
<g id="node22" class="node">
<title>Node22</title>
<g id="a_node22"><a xlink:href="_all_squad_templates_8h.html" target="_top" xlink:title=" ">
<polygon fill="white" stroke="black" points="991.5,-67.5 991.5,-97.5 1122.5,-97.5 1122.5,-67.5 991.5,-67.5"/>
<text text-anchor="start" x="999.5" y="-85.5" font-family="Helvetica,sans-Serif" font-size="10.00">include/GameLogic/Squad</text>
<text text-anchor="middle" x="1057" y="-74.5" font-family="Helvetica,sans-Serif" font-size="10.00">/AllSquadTemplates.h</text>
</a>
</g>
</g>
<!-- Node20&#45;&gt;Node22 -->
<g id="edge25" class="edge">
<title>Node20&#45;&gt;Node22</title>
<path fill="none" stroke="midnightblue" d="M926.32,-130.96C955.15,-120.48 991.28,-107.37 1018.24,-97.58"/>
<polygon fill="midnightblue" stroke="midnightblue" points="925.05,-127.69 916.84,-134.4 927.43,-134.27 925.05,-127.69"/>
</g>
<!-- Node22&#45;&gt;Node12 -->
<g id="edge27" class="edge">
<title>Node22&#45;&gt;Node12</title>
<path fill="none" stroke="midnightblue" d="M1079.43,-105.22C1086.62,-113.51 1093.8,-123.51 1098,-134 1117.92,-183.7 1113.47,-250.12 1111.04,-273.72"/>
<polygon fill="midnightblue" stroke="midnightblue" points="1081.98,-102.82 1072.64,-97.83 1076.83,-107.56 1081.98,-102.82"/>
</g>
<!-- Node23 -->
<g id="node23" class="node">
<title>Node23</title>
<g id="a_node23"><a xlink:href="_all_squad_templates_8cpp.html" target="_top" xlink:title=" ">
<polygon fill="white" stroke="black" points="996,-0.5 996,-30.5 1118,-30.5 1118,-0.5 996,-0.5"/>
<text text-anchor="start" x="1004" y="-18.5" font-family="Helvetica,sans-Serif" font-size="10.00">src/GameLogic/Squad</text>
<text text-anchor="middle" x="1057" y="-7.5" font-family="Helvetica,sans-Serif" font-size="10.00">/AllSquadTemplates.cpp</text>
</a>
</g>
</g>
<!-- Node22&#45;&gt;Node23 -->
<g id="edge26" class="edge">
<title>Node22&#45;&gt;Node23</title>
<path fill="none" stroke="midnightblue" d="M1057,-57.11C1057,-48.15 1057,-38.32 1057,-30.58"/>
<polygon fill="midnightblue" stroke="midnightblue" points="1053.5,-57.4 1057,-67.4 1060.5,-57.4 1053.5,-57.4"/>
</g>
<!-- Node24&#45;&gt;Node8 -->
<g id="edge29" class="edge">
<title>Node24&#45;&gt;Node8</title>
<path fill="none" stroke="midnightblue" d="M1098.6,-132.28C1149.45,-121.08 1216.11,-106.39 1262.95,-96.07"/>
<polygon fill="midnightblue" stroke="midnightblue" points="1097.66,-128.91 1088.65,-134.48 1099.17,-135.74 1097.66,-128.91"/>
</g>
<!-- Node24&#45;&gt;Node12 -->
<g id="edge32" class="edge">
<title>Node24&#45;&gt;Node12</title>
<path fill="none" stroke="midnightblue" d="M951.5,-165.58C916.22,-174.46 879.37,-186.74 869,-201 860.9,-212.14 860.31,-221.31 869,-232 870.58,-233.94 998.78,-260.06 1067.53,-273.95"/>
<polygon fill="midnightblue" stroke="midnightblue" points="952.5,-168.94 961.39,-163.17 950.84,-162.14 952.5,-168.94"/>
</g>
<!-- Node24&#45;&gt;Node21 -->
<g id="edge30" class="edge">
<title>Node24&#45;&gt;Node21</title>
<path fill="none" stroke="midnightblue" d="M983.77,-130.27C960.36,-119.92 931.49,-107.15 909.83,-97.58"/>
<polygon fill="midnightblue" stroke="midnightblue" points="982.54,-133.55 993.1,-134.4 985.37,-127.15 982.54,-133.55"/>
</g>
<!-- Node24&#45;&gt;Node22 -->
<g id="edge33" class="edge">
<title>Node24&#45;&gt;Node22</title>
<path fill="none" stroke="midnightblue" d="M1036.43,-125.28C1040.99,-116.02 1046.09,-105.66 1050.07,-97.58"/>
<polygon fill="midnightblue" stroke="midnightblue" points="1033.22,-123.88 1031.94,-134.4 1039.5,-126.97 1033.22,-123.88"/>
</g>
<!-- Node25 -->
<g id="node25" class="node">
<title>Node25</title>
<g id="a_node25"><a xlink:href="_all_units_8cpp.html" target="_top" xlink:title=" ">
<polygon fill="white" stroke="black" points="472,-0.5 472,-30.5 582,-30.5 582,-0.5 472,-0.5"/>
<text text-anchor="start" x="480" y="-18.5" font-family="Helvetica,sans-Serif" font-size="10.00">src/GameLogic/Units</text>
<text text-anchor="middle" x="527" y="-7.5" font-family="Helvetica,sans-Serif" font-size="10.00">/AllUnits.cpp</text>
</a>
</g>
</g>
<!-- Node24&#45;&gt;Node25 -->
<g id="edge31" class="edge">
<title>Node24&#45;&gt;Node25</title>
<path fill="none" stroke="midnightblue" d="M1006.22,-126.58C987.19,-104.95 958.54,-74.11 944,-67 881.51,-36.47 680.63,-23.4 582.28,-18.72"/>
<polygon fill="midnightblue" stroke="midnightblue" points="1003.79,-129.11 1013,-134.35 1009.07,-124.51 1003.79,-129.11"/>
</g>
<!-- Node26&#45;&gt;Node25 -->
<g id="edge35" class="edge">
<title>Node26&#45;&gt;Node25</title>
<path fill="none" stroke="midnightblue" d="M278.59,-66.65C337.39,-54.78 418.51,-38.4 471.83,-27.64"/>
<polygon fill="midnightblue" stroke="midnightblue" points="277.73,-63.25 268.62,-68.66 279.11,-70.11 277.73,-63.25"/>
</g>
<!-- Node27 -->
<g id="node27" class="node">
<title>Node27</title>
<g id="a_node27"><a xlink:href="_armored_unit_factory_8cpp.html" target="_top" xlink:title=" ">
<polygon fill="white" stroke="black" points="142.5,-0.5 142.5,-30.5 267.5,-30.5 267.5,-0.5 142.5,-0.5"/>
<text text-anchor="start" x="150.5" y="-18.5" font-family="Helvetica,sans-Serif" font-size="10.00">src/GameLogic/Units</text>
<text text-anchor="middle" x="205" y="-7.5" font-family="Helvetica,sans-Serif" font-size="10.00">/ArmoredUnitFactory.cpp</text>
</a>
</g>
</g>
<!-- Node26&#45;&gt;Node27 -->
<g id="edge36" class="edge">
<title>Node26&#45;&gt;Node27</title>
<path fill="none" stroke="midnightblue" d="M205,-57.11C205,-48.15 205,-38.32 205,-30.58"/>
<polygon fill="midnightblue" stroke="midnightblue" points="201.5,-57.4 205,-67.4 208.5,-57.4 201.5,-57.4"/>
</g>
<!-- Node28&#45;&gt;Node25 -->
<g id="edge38" class="edge">
<title>Node28&#45;&gt;Node25</title>
<path fill="none" stroke="midnightblue" d="M552.55,-130.2C567.72,-122.73 582.06,-112.35 591,-98 598.29,-86.31 597.01,-79.4 591,-67 583.41,-51.33 568.34,-39.06 554.72,-30.54"/>
<polygon fill="midnightblue" stroke="midnightblue" points="550.72,-127.19 543.04,-134.49 553.59,-133.57 550.72,-127.19"/>
</g>
<!-- Node29 -->
<g id="node29" class="node">
<title>Node29</title>
<g id="a_node29"><a xlink:href="_land_unit_factory_8cpp.html" target="_top" xlink:title=" ">
<polygon fill="white" stroke="black" points="472,-67.5 472,-97.5 582,-97.5 582,-67.5 472,-67.5"/>
<text text-anchor="start" x="480" y="-85.5" font-family="Helvetica,sans-Serif" font-size="10.00">src/GameLogic/Units</text>
<text text-anchor="middle" x="527" y="-74.5" font-family="Helvetica,sans-Serif" font-size="10.00">/LandUnitFactory.cpp</text>
</a>
</g>
</g>
<!-- Node28&#45;&gt;Node29 -->
<g id="edge39" class="edge">
<title>Node28&#45;&gt;Node29</title>
<path fill="none" stroke="midnightblue" d="M501.75,-125.58C507.36,-116.24 513.65,-105.75 518.55,-97.58"/>
<polygon fill="midnightblue" stroke="midnightblue" points="498.61,-124.02 496.46,-134.4 504.61,-127.62 498.61,-124.02"/>
</g>
<!-- Node30&#45;&gt;Node25 -->
<g id="edge41" class="edge">
<title>Node30&#45;&gt;Node25</title>
<path fill="none" stroke="midnightblue" d="M376.09,-129.05C390.98,-119.99 408.64,-108.84 424,-98 442.09,-85.23 445.64,-80.75 463,-67 478.53,-54.7 496.22,-40.75 509.06,-30.63"/>
<polygon fill="midnightblue" stroke="midnightblue" points="373.97,-126.24 367.21,-134.39 377.58,-132.23 373.97,-126.24"/>
</g>
<!-- Node30&#45;&gt;Node26 -->
<g id="edge43" class="edge">
<title>Node30&#45;&gt;Node26</title>
<path fill="none" stroke="midnightblue" d="M304,-130.13C282.07,-119.8 255.13,-107.11 234.89,-97.58"/>
<polygon fill="midnightblue" stroke="midnightblue" points="302.52,-133.3 313.06,-134.4 305.5,-126.97 302.52,-133.3"/>
</g>
<!-- Node31 -->
<g id="node31" class="node">
<title>Node31</title>
<g id="a_node31"><a xlink:href="_transport_unit_factory_8cpp.html" target="_top" xlink:title=" ">
<polygon fill="white" stroke="black" points="286.5,-67.5 286.5,-97.5 415.5,-97.5 415.5,-67.5 286.5,-67.5"/>
<text text-anchor="start" x="294.5" y="-85.5" font-family="Helvetica,sans-Serif" font-size="10.00">src/GameLogic/Units</text>
<text text-anchor="middle" x="351" y="-74.5" font-family="Helvetica,sans-Serif" font-size="10.00">/TransportUnitFactory.cpp</text>
</a>
</g>
</g>
<!-- Node30&#45;&gt;Node31 -->
<g id="edge42" class="edge">
<title>Node30&#45;&gt;Node31</title>
<path fill="none" stroke="midnightblue" d="M345.97,-124.4C347.08,-115.37 348.3,-105.41 349.27,-97.58"/>
<polygon fill="midnightblue" stroke="midnightblue" points="342.48,-124.04 344.74,-134.4 349.43,-124.9 342.48,-124.04"/>
</g>
<!-- Node32&#45;&gt;Node16 -->
<g id="edge45" class="edge">
<title>Node32&#45;&gt;Node16</title>
<path fill="none" stroke="midnightblue" d="M1327.34,-202.47C1304.01,-191.49 1270.69,-175.79 1246.78,-164.53"/>
<polygon fill="midnightblue" stroke="midnightblue" points="1326.14,-205.77 1336.67,-206.87 1329.12,-199.44 1326.14,-205.77"/>
</g>
<!-- Node33 -->
<g id="node33" class="node">
<title>Node33</title>
<g id="a_node33"><a xlink:href="pathfinding_8cpp.html" target="_top" xlink:title=" ">
<polygon fill="white" stroke="black" points="1298.5,-140 1298.5,-159 1411.5,-159 1411.5,-140 1298.5,-140"/>
<text text-anchor="middle" x="1355" y="-147" font-family="Helvetica,sans-Serif" font-size="10.00">src/util/pathfinding.cpp</text>
</a>
</g>
</g>
<!-- Node32&#45;&gt;Node33 -->
<g id="edge46" class="edge">
<title>Node32&#45;&gt;Node33</title>
<path fill="none" stroke="midnightblue" d="M1355,-196.54C1355,-184.17 1355,-168.62 1355,-159.13"/>
<polygon fill="midnightblue" stroke="midnightblue" points="1351.5,-196.73 1355,-206.73 1358.5,-196.73 1351.5,-196.73"/>
</g>
<!-- Node34&#45;&gt;Node26 -->
<g id="edge54" class="edge">
<title>Node34&#45;&gt;Node26</title>
<path fill="none" stroke="midnightblue" d="M367.17,-329.35C355.65,-320.65 342.62,-309.96 332,-299 280.48,-245.82 267.43,-230.55 233,-165 221.24,-142.62 212.81,-114.27 208.43,-97.58"/>
<polygon fill="midnightblue" stroke="midnightblue" points="365.12,-332.18 375.24,-335.31 369.27,-326.55 365.12,-332.18"/>
</g>
<!-- Node35 -->
<g id="node35" class="node">
<title>Node35</title>
<g id="a_node35"><a xlink:href="_armored_unit_8cpp.html" target="_top" xlink:title=" ">
<polygon fill="white" stroke="black" points="341,-268.5 341,-298.5 451,-298.5 451,-268.5 341,-268.5"/>
<text text-anchor="start" x="349" y="-286.5" font-family="Helvetica,sans-Serif" font-size="10.00">src/GameLogic/Units</text>
<text text-anchor="middle" x="396" y="-275.5" font-family="Helvetica,sans-Serif" font-size="10.00">/ArmoredUnit.cpp</text>
</a>
</g>
</g>
<!-- Node34&#45;&gt;Node35 -->
<g id="edge53" class="edge">
<title>Node34&#45;&gt;Node35</title>
<path fill="none" stroke="midnightblue" d="M396,-325.11C396,-316.15 396,-306.32 396,-298.58"/>
<polygon fill="midnightblue" stroke="midnightblue" points="392.5,-325.4 396,-335.4 399.5,-325.4 392.5,-325.4"/>
</g>
<!-- Node36&#45;&gt;Node28 -->
<g id="edge58" class="edge">
<title>Node36&#45;&gt;Node28</title>
<path fill="none" stroke="midnightblue" d="M515.13,-392.75C512.05,-384.42 508.95,-374.92 507,-366 490.68,-291.33 488.3,-199.2 488.01,-164.55"/>
<polygon fill="midnightblue" stroke="midnightblue" points="511.92,-394.15 518.8,-402.2 518.44,-391.61 511.92,-394.15"/>
</g>
<!-- Node37 -->
<g id="node37" class="node">
<title>Node37</title>
<g id="a_node37"><a xlink:href="_land_unit_8cpp.html" target="_top" xlink:title=" ">
<polygon fill="white" stroke="black" points="516,-335.5 516,-365.5 626,-365.5 626,-335.5 516,-335.5"/>
<text text-anchor="start" x="524" y="-353.5" font-family="Helvetica,sans-Serif" font-size="10.00">src/GameLogic/Units</text>
<text text-anchor="middle" x="571" y="-342.5" font-family="Helvetica,sans-Serif" font-size="10.00">/LandUnit.cpp</text>
</a>
</g>
</g>
<!-- Node36&#45;&gt;Node37 -->
<g id="edge57" class="edge">
<title>Node36&#45;&gt;Node37</title>
<path fill="none" stroke="midnightblue" d="M540.81,-394.16C547.52,-384.68 555.13,-373.92 561.04,-365.58"/>
<polygon fill="midnightblue" stroke="midnightblue" points="537.9,-392.21 534.98,-402.4 543.62,-396.26 537.9,-392.21"/>
</g>
<!-- Node38&#45;&gt;Node30 -->
<g id="edge62" class="edge">
<title>Node38&#45;&gt;Node30</title>
<path fill="none" stroke="midnightblue" d="M268.41,-399.8C236.55,-390.86 204.27,-379.02 195,-366 141.55,-290.95 265.93,-199.42 319.72,-164.74"/>
<polygon fill="midnightblue" stroke="midnightblue" points="267.68,-403.23 278.25,-402.48 269.52,-396.47 267.68,-403.23"/>
</g>
<!-- Node38&#45;&gt;Node34 -->
<g id="edge61" class="edge">
<title>Node38&#45;&gt;Node34</title>
<path fill="none" stroke="midnightblue" d="M359.42,-394.74C367.55,-385.12 376.89,-374.09 384.09,-365.58"/>
<polygon fill="midnightblue" stroke="midnightblue" points="356.72,-392.5 352.93,-402.4 362.07,-397.02 356.72,-392.5"/>
</g>
<!-- Node39 -->
<g id="node39" class="node">
<title>Node39</title>
<g id="a_node39"><a xlink:href="_transport_unit_8cpp.html" target="_top" xlink:title=" ">
<polygon fill="white" stroke="black" points="204,-335.5 204,-365.5 314,-365.5 314,-335.5 204,-335.5"/>
<text text-anchor="start" x="212" y="-353.5" font-family="Helvetica,sans-Serif" font-size="10.00">src/GameLogic/Units</text>
<text text-anchor="middle" x="259" y="-342.5" font-family="Helvetica,sans-Serif" font-size="10.00">/TransportUnit.cpp</text>
</a>
</g>
</g>
<!-- Node38&#45;&gt;Node39 -->
<g id="edge60" class="edge">
<title>Node38&#45;&gt;Node39</title>
<path fill="none" stroke="midnightblue" d="M315.35,-396.17C302.81,-386.23 288.03,-374.51 276.76,-365.58"/>
<polygon fill="midnightblue" stroke="midnightblue" points="313.2,-398.93 323.21,-402.4 317.54,-393.44 313.2,-398.93"/>
</g>
</g>
</svg>
