<?xml version="1.0" encoding="UTF-8" standalone="no"?>
<!DOCTYPE svg PUBLIC "-//W3C//DTD SVG 1.1//EN"
 "http://www.w3.org/Graphics/SVG/1.1/DTD/svg11.dtd">
<!-- Generated by graphviz version 2.47.0 (20210407.0042)
 -->
<!-- Title: include/GameLogic/Units/UnitOrder.h Pages: 1 -->
<svg width="1387pt" height="575pt"
 viewBox="0.00 0.00 1387.11 575.00" xmlns="http://www.w3.org/2000/svg" xmlns:xlink="http://www.w3.org/1999/xlink">
<g id="graph0" class="graph" transform="scale(1 1) rotate(0) translate(4 571)">
<title>include/GameLogic/Units/UnitOrder.h</title>
<polygon fill="white" stroke="transparent" points="-4,4 -4,-571 1383.11,-571 1383.11,4 -4,4"/>
<!-- Node1 -->
<g id="node1" class="node">
<title>Node1</title>
<g id="a_node1"><a xlink:title=" ">
<polygon fill="#bfbfbf" stroke="black" points="270.5,-536.5 270.5,-566.5 397.5,-566.5 397.5,-536.5 270.5,-536.5"/>
<text text-anchor="start" x="278.5" y="-554.5" font-family="Helvetica,sans-Serif" font-size="10.00">include/GameLogic/Units</text>
<text text-anchor="middle" x="334" y="-543.5" font-family="Helvetica,sans-Serif" font-size="10.00">/UnitOrder.h</text>
</a>
</g>
</g>
<!-- Node2 -->
<g id="node2" class="node">
<title>Node2</title>
<g id="a_node2"><a xlink:href="_unit_8cpp.html" target="_top" xlink:title=" ">
<polygon fill="white" stroke="black" points="0,-402.5 0,-432.5 110,-432.5 110,-402.5 0,-402.5"/>
<text text-anchor="start" x="8" y="-420.5" font-family="Helvetica,sans-Serif" font-size="10.00">src/GameLogic/Units</text>
<text text-anchor="middle" x="55" y="-409.5" font-family="Helvetica,sans-Serif" font-size="10.00">/Unit.cpp</text>
</a>
</g>
</g>
<!-- Node1&#45;&gt;Node2 -->
<g id="edge1" class="edge">
<title>Node1&#45;&gt;Node2</title>
<path fill="none" stroke="midnightblue" d="M295.11,-532.1C238.71,-505.42 135.43,-456.55 84.71,-432.56"/>
<polygon fill="midnightblue" stroke="midnightblue" points="293.87,-535.39 304.41,-536.5 296.86,-529.06 293.87,-535.39"/>
</g>
<!-- Node3 -->
<g id="node3" class="node">
<title>Node3</title>
<g id="a_node3"><a xlink:href="_unit_order_8cpp.html" target="_top" xlink:title=" ">
<polygon fill="white" stroke="black" points="416,-469.5 416,-499.5 526,-499.5 526,-469.5 416,-469.5"/>
<text text-anchor="start" x="424" y="-487.5" font-family="Helvetica,sans-Serif" font-size="10.00">src/GameLogic/Units</text>
<text text-anchor="middle" x="471" y="-476.5" font-family="Helvetica,sans-Serif" font-size="10.00">/UnitOrder.cpp</text>
</a>
</g>
</g>
<!-- Node1&#45;&gt;Node3 -->
<g id="edge2" class="edge">
<title>Node1&#45;&gt;Node3</title>
<path fill="none" stroke="midnightblue" d="M373.01,-531.99C394.72,-521.69 421.33,-509.07 441.33,-499.58"/>
<polygon fill="midnightblue" stroke="midnightblue" points="371.26,-528.95 363.73,-536.4 374.26,-535.27 371.26,-528.95"/>
</g>
<!-- Node4 -->
<g id="node4" class="node">
<title>Node4</title>
<g id="a_node4"><a xlink:href="_squad_order_8h.html" target="_top" xlink:title=" ">
<polygon fill="white" stroke="black" points="128.5,-402.5 128.5,-432.5 259.5,-432.5 259.5,-402.5 128.5,-402.5"/>
<text text-anchor="start" x="136.5" y="-420.5" font-family="Helvetica,sans-Serif" font-size="10.00">include/GameLogic/Squad</text>
<text text-anchor="middle" x="194" y="-409.5" font-family="Helvetica,sans-Serif" font-size="10.00">/SquadOrder.h</text>
</a>
</g>
</g>
<!-- Node1&#45;&gt;Node4 -->
<g id="edge3" class="edge">
<title>Node1&#45;&gt;Node4</title>
<path fill="none" stroke="midnightblue" d="M301.32,-530.7C288.17,-522.03 273.25,-511.28 261,-500 238.09,-478.91 216.06,-449.89 203.85,-432.77"/>
<polygon fill="midnightblue" stroke="midnightblue" points="299.78,-533.87 310.08,-536.34 303.57,-527.98 299.78,-533.87"/>
</g>
<!-- Node6 -->
<g id="node6" class="node">
<title>Node6</title>
<g id="a_node6"><a xlink:href="_unit_8h.html" target="_top" xlink:title=" ">
<polygon fill="white" stroke="black" points="270.5,-469.5 270.5,-499.5 397.5,-499.5 397.5,-469.5 270.5,-469.5"/>
<text text-anchor="start" x="278.5" y="-487.5" font-family="Helvetica,sans-Serif" font-size="10.00">include/GameLogic/Units</text>
<text text-anchor="middle" x="334" y="-476.5" font-family="Helvetica,sans-Serif" font-size="10.00">/Unit.h</text>
</a>
</g>
</g>
<!-- Node1&#45;&gt;Node6 -->
<g id="edge5" class="edge">
<title>Node1&#45;&gt;Node6</title>
<path fill="none" stroke="midnightblue" d="M327.45,-526.4C327.01,-517.37 327.3,-507.41 328.33,-499.58"/>
<polygon fill="midnightblue" stroke="midnightblue" points="323.97,-526.74 328.32,-536.4 330.94,-526.13 323.97,-526.74"/>
</g>
<!-- Node5 -->
<g id="node5" class="node">
<title>Node5</title>
<g id="a_node5"><a xlink:href="_squad_order_8cpp.html" target="_top" xlink:title=" ">
<polygon fill="white" stroke="black" points="22,-335.5 22,-365.5 136,-365.5 136,-335.5 22,-335.5"/>
<text text-anchor="start" x="30" y="-353.5" font-family="Helvetica,sans-Serif" font-size="10.00">src/GameLogic/Squad</text>
<text text-anchor="middle" x="79" y="-342.5" font-family="Helvetica,sans-Serif" font-size="10.00">/SquadOrder.cpp</text>
</a>
</g>
</g>
<!-- Node4&#45;&gt;Node5 -->
<g id="edge4" class="edge">
<title>Node4&#45;&gt;Node5</title>
<path fill="none" stroke="midnightblue" d="M160.02,-397.3C142.03,-387.12 120.32,-374.85 103.9,-365.58"/>
<polygon fill="midnightblue" stroke="midnightblue" points="158.62,-400.52 169.05,-402.4 162.06,-394.43 158.62,-400.52"/>
</g>
<!-- Node6&#45;&gt;Node1 -->
<g id="edge61" class="edge">
<title>Node6&#45;&gt;Node1</title>
<path fill="none" stroke="midnightblue" d="M340.54,-509.57C340.99,-518.6 340.71,-528.56 339.68,-536.4"/>
<polygon fill="midnightblue" stroke="midnightblue" points="344.03,-509.24 339.67,-499.58 337.05,-509.84 344.03,-509.24"/>
</g>
<!-- Node6&#45;&gt;Node2 -->
<g id="edge6" class="edge">
<title>Node6&#45;&gt;Node2</title>
<path fill="none" stroke="midnightblue" d="M263.89,-467.17C216.36,-456.09 154.41,-441.66 110.35,-431.39"/>
<polygon fill="midnightblue" stroke="midnightblue" points="263.27,-470.62 273.8,-469.48 264.86,-463.8 263.27,-470.62"/>
</g>
<!-- Node6&#45;&gt;Node4 -->
<g id="edge49" class="edge">
<title>Node6&#45;&gt;Node4</title>
<path fill="none" stroke="midnightblue" d="M294.43,-465.13C272.19,-454.8 244.85,-442.11 224.32,-432.58"/>
<polygon fill="midnightblue" stroke="midnightblue" points="293.08,-468.36 303.62,-469.4 296.03,-462.01 293.08,-468.36"/>
</g>
<!-- Node7 -->
<g id="node7" class="node">
<title>Node7</title>
<g id="a_node7"><a xlink:href="_squad_8h.html" target="_top" xlink:title=" ">
<polygon fill="white" stroke="black" points="856.5,-402.5 856.5,-432.5 987.5,-432.5 987.5,-402.5 856.5,-402.5"/>
<text text-anchor="start" x="864.5" y="-420.5" font-family="Helvetica,sans-Serif" font-size="10.00">include/GameLogic/Squad</text>
<text text-anchor="middle" x="922" y="-409.5" font-family="Helvetica,sans-Serif" font-size="10.00">/Squad.h</text>
</a>
</g>
</g>
<!-- Node6&#45;&gt;Node7 -->
<g id="edge7" class="edge">
<title>Node6&#45;&gt;Node7</title>
<path fill="none" stroke="midnightblue" d="M405.21,-467.96C569.69,-444.14 758.6,-429.12 856.26,-422.47"/>
<polygon fill="midnightblue" stroke="midnightblue" points="404.3,-464.56 394.91,-469.47 405.31,-471.48 404.3,-464.56"/>
</g>
<!-- Node16 -->
<g id="node16" class="node">
<title>Node16</title>
<g id="a_node16"><a xlink:href="_factory_8h.html" target="_top" xlink:title=" ">
<polygon fill="white" stroke="black" points="504.5,-201.5 504.5,-231.5 631.5,-231.5 631.5,-201.5 504.5,-201.5"/>
<text text-anchor="start" x="512.5" y="-219.5" font-family="Helvetica,sans-Serif" font-size="10.00">include/GameLogic/Units</text>
<text text-anchor="middle" x="568" y="-208.5" font-family="Helvetica,sans-Serif" font-size="10.00">/Factory.h</text>
</a>
</g>
</g>
<!-- Node6&#45;&gt;Node16 -->
<g id="edge53" class="edge">
<title>Node6&#45;&gt;Node16</title>
<path fill="none" stroke="midnightblue" d="M407.64,-469.05C494.27,-455.06 533.32,-485.98 597,-433 631.64,-404.18 632.79,-378.99 623,-335 614.15,-295.21 590.32,-252.95 577.12,-231.6"/>
<polygon fill="midnightblue" stroke="midnightblue" points="406.93,-465.62 397.69,-470.81 408.15,-472.51 406.93,-465.62"/>
</g>
<!-- Node33 -->
<g id="node33" class="node">
<title>Node33</title>
<g id="a_node33"><a xlink:href="_armored_unit_8h.html" target="_top" xlink:title=" ">
<polygon fill="white" stroke="black" points="154.5,-335.5 154.5,-365.5 281.5,-365.5 281.5,-335.5 154.5,-335.5"/>
<text text-anchor="start" x="162.5" y="-353.5" font-family="Helvetica,sans-Serif" font-size="10.00">include/GameLogic/Units</text>
<text text-anchor="middle" x="218" y="-342.5" font-family="Helvetica,sans-Serif" font-size="10.00">/ArmoredUnit.h</text>
</a>
</g>
</g>
<!-- Node6&#45;&gt;Node33 -->
<g id="edge50" class="edge">
<title>Node6&#45;&gt;Node33</title>
<path fill="none" stroke="midnightblue" d="M316.95,-461.24C303.95,-444.57 285.38,-421.4 268,-402 256.64,-389.32 243,-375.64 232.83,-365.71"/>
<polygon fill="midnightblue" stroke="midnightblue" points="314.31,-463.55 323.2,-469.31 319.84,-459.26 314.31,-463.55"/>
</g>
<!-- Node35 -->
<g id="node35" class="node">
<title>Node35</title>
<g id="a_node35"><a xlink:href="_land_unit_8h.html" target="_top" xlink:title=" ">
<polygon fill="white" stroke="black" points="461.5,-402.5 461.5,-432.5 588.5,-432.5 588.5,-402.5 461.5,-402.5"/>
<text text-anchor="start" x="469.5" y="-420.5" font-family="Helvetica,sans-Serif" font-size="10.00">include/GameLogic/Units</text>
<text text-anchor="middle" x="525" y="-409.5" font-family="Helvetica,sans-Serif" font-size="10.00">/LandUnit.h</text>
</a>
</g>
</g>
<!-- Node6&#45;&gt;Node35 -->
<g id="edge54" class="edge">
<title>Node6&#45;&gt;Node35</title>
<path fill="none" stroke="midnightblue" d="M385.15,-466.09C415.99,-455.6 454.75,-442.41 483.64,-432.58"/>
<polygon fill="midnightblue" stroke="midnightblue" points="383.78,-462.86 375.44,-469.4 386.04,-469.49 383.78,-462.86"/>
</g>
<!-- Node37 -->
<g id="node37" class="node">
<title>Node37</title>
<g id="a_node37"><a xlink:href="_transport_unit_8h.html" target="_top" xlink:title=" ">
<polygon fill="white" stroke="black" points="316.5,-402.5 316.5,-432.5 443.5,-432.5 443.5,-402.5 316.5,-402.5"/>
<text text-anchor="start" x="324.5" y="-420.5" font-family="Helvetica,sans-Serif" font-size="10.00">include/GameLogic/Units</text>
<text text-anchor="middle" x="380" y="-409.5" font-family="Helvetica,sans-Serif" font-size="10.00">/TransportUnit.h</text>
</a>
</g>
</g>
<!-- Node6&#45;&gt;Node37 -->
<g id="edge57" class="edge">
<title>Node6&#45;&gt;Node37</title>
<path fill="none" stroke="midnightblue" d="M349.81,-461.16C356.52,-451.68 364.13,-440.92 370.04,-432.58"/>
<polygon fill="midnightblue" stroke="midnightblue" points="346.9,-459.21 343.98,-469.4 352.62,-463.26 346.9,-459.21"/>
</g>
<!-- Node7&#45;&gt;Node6 -->
<g id="edge47" class="edge">
<title>Node7&#45;&gt;Node6</title>
<path fill="none" stroke="midnightblue" d="M845.87,-424.07C746.6,-431.54 567.92,-446.52 416,-469 410.12,-469.87 404,-470.9 397.85,-471.99"/>
<polygon fill="midnightblue" stroke="midnightblue" points="846.39,-427.54 856.1,-423.31 845.87,-420.56 846.39,-427.54"/>
</g>
<!-- Node8 -->
<g id="node8" class="node">
<title>Node8</title>
<g id="a_node8"><a xlink:href="_squad_8cpp.html" target="_top" xlink:title=" ">
<polygon fill="white" stroke="black" points="1194,-67.5 1194,-97.5 1308,-97.5 1308,-67.5 1194,-67.5"/>
<text text-anchor="start" x="1202" y="-85.5" font-family="Helvetica,sans-Serif" font-size="10.00">src/GameLogic/Squad</text>
<text text-anchor="middle" x="1251" y="-74.5" font-family="Helvetica,sans-Serif" font-size="10.00">/Squad.cpp</text>
</a>
</g>
</g>
<!-- Node7&#45;&gt;Node8 -->
<g id="edge8" class="edge">
<title>Node7&#45;&gt;Node8</title>
<path fill="none" stroke="midnightblue" d="M998.09,-410.24C1127.83,-397.44 1378,-362.64 1378,-284.5 1378,-284.5 1378,-284.5 1378,-215.5 1378,-178.31 1382.42,-162.89 1359,-134 1345.12,-116.88 1324.09,-105.26 1304.27,-97.53"/>
<polygon fill="midnightblue" stroke="midnightblue" points="997.44,-406.78 987.82,-411.23 998.11,-413.75 997.44,-406.78"/>
</g>
<!-- Node9 -->
<g id="node9" class="node">
<title>Node9</title>
<g id="a_node9"><a xlink:href="_set_squad_path_8h.html" target="_top" xlink:title=" ">
<polygon fill="white" stroke="black" points="865.5,-335.5 865.5,-365.5 978.5,-365.5 978.5,-335.5 865.5,-335.5"/>
<text text-anchor="start" x="873.5" y="-353.5" font-family="Helvetica,sans-Serif" font-size="10.00">include/engine/actions</text>
<text text-anchor="middle" x="922" y="-342.5" font-family="Helvetica,sans-Serif" font-size="10.00">/SetSquadPath.h</text>
</a>
</g>
</g>
<!-- Node7&#45;&gt;Node9 -->
<g id="edge9" class="edge">
<title>Node7&#45;&gt;Node9</title>
<path fill="none" stroke="midnightblue" d="M922,-392.11C922,-383.15 922,-373.32 922,-365.58"/>
<polygon fill="midnightblue" stroke="midnightblue" points="918.5,-392.4 922,-402.4 925.5,-392.4 918.5,-392.4"/>
</g>
<!-- Node12 -->
<g id="node12" class="node">
<title>Node12</title>
<g id="a_node12"><a xlink:href="_cell_8h.html" target="_top" xlink:title=" ">
<polygon fill="white" stroke="black" points="974,-274 974,-293 1102,-293 1102,-274 974,-274"/>
<text text-anchor="middle" x="1038" y="-281" font-family="Helvetica,sans-Serif" font-size="10.00">include/GameLogic/Cell.h</text>
</a>
</g>
</g>
<!-- Node7&#45;&gt;Node12 -->
<g id="edge45" class="edge">
<title>Node7&#45;&gt;Node12</title>
<path fill="none" stroke="midnightblue" d="M944.77,-396.3C955.88,-387.8 968.83,-377.27 979,-366 1000.24,-342.46 1017.62,-308.68 1028.81,-293.04"/>
<polygon fill="midnightblue" stroke="midnightblue" points="942.58,-393.57 936.71,-402.39 946.8,-399.16 942.58,-393.57"/>
</g>
<!-- Node15 -->
<g id="node15" class="node">
<title>Node15</title>
<g id="a_node15"><a xlink:href="_game_logic_2_squad_2_action_8h.html" target="_top" xlink:title=" ">
<polygon fill="white" stroke="black" points="649.5,-201.5 649.5,-231.5 780.5,-231.5 780.5,-201.5 649.5,-201.5"/>
<text text-anchor="start" x="657.5" y="-219.5" font-family="Helvetica,sans-Serif" font-size="10.00">include/GameLogic/Squad</text>
<text text-anchor="middle" x="715" y="-208.5" font-family="Helvetica,sans-Serif" font-size="10.00">/Action.h</text>
</a>
</g>
</g>
<!-- Node7&#45;&gt;Node15 -->
<g id="edge46" class="edge">
<title>Node7&#45;&gt;Node15</title>
<path fill="none" stroke="midnightblue" d="M853.72,-399.27C804.04,-382.23 740.36,-351.01 709,-299 696.5,-278.26 699.36,-248.87 705.32,-231.63"/>
<polygon fill="midnightblue" stroke="midnightblue" points="852.86,-402.68 863.46,-402.49 855.06,-396.03 852.86,-402.68"/>
</g>
<!-- Node30 -->
<g id="node30" class="node">
<title>Node30</title>
<g id="a_node30"><a xlink:href="pathfinding_8h.html" target="_top" xlink:title=" ">
<polygon fill="white" stroke="black" points="1104,-207 1104,-226 1224,-226 1224,-207 1104,-207"/>
<text text-anchor="middle" x="1164" y="-214" font-family="Helvetica,sans-Serif" font-size="10.00">include/util/pathfinding.h</text>
</a>
</g>
</g>
<!-- Node7&#45;&gt;Node30 -->
<g id="edge48" class="edge">
<title>Node7&#45;&gt;Node30</title>
<path fill="none" stroke="midnightblue" d="M964.65,-398.01C1006.15,-378.32 1068.93,-343.82 1111,-299 1133.06,-275.49 1151.71,-241.7 1159.75,-226.05"/>
<polygon fill="midnightblue" stroke="midnightblue" points="962.95,-394.94 955.36,-402.34 965.9,-401.29 962.95,-394.94"/>
</g>
<!-- Node10 -->
<g id="node10" class="node">
<title>Node10</title>
<g id="a_node10"><a xlink:href="engine_2_action_8cpp.html" target="_top" xlink:title=" ">
<polygon fill="white" stroke="black" points="846,-274 846,-293 956,-293 956,-274 846,-274"/>
<text text-anchor="middle" x="901" y="-281" font-family="Helvetica,sans-Serif" font-size="10.00">src/engine/Action.cpp</text>
</a>
</g>
</g>
<!-- Node9&#45;&gt;Node10 -->
<g id="edge10" class="edge">
<title>Node9&#45;&gt;Node10</title>
<path fill="none" stroke="midnightblue" d="M914.28,-325.6C910.62,-314.28 906.48,-301.46 903.81,-293.19"/>
<polygon fill="midnightblue" stroke="midnightblue" points="911.04,-326.96 917.44,-335.4 917.7,-324.8 911.04,-326.96"/>
</g>
<!-- Node11 -->
<g id="node11" class="node">
<title>Node11</title>
<g id="a_node11"><a xlink:href="_set_squad_path_8cpp.html" target="_top" xlink:title=" ">
<polygon fill="white" stroke="black" points="726.5,-268.5 726.5,-298.5 827.5,-298.5 827.5,-268.5 726.5,-268.5"/>
<text text-anchor="start" x="734.5" y="-286.5" font-family="Helvetica,sans-Serif" font-size="10.00">src/engine/actions</text>
<text text-anchor="middle" x="777" y="-275.5" font-family="Helvetica,sans-Serif" font-size="10.00">/SetSquadPath.cpp</text>
</a>
</g>
</g>
<!-- Node9&#45;&gt;Node11 -->
<g id="edge11" class="edge">
<title>Node9&#45;&gt;Node11</title>
<path fill="none" stroke="midnightblue" d="M881.33,-331.27C858.24,-320.92 829.76,-308.15 808.4,-298.58"/>
<polygon fill="midnightblue" stroke="midnightblue" points="879.98,-334.5 890.54,-335.4 882.84,-328.11 879.98,-334.5"/>
</g>
<!-- Node9&#45;&gt;Node12 -->
<g id="edge12" class="edge">
<title>Node9&#45;&gt;Node12</title>
<path fill="none" stroke="midnightblue" d="M950.31,-330.14C971.34,-317.79 999.32,-302.39 1018.08,-293.01"/>
<polygon fill="midnightblue" stroke="midnightblue" points="948.29,-327.27 941.49,-335.4 951.87,-333.29 948.29,-327.27"/>
</g>
<!-- Node12&#45;&gt;Node7 -->
<g id="edge18" class="edge">
<title>Node12&#45;&gt;Node7</title>
<path fill="none" stroke="midnightblue" d="M1036.26,-302.57C1029.53,-319.99 1014.59,-346.5 997,-366 984.24,-380.14 967.09,-393.13 952.24,-402.39"/>
<polygon fill="midnightblue" stroke="midnightblue" points="1039.59,-303.63 1039.34,-293.04 1032.93,-301.48 1039.59,-303.63"/>
</g>
<!-- Node12&#45;&gt;Node9 -->
<g id="edge15" class="edge">
<title>Node12&#45;&gt;Node9</title>
<path fill="none" stroke="midnightblue" d="M1019.04,-298.28C1001.03,-309.2 973.92,-324.39 952.85,-335.4"/>
<polygon fill="midnightblue" stroke="midnightblue" points="1020.9,-301.25 1027.55,-293.01 1017.21,-295.3 1020.9,-301.25"/>
</g>
<!-- Node13 -->
<g id="node13" class="node">
<title>Node13</title>
<g id="a_node13"><a xlink:href="_cell_8cpp.html" target="_top" xlink:title=" ">
<polygon fill="white" stroke="black" points="798.5,-207 798.5,-226 919.5,-226 919.5,-207 798.5,-207"/>
<text text-anchor="middle" x="859" y="-214" font-family="Helvetica,sans-Serif" font-size="10.00">src/GameLogic/Cell.cpp</text>
</a>
</g>
</g>
<!-- Node12&#45;&gt;Node13 -->
<g id="edge13" class="edge">
<title>Node12&#45;&gt;Node13</title>
<path fill="none" stroke="midnightblue" d="M1004.78,-270.44C969.27,-257.54 913.87,-237.42 882.58,-226.06"/>
<polygon fill="midnightblue" stroke="midnightblue" points="1003.64,-273.75 1014.23,-273.87 1006.03,-267.17 1003.64,-273.75"/>
</g>
<!-- Node14 -->
<g id="node14" class="node">
<title>Node14</title>
<g id="a_node14"><a xlink:href="main_8cpp.html" target="_top" xlink:title=" ">
<polygon fill="white" stroke="black" points="938,-207 938,-226 1010,-226 1010,-207 938,-207"/>
<text text-anchor="middle" x="974" y="-214" font-family="Helvetica,sans-Serif" font-size="10.00">src/main.cpp</text>
</a>
</g>
</g>
<!-- Node12&#45;&gt;Node14 -->
<g id="edge14" class="edge">
<title>Node12&#45;&gt;Node14</title>
<path fill="none" stroke="midnightblue" d="M1022.24,-266.5C1009.69,-253.75 992.6,-236.39 982.49,-226.13"/>
<polygon fill="midnightblue" stroke="midnightblue" points="1019.86,-269.06 1029.37,-273.73 1024.85,-264.15 1019.86,-269.06"/>
</g>
<!-- Node12&#45;&gt;Node15 -->
<g id="edge16" class="edge">
<title>Node12&#45;&gt;Node15</title>
<path fill="none" stroke="midnightblue" d="M985.4,-271.91C929.5,-260.67 841.02,-242.86 780.61,-230.7"/>
<polygon fill="midnightblue" stroke="midnightblue" points="984.95,-275.39 995.44,-273.94 986.33,-268.53 984.95,-275.39"/>
</g>
<!-- Node12&#45;&gt;Node16 -->
<g id="edge19" class="edge">
<title>Node12&#45;&gt;Node16</title>
<path fill="none" stroke="midnightblue" d="M988.27,-272.03C980.5,-270.57 972.55,-269.17 965,-268 821.37,-245.82 783.6,-254.37 640,-232 637.23,-231.57 634.4,-231.1 631.55,-230.61"/>
<polygon fill="midnightblue" stroke="midnightblue" points="987.85,-275.51 998.33,-273.98 989.18,-268.64 987.85,-275.51"/>
</g>
<!-- Node12&#45;&gt;Node30 -->
<g id="edge42" class="edge">
<title>Node12&#45;&gt;Node30</title>
<path fill="none" stroke="midnightblue" d="M1063.64,-269.27C1088.59,-256.4 1125.8,-237.21 1147.2,-226.17"/>
<polygon fill="midnightblue" stroke="midnightblue" points="1062.01,-266.17 1054.73,-273.87 1065.22,-272.39 1062.01,-266.17"/>
</g>
<!-- Node15&#45;&gt;Node7 -->
<g id="edge17" class="edge">
<title>Node15&#45;&gt;Node7</title>
<path fill="none" stroke="midnightblue" d="M717.52,-241.98C716.83,-259.15 716.75,-281.99 727,-299 760.45,-354.48 830.68,-386.3 877.19,-402.49"/>
<polygon fill="midnightblue" stroke="midnightblue" points="721.03,-241.77 717.96,-231.63 714.04,-241.47 721.03,-241.77"/>
</g>
<!-- Node17 -->
<g id="node17" class="node">
<title>Node17</title>
<g id="a_node17"><a xlink:href="_factory_8cpp.html" target="_top" xlink:title=" ">
<polygon fill="white" stroke="black" points="792,-134.5 792,-164.5 902,-164.5 902,-134.5 792,-134.5"/>
<text text-anchor="start" x="800" y="-152.5" font-family="Helvetica,sans-Serif" font-size="10.00">src/GameLogic/Units</text>
<text text-anchor="middle" x="847" y="-141.5" font-family="Helvetica,sans-Serif" font-size="10.00">/Factory.cpp</text>
</a>
</g>
</g>
<!-- Node16&#45;&gt;Node17 -->
<g id="edge20" class="edge">
<title>Node16&#45;&gt;Node17</title>
<path fill="none" stroke="midnightblue" d="M638.11,-199.17C685.64,-188.09 747.59,-173.66 791.65,-163.39"/>
<polygon fill="midnightblue" stroke="midnightblue" points="637.14,-195.8 628.2,-201.48 638.73,-202.62 637.14,-195.8"/>
</g>
<!-- Node18 -->
<g id="node18" class="node">
<title>Node18</title>
<g id="a_node18"><a xlink:href="_squad_template_8h.html" target="_top" xlink:title=" ">
<polygon fill="white" stroke="black" points="642.5,-134.5 642.5,-164.5 773.5,-164.5 773.5,-134.5 642.5,-134.5"/>
<text text-anchor="start" x="650.5" y="-152.5" font-family="Helvetica,sans-Serif" font-size="10.00">include/GameLogic/Squad</text>
<text text-anchor="middle" x="708" y="-141.5" font-family="Helvetica,sans-Serif" font-size="10.00">/SquadTemplate.h</text>
</a>
</g>
</g>
<!-- Node16&#45;&gt;Node18 -->
<g id="edge21" class="edge">
<title>Node16&#45;&gt;Node18</title>
<path fill="none" stroke="midnightblue" d="M607.57,-197.13C629.81,-186.8 657.15,-174.11 677.68,-164.58"/>
<polygon fill="midnightblue" stroke="midnightblue" points="605.97,-194.01 598.38,-201.4 608.92,-200.36 605.97,-194.01"/>
</g>
<!-- Node22 -->
<g id="node22" class="node">
<title>Node22</title>
<g id="a_node22"><a xlink:href="_all_units_8h.html" target="_top" xlink:title=" ">
<polygon fill="white" stroke="black" points="920.5,-134.5 920.5,-164.5 1047.5,-164.5 1047.5,-134.5 920.5,-134.5"/>
<text text-anchor="start" x="928.5" y="-152.5" font-family="Helvetica,sans-Serif" font-size="10.00">include/GameLogic/Units</text>
<text text-anchor="middle" x="984" y="-141.5" font-family="Helvetica,sans-Serif" font-size="10.00">/AllUnits.h</text>
</a>
</g>
</g>
<!-- Node16&#45;&gt;Node22 -->
<g id="edge26" class="edge">
<title>Node16&#45;&gt;Node22</title>
<path fill="none" stroke="midnightblue" d="M641.51,-200.81C761.56,-181.18 794.29,-184.32 911,-165 914.06,-164.49 917.19,-163.95 920.34,-163.39"/>
<polygon fill="midnightblue" stroke="midnightblue" points="640.86,-197.38 631.56,-202.46 642,-204.28 640.86,-197.38"/>
</g>
<!-- Node24 -->
<g id="node24" class="node">
<title>Node24</title>
<g id="a_node24"><a xlink:href="_armored_unit_factory_8h.html" target="_top" xlink:title=" ">
<polygon fill="white" stroke="black" points="191.5,-67.5 191.5,-97.5 318.5,-97.5 318.5,-67.5 191.5,-67.5"/>
<text text-anchor="start" x="199.5" y="-85.5" font-family="Helvetica,sans-Serif" font-size="10.00">include/GameLogic/Units</text>
<text text-anchor="middle" x="255" y="-74.5" font-family="Helvetica,sans-Serif" font-size="10.00">/ArmoredUnitFactory.h</text>
</a>
</g>
</g>
<!-- Node16&#45;&gt;Node24 -->
<g id="edge32" class="edge">
<title>Node16&#45;&gt;Node24</title>
<path fill="none" stroke="midnightblue" d="M494.19,-208.81C448.56,-202.34 389.95,-189.68 343,-165 310.74,-148.05 281.47,-116.19 266.17,-97.72"/>
<polygon fill="midnightblue" stroke="midnightblue" points="493.94,-212.31 504.31,-210.17 494.87,-205.37 493.94,-212.31"/>
</g>
<!-- Node26 -->
<g id="node26" class="node">
<title>Node26</title>
<g id="a_node26"><a xlink:href="_land_unit_factory_8h.html" target="_top" xlink:title=" ">
<polygon fill="white" stroke="black" points="497.5,-134.5 497.5,-164.5 624.5,-164.5 624.5,-134.5 497.5,-134.5"/>
<text text-anchor="start" x="505.5" y="-152.5" font-family="Helvetica,sans-Serif" font-size="10.00">include/GameLogic/Units</text>
<text text-anchor="middle" x="561" y="-141.5" font-family="Helvetica,sans-Serif" font-size="10.00">/LandUnitFactory.h</text>
</a>
</g>
</g>
<!-- Node16&#45;&gt;Node26 -->
<g id="edge35" class="edge">
<title>Node16&#45;&gt;Node26</title>
<path fill="none" stroke="midnightblue" d="M565.4,-191.4C564.43,-182.37 563.36,-172.41 562.52,-164.58"/>
<polygon fill="midnightblue" stroke="midnightblue" points="561.93,-191.83 566.48,-201.4 568.89,-191.08 561.93,-191.83"/>
</g>
<!-- Node28 -->
<g id="node28" class="node">
<title>Node28</title>
<g id="a_node28"><a xlink:href="_transport_unit_factory_8h.html" target="_top" xlink:title=" ">
<polygon fill="white" stroke="black" points="352.5,-134.5 352.5,-164.5 479.5,-164.5 479.5,-134.5 352.5,-134.5"/>
<text text-anchor="start" x="360.5" y="-152.5" font-family="Helvetica,sans-Serif" font-size="10.00">include/GameLogic/Units</text>
<text text-anchor="middle" x="416" y="-141.5" font-family="Helvetica,sans-Serif" font-size="10.00">/TransportUnitFactory.h</text>
</a>
</g>
</g>
<!-- Node16&#45;&gt;Node28 -->
<g id="edge38" class="edge">
<title>Node16&#45;&gt;Node28</title>
<path fill="none" stroke="midnightblue" d="M525.69,-197.41C501.42,-187.03 471.41,-174.2 448.92,-164.58"/>
<polygon fill="midnightblue" stroke="midnightblue" points="524.45,-200.68 535.02,-201.4 527.2,-194.25 524.45,-200.68"/>
</g>
<!-- Node19 -->
<g id="node19" class="node">
<title>Node19</title>
<g id="a_node19"><a xlink:href="_squad_template_8cpp.html" target="_top" xlink:title=" ">
<polygon fill="white" stroke="black" points="715,-67.5 715,-97.5 829,-97.5 829,-67.5 715,-67.5"/>
<text text-anchor="start" x="723" y="-85.5" font-family="Helvetica,sans-Serif" font-size="10.00">src/GameLogic/Squad</text>
<text text-anchor="middle" x="772" y="-74.5" font-family="Helvetica,sans-Serif" font-size="10.00">/SquadTemplate.cpp</text>
</a>
</g>
</g>
<!-- Node18&#45;&gt;Node19 -->
<g id="edge22" class="edge">
<title>Node18&#45;&gt;Node19</title>
<path fill="none" stroke="midnightblue" d="M729.15,-127.02C738.68,-117.34 749.67,-106.17 758.14,-97.58"/>
<polygon fill="midnightblue" stroke="midnightblue" points="726.41,-124.81 721.89,-134.4 731.4,-129.73 726.41,-124.81"/>
</g>
<!-- Node20 -->
<g id="node20" class="node">
<title>Node20</title>
<g id="a_node20"><a xlink:href="_all_squad_templates_8h.html" target="_top" xlink:title=" ">
<polygon fill="white" stroke="black" points="918.5,-67.5 918.5,-97.5 1049.5,-97.5 1049.5,-67.5 918.5,-67.5"/>
<text text-anchor="start" x="926.5" y="-85.5" font-family="Helvetica,sans-Serif" font-size="10.00">include/GameLogic/Squad</text>
<text text-anchor="middle" x="984" y="-74.5" font-family="Helvetica,sans-Serif" font-size="10.00">/AllSquadTemplates.h</text>
</a>
</g>
</g>
<!-- Node18&#45;&gt;Node20 -->
<g id="edge23" class="edge">
<title>Node18&#45;&gt;Node20</title>
<path fill="none" stroke="midnightblue" d="M777.56,-132.12C822.72,-121.48 880.98,-107.76 924.08,-97.61"/>
<polygon fill="midnightblue" stroke="midnightblue" points="776.48,-128.78 767.55,-134.48 778.08,-135.59 776.48,-128.78"/>
</g>
<!-- Node20&#45;&gt;Node12 -->
<g id="edge25" class="edge">
<title>Node20&#45;&gt;Node12</title>
<path fill="none" stroke="midnightblue" d="M1026.26,-102.92C1038.41,-110.75 1050.21,-121.04 1057,-134 1082.1,-181.88 1053.87,-249.99 1042.4,-273.85"/>
<polygon fill="midnightblue" stroke="midnightblue" points="1027.79,-99.77 1017.41,-97.66 1024.21,-105.78 1027.79,-99.77"/>
</g>
<!-- Node21 -->
<g id="node21" class="node">
<title>Node21</title>
<g id="a_node21"><a xlink:href="_all_squad_templates_8cpp.html" target="_top" xlink:title=" ">
<polygon fill="white" stroke="black" points="923,-0.5 923,-30.5 1045,-30.5 1045,-0.5 923,-0.5"/>
<text text-anchor="start" x="931" y="-18.5" font-family="Helvetica,sans-Serif" font-size="10.00">src/GameLogic/Squad</text>
<text text-anchor="middle" x="984" y="-7.5" font-family="Helvetica,sans-Serif" font-size="10.00">/AllSquadTemplates.cpp</text>
</a>
</g>
</g>
<!-- Node20&#45;&gt;Node21 -->
<g id="edge24" class="edge">
<title>Node20&#45;&gt;Node21</title>
<path fill="none" stroke="midnightblue" d="M984,-57.11C984,-48.15 984,-38.32 984,-30.58"/>
<polygon fill="midnightblue" stroke="midnightblue" points="980.5,-57.4 984,-67.4 987.5,-57.4 980.5,-57.4"/>
</g>
<!-- Node22&#45;&gt;Node8 -->
<g id="edge27" class="edge">
<title>Node22&#45;&gt;Node8</title>
<path fill="none" stroke="midnightblue" d="M1051.36,-132.1C1095.36,-121.39 1152.19,-107.56 1193.96,-97.39"/>
<polygon fill="midnightblue" stroke="midnightblue" points="1050.49,-128.71 1041.61,-134.48 1052.15,-135.51 1050.49,-128.71"/>
</g>
<!-- Node22&#45;&gt;Node12 -->
<g id="edge30" class="edge">
<title>Node22&#45;&gt;Node12</title>
<path fill="none" stroke="midnightblue" d="M1002.16,-172.81C1008.27,-181.23 1014.63,-191.16 1019,-201 1030.08,-225.97 1035.13,-258.22 1037.03,-273.59"/>
<polygon fill="midnightblue" stroke="midnightblue" points="1004.81,-170.51 995.98,-164.64 999.23,-174.73 1004.81,-170.51"/>
</g>
<!-- Node22&#45;&gt;Node19 -->
<g id="edge28" class="edge">
<title>Node22&#45;&gt;Node19</title>
<path fill="none" stroke="midnightblue" d="M928.37,-131.44C894.01,-120.91 850.44,-107.55 818.02,-97.61"/>
<polygon fill="midnightblue" stroke="midnightblue" points="927.67,-134.89 938.26,-134.48 929.73,-128.2 927.67,-134.89"/>
</g>
<!-- Node22&#45;&gt;Node20 -->
<g id="edge31" class="edge">
<title>Node22&#45;&gt;Node20</title>
<path fill="none" stroke="midnightblue" d="M984,-124.11C984,-115.15 984,-105.32 984,-97.58"/>
<polygon fill="midnightblue" stroke="midnightblue" points="980.5,-124.4 984,-134.4 987.5,-124.4 980.5,-124.4"/>
</g>
<!-- Node23 -->
<g id="node23" class="node">
<title>Node23</title>
<g id="a_node23"><a xlink:href="_all_units_8cpp.html" target="_top" xlink:title=" ">
<polygon fill="white" stroke="black" points="522,-0.5 522,-30.5 632,-30.5 632,-0.5 522,-0.5"/>
<text text-anchor="start" x="530" y="-18.5" font-family="Helvetica,sans-Serif" font-size="10.00">src/GameLogic/Units</text>
<text text-anchor="middle" x="577" y="-7.5" font-family="Helvetica,sans-Serif" font-size="10.00">/AllUnits.cpp</text>
</a>
</g>
</g>
<!-- Node22&#45;&gt;Node23 -->
<g id="edge29" class="edge">
<title>Node22&#45;&gt;Node23</title>
<path fill="none" stroke="midnightblue" d="M955.09,-128.7C926.55,-110.06 881.06,-82.72 838,-67 769.39,-41.95 685.87,-28.57 632.09,-22.01"/>
<polygon fill="midnightblue" stroke="midnightblue" points="953.46,-131.82 963.73,-134.42 957.32,-125.98 953.46,-131.82"/>
</g>
<!-- Node24&#45;&gt;Node23 -->
<g id="edge33" class="edge">
<title>Node24&#45;&gt;Node23</title>
<path fill="none" stroke="midnightblue" d="M328.59,-66.65C387.39,-54.78 468.51,-38.4 521.83,-27.64"/>
<polygon fill="midnightblue" stroke="midnightblue" points="327.73,-63.25 318.62,-68.66 329.11,-70.11 327.73,-63.25"/>
</g>
<!-- Node25 -->
<g id="node25" class="node">
<title>Node25</title>
<g id="a_node25"><a xlink:href="_armored_unit_factory_8cpp.html" target="_top" xlink:title=" ">
<polygon fill="white" stroke="black" points="192.5,-0.5 192.5,-30.5 317.5,-30.5 317.5,-0.5 192.5,-0.5"/>
<text text-anchor="start" x="200.5" y="-18.5" font-family="Helvetica,sans-Serif" font-size="10.00">src/GameLogic/Units</text>
<text text-anchor="middle" x="255" y="-7.5" font-family="Helvetica,sans-Serif" font-size="10.00">/ArmoredUnitFactory.cpp</text>
</a>
</g>
</g>
<!-- Node24&#45;&gt;Node25 -->
<g id="edge34" class="edge">
<title>Node24&#45;&gt;Node25</title>
<path fill="none" stroke="midnightblue" d="M255,-57.11C255,-48.15 255,-38.32 255,-30.58"/>
<polygon fill="midnightblue" stroke="midnightblue" points="251.5,-57.4 255,-67.4 258.5,-57.4 251.5,-57.4"/>
</g>
<!-- Node26&#45;&gt;Node23 -->
<g id="edge36" class="edge">
<title>Node26&#45;&gt;Node23</title>
<path fill="none" stroke="midnightblue" d="M607.84,-129.53C620.93,-121.8 633.59,-111.44 641,-98 647.65,-85.93 647.01,-79.4 641,-67 633.41,-51.33 618.34,-39.06 604.72,-30.54"/>
<polygon fill="midnightblue" stroke="midnightblue" points="605.88,-126.61 598.77,-134.47 609.23,-132.76 605.88,-126.61"/>
</g>
<!-- Node27 -->
<g id="node27" class="node">
<title>Node27</title>
<g id="a_node27"><a xlink:href="_land_unit_factory_8cpp.html" target="_top" xlink:title=" ">
<polygon fill="white" stroke="black" points="522,-67.5 522,-97.5 632,-97.5 632,-67.5 522,-67.5"/>
<text text-anchor="start" x="530" y="-85.5" font-family="Helvetica,sans-Serif" font-size="10.00">src/GameLogic/Units</text>
<text text-anchor="middle" x="577" y="-74.5" font-family="Helvetica,sans-Serif" font-size="10.00">/LandUnitFactory.cpp</text>
</a>
</g>
</g>
<!-- Node26&#45;&gt;Node27 -->
<g id="edge37" class="edge">
<title>Node26&#45;&gt;Node27</title>
<path fill="none" stroke="midnightblue" d="M566.93,-124.4C569.16,-115.37 571.61,-105.41 573.54,-97.58"/>
<polygon fill="midnightblue" stroke="midnightblue" points="563.46,-123.85 564.47,-134.4 570.26,-125.52 563.46,-123.85"/>
</g>
<!-- Node28&#45;&gt;Node23 -->
<g id="edge39" class="edge">
<title>Node28&#45;&gt;Node23</title>
<path fill="none" stroke="midnightblue" d="M440.49,-127.56C460,-110.97 488.08,-87.29 513,-67 528.37,-54.49 546.07,-40.56 558.95,-30.5"/>
<polygon fill="midnightblue" stroke="midnightblue" points="438.04,-125.06 432.69,-134.21 442.57,-130.39 438.04,-125.06"/>
</g>
<!-- Node28&#45;&gt;Node24 -->
<g id="edge41" class="edge">
<title>Node28&#45;&gt;Node24</title>
<path fill="none" stroke="midnightblue" d="M371.52,-130.54C345.76,-120.14 313.8,-107.24 289.87,-97.58"/>
<polygon fill="midnightblue" stroke="midnightblue" points="370.48,-133.9 381.07,-134.4 373.1,-127.41 370.48,-133.9"/>
</g>
<!-- Node29 -->
<g id="node29" class="node">
<title>Node29</title>
<g id="a_node29"><a xlink:href="_transport_unit_factory_8cpp.html" target="_top" xlink:title=" ">
<polygon fill="white" stroke="black" points="336.5,-67.5 336.5,-97.5 465.5,-97.5 465.5,-67.5 336.5,-67.5"/>
<text text-anchor="start" x="344.5" y="-85.5" font-family="Helvetica,sans-Serif" font-size="10.00">src/GameLogic/Units</text>
<text text-anchor="middle" x="401" y="-74.5" font-family="Helvetica,sans-Serif" font-size="10.00">/TransportUnitFactory.cpp</text>
</a>
</g>
</g>
<!-- Node28&#45;&gt;Node29 -->
<g id="edge40" class="edge">
<title>Node28&#45;&gt;Node29</title>
<path fill="none" stroke="midnightblue" d="M410.44,-124.4C408.35,-115.37 406.06,-105.41 404.25,-97.58"/>
<polygon fill="midnightblue" stroke="midnightblue" points="407.09,-125.44 412.75,-134.4 413.91,-123.87 407.09,-125.44"/>
</g>
<!-- Node31 -->
<g id="node31" class="node">
<title>Node31</title>
<g id="a_node31"><a xlink:href="_game_logic_2_squad_2_action_8cpp.html" target="_top" xlink:title=" ">
<polygon fill="white" stroke="black" points="1104,-134.5 1104,-164.5 1218,-164.5 1218,-134.5 1104,-134.5"/>
<text text-anchor="start" x="1112" y="-152.5" font-family="Helvetica,sans-Serif" font-size="10.00">src/GameLogic/Squad</text>
<text text-anchor="middle" x="1161" y="-141.5" font-family="Helvetica,sans-Serif" font-size="10.00">/Action.cpp</text>
</a>
</g>
</g>
<!-- Node30&#45;&gt;Node31 -->
<g id="edge43" class="edge">
<title>Node30&#45;&gt;Node31</title>
<path fill="none" stroke="midnightblue" d="M1163.13,-196.74C1162.66,-186.49 1162.08,-174 1161.65,-164.59"/>
<polygon fill="midnightblue" stroke="midnightblue" points="1159.64,-196.91 1163.6,-206.73 1166.63,-196.58 1159.64,-196.91"/>
</g>
<!-- Node32 -->
<g id="node32" class="node">
<title>Node32</title>
<g id="a_node32"><a xlink:href="pathfinding_8cpp.html" target="_top" xlink:title=" ">
<polygon fill="white" stroke="black" points="1236.5,-140 1236.5,-159 1349.5,-159 1349.5,-140 1236.5,-140"/>
<text text-anchor="middle" x="1293" y="-147" font-family="Helvetica,sans-Serif" font-size="10.00">src/util/pathfinding.cpp</text>
</a>
</g>
</g>
<!-- Node30&#45;&gt;Node32 -->
<g id="edge44" class="edge">
<title>Node30&#45;&gt;Node32</title>
<path fill="none" stroke="midnightblue" d="M1190.25,-202.27C1215.8,-189.4 1253.89,-170.21 1275.8,-159.17"/>
<polygon fill="midnightblue" stroke="midnightblue" points="1188.49,-199.24 1181.13,-206.87 1191.64,-205.49 1188.49,-199.24"/>
</g>
<!-- Node33&#45;&gt;Node24 -->
<g id="edge52" class="edge">
<title>Node33&#45;&gt;Node24</title>
<path fill="none" stroke="midnightblue" d="M221.4,-325.07C228.98,-270.57 247.07,-140.52 253.05,-97.55"/>
<polygon fill="midnightblue" stroke="midnightblue" points="217.9,-324.81 219.99,-335.2 224.83,-325.78 217.9,-324.81"/>
</g>
<!-- Node34 -->
<g id="node34" class="node">
<title>Node34</title>
<g id="a_node34"><a xlink:href="_armored_unit_8cpp.html" target="_top" xlink:title=" ">
<polygon fill="white" stroke="black" points="246,-268.5 246,-298.5 356,-298.5 356,-268.5 246,-268.5"/>
<text text-anchor="start" x="254" y="-286.5" font-family="Helvetica,sans-Serif" font-size="10.00">src/GameLogic/Units</text>
<text text-anchor="middle" x="301" y="-275.5" font-family="Helvetica,sans-Serif" font-size="10.00">/ArmoredUnit.cpp</text>
</a>
</g>
</g>
<!-- Node33&#45;&gt;Node34 -->
<g id="edge51" class="edge">
<title>Node33&#45;&gt;Node34</title>
<path fill="none" stroke="midnightblue" d="M243.96,-329.17C256.65,-319.23 271.61,-307.51 283.03,-298.58"/>
<polygon fill="midnightblue" stroke="midnightblue" points="241.72,-326.47 236.01,-335.4 246.04,-331.99 241.72,-326.47"/>
</g>
<!-- Node35&#45;&gt;Node26 -->
<g id="edge56" class="edge">
<title>Node35&#45;&gt;Node26</title>
<path fill="none" stroke="midnightblue" d="M508.15,-394.02C502.86,-385.67 497.7,-375.82 495,-366 475.58,-295.28 462.52,-266.75 495,-201 502.8,-185.22 518.15,-173.01 532.09,-164.55"/>
<polygon fill="midnightblue" stroke="midnightblue" points="505.33,-396.1 513.83,-402.43 511.13,-392.18 505.33,-396.1"/>
</g>
<!-- Node36 -->
<g id="node36" class="node">
<title>Node36</title>
<g id="a_node36"><a xlink:href="_land_unit_8cpp.html" target="_top" xlink:title=" ">
<polygon fill="white" stroke="black" points="504,-335.5 504,-365.5 614,-365.5 614,-335.5 504,-335.5"/>
<text text-anchor="start" x="512" y="-353.5" font-family="Helvetica,sans-Serif" font-size="10.00">src/GameLogic/Units</text>
<text text-anchor="middle" x="559" y="-342.5" font-family="Helvetica,sans-Serif" font-size="10.00">/LandUnit.cpp</text>
</a>
</g>
</g>
<!-- Node35&#45;&gt;Node36 -->
<g id="edge55" class="edge">
<title>Node35&#45;&gt;Node36</title>
<path fill="none" stroke="midnightblue" d="M537.14,-393.28C541.99,-384.02 547.41,-373.66 551.64,-365.58"/>
<polygon fill="midnightblue" stroke="midnightblue" points="533.91,-391.91 532.38,-402.4 540.11,-395.16 533.91,-391.91"/>
</g>
<!-- Node37&#45;&gt;Node28 -->
<g id="edge60" class="edge">
<title>Node37&#45;&gt;Node28</title>
<path fill="none" stroke="midnightblue" d="M402.02,-394.53C408.82,-386.28 415.46,-376.38 419,-366 443.65,-293.76 427.11,-199.81 419.37,-164.62"/>
<polygon fill="midnightblue" stroke="midnightblue" points="399.26,-392.36 395.26,-402.17 404.51,-397 399.26,-392.36"/>
</g>
<!-- Node37&#45;&gt;Node33 -->
<g id="edge59" class="edge">
<title>Node37&#45;&gt;Node33</title>
<path fill="none" stroke="midnightblue" d="M335.25,-398.54C309.33,-388.14 277.16,-375.24 253.08,-365.58"/>
<polygon fill="midnightblue" stroke="midnightblue" points="334.26,-401.92 344.85,-402.4 336.87,-395.42 334.26,-401.92"/>
</g>
<!-- Node38 -->
<g id="node38" class="node">
<title>Node38</title>
<g id="a_node38"><a xlink:href="_transport_unit_8cpp.html" target="_top" xlink:title=" ">
<polygon fill="white" stroke="black" points="300,-335.5 300,-365.5 410,-365.5 410,-335.5 300,-335.5"/>
<text text-anchor="start" x="308" y="-353.5" font-family="Helvetica,sans-Serif" font-size="10.00">src/GameLogic/Units</text>
<text text-anchor="middle" x="355" y="-342.5" font-family="Helvetica,sans-Serif" font-size="10.00">/TransportUnit.cpp</text>
</a>
</g>
</g>
<!-- Node37&#45;&gt;Node38 -->
<g id="edge58" class="edge">
<title>Node37&#45;&gt;Node38</title>
<path fill="none" stroke="midnightblue" d="M370.96,-392.99C367.42,-383.8 363.49,-373.58 360.41,-365.58"/>
<polygon fill="midnightblue" stroke="midnightblue" points="367.72,-394.32 374.58,-402.4 374.25,-391.81 367.72,-394.32"/>
</g>
</g>
</svg>
