<?xml version="1.0" encoding="UTF-8" standalone="no"?>
<!DOCTYPE svg PUBLIC "-//W3C//DTD SVG 1.1//EN"
 "http://www.w3.org/Graphics/SVG/1.1/DTD/svg11.dtd">
<!-- Generated by graphviz version 2.47.1 (20210421.1823)
 -->
<!-- Title: src/GameLogic/Units/Unit.cpp Pages: 1 -->
<svg width="1469pt" height="778pt"
 viewBox="0.00 0.00 1468.50 778.00" xmlns="http://www.w3.org/2000/svg" xmlns:xlink="http://www.w3.org/1999/xlink">
<g id="graph0" class="graph" transform="scale(1 1) rotate(0) translate(4 774)">
<title>src/GameLogic/Units/Unit.cpp</title>
<polygon fill="white" stroke="transparent" points="-4,4 -4,-774 1464.5,-774 1464.5,4 -4,4"/>
<!-- Node1 -->
<g id="node1" class="node">
<title>Node1</title>
<g id="a_node1"><a xlink:title=" ">
<polygon fill="#bfbfbf" stroke="black" points="44.5,-739.5 44.5,-769.5 154.5,-769.5 154.5,-739.5 44.5,-739.5"/>
<text text-anchor="start" x="52.5" y="-757.5" font-family="Helvetica,sans-Serif" font-size="10.00">src/GameLogic/Units</text>
<text text-anchor="middle" x="99.5" y="-746.5" font-family="Helvetica,sans-Serif" font-size="10.00">/Unit.cpp</text>
</a>
</g>
</g>
<!-- Node2 -->
<g id="node2" class="node">
<title>Node2</title>
<g id="a_node2"><a xlink:href="_unit_8h.html" target="_top" xlink:title=" ">
<polygon fill="white" stroke="black" points="94.5,-683.5 94.5,-702.5 216.5,-702.5 216.5,-683.5 94.5,-683.5"/>
<text text-anchor="middle" x="155.5" y="-690.5" font-family="Helvetica,sans-Serif" font-size="10.00">GameLogic/Units/Unit.h</text>
</a>
</g>
</g>
<!-- Node1&#45;&gt;Node2 -->
<g id="edge1" class="edge">
<title>Node1&#45;&gt;Node2</title>
<path fill="none" stroke="midnightblue" d="M112.77,-739.4C121.08,-730.58 131.8,-719.18 140.42,-710.02"/>
<polygon fill="midnightblue" stroke="midnightblue" points="143.05,-712.34 147.35,-702.66 137.95,-707.54 143.05,-712.34"/>
</g>
<!-- Node4 -->
<g id="node4" class="node">
<title>Node4</title>
<g id="a_node4"><a xlink:href="_unit_order_8h.html" target="_top" xlink:title=" ">
<polygon fill="white" stroke="black" points="11.5,-627.5 11.5,-646.5 77.5,-646.5 77.5,-627.5 11.5,-627.5"/>
<text text-anchor="middle" x="44.5" y="-634.5" font-family="Helvetica,sans-Serif" font-size="10.00">UnitOrder.h</text>
</a>
</g>
</g>
<!-- Node1&#45;&gt;Node4 -->
<g id="edge82" class="edge">
<title>Node1&#45;&gt;Node4</title>
<path fill="none" stroke="midnightblue" d="M92.76,-739.34C82.76,-718.34 64,-678.96 53.05,-655.96"/>
<polygon fill="midnightblue" stroke="midnightblue" points="56.09,-654.19 48.63,-646.67 49.77,-657.2 56.09,-654.19"/>
</g>
<!-- Node3 -->
<g id="node3" class="node">
<title>Node3</title>
<g id="a_node3"><a xlink:title=" ">
<polygon fill="white" stroke="#bfbfbf" points="134,-627.5 134,-646.5 177,-646.5 177,-627.5 134,-627.5"/>
<text text-anchor="middle" x="155.5" y="-634.5" font-family="Helvetica,sans-Serif" font-size="10.00">cstdio</text>
</a>
</g>
</g>
<!-- Node2&#45;&gt;Node3 -->
<g id="edge2" class="edge">
<title>Node2&#45;&gt;Node3</title>
<path fill="none" stroke="midnightblue" d="M155.5,-683.08C155.5,-676.01 155.5,-665.86 155.5,-656.99"/>
<polygon fill="midnightblue" stroke="midnightblue" points="159,-656.75 155.5,-646.75 152,-656.75 159,-656.75"/>
</g>
<!-- Node2&#45;&gt;Node4 -->
<g id="edge3" class="edge">
<title>Node2&#45;&gt;Node4</title>
<path fill="none" stroke="midnightblue" d="M132.82,-683.44C113.15,-674.79 85.15,-661.31 65.87,-651.27"/>
<polygon fill="midnightblue" stroke="midnightblue" points="67.4,-648.12 56.93,-646.52 64.11,-654.3 67.4,-648.12"/>
</g>
<!-- Node6 -->
<g id="node6" class="node">
<title>Node6</title>
<g id="a_node6"><a xlink:href="_squad_8h.html" target="_top" xlink:title=" ">
<polygon fill="white" stroke="black" points="882.5,-627.5 882.5,-646.5 1018.5,-646.5 1018.5,-627.5 882.5,-627.5"/>
<text text-anchor="middle" x="950.5" y="-634.5" font-family="Helvetica,sans-Serif" font-size="10.00">GameLogic/Squad/Squad.h</text>
</a>
</g>
</g>
<!-- Node2&#45;&gt;Node6 -->
<g id="edge6" class="edge">
<title>Node2&#45;&gt;Node6</title>
<path fill="none" stroke="midnightblue" d="M216.65,-687.58C359.36,-677.64 713.96,-653.54 872.19,-643.04"/>
<polygon fill="midnightblue" stroke="midnightblue" points="872.57,-646.52 882.32,-642.37 872.11,-639.54 872.57,-646.52"/>
</g>
<!-- Node23 -->
<g id="node23" class="node">
<title>Node23</title>
<g id="a_node23"><a xlink:href="_all_flags_8h.html" target="_top" xlink:title=" ">
<polygon fill="white" stroke="black" points="349,-454 349,-473 408,-473 408,-454 349,-454"/>
<text text-anchor="middle" x="378.5" y="-461" font-family="Helvetica,sans-Serif" font-size="10.00">AllFlags.h</text>
</a>
</g>
</g>
<!-- Node2&#45;&gt;Node23 -->
<g id="edge77" class="edge">
<title>Node2&#45;&gt;Node23</title>
<path fill="none" stroke="midnightblue" d="M169.7,-683.42C183.18,-674.97 203.66,-661.28 219.5,-647 280.28,-592.23 340.58,-515.21 365.97,-481.46"/>
<polygon fill="midnightblue" stroke="midnightblue" points="369,-483.25 372.18,-473.15 363.39,-479.07 369,-483.25"/>
</g>
<!-- Node41 -->
<g id="node41" class="node">
<title>Node41</title>
<g id="a_node41"><a xlink:href="_textures_8h.html" target="_top" xlink:title=" ">
<polygon fill="white" stroke="black" points="0,-280.5 0,-299.5 101,-299.5 101,-280.5 0,-280.5"/>
<text text-anchor="middle" x="50.5" y="-287.5" font-family="Helvetica,sans-Serif" font-size="10.00">graphics/Textures.h</text>
</a>
</g>
</g>
<!-- Node2&#45;&gt;Node41 -->
<g id="edge78" class="edge">
<title>Node2&#45;&gt;Node41</title>
<path fill="none" stroke="midnightblue" d="M147.94,-683.32C140.82,-674.69 130.39,-660.78 124.5,-647 72.47,-525.33 56.03,-364.22 51.78,-309.84"/>
<polygon fill="midnightblue" stroke="midnightblue" points="55.26,-309.37 51.04,-299.65 48.28,-309.88 55.26,-309.37"/>
</g>
<!-- Node4&#45;&gt;Node2 -->
<g id="edge5" class="edge">
<title>Node4&#45;&gt;Node2</title>
<path fill="none" stroke="midnightblue" d="M67.4,-646.65C86.97,-655.27 114.66,-668.61 133.86,-678.59"/>
<polygon fill="midnightblue" stroke="midnightblue" points="132.31,-681.73 142.78,-683.32 135.59,-675.55 132.31,-681.73"/>
</g>
<!-- Node5 -->
<g id="node5" class="node">
<title>Node5</title>
<g id="a_node5"><a xlink:title=" ">
<polygon fill="white" stroke="#bfbfbf" points="241,-280.5 241,-299.5 282,-299.5 282,-280.5 241,-280.5"/>
<text text-anchor="middle" x="261.5" y="-287.5" font-family="Helvetica,sans-Serif" font-size="10.00">string</text>
</a>
</g>
</g>
<!-- Node4&#45;&gt;Node5 -->
<g id="edge4" class="edge">
<title>Node4&#45;&gt;Node5</title>
<path fill="none" stroke="midnightblue" d="M45.68,-627.46C48.12,-608.99 53.5,-563.94 53.5,-526 53.5,-526 53.5,-526 53.5,-462.5 53.5,-371.55 173.36,-319.85 231.11,-300.23"/>
<polygon fill="midnightblue" stroke="midnightblue" points="232.39,-303.49 240.8,-297.04 230.2,-296.84 232.39,-303.49"/>
</g>
<!-- Node6&#45;&gt;Node2 -->
<g id="edge70" class="edge">
<title>Node6&#45;&gt;Node2</title>
<path fill="none" stroke="midnightblue" d="M882.3,-642.91C733.04,-653.29 378.96,-677.34 226.87,-687.42"/>
<polygon fill="midnightblue" stroke="midnightblue" points="226.45,-683.94 216.71,-688.09 226.92,-690.93 226.45,-683.94"/>
</g>
<!-- Node7 -->
<g id="node7" class="node">
<title>Node7</title>
<g id="a_node7"><a xlink:href="_cell_8h.html" target="_top" xlink:title=" ">
<polygon fill="white" stroke="black" points="851.5,-515.5 851.5,-534.5 945.5,-534.5 945.5,-515.5 851.5,-515.5"/>
<text text-anchor="middle" x="898.5" y="-522.5" font-family="Helvetica,sans-Serif" font-size="10.00">GameLogic/Cell.h</text>
</a>
</g>
</g>
<!-- Node6&#45;&gt;Node7 -->
<g id="edge7" class="edge">
<title>Node6&#45;&gt;Node7</title>
<path fill="none" stroke="midnightblue" d="M938.96,-627.48C931.68,-618.51 923.72,-603.93 917.5,-591 910.08,-575.58 902.45,-557.71 898.48,-544.61"/>
<polygon fill="midnightblue" stroke="midnightblue" points="901.79,-543.41 896.03,-534.51 894.99,-545.06 901.79,-543.41"/>
</g>
<!-- Node8 -->
<g id="node8" class="node">
<title>Node8</title>
<g id="a_node8"><a xlink:href="gameplay_clickable_game_object_8h.html" target="_top" xlink:title=" ">
<polygon fill="white" stroke="black" points="1132,-448.5 1132,-478.5 1261,-478.5 1261,-448.5 1132,-448.5"/>
<text text-anchor="start" x="1140" y="-466.5" font-family="Helvetica,sans-Serif" font-size="10.00">engine/gameplayClickable</text>
<text text-anchor="middle" x="1196.5" y="-455.5" font-family="Helvetica,sans-Serif" font-size="10.00">GameObject.h</text>
</a>
</g>
</g>
<!-- Node6&#45;&gt;Node8 -->
<g id="edge71" class="edge">
<title>Node6&#45;&gt;Node8</title>
<path fill="none" stroke="midnightblue" d="M991.22,-627.43C1018.1,-620.5 1053.25,-608.89 1080.5,-591 1123.43,-562.81 1161.13,-515.24 1181.19,-487.17"/>
<polygon fill="midnightblue" stroke="midnightblue" points="1184.19,-488.98 1187.06,-478.78 1178.46,-484.96 1184.19,-488.98"/>
</g>
<!-- Node11 -->
<g id="node11" class="node">
<title>Node11</title>
<g id="a_node11"><a xlink:href="config_8h.html" target="_top" xlink:title=" ">
<polygon fill="white" stroke="black" points="127,-112.5 127,-131.5 208,-131.5 208,-112.5 127,-112.5"/>
<text text-anchor="middle" x="167.5" y="-119.5" font-family="Helvetica,sans-Serif" font-size="10.00">engine/config.h</text>
</a>
</g>
</g>
<!-- Node6&#45;&gt;Node11 -->
<g id="edge75" class="edge">
<title>Node6&#45;&gt;Node11</title>
<path fill="none" stroke="midnightblue" d="M882.27,-631.34C685.25,-616.04 129.5,-559.03 129.5,-403 129.5,-403 129.5,-403 129.5,-233 129.5,-198.81 146.1,-161.76 157.36,-140.57"/>
<polygon fill="midnightblue" stroke="midnightblue" points="160.45,-142.22 162.22,-131.77 154.32,-138.83 160.45,-142.22"/>
</g>
<!-- Node14 -->
<g id="node14" class="node">
<title>Node14</title>
<g id="a_node14"><a xlink:href="_facade_8h.html" target="_top" xlink:title=" ">
<polygon fill="white" stroke="black" points="1247.5,-0.5 1247.5,-19.5 1303.5,-19.5 1303.5,-0.5 1247.5,-0.5"/>
<text text-anchor="middle" x="1275.5" y="-7.5" font-family="Helvetica,sans-Serif" font-size="10.00">Facade.h</text>
</a>
</g>
</g>
<!-- Node6&#45;&gt;Node14 -->
<g id="edge76" class="edge">
<title>Node6&#45;&gt;Node14</title>
<path fill="none" stroke="midnightblue" d="M1018.75,-635.39C1157.72,-632.31 1460.5,-615.33 1460.5,-526 1460.5,-526 1460.5,-526 1460.5,-121 1460.5,-53.25 1367.7,-26.29 1313.55,-16.32"/>
<polygon fill="midnightblue" stroke="midnightblue" points="1314.05,-12.86 1303.6,-14.6 1312.85,-19.76 1314.05,-12.86"/>
</g>
<!-- Node40 -->
<g id="node40" class="node">
<title>Node40</title>
<g id="a_node40"><a xlink:href="_game_logic_2_squad_2_action_8h.html" target="_top" xlink:title=" ">
<polygon fill="white" stroke="black" points="935.5,-571.5 935.5,-590.5 1071.5,-590.5 1071.5,-571.5 935.5,-571.5"/>
<text text-anchor="middle" x="1003.5" y="-578.5" font-family="Helvetica,sans-Serif" font-size="10.00">GameLogic/Squad/Action.h</text>
</a>
</g>
</g>
<!-- Node6&#45;&gt;Node40 -->
<g id="edge72" class="edge">
<title>Node6&#45;&gt;Node40</title>
<path fill="none" stroke="midnightblue" d="M954.09,-627.08C960.27,-619.06 971.67,-607.1 982.1,-597.51"/>
<polygon fill="midnightblue" stroke="midnightblue" points="984.59,-599.99 989.78,-590.75 979.96,-594.73 984.59,-599.99"/>
</g>
<!-- Node7&#45;&gt;Node6 -->
<g id="edge30" class="edge">
<title>Node7&#45;&gt;Node6</title>
<path fill="none" stroke="midnightblue" d="M907.77,-534.51C915.96,-547.03 925.91,-571.07 935.5,-591 939.82,-599.99 944.99,-609.78 948.65,-617.93"/>
<polygon fill="midnightblue" stroke="midnightblue" points="945.49,-619.45 952.4,-627.48 952.01,-616.89 945.49,-619.45"/>
</g>
<!-- Node7&#45;&gt;Node8 -->
<g id="edge8" class="edge">
<title>Node7&#45;&gt;Node8</title>
<path fill="none" stroke="midnightblue" d="M941.2,-515.48C988.26,-506.08 1064.85,-490.79 1121.88,-479.4"/>
<polygon fill="midnightblue" stroke="midnightblue" points="1122.81,-482.78 1131.94,-477.39 1121.44,-475.92 1122.81,-482.78"/>
</g>
<!-- Node7&#45;&gt;Node11 -->
<g id="edge28" class="edge">
<title>Node7&#45;&gt;Node11</title>
<path fill="none" stroke="midnightblue" d="M851.13,-523.9C724.33,-523.11 379.64,-517.38 273.5,-479 218.99,-459.29 167.5,-460.97 167.5,-403 167.5,-403 167.5,-403 167.5,-233 167.5,-200.95 167.5,-163.64 167.5,-141.75"/>
<polygon fill="midnightblue" stroke="midnightblue" points="171,-141.56 167.5,-131.56 164,-141.56 171,-141.56"/>
</g>
<!-- Node7&#45;&gt;Node14 -->
<g id="edge29" class="edge">
<title>Node7&#45;&gt;Node14</title>
<path fill="none" stroke="midnightblue" d="M935.18,-515.43C960.2,-508.39 993.25,-496.67 1018.5,-479 1162.34,-378.33 1275.5,-354.57 1275.5,-179 1275.5,-179 1275.5,-179 1275.5,-121 1275.5,-88.95 1275.5,-51.64 1275.5,-29.75"/>
<polygon fill="midnightblue" stroke="midnightblue" points="1279,-29.56 1275.5,-19.56 1272,-29.56 1279,-29.56"/>
</g>
<!-- Node17 -->
<g id="node17" class="node">
<title>Node17</title>
<g id="a_node17"><a xlink:title=" ">
<polygon fill="white" stroke="#bfbfbf" points="1157.5,-56.5 1157.5,-75.5 1211.5,-75.5 1211.5,-56.5 1157.5,-56.5"/>
<text text-anchor="middle" x="1184.5" y="-63.5" font-family="Helvetica,sans-Serif" font-size="10.00">iostream</text>
</a>
</g>
</g>
<!-- Node7&#45;&gt;Node17 -->
<g id="edge32" class="edge">
<title>Node7&#45;&gt;Node17</title>
<path fill="none" stroke="midnightblue" d="M921.75,-515.36C940.83,-507.59 967.94,-494.97 988.5,-479 1019.6,-454.84 1023.73,-444.14 1046.5,-412 1096.21,-341.83 1110.92,-323.99 1142.5,-244 1164.39,-188.56 1176.83,-118.65 1181.86,-85.75"/>
<polygon fill="midnightblue" stroke="midnightblue" points="1185.34,-86.14 1183.33,-75.74 1178.41,-85.12 1185.34,-86.14"/>
</g>
<!-- Node19 -->
<g id="node19" class="node">
<title>Node19</title>
<g id="a_node19"><a xlink:href="cellgen_8h.html" target="_top" xlink:title=" ">
<polygon fill="white" stroke="black" points="760,-392.5 760,-411.5 831,-411.5 831,-392.5 760,-392.5"/>
<text text-anchor="middle" x="795.5" y="-399.5" font-family="Helvetica,sans-Serif" font-size="10.00">util/cellgen.h</text>
</a>
</g>
</g>
<!-- Node7&#45;&gt;Node19 -->
<g id="edge19" class="edge">
<title>Node7&#45;&gt;Node19</title>
<path fill="none" stroke="midnightblue" d="M892.58,-515.23C882.65,-500.73 861.73,-471.06 841.5,-448 832.48,-437.71 821.56,-426.96 812.62,-418.55"/>
<polygon fill="midnightblue" stroke="midnightblue" points="814.8,-415.8 805.08,-411.57 810.04,-420.93 814.8,-415.8"/>
</g>
<!-- Node21 -->
<g id="node21" class="node">
<title>Node21</title>
<g id="a_node21"><a xlink:title=" ">
<polygon fill="white" stroke="#bfbfbf" points="878,-336.5 878,-355.5 913,-355.5 913,-336.5 878,-336.5"/>
<text text-anchor="middle" x="895.5" y="-343.5" font-family="Helvetica,sans-Serif" font-size="10.00">map</text>
</a>
</g>
</g>
<!-- Node7&#45;&gt;Node21 -->
<g id="edge31" class="edge">
<title>Node7&#45;&gt;Node21</title>
<path fill="none" stroke="midnightblue" d="M898.36,-515.46C897.9,-488.43 896.47,-404.24 895.82,-366.11"/>
<polygon fill="midnightblue" stroke="midnightblue" points="899.32,-365.81 895.65,-355.87 892.32,-365.93 899.32,-365.81"/>
</g>
<!-- Node7&#45;&gt;Node23 -->
<g id="edge23" class="edge">
<title>Node7&#45;&gt;Node23</title>
<path fill="none" stroke="midnightblue" d="M851.42,-521.43C768.12,-516.42 589.48,-503.63 440.5,-479 433.23,-477.8 425.54,-476.24 418.14,-474.59"/>
<polygon fill="midnightblue" stroke="midnightblue" points="418.83,-471.16 408.3,-472.31 417.25,-477.98 418.83,-471.16"/>
</g>
<!-- Node25 -->
<g id="node25" class="node">
<title>Node25</title>
<g id="a_node25"><a xlink:href="geometry_8h.html" target="_top" xlink:title=" ">
<polygon fill="white" stroke="black" points="752.5,-454 752.5,-473 832.5,-473 832.5,-454 752.5,-454"/>
<text text-anchor="middle" x="792.5" y="-461" font-family="Helvetica,sans-Serif" font-size="10.00">util/geometry.h</text>
</a>
</g>
</g>
<!-- Node7&#45;&gt;Node25 -->
<g id="edge33" class="edge">
<title>Node7&#45;&gt;Node25</title>
<path fill="none" stroke="midnightblue" d="M883.31,-515.48C865.84,-505.67 836.92,-489.43 816.42,-477.92"/>
<polygon fill="midnightblue" stroke="midnightblue" points="818.09,-474.85 807.66,-473.01 814.67,-480.96 818.09,-474.85"/>
</g>
<!-- Node26 -->
<g id="node26" class="node">
<title>Node26</title>
<g id="a_node26"><a xlink:href="_none_8h.html" target="_top" xlink:title=" ">
<polygon fill="white" stroke="black" points="1020,-224.5 1020,-243.5 1133,-243.5 1133,-224.5 1020,-224.5"/>
<text text-anchor="middle" x="1076.5" y="-231.5" font-family="Helvetica,sans-Serif" font-size="10.00">engine/actions/None.h</text>
</a>
</g>
</g>
<!-- Node7&#45;&gt;Node26 -->
<g id="edge36" class="edge">
<title>Node7&#45;&gt;Node26</title>
<path fill="none" stroke="midnightblue" d="M911.54,-515.29C943.53,-493.1 1025.89,-430.86 1061.5,-356 1077.36,-322.67 1078.57,-278.6 1077.73,-253.89"/>
<polygon fill="midnightblue" stroke="midnightblue" points="1081.22,-253.54 1077.23,-243.73 1074.23,-253.89 1081.22,-253.54"/>
</g>
<!-- Node27 -->
<g id="node27" class="node">
<title>Node27</title>
<g id="a_node27"><a xlink:href="game_controller_8h.html" target="_top" xlink:title=" ">
<polygon fill="white" stroke="black" points="931,-336.5 931,-355.5 1052,-355.5 1052,-336.5 931,-336.5"/>
<text text-anchor="middle" x="991.5" y="-343.5" font-family="Helvetica,sans-Serif" font-size="10.00">engine/gameController.h</text>
</a>
</g>
</g>
<!-- Node7&#45;&gt;Node27 -->
<g id="edge38" class="edge">
<title>Node7&#45;&gt;Node27</title>
<path fill="none" stroke="midnightblue" d="M902.99,-515.46C917.31,-488.19 962.19,-402.78 981.97,-365.13"/>
<polygon fill="midnightblue" stroke="midnightblue" points="985.29,-366.35 986.84,-355.87 979.09,-363.09 985.29,-366.35"/>
</g>
<!-- Node31 -->
<g id="node31" class="node">
<title>Node31</title>
<g id="a_node31"><a xlink:href="_set_squad_path_8h.html" target="_top" xlink:title=" ">
<polygon fill="white" stroke="black" points="1279,-454 1279,-473 1432,-473 1432,-454 1279,-454"/>
<text text-anchor="middle" x="1355.5" y="-461" font-family="Helvetica,sans-Serif" font-size="10.00">engine/actions/SetSquadPath.h</text>
</a>
</g>
</g>
<!-- Node7&#45;&gt;Node31 -->
<g id="edge47" class="edge">
<title>Node7&#45;&gt;Node31</title>
<path fill="none" stroke="midnightblue" d="M945.51,-518.4C1014.86,-510.59 1148.2,-495.51 1261.5,-479 1270.42,-477.7 1279.85,-476.21 1289.17,-474.69"/>
<polygon fill="midnightblue" stroke="midnightblue" points="1289.91,-478.12 1299.21,-473.04 1288.77,-471.21 1289.91,-478.12"/>
</g>
<!-- Node32 -->
<g id="node32" class="node">
<title>Node32</title>
<g id="a_node32"><a xlink:href="_all_units_8h.html" target="_top" xlink:title=" ">
<polygon fill="white" stroke="black" points="272,-392.5 272,-411.5 331,-411.5 331,-392.5 272,-392.5"/>
<text text-anchor="middle" x="301.5" y="-399.5" font-family="Helvetica,sans-Serif" font-size="10.00">AllUnits.h</text>
</a>
</g>
</g>
<!-- Node7&#45;&gt;Node32 -->
<g id="edge51" class="edge">
<title>Node7&#45;&gt;Node32</title>
<path fill="none" stroke="midnightblue" d="M851.34,-522.83C724.26,-519.33 381.46,-507.32 339.5,-479 320.06,-465.88 310.11,-439.74 305.36,-421.81"/>
<polygon fill="midnightblue" stroke="midnightblue" points="308.73,-420.84 303.04,-411.9 301.91,-422.44 308.73,-420.84"/>
</g>
<!-- Node34 -->
<g id="node34" class="node">
<title>Node34</title>
<g id="a_node34"><a xlink:href="_all_squad_templates_8h.html" target="_top" xlink:title=" ">
<polygon fill="white" stroke="black" points="449,-454 449,-473 558,-473 558,-454 449,-454"/>
<text text-anchor="middle" x="503.5" y="-461" font-family="Helvetica,sans-Serif" font-size="10.00">AllSquadTemplates.h</text>
</a>
</g>
</g>
<!-- Node7&#45;&gt;Node34 -->
<g id="edge56" class="edge">
<title>Node7&#45;&gt;Node34</title>
<path fill="none" stroke="midnightblue" d="M851.25,-516.88C780.65,-506.25 647.46,-486.18 567.98,-474.21"/>
<polygon fill="midnightblue" stroke="midnightblue" points="568.49,-470.75 558.08,-472.72 567.45,-477.67 568.49,-470.75"/>
</g>
<!-- Node9 -->
<g id="node9" class="node">
<title>Node9</title>
<g id="a_node9"><a xlink:href="game_object_8h.html" target="_top" xlink:title=" ">
<polygon fill="white" stroke="black" points="825,-168.5 825,-187.5 902,-187.5 902,-168.5 825,-168.5"/>
<text text-anchor="middle" x="863.5" y="-175.5" font-family="Helvetica,sans-Serif" font-size="10.00">gameObject.h</text>
</a>
</g>
</g>
<!-- Node8&#45;&gt;Node9 -->
<g id="edge9" class="edge">
<title>Node8&#45;&gt;Node9</title>
<path fill="none" stroke="midnightblue" d="M1198.16,-448.37C1202.17,-407 1207.64,-285.18 1142.5,-224 1110.03,-193.51 983.27,-183.63 912.3,-180.47"/>
<polygon fill="midnightblue" stroke="midnightblue" points="912.39,-176.97 902.26,-180.05 912.1,-183.96 912.39,-176.97"/>
</g>
<!-- Node10 -->
<g id="node10" class="node">
<title>Node10</title>
<g id="a_node10"><a xlink:title=" ">
<polygon fill="white" stroke="#bfbfbf" points="774,-112.5 774,-131.5 803,-131.5 803,-112.5 774,-112.5"/>
<text text-anchor="middle" x="788.5" y="-119.5" font-family="Helvetica,sans-Serif" font-size="10.00">list</text>
</a>
</g>
</g>
<!-- Node9&#45;&gt;Node10 -->
<g id="edge10" class="edge">
<title>Node9&#45;&gt;Node10</title>
<path fill="none" stroke="midnightblue" d="M851.45,-168.32C840.04,-160.11 822.67,-147.6 809.07,-137.81"/>
<polygon fill="midnightblue" stroke="midnightblue" points="810.93,-134.84 800.77,-131.83 806.84,-140.52 810.93,-134.84"/>
</g>
<!-- Node9&#45;&gt;Node11 -->
<g id="edge11" class="edge">
<title>Node9&#45;&gt;Node11</title>
<path fill="none" stroke="midnightblue" d="M824.59,-173.98C706.41,-164.81 351.63,-137.29 218.61,-126.97"/>
<polygon fill="midnightblue" stroke="midnightblue" points="218.54,-123.45 208.3,-126.17 218,-130.43 218.54,-123.45"/>
</g>
<!-- Node16 -->
<g id="node16" class="node">
<title>Node16</title>
<g id="a_node16"><a xlink:href="engine_2_action_8h.html" target="_top" xlink:title=" ">
<polygon fill="white" stroke="black" points="1035,-112.5 1035,-131.5 1118,-131.5 1118,-112.5 1035,-112.5"/>
<text text-anchor="middle" x="1076.5" y="-119.5" font-family="Helvetica,sans-Serif" font-size="10.00">engine/Action.h</text>
</a>
</g>
</g>
<!-- Node9&#45;&gt;Node16 -->
<g id="edge16" class="edge">
<title>Node9&#45;&gt;Node16</title>
<path fill="none" stroke="midnightblue" d="M897.25,-168.44C934.02,-159.12 992.95,-144.18 1033.12,-134"/>
<polygon fill="midnightblue" stroke="midnightblue" points="1034.07,-137.37 1042.91,-131.52 1032.35,-130.58 1034.07,-137.37"/>
</g>
<!-- Node12 -->
<g id="node12" class="node">
<title>Node12</title>
<g id="a_node12"><a xlink:href="_s_f_m_l_facade_8h.html" target="_top" xlink:title=" ">
<polygon fill="white" stroke="black" points="106,-56.5 106,-75.5 229,-75.5 229,-56.5 106,-56.5"/>
<text text-anchor="middle" x="167.5" y="-63.5" font-family="Helvetica,sans-Serif" font-size="10.00">graphics/SFMLFacade.h</text>
</a>
</g>
</g>
<!-- Node11&#45;&gt;Node12 -->
<g id="edge12" class="edge">
<title>Node11&#45;&gt;Node12</title>
<path fill="none" stroke="midnightblue" d="M167.5,-112.08C167.5,-105.01 167.5,-94.86 167.5,-85.99"/>
<polygon fill="midnightblue" stroke="midnightblue" points="171,-85.75 167.5,-75.75 164,-85.75 171,-85.75"/>
</g>
<!-- Node15 -->
<g id="node15" class="node">
<title>Node15</title>
<g id="a_node15"><a xlink:title=" ">
<polygon fill="white" stroke="#bfbfbf" points="247.5,-56.5 247.5,-75.5 345.5,-75.5 345.5,-56.5 247.5,-56.5"/>
<text text-anchor="middle" x="296.5" y="-63.5" font-family="Helvetica,sans-Serif" font-size="10.00">nlohmann/json.hpp</text>
</a>
</g>
</g>
<!-- Node11&#45;&gt;Node15 -->
<g id="edge15" class="edge">
<title>Node11&#45;&gt;Node15</title>
<path fill="none" stroke="midnightblue" d="M187.94,-112.44C209.17,-103.56 242.6,-89.56 266.75,-79.45"/>
<polygon fill="midnightblue" stroke="midnightblue" points="268.28,-82.61 276.16,-75.52 265.58,-76.15 268.28,-82.61"/>
</g>
<!-- Node13 -->
<g id="node13" class="node">
<title>Node13</title>
<g id="a_node13"><a xlink:title=" ">
<polygon fill="white" stroke="#bfbfbf" points="115.5,-0.5 115.5,-19.5 219.5,-19.5 219.5,-0.5 115.5,-0.5"/>
<text text-anchor="middle" x="167.5" y="-7.5" font-family="Helvetica,sans-Serif" font-size="10.00">SFML/Graphics.hpp</text>
</a>
</g>
</g>
<!-- Node12&#45;&gt;Node13 -->
<g id="edge13" class="edge">
<title>Node12&#45;&gt;Node13</title>
<path fill="none" stroke="midnightblue" d="M167.5,-56.08C167.5,-49.01 167.5,-38.86 167.5,-29.99"/>
<polygon fill="midnightblue" stroke="midnightblue" points="171,-29.75 167.5,-19.75 164,-29.75 171,-29.75"/>
</g>
<!-- Node12&#45;&gt;Node14 -->
<g id="edge14" class="edge">
<title>Node12&#45;&gt;Node14</title>
<path fill="none" stroke="midnightblue" d="M229.04,-56.88C232.24,-56.56 235.4,-56.26 238.5,-56 627.48,-22.96 1100.72,-13.62 1237.07,-11.52"/>
<polygon fill="midnightblue" stroke="midnightblue" points="1237.45,-15.02 1247.4,-11.37 1237.35,-8.02 1237.45,-15.02"/>
</g>
<!-- Node16&#45;&gt;Node17 -->
<g id="edge17" class="edge">
<title>Node16&#45;&gt;Node17</title>
<path fill="none" stroke="midnightblue" d="M1093.85,-112.32C1111.17,-103.66 1138.02,-90.24 1158,-80.25"/>
<polygon fill="midnightblue" stroke="midnightblue" points="1159.81,-83.26 1167.19,-75.65 1156.68,-77 1159.81,-83.26"/>
</g>
<!-- Node18 -->
<g id="node18" class="node">
<title>Node18</title>
<g id="a_node18"><a xlink:title=" ">
<polygon fill="white" stroke="#bfbfbf" points="709,-56.5 709,-75.5 760,-75.5 760,-56.5 709,-56.5"/>
<text text-anchor="middle" x="734.5" y="-63.5" font-family="Helvetica,sans-Serif" font-size="10.00">memory</text>
</a>
</g>
</g>
<!-- Node16&#45;&gt;Node18 -->
<g id="edge18" class="edge">
<title>Node16&#45;&gt;Node18</title>
<path fill="none" stroke="midnightblue" d="M1034.91,-114.43C967.12,-103.73 833.99,-82.71 770.21,-72.64"/>
<polygon fill="midnightblue" stroke="midnightblue" points="770.65,-69.17 760.23,-71.06 769.56,-76.08 770.65,-69.17"/>
</g>
<!-- Node20 -->
<g id="node20" class="node">
<title>Node20</title>
<g id="a_node20"><a xlink:title=" ">
<polygon fill="white" stroke="#bfbfbf" points="484.5,-224.5 484.5,-243.5 528.5,-243.5 528.5,-224.5 484.5,-224.5"/>
<text text-anchor="middle" x="506.5" y="-231.5" font-family="Helvetica,sans-Serif" font-size="10.00">vector</text>
</a>
</g>
</g>
<!-- Node19&#45;&gt;Node20 -->
<g id="edge20" class="edge">
<title>Node19&#45;&gt;Node20</title>
<path fill="none" stroke="midnightblue" d="M769.29,-392.41C752.65,-385.44 732.44,-373.81 722.5,-356 705.92,-326.3 753.06,-306.3 731.5,-280 719.32,-265.14 597.72,-247.12 538.54,-239.14"/>
<polygon fill="midnightblue" stroke="midnightblue" points="538.96,-235.67 528.59,-237.82 538.04,-242.61 538.96,-235.67"/>
</g>
<!-- Node19&#45;&gt;Node21 -->
<g id="edge21" class="edge">
<title>Node19&#45;&gt;Node21</title>
<path fill="none" stroke="midnightblue" d="M811.57,-392.32C827.46,-383.74 852.01,-370.49 870.46,-360.52"/>
<polygon fill="midnightblue" stroke="midnightblue" points="872.34,-363.49 879.47,-355.65 869.01,-357.33 872.34,-363.49"/>
</g>
<!-- Node22 -->
<g id="node22" class="node">
<title>Node22</title>
<g id="a_node22"><a xlink:title=" ">
<polygon fill="white" stroke="#bfbfbf" points="731.5,-336.5 731.5,-355.5 859.5,-355.5 859.5,-336.5 731.5,-336.5"/>
<text text-anchor="middle" x="795.5" y="-343.5" font-family="Helvetica,sans-Serif" font-size="10.00">scanline_triangulation.hpp</text>
</a>
</g>
</g>
<!-- Node19&#45;&gt;Node22 -->
<g id="edge22" class="edge">
<title>Node19&#45;&gt;Node22</title>
<path fill="none" stroke="midnightblue" d="M795.5,-392.08C795.5,-385.01 795.5,-374.86 795.5,-365.99"/>
<polygon fill="midnightblue" stroke="midnightblue" points="799,-365.75 795.5,-355.75 792,-365.75 799,-365.75"/>
</g>
<!-- Node23&#45;&gt;Node18 -->
<g id="edge27" class="edge">
<title>Node23&#45;&gt;Node18</title>
<path fill="none" stroke="midnightblue" d="M373.83,-453.68C358.46,-423.85 310.5,-323.63 310.5,-235 310.5,-235 310.5,-235 310.5,-177 310.5,-97.03 596.65,-74.22 698.8,-68.62"/>
<polygon fill="midnightblue" stroke="midnightblue" points="699.13,-72.11 708.93,-68.09 698.76,-65.12 699.13,-72.11"/>
</g>
<!-- Node24 -->
<g id="node24" class="node">
<title>Node24</title>
<g id="a_node24"><a xlink:href="_flag_8h.html" target="_top" xlink:title=" ">
<polygon fill="white" stroke="black" points="346,-336.5 346,-355.5 389,-355.5 389,-336.5 346,-336.5"/>
<text text-anchor="middle" x="367.5" y="-343.5" font-family="Helvetica,sans-Serif" font-size="10.00">Flag.h</text>
</a>
</g>
</g>
<!-- Node23&#45;&gt;Node24 -->
<g id="edge24" class="edge">
<title>Node23&#45;&gt;Node24</title>
<path fill="none" stroke="midnightblue" d="M378.06,-453.8C377.34,-440.48 375.77,-414.22 373.5,-392 372.62,-383.37 371.39,-373.83 370.27,-365.77"/>
<polygon fill="midnightblue" stroke="midnightblue" points="373.69,-365.01 368.81,-355.61 366.76,-366 373.69,-365.01"/>
</g>
<!-- Node24&#45;&gt;Node5 -->
<g id="edge26" class="edge">
<title>Node24&#45;&gt;Node5</title>
<path fill="none" stroke="midnightblue" d="M350.47,-336.32C333.47,-327.66 307.12,-314.24 287.51,-304.25"/>
<polygon fill="midnightblue" stroke="midnightblue" points="288.99,-301.08 278.49,-299.65 285.81,-307.31 288.99,-301.08"/>
</g>
<!-- Node24&#45;&gt;Node20 -->
<g id="edge25" class="edge">
<title>Node24&#45;&gt;Node20</title>
<path fill="none" stroke="midnightblue" d="M371.32,-336.33C377.69,-322.73 391.66,-296.27 410.5,-280 429.21,-263.84 454.71,-252.25 474.73,-244.88"/>
<polygon fill="midnightblue" stroke="midnightblue" points="476.07,-248.12 484.35,-241.51 473.75,-241.52 476.07,-248.12"/>
</g>
<!-- Node25&#45;&gt;Node19 -->
<g id="edge35" class="edge">
<title>Node25&#45;&gt;Node19</title>
<path fill="none" stroke="midnightblue" d="M792.93,-453.98C793.35,-445.58 794.01,-432.48 794.56,-421.66"/>
<polygon fill="midnightblue" stroke="midnightblue" points="798.06,-421.67 795.07,-411.51 791.07,-421.32 798.06,-421.67"/>
</g>
<!-- Node25&#45;&gt;Node20 -->
<g id="edge34" class="edge">
<title>Node25&#45;&gt;Node20</title>
<path fill="none" stroke="midnightblue" d="M782.47,-453.89C751.39,-427.31 653.74,-344.44 569.5,-280 555.76,-269.48 539.9,-258.16 527.54,-249.51"/>
<polygon fill="midnightblue" stroke="midnightblue" points="529.43,-246.57 519.23,-243.73 525.44,-252.31 529.43,-246.57"/>
</g>
<!-- Node26&#45;&gt;Node16 -->
<g id="edge37" class="edge">
<title>Node26&#45;&gt;Node16</title>
<path fill="none" stroke="midnightblue" d="M1076.5,-224.37C1076.5,-206.62 1076.5,-165.67 1076.5,-141.6"/>
<polygon fill="midnightblue" stroke="midnightblue" points="1080,-141.59 1076.5,-131.59 1073,-141.59 1080,-141.59"/>
</g>
<!-- Node27&#45;&gt;Node9 -->
<g id="edge40" class="edge">
<title>Node27&#45;&gt;Node9</title>
<path fill="none" stroke="midnightblue" d="M969.82,-336.45C952.84,-328.89 929.49,-316.5 913.5,-300 885.25,-270.85 872.09,-223.49 866.7,-197.51"/>
<polygon fill="midnightblue" stroke="midnightblue" points="870.11,-196.68 864.8,-187.51 863.23,-197.99 870.11,-196.68"/>
</g>
<!-- Node27&#45;&gt;Node10 -->
<g id="edge39" class="edge">
<title>Node27&#45;&gt;Node10</title>
<path fill="none" stroke="midnightblue" d="M945.17,-336.45C894,-326.57 817.6,-310.35 808.5,-300 769.07,-255.15 777.75,-177.25 784.39,-141.68"/>
<polygon fill="midnightblue" stroke="midnightblue" points="787.85,-142.21 786.41,-131.72 780.99,-140.82 787.85,-142.21"/>
</g>
<!-- Node28 -->
<g id="node28" class="node">
<title>Node28</title>
<g id="a_node28"><a xlink:href="_network_manager_8h.html" target="_top" xlink:title=" ">
<polygon fill="white" stroke="black" points="922.5,-280.5 922.5,-299.5 1052.5,-299.5 1052.5,-280.5 922.5,-280.5"/>
<text text-anchor="middle" x="987.5" y="-287.5" font-family="Helvetica,sans-Serif" font-size="10.00">engine/NetworkManager.h</text>
</a>
</g>
</g>
<!-- Node27&#45;&gt;Node28 -->
<g id="edge41" class="edge">
<title>Node27&#45;&gt;Node28</title>
<path fill="none" stroke="midnightblue" d="M990.84,-336.08C990.32,-329.01 989.56,-318.86 988.91,-309.99"/>
<polygon fill="midnightblue" stroke="midnightblue" points="992.38,-309.47 988.15,-299.75 985.4,-309.98 992.38,-309.47"/>
</g>
<!-- Node30 -->
<g id="node30" class="node">
<title>Node30</title>
<g id="a_node30"><a xlink:title=" ">
<polygon fill="white" stroke="#bfbfbf" points="817,-280.5 817,-299.5 866,-299.5 866,-280.5 817,-280.5"/>
<text text-anchor="middle" x="841.5" y="-287.5" font-family="Helvetica,sans-Serif" font-size="10.00">random</text>
</a>
</g>
</g>
<!-- Node27&#45;&gt;Node30 -->
<g id="edge46" class="edge">
<title>Node27&#45;&gt;Node30</title>
<path fill="none" stroke="midnightblue" d="M967.73,-336.44C942.61,-327.4 902.79,-313.06 874.6,-302.92"/>
<polygon fill="midnightblue" stroke="midnightblue" points="875.75,-299.61 865.16,-299.52 873.38,-306.2 875.75,-299.61"/>
</g>
<!-- Node28&#45;&gt;Node9 -->
<g id="edge42" class="edge">
<title>Node28&#45;&gt;Node9</title>
<path fill="none" stroke="midnightblue" d="M987.88,-280.33C988,-266.72 986.28,-240.26 972.5,-224 957.12,-205.85 933.24,-194.91 911.75,-188.37"/>
<polygon fill="midnightblue" stroke="midnightblue" points="912.66,-184.98 902.09,-185.66 910.77,-191.73 912.66,-184.98"/>
</g>
<!-- Node28&#45;&gt;Node20 -->
<g id="edge44" class="edge">
<title>Node28&#45;&gt;Node20</title>
<path fill="none" stroke="midnightblue" d="M922.38,-281.69C817.96,-269.97 616.88,-247.39 538.7,-238.61"/>
<polygon fill="midnightblue" stroke="midnightblue" points="538.83,-235.11 528.5,-237.47 538.05,-242.06 538.83,-235.11"/>
</g>
<!-- Node28&#45;&gt;Node26 -->
<g id="edge43" class="edge">
<title>Node28&#45;&gt;Node26</title>
<path fill="none" stroke="midnightblue" d="M1001.8,-280.32C1015.68,-271.9 1036.99,-258.97 1053.3,-249.07"/>
<polygon fill="midnightblue" stroke="midnightblue" points="1055.5,-251.83 1062.24,-243.65 1051.87,-245.85 1055.5,-251.83"/>
</g>
<!-- Node29 -->
<g id="node29" class="node">
<title>Node29</title>
<g id="a_node29"><a xlink:title=" ">
<polygon fill="white" stroke="#bfbfbf" points="892,-224.5 892,-243.5 963,-243.5 963,-224.5 892,-224.5"/>
<text text-anchor="middle" x="927.5" y="-231.5" font-family="Helvetica,sans-Serif" font-size="10.00">sys/socket.h</text>
</a>
</g>
</g>
<!-- Node28&#45;&gt;Node29 -->
<g id="edge45" class="edge">
<title>Node28&#45;&gt;Node29</title>
<path fill="none" stroke="midnightblue" d="M977.86,-280.32C968.99,-272.34 955.63,-260.31 944.89,-250.65"/>
<polygon fill="midnightblue" stroke="midnightblue" points="947.09,-247.92 937.32,-243.83 942.41,-253.13 947.09,-247.92"/>
</g>
<!-- Node31&#45;&gt;Node6 -->
<g id="edge49" class="edge">
<title>Node31&#45;&gt;Node6</title>
<path fill="none" stroke="midnightblue" d="M1341.01,-473.05C1303.29,-495.02 1198.5,-554.34 1105.5,-591 1069.75,-605.09 1027.81,-617 996.58,-625.02"/>
<polygon fill="midnightblue" stroke="midnightblue" points="995.68,-621.64 986.84,-627.49 997.39,-628.43 995.68,-621.64"/>
</g>
<!-- Node31&#45;&gt;Node7 -->
<g id="edge50" class="edge">
<title>Node31&#45;&gt;Node7</title>
<path fill="none" stroke="midnightblue" d="M1316.62,-473.04C1304.73,-475.11 1291.65,-477.23 1279.5,-479 1165.3,-495.64 1030.73,-510.83 955.87,-518.58"/>
<polygon fill="midnightblue" stroke="midnightblue" points="955.3,-515.12 945.71,-519.63 956.02,-522.09 955.3,-515.12"/>
</g>
<!-- Node31&#45;&gt;Node16 -->
<g id="edge48" class="edge">
<title>Node31&#45;&gt;Node16</title>
<path fill="none" stroke="midnightblue" d="M1348.69,-453.73C1324.22,-422.28 1238.3,-312.34 1164.5,-224 1139.06,-193.55 1108.44,-158.82 1090.85,-139.05"/>
<polygon fill="midnightblue" stroke="midnightblue" points="1093.42,-136.68 1084.16,-131.54 1088.2,-141.34 1093.42,-136.68"/>
</g>
<!-- Node33 -->
<g id="node33" class="node">
<title>Node33</title>
<g id="a_node33"><a xlink:href="_factory_8h.html" target="_top" xlink:title=" ">
<polygon fill="white" stroke="black" points="233.5,-336.5 233.5,-355.5 289.5,-355.5 289.5,-336.5 233.5,-336.5"/>
<text text-anchor="middle" x="261.5" y="-343.5" font-family="Helvetica,sans-Serif" font-size="10.00">Factory.h</text>
</a>
</g>
</g>
<!-- Node32&#45;&gt;Node33 -->
<g id="edge52" class="edge">
<title>Node32&#45;&gt;Node33</title>
<path fill="none" stroke="midnightblue" d="M294.89,-392.08C289.24,-384.46 280.96,-373.26 274.05,-363.94"/>
<polygon fill="midnightblue" stroke="midnightblue" points="276.75,-361.7 267.98,-355.75 271.12,-365.87 276.75,-361.7"/>
</g>
<!-- Node33&#45;&gt;Node2 -->
<g id="edge55" class="edge">
<title>Node33&#45;&gt;Node2</title>
<path fill="none" stroke="midnightblue" d="M253.95,-355.58C238.66,-373.87 205.5,-418.6 205.5,-462.5 205.5,-582 205.5,-582 205.5,-582 205.5,-617.82 183.26,-654.79 168.45,-675.44"/>
<polygon fill="midnightblue" stroke="midnightblue" points="165.62,-673.37 162.45,-683.48 171.23,-677.55 165.62,-673.37"/>
</g>
<!-- Node33&#45;&gt;Node5 -->
<g id="edge53" class="edge">
<title>Node33&#45;&gt;Node5</title>
<path fill="none" stroke="midnightblue" d="M261.5,-336.08C261.5,-329.01 261.5,-318.86 261.5,-309.99"/>
<polygon fill="midnightblue" stroke="midnightblue" points="265,-309.75 261.5,-299.75 258,-309.75 265,-309.75"/>
</g>
<!-- Node33&#45;&gt;Node7 -->
<g id="edge54" class="edge">
<title>Node33&#45;&gt;Node7</title>
<path fill="none" stroke="midnightblue" d="M260.01,-355.69C258.17,-368.43 256.04,-392.74 262.5,-412 274.22,-446.98 279.27,-461.06 311.5,-479 357.02,-504.34 702.41,-517.86 841.11,-522.32"/>
<polygon fill="midnightblue" stroke="midnightblue" points="841.02,-525.81 851.13,-522.63 841.24,-518.82 841.02,-525.81"/>
</g>
<!-- Node34&#45;&gt;Node32 -->
<g id="edge69" class="edge">
<title>Node34&#45;&gt;Node32</title>
<path fill="none" stroke="midnightblue" d="M474.56,-453.98C439.23,-443.57 379.37,-425.94 340.14,-414.38"/>
<polygon fill="midnightblue" stroke="midnightblue" points="340.97,-410.98 330.39,-411.51 338.99,-417.69 340.97,-410.98"/>
</g>
<!-- Node35 -->
<g id="node35" class="node">
<title>Node35</title>
<g id="a_node35"><a xlink:href="_squad_template_8h.html" target="_top" xlink:title=" ">
<polygon fill="white" stroke="black" points="457.5,-392.5 457.5,-411.5 549.5,-411.5 549.5,-392.5 457.5,-392.5"/>
<text text-anchor="middle" x="503.5" y="-399.5" font-family="Helvetica,sans-Serif" font-size="10.00">SquadTemplate.h</text>
</a>
</g>
</g>
<!-- Node34&#45;&gt;Node35 -->
<g id="edge57" class="edge">
<title>Node34&#45;&gt;Node35</title>
<path fill="none" stroke="midnightblue" d="M503.5,-453.98C503.5,-445.58 503.5,-432.48 503.5,-421.66"/>
<polygon fill="midnightblue" stroke="midnightblue" points="507,-421.51 503.5,-411.51 500,-421.51 507,-421.51"/>
</g>
<!-- Node35&#45;&gt;Node20 -->
<g id="edge58" class="edge">
<title>Node35&#45;&gt;Node20</title>
<path fill="none" stroke="midnightblue" d="M480.71,-392.47C465.17,-385.32 445.79,-373.44 436.5,-356 432.32,-348.16 435.95,-344.87 436.5,-336 438.06,-310.97 430.66,-301.55 443.5,-280 451.53,-266.53 465.33,-255.99 477.97,-248.51"/>
<polygon fill="midnightblue" stroke="midnightblue" points="479.8,-251.49 486.87,-243.6 476.42,-245.36 479.8,-251.49"/>
</g>
<!-- Node35&#45;&gt;Node33 -->
<g id="edge59" class="edge">
<title>Node35&#45;&gt;Node33</title>
<path fill="none" stroke="midnightblue" d="M465.15,-392.44C419.9,-382.35 345.1,-365.65 299.85,-355.56"/>
<polygon fill="midnightblue" stroke="midnightblue" points="300.36,-352.08 289.84,-353.32 298.83,-358.92 300.36,-352.08"/>
</g>
<!-- Node36 -->
<g id="node36" class="node">
<title>Node36</title>
<g id="a_node36"><a xlink:href="_gui_list_8h.html" target="_top" xlink:title=" ">
<polygon fill="white" stroke="black" points="452.5,-280.5 452.5,-299.5 560.5,-299.5 560.5,-280.5 452.5,-280.5"/>
<text text-anchor="middle" x="506.5" y="-287.5" font-family="Helvetica,sans-Serif" font-size="10.00">engine/GUI/GuiList.h</text>
</a>
</g>
</g>
<!-- Node35&#45;&gt;Node36 -->
<g id="edge60" class="edge">
<title>Node35&#45;&gt;Node36</title>
<path fill="none" stroke="midnightblue" d="M526.29,-392.47C541.83,-385.32 561.21,-373.44 570.5,-356 581.71,-334.97 557.62,-316.2 535.86,-304.3"/>
<polygon fill="midnightblue" stroke="midnightblue" points="537.28,-301.1 526.79,-299.64 534.08,-307.32 537.28,-301.1"/>
</g>
<!-- Node38 -->
<g id="node38" class="node">
<title>Node38</title>
<g id="a_node38"><a xlink:href="_gui_scroll_8h.html" target="_top" xlink:title=" ">
<polygon fill="white" stroke="black" points="445.5,-336.5 445.5,-355.5 561.5,-355.5 561.5,-336.5 445.5,-336.5"/>
<text text-anchor="middle" x="503.5" y="-343.5" font-family="Helvetica,sans-Serif" font-size="10.00">engine/GUI/GuiScroll.h</text>
</a>
</g>
</g>
<!-- Node35&#45;&gt;Node38 -->
<g id="edge64" class="edge">
<title>Node35&#45;&gt;Node38</title>
<path fill="none" stroke="midnightblue" d="M503.5,-392.08C503.5,-385.01 503.5,-374.86 503.5,-365.99"/>
<polygon fill="midnightblue" stroke="midnightblue" points="507,-365.75 503.5,-355.75 500,-365.75 507,-365.75"/>
</g>
<!-- Node39 -->
<g id="node39" class="node">
<title>Node39</title>
<g id="a_node39"><a xlink:href="_button_8h.html" target="_top" xlink:title=" ">
<polygon fill="white" stroke="black" points="617,-280.5 617,-299.5 722,-299.5 722,-280.5 617,-280.5"/>
<text text-anchor="middle" x="669.5" y="-287.5" font-family="Helvetica,sans-Serif" font-size="10.00">engine/GUI/Button.h</text>
</a>
</g>
</g>
<!-- Node35&#45;&gt;Node39 -->
<g id="edge67" class="edge">
<title>Node35&#45;&gt;Node39</title>
<path fill="none" stroke="midnightblue" d="M520.92,-392.45C537.84,-383.91 564.04,-370.07 585.5,-356 609.4,-340.33 635.15,-319.81 651.75,-306.06"/>
<polygon fill="midnightblue" stroke="midnightblue" points="654.11,-308.64 659.54,-299.54 649.62,-303.27 654.11,-308.64"/>
</g>
<!-- Node36&#45;&gt;Node20 -->
<g id="edge63" class="edge">
<title>Node36&#45;&gt;Node20</title>
<path fill="none" stroke="midnightblue" d="M506.5,-280.08C506.5,-273.01 506.5,-262.86 506.5,-253.99"/>
<polygon fill="midnightblue" stroke="midnightblue" points="510,-253.75 506.5,-243.75 503,-253.75 510,-253.75"/>
</g>
<!-- Node37 -->
<g id="node37" class="node">
<title>Node37</title>
<g id="a_node37"><a xlink:href="_gui_object_8h.html" target="_top" xlink:title=" ">
<polygon fill="white" stroke="black" points="609.5,-224.5 609.5,-243.5 729.5,-243.5 729.5,-224.5 609.5,-224.5"/>
<text text-anchor="middle" x="669.5" y="-231.5" font-family="Helvetica,sans-Serif" font-size="10.00">engine/GUI/GuiObject.h</text>
</a>
</g>
</g>
<!-- Node36&#45;&gt;Node37 -->
<g id="edge61" class="edge">
<title>Node36&#45;&gt;Node37</title>
<path fill="none" stroke="midnightblue" d="M532.33,-280.44C559.75,-271.36 603.28,-256.94 633.93,-246.78"/>
<polygon fill="midnightblue" stroke="midnightblue" points="635.4,-249.98 643.79,-243.52 633.2,-243.34 635.4,-249.98"/>
</g>
<!-- Node37&#45;&gt;Node9 -->
<g id="edge62" class="edge">
<title>Node37&#45;&gt;Node9</title>
<path fill="none" stroke="midnightblue" d="M700.24,-224.44C733.44,-215.2 786.49,-200.44 823.06,-190.26"/>
<polygon fill="midnightblue" stroke="midnightblue" points="824.21,-193.57 832.9,-187.52 822.33,-186.83 824.21,-193.57"/>
</g>
<!-- Node38&#45;&gt;Node10 -->
<g id="edge66" class="edge">
<title>Node38&#45;&gt;Node10</title>
<path fill="none" stroke="midnightblue" d="M484.2,-336.48C470.07,-329.08 451.94,-316.89 443.5,-300 428.69,-270.38 474.82,-224.55 475.5,-224 564.65,-151.63 706.88,-130.64 763.78,-124.96"/>
<polygon fill="midnightblue" stroke="midnightblue" points="764.35,-128.42 773.99,-124.02 763.71,-121.45 764.35,-128.42"/>
</g>
<!-- Node38&#45;&gt;Node36 -->
<g id="edge65" class="edge">
<title>Node38&#45;&gt;Node36</title>
<path fill="none" stroke="midnightblue" d="M504,-336.08C504.39,-329.01 504.95,-318.86 505.45,-309.99"/>
<polygon fill="midnightblue" stroke="midnightblue" points="508.95,-309.93 506.01,-299.75 501.96,-309.54 508.95,-309.93"/>
</g>
<!-- Node39&#45;&gt;Node37 -->
<g id="edge68" class="edge">
<title>Node39&#45;&gt;Node37</title>
<path fill="none" stroke="midnightblue" d="M669.5,-280.08C669.5,-273.01 669.5,-262.86 669.5,-253.99"/>
<polygon fill="midnightblue" stroke="midnightblue" points="673,-253.75 669.5,-243.75 666,-253.75 673,-253.75"/>
</g>
<!-- Node40&#45;&gt;Node6 -->
<g id="edge73" class="edge">
<title>Node40&#45;&gt;Node6</title>
<path fill="none" stroke="midnightblue" d="M999.98,-590.83C993.8,-598.87 982.33,-610.91 971.85,-620.54"/>
<polygon fill="midnightblue" stroke="midnightblue" points="969.33,-618.09 964.13,-627.32 973.95,-623.35 969.33,-618.09"/>
</g>
<!-- Node40&#45;&gt;Node7 -->
<g id="edge74" class="edge">
<title>Node40&#45;&gt;Node7</title>
<path fill="none" stroke="midnightblue" d="M986.63,-571.32C969.79,-562.66 943.69,-549.24 924.26,-539.25"/>
<polygon fill="midnightblue" stroke="midnightblue" points="925.82,-536.12 915.33,-534.65 922.62,-542.34 925.82,-536.12"/>
</g>
<!-- Node41&#45;&gt;Node11 -->
<g id="edge79" class="edge">
<title>Node41&#45;&gt;Node11</title>
<path fill="none" stroke="midnightblue" d="M37.97,-280.41C21.79,-268.2 -3.02,-244.96 8.5,-224 34.02,-177.56 90.92,-149.45 129.27,-135.07"/>
<polygon fill="midnightblue" stroke="midnightblue" points="130.84,-138.22 139.06,-131.54 128.47,-131.63 130.84,-138.22"/>
</g>
<!-- Node41&#45;&gt;Node20 -->
<g id="edge80" class="edge">
<title>Node41&#45;&gt;Node20</title>
<path fill="none" stroke="midnightblue" d="M101.04,-283.01C195.39,-271.84 395.83,-248.11 474.17,-238.83"/>
<polygon fill="midnightblue" stroke="midnightblue" points="474.87,-242.27 484.39,-237.62 474.04,-235.32 474.87,-242.27"/>
</g>
<!-- Node42 -->
<g id="node42" class="node">
<title>Node42</title>
<g id="a_node42"><a xlink:title=" ">
<polygon fill="white" stroke="#bfbfbf" points="18,-224.5 18,-243.5 101,-243.5 101,-224.5 18,-224.5"/>
<text text-anchor="middle" x="59.5" y="-231.5" font-family="Helvetica,sans-Serif" font-size="10.00">unordered_map</text>
</a>
</g>
</g>
<!-- Node41&#45;&gt;Node42 -->
<g id="edge81" class="edge">
<title>Node41&#45;&gt;Node42</title>
<path fill="none" stroke="midnightblue" d="M51.99,-280.08C53.18,-272.93 54.89,-262.64 56.38,-253.69"/>
<polygon fill="midnightblue" stroke="midnightblue" points="59.85,-254.19 58.04,-243.75 52.95,-253.04 59.85,-254.19"/>
</g>
</g>
</svg>
