<?xml version="1.0" encoding="UTF-8" standalone="no"?>
<!DOCTYPE svg PUBLIC "-//W3C//DTD SVG 1.1//EN"
 "http://www.w3.org/Graphics/SVG/1.1/DTD/svg11.dtd">
<!-- Generated by graphviz version 2.47.1 (20210421.1823)
 -->
<!-- Title: src/GameLogic/Units/UnitOrder.cpp Pages: 1 -->
<svg width="1422pt" height="834pt"
 viewBox="0.00 0.00 1422.00 834.00" xmlns="http://www.w3.org/2000/svg" xmlns:xlink="http://www.w3.org/1999/xlink">
<g id="graph0" class="graph" transform="scale(1 1) rotate(0) translate(4 830)">
<title>src/GameLogic/Units/UnitOrder.cpp</title>
<polygon fill="white" stroke="transparent" points="-4,4 -4,-830 1418,-830 1418,4 -4,4"/>
<!-- Node1 -->
<g id="node1" class="node">
<title>Node1</title>
<g id="a_node1"><a xlink:title=" ">
<polygon fill="#bfbfbf" stroke="black" points="849,-795.5 849,-825.5 959,-825.5 959,-795.5 849,-795.5"/>
<text text-anchor="start" x="857" y="-813.5" font-family="Helvetica,sans-Serif" font-size="10.00">src/GameLogic/Units</text>
<text text-anchor="middle" x="904" y="-802.5" font-family="Helvetica,sans-Serif" font-size="10.00">/UnitOrder.cpp</text>
</a>
</g>
</g>
<!-- Node2 -->
<g id="node2" class="node">
<title>Node2</title>
<g id="a_node2"><a xlink:href="_unit_order_8h.html" target="_top" xlink:title=" ">
<polygon fill="white" stroke="black" points="323,-739.5 323,-758.5 469,-758.5 469,-739.5 323,-739.5"/>
<text text-anchor="middle" x="396" y="-746.5" font-family="Helvetica,sans-Serif" font-size="10.00">GameLogic/Units/UnitOrder.h</text>
</a>
</g>
</g>
<!-- Node1&#45;&gt;Node2 -->
<g id="edge1" class="edge">
<title>Node1&#45;&gt;Node2</title>
<path fill="none" stroke="midnightblue" d="M848.67,-803.02C759.45,-792.57 583.29,-771.94 478.98,-759.72"/>
<polygon fill="midnightblue" stroke="midnightblue" points="479.15,-756.21 468.81,-758.53 478.33,-763.17 479.15,-756.21"/>
</g>
<!-- Node19 -->
<g id="node19" class="node">
<title>Node19</title>
<g id="a_node19"><a xlink:title=" ">
<polygon fill="white" stroke="#bfbfbf" points="1360,-56.5 1360,-75.5 1414,-75.5 1414,-56.5 1360,-56.5"/>
<text text-anchor="middle" x="1387" y="-63.5" font-family="Helvetica,sans-Serif" font-size="10.00">iostream</text>
</a>
</g>
</g>
<!-- Node1&#45;&gt;Node19 -->
<g id="edge89" class="edge">
<title>Node1&#45;&gt;Node19</title>
<path fill="none" stroke="midnightblue" d="M959.41,-807.87C1086.27,-802.65 1387,-781.08 1387,-694 1387,-694 1387,-694 1387,-177 1387,-144.95 1387,-107.64 1387,-85.75"/>
<polygon fill="midnightblue" stroke="midnightblue" points="1390.5,-85.56 1387,-75.56 1383.5,-85.56 1390.5,-85.56"/>
</g>
<!-- Node3 -->
<g id="node3" class="node">
<title>Node3</title>
<g id="a_node3"><a xlink:title=" ">
<polygon fill="white" stroke="#bfbfbf" points="229.5,-280.5 229.5,-299.5 270.5,-299.5 270.5,-280.5 229.5,-280.5"/>
<text text-anchor="middle" x="250" y="-287.5" font-family="Helvetica,sans-Serif" font-size="10.00">string</text>
</a>
</g>
</g>
<!-- Node2&#45;&gt;Node3 -->
<g id="edge2" class="edge">
<title>Node2&#45;&gt;Node3</title>
<path fill="none" stroke="midnightblue" d="M334.31,-739.49C241.83,-724.97 78,-691.67 78,-638 78,-638 78,-638 78,-524 78,-430.78 97.66,-393.55 171,-336 186.84,-323.57 206.5,-312.36 222.25,-304.24"/>
<polygon fill="midnightblue" stroke="midnightblue" points="224.12,-307.21 231.48,-299.59 220.97,-300.96 224.12,-307.21"/>
</g>
<!-- Node4 -->
<g id="node4" class="node">
<title>Node4</title>
<g id="a_node4"><a xlink:href="_unit_8h.html" target="_top" xlink:title=" ">
<polygon fill="white" stroke="black" points="335,-683.5 335,-702.5 457,-702.5 457,-683.5 335,-683.5"/>
<text text-anchor="middle" x="396" y="-690.5" font-family="Helvetica,sans-Serif" font-size="10.00">GameLogic/Units/Unit.h</text>
</a>
</g>
</g>
<!-- Node2&#45;&gt;Node4 -->
<g id="edge3" class="edge">
<title>Node2&#45;&gt;Node4</title>
<path fill="none" stroke="midnightblue" d="M390.83,-739.08C389.32,-731.93 388.89,-721.64 389.54,-712.69"/>
<polygon fill="midnightblue" stroke="midnightblue" points="393.02,-713.13 390.87,-702.75 386.08,-712.2 393.02,-713.13"/>
</g>
<!-- Node4&#45;&gt;Node2 -->
<g id="edge5" class="edge">
<title>Node4&#45;&gt;Node2</title>
<path fill="none" stroke="midnightblue" d="M401.13,-702.75C402.66,-709.86 403.1,-720.14 402.47,-729.1"/>
<polygon fill="midnightblue" stroke="midnightblue" points="398.99,-728.71 401.17,-739.08 405.93,-729.62 398.99,-728.71"/>
</g>
<!-- Node5 -->
<g id="node5" class="node">
<title>Node5</title>
<g id="a_node5"><a xlink:title=" ">
<polygon fill="white" stroke="#bfbfbf" points="349.5,-627.5 349.5,-646.5 392.5,-646.5 392.5,-627.5 349.5,-627.5"/>
<text text-anchor="middle" x="371" y="-634.5" font-family="Helvetica,sans-Serif" font-size="10.00">cstdio</text>
</a>
</g>
</g>
<!-- Node4&#45;&gt;Node5 -->
<g id="edge4" class="edge">
<title>Node4&#45;&gt;Node5</title>
<path fill="none" stroke="midnightblue" d="M391.87,-683.08C388.49,-675.77 383.58,-665.18 379.38,-656.1"/>
<polygon fill="midnightblue" stroke="midnightblue" points="382.43,-654.36 375.05,-646.75 376.08,-657.3 382.43,-654.36"/>
</g>
<!-- Node6 -->
<g id="node6" class="node">
<title>Node6</title>
<g id="a_node6"><a xlink:href="_squad_8h.html" target="_top" xlink:title=" ">
<polygon fill="white" stroke="black" points="487,-627.5 487,-646.5 623,-646.5 623,-627.5 487,-627.5"/>
<text text-anchor="middle" x="555" y="-634.5" font-family="Helvetica,sans-Serif" font-size="10.00">GameLogic/Squad/Squad.h</text>
</a>
</g>
</g>
<!-- Node4&#45;&gt;Node6 -->
<g id="edge6" class="edge">
<title>Node4&#45;&gt;Node6</title>
<path fill="none" stroke="midnightblue" d="M416.11,-683.44C440.97,-674.32 483.49,-659.81 515.03,-649.65"/>
<polygon fill="midnightblue" stroke="midnightblue" points="516.38,-652.89 524.84,-646.52 514.25,-646.22 516.38,-652.89"/>
</g>
<!-- Node24 -->
<g id="node24" class="node">
<title>Node24</title>
<g id="a_node24"><a xlink:href="_all_flags_8h.html" target="_top" xlink:title=" ">
<polygon fill="white" stroke="black" points="127.5,-392.5 127.5,-411.5 186.5,-411.5 186.5,-392.5 127.5,-392.5"/>
<text text-anchor="middle" x="157" y="-399.5" font-family="Helvetica,sans-Serif" font-size="10.00">AllFlags.h</text>
</a>
</g>
</g>
<!-- Node4&#45;&gt;Node24 -->
<g id="edge84" class="edge">
<title>Node4&#45;&gt;Node24</title>
<path fill="none" stroke="midnightblue" d="M334.88,-687.43C277.81,-681.8 198.44,-670 178,-647 120.72,-582.54 141.02,-467.07 151.92,-421.87"/>
<polygon fill="midnightblue" stroke="midnightblue" points="155.37,-422.52 154.44,-411.97 148.59,-420.8 155.37,-422.52"/>
</g>
<!-- Node43 -->
<g id="node43" class="node">
<title>Node43</title>
<g id="a_node43"><a xlink:href="_textures_8h.html" target="_top" xlink:title=" ">
<polygon fill="white" stroke="black" points="110.5,-280.5 110.5,-299.5 211.5,-299.5 211.5,-280.5 110.5,-280.5"/>
<text text-anchor="middle" x="161" y="-287.5" font-family="Helvetica,sans-Serif" font-size="10.00">graphics/Textures.h</text>
</a>
</g>
</g>
<!-- Node4&#45;&gt;Node43 -->
<g id="edge85" class="edge">
<title>Node4&#45;&gt;Node43</title>
<path fill="none" stroke="midnightblue" d="M380.94,-683.34C330.93,-653.56 170.59,-549.57 118,-412 103.87,-375.05 129.99,-331.19 147.35,-307.75"/>
<polygon fill="midnightblue" stroke="midnightblue" points="150.33,-309.61 153.68,-299.56 144.8,-305.33 150.33,-309.61"/>
</g>
<!-- Node6&#45;&gt;Node4 -->
<g id="edge76" class="edge">
<title>Node6&#45;&gt;Node4</title>
<path fill="none" stroke="midnightblue" d="M535,-646.52C510.19,-655.62 467.68,-670.13 436.11,-680.3"/>
<polygon fill="midnightblue" stroke="midnightblue" points="434.74,-677.07 426.28,-683.44 436.87,-683.74 434.74,-677.07"/>
</g>
<!-- Node7 -->
<g id="node7" class="node">
<title>Node7</title>
<g id="a_node7"><a xlink:href="_cell_8h.html" target="_top" xlink:title=" ">
<polygon fill="white" stroke="black" points="613,-515.5 613,-534.5 707,-534.5 707,-515.5 613,-515.5"/>
<text text-anchor="middle" x="660" y="-522.5" font-family="Helvetica,sans-Serif" font-size="10.00">GameLogic/Cell.h</text>
</a>
</g>
</g>
<!-- Node6&#45;&gt;Node7 -->
<g id="edge7" class="edge">
<title>Node6&#45;&gt;Node7</title>
<path fill="none" stroke="midnightblue" d="M570.12,-627.44C585.4,-620.02 608.12,-607.81 623,-591 635.06,-577.37 642.53,-557.77 648.44,-543.65"/>
<polygon fill="midnightblue" stroke="midnightblue" points="651.63,-545.07 652.5,-534.51 645.24,-542.23 651.63,-545.07"/>
</g>
<!-- Node10 -->
<g id="node10" class="node">
<title>Node10</title>
<g id="a_node10"><a xlink:href="gameplay_clickable_game_object_8h.html" target="_top" xlink:title=" ">
<polygon fill="white" stroke="black" points="940.5,-448.5 940.5,-478.5 1069.5,-478.5 1069.5,-448.5 940.5,-448.5"/>
<text text-anchor="start" x="948.5" y="-466.5" font-family="Helvetica,sans-Serif" font-size="10.00">engine/gameplayClickable</text>
<text text-anchor="middle" x="1005" y="-455.5" font-family="Helvetica,sans-Serif" font-size="10.00">GameObject.h</text>
</a>
</g>
</g>
<!-- Node6&#45;&gt;Node10 -->
<g id="edge77" class="edge">
<title>Node6&#45;&gt;Node10</title>
<path fill="none" stroke="midnightblue" d="M577.32,-627.5C647.27,-600.83 863.28,-518.51 958.78,-482.11"/>
<polygon fill="midnightblue" stroke="midnightblue" points="960.09,-485.36 968.19,-478.53 957.6,-478.82 960.09,-485.36"/>
</g>
<!-- Node13 -->
<g id="node13" class="node">
<title>Node13</title>
<g id="a_node13"><a xlink:href="config_8h.html" target="_top" xlink:title=" ">
<polygon fill="white" stroke="black" points="296.5,-112.5 296.5,-131.5 377.5,-131.5 377.5,-112.5 296.5,-112.5"/>
<text text-anchor="middle" x="337" y="-119.5" font-family="Helvetica,sans-Serif" font-size="10.00">engine/config.h</text>
</a>
</g>
</g>
<!-- Node6&#45;&gt;Node13 -->
<g id="edge81" class="edge">
<title>Node6&#45;&gt;Node13</title>
<path fill="none" stroke="midnightblue" d="M527.56,-627.43C475.26,-609.48 362.15,-562.52 313,-479 246.44,-365.88 306.49,-196.15 329.17,-141"/>
<polygon fill="midnightblue" stroke="midnightblue" points="332.5,-142.12 333.16,-131.55 326.05,-139.4 332.5,-142.12"/>
</g>
<!-- Node16 -->
<g id="node16" class="node">
<title>Node16</title>
<g id="a_node16"><a xlink:href="_facade_8h.html" target="_top" xlink:title=" ">
<polygon fill="white" stroke="black" points="604,-0.5 604,-19.5 660,-19.5 660,-0.5 604,-0.5"/>
<text text-anchor="middle" x="632" y="-7.5" font-family="Helvetica,sans-Serif" font-size="10.00">Facade.h</text>
</a>
</g>
</g>
<!-- Node6&#45;&gt;Node16 -->
<g id="edge82" class="edge">
<title>Node6&#45;&gt;Node16</title>
<path fill="none" stroke="midnightblue" d="M494.02,-627.46C349.84,-603.5 0,-521.59 0,-291 0,-291 0,-291 0,-121 0,-61.9 59.52,-73.4 116,-56 205.42,-28.45 490.44,-15.95 593.96,-12.24"/>
<polygon fill="midnightblue" stroke="midnightblue" points="594.1,-15.74 603.97,-11.89 593.85,-8.74 594.1,-15.74"/>
</g>
<!-- Node41 -->
<g id="node41" class="node">
<title>Node41</title>
<g id="a_node41"><a xlink:href="_player_8h.html" target="_top" xlink:title=" ">
<polygon fill="white" stroke="black" points="1217,-336.5 1217,-355.5 1321,-355.5 1321,-336.5 1217,-336.5"/>
<text text-anchor="middle" x="1269" y="-343.5" font-family="Helvetica,sans-Serif" font-size="10.00">GameLogic/Player.h</text>
</a>
</g>
</g>
<!-- Node6&#45;&gt;Node41 -->
<g id="edge83" class="edge">
<title>Node6&#45;&gt;Node41</title>
<path fill="none" stroke="midnightblue" d="M623.14,-632.6C801.61,-622.81 1269,-590.94 1269,-526 1269,-526 1269,-526 1269,-462.5 1269,-428.36 1269,-388.55 1269,-365.71"/>
<polygon fill="midnightblue" stroke="midnightblue" points="1272.5,-365.69 1269,-355.69 1265.5,-365.69 1272.5,-365.69"/>
</g>
<!-- Node42 -->
<g id="node42" class="node">
<title>Node42</title>
<g id="a_node42"><a xlink:href="_game_logic_2_squad_2_action_8h.html" target="_top" xlink:title=" ">
<polygon fill="white" stroke="black" points="487,-571.5 487,-590.5 623,-590.5 623,-571.5 487,-571.5"/>
<text text-anchor="middle" x="555" y="-578.5" font-family="Helvetica,sans-Serif" font-size="10.00">GameLogic/Squad/Action.h</text>
</a>
</g>
</g>
<!-- Node6&#45;&gt;Node42 -->
<g id="edge78" class="edge">
<title>Node6&#45;&gt;Node42</title>
<path fill="none" stroke="midnightblue" d="M549.83,-627.08C548.32,-619.93 547.89,-609.64 548.54,-600.69"/>
<polygon fill="midnightblue" stroke="midnightblue" points="552.02,-601.13 549.87,-590.75 545.08,-600.2 552.02,-601.13"/>
</g>
<!-- Node7&#45;&gt;Node6 -->
<g id="edge32" class="edge">
<title>Node7&#45;&gt;Node6</title>
<path fill="none" stroke="midnightblue" d="M663.81,-534.51C663.89,-547.9 655.98,-574.07 641,-591 628.56,-605.06 610.64,-615.89 594.26,-623.4"/>
<polygon fill="midnightblue" stroke="midnightblue" points="592.66,-620.28 584.85,-627.44 595.42,-626.71 592.66,-620.28"/>
</g>
<!-- Node8 -->
<g id="node8" class="node">
<title>Node8</title>
<g id="a_node8"><a xlink:title=" ">
<polygon fill="white" stroke="#bfbfbf" points="318.5,-336.5 318.5,-355.5 353.5,-355.5 353.5,-336.5 318.5,-336.5"/>
<text text-anchor="middle" x="336" y="-343.5" font-family="Helvetica,sans-Serif" font-size="10.00">map</text>
</a>
</g>
</g>
<!-- Node7&#45;&gt;Node8 -->
<g id="edge8" class="edge">
<title>Node7&#45;&gt;Node8</title>
<path fill="none" stroke="midnightblue" d="M612.81,-523.22C538.26,-520.98 398.07,-512.31 363,-479 332,-449.55 331.5,-394.85 333.76,-365.98"/>
<polygon fill="midnightblue" stroke="midnightblue" points="337.28,-365.94 334.77,-355.65 330.31,-365.26 337.28,-365.94"/>
</g>
<!-- Node9 -->
<g id="node9" class="node">
<title>Node9</title>
<g id="a_node9"><a xlink:title=" ">
<polygon fill="white" stroke="#bfbfbf" points="854,-454 854,-473 884,-473 884,-454 854,-454"/>
<text text-anchor="middle" x="869" y="-461" font-family="Helvetica,sans-Serif" font-size="10.00">set</text>
</a>
</g>
</g>
<!-- Node7&#45;&gt;Node9 -->
<g id="edge9" class="edge">
<title>Node7&#45;&gt;Node9</title>
<path fill="none" stroke="midnightblue" d="M705.58,-515.49C742.47,-507.91 795.44,-495.48 840,-479 841.6,-478.41 843.22,-477.76 844.84,-477.06"/>
<polygon fill="midnightblue" stroke="midnightblue" points="846.35,-480.22 853.93,-472.82 843.39,-473.88 846.35,-480.22"/>
</g>
<!-- Node7&#45;&gt;Node10 -->
<g id="edge10" class="edge">
<title>Node7&#45;&gt;Node10</title>
<path fill="none" stroke="midnightblue" d="M707.12,-516.23C760.32,-507.42 849.43,-492.5 926,-479 927.46,-478.74 928.93,-478.48 930.42,-478.22"/>
<polygon fill="midnightblue" stroke="midnightblue" points="931.12,-481.65 940.34,-476.44 929.88,-474.76 931.12,-481.65"/>
</g>
<!-- Node7&#45;&gt;Node13 -->
<g id="edge30" class="edge">
<title>Node7&#45;&gt;Node13</title>
<path fill="none" stroke="midnightblue" d="M612.77,-520.26C528.69,-513.18 359.96,-496.92 340,-479 298.06,-441.33 315.94,-411.95 309,-356 307.91,-347.18 308.42,-344.87 309,-336 310.26,-316.79 327.7,-190.04 334.4,-141.69"/>
<polygon fill="midnightblue" stroke="midnightblue" points="337.88,-142.06 335.79,-131.67 330.95,-141.09 337.88,-142.06"/>
</g>
<!-- Node7&#45;&gt;Node16 -->
<g id="edge31" class="edge">
<title>Node7&#45;&gt;Node16</title>
<path fill="none" stroke="midnightblue" d="M612.91,-521.19C530.94,-515.75 365.74,-502.24 313,-479 284.79,-466.57 117.82,-325.84 101,-300 84.58,-274.77 82,-265.1 82,-235 82,-235 82,-235 82,-121 82,-16.45 469,-9.9 593.75,-10.5"/>
<polygon fill="midnightblue" stroke="midnightblue" points="593.95,-14 603.97,-10.57 593.99,-7 593.95,-14"/>
</g>
<!-- Node7&#45;&gt;Node19 -->
<g id="edge33" class="edge">
<title>Node7&#45;&gt;Node19</title>
<path fill="none" stroke="midnightblue" d="M707.42,-523.85C829.36,-522.91 1151.18,-516.81 1250,-479 1301.81,-459.18 1349,-458.47 1349,-403 1349,-403 1349,-403 1349,-177 1349,-142.81 1365.6,-105.76 1376.86,-84.57"/>
<polygon fill="midnightblue" stroke="midnightblue" points="1379.95,-86.22 1381.72,-75.77 1373.82,-82.83 1379.95,-86.22"/>
</g>
<!-- Node21 -->
<g id="node21" class="node">
<title>Node21</title>
<g id="a_node21"><a xlink:href="cellgen_8h.html" target="_top" xlink:title=" ">
<polygon fill="white" stroke="black" points="418.5,-392.5 418.5,-411.5 489.5,-411.5 489.5,-392.5 418.5,-392.5"/>
<text text-anchor="middle" x="454" y="-399.5" font-family="Helvetica,sans-Serif" font-size="10.00">util/cellgen.h</text>
</a>
</g>
</g>
<!-- Node7&#45;&gt;Node21 -->
<g id="edge21" class="edge">
<title>Node7&#45;&gt;Node21</title>
<path fill="none" stroke="midnightblue" d="M632.24,-515.43C608.9,-507.63 575.1,-494.92 548,-479 518.18,-461.49 487.81,-435.04 469.95,-418.41"/>
<polygon fill="midnightblue" stroke="midnightblue" points="472.34,-415.85 462.67,-411.52 467.53,-420.94 472.34,-415.85"/>
</g>
<!-- Node7&#45;&gt;Node24 -->
<g id="edge25" class="edge">
<title>Node7&#45;&gt;Node24</title>
<path fill="none" stroke="midnightblue" d="M612.73,-522C520.08,-517.56 318.02,-505.13 254,-479 221.02,-465.54 189.91,-437.44 172.19,-419.44"/>
<polygon fill="midnightblue" stroke="midnightblue" points="174.47,-416.76 165.03,-411.96 169.42,-421.61 174.47,-416.76"/>
</g>
<!-- Node26 -->
<g id="node26" class="node">
<title>Node26</title>
<g id="a_node26"><a xlink:href="geometry_8h.html" target="_top" xlink:title=" ">
<polygon fill="white" stroke="black" points="372,-454 372,-473 452,-473 452,-454 372,-454"/>
<text text-anchor="middle" x="412" y="-461" font-family="Helvetica,sans-Serif" font-size="10.00">util/geometry.h</text>
</a>
</g>
</g>
<!-- Node7&#45;&gt;Node26 -->
<g id="edge34" class="edge">
<title>Node7&#45;&gt;Node26</title>
<path fill="none" stroke="midnightblue" d="M621.26,-515.43C582.03,-506.65 519.67,-492.43 466,-479 461.7,-477.92 457.21,-476.77 452.75,-475.6"/>
<polygon fill="midnightblue" stroke="midnightblue" points="453.64,-472.22 443.08,-473.04 451.85,-478.98 453.64,-472.22"/>
</g>
<!-- Node27 -->
<g id="node27" class="node">
<title>Node27</title>
<g id="a_node27"><a xlink:href="_none_8h.html" target="_top" xlink:title=" ">
<polygon fill="white" stroke="black" points="589.5,-224.5 589.5,-243.5 702.5,-243.5 702.5,-224.5 589.5,-224.5"/>
<text text-anchor="middle" x="646" y="-231.5" font-family="Helvetica,sans-Serif" font-size="10.00">engine/actions/None.h</text>
</a>
</g>
</g>
<!-- Node7&#45;&gt;Node27 -->
<g id="edge37" class="edge">
<title>Node7&#45;&gt;Node27</title>
<path fill="none" stroke="midnightblue" d="M662.86,-515.29C671.63,-486.94 695.37,-395.63 659,-336 640.99,-306.47 607.93,-329.58 590,-300 578.22,-280.56 600.39,-261.2 620.22,-248.73"/>
<polygon fill="midnightblue" stroke="midnightblue" points="622.21,-251.61 629.03,-243.51 618.64,-245.59 622.21,-251.61"/>
</g>
<!-- Node28 -->
<g id="node28" class="node">
<title>Node28</title>
<g id="a_node28"><a xlink:href="game_controller_8h.html" target="_top" xlink:title=" ">
<polygon fill="white" stroke="black" points="984.5,-336.5 984.5,-355.5 1105.5,-355.5 1105.5,-336.5 984.5,-336.5"/>
<text text-anchor="middle" x="1045" y="-343.5" font-family="Helvetica,sans-Serif" font-size="10.00">engine/gameController.h</text>
</a>
</g>
</g>
<!-- Node7&#45;&gt;Node28 -->
<g id="edge39" class="edge">
<title>Node7&#45;&gt;Node28</title>
<path fill="none" stroke="midnightblue" d="M706.98,-515.48C737.02,-508.65 776.03,-497.15 807,-479 855.28,-450.71 849.72,-420.29 898,-392 925.71,-375.77 959.84,-364.85 988.24,-357.84"/>
<polygon fill="midnightblue" stroke="midnightblue" points="989.1,-361.24 998.02,-355.52 987.49,-354.42 989.1,-361.24"/>
</g>
<!-- Node32 -->
<g id="node32" class="node">
<title>Node32</title>
<g id="a_node32"><a xlink:href="_set_squad_path_8h.html" target="_top" xlink:title=" ">
<polygon fill="white" stroke="black" points="1087.5,-454 1087.5,-473 1240.5,-473 1240.5,-454 1087.5,-454"/>
<text text-anchor="middle" x="1164" y="-461" font-family="Helvetica,sans-Serif" font-size="10.00">engine/actions/SetSquadPath.h</text>
</a>
</g>
</g>
<!-- Node7&#45;&gt;Node32 -->
<g id="edge48" class="edge">
<title>Node7&#45;&gt;Node32</title>
<path fill="none" stroke="midnightblue" d="M707.22,-519.37C783.69,-512.17 938.84,-497.21 1070,-479 1079.04,-477.75 1088.59,-476.27 1098.02,-474.74"/>
<polygon fill="midnightblue" stroke="midnightblue" points="1098.88,-478.15 1108.18,-473.07 1097.74,-471.24 1098.88,-478.15"/>
</g>
<!-- Node33 -->
<g id="node33" class="node">
<title>Node33</title>
<g id="a_node33"><a xlink:href="_all_units_8h.html" target="_top" xlink:title=" ">
<polygon fill="white" stroke="black" points="590.5,-392.5 590.5,-411.5 649.5,-411.5 649.5,-392.5 590.5,-392.5"/>
<text text-anchor="middle" x="620" y="-399.5" font-family="Helvetica,sans-Serif" font-size="10.00">AllUnits.h</text>
</a>
</g>
</g>
<!-- Node7&#45;&gt;Node33 -->
<g id="edge52" class="edge">
<title>Node7&#45;&gt;Node33</title>
<path fill="none" stroke="midnightblue" d="M657.12,-515.3C650.64,-495.68 634.76,-447.64 626.01,-421.19"/>
<polygon fill="midnightblue" stroke="midnightblue" points="629.31,-420.02 622.85,-411.62 622.67,-422.22 629.31,-420.02"/>
</g>
<!-- Node35 -->
<g id="node35" class="node">
<title>Node35</title>
<g id="a_node35"><a xlink:href="_all_squad_templates_8h.html" target="_top" xlink:title=" ">
<polygon fill="white" stroke="black" points="688.5,-454 688.5,-473 797.5,-473 797.5,-454 688.5,-454"/>
<text text-anchor="middle" x="743" y="-461" font-family="Helvetica,sans-Serif" font-size="10.00">AllSquadTemplates.h</text>
</a>
</g>
</g>
<!-- Node7&#45;&gt;Node35 -->
<g id="edge58" class="edge">
<title>Node7&#45;&gt;Node35</title>
<path fill="none" stroke="midnightblue" d="M671.89,-515.48C685.2,-505.93 707,-490.31 722.96,-478.87"/>
<polygon fill="midnightblue" stroke="midnightblue" points="725.04,-481.68 731.13,-473.01 720.96,-475.99 725.04,-481.68"/>
</g>
<!-- Node7&#45;&gt;Node41 -->
<g id="edge75" class="edge">
<title>Node7&#45;&gt;Node41</title>
<path fill="none" stroke="midnightblue" d="M707.1,-521.5C755.64,-517.44 832.55,-506.81 893,-479 913.12,-469.75 912.37,-458.25 932,-448 1023.59,-400.16 1141.3,-371.44 1210.61,-357.46"/>
<polygon fill="midnightblue" stroke="midnightblue" points="1211.35,-360.88 1220.48,-355.51 1209.99,-354.02 1211.35,-360.88"/>
</g>
<!-- Node11 -->
<g id="node11" class="node">
<title>Node11</title>
<g id="a_node11"><a xlink:href="game_object_8h.html" target="_top" xlink:title=" ">
<polygon fill="white" stroke="black" points="836.5,-168.5 836.5,-187.5 913.5,-187.5 913.5,-168.5 836.5,-168.5"/>
<text text-anchor="middle" x="875" y="-175.5" font-family="Helvetica,sans-Serif" font-size="10.00">gameObject.h</text>
</a>
</g>
</g>
<!-- Node10&#45;&gt;Node11 -->
<g id="edge11" class="edge">
<title>Node10&#45;&gt;Node11</title>
<path fill="none" stroke="midnightblue" d="M1049.6,-448.4C1092.53,-431.7 1151,-399.36 1151,-347 1151,-347 1151,-347 1151,-289 1151,-240.68 1003.2,-204.18 923.91,-188.07"/>
<polygon fill="midnightblue" stroke="midnightblue" points="924.16,-184.55 913.67,-186.02 922.79,-191.41 924.16,-184.55"/>
</g>
<!-- Node12 -->
<g id="node12" class="node">
<title>Node12</title>
<g id="a_node12"><a xlink:title=" ">
<polygon fill="white" stroke="#bfbfbf" points="992.5,-112.5 992.5,-131.5 1021.5,-131.5 1021.5,-112.5 992.5,-112.5"/>
<text text-anchor="middle" x="1007" y="-119.5" font-family="Helvetica,sans-Serif" font-size="10.00">list</text>
</a>
</g>
</g>
<!-- Node11&#45;&gt;Node12 -->
<g id="edge12" class="edge">
<title>Node11&#45;&gt;Node12</title>
<path fill="none" stroke="midnightblue" d="M895.92,-168.44C919.56,-158.77 957.98,-143.05 982.87,-132.87"/>
<polygon fill="midnightblue" stroke="midnightblue" points="984.38,-136.03 992.31,-129.01 981.73,-129.56 984.38,-136.03"/>
</g>
<!-- Node11&#45;&gt;Node13 -->
<g id="edge13" class="edge">
<title>Node11&#45;&gt;Node13</title>
<path fill="none" stroke="midnightblue" d="M836.31,-173.12C740.94,-163.54 494.61,-138.82 387.73,-128.09"/>
<polygon fill="midnightblue" stroke="midnightblue" points="387.83,-124.58 377.53,-127.07 387.13,-131.55 387.83,-124.58"/>
</g>
<!-- Node18 -->
<g id="node18" class="node">
<title>Node18</title>
<g id="a_node18"><a xlink:href="engine_2_action_8h.html" target="_top" xlink:title=" ">
<polygon fill="white" stroke="black" points="833.5,-112.5 833.5,-131.5 916.5,-131.5 916.5,-112.5 833.5,-112.5"/>
<text text-anchor="middle" x="875" y="-119.5" font-family="Helvetica,sans-Serif" font-size="10.00">engine/Action.h</text>
</a>
</g>
</g>
<!-- Node11&#45;&gt;Node18 -->
<g id="edge18" class="edge">
<title>Node11&#45;&gt;Node18</title>
<path fill="none" stroke="midnightblue" d="M875,-168.08C875,-161.01 875,-150.86 875,-141.99"/>
<polygon fill="midnightblue" stroke="midnightblue" points="878.5,-141.75 875,-131.75 871.5,-141.75 878.5,-141.75"/>
</g>
<!-- Node14 -->
<g id="node14" class="node">
<title>Node14</title>
<g id="a_node14"><a xlink:href="_s_f_m_l_facade_8h.html" target="_top" xlink:title=" ">
<polygon fill="white" stroke="black" points="1218.5,-56.5 1218.5,-75.5 1341.5,-75.5 1341.5,-56.5 1218.5,-56.5"/>
<text text-anchor="middle" x="1280" y="-63.5" font-family="Helvetica,sans-Serif" font-size="10.00">graphics/SFMLFacade.h</text>
</a>
</g>
</g>
<!-- Node13&#45;&gt;Node14 -->
<g id="edge14" class="edge">
<title>Node13&#45;&gt;Node14</title>
<path fill="none" stroke="midnightblue" d="M377.52,-118.68C523.17,-110.34 1021.4,-81.81 1208.36,-71.1"/>
<polygon fill="midnightblue" stroke="midnightblue" points="1208.57,-74.6 1218.35,-70.53 1208.17,-67.61 1208.57,-74.6"/>
</g>
<!-- Node17 -->
<g id="node17" class="node">
<title>Node17</title>
<g id="a_node17"><a xlink:title=" ">
<polygon fill="white" stroke="#bfbfbf" points="288,-56.5 288,-75.5 386,-75.5 386,-56.5 288,-56.5"/>
<text text-anchor="middle" x="337" y="-63.5" font-family="Helvetica,sans-Serif" font-size="10.00">nlohmann/json.hpp</text>
</a>
</g>
</g>
<!-- Node13&#45;&gt;Node17 -->
<g id="edge17" class="edge">
<title>Node13&#45;&gt;Node17</title>
<path fill="none" stroke="midnightblue" d="M337,-112.08C337,-105.01 337,-94.86 337,-85.99"/>
<polygon fill="midnightblue" stroke="midnightblue" points="340.5,-85.75 337,-75.75 333.5,-85.75 340.5,-85.75"/>
</g>
<!-- Node15 -->
<g id="node15" class="node">
<title>Node15</title>
<g id="a_node15"><a xlink:title=" ">
<polygon fill="white" stroke="#bfbfbf" points="1228,-0.5 1228,-19.5 1332,-19.5 1332,-0.5 1228,-0.5"/>
<text text-anchor="middle" x="1280" y="-7.5" font-family="Helvetica,sans-Serif" font-size="10.00">SFML/Graphics.hpp</text>
</a>
</g>
</g>
<!-- Node14&#45;&gt;Node15 -->
<g id="edge15" class="edge">
<title>Node14&#45;&gt;Node15</title>
<path fill="none" stroke="midnightblue" d="M1280,-56.08C1280,-49.01 1280,-38.86 1280,-29.99"/>
<polygon fill="midnightblue" stroke="midnightblue" points="1283.5,-29.75 1280,-19.75 1276.5,-29.75 1283.5,-29.75"/>
</g>
<!-- Node14&#45;&gt;Node16 -->
<g id="edge16" class="edge">
<title>Node14&#45;&gt;Node16</title>
<path fill="none" stroke="midnightblue" d="M1218.22,-57.48C1213.41,-56.96 1208.63,-56.46 1204,-56 1003.27,-36.23 762.23,-19.58 670.22,-13.49"/>
<polygon fill="midnightblue" stroke="midnightblue" points="670.22,-9.98 660.01,-12.81 669.76,-16.96 670.22,-9.98"/>
</g>
<!-- Node18&#45;&gt;Node19 -->
<g id="edge19" class="edge">
<title>Node18&#45;&gt;Node19</title>
<path fill="none" stroke="midnightblue" d="M916.77,-117.41C1019.24,-108.57 1279.32,-85.81 1349.98,-75.78"/>
<polygon fill="midnightblue" stroke="midnightblue" points="1350.62,-79.22 1359.97,-74.22 1349.55,-72.3 1350.62,-79.22"/>
</g>
<!-- Node20 -->
<g id="node20" class="node">
<title>Node20</title>
<g id="a_node20"><a xlink:title=" ">
<polygon fill="white" stroke="#bfbfbf" points="165.5,-56.5 165.5,-75.5 216.5,-75.5 216.5,-56.5 165.5,-56.5"/>
<text text-anchor="middle" x="191" y="-63.5" font-family="Helvetica,sans-Serif" font-size="10.00">memory</text>
</a>
</g>
</g>
<!-- Node18&#45;&gt;Node20 -->
<g id="edge20" class="edge">
<title>Node18&#45;&gt;Node20</title>
<path fill="none" stroke="midnightblue" d="M833.42,-118.24C736.3,-111.72 487.01,-94.49 279,-76 261.81,-74.47 242.75,-72.55 226.78,-70.88"/>
<polygon fill="midnightblue" stroke="midnightblue" points="227.09,-67.39 216.78,-69.82 226.36,-74.35 227.09,-67.39"/>
</g>
<!-- Node21&#45;&gt;Node8 -->
<g id="edge23" class="edge">
<title>Node21&#45;&gt;Node8</title>
<path fill="none" stroke="midnightblue" d="M435.3,-392.44C415.83,-383.53 385.14,-369.49 363.03,-359.37"/>
<polygon fill="midnightblue" stroke="midnightblue" points="364.39,-356.14 353.84,-355.16 361.47,-362.51 364.39,-356.14"/>
</g>
<!-- Node22 -->
<g id="node22" class="node">
<title>Node22</title>
<g id="a_node22"><a xlink:title=" ">
<polygon fill="white" stroke="#bfbfbf" points="435,-224.5 435,-243.5 479,-243.5 479,-224.5 435,-224.5"/>
<text text-anchor="middle" x="457" y="-231.5" font-family="Helvetica,sans-Serif" font-size="10.00">vector</text>
</a>
</g>
</g>
<!-- Node21&#45;&gt;Node22 -->
<g id="edge22" class="edge">
<title>Node21&#45;&gt;Node22</title>
<path fill="none" stroke="midnightblue" d="M489.94,-393.53C510.46,-387.22 534.52,-375.91 547,-356 574.5,-312.15 488.56,-308.75 481,-300 469.58,-286.78 463.4,-267.65 460.18,-253.56"/>
<polygon fill="midnightblue" stroke="midnightblue" points="463.57,-252.69 458.19,-243.56 456.71,-254.05 463.57,-252.69"/>
</g>
<!-- Node23 -->
<g id="node23" class="node">
<title>Node23</title>
<g id="a_node23"><a xlink:title=" ">
<polygon fill="white" stroke="#bfbfbf" points="410,-336.5 410,-355.5 538,-355.5 538,-336.5 410,-336.5"/>
<text text-anchor="middle" x="474" y="-343.5" font-family="Helvetica,sans-Serif" font-size="10.00">scanline_triangulation.hpp</text>
</a>
</g>
</g>
<!-- Node21&#45;&gt;Node23 -->
<g id="edge24" class="edge">
<title>Node21&#45;&gt;Node23</title>
<path fill="none" stroke="midnightblue" d="M457.3,-392.08C459.98,-384.85 463.85,-374.41 467.19,-365.4"/>
<polygon fill="midnightblue" stroke="midnightblue" points="470.57,-366.34 470.76,-355.75 464,-363.91 470.57,-366.34"/>
</g>
<!-- Node24&#45;&gt;Node20 -->
<g id="edge29" class="edge">
<title>Node24&#45;&gt;Node20</title>
<path fill="none" stroke="midnightblue" d="M148.55,-392.39C130.77,-373.22 91.85,-325.15 101,-280 116.53,-203.37 160.52,-120.04 180.68,-84.57"/>
<polygon fill="midnightblue" stroke="midnightblue" points="183.94,-85.93 185.9,-75.52 177.88,-82.43 183.94,-85.93"/>
</g>
<!-- Node25 -->
<g id="node25" class="node">
<title>Node25</title>
<g id="a_node25"><a xlink:href="_flag_8h.html" target="_top" xlink:title=" ">
<polygon fill="white" stroke="black" points="180.5,-336.5 180.5,-355.5 223.5,-355.5 223.5,-336.5 180.5,-336.5"/>
<text text-anchor="middle" x="202" y="-343.5" font-family="Helvetica,sans-Serif" font-size="10.00">Flag.h</text>
</a>
</g>
</g>
<!-- Node24&#45;&gt;Node25 -->
<g id="edge26" class="edge">
<title>Node24&#45;&gt;Node25</title>
<path fill="none" stroke="midnightblue" d="M164.43,-392.08C170.85,-384.38 180.31,-373.03 188.12,-363.65"/>
<polygon fill="midnightblue" stroke="midnightblue" points="190.99,-365.67 194.71,-355.75 185.62,-361.19 190.99,-365.67"/>
</g>
<!-- Node25&#45;&gt;Node3 -->
<g id="edge28" class="edge">
<title>Node25&#45;&gt;Node3</title>
<path fill="none" stroke="midnightblue" d="M209.93,-336.08C216.85,-328.3 227.07,-316.8 235.45,-307.37"/>
<polygon fill="midnightblue" stroke="midnightblue" points="238.19,-309.55 242.22,-299.75 232.96,-304.9 238.19,-309.55"/>
</g>
<!-- Node25&#45;&gt;Node22 -->
<g id="edge27" class="edge">
<title>Node25&#45;&gt;Node22</title>
<path fill="none" stroke="midnightblue" d="M222.01,-336.37C266.79,-317.05 375.26,-270.26 427.68,-247.65"/>
<polygon fill="midnightblue" stroke="midnightblue" points="429.29,-250.77 437.08,-243.59 426.52,-244.34 429.29,-250.77"/>
</g>
<!-- Node26&#45;&gt;Node21 -->
<g id="edge36" class="edge">
<title>Node26&#45;&gt;Node21</title>
<path fill="none" stroke="midnightblue" d="M418.02,-453.98C424.26,-445.14 434.17,-431.09 442.02,-419.98"/>
<polygon fill="midnightblue" stroke="midnightblue" points="445.09,-421.7 447.99,-411.51 439.37,-417.66 445.09,-421.7"/>
</g>
<!-- Node26&#45;&gt;Node22 -->
<g id="edge35" class="edge">
<title>Node26&#45;&gt;Node22</title>
<path fill="none" stroke="midnightblue" d="M409.25,-453.74C403.14,-432.95 389.85,-379.11 401,-336 409.33,-303.81 430.37,-270.93 444.16,-251.77"/>
<polygon fill="midnightblue" stroke="midnightblue" points="447.12,-253.65 450.26,-243.53 441.49,-249.49 447.12,-253.65"/>
</g>
<!-- Node27&#45;&gt;Node18 -->
<g id="edge38" class="edge">
<title>Node27&#45;&gt;Node18</title>
<path fill="none" stroke="midnightblue" d="M663.97,-224.37C704.02,-205.13 800.79,-158.65 848.08,-135.93"/>
<polygon fill="midnightblue" stroke="midnightblue" points="849.62,-139.08 857.11,-131.59 846.58,-132.77 849.62,-139.08"/>
</g>
<!-- Node28&#45;&gt;Node11 -->
<g id="edge41" class="edge">
<title>Node28&#45;&gt;Node11</title>
<path fill="none" stroke="midnightblue" d="M1042.91,-336.41C1037.21,-314.66 1019.36,-256.79 984,-224 966.89,-208.14 943.42,-197.48 922.63,-190.54"/>
<polygon fill="midnightblue" stroke="midnightblue" points="923.59,-187.17 913,-187.51 921.49,-193.85 923.59,-187.17"/>
</g>
<!-- Node28&#45;&gt;Node12 -->
<g id="edge40" class="edge">
<title>Node28&#45;&gt;Node12</title>
<path fill="none" stroke="midnightblue" d="M1069.63,-336.35C1088.32,-328.88 1113.82,-316.65 1132,-300 1181.12,-255.01 1244.5,-220.11 1203,-168 1181.86,-141.46 1079.84,-129.28 1031.94,-124.95"/>
<polygon fill="midnightblue" stroke="midnightblue" points="1032.06,-121.45 1021.8,-124.08 1031.46,-128.43 1032.06,-121.45"/>
</g>
<!-- Node29 -->
<g id="node29" class="node">
<title>Node29</title>
<g id="a_node29"><a xlink:href="_network_manager_8h.html" target="_top" xlink:title=" ">
<polygon fill="white" stroke="black" points="849,-280.5 849,-299.5 979,-299.5 979,-280.5 849,-280.5"/>
<text text-anchor="middle" x="914" y="-287.5" font-family="Helvetica,sans-Serif" font-size="10.00">engine/NetworkManager.h</text>
</a>
</g>
</g>
<!-- Node28&#45;&gt;Node29 -->
<g id="edge42" class="edge">
<title>Node28&#45;&gt;Node29</title>
<path fill="none" stroke="midnightblue" d="M1024.24,-336.44C1002.68,-327.56 968.74,-313.56 944.21,-303.45"/>
<polygon fill="midnightblue" stroke="midnightblue" points="945.24,-300.09 934.66,-299.52 942.57,-306.56 945.24,-300.09"/>
</g>
<!-- Node31 -->
<g id="node31" class="node">
<title>Node31</title>
<g id="a_node31"><a xlink:title=" ">
<polygon fill="white" stroke="#bfbfbf" points="1073.5,-280.5 1073.5,-299.5 1122.5,-299.5 1122.5,-280.5 1073.5,-280.5"/>
<text text-anchor="middle" x="1098" y="-287.5" font-family="Helvetica,sans-Serif" font-size="10.00">random</text>
</a>
</g>
</g>
<!-- Node28&#45;&gt;Node31 -->
<g id="edge47" class="edge">
<title>Node28&#45;&gt;Node31</title>
<path fill="none" stroke="midnightblue" d="M1053.75,-336.08C1061.47,-328.22 1072.9,-316.57 1082.22,-307.08"/>
<polygon fill="midnightblue" stroke="midnightblue" points="1084.9,-309.34 1089.41,-299.75 1079.91,-304.44 1084.9,-309.34"/>
</g>
<!-- Node29&#45;&gt;Node11 -->
<g id="edge43" class="edge">
<title>Node29&#45;&gt;Node11</title>
<path fill="none" stroke="midnightblue" d="M910.1,-280.48C906.06,-271.5 899.7,-256.91 895,-244 889.32,-228.4 883.85,-210.32 880.07,-197.2"/>
<polygon fill="midnightblue" stroke="midnightblue" points="883.41,-196.17 877.32,-187.5 876.68,-198.08 883.41,-196.17"/>
</g>
<!-- Node29&#45;&gt;Node22 -->
<g id="edge45" class="edge">
<title>Node29&#45;&gt;Node22</title>
<path fill="none" stroke="midnightblue" d="M848.63,-281.04C845.71,-280.68 842.83,-280.34 840,-280 709.96,-264.45 555.03,-246.39 489.18,-238.74"/>
<polygon fill="midnightblue" stroke="midnightblue" points="489.36,-235.23 479.02,-237.56 488.55,-242.19 489.36,-235.23"/>
</g>
<!-- Node29&#45;&gt;Node27 -->
<g id="edge44" class="edge">
<title>Node29&#45;&gt;Node27</title>
<path fill="none" stroke="midnightblue" d="M871.53,-280.44C824.59,-270.98 748.92,-255.74 698.35,-245.55"/>
<polygon fill="midnightblue" stroke="midnightblue" points="698.76,-242.06 688.27,-243.52 697.38,-248.92 698.76,-242.06"/>
</g>
<!-- Node30 -->
<g id="node30" class="node">
<title>Node30</title>
<g id="a_node30"><a xlink:title=" ">
<polygon fill="white" stroke="#bfbfbf" points="903.5,-224.5 903.5,-243.5 974.5,-243.5 974.5,-224.5 903.5,-224.5"/>
<text text-anchor="middle" x="939" y="-231.5" font-family="Helvetica,sans-Serif" font-size="10.00">sys/socket.h</text>
</a>
</g>
</g>
<!-- Node29&#45;&gt;Node30 -->
<g id="edge46" class="edge">
<title>Node29&#45;&gt;Node30</title>
<path fill="none" stroke="midnightblue" d="M918.13,-280.08C921.51,-272.77 926.42,-262.18 930.62,-253.1"/>
<polygon fill="midnightblue" stroke="midnightblue" points="933.92,-254.3 934.95,-243.75 927.57,-251.36 933.92,-254.3"/>
</g>
<!-- Node32&#45;&gt;Node6 -->
<g id="edge50" class="edge">
<title>Node32&#45;&gt;Node6</title>
<path fill="none" stroke="midnightblue" d="M1133.62,-473.06C1032.7,-501.47 708.65,-592.73 594.91,-624.76"/>
<polygon fill="midnightblue" stroke="midnightblue" points="593.88,-621.42 585.2,-627.5 595.77,-628.15 593.88,-621.42"/>
</g>
<!-- Node32&#45;&gt;Node7 -->
<g id="edge51" class="edge">
<title>Node32&#45;&gt;Node7</title>
<path fill="none" stroke="midnightblue" d="M1125.57,-473.07C1113.57,-475.17 1100.31,-477.29 1088,-479 955.96,-497.33 799.62,-512.37 717.22,-519.51"/>
<polygon fill="midnightblue" stroke="midnightblue" points="716.72,-516.04 707.06,-520.38 717.32,-523.01 716.72,-516.04"/>
</g>
<!-- Node32&#45;&gt;Node18 -->
<g id="edge49" class="edge">
<title>Node32&#45;&gt;Node18</title>
<path fill="none" stroke="midnightblue" d="M1167.17,-453.94C1173.89,-434.97 1189,-387.83 1189,-347 1189,-347 1189,-347 1189,-233 1189,-178.08 1015.72,-144.05 926.61,-130.18"/>
<polygon fill="midnightblue" stroke="midnightblue" points="927.11,-126.72 916.7,-128.67 926.05,-133.64 927.11,-126.72"/>
</g>
<!-- Node34 -->
<g id="node34" class="node">
<title>Node34</title>
<g id="a_node34"><a xlink:href="_factory_8h.html" target="_top" xlink:title=" ">
<polygon fill="white" stroke="black" points="594,-336.5 594,-355.5 650,-355.5 650,-336.5 594,-336.5"/>
<text text-anchor="middle" x="622" y="-343.5" font-family="Helvetica,sans-Serif" font-size="10.00">Factory.h</text>
</a>
</g>
</g>
<!-- Node33&#45;&gt;Node34 -->
<g id="edge53" class="edge">
<title>Node33&#45;&gt;Node34</title>
<path fill="none" stroke="midnightblue" d="M620.33,-392.08C620.59,-385.01 620.97,-374.86 621.3,-365.99"/>
<polygon fill="midnightblue" stroke="midnightblue" points="624.8,-365.87 621.68,-355.75 617.81,-365.61 624.8,-365.87"/>
</g>
<!-- Node34&#45;&gt;Node3 -->
<g id="edge54" class="edge">
<title>Node34&#45;&gt;Node3</title>
<path fill="none" stroke="midnightblue" d="M593.73,-340.9C525.35,-330.97 351.43,-305.72 280.66,-295.45"/>
<polygon fill="midnightblue" stroke="midnightblue" points="281,-291.96 270.6,-293.99 279.99,-298.89 281,-291.96"/>
</g>
<!-- Node34&#45;&gt;Node4 -->
<g id="edge56" class="edge">
<title>Node34&#45;&gt;Node4</title>
<path fill="none" stroke="midnightblue" d="M611.5,-355.6C601.42,-364.17 586.12,-378.04 575,-392 496.68,-490.34 427.83,-626.12 404.47,-674.23"/>
<polygon fill="midnightblue" stroke="midnightblue" points="401.26,-672.83 400.07,-683.36 407.57,-675.86 401.26,-672.83"/>
</g>
<!-- Node34&#45;&gt;Node7 -->
<g id="edge55" class="edge">
<title>Node34&#45;&gt;Node7</title>
<path fill="none" stroke="midnightblue" d="M610.73,-355.57C601.03,-363.73 587.72,-376.95 582,-392 578.84,-400.31 579.34,-403.52 582,-412 594.16,-450.75 625,-487.81 644.06,-508.08"/>
<polygon fill="midnightblue" stroke="midnightblue" points="641.72,-510.7 651.18,-515.46 646.75,-505.84 641.72,-510.7"/>
</g>
<!-- Node34&#45;&gt;Node11 -->
<g id="edge57" class="edge">
<title>Node34&#45;&gt;Node11</title>
<path fill="none" stroke="midnightblue" d="M600.19,-336.45C585.06,-329.22 566.05,-317.26 557,-300 543.74,-274.69 576.11,-227.79 581,-224 618.36,-195.07 752.54,-184.51 826.03,-180.83"/>
<polygon fill="midnightblue" stroke="midnightblue" points="826.59,-184.31 836.41,-180.34 826.26,-177.32 826.59,-184.31"/>
</g>
<!-- Node35&#45;&gt;Node33 -->
<g id="edge74" class="edge">
<title>Node35&#45;&gt;Node33</title>
<path fill="none" stroke="midnightblue" d="M725.38,-453.98C704.83,-444.03 670.64,-427.49 646.79,-415.96"/>
<polygon fill="midnightblue" stroke="midnightblue" points="648.12,-412.71 637.59,-411.51 645.07,-419.01 648.12,-412.71"/>
</g>
<!-- Node36 -->
<g id="node36" class="node">
<title>Node36</title>
<g id="a_node36"><a xlink:href="_squad_template_8h.html" target="_top" xlink:title=" ">
<polygon fill="white" stroke="black" points="706,-392.5 706,-411.5 798,-411.5 798,-392.5 706,-392.5"/>
<text text-anchor="middle" x="752" y="-399.5" font-family="Helvetica,sans-Serif" font-size="10.00">SquadTemplate.h</text>
</a>
</g>
</g>
<!-- Node35&#45;&gt;Node36 -->
<g id="edge59" class="edge">
<title>Node35&#45;&gt;Node36</title>
<path fill="none" stroke="midnightblue" d="M744.29,-453.98C745.56,-445.58 747.54,-432.48 749.18,-421.66"/>
<polygon fill="midnightblue" stroke="midnightblue" points="752.68,-421.92 750.71,-411.51 745.76,-420.87 752.68,-421.92"/>
</g>
<!-- Node36&#45;&gt;Node22 -->
<g id="edge60" class="edge">
<title>Node36&#45;&gt;Node22</title>
<path fill="none" stroke="midnightblue" d="M740.9,-392.44C723.82,-379.45 689.81,-354.33 659,-336 642.62,-326.25 534.56,-273.03 483.56,-248.01"/>
<polygon fill="midnightblue" stroke="midnightblue" points="484.97,-244.8 474.45,-243.54 481.89,-251.09 484.97,-244.8"/>
</g>
<!-- Node36&#45;&gt;Node34 -->
<g id="edge61" class="edge">
<title>Node36&#45;&gt;Node34</title>
<path fill="none" stroke="midnightblue" d="M731.4,-392.44C710.01,-383.56 676.32,-369.56 651.98,-359.45"/>
<polygon fill="midnightblue" stroke="midnightblue" points="653.08,-356.12 642.5,-355.52 650.39,-362.58 653.08,-356.12"/>
</g>
<!-- Node37 -->
<g id="node37" class="node">
<title>Node37</title>
<g id="a_node37"><a xlink:href="_gui_list_8h.html" target="_top" xlink:title=" ">
<polygon fill="white" stroke="black" points="599,-280.5 599,-299.5 707,-299.5 707,-280.5 599,-280.5"/>
<text text-anchor="middle" x="653" y="-287.5" font-family="Helvetica,sans-Serif" font-size="10.00">engine/GUI/GuiList.h</text>
</a>
</g>
</g>
<!-- Node36&#45;&gt;Node37 -->
<g id="edge62" class="edge">
<title>Node36&#45;&gt;Node37</title>
<path fill="none" stroke="midnightblue" d="M751.05,-392.5C749.16,-379.13 743.85,-352.99 730,-336 718.41,-321.79 701.07,-311.1 685.77,-303.71"/>
<polygon fill="midnightblue" stroke="midnightblue" points="687.14,-300.48 676.58,-299.53 684.24,-306.86 687.14,-300.48"/>
</g>
<!-- Node39 -->
<g id="node39" class="node">
<title>Node39</title>
<g id="a_node39"><a xlink:href="_gui_scroll_8h.html" target="_top" xlink:title=" ">
<polygon fill="white" stroke="black" points="820,-336.5 820,-355.5 936,-355.5 936,-336.5 820,-336.5"/>
<text text-anchor="middle" x="878" y="-343.5" font-family="Helvetica,sans-Serif" font-size="10.00">engine/GUI/GuiScroll.h</text>
</a>
</g>
</g>
<!-- Node36&#45;&gt;Node39 -->
<g id="edge66" class="edge">
<title>Node36&#45;&gt;Node39</title>
<path fill="none" stroke="midnightblue" d="M771.97,-392.44C792.61,-383.6 825.06,-369.69 848.63,-359.59"/>
<polygon fill="midnightblue" stroke="midnightblue" points="850.32,-362.67 858.13,-355.52 847.56,-356.24 850.32,-362.67"/>
</g>
<!-- Node40 -->
<g id="node40" class="node">
<title>Node40</title>
<g id="a_node40"><a xlink:href="_button_8h.html" target="_top" xlink:title=" ">
<polygon fill="white" stroke="black" points="725.5,-280.5 725.5,-299.5 830.5,-299.5 830.5,-280.5 725.5,-280.5"/>
<text text-anchor="middle" x="778" y="-287.5" font-family="Helvetica,sans-Serif" font-size="10.00">engine/GUI/Button.h</text>
</a>
</g>
</g>
<!-- Node36&#45;&gt;Node40 -->
<g id="edge69" class="edge">
<title>Node36&#45;&gt;Node40</title>
<path fill="none" stroke="midnightblue" d="M755.69,-392.19C759.32,-383.23 764.75,-368.86 768,-356 771.89,-340.59 774.51,-322.72 776.08,-309.62"/>
<polygon fill="midnightblue" stroke="midnightblue" points="779.58,-309.84 777.21,-299.52 772.62,-309.07 779.58,-309.84"/>
</g>
<!-- Node36&#45;&gt;Node41 -->
<g id="edge71" class="edge">
<title>Node36&#45;&gt;Node41</title>
<path fill="none" stroke="midnightblue" d="M798.34,-396.16C891.52,-386.43 1101.65,-364.48 1206.73,-353.5"/>
<polygon fill="midnightblue" stroke="midnightblue" points="1207.28,-356.97 1216.86,-352.45 1206.55,-350 1207.28,-356.97"/>
</g>
<!-- Node37&#45;&gt;Node22 -->
<g id="edge65" class="edge">
<title>Node37&#45;&gt;Node22</title>
<path fill="none" stroke="midnightblue" d="M621.94,-280.44C585.54,-270.41 525.51,-253.88 488.79,-243.76"/>
<polygon fill="midnightblue" stroke="midnightblue" points="489.66,-240.37 479.09,-241.09 487.8,-247.12 489.66,-240.37"/>
</g>
<!-- Node38 -->
<g id="node38" class="node">
<title>Node38</title>
<g id="a_node38"><a xlink:href="_gui_object_8h.html" target="_top" xlink:title=" ">
<polygon fill="white" stroke="black" points="721,-224.5 721,-243.5 841,-243.5 841,-224.5 721,-224.5"/>
<text text-anchor="middle" x="781" y="-231.5" font-family="Helvetica,sans-Serif" font-size="10.00">engine/GUI/GuiObject.h</text>
</a>
</g>
</g>
<!-- Node37&#45;&gt;Node38 -->
<g id="edge63" class="edge">
<title>Node37&#45;&gt;Node38</title>
<path fill="none" stroke="midnightblue" d="M673.28,-280.44C694.35,-271.56 727.52,-257.56 751.49,-247.45"/>
<polygon fill="midnightblue" stroke="midnightblue" points="752.96,-250.63 760.81,-243.52 750.24,-244.18 752.96,-250.63"/>
</g>
<!-- Node38&#45;&gt;Node11 -->
<g id="edge64" class="edge">
<title>Node38&#45;&gt;Node11</title>
<path fill="none" stroke="midnightblue" d="M796.1,-224.32C810.9,-215.82 833.69,-202.73 850.98,-192.8"/>
<polygon fill="midnightblue" stroke="midnightblue" points="853.01,-195.67 859.93,-187.65 849.52,-189.6 853.01,-195.67"/>
</g>
<!-- Node39&#45;&gt;Node12 -->
<g id="edge68" class="edge">
<title>Node39&#45;&gt;Node12</title>
<path fill="none" stroke="midnightblue" d="M928.09,-336.43C949.89,-330.07 973.68,-319.05 988,-300 1023.54,-252.73 1016.56,-177.22 1010.77,-142.11"/>
<polygon fill="midnightblue" stroke="midnightblue" points="1014.14,-141.07 1008.92,-131.85 1007.26,-142.31 1014.14,-141.07"/>
</g>
<!-- Node39&#45;&gt;Node37 -->
<g id="edge67" class="edge">
<title>Node39&#45;&gt;Node37</title>
<path fill="none" stroke="midnightblue" d="M842.35,-336.44C803.34,-327.08 740.73,-312.06 698.28,-301.87"/>
<polygon fill="midnightblue" stroke="midnightblue" points="699.03,-298.45 688.49,-299.52 697.39,-305.25 699.03,-298.45"/>
</g>
<!-- Node40&#45;&gt;Node38 -->
<g id="edge70" class="edge">
<title>Node40&#45;&gt;Node38</title>
<path fill="none" stroke="midnightblue" d="M778.5,-280.08C778.89,-273.01 779.45,-262.86 779.95,-253.99"/>
<polygon fill="midnightblue" stroke="midnightblue" points="783.45,-253.93 780.51,-243.75 776.46,-253.54 783.45,-253.93"/>
</g>
<!-- Node41&#45;&gt;Node14 -->
<g id="edge73" class="edge">
<title>Node41&#45;&gt;Node14</title>
<path fill="none" stroke="midnightblue" d="M1273.59,-336.44C1282.87,-318.29 1303,-274.38 1303,-235 1303,-235 1303,-235 1303,-177 1303,-144.12 1293.03,-106.86 1286.22,-85.24"/>
<polygon fill="midnightblue" stroke="midnightblue" points="1289.54,-84.12 1283.1,-75.71 1282.89,-86.3 1289.54,-84.12"/>
</g>
<!-- Node41&#45;&gt;Node16 -->
<g id="edge72" class="edge">
<title>Node41&#45;&gt;Node16</title>
<path fill="none" stroke="midnightblue" d="M1269.45,-336.21C1270.43,-307.67 1269.49,-216.72 1222,-168 1143.36,-87.32 788.48,-32.37 670.37,-16.05"/>
<polygon fill="midnightblue" stroke="midnightblue" points="670.72,-12.57 660.33,-14.68 669.77,-19.5 670.72,-12.57"/>
</g>
<!-- Node42&#45;&gt;Node6 -->
<g id="edge79" class="edge">
<title>Node42&#45;&gt;Node6</title>
<path fill="none" stroke="midnightblue" d="M560.13,-590.75C561.66,-597.86 562.1,-608.14 561.47,-617.1"/>
<polygon fill="midnightblue" stroke="midnightblue" points="557.99,-616.71 560.17,-627.08 564.93,-617.62 557.99,-616.71"/>
</g>
<!-- Node42&#45;&gt;Node7 -->
<g id="edge80" class="edge">
<title>Node42&#45;&gt;Node7</title>
<path fill="none" stroke="midnightblue" d="M571.87,-571.32C588.71,-562.66 614.81,-549.24 634.24,-539.25"/>
<polygon fill="midnightblue" stroke="midnightblue" points="635.88,-542.34 643.17,-534.65 632.68,-536.12 635.88,-542.34"/>
</g>
<!-- Node43&#45;&gt;Node13 -->
<g id="edge86" class="edge">
<title>Node43&#45;&gt;Node13</title>
<path fill="none" stroke="midnightblue" d="M182.42,-280.48C199.54,-272.86 223.34,-260.38 240,-244 267.99,-216.48 259.83,-198.12 285,-168 294.33,-156.83 306.56,-146.1 316.82,-137.92"/>
<polygon fill="midnightblue" stroke="midnightblue" points="319.1,-140.58 324.86,-131.69 314.81,-135.05 319.1,-140.58"/>
</g>
<!-- Node43&#45;&gt;Node22 -->
<g id="edge87" class="edge">
<title>Node43&#45;&gt;Node22</title>
<path fill="none" stroke="midnightblue" d="M207.9,-280.44C268.45,-269.4 372.23,-250.46 424.67,-240.9"/>
<polygon fill="midnightblue" stroke="midnightblue" points="425.53,-244.3 434.74,-239.06 424.27,-237.41 425.53,-244.3"/>
</g>
<!-- Node44 -->
<g id="node44" class="node">
<title>Node44</title>
<g id="a_node44"><a xlink:title=" ">
<polygon fill="white" stroke="#bfbfbf" points="148.5,-224.5 148.5,-243.5 231.5,-243.5 231.5,-224.5 148.5,-224.5"/>
<text text-anchor="middle" x="190" y="-231.5" font-family="Helvetica,sans-Serif" font-size="10.00">unordered_map</text>
</a>
</g>
</g>
<!-- Node43&#45;&gt;Node44 -->
<g id="edge88" class="edge">
<title>Node43&#45;&gt;Node44</title>
<path fill="none" stroke="midnightblue" d="M165.79,-280.08C169.76,-272.69 175.53,-261.95 180.43,-252.81"/>
<polygon fill="midnightblue" stroke="midnightblue" points="183.65,-254.22 185.3,-243.75 177.49,-250.91 183.65,-254.22"/>
</g>
</g>
</svg>
