<?xml version="1.0" encoding="UTF-8" standalone="no"?>
<!DOCTYPE svg PUBLIC "-//W3C//DTD SVG 1.1//EN"
 "http://www.w3.org/Graphics/SVG/1.1/DTD/svg11.dtd">
<!-- Generated by graphviz version 2.47.1 (20210421.1823)
 -->
<!-- Title: include/GameLogic/Units/UnitOrder.h Pages: 1 -->
<svg width="1481pt" height="778pt"
 viewBox="0.00 0.00 1480.50 778.00" xmlns="http://www.w3.org/2000/svg" xmlns:xlink="http://www.w3.org/1999/xlink">
<g id="graph0" class="graph" transform="scale(1 1) rotate(0) translate(4 774)">
<title>include/GameLogic/Units/UnitOrder.h</title>
<polygon fill="white" stroke="transparent" points="-4,4 -4,-774 1476.5,-774 1476.5,4 -4,4"/>
<!-- Node1 -->
<g id="node1" class="node">
<title>Node1</title>
<g id="a_node1"><a xlink:title=" ">
<polygon fill="#bfbfbf" stroke="black" points="142,-739.5 142,-769.5 269,-769.5 269,-739.5 142,-739.5"/>
<text text-anchor="start" x="150" y="-757.5" font-family="Helvetica,sans-Serif" font-size="10.00">include/GameLogic/Units</text>
<text text-anchor="middle" x="205.5" y="-746.5" font-family="Helvetica,sans-Serif" font-size="10.00">/UnitOrder.h</text>
</a>
</g>
</g>
<!-- Node2 -->
<g id="node2" class="node">
<title>Node2</title>
<g id="a_node2"><a xlink:title=" ">
<polygon fill="white" stroke="#bfbfbf" points="241,-280.5 241,-299.5 282,-299.5 282,-280.5 241,-280.5"/>
<text text-anchor="middle" x="261.5" y="-287.5" font-family="Helvetica,sans-Serif" font-size="10.00">string</text>
</a>
</g>
</g>
<!-- Node1&#45;&gt;Node2 -->
<g id="edge1" class="edge">
<title>Node1&#45;&gt;Node2</title>
<path fill="none" stroke="midnightblue" d="M157.82,-739.48C113.25,-723.09 53.5,-691.19 53.5,-638 53.5,-638 53.5,-638 53.5,-462.5 53.5,-371.55 173.36,-319.85 231.11,-300.23"/>
<polygon fill="midnightblue" stroke="midnightblue" points="232.39,-303.49 240.8,-297.04 230.2,-296.84 232.39,-303.49"/>
</g>
<!-- Node3 -->
<g id="node3" class="node">
<title>Node3</title>
<g id="a_node3"><a xlink:href="_unit_8h.html" target="_top" xlink:title=" ">
<polygon fill="white" stroke="black" points="144.5,-683.5 144.5,-702.5 266.5,-702.5 266.5,-683.5 144.5,-683.5"/>
<text text-anchor="middle" x="205.5" y="-690.5" font-family="Helvetica,sans-Serif" font-size="10.00">GameLogic/Units/Unit.h</text>
</a>
</g>
</g>
<!-- Node1&#45;&gt;Node3 -->
<g id="edge2" class="edge">
<title>Node1&#45;&gt;Node3</title>
<path fill="none" stroke="midnightblue" d="M199.66,-739.4C198.63,-731.38 198.47,-721.23 199.19,-712.57"/>
<polygon fill="midnightblue" stroke="midnightblue" points="202.66,-713.04 200.57,-702.66 195.73,-712.08 202.66,-713.04"/>
</g>
<!-- Node3&#45;&gt;Node1 -->
<g id="edge4" class="edge">
<title>Node3&#45;&gt;Node1</title>
<path fill="none" stroke="midnightblue" d="M210.43,-702.66C211.93,-709.65 212.51,-719.86 212.14,-729.29"/>
<polygon fill="midnightblue" stroke="midnightblue" points="208.64,-729.15 211.34,-739.4 215.62,-729.71 208.64,-729.15"/>
</g>
<!-- Node4 -->
<g id="node4" class="node">
<title>Node4</title>
<g id="a_node4"><a xlink:title=" ">
<polygon fill="white" stroke="#bfbfbf" points="134,-627.5 134,-646.5 177,-646.5 177,-627.5 134,-627.5"/>
<text text-anchor="middle" x="155.5" y="-634.5" font-family="Helvetica,sans-Serif" font-size="10.00">cstdio</text>
</a>
</g>
</g>
<!-- Node3&#45;&gt;Node4 -->
<g id="edge3" class="edge">
<title>Node3&#45;&gt;Node4</title>
<path fill="none" stroke="midnightblue" d="M197.24,-683.08C190.04,-675.3 179.39,-663.8 170.65,-654.37"/>
<polygon fill="midnightblue" stroke="midnightblue" points="172.97,-651.71 163.6,-646.75 167.83,-656.47 172.97,-651.71"/>
</g>
<!-- Node5 -->
<g id="node5" class="node">
<title>Node5</title>
<g id="a_node5"><a xlink:href="_squad_8h.html" target="_top" xlink:title=" ">
<polygon fill="white" stroke="black" points="882.5,-627.5 882.5,-646.5 1018.5,-646.5 1018.5,-627.5 882.5,-627.5"/>
<text text-anchor="middle" x="950.5" y="-634.5" font-family="Helvetica,sans-Serif" font-size="10.00">GameLogic/Squad/Squad.h</text>
</a>
</g>
</g>
<!-- Node3&#45;&gt;Node5 -->
<g id="edge5" class="edge">
<title>Node3&#45;&gt;Node5</title>
<path fill="none" stroke="midnightblue" d="M266.61,-687.28C401.33,-677.26 723.4,-653.91 872.45,-643.35"/>
<polygon fill="midnightblue" stroke="midnightblue" points="872.72,-646.84 882.45,-642.64 872.22,-639.86 872.72,-646.84"/>
</g>
<!-- Node22 -->
<g id="node22" class="node">
<title>Node22</title>
<g id="a_node22"><a xlink:href="_all_flags_8h.html" target="_top" xlink:title=" ">
<polygon fill="white" stroke="black" points="359,-454 359,-473 418,-473 418,-454 359,-454"/>
<text text-anchor="middle" x="388.5" y="-461" font-family="Helvetica,sans-Serif" font-size="10.00">AllFlags.h</text>
</a>
</g>
</g>
<!-- Node3&#45;&gt;Node22 -->
<g id="edge76" class="edge">
<title>Node3&#45;&gt;Node22</title>
<path fill="none" stroke="midnightblue" d="M212.45,-683.36C239.63,-649.58 338.97,-526.07 375.18,-481.06"/>
<polygon fill="midnightblue" stroke="midnightblue" points="378,-483.13 381.54,-473.15 372.55,-478.75 378,-483.13"/>
</g>
<!-- Node40 -->
<g id="node40" class="node">
<title>Node40</title>
<g id="a_node40"><a xlink:href="_textures_8h.html" target="_top" xlink:title=" ">
<polygon fill="white" stroke="black" points="0,-280.5 0,-299.5 101,-299.5 101,-280.5 0,-280.5"/>
<text text-anchor="middle" x="50.5" y="-287.5" font-family="Helvetica,sans-Serif" font-size="10.00">graphics/Textures.h</text>
</a>
</g>
</g>
<!-- Node3&#45;&gt;Node40 -->
<g id="edge77" class="edge">
<title>Node3&#45;&gt;Node40</title>
<path fill="none" stroke="midnightblue" d="M182.15,-683.43C164.52,-676 140.68,-663.8 124.5,-647 102.02,-623.67 91.5,-614.4 91.5,-582 91.5,-582 91.5,-582 91.5,-401 91.5,-366.52 73.59,-329.56 61.44,-308.47"/>
<polygon fill="midnightblue" stroke="midnightblue" points="64.34,-306.49 56.2,-299.71 58.34,-310.09 64.34,-306.49"/>
</g>
<!-- Node5&#45;&gt;Node3 -->
<g id="edge69" class="edge">
<title>Node5&#45;&gt;Node3</title>
<path fill="none" stroke="midnightblue" d="M882.49,-643.23C741.72,-653.69 419.86,-677.01 276.54,-687.15"/>
<polygon fill="midnightblue" stroke="midnightblue" points="276.26,-683.66 266.53,-687.85 276.75,-690.64 276.26,-683.66"/>
</g>
<!-- Node6 -->
<g id="node6" class="node">
<title>Node6</title>
<g id="a_node6"><a xlink:href="_cell_8h.html" target="_top" xlink:title=" ">
<polygon fill="white" stroke="black" points="851.5,-515.5 851.5,-534.5 945.5,-534.5 945.5,-515.5 851.5,-515.5"/>
<text text-anchor="middle" x="898.5" y="-522.5" font-family="Helvetica,sans-Serif" font-size="10.00">GameLogic/Cell.h</text>
</a>
</g>
</g>
<!-- Node5&#45;&gt;Node6 -->
<g id="edge6" class="edge">
<title>Node5&#45;&gt;Node6</title>
<path fill="none" stroke="midnightblue" d="M938.96,-627.48C931.68,-618.51 923.72,-603.93 917.5,-591 910.08,-575.58 902.45,-557.71 898.48,-544.61"/>
<polygon fill="midnightblue" stroke="midnightblue" points="901.79,-543.41 896.03,-534.51 894.99,-545.06 901.79,-543.41"/>
</g>
<!-- Node7 -->
<g id="node7" class="node">
<title>Node7</title>
<g id="a_node7"><a xlink:href="gameplay_clickable_game_object_8h.html" target="_top" xlink:title=" ">
<polygon fill="white" stroke="black" points="1144,-448.5 1144,-478.5 1273,-478.5 1273,-448.5 1144,-448.5"/>
<text text-anchor="start" x="1152" y="-466.5" font-family="Helvetica,sans-Serif" font-size="10.00">engine/gameplayClickable</text>
<text text-anchor="middle" x="1208.5" y="-455.5" font-family="Helvetica,sans-Serif" font-size="10.00">GameObject.h</text>
</a>
</g>
</g>
<!-- Node5&#45;&gt;Node7 -->
<g id="edge70" class="edge">
<title>Node5&#45;&gt;Node7</title>
<path fill="none" stroke="midnightblue" d="M989.19,-627.46C1016.15,-620.38 1052.21,-608.6 1080.5,-591 1126.42,-562.44 1168.76,-514.67 1191.37,-486.72"/>
<polygon fill="midnightblue" stroke="midnightblue" points="1194.24,-488.73 1197.74,-478.73 1188.77,-484.37 1194.24,-488.73"/>
</g>
<!-- Node10 -->
<g id="node10" class="node">
<title>Node10</title>
<g id="a_node10"><a xlink:href="config_8h.html" target="_top" xlink:title=" ">
<polygon fill="white" stroke="black" points="127,-112.5 127,-131.5 208,-131.5 208,-112.5 127,-112.5"/>
<text text-anchor="middle" x="167.5" y="-119.5" font-family="Helvetica,sans-Serif" font-size="10.00">engine/config.h</text>
</a>
</g>
</g>
<!-- Node5&#45;&gt;Node10 -->
<g id="edge74" class="edge">
<title>Node5&#45;&gt;Node10</title>
<path fill="none" stroke="midnightblue" d="M882.27,-631.34C685.25,-616.04 129.5,-559.03 129.5,-403 129.5,-403 129.5,-403 129.5,-233 129.5,-198.81 146.1,-161.76 157.36,-140.57"/>
<polygon fill="midnightblue" stroke="midnightblue" points="160.45,-142.22 162.22,-131.77 154.32,-138.83 160.45,-142.22"/>
</g>
<!-- Node13 -->
<g id="node13" class="node">
<title>Node13</title>
<g id="a_node13"><a xlink:href="_facade_8h.html" target="_top" xlink:title=" ">
<polygon fill="white" stroke="black" points="1247.5,-0.5 1247.5,-19.5 1303.5,-19.5 1303.5,-0.5 1247.5,-0.5"/>
<text text-anchor="middle" x="1275.5" y="-7.5" font-family="Helvetica,sans-Serif" font-size="10.00">Facade.h</text>
</a>
</g>
</g>
<!-- Node5&#45;&gt;Node13 -->
<g id="edge75" class="edge">
<title>Node5&#45;&gt;Node13</title>
<path fill="none" stroke="midnightblue" d="M1018.74,-635.74C1160.24,-633.35 1472.5,-617.69 1472.5,-526 1472.5,-526 1472.5,-526 1472.5,-121 1472.5,-49.09 1371.2,-23.75 1313.88,-15.16"/>
<polygon fill="midnightblue" stroke="midnightblue" points="1314.11,-11.66 1303.73,-13.75 1313.15,-18.6 1314.11,-11.66"/>
</g>
<!-- Node39 -->
<g id="node39" class="node">
<title>Node39</title>
<g id="a_node39"><a xlink:href="_game_logic_2_squad_2_action_8h.html" target="_top" xlink:title=" ">
<polygon fill="white" stroke="black" points="935.5,-571.5 935.5,-590.5 1071.5,-590.5 1071.5,-571.5 935.5,-571.5"/>
<text text-anchor="middle" x="1003.5" y="-578.5" font-family="Helvetica,sans-Serif" font-size="10.00">GameLogic/Squad/Action.h</text>
</a>
</g>
</g>
<!-- Node5&#45;&gt;Node39 -->
<g id="edge71" class="edge">
<title>Node5&#45;&gt;Node39</title>
<path fill="none" stroke="midnightblue" d="M954.09,-627.08C960.27,-619.06 971.67,-607.1 982.1,-597.51"/>
<polygon fill="midnightblue" stroke="midnightblue" points="984.59,-599.99 989.78,-590.75 979.96,-594.73 984.59,-599.99"/>
</g>
<!-- Node6&#45;&gt;Node5 -->
<g id="edge29" class="edge">
<title>Node6&#45;&gt;Node5</title>
<path fill="none" stroke="midnightblue" d="M907.77,-534.51C915.96,-547.03 925.91,-571.07 935.5,-591 939.82,-599.99 944.99,-609.78 948.65,-617.93"/>
<polygon fill="midnightblue" stroke="midnightblue" points="945.49,-619.45 952.4,-627.48 952.01,-616.89 945.49,-619.45"/>
</g>
<!-- Node6&#45;&gt;Node7 -->
<g id="edge7" class="edge">
<title>Node6&#45;&gt;Node7</title>
<path fill="none" stroke="midnightblue" d="M942.92,-515.48C992.69,-505.92 1074.21,-490.28 1133.82,-478.83"/>
<polygon fill="midnightblue" stroke="midnightblue" points="1134.78,-482.21 1143.94,-476.89 1133.46,-475.34 1134.78,-482.21"/>
</g>
<!-- Node6&#45;&gt;Node10 -->
<g id="edge27" class="edge">
<title>Node6&#45;&gt;Node10</title>
<path fill="none" stroke="midnightblue" d="M851.38,-523.81C725.26,-522.78 382.38,-516.52 276.5,-479 220.83,-459.27 167.5,-462.06 167.5,-403 167.5,-403 167.5,-403 167.5,-233 167.5,-200.95 167.5,-163.64 167.5,-141.75"/>
<polygon fill="midnightblue" stroke="midnightblue" points="171,-141.56 167.5,-131.56 164,-141.56 171,-141.56"/>
</g>
<!-- Node6&#45;&gt;Node13 -->
<g id="edge28" class="edge">
<title>Node6&#45;&gt;Node13</title>
<path fill="none" stroke="midnightblue" d="M935.18,-515.43C960.2,-508.39 993.25,-496.67 1018.5,-479 1162.34,-378.33 1275.5,-354.57 1275.5,-179 1275.5,-179 1275.5,-179 1275.5,-121 1275.5,-88.95 1275.5,-51.64 1275.5,-29.75"/>
<polygon fill="midnightblue" stroke="midnightblue" points="1279,-29.56 1275.5,-19.56 1272,-29.56 1279,-29.56"/>
</g>
<!-- Node16 -->
<g id="node16" class="node">
<title>Node16</title>
<g id="a_node16"><a xlink:title=" ">
<polygon fill="white" stroke="#bfbfbf" points="1157.5,-56.5 1157.5,-75.5 1211.5,-75.5 1211.5,-56.5 1157.5,-56.5"/>
<text text-anchor="middle" x="1184.5" y="-63.5" font-family="Helvetica,sans-Serif" font-size="10.00">iostream</text>
</a>
</g>
</g>
<!-- Node6&#45;&gt;Node16 -->
<g id="edge31" class="edge">
<title>Node6&#45;&gt;Node16</title>
<path fill="none" stroke="midnightblue" d="M921.75,-515.36C940.83,-507.59 967.94,-494.97 988.5,-479 1019.6,-454.84 1023.73,-444.14 1046.5,-412 1096.21,-341.83 1110.92,-323.99 1142.5,-244 1164.39,-188.56 1176.83,-118.65 1181.86,-85.75"/>
<polygon fill="midnightblue" stroke="midnightblue" points="1185.34,-86.14 1183.33,-75.74 1178.41,-85.12 1185.34,-86.14"/>
</g>
<!-- Node18 -->
<g id="node18" class="node">
<title>Node18</title>
<g id="a_node18"><a xlink:href="cellgen_8h.html" target="_top" xlink:title=" ">
<polygon fill="white" stroke="black" points="760,-392.5 760,-411.5 831,-411.5 831,-392.5 760,-392.5"/>
<text text-anchor="middle" x="795.5" y="-399.5" font-family="Helvetica,sans-Serif" font-size="10.00">util/cellgen.h</text>
</a>
</g>
</g>
<!-- Node6&#45;&gt;Node18 -->
<g id="edge18" class="edge">
<title>Node6&#45;&gt;Node18</title>
<path fill="none" stroke="midnightblue" d="M892.58,-515.23C882.65,-500.73 861.73,-471.06 841.5,-448 832.48,-437.71 821.56,-426.96 812.62,-418.55"/>
<polygon fill="midnightblue" stroke="midnightblue" points="814.8,-415.8 805.08,-411.57 810.04,-420.93 814.8,-415.8"/>
</g>
<!-- Node20 -->
<g id="node20" class="node">
<title>Node20</title>
<g id="a_node20"><a xlink:title=" ">
<polygon fill="white" stroke="#bfbfbf" points="878,-336.5 878,-355.5 913,-355.5 913,-336.5 878,-336.5"/>
<text text-anchor="middle" x="895.5" y="-343.5" font-family="Helvetica,sans-Serif" font-size="10.00">map</text>
</a>
</g>
</g>
<!-- Node6&#45;&gt;Node20 -->
<g id="edge30" class="edge">
<title>Node6&#45;&gt;Node20</title>
<path fill="none" stroke="midnightblue" d="M898.36,-515.46C897.9,-488.43 896.47,-404.24 895.82,-366.11"/>
<polygon fill="midnightblue" stroke="midnightblue" points="899.32,-365.81 895.65,-355.87 892.32,-365.93 899.32,-365.81"/>
</g>
<!-- Node6&#45;&gt;Node22 -->
<g id="edge22" class="edge">
<title>Node6&#45;&gt;Node22</title>
<path fill="none" stroke="midnightblue" d="M851.19,-522.16C767.51,-518.28 588.18,-507.19 439.5,-479 434.72,-478.09 429.74,-476.94 424.85,-475.69"/>
<polygon fill="midnightblue" stroke="midnightblue" points="425.59,-472.26 415.02,-473.01 423.75,-479.02 425.59,-472.26"/>
</g>
<!-- Node24 -->
<g id="node24" class="node">
<title>Node24</title>
<g id="a_node24"><a xlink:href="geometry_8h.html" target="_top" xlink:title=" ">
<polygon fill="white" stroke="black" points="752.5,-454 752.5,-473 832.5,-473 832.5,-454 752.5,-454"/>
<text text-anchor="middle" x="792.5" y="-461" font-family="Helvetica,sans-Serif" font-size="10.00">util/geometry.h</text>
</a>
</g>
</g>
<!-- Node6&#45;&gt;Node24 -->
<g id="edge32" class="edge">
<title>Node6&#45;&gt;Node24</title>
<path fill="none" stroke="midnightblue" d="M883.31,-515.48C865.84,-505.67 836.92,-489.43 816.42,-477.92"/>
<polygon fill="midnightblue" stroke="midnightblue" points="818.09,-474.85 807.66,-473.01 814.67,-480.96 818.09,-474.85"/>
</g>
<!-- Node25 -->
<g id="node25" class="node">
<title>Node25</title>
<g id="a_node25"><a xlink:href="_none_8h.html" target="_top" xlink:title=" ">
<polygon fill="white" stroke="black" points="1020,-224.5 1020,-243.5 1133,-243.5 1133,-224.5 1020,-224.5"/>
<text text-anchor="middle" x="1076.5" y="-231.5" font-family="Helvetica,sans-Serif" font-size="10.00">engine/actions/None.h</text>
</a>
</g>
</g>
<!-- Node6&#45;&gt;Node25 -->
<g id="edge35" class="edge">
<title>Node6&#45;&gt;Node25</title>
<path fill="none" stroke="midnightblue" d="M911.54,-515.29C943.53,-493.1 1025.89,-430.86 1061.5,-356 1077.36,-322.67 1078.57,-278.6 1077.73,-253.89"/>
<polygon fill="midnightblue" stroke="midnightblue" points="1081.22,-253.54 1077.23,-243.73 1074.23,-253.89 1081.22,-253.54"/>
</g>
<!-- Node26 -->
<g id="node26" class="node">
<title>Node26</title>
<g id="a_node26"><a xlink:href="game_controller_8h.html" target="_top" xlink:title=" ">
<polygon fill="white" stroke="black" points="931,-336.5 931,-355.5 1052,-355.5 1052,-336.5 931,-336.5"/>
<text text-anchor="middle" x="991.5" y="-343.5" font-family="Helvetica,sans-Serif" font-size="10.00">engine/gameController.h</text>
</a>
</g>
</g>
<!-- Node6&#45;&gt;Node26 -->
<g id="edge37" class="edge">
<title>Node6&#45;&gt;Node26</title>
<path fill="none" stroke="midnightblue" d="M902.99,-515.46C917.31,-488.19 962.19,-402.78 981.97,-365.13"/>
<polygon fill="midnightblue" stroke="midnightblue" points="985.29,-366.35 986.84,-355.87 979.09,-363.09 985.29,-366.35"/>
</g>
<!-- Node30 -->
<g id="node30" class="node">
<title>Node30</title>
<g id="a_node30"><a xlink:href="_set_squad_path_8h.html" target="_top" xlink:title=" ">
<polygon fill="white" stroke="black" points="1291,-454 1291,-473 1444,-473 1444,-454 1291,-454"/>
<text text-anchor="middle" x="1367.5" y="-461" font-family="Helvetica,sans-Serif" font-size="10.00">engine/actions/SetSquadPath.h</text>
</a>
</g>
</g>
<!-- Node6&#45;&gt;Node30 -->
<g id="edge46" class="edge">
<title>Node6&#45;&gt;Node30</title>
<path fill="none" stroke="midnightblue" d="M945.71,-518.65C1016.96,-510.99 1155.74,-495.93 1273.5,-479 1282.42,-477.72 1291.85,-476.24 1301.17,-474.72"/>
<polygon fill="midnightblue" stroke="midnightblue" points="1301.91,-478.14 1311.21,-473.07 1300.78,-471.24 1301.91,-478.14"/>
</g>
<!-- Node31 -->
<g id="node31" class="node">
<title>Node31</title>
<g id="a_node31"><a xlink:href="_all_units_8h.html" target="_top" xlink:title=" ">
<polygon fill="white" stroke="black" points="272,-392.5 272,-411.5 331,-411.5 331,-392.5 272,-392.5"/>
<text text-anchor="middle" x="301.5" y="-399.5" font-family="Helvetica,sans-Serif" font-size="10.00">AllUnits.h</text>
</a>
</g>
</g>
<!-- Node6&#45;&gt;Node31 -->
<g id="edge50" class="edge">
<title>Node6&#45;&gt;Node31</title>
<path fill="none" stroke="midnightblue" d="M851.42,-522.53C726.26,-518.3 391.93,-504.7 349.5,-479 328.08,-466.02 314.65,-439.44 307.61,-421.42"/>
<polygon fill="midnightblue" stroke="midnightblue" points="310.88,-420.18 304.19,-411.96 304.3,-422.56 310.88,-420.18"/>
</g>
<!-- Node33 -->
<g id="node33" class="node">
<title>Node33</title>
<g id="a_node33"><a xlink:href="_all_squad_templates_8h.html" target="_top" xlink:title=" ">
<polygon fill="white" stroke="black" points="449,-454 449,-473 558,-473 558,-454 449,-454"/>
<text text-anchor="middle" x="503.5" y="-461" font-family="Helvetica,sans-Serif" font-size="10.00">AllSquadTemplates.h</text>
</a>
</g>
</g>
<!-- Node6&#45;&gt;Node33 -->
<g id="edge55" class="edge">
<title>Node6&#45;&gt;Node33</title>
<path fill="none" stroke="midnightblue" d="M851.25,-516.88C780.65,-506.25 647.46,-486.18 567.98,-474.21"/>
<polygon fill="midnightblue" stroke="midnightblue" points="568.49,-470.75 558.08,-472.72 567.45,-477.67 568.49,-470.75"/>
</g>
<!-- Node8 -->
<g id="node8" class="node">
<title>Node8</title>
<g id="a_node8"><a xlink:href="game_object_8h.html" target="_top" xlink:title=" ">
<polygon fill="white" stroke="black" points="825,-168.5 825,-187.5 902,-187.5 902,-168.5 825,-168.5"/>
<text text-anchor="middle" x="863.5" y="-175.5" font-family="Helvetica,sans-Serif" font-size="10.00">gameObject.h</text>
</a>
</g>
</g>
<!-- Node7&#45;&gt;Node8 -->
<g id="edge8" class="edge">
<title>Node7&#45;&gt;Node8</title>
<path fill="none" stroke="midnightblue" d="M1209.37,-448.29C1211.07,-406.7 1209.87,-284.33 1142.5,-224 1109.32,-194.28 982.86,-184.08 912.12,-180.66"/>
<polygon fill="midnightblue" stroke="midnightblue" points="912.26,-177.17 902.11,-180.21 911.94,-184.16 912.26,-177.17"/>
</g>
<!-- Node9 -->
<g id="node9" class="node">
<title>Node9</title>
<g id="a_node9"><a xlink:title=" ">
<polygon fill="white" stroke="#bfbfbf" points="774,-112.5 774,-131.5 803,-131.5 803,-112.5 774,-112.5"/>
<text text-anchor="middle" x="788.5" y="-119.5" font-family="Helvetica,sans-Serif" font-size="10.00">list</text>
</a>
</g>
</g>
<!-- Node8&#45;&gt;Node9 -->
<g id="edge9" class="edge">
<title>Node8&#45;&gt;Node9</title>
<path fill="none" stroke="midnightblue" d="M851.45,-168.32C840.04,-160.11 822.67,-147.6 809.07,-137.81"/>
<polygon fill="midnightblue" stroke="midnightblue" points="810.93,-134.84 800.77,-131.83 806.84,-140.52 810.93,-134.84"/>
</g>
<!-- Node8&#45;&gt;Node10 -->
<g id="edge10" class="edge">
<title>Node8&#45;&gt;Node10</title>
<path fill="none" stroke="midnightblue" d="M824.59,-173.98C706.41,-164.81 351.63,-137.29 218.61,-126.97"/>
<polygon fill="midnightblue" stroke="midnightblue" points="218.54,-123.45 208.3,-126.17 218,-130.43 218.54,-123.45"/>
</g>
<!-- Node15 -->
<g id="node15" class="node">
<title>Node15</title>
<g id="a_node15"><a xlink:href="engine_2_action_8h.html" target="_top" xlink:title=" ">
<polygon fill="white" stroke="black" points="1035,-112.5 1035,-131.5 1118,-131.5 1118,-112.5 1035,-112.5"/>
<text text-anchor="middle" x="1076.5" y="-119.5" font-family="Helvetica,sans-Serif" font-size="10.00">engine/Action.h</text>
</a>
</g>
</g>
<!-- Node8&#45;&gt;Node15 -->
<g id="edge15" class="edge">
<title>Node8&#45;&gt;Node15</title>
<path fill="none" stroke="midnightblue" d="M897.25,-168.44C934.02,-159.12 992.95,-144.18 1033.12,-134"/>
<polygon fill="midnightblue" stroke="midnightblue" points="1034.07,-137.37 1042.91,-131.52 1032.35,-130.58 1034.07,-137.37"/>
</g>
<!-- Node11 -->
<g id="node11" class="node">
<title>Node11</title>
<g id="a_node11"><a xlink:href="_s_f_m_l_facade_8h.html" target="_top" xlink:title=" ">
<polygon fill="white" stroke="black" points="106,-56.5 106,-75.5 229,-75.5 229,-56.5 106,-56.5"/>
<text text-anchor="middle" x="167.5" y="-63.5" font-family="Helvetica,sans-Serif" font-size="10.00">graphics/SFMLFacade.h</text>
</a>
</g>
</g>
<!-- Node10&#45;&gt;Node11 -->
<g id="edge11" class="edge">
<title>Node10&#45;&gt;Node11</title>
<path fill="none" stroke="midnightblue" d="M167.5,-112.08C167.5,-105.01 167.5,-94.86 167.5,-85.99"/>
<polygon fill="midnightblue" stroke="midnightblue" points="171,-85.75 167.5,-75.75 164,-85.75 171,-85.75"/>
</g>
<!-- Node14 -->
<g id="node14" class="node">
<title>Node14</title>
<g id="a_node14"><a xlink:title=" ">
<polygon fill="white" stroke="#bfbfbf" points="247.5,-56.5 247.5,-75.5 345.5,-75.5 345.5,-56.5 247.5,-56.5"/>
<text text-anchor="middle" x="296.5" y="-63.5" font-family="Helvetica,sans-Serif" font-size="10.00">nlohmann/json.hpp</text>
</a>
</g>
</g>
<!-- Node10&#45;&gt;Node14 -->
<g id="edge14" class="edge">
<title>Node10&#45;&gt;Node14</title>
<path fill="none" stroke="midnightblue" d="M187.94,-112.44C209.17,-103.56 242.6,-89.56 266.75,-79.45"/>
<polygon fill="midnightblue" stroke="midnightblue" points="268.28,-82.61 276.16,-75.52 265.58,-76.15 268.28,-82.61"/>
</g>
<!-- Node12 -->
<g id="node12" class="node">
<title>Node12</title>
<g id="a_node12"><a xlink:title=" ">
<polygon fill="white" stroke="#bfbfbf" points="115.5,-0.5 115.5,-19.5 219.5,-19.5 219.5,-0.5 115.5,-0.5"/>
<text text-anchor="middle" x="167.5" y="-7.5" font-family="Helvetica,sans-Serif" font-size="10.00">SFML/Graphics.hpp</text>
</a>
</g>
</g>
<!-- Node11&#45;&gt;Node12 -->
<g id="edge12" class="edge">
<title>Node11&#45;&gt;Node12</title>
<path fill="none" stroke="midnightblue" d="M167.5,-56.08C167.5,-49.01 167.5,-38.86 167.5,-29.99"/>
<polygon fill="midnightblue" stroke="midnightblue" points="171,-29.75 167.5,-19.75 164,-29.75 171,-29.75"/>
</g>
<!-- Node11&#45;&gt;Node13 -->
<g id="edge13" class="edge">
<title>Node11&#45;&gt;Node13</title>
<path fill="none" stroke="midnightblue" d="M229.04,-56.88C232.24,-56.56 235.4,-56.26 238.5,-56 627.48,-22.96 1100.72,-13.62 1237.07,-11.52"/>
<polygon fill="midnightblue" stroke="midnightblue" points="1237.45,-15.02 1247.4,-11.37 1237.35,-8.02 1237.45,-15.02"/>
</g>
<!-- Node15&#45;&gt;Node16 -->
<g id="edge16" class="edge">
<title>Node15&#45;&gt;Node16</title>
<path fill="none" stroke="midnightblue" d="M1093.85,-112.32C1111.17,-103.66 1138.02,-90.24 1158,-80.25"/>
<polygon fill="midnightblue" stroke="midnightblue" points="1159.81,-83.26 1167.19,-75.65 1156.68,-77 1159.81,-83.26"/>
</g>
<!-- Node17 -->
<g id="node17" class="node">
<title>Node17</title>
<g id="a_node17"><a xlink:title=" ">
<polygon fill="white" stroke="#bfbfbf" points="709,-56.5 709,-75.5 760,-75.5 760,-56.5 709,-56.5"/>
<text text-anchor="middle" x="734.5" y="-63.5" font-family="Helvetica,sans-Serif" font-size="10.00">memory</text>
</a>
</g>
</g>
<!-- Node15&#45;&gt;Node17 -->
<g id="edge17" class="edge">
<title>Node15&#45;&gt;Node17</title>
<path fill="none" stroke="midnightblue" d="M1034.91,-114.43C967.12,-103.73 833.99,-82.71 770.21,-72.64"/>
<polygon fill="midnightblue" stroke="midnightblue" points="770.65,-69.17 760.23,-71.06 769.56,-76.08 770.65,-69.17"/>
</g>
<!-- Node19 -->
<g id="node19" class="node">
<title>Node19</title>
<g id="a_node19"><a xlink:title=" ">
<polygon fill="white" stroke="#bfbfbf" points="484.5,-224.5 484.5,-243.5 528.5,-243.5 528.5,-224.5 484.5,-224.5"/>
<text text-anchor="middle" x="506.5" y="-231.5" font-family="Helvetica,sans-Serif" font-size="10.00">vector</text>
</a>
</g>
</g>
<!-- Node18&#45;&gt;Node19 -->
<g id="edge19" class="edge">
<title>Node18&#45;&gt;Node19</title>
<path fill="none" stroke="midnightblue" d="M769.29,-392.41C752.65,-385.44 732.44,-373.81 722.5,-356 705.92,-326.3 753.06,-306.3 731.5,-280 719.32,-265.14 597.72,-247.12 538.54,-239.14"/>
<polygon fill="midnightblue" stroke="midnightblue" points="538.96,-235.67 528.59,-237.82 538.04,-242.61 538.96,-235.67"/>
</g>
<!-- Node18&#45;&gt;Node20 -->
<g id="edge20" class="edge">
<title>Node18&#45;&gt;Node20</title>
<path fill="none" stroke="midnightblue" d="M811.57,-392.32C827.46,-383.74 852.01,-370.49 870.46,-360.52"/>
<polygon fill="midnightblue" stroke="midnightblue" points="872.34,-363.49 879.47,-355.65 869.01,-357.33 872.34,-363.49"/>
</g>
<!-- Node21 -->
<g id="node21" class="node">
<title>Node21</title>
<g id="a_node21"><a xlink:title=" ">
<polygon fill="white" stroke="#bfbfbf" points="731.5,-336.5 731.5,-355.5 859.5,-355.5 859.5,-336.5 731.5,-336.5"/>
<text text-anchor="middle" x="795.5" y="-343.5" font-family="Helvetica,sans-Serif" font-size="10.00">scanline_triangulation.hpp</text>
</a>
</g>
</g>
<!-- Node18&#45;&gt;Node21 -->
<g id="edge21" class="edge">
<title>Node18&#45;&gt;Node21</title>
<path fill="none" stroke="midnightblue" d="M795.5,-392.08C795.5,-385.01 795.5,-374.86 795.5,-365.99"/>
<polygon fill="midnightblue" stroke="midnightblue" points="799,-365.75 795.5,-355.75 792,-365.75 799,-365.75"/>
</g>
<!-- Node22&#45;&gt;Node17 -->
<g id="edge26" class="edge">
<title>Node22&#45;&gt;Node17</title>
<path fill="none" stroke="midnightblue" d="M383.14,-453.77C365.52,-424.22 310.5,-324.77 310.5,-235 310.5,-235 310.5,-235 310.5,-177 310.5,-97.03 596.65,-74.22 698.8,-68.62"/>
<polygon fill="midnightblue" stroke="midnightblue" points="699.13,-72.11 708.93,-68.09 698.76,-65.12 699.13,-72.11"/>
</g>
<!-- Node23 -->
<g id="node23" class="node">
<title>Node23</title>
<g id="a_node23"><a xlink:href="_flag_8h.html" target="_top" xlink:title=" ">
<polygon fill="white" stroke="black" points="346,-336.5 346,-355.5 389,-355.5 389,-336.5 346,-336.5"/>
<text text-anchor="middle" x="367.5" y="-343.5" font-family="Helvetica,sans-Serif" font-size="10.00">Flag.h</text>
</a>
</g>
</g>
<!-- Node22&#45;&gt;Node23 -->
<g id="edge23" class="edge">
<title>Node22&#45;&gt;Node23</title>
<path fill="none" stroke="midnightblue" d="M386.92,-453.82C383.53,-435.17 375.49,-390.94 370.89,-365.63"/>
<polygon fill="midnightblue" stroke="midnightblue" points="374.33,-364.99 369.1,-355.78 367.44,-366.25 374.33,-364.99"/>
</g>
<!-- Node23&#45;&gt;Node2 -->
<g id="edge25" class="edge">
<title>Node23&#45;&gt;Node2</title>
<path fill="none" stroke="midnightblue" d="M350.47,-336.32C333.47,-327.66 307.12,-314.24 287.51,-304.25"/>
<polygon fill="midnightblue" stroke="midnightblue" points="288.99,-301.08 278.49,-299.65 285.81,-307.31 288.99,-301.08"/>
</g>
<!-- Node23&#45;&gt;Node19 -->
<g id="edge24" class="edge">
<title>Node23&#45;&gt;Node19</title>
<path fill="none" stroke="midnightblue" d="M371.32,-336.33C377.69,-322.73 391.66,-296.27 410.5,-280 429.21,-263.84 454.71,-252.25 474.73,-244.88"/>
<polygon fill="midnightblue" stroke="midnightblue" points="476.07,-248.12 484.35,-241.51 473.75,-241.52 476.07,-248.12"/>
</g>
<!-- Node24&#45;&gt;Node18 -->
<g id="edge34" class="edge">
<title>Node24&#45;&gt;Node18</title>
<path fill="none" stroke="midnightblue" d="M792.93,-453.98C793.35,-445.58 794.01,-432.48 794.56,-421.66"/>
<polygon fill="midnightblue" stroke="midnightblue" points="798.06,-421.67 795.07,-411.51 791.07,-421.32 798.06,-421.67"/>
</g>
<!-- Node24&#45;&gt;Node19 -->
<g id="edge33" class="edge">
<title>Node24&#45;&gt;Node19</title>
<path fill="none" stroke="midnightblue" d="M782.47,-453.89C751.39,-427.31 653.74,-344.44 569.5,-280 555.76,-269.48 539.9,-258.16 527.54,-249.51"/>
<polygon fill="midnightblue" stroke="midnightblue" points="529.43,-246.57 519.23,-243.73 525.44,-252.31 529.43,-246.57"/>
</g>
<!-- Node25&#45;&gt;Node15 -->
<g id="edge36" class="edge">
<title>Node25&#45;&gt;Node15</title>
<path fill="none" stroke="midnightblue" d="M1076.5,-224.37C1076.5,-206.62 1076.5,-165.67 1076.5,-141.6"/>
<polygon fill="midnightblue" stroke="midnightblue" points="1080,-141.59 1076.5,-131.59 1073,-141.59 1080,-141.59"/>
</g>
<!-- Node26&#45;&gt;Node8 -->
<g id="edge39" class="edge">
<title>Node26&#45;&gt;Node8</title>
<path fill="none" stroke="midnightblue" d="M969.82,-336.45C952.84,-328.89 929.49,-316.5 913.5,-300 885.25,-270.85 872.09,-223.49 866.7,-197.51"/>
<polygon fill="midnightblue" stroke="midnightblue" points="870.11,-196.68 864.8,-187.51 863.23,-197.99 870.11,-196.68"/>
</g>
<!-- Node26&#45;&gt;Node9 -->
<g id="edge38" class="edge">
<title>Node26&#45;&gt;Node9</title>
<path fill="none" stroke="midnightblue" d="M945.17,-336.45C894,-326.57 817.6,-310.35 808.5,-300 769.07,-255.15 777.75,-177.25 784.39,-141.68"/>
<polygon fill="midnightblue" stroke="midnightblue" points="787.85,-142.21 786.41,-131.72 780.99,-140.82 787.85,-142.21"/>
</g>
<!-- Node27 -->
<g id="node27" class="node">
<title>Node27</title>
<g id="a_node27"><a xlink:href="_network_manager_8h.html" target="_top" xlink:title=" ">
<polygon fill="white" stroke="black" points="922.5,-280.5 922.5,-299.5 1052.5,-299.5 1052.5,-280.5 922.5,-280.5"/>
<text text-anchor="middle" x="987.5" y="-287.5" font-family="Helvetica,sans-Serif" font-size="10.00">engine/NetworkManager.h</text>
</a>
</g>
</g>
<!-- Node26&#45;&gt;Node27 -->
<g id="edge40" class="edge">
<title>Node26&#45;&gt;Node27</title>
<path fill="none" stroke="midnightblue" d="M990.84,-336.08C990.32,-329.01 989.56,-318.86 988.91,-309.99"/>
<polygon fill="midnightblue" stroke="midnightblue" points="992.38,-309.47 988.15,-299.75 985.4,-309.98 992.38,-309.47"/>
</g>
<!-- Node29 -->
<g id="node29" class="node">
<title>Node29</title>
<g id="a_node29"><a xlink:title=" ">
<polygon fill="white" stroke="#bfbfbf" points="817,-280.5 817,-299.5 866,-299.5 866,-280.5 817,-280.5"/>
<text text-anchor="middle" x="841.5" y="-287.5" font-family="Helvetica,sans-Serif" font-size="10.00">random</text>
</a>
</g>
</g>
<!-- Node26&#45;&gt;Node29 -->
<g id="edge45" class="edge">
<title>Node26&#45;&gt;Node29</title>
<path fill="none" stroke="midnightblue" d="M967.73,-336.44C942.61,-327.4 902.79,-313.06 874.6,-302.92"/>
<polygon fill="midnightblue" stroke="midnightblue" points="875.75,-299.61 865.16,-299.52 873.38,-306.2 875.75,-299.61"/>
</g>
<!-- Node27&#45;&gt;Node8 -->
<g id="edge41" class="edge">
<title>Node27&#45;&gt;Node8</title>
<path fill="none" stroke="midnightblue" d="M987.88,-280.33C988,-266.72 986.28,-240.26 972.5,-224 957.12,-205.85 933.24,-194.91 911.75,-188.37"/>
<polygon fill="midnightblue" stroke="midnightblue" points="912.66,-184.98 902.09,-185.66 910.77,-191.73 912.66,-184.98"/>
</g>
<!-- Node27&#45;&gt;Node19 -->
<g id="edge43" class="edge">
<title>Node27&#45;&gt;Node19</title>
<path fill="none" stroke="midnightblue" d="M922.38,-281.69C817.96,-269.97 616.88,-247.39 538.7,-238.61"/>
<polygon fill="midnightblue" stroke="midnightblue" points="538.83,-235.11 528.5,-237.47 538.05,-242.06 538.83,-235.11"/>
</g>
<!-- Node27&#45;&gt;Node25 -->
<g id="edge42" class="edge">
<title>Node27&#45;&gt;Node25</title>
<path fill="none" stroke="midnightblue" d="M1001.8,-280.32C1015.68,-271.9 1036.99,-258.97 1053.3,-249.07"/>
<polygon fill="midnightblue" stroke="midnightblue" points="1055.5,-251.83 1062.24,-243.65 1051.87,-245.85 1055.5,-251.83"/>
</g>
<!-- Node28 -->
<g id="node28" class="node">
<title>Node28</title>
<g id="a_node28"><a xlink:title=" ">
<polygon fill="white" stroke="#bfbfbf" points="892,-224.5 892,-243.5 963,-243.5 963,-224.5 892,-224.5"/>
<text text-anchor="middle" x="927.5" y="-231.5" font-family="Helvetica,sans-Serif" font-size="10.00">sys/socket.h</text>
</a>
</g>
</g>
<!-- Node27&#45;&gt;Node28 -->
<g id="edge44" class="edge">
<title>Node27&#45;&gt;Node28</title>
<path fill="none" stroke="midnightblue" d="M977.86,-280.32C968.99,-272.34 955.63,-260.31 944.89,-250.65"/>
<polygon fill="midnightblue" stroke="midnightblue" points="947.09,-247.92 937.32,-243.83 942.41,-253.13 947.09,-247.92"/>
</g>
<!-- Node30&#45;&gt;Node5 -->
<g id="edge48" class="edge">
<title>Node30&#45;&gt;Node5</title>
<path fill="none" stroke="midnightblue" d="M1352.32,-473C1312.8,-494.87 1203.12,-553.96 1106.5,-591 1070.28,-604.88 1027.93,-616.84 996.5,-624.94"/>
<polygon fill="midnightblue" stroke="midnightblue" points="995.53,-621.57 986.7,-627.43 997.25,-628.36 995.53,-621.57"/>
</g>
<!-- Node30&#45;&gt;Node6 -->
<g id="edge49" class="edge">
<title>Node30&#45;&gt;Node6</title>
<path fill="none" stroke="midnightblue" d="M1328.62,-473.07C1316.74,-475.14 1303.65,-477.25 1291.5,-479 1172.84,-496.06 1032.85,-511.22 955.98,-518.83"/>
<polygon fill="midnightblue" stroke="midnightblue" points="955.18,-515.39 945.57,-519.85 955.86,-522.35 955.18,-515.39"/>
</g>
<!-- Node30&#45;&gt;Node15 -->
<g id="edge47" class="edge">
<title>Node30&#45;&gt;Node15</title>
<path fill="none" stroke="midnightblue" d="M1360.22,-453.78C1334.1,-422.52 1242.48,-313.1 1165.5,-224 1139.43,-193.82 1108.58,-159.01 1090.9,-139.14"/>
<polygon fill="midnightblue" stroke="midnightblue" points="1093.44,-136.74 1084.18,-131.6 1088.21,-141.39 1093.44,-136.74"/>
</g>
<!-- Node32 -->
<g id="node32" class="node">
<title>Node32</title>
<g id="a_node32"><a xlink:href="_factory_8h.html" target="_top" xlink:title=" ">
<polygon fill="white" stroke="black" points="233.5,-336.5 233.5,-355.5 289.5,-355.5 289.5,-336.5 233.5,-336.5"/>
<text text-anchor="middle" x="261.5" y="-343.5" font-family="Helvetica,sans-Serif" font-size="10.00">Factory.h</text>
</a>
</g>
</g>
<!-- Node31&#45;&gt;Node32 -->
<g id="edge51" class="edge">
<title>Node31&#45;&gt;Node32</title>
<path fill="none" stroke="midnightblue" d="M294.89,-392.08C289.24,-384.46 280.96,-373.26 274.05,-363.94"/>
<polygon fill="midnightblue" stroke="midnightblue" points="276.75,-361.7 267.98,-355.75 271.12,-365.87 276.75,-361.7"/>
</g>
<!-- Node32&#45;&gt;Node2 -->
<g id="edge52" class="edge">
<title>Node32&#45;&gt;Node2</title>
<path fill="none" stroke="midnightblue" d="M261.5,-336.08C261.5,-329.01 261.5,-318.86 261.5,-309.99"/>
<polygon fill="midnightblue" stroke="midnightblue" points="265,-309.75 261.5,-299.75 258,-309.75 265,-309.75"/>
</g>
<!-- Node32&#45;&gt;Node3 -->
<g id="edge54" class="edge">
<title>Node32&#45;&gt;Node3</title>
<path fill="none" stroke="midnightblue" d="M253.95,-355.58C238.66,-373.87 205.5,-418.6 205.5,-462.5 205.5,-582 205.5,-582 205.5,-582 205.5,-614.05 205.5,-651.36 205.5,-673.25"/>
<polygon fill="midnightblue" stroke="midnightblue" points="202,-673.44 205.5,-683.44 209,-673.44 202,-673.44"/>
</g>
<!-- Node32&#45;&gt;Node6 -->
<g id="edge53" class="edge">
<title>Node32&#45;&gt;Node6</title>
<path fill="none" stroke="midnightblue" d="M259.86,-355.74C257.85,-368.54 255.51,-392.93 262.5,-412 275.76,-448.17 283.33,-461.2 317.5,-479 363.13,-502.78 703.19,-517.18 840.87,-522.1"/>
<polygon fill="midnightblue" stroke="midnightblue" points="841.1,-525.61 851.21,-522.46 841.34,-518.61 841.1,-525.61"/>
</g>
<!-- Node33&#45;&gt;Node31 -->
<g id="edge68" class="edge">
<title>Node33&#45;&gt;Node31</title>
<path fill="none" stroke="midnightblue" d="M474.56,-453.98C439.23,-443.57 379.37,-425.94 340.14,-414.38"/>
<polygon fill="midnightblue" stroke="midnightblue" points="340.97,-410.98 330.39,-411.51 338.99,-417.69 340.97,-410.98"/>
</g>
<!-- Node34 -->
<g id="node34" class="node">
<title>Node34</title>
<g id="a_node34"><a xlink:href="_squad_template_8h.html" target="_top" xlink:title=" ">
<polygon fill="white" stroke="black" points="457.5,-392.5 457.5,-411.5 549.5,-411.5 549.5,-392.5 457.5,-392.5"/>
<text text-anchor="middle" x="503.5" y="-399.5" font-family="Helvetica,sans-Serif" font-size="10.00">SquadTemplate.h</text>
</a>
</g>
</g>
<!-- Node33&#45;&gt;Node34 -->
<g id="edge56" class="edge">
<title>Node33&#45;&gt;Node34</title>
<path fill="none" stroke="midnightblue" d="M503.5,-453.98C503.5,-445.58 503.5,-432.48 503.5,-421.66"/>
<polygon fill="midnightblue" stroke="midnightblue" points="507,-421.51 503.5,-411.51 500,-421.51 507,-421.51"/>
</g>
<!-- Node34&#45;&gt;Node19 -->
<g id="edge57" class="edge">
<title>Node34&#45;&gt;Node19</title>
<path fill="none" stroke="midnightblue" d="M480.71,-392.47C465.17,-385.32 445.79,-373.44 436.5,-356 432.32,-348.16 435.95,-344.87 436.5,-336 438.06,-310.97 430.66,-301.55 443.5,-280 451.53,-266.53 465.33,-255.99 477.97,-248.51"/>
<polygon fill="midnightblue" stroke="midnightblue" points="479.8,-251.49 486.87,-243.6 476.42,-245.36 479.8,-251.49"/>
</g>
<!-- Node34&#45;&gt;Node32 -->
<g id="edge58" class="edge">
<title>Node34&#45;&gt;Node32</title>
<path fill="none" stroke="midnightblue" d="M465.15,-392.44C419.9,-382.35 345.1,-365.65 299.85,-355.56"/>
<polygon fill="midnightblue" stroke="midnightblue" points="300.36,-352.08 289.84,-353.32 298.83,-358.92 300.36,-352.08"/>
</g>
<!-- Node35 -->
<g id="node35" class="node">
<title>Node35</title>
<g id="a_node35"><a xlink:href="_gui_list_8h.html" target="_top" xlink:title=" ">
<polygon fill="white" stroke="black" points="452.5,-280.5 452.5,-299.5 560.5,-299.5 560.5,-280.5 452.5,-280.5"/>
<text text-anchor="middle" x="506.5" y="-287.5" font-family="Helvetica,sans-Serif" font-size="10.00">engine/GUI/GuiList.h</text>
</a>
</g>
</g>
<!-- Node34&#45;&gt;Node35 -->
<g id="edge59" class="edge">
<title>Node34&#45;&gt;Node35</title>
<path fill="none" stroke="midnightblue" d="M526.29,-392.47C541.83,-385.32 561.21,-373.44 570.5,-356 581.71,-334.97 557.62,-316.2 535.86,-304.3"/>
<polygon fill="midnightblue" stroke="midnightblue" points="537.28,-301.1 526.79,-299.64 534.08,-307.32 537.28,-301.1"/>
</g>
<!-- Node37 -->
<g id="node37" class="node">
<title>Node37</title>
<g id="a_node37"><a xlink:href="_gui_scroll_8h.html" target="_top" xlink:title=" ">
<polygon fill="white" stroke="black" points="445.5,-336.5 445.5,-355.5 561.5,-355.5 561.5,-336.5 445.5,-336.5"/>
<text text-anchor="middle" x="503.5" y="-343.5" font-family="Helvetica,sans-Serif" font-size="10.00">engine/GUI/GuiScroll.h</text>
</a>
</g>
</g>
<!-- Node34&#45;&gt;Node37 -->
<g id="edge63" class="edge">
<title>Node34&#45;&gt;Node37</title>
<path fill="none" stroke="midnightblue" d="M503.5,-392.08C503.5,-385.01 503.5,-374.86 503.5,-365.99"/>
<polygon fill="midnightblue" stroke="midnightblue" points="507,-365.75 503.5,-355.75 500,-365.75 507,-365.75"/>
</g>
<!-- Node38 -->
<g id="node38" class="node">
<title>Node38</title>
<g id="a_node38"><a xlink:href="_button_8h.html" target="_top" xlink:title=" ">
<polygon fill="white" stroke="black" points="617,-280.5 617,-299.5 722,-299.5 722,-280.5 617,-280.5"/>
<text text-anchor="middle" x="669.5" y="-287.5" font-family="Helvetica,sans-Serif" font-size="10.00">engine/GUI/Button.h</text>
</a>
</g>
</g>
<!-- Node34&#45;&gt;Node38 -->
<g id="edge66" class="edge">
<title>Node34&#45;&gt;Node38</title>
<path fill="none" stroke="midnightblue" d="M521.48,-392.35C538.64,-383.84 564.98,-370.12 586.5,-356 610.22,-340.44 635.64,-319.9 652.01,-306.11"/>
<polygon fill="midnightblue" stroke="midnightblue" points="654.34,-308.72 659.69,-299.57 649.8,-303.39 654.34,-308.72"/>
</g>
<!-- Node35&#45;&gt;Node19 -->
<g id="edge62" class="edge">
<title>Node35&#45;&gt;Node19</title>
<path fill="none" stroke="midnightblue" d="M506.5,-280.08C506.5,-273.01 506.5,-262.86 506.5,-253.99"/>
<polygon fill="midnightblue" stroke="midnightblue" points="510,-253.75 506.5,-243.75 503,-253.75 510,-253.75"/>
</g>
<!-- Node36 -->
<g id="node36" class="node">
<title>Node36</title>
<g id="a_node36"><a xlink:href="_gui_object_8h.html" target="_top" xlink:title=" ">
<polygon fill="white" stroke="black" points="609.5,-224.5 609.5,-243.5 729.5,-243.5 729.5,-224.5 609.5,-224.5"/>
<text text-anchor="middle" x="669.5" y="-231.5" font-family="Helvetica,sans-Serif" font-size="10.00">engine/GUI/GuiObject.h</text>
</a>
</g>
</g>
<!-- Node35&#45;&gt;Node36 -->
<g id="edge60" class="edge">
<title>Node35&#45;&gt;Node36</title>
<path fill="none" stroke="midnightblue" d="M532.33,-280.44C559.75,-271.36 603.28,-256.94 633.93,-246.78"/>
<polygon fill="midnightblue" stroke="midnightblue" points="635.4,-249.98 643.79,-243.52 633.2,-243.34 635.4,-249.98"/>
</g>
<!-- Node36&#45;&gt;Node8 -->
<g id="edge61" class="edge">
<title>Node36&#45;&gt;Node8</title>
<path fill="none" stroke="midnightblue" d="M700.24,-224.44C733.44,-215.2 786.49,-200.44 823.06,-190.26"/>
<polygon fill="midnightblue" stroke="midnightblue" points="824.21,-193.57 832.9,-187.52 822.33,-186.83 824.21,-193.57"/>
</g>
<!-- Node37&#45;&gt;Node9 -->
<g id="edge65" class="edge">
<title>Node37&#45;&gt;Node9</title>
<path fill="none" stroke="midnightblue" d="M484.2,-336.48C470.07,-329.08 451.94,-316.89 443.5,-300 428.69,-270.38 474.82,-224.55 475.5,-224 564.65,-151.63 706.88,-130.64 763.78,-124.96"/>
<polygon fill="midnightblue" stroke="midnightblue" points="764.35,-128.42 773.99,-124.02 763.71,-121.45 764.35,-128.42"/>
</g>
<!-- Node37&#45;&gt;Node35 -->
<g id="edge64" class="edge">
<title>Node37&#45;&gt;Node35</title>
<path fill="none" stroke="midnightblue" d="M504,-336.08C504.39,-329.01 504.95,-318.86 505.45,-309.99"/>
<polygon fill="midnightblue" stroke="midnightblue" points="508.95,-309.93 506.01,-299.75 501.96,-309.54 508.95,-309.93"/>
</g>
<!-- Node38&#45;&gt;Node36 -->
<g id="edge67" class="edge">
<title>Node38&#45;&gt;Node36</title>
<path fill="none" stroke="midnightblue" d="M669.5,-280.08C669.5,-273.01 669.5,-262.86 669.5,-253.99"/>
<polygon fill="midnightblue" stroke="midnightblue" points="673,-253.75 669.5,-243.75 666,-253.75 673,-253.75"/>
</g>
<!-- Node39&#45;&gt;Node5 -->
<g id="edge72" class="edge">
<title>Node39&#45;&gt;Node5</title>
<path fill="none" stroke="midnightblue" d="M999.98,-590.83C993.8,-598.87 982.33,-610.91 971.85,-620.54"/>
<polygon fill="midnightblue" stroke="midnightblue" points="969.33,-618.09 964.13,-627.32 973.95,-623.35 969.33,-618.09"/>
</g>
<!-- Node39&#45;&gt;Node6 -->
<g id="edge73" class="edge">
<title>Node39&#45;&gt;Node6</title>
<path fill="none" stroke="midnightblue" d="M986.63,-571.32C969.79,-562.66 943.69,-549.24 924.26,-539.25"/>
<polygon fill="midnightblue" stroke="midnightblue" points="925.82,-536.12 915.33,-534.65 922.62,-542.34 925.82,-536.12"/>
</g>
<!-- Node40&#45;&gt;Node10 -->
<g id="edge78" class="edge">
<title>Node40&#45;&gt;Node10</title>
<path fill="none" stroke="midnightblue" d="M37.97,-280.41C21.79,-268.2 -3.02,-244.96 8.5,-224 34.02,-177.56 90.92,-149.45 129.27,-135.07"/>
<polygon fill="midnightblue" stroke="midnightblue" points="130.84,-138.22 139.06,-131.54 128.47,-131.63 130.84,-138.22"/>
</g>
<!-- Node40&#45;&gt;Node19 -->
<g id="edge79" class="edge">
<title>Node40&#45;&gt;Node19</title>
<path fill="none" stroke="midnightblue" d="M101.04,-283.01C195.39,-271.84 395.83,-248.11 474.17,-238.83"/>
<polygon fill="midnightblue" stroke="midnightblue" points="474.87,-242.27 484.39,-237.62 474.04,-235.32 474.87,-242.27"/>
</g>
<!-- Node41 -->
<g id="node41" class="node">
<title>Node41</title>
<g id="a_node41"><a xlink:title=" ">
<polygon fill="white" stroke="#bfbfbf" points="18,-224.5 18,-243.5 101,-243.5 101,-224.5 18,-224.5"/>
<text text-anchor="middle" x="59.5" y="-231.5" font-family="Helvetica,sans-Serif" font-size="10.00">unordered_map</text>
</a>
</g>
</g>
<!-- Node40&#45;&gt;Node41 -->
<g id="edge80" class="edge">
<title>Node40&#45;&gt;Node41</title>
<path fill="none" stroke="midnightblue" d="M51.99,-280.08C53.18,-272.93 54.89,-262.64 56.38,-253.69"/>
<polygon fill="midnightblue" stroke="midnightblue" points="59.85,-254.19 58.04,-243.75 52.95,-253.04 59.85,-254.19"/>
</g>
</g>
</svg>
