<?xml version="1.0" encoding="UTF-8" standalone="no"?>
<!DOCTYPE svg PUBLIC "-//W3C//DTD SVG 1.1//EN"
 "http://www.w3.org/Graphics/SVG/1.1/DTD/svg11.dtd">
<!-- Generated by graphviz version 2.47.1 (20210421.1823)
 -->
<!-- Title: include/GameLogic/Units/Unit.h Pages: 1 -->
<svg width="1721pt" height="508pt"
 viewBox="0.00 0.00 1721.00 508.00" xmlns="http://www.w3.org/2000/svg" xmlns:xlink="http://www.w3.org/1999/xlink">
<g id="graph0" class="graph" transform="scale(1 1) rotate(0) translate(4 504)">
<title>include/GameLogic/Units/Unit.h</title>
<polygon fill="white" stroke="transparent" points="-4,4 -4,-504 1717,-504 1717,4 -4,4"/>
<!-- Node1 -->
<g id="node1" class="node">
<title>Node1</title>
<g id="a_node1"><a xlink:title=" ">
<polygon fill="#bfbfbf" stroke="black" points="761.5,-469.5 761.5,-499.5 888.5,-499.5 888.5,-469.5 761.5,-469.5"/>
<text text-anchor="start" x="769.5" y="-487.5" font-family="Helvetica,sans-Serif" font-size="10.00">include/GameLogic/Units</text>
<text text-anchor="middle" x="825" y="-476.5" font-family="Helvetica,sans-Serif" font-size="10.00">/Unit.h</text>
</a>
</g>
</g>
<!-- Node2 -->
<g id="node2" class="node">
<title>Node2</title>
<g id="a_node2"><a xlink:href="_unit_8cpp.html" target="_top" xlink:title=" ">
<polygon fill="white" stroke="black" points="642,-335.5 642,-365.5 752,-365.5 752,-335.5 642,-335.5"/>
<text text-anchor="start" x="650" y="-353.5" font-family="Helvetica,sans-Serif" font-size="10.00">src/GameLogic/Units</text>
<text text-anchor="middle" x="697" y="-342.5" font-family="Helvetica,sans-Serif" font-size="10.00">/Unit.cpp</text>
</a>
</g>
</g>
<!-- Node1&#45;&gt;Node2 -->
<g id="edge1" class="edge">
<title>Node1&#45;&gt;Node2</title>
<path fill="none" stroke="midnightblue" d="M791.7,-463.75C778.81,-455.22 764.44,-444.55 753,-433 732.34,-412.14 714.3,-382.79 704.59,-365.59"/>
<polygon fill="midnightblue" stroke="midnightblue" points="790.03,-466.84 800.33,-469.3 793.81,-460.95 790.03,-466.84"/>
</g>
<!-- Node3 -->
<g id="node3" class="node">
<title>Node3</title>
<g id="a_node3"><a xlink:href="_squad_8h.html" target="_top" xlink:title=" ">
<polygon fill="white" stroke="black" points="292.5,-402.5 292.5,-432.5 423.5,-432.5 423.5,-402.5 292.5,-402.5"/>
<text text-anchor="start" x="300.5" y="-420.5" font-family="Helvetica,sans-Serif" font-size="10.00">include/GameLogic/Squad</text>
<text text-anchor="middle" x="358" y="-409.5" font-family="Helvetica,sans-Serif" font-size="10.00">/Squad.h</text>
</a>
</g>
</g>
<!-- Node1&#45;&gt;Node3 -->
<g id="edge2" class="edge">
<title>Node1&#45;&gt;Node3</title>
<path fill="none" stroke="midnightblue" d="M751.04,-473.9C660.91,-461.68 510.14,-440.7 423.85,-428.36"/>
<polygon fill="midnightblue" stroke="midnightblue" points="750.8,-477.4 761.18,-475.27 751.74,-470.46 750.8,-477.4"/>
</g>
<!-- Node13 -->
<g id="node13" class="node">
<title>Node13</title>
<g id="a_node13"><a xlink:href="_factory_8h.html" target="_top" xlink:title=" ">
<polygon fill="white" stroke="black" points="808.5,-201.5 808.5,-231.5 935.5,-231.5 935.5,-201.5 808.5,-201.5"/>
<text text-anchor="start" x="816.5" y="-219.5" font-family="Helvetica,sans-Serif" font-size="10.00">include/GameLogic/Units</text>
<text text-anchor="middle" x="872" y="-208.5" font-family="Helvetica,sans-Serif" font-size="10.00">/Factory.h</text>
</a>
</g>
</g>
<!-- Node1&#45;&gt;Node13 -->
<g id="edge52" class="edge">
<title>Node1&#45;&gt;Node13</title>
<path fill="none" stroke="midnightblue" d="M765.52,-466.35C695.82,-443 594.44,-396.92 633,-335 671.07,-273.87 751.28,-243.63 808.26,-229.32"/>
<polygon fill="midnightblue" stroke="midnightblue" points="764.53,-469.71 775.12,-469.49 766.71,-463.06 764.53,-469.71"/>
</g>
<!-- Node30 -->
<g id="node30" class="node">
<title>Node30</title>
<g id="a_node30"><a xlink:href="_squad_order_8h.html" target="_top" xlink:title=" ">
<polygon fill="white" stroke="black" points="898.5,-335.5 898.5,-365.5 1029.5,-365.5 1029.5,-335.5 898.5,-335.5"/>
<text text-anchor="start" x="906.5" y="-353.5" font-family="Helvetica,sans-Serif" font-size="10.00">include/GameLogic/Squad</text>
<text text-anchor="middle" x="964" y="-342.5" font-family="Helvetica,sans-Serif" font-size="10.00">/SquadOrder.h</text>
</a>
</g>
</g>
<!-- Node1&#45;&gt;Node30 -->
<g id="edge47" class="edge">
<title>Node1&#45;&gt;Node30</title>
<path fill="none" stroke="midnightblue" d="M857.72,-463.74C870.88,-455.08 885.79,-444.32 898,-433 920.7,-411.96 942.35,-382.92 954.34,-365.79"/>
<polygon fill="midnightblue" stroke="midnightblue" points="855.47,-461.03 848.95,-469.38 859.26,-466.92 855.47,-461.03"/>
</g>
<!-- Node32 -->
<g id="node32" class="node">
<title>Node32</title>
<g id="a_node32"><a xlink:href="_armored_unit_8h.html" target="_top" xlink:title=" ">
<polygon fill="white" stroke="black" points="1382.5,-335.5 1382.5,-365.5 1509.5,-365.5 1509.5,-335.5 1382.5,-335.5"/>
<text text-anchor="start" x="1390.5" y="-353.5" font-family="Helvetica,sans-Serif" font-size="10.00">include/GameLogic/Units</text>
<text text-anchor="middle" x="1446" y="-342.5" font-family="Helvetica,sans-Serif" font-size="10.00">/ArmoredUnit.h</text>
</a>
</g>
</g>
<!-- Node1&#45;&gt;Node32 -->
<g id="edge49" class="edge">
<title>Node1&#45;&gt;Node32</title>
<path fill="none" stroke="midnightblue" d="M898.85,-476.14C970.29,-468.26 1081.33,-453.97 1176,-433 1259.18,-414.57 1354.02,-383.54 1406.24,-365.56"/>
<polygon fill="midnightblue" stroke="midnightblue" points="898.17,-472.69 888.61,-477.26 898.93,-479.65 898.17,-472.69"/>
</g>
<!-- Node34 -->
<g id="node34" class="node">
<title>Node34</title>
<g id="a_node34"><a xlink:href="_land_unit_8h.html" target="_top" xlink:title=" ">
<polygon fill="white" stroke="black" points="1039.5,-402.5 1039.5,-432.5 1166.5,-432.5 1166.5,-402.5 1039.5,-402.5"/>
<text text-anchor="start" x="1047.5" y="-420.5" font-family="Helvetica,sans-Serif" font-size="10.00">include/GameLogic/Units</text>
<text text-anchor="middle" x="1103" y="-409.5" font-family="Helvetica,sans-Serif" font-size="10.00">/LandUnit.h</text>
</a>
</g>
</g>
<!-- Node1&#45;&gt;Node34 -->
<g id="edge53" class="edge">
<title>Node1&#45;&gt;Node34</title>
<path fill="none" stroke="midnightblue" d="M894.78,-467.19C940.3,-456.54 999.14,-442.78 1042.65,-432.61"/>
<polygon fill="midnightblue" stroke="midnightblue" points="893.92,-463.79 884.98,-469.48 895.51,-470.61 893.92,-463.79"/>
</g>
<!-- Node36 -->
<g id="node36" class="node">
<title>Node36</title>
<g id="a_node36"><a xlink:href="_transport_unit_8h.html" target="_top" xlink:title=" ">
<polygon fill="white" stroke="black" points="1446.5,-402.5 1446.5,-432.5 1573.5,-432.5 1573.5,-402.5 1446.5,-402.5"/>
<text text-anchor="start" x="1454.5" y="-420.5" font-family="Helvetica,sans-Serif" font-size="10.00">include/GameLogic/Units</text>
<text text-anchor="middle" x="1510" y="-409.5" font-family="Helvetica,sans-Serif" font-size="10.00">/TransportUnit.h</text>
</a>
</g>
</g>
<!-- Node1&#45;&gt;Node36 -->
<g id="edge56" class="edge">
<title>Node1&#45;&gt;Node36</title>
<path fill="none" stroke="midnightblue" d="M898.77,-476.5C1033.81,-463.69 1318.59,-436.66 1446.01,-424.57"/>
<polygon fill="midnightblue" stroke="midnightblue" points="898.15,-473.04 888.52,-477.47 898.81,-480.01 898.15,-473.04"/>
</g>
<!-- Node38 -->
<g id="node38" class="node">
<title>Node38</title>
<g id="a_node38"><a xlink:href="_unit_order_8h.html" target="_top" xlink:title=" ">
<polygon fill="white" stroke="black" points="761.5,-402.5 761.5,-432.5 888.5,-432.5 888.5,-402.5 761.5,-402.5"/>
<text text-anchor="start" x="769.5" y="-420.5" font-family="Helvetica,sans-Serif" font-size="10.00">include/GameLogic/Units</text>
<text text-anchor="middle" x="825" y="-409.5" font-family="Helvetica,sans-Serif" font-size="10.00">/UnitOrder.h</text>
</a>
</g>
</g>
<!-- Node1&#45;&gt;Node38 -->
<g id="edge60" class="edge">
<title>Node1&#45;&gt;Node38</title>
<path fill="none" stroke="midnightblue" d="M818.45,-459.4C818.01,-450.37 818.3,-440.41 819.33,-432.58"/>
<polygon fill="midnightblue" stroke="midnightblue" points="814.97,-459.74 819.32,-469.4 821.94,-459.13 814.97,-459.74"/>
</g>
<!-- Node3&#45;&gt;Node1 -->
<g id="edge45" class="edge">
<title>Node3&#45;&gt;Node1</title>
<path fill="none" stroke="midnightblue" d="M433.7,-428.34C524.69,-440.68 675.63,-461.69 761.05,-473.91"/>
<polygon fill="midnightblue" stroke="midnightblue" points="434.11,-424.86 423.73,-426.99 433.17,-431.8 434.11,-424.86"/>
</g>
<!-- Node4 -->
<g id="node4" class="node">
<title>Node4</title>
<g id="a_node4"><a xlink:href="_squad_8cpp.html" target="_top" xlink:title=" ">
<polygon fill="white" stroke="black" points="120,-67.5 120,-97.5 234,-97.5 234,-67.5 120,-67.5"/>
<text text-anchor="start" x="128" y="-85.5" font-family="Helvetica,sans-Serif" font-size="10.00">src/GameLogic/Squad</text>
<text text-anchor="middle" x="177" y="-74.5" font-family="Helvetica,sans-Serif" font-size="10.00">/Squad.cpp</text>
</a>
</g>
</g>
<!-- Node3&#45;&gt;Node4 -->
<g id="edge3" class="edge">
<title>Node3&#45;&gt;Node4</title>
<path fill="none" stroke="midnightblue" d="M282.41,-404.33C177.36,-385.24 0,-344.18 0,-284.5 0,-284.5 0,-284.5 0,-215.5 0,-176.25 5.48,-160.97 34,-134 57.34,-111.93 90.91,-99.42 119.66,-92.38"/>
<polygon fill="midnightblue" stroke="midnightblue" points="281.88,-407.79 292.34,-406.11 283.11,-400.9 281.88,-407.79"/>
</g>
<!-- Node5 -->
<g id="node5" class="node">
<title>Node5</title>
<g id="a_node5"><a xlink:href="_set_squad_path_8h.html" target="_top" xlink:title=" ">
<polygon fill="white" stroke="black" points="301.5,-335.5 301.5,-365.5 414.5,-365.5 414.5,-335.5 301.5,-335.5"/>
<text text-anchor="start" x="309.5" y="-353.5" font-family="Helvetica,sans-Serif" font-size="10.00">include/engine/actions</text>
<text text-anchor="middle" x="358" y="-342.5" font-family="Helvetica,sans-Serif" font-size="10.00">/SetSquadPath.h</text>
</a>
</g>
</g>
<!-- Node3&#45;&gt;Node5 -->
<g id="edge4" class="edge">
<title>Node3&#45;&gt;Node5</title>
<path fill="none" stroke="midnightblue" d="M358,-392.11C358,-383.15 358,-373.32 358,-365.58"/>
<polygon fill="midnightblue" stroke="midnightblue" points="354.5,-392.4 358,-402.4 361.5,-392.4 354.5,-392.4"/>
</g>
<!-- Node8 -->
<g id="node8" class="node">
<title>Node8</title>
<g id="a_node8"><a xlink:href="_cell_8h.html" target="_top" xlink:title=" ">
<polygon fill="white" stroke="black" points="417,-274 417,-293 545,-293 545,-274 417,-274"/>
<text text-anchor="middle" x="481" y="-281" font-family="Helvetica,sans-Serif" font-size="10.00">include/GameLogic/Cell.h</text>
</a>
</g>
</g>
<!-- Node3&#45;&gt;Node8 -->
<g id="edge43" class="edge">
<title>Node3&#45;&gt;Node8</title>
<path fill="none" stroke="midnightblue" d="M380.17,-396.17C391.29,-387.6 404.42,-377.04 415,-366 437.7,-342.31 458.1,-308.89 470.79,-293.23"/>
<polygon fill="midnightblue" stroke="midnightblue" points="377.95,-393.47 372.14,-402.32 382.2,-399.03 377.95,-393.47"/>
</g>
<!-- Node11 -->
<g id="node11" class="node">
<title>Node11</title>
<g id="a_node11"><a xlink:href="_game_logic_2_squad_2_action_8h.html" target="_top" xlink:title=" ">
<polygon fill="white" stroke="black" points="28.5,-201.5 28.5,-231.5 159.5,-231.5 159.5,-201.5 28.5,-201.5"/>
<text text-anchor="start" x="36.5" y="-219.5" font-family="Helvetica,sans-Serif" font-size="10.00">include/GameLogic/Squad</text>
<text text-anchor="middle" x="94" y="-208.5" font-family="Helvetica,sans-Serif" font-size="10.00">/Action.h</text>
</a>
</g>
</g>
<!-- Node3&#45;&gt;Node11 -->
<g id="edge44" class="edge">
<title>Node3&#45;&gt;Node11</title>
<path fill="none" stroke="midnightblue" d="M282.38,-408.08C247.7,-401.18 207.85,-388.65 178,-366 130.27,-329.77 100.92,-261.36 94.04,-231.75"/>
<polygon fill="midnightblue" stroke="midnightblue" points="282.01,-411.57 292.48,-409.97 283.29,-404.69 282.01,-411.57"/>
</g>
<!-- Node28 -->
<g id="node28" class="node">
<title>Node28</title>
<g id="a_node28"><a xlink:href="pathfinding_8h.html" target="_top" xlink:title=" ">
<polygon fill="white" stroke="black" points="178,-207 178,-226 298,-226 298,-207 178,-207"/>
<text text-anchor="middle" x="238" y="-214" font-family="Helvetica,sans-Serif" font-size="10.00">include/util/pathfinding.h</text>
</a>
</g>
</g>
<!-- Node3&#45;&gt;Node28 -->
<g id="edge46" class="edge">
<title>Node3&#45;&gt;Node28</title>
<path fill="none" stroke="midnightblue" d="M298.36,-399.12C251.5,-381.97 189.42,-350.67 160,-299 153.18,-287.03 153.42,-280.1 160,-268 171.18,-247.45 194.72,-233.98 213.03,-226.16"/>
<polygon fill="midnightblue" stroke="midnightblue" points="297.21,-402.43 307.81,-402.46 299.55,-395.83 297.21,-402.43"/>
</g>
<!-- Node6 -->
<g id="node6" class="node">
<title>Node6</title>
<g id="a_node6"><a xlink:href="engine_2_action_8cpp.html" target="_top" xlink:title=" ">
<polygon fill="white" stroke="black" points="169,-274 169,-293 279,-293 279,-274 169,-274"/>
<text text-anchor="middle" x="224" y="-281" font-family="Helvetica,sans-Serif" font-size="10.00">src/engine/Action.cpp</text>
</a>
</g>
</g>
<!-- Node5&#45;&gt;Node6 -->
<g id="edge5" class="edge">
<title>Node5&#45;&gt;Node6</title>
<path fill="none" stroke="midnightblue" d="M319.79,-330.97C294.05,-318.48 261.31,-302.6 241.54,-293.01"/>
<polygon fill="midnightblue" stroke="midnightblue" points="318.4,-334.18 328.92,-335.4 321.45,-327.88 318.4,-334.18"/>
</g>
<!-- Node7 -->
<g id="node7" class="node">
<title>Node7</title>
<g id="a_node7"><a xlink:href="_set_squad_path_8cpp.html" target="_top" xlink:title=" ">
<polygon fill="white" stroke="black" points="297.5,-268.5 297.5,-298.5 398.5,-298.5 398.5,-268.5 297.5,-268.5"/>
<text text-anchor="start" x="305.5" y="-286.5" font-family="Helvetica,sans-Serif" font-size="10.00">src/engine/actions</text>
<text text-anchor="middle" x="348" y="-275.5" font-family="Helvetica,sans-Serif" font-size="10.00">/SetSquadPath.cpp</text>
</a>
</g>
</g>
<!-- Node5&#45;&gt;Node7 -->
<g id="edge6" class="edge">
<title>Node5&#45;&gt;Node7</title>
<path fill="none" stroke="midnightblue" d="M354.29,-325.4C352.9,-316.37 351.37,-306.41 350.17,-298.58"/>
<polygon fill="midnightblue" stroke="midnightblue" points="350.85,-326.04 355.83,-335.4 357.77,-324.98 350.85,-326.04"/>
</g>
<!-- Node5&#45;&gt;Node8 -->
<g id="edge7" class="edge">
<title>Node5&#45;&gt;Node8</title>
<path fill="none" stroke="midnightblue" d="M387.8,-330.47C410.22,-318.06 440.22,-302.47 460.17,-293.01"/>
<polygon fill="midnightblue" stroke="midnightblue" points="386.02,-327.46 379.01,-335.4 389.45,-333.56 386.02,-327.46"/>
</g>
<!-- Node8&#45;&gt;Node3 -->
<g id="edge14" class="edge">
<title>Node8&#45;&gt;Node3</title>
<path fill="none" stroke="midnightblue" d="M477.41,-302.74C469.02,-320.09 451.79,-346.38 433,-366 419.72,-379.86 402.43,-392.95 387.61,-402.32"/>
<polygon fill="midnightblue" stroke="midnightblue" points="480.76,-303.81 481.43,-293.23 474.32,-301.08 480.76,-303.81"/>
</g>
<!-- Node8&#45;&gt;Node5 -->
<g id="edge10" class="edge">
<title>Node8&#45;&gt;Node5</title>
<path fill="none" stroke="midnightblue" d="M460.82,-298.13C441.63,-309.06 412.73,-324.34 390.37,-335.4"/>
<polygon fill="midnightblue" stroke="midnightblue" points="462.75,-301.06 469.64,-293.01 459.23,-295.01 462.75,-301.06"/>
</g>
<!-- Node9 -->
<g id="node9" class="node">
<title>Node9</title>
<g id="a_node9"><a xlink:href="_cell_8cpp.html" target="_top" xlink:title=" ">
<polygon fill="white" stroke="black" points="316.5,-207 316.5,-226 437.5,-226 437.5,-207 316.5,-207"/>
<text text-anchor="middle" x="377" y="-214" font-family="Helvetica,sans-Serif" font-size="10.00">src/GameLogic/Cell.cpp</text>
</a>
</g>
</g>
<!-- Node8&#45;&gt;Node9 -->
<g id="edge8" class="edge">
<title>Node8&#45;&gt;Node9</title>
<path fill="none" stroke="midnightblue" d="M458.23,-268.27C437.64,-255.4 408.01,-236.88 390.8,-226.13"/>
<polygon fill="midnightblue" stroke="midnightblue" points="456.64,-271.4 466.97,-273.73 460.35,-265.47 456.64,-271.4"/>
</g>
<!-- Node10 -->
<g id="node10" class="node">
<title>Node10</title>
<g id="a_node10"><a xlink:href="main_8cpp.html" target="_top" xlink:title=" ">
<polygon fill="white" stroke="black" points="435,-73 435,-92 507,-92 507,-73 435,-73"/>
<text text-anchor="middle" x="471" y="-80" font-family="Helvetica,sans-Serif" font-size="10.00">src/main.cpp</text>
</a>
</g>
</g>
<!-- Node8&#45;&gt;Node10 -->
<g id="edge9" class="edge">
<title>Node8&#45;&gt;Node10</title>
<path fill="none" stroke="midnightblue" d="M480.06,-263.8C477.96,-222.01 472.95,-122.33 471.44,-92.24"/>
<polygon fill="midnightblue" stroke="midnightblue" points="476.57,-264.14 480.57,-273.95 483.56,-263.79 476.57,-264.14"/>
</g>
<!-- Node8&#45;&gt;Node11 -->
<g id="edge11" class="edge">
<title>Node8&#45;&gt;Node11</title>
<path fill="none" stroke="midnightblue" d="M429.88,-272.03C422.55,-270.62 415.09,-269.24 408,-268 302.18,-249.53 274.87,-250.2 169,-232 165.99,-231.48 162.92,-230.94 159.82,-230.39"/>
<polygon fill="midnightblue" stroke="midnightblue" points="429.27,-275.48 439.75,-273.96 430.61,-268.61 429.27,-275.48"/>
</g>
<!-- Node8&#45;&gt;Node13 -->
<g id="edge15" class="edge">
<title>Node8&#45;&gt;Node13</title>
<path fill="none" stroke="midnightblue" d="M542.42,-272.29C614.93,-260.24 734.91,-240.29 808.37,-228.08"/>
<polygon fill="midnightblue" stroke="midnightblue" points="541.81,-268.84 532.52,-273.94 542.96,-275.75 541.81,-268.84"/>
</g>
<!-- Node8&#45;&gt;Node28 -->
<g id="edge40" class="edge">
<title>Node8&#45;&gt;Node28</title>
<path fill="none" stroke="midnightblue" d="M439.22,-271.32C391.23,-258.49 313.56,-237.71 270.09,-226.08"/>
<polygon fill="midnightblue" stroke="midnightblue" points="438.42,-274.73 448.98,-273.94 440.23,-267.97 438.42,-274.73"/>
</g>
<!-- Node11&#45;&gt;Node3 -->
<g id="edge13" class="edge">
<title>Node11&#45;&gt;Node3</title>
<path fill="none" stroke="midnightblue" d="M108.46,-241.05C124.59,-273.91 152.74,-333.17 196,-366 223.99,-387.24 260.77,-399.57 292.26,-406.72"/>
<polygon fill="midnightblue" stroke="midnightblue" points="111.42,-239.15 103.83,-231.75 105.16,-242.27 111.42,-239.15"/>
</g>
<!-- Node12 -->
<g id="node12" class="node">
<title>Node12</title>
<g id="a_node12"><a xlink:href="_game_logic_2_squad_2_action_8cpp.html" target="_top" xlink:title=" ">
<polygon fill="white" stroke="black" points="43,-134.5 43,-164.5 157,-164.5 157,-134.5 43,-134.5"/>
<text text-anchor="start" x="51" y="-152.5" font-family="Helvetica,sans-Serif" font-size="10.00">src/GameLogic/Squad</text>
<text text-anchor="middle" x="100" y="-141.5" font-family="Helvetica,sans-Serif" font-size="10.00">/Action.cpp</text>
</a>
</g>
</g>
<!-- Node11&#45;&gt;Node12 -->
<g id="edge12" class="edge">
<title>Node11&#45;&gt;Node12</title>
<path fill="none" stroke="midnightblue" d="M96.22,-191.4C97.06,-182.37 97.98,-172.41 98.7,-164.58"/>
<polygon fill="midnightblue" stroke="midnightblue" points="92.74,-191.12 95.3,-201.4 99.71,-191.76 92.74,-191.12"/>
</g>
<!-- Node14 -->
<g id="node14" class="node">
<title>Node14</title>
<g id="a_node14"><a xlink:href="_spawn_action_8cpp.html" target="_top" xlink:title=" ">
<polygon fill="white" stroke="black" points="956,-134.5 956,-164.5 1052,-164.5 1052,-134.5 956,-134.5"/>
<text text-anchor="start" x="964" y="-152.5" font-family="Helvetica,sans-Serif" font-size="10.00">src/engine/actions</text>
<text text-anchor="middle" x="1004" y="-141.5" font-family="Helvetica,sans-Serif" font-size="10.00">/SpawnAction.cpp</text>
</a>
</g>
</g>
<!-- Node13&#45;&gt;Node14 -->
<g id="edge16" class="edge">
<title>Node13&#45;&gt;Node14</title>
<path fill="none" stroke="midnightblue" d="M909.87,-196.85C930.74,-186.58 956.23,-174.03 975.41,-164.58"/>
<polygon fill="midnightblue" stroke="midnightblue" points="908.07,-193.84 900.64,-201.4 911.16,-200.12 908.07,-193.84"/>
</g>
<!-- Node15 -->
<g id="node15" class="node">
<title>Node15</title>
<g id="a_node15"><a xlink:href="_factory_8cpp.html" target="_top" xlink:title=" ">
<polygon fill="white" stroke="black" points="678,-134.5 678,-164.5 788,-164.5 788,-134.5 678,-134.5"/>
<text text-anchor="start" x="686" y="-152.5" font-family="Helvetica,sans-Serif" font-size="10.00">src/GameLogic/Units</text>
<text text-anchor="middle" x="733" y="-141.5" font-family="Helvetica,sans-Serif" font-size="10.00">/Factory.cpp</text>
</a>
</g>
</g>
<!-- Node13&#45;&gt;Node15 -->
<g id="edge17" class="edge">
<title>Node13&#45;&gt;Node15</title>
<path fill="none" stroke="midnightblue" d="M832.72,-197.13C810.63,-186.8 783.49,-174.11 763.1,-164.58"/>
<polygon fill="midnightblue" stroke="midnightblue" points="831.3,-200.33 841.84,-201.4 834.26,-193.99 831.3,-200.33"/>
</g>
<!-- Node16 -->
<g id="node16" class="node">
<title>Node16</title>
<g id="a_node16"><a xlink:href="_squad_template_8h.html" target="_top" xlink:title=" ">
<polygon fill="white" stroke="black" points="806.5,-134.5 806.5,-164.5 937.5,-164.5 937.5,-134.5 806.5,-134.5"/>
<text text-anchor="start" x="814.5" y="-152.5" font-family="Helvetica,sans-Serif" font-size="10.00">include/GameLogic/Squad</text>
<text text-anchor="middle" x="872" y="-141.5" font-family="Helvetica,sans-Serif" font-size="10.00">/SquadTemplate.h</text>
</a>
</g>
</g>
<!-- Node13&#45;&gt;Node16 -->
<g id="edge18" class="edge">
<title>Node13&#45;&gt;Node16</title>
<path fill="none" stroke="midnightblue" d="M872,-191.11C872,-182.15 872,-172.32 872,-164.58"/>
<polygon fill="midnightblue" stroke="midnightblue" points="868.5,-191.4 872,-201.4 875.5,-191.4 868.5,-191.4"/>
</g>
<!-- Node20 -->
<g id="node20" class="node">
<title>Node20</title>
<g id="a_node20"><a xlink:href="_all_units_8h.html" target="_top" xlink:title=" ">
<polygon fill="white" stroke="black" points="532.5,-134.5 532.5,-164.5 659.5,-164.5 659.5,-134.5 532.5,-134.5"/>
<text text-anchor="start" x="540.5" y="-152.5" font-family="Helvetica,sans-Serif" font-size="10.00">include/GameLogic/Units</text>
<text text-anchor="middle" x="596" y="-141.5" font-family="Helvetica,sans-Serif" font-size="10.00">/AllUnits.h</text>
</a>
</g>
</g>
<!-- Node13&#45;&gt;Node20 -->
<g id="edge23" class="edge">
<title>Node13&#45;&gt;Node20</title>
<path fill="none" stroke="midnightblue" d="M802.44,-199.12C757.28,-188.48 699.02,-174.76 655.92,-164.61"/>
<polygon fill="midnightblue" stroke="midnightblue" points="801.92,-202.59 812.45,-201.48 803.52,-195.78 801.92,-202.59"/>
</g>
<!-- Node22 -->
<g id="node22" class="node">
<title>Node22</title>
<g id="a_node22"><a xlink:href="_armored_unit_factory_8h.html" target="_top" xlink:title=" ">
<polygon fill="white" stroke="black" points="1353.5,-67.5 1353.5,-97.5 1480.5,-97.5 1480.5,-67.5 1353.5,-67.5"/>
<text text-anchor="start" x="1361.5" y="-85.5" font-family="Helvetica,sans-Serif" font-size="10.00">include/GameLogic/Units</text>
<text text-anchor="middle" x="1417" y="-74.5" font-family="Helvetica,sans-Serif" font-size="10.00">/ArmoredUnitFactory.h</text>
</a>
</g>
</g>
<!-- Node13&#45;&gt;Node22 -->
<g id="edge30" class="edge">
<title>Node13&#45;&gt;Node22</title>
<path fill="none" stroke="midnightblue" d="M945.83,-214.61C1062.66,-212.07 1283.88,-202.32 1352,-165 1380.09,-149.61 1400.41,-116.54 1410.28,-97.6"/>
<polygon fill="midnightblue" stroke="midnightblue" points="945.47,-211.12 935.55,-214.82 945.62,-218.12 945.47,-211.12"/>
</g>
<!-- Node24 -->
<g id="node24" class="node">
<title>Node24</title>
<g id="a_node24"><a xlink:href="_land_unit_factory_8h.html" target="_top" xlink:title=" ">
<polygon fill="white" stroke="black" points="1070.5,-134.5 1070.5,-164.5 1197.5,-164.5 1197.5,-134.5 1070.5,-134.5"/>
<text text-anchor="start" x="1078.5" y="-152.5" font-family="Helvetica,sans-Serif" font-size="10.00">include/GameLogic/Units</text>
<text text-anchor="middle" x="1134" y="-141.5" font-family="Helvetica,sans-Serif" font-size="10.00">/LandUnitFactory.h</text>
</a>
</g>
</g>
<!-- Node13&#45;&gt;Node24 -->
<g id="edge33" class="edge">
<title>Node13&#45;&gt;Node24</title>
<path fill="none" stroke="midnightblue" d="M938.3,-199.05C981.13,-188.43 1036.29,-174.74 1077.12,-164.61"/>
<polygon fill="midnightblue" stroke="midnightblue" points="937.39,-195.67 928.53,-201.48 939.08,-202.47 937.39,-195.67"/>
</g>
<!-- Node26 -->
<g id="node26" class="node">
<title>Node26</title>
<g id="a_node26"><a xlink:href="_transport_unit_factory_8h.html" target="_top" xlink:title=" ">
<polygon fill="white" stroke="black" points="1215.5,-134.5 1215.5,-164.5 1342.5,-164.5 1342.5,-134.5 1215.5,-134.5"/>
<text text-anchor="start" x="1223.5" y="-152.5" font-family="Helvetica,sans-Serif" font-size="10.00">include/GameLogic/Units</text>
<text text-anchor="middle" x="1279" y="-141.5" font-family="Helvetica,sans-Serif" font-size="10.00">/TransportUnitFactory.h</text>
</a>
</g>
</g>
<!-- Node13&#45;&gt;Node26 -->
<g id="edge36" class="edge">
<title>Node13&#45;&gt;Node26</title>
<path fill="none" stroke="midnightblue" d="M945.93,-205.42C1013.93,-195.89 1117.47,-180.75 1207,-165 1209.76,-164.51 1212.58,-164 1215.43,-163.48"/>
<polygon fill="midnightblue" stroke="midnightblue" points="945.17,-201.99 935.75,-206.84 946.14,-208.92 945.17,-201.99"/>
</g>
<!-- Node17 -->
<g id="node17" class="node">
<title>Node17</title>
<g id="a_node17"><a xlink:href="_squad_template_8cpp.html" target="_top" xlink:title=" ">
<polygon fill="white" stroke="black" points="767,-67.5 767,-97.5 881,-97.5 881,-67.5 767,-67.5"/>
<text text-anchor="start" x="775" y="-85.5" font-family="Helvetica,sans-Serif" font-size="10.00">src/GameLogic/Squad</text>
<text text-anchor="middle" x="824" y="-74.5" font-family="Helvetica,sans-Serif" font-size="10.00">/SquadTemplate.cpp</text>
</a>
</g>
</g>
<!-- Node16&#45;&gt;Node17 -->
<g id="edge19" class="edge">
<title>Node16&#45;&gt;Node17</title>
<path fill="none" stroke="midnightblue" d="M855.5,-126.16C848.5,-116.68 840.56,-105.92 834.39,-97.58"/>
<polygon fill="midnightblue" stroke="midnightblue" points="852.83,-128.43 861.58,-134.4 858.46,-124.27 852.83,-128.43"/>
</g>
<!-- Node18 -->
<g id="node18" class="node">
<title>Node18</title>
<g id="a_node18"><a xlink:href="_all_squad_templates_8h.html" target="_top" xlink:title=" ">
<polygon fill="white" stroke="black" points="530.5,-67.5 530.5,-97.5 661.5,-97.5 661.5,-67.5 530.5,-67.5"/>
<text text-anchor="start" x="538.5" y="-85.5" font-family="Helvetica,sans-Serif" font-size="10.00">include/GameLogic/Squad</text>
<text text-anchor="middle" x="596" y="-74.5" font-family="Helvetica,sans-Serif" font-size="10.00">/AllSquadTemplates.h</text>
</a>
</g>
</g>
<!-- Node16&#45;&gt;Node18 -->
<g id="edge20" class="edge">
<title>Node16&#45;&gt;Node18</title>
<path fill="none" stroke="midnightblue" d="M802.44,-132.12C757.28,-121.48 699.02,-107.76 655.92,-97.61"/>
<polygon fill="midnightblue" stroke="midnightblue" points="801.92,-135.59 812.45,-134.48 803.52,-128.78 801.92,-135.59"/>
</g>
<!-- Node18&#45;&gt;Node8 -->
<g id="edge22" class="edge">
<title>Node18&#45;&gt;Node8</title>
<path fill="none" stroke="midnightblue" d="M558.55,-102.88C546,-111 532.94,-121.48 524,-134 507.3,-157.37 488.47,-245.44 482.74,-273.71"/>
<polygon fill="midnightblue" stroke="midnightblue" points="560.39,-105.86 567.09,-97.65 556.74,-99.89 560.39,-105.86"/>
</g>
<!-- Node19 -->
<g id="node19" class="node">
<title>Node19</title>
<g id="a_node19"><a xlink:href="_all_squad_templates_8cpp.html" target="_top" xlink:title=" ">
<polygon fill="white" stroke="black" points="535,-0.5 535,-30.5 657,-30.5 657,-0.5 535,-0.5"/>
<text text-anchor="start" x="543" y="-18.5" font-family="Helvetica,sans-Serif" font-size="10.00">src/GameLogic/Squad</text>
<text text-anchor="middle" x="596" y="-7.5" font-family="Helvetica,sans-Serif" font-size="10.00">/AllSquadTemplates.cpp</text>
</a>
</g>
</g>
<!-- Node18&#45;&gt;Node19 -->
<g id="edge21" class="edge">
<title>Node18&#45;&gt;Node19</title>
<path fill="none" stroke="midnightblue" d="M596,-57.11C596,-48.15 596,-38.32 596,-30.58"/>
<polygon fill="midnightblue" stroke="midnightblue" points="592.5,-57.4 596,-67.4 599.5,-57.4 592.5,-57.4"/>
</g>
<!-- Node20&#45;&gt;Node4 -->
<g id="edge24" class="edge">
<title>Node20&#45;&gt;Node4</title>
<path fill="none" stroke="midnightblue" d="M522.34,-137.07C440.16,-124.32 308.95,-103.97 234.15,-92.37"/>
<polygon fill="midnightblue" stroke="midnightblue" points="521.94,-140.55 532.36,-138.63 523.02,-133.64 521.94,-140.55"/>
</g>
<!-- Node20&#45;&gt;Node8 -->
<g id="edge28" class="edge">
<title>Node20&#45;&gt;Node8</title>
<path fill="none" stroke="midnightblue" d="M576.81,-172.52C551,-202.16 506.27,-253.5 488.55,-273.84"/>
<polygon fill="midnightblue" stroke="midnightblue" points="579.63,-174.62 583.56,-164.78 574.35,-170.02 579.63,-174.62"/>
</g>
<!-- Node20&#45;&gt;Node10 -->
<g id="edge27" class="edge">
<title>Node20&#45;&gt;Node10</title>
<path fill="none" stroke="midnightblue" d="M559.73,-129.64C535.81,-117.2 505.64,-101.51 487.36,-92.01"/>
<polygon fill="midnightblue" stroke="midnightblue" points="558.39,-132.89 568.88,-134.4 561.62,-126.68 558.39,-132.89"/>
</g>
<!-- Node20&#45;&gt;Node17 -->
<g id="edge25" class="edge">
<title>Node20&#45;&gt;Node17</title>
<path fill="none" stroke="midnightblue" d="M654.88,-131.71C691.98,-121.14 739.34,-107.63 774.5,-97.61"/>
<polygon fill="midnightblue" stroke="midnightblue" points="653.85,-128.37 645.19,-134.48 655.77,-135.1 653.85,-128.37"/>
</g>
<!-- Node20&#45;&gt;Node18 -->
<g id="edge29" class="edge">
<title>Node20&#45;&gt;Node18</title>
<path fill="none" stroke="midnightblue" d="M596,-124.11C596,-115.15 596,-105.32 596,-97.58"/>
<polygon fill="midnightblue" stroke="midnightblue" points="592.5,-124.4 596,-134.4 599.5,-124.4 592.5,-124.4"/>
</g>
<!-- Node21 -->
<g id="node21" class="node">
<title>Node21</title>
<g id="a_node21"><a xlink:href="_all_units_8cpp.html" target="_top" xlink:title=" ">
<polygon fill="white" stroke="black" points="1040,-0.5 1040,-30.5 1150,-30.5 1150,-0.5 1040,-0.5"/>
<text text-anchor="start" x="1048" y="-18.5" font-family="Helvetica,sans-Serif" font-size="10.00">src/GameLogic/Units</text>
<text text-anchor="middle" x="1095" y="-7.5" font-family="Helvetica,sans-Serif" font-size="10.00">/AllUnits.cpp</text>
</a>
</g>
</g>
<!-- Node20&#45;&gt;Node21 -->
<g id="edge26" class="edge">
<title>Node20&#45;&gt;Node21</title>
<path fill="none" stroke="midnightblue" d="M627.16,-129.05C658.88,-110.17 710.07,-82.22 758,-67 854.28,-36.43 972.05,-24.17 1039.81,-19.4"/>
<polygon fill="midnightblue" stroke="midnightblue" points="625.12,-126.19 618.36,-134.35 628.73,-132.19 625.12,-126.19"/>
</g>
<!-- Node22&#45;&gt;Node21 -->
<g id="edge31" class="edge">
<title>Node22&#45;&gt;Node21</title>
<path fill="none" stroke="midnightblue" d="M1343.41,-66.65C1284.61,-54.78 1203.49,-38.4 1150.17,-27.64"/>
<polygon fill="midnightblue" stroke="midnightblue" points="1342.89,-70.11 1353.38,-68.66 1344.27,-63.25 1342.89,-70.11"/>
</g>
<!-- Node23 -->
<g id="node23" class="node">
<title>Node23</title>
<g id="a_node23"><a xlink:href="_armored_unit_factory_8cpp.html" target="_top" xlink:title=" ">
<polygon fill="white" stroke="black" points="1354.5,-0.5 1354.5,-30.5 1479.5,-30.5 1479.5,-0.5 1354.5,-0.5"/>
<text text-anchor="start" x="1362.5" y="-18.5" font-family="Helvetica,sans-Serif" font-size="10.00">src/GameLogic/Units</text>
<text text-anchor="middle" x="1417" y="-7.5" font-family="Helvetica,sans-Serif" font-size="10.00">/ArmoredUnitFactory.cpp</text>
</a>
</g>
</g>
<!-- Node22&#45;&gt;Node23 -->
<g id="edge32" class="edge">
<title>Node22&#45;&gt;Node23</title>
<path fill="none" stroke="midnightblue" d="M1417,-57.11C1417,-48.15 1417,-38.32 1417,-30.58"/>
<polygon fill="midnightblue" stroke="midnightblue" points="1413.5,-57.4 1417,-67.4 1420.5,-57.4 1413.5,-57.4"/>
</g>
<!-- Node24&#45;&gt;Node21 -->
<g id="edge34" class="edge">
<title>Node24&#45;&gt;Node21</title>
<path fill="none" stroke="midnightblue" d="M1069.45,-130.2C1054.28,-122.73 1039.94,-112.35 1031,-98 1023.71,-86.31 1024.99,-79.4 1031,-67 1038.59,-51.33 1053.66,-39.06 1067.28,-30.54"/>
<polygon fill="midnightblue" stroke="midnightblue" points="1068.41,-133.57 1078.96,-134.49 1071.28,-127.19 1068.41,-133.57"/>
</g>
<!-- Node25 -->
<g id="node25" class="node">
<title>Node25</title>
<g id="a_node25"><a xlink:href="_land_unit_factory_8cpp.html" target="_top" xlink:title=" ">
<polygon fill="white" stroke="black" points="1040,-67.5 1040,-97.5 1150,-97.5 1150,-67.5 1040,-67.5"/>
<text text-anchor="start" x="1048" y="-85.5" font-family="Helvetica,sans-Serif" font-size="10.00">src/GameLogic/Units</text>
<text text-anchor="middle" x="1095" y="-74.5" font-family="Helvetica,sans-Serif" font-size="10.00">/LandUnitFactory.cpp</text>
</a>
</g>
</g>
<!-- Node24&#45;&gt;Node25 -->
<g id="edge35" class="edge">
<title>Node24&#45;&gt;Node25</title>
<path fill="none" stroke="midnightblue" d="M1120.25,-125.58C1114.64,-116.24 1108.35,-105.75 1103.45,-97.58"/>
<polygon fill="midnightblue" stroke="midnightblue" points="1117.39,-127.62 1125.54,-134.4 1123.39,-124.02 1117.39,-127.62"/>
</g>
<!-- Node26&#45;&gt;Node21 -->
<g id="edge37" class="edge">
<title>Node26&#45;&gt;Node21</title>
<path fill="none" stroke="midnightblue" d="M1245.91,-129.05C1231.02,-119.99 1213.36,-108.84 1198,-98 1179.91,-85.23 1176.36,-80.75 1159,-67 1143.47,-54.7 1125.78,-40.75 1112.94,-30.63"/>
<polygon fill="midnightblue" stroke="midnightblue" points="1244.42,-132.23 1254.79,-134.39 1248.03,-126.24 1244.42,-132.23"/>
</g>
<!-- Node26&#45;&gt;Node22 -->
<g id="edge39" class="edge">
<title>Node26&#45;&gt;Node22</title>
<path fill="none" stroke="midnightblue" d="M1318,-130.13C1339.93,-119.8 1366.87,-107.11 1387.11,-97.58"/>
<polygon fill="midnightblue" stroke="midnightblue" points="1316.5,-126.97 1308.94,-134.4 1319.48,-133.3 1316.5,-126.97"/>
</g>
<!-- Node27 -->
<g id="node27" class="node">
<title>Node27</title>
<g id="a_node27"><a xlink:href="_transport_unit_factory_8cpp.html" target="_top" xlink:title=" ">
<polygon fill="white" stroke="black" points="1206.5,-67.5 1206.5,-97.5 1335.5,-97.5 1335.5,-67.5 1206.5,-67.5"/>
<text text-anchor="start" x="1214.5" y="-85.5" font-family="Helvetica,sans-Serif" font-size="10.00">src/GameLogic/Units</text>
<text text-anchor="middle" x="1271" y="-74.5" font-family="Helvetica,sans-Serif" font-size="10.00">/TransportUnitFactory.cpp</text>
</a>
</g>
</g>
<!-- Node26&#45;&gt;Node27 -->
<g id="edge38" class="edge">
<title>Node26&#45;&gt;Node27</title>
<path fill="none" stroke="midnightblue" d="M1276.03,-124.4C1274.92,-115.37 1273.7,-105.41 1272.73,-97.58"/>
<polygon fill="midnightblue" stroke="midnightblue" points="1272.57,-124.9 1277.26,-134.4 1279.52,-124.04 1272.57,-124.9"/>
</g>
<!-- Node28&#45;&gt;Node12 -->
<g id="edge41" class="edge">
<title>Node28&#45;&gt;Node12</title>
<path fill="none" stroke="midnightblue" d="M210.34,-202.47C187.01,-191.49 153.69,-175.79 129.78,-164.53"/>
<polygon fill="midnightblue" stroke="midnightblue" points="209.14,-205.77 219.67,-206.87 212.12,-199.44 209.14,-205.77"/>
</g>
<!-- Node29 -->
<g id="node29" class="node">
<title>Node29</title>
<g id="a_node29"><a xlink:href="pathfinding_8cpp.html" target="_top" xlink:title=" ">
<polygon fill="white" stroke="black" points="181.5,-140 181.5,-159 294.5,-159 294.5,-140 181.5,-140"/>
<text text-anchor="middle" x="238" y="-147" font-family="Helvetica,sans-Serif" font-size="10.00">src/util/pathfinding.cpp</text>
</a>
</g>
</g>
<!-- Node28&#45;&gt;Node29 -->
<g id="edge42" class="edge">
<title>Node28&#45;&gt;Node29</title>
<path fill="none" stroke="midnightblue" d="M238,-196.54C238,-184.17 238,-168.62 238,-159.13"/>
<polygon fill="midnightblue" stroke="midnightblue" points="234.5,-196.73 238,-206.73 241.5,-196.73 234.5,-196.73"/>
</g>
<!-- Node31 -->
<g id="node31" class="node">
<title>Node31</title>
<g id="a_node31"><a xlink:href="_squad_order_8cpp.html" target="_top" xlink:title=" ">
<polygon fill="white" stroke="black" points="907,-268.5 907,-298.5 1021,-298.5 1021,-268.5 907,-268.5"/>
<text text-anchor="start" x="915" y="-286.5" font-family="Helvetica,sans-Serif" font-size="10.00">src/GameLogic/Squad</text>
<text text-anchor="middle" x="964" y="-275.5" font-family="Helvetica,sans-Serif" font-size="10.00">/SquadOrder.cpp</text>
</a>
</g>
</g>
<!-- Node30&#45;&gt;Node31 -->
<g id="edge48" class="edge">
<title>Node30&#45;&gt;Node31</title>
<path fill="none" stroke="midnightblue" d="M964,-325.11C964,-316.15 964,-306.32 964,-298.58"/>
<polygon fill="midnightblue" stroke="midnightblue" points="960.5,-325.4 964,-335.4 967.5,-325.4 960.5,-325.4"/>
</g>
<!-- Node32&#45;&gt;Node22 -->
<g id="edge51" class="edge">
<title>Node32&#45;&gt;Node22</title>
<path fill="none" stroke="midnightblue" d="M1435.94,-325.79C1432.85,-317.46 1429.78,-307.96 1428,-299 1413.1,-224.24 1414.94,-132.16 1416.32,-97.54"/>
<polygon fill="midnightblue" stroke="midnightblue" points="1432.74,-327.2 1439.65,-335.23 1439.25,-324.64 1432.74,-327.2"/>
</g>
<!-- Node33 -->
<g id="node33" class="node">
<title>Node33</title>
<g id="a_node33"><a xlink:href="_armored_unit_8cpp.html" target="_top" xlink:title=" ">
<polygon fill="white" stroke="black" points="1437,-268.5 1437,-298.5 1547,-298.5 1547,-268.5 1437,-268.5"/>
<text text-anchor="start" x="1445" y="-286.5" font-family="Helvetica,sans-Serif" font-size="10.00">src/GameLogic/Units</text>
<text text-anchor="middle" x="1492" y="-275.5" font-family="Helvetica,sans-Serif" font-size="10.00">/ArmoredUnit.cpp</text>
</a>
</g>
</g>
<!-- Node32&#45;&gt;Node33 -->
<g id="edge50" class="edge">
<title>Node32&#45;&gt;Node33</title>
<path fill="none" stroke="midnightblue" d="M1461.81,-327.16C1468.52,-317.68 1476.13,-306.92 1482.04,-298.58"/>
<polygon fill="midnightblue" stroke="midnightblue" points="1458.9,-325.21 1455.98,-335.4 1464.62,-329.26 1458.9,-325.21"/>
</g>
<!-- Node34&#45;&gt;Node24 -->
<g id="edge55" class="edge">
<title>Node34&#45;&gt;Node24</title>
<path fill="none" stroke="midnightblue" d="M1139.12,-396.8C1150.15,-388.81 1160.95,-378.48 1167,-366 1200.76,-296.35 1159.53,-200.46 1141.57,-164.7"/>
<polygon fill="midnightblue" stroke="midnightblue" points="1137.07,-393.97 1130.72,-402.46 1140.98,-399.78 1137.07,-393.97"/>
</g>
<!-- Node35 -->
<g id="node35" class="node">
<title>Node35</title>
<g id="a_node35"><a xlink:href="_land_unit_8cpp.html" target="_top" xlink:title=" ">
<polygon fill="white" stroke="black" points="1048,-335.5 1048,-365.5 1158,-365.5 1158,-335.5 1048,-335.5"/>
<text text-anchor="start" x="1056" y="-353.5" font-family="Helvetica,sans-Serif" font-size="10.00">src/GameLogic/Units</text>
<text text-anchor="middle" x="1103" y="-342.5" font-family="Helvetica,sans-Serif" font-size="10.00">/LandUnit.cpp</text>
</a>
</g>
</g>
<!-- Node34&#45;&gt;Node35 -->
<g id="edge54" class="edge">
<title>Node34&#45;&gt;Node35</title>
<path fill="none" stroke="midnightblue" d="M1103,-392.11C1103,-383.15 1103,-373.32 1103,-365.58"/>
<polygon fill="midnightblue" stroke="midnightblue" points="1099.5,-392.4 1103,-402.4 1106.5,-392.4 1099.5,-392.4"/>
</g>
<!-- Node36&#45;&gt;Node26 -->
<g id="edge59" class="edge">
<title>Node36&#45;&gt;Node26</title>
<path fill="none" stroke="midnightblue" d="M1528.14,-393.96C1550.44,-363.3 1582.31,-307.74 1556,-268 1508.78,-196.68 1408.63,-168.52 1342.59,-157.49"/>
<polygon fill="midnightblue" stroke="midnightblue" points="1525.1,-392.18 1521.87,-402.27 1530.69,-396.39 1525.1,-392.18"/>
</g>
<!-- Node36&#45;&gt;Node32 -->
<g id="edge58" class="edge">
<title>Node36&#45;&gt;Node32</title>
<path fill="none" stroke="midnightblue" d="M1488.85,-395.02C1479.32,-385.34 1468.33,-374.17 1459.86,-365.58"/>
<polygon fill="midnightblue" stroke="midnightblue" points="1486.6,-397.73 1496.11,-402.4 1491.59,-392.81 1486.6,-397.73"/>
</g>
<!-- Node37 -->
<g id="node37" class="node">
<title>Node37</title>
<g id="a_node37"><a xlink:href="_transport_unit_8cpp.html" target="_top" xlink:title=" ">
<polygon fill="white" stroke="black" points="1603,-335.5 1603,-365.5 1713,-365.5 1713,-335.5 1603,-335.5"/>
<text text-anchor="start" x="1611" y="-353.5" font-family="Helvetica,sans-Serif" font-size="10.00">src/GameLogic/Units</text>
<text text-anchor="middle" x="1658" y="-342.5" font-family="Helvetica,sans-Serif" font-size="10.00">/TransportUnit.cpp</text>
</a>
</g>
</g>
<!-- Node36&#45;&gt;Node37 -->
<g id="edge57" class="edge">
<title>Node36&#45;&gt;Node37</title>
<path fill="none" stroke="midnightblue" d="M1551.51,-398.27C1575.08,-387.92 1604.14,-375.15 1625.95,-365.58"/>
<polygon fill="midnightblue" stroke="midnightblue" points="1549.86,-395.17 1542.11,-402.4 1552.68,-401.58 1549.86,-395.17"/>
</g>
<!-- Node38&#45;&gt;Node1 -->
<g id="edge64" class="edge">
<title>Node38&#45;&gt;Node1</title>
<path fill="none" stroke="midnightblue" d="M831.54,-442.57C831.99,-451.6 831.71,-461.56 830.68,-469.4"/>
<polygon fill="midnightblue" stroke="midnightblue" points="835.03,-442.24 830.67,-432.58 828.05,-442.84 835.03,-442.24"/>
</g>
<!-- Node38&#45;&gt;Node2 -->
<g id="edge61" class="edge">
<title>Node38&#45;&gt;Node2</title>
<path fill="none" stroke="midnightblue" d="M788.28,-397.85C768.04,-387.58 743.33,-375.03 724.72,-365.58"/>
<polygon fill="midnightblue" stroke="midnightblue" points="786.72,-400.99 797.23,-402.4 789.89,-394.75 786.72,-400.99"/>
</g>
<!-- Node38&#45;&gt;Node30 -->
<g id="edge63" class="edge">
<title>Node38&#45;&gt;Node30</title>
<path fill="none" stroke="midnightblue" d="M864.28,-398.13C886.37,-387.8 913.51,-375.11 933.9,-365.58"/>
<polygon fill="midnightblue" stroke="midnightblue" points="862.74,-394.99 855.16,-402.4 865.7,-401.33 862.74,-394.99"/>
</g>
<!-- Node39 -->
<g id="node39" class="node">
<title>Node39</title>
<g id="a_node39"><a xlink:href="_unit_order_8cpp.html" target="_top" xlink:title=" ">
<polygon fill="white" stroke="black" points="770,-335.5 770,-365.5 880,-365.5 880,-335.5 770,-335.5"/>
<text text-anchor="start" x="778" y="-353.5" font-family="Helvetica,sans-Serif" font-size="10.00">src/GameLogic/Units</text>
<text text-anchor="middle" x="825" y="-342.5" font-family="Helvetica,sans-Serif" font-size="10.00">/UnitOrder.cpp</text>
</a>
</g>
</g>
<!-- Node38&#45;&gt;Node39 -->
<g id="edge62" class="edge">
<title>Node38&#45;&gt;Node39</title>
<path fill="none" stroke="midnightblue" d="M825,-392.11C825,-383.15 825,-373.32 825,-365.58"/>
<polygon fill="midnightblue" stroke="midnightblue" points="821.5,-392.4 825,-402.4 828.5,-392.4 821.5,-392.4"/>
</g>
</g>
</svg>
