<?xml version="1.0" encoding="UTF-8" standalone="no"?>
<!DOCTYPE svg PUBLIC "-//W3C//DTD SVG 1.1//EN"
 "http://www.w3.org/Graphics/SVG/1.1/DTD/svg11.dtd">
<!-- Generated by graphviz version 2.47.1 (20210421.1823)
 -->
<!-- Title: include/util/cellgen.h Pages: 1 -->
<svg width="1744pt" height="609pt"
 viewBox="0.00 0.00 1743.50 609.00" xmlns="http://www.w3.org/2000/svg" xmlns:xlink="http://www.w3.org/1999/xlink">
<g id="graph0" class="graph" transform="scale(1 1) rotate(0) translate(4 605)">
<title>include/util/cellgen.h</title>
<polygon fill="white" stroke="transparent" points="-4,4 -4,-605 1739.5,-605 1739.5,4 -4,4"/>
<!-- Node1 -->
<g id="node1" class="node">
<title>Node1</title>
<g id="a_node1"><a xlink:title=" ">
<polygon fill="#bfbfbf" stroke="black" points="1225.5,-581.5 1225.5,-600.5 1329.5,-600.5 1329.5,-581.5 1225.5,-581.5"/>
<text text-anchor="middle" x="1277.5" y="-588.5" font-family="Helvetica,sans-Serif" font-size="10.00">include/util/cellgen.h</text>
</a>
</g>
</g>
<!-- Node2 -->
<g id="node2" class="node">
<title>Node2</title>
<g id="a_node2"><a xlink:href="main_8cpp.html" target="_top" xlink:title=" ">
<polygon fill="white" stroke="black" points="1009.5,-408 1009.5,-427 1081.5,-427 1081.5,-408 1009.5,-408"/>
<text text-anchor="middle" x="1045.5" y="-415" font-family="Helvetica,sans-Serif" font-size="10.00">src/main.cpp</text>
</a>
</g>
</g>
<!-- Node1&#45;&gt;Node2 -->
<g id="edge1" class="edge">
<title>Node1&#45;&gt;Node2</title>
<path fill="none" stroke="midnightblue" d="M1244.41,-577.5C1225.25,-569.54 1201.12,-558.24 1181.5,-545 1126.71,-508.01 1072.46,-449.15 1053.02,-427.16"/>
<polygon fill="midnightblue" stroke="midnightblue" points="1243.34,-580.84 1253.92,-581.35 1245.97,-574.35 1243.34,-580.84"/>
</g>
<!-- Node3 -->
<g id="node3" class="node">
<title>Node3</title>
<g id="a_node3"><a xlink:href="cellgen_8cpp.html" target="_top" xlink:title=" ">
<polygon fill="white" stroke="black" points="1190.5,-525.5 1190.5,-544.5 1288.5,-544.5 1288.5,-525.5 1190.5,-525.5"/>
<text text-anchor="middle" x="1239.5" y="-532.5" font-family="Helvetica,sans-Serif" font-size="10.00">src/util/cellgen.cpp</text>
</a>
</g>
</g>
<!-- Node1&#45;&gt;Node3 -->
<g id="edge2" class="edge">
<title>Node1&#45;&gt;Node3</title>
<path fill="none" stroke="midnightblue" d="M1265.44,-572.86C1258.86,-563.5 1250.99,-552.33 1245.66,-544.75"/>
<polygon fill="midnightblue" stroke="midnightblue" points="1262.61,-574.92 1271.23,-581.08 1268.33,-570.89 1262.61,-574.92"/>
</g>
<!-- Node4 -->
<g id="node4" class="node">
<title>Node4</title>
<g id="a_node4"><a xlink:href="_cell_8h.html" target="_top" xlink:title=" ">
<polygon fill="white" stroke="black" points="1294.5,-469.5 1294.5,-488.5 1422.5,-488.5 1422.5,-469.5 1294.5,-469.5"/>
<text text-anchor="middle" x="1358.5" y="-476.5" font-family="Helvetica,sans-Serif" font-size="10.00">include/GameLogic/Cell.h</text>
</a>
</g>
</g>
<!-- Node1&#45;&gt;Node4 -->
<g id="edge3" class="edge">
<title>Node1&#45;&gt;Node4</title>
<path fill="none" stroke="midnightblue" d="M1289.82,-573.27C1307.33,-549.49 1338.77,-506.79 1352.17,-488.59"/>
<polygon fill="midnightblue" stroke="midnightblue" points="1286.97,-571.24 1283.86,-581.37 1292.6,-575.39 1286.97,-571.24"/>
</g>
<!-- Node41 -->
<g id="node41" class="node">
<title>Node41</title>
<g id="a_node41"><a xlink:href="geometry_8h.html" target="_top" xlink:title=" ">
<polygon fill="white" stroke="black" points="1345,-525.5 1345,-544.5 1458,-544.5 1458,-525.5 1345,-525.5"/>
<text text-anchor="middle" x="1401.5" y="-532.5" font-family="Helvetica,sans-Serif" font-size="10.00">include/util/geometry.h</text>
</a>
</g>
</g>
<!-- Node1&#45;&gt;Node41 -->
<g id="edge65" class="edge">
<title>Node1&#45;&gt;Node41</title>
<path fill="none" stroke="midnightblue" d="M1306.51,-577.37C1329.73,-567.26 1361.66,-553.35 1381.94,-544.52"/>
<polygon fill="midnightblue" stroke="midnightblue" points="1304.92,-574.24 1297.15,-581.44 1307.71,-580.66 1304.92,-574.24"/>
</g>
<!-- Node4&#45;&gt;Node2 -->
<g id="edge5" class="edge">
<title>Node4&#45;&gt;Node2</title>
<path fill="none" stroke="midnightblue" d="M1286.99,-468C1233.86,-460.02 1159.76,-447.76 1095.5,-433 1088.1,-431.3 1080.17,-429.15 1072.86,-427.04"/>
<polygon fill="midnightblue" stroke="midnightblue" points="1286.59,-471.47 1297,-469.48 1287.62,-464.55 1286.59,-471.47"/>
</g>
<!-- Node5 -->
<g id="node5" class="node">
<title>Node5</title>
<g id="a_node5"><a xlink:href="_cell_8cpp.html" target="_top" xlink:title=" ">
<polygon fill="white" stroke="black" points="1532,-408 1532,-427 1653,-427 1653,-408 1532,-408"/>
<text text-anchor="middle" x="1592.5" y="-415" font-family="Helvetica,sans-Serif" font-size="10.00">src/GameLogic/Cell.cpp</text>
</a>
</g>
</g>
<!-- Node4&#45;&gt;Node5 -->
<g id="edge4" class="edge">
<title>Node4&#45;&gt;Node5</title>
<path fill="none" stroke="midnightblue" d="M1401.88,-466.97C1447.32,-455.41 1517.71,-437.52 1559.04,-427.01"/>
<polygon fill="midnightblue" stroke="midnightblue" points="1400.86,-463.62 1392.03,-469.48 1402.58,-470.4 1400.86,-463.62"/>
</g>
<!-- Node6 -->
<g id="node6" class="node">
<title>Node6</title>
<g id="a_node6"><a xlink:href="_set_squad_path_8h.html" target="_top" xlink:title=" ">
<polygon fill="white" stroke="black" points="1476,-268.5 1476,-298.5 1589,-298.5 1589,-268.5 1476,-268.5"/>
<text text-anchor="start" x="1484" y="-286.5" font-family="Helvetica,sans-Serif" font-size="10.00">include/engine/actions</text>
<text text-anchor="middle" x="1532.5" y="-275.5" font-family="Helvetica,sans-Serif" font-size="10.00">/SetSquadPath.h</text>
</a>
</g>
</g>
<!-- Node4&#45;&gt;Node6 -->
<g id="edge6" class="edge">
<title>Node4&#45;&gt;Node6</title>
<path fill="none" stroke="midnightblue" d="M1395.39,-466.11C1414.29,-459.09 1436.49,-448.47 1452.5,-433 1492.77,-394.08 1513,-327.71 1524.3,-298.73"/>
<polygon fill="midnightblue" stroke="midnightblue" points="1394.14,-462.84 1385.86,-469.46 1396.46,-469.45 1394.14,-462.84"/>
</g>
<!-- Node9 -->
<g id="node9" class="node">
<title>Node9</title>
<g id="a_node9"><a xlink:href="_game_logic_2_squad_2_action_8h.html" target="_top" xlink:title=" ">
<polygon fill="white" stroke="black" points="1167,-402.5 1167,-432.5 1298,-432.5 1298,-402.5 1167,-402.5"/>
<text text-anchor="start" x="1175" y="-420.5" font-family="Helvetica,sans-Serif" font-size="10.00">include/GameLogic/Squad</text>
<text text-anchor="middle" x="1232.5" y="-409.5" font-family="Helvetica,sans-Serif" font-size="10.00">/Action.h</text>
</a>
</g>
</g>
<!-- Node4&#45;&gt;Node9 -->
<g id="edge10" class="edge">
<title>Node4&#45;&gt;Node9</title>
<path fill="none" stroke="midnightblue" d="M1331.39,-465.2C1311.03,-455.58 1283.16,-442.42 1262.2,-432.52"/>
<polygon fill="midnightblue" stroke="midnightblue" points="1329.91,-468.37 1340.45,-469.48 1332.9,-462.04 1329.91,-468.37"/>
</g>
<!-- Node10 -->
<g id="node10" class="node">
<title>Node10</title>
<g id="a_node10"><a xlink:href="_squad_8h.html" target="_top" xlink:title=" ">
<polygon fill="white" stroke="black" points="1167,-335.5 1167,-365.5 1298,-365.5 1298,-335.5 1167,-335.5"/>
<text text-anchor="start" x="1175" y="-353.5" font-family="Helvetica,sans-Serif" font-size="10.00">include/GameLogic/Squad</text>
<text text-anchor="middle" x="1232.5" y="-342.5" font-family="Helvetica,sans-Serif" font-size="10.00">/Squad.h</text>
</a>
</g>
</g>
<!-- Node4&#45;&gt;Node10 -->
<g id="edge62" class="edge">
<title>Node4&#45;&gt;Node10</title>
<path fill="none" stroke="midnightblue" d="M1342.54,-460.66C1331.35,-444.29 1316.14,-419.67 1298.5,-402 1284.08,-387.56 1264.97,-374.76 1250.82,-365.66"/>
<polygon fill="midnightblue" stroke="midnightblue" points="1339.99,-463.13 1348.65,-469.24 1345.69,-459.06 1339.99,-463.13"/>
</g>
<!-- Node21 -->
<g id="node21" class="node">
<title>Node21</title>
<g id="a_node21"><a xlink:href="_factory_8h.html" target="_top" xlink:title=" ">
<polygon fill="white" stroke="black" points="992,-201.5 992,-231.5 1119,-231.5 1119,-201.5 992,-201.5"/>
<text text-anchor="start" x="1000" y="-219.5" font-family="Helvetica,sans-Serif" font-size="10.00">include/GameLogic/Units</text>
<text text-anchor="middle" x="1055.5" y="-208.5" font-family="Helvetica,sans-Serif" font-size="10.00">/Factory.h</text>
</a>
</g>
</g>
<!-- Node4&#45;&gt;Node21 -->
<g id="edge63" class="edge">
<title>Node4&#45;&gt;Node21</title>
<path fill="none" stroke="midnightblue" d="M1284.48,-468.34C1235.61,-460.68 1177.1,-448.67 1157.5,-433 1090.26,-379.23 1064.95,-270.57 1057.82,-231.72"/>
<polygon fill="midnightblue" stroke="midnightblue" points="1284.01,-471.81 1294.43,-469.86 1285.07,-464.89 1284.01,-471.81"/>
</g>
<!-- Node38 -->
<g id="node38" class="node">
<title>Node38</title>
<g id="a_node38"><a xlink:href="pathfinding_8h.html" target="_top" xlink:title=" ">
<polygon fill="white" stroke="black" points="1296.5,-274 1296.5,-293 1416.5,-293 1416.5,-274 1296.5,-274"/>
<text text-anchor="middle" x="1356.5" y="-281" font-family="Helvetica,sans-Serif" font-size="10.00">include/util/pathfinding.h</text>
</a>
</g>
</g>
<!-- Node4&#45;&gt;Node38 -->
<g id="edge64" class="edge">
<title>Node4&#45;&gt;Node38</title>
<path fill="none" stroke="midnightblue" d="M1358.31,-459.29C1357.89,-418.53 1356.9,-323.01 1356.59,-293.41"/>
<polygon fill="midnightblue" stroke="midnightblue" points="1354.81,-459.47 1358.41,-469.44 1361.81,-459.4 1354.81,-459.47"/>
</g>
<!-- Node6&#45;&gt;Node4 -->
<g id="edge9" class="edge">
<title>Node6&#45;&gt;Node4</title>
<path fill="none" stroke="midnightblue" d="M1532.71,-308.65C1526.68,-340.9 1506.68,-398.03 1470.5,-433 1451.7,-451.17 1424.36,-462.65 1401.28,-469.46"/>
<polygon fill="midnightblue" stroke="midnightblue" points="1536.18,-309.15 1534.23,-298.73 1529.26,-308.09 1536.18,-309.15"/>
</g>
<!-- Node7 -->
<g id="node7" class="node">
<title>Node7</title>
<g id="a_node7"><a xlink:href="engine_2_action_8cpp.html" target="_top" xlink:title=" ">
<polygon fill="white" stroke="black" points="1477.5,-207 1477.5,-226 1587.5,-226 1587.5,-207 1477.5,-207"/>
<text text-anchor="middle" x="1532.5" y="-214" font-family="Helvetica,sans-Serif" font-size="10.00">src/engine/Action.cpp</text>
</a>
</g>
</g>
<!-- Node6&#45;&gt;Node7 -->
<g id="edge7" class="edge">
<title>Node6&#45;&gt;Node7</title>
<path fill="none" stroke="midnightblue" d="M1532.5,-258.25C1532.5,-247.02 1532.5,-234.38 1532.5,-226.19"/>
<polygon fill="midnightblue" stroke="midnightblue" points="1529,-258.4 1532.5,-268.4 1536,-258.4 1529,-258.4"/>
</g>
<!-- Node8 -->
<g id="node8" class="node">
<title>Node8</title>
<g id="a_node8"><a xlink:href="_set_squad_path_8cpp.html" target="_top" xlink:title=" ">
<polygon fill="white" stroke="black" points="1606,-201.5 1606,-231.5 1707,-231.5 1707,-201.5 1606,-201.5"/>
<text text-anchor="start" x="1614" y="-219.5" font-family="Helvetica,sans-Serif" font-size="10.00">src/engine/actions</text>
<text text-anchor="middle" x="1656.5" y="-208.5" font-family="Helvetica,sans-Serif" font-size="10.00">/SetSquadPath.cpp</text>
</a>
</g>
</g>
<!-- Node6&#45;&gt;Node8 -->
<g id="edge8" class="edge">
<title>Node6&#45;&gt;Node8</title>
<path fill="none" stroke="midnightblue" d="M1568.34,-263.71C1587.89,-253.46 1611.7,-240.98 1629.65,-231.58"/>
<polygon fill="midnightblue" stroke="midnightblue" points="1566.64,-260.65 1559.41,-268.4 1569.89,-266.85 1566.64,-260.65"/>
</g>
<!-- Node9&#45;&gt;Node10 -->
<g id="edge11" class="edge">
<title>Node9&#45;&gt;Node10</title>
<path fill="none" stroke="midnightblue" d="M1225.95,-392.4C1225.51,-383.37 1225.8,-373.41 1226.83,-365.58"/>
<polygon fill="midnightblue" stroke="midnightblue" points="1222.47,-392.74 1226.82,-402.4 1229.44,-392.13 1222.47,-392.74"/>
</g>
<!-- Node10&#45;&gt;Node4 -->
<g id="edge14" class="edge">
<title>Node10&#45;&gt;Node4</title>
<path fill="none" stroke="midnightblue" d="M1275.17,-370.67C1289.4,-379.21 1304.56,-390.04 1316.5,-402 1337.61,-423.14 1355.22,-454.22 1359.52,-469.24"/>
<polygon fill="midnightblue" stroke="midnightblue" points="1276.88,-367.62 1266.46,-365.66 1273.39,-373.68 1276.88,-367.62"/>
</g>
<!-- Node10&#45;&gt;Node6 -->
<g id="edge13" class="edge">
<title>Node10&#45;&gt;Node6</title>
<path fill="none" stroke="midnightblue" d="M1307.12,-333.33C1359.41,-322 1428.2,-307.1 1475.97,-296.75"/>
<polygon fill="midnightblue" stroke="midnightblue" points="1306.26,-329.94 1297.23,-335.48 1307.74,-336.78 1306.26,-329.94"/>
</g>
<!-- Node10&#45;&gt;Node9 -->
<g id="edge15" class="edge">
<title>Node10&#45;&gt;Node9</title>
<path fill="none" stroke="midnightblue" d="M1239.04,-375.57C1239.49,-384.6 1239.21,-394.56 1238.18,-402.4"/>
<polygon fill="midnightblue" stroke="midnightblue" points="1242.53,-375.24 1238.17,-365.58 1235.55,-375.84 1242.53,-375.24"/>
</g>
<!-- Node11 -->
<g id="node11" class="node">
<title>Node11</title>
<g id="a_node11"><a xlink:href="_squad_8cpp.html" target="_top" xlink:title=" ">
<polygon fill="white" stroke="black" points="1218.5,-67.5 1218.5,-97.5 1332.5,-97.5 1332.5,-67.5 1218.5,-67.5"/>
<text text-anchor="start" x="1226.5" y="-85.5" font-family="Helvetica,sans-Serif" font-size="10.00">src/GameLogic/Squad</text>
<text text-anchor="middle" x="1275.5" y="-74.5" font-family="Helvetica,sans-Serif" font-size="10.00">/Squad.cpp</text>
</a>
</g>
</g>
<!-- Node10&#45;&gt;Node11 -->
<g id="edge12" class="edge">
<title>Node10&#45;&gt;Node11</title>
<path fill="none" stroke="midnightblue" d="M1209.61,-327.7C1180.85,-297.62 1138.48,-242.39 1166.5,-201 1190.65,-165.33 1228.43,-197.68 1256.5,-165 1272.88,-145.93 1275.8,-115.42 1275.97,-97.63"/>
<polygon fill="midnightblue" stroke="midnightblue" points="1207.42,-330.47 1216.93,-335.14 1212.41,-325.56 1207.42,-330.47"/>
</g>
<!-- Node12 -->
<g id="node12" class="node">
<title>Node12</title>
<g id="a_node12"><a xlink:href="_unit_8h.html" target="_top" xlink:title=" ">
<polygon fill="white" stroke="black" points="476,-268.5 476,-298.5 603,-298.5 603,-268.5 476,-268.5"/>
<text text-anchor="start" x="484" y="-286.5" font-family="Helvetica,sans-Serif" font-size="10.00">include/GameLogic/Units</text>
<text text-anchor="middle" x="539.5" y="-275.5" font-family="Helvetica,sans-Serif" font-size="10.00">/Unit.h</text>
</a>
</g>
</g>
<!-- Node10&#45;&gt;Node12 -->
<g id="edge16" class="edge">
<title>Node10&#45;&gt;Node12</title>
<path fill="none" stroke="midnightblue" d="M1156.93,-342.81C1019.53,-330.24 731.4,-303.21 603.24,-290.87"/>
<polygon fill="midnightblue" stroke="midnightblue" points="1156.68,-346.31 1166.95,-343.73 1157.31,-339.34 1156.68,-346.31"/>
</g>
<!-- Node10&#45;&gt;Node38 -->
<g id="edge59" class="edge">
<title>Node10&#45;&gt;Node38</title>
<path fill="none" stroke="midnightblue" d="M1268.48,-330.64C1292.21,-318.2 1322.14,-302.51 1340.27,-293.01"/>
<polygon fill="midnightblue" stroke="midnightblue" points="1266.64,-327.65 1259.41,-335.4 1269.89,-333.85 1266.64,-327.65"/>
</g>
<!-- Node12&#45;&gt;Node10 -->
<g id="edge18" class="edge">
<title>Node12&#45;&gt;Node10</title>
<path fill="none" stroke="midnightblue" d="M613.34,-291.03C749.35,-303.47 1037.17,-330.47 1166.83,-342.94"/>
<polygon fill="midnightblue" stroke="midnightblue" points="613.3,-287.51 603.02,-290.08 612.66,-294.48 613.3,-287.51"/>
</g>
<!-- Node13 -->
<g id="node13" class="node">
<title>Node13</title>
<g id="a_node13"><a xlink:href="_unit_8cpp.html" target="_top" xlink:title=" ">
<polygon fill="white" stroke="black" points="277.5,-134.5 277.5,-164.5 387.5,-164.5 387.5,-134.5 277.5,-134.5"/>
<text text-anchor="start" x="285.5" y="-152.5" font-family="Helvetica,sans-Serif" font-size="10.00">src/GameLogic/Units</text>
<text text-anchor="middle" x="332.5" y="-141.5" font-family="Helvetica,sans-Serif" font-size="10.00">/Unit.cpp</text>
</a>
</g>
</g>
<!-- Node12&#45;&gt;Node13 -->
<g id="edge17" class="edge">
<title>Node12&#45;&gt;Node13</title>
<path fill="none" stroke="midnightblue" d="M508.86,-262.96C466.64,-236.04 391.58,-188.17 354.49,-164.52"/>
<polygon fill="midnightblue" stroke="midnightblue" points="507.03,-265.95 517.35,-268.37 510.8,-260.05 507.03,-265.95"/>
</g>
<!-- Node14 -->
<g id="node14" class="node">
<title>Node14</title>
<g id="a_node14"><a xlink:href="_squad_order_8h.html" target="_top" xlink:title=" ">
<polygon fill="white" stroke="black" points="0,-134.5 0,-164.5 131,-164.5 131,-134.5 0,-134.5"/>
<text text-anchor="start" x="8" y="-152.5" font-family="Helvetica,sans-Serif" font-size="10.00">include/GameLogic/Squad</text>
<text text-anchor="middle" x="65.5" y="-141.5" font-family="Helvetica,sans-Serif" font-size="10.00">/SquadOrder.h</text>
</a>
</g>
</g>
<!-- Node12&#45;&gt;Node14 -->
<g id="edge19" class="edge">
<title>Node12&#45;&gt;Node14</title>
<path fill="none" stroke="midnightblue" d="M465.73,-273.7C408.66,-265.81 328.08,-252.32 259.5,-232 198.38,-213.89 130.44,-182.6 93.38,-164.51"/>
<polygon fill="midnightblue" stroke="midnightblue" points="465.37,-277.18 475.75,-275.06 466.31,-270.24 465.37,-277.18"/>
</g>
<!-- Node16 -->
<g id="node16" class="node">
<title>Node16</title>
<g id="a_node16"><a xlink:href="_armored_unit_8h.html" target="_top" xlink:title=" ">
<polygon fill="white" stroke="black" points="406,-134.5 406,-164.5 533,-164.5 533,-134.5 406,-134.5"/>
<text text-anchor="start" x="414" y="-152.5" font-family="Helvetica,sans-Serif" font-size="10.00">include/GameLogic/Units</text>
<text text-anchor="middle" x="469.5" y="-141.5" font-family="Helvetica,sans-Serif" font-size="10.00">/ArmoredUnit.h</text>
</a>
</g>
</g>
<!-- Node12&#45;&gt;Node16 -->
<g id="edge21" class="edge">
<title>Node12&#45;&gt;Node16</title>
<path fill="none" stroke="midnightblue" d="M527.07,-259.31C522.48,-250.74 517.24,-240.93 512.5,-232 499.97,-208.41 485.49,-180.91 476.93,-164.65"/>
<polygon fill="midnightblue" stroke="midnightblue" points="524.11,-261.2 531.91,-268.36 530.28,-257.89 524.11,-261.2"/>
</g>
<!-- Node12&#45;&gt;Node21 -->
<g id="edge26" class="edge">
<title>Node12&#45;&gt;Node21</title>
<path fill="none" stroke="midnightblue" d="M613.2,-273.22C714.7,-260.43 895.83,-237.61 991.78,-225.53"/>
<polygon fill="midnightblue" stroke="midnightblue" points="612.51,-269.77 603.03,-274.5 613.39,-276.72 612.51,-269.77"/>
</g>
<!-- Node32 -->
<g id="node32" class="node">
<title>Node32</title>
<g id="a_node32"><a xlink:href="_land_unit_8h.html" target="_top" xlink:title=" ">
<polygon fill="white" stroke="black" points="671,-201.5 671,-231.5 798,-231.5 798,-201.5 671,-201.5"/>
<text text-anchor="start" x="679" y="-219.5" font-family="Helvetica,sans-Serif" font-size="10.00">include/GameLogic/Units</text>
<text text-anchor="middle" x="734.5" y="-208.5" font-family="Helvetica,sans-Serif" font-size="10.00">/LandUnit.h</text>
</a>
</g>
</g>
<!-- Node12&#45;&gt;Node32 -->
<g id="edge47" class="edge">
<title>Node12&#45;&gt;Node32</title>
<path fill="none" stroke="midnightblue" d="M591.32,-265.23C622.86,-254.71 662.65,-241.45 692.27,-231.58"/>
<polygon fill="midnightblue" stroke="midnightblue" points="590.19,-261.91 581.81,-268.4 592.41,-268.55 590.19,-261.91"/>
</g>
<!-- Node34 -->
<g id="node34" class="node">
<title>Node34</title>
<g id="a_node34"><a xlink:href="_transport_unit_8h.html" target="_top" xlink:title=" ">
<polygon fill="white" stroke="black" points="522,-201.5 522,-231.5 649,-231.5 649,-201.5 522,-201.5"/>
<text text-anchor="start" x="530" y="-219.5" font-family="Helvetica,sans-Serif" font-size="10.00">include/GameLogic/Units</text>
<text text-anchor="middle" x="585.5" y="-208.5" font-family="Helvetica,sans-Serif" font-size="10.00">/TransportUnit.h</text>
</a>
</g>
</g>
<!-- Node12&#45;&gt;Node34 -->
<g id="edge50" class="edge">
<title>Node12&#45;&gt;Node34</title>
<path fill="none" stroke="midnightblue" d="M555.31,-260.16C562.02,-250.68 569.63,-239.92 575.54,-231.58"/>
<polygon fill="midnightblue" stroke="midnightblue" points="552.4,-258.21 549.48,-268.4 558.12,-262.26 552.4,-258.21"/>
</g>
<!-- Node36 -->
<g id="node36" class="node">
<title>Node36</title>
<g id="a_node36"><a xlink:href="_unit_order_8h.html" target="_top" xlink:title=" ">
<polygon fill="white" stroke="black" points="269,-201.5 269,-231.5 396,-231.5 396,-201.5 269,-201.5"/>
<text text-anchor="start" x="277" y="-219.5" font-family="Helvetica,sans-Serif" font-size="10.00">include/GameLogic/Units</text>
<text text-anchor="middle" x="332.5" y="-208.5" font-family="Helvetica,sans-Serif" font-size="10.00">/UnitOrder.h</text>
</a>
</g>
</g>
<!-- Node12&#45;&gt;Node36 -->
<g id="edge54" class="edge">
<title>Node12&#45;&gt;Node36</title>
<path fill="none" stroke="midnightblue" d="M479.16,-265.44C444.53,-254.91 402.11,-241.55 371.76,-231.61"/>
<polygon fill="midnightblue" stroke="midnightblue" points="478.59,-268.93 489.17,-268.48 480.62,-262.23 478.59,-268.93"/>
</g>
<!-- Node15 -->
<g id="node15" class="node">
<title>Node15</title>
<g id="a_node15"><a xlink:href="_squad_order_8cpp.html" target="_top" xlink:title=" ">
<polygon fill="white" stroke="black" points="8.5,-67.5 8.5,-97.5 122.5,-97.5 122.5,-67.5 8.5,-67.5"/>
<text text-anchor="start" x="16.5" y="-85.5" font-family="Helvetica,sans-Serif" font-size="10.00">src/GameLogic/Squad</text>
<text text-anchor="middle" x="65.5" y="-74.5" font-family="Helvetica,sans-Serif" font-size="10.00">/SquadOrder.cpp</text>
</a>
</g>
</g>
<!-- Node14&#45;&gt;Node15 -->
<g id="edge20" class="edge">
<title>Node14&#45;&gt;Node15</title>
<path fill="none" stroke="midnightblue" d="M65.5,-124.11C65.5,-115.15 65.5,-105.32 65.5,-97.58"/>
<polygon fill="midnightblue" stroke="midnightblue" points="62,-124.4 65.5,-134.4 69,-124.4 62,-124.4"/>
</g>
<!-- Node17 -->
<g id="node17" class="node">
<title>Node17</title>
<g id="a_node17"><a xlink:href="_armored_unit_8cpp.html" target="_top" xlink:title=" ">
<polygon fill="white" stroke="black" points="414.5,-67.5 414.5,-97.5 524.5,-97.5 524.5,-67.5 414.5,-67.5"/>
<text text-anchor="start" x="422.5" y="-85.5" font-family="Helvetica,sans-Serif" font-size="10.00">src/GameLogic/Units</text>
<text text-anchor="middle" x="469.5" y="-74.5" font-family="Helvetica,sans-Serif" font-size="10.00">/ArmoredUnit.cpp</text>
</a>
</g>
</g>
<!-- Node16&#45;&gt;Node17 -->
<g id="edge22" class="edge">
<title>Node16&#45;&gt;Node17</title>
<path fill="none" stroke="midnightblue" d="M469.5,-124.11C469.5,-115.15 469.5,-105.32 469.5,-97.58"/>
<polygon fill="midnightblue" stroke="midnightblue" points="466,-124.4 469.5,-134.4 473,-124.4 466,-124.4"/>
</g>
<!-- Node18 -->
<g id="node18" class="node">
<title>Node18</title>
<g id="a_node18"><a xlink:href="_armored_unit_factory_8h.html" target="_top" xlink:title=" ">
<polygon fill="white" stroke="black" points="828,-67.5 828,-97.5 955,-97.5 955,-67.5 828,-67.5"/>
<text text-anchor="start" x="836" y="-85.5" font-family="Helvetica,sans-Serif" font-size="10.00">include/GameLogic/Units</text>
<text text-anchor="middle" x="891.5" y="-74.5" font-family="Helvetica,sans-Serif" font-size="10.00">/ArmoredUnitFactory.h</text>
</a>
</g>
</g>
<!-- Node16&#45;&gt;Node18 -->
<g id="edge23" class="edge">
<title>Node16&#45;&gt;Node18</title>
<path fill="none" stroke="midnightblue" d="M543.35,-133.94C666.31,-114.14 699.65,-117.53 818.5,-98 821.56,-97.5 824.69,-96.96 827.84,-96.4"/>
<polygon fill="midnightblue" stroke="midnightblue" points="542.46,-130.53 533.16,-135.6 543.59,-137.44 542.46,-130.53"/>
</g>
<!-- Node19 -->
<g id="node19" class="node">
<title>Node19</title>
<g id="a_node19"><a xlink:href="_all_units_8cpp.html" target="_top" xlink:title=" ">
<polygon fill="white" stroke="black" points="1043.5,-0.5 1043.5,-30.5 1153.5,-30.5 1153.5,-0.5 1043.5,-0.5"/>
<text text-anchor="start" x="1051.5" y="-18.5" font-family="Helvetica,sans-Serif" font-size="10.00">src/GameLogic/Units</text>
<text text-anchor="middle" x="1098.5" y="-7.5" font-family="Helvetica,sans-Serif" font-size="10.00">/AllUnits.cpp</text>
</a>
</g>
</g>
<!-- Node18&#45;&gt;Node19 -->
<g id="edge24" class="edge">
<title>Node18&#45;&gt;Node19</title>
<path fill="none" stroke="midnightblue" d="M945.82,-64.44C979.37,-53.91 1021.91,-40.55 1053.56,-30.61"/>
<polygon fill="midnightblue" stroke="midnightblue" points="944.65,-61.14 936.16,-67.48 946.75,-67.82 944.65,-61.14"/>
</g>
<!-- Node20 -->
<g id="node20" class="node">
<title>Node20</title>
<g id="a_node20"><a xlink:href="_armored_unit_factory_8cpp.html" target="_top" xlink:title=" ">
<polygon fill="white" stroke="black" points="829,-0.5 829,-30.5 954,-30.5 954,-0.5 829,-0.5"/>
<text text-anchor="start" x="837" y="-18.5" font-family="Helvetica,sans-Serif" font-size="10.00">src/GameLogic/Units</text>
<text text-anchor="middle" x="891.5" y="-7.5" font-family="Helvetica,sans-Serif" font-size="10.00">/ArmoredUnitFactory.cpp</text>
</a>
</g>
</g>
<!-- Node18&#45;&gt;Node20 -->
<g id="edge25" class="edge">
<title>Node18&#45;&gt;Node20</title>
<path fill="none" stroke="midnightblue" d="M891.5,-57.11C891.5,-48.15 891.5,-38.32 891.5,-30.58"/>
<polygon fill="midnightblue" stroke="midnightblue" points="888,-57.4 891.5,-67.4 895,-57.4 888,-57.4"/>
</g>
<!-- Node21&#45;&gt;Node18 -->
<g id="edge39" class="edge">
<title>Node21&#45;&gt;Node18</title>
<path fill="none" stroke="midnightblue" d="M1025.19,-195.78C1011.83,-186.77 996.1,-175.72 982.5,-165 954.36,-142.8 923.71,-114.4 906.14,-97.65"/>
<polygon fill="midnightblue" stroke="midnightblue" points="1023.33,-198.74 1033.59,-201.38 1027.22,-192.92 1023.33,-198.74"/>
</g>
<!-- Node22 -->
<g id="node22" class="node">
<title>Node22</title>
<g id="a_node22"><a xlink:href="_factory_8cpp.html" target="_top" xlink:title=" ">
<polygon fill="white" stroke="black" points="1137.5,-134.5 1137.5,-164.5 1247.5,-164.5 1247.5,-134.5 1137.5,-134.5"/>
<text text-anchor="start" x="1145.5" y="-152.5" font-family="Helvetica,sans-Serif" font-size="10.00">src/GameLogic/Units</text>
<text text-anchor="middle" x="1192.5" y="-141.5" font-family="Helvetica,sans-Serif" font-size="10.00">/Factory.cpp</text>
</a>
</g>
</g>
<!-- Node21&#45;&gt;Node22 -->
<g id="edge27" class="edge">
<title>Node21&#45;&gt;Node22</title>
<path fill="none" stroke="midnightblue" d="M1094.51,-196.99C1116.22,-186.69 1142.83,-174.07 1162.83,-164.58"/>
<polygon fill="midnightblue" stroke="midnightblue" points="1092.76,-193.95 1085.23,-201.4 1095.76,-200.27 1092.76,-193.95"/>
</g>
<!-- Node23 -->
<g id="node23" class="node">
<title>Node23</title>
<g id="a_node23"><a xlink:href="_squad_template_8h.html" target="_top" xlink:title=" ">
<polygon fill="white" stroke="black" points="1449,-134.5 1449,-164.5 1580,-164.5 1580,-134.5 1449,-134.5"/>
<text text-anchor="start" x="1457" y="-152.5" font-family="Helvetica,sans-Serif" font-size="10.00">include/GameLogic/Squad</text>
<text text-anchor="middle" x="1514.5" y="-141.5" font-family="Helvetica,sans-Serif" font-size="10.00">/SquadTemplate.h</text>
</a>
</g>
</g>
<!-- Node21&#45;&gt;Node23 -->
<g id="edge28" class="edge">
<title>Node21&#45;&gt;Node23</title>
<path fill="none" stroke="midnightblue" d="M1129.25,-205.86C1239.96,-191.37 1436.68,-165.62 1440.5,-165 1443.21,-164.56 1445.98,-164.09 1448.77,-163.6"/>
<polygon fill="midnightblue" stroke="midnightblue" points="1128.6,-202.41 1119.14,-207.18 1129.51,-209.35 1128.6,-202.41"/>
</g>
<!-- Node27 -->
<g id="node27" class="node">
<title>Node27</title>
<g id="a_node27"><a xlink:href="_all_units_8h.html" target="_top" xlink:title=" ">
<polygon fill="white" stroke="black" points="1304,-134.5 1304,-164.5 1431,-164.5 1431,-134.5 1304,-134.5"/>
<text text-anchor="start" x="1312" y="-152.5" font-family="Helvetica,sans-Serif" font-size="10.00">include/GameLogic/Units</text>
<text text-anchor="middle" x="1367.5" y="-141.5" font-family="Helvetica,sans-Serif" font-size="10.00">/AllUnits.h</text>
</a>
</g>
</g>
<!-- Node21&#45;&gt;Node27 -->
<g id="edge33" class="edge">
<title>Node21&#45;&gt;Node27</title>
<path fill="none" stroke="midnightblue" d="M1129.05,-200.18C1182.14,-189.12 1253.13,-174.33 1303.81,-163.77"/>
<polygon fill="midnightblue" stroke="midnightblue" points="1128.09,-196.8 1119.01,-202.27 1129.52,-203.65 1128.09,-196.8"/>
</g>
<!-- Node28 -->
<g id="node28" class="node">
<title>Node28</title>
<g id="a_node28"><a xlink:href="_land_unit_factory_8h.html" target="_top" xlink:title=" ">
<polygon fill="white" stroke="black" points="808,-134.5 808,-164.5 935,-164.5 935,-134.5 808,-134.5"/>
<text text-anchor="start" x="816" y="-152.5" font-family="Helvetica,sans-Serif" font-size="10.00">include/GameLogic/Units</text>
<text text-anchor="middle" x="871.5" y="-141.5" font-family="Helvetica,sans-Serif" font-size="10.00">/LandUnitFactory.h</text>
</a>
</g>
</g>
<!-- Node21&#45;&gt;Node28 -->
<g id="edge40" class="edge">
<title>Node21&#45;&gt;Node28</title>
<path fill="none" stroke="midnightblue" d="M1005.83,-197.96C976.2,-187.48 939.06,-174.37 911.35,-164.58"/>
<polygon fill="midnightblue" stroke="midnightblue" points="1004.98,-201.37 1015.57,-201.4 1007.31,-194.76 1004.98,-201.37"/>
</g>
<!-- Node30 -->
<g id="node30" class="node">
<title>Node30</title>
<g id="a_node30"><a xlink:href="_transport_unit_factory_8h.html" target="_top" xlink:title=" ">
<polygon fill="white" stroke="black" points="992,-134.5 992,-164.5 1119,-164.5 1119,-134.5 992,-134.5"/>
<text text-anchor="start" x="1000" y="-152.5" font-family="Helvetica,sans-Serif" font-size="10.00">include/GameLogic/Units</text>
<text text-anchor="middle" x="1055.5" y="-141.5" font-family="Helvetica,sans-Serif" font-size="10.00">/TransportUnitFactory.h</text>
</a>
</g>
</g>
<!-- Node21&#45;&gt;Node30 -->
<g id="edge43" class="edge">
<title>Node21&#45;&gt;Node30</title>
<path fill="none" stroke="midnightblue" d="M1055.5,-191.11C1055.5,-182.15 1055.5,-172.32 1055.5,-164.58"/>
<polygon fill="midnightblue" stroke="midnightblue" points="1052,-191.4 1055.5,-201.4 1059,-191.4 1052,-191.4"/>
</g>
<!-- Node24 -->
<g id="node24" class="node">
<title>Node24</title>
<g id="a_node24"><a xlink:href="_squad_template_8cpp.html" target="_top" xlink:title=" ">
<polygon fill="white" stroke="black" points="1388.5,-67.5 1388.5,-97.5 1502.5,-97.5 1502.5,-67.5 1388.5,-67.5"/>
<text text-anchor="start" x="1396.5" y="-85.5" font-family="Helvetica,sans-Serif" font-size="10.00">src/GameLogic/Squad</text>
<text text-anchor="middle" x="1445.5" y="-74.5" font-family="Helvetica,sans-Serif" font-size="10.00">/SquadTemplate.cpp</text>
</a>
</g>
</g>
<!-- Node23&#45;&gt;Node24 -->
<g id="edge29" class="edge">
<title>Node23&#45;&gt;Node24</title>
<path fill="none" stroke="midnightblue" d="M1492.01,-127.31C1481.66,-117.56 1469.66,-106.26 1460.44,-97.58"/>
<polygon fill="midnightblue" stroke="midnightblue" points="1489.85,-130.09 1499.53,-134.4 1494.65,-124.99 1489.85,-130.09"/>
</g>
<!-- Node25 -->
<g id="node25" class="node">
<title>Node25</title>
<g id="a_node25"><a xlink:href="_all_squad_templates_8h.html" target="_top" xlink:title=" ">
<polygon fill="white" stroke="black" points="1521,-67.5 1521,-97.5 1652,-97.5 1652,-67.5 1521,-67.5"/>
<text text-anchor="start" x="1529" y="-85.5" font-family="Helvetica,sans-Serif" font-size="10.00">include/GameLogic/Squad</text>
<text text-anchor="middle" x="1586.5" y="-74.5" font-family="Helvetica,sans-Serif" font-size="10.00">/AllSquadTemplates.h</text>
</a>
</g>
</g>
<!-- Node23&#45;&gt;Node25 -->
<g id="edge30" class="edge">
<title>Node23&#45;&gt;Node25</title>
<path fill="none" stroke="midnightblue" d="M1537.65,-127.6C1548.52,-117.78 1561.2,-106.34 1570.91,-97.58"/>
<polygon fill="midnightblue" stroke="midnightblue" points="1535.2,-125.1 1530.12,-134.4 1539.89,-130.29 1535.2,-125.1"/>
</g>
<!-- Node25&#45;&gt;Node4 -->
<g id="edge32" class="edge">
<title>Node25&#45;&gt;Node4</title>
<path fill="none" stroke="midnightblue" d="M1633.45,-101.85C1677.12,-122.35 1735.5,-160.12 1735.5,-215.5 1735.5,-351.5 1735.5,-351.5 1735.5,-351.5 1735.5,-400.13 1705.32,-409.96 1662.5,-433 1652.03,-438.63 1508.76,-458.24 1422.69,-469.63"/>
<polygon fill="midnightblue" stroke="midnightblue" points="1634.65,-98.55 1624.1,-97.61 1631.76,-104.92 1634.65,-98.55"/>
</g>
<!-- Node26 -->
<g id="node26" class="node">
<title>Node26</title>
<g id="a_node26"><a xlink:href="_all_squad_templates_8cpp.html" target="_top" xlink:title=" ">
<polygon fill="white" stroke="black" points="1525.5,-0.5 1525.5,-30.5 1647.5,-30.5 1647.5,-0.5 1525.5,-0.5"/>
<text text-anchor="start" x="1533.5" y="-18.5" font-family="Helvetica,sans-Serif" font-size="10.00">src/GameLogic/Squad</text>
<text text-anchor="middle" x="1586.5" y="-7.5" font-family="Helvetica,sans-Serif" font-size="10.00">/AllSquadTemplates.cpp</text>
</a>
</g>
</g>
<!-- Node25&#45;&gt;Node26 -->
<g id="edge31" class="edge">
<title>Node25&#45;&gt;Node26</title>
<path fill="none" stroke="midnightblue" d="M1586.5,-57.11C1586.5,-48.15 1586.5,-38.32 1586.5,-30.58"/>
<polygon fill="midnightblue" stroke="midnightblue" points="1583,-57.4 1586.5,-67.4 1590,-57.4 1583,-57.4"/>
</g>
<!-- Node27&#45;&gt;Node4 -->
<g id="edge37" class="edge">
<title>Node27&#45;&gt;Node4</title>
<path fill="none" stroke="midnightblue" d="M1403.07,-170.31C1413.93,-178.31 1424.55,-188.61 1430.5,-201 1436.46,-213.42 1431.01,-218.23 1430.5,-232 1429.39,-261.84 1431.91,-269.84 1425.5,-299 1410.54,-367.06 1375.04,-443.91 1362.76,-469.33"/>
<polygon fill="midnightblue" stroke="midnightblue" points="1405.03,-167.41 1394.8,-164.64 1401.07,-173.18 1405.03,-167.41"/>
</g>
<!-- Node27&#45;&gt;Node11 -->
<g id="edge34" class="edge">
<title>Node27&#45;&gt;Node11</title>
<path fill="none" stroke="midnightblue" d="M1339.12,-128.45C1324.97,-118.45 1308.19,-106.6 1295.42,-97.58"/>
<polygon fill="midnightblue" stroke="midnightblue" points="1337.35,-131.48 1347.54,-134.4 1341.39,-125.77 1337.35,-131.48"/>
</g>
<!-- Node27&#45;&gt;Node19 -->
<g id="edge36" class="edge">
<title>Node27&#45;&gt;Node19</title>
<path fill="none" stroke="midnightblue" d="M1366.16,-124.44C1363.82,-106.08 1357.64,-81.54 1341.5,-67 1314.37,-42.55 1216.64,-28.34 1153.69,-21.53"/>
<polygon fill="midnightblue" stroke="midnightblue" points="1362.68,-124.8 1367.14,-134.41 1369.65,-124.12 1362.68,-124.8"/>
</g>
<!-- Node27&#45;&gt;Node24 -->
<g id="edge35" class="edge">
<title>Node27&#45;&gt;Node24</title>
<path fill="none" stroke="midnightblue" d="M1392.24,-127.88C1404.09,-118.01 1417.98,-106.43 1428.61,-97.58"/>
<polygon fill="midnightblue" stroke="midnightblue" points="1389.87,-125.31 1384.42,-134.4 1394.35,-130.68 1389.87,-125.31"/>
</g>
<!-- Node27&#45;&gt;Node25 -->
<g id="edge38" class="edge">
<title>Node27&#45;&gt;Node25</title>
<path fill="none" stroke="midnightblue" d="M1424.51,-131.58C1460.08,-121.02 1505.33,-107.59 1538.96,-97.61"/>
<polygon fill="midnightblue" stroke="midnightblue" points="1423.34,-128.28 1414.75,-134.48 1425.33,-134.99 1423.34,-128.28"/>
</g>
<!-- Node28&#45;&gt;Node19 -->
<g id="edge41" class="edge">
<title>Node28&#45;&gt;Node19</title>
<path fill="none" stroke="midnightblue" d="M909.09,-129.72C926.1,-120.75 946.22,-109.49 963.5,-98 981.94,-85.74 983.95,-79.1 1002.5,-67 1023.64,-53.21 1048.95,-40.02 1068.27,-30.58"/>
<polygon fill="midnightblue" stroke="midnightblue" points="907.26,-126.73 900,-134.45 910.49,-132.94 907.26,-126.73"/>
</g>
<!-- Node29 -->
<g id="node29" class="node">
<title>Node29</title>
<g id="a_node29"><a xlink:href="_land_unit_factory_8cpp.html" target="_top" xlink:title=" ">
<polygon fill="white" stroke="black" points="699.5,-67.5 699.5,-97.5 809.5,-97.5 809.5,-67.5 699.5,-67.5"/>
<text text-anchor="start" x="707.5" y="-85.5" font-family="Helvetica,sans-Serif" font-size="10.00">src/GameLogic/Units</text>
<text text-anchor="middle" x="754.5" y="-74.5" font-family="Helvetica,sans-Serif" font-size="10.00">/LandUnitFactory.cpp</text>
</a>
</g>
</g>
<!-- Node28&#45;&gt;Node29 -->
<g id="edge42" class="edge">
<title>Node28&#45;&gt;Node29</title>
<path fill="none" stroke="midnightblue" d="M837.18,-129.44C818.83,-119.24 796.62,-106.9 779.84,-97.58"/>
<polygon fill="midnightblue" stroke="midnightblue" points="835.67,-132.6 846.11,-134.4 839.07,-126.48 835.67,-132.6"/>
</g>
<!-- Node30&#45;&gt;Node18 -->
<g id="edge46" class="edge">
<title>Node30&#45;&gt;Node18</title>
<path fill="none" stroke="midnightblue" d="M1010.54,-130.68C984.24,-120.26 951.5,-107.28 927.02,-97.58"/>
<polygon fill="midnightblue" stroke="midnightblue" points="1009.33,-133.97 1019.91,-134.4 1011.91,-127.46 1009.33,-133.97"/>
</g>
<!-- Node30&#45;&gt;Node19 -->
<g id="edge44" class="edge">
<title>Node30&#45;&gt;Node19</title>
<path fill="none" stroke="midnightblue" d="M1112.71,-130.03C1127.22,-122.47 1141.08,-112.09 1149.5,-98 1163.81,-74.08 1137.74,-46.68 1117.89,-30.53"/>
<polygon fill="midnightblue" stroke="midnightblue" points="1111.13,-126.91 1103.62,-134.38 1114.16,-133.22 1111.13,-126.91"/>
</g>
<!-- Node31 -->
<g id="node31" class="node">
<title>Node31</title>
<g id="a_node31"><a xlink:href="_transport_unit_factory_8cpp.html" target="_top" xlink:title=" ">
<polygon fill="white" stroke="black" points="1012,-67.5 1012,-97.5 1141,-97.5 1141,-67.5 1012,-67.5"/>
<text text-anchor="start" x="1020" y="-85.5" font-family="Helvetica,sans-Serif" font-size="10.00">src/GameLogic/Units</text>
<text text-anchor="middle" x="1076.5" y="-74.5" font-family="Helvetica,sans-Serif" font-size="10.00">/TransportUnitFactory.cpp</text>
</a>
</g>
</g>
<!-- Node30&#45;&gt;Node31 -->
<g id="edge45" class="edge">
<title>Node30&#45;&gt;Node31</title>
<path fill="none" stroke="midnightblue" d="M1063.19,-124.7C1066.13,-115.59 1069.39,-105.49 1071.95,-97.58"/>
<polygon fill="midnightblue" stroke="midnightblue" points="1059.8,-123.8 1060.06,-134.4 1066.46,-125.96 1059.8,-123.8"/>
</g>
<!-- Node32&#45;&gt;Node28 -->
<g id="edge49" class="edge">
<title>Node32&#45;&gt;Node28</title>
<path fill="none" stroke="midnightblue" d="M773.51,-196.99C795.22,-186.69 821.83,-174.07 841.83,-164.58"/>
<polygon fill="midnightblue" stroke="midnightblue" points="771.76,-193.95 764.23,-201.4 774.76,-200.27 771.76,-193.95"/>
</g>
<!-- Node33 -->
<g id="node33" class="node">
<title>Node33</title>
<g id="a_node33"><a xlink:href="_land_unit_8cpp.html" target="_top" xlink:title=" ">
<polygon fill="white" stroke="black" points="679.5,-134.5 679.5,-164.5 789.5,-164.5 789.5,-134.5 679.5,-134.5"/>
<text text-anchor="start" x="687.5" y="-152.5" font-family="Helvetica,sans-Serif" font-size="10.00">src/GameLogic/Units</text>
<text text-anchor="middle" x="734.5" y="-141.5" font-family="Helvetica,sans-Serif" font-size="10.00">/LandUnit.cpp</text>
</a>
</g>
</g>
<!-- Node32&#45;&gt;Node33 -->
<g id="edge48" class="edge">
<title>Node32&#45;&gt;Node33</title>
<path fill="none" stroke="midnightblue" d="M734.5,-191.11C734.5,-182.15 734.5,-172.32 734.5,-164.58"/>
<polygon fill="midnightblue" stroke="midnightblue" points="731,-191.4 734.5,-201.4 738,-191.4 731,-191.4"/>
</g>
<!-- Node34&#45;&gt;Node16 -->
<g id="edge52" class="edge">
<title>Node34&#45;&gt;Node16</title>
<path fill="none" stroke="midnightblue" d="M551.23,-196.3C533.08,-186.12 511.18,-173.85 494.62,-164.58"/>
<polygon fill="midnightblue" stroke="midnightblue" points="549.9,-199.56 560.33,-201.4 553.32,-193.45 549.9,-199.56"/>
</g>
<!-- Node34&#45;&gt;Node30 -->
<g id="edge53" class="edge">
<title>Node34&#45;&gt;Node30</title>
<path fill="none" stroke="midnightblue" d="M659.25,-201.36C660,-201.24 660.75,-201.12 661.5,-201 786.28,-181.15 818.18,-181.11 943.5,-165 959.15,-162.99 976.04,-160.81 991.83,-158.76"/>
<polygon fill="midnightblue" stroke="midnightblue" points="658.59,-197.92 649.31,-203.03 659.75,-204.83 658.59,-197.92"/>
</g>
<!-- Node35 -->
<g id="node35" class="node">
<title>Node35</title>
<g id="a_node35"><a xlink:href="_transport_unit_8cpp.html" target="_top" xlink:title=" ">
<polygon fill="white" stroke="black" points="551.5,-134.5 551.5,-164.5 661.5,-164.5 661.5,-134.5 551.5,-134.5"/>
<text text-anchor="start" x="559.5" y="-152.5" font-family="Helvetica,sans-Serif" font-size="10.00">src/GameLogic/Units</text>
<text text-anchor="middle" x="606.5" y="-141.5" font-family="Helvetica,sans-Serif" font-size="10.00">/TransportUnit.cpp</text>
</a>
</g>
</g>
<!-- Node34&#45;&gt;Node35 -->
<g id="edge51" class="edge">
<title>Node34&#45;&gt;Node35</title>
<path fill="none" stroke="midnightblue" d="M593.19,-191.7C596.13,-182.59 599.39,-172.49 601.95,-164.58"/>
<polygon fill="midnightblue" stroke="midnightblue" points="589.8,-190.8 590.06,-201.4 596.46,-192.96 589.8,-190.8"/>
</g>
<!-- Node36&#45;&gt;Node12 -->
<g id="edge58" class="edge">
<title>Node36&#45;&gt;Node12</title>
<path fill="none" stroke="midnightblue" d="M393.01,-234.61C427.61,-245.14 469.96,-258.47 500.26,-268.4"/>
<polygon fill="midnightblue" stroke="midnightblue" points="393.59,-231.13 383,-231.58 391.56,-237.83 393.59,-231.13"/>
</g>
<!-- Node36&#45;&gt;Node13 -->
<g id="edge55" class="edge">
<title>Node36&#45;&gt;Node13</title>
<path fill="none" stroke="midnightblue" d="M332.5,-191.11C332.5,-182.15 332.5,-172.32 332.5,-164.58"/>
<polygon fill="midnightblue" stroke="midnightblue" points="329,-191.4 332.5,-201.4 336,-191.4 329,-191.4"/>
</g>
<!-- Node36&#45;&gt;Node14 -->
<g id="edge57" class="edge">
<title>Node36&#45;&gt;Node14</title>
<path fill="none" stroke="midnightblue" d="M264.93,-199.05C221.28,-188.43 165.08,-174.74 123.46,-164.61"/>
<polygon fill="midnightblue" stroke="midnightblue" points="264.35,-202.51 274.89,-201.48 266.01,-195.71 264.35,-202.51"/>
</g>
<!-- Node37 -->
<g id="node37" class="node">
<title>Node37</title>
<g id="a_node37"><a xlink:href="_unit_order_8cpp.html" target="_top" xlink:title=" ">
<polygon fill="white" stroke="black" points="149.5,-134.5 149.5,-164.5 259.5,-164.5 259.5,-134.5 149.5,-134.5"/>
<text text-anchor="start" x="157.5" y="-152.5" font-family="Helvetica,sans-Serif" font-size="10.00">src/GameLogic/Units</text>
<text text-anchor="middle" x="204.5" y="-141.5" font-family="Helvetica,sans-Serif" font-size="10.00">/UnitOrder.cpp</text>
</a>
</g>
</g>
<!-- Node36&#45;&gt;Node37 -->
<g id="edge56" class="edge">
<title>Node36&#45;&gt;Node37</title>
<path fill="none" stroke="midnightblue" d="M295.78,-196.85C275.54,-186.58 250.83,-174.03 232.22,-164.58"/>
<polygon fill="midnightblue" stroke="midnightblue" points="294.22,-199.99 304.73,-201.4 297.39,-193.75 294.22,-199.99"/>
</g>
<!-- Node39 -->
<g id="node39" class="node">
<title>Node39</title>
<g id="a_node39"><a xlink:href="_game_logic_2_squad_2_action_8cpp.html" target="_top" xlink:title=" ">
<polygon fill="white" stroke="black" points="1307.5,-201.5 1307.5,-231.5 1421.5,-231.5 1421.5,-201.5 1307.5,-201.5"/>
<text text-anchor="start" x="1315.5" y="-219.5" font-family="Helvetica,sans-Serif" font-size="10.00">src/GameLogic/Squad</text>
<text text-anchor="middle" x="1364.5" y="-208.5" font-family="Helvetica,sans-Serif" font-size="10.00">/Action.cpp</text>
</a>
</g>
</g>
<!-- Node38&#45;&gt;Node39 -->
<g id="edge60" class="edge">
<title>Node38&#45;&gt;Node39</title>
<path fill="none" stroke="midnightblue" d="M1358.81,-263.74C1360.07,-253.49 1361.61,-241 1362.77,-231.59"/>
<polygon fill="midnightblue" stroke="midnightblue" points="1355.33,-263.38 1357.58,-273.73 1362.27,-264.24 1355.33,-263.38"/>
</g>
<!-- Node40 -->
<g id="node40" class="node">
<title>Node40</title>
<g id="a_node40"><a xlink:href="pathfinding_8cpp.html" target="_top" xlink:title=" ">
<polygon fill="white" stroke="black" points="1176,-207 1176,-226 1289,-226 1289,-207 1176,-207"/>
<text text-anchor="middle" x="1232.5" y="-214" font-family="Helvetica,sans-Serif" font-size="10.00">src/util/pathfinding.cpp</text>
</a>
</g>
</g>
<!-- Node38&#45;&gt;Node40 -->
<g id="edge61" class="edge">
<title>Node38&#45;&gt;Node40</title>
<path fill="none" stroke="midnightblue" d="M1330.94,-269.1C1306.39,-256.23 1270.01,-237.16 1249.03,-226.17"/>
<polygon fill="midnightblue" stroke="midnightblue" points="1329.55,-272.33 1340.03,-273.87 1332.8,-266.13 1329.55,-272.33"/>
</g>
<!-- Node41&#45;&gt;Node4 -->
<g id="edge67" class="edge">
<title>Node41&#45;&gt;Node4</title>
<path fill="none" stroke="midnightblue" d="M1388.08,-517.14C1380.59,-507.74 1371.56,-496.4 1365.47,-488.75"/>
<polygon fill="midnightblue" stroke="midnightblue" points="1385.43,-519.44 1394.4,-525.08 1390.91,-515.08 1385.43,-519.44"/>
</g>
<!-- Node42 -->
<g id="node42" class="node">
<title>Node42</title>
<g id="a_node42"><a xlink:href="geometry_8cpp.html" target="_top" xlink:title=" ">
<polygon fill="white" stroke="black" points="1441,-469.5 1441,-488.5 1548,-488.5 1548,-469.5 1441,-469.5"/>
<text text-anchor="middle" x="1494.5" y="-476.5" font-family="Helvetica,sans-Serif" font-size="10.00">src/util/geometry.cpp</text>
</a>
</g>
</g>
<!-- Node41&#45;&gt;Node42 -->
<g id="edge66" class="edge">
<title>Node41&#45;&gt;Node42</title>
<path fill="none" stroke="midnightblue" d="M1425.31,-520.18C1442.42,-510.24 1464.97,-497.15 1479.6,-488.65"/>
<polygon fill="midnightblue" stroke="midnightblue" points="1423.33,-517.28 1416.44,-525.32 1426.85,-523.33 1423.33,-517.28"/>
</g>
</g>
</svg>
