<?xml version="1.0" encoding="UTF-8" standalone="no"?>
<!DOCTYPE svg PUBLIC "-//W3C//DTD SVG 1.1//EN"
 "http://www.w3.org/Graphics/SVG/1.1/DTD/svg11.dtd">
<!-- Generated by graphviz version 2.47.0 (20210407.0042)
 -->
<!-- Title: include/util/cellgen.h Pages: 1 -->
<svg width="1308pt" height="609pt"
 viewBox="0.00 0.00 1308.00 609.00" xmlns="http://www.w3.org/2000/svg" xmlns:xlink="http://www.w3.org/1999/xlink">
<g id="graph0" class="graph" transform="scale(1 1) rotate(0) translate(4 605)">
<title>include/util/cellgen.h</title>
<polygon fill="white" stroke="transparent" points="-4,4 -4,-605 1304,-605 1304,4 -4,4"/>
<!-- Node1 -->
<g id="node1" class="node">
<title>Node1</title>
<g id="a_node1"><a xlink:title=" ">
<polygon fill="#bfbfbf" stroke="black" points="656.5,-581.5 656.5,-600.5 760.5,-600.5 760.5,-581.5 656.5,-581.5"/>
<text text-anchor="middle" x="708.5" y="-588.5" font-family="Helvetica,sans-Serif" font-size="10.00">include/util/cellgen.h</text>
</a>
</g>
</g>
<!-- Node2 -->
<g id="node2" class="node">
<title>Node2</title>
<g id="a_node2"><a xlink:href="main_8cpp.html" target="_top" xlink:title=" ">
<polygon fill="white" stroke="black" points="407.5,-408 407.5,-427 479.5,-427 479.5,-408 407.5,-408"/>
<text text-anchor="middle" x="443.5" y="-415" font-family="Helvetica,sans-Serif" font-size="10.00">src/main.cpp</text>
</a>
</g>
</g>
<!-- Node1&#45;&gt;Node2 -->
<g id="edge1" class="edge">
<title>Node1&#45;&gt;Node2</title>
<path fill="none" stroke="midnightblue" d="M686.74,-575.92C633.77,-541.64 499.4,-454.67 456.72,-427.06"/>
<polygon fill="midnightblue" stroke="midnightblue" points="685.06,-579 695.36,-581.5 688.86,-573.12 685.06,-579"/>
</g>
<!-- Node3 -->
<g id="node3" class="node">
<title>Node3</title>
<g id="a_node3"><a xlink:href="cellgen_8cpp.html" target="_top" xlink:title=" ">
<polygon fill="white" stroke="black" points="826.5,-525.5 826.5,-544.5 924.5,-544.5 924.5,-525.5 826.5,-525.5"/>
<text text-anchor="middle" x="875.5" y="-532.5" font-family="Helvetica,sans-Serif" font-size="10.00">src/util/cellgen.cpp</text>
</a>
</g>
</g>
<!-- Node1&#45;&gt;Node3 -->
<g id="edge2" class="edge">
<title>Node1&#45;&gt;Node3</title>
<path fill="none" stroke="midnightblue" d="M744.67,-578.3C776.14,-568.13 820.99,-553.62 849.16,-544.52"/>
<polygon fill="midnightblue" stroke="midnightblue" points="743.4,-575.04 734.96,-581.44 745.55,-581.7 743.4,-575.04"/>
</g>
<!-- Node4 -->
<g id="node4" class="node">
<title>Node4</title>
<g id="a_node4"><a xlink:href="_cell_8h.html" target="_top" xlink:title=" ">
<polygon fill="white" stroke="black" points="658.5,-469.5 658.5,-488.5 786.5,-488.5 786.5,-469.5 658.5,-469.5"/>
<text text-anchor="middle" x="722.5" y="-476.5" font-family="Helvetica,sans-Serif" font-size="10.00">include/GameLogic/Cell.h</text>
</a>
</g>
</g>
<!-- Node1&#45;&gt;Node4 -->
<g id="edge3" class="edge">
<title>Node1&#45;&gt;Node4</title>
<path fill="none" stroke="midnightblue" d="M695.68,-572.67C687.6,-559.57 679.72,-541.14 685.5,-525 690.75,-510.34 703.08,-497.03 712.06,-488.76"/>
<polygon fill="midnightblue" stroke="midnightblue" points="692.91,-574.82 701.39,-581.16 698.71,-570.91 692.91,-574.82"/>
</g>
<!-- Node33 -->
<g id="node33" class="node">
<title>Node33</title>
<g id="a_node33"><a xlink:href="geometry_8h.html" target="_top" xlink:title=" ">
<polygon fill="white" stroke="black" points="695,-525.5 695,-544.5 808,-544.5 808,-525.5 695,-525.5"/>
<text text-anchor="middle" x="751.5" y="-532.5" font-family="Helvetica,sans-Serif" font-size="10.00">include/util/geometry.h</text>
</a>
</g>
</g>
<!-- Node1&#45;&gt;Node33 -->
<g id="edge51" class="edge">
<title>Node1&#45;&gt;Node33</title>
<path fill="none" stroke="midnightblue" d="M721.92,-573.14C729.41,-563.74 738.44,-552.4 744.53,-544.75"/>
<polygon fill="midnightblue" stroke="midnightblue" points="719.09,-571.08 715.6,-581.08 724.57,-575.44 719.09,-571.08"/>
</g>
<!-- Node4&#45;&gt;Node2 -->
<g id="edge5" class="edge">
<title>Node4&#45;&gt;Node2</title>
<path fill="none" stroke="midnightblue" d="M662.3,-467.67C615.94,-459.35 550.36,-446.8 493.5,-433 486.3,-431.25 478.58,-429.14 471.41,-427.07"/>
<polygon fill="midnightblue" stroke="midnightblue" points="661.73,-471.12 672.19,-469.43 662.96,-464.23 661.73,-471.12"/>
</g>
<!-- Node5 -->
<g id="node5" class="node">
<title>Node5</title>
<g id="a_node5"><a xlink:href="_cell_8cpp.html" target="_top" xlink:title=" ">
<polygon fill="white" stroke="black" points="1179,-408 1179,-427 1300,-427 1300,-408 1179,-408"/>
<text text-anchor="middle" x="1239.5" y="-415" font-family="Helvetica,sans-Serif" font-size="10.00">src/GameLogic/Cell.cpp</text>
</a>
</g>
</g>
<!-- Node4&#45;&gt;Node5 -->
<g id="edge4" class="edge">
<title>Node4&#45;&gt;Node5</title>
<path fill="none" stroke="midnightblue" d="M796.66,-469.02C961.54,-451.28 1005.05,-456.16 1164.5,-433 1175.79,-431.36 1187.95,-429.19 1199.14,-427.02"/>
<polygon fill="midnightblue" stroke="midnightblue" points="796.23,-465.54 786.66,-470.1 796.98,-472.5 796.23,-465.54"/>
</g>
<!-- Node6 -->
<g id="node6" class="node">
<title>Node6</title>
<g id="a_node6"><a xlink:href="_set_squad_path_8h.html" target="_top" xlink:title=" ">
<polygon fill="white" stroke="black" points="379,-268.5 379,-298.5 492,-298.5 492,-268.5 379,-268.5"/>
<text text-anchor="start" x="387" y="-286.5" font-family="Helvetica,sans-Serif" font-size="10.00">include/engine/actions</text>
<text text-anchor="middle" x="435.5" y="-275.5" font-family="Helvetica,sans-Serif" font-size="10.00">/SetSquadPath.h</text>
</a>
</g>
</g>
<!-- Node4&#45;&gt;Node6 -->
<g id="edge6" class="edge">
<title>Node4&#45;&gt;Node6</title>
<path fill="none" stroke="midnightblue" d="M648.18,-472.16C611.6,-466.46 568.49,-455.21 535.5,-433 483.24,-397.81 446.86,-328.84 436.97,-298.92"/>
<polygon fill="midnightblue" stroke="midnightblue" points="647.91,-475.66 658.31,-473.62 648.91,-468.73 647.91,-475.66"/>
</g>
<!-- Node9 -->
<g id="node9" class="node">
<title>Node9</title>
<g id="a_node9"><a xlink:href="_game_logic_2_squad_2_action_8h.html" target="_top" xlink:title=" ">
<polygon fill="white" stroke="black" points="554,-402.5 554,-432.5 685,-432.5 685,-402.5 554,-402.5"/>
<text text-anchor="start" x="562" y="-420.5" font-family="Helvetica,sans-Serif" font-size="10.00">include/GameLogic/Squad</text>
<text text-anchor="middle" x="619.5" y="-409.5" font-family="Helvetica,sans-Serif" font-size="10.00">/Action.h</text>
</a>
</g>
</g>
<!-- Node4&#45;&gt;Node9 -->
<g id="edge10" class="edge">
<title>Node4&#45;&gt;Node9</title>
<path fill="none" stroke="midnightblue" d="M698.74,-464.28C682.26,-454.75 660.37,-442.11 643.78,-432.52"/>
<polygon fill="midnightblue" stroke="midnightblue" points="697.33,-467.5 707.74,-469.48 700.83,-461.44 697.33,-467.5"/>
</g>
<!-- Node10 -->
<g id="node10" class="node">
<title>Node10</title>
<g id="a_node10"><a xlink:href="_squad_8h.html" target="_top" xlink:title=" ">
<polygon fill="white" stroke="black" points="554,-335.5 554,-365.5 685,-365.5 685,-335.5 554,-335.5"/>
<text text-anchor="start" x="562" y="-353.5" font-family="Helvetica,sans-Serif" font-size="10.00">include/GameLogic/Squad</text>
<text text-anchor="middle" x="619.5" y="-342.5" font-family="Helvetica,sans-Serif" font-size="10.00">/Squad.h</text>
</a>
</g>
</g>
<!-- Node4&#45;&gt;Node10 -->
<g id="edge48" class="edge">
<title>Node4&#45;&gt;Node10</title>
<path fill="none" stroke="midnightblue" d="M711.76,-459.62C705.75,-443.17 697.99,-419.09 684.5,-402 672.45,-386.74 654.53,-374.34 640.38,-365.65"/>
<polygon fill="midnightblue" stroke="midnightblue" points="708.59,-461.13 715.5,-469.17 715.11,-458.58 708.59,-461.13"/>
</g>
<!-- Node16 -->
<g id="node16" class="node">
<title>Node16</title>
<g id="a_node16"><a xlink:href="_factory_8h.html" target="_top" xlink:title=" ">
<polygon fill="white" stroke="black" points="694,-201.5 694,-231.5 821,-231.5 821,-201.5 694,-201.5"/>
<text text-anchor="start" x="702" y="-219.5" font-family="Helvetica,sans-Serif" font-size="10.00">include/GameLogic/Units</text>
<text text-anchor="middle" x="757.5" y="-208.5" font-family="Helvetica,sans-Serif" font-size="10.00">/Factory.h</text>
</a>
</g>
</g>
<!-- Node4&#45;&gt;Node16 -->
<g id="edge49" class="edge">
<title>Node4&#45;&gt;Node16</title>
<path fill="none" stroke="midnightblue" d="M725,-459.37C731.66,-409.8 749.72,-275.42 755.61,-231.56"/>
<polygon fill="midnightblue" stroke="midnightblue" points="721.53,-458.96 723.66,-469.33 728.47,-459.89 721.53,-458.96"/>
</g>
<!-- Node30 -->
<g id="node30" class="node">
<title>Node30</title>
<g id="a_node30"><a xlink:href="pathfinding_8h.html" target="_top" xlink:title=" ">
<polygon fill="white" stroke="black" points="810.5,-274 810.5,-293 930.5,-293 930.5,-274 810.5,-274"/>
<text text-anchor="middle" x="870.5" y="-281" font-family="Helvetica,sans-Serif" font-size="10.00">include/util/pathfinding.h</text>
</a>
</g>
</g>
<!-- Node4&#45;&gt;Node30 -->
<g id="edge50" class="edge">
<title>Node4&#45;&gt;Node30</title>
<path fill="none" stroke="midnightblue" d="M746.1,-463.87C758.24,-455.84 772.7,-445.01 783.5,-433 825.07,-386.79 856.52,-317.64 866.86,-293.33"/>
<polygon fill="midnightblue" stroke="midnightblue" points="743.93,-461.11 737.38,-469.44 747.69,-467.01 743.93,-461.11"/>
</g>
<!-- Node6&#45;&gt;Node4 -->
<g id="edge9" class="edge">
<title>Node6&#45;&gt;Node4</title>
<path fill="none" stroke="midnightblue" d="M452.09,-307.88C471.53,-340.96 505.94,-400.97 553.5,-433 584.7,-454.01 624.95,-465.21 658.41,-471.18"/>
<polygon fill="midnightblue" stroke="midnightblue" points="454.89,-305.73 446.77,-298.92 448.87,-309.31 454.89,-305.73"/>
</g>
<!-- Node7 -->
<g id="node7" class="node">
<title>Node7</title>
<g id="a_node7"><a xlink:href="engine_2_action_8cpp.html" target="_top" xlink:title=" ">
<polygon fill="white" stroke="black" points="39.5,-207 39.5,-226 149.5,-226 149.5,-207 39.5,-207"/>
<text text-anchor="middle" x="94.5" y="-214" font-family="Helvetica,sans-Serif" font-size="10.00">src/engine/Action.cpp</text>
</a>
</g>
</g>
<!-- Node6&#45;&gt;Node7 -->
<g id="edge7" class="edge">
<title>Node6&#45;&gt;Node7</title>
<path fill="none" stroke="midnightblue" d="M368.68,-271.14C312.48,-261.39 230.08,-246.63 158.5,-232 149.57,-230.18 139.97,-228.08 130.99,-226.05"/>
<polygon fill="midnightblue" stroke="midnightblue" points="368.41,-274.64 378.86,-272.9 369.61,-267.75 368.41,-274.64"/>
</g>
<!-- Node8 -->
<g id="node8" class="node">
<title>Node8</title>
<g id="a_node8"><a xlink:href="_set_squad_path_8cpp.html" target="_top" xlink:title=" ">
<polygon fill="white" stroke="black" points="168,-201.5 168,-231.5 269,-231.5 269,-201.5 168,-201.5"/>
<text text-anchor="start" x="176" y="-219.5" font-family="Helvetica,sans-Serif" font-size="10.00">src/engine/actions</text>
<text text-anchor="middle" x="218.5" y="-208.5" font-family="Helvetica,sans-Serif" font-size="10.00">/SetSquadPath.cpp</text>
</a>
</g>
</g>
<!-- Node6&#45;&gt;Node8 -->
<g id="edge8" class="edge">
<title>Node6&#45;&gt;Node8</title>
<path fill="none" stroke="midnightblue" d="M379.01,-265.58C343.77,-255.02 298.93,-241.59 265.61,-231.61"/>
<polygon fill="midnightblue" stroke="midnightblue" points="378.1,-268.96 388.68,-268.48 380.11,-262.25 378.1,-268.96"/>
</g>
<!-- Node9&#45;&gt;Node10 -->
<g id="edge11" class="edge">
<title>Node9&#45;&gt;Node10</title>
<path fill="none" stroke="midnightblue" d="M612.95,-392.4C612.51,-383.37 612.8,-373.41 613.83,-365.58"/>
<polygon fill="midnightblue" stroke="midnightblue" points="609.47,-392.74 613.82,-402.4 616.44,-392.13 609.47,-392.74"/>
</g>
<!-- Node10&#45;&gt;Node4 -->
<g id="edge14" class="edge">
<title>Node10&#45;&gt;Node4</title>
<path fill="none" stroke="midnightblue" d="M665.16,-370.69C678.78,-378.89 692.62,-389.48 702.5,-402 718.95,-422.84 726.88,-454.06 726.37,-469.17"/>
<polygon fill="midnightblue" stroke="midnightblue" points="666.71,-367.54 656.29,-365.65 663.26,-373.63 666.71,-367.54"/>
</g>
<!-- Node10&#45;&gt;Node6 -->
<g id="edge13" class="edge">
<title>Node10&#45;&gt;Node6</title>
<path fill="none" stroke="midnightblue" d="M569.83,-331.96C540.2,-321.48 503.06,-308.37 475.35,-298.58"/>
<polygon fill="midnightblue" stroke="midnightblue" points="568.98,-335.37 579.57,-335.4 571.31,-328.76 568.98,-335.37"/>
</g>
<!-- Node10&#45;&gt;Node9 -->
<g id="edge15" class="edge">
<title>Node10&#45;&gt;Node9</title>
<path fill="none" stroke="midnightblue" d="M626.04,-375.57C626.49,-384.6 626.21,-394.56 625.18,-402.4"/>
<polygon fill="midnightblue" stroke="midnightblue" points="629.53,-375.24 625.17,-365.58 622.55,-375.84 629.53,-375.24"/>
</g>
<!-- Node11 -->
<g id="node11" class="node">
<title>Node11</title>
<g id="a_node11"><a xlink:href="_squad_8cpp.html" target="_top" xlink:title=" ">
<polygon fill="white" stroke="black" points="762.5,-67.5 762.5,-97.5 876.5,-97.5 876.5,-67.5 762.5,-67.5"/>
<text text-anchor="start" x="770.5" y="-85.5" font-family="Helvetica,sans-Serif" font-size="10.00">src/GameLogic/Squad</text>
<text text-anchor="middle" x="819.5" y="-74.5" font-family="Helvetica,sans-Serif" font-size="10.00">/Squad.cpp</text>
</a>
</g>
</g>
<!-- Node10&#45;&gt;Node11 -->
<g id="edge12" class="edge">
<title>Node10&#45;&gt;Node11</title>
<path fill="none" stroke="midnightblue" d="M632.18,-326.19C636.61,-317.73 641.47,-308.03 645.5,-299 677.51,-227.33 654.75,-191.21 708.5,-134 724.37,-117.11 746.98,-105.42 767.65,-97.59"/>
<polygon fill="midnightblue" stroke="midnightblue" points="629.04,-324.65 627.44,-335.12 635.22,-327.93 629.04,-324.65"/>
</g>
<!-- Node12 -->
<g id="node12" class="node">
<title>Node12</title>
<g id="a_node12"><a xlink:href="_unit_8h.html" target="_top" xlink:title=" ">
<polygon fill="white" stroke="black" points="510,-268.5 510,-298.5 637,-298.5 637,-268.5 510,-268.5"/>
<text text-anchor="start" x="518" y="-286.5" font-family="Helvetica,sans-Serif" font-size="10.00">include/GameLogic/Units</text>
<text text-anchor="middle" x="573.5" y="-275.5" font-family="Helvetica,sans-Serif" font-size="10.00">/Unit.h</text>
</a>
</g>
</g>
<!-- Node10&#45;&gt;Node12 -->
<g id="edge16" class="edge">
<title>Node10&#45;&gt;Node12</title>
<path fill="none" stroke="midnightblue" d="M597.46,-327.45C590.1,-317.9 582.64,-307 577.79,-298.58"/>
<polygon fill="midnightblue" stroke="midnightblue" points="594.85,-329.79 603.84,-335.4 600.31,-325.41 594.85,-329.79"/>
</g>
<!-- Node10&#45;&gt;Node30 -->
<g id="edge45" class="edge">
<title>Node10&#45;&gt;Node30</title>
<path fill="none" stroke="midnightblue" d="M683.56,-332.91C732.72,-320.18 798.57,-303.13 837.57,-293.03"/>
<polygon fill="midnightblue" stroke="midnightblue" points="682.46,-329.58 673.65,-335.48 684.21,-336.36 682.46,-329.58"/>
</g>
<!-- Node12&#45;&gt;Node10 -->
<g id="edge18" class="edge">
<title>Node12&#45;&gt;Node10</title>
<path fill="none" stroke="midnightblue" d="M595.51,-306.52C602.87,-316.07 610.34,-326.96 615.2,-335.4"/>
<polygon fill="midnightblue" stroke="midnightblue" points="598.13,-304.19 589.14,-298.58 592.67,-308.57 598.13,-304.19"/>
</g>
<!-- Node13 -->
<g id="node13" class="node">
<title>Node13</title>
<g id="a_node13"><a xlink:href="_unit_8cpp.html" target="_top" xlink:title=" ">
<polygon fill="white" stroke="black" points="277.5,-134.5 277.5,-164.5 387.5,-164.5 387.5,-134.5 277.5,-134.5"/>
<text text-anchor="start" x="285.5" y="-152.5" font-family="Helvetica,sans-Serif" font-size="10.00">src/GameLogic/Units</text>
<text text-anchor="middle" x="332.5" y="-141.5" font-family="Helvetica,sans-Serif" font-size="10.00">/Unit.cpp</text>
</a>
</g>
</g>
<!-- Node12&#45;&gt;Node13 -->
<g id="edge17" class="edge">
<title>Node12&#45;&gt;Node13</title>
<path fill="none" stroke="midnightblue" d="M544.07,-262.79C530.63,-253.63 514.61,-242.47 500.5,-232 482.72,-218.81 480.69,-212.05 461.5,-201 435.13,-185.82 403.33,-173.31 377.89,-164.54"/>
<polygon fill="midnightblue" stroke="midnightblue" points="542.23,-265.78 552.47,-268.5 546.16,-259.99 542.23,-265.78"/>
</g>
<!-- Node14 -->
<g id="node14" class="node">
<title>Node14</title>
<g id="a_node14"><a xlink:href="_squad_order_8h.html" target="_top" xlink:title=" ">
<polygon fill="white" stroke="black" points="0,-134.5 0,-164.5 131,-164.5 131,-134.5 0,-134.5"/>
<text text-anchor="start" x="8" y="-152.5" font-family="Helvetica,sans-Serif" font-size="10.00">include/GameLogic/Squad</text>
<text text-anchor="middle" x="65.5" y="-141.5" font-family="Helvetica,sans-Serif" font-size="10.00">/SquadOrder.h</text>
</a>
</g>
</g>
<!-- Node12&#45;&gt;Node14 -->
<g id="edge19" class="edge">
<title>Node12&#45;&gt;Node14</title>
<path fill="none" stroke="midnightblue" d="M499.92,-267.97C416.7,-252.93 389.35,-265.62 316.5,-232 296.4,-222.72 297.41,-210.69 277.5,-201 264.19,-194.52 187.92,-177.09 130.65,-164.52"/>
<polygon fill="midnightblue" stroke="midnightblue" points="499.32,-271.42 509.8,-269.84 500.62,-264.54 499.32,-271.42"/>
</g>
<!-- Node12&#45;&gt;Node16 -->
<g id="edge21" class="edge">
<title>Node12&#45;&gt;Node16</title>
<path fill="none" stroke="midnightblue" d="M623.17,-264.96C652.8,-254.48 689.94,-241.37 717.65,-231.58"/>
<polygon fill="midnightblue" stroke="midnightblue" points="621.69,-261.76 613.43,-268.4 624.02,-268.37 621.69,-261.76"/>
</g>
<!-- Node26 -->
<g id="node26" class="node">
<title>Node26</title>
<g id="a_node26"><a xlink:href="_land_unit_8h.html" target="_top" xlink:title=" ">
<polygon fill="white" stroke="black" points="510,-201.5 510,-231.5 637,-231.5 637,-201.5 510,-201.5"/>
<text text-anchor="start" x="518" y="-219.5" font-family="Helvetica,sans-Serif" font-size="10.00">include/GameLogic/Units</text>
<text text-anchor="middle" x="573.5" y="-208.5" font-family="Helvetica,sans-Serif" font-size="10.00">/LandUnit.h</text>
</a>
</g>
</g>
<!-- Node12&#45;&gt;Node26 -->
<g id="edge37" class="edge">
<title>Node12&#45;&gt;Node26</title>
<path fill="none" stroke="midnightblue" d="M573.5,-258.11C573.5,-249.15 573.5,-239.32 573.5,-231.58"/>
<polygon fill="midnightblue" stroke="midnightblue" points="570,-258.4 573.5,-268.4 577,-258.4 570,-258.4"/>
</g>
<!-- Node28 -->
<g id="node28" class="node">
<title>Node28</title>
<g id="a_node28"><a xlink:href="_unit_order_8h.html" target="_top" xlink:title=" ">
<polygon fill="white" stroke="black" points="326,-201.5 326,-231.5 453,-231.5 453,-201.5 326,-201.5"/>
<text text-anchor="start" x="334" y="-219.5" font-family="Helvetica,sans-Serif" font-size="10.00">include/GameLogic/Units</text>
<text text-anchor="middle" x="389.5" y="-208.5" font-family="Helvetica,sans-Serif" font-size="10.00">/UnitOrder.h</text>
</a>
</g>
</g>
<!-- Node12&#45;&gt;Node28 -->
<g id="edge40" class="edge">
<title>Node12&#45;&gt;Node28</title>
<path fill="none" stroke="midnightblue" d="M518.16,-265.09C487.42,-254.6 450.21,-241.41 423.67,-231.58"/>
<polygon fill="midnightblue" stroke="midnightblue" points="517.3,-268.49 527.9,-268.4 519.55,-261.87 517.3,-268.49"/>
</g>
<!-- Node15 -->
<g id="node15" class="node">
<title>Node15</title>
<g id="a_node15"><a xlink:href="_squad_order_8cpp.html" target="_top" xlink:title=" ">
<polygon fill="white" stroke="black" points="8.5,-67.5 8.5,-97.5 122.5,-97.5 122.5,-67.5 8.5,-67.5"/>
<text text-anchor="start" x="16.5" y="-85.5" font-family="Helvetica,sans-Serif" font-size="10.00">src/GameLogic/Squad</text>
<text text-anchor="middle" x="65.5" y="-74.5" font-family="Helvetica,sans-Serif" font-size="10.00">/SquadOrder.cpp</text>
</a>
</g>
</g>
<!-- Node14&#45;&gt;Node15 -->
<g id="edge20" class="edge">
<title>Node14&#45;&gt;Node15</title>
<path fill="none" stroke="midnightblue" d="M65.5,-124.11C65.5,-115.15 65.5,-105.32 65.5,-97.58"/>
<polygon fill="midnightblue" stroke="midnightblue" points="62,-124.4 65.5,-134.4 69,-124.4 62,-124.4"/>
</g>
<!-- Node17 -->
<g id="node17" class="node">
<title>Node17</title>
<g id="a_node17"><a xlink:href="_factory_8cpp.html" target="_top" xlink:title=" ">
<polygon fill="white" stroke="black" points="717.5,-134.5 717.5,-164.5 827.5,-164.5 827.5,-134.5 717.5,-134.5"/>
<text text-anchor="start" x="725.5" y="-152.5" font-family="Helvetica,sans-Serif" font-size="10.00">src/GameLogic/Units</text>
<text text-anchor="middle" x="772.5" y="-141.5" font-family="Helvetica,sans-Serif" font-size="10.00">/Factory.cpp</text>
</a>
</g>
</g>
<!-- Node16&#45;&gt;Node17 -->
<g id="edge22" class="edge">
<title>Node16&#45;&gt;Node17</title>
<path fill="none" stroke="midnightblue" d="M763.06,-191.4C765.15,-182.37 767.44,-172.41 769.25,-164.58"/>
<polygon fill="midnightblue" stroke="midnightblue" points="759.59,-190.87 760.75,-201.4 766.41,-192.44 759.59,-190.87"/>
</g>
<!-- Node18 -->
<g id="node18" class="node">
<title>Node18</title>
<g id="a_node18"><a xlink:href="_squad_template_8h.html" target="_top" xlink:title=" ">
<polygon fill="white" stroke="black" points="991,-134.5 991,-164.5 1122,-164.5 1122,-134.5 991,-134.5"/>
<text text-anchor="start" x="999" y="-152.5" font-family="Helvetica,sans-Serif" font-size="10.00">include/GameLogic/Squad</text>
<text text-anchor="middle" x="1056.5" y="-141.5" font-family="Helvetica,sans-Serif" font-size="10.00">/SquadTemplate.h</text>
</a>
</g>
</g>
<!-- Node16&#45;&gt;Node18 -->
<g id="edge23" class="edge">
<title>Node16&#45;&gt;Node18</title>
<path fill="none" stroke="midnightblue" d="M831.24,-199.47C880.55,-188.75 944.79,-174.78 992.05,-164.51"/>
<polygon fill="midnightblue" stroke="midnightblue" points="830.3,-196.09 821.28,-201.64 831.79,-202.93 830.3,-196.09"/>
</g>
<!-- Node22 -->
<g id="node22" class="node">
<title>Node22</title>
<g id="a_node22"><a xlink:href="_all_units_8h.html" target="_top" xlink:title=" ">
<polygon fill="white" stroke="black" points="846,-134.5 846,-164.5 973,-164.5 973,-134.5 846,-134.5"/>
<text text-anchor="start" x="854" y="-152.5" font-family="Helvetica,sans-Serif" font-size="10.00">include/GameLogic/Units</text>
<text text-anchor="middle" x="909.5" y="-141.5" font-family="Helvetica,sans-Serif" font-size="10.00">/AllUnits.h</text>
</a>
</g>
</g>
<!-- Node16&#45;&gt;Node22 -->
<g id="edge28" class="edge">
<title>Node16&#45;&gt;Node22</title>
<path fill="none" stroke="midnightblue" d="M799.81,-197.41C824.08,-187.03 854.09,-174.2 876.58,-164.58"/>
<polygon fill="midnightblue" stroke="midnightblue" points="798.3,-194.25 790.48,-201.4 801.05,-200.68 798.3,-194.25"/>
</g>
<!-- Node24 -->
<g id="node24" class="node">
<title>Node24</title>
<g id="a_node24"><a xlink:href="_land_unit_factory_8h.html" target="_top" xlink:title=" ">
<polygon fill="white" stroke="black" points="534,-134.5 534,-164.5 661,-164.5 661,-134.5 534,-134.5"/>
<text text-anchor="start" x="542" y="-152.5" font-family="Helvetica,sans-Serif" font-size="10.00">include/GameLogic/Units</text>
<text text-anchor="middle" x="597.5" y="-141.5" font-family="Helvetica,sans-Serif" font-size="10.00">/LandUnitFactory.h</text>
</a>
</g>
</g>
<!-- Node16&#45;&gt;Node24 -->
<g id="edge34" class="edge">
<title>Node16&#45;&gt;Node24</title>
<path fill="none" stroke="midnightblue" d="M713.3,-197.54C687.7,-187.14 655.93,-174.24 632.15,-164.58"/>
<polygon fill="midnightblue" stroke="midnightblue" points="712.2,-200.87 722.78,-201.4 714.84,-194.39 712.2,-200.87"/>
</g>
<!-- Node19 -->
<g id="node19" class="node">
<title>Node19</title>
<g id="a_node19"><a xlink:href="_squad_template_8cpp.html" target="_top" xlink:title=" ">
<polygon fill="white" stroke="black" points="894.5,-67.5 894.5,-97.5 1008.5,-97.5 1008.5,-67.5 894.5,-67.5"/>
<text text-anchor="start" x="902.5" y="-85.5" font-family="Helvetica,sans-Serif" font-size="10.00">src/GameLogic/Squad</text>
<text text-anchor="middle" x="951.5" y="-74.5" font-family="Helvetica,sans-Serif" font-size="10.00">/SquadTemplate.cpp</text>
</a>
</g>
</g>
<!-- Node18&#45;&gt;Node19 -->
<g id="edge24" class="edge">
<title>Node18&#45;&gt;Node19</title>
<path fill="none" stroke="midnightblue" d="M1025.02,-129.02C1008.68,-118.9 989.09,-106.77 974.24,-97.58"/>
<polygon fill="midnightblue" stroke="midnightblue" points="1023.37,-132.11 1033.72,-134.4 1027.06,-126.16 1023.37,-132.11"/>
</g>
<!-- Node20 -->
<g id="node20" class="node">
<title>Node20</title>
<g id="a_node20"><a xlink:href="_all_squad_templates_8h.html" target="_top" xlink:title=" ">
<polygon fill="white" stroke="black" points="1027,-67.5 1027,-97.5 1158,-97.5 1158,-67.5 1027,-67.5"/>
<text text-anchor="start" x="1035" y="-85.5" font-family="Helvetica,sans-Serif" font-size="10.00">include/GameLogic/Squad</text>
<text text-anchor="middle" x="1092.5" y="-74.5" font-family="Helvetica,sans-Serif" font-size="10.00">/AllSquadTemplates.h</text>
</a>
</g>
</g>
<!-- Node18&#45;&gt;Node20 -->
<g id="edge25" class="edge">
<title>Node18&#45;&gt;Node20</title>
<path fill="none" stroke="midnightblue" d="M1069.2,-125.58C1074.37,-116.24 1080.18,-105.75 1084.7,-97.58"/>
<polygon fill="midnightblue" stroke="midnightblue" points="1066.09,-123.95 1064.31,-134.4 1072.22,-127.34 1066.09,-123.95"/>
</g>
<!-- Node20&#45;&gt;Node4 -->
<g id="edge27" class="edge">
<title>Node20&#45;&gt;Node4</title>
<path fill="none" stroke="midnightblue" d="M1112.9,-105.63C1119.69,-114 1126.72,-123.94 1131.5,-134 1147.45,-167.6 1150.5,-178.31 1150.5,-215.5 1150.5,-351.5 1150.5,-351.5 1150.5,-351.5 1150.5,-365.51 1135.05,-359.77 1122.5,-366 1060.35,-396.85 1047.62,-411.98 981.5,-433 945.4,-444.48 847.22,-459.99 782.64,-469.48"/>
<polygon fill="midnightblue" stroke="midnightblue" points="1115.43,-103.2 1106.29,-97.84 1110.09,-107.73 1115.43,-103.2"/>
</g>
<!-- Node21 -->
<g id="node21" class="node">
<title>Node21</title>
<g id="a_node21"><a xlink:href="_all_squad_templates_8cpp.html" target="_top" xlink:title=" ">
<polygon fill="white" stroke="black" points="1031.5,-0.5 1031.5,-30.5 1153.5,-30.5 1153.5,-0.5 1031.5,-0.5"/>
<text text-anchor="start" x="1039.5" y="-18.5" font-family="Helvetica,sans-Serif" font-size="10.00">src/GameLogic/Squad</text>
<text text-anchor="middle" x="1092.5" y="-7.5" font-family="Helvetica,sans-Serif" font-size="10.00">/AllSquadTemplates.cpp</text>
</a>
</g>
</g>
<!-- Node20&#45;&gt;Node21 -->
<g id="edge26" class="edge">
<title>Node20&#45;&gt;Node21</title>
<path fill="none" stroke="midnightblue" d="M1092.5,-57.11C1092.5,-48.15 1092.5,-38.32 1092.5,-30.58"/>
<polygon fill="midnightblue" stroke="midnightblue" points="1089,-57.4 1092.5,-67.4 1096,-57.4 1089,-57.4"/>
</g>
<!-- Node22&#45;&gt;Node4 -->
<g id="edge32" class="edge">
<title>Node22&#45;&gt;Node4</title>
<path fill="none" stroke="midnightblue" d="M982.84,-166.87C1030.57,-178.16 1085.42,-192.6 1093.5,-201 1119.28,-227.81 1112.5,-245.31 1112.5,-282.5 1112.5,-351.5 1112.5,-351.5 1112.5,-351.5 1112.5,-388.07 861.19,-447.44 762.04,-469.44"/>
<polygon fill="midnightblue" stroke="midnightblue" points="983.62,-163.46 973.09,-164.58 982.03,-170.28 983.62,-163.46"/>
</g>
<!-- Node22&#45;&gt;Node11 -->
<g id="edge29" class="edge">
<title>Node22&#45;&gt;Node11</title>
<path fill="none" stroke="midnightblue" d="M881.74,-128.45C867.89,-118.45 851.48,-106.6 838.99,-97.58"/>
<polygon fill="midnightblue" stroke="midnightblue" points="879.82,-131.38 889.97,-134.4 883.91,-125.7 879.82,-131.38"/>
</g>
<!-- Node22&#45;&gt;Node19 -->
<g id="edge30" class="edge">
<title>Node22&#45;&gt;Node19</title>
<path fill="none" stroke="midnightblue" d="M924.12,-125.87C930.2,-116.46 937.07,-105.83 942.4,-97.58"/>
<polygon fill="midnightblue" stroke="midnightblue" points="921.1,-124.1 918.61,-134.4 926.98,-127.9 921.1,-124.1"/>
</g>
<!-- Node22&#45;&gt;Node20 -->
<g id="edge33" class="edge">
<title>Node22&#45;&gt;Node20</title>
<path fill="none" stroke="midnightblue" d="M958.9,-130.96C988.37,-120.48 1025.31,-107.37 1052.87,-97.58"/>
<polygon fill="midnightblue" stroke="midnightblue" points="957.46,-127.75 949.21,-134.4 959.8,-134.35 957.46,-127.75"/>
</g>
<!-- Node23 -->
<g id="node23" class="node">
<title>Node23</title>
<g id="a_node23"><a xlink:href="_all_units_8cpp.html" target="_top" xlink:title=" ">
<polygon fill="white" stroke="black" points="634.5,-67.5 634.5,-97.5 744.5,-97.5 744.5,-67.5 634.5,-67.5"/>
<text text-anchor="start" x="642.5" y="-85.5" font-family="Helvetica,sans-Serif" font-size="10.00">src/GameLogic/Units</text>
<text text-anchor="middle" x="689.5" y="-74.5" font-family="Helvetica,sans-Serif" font-size="10.00">/AllUnits.cpp</text>
</a>
</g>
</g>
<!-- Node22&#45;&gt;Node23 -->
<g id="edge31" class="edge">
<title>Node22&#45;&gt;Node23</title>
<path fill="none" stroke="midnightblue" d="M852.23,-131.58C816.5,-121.02 771.04,-107.59 737.26,-97.61"/>
<polygon fill="midnightblue" stroke="midnightblue" points="851.45,-135 862.03,-134.48 853.44,-128.29 851.45,-135"/>
</g>
<!-- Node24&#45;&gt;Node23 -->
<g id="edge35" class="edge">
<title>Node24&#45;&gt;Node23</title>
<path fill="none" stroke="midnightblue" d="M625.88,-128.45C640.03,-118.45 656.81,-106.6 669.58,-97.58"/>
<polygon fill="midnightblue" stroke="midnightblue" points="623.61,-125.77 617.46,-134.4 627.65,-131.48 623.61,-125.77"/>
</g>
<!-- Node25 -->
<g id="node25" class="node">
<title>Node25</title>
<g id="a_node25"><a xlink:href="_land_unit_factory_8cpp.html" target="_top" xlink:title=" ">
<polygon fill="white" stroke="black" points="506.5,-67.5 506.5,-97.5 616.5,-97.5 616.5,-67.5 506.5,-67.5"/>
<text text-anchor="start" x="514.5" y="-85.5" font-family="Helvetica,sans-Serif" font-size="10.00">src/GameLogic/Units</text>
<text text-anchor="middle" x="561.5" y="-74.5" font-family="Helvetica,sans-Serif" font-size="10.00">/LandUnitFactory.cpp</text>
</a>
</g>
</g>
<!-- Node24&#45;&gt;Node25 -->
<g id="edge36" class="edge">
<title>Node24&#45;&gt;Node25</title>
<path fill="none" stroke="midnightblue" d="M584.8,-125.58C579.63,-116.24 573.82,-105.75 569.3,-97.58"/>
<polygon fill="midnightblue" stroke="midnightblue" points="581.78,-127.34 589.69,-134.4 587.91,-123.95 581.78,-127.34"/>
</g>
<!-- Node26&#45;&gt;Node24 -->
<g id="edge39" class="edge">
<title>Node26&#45;&gt;Node24</title>
<path fill="none" stroke="midnightblue" d="M582.18,-191.99C585.57,-182.8 589.35,-172.58 592.3,-164.58"/>
<polygon fill="midnightblue" stroke="midnightblue" points="578.89,-190.8 578.71,-201.4 585.45,-193.23 578.89,-190.8"/>
</g>
<!-- Node27 -->
<g id="node27" class="node">
<title>Node27</title>
<g id="a_node27"><a xlink:href="_land_unit_8cpp.html" target="_top" xlink:title=" ">
<polygon fill="white" stroke="black" points="405.5,-134.5 405.5,-164.5 515.5,-164.5 515.5,-134.5 405.5,-134.5"/>
<text text-anchor="start" x="413.5" y="-152.5" font-family="Helvetica,sans-Serif" font-size="10.00">src/GameLogic/Units</text>
<text text-anchor="middle" x="460.5" y="-141.5" font-family="Helvetica,sans-Serif" font-size="10.00">/LandUnit.cpp</text>
</a>
</g>
</g>
<!-- Node26&#45;&gt;Node27 -->
<g id="edge38" class="edge">
<title>Node26&#45;&gt;Node27</title>
<path fill="none" stroke="midnightblue" d="M540.11,-196.3C522.43,-186.12 501.1,-173.85 484.97,-164.58"/>
<polygon fill="midnightblue" stroke="midnightblue" points="538.57,-199.44 548.98,-201.4 542.06,-193.38 538.57,-199.44"/>
</g>
<!-- Node28&#45;&gt;Node12 -->
<g id="edge44" class="edge">
<title>Node28&#45;&gt;Node12</title>
<path fill="none" stroke="midnightblue" d="M444.75,-234.88C475.48,-245.37 512.69,-258.56 539.25,-268.4"/>
<polygon fill="midnightblue" stroke="midnightblue" points="445.62,-231.48 435.02,-231.58 443.37,-238.11 445.62,-231.48"/>
</g>
<!-- Node28&#45;&gt;Node13 -->
<g id="edge41" class="edge">
<title>Node28&#45;&gt;Node13</title>
<path fill="none" stroke="midnightblue" d="M370.41,-193.74C361.98,-184.12 352.31,-173.09 344.84,-164.58"/>
<polygon fill="midnightblue" stroke="midnightblue" points="367.91,-196.18 377.13,-201.4 373.17,-191.57 367.91,-196.18"/>
</g>
<!-- Node28&#45;&gt;Node14 -->
<g id="edge43" class="edge">
<title>Node28&#45;&gt;Node14</title>
<path fill="none" stroke="midnightblue" d="M315.74,-200.7C260.18,-189.56 184.7,-174.41 131.2,-163.68"/>
<polygon fill="midnightblue" stroke="midnightblue" points="315.38,-204.2 325.87,-202.74 316.76,-197.34 315.38,-204.2"/>
</g>
<!-- Node29 -->
<g id="node29" class="node">
<title>Node29</title>
<g id="a_node29"><a xlink:href="_unit_order_8cpp.html" target="_top" xlink:title=" ">
<polygon fill="white" stroke="black" points="149.5,-134.5 149.5,-164.5 259.5,-164.5 259.5,-134.5 149.5,-134.5"/>
<text text-anchor="start" x="157.5" y="-152.5" font-family="Helvetica,sans-Serif" font-size="10.00">src/GameLogic/Units</text>
<text text-anchor="middle" x="204.5" y="-141.5" font-family="Helvetica,sans-Serif" font-size="10.00">/UnitOrder.cpp</text>
</a>
</g>
</g>
<!-- Node28&#45;&gt;Node29 -->
<g id="edge42" class="edge">
<title>Node28&#45;&gt;Node29</title>
<path fill="none" stroke="midnightblue" d="M339.56,-197.96C309.76,-187.48 272.43,-174.37 244.56,-164.58"/>
<polygon fill="midnightblue" stroke="midnightblue" points="338.76,-201.38 349.36,-201.4 341.08,-194.78 338.76,-201.38"/>
</g>
<!-- Node31 -->
<g id="node31" class="node">
<title>Node31</title>
<g id="a_node31"><a xlink:href="_game_logic_2_squad_2_action_8cpp.html" target="_top" xlink:title=" ">
<polygon fill="white" stroke="black" points="970.5,-201.5 970.5,-231.5 1084.5,-231.5 1084.5,-201.5 970.5,-201.5"/>
<text text-anchor="start" x="978.5" y="-219.5" font-family="Helvetica,sans-Serif" font-size="10.00">src/GameLogic/Squad</text>
<text text-anchor="middle" x="1027.5" y="-208.5" font-family="Helvetica,sans-Serif" font-size="10.00">/Action.cpp</text>
</a>
</g>
</g>
<!-- Node30&#45;&gt;Node31 -->
<g id="edge46" class="edge">
<title>Node30&#45;&gt;Node31</title>
<path fill="none" stroke="midnightblue" d="M900.9,-269.91C927.49,-258.91 966.05,-242.94 993.62,-231.53"/>
<polygon fill="midnightblue" stroke="midnightblue" points="899.25,-266.81 891.35,-273.87 901.93,-273.28 899.25,-266.81"/>
</g>
<!-- Node32 -->
<g id="node32" class="node">
<title>Node32</title>
<g id="a_node32"><a xlink:href="pathfinding_8cpp.html" target="_top" xlink:title=" ">
<polygon fill="white" stroke="black" points="839,-207 839,-226 952,-226 952,-207 839,-207"/>
<text text-anchor="middle" x="895.5" y="-214" font-family="Helvetica,sans-Serif" font-size="10.00">src/util/pathfinding.cpp</text>
</a>
</g>
</g>
<!-- Node30&#45;&gt;Node32 -->
<g id="edge47" class="edge">
<title>Node30&#45;&gt;Node32</title>
<path fill="none" stroke="midnightblue" d="M877.5,-264.29C882.3,-251.81 888.46,-235.81 892.18,-226.13"/>
<polygon fill="midnightblue" stroke="midnightblue" points="874.19,-263.14 873.87,-273.73 880.73,-265.66 874.19,-263.14"/>
</g>
<!-- Node33&#45;&gt;Node4 -->
<g id="edge53" class="edge">
<title>Node33&#45;&gt;Node4</title>
<path fill="none" stroke="midnightblue" d="M741.82,-515.98C736.9,-506.82 731.14,-496.09 727.2,-488.75"/>
<polygon fill="midnightblue" stroke="midnightblue" points="738.9,-517.93 746.71,-525.08 745.06,-514.62 738.9,-517.93"/>
</g>
<!-- Node34 -->
<g id="node34" class="node">
<title>Node34</title>
<g id="a_node34"><a xlink:href="geometry_8cpp.html" target="_top" xlink:title=" ">
<polygon fill="white" stroke="black" points="805,-469.5 805,-488.5 912,-488.5 912,-469.5 805,-469.5"/>
<text text-anchor="middle" x="858.5" y="-476.5" font-family="Helvetica,sans-Serif" font-size="10.00">src/util/geometry.cpp</text>
</a>
</g>
</g>
<!-- Node33&#45;&gt;Node34 -->
<g id="edge52" class="edge">
<title>Node33&#45;&gt;Node34</title>
<path fill="none" stroke="midnightblue" d="M777.8,-520.73C797.61,-510.73 824.21,-497.31 841.35,-488.65"/>
<polygon fill="midnightblue" stroke="midnightblue" points="776.04,-517.69 768.69,-525.32 779.2,-523.94 776.04,-517.69"/>
</g>
</g>
</svg>
