<?xml version="1.0" encoding="UTF-8" standalone="no"?>
<!DOCTYPE svg PUBLIC "-//W3C//DTD SVG 1.1//EN"
 "http://www.w3.org/Graphics/SVG/1.1/DTD/svg11.dtd">
<!-- Generated by graphviz version 2.47.1 (20210421.1823)
 -->
<!-- Title: include/util/cellgen.h Pages: 1 -->
<svg width="1941pt" height="609pt"
 viewBox="0.00 0.00 1940.50 609.00" xmlns="http://www.w3.org/2000/svg" xmlns:xlink="http://www.w3.org/1999/xlink">
<g id="graph0" class="graph" transform="scale(1 1) rotate(0) translate(4 605)">
<title>include/util/cellgen.h</title>
<polygon fill="white" stroke="transparent" points="-4,4 -4,-605 1936.5,-605 1936.5,4 -4,4"/>
<!-- Node1 -->
<g id="node1" class="node">
<title>Node1</title>
<g id="a_node1"><a xlink:title=" ">
<polygon fill="#bfbfbf" stroke="black" points="930,-581.5 930,-600.5 1034,-600.5 1034,-581.5 930,-581.5"/>
<text text-anchor="middle" x="982" y="-588.5" font-family="Helvetica,sans-Serif" font-size="10.00">include/util/cellgen.h</text>
</a>
</g>
</g>
<!-- Node2 -->
<g id="node2" class="node">
<title>Node2</title>
<g id="a_node2"><a xlink:href="main_8cpp.html" target="_top" xlink:title=" ">
<polygon fill="white" stroke="black" points="2,-73 2,-92 74,-92 74,-73 2,-73"/>
<text text-anchor="middle" x="38" y="-80" font-family="Helvetica,sans-Serif" font-size="10.00">src/main.cpp</text>
</a>
</g>
</g>
<!-- Node1&#45;&gt;Node2 -->
<g id="edge1" class="edge">
<title>Node1&#45;&gt;Node2</title>
<path fill="none" stroke="midnightblue" d="M919.68,-589.59C703.64,-587.35 0,-572.94 0,-480 0,-480 0,-480 0,-215.5 0,-167.33 23.66,-112.99 33.64,-92.21"/>
<polygon fill="midnightblue" stroke="midnightblue" points="919.86,-593.09 929.9,-589.69 919.93,-586.09 919.86,-593.09"/>
</g>
<!-- Node3 -->
<g id="node3" class="node">
<title>Node3</title>
<g id="a_node3"><a xlink:href="cellgen_8cpp.html" target="_top" xlink:title=" ">
<polygon fill="white" stroke="black" points="1100,-525.5 1100,-544.5 1198,-544.5 1198,-525.5 1100,-525.5"/>
<text text-anchor="middle" x="1149" y="-532.5" font-family="Helvetica,sans-Serif" font-size="10.00">src/util/cellgen.cpp</text>
</a>
</g>
</g>
<!-- Node1&#45;&gt;Node3 -->
<g id="edge2" class="edge">
<title>Node1&#45;&gt;Node3</title>
<path fill="none" stroke="midnightblue" d="M1018.17,-578.3C1049.64,-568.13 1094.49,-553.62 1122.66,-544.52"/>
<polygon fill="midnightblue" stroke="midnightblue" points="1016.9,-575.04 1008.46,-581.44 1019.05,-581.7 1016.9,-575.04"/>
</g>
<!-- Node4 -->
<g id="node4" class="node">
<title>Node4</title>
<g id="a_node4"><a xlink:href="_cell_8h.html" target="_top" xlink:title=" ">
<polygon fill="white" stroke="black" points="919,-469.5 919,-488.5 1047,-488.5 1047,-469.5 919,-469.5"/>
<text text-anchor="middle" x="983" y="-476.5" font-family="Helvetica,sans-Serif" font-size="10.00">include/GameLogic/Cell.h</text>
</a>
</g>
</g>
<!-- Node1&#45;&gt;Node4 -->
<g id="edge3" class="edge">
<title>Node1&#45;&gt;Node4</title>
<path fill="none" stroke="midnightblue" d="M969.9,-572.58C962.39,-559.65 954.88,-541.47 959,-525 962.39,-511.43 970.74,-497.47 976.63,-488.77"/>
<polygon fill="midnightblue" stroke="midnightblue" points="967.14,-574.76 975.46,-581.33 973.05,-571.01 967.14,-574.76"/>
</g>
<!-- Node42 -->
<g id="node42" class="node">
<title>Node42</title>
<g id="a_node42"><a xlink:href="geometry_8h.html" target="_top" xlink:title=" ">
<polygon fill="white" stroke="black" points="968.5,-525.5 968.5,-544.5 1081.5,-544.5 1081.5,-525.5 968.5,-525.5"/>
<text text-anchor="middle" x="1025" y="-532.5" font-family="Helvetica,sans-Serif" font-size="10.00">include/util/geometry.h</text>
</a>
</g>
</g>
<!-- Node1&#45;&gt;Node42 -->
<g id="edge68" class="edge">
<title>Node1&#45;&gt;Node42</title>
<path fill="none" stroke="midnightblue" d="M995.42,-573.14C1002.91,-563.74 1011.94,-552.4 1018.03,-544.75"/>
<polygon fill="midnightblue" stroke="midnightblue" points="992.59,-571.08 989.1,-581.08 998.07,-575.44 992.59,-571.08"/>
</g>
<!-- Node4&#45;&gt;Node2 -->
<g id="edge5" class="edge">
<title>Node4&#45;&gt;Node2</title>
<path fill="none" stroke="midnightblue" d="M908.82,-478.65C734.63,-479.43 303.82,-476.72 167,-433 102.4,-412.36 38,-419.32 38,-351.5 38,-351.5 38,-351.5 38,-215.5 38,-168.98 38,-113.24 38,-92.15"/>
<polygon fill="midnightblue" stroke="midnightblue" points="908.94,-482.15 918.92,-478.6 908.91,-475.15 908.94,-482.15"/>
</g>
<!-- Node5 -->
<g id="node5" class="node">
<title>Node5</title>
<g id="a_node5"><a xlink:href="_cell_8cpp.html" target="_top" xlink:title=" ">
<polygon fill="white" stroke="black" points="873.5,-408 873.5,-427 994.5,-427 994.5,-408 873.5,-408"/>
<text text-anchor="middle" x="934" y="-415" font-family="Helvetica,sans-Serif" font-size="10.00">src/GameLogic/Cell.cpp</text>
</a>
</g>
</g>
<!-- Node4&#45;&gt;Node5 -->
<g id="edge4" class="edge">
<title>Node4&#45;&gt;Node5</title>
<path fill="none" stroke="midnightblue" d="M969.55,-461.67C960.31,-450.45 948.43,-436.02 941.01,-427.01"/>
<polygon fill="midnightblue" stroke="midnightblue" points="966.92,-463.98 975.98,-469.48 972.32,-459.53 966.92,-463.98"/>
</g>
<!-- Node6 -->
<g id="node6" class="node">
<title>Node6</title>
<g id="a_node6"><a xlink:href="_set_squad_path_8h.html" target="_top" xlink:title=" ">
<polygon fill="white" stroke="black" points="1218.5,-268.5 1218.5,-298.5 1331.5,-298.5 1331.5,-268.5 1218.5,-268.5"/>
<text text-anchor="start" x="1226.5" y="-286.5" font-family="Helvetica,sans-Serif" font-size="10.00">include/engine/actions</text>
<text text-anchor="middle" x="1275" y="-275.5" font-family="Helvetica,sans-Serif" font-size="10.00">/SetSquadPath.h</text>
</a>
</g>
</g>
<!-- Node4&#45;&gt;Node6 -->
<g id="edge6" class="edge">
<title>Node4&#45;&gt;Node6</title>
<path fill="none" stroke="midnightblue" d="M1043.81,-467.83C1103.95,-457.95 1188.55,-443.01 1201,-433 1244.43,-398.09 1259.56,-328.35 1268.36,-298.54"/>
<polygon fill="midnightblue" stroke="midnightblue" points="1042.95,-464.43 1033.64,-469.49 1044.07,-471.34 1042.95,-464.43"/>
</g>
<!-- Node9 -->
<g id="node9" class="node">
<title>Node9</title>
<g id="a_node9"><a xlink:href="_game_logic_2_squad_2_action_8h.html" target="_top" xlink:title=" ">
<polygon fill="white" stroke="black" points="1069.5,-402.5 1069.5,-432.5 1200.5,-432.5 1200.5,-402.5 1069.5,-402.5"/>
<text text-anchor="start" x="1077.5" y="-420.5" font-family="Helvetica,sans-Serif" font-size="10.00">include/GameLogic/Squad</text>
<text text-anchor="middle" x="1135" y="-409.5" font-family="Helvetica,sans-Serif" font-size="10.00">/Action.h</text>
</a>
</g>
</g>
<!-- Node4&#45;&gt;Node9 -->
<g id="edge10" class="edge">
<title>Node4&#45;&gt;Node9</title>
<path fill="none" stroke="midnightblue" d="M1014.37,-465.72C1039.04,-456.06 1073.43,-442.6 1099.18,-432.52"/>
<polygon fill="midnightblue" stroke="midnightblue" points="1012.81,-462.57 1004.78,-469.48 1015.37,-469.09 1012.81,-462.57"/>
</g>
<!-- Node11 -->
<g id="node11" class="node">
<title>Node11</title>
<g id="a_node11"><a xlink:href="_squad_8h.html" target="_top" xlink:title=" ">
<polygon fill="white" stroke="black" points="1069.5,-335.5 1069.5,-365.5 1200.5,-365.5 1200.5,-335.5 1069.5,-335.5"/>
<text text-anchor="start" x="1077.5" y="-353.5" font-family="Helvetica,sans-Serif" font-size="10.00">include/GameLogic/Squad</text>
<text text-anchor="middle" x="1135" y="-342.5" font-family="Helvetica,sans-Serif" font-size="10.00">/Squad.h</text>
</a>
</g>
</g>
<!-- Node4&#45;&gt;Node11 -->
<g id="edge65" class="edge">
<title>Node4&#45;&gt;Node11</title>
<path fill="none" stroke="midnightblue" d="M991.76,-461.11C1004.91,-445.1 1029.03,-420.79 1052,-402 1068.37,-388.61 1088.23,-375.19 1104.61,-365.56"/>
<polygon fill="midnightblue" stroke="midnightblue" points="988.97,-458.99 985.65,-469.05 994.52,-463.25 988.97,-458.99"/>
</g>
<!-- Node22 -->
<g id="node22" class="node">
<title>Node22</title>
<g id="a_node22"><a xlink:href="_factory_8h.html" target="_top" xlink:title=" ">
<polygon fill="white" stroke="black" points="533.5,-201.5 533.5,-231.5 660.5,-231.5 660.5,-201.5 533.5,-201.5"/>
<text text-anchor="start" x="541.5" y="-219.5" font-family="Helvetica,sans-Serif" font-size="10.00">include/GameLogic/Units</text>
<text text-anchor="middle" x="597" y="-208.5" font-family="Helvetica,sans-Serif" font-size="10.00">/Factory.h</text>
</a>
</g>
</g>
<!-- Node4&#45;&gt;Node22 -->
<g id="edge66" class="edge">
<title>Node4&#45;&gt;Node22</title>
<path fill="none" stroke="midnightblue" d="M944.47,-466.22C920.63,-458.26 889.76,-446.71 864,-433 773.1,-384.62 752.95,-366.28 675,-299 649.79,-277.25 623.67,-248.44 608.96,-231.55"/>
<polygon fill="midnightblue" stroke="midnightblue" points="943.63,-469.63 954.22,-469.41 945.81,-462.97 943.63,-469.63"/>
</g>
<!-- Node40 -->
<g id="node40" class="node">
<title>Node40</title>
<g id="a_node40"><a xlink:href="pathfinding_8h.html" target="_top" xlink:title=" ">
<polygon fill="white" stroke="black" points="1535,-274 1535,-293 1655,-293 1655,-274 1535,-274"/>
<text text-anchor="middle" x="1595" y="-281" font-family="Helvetica,sans-Serif" font-size="10.00">include/util/pathfinding.h</text>
</a>
</g>
</g>
<!-- Node4&#45;&gt;Node40 -->
<g id="edge67" class="edge">
<title>Node4&#45;&gt;Node40</title>
<path fill="none" stroke="midnightblue" d="M1052.74,-467.94C1118.05,-458.18 1210.72,-443.37 1246,-433 1379.3,-393.82 1529.95,-318.34 1578.8,-293.02"/>
<polygon fill="midnightblue" stroke="midnightblue" points="1051.89,-464.53 1042.51,-469.46 1052.92,-471.46 1051.89,-464.53"/>
</g>
<!-- Node6&#45;&gt;Node4 -->
<g id="edge9" class="edge">
<title>Node6&#45;&gt;Node4</title>
<path fill="none" stroke="midnightblue" d="M1277.42,-308.78C1274.2,-342.16 1258.02,-401.64 1219,-433 1205.83,-443.59 1111.92,-459.69 1046.53,-469.49"/>
<polygon fill="midnightblue" stroke="midnightblue" points="1280.93,-308.73 1278.03,-298.54 1273.94,-308.31 1280.93,-308.73"/>
</g>
<!-- Node7 -->
<g id="node7" class="node">
<title>Node7</title>
<g id="a_node7"><a xlink:href="engine_2_action_8cpp.html" target="_top" xlink:title=" ">
<polygon fill="white" stroke="black" points="1559,-207 1559,-226 1669,-226 1669,-207 1559,-207"/>
<text text-anchor="middle" x="1614" y="-214" font-family="Helvetica,sans-Serif" font-size="10.00">src/engine/Action.cpp</text>
</a>
</g>
</g>
<!-- Node6&#45;&gt;Node7 -->
<g id="edge7" class="edge">
<title>Node6&#45;&gt;Node7</title>
<path fill="none" stroke="midnightblue" d="M1341.55,-268.85C1343.05,-268.56 1344.53,-268.28 1346,-268 1436.44,-250.79 1459.74,-250.18 1550,-232 1559.05,-230.18 1568.78,-228.06 1577.85,-226.01"/>
<polygon fill="midnightblue" stroke="midnightblue" points="1340.7,-265.45 1331.55,-270.81 1342.04,-272.32 1340.7,-265.45"/>
</g>
<!-- Node8 -->
<g id="node8" class="node">
<title>Node8</title>
<g id="a_node8"><a xlink:href="_set_squad_path_8cpp.html" target="_top" xlink:title=" ">
<polygon fill="white" stroke="black" points="1439.5,-201.5 1439.5,-231.5 1540.5,-231.5 1540.5,-201.5 1439.5,-201.5"/>
<text text-anchor="start" x="1447.5" y="-219.5" font-family="Helvetica,sans-Serif" font-size="10.00">src/engine/actions</text>
<text text-anchor="middle" x="1490" y="-208.5" font-family="Helvetica,sans-Serif" font-size="10.00">/SetSquadPath.cpp</text>
</a>
</g>
</g>
<!-- Node6&#45;&gt;Node8 -->
<g id="edge8" class="edge">
<title>Node6&#45;&gt;Node8</title>
<path fill="none" stroke="midnightblue" d="M1330.97,-265.58C1365.89,-255.02 1410.31,-241.59 1443.33,-231.61"/>
<polygon fill="midnightblue" stroke="midnightblue" points="1329.95,-262.23 1321.39,-268.48 1331.97,-268.93 1329.95,-262.23"/>
</g>
<!-- Node10 -->
<g id="node10" class="node">
<title>Node10</title>
<g id="a_node10"><a xlink:href="_game_logic_2_squad_2_action_8cpp.html" target="_top" xlink:title=" ">
<polygon fill="white" stroke="black" points="1687,-201.5 1687,-231.5 1801,-231.5 1801,-201.5 1687,-201.5"/>
<text text-anchor="start" x="1695" y="-219.5" font-family="Helvetica,sans-Serif" font-size="10.00">src/GameLogic/Squad</text>
<text text-anchor="middle" x="1744" y="-208.5" font-family="Helvetica,sans-Serif" font-size="10.00">/Action.cpp</text>
</a>
</g>
</g>
<!-- Node9&#45;&gt;Node10 -->
<g id="edge11" class="edge">
<title>Node9&#45;&gt;Node10</title>
<path fill="none" stroke="midnightblue" d="M1176.91,-398.43C1247.79,-368.36 1396.29,-307.46 1526,-268 1541.33,-263.34 1627.46,-243.71 1686.76,-230.34"/>
<polygon fill="midnightblue" stroke="midnightblue" points="1175.27,-395.32 1167.44,-402.46 1178.01,-401.76 1175.27,-395.32"/>
</g>
<!-- Node9&#45;&gt;Node11 -->
<g id="edge12" class="edge">
<title>Node9&#45;&gt;Node11</title>
<path fill="none" stroke="midnightblue" d="M1128.45,-392.4C1128.01,-383.37 1128.3,-373.41 1129.33,-365.58"/>
<polygon fill="midnightblue" stroke="midnightblue" points="1124.97,-392.74 1129.32,-402.4 1131.94,-392.13 1124.97,-392.74"/>
</g>
<!-- Node11&#45;&gt;Node4 -->
<g id="edge15" class="edge">
<title>Node11&#45;&gt;Node4</title>
<path fill="none" stroke="midnightblue" d="M1111.63,-371.35C1098.91,-380.22 1083.3,-391.12 1070,-402 1042.63,-424.39 1013.63,-454.62 996.47,-469.29"/>
<polygon fill="midnightblue" stroke="midnightblue" points="1113.72,-374.16 1119.91,-365.56 1109.71,-368.42 1113.72,-374.16"/>
</g>
<!-- Node11&#45;&gt;Node6 -->
<g id="edge14" class="edge">
<title>Node11&#45;&gt;Node6</title>
<path fill="none" stroke="midnightblue" d="M1174.57,-331.13C1196.81,-320.8 1224.15,-308.11 1244.68,-298.58"/>
<polygon fill="midnightblue" stroke="midnightblue" points="1172.97,-328.01 1165.38,-335.4 1175.92,-334.36 1172.97,-328.01"/>
</g>
<!-- Node11&#45;&gt;Node9 -->
<g id="edge16" class="edge">
<title>Node11&#45;&gt;Node9</title>
<path fill="none" stroke="midnightblue" d="M1141.54,-375.57C1141.99,-384.6 1141.71,-394.56 1140.68,-402.4"/>
<polygon fill="midnightblue" stroke="midnightblue" points="1145.03,-375.24 1140.67,-365.58 1138.05,-375.84 1145.03,-375.24"/>
</g>
<!-- Node12 -->
<g id="node12" class="node">
<title>Node12</title>
<g id="a_node12"><a xlink:href="_squad_8cpp.html" target="_top" xlink:title=" ">
<polygon fill="white" stroke="black" points="477,-67.5 477,-97.5 591,-97.5 591,-67.5 477,-67.5"/>
<text text-anchor="start" x="485" y="-85.5" font-family="Helvetica,sans-Serif" font-size="10.00">src/GameLogic/Squad</text>
<text text-anchor="middle" x="534" y="-74.5" font-family="Helvetica,sans-Serif" font-size="10.00">/Squad.cpp</text>
</a>
</g>
</g>
<!-- Node11&#45;&gt;Node12 -->
<g id="edge13" class="edge">
<title>Node11&#45;&gt;Node12</title>
<path fill="none" stroke="midnightblue" d="M1091.51,-331.6C1036.49,-308.87 938.92,-268.22 856,-232 789.83,-203.1 773.58,-195.2 708,-165 657.25,-141.63 598.42,-113.95 563.81,-97.61"/>
<polygon fill="midnightblue" stroke="midnightblue" points="1090.37,-334.92 1100.95,-335.5 1093.04,-328.45 1090.37,-334.92"/>
</g>
<!-- Node13 -->
<g id="node13" class="node">
<title>Node13</title>
<g id="a_node13"><a xlink:href="_unit_8h.html" target="_top" xlink:title=" ">
<polygon fill="white" stroke="black" points="1071.5,-268.5 1071.5,-298.5 1198.5,-298.5 1198.5,-268.5 1071.5,-268.5"/>
<text text-anchor="start" x="1079.5" y="-286.5" font-family="Helvetica,sans-Serif" font-size="10.00">include/GameLogic/Units</text>
<text text-anchor="middle" x="1135" y="-275.5" font-family="Helvetica,sans-Serif" font-size="10.00">/Unit.h</text>
</a>
</g>
</g>
<!-- Node11&#45;&gt;Node13 -->
<g id="edge17" class="edge">
<title>Node11&#45;&gt;Node13</title>
<path fill="none" stroke="midnightblue" d="M1128.45,-325.4C1128.01,-316.37 1128.3,-306.41 1129.33,-298.58"/>
<polygon fill="midnightblue" stroke="midnightblue" points="1124.97,-325.74 1129.32,-335.4 1131.94,-325.13 1124.97,-325.74"/>
</g>
<!-- Node11&#45;&gt;Node40 -->
<g id="edge62" class="edge">
<title>Node11&#45;&gt;Node40</title>
<path fill="none" stroke="midnightblue" d="M1210.85,-338.78C1301.55,-325.97 1451.52,-304.77 1534.71,-293.02"/>
<polygon fill="midnightblue" stroke="midnightblue" points="1210.32,-335.32 1200.91,-340.19 1211.3,-342.25 1210.32,-335.32"/>
</g>
<!-- Node13&#45;&gt;Node11 -->
<g id="edge19" class="edge">
<title>Node13&#45;&gt;Node11</title>
<path fill="none" stroke="midnightblue" d="M1141.54,-308.57C1141.99,-317.6 1141.71,-327.56 1140.68,-335.4"/>
<polygon fill="midnightblue" stroke="midnightblue" points="1145.03,-308.24 1140.67,-298.58 1138.05,-308.84 1145.03,-308.24"/>
</g>
<!-- Node14 -->
<g id="node14" class="node">
<title>Node14</title>
<g id="a_node14"><a xlink:href="_unit_8cpp.html" target="_top" xlink:title=" ">
<polygon fill="white" stroke="black" points="1410,-134.5 1410,-164.5 1520,-164.5 1520,-134.5 1410,-134.5"/>
<text text-anchor="start" x="1418" y="-152.5" font-family="Helvetica,sans-Serif" font-size="10.00">src/GameLogic/Units</text>
<text text-anchor="middle" x="1465" y="-141.5" font-family="Helvetica,sans-Serif" font-size="10.00">/Unit.cpp</text>
</a>
</g>
</g>
<!-- Node13&#45;&gt;Node14 -->
<g id="edge18" class="edge">
<title>Node13&#45;&gt;Node14</title>
<path fill="none" stroke="midnightblue" d="M1164.43,-262.79C1177.87,-253.63 1193.89,-242.47 1208,-232 1225.78,-218.81 1227.06,-210.62 1247,-201 1248.87,-200.1 1345.79,-177.8 1409.76,-163.14"/>
<polygon fill="midnightblue" stroke="midnightblue" points="1162.34,-259.99 1156.03,-268.5 1166.27,-265.78 1162.34,-259.99"/>
</g>
<!-- Node15 -->
<g id="node15" class="node">
<title>Node15</title>
<g id="a_node15"><a xlink:href="_squad_order_8h.html" target="_top" xlink:title=" ">
<polygon fill="white" stroke="black" points="1666.5,-134.5 1666.5,-164.5 1797.5,-164.5 1797.5,-134.5 1666.5,-134.5"/>
<text text-anchor="start" x="1674.5" y="-152.5" font-family="Helvetica,sans-Serif" font-size="10.00">include/GameLogic/Squad</text>
<text text-anchor="middle" x="1732" y="-141.5" font-family="Helvetica,sans-Serif" font-size="10.00">/SquadOrder.h</text>
</a>
</g>
</g>
<!-- Node13&#45;&gt;Node15 -->
<g id="edge20" class="edge">
<title>Node13&#45;&gt;Node15</title>
<path fill="none" stroke="midnightblue" d="M1208.74,-268.23C1283.92,-253.64 1389.87,-232.98 1392,-232 1412.1,-222.71 1410.74,-209.92 1431,-201 1524.09,-160.01 1556.83,-182.66 1657,-165 1660,-164.47 1663.07,-163.92 1666.17,-163.35"/>
<polygon fill="midnightblue" stroke="midnightblue" points="1207.96,-264.81 1198.81,-270.15 1209.29,-271.68 1207.96,-264.81"/>
</g>
<!-- Node17 -->
<g id="node17" class="node">
<title>Node17</title>
<g id="a_node17"><a xlink:href="_armored_unit_8h.html" target="_top" xlink:title=" ">
<polygon fill="white" stroke="black" points="991.5,-134.5 991.5,-164.5 1118.5,-164.5 1118.5,-134.5 991.5,-134.5"/>
<text text-anchor="start" x="999.5" y="-152.5" font-family="Helvetica,sans-Serif" font-size="10.00">include/GameLogic/Units</text>
<text text-anchor="middle" x="1055" y="-141.5" font-family="Helvetica,sans-Serif" font-size="10.00">/ArmoredUnit.h</text>
</a>
</g>
</g>
<!-- Node13&#45;&gt;Node17 -->
<g id="edge22" class="edge">
<title>Node13&#45;&gt;Node17</title>
<path fill="none" stroke="midnightblue" d="M1094.96,-263.15C1082.71,-255.22 1070.5,-244.84 1063,-232 1050.74,-211.01 1051.29,-181.69 1053.01,-164.54"/>
<polygon fill="midnightblue" stroke="midnightblue" points="1093.45,-266.32 1103.82,-268.49 1097.06,-260.33 1093.45,-266.32"/>
</g>
<!-- Node13&#45;&gt;Node22 -->
<g id="edge27" class="edge">
<title>Node13&#45;&gt;Node22</title>
<path fill="none" stroke="midnightblue" d="M1061.45,-273.61C955.37,-260.8 761.18,-237.34 660.82,-225.21"/>
<polygon fill="midnightblue" stroke="midnightblue" points="1061.09,-277.1 1071.44,-274.82 1061.93,-270.15 1061.09,-277.1"/>
</g>
<!-- Node34 -->
<g id="node34" class="node">
<title>Node34</title>
<g id="a_node34"><a xlink:href="_land_unit_8h.html" target="_top" xlink:title=" ">
<polygon fill="white" stroke="black" points="1071.5,-201.5 1071.5,-231.5 1198.5,-231.5 1198.5,-201.5 1071.5,-201.5"/>
<text text-anchor="start" x="1079.5" y="-219.5" font-family="Helvetica,sans-Serif" font-size="10.00">include/GameLogic/Units</text>
<text text-anchor="middle" x="1135" y="-208.5" font-family="Helvetica,sans-Serif" font-size="10.00">/LandUnit.h</text>
</a>
</g>
</g>
<!-- Node13&#45;&gt;Node34 -->
<g id="edge50" class="edge">
<title>Node13&#45;&gt;Node34</title>
<path fill="none" stroke="midnightblue" d="M1135,-258.11C1135,-249.15 1135,-239.32 1135,-231.58"/>
<polygon fill="midnightblue" stroke="midnightblue" points="1131.5,-258.4 1135,-268.4 1138.5,-258.4 1131.5,-258.4"/>
</g>
<!-- Node36 -->
<g id="node36" class="node">
<title>Node36</title>
<g id="a_node36"><a xlink:href="_transport_unit_8h.html" target="_top" xlink:title=" ">
<polygon fill="white" stroke="black" points="865.5,-201.5 865.5,-231.5 992.5,-231.5 992.5,-201.5 865.5,-201.5"/>
<text text-anchor="start" x="873.5" y="-219.5" font-family="Helvetica,sans-Serif" font-size="10.00">include/GameLogic/Units</text>
<text text-anchor="middle" x="929" y="-208.5" font-family="Helvetica,sans-Serif" font-size="10.00">/TransportUnit.h</text>
</a>
</g>
</g>
<!-- Node13&#45;&gt;Node36 -->
<g id="edge53" class="edge">
<title>Node13&#45;&gt;Node36</title>
<path fill="none" stroke="midnightblue" d="M1080.95,-265.44C1047.55,-254.91 1005.22,-241.55 973.72,-231.61"/>
<polygon fill="midnightblue" stroke="midnightblue" points="1079.96,-268.8 1090.55,-268.48 1082.07,-262.13 1079.96,-268.8"/>
</g>
<!-- Node38 -->
<g id="node38" class="node">
<title>Node38</title>
<g id="a_node38"><a xlink:href="_unit_order_8h.html" target="_top" xlink:title=" ">
<polygon fill="white" stroke="black" points="1255.5,-201.5 1255.5,-231.5 1382.5,-231.5 1382.5,-201.5 1255.5,-201.5"/>
<text text-anchor="start" x="1263.5" y="-219.5" font-family="Helvetica,sans-Serif" font-size="10.00">include/GameLogic/Units</text>
<text text-anchor="middle" x="1319" y="-208.5" font-family="Helvetica,sans-Serif" font-size="10.00">/UnitOrder.h</text>
</a>
</g>
</g>
<!-- Node13&#45;&gt;Node38 -->
<g id="edge57" class="edge">
<title>Node13&#45;&gt;Node38</title>
<path fill="none" stroke="midnightblue" d="M1178.97,-264.82C1207.54,-254.37 1244.61,-241.32 1273.48,-231.58"/>
<polygon fill="midnightblue" stroke="midnightblue" points="1177.42,-261.66 1169.25,-268.4 1179.84,-268.23 1177.42,-261.66"/>
</g>
<!-- Node16 -->
<g id="node16" class="node">
<title>Node16</title>
<g id="a_node16"><a xlink:href="_squad_order_8cpp.html" target="_top" xlink:title=" ">
<polygon fill="white" stroke="black" points="1675,-67.5 1675,-97.5 1789,-97.5 1789,-67.5 1675,-67.5"/>
<text text-anchor="start" x="1683" y="-85.5" font-family="Helvetica,sans-Serif" font-size="10.00">src/GameLogic/Squad</text>
<text text-anchor="middle" x="1732" y="-74.5" font-family="Helvetica,sans-Serif" font-size="10.00">/SquadOrder.cpp</text>
</a>
</g>
</g>
<!-- Node15&#45;&gt;Node16 -->
<g id="edge21" class="edge">
<title>Node15&#45;&gt;Node16</title>
<path fill="none" stroke="midnightblue" d="M1732,-124.11C1732,-115.15 1732,-105.32 1732,-97.58"/>
<polygon fill="midnightblue" stroke="midnightblue" points="1728.5,-124.4 1732,-134.4 1735.5,-124.4 1728.5,-124.4"/>
</g>
<!-- Node18 -->
<g id="node18" class="node">
<title>Node18</title>
<g id="a_node18"><a xlink:href="_armored_unit_8cpp.html" target="_top" xlink:title=" ">
<polygon fill="white" stroke="black" points="989,-67.5 989,-97.5 1099,-97.5 1099,-67.5 989,-67.5"/>
<text text-anchor="start" x="997" y="-85.5" font-family="Helvetica,sans-Serif" font-size="10.00">src/GameLogic/Units</text>
<text text-anchor="middle" x="1044" y="-74.5" font-family="Helvetica,sans-Serif" font-size="10.00">/ArmoredUnit.cpp</text>
</a>
</g>
</g>
<!-- Node17&#45;&gt;Node18 -->
<g id="edge23" class="edge">
<title>Node17&#45;&gt;Node18</title>
<path fill="none" stroke="midnightblue" d="M1050.92,-124.4C1049.39,-115.37 1047.71,-105.41 1046.38,-97.58"/>
<polygon fill="midnightblue" stroke="midnightblue" points="1047.49,-125.12 1052.61,-134.4 1054.4,-123.95 1047.49,-125.12"/>
</g>
<!-- Node19 -->
<g id="node19" class="node">
<title>Node19</title>
<g id="a_node19"><a xlink:href="_armored_unit_factory_8h.html" target="_top" xlink:title=" ">
<polygon fill="white" stroke="black" points="625.5,-67.5 625.5,-97.5 752.5,-97.5 752.5,-67.5 625.5,-67.5"/>
<text text-anchor="start" x="633.5" y="-85.5" font-family="Helvetica,sans-Serif" font-size="10.00">include/GameLogic/Units</text>
<text text-anchor="middle" x="689" y="-74.5" font-family="Helvetica,sans-Serif" font-size="10.00">/ArmoredUnitFactory.h</text>
</a>
</g>
</g>
<!-- Node17&#45;&gt;Node19 -->
<g id="edge24" class="edge">
<title>Node17&#45;&gt;Node19</title>
<path fill="none" stroke="midnightblue" d="M981.48,-133.93C896.36,-118.22 809.73,-103.51 752.53,-93.97"/>
<polygon fill="midnightblue" stroke="midnightblue" points="980.85,-137.37 991.32,-135.75 982.12,-130.49 980.85,-137.37"/>
</g>
<!-- Node20 -->
<g id="node20" class="node">
<title>Node20</title>
<g id="a_node20"><a xlink:href="_all_units_8cpp.html" target="_top" xlink:title=" ">
<polygon fill="white" stroke="black" points="726,-0.5 726,-30.5 836,-30.5 836,-0.5 726,-0.5"/>
<text text-anchor="start" x="734" y="-18.5" font-family="Helvetica,sans-Serif" font-size="10.00">src/GameLogic/Units</text>
<text text-anchor="middle" x="781" y="-7.5" font-family="Helvetica,sans-Serif" font-size="10.00">/AllUnits.cpp</text>
</a>
</g>
</g>
<!-- Node19&#45;&gt;Node20 -->
<g id="edge25" class="edge">
<title>Node19&#45;&gt;Node20</title>
<path fill="none" stroke="midnightblue" d="M717.38,-61.45C731.53,-51.45 748.31,-39.6 761.08,-30.58"/>
<polygon fill="midnightblue" stroke="midnightblue" points="715.11,-58.77 708.96,-67.4 719.15,-64.48 715.11,-58.77"/>
</g>
<!-- Node21 -->
<g id="node21" class="node">
<title>Node21</title>
<g id="a_node21"><a xlink:href="_armored_unit_factory_8cpp.html" target="_top" xlink:title=" ">
<polygon fill="white" stroke="black" points="582.5,-0.5 582.5,-30.5 707.5,-30.5 707.5,-0.5 582.5,-0.5"/>
<text text-anchor="start" x="590.5" y="-18.5" font-family="Helvetica,sans-Serif" font-size="10.00">src/GameLogic/Units</text>
<text text-anchor="middle" x="645" y="-7.5" font-family="Helvetica,sans-Serif" font-size="10.00">/ArmoredUnitFactory.cpp</text>
</a>
</g>
</g>
<!-- Node19&#45;&gt;Node21 -->
<g id="edge26" class="edge">
<title>Node19&#45;&gt;Node21</title>
<path fill="none" stroke="midnightblue" d="M673.68,-58.87C667.31,-49.46 660.12,-38.83 654.53,-30.58"/>
<polygon fill="midnightblue" stroke="midnightblue" points="670.95,-61.08 679.45,-67.4 676.75,-57.15 670.95,-61.08"/>
</g>
<!-- Node22&#45;&gt;Node19 -->
<g id="edge42" class="edge">
<title>Node22&#45;&gt;Node19</title>
<path fill="none" stroke="midnightblue" d="M612.8,-192.83C631.87,-165.47 663.36,-120.28 679.23,-97.52"/>
<polygon fill="midnightblue" stroke="midnightblue" points="609.69,-191.17 606.85,-201.37 615.43,-195.17 609.69,-191.17"/>
</g>
<!-- Node23 -->
<g id="node23" class="node">
<title>Node23</title>
<g id="a_node23"><a xlink:href="_spawn_action_8cpp.html" target="_top" xlink:title=" ">
<polygon fill="white" stroke="black" points="399,-134.5 399,-164.5 495,-164.5 495,-134.5 399,-134.5"/>
<text text-anchor="start" x="407" y="-152.5" font-family="Helvetica,sans-Serif" font-size="10.00">src/engine/actions</text>
<text text-anchor="middle" x="447" y="-141.5" font-family="Helvetica,sans-Serif" font-size="10.00">/SpawnAction.cpp</text>
</a>
</g>
</g>
<!-- Node22&#45;&gt;Node23 -->
<g id="edge28" class="edge">
<title>Node22&#45;&gt;Node23</title>
<path fill="none" stroke="midnightblue" d="M555.25,-197.41C531.3,-187.03 501.68,-174.2 479.48,-164.58"/>
<polygon fill="midnightblue" stroke="midnightblue" points="553.89,-200.63 564.45,-201.4 556.67,-194.21 553.89,-200.63"/>
</g>
<!-- Node24 -->
<g id="node24" class="node">
<title>Node24</title>
<g id="a_node24"><a xlink:href="_factory_8cpp.html" target="_top" xlink:title=" ">
<polygon fill="white" stroke="black" points="513,-134.5 513,-164.5 623,-164.5 623,-134.5 513,-134.5"/>
<text text-anchor="start" x="521" y="-152.5" font-family="Helvetica,sans-Serif" font-size="10.00">src/GameLogic/Units</text>
<text text-anchor="middle" x="568" y="-141.5" font-family="Helvetica,sans-Serif" font-size="10.00">/Factory.cpp</text>
</a>
</g>
</g>
<!-- Node22&#45;&gt;Node24 -->
<g id="edge29" class="edge">
<title>Node22&#45;&gt;Node24</title>
<path fill="none" stroke="midnightblue" d="M586.51,-191.99C582.41,-182.8 577.85,-172.58 574.28,-164.58"/>
<polygon fill="midnightblue" stroke="midnightblue" points="583.44,-193.69 590.71,-201.4 589.83,-190.84 583.44,-193.69"/>
</g>
<!-- Node25 -->
<g id="node25" class="node">
<title>Node25</title>
<g id="a_node25"><a xlink:href="_squad_template_8h.html" target="_top" xlink:title=" ">
<polygon fill="white" stroke="black" points="104.5,-134.5 104.5,-164.5 235.5,-164.5 235.5,-134.5 104.5,-134.5"/>
<text text-anchor="start" x="112.5" y="-152.5" font-family="Helvetica,sans-Serif" font-size="10.00">include/GameLogic/Squad</text>
<text text-anchor="middle" x="170" y="-141.5" font-family="Helvetica,sans-Serif" font-size="10.00">/SquadTemplate.h</text>
</a>
</g>
</g>
<!-- Node22&#45;&gt;Node25 -->
<g id="edge30" class="edge">
<title>Node22&#45;&gt;Node25</title>
<path fill="none" stroke="midnightblue" d="M523.14,-206.06C451.6,-196.65 340.14,-181.28 244,-165 241.29,-164.54 238.53,-164.06 235.74,-163.56"/>
<polygon fill="midnightblue" stroke="midnightblue" points="523.03,-209.57 533.4,-207.4 523.94,-202.63 523.03,-209.57"/>
</g>
<!-- Node29 -->
<g id="node29" class="node">
<title>Node29</title>
<g id="a_node29"><a xlink:href="_all_units_8h.html" target="_top" xlink:title=" ">
<polygon fill="white" stroke="black" points="253.5,-134.5 253.5,-164.5 380.5,-164.5 380.5,-134.5 253.5,-134.5"/>
<text text-anchor="start" x="261.5" y="-152.5" font-family="Helvetica,sans-Serif" font-size="10.00">include/GameLogic/Units</text>
<text text-anchor="middle" x="317" y="-141.5" font-family="Helvetica,sans-Serif" font-size="10.00">/AllUnits.h</text>
</a>
</g>
</g>
<!-- Node22&#45;&gt;Node29 -->
<g id="edge35" class="edge">
<title>Node22&#45;&gt;Node29</title>
<path fill="none" stroke="midnightblue" d="M526.72,-199.19C480.87,-188.54 421.61,-174.78 377.79,-164.61"/>
<polygon fill="midnightblue" stroke="midnightblue" points="526.06,-202.62 536.59,-201.48 527.64,-195.81 526.06,-202.62"/>
</g>
<!-- Node30 -->
<g id="node30" class="node">
<title>Node30</title>
<g id="a_node30"><a xlink:href="_land_unit_factory_8h.html" target="_top" xlink:title=" ">
<polygon fill="white" stroke="black" points="1136.5,-134.5 1136.5,-164.5 1263.5,-164.5 1263.5,-134.5 1136.5,-134.5"/>
<text text-anchor="start" x="1144.5" y="-152.5" font-family="Helvetica,sans-Serif" font-size="10.00">include/GameLogic/Units</text>
<text text-anchor="middle" x="1200" y="-141.5" font-family="Helvetica,sans-Serif" font-size="10.00">/LandUnitFactory.h</text>
</a>
</g>
</g>
<!-- Node22&#45;&gt;Node30 -->
<g id="edge43" class="edge">
<title>Node22&#45;&gt;Node30</title>
<path fill="none" stroke="midnightblue" d="M670.88,-210.91C773.73,-203.96 965.7,-188.99 1128,-165 1130.78,-164.59 1133.6,-164.14 1136.46,-163.67"/>
<polygon fill="midnightblue" stroke="midnightblue" points="670.35,-207.44 660.6,-211.6 670.82,-214.42 670.35,-207.44"/>
</g>
<!-- Node32 -->
<g id="node32" class="node">
<title>Node32</title>
<g id="a_node32"><a xlink:href="_transport_unit_factory_8h.html" target="_top" xlink:title=" ">
<polygon fill="white" stroke="black" points="717.5,-134.5 717.5,-164.5 844.5,-164.5 844.5,-134.5 717.5,-134.5"/>
<text text-anchor="start" x="725.5" y="-152.5" font-family="Helvetica,sans-Serif" font-size="10.00">include/GameLogic/Units</text>
<text text-anchor="middle" x="781" y="-141.5" font-family="Helvetica,sans-Serif" font-size="10.00">/TransportUnitFactory.h</text>
</a>
</g>
</g>
<!-- Node22&#45;&gt;Node32 -->
<g id="edge46" class="edge">
<title>Node22&#45;&gt;Node32</title>
<path fill="none" stroke="midnightblue" d="M646.67,-197.96C676.3,-187.48 713.44,-174.37 741.15,-164.58"/>
<polygon fill="midnightblue" stroke="midnightblue" points="645.19,-194.76 636.93,-201.4 647.52,-201.37 645.19,-194.76"/>
</g>
<!-- Node26 -->
<g id="node26" class="node">
<title>Node26</title>
<g id="a_node26"><a xlink:href="_squad_template_8cpp.html" target="_top" xlink:title=" ">
<polygon fill="white" stroke="black" points="257,-67.5 257,-97.5 371,-97.5 371,-67.5 257,-67.5"/>
<text text-anchor="start" x="265" y="-85.5" font-family="Helvetica,sans-Serif" font-size="10.00">src/GameLogic/Squad</text>
<text text-anchor="middle" x="314" y="-74.5" font-family="Helvetica,sans-Serif" font-size="10.00">/SquadTemplate.cpp</text>
</a>
</g>
</g>
<!-- Node25&#45;&gt;Node26 -->
<g id="edge31" class="edge">
<title>Node25&#45;&gt;Node26</title>
<path fill="none" stroke="midnightblue" d="M210.39,-130.27C233.32,-119.92 261.6,-107.15 282.82,-97.58"/>
<polygon fill="midnightblue" stroke="midnightblue" points="208.92,-127.09 201.25,-134.4 211.8,-133.47 208.92,-127.09"/>
</g>
<!-- Node27 -->
<g id="node27" class="node">
<title>Node27</title>
<g id="a_node27"><a xlink:href="_all_squad_templates_8h.html" target="_top" xlink:title=" ">
<polygon fill="white" stroke="black" points="104.5,-67.5 104.5,-97.5 235.5,-97.5 235.5,-67.5 104.5,-67.5"/>
<text text-anchor="start" x="112.5" y="-85.5" font-family="Helvetica,sans-Serif" font-size="10.00">include/GameLogic/Squad</text>
<text text-anchor="middle" x="170" y="-74.5" font-family="Helvetica,sans-Serif" font-size="10.00">/AllSquadTemplates.h</text>
</a>
</g>
</g>
<!-- Node25&#45;&gt;Node27 -->
<g id="edge32" class="edge">
<title>Node25&#45;&gt;Node27</title>
<path fill="none" stroke="midnightblue" d="M170,-124.11C170,-115.15 170,-105.32 170,-97.58"/>
<polygon fill="midnightblue" stroke="midnightblue" points="166.5,-124.4 170,-134.4 173.5,-124.4 166.5,-124.4"/>
</g>
<!-- Node27&#45;&gt;Node4 -->
<g id="edge34" class="edge">
<title>Node27&#45;&gt;Node4</title>
<path fill="none" stroke="midnightblue" d="M129.98,-102.72C117.07,-110.73 103.83,-121.19 95,-134 73.89,-164.62 76,-178.31 76,-215.5 76,-351.5 76,-351.5 76,-351.5 76,-436.71 712.03,-467.92 918.86,-475.81"/>
<polygon fill="midnightblue" stroke="midnightblue" points="131.93,-105.63 138.8,-97.56 128.4,-99.58 131.93,-105.63"/>
</g>
<!-- Node28 -->
<g id="node28" class="node">
<title>Node28</title>
<g id="a_node28"><a xlink:href="_all_squad_templates_8cpp.html" target="_top" xlink:title=" ">
<polygon fill="white" stroke="black" points="109,-0.5 109,-30.5 231,-30.5 231,-0.5 109,-0.5"/>
<text text-anchor="start" x="117" y="-18.5" font-family="Helvetica,sans-Serif" font-size="10.00">src/GameLogic/Squad</text>
<text text-anchor="middle" x="170" y="-7.5" font-family="Helvetica,sans-Serif" font-size="10.00">/AllSquadTemplates.cpp</text>
</a>
</g>
</g>
<!-- Node27&#45;&gt;Node28 -->
<g id="edge33" class="edge">
<title>Node27&#45;&gt;Node28</title>
<path fill="none" stroke="midnightblue" d="M170,-57.11C170,-48.15 170,-38.32 170,-30.58"/>
<polygon fill="midnightblue" stroke="midnightblue" points="166.5,-57.4 170,-67.4 173.5,-57.4 166.5,-57.4"/>
</g>
<!-- Node29&#45;&gt;Node2 -->
<g id="edge39" class="edge">
<title>Node29&#45;&gt;Node2</title>
<path fill="none" stroke="midnightblue" d="M243.39,-132.25C200.11,-122.57 144.38,-109.89 95,-98 87.16,-96.11 78.73,-94.01 70.82,-92"/>
<polygon fill="midnightblue" stroke="midnightblue" points="242.74,-135.69 253.26,-134.45 244.27,-128.86 242.74,-135.69"/>
</g>
<!-- Node29&#45;&gt;Node4 -->
<g id="edge40" class="edge">
<title>Node29&#45;&gt;Node4</title>
<path fill="none" stroke="midnightblue" d="M344.32,-171.2C372.07,-194.79 411,-236.15 411,-282.5 411,-351.5 411,-351.5 411,-351.5 411,-454.54 769.35,-473.72 918.77,-477.23"/>
<polygon fill="midnightblue" stroke="midnightblue" points="346.42,-168.39 336.48,-164.74 341.97,-173.8 346.42,-168.39"/>
</g>
<!-- Node29&#45;&gt;Node12 -->
<g id="edge36" class="edge">
<title>Node29&#45;&gt;Node12</title>
<path fill="none" stroke="midnightblue" d="M373.49,-131.58C408.73,-121.02 453.57,-107.59 486.89,-97.61"/>
<polygon fill="midnightblue" stroke="midnightblue" points="372.39,-128.25 363.82,-134.48 374.4,-134.96 372.39,-128.25"/>
</g>
<!-- Node29&#45;&gt;Node20 -->
<g id="edge38" class="edge">
<title>Node29&#45;&gt;Node20</title>
<path fill="none" stroke="midnightblue" d="M345.96,-128.85C375.38,-109.89 422.89,-81.93 468,-67 573.74,-32.01 606.46,-51.14 716,-31 719.18,-30.41 722.45,-29.78 725.74,-29.12"/>
<polygon fill="midnightblue" stroke="midnightblue" points="343.89,-126.02 337.44,-134.42 347.72,-131.88 343.89,-126.02"/>
</g>
<!-- Node29&#45;&gt;Node26 -->
<g id="edge37" class="edge">
<title>Node29&#45;&gt;Node26</title>
<path fill="none" stroke="midnightblue" d="M315.89,-124.4C315.47,-115.37 315.01,-105.41 314.65,-97.58"/>
<polygon fill="midnightblue" stroke="midnightblue" points="312.39,-124.57 316.35,-134.4 319.38,-124.25 312.39,-124.57"/>
</g>
<!-- Node29&#45;&gt;Node27 -->
<g id="edge41" class="edge">
<title>Node29&#45;&gt;Node27</title>
<path fill="none" stroke="midnightblue" d="M275.77,-130.27C252.36,-119.92 223.49,-107.15 201.83,-97.58"/>
<polygon fill="midnightblue" stroke="midnightblue" points="274.54,-133.55 285.1,-134.4 277.37,-127.15 274.54,-133.55"/>
</g>
<!-- Node30&#45;&gt;Node20 -->
<g id="edge44" class="edge">
<title>Node30&#45;&gt;Node20</title>
<path fill="none" stroke="midnightblue" d="M1177.66,-127.51C1153.13,-104.65 1116.1,-70.81 1108,-67 1019.22,-25.3 903.4,-16.76 836.1,-15.7"/>
<polygon fill="midnightblue" stroke="midnightblue" points="1175.44,-130.23 1185.14,-134.5 1180.22,-125.11 1175.44,-130.23"/>
</g>
<!-- Node31 -->
<g id="node31" class="node">
<title>Node31</title>
<g id="a_node31"><a xlink:href="_land_unit_factory_8cpp.html" target="_top" xlink:title=" ">
<polygon fill="white" stroke="black" points="1155,-67.5 1155,-97.5 1265,-97.5 1265,-67.5 1155,-67.5"/>
<text text-anchor="start" x="1163" y="-85.5" font-family="Helvetica,sans-Serif" font-size="10.00">src/GameLogic/Units</text>
<text text-anchor="middle" x="1210" y="-74.5" font-family="Helvetica,sans-Serif" font-size="10.00">/LandUnitFactory.cpp</text>
</a>
</g>
</g>
<!-- Node30&#45;&gt;Node31 -->
<g id="edge45" class="edge">
<title>Node30&#45;&gt;Node31</title>
<path fill="none" stroke="midnightblue" d="M1203.71,-124.4C1205.1,-115.37 1206.63,-105.41 1207.83,-97.58"/>
<polygon fill="midnightblue" stroke="midnightblue" points="1200.23,-123.98 1202.17,-134.4 1207.15,-125.04 1200.23,-123.98"/>
</g>
<!-- Node32&#45;&gt;Node19 -->
<g id="edge49" class="edge">
<title>Node32&#45;&gt;Node19</title>
<path fill="none" stroke="midnightblue" d="M752.62,-128.45C738.47,-118.45 721.69,-106.6 708.92,-97.58"/>
<polygon fill="midnightblue" stroke="midnightblue" points="750.85,-131.48 761.04,-134.4 754.89,-125.77 750.85,-131.48"/>
</g>
<!-- Node32&#45;&gt;Node20 -->
<g id="edge47" class="edge">
<title>Node32&#45;&gt;Node20</title>
<path fill="none" stroke="midnightblue" d="M781,-124.02C781,-96.51 781,-52.79 781,-30.52"/>
<polygon fill="midnightblue" stroke="midnightblue" points="777.5,-124.37 781,-134.37 784.5,-124.37 777.5,-124.37"/>
</g>
<!-- Node33 -->
<g id="node33" class="node">
<title>Node33</title>
<g id="a_node33"><a xlink:href="_transport_unit_factory_8cpp.html" target="_top" xlink:title=" ">
<polygon fill="white" stroke="black" points="809.5,-67.5 809.5,-97.5 938.5,-97.5 938.5,-67.5 809.5,-67.5"/>
<text text-anchor="start" x="817.5" y="-85.5" font-family="Helvetica,sans-Serif" font-size="10.00">src/GameLogic/Units</text>
<text text-anchor="middle" x="874" y="-74.5" font-family="Helvetica,sans-Serif" font-size="10.00">/TransportUnitFactory.cpp</text>
</a>
</g>
</g>
<!-- Node32&#45;&gt;Node33 -->
<g id="edge48" class="edge">
<title>Node32&#45;&gt;Node33</title>
<path fill="none" stroke="midnightblue" d="M809.69,-128.45C823.99,-118.45 840.95,-106.6 853.86,-97.58"/>
<polygon fill="midnightblue" stroke="midnightblue" points="807.37,-125.8 801.18,-134.4 811.38,-131.54 807.37,-125.8"/>
</g>
<!-- Node34&#45;&gt;Node30 -->
<g id="edge52" class="edge">
<title>Node34&#45;&gt;Node30</title>
<path fill="none" stroke="midnightblue" d="M1156.19,-194.31C1165.94,-184.56 1177.24,-173.26 1185.92,-164.58"/>
<polygon fill="midnightblue" stroke="midnightblue" points="1153.7,-191.85 1149.1,-201.4 1158.65,-196.8 1153.7,-191.85"/>
</g>
<!-- Node35 -->
<g id="node35" class="node">
<title>Node35</title>
<g id="a_node35"><a xlink:href="_land_unit_8cpp.html" target="_top" xlink:title=" ">
<polygon fill="white" stroke="black" points="1282,-134.5 1282,-164.5 1392,-164.5 1392,-134.5 1282,-134.5"/>
<text text-anchor="start" x="1290" y="-152.5" font-family="Helvetica,sans-Serif" font-size="10.00">src/GameLogic/Units</text>
<text text-anchor="middle" x="1337" y="-141.5" font-family="Helvetica,sans-Serif" font-size="10.00">/LandUnit.cpp</text>
</a>
</g>
</g>
<!-- Node34&#45;&gt;Node35 -->
<g id="edge51" class="edge">
<title>Node34&#45;&gt;Node35</title>
<path fill="none" stroke="midnightblue" d="M1188.68,-198.23C1221.35,-187.71 1262.57,-174.45 1293.25,-164.58"/>
<polygon fill="midnightblue" stroke="midnightblue" points="1187.28,-195 1178.83,-201.4 1189.42,-201.66 1187.28,-195"/>
</g>
<!-- Node36&#45;&gt;Node17 -->
<g id="edge55" class="edge">
<title>Node36&#45;&gt;Node17</title>
<path fill="none" stroke="midnightblue" d="M965.42,-196.71C985.29,-186.46 1009.48,-173.98 1027.71,-164.58"/>
<polygon fill="midnightblue" stroke="midnightblue" points="963.62,-193.7 956.34,-201.4 966.83,-199.92 963.62,-193.7"/>
</g>
<!-- Node36&#45;&gt;Node32 -->
<g id="edge56" class="edge">
<title>Node36&#45;&gt;Node32</title>
<path fill="none" stroke="midnightblue" d="M887.49,-197.27C863.92,-186.92 834.86,-174.15 813.05,-164.58"/>
<polygon fill="midnightblue" stroke="midnightblue" points="886.32,-200.58 896.89,-201.4 889.14,-194.17 886.32,-200.58"/>
</g>
<!-- Node37 -->
<g id="node37" class="node">
<title>Node37</title>
<g id="a_node37"><a xlink:href="_transport_unit_8cpp.html" target="_top" xlink:title=" ">
<polygon fill="white" stroke="black" points="863,-134.5 863,-164.5 973,-164.5 973,-134.5 863,-134.5"/>
<text text-anchor="start" x="871" y="-152.5" font-family="Helvetica,sans-Serif" font-size="10.00">src/GameLogic/Units</text>
<text text-anchor="middle" x="918" y="-141.5" font-family="Helvetica,sans-Serif" font-size="10.00">/TransportUnit.cpp</text>
</a>
</g>
</g>
<!-- Node36&#45;&gt;Node37 -->
<g id="edge54" class="edge">
<title>Node36&#45;&gt;Node37</title>
<path fill="none" stroke="midnightblue" d="M924.92,-191.4C923.39,-182.37 921.71,-172.41 920.38,-164.58"/>
<polygon fill="midnightblue" stroke="midnightblue" points="921.49,-192.12 926.61,-201.4 928.4,-190.95 921.49,-192.12"/>
</g>
<!-- Node38&#45;&gt;Node13 -->
<g id="edge61" class="edge">
<title>Node38&#45;&gt;Node13</title>
<path fill="none" stroke="midnightblue" d="M1275.11,-235.15C1246.56,-245.59 1209.49,-258.64 1180.6,-268.4"/>
<polygon fill="midnightblue" stroke="midnightblue" points="1276.65,-238.31 1284.83,-231.58 1274.23,-231.75 1276.65,-238.31"/>
</g>
<!-- Node38&#45;&gt;Node14 -->
<g id="edge58" class="edge">
<title>Node38&#45;&gt;Node14</title>
<path fill="none" stroke="midnightblue" d="M1359.95,-197.27C1383.2,-186.92 1411.87,-174.15 1433.38,-164.58"/>
<polygon fill="midnightblue" stroke="midnightblue" points="1358.39,-194.13 1350.68,-201.4 1361.24,-200.53 1358.39,-194.13"/>
</g>
<!-- Node38&#45;&gt;Node15 -->
<g id="edge60" class="edge">
<title>Node38&#45;&gt;Node15</title>
<path fill="none" stroke="midnightblue" d="M1393.07,-201.65C1394.39,-201.43 1395.7,-201.21 1397,-201 1512.16,-182.33 1541.91,-184.08 1657,-165 1660.01,-164.5 1663.08,-163.97 1666.19,-163.43"/>
<polygon fill="midnightblue" stroke="midnightblue" points="1392.08,-198.26 1382.81,-203.39 1393.25,-205.16 1392.08,-198.26"/>
</g>
<!-- Node39 -->
<g id="node39" class="node">
<title>Node39</title>
<g id="a_node39"><a xlink:href="_unit_order_8cpp.html" target="_top" xlink:title=" ">
<polygon fill="white" stroke="black" points="1538,-134.5 1538,-164.5 1648,-164.5 1648,-134.5 1538,-134.5"/>
<text text-anchor="start" x="1546" y="-152.5" font-family="Helvetica,sans-Serif" font-size="10.00">src/GameLogic/Units</text>
<text text-anchor="middle" x="1593" y="-141.5" font-family="Helvetica,sans-Serif" font-size="10.00">/UnitOrder.cpp</text>
</a>
</g>
</g>
<!-- Node38&#45;&gt;Node39 -->
<g id="edge59" class="edge">
<title>Node38&#45;&gt;Node39</title>
<path fill="none" stroke="midnightblue" d="M1388.08,-199.11C1434.39,-188.13 1494.58,-173.85 1537.72,-163.61"/>
<polygon fill="midnightblue" stroke="midnightblue" points="1387.04,-195.76 1378.12,-201.48 1388.65,-202.57 1387.04,-195.76"/>
</g>
<!-- Node40&#45;&gt;Node10 -->
<g id="edge63" class="edge">
<title>Node40&#45;&gt;Node10</title>
<path fill="none" stroke="midnightblue" d="M1624.19,-269.77C1649.41,-258.77 1685.79,-242.89 1711.84,-231.53"/>
<polygon fill="midnightblue" stroke="midnightblue" points="1622.55,-266.66 1614.79,-273.87 1625.35,-273.08 1622.55,-266.66"/>
</g>
<!-- Node41 -->
<g id="node41" class="node">
<title>Node41</title>
<g id="a_node41"><a xlink:href="pathfinding_8cpp.html" target="_top" xlink:title=" ">
<polygon fill="white" stroke="black" points="1819.5,-207 1819.5,-226 1932.5,-226 1932.5,-207 1819.5,-207"/>
<text text-anchor="middle" x="1876" y="-214" font-family="Helvetica,sans-Serif" font-size="10.00">src/util/pathfinding.cpp</text>
</a>
</g>
</g>
<!-- Node40&#45;&gt;Node41 -->
<g id="edge64" class="edge">
<title>Node40&#45;&gt;Node41</title>
<path fill="none" stroke="midnightblue" d="M1641.93,-271.64C1697.3,-258.84 1788.2,-237.81 1838.89,-226.08"/>
<polygon fill="midnightblue" stroke="midnightblue" points="1640.98,-268.27 1632.02,-273.94 1642.56,-275.09 1640.98,-268.27"/>
</g>
<!-- Node42&#45;&gt;Node4 -->
<g id="edge70" class="edge">
<title>Node42&#45;&gt;Node4</title>
<path fill="none" stroke="midnightblue" d="M1011.89,-517.14C1004.57,-507.74 995.76,-496.4 989.81,-488.75"/>
<polygon fill="midnightblue" stroke="midnightblue" points="1009.16,-519.34 1018.06,-525.08 1014.69,-515.04 1009.16,-519.34"/>
</g>
<!-- Node43 -->
<g id="node43" class="node">
<title>Node43</title>
<g id="a_node43"><a xlink:href="geometry_8cpp.html" target="_top" xlink:title=" ">
<polygon fill="white" stroke="black" points="1065.5,-469.5 1065.5,-488.5 1172.5,-488.5 1172.5,-469.5 1065.5,-469.5"/>
<text text-anchor="middle" x="1119" y="-476.5" font-family="Helvetica,sans-Serif" font-size="10.00">src/util/geometry.cpp</text>
</a>
</g>
</g>
<!-- Node42&#45;&gt;Node43 -->
<g id="edge69" class="edge">
<title>Node42&#45;&gt;Node43</title>
<path fill="none" stroke="midnightblue" d="M1049.06,-520.18C1066.36,-510.24 1089.15,-497.15 1103.93,-488.65"/>
<polygon fill="midnightblue" stroke="midnightblue" points="1047.03,-517.31 1040.1,-525.32 1050.52,-523.38 1047.03,-517.31"/>
</g>
</g>
</svg>
