<?xml version="1.0" encoding="UTF-8" standalone="no"?>
<!DOCTYPE svg PUBLIC "-//W3C//DTD SVG 1.1//EN"
 "http://www.w3.org/Graphics/SVG/1.1/DTD/svg11.dtd">
<!-- Generated by graphviz version 2.47.1 (20210421.1823)
 -->
<!-- Title: engine::GUI::GuiList Pages: 1 -->
<svg width="137pt" height="397pt"
 viewBox="0.00 0.00 137.00 397.00" xmlns="http://www.w3.org/2000/svg" xmlns:xlink="http://www.w3.org/1999/xlink">
<g id="graph0" class="graph" transform="scale(1 1) rotate(0) translate(4 393)">
<title>engine::GUI::GuiList</title>
<polygon fill="white" stroke="transparent" points="-4,4 -4,-393 133,-393 133,4 -4,4"/>
<!-- Node1 -->
<g id="node1" class="node">
<title>Node1</title>
<g id="a_node1"><a xlink:title=" ">
<polygon fill="#bfbfbf" stroke="black" points="12.5,-0.5 12.5,-134.5 116.5,-134.5 116.5,-0.5 12.5,-0.5"/>
<text text-anchor="middle" x="64.5" y="-122.5" font-family="Helvetica,sans-Serif" font-size="10.00">engine::GUI::GuiList</text>
<polyline fill="none" stroke="black" points="12.5,-115.5 116.5,-115.5 "/>
<text text-anchor="start" x="20.5" y="-103.5" font-family="Helvetica,sans-Serif" font-size="10.00">+ background</text>
<text text-anchor="start" x="20.5" y="-92.5" font-family="Helvetica,sans-Serif" font-size="10.00"># children</text>
<text text-anchor="start" x="20.5" y="-81.5" font-family="Helvetica,sans-Serif" font-size="10.00"># newPos</text>
<polyline fill="none" stroke="black" points="12.5,-74.5 116.5,-74.5 "/>
<text text-anchor="start" x="20.5" y="-62.5" font-family="Helvetica,sans-Serif" font-size="10.00">+ GuiList()</text>
<text text-anchor="start" x="20.5" y="-51.5" font-family="Helvetica,sans-Serif" font-size="10.00">+ tick()</text>
<text text-anchor="start" x="20.5" y="-40.5" font-family="Helvetica,sans-Serif" font-size="10.00">+ lateTick()</text>
<text text-anchor="start" x="20.5" y="-29.5" font-family="Helvetica,sans-Serif" font-size="10.00">+ render()</text>
<text text-anchor="start" x="20.5" y="-18.5" font-family="Helvetica,sans-Serif" font-size="10.00">+ tryOnClick()</text>
<text text-anchor="start" x="20.5" y="-7.5" font-family="Helvetica,sans-Serif" font-size="10.00">+ addChild()</text>
</a>
</g>
</g>
<!-- Node2 -->
<g id="node2" class="node">
<title>Node2</title>
<g id="a_node2"><a xlink:href="classengine_1_1_g_u_i_1_1_gui_object.html" target="_top" xlink:title=" ">
<polygon fill="white" stroke="black" points="6.5,-171.5 6.5,-239.5 122.5,-239.5 122.5,-171.5 6.5,-171.5"/>
<text text-anchor="middle" x="64.5" y="-227.5" font-family="Helvetica,sans-Serif" font-size="10.00">engine::GUI::GuiObject</text>
<polyline fill="none" stroke="black" points="6.5,-220.5 122.5,-220.5 "/>
<text text-anchor="start" x="14.5" y="-208.5" font-family="Helvetica,sans-Serif" font-size="10.00">+ boundary</text>
<polyline fill="none" stroke="black" points="6.5,-201.5 122.5,-201.5 "/>
<text text-anchor="start" x="14.5" y="-189.5" font-family="Helvetica,sans-Serif" font-size="10.00">+ GuiObject()</text>
<text text-anchor="start" x="14.5" y="-178.5" font-family="Helvetica,sans-Serif" font-size="10.00">+ getRenderEdges()</text>
</a>
</g>
</g>
<!-- Node2&#45;&gt;Node1 -->
<g id="edge1" class="edge">
<title>Node2&#45;&gt;Node1</title>
<path fill="none" stroke="midnightblue" d="M64.5,-160.96C64.5,-152.57 64.5,-143.6 64.5,-134.68"/>
<polygon fill="none" stroke="midnightblue" points="61,-161.23 64.5,-171.23 68,-161.23 61,-161.23"/>
</g>
<!-- Node3 -->
<g id="node3" class="node">
<title>Node3</title>
<g id="a_node3"><a xlink:href="classengine_1_1game_object.html" target="_top" xlink:title=" ">
<polygon fill="white" stroke="black" points="0,-276.5 0,-388.5 129,-388.5 129,-276.5 0,-276.5"/>
<text text-anchor="middle" x="64.5" y="-376.5" font-family="Helvetica,sans-Serif" font-size="10.00">engine::gameObject</text>
<polyline fill="none" stroke="black" points="0,-369.5 129,-369.5 "/>
<text text-anchor="start" x="8" y="-357.5" font-family="Helvetica,sans-Serif" font-size="10.00">+ id</text>
<text text-anchor="start" x="8" y="-346.5" font-family="Helvetica,sans-Serif" font-size="10.00">+ gameObjectListPosition</text>
<polyline fill="none" stroke="black" points="0,-339.5 129,-339.5 "/>
<text text-anchor="start" x="8" y="-327.5" font-family="Helvetica,sans-Serif" font-size="10.00">+ tick()</text>
<text text-anchor="start" x="8" y="-316.5" font-family="Helvetica,sans-Serif" font-size="10.00">+ lateTick()</text>
<text text-anchor="start" x="8" y="-305.5" font-family="Helvetica,sans-Serif" font-size="10.00">+ render()</text>
<text text-anchor="start" x="8" y="-294.5" font-family="Helvetica,sans-Serif" font-size="10.00">+ getRenderEdges()</text>
<text text-anchor="start" x="8" y="-283.5" font-family="Helvetica,sans-Serif" font-size="10.00">+ tryOnClick()</text>
</a>
</g>
</g>
<!-- Node3&#45;&gt;Node2 -->
<g id="edge2" class="edge">
<title>Node3&#45;&gt;Node2</title>
<path fill="none" stroke="midnightblue" d="M64.5,-266.26C64.5,-256.99 64.5,-247.8 64.5,-239.51"/>
<polygon fill="none" stroke="midnightblue" points="61,-266.31 64.5,-276.31 68,-266.31 61,-266.31"/>
</g>
</g>
</svg>
