<?xml version="1.0" encoding="UTF-8" standalone="no"?>
<!DOCTYPE svg PUBLIC "-//W3C//DTD SVG 1.1//EN"
 "http://www.w3.org/Graphics/SVG/1.1/DTD/svg11.dtd">
<!-- Generated by graphviz version 2.47.1 (20210421.1823)
 -->
<!-- Title: Squads::Squad::Squad Pages: 1 -->
<svg width="427pt" height="137pt"
 viewBox="0.00 0.00 427.00 137.00" xmlns="http://www.w3.org/2000/svg" xmlns:xlink="http://www.w3.org/1999/xlink">
<g id="graph0" class="graph" transform="scale(1 1) rotate(0) translate(4 133)">
<title>Squads::Squad::Squad</title>
<polygon fill="white" stroke="transparent" points="-4,4 -4,-133 423,-133 423,4 -4,4"/>
<!-- Node1 -->
<g id="node1" class="node">
<title>Node1</title>
<g id="a_node1"><a xlink:title=" ">
<polygon fill="#bfbfbf" stroke="black" points="0,-55 0,-74 114,-74 114,-55 0,-55"/>
<text text-anchor="middle" x="57" y="-62" font-family="Helvetica,sans-Serif" font-size="10.00">Squads::Squad::Squad</text>
</a>
</g>
</g>
<!-- Node2 -->
<g id="node2" class="node">
<title>Node2</title>
<g id="a_node2"><a xlink:href="classengine_1_1game_controller.html#ae2459bdafdf03e3b1519a14738744f00" target="_top" xlink:title=" ">
<polygon fill="white" stroke="black" points="154.5,-98.5 154.5,-128.5 269.5,-128.5 269.5,-98.5 154.5,-98.5"/>
<text text-anchor="start" x="162.5" y="-116.5" font-family="Helvetica,sans-Serif" font-size="10.00">engine::gameController</text>
<text text-anchor="middle" x="212" y="-105.5" font-family="Helvetica,sans-Serif" font-size="10.00">::Instance</text>
</a>
</g>
</g>
<!-- Node1&#45;&gt;Node2 -->
<g id="edge1" class="edge">
<title>Node1&#45;&gt;Node2</title>
<path fill="none" stroke="midnightblue" d="M87.86,-74.06C106.73,-80.11 131.71,-88.11 154.23,-95.32"/>
<polygon fill="midnightblue" stroke="midnightblue" points="153.46,-98.75 164.05,-98.46 155.59,-92.08 153.46,-98.75"/>
</g>
<!-- Node3 -->
<g id="node3" class="node">
<title>Node3</title>
<g id="a_node3"><a xlink:href="classengine_1_1_network_manager.html#aaf96b7aefc25cbac756e7ca5660030e3" target="_top" xlink:title=" ">
<polygon fill="white" stroke="black" points="150,-49.5 150,-79.5 274,-79.5 274,-49.5 150,-49.5"/>
<text text-anchor="start" x="158" y="-67.5" font-family="Helvetica,sans-Serif" font-size="10.00">engine::NetworkManager</text>
<text text-anchor="middle" x="212" y="-56.5" font-family="Helvetica,sans-Serif" font-size="10.00">::makeShared</text>
</a>
</g>
</g>
<!-- Node1&#45;&gt;Node3 -->
<g id="edge2" class="edge">
<title>Node1&#45;&gt;Node3</title>
<path fill="none" stroke="midnightblue" d="M114.1,-64.5C122.44,-64.5 131.12,-64.5 139.72,-64.5"/>
<polygon fill="midnightblue" stroke="midnightblue" points="139.75,-68 149.75,-64.5 139.75,-61 139.75,-68"/>
</g>
<!-- Node6 -->
<g id="node6" class="node">
<title>Node6</title>
<g id="a_node6"><a xlink:href="classengine_1_1game_controller.html#acbec181b8935b2fd7670808494823345" target="_top" xlink:title=" ">
<polygon fill="white" stroke="black" points="154.5,-0.5 154.5,-30.5 269.5,-30.5 269.5,-0.5 154.5,-0.5"/>
<text text-anchor="start" x="162.5" y="-18.5" font-family="Helvetica,sans-Serif" font-size="10.00">engine::gameController</text>
<text text-anchor="middle" x="212" y="-7.5" font-family="Helvetica,sans-Serif" font-size="10.00">::registerObject</text>
</a>
</g>
</g>
<!-- Node1&#45;&gt;Node6 -->
<g id="edge5" class="edge">
<title>Node1&#45;&gt;Node6</title>
<path fill="none" stroke="midnightblue" d="M87.86,-54.94C106.73,-48.89 131.71,-40.89 154.23,-33.68"/>
<polygon fill="midnightblue" stroke="midnightblue" points="155.59,-36.92 164.05,-30.54 153.46,-30.25 155.59,-36.92"/>
</g>
<!-- Node4 -->
<g id="node4" class="node">
<title>Node4</title>
<g id="a_node4"><a xlink:href="classengine_1_1game_object.html#a8053816dc4af5fb4c0755edd6bae1069" target="_top" xlink:title=" ">
<polygon fill="white" stroke="black" points="313.5,-71.5 313.5,-101.5 415.5,-101.5 415.5,-71.5 313.5,-71.5"/>
<text text-anchor="start" x="321.5" y="-89.5" font-family="Helvetica,sans-Serif" font-size="10.00">engine::gameObject</text>
<text text-anchor="middle" x="364.5" y="-78.5" font-family="Helvetica,sans-Serif" font-size="10.00">::repr</text>
</a>
</g>
</g>
<!-- Node3&#45;&gt;Node4 -->
<g id="edge3" class="edge">
<title>Node3&#45;&gt;Node4</title>
<path fill="none" stroke="midnightblue" d="M274.21,-73.45C283.78,-74.85 293.65,-76.29 303.19,-77.68"/>
<polygon fill="midnightblue" stroke="midnightblue" points="302.98,-81.19 313.39,-79.17 304,-74.26 302.98,-81.19"/>
</g>
<!-- Node5 -->
<g id="node5" class="node">
<title>Node5</title>
<g id="a_node5"><a xlink:href="classengine_1_1_logger.html#aa4821d031aaabdef211acc1e04db1f04" target="_top" xlink:title=" ">
<polygon fill="white" stroke="black" points="310,-33 310,-52 419,-52 419,-33 310,-33"/>
<text text-anchor="middle" x="364.5" y="-40" font-family="Helvetica,sans-Serif" font-size="10.00">engine::Logger::Trace</text>
</a>
</g>
</g>
<!-- Node3&#45;&gt;Node5 -->
<g id="edge4" class="edge">
<title>Node3&#45;&gt;Node5</title>
<path fill="none" stroke="midnightblue" d="M274.21,-55.55C282.55,-54.33 291.11,-53.08 299.49,-51.86"/>
<polygon fill="midnightblue" stroke="midnightblue" points="300.2,-55.29 309.59,-50.38 299.19,-48.36 300.2,-55.29"/>
</g>
</g>
</svg>
