<?xml version="1.0" encoding="UTF-8" standalone="no"?>
<!DOCTYPE svg PUBLIC "-//W3C//DTD SVG 1.1//EN"
 "http://www.w3.org/Graphics/SVG/1.1/DTD/svg11.dtd">
<!-- Generated by graphviz version 2.47.1 (20210421.1823)
 -->
<!-- Title: engine::actions::SpawnAction::apply Pages: 1 -->
<svg width="311pt" height="165pt"
 viewBox="0.00 0.00 311.00 165.00" xmlns="http://www.w3.org/2000/svg" xmlns:xlink="http://www.w3.org/1999/xlink">
<g id="graph0" class="graph" transform="scale(1 1) rotate(0) translate(4 161)">
<title>engine::actions::SpawnAction::apply</title>
<polygon fill="white" stroke="transparent" points="-4,4 -4,-161 307,-161 307,4 -4,4"/>
<!-- Node1 -->
<g id="node1" class="node">
<title>Node1</title>
<g id="a_node1"><a xlink:title=" ">
<polygon fill="#bfbfbf" stroke="black" points="0,-63 0,-93 143,-93 143,-63 0,-63"/>
<text text-anchor="start" x="8" y="-81" font-family="Helvetica,sans-Serif" font-size="10.00">engine::actions::SpawnAction</text>
<text text-anchor="middle" x="71.5" y="-70" font-family="Helvetica,sans-Serif" font-size="10.00">::apply</text>
</a>
</g>
</g>
<!-- Node2 -->
<g id="node2" class="node">
<title>Node2</title>
<g id="a_node2"><a xlink:href="classengine_1_1_logger.html#a2ce15243188b4b6c992ca9b09db4e0bf" target="_top" xlink:title=" ">
<polygon fill="white" stroke="black" points="185,-137.5 185,-156.5 297,-156.5 297,-137.5 185,-137.5"/>
<text text-anchor="middle" x="241" y="-144.5" font-family="Helvetica,sans-Serif" font-size="10.00">engine::Logger::Debug</text>
</a>
</g>
</g>
<!-- Node1&#45;&gt;Node2 -->
<g id="edge1" class="edge">
<title>Node1&#45;&gt;Node2</title>
<path fill="none" stroke="midnightblue" d="M101.86,-93.12C122.99,-103.66 152.34,-117.65 179,-128 184.63,-130.19 190.63,-132.3 196.58,-134.28"/>
<polygon fill="midnightblue" stroke="midnightblue" points="195.88,-137.73 206.47,-137.46 198.02,-131.07 195.88,-137.73"/>
</g>
<!-- Node3 -->
<g id="node3" class="node">
<title>Node3</title>
<g id="a_node3"><a xlink:href="classengine_1_1_network_manager.html#a56504e3d77a73e472701788174bca212" target="_top" xlink:title=" ">
<polygon fill="white" stroke="black" points="179,-88 179,-118 303,-118 303,-88 179,-88"/>
<text text-anchor="start" x="187" y="-106" font-family="Helvetica,sans-Serif" font-size="10.00">engine::NetworkManager</text>
<text text-anchor="middle" x="241" y="-95" font-family="Helvetica,sans-Serif" font-size="10.00">::getShared</text>
</a>
</g>
</g>
<!-- Node1&#45;&gt;Node3 -->
<g id="edge2" class="edge">
<title>Node1&#45;&gt;Node3</title>
<path fill="none" stroke="midnightblue" d="M143.05,-88.53C151.6,-89.81 160.33,-91.11 168.89,-92.39"/>
<polygon fill="midnightblue" stroke="midnightblue" points="168.42,-95.85 178.82,-93.87 169.45,-88.93 168.42,-95.85"/>
</g>
<!-- Node4 -->
<g id="node4" class="node">
<title>Node4</title>
<g id="a_node4"><a xlink:href="classengine_1_1game_controller.html#ae2459bdafdf03e3b1519a14738744f00" target="_top" xlink:title=" ">
<polygon fill="white" stroke="black" points="183.5,-39 183.5,-69 298.5,-69 298.5,-39 183.5,-39"/>
<text text-anchor="start" x="191.5" y="-57" font-family="Helvetica,sans-Serif" font-size="10.00">engine::gameController</text>
<text text-anchor="middle" x="241" y="-46" font-family="Helvetica,sans-Serif" font-size="10.00">::Instance</text>
</a>
</g>
</g>
<!-- Node1&#45;&gt;Node4 -->
<g id="edge3" class="edge">
<title>Node1&#45;&gt;Node4</title>
<path fill="none" stroke="midnightblue" d="M143.05,-67.89C153,-66.47 163.21,-65 173.09,-63.59"/>
<polygon fill="midnightblue" stroke="midnightblue" points="173.85,-67.01 183.25,-62.13 172.85,-60.09 173.85,-67.01"/>
</g>
<!-- Node5 -->
<g id="node5" class="node">
<title>Node5</title>
<g id="a_node5"><a xlink:href="classengine_1_1_logger.html#aa4821d031aaabdef211acc1e04db1f04" target="_top" xlink:title=" ">
<polygon fill="white" stroke="black" points="186.5,-0.5 186.5,-19.5 295.5,-19.5 295.5,-0.5 186.5,-0.5"/>
<text text-anchor="middle" x="241" y="-7.5" font-family="Helvetica,sans-Serif" font-size="10.00">engine::Logger::Trace</text>
</a>
</g>
</g>
<!-- Node1&#45;&gt;Node5 -->
<g id="edge4" class="edge">
<title>Node1&#45;&gt;Node5</title>
<path fill="none" stroke="midnightblue" d="M103.81,-62.82C124.84,-52.9 153.29,-39.98 179,-30 185.42,-27.51 192.3,-25.05 199.04,-22.76"/>
<polygon fill="midnightblue" stroke="midnightblue" points="200.35,-26.01 208.74,-19.54 198.15,-19.37 200.35,-26.01"/>
</g>
</g>
</svg>
