<?xml version="1.0" encoding="UTF-8" standalone="no"?>
<!DOCTYPE svg PUBLIC "-//W3C//DTD SVG 1.1//EN"
 "http://www.w3.org/Graphics/SVG/1.1/DTD/svg11.dtd">
<!-- Generated by graphviz version 2.47.1 (20210421.1823)
 -->
<!-- Title: Units::Unit Pages: 1 -->
<svg width="332pt" height="446pt"
 viewBox="0.00 0.00 331.50 446.00" xmlns="http://www.w3.org/2000/svg" xmlns:xlink="http://www.w3.org/1999/xlink">
<g id="graph0" class="graph" transform="scale(1 1) rotate(0) translate(4 442)">
<title>Units::Unit</title>
<polygon fill="white" stroke="transparent" points="-4,4 -4,-442 327.5,-442 327.5,4 -4,4"/>
<!-- Node1 -->
<g id="node1" class="node">
<title>Node1</title>
<g id="a_node1"><a xlink:title=" ">
<polygon fill="#bfbfbf" stroke="black" points="89.5,-160.5 89.5,-437.5 229.5,-437.5 229.5,-160.5 89.5,-160.5"/>
<text text-anchor="middle" x="159.5" y="-425.5" font-family="Helvetica,sans-Serif" font-size="10.00">Units::Unit</text>
<polyline fill="none" stroke="black" points="89.5,-418.5 229.5,-418.5 "/>
<text text-anchor="start" x="97.5" y="-406.5" font-family="Helvetica,sans-Serif" font-size="10.00">+ name</text>
<text text-anchor="start" x="97.5" y="-395.5" font-family="Helvetica,sans-Serif" font-size="10.00">+ texture</text>
<text text-anchor="start" x="97.5" y="-384.5" font-family="Helvetica,sans-Serif" font-size="10.00">+ weight</text>
<text text-anchor="start" x="97.5" y="-373.5" font-family="Helvetica,sans-Serif" font-size="10.00">+ landscapeFlagResists</text>
<text text-anchor="start" x="97.5" y="-362.5" font-family="Helvetica,sans-Serif" font-size="10.00">+ borderFlagResists</text>
<text text-anchor="start" x="97.5" y="-351.5" font-family="Helvetica,sans-Serif" font-size="10.00">+ commonSpeed</text>
<text text-anchor="start" x="97.5" y="-340.5" font-family="Helvetica,sans-Serif" font-size="10.00"># currentOrder</text>
<text text-anchor="start" x="97.5" y="-329.5" font-family="Helvetica,sans-Serif" font-size="10.00"># currentUsageOfOrder</text>
<text text-anchor="start" x="97.5" y="-318.5" font-family="Helvetica,sans-Serif" font-size="10.00"># allOrders</text>
<text text-anchor="start" x="97.5" y="-307.5" font-family="Helvetica,sans-Serif" font-size="10.00"># squad</text>
<text text-anchor="start" x="97.5" y="-296.5" font-family="Helvetica,sans-Serif" font-size="10.00"># unitLandscapeFlagResists</text>
<text text-anchor="start" x="97.5" y="-285.5" font-family="Helvetica,sans-Serif" font-size="10.00"># unitBorderFlagResists</text>
<text text-anchor="start" x="97.5" y="-274.5" font-family="Helvetica,sans-Serif" font-size="10.00"># unitSpeed</text>
<text text-anchor="start" x="97.5" y="-263.5" font-family="Helvetica,sans-Serif" font-size="10.00"># HP</text>
<polyline fill="none" stroke="black" points="89.5,-256.5 229.5,-256.5 "/>
<text text-anchor="start" x="97.5" y="-244.5" font-family="Helvetica,sans-Serif" font-size="10.00">+ Unit()</text>
<text text-anchor="start" x="97.5" y="-233.5" font-family="Helvetica,sans-Serif" font-size="10.00">+ Unit()</text>
<text text-anchor="start" x="97.5" y="-222.5" font-family="Helvetica,sans-Serif" font-size="10.00">+ setSquad()</text>
<text text-anchor="start" x="97.5" y="-211.5" font-family="Helvetica,sans-Serif" font-size="10.00">+ tick()</text>
<text text-anchor="start" x="97.5" y="-200.5" font-family="Helvetica,sans-Serif" font-size="10.00">+ getAttack()</text>
<text text-anchor="start" x="97.5" y="-189.5" font-family="Helvetica,sans-Serif" font-size="10.00">+ isOrderPossible()</text>
<text text-anchor="start" x="97.5" y="-178.5" font-family="Helvetica,sans-Serif" font-size="10.00">+ enableOrder()</text>
<text text-anchor="start" x="97.5" y="-167.5" font-family="Helvetica,sans-Serif" font-size="10.00">+ disableOrder()</text>
</a>
</g>
</g>
<!-- Node2 -->
<g id="node2" class="node">
<title>Node2</title>
<g id="a_node2"><a xlink:href="class_units_1_1_armored_unit.html" target="_top" xlink:title=" ">
<polygon fill="white" stroke="black" points="0,-6 0,-118 99,-118 99,-6 0,-6"/>
<text text-anchor="middle" x="49.5" y="-106" font-family="Helvetica,sans-Serif" font-size="10.00">Units::ArmoredUnit</text>
<polyline fill="none" stroke="black" points="0,-99 99,-99 "/>
<text text-anchor="middle" x="49.5" y="-87" font-family="Helvetica,sans-Serif" font-size="10.00"> </text>
<polyline fill="none" stroke="black" points="0,-80 99,-80 "/>
<text text-anchor="start" x="8" y="-68" font-family="Helvetica,sans-Serif" font-size="10.00">+ getAsTransport()</text>
<text text-anchor="start" x="8" y="-57" font-family="Helvetica,sans-Serif" font-size="10.00">+ ArmoredUnit()</text>
<text text-anchor="start" x="8" y="-46" font-family="Helvetica,sans-Serif" font-size="10.00">+ ArmoredUnit()</text>
<text text-anchor="start" x="8" y="-35" font-family="Helvetica,sans-Serif" font-size="10.00">+ getAttack()</text>
<text text-anchor="start" x="8" y="-24" font-family="Helvetica,sans-Serif" font-size="10.00">+ setStats()</text>
<text text-anchor="start" x="8" y="-13" font-family="Helvetica,sans-Serif" font-size="10.00">+ tick()</text>
</a>
</g>
</g>
<!-- Node1&#45;&gt;Node2 -->
<g id="edge1" class="edge">
<title>Node1&#45;&gt;Node2</title>
<path fill="none" stroke="midnightblue" d="M90.68,-150.97C85.28,-139.45 80.08,-128.34 75.3,-118.11"/>
<polygon fill="none" stroke="midnightblue" points="87.63,-152.71 95.04,-160.28 93.97,-149.74 87.63,-152.71"/>
</g>
<!-- Node3 -->
<g id="node3" class="node">
<title>Node3</title>
<g id="a_node3"><a xlink:href="class_units_1_1_land_unit.html" target="_top" xlink:title=" ">
<polygon fill="white" stroke="black" points="117.5,-17 117.5,-107 201.5,-107 201.5,-17 117.5,-17"/>
<text text-anchor="middle" x="159.5" y="-95" font-family="Helvetica,sans-Serif" font-size="10.00">Units::LandUnit</text>
<polyline fill="none" stroke="black" points="117.5,-88 201.5,-88 "/>
<text text-anchor="middle" x="159.5" y="-76" font-family="Helvetica,sans-Serif" font-size="10.00"> </text>
<polyline fill="none" stroke="black" points="117.5,-69 201.5,-69 "/>
<text text-anchor="start" x="125.5" y="-57" font-family="Helvetica,sans-Serif" font-size="10.00">+ LandUnit()</text>
<text text-anchor="start" x="125.5" y="-46" font-family="Helvetica,sans-Serif" font-size="10.00">+ setStats()</text>
<text text-anchor="start" x="125.5" y="-35" font-family="Helvetica,sans-Serif" font-size="10.00">+ tick()</text>
<text text-anchor="start" x="125.5" y="-24" font-family="Helvetica,sans-Serif" font-size="10.00">+ getAttack()</text>
</a>
</g>
</g>
<!-- Node1&#45;&gt;Node3 -->
<g id="edge2" class="edge">
<title>Node1&#45;&gt;Node3</title>
<path fill="none" stroke="midnightblue" d="M159.5,-150.1C159.5,-134.76 159.5,-120.16 159.5,-107.45"/>
<polygon fill="none" stroke="midnightblue" points="156,-150.28 159.5,-160.28 163,-150.28 156,-150.28"/>
</g>
<!-- Node4 -->
<g id="node4" class="node">
<title>Node4</title>
<g id="a_node4"><a xlink:href="class_units_1_1_transport_unit.html" target="_top" xlink:title=" ">
<polygon fill="white" stroke="black" points="219.5,-0.5 219.5,-123.5 323.5,-123.5 323.5,-0.5 219.5,-0.5"/>
<text text-anchor="middle" x="271.5" y="-111.5" font-family="Helvetica,sans-Serif" font-size="10.00">Units::TransportUnit</text>
<polyline fill="none" stroke="black" points="219.5,-104.5 323.5,-104.5 "/>
<text text-anchor="middle" x="271.5" y="-92.5" font-family="Helvetica,sans-Serif" font-size="10.00"> </text>
<polyline fill="none" stroke="black" points="219.5,-85.5 323.5,-85.5 "/>
<text text-anchor="start" x="227.5" y="-73.5" font-family="Helvetica,sans-Serif" font-size="10.00">+ getAttack()</text>
<text text-anchor="start" x="227.5" y="-62.5" font-family="Helvetica,sans-Serif" font-size="10.00">+ isPossibleToAdd()</text>
<text text-anchor="start" x="227.5" y="-51.5" font-family="Helvetica,sans-Serif" font-size="10.00">+ addUnit()</text>
<text text-anchor="start" x="227.5" y="-40.5" font-family="Helvetica,sans-Serif" font-size="10.00">+ deleteUnit()</text>
<text text-anchor="start" x="227.5" y="-29.5" font-family="Helvetica,sans-Serif" font-size="10.00">+ TransportUnit()</text>
<text text-anchor="start" x="227.5" y="-18.5" font-family="Helvetica,sans-Serif" font-size="10.00">+ setStats()</text>
<text text-anchor="start" x="227.5" y="-7.5" font-family="Helvetica,sans-Serif" font-size="10.00">+ tick()</text>
</a>
</g>
</g>
<!-- Node1&#45;&gt;Node4 -->
<g id="edge3" class="edge">
<title>Node1&#45;&gt;Node4</title>
<path fill="none" stroke="midnightblue" d="M229.51,-151.1C234.04,-141.61 238.43,-132.39 242.56,-123.71"/>
<polygon fill="none" stroke="midnightblue" points="226.28,-149.75 225.14,-160.28 232.6,-152.76 226.28,-149.75"/>
</g>
</g>
</svg>
