<?xml version="1.0" encoding="UTF-8" standalone="no"?>
<!DOCTYPE svg PUBLIC "-//W3C//DTD SVG 1.1//EN"
 "http://www.w3.org/Graphics/SVG/1.1/DTD/svg11.dtd">
<!-- Generated by graphviz version 2.47.1 (20210421.1823)
 -->
<!-- Title: engine::GUI::Button Pages: 1 -->
<svg width="137pt" height="441pt"
 viewBox="0.00 0.00 137.00 441.00" xmlns="http://www.w3.org/2000/svg" xmlns:xlink="http://www.w3.org/1999/xlink">
<g id="graph0" class="graph" transform="scale(1 1) rotate(0) translate(4 437)">
<title>engine::GUI::Button</title>
<polygon fill="white" stroke="transparent" points="-4,4 -4,-437 133,-437 133,4 -4,4"/>
<!-- Node1 -->
<g id="node1" class="node">
<title>Node1</title>
<g id="a_node1"><a xlink:title=" ">
<polygon fill="#bfbfbf" stroke="black" points="13.5,-0.5 13.5,-178.5 115.5,-178.5 115.5,-0.5 13.5,-0.5"/>
<text text-anchor="middle" x="64.5" y="-166.5" font-family="Helvetica,sans-Serif" font-size="10.00">engine::GUI::Button</text>
<polyline fill="none" stroke="black" points="13.5,-159.5 115.5,-159.5 "/>
<text text-anchor="start" x="21.5" y="-147.5" font-family="Helvetica,sans-Serif" font-size="10.00">+ OnClick</text>
<text text-anchor="start" x="21.5" y="-136.5" font-family="Helvetica,sans-Serif" font-size="10.00">+ Texture</text>
<text text-anchor="start" x="21.5" y="-125.5" font-family="Helvetica,sans-Serif" font-size="10.00">+ Color</text>
<text text-anchor="start" x="21.5" y="-114.5" font-family="Helvetica,sans-Serif" font-size="10.00">+ Text</text>
<text text-anchor="start" x="21.5" y="-103.5" font-family="Helvetica,sans-Serif" font-size="10.00">+ TextColor</text>
<text text-anchor="start" x="21.5" y="-92.5" font-family="Helvetica,sans-Serif" font-size="10.00">+ fontSize</text>
<polyline fill="none" stroke="black" points="13.5,-85.5 115.5,-85.5 "/>
<text text-anchor="start" x="21.5" y="-73.5" font-family="Helvetica,sans-Serif" font-size="10.00">+ Button()</text>
<text text-anchor="start" x="21.5" y="-62.5" font-family="Helvetica,sans-Serif" font-size="10.00">+ Button()</text>
<text text-anchor="start" x="21.5" y="-51.5" font-family="Helvetica,sans-Serif" font-size="10.00">+ tick()</text>
<text text-anchor="start" x="21.5" y="-40.5" font-family="Helvetica,sans-Serif" font-size="10.00">+ lateTick()</text>
<text text-anchor="start" x="21.5" y="-29.5" font-family="Helvetica,sans-Serif" font-size="10.00">+ render()</text>
<text text-anchor="start" x="21.5" y="-18.5" font-family="Helvetica,sans-Serif" font-size="10.00">+ getRenderEdges()</text>
<text text-anchor="start" x="21.5" y="-7.5" font-family="Helvetica,sans-Serif" font-size="10.00">+ tryOnClick()</text>
</a>
</g>
</g>
<!-- Node2 -->
<g id="node2" class="node">
<title>Node2</title>
<g id="a_node2"><a xlink:href="classengine_1_1_g_u_i_1_1_gui_object.html" target="_top" xlink:title=" ">
<polygon fill="white" stroke="black" points="6.5,-215.5 6.5,-283.5 122.5,-283.5 122.5,-215.5 6.5,-215.5"/>
<text text-anchor="middle" x="64.5" y="-271.5" font-family="Helvetica,sans-Serif" font-size="10.00">engine::GUI::GuiObject</text>
<polyline fill="none" stroke="black" points="6.5,-264.5 122.5,-264.5 "/>
<text text-anchor="start" x="14.5" y="-252.5" font-family="Helvetica,sans-Serif" font-size="10.00">+ boundary</text>
<polyline fill="none" stroke="black" points="6.5,-245.5 122.5,-245.5 "/>
<text text-anchor="start" x="14.5" y="-233.5" font-family="Helvetica,sans-Serif" font-size="10.00">+ GuiObject()</text>
<text text-anchor="start" x="14.5" y="-222.5" font-family="Helvetica,sans-Serif" font-size="10.00">+ getRenderEdges()</text>
</a>
</g>
</g>
<!-- Node2&#45;&gt;Node1 -->
<g id="edge1" class="edge">
<title>Node2&#45;&gt;Node1</title>
<path fill="none" stroke="midnightblue" d="M64.5,-205.19C64.5,-196.83 64.5,-187.8 64.5,-178.59"/>
<polygon fill="none" stroke="midnightblue" points="61,-205.38 64.5,-215.38 68,-205.38 61,-205.38"/>
</g>
<!-- Node3 -->
<g id="node3" class="node">
<title>Node3</title>
<g id="a_node3"><a xlink:href="classengine_1_1game_object.html" target="_top" xlink:title=" ">
<polygon fill="white" stroke="black" points="0,-320.5 0,-432.5 129,-432.5 129,-320.5 0,-320.5"/>
<text text-anchor="middle" x="64.5" y="-420.5" font-family="Helvetica,sans-Serif" font-size="10.00">engine::gameObject</text>
<polyline fill="none" stroke="black" points="0,-413.5 129,-413.5 "/>
<text text-anchor="start" x="8" y="-401.5" font-family="Helvetica,sans-Serif" font-size="10.00">+ id</text>
<text text-anchor="start" x="8" y="-390.5" font-family="Helvetica,sans-Serif" font-size="10.00">+ gameObjectListPosition</text>
<polyline fill="none" stroke="black" points="0,-383.5 129,-383.5 "/>
<text text-anchor="start" x="8" y="-371.5" font-family="Helvetica,sans-Serif" font-size="10.00">+ tick()</text>
<text text-anchor="start" x="8" y="-360.5" font-family="Helvetica,sans-Serif" font-size="10.00">+ lateTick()</text>
<text text-anchor="start" x="8" y="-349.5" font-family="Helvetica,sans-Serif" font-size="10.00">+ render()</text>
<text text-anchor="start" x="8" y="-338.5" font-family="Helvetica,sans-Serif" font-size="10.00">+ getRenderEdges()</text>
<text text-anchor="start" x="8" y="-327.5" font-family="Helvetica,sans-Serif" font-size="10.00">+ tryOnClick()</text>
</a>
</g>
</g>
<!-- Node3&#45;&gt;Node2 -->
<g id="edge2" class="edge">
<title>Node3&#45;&gt;Node2</title>
<path fill="none" stroke="midnightblue" d="M64.5,-310.26C64.5,-300.99 64.5,-291.8 64.5,-283.51"/>
<polygon fill="none" stroke="midnightblue" points="61,-310.31 64.5,-320.31 68,-310.31 61,-310.31"/>
</g>
</g>
</svg>
