<?xml version="1.0" encoding="UTF-8" standalone="no"?>
<!DOCTYPE svg PUBLIC "-//W3C//DTD SVG 1.1//EN"
 "http://www.w3.org/Graphics/SVG/1.1/DTD/svg11.dtd">
<!-- Generated by graphviz version 2.47.0 (20210407.0042)
 -->
<!-- Title: engine::GUI::GuiObject Pages: 1 -->
<svg width="358pt" height="441pt"
 viewBox="0.00 0.00 357.50 441.00" xmlns="http://www.w3.org/2000/svg" xmlns:xlink="http://www.w3.org/1999/xlink">
<g id="graph0" class="graph" transform="scale(1 1) rotate(0) translate(4 437)">
<title>engine::GUI::GuiObject</title>
<polygon fill="white" stroke="transparent" points="-4,4 -4,-437 353.5,-437 353.5,4 -4,4"/>
<!-- Node1 -->
<g id="node1" class="node">
<title>Node1</title>
<g id="a_node1"><a xlink:title=" ">
<polygon fill="#bfbfbf" stroke="black" points="114,-215.5 114,-283.5 230,-283.5 230,-215.5 114,-215.5"/>
<text text-anchor="middle" x="172" y="-271.5" font-family="Helvetica,sans-Serif" font-size="10.00">engine::GUI::GuiObject</text>
<polyline fill="none" stroke="black" points="114,-264.5 230,-264.5 "/>
<text text-anchor="start" x="122" y="-252.5" font-family="Helvetica,sans-Serif" font-size="10.00">+ boundary</text>
<polyline fill="none" stroke="black" points="114,-245.5 230,-245.5 "/>
<text text-anchor="start" x="122" y="-233.5" font-family="Helvetica,sans-Serif" font-size="10.00">+ GuiObject()</text>
<text text-anchor="start" x="122" y="-222.5" font-family="Helvetica,sans-Serif" font-size="10.00">+ getRenderEdges()</text>
</a>
</g>
</g>
<!-- Node3 -->
<g id="node3" class="node">
<title>Node3</title>
<g id="a_node3"><a xlink:href="classengine_1_1_g_u_i_1_1_button.html" target="_top" xlink:title=" ">
<polygon fill="white" stroke="black" points="0,-0.5 0,-178.5 102,-178.5 102,-0.5 0,-0.5"/>
<text text-anchor="middle" x="51" y="-166.5" font-family="Helvetica,sans-Serif" font-size="10.00">engine::GUI::Button</text>
<polyline fill="none" stroke="black" points="0,-159.5 102,-159.5 "/>
<text text-anchor="start" x="8" y="-147.5" font-family="Helvetica,sans-Serif" font-size="10.00">+ OnClick</text>
<text text-anchor="start" x="8" y="-136.5" font-family="Helvetica,sans-Serif" font-size="10.00">+ Texture</text>
<text text-anchor="start" x="8" y="-125.5" font-family="Helvetica,sans-Serif" font-size="10.00">+ Color</text>
<text text-anchor="start" x="8" y="-114.5" font-family="Helvetica,sans-Serif" font-size="10.00">+ Text</text>
<text text-anchor="start" x="8" y="-103.5" font-family="Helvetica,sans-Serif" font-size="10.00">+ TextColor</text>
<text text-anchor="start" x="8" y="-92.5" font-family="Helvetica,sans-Serif" font-size="10.00">+ fontSize</text>
<polyline fill="none" stroke="black" points="0,-85.5 102,-85.5 "/>
<text text-anchor="start" x="8" y="-73.5" font-family="Helvetica,sans-Serif" font-size="10.00">+ Button()</text>
<text text-anchor="start" x="8" y="-62.5" font-family="Helvetica,sans-Serif" font-size="10.00">+ Button()</text>
<text text-anchor="start" x="8" y="-51.5" font-family="Helvetica,sans-Serif" font-size="10.00">+ tick()</text>
<text text-anchor="start" x="8" y="-40.5" font-family="Helvetica,sans-Serif" font-size="10.00">+ lateTick()</text>
<text text-anchor="start" x="8" y="-29.5" font-family="Helvetica,sans-Serif" font-size="10.00">+ render()</text>
<text text-anchor="start" x="8" y="-18.5" font-family="Helvetica,sans-Serif" font-size="10.00">+ getRenderEdges()</text>
<text text-anchor="start" x="8" y="-7.5" font-family="Helvetica,sans-Serif" font-size="10.00">+ tryOnClick()</text>
</a>
</g>
</g>
<!-- Node1&#45;&gt;Node3 -->
<g id="edge2" class="edge">
<title>Node1&#45;&gt;Node3</title>
<path fill="none" stroke="midnightblue" d="M134.68,-207.69C126.65,-198.44 118.36,-188.53 111,-179 108.05,-175.18 105.08,-171.23 102.12,-167.2"/>
<polygon fill="none" stroke="midnightblue" points="132.12,-210.07 141.35,-215.28 137.38,-205.46 132.12,-210.07"/>
</g>
<!-- Node4 -->
<g id="node4" class="node">
<title>Node4</title>
<g id="a_node4"><a xlink:href="classengine_1_1_g_u_i_1_1_gui_list.html" target="_top" xlink:title=" ">
<polygon fill="white" stroke="black" points="120,-22.5 120,-156.5 224,-156.5 224,-22.5 120,-22.5"/>
<text text-anchor="middle" x="172" y="-144.5" font-family="Helvetica,sans-Serif" font-size="10.00">engine::GUI::GuiList</text>
<polyline fill="none" stroke="black" points="120,-137.5 224,-137.5 "/>
<text text-anchor="start" x="128" y="-125.5" font-family="Helvetica,sans-Serif" font-size="10.00">+ background</text>
<text text-anchor="start" x="128" y="-114.5" font-family="Helvetica,sans-Serif" font-size="10.00"># children</text>
<text text-anchor="start" x="128" y="-103.5" font-family="Helvetica,sans-Serif" font-size="10.00"># newPos</text>
<polyline fill="none" stroke="black" points="120,-96.5 224,-96.5 "/>
<text text-anchor="start" x="128" y="-84.5" font-family="Helvetica,sans-Serif" font-size="10.00">+ GuiList()</text>
<text text-anchor="start" x="128" y="-73.5" font-family="Helvetica,sans-Serif" font-size="10.00">+ tick()</text>
<text text-anchor="start" x="128" y="-62.5" font-family="Helvetica,sans-Serif" font-size="10.00">+ lateTick()</text>
<text text-anchor="start" x="128" y="-51.5" font-family="Helvetica,sans-Serif" font-size="10.00">+ render()</text>
<text text-anchor="start" x="128" y="-40.5" font-family="Helvetica,sans-Serif" font-size="10.00">+ tryOnClick()</text>
<text text-anchor="start" x="128" y="-29.5" font-family="Helvetica,sans-Serif" font-size="10.00">+ addChild()</text>
</a>
</g>
</g>
<!-- Node1&#45;&gt;Node4 -->
<g id="edge3" class="edge">
<title>Node1&#45;&gt;Node4</title>
<path fill="none" stroke="midnightblue" d="M172,-204.95C172,-190.07 172,-173.06 172,-156.79"/>
<polygon fill="none" stroke="midnightblue" points="168.5,-205.38 172,-215.38 175.5,-205.38 168.5,-205.38"/>
</g>
<!-- Node5 -->
<g id="node5" class="node">
<title>Node5</title>
<g id="a_node5"><a xlink:href="classengine_1_1_g_u_i_1_1_gui_strip.html" target="_top" xlink:title=" ">
<polygon fill="white" stroke="black" points="242.5,-11.5 242.5,-167.5 349.5,-167.5 349.5,-11.5 242.5,-11.5"/>
<text text-anchor="middle" x="296" y="-155.5" font-family="Helvetica,sans-Serif" font-size="10.00">engine::GUI::GuiStrip</text>
<polyline fill="none" stroke="black" points="242.5,-148.5 349.5,-148.5 "/>
<text text-anchor="start" x="250.5" y="-136.5" font-family="Helvetica,sans-Serif" font-size="10.00">+ background</text>
<text text-anchor="start" x="250.5" y="-125.5" font-family="Helvetica,sans-Serif" font-size="10.00"># children</text>
<text text-anchor="start" x="250.5" y="-114.5" font-family="Helvetica,sans-Serif" font-size="10.00"># layerHeight</text>
<text text-anchor="start" x="250.5" y="-103.5" font-family="Helvetica,sans-Serif" font-size="10.00"># currWidth</text>
<text text-anchor="start" x="250.5" y="-92.5" font-family="Helvetica,sans-Serif" font-size="10.00"># currHeight</text>
<polyline fill="none" stroke="black" points="242.5,-85.5 349.5,-85.5 "/>
<text text-anchor="start" x="250.5" y="-73.5" font-family="Helvetica,sans-Serif" font-size="10.00">+ GuiStrip()</text>
<text text-anchor="start" x="250.5" y="-62.5" font-family="Helvetica,sans-Serif" font-size="10.00">+ tick()</text>
<text text-anchor="start" x="250.5" y="-51.5" font-family="Helvetica,sans-Serif" font-size="10.00">+ lateTick()</text>
<text text-anchor="start" x="250.5" y="-40.5" font-family="Helvetica,sans-Serif" font-size="10.00">+ render()</text>
<text text-anchor="start" x="250.5" y="-29.5" font-family="Helvetica,sans-Serif" font-size="10.00">+ tryOnClick()</text>
<text text-anchor="start" x="250.5" y="-18.5" font-family="Helvetica,sans-Serif" font-size="10.00">+ addChild()</text>
</a>
</g>
</g>
<!-- Node1&#45;&gt;Node5 -->
<g id="edge4" class="edge">
<title>Node1&#45;&gt;Node5</title>
<path fill="none" stroke="midnightblue" d="M209.15,-207.56C217.2,-198.32 225.53,-188.44 233,-179 236.04,-175.15 239.12,-171.18 242.19,-167.14"/>
<polygon fill="none" stroke="midnightblue" points="206.46,-205.33 202.49,-215.15 211.72,-209.95 206.46,-205.33"/>
</g>
<!-- Node2 -->
<g id="node2" class="node">
<title>Node2</title>
<g id="a_node2"><a xlink:href="classengine_1_1game_object.html" target="_top" xlink:title=" ">
<polygon fill="white" stroke="black" points="107.5,-320.5 107.5,-432.5 236.5,-432.5 236.5,-320.5 107.5,-320.5"/>
<text text-anchor="middle" x="172" y="-420.5" font-family="Helvetica,sans-Serif" font-size="10.00">engine::gameObject</text>
<polyline fill="none" stroke="black" points="107.5,-413.5 236.5,-413.5 "/>
<text text-anchor="start" x="115.5" y="-401.5" font-family="Helvetica,sans-Serif" font-size="10.00">+ id</text>
<text text-anchor="start" x="115.5" y="-390.5" font-family="Helvetica,sans-Serif" font-size="10.00">+ gameObjectListPosition</text>
<polyline fill="none" stroke="black" points="107.5,-383.5 236.5,-383.5 "/>
<text text-anchor="start" x="115.5" y="-371.5" font-family="Helvetica,sans-Serif" font-size="10.00">+ tick()</text>
<text text-anchor="start" x="115.5" y="-360.5" font-family="Helvetica,sans-Serif" font-size="10.00">+ lateTick()</text>
<text text-anchor="start" x="115.5" y="-349.5" font-family="Helvetica,sans-Serif" font-size="10.00">+ render()</text>
<text text-anchor="start" x="115.5" y="-338.5" font-family="Helvetica,sans-Serif" font-size="10.00">+ getRenderEdges()</text>
<text text-anchor="start" x="115.5" y="-327.5" font-family="Helvetica,sans-Serif" font-size="10.00">+ tryOnClick()</text>
</a>
</g>
</g>
<!-- Node2&#45;&gt;Node1 -->
<g id="edge1" class="edge">
<title>Node2&#45;&gt;Node1</title>
<path fill="none" stroke="midnightblue" d="M172,-310.26C172,-300.99 172,-291.8 172,-283.51"/>
<polygon fill="none" stroke="midnightblue" points="168.5,-310.31 172,-320.31 175.5,-310.31 168.5,-310.31"/>
</g>
</g>
</svg>
