<?xml version="1.0" encoding="UTF-8" standalone="no"?>
<!DOCTYPE svg PUBLIC "-//W3C//DTD SVG 1.1//EN"
 "http://www.w3.org/Graphics/SVG/1.1/DTD/svg11.dtd">
<!-- Generated by graphviz version 2.47.1 (20210421.1823)
 -->
<!-- Title: Factory Pages: 1 -->
<svg width="401pt" height="248pt"
 viewBox="0.00 0.00 401.00 248.00" xmlns="http://www.w3.org/2000/svg" xmlns:xlink="http://www.w3.org/1999/xlink">
<g id="graph0" class="graph" transform="scale(1 1) rotate(0) translate(4 244)">
<title>Factory</title>
<polygon fill="white" stroke="transparent" points="-4,4 -4,-244 397,-244 397,4 -4,4"/>
<!-- Node1 -->
<g id="node1" class="node">
<title>Node1</title>
<g id="a_node1"><a xlink:title=" ">
<polygon fill="#bfbfbf" stroke="black" points="144.5,-116.5 144.5,-239.5 220.5,-239.5 220.5,-116.5 144.5,-116.5"/>
<text text-anchor="middle" x="182.5" y="-227.5" font-family="Helvetica,sans-Serif" font-size="10.00">Factory</text>
<polyline fill="none" stroke="black" points="144.5,-220.5 220.5,-220.5 "/>
<text text-anchor="start" x="152.5" y="-208.5" font-family="Helvetica,sans-Serif" font-size="10.00">+ name</text>
<text text-anchor="start" x="152.5" y="-197.5" font-family="Helvetica,sans-Serif" font-size="10.00">+ texture</text>
<text text-anchor="start" x="152.5" y="-186.5" font-family="Helvetica,sans-Serif" font-size="10.00"># cost</text>
<text text-anchor="start" x="152.5" y="-175.5" font-family="Helvetica,sans-Serif" font-size="10.00"># weight</text>
<polyline fill="none" stroke="black" points="144.5,-168.5 220.5,-168.5 "/>
<text text-anchor="start" x="152.5" y="-156.5" font-family="Helvetica,sans-Serif" font-size="10.00">+ Factory()</text>
<text text-anchor="start" x="152.5" y="-145.5" font-family="Helvetica,sans-Serif" font-size="10.00">+ Factory()</text>
<text text-anchor="start" x="152.5" y="-134.5" font-family="Helvetica,sans-Serif" font-size="10.00">+ isPossible()</text>
<text text-anchor="start" x="152.5" y="-123.5" font-family="Helvetica,sans-Serif" font-size="10.00">+ createUnit()</text>
</a>
</g>
</g>
<!-- Node2 -->
<g id="node2" class="node">
<title>Node2</title>
<g id="a_node2"><a xlink:href="class_land_unit_factory.html" target="_top" xlink:title=" ">
<polygon fill="white" stroke="black" points="0,-0.5 0,-79.5 103,-79.5 103,-0.5 0,-0.5"/>
<text text-anchor="middle" x="51.5" y="-67.5" font-family="Helvetica,sans-Serif" font-size="10.00">LandUnitFactory</text>
<polyline fill="none" stroke="black" points="0,-60.5 103,-60.5 "/>
<text text-anchor="middle" x="51.5" y="-48.5" font-family="Helvetica,sans-Serif" font-size="10.00"> </text>
<polyline fill="none" stroke="black" points="0,-41.5 103,-41.5 "/>
<text text-anchor="start" x="8" y="-29.5" font-family="Helvetica,sans-Serif" font-size="10.00">+ LandUnitFactory()</text>
<text text-anchor="start" x="8" y="-18.5" font-family="Helvetica,sans-Serif" font-size="10.00">+ isPossible()</text>
<text text-anchor="start" x="8" y="-7.5" font-family="Helvetica,sans-Serif" font-size="10.00">+ createUnit()</text>
</a>
</g>
</g>
<!-- Node1&#45;&gt;Node2 -->
<g id="edge1" class="edge">
<title>Node1&#45;&gt;Node2</title>
<path fill="none" stroke="midnightblue" d="M137.12,-129.89C121.3,-113.46 103.74,-95.23 88.66,-79.58"/>
<polygon fill="none" stroke="midnightblue" points="134.8,-132.52 144.26,-137.3 139.84,-127.67 134.8,-132.52"/>
</g>
<!-- Node3 -->
<g id="node3" class="node">
<title>Node3</title>
<g id="a_node3"><a xlink:href="class_transport_unit_factory.html" target="_top" xlink:title=" ">
<polygon fill="white" stroke="black" points="121.5,-0.5 121.5,-79.5 243.5,-79.5 243.5,-0.5 121.5,-0.5"/>
<text text-anchor="middle" x="182.5" y="-67.5" font-family="Helvetica,sans-Serif" font-size="10.00">TransportUnitFactory</text>
<polyline fill="none" stroke="black" points="121.5,-60.5 243.5,-60.5 "/>
<text text-anchor="middle" x="182.5" y="-48.5" font-family="Helvetica,sans-Serif" font-size="10.00"> </text>
<polyline fill="none" stroke="black" points="121.5,-41.5 243.5,-41.5 "/>
<text text-anchor="start" x="129.5" y="-29.5" font-family="Helvetica,sans-Serif" font-size="10.00">+ TransportUnitFactory()</text>
<text text-anchor="start" x="129.5" y="-18.5" font-family="Helvetica,sans-Serif" font-size="10.00">+ isPossible()</text>
<text text-anchor="start" x="129.5" y="-7.5" font-family="Helvetica,sans-Serif" font-size="10.00">+ createUnit()</text>
</a>
</g>
</g>
<!-- Node1&#45;&gt;Node3 -->
<g id="edge2" class="edge">
<title>Node1&#45;&gt;Node3</title>
<path fill="none" stroke="midnightblue" d="M182.5,-105.91C182.5,-96.83 182.5,-87.82 182.5,-79.54"/>
<polygon fill="none" stroke="midnightblue" points="179,-106.16 182.5,-116.16 186,-106.16 179,-106.16"/>
</g>
<!-- Node4 -->
<g id="node4" class="node">
<title>Node4</title>
<g id="a_node4"><a xlink:href="class_units_1_1_armored_unit_factory.html" target="_top" xlink:title=" ">
<polygon fill="white" stroke="black" points="262,-0.5 262,-79.5 393,-79.5 393,-0.5 262,-0.5"/>
<text text-anchor="middle" x="327.5" y="-67.5" font-family="Helvetica,sans-Serif" font-size="10.00">Units::ArmoredUnitFactory</text>
<polyline fill="none" stroke="black" points="262,-60.5 393,-60.5 "/>
<text text-anchor="middle" x="327.5" y="-48.5" font-family="Helvetica,sans-Serif" font-size="10.00"> </text>
<polyline fill="none" stroke="black" points="262,-41.5 393,-41.5 "/>
<text text-anchor="start" x="270" y="-29.5" font-family="Helvetica,sans-Serif" font-size="10.00">+ ArmoredUnitFactory()</text>
<text text-anchor="start" x="270" y="-18.5" font-family="Helvetica,sans-Serif" font-size="10.00">+ isPossible()</text>
<text text-anchor="start" x="270" y="-7.5" font-family="Helvetica,sans-Serif" font-size="10.00">+ createUnit()</text>
</a>
</g>
</g>
<!-- Node1&#45;&gt;Node4 -->
<g id="edge3" class="edge">
<title>Node1&#45;&gt;Node4</title>
<path fill="none" stroke="midnightblue" d="M228.38,-133.97C246.97,-116.53 268.27,-96.55 286.35,-79.59"/>
<polygon fill="none" stroke="midnightblue" points="225.5,-131.87 220.6,-141.27 230.29,-136.98 225.5,-131.87"/>
</g>
</g>
</svg>
