<?xml version="1.0" encoding="UTF-8" standalone="no"?>
<!DOCTYPE svg PUBLIC "-//W3C//DTD SVG 1.1//EN"
 "http://www.w3.org/Graphics/SVG/1.1/DTD/svg11.dtd">
<!-- Generated by graphviz version 2.47.0 (20210407.0042)
 -->
<!-- Title: Cell Pages: 1 -->
<svg width="224pt" height="454pt"
 viewBox="0.00 0.00 224.00 454.00" xmlns="http://www.w3.org/2000/svg" xmlns:xlink="http://www.w3.org/1999/xlink">
<g id="graph0" class="graph" transform="scale(1 1) rotate(0) translate(4 450)">
<title>Cell</title>
<polygon fill="white" stroke="transparent" points="-4,4 -4,-450 220,-450 220,4 -4,4"/>
<!-- Node1 -->
<g id="node1" class="node">
<title>Node1</title>
<g id="a_node1"><a xlink:title=" ">
<polygon fill="#bfbfbf" stroke="black" points="14.5,-0.5 14.5,-189.5 116.5,-189.5 116.5,-0.5 14.5,-0.5"/>
<text text-anchor="middle" x="65.5" y="-177.5" font-family="Helvetica,sans-Serif" font-size="10.00">Cell</text>
<polyline fill="none" stroke="black" points="14.5,-170.5 116.5,-170.5 "/>
<text text-anchor="start" x="22.5" y="-158.5" font-family="Helvetica,sans-Serif" font-size="10.00">+ center</text>
<text text-anchor="start" x="22.5" y="-147.5" font-family="Helvetica,sans-Serif" font-size="10.00">+ adjacent</text>
<text text-anchor="start" x="22.5" y="-136.5" font-family="Helvetica,sans-Serif" font-size="10.00">+ landscapeFlags</text>
<text text-anchor="start" x="22.5" y="-125.5" font-family="Helvetica,sans-Serif" font-size="10.00">+ bordersFlags</text>
<text text-anchor="start" x="22.5" y="-114.5" font-family="Helvetica,sans-Serif" font-size="10.00">+ vertices</text>
<polyline fill="none" stroke="black" points="14.5,-107.5 116.5,-107.5 "/>
<text text-anchor="start" x="22.5" y="-95.5" font-family="Helvetica,sans-Serif" font-size="10.00">+ Cell()</text>
<text text-anchor="start" x="22.5" y="-84.5" font-family="Helvetica,sans-Serif" font-size="10.00">+ setAdjacent()</text>
<text text-anchor="start" x="22.5" y="-73.5" font-family="Helvetica,sans-Serif" font-size="10.00">+ setBorders()</text>
<text text-anchor="start" x="22.5" y="-62.5" font-family="Helvetica,sans-Serif" font-size="10.00">+ tick()</text>
<text text-anchor="start" x="22.5" y="-51.5" font-family="Helvetica,sans-Serif" font-size="10.00">+ lateTick()</text>
<text text-anchor="start" x="22.5" y="-40.5" font-family="Helvetica,sans-Serif" font-size="10.00">+ render()</text>
<text text-anchor="start" x="22.5" y="-29.5" font-family="Helvetica,sans-Serif" font-size="10.00">+ getRenderEdges()</text>
<text text-anchor="start" x="22.5" y="-18.5" font-family="Helvetica,sans-Serif" font-size="10.00">+ tryOnClick()</text>
<text text-anchor="start" x="22.5" y="-7.5" font-family="Helvetica,sans-Serif" font-size="10.00">+ doOnClick()</text>
</a>
</g>
</g>
<!-- Node2 -->
<g id="node2" class="node">
<title>Node2</title>
<g id="a_node2"><a xlink:href="classengine_1_1gameplay_clickable_game_object.html" target="_top" xlink:title=" ">
<polygon fill="white" stroke="black" points="0,-227.5 0,-295.5 131,-295.5 131,-227.5 0,-227.5"/>
<text text-anchor="start" x="8" y="-283.5" font-family="Helvetica,sans-Serif" font-size="10.00">engine::gameplayClickable</text>
<text text-anchor="middle" x="65.5" y="-272.5" font-family="Helvetica,sans-Serif" font-size="10.00">GameObject</text>
<polyline fill="none" stroke="black" points="0,-265.5 131,-265.5 "/>
<text text-anchor="middle" x="65.5" y="-253.5" font-family="Helvetica,sans-Serif" font-size="10.00"> </text>
<polyline fill="none" stroke="black" points="0,-246.5 131,-246.5 "/>
<text text-anchor="start" x="8" y="-234.5" font-family="Helvetica,sans-Serif" font-size="10.00">+ doOnClick()</text>
</a>
</g>
</g>
<!-- Node2&#45;&gt;Node1 -->
<g id="edge1" class="edge">
<title>Node2&#45;&gt;Node1</title>
<path fill="none" stroke="midnightblue" d="M65.5,-217.17C65.5,-208.62 65.5,-199.33 65.5,-189.83"/>
<polygon fill="none" stroke="midnightblue" points="62,-217.21 65.5,-227.21 69,-217.21 62,-217.21"/>
</g>
<!-- Node2&#45;&gt;Node2 -->
<g id="edge3" class="edge">
<title>Node2&#45;&gt;Node2</title>
<path fill="none" stroke="#404040" d="M131.31,-270.48C141.81,-269.16 149,-266.17 149,-261.5 149,-258.95 146.85,-256.89 143.18,-255.34"/>
<polygon fill="none" stroke="#404040" points="142.98,-255.29 136.22,-257.8 131.31,-252.52 138.07,-250.02 142.98,-255.29"/>
<text text-anchor="middle" x="182.5" y="-259" font-family="Helvetica,sans-Serif" font-size="10.00"> +previousClick</text>
</g>
<!-- Node3 -->
<g id="node3" class="node">
<title>Node3</title>
<g id="a_node3"><a xlink:href="classengine_1_1game_object.html" target="_top" xlink:title=" ">
<polygon fill="white" stroke="black" points="1,-333.5 1,-445.5 130,-445.5 130,-333.5 1,-333.5"/>
<text text-anchor="middle" x="65.5" y="-433.5" font-family="Helvetica,sans-Serif" font-size="10.00">engine::gameObject</text>
<polyline fill="none" stroke="black" points="1,-426.5 130,-426.5 "/>
<text text-anchor="start" x="9" y="-414.5" font-family="Helvetica,sans-Serif" font-size="10.00">+ id</text>
<text text-anchor="start" x="9" y="-403.5" font-family="Helvetica,sans-Serif" font-size="10.00">+ gameObjectListPosition</text>
<polyline fill="none" stroke="black" points="1,-396.5 130,-396.5 "/>
<text text-anchor="start" x="9" y="-384.5" font-family="Helvetica,sans-Serif" font-size="10.00">+ tick()</text>
<text text-anchor="start" x="9" y="-373.5" font-family="Helvetica,sans-Serif" font-size="10.00">+ lateTick()</text>
<text text-anchor="start" x="9" y="-362.5" font-family="Helvetica,sans-Serif" font-size="10.00">+ render()</text>
<text text-anchor="start" x="9" y="-351.5" font-family="Helvetica,sans-Serif" font-size="10.00">+ getRenderEdges()</text>
<text text-anchor="start" x="9" y="-340.5" font-family="Helvetica,sans-Serif" font-size="10.00">+ tryOnClick()</text>
</a>
</g>
</g>
<!-- Node3&#45;&gt;Node2 -->
<g id="edge2" class="edge">
<title>Node3&#45;&gt;Node2</title>
<path fill="none" stroke="midnightblue" d="M65.5,-322.96C65.5,-313.48 65.5,-304.08 65.5,-295.62"/>
<polygon fill="none" stroke="midnightblue" points="62,-323.23 65.5,-333.23 69,-323.23 62,-323.23"/>
</g>
</g>
</svg>
