<?xml version="1.0" encoding="UTF-8" standalone="no"?>
<!DOCTYPE svg PUBLIC "-//W3C//DTD SVG 1.1//EN"
 "http://www.w3.org/Graphics/SVG/1.1/DTD/svg11.dtd">
<!-- Generated by graphviz version 2.47.0 (20210407.0042)
 -->
<!-- Title: Cell::doOnClick Pages: 1 -->
<svg width="251pt" height="127pt"
 viewBox="0.00 0.00 251.00 126.50" xmlns="http://www.w3.org/2000/svg" xmlns:xlink="http://www.w3.org/1999/xlink">
<g id="graph0" class="graph" transform="scale(1 1) rotate(0) translate(4 122.5)">
<title>Cell::doOnClick</title>
<polygon fill="white" stroke="transparent" points="-4,4 -4,-122.5 247,-122.5 247,4 -4,4"/>
<!-- Node1 -->
<g id="node1" class="node">
<title>Node1</title>
<g id="a_node1"><a xlink:title=" ">
<polygon fill="#bfbfbf" stroke="black" points="0,-44.5 0,-63.5 83,-63.5 83,-44.5 0,-44.5"/>
<text text-anchor="middle" x="41.5" y="-51.5" font-family="Helvetica,sans-Serif" font-size="10.00">Cell::doOnClick</text>
</a>
</g>
</g>
<!-- Node2 -->
<g id="node2" class="node">
<title>Node2</title>
<g id="a_node2"><a xlink:href="classengine_1_1_network_manager.html#aacc37ba20779d3514617aadfa2660309" target="_top" xlink:title=" ">
<polygon fill="white" stroke="black" points="119,-88 119,-118 243,-118 243,-88 119,-88"/>
<text text-anchor="start" x="127" y="-106" font-family="Helvetica,sans-Serif" font-size="10.00">engine::NetworkManager</text>
<text text-anchor="middle" x="181" y="-95" font-family="Helvetica,sans-Serif" font-size="10.00">::addAction</text>
</a>
</g>
</g>
<!-- Node1&#45;&gt;Node2 -->
<g id="edge1" class="edge">
<title>Node1&#45;&gt;Node2</title>
<path fill="none" stroke="midnightblue" d="M69.34,-63.56C86.06,-69.52 108.14,-77.39 128.17,-84.53"/>
<polygon fill="midnightblue" stroke="midnightblue" points="127.21,-87.9 137.8,-87.96 129.56,-81.31 127.21,-87.9"/>
</g>
<!-- Node3 -->
<g id="node3" class="node">
<title>Node3</title>
<g id="a_node3"><a xlink:href="classengine_1_1game_controller.html#ae2459bdafdf03e3b1519a14738744f00" target="_top" xlink:title=" ">
<polygon fill="white" stroke="black" points="123.5,-39 123.5,-69 238.5,-69 238.5,-39 123.5,-39"/>
<text text-anchor="start" x="131.5" y="-57" font-family="Helvetica,sans-Serif" font-size="10.00">engine::gameController</text>
<text text-anchor="middle" x="181" y="-46" font-family="Helvetica,sans-Serif" font-size="10.00">::Instance</text>
</a>
</g>
</g>
<!-- Node1&#45;&gt;Node3 -->
<g id="edge2" class="edge">
<title>Node1&#45;&gt;Node3</title>
<path fill="none" stroke="midnightblue" d="M83.01,-54C92.52,-54 102.89,-54 113.21,-54"/>
<polygon fill="midnightblue" stroke="midnightblue" points="113.48,-57.5 123.48,-54 113.48,-50.5 113.48,-57.5"/>
</g>
<!-- Node4 -->
<g id="node4" class="node">
<title>Node4</title>
<g id="a_node4"><a xlink:href="class_squads_1_1_squad.html#aa2375e6681c8d5212eead8b8f9d3430d" target="_top" xlink:title=" ">
<polygon fill="white" stroke="black" points="123,-0.5 123,-19.5 239,-19.5 239,-0.5 123,-0.5"/>
<text text-anchor="middle" x="181" y="-7.5" font-family="Helvetica,sans-Serif" font-size="10.00">Squads::Squad::setCell</text>
</a>
</g>
</g>
<!-- Node1&#45;&gt;Node4 -->
<g id="edge3" class="edge">
<title>Node1&#45;&gt;Node4</title>
<path fill="none" stroke="midnightblue" d="M72.34,-44.45C92.34,-38.05 118.89,-29.56 140.62,-22.6"/>
<polygon fill="midnightblue" stroke="midnightblue" points="141.77,-25.91 150.22,-19.53 139.63,-19.24 141.77,-25.91"/>
</g>
</g>
</svg>
