<?xml version="1.0" encoding="UTF-8" standalone="no"?>
<!DOCTYPE svg PUBLIC "-//W3C//DTD SVG 1.1//EN"
 "http://www.w3.org/Graphics/SVG/1.1/DTD/svg11.dtd">
<!-- Generated by graphviz version 2.47.1 (20210421.1823)
 -->
<!-- Title: engine::gameController::Instance Pages: 1 -->
<svg width="534pt" height="805pt"
 viewBox="0.00 0.00 534.00 804.50" xmlns="http://www.w3.org/2000/svg" xmlns:xlink="http://www.w3.org/1999/xlink">
<g id="graph0" class="graph" transform="scale(1 1) rotate(0) translate(4 800.5)">
<title>engine::gameController::Instance</title>
<polygon fill="white" stroke="transparent" points="-4,4 -4,-800.5 530,-800.5 530,4 -4,4"/>
<!-- Node1 -->
<g id="node1" class="node">
<title>Node1</title>
<g id="a_node1"><a xlink:title=" ">
<polygon fill="#bfbfbf" stroke="black" points="411,-373 411,-403 526,-403 526,-373 411,-373"/>
<text text-anchor="start" x="419" y="-391" font-family="Helvetica,sans-Serif" font-size="10.00">engine::gameController</text>
<text text-anchor="middle" x="468.5" y="-380" font-family="Helvetica,sans-Serif" font-size="10.00">::Instance</text>
</a>
</g>
</g>
<!-- Node2 -->
<g id="node2" class="node">
<title>Node2</title>
<g id="a_node2"><a xlink:href="classengine_1_1actions_1_1_click_action.html#a54693ba253919c87a5f5b828a9138b3c" target="_top" xlink:title=" ">
<polygon fill="white" stroke="black" points="236,-766 236,-796 371,-796 371,-766 236,-766"/>
<text text-anchor="start" x="244" y="-784" font-family="Helvetica,sans-Serif" font-size="10.00">engine::actions::ClickAction</text>
<text text-anchor="middle" x="303.5" y="-773" font-family="Helvetica,sans-Serif" font-size="10.00">::apply</text>
</a>
</g>
</g>
<!-- Node1&#45;&gt;Node2 -->
<g id="edge1" class="edge">
<title>Node1&#45;&gt;Node2</title>
<path fill="none" stroke="midnightblue" d="M464.32,-413.32C454.47,-488.06 422.22,-705.71 375,-757 371.85,-760.42 368.19,-763.36 364.22,-765.88"/>
<polygon fill="midnightblue" stroke="midnightblue" points="467.8,-413.73 465.61,-403.37 460.86,-412.83 467.8,-413.73"/>
</g>
<!-- Node3 -->
<g id="node3" class="node">
<title>Node3</title>
<g id="a_node3"><a xlink:href="classengine_1_1actions_1_1_set_squad_path.html#a95516a8d5ad9b26f2719847fbbfe0892" target="_top" xlink:title=" ">
<polygon fill="white" stroke="black" points="239.5,-717 239.5,-747 367.5,-747 367.5,-717 239.5,-717"/>
<text text-anchor="start" x="247.5" y="-735" font-family="Helvetica,sans-Serif" font-size="10.00">engine::actions::SetSquad</text>
<text text-anchor="middle" x="303.5" y="-724" font-family="Helvetica,sans-Serif" font-size="10.00">Path::apply</text>
</a>
</g>
</g>
<!-- Node1&#45;&gt;Node3 -->
<g id="edge2" class="edge">
<title>Node1&#45;&gt;Node3</title>
<path fill="none" stroke="midnightblue" d="M467.65,-413.44C466.61,-473.14 455.64,-623.5 375,-708 371.7,-711.46 367.88,-714.42 363.76,-716.96"/>
<polygon fill="midnightblue" stroke="midnightblue" points="471.16,-413.1 467.75,-403.07 464.16,-413.04 471.16,-413.1"/>
</g>
<!-- Node4 -->
<g id="node4" class="node">
<title>Node4</title>
<g id="a_node4"><a xlink:href="classengine_1_1actions_1_1_spawn_action.html#ac4f864831eda5eed4882a861c96ac065" target="_top" xlink:title=" ">
<polygon fill="white" stroke="black" points="232,-668 232,-698 375,-698 375,-668 232,-668"/>
<text text-anchor="start" x="240" y="-686" font-family="Helvetica,sans-Serif" font-size="10.00">engine::actions::SpawnAction</text>
<text text-anchor="middle" x="303.5" y="-675" font-family="Helvetica,sans-Serif" font-size="10.00">::apply</text>
</a>
</g>
</g>
<!-- Node1&#45;&gt;Node4 -->
<g id="edge3" class="edge">
<title>Node1&#45;&gt;Node4</title>
<path fill="none" stroke="midnightblue" d="M466.06,-413.53C461.71,-466.63 444.28,-589.78 375,-659 371.52,-662.47 367.53,-665.44 363.24,-667.98"/>
<polygon fill="midnightblue" stroke="midnightblue" points="469.57,-413.53 466.81,-403.3 462.59,-413.02 469.57,-413.53"/>
</g>
<!-- Node5 -->
<g id="node5" class="node">
<title>Node5</title>
<g id="a_node5"><a xlink:href="class_squads_1_1_squad_template.html#aa6b116668389ee5b7b498d6b99bca5b1" target="_top" xlink:title=" ">
<polygon fill="white" stroke="black" points="242.5,-619 242.5,-649 364.5,-649 364.5,-619 242.5,-619"/>
<text text-anchor="start" x="250.5" y="-637" font-family="Helvetica,sans-Serif" font-size="10.00">Squads::SquadTemplate</text>
<text text-anchor="middle" x="303.5" y="-626" font-family="Helvetica,sans-Serif" font-size="10.00">::build</text>
</a>
</g>
</g>
<!-- Node1&#45;&gt;Node5 -->
<g id="edge4" class="edge">
<title>Node1&#45;&gt;Node5</title>
<path fill="none" stroke="midnightblue" d="M463.76,-413.16C455.73,-458.55 432.63,-554.49 375,-609 370.94,-612.84 366.26,-616.09 361.28,-618.85"/>
<polygon fill="midnightblue" stroke="midnightblue" points="467.22,-413.7 465.42,-403.26 460.32,-412.55 467.22,-413.7"/>
</g>
<!-- Node6 -->
<g id="node6" class="node">
<title>Node6</title>
<g id="a_node6"><a xlink:href="class_cell.html#aa3317a89121135ce43f0ade0248dd9e0" target="_top" xlink:title=" ">
<polygon fill="white" stroke="black" points="276.5,-580.5 276.5,-599.5 330.5,-599.5 330.5,-580.5 276.5,-580.5"/>
<text text-anchor="middle" x="303.5" y="-587.5" font-family="Helvetica,sans-Serif" font-size="10.00">Cell::Cell</text>
</a>
</g>
</g>
<!-- Node1&#45;&gt;Node6 -->
<g id="edge5" class="edge">
<title>Node1&#45;&gt;Node6</title>
<path fill="none" stroke="midnightblue" d="M461.82,-413.1C451.53,-452.73 425.97,-529.53 375,-571 362.51,-581.16 345.06,-585.92 330.65,-588.13"/>
<polygon fill="midnightblue" stroke="midnightblue" points="465.27,-413.74 464.27,-403.19 458.47,-412.06 465.27,-413.74"/>
</g>
<!-- Node7 -->
<g id="node7" class="node">
<title>Node7</title>
<g id="a_node7"><a xlink:href="class_squads_1_1_squad.html#ae7e0e111d20b7a73a91653454b0c41ab" target="_top" xlink:title=" ">
<polygon fill="white" stroke="black" points="234,-542.5 234,-561.5 373,-561.5 373,-542.5 234,-542.5"/>
<text text-anchor="middle" x="303.5" y="-549.5" font-family="Helvetica,sans-Serif" font-size="10.00">Squads::Squad::damageUnit</text>
</a>
</g>
</g>
<!-- Node1&#45;&gt;Node7 -->
<g id="edge6" class="edge">
<title>Node1&#45;&gt;Node7</title>
<path fill="none" stroke="midnightblue" d="M458.24,-413.05C444.9,-445.64 417.14,-502.07 375,-533 369.69,-536.9 363.62,-540 357.33,-542.46"/>
<polygon fill="midnightblue" stroke="midnightblue" points="461.65,-413.95 462.07,-403.36 455.14,-411.38 461.65,-413.95"/>
</g>
<!-- Node8 -->
<g id="node8" class="node">
<title>Node8</title>
<g id="a_node8"><a xlink:href="namespaceutil_1_1pathfinding.html#ae3541fb2118bc5a77179c4067c9baf0c" target="_top" xlink:title=" ">
<polygon fill="white" stroke="black" points="261,-493 261,-523 346,-523 346,-493 261,-493"/>
<text text-anchor="start" x="269" y="-511" font-family="Helvetica,sans-Serif" font-size="10.00">util::pathfinding::</text>
<text text-anchor="middle" x="303.5" y="-500" font-family="Helvetica,sans-Serif" font-size="10.00">dijkstraPath</text>
</a>
</g>
</g>
<!-- Node1&#45;&gt;Node8 -->
<g id="edge7" class="edge">
<title>Node1&#45;&gt;Node8</title>
<path fill="none" stroke="midnightblue" d="M450.11,-411.19C433.06,-432.49 405.29,-463.6 375,-483 366.25,-488.6 356.09,-493.15 346.24,-496.74"/>
<polygon fill="midnightblue" stroke="midnightblue" points="452.9,-413.31 456.31,-403.28 447.39,-408.99 452.9,-413.31"/>
</g>
<!-- Node10 -->
<g id="node10" class="node">
<title>Node10</title>
<g id="a_node10"><a xlink:href="class_cell.html#a34f5c6147f63470486b6e9e9d6d33ee9" target="_top" xlink:title=" ">
<polygon fill="white" stroke="black" points="262,-454.5 262,-473.5 345,-473.5 345,-454.5 262,-454.5"/>
<text text-anchor="middle" x="303.5" y="-461.5" font-family="Helvetica,sans-Serif" font-size="10.00">Cell::doOnClick</text>
</a>
</g>
</g>
<!-- Node1&#45;&gt;Node10 -->
<g id="edge9" class="edge">
<title>Node1&#45;&gt;Node10</title>
<path fill="none" stroke="midnightblue" d="M438.12,-409.16C420.5,-421.04 397.27,-435.38 375,-445 365.57,-449.07 355.05,-452.47 345.08,-455.21"/>
<polygon fill="midnightblue" stroke="midnightblue" points="440.52,-411.75 446.78,-403.2 436.55,-405.98 440.52,-411.75"/>
</g>
<!-- Node12 -->
<g id="node12" class="node">
<title>Node12</title>
<g id="a_node12"><a xlink:href="class_squads_1_1_squad.html#aa6426ad0b59b00d87c28d3b9d943c11e" target="_top" xlink:title=" ">
<polygon fill="white" stroke="black" points="238,-416.5 238,-435.5 369,-435.5 369,-416.5 238,-416.5"/>
<text text-anchor="middle" x="303.5" y="-423.5" font-family="Helvetica,sans-Serif" font-size="10.00">Squads::Squad::doOnClick</text>
</a>
</g>
</g>
<!-- Node1&#45;&gt;Node12 -->
<g id="edge11" class="edge">
<title>Node1&#45;&gt;Node12</title>
<path fill="none" stroke="midnightblue" d="M401.18,-403.46C382.25,-407.87 362.19,-412.55 345.28,-416.49"/>
<polygon fill="midnightblue" stroke="midnightblue" points="402,-406.86 410.95,-401.18 400.41,-400.05 402,-406.86"/>
</g>
<!-- Node13 -->
<g id="node13" class="node">
<title>Node13</title>
<g id="a_node13"><a xlink:href="class_factory.html#aaf775d7c3f301fc3af535b99939cfc87" target="_top" xlink:title=" ">
<polygon fill="white" stroke="black" points="260.5,-378.5 260.5,-397.5 346.5,-397.5 346.5,-378.5 260.5,-378.5"/>
<text text-anchor="middle" x="303.5" y="-385.5" font-family="Helvetica,sans-Serif" font-size="10.00">Factory::Factory</text>
</a>
</g>
</g>
<!-- Node1&#45;&gt;Node13 -->
<g id="edge12" class="edge">
<title>Node1&#45;&gt;Node13</title>
<path fill="none" stroke="midnightblue" d="M400.88,-388C382.51,-388 363.11,-388 346.56,-388"/>
<polygon fill="midnightblue" stroke="midnightblue" points="400.95,-391.5 410.95,-388 400.95,-384.5 400.95,-391.5"/>
</g>
<!-- Node14 -->
<g id="node14" class="node">
<title>Node14</title>
<g id="a_node14"><a xlink:href="namespaceutil_1_1cell_gen.html#a74a1c625c7122deb6e4bc56a24b42148" target="_top" xlink:title=" ">
<polygon fill="white" stroke="black" points="243,-329 243,-359 364,-359 364,-329 243,-329"/>
<text text-anchor="start" x="251" y="-347" font-family="Helvetica,sans-Serif" font-size="10.00">util::cellGen::getRandom</text>
<text text-anchor="middle" x="303.5" y="-336" font-family="Helvetica,sans-Serif" font-size="10.00">Points</text>
</a>
</g>
</g>
<!-- Node1&#45;&gt;Node14 -->
<g id="edge13" class="edge">
<title>Node1&#45;&gt;Node14</title>
<path fill="none" stroke="midnightblue" d="M401.92,-370.3C388.08,-366.56 373.6,-362.65 360.17,-359.03"/>
<polygon fill="midnightblue" stroke="midnightblue" points="401.29,-373.75 411.86,-372.98 403.12,-367 401.29,-373.75"/>
</g>
<!-- Node16 -->
<g id="node16" class="node">
<title>Node16</title>
<g id="a_node16"><a xlink:href="main_8cpp.html#ae66f6b31b5ad750f1fe042a706a4e3d4" target="_top" xlink:title=" ">
<polygon fill="white" stroke="black" points="0,-310.5 0,-329.5 38,-329.5 38,-310.5 0,-310.5"/>
<text text-anchor="middle" x="19" y="-317.5" font-family="Helvetica,sans-Serif" font-size="10.00">main</text>
</a>
</g>
</g>
<!-- Node1&#45;&gt;Node16 -->
<g id="edge19" class="edge">
<title>Node1&#45;&gt;Node16</title>
<path fill="none" stroke="midnightblue" d="M445.83,-365.75C428.42,-349.58 402.43,-329 375,-320 252.02,-279.66 91.92,-305.5 38.35,-316.09"/>
<polygon fill="midnightblue" stroke="midnightblue" points="443.56,-368.42 453.2,-372.82 448.41,-363.37 443.56,-368.42"/>
</g>
<!-- Node17 -->
<g id="node17" class="node">
<title>Node17</title>
<g id="a_node17"><a xlink:href="class_squads_1_1_squad_template.html#ac4e3b426950fa595ecc8f1ea23f6eb99" target="_top" xlink:title=" ">
<polygon fill="white" stroke="black" points="242.5,-241 242.5,-271 364.5,-271 364.5,-241 242.5,-241"/>
<text text-anchor="start" x="250.5" y="-259" font-family="Helvetica,sans-Serif" font-size="10.00">Squads::SquadTemplate</text>
<text text-anchor="middle" x="303.5" y="-248" font-family="Helvetica,sans-Serif" font-size="10.00">::hide</text>
</a>
</g>
</g>
<!-- Node1&#45;&gt;Node17 -->
<g id="edge16" class="edge">
<title>Node1&#45;&gt;Node17</title>
<path fill="none" stroke="midnightblue" d="M451.03,-364.61C434.12,-342 405.96,-308.02 375,-286 366.87,-280.22 357.45,-275.25 348.2,-271.11"/>
<polygon fill="midnightblue" stroke="midnightblue" points="448.42,-366.97 457.15,-372.96 454.06,-362.83 448.42,-366.97"/>
</g>
<!-- Node19 -->
<g id="node19" class="node">
<title>Node19</title>
<g id="a_node19"><a xlink:href="class_squads_1_1_action.html#a5075ef1047478f0accf22bb5b2bbf373" target="_top" xlink:title=" ">
<polygon fill="white" stroke="black" points="243,-202.5 243,-221.5 364,-221.5 364,-202.5 243,-202.5"/>
<text text-anchor="middle" x="303.5" y="-209.5" font-family="Helvetica,sans-Serif" font-size="10.00">Squads::Action::lateTick</text>
</a>
</g>
</g>
<!-- Node1&#45;&gt;Node19 -->
<g id="edge18" class="edge">
<title>Node1&#45;&gt;Node19</title>
<path fill="none" stroke="midnightblue" d="M459.45,-363.21C446.95,-328.62 419.55,-266.29 375,-232 369.35,-227.65 362.8,-224.25 356.02,-221.59"/>
<polygon fill="midnightblue" stroke="midnightblue" points="456.26,-364.7 462.86,-372.99 462.88,-362.4 456.26,-364.7"/>
</g>
<!-- Node20 -->
<g id="node20" class="node">
<title>Node20</title>
<g id="a_node20"><a xlink:href="struct_log_data.html#a0fd68f38c0b114ff9250579e3b059b27" target="_top" xlink:title=" ">
<polygon fill="white" stroke="black" points="265,-164.5 265,-183.5 342,-183.5 342,-164.5 265,-164.5"/>
<text text-anchor="middle" x="303.5" y="-171.5" font-family="Helvetica,sans-Serif" font-size="10.00">LogData::print</text>
</a>
</g>
</g>
<!-- Node1&#45;&gt;Node20 -->
<g id="edge20" class="edge">
<title>Node1&#45;&gt;Node20</title>
<path fill="none" stroke="midnightblue" d="M462.72,-363.06C453.41,-321.44 428.85,-237.95 375,-193 365.76,-185.28 353.66,-180.68 342.11,-177.94"/>
<polygon fill="midnightblue" stroke="midnightblue" points="459.31,-363.87 464.81,-372.93 466.16,-362.42 459.31,-363.87"/>
</g>
<!-- Node21 -->
<g id="node21" class="node">
<title>Node21</title>
<g id="a_node21"><a xlink:href="class_cell.html#a7fea7ca42ce6e66f5a2dab19d5ad126f" target="_top" xlink:title=" ">
<polygon fill="white" stroke="black" points="263.5,-126.5 263.5,-145.5 343.5,-145.5 343.5,-126.5 263.5,-126.5"/>
<text text-anchor="middle" x="303.5" y="-133.5" font-family="Helvetica,sans-Serif" font-size="10.00">Cell::setOwner</text>
</a>
</g>
</g>
<!-- Node1&#45;&gt;Node21 -->
<g id="edge21" class="edge">
<title>Node1&#45;&gt;Node21</title>
<path fill="none" stroke="midnightblue" d="M464.84,-362.74C458.43,-314.91 437.69,-210.89 375,-155 366.29,-147.24 354.74,-142.6 343.51,-139.85"/>
<polygon fill="midnightblue" stroke="midnightblue" points="461.39,-363.36 466.09,-372.85 468.34,-362.5 461.39,-363.36"/>
</g>
<!-- Node22 -->
<g id="node22" class="node">
<title>Node22</title>
<g id="a_node22"><a xlink:href="class_squads_1_1_squad_template.html#aa004e66dc0b72234e0b49a7cd69f9acb" target="_top" xlink:title=" ">
<polygon fill="white" stroke="black" points="242.5,-77 242.5,-107 364.5,-107 364.5,-77 242.5,-77"/>
<text text-anchor="start" x="250.5" y="-95" font-family="Helvetica,sans-Serif" font-size="10.00">Squads::SquadTemplate</text>
<text text-anchor="middle" x="303.5" y="-84" font-family="Helvetica,sans-Serif" font-size="10.00">::show</text>
</a>
</g>
</g>
<!-- Node1&#45;&gt;Node22 -->
<g id="edge22" class="edge">
<title>Node1&#45;&gt;Node22</title>
<path fill="none" stroke="midnightblue" d="M465.99,-362.54C461.51,-309.57 443.84,-186.66 375,-117 371.17,-113.12 366.69,-109.84 361.89,-107.07"/>
<polygon fill="midnightblue" stroke="midnightblue" points="462.52,-363.03 466.77,-372.74 469.5,-362.5 462.52,-363.03"/>
</g>
<!-- Node23 -->
<g id="node23" class="node">
<title>Node23</title>
<g id="a_node23"><a xlink:href="class_squads_1_1_squad.html#aa9fb6eb8bb4e7024e829a60d1b9a4ffc" target="_top" xlink:title=" ">
<polygon fill="white" stroke="black" points="246.5,-38.5 246.5,-57.5 360.5,-57.5 360.5,-38.5 246.5,-38.5"/>
<text text-anchor="middle" x="303.5" y="-45.5" font-family="Helvetica,sans-Serif" font-size="10.00">Squads::Squad::Squad</text>
</a>
</g>
</g>
<!-- Node1&#45;&gt;Node23 -->
<g id="edge24" class="edge">
<title>Node1&#45;&gt;Node23</title>
<path fill="none" stroke="midnightblue" d="M468.04,-362.5C467.88,-302.11 458.72,-149.28 375,-67 370.84,-62.91 365.9,-59.68 360.59,-57.13"/>
<polygon fill="midnightblue" stroke="midnightblue" points="464.54,-362.64 467.99,-372.66 471.54,-362.68 464.54,-362.64"/>
</g>
<!-- Node24 -->
<g id="node24" class="node">
<title>Node24</title>
<g id="a_node24"><a xlink:href="class_squads_1_1_squad.html#a1951c087cfde5954f78a2ee80a688933" target="_top" xlink:title=" ">
<polygon fill="white" stroke="black" points="244,-0.5 244,-19.5 363,-19.5 363,-0.5 244,-0.5"/>
<text text-anchor="middle" x="303.5" y="-7.5" font-family="Helvetica,sans-Serif" font-size="10.00">Squads::Squad::~Squad</text>
</a>
</g>
</g>
<!-- Node1&#45;&gt;Node24 -->
<g id="edge25" class="edge">
<title>Node1&#45;&gt;Node24</title>
<path fill="none" stroke="midnightblue" d="M464.31,-362.77C454.53,-289.22 422.68,-77.21 375,-29 371.17,-25.12 366.63,-22.01 361.74,-19.52"/>
<polygon fill="midnightblue" stroke="midnightblue" points="460.88,-363.5 465.64,-372.96 467.82,-362.59 460.88,-363.5"/>
</g>
<!-- Node9 -->
<g id="node9" class="node">
<title>Node9</title>
<g id="a_node9"><a xlink:href="class_squads_1_1_action.html#a4b58ace38d3be18a91d9c474302dbf46" target="_top" xlink:title=" ">
<polygon fill="white" stroke="black" points="74,-498.5 74,-517.5 196,-517.5 196,-498.5 74,-498.5"/>
<text text-anchor="middle" x="135" y="-505.5" font-family="Helvetica,sans-Serif" font-size="10.00">Squads::Action::findPath</text>
</a>
</g>
</g>
<!-- Node8&#45;&gt;Node9 -->
<g id="edge8" class="edge">
<title>Node8&#45;&gt;Node9</title>
<path fill="none" stroke="midnightblue" d="M250.5,-508C233.29,-508 213.99,-508 196.21,-508"/>
<polygon fill="midnightblue" stroke="midnightblue" points="250.91,-511.5 260.91,-508 250.91,-504.5 250.91,-511.5"/>
</g>
<!-- Node11 -->
<g id="node11" class="node">
<title>Node11</title>
<g id="a_node11"><a xlink:href="class_cell.html#a064227f1968066ac1dfd15229b45c071" target="_top" xlink:title=" ">
<polygon fill="white" stroke="black" points="93.5,-454.5 93.5,-473.5 176.5,-473.5 176.5,-454.5 93.5,-454.5"/>
<text text-anchor="middle" x="135" y="-461.5" font-family="Helvetica,sans-Serif" font-size="10.00">Cell::tryOnClick</text>
</a>
</g>
</g>
<!-- Node10&#45;&gt;Node11 -->
<g id="edge10" class="edge">
<title>Node10&#45;&gt;Node11</title>
<path fill="none" stroke="midnightblue" d="M251.74,-464C227.64,-464 199.24,-464 176.6,-464"/>
<polygon fill="midnightblue" stroke="midnightblue" points="251.77,-467.5 261.77,-464 251.77,-460.5 251.77,-467.5"/>
</g>
<!-- Node15 -->
<g id="node15" class="node">
<title>Node15</title>
<g id="a_node15"><a xlink:href="namespaceutil_1_1cell_gen.html#a42c122e9493a8aaaa3de94db076a6778" target="_top" xlink:title=" ">
<polygon fill="white" stroke="black" points="83,-331.5 83,-350.5 187,-350.5 187,-331.5 83,-331.5"/>
<text text-anchor="middle" x="135" y="-338.5" font-family="Helvetica,sans-Serif" font-size="10.00">util::cellGen::getMap</text>
</a>
</g>
</g>
<!-- Node14&#45;&gt;Node15 -->
<g id="edge14" class="edge">
<title>Node14&#45;&gt;Node15</title>
<path fill="none" stroke="midnightblue" d="M232.48,-342.74C217.3,-342.46 201.53,-342.18 187.24,-341.92"/>
<polygon fill="midnightblue" stroke="midnightblue" points="232.8,-346.24 242.86,-342.93 232.92,-339.25 232.8,-346.24"/>
</g>
<!-- Node15&#45;&gt;Node16 -->
<g id="edge15" class="edge">
<title>Node15&#45;&gt;Node16</title>
<path fill="none" stroke="midnightblue" d="M72.54,-329.68C59.93,-327.36 47.61,-325.09 38.07,-323.33"/>
<polygon fill="midnightblue" stroke="midnightblue" points="72.2,-333.17 82.67,-331.54 73.47,-326.29 72.2,-333.17"/>
</g>
<!-- Node18 -->
<g id="node18" class="node">
<title>Node18</title>
<g id="a_node18"><a xlink:href="class_squads_1_1_squad_template.html#a546f2ecdbf38e384da68c11a6e7158d3" target="_top" xlink:title=" ">
<polygon fill="white" stroke="black" points="74,-159 74,-189 196,-189 196,-159 74,-159"/>
<text text-anchor="start" x="82" y="-177" font-family="Helvetica,sans-Serif" font-size="10.00">Squads::SquadTemplate</text>
<text text-anchor="middle" x="135" y="-166" font-family="Helvetica,sans-Serif" font-size="10.00">::SquadTemplate</text>
</a>
</g>
</g>
<!-- Node17&#45;&gt;Node18 -->
<g id="edge17" class="edge">
<title>Node17&#45;&gt;Node18</title>
<path fill="none" stroke="midnightblue" d="M246.52,-237.29C241.56,-235.29 236.66,-233.18 232,-231 205.85,-218.74 177.62,-201.44 158.59,-189.13"/>
<polygon fill="midnightblue" stroke="midnightblue" points="245.5,-240.65 256.09,-241 248.03,-234.12 245.5,-240.65"/>
</g>
<!-- Node22&#45;&gt;Node18 -->
<g id="edge23" class="edge">
<title>Node22&#45;&gt;Node18</title>
<path fill="none" stroke="midnightblue" d="M246.52,-110.71C241.56,-112.71 236.66,-114.82 232,-117 205.85,-129.26 177.62,-146.56 158.59,-158.87"/>
<polygon fill="midnightblue" stroke="midnightblue" points="248.03,-113.88 256.09,-107 245.5,-107.35 248.03,-113.88"/>
</g>
</g>
</svg>
