<?xml version="1.0" encoding="UTF-8" standalone="no"?>
<!DOCTYPE svg PUBLIC "-//W3C//DTD SVG 1.1//EN"
 "http://www.w3.org/Graphics/SVG/1.1/DTD/svg11.dtd">
<!-- Generated by graphviz version 2.47.1 (20210421.1823)
 -->
<!-- Title: Units::Unit Pages: 1 -->
<svg width="332pt" height="512pt"
 viewBox="0.00 0.00 331.50 512.00" xmlns="http://www.w3.org/2000/svg" xmlns:xlink="http://www.w3.org/1999/xlink">
<g id="graph0" class="graph" transform="scale(1 1) rotate(0) translate(4 508)">
<title>Units::Unit</title>
<polygon fill="white" stroke="transparent" points="-4,4 -4,-508 327.5,-508 327.5,4 -4,4"/>
<!-- Node1 -->
<g id="node1" class="node">
<title>Node1</title>
<g id="a_node1"><a xlink:title=" ">
<polygon fill="#bfbfbf" stroke="black" points="89.5,-182.5 89.5,-503.5 229.5,-503.5 229.5,-182.5 89.5,-182.5"/>
<text text-anchor="middle" x="159.5" y="-491.5" font-family="Helvetica,sans-Serif" font-size="10.00">Units::Unit</text>
<polyline fill="none" stroke="black" points="89.5,-484.5 229.5,-484.5 "/>
<text text-anchor="start" x="97.5" y="-472.5" font-family="Helvetica,sans-Serif" font-size="10.00">+ name</text>
<text text-anchor="start" x="97.5" y="-461.5" font-family="Helvetica,sans-Serif" font-size="10.00">+ texture</text>
<text text-anchor="start" x="97.5" y="-450.5" font-family="Helvetica,sans-Serif" font-size="10.00">+ weight</text>
<text text-anchor="start" x="97.5" y="-439.5" font-family="Helvetica,sans-Serif" font-size="10.00">+ landscapeFlagResists</text>
<text text-anchor="start" x="97.5" y="-428.5" font-family="Helvetica,sans-Serif" font-size="10.00">+ borderFlagResists</text>
<text text-anchor="start" x="97.5" y="-417.5" font-family="Helvetica,sans-Serif" font-size="10.00">+ commonSpeed</text>
<text text-anchor="start" x="97.5" y="-406.5" font-family="Helvetica,sans-Serif" font-size="10.00"># currentOrder</text>
<text text-anchor="start" x="97.5" y="-395.5" font-family="Helvetica,sans-Serif" font-size="10.00"># currentUsageOfOrder</text>
<text text-anchor="start" x="97.5" y="-384.5" font-family="Helvetica,sans-Serif" font-size="10.00"># allOrders</text>
<text text-anchor="start" x="97.5" y="-373.5" font-family="Helvetica,sans-Serif" font-size="10.00"># squad</text>
<text text-anchor="start" x="97.5" y="-362.5" font-family="Helvetica,sans-Serif" font-size="10.00"># unitLandscapeFlagResists</text>
<text text-anchor="start" x="97.5" y="-351.5" font-family="Helvetica,sans-Serif" font-size="10.00"># unitBorderFlagResists</text>
<text text-anchor="start" x="97.5" y="-340.5" font-family="Helvetica,sans-Serif" font-size="10.00"># unitSpeed</text>
<text text-anchor="start" x="97.5" y="-329.5" font-family="Helvetica,sans-Serif" font-size="10.00"># HP</text>
<text text-anchor="start" x="97.5" y="-318.5" font-family="Helvetica,sans-Serif" font-size="10.00"># fullHP</text>
<polyline fill="none" stroke="black" points="89.5,-311.5 229.5,-311.5 "/>
<text text-anchor="start" x="97.5" y="-299.5" font-family="Helvetica,sans-Serif" font-size="10.00">+ Unit()</text>
<text text-anchor="start" x="97.5" y="-288.5" font-family="Helvetica,sans-Serif" font-size="10.00">+ ~Unit()</text>
<text text-anchor="start" x="97.5" y="-277.5" font-family="Helvetica,sans-Serif" font-size="10.00">+ setSquad()</text>
<text text-anchor="start" x="97.5" y="-266.5" font-family="Helvetica,sans-Serif" font-size="10.00">+ changeHP()</text>
<text text-anchor="start" x="97.5" y="-255.5" font-family="Helvetica,sans-Serif" font-size="10.00">+ isAlive()</text>
<text text-anchor="start" x="97.5" y="-244.5" font-family="Helvetica,sans-Serif" font-size="10.00">+ drawHP()</text>
<text text-anchor="start" x="97.5" y="-233.5" font-family="Helvetica,sans-Serif" font-size="10.00">+ tick()</text>
<text text-anchor="start" x="97.5" y="-222.5" font-family="Helvetica,sans-Serif" font-size="10.00">+ getAttack()</text>
<text text-anchor="start" x="97.5" y="-211.5" font-family="Helvetica,sans-Serif" font-size="10.00">+ isOrderPossible()</text>
<text text-anchor="start" x="97.5" y="-200.5" font-family="Helvetica,sans-Serif" font-size="10.00">+ enableOrder()</text>
<text text-anchor="start" x="97.5" y="-189.5" font-family="Helvetica,sans-Serif" font-size="10.00">+ disableOrder()</text>
</a>
</g>
</g>
<!-- Node2 -->
<g id="node2" class="node">
<title>Node2</title>
<g id="a_node2"><a xlink:href="class_units_1_1_armored_unit.html" target="_top" xlink:title=" ">
<polygon fill="white" stroke="black" points="0,-0.5 0,-145.5 99,-145.5 99,-0.5 0,-0.5"/>
<text text-anchor="middle" x="49.5" y="-133.5" font-family="Helvetica,sans-Serif" font-size="10.00">Units::ArmoredUnit</text>
<polyline fill="none" stroke="black" points="0,-126.5 99,-126.5 "/>
<text text-anchor="middle" x="49.5" y="-114.5" font-family="Helvetica,sans-Serif" font-size="10.00"> </text>
<polyline fill="none" stroke="black" points="0,-107.5 99,-107.5 "/>
<text text-anchor="start" x="8" y="-95.5" font-family="Helvetica,sans-Serif" font-size="10.00">+ getAsTransport()</text>
<text text-anchor="start" x="8" y="-84.5" font-family="Helvetica,sans-Serif" font-size="10.00">+ ArmoredUnit()</text>
<text text-anchor="start" x="8" y="-73.5" font-family="Helvetica,sans-Serif" font-size="10.00">+ ArmoredUnit()</text>
<text text-anchor="start" x="8" y="-62.5" font-family="Helvetica,sans-Serif" font-size="10.00">+ getAttack()</text>
<text text-anchor="start" x="8" y="-51.5" font-family="Helvetica,sans-Serif" font-size="10.00">+ changeHP()</text>
<text text-anchor="start" x="8" y="-40.5" font-family="Helvetica,sans-Serif" font-size="10.00">+ isAlive()</text>
<text text-anchor="start" x="8" y="-29.5" font-family="Helvetica,sans-Serif" font-size="10.00">+ drawHP()</text>
<text text-anchor="start" x="8" y="-18.5" font-family="Helvetica,sans-Serif" font-size="10.00">+ setStats()</text>
<text text-anchor="start" x="8" y="-7.5" font-family="Helvetica,sans-Serif" font-size="10.00">+ tick()</text>
</a>
</g>
</g>
<!-- Node1&#45;&gt;Node2 -->
<g id="edge1" class="edge">
<title>Node1&#45;&gt;Node2</title>
<path fill="none" stroke="midnightblue" d="M90.05,-172.8C86.21,-163.44 82.47,-154.33 78.92,-145.67"/>
<polygon fill="none" stroke="midnightblue" points="86.89,-174.31 93.92,-182.23 93.36,-171.65 86.89,-174.31"/>
</g>
<!-- Node3 -->
<g id="node3" class="node">
<title>Node3</title>
<g id="a_node3"><a xlink:href="class_units_1_1_land_unit.html" target="_top" xlink:title=" ">
<polygon fill="white" stroke="black" points="117.5,-28 117.5,-118 201.5,-118 201.5,-28 117.5,-28"/>
<text text-anchor="middle" x="159.5" y="-106" font-family="Helvetica,sans-Serif" font-size="10.00">Units::LandUnit</text>
<polyline fill="none" stroke="black" points="117.5,-99 201.5,-99 "/>
<text text-anchor="middle" x="159.5" y="-87" font-family="Helvetica,sans-Serif" font-size="10.00"> </text>
<polyline fill="none" stroke="black" points="117.5,-80 201.5,-80 "/>
<text text-anchor="start" x="125.5" y="-68" font-family="Helvetica,sans-Serif" font-size="10.00">+ LandUnit()</text>
<text text-anchor="start" x="125.5" y="-57" font-family="Helvetica,sans-Serif" font-size="10.00">+ setStats()</text>
<text text-anchor="start" x="125.5" y="-46" font-family="Helvetica,sans-Serif" font-size="10.00">+ tick()</text>
<text text-anchor="start" x="125.5" y="-35" font-family="Helvetica,sans-Serif" font-size="10.00">+ getAttack()</text>
</a>
</g>
</g>
<!-- Node1&#45;&gt;Node3 -->
<g id="edge2" class="edge">
<title>Node1&#45;&gt;Node3</title>
<path fill="none" stroke="midnightblue" d="M159.5,-172.15C159.5,-152.43 159.5,-133.83 159.5,-118.24"/>
<polygon fill="none" stroke="midnightblue" points="156,-172.23 159.5,-182.23 163,-172.23 156,-172.23"/>
</g>
<!-- Node4 -->
<g id="node4" class="node">
<title>Node4</title>
<g id="a_node4"><a xlink:href="class_units_1_1_transport_unit.html" target="_top" xlink:title=" ">
<polygon fill="white" stroke="black" points="219.5,-6 219.5,-140 323.5,-140 323.5,-6 219.5,-6"/>
<text text-anchor="middle" x="271.5" y="-128" font-family="Helvetica,sans-Serif" font-size="10.00">Units::TransportUnit</text>
<polyline fill="none" stroke="black" points="219.5,-121 323.5,-121 "/>
<text text-anchor="middle" x="271.5" y="-109" font-family="Helvetica,sans-Serif" font-size="10.00"> </text>
<polyline fill="none" stroke="black" points="219.5,-102 323.5,-102 "/>
<text text-anchor="start" x="227.5" y="-90" font-family="Helvetica,sans-Serif" font-size="10.00">+ getAttack()</text>
<text text-anchor="start" x="227.5" y="-79" font-family="Helvetica,sans-Serif" font-size="10.00">+ isPossibleToAdd()</text>
<text text-anchor="start" x="227.5" y="-68" font-family="Helvetica,sans-Serif" font-size="10.00">+ addUnit()</text>
<text text-anchor="start" x="227.5" y="-57" font-family="Helvetica,sans-Serif" font-size="10.00">+ deleteUnit()</text>
<text text-anchor="start" x="227.5" y="-46" font-family="Helvetica,sans-Serif" font-size="10.00">+ TransportUnit()</text>
<text text-anchor="start" x="227.5" y="-35" font-family="Helvetica,sans-Serif" font-size="10.00">+ setStats()</text>
<text text-anchor="start" x="227.5" y="-24" font-family="Helvetica,sans-Serif" font-size="10.00">+ tick()</text>
<text text-anchor="start" x="227.5" y="-13" font-family="Helvetica,sans-Serif" font-size="10.00">+ changeHP()</text>
</a>
</g>
</g>
<!-- Node1&#45;&gt;Node4 -->
<g id="edge3" class="edge">
<title>Node1&#45;&gt;Node4</title>
<path fill="none" stroke="midnightblue" d="M230.12,-173C234.9,-161.59 239.52,-150.53 243.83,-140.21"/>
<polygon fill="none" stroke="midnightblue" points="226.89,-171.66 226.27,-182.23 233.35,-174.36 226.89,-171.66"/>
</g>
</g>
</svg>
