<?xml version="1.0" encoding="UTF-8" standalone="no"?>
<!DOCTYPE svg PUBLIC "-//W3C//DTD SVG 1.1//EN"
 "http://www.w3.org/Graphics/SVG/1.1/DTD/svg11.dtd">
<!-- Generated by graphviz version 2.47.1 (20210421.1823)
 -->
<!-- Title: Cell::Cell Pages: 1 -->
<svg width="374pt" height="154pt"
 viewBox="0.00 0.00 374.00 153.50" xmlns="http://www.w3.org/2000/svg" xmlns:xlink="http://www.w3.org/1999/xlink">
<g id="graph0" class="graph" transform="scale(1 1) rotate(0) translate(4 149.5)">
<title>Cell::Cell</title>
<polygon fill="white" stroke="transparent" points="-4,4 -4,-149.5 370,-149.5 370,4 -4,4"/>
<!-- Node1 -->
<g id="node1" class="node">
<title>Node1</title>
<g id="a_node1"><a xlink:title=" ">
<polygon fill="#bfbfbf" stroke="black" points="0,-71.5 0,-90.5 54,-90.5 54,-71.5 0,-71.5"/>
<text text-anchor="middle" x="27" y="-78.5" font-family="Helvetica,sans-Serif" font-size="10.00">Cell::Cell</text>
</a>
</g>
</g>
<!-- Node2 -->
<g id="node2" class="node">
<title>Node2</title>
<g id="a_node2"><a xlink:href="namespace_flags.html#a40b54d107096701f7ddd6ac478074c2f" target="_top" xlink:title=" ">
<polygon fill="white" stroke="black" points="90,-115 90,-145 221,-145 221,-115 90,-115"/>
<text text-anchor="start" x="98" y="-133" font-family="Helvetica,sans-Serif" font-size="10.00">Flags::generateLandscape</text>
<text text-anchor="middle" x="155.5" y="-122" font-family="Helvetica,sans-Serif" font-size="10.00">Flags</text>
</a>
</g>
</g>
<!-- Node1&#45;&gt;Node2 -->
<g id="edge1" class="edge">
<title>Node1&#45;&gt;Node2</title>
<path fill="none" stroke="midnightblue" d="M51.2,-90.53C62.82,-95.26 77.12,-101.01 90,-106 94.5,-107.74 99.18,-109.53 103.88,-111.31"/>
<polygon fill="midnightblue" stroke="midnightblue" points="102.9,-114.68 113.49,-114.93 105.37,-108.13 102.9,-114.68"/>
</g>
<!-- Node3 -->
<g id="node3" class="node">
<title>Node3</title>
<g id="a_node3"><a xlink:href="classengine_1_1game_controller.html#ae2459bdafdf03e3b1519a14738744f00" target="_top" xlink:title=" ">
<polygon fill="white" stroke="black" points="98,-66 98,-96 213,-96 213,-66 98,-66"/>
<text text-anchor="start" x="106" y="-84" font-family="Helvetica,sans-Serif" font-size="10.00">engine::gameController</text>
<text text-anchor="middle" x="155.5" y="-73" font-family="Helvetica,sans-Serif" font-size="10.00">::Instance</text>
</a>
</g>
</g>
<!-- Node1&#45;&gt;Node3 -->
<g id="edge2" class="edge">
<title>Node1&#45;&gt;Node3</title>
<path fill="none" stroke="midnightblue" d="M54.21,-81C64.11,-81 75.87,-81 87.79,-81"/>
<polygon fill="midnightblue" stroke="midnightblue" points="87.81,-84.5 97.81,-81 87.81,-77.5 87.81,-84.5"/>
</g>
<!-- Node4 -->
<g id="node4" class="node">
<title>Node4</title>
<g id="a_node4"><a xlink:href="classengine_1_1_network_manager.html#aaf96b7aefc25cbac756e7ca5660030e3" target="_top" xlink:title=" ">
<polygon fill="white" stroke="black" points="93.5,-17 93.5,-47 217.5,-47 217.5,-17 93.5,-17"/>
<text text-anchor="start" x="101.5" y="-35" font-family="Helvetica,sans-Serif" font-size="10.00">engine::NetworkManager</text>
<text text-anchor="middle" x="155.5" y="-24" font-family="Helvetica,sans-Serif" font-size="10.00">::makeShared</text>
</a>
</g>
</g>
<!-- Node1&#45;&gt;Node4 -->
<g id="edge3" class="edge">
<title>Node1&#45;&gt;Node4</title>
<path fill="none" stroke="midnightblue" d="M52.69,-71.44C67.88,-65.55 87.86,-57.82 106.09,-50.75"/>
<polygon fill="midnightblue" stroke="midnightblue" points="107.37,-54.01 115.43,-47.13 104.84,-47.48 107.37,-54.01"/>
</g>
<!-- Node5 -->
<g id="node5" class="node">
<title>Node5</title>
<g id="a_node5"><a xlink:href="classengine_1_1game_object.html#a8053816dc4af5fb4c0755edd6bae1069" target="_top" xlink:title=" ">
<polygon fill="white" stroke="black" points="260.5,-39 260.5,-69 362.5,-69 362.5,-39 260.5,-39"/>
<text text-anchor="start" x="268.5" y="-57" font-family="Helvetica,sans-Serif" font-size="10.00">engine::gameObject</text>
<text text-anchor="middle" x="311.5" y="-46" font-family="Helvetica,sans-Serif" font-size="10.00">::repr</text>
</a>
</g>
</g>
<!-- Node4&#45;&gt;Node5 -->
<g id="edge4" class="edge">
<title>Node4&#45;&gt;Node5</title>
<path fill="none" stroke="midnightblue" d="M217.81,-40.76C228.49,-42.28 239.59,-43.87 250.24,-45.39"/>
<polygon fill="midnightblue" stroke="midnightblue" points="249.89,-48.88 260.28,-46.83 250.88,-41.95 249.89,-48.88"/>
</g>
<!-- Node6 -->
<g id="node6" class="node">
<title>Node6</title>
<g id="a_node6"><a xlink:href="classengine_1_1_logger.html#aa4821d031aaabdef211acc1e04db1f04" target="_top" xlink:title=" ">
<polygon fill="white" stroke="black" points="257,-0.5 257,-19.5 366,-19.5 366,-0.5 257,-0.5"/>
<text text-anchor="middle" x="311.5" y="-7.5" font-family="Helvetica,sans-Serif" font-size="10.00">engine::Logger::Trace</text>
</a>
</g>
</g>
<!-- Node4&#45;&gt;Node6 -->
<g id="edge5" class="edge">
<title>Node4&#45;&gt;Node6</title>
<path fill="none" stroke="midnightblue" d="M217.81,-23.24C227.39,-21.87 237.32,-20.45 246.96,-19.08"/>
<polygon fill="midnightblue" stroke="midnightblue" points="247.46,-22.54 256.87,-17.66 246.47,-15.61 247.46,-22.54"/>
</g>
</g>
</svg>
