<?xml version="1.0" encoding="UTF-8" standalone="no"?>
<!DOCTYPE svg PUBLIC "-//W3C//DTD SVG 1.1//EN"
 "http://www.w3.org/Graphics/SVG/1.1/DTD/svg11.dtd">
<!-- Generated by graphviz version 2.47.1 (20210421.1823)
 -->
<!-- Title: Squads::SquadTemplate::SquadTemplate Pages: 1 -->
<svg width="442pt" height="186pt"
 viewBox="0.00 0.00 442.00 186.00" xmlns="http://www.w3.org/2000/svg" xmlns:xlink="http://www.w3.org/1999/xlink">
<g id="graph0" class="graph" transform="scale(1 1) rotate(0) translate(4 182)">
<title>Squads::SquadTemplate::SquadTemplate</title>
<polygon fill="white" stroke="transparent" points="-4,4 -4,-182 438,-182 438,4 -4,4"/>
<!-- Node1 -->
<g id="node1" class="node">
<title>Node1</title>
<g id="a_node1"><a xlink:title=" ">
<polygon fill="#bfbfbf" stroke="black" points="0,-73.5 0,-103.5 122,-103.5 122,-73.5 0,-73.5"/>
<text text-anchor="start" x="8" y="-91.5" font-family="Helvetica,sans-Serif" font-size="10.00">Squads::SquadTemplate</text>
<text text-anchor="middle" x="61" y="-80.5" font-family="Helvetica,sans-Serif" font-size="10.00">::SquadTemplate</text>
</a>
</g>
</g>
<!-- Node2 -->
<g id="node2" class="node">
<title>Node2</title>
<g id="a_node2"><a xlink:href="classengine_1_1_g_u_i_1_1_gui_scroll.html#a3ae01e6abd3139d469c24b61f38256d9" target="_top" xlink:title=" ">
<polygon fill="white" stroke="black" points="163,-147.5 163,-177.5 275,-177.5 275,-147.5 163,-147.5"/>
<text text-anchor="start" x="171" y="-165.5" font-family="Helvetica,sans-Serif" font-size="10.00">engine::GUI::GuiScroll</text>
<text text-anchor="middle" x="219" y="-154.5" font-family="Helvetica,sans-Serif" font-size="10.00">::addChild</text>
</a>
</g>
</g>
<!-- Node1&#45;&gt;Node2 -->
<g id="edge1" class="edge">
<title>Node1&#45;&gt;Node2</title>
<path fill="none" stroke="midnightblue" d="M89.36,-103.68C108.38,-114 134.43,-127.68 158,-138.5 161.62,-140.16 165.4,-141.83 169.21,-143.46"/>
<polygon fill="midnightblue" stroke="midnightblue" points="168.13,-146.8 178.71,-147.44 170.84,-140.35 168.13,-146.8"/>
</g>
<!-- Node3 -->
<g id="node3" class="node">
<title>Node3</title>
<g id="a_node3"><a xlink:href="class_squads_1_1_squad_template.html#ac4e3b426950fa595ecc8f1ea23f6eb99" target="_top" xlink:title=" ">
<polygon fill="white" stroke="black" points="158,-98.5 158,-128.5 280,-128.5 280,-98.5 158,-98.5"/>
<text text-anchor="start" x="166" y="-116.5" font-family="Helvetica,sans-Serif" font-size="10.00">Squads::SquadTemplate</text>
<text text-anchor="middle" x="219" y="-105.5" font-family="Helvetica,sans-Serif" font-size="10.00">::hide</text>
</a>
</g>
</g>
<!-- Node1&#45;&gt;Node3 -->
<g id="edge2" class="edge">
<title>Node1&#45;&gt;Node3</title>
<path fill="none" stroke="midnightblue" d="M122.31,-98.17C130.69,-99.51 139.36,-100.9 147.9,-102.27"/>
<polygon fill="midnightblue" stroke="midnightblue" points="147.42,-105.73 157.85,-103.86 148.53,-98.82 147.42,-105.73"/>
</g>
<!-- Node6 -->
<g id="node6" class="node">
<title>Node6</title>
<g id="a_node6"><a xlink:href="classengine_1_1_g_u_i_1_1_gui_scroll.html#af97163559c7e1683c396100e4c74c394" target="_top" xlink:title=" ">
<polygon fill="white" stroke="black" points="163,-49.5 163,-79.5 275,-79.5 275,-49.5 163,-49.5"/>
<text text-anchor="start" x="171" y="-67.5" font-family="Helvetica,sans-Serif" font-size="10.00">engine::GUI::GuiScroll</text>
<text text-anchor="middle" x="219" y="-56.5" font-family="Helvetica,sans-Serif" font-size="10.00">::removeChild</text>
</a>
</g>
</g>
<!-- Node1&#45;&gt;Node6 -->
<g id="edge5" class="edge">
<title>Node1&#45;&gt;Node6</title>
<path fill="none" stroke="midnightblue" d="M122.31,-79.22C132.35,-77.68 142.79,-76.07 152.93,-74.51"/>
<polygon fill="midnightblue" stroke="midnightblue" points="153.6,-77.95 162.95,-72.97 152.53,-71.03 153.6,-77.95"/>
</g>
<!-- Node7 -->
<g id="node7" class="node">
<title>Node7</title>
<g id="a_node7"><a xlink:href="class_squads_1_1_squad_template.html#aa004e66dc0b72234e0b49a7cd69f9acb" target="_top" xlink:title=" ">
<polygon fill="white" stroke="black" points="158,-0.5 158,-30.5 280,-30.5 280,-0.5 158,-0.5"/>
<text text-anchor="start" x="166" y="-18.5" font-family="Helvetica,sans-Serif" font-size="10.00">Squads::SquadTemplate</text>
<text text-anchor="middle" x="219" y="-7.5" font-family="Helvetica,sans-Serif" font-size="10.00">::show</text>
</a>
</g>
</g>
<!-- Node1&#45;&gt;Node7 -->
<g id="edge6" class="edge">
<title>Node1&#45;&gt;Node7</title>
<path fill="none" stroke="midnightblue" d="M90.74,-73.48C109.68,-63.74 135.13,-50.97 158,-40.5 162.33,-38.52 166.85,-36.51 171.4,-34.55"/>
<polygon fill="midnightblue" stroke="midnightblue" points="172.88,-37.72 180.7,-30.57 170.13,-31.28 172.88,-37.72"/>
</g>
<!-- Node4 -->
<g id="node4" class="node">
<title>Node4</title>
<g id="a_node4"><a xlink:href="classengine_1_1game_controller.html#ae2459bdafdf03e3b1519a14738744f00" target="_top" xlink:title=" ">
<polygon fill="white" stroke="black" points="317.5,-49.5 317.5,-79.5 432.5,-79.5 432.5,-49.5 317.5,-49.5"/>
<text text-anchor="start" x="325.5" y="-67.5" font-family="Helvetica,sans-Serif" font-size="10.00">engine::gameController</text>
<text text-anchor="middle" x="375" y="-56.5" font-family="Helvetica,sans-Serif" font-size="10.00">::Instance</text>
</a>
</g>
</g>
<!-- Node3&#45;&gt;Node4 -->
<g id="edge3" class="edge">
<title>Node3&#45;&gt;Node4</title>
<path fill="none" stroke="midnightblue" d="M267.46,-98.4C283.05,-93.44 300.54,-87.87 316.78,-82.71"/>
<polygon fill="midnightblue" stroke="midnightblue" points="318.23,-85.92 326.7,-79.55 316.1,-79.25 318.23,-85.92"/>
</g>
<!-- Node5 -->
<g id="node5" class="node">
<title>Node5</title>
<g id="a_node5"><a xlink:href="classengine_1_1game_controller.html#ad3744d23958867b81a1df22692aadd66" target="_top" xlink:title=" ">
<polygon fill="white" stroke="black" points="316,-98.5 316,-128.5 434,-128.5 434,-98.5 316,-98.5"/>
<text text-anchor="start" x="324" y="-116.5" font-family="Helvetica,sans-Serif" font-size="10.00">engine::gameController</text>
<text text-anchor="middle" x="375" y="-105.5" font-family="Helvetica,sans-Serif" font-size="10.00">::unregisterStaticObject</text>
</a>
</g>
</g>
<!-- Node3&#45;&gt;Node5 -->
<g id="edge4" class="edge">
<title>Node3&#45;&gt;Node5</title>
<path fill="none" stroke="midnightblue" d="M280.42,-113.5C288.69,-113.5 297.23,-113.5 305.62,-113.5"/>
<polygon fill="midnightblue" stroke="midnightblue" points="305.77,-117 315.77,-113.5 305.77,-110 305.77,-117"/>
</g>
<!-- Node7&#45;&gt;Node4 -->
<g id="edge7" class="edge">
<title>Node7&#45;&gt;Node4</title>
<path fill="none" stroke="midnightblue" d="M267.46,-30.6C283.05,-35.56 300.54,-41.13 316.78,-46.29"/>
<polygon fill="midnightblue" stroke="midnightblue" points="316.1,-49.75 326.7,-49.45 318.23,-43.08 316.1,-49.75"/>
</g>
<!-- Node8 -->
<g id="node8" class="node">
<title>Node8</title>
<g id="a_node8"><a xlink:href="classengine_1_1game_controller.html#ae124e19bf29bef364aded5e60d333542" target="_top" xlink:title=" ">
<polygon fill="white" stroke="black" points="317.5,-0.5 317.5,-30.5 432.5,-30.5 432.5,-0.5 317.5,-0.5"/>
<text text-anchor="start" x="325.5" y="-18.5" font-family="Helvetica,sans-Serif" font-size="10.00">engine::gameController</text>
<text text-anchor="middle" x="375" y="-7.5" font-family="Helvetica,sans-Serif" font-size="10.00">::registerStaticObject</text>
</a>
</g>
</g>
<!-- Node7&#45;&gt;Node8 -->
<g id="edge8" class="edge">
<title>Node7&#45;&gt;Node8</title>
<path fill="none" stroke="midnightblue" d="M280.42,-15.5C289.14,-15.5 298.16,-15.5 307,-15.5"/>
<polygon fill="midnightblue" stroke="midnightblue" points="307.27,-19 317.27,-15.5 307.27,-12 307.27,-19"/>
</g>
</g>
</svg>
