<?xml version="1.0" encoding="UTF-8" standalone="no"?>
<!DOCTYPE svg PUBLIC "-//W3C//DTD SVG 1.1//EN"
 "http://www.w3.org/Graphics/SVG/1.1/DTD/svg11.dtd">
<!-- Generated by graphviz version 2.47.1 (20210421.1823)
 -->
<!-- Title: engine::NetworkManager::processActions Pages: 1 -->
<svg width="443pt" height="155pt"
 viewBox="0.00 0.00 443.00 155.00" xmlns="http://www.w3.org/2000/svg" xmlns:xlink="http://www.w3.org/1999/xlink">
<g id="graph0" class="graph" transform="scale(1 1) rotate(0) translate(4 151)">
<title>engine::NetworkManager::processActions</title>
<polygon fill="white" stroke="transparent" points="-4,4 -4,-151 439,-151 439,4 -4,4"/>
<!-- Node1 -->
<g id="node1" class="node">
<title>Node1</title>
<g id="a_node1"><a xlink:title=" ">
<polygon fill="#bfbfbf" stroke="black" points="0,-49.5 0,-79.5 124,-79.5 124,-49.5 0,-49.5"/>
<text text-anchor="start" x="8" y="-67.5" font-family="Helvetica,sans-Serif" font-size="10.00">engine::NetworkManager</text>
<text text-anchor="middle" x="62" y="-56.5" font-family="Helvetica,sans-Serif" font-size="10.00">::processActions</text>
</a>
</g>
</g>
<!-- Node2 -->
<g id="node2" class="node">
<title>Node2</title>
<g id="a_node2"><a xlink:href="namespaceengine.html#aa7c2228a9c94c8e8e2a48d25c3c84c51" target="_top" xlink:title=" ">
<polygon fill="white" stroke="black" points="160,-55 160,-74 256,-74 256,-55 160,-55"/>
<text text-anchor="middle" x="208" y="-62" font-family="Helvetica,sans-Serif" font-size="10.00">engine::readAction</text>
</a>
</g>
</g>
<!-- Node1&#45;&gt;Node2 -->
<g id="edge1" class="edge">
<title>Node1&#45;&gt;Node2</title>
<path fill="none" stroke="midnightblue" d="M124.07,-64.5C132.57,-64.5 141.28,-64.5 149.71,-64.5"/>
<polygon fill="midnightblue" stroke="midnightblue" points="149.82,-68 159.82,-64.5 149.82,-61 149.82,-68"/>
</g>
<!-- Node3 -->
<g id="node3" class="node">
<title>Node3</title>
<g id="a_node3"><a xlink:href="classengine_1_1actions_1_1_none.html#a3bb0ac6f4435d0a764dbfcfe9f2bbf05" target="_top" xlink:title=" ">
<polygon fill="white" stroke="black" points="309,-116.5 309,-146.5 418,-146.5 418,-116.5 309,-116.5"/>
<text text-anchor="start" x="317" y="-134.5" font-family="Helvetica,sans-Serif" font-size="10.00">engine::actions::None</text>
<text text-anchor="middle" x="363.5" y="-123.5" font-family="Helvetica,sans-Serif" font-size="10.00">::read</text>
</a>
</g>
</g>
<!-- Node2&#45;&gt;Node3 -->
<g id="edge2" class="edge">
<title>Node2&#45;&gt;Node3</title>
<path fill="none" stroke="midnightblue" d="M225.81,-74.16C242.33,-83.42 268.41,-97.44 292,-107.5 296.38,-109.37 300.96,-111.19 305.58,-112.95"/>
<polygon fill="midnightblue" stroke="midnightblue" points="304.51,-116.29 315.11,-116.46 306.93,-109.72 304.51,-116.29"/>
</g>
<!-- Node4 -->
<g id="node4" class="node">
<title>Node4</title>
<g id="a_node4"><a xlink:href="classengine_1_1actions_1_1_set_squad_path.html#a6eacd7a79eb8e7dd67faf2d4fce26f12" target="_top" xlink:title=" ">
<polygon fill="white" stroke="black" points="299.5,-49.5 299.5,-79.5 427.5,-79.5 427.5,-49.5 299.5,-49.5"/>
<text text-anchor="start" x="307.5" y="-67.5" font-family="Helvetica,sans-Serif" font-size="10.00">engine::actions::SetSquad</text>
<text text-anchor="middle" x="363.5" y="-56.5" font-family="Helvetica,sans-Serif" font-size="10.00">Path::read</text>
</a>
</g>
</g>
<!-- Node2&#45;&gt;Node4 -->
<g id="edge3" class="edge">
<title>Node2&#45;&gt;Node4</title>
<path fill="none" stroke="midnightblue" d="M256.31,-64.5C266.69,-64.5 277.93,-64.5 289.07,-64.5"/>
<polygon fill="midnightblue" stroke="midnightblue" points="289.25,-68 299.25,-64.5 289.25,-61 289.25,-68"/>
</g>
<!-- Node5 -->
<g id="node5" class="node">
<title>Node5</title>
<g id="a_node5"><a xlink:href="classengine_1_1actions_1_1_spawn_action.html#a48c5c917220738af72d078fb236a8d3f" target="_top" xlink:title=" ">
<polygon fill="white" stroke="black" points="292,-0.5 292,-30.5 435,-30.5 435,-0.5 292,-0.5"/>
<text text-anchor="start" x="300" y="-18.5" font-family="Helvetica,sans-Serif" font-size="10.00">engine::actions::SpawnAction</text>
<text text-anchor="middle" x="363.5" y="-7.5" font-family="Helvetica,sans-Serif" font-size="10.00">::read</text>
</a>
</g>
</g>
<!-- Node2&#45;&gt;Node5 -->
<g id="edge5" class="edge">
<title>Node2&#45;&gt;Node5</title>
<path fill="none" stroke="midnightblue" d="M238.96,-54.94C257.97,-48.87 283.17,-40.82 305.85,-33.58"/>
<polygon fill="midnightblue" stroke="midnightblue" points="306.93,-36.91 315.39,-30.54 304.8,-30.24 306.93,-36.91"/>
</g>
<!-- Node4&#45;&gt;Node4 -->
<g id="edge4" class="edge">
<title>Node4&#45;&gt;Node4</title>
<path fill="none" stroke="midnightblue" d="M336.66,-79.66C330.19,-89.06 339.14,-98 363.5,-98 378.35,-98 387.47,-94.68 390.86,-89.96"/>
<polygon fill="midnightblue" stroke="midnightblue" points="394.34,-89.47 390.34,-79.66 387.35,-89.82 394.34,-89.47"/>
</g>
</g>
</svg>
