<?xml version="1.0" encoding="UTF-8" standalone="no"?>
<!DOCTYPE svg PUBLIC "-//W3C//DTD SVG 1.1//EN"
 "http://www.w3.org/Graphics/SVG/1.1/DTD/svg11.dtd">
<!-- Generated by graphviz version 2.47.1 (20210421.1823)
 -->
<!-- Title: engine::gameplayClickableGameObject Pages: 1 -->
<svg width="224pt" height="238pt"
 viewBox="0.00 0.00 224.00 238.00" xmlns="http://www.w3.org/2000/svg" xmlns:xlink="http://www.w3.org/1999/xlink">
<g id="graph0" class="graph" transform="scale(1 1) rotate(0) translate(4 234)">
<title>engine::gameplayClickableGameObject</title>
<polygon fill="white" stroke="transparent" points="-4,4 -4,-234 220,-234 220,4 -4,4"/>
<!-- Node1 -->
<g id="node1" class="node">
<title>Node1</title>
<g id="a_node1"><a xlink:title=" ">
<polygon fill="#bfbfbf" stroke="black" points="0,-0.5 0,-68.5 131,-68.5 131,-0.5 0,-0.5"/>
<text text-anchor="start" x="8" y="-56.5" font-family="Helvetica,sans-Serif" font-size="10.00">engine::gameplayClickable</text>
<text text-anchor="middle" x="65.5" y="-45.5" font-family="Helvetica,sans-Serif" font-size="10.00">GameObject</text>
<polyline fill="none" stroke="black" points="0,-38.5 131,-38.5 "/>
<text text-anchor="middle" x="65.5" y="-26.5" font-family="Helvetica,sans-Serif" font-size="10.00"> </text>
<polyline fill="none" stroke="black" points="0,-19.5 131,-19.5 "/>
<text text-anchor="start" x="8" y="-7.5" font-family="Helvetica,sans-Serif" font-size="10.00">+ doOnClick()</text>
</a>
</g>
</g>
<!-- Node1&#45;&gt;Node1 -->
<g id="edge2" class="edge">
<title>Node1&#45;&gt;Node1</title>
<path fill="none" stroke="#404040" d="M131.31,-43.48C141.81,-42.16 149,-39.17 149,-34.5 149,-31.95 146.85,-29.89 143.18,-28.34"/>
<polygon fill="none" stroke="#404040" points="142.98,-28.29 136.22,-30.8 131.31,-25.52 138.07,-23.02 142.98,-28.29"/>
<text text-anchor="middle" x="182.5" y="-32" font-family="Helvetica,sans-Serif" font-size="10.00"> +previousClick</text>
</g>
<!-- Node2 -->
<g id="node2" class="node">
<title>Node2</title>
<g id="a_node2"><a xlink:href="classengine_1_1game_object.html" target="_top" xlink:title=" ">
<polygon fill="white" stroke="black" points="1,-106.5 1,-229.5 130,-229.5 130,-106.5 1,-106.5"/>
<text text-anchor="middle" x="65.5" y="-217.5" font-family="Helvetica,sans-Serif" font-size="10.00">engine::gameObject</text>
<polyline fill="none" stroke="black" points="1,-210.5 130,-210.5 "/>
<text text-anchor="start" x="9" y="-198.5" font-family="Helvetica,sans-Serif" font-size="10.00">+ id</text>
<text text-anchor="start" x="9" y="-187.5" font-family="Helvetica,sans-Serif" font-size="10.00">+ gameObjectListPosition</text>
<polyline fill="none" stroke="black" points="1,-180.5 130,-180.5 "/>
<text text-anchor="start" x="9" y="-168.5" font-family="Helvetica,sans-Serif" font-size="10.00">+ repr()</text>
<text text-anchor="start" x="9" y="-157.5" font-family="Helvetica,sans-Serif" font-size="10.00">+ tick()</text>
<text text-anchor="start" x="9" y="-146.5" font-family="Helvetica,sans-Serif" font-size="10.00">+ lateTick()</text>
<text text-anchor="start" x="9" y="-135.5" font-family="Helvetica,sans-Serif" font-size="10.00">+ render()</text>
<text text-anchor="start" x="9" y="-124.5" font-family="Helvetica,sans-Serif" font-size="10.00">+ getRenderEdges()</text>
<text text-anchor="start" x="9" y="-113.5" font-family="Helvetica,sans-Serif" font-size="10.00">+ tryOnClick()</text>
</a>
</g>
</g>
<!-- Node2&#45;&gt;Node1 -->
<g id="edge1" class="edge">
<title>Node2&#45;&gt;Node1</title>
<path fill="none" stroke="midnightblue" d="M65.5,-96.24C65.5,-86.65 65.5,-77.21 65.5,-68.73"/>
<polygon fill="none" stroke="midnightblue" points="62,-96.25 65.5,-106.25 69,-96.25 62,-96.25"/>
</g>
</g>
</svg>
