<?xml version="1.0" encoding="UTF-8" standalone="no"?>
<!DOCTYPE svg PUBLIC "-//W3C//DTD SVG 1.1//EN"
 "http://www.w3.org/Graphics/SVG/1.1/DTD/svg11.dtd">
<!-- Generated by graphviz version 2.47.1 (20210421.1823)
 -->
<!-- Title: engine::GUI::GuiList Pages: 1 -->
<svg width="137pt" height="535pt"
 viewBox="0.00 0.00 137.00 535.00" xmlns="http://www.w3.org/2000/svg" xmlns:xlink="http://www.w3.org/1999/xlink">
<g id="graph0" class="graph" transform="scale(1 1) rotate(0) translate(4 531)">
<title>engine::GUI::GuiList</title>
<polygon fill="white" stroke="transparent" points="-4,4 -4,-531 133,-531 133,4 -4,4"/>
<!-- Node1 -->
<g id="node1" class="node">
<title>Node1</title>
<g id="a_node1"><a xlink:title=" ">
<polygon fill="#bfbfbf" stroke="black" points="12.5,-138.5 12.5,-272.5 116.5,-272.5 116.5,-138.5 12.5,-138.5"/>
<text text-anchor="middle" x="64.5" y="-260.5" font-family="Helvetica,sans-Serif" font-size="10.00">engine::GUI::GuiList</text>
<polyline fill="none" stroke="black" points="12.5,-253.5 116.5,-253.5 "/>
<text text-anchor="start" x="20.5" y="-241.5" font-family="Helvetica,sans-Serif" font-size="10.00">+ background</text>
<text text-anchor="start" x="20.5" y="-230.5" font-family="Helvetica,sans-Serif" font-size="10.00"># children</text>
<text text-anchor="start" x="20.5" y="-219.5" font-family="Helvetica,sans-Serif" font-size="10.00"># newPos</text>
<polyline fill="none" stroke="black" points="12.5,-212.5 116.5,-212.5 "/>
<text text-anchor="start" x="20.5" y="-200.5" font-family="Helvetica,sans-Serif" font-size="10.00">+ GuiList()</text>
<text text-anchor="start" x="20.5" y="-189.5" font-family="Helvetica,sans-Serif" font-size="10.00">+ tick()</text>
<text text-anchor="start" x="20.5" y="-178.5" font-family="Helvetica,sans-Serif" font-size="10.00">+ lateTick()</text>
<text text-anchor="start" x="20.5" y="-167.5" font-family="Helvetica,sans-Serif" font-size="10.00">+ render()</text>
<text text-anchor="start" x="20.5" y="-156.5" font-family="Helvetica,sans-Serif" font-size="10.00">+ tryOnClick()</text>
<text text-anchor="start" x="20.5" y="-145.5" font-family="Helvetica,sans-Serif" font-size="10.00">+ addChild()</text>
</a>
</g>
</g>
<!-- Node4 -->
<g id="node4" class="node">
<title>Node4</title>
<g id="a_node4"><a xlink:href="classengine_1_1_g_u_i_1_1_gui_scroll.html" target="_top" xlink:title=" ">
<polygon fill="white" stroke="black" points="8.5,-0.5 8.5,-101.5 120.5,-101.5 120.5,-0.5 8.5,-0.5"/>
<text text-anchor="middle" x="64.5" y="-89.5" font-family="Helvetica,sans-Serif" font-size="10.00">engine::GUI::GuiScroll</text>
<polyline fill="none" stroke="black" points="8.5,-82.5 120.5,-82.5 "/>
<text text-anchor="middle" x="64.5" y="-70.5" font-family="Helvetica,sans-Serif" font-size="10.00"> </text>
<polyline fill="none" stroke="black" points="8.5,-63.5 120.5,-63.5 "/>
<text text-anchor="start" x="16.5" y="-51.5" font-family="Helvetica,sans-Serif" font-size="10.00">+ GuiScroll()</text>
<text text-anchor="start" x="16.5" y="-40.5" font-family="Helvetica,sans-Serif" font-size="10.00">+ render()</text>
<text text-anchor="start" x="16.5" y="-29.5" font-family="Helvetica,sans-Serif" font-size="10.00">+ tryOnClick()</text>
<text text-anchor="start" x="16.5" y="-18.5" font-family="Helvetica,sans-Serif" font-size="10.00">+ addChild()</text>
<text text-anchor="start" x="16.5" y="-7.5" font-family="Helvetica,sans-Serif" font-size="10.00">+ removeChild()</text>
</a>
</g>
</g>
<!-- Node1&#45;&gt;Node4 -->
<g id="edge3" class="edge">
<title>Node1&#45;&gt;Node4</title>
<path fill="none" stroke="midnightblue" d="M64.5,-128.27C64.5,-119.19 64.5,-110.11 64.5,-101.55"/>
<polygon fill="none" stroke="midnightblue" points="61,-128.5 64.5,-138.5 68,-128.5 61,-128.5"/>
</g>
<!-- Node2 -->
<g id="node2" class="node">
<title>Node2</title>
<g id="a_node2"><a xlink:href="classengine_1_1_g_u_i_1_1_gui_object.html" target="_top" xlink:title=" ">
<polygon fill="white" stroke="black" points="6.5,-309.5 6.5,-377.5 122.5,-377.5 122.5,-309.5 6.5,-309.5"/>
<text text-anchor="middle" x="64.5" y="-365.5" font-family="Helvetica,sans-Serif" font-size="10.00">engine::GUI::GuiObject</text>
<polyline fill="none" stroke="black" points="6.5,-358.5 122.5,-358.5 "/>
<text text-anchor="start" x="14.5" y="-346.5" font-family="Helvetica,sans-Serif" font-size="10.00">+ boundary</text>
<polyline fill="none" stroke="black" points="6.5,-339.5 122.5,-339.5 "/>
<text text-anchor="start" x="14.5" y="-327.5" font-family="Helvetica,sans-Serif" font-size="10.00">+ GuiObject()</text>
<text text-anchor="start" x="14.5" y="-316.5" font-family="Helvetica,sans-Serif" font-size="10.00">+ getRenderEdges()</text>
</a>
</g>
</g>
<!-- Node2&#45;&gt;Node1 -->
<g id="edge1" class="edge">
<title>Node2&#45;&gt;Node1</title>
<path fill="none" stroke="midnightblue" d="M64.5,-298.96C64.5,-290.57 64.5,-281.6 64.5,-272.68"/>
<polygon fill="none" stroke="midnightblue" points="61,-299.23 64.5,-309.23 68,-299.23 61,-299.23"/>
</g>
<!-- Node3 -->
<g id="node3" class="node">
<title>Node3</title>
<g id="a_node3"><a xlink:href="classengine_1_1game_object.html" target="_top" xlink:title=" ">
<polygon fill="white" stroke="black" points="0,-414.5 0,-526.5 129,-526.5 129,-414.5 0,-414.5"/>
<text text-anchor="middle" x="64.5" y="-514.5" font-family="Helvetica,sans-Serif" font-size="10.00">engine::gameObject</text>
<polyline fill="none" stroke="black" points="0,-507.5 129,-507.5 "/>
<text text-anchor="start" x="8" y="-495.5" font-family="Helvetica,sans-Serif" font-size="10.00">+ id</text>
<text text-anchor="start" x="8" y="-484.5" font-family="Helvetica,sans-Serif" font-size="10.00">+ gameObjectListPosition</text>
<polyline fill="none" stroke="black" points="0,-477.5 129,-477.5 "/>
<text text-anchor="start" x="8" y="-465.5" font-family="Helvetica,sans-Serif" font-size="10.00">+ tick()</text>
<text text-anchor="start" x="8" y="-454.5" font-family="Helvetica,sans-Serif" font-size="10.00">+ lateTick()</text>
<text text-anchor="start" x="8" y="-443.5" font-family="Helvetica,sans-Serif" font-size="10.00">+ render()</text>
<text text-anchor="start" x="8" y="-432.5" font-family="Helvetica,sans-Serif" font-size="10.00">+ getRenderEdges()</text>
<text text-anchor="start" x="8" y="-421.5" font-family="Helvetica,sans-Serif" font-size="10.00">+ tryOnClick()</text>
</a>
</g>
</g>
<!-- Node3&#45;&gt;Node2 -->
<g id="edge2" class="edge">
<title>Node3&#45;&gt;Node2</title>
<path fill="none" stroke="midnightblue" d="M64.5,-404.26C64.5,-394.99 64.5,-385.8 64.5,-377.51"/>
<polygon fill="none" stroke="midnightblue" points="61,-404.31 64.5,-414.31 68,-404.31 61,-404.31"/>
</g>
</g>
</svg>
