<?xml version="1.0" encoding="UTF-8" standalone="no"?>
<!DOCTYPE svg PUBLIC "-//W3C//DTD SVG 1.1//EN"
 "http://www.w3.org/Graphics/SVG/1.1/DTD/svg11.dtd">
<!-- Generated by graphviz version 2.47.1 (20210421.1823)
 -->
<!-- Title: engine::actions::SetSquadPath Pages: 1 -->
<svg width="157pt" height="204pt"
 viewBox="0.00 0.00 157.00 204.00" xmlns="http://www.w3.org/2000/svg" xmlns:xlink="http://www.w3.org/1999/xlink">
<g id="graph0" class="graph" transform="scale(1 1) rotate(0) translate(4 200)">
<title>engine::actions::SetSquadPath</title>
<polygon fill="white" stroke="transparent" points="-4,4 -4,-200 153,-200 153,4 -4,4"/>
<!-- Node1 -->
<g id="node1" class="node">
<title>Node1</title>
<g id="a_node1"><a xlink:title=" ">
<polygon fill="#bfbfbf" stroke="black" points="0,-0.5 0,-90.5 149,-90.5 149,-0.5 0,-0.5"/>
<text text-anchor="middle" x="74.5" y="-78.5" font-family="Helvetica,sans-Serif" font-size="10.00">engine::actions::SetSquadPath</text>
<polyline fill="none" stroke="black" points="0,-71.5 149,-71.5 "/>
<text text-anchor="middle" x="74.5" y="-59.5" font-family="Helvetica,sans-Serif" font-size="10.00"> </text>
<polyline fill="none" stroke="black" points="0,-52.5 149,-52.5 "/>
<text text-anchor="start" x="8" y="-40.5" font-family="Helvetica,sans-Serif" font-size="10.00">+ SetSquadPath()</text>
<text text-anchor="start" x="8" y="-29.5" font-family="Helvetica,sans-Serif" font-size="10.00">+ write()</text>
<text text-anchor="start" x="8" y="-18.5" font-family="Helvetica,sans-Serif" font-size="10.00">+ apply()</text>
<text text-anchor="start" x="8" y="-7.5" font-family="Helvetica,sans-Serif" font-size="10.00">+ read()</text>
</a>
</g>
</g>
<!-- Node2 -->
<g id="node2" class="node">
<title>Node2</title>
<g id="a_node2"><a xlink:href="classengine_1_1_action.html" target="_top" xlink:title=" ">
<polygon fill="white" stroke="black" points="36,-127.5 36,-195.5 113,-195.5 113,-127.5 36,-127.5"/>
<text text-anchor="middle" x="74.5" y="-183.5" font-family="Helvetica,sans-Serif" font-size="10.00">engine::Action</text>
<polyline fill="none" stroke="black" points="36,-176.5 113,-176.5 "/>
<text text-anchor="middle" x="74.5" y="-164.5" font-family="Helvetica,sans-Serif" font-size="10.00"> </text>
<polyline fill="none" stroke="black" points="36,-157.5 113,-157.5 "/>
<text text-anchor="start" x="44" y="-145.5" font-family="Helvetica,sans-Serif" font-size="10.00">+ write()</text>
<text text-anchor="start" x="44" y="-134.5" font-family="Helvetica,sans-Serif" font-size="10.00">+ apply()</text>
</a>
</g>
</g>
<!-- Node2&#45;&gt;Node1 -->
<g id="edge1" class="edge">
<title>Node2&#45;&gt;Node1</title>
<path fill="none" stroke="midnightblue" d="M74.5,-116.97C74.5,-108.35 74.5,-99.28 74.5,-90.64"/>
<polygon fill="none" stroke="midnightblue" points="71,-117.22 74.5,-127.22 78,-117.22 71,-117.22"/>
</g>
</g>
</svg>
