<?xml version="1.0" encoding="UTF-8" standalone="no"?>
<!DOCTYPE svg PUBLIC "-//W3C//DTD SVG 1.1//EN"
 "http://www.w3.org/Graphics/SVG/1.1/DTD/svg11.dtd">
<!-- Generated by graphviz version 2.47.1 (20210421.1823)
 -->
<!-- Title: engine::gameObject::repr Pages: 1 -->
<svg width="425pt" height="142pt"
 viewBox="0.00 0.00 425.00 142.00" xmlns="http://www.w3.org/2000/svg" xmlns:xlink="http://www.w3.org/1999/xlink">
<g id="graph0" class="graph" transform="scale(1 1) rotate(0) translate(4 138)">
<title>engine::gameObject::repr</title>
<polygon fill="white" stroke="transparent" points="-4,4 -4,-138 421,-138 421,4 -4,4"/>
<!-- Node1 -->
<g id="node1" class="node">
<title>Node1</title>
<g id="a_node1"><a xlink:title=" ">
<polygon fill="#bfbfbf" stroke="black" points="315,-32 315,-62 417,-62 417,-32 315,-32"/>
<text text-anchor="start" x="323" y="-50" font-family="Helvetica,sans-Serif" font-size="10.00">engine::gameObject</text>
<text text-anchor="middle" x="366" y="-39" font-family="Helvetica,sans-Serif" font-size="10.00">::repr</text>
</a>
</g>
</g>
<!-- Node2 -->
<g id="node2" class="node">
<title>Node2</title>
<g id="a_node2"><a xlink:href="classengine_1_1_network_manager.html#aaf96b7aefc25cbac756e7ca5660030e3" target="_top" xlink:title=" ">
<polygon fill="white" stroke="black" points="155,-64 155,-94 279,-94 279,-64 155,-64"/>
<text text-anchor="start" x="163" y="-82" font-family="Helvetica,sans-Serif" font-size="10.00">engine::NetworkManager</text>
<text text-anchor="middle" x="217" y="-71" font-family="Helvetica,sans-Serif" font-size="10.00">::makeShared</text>
</a>
</g>
</g>
<!-- Node1&#45;&gt;Node2 -->
<g id="edge1" class="edge">
<title>Node1&#45;&gt;Node2</title>
<path fill="none" stroke="midnightblue" d="M304.97,-60.07C296.45,-61.92 287.68,-63.83 279.14,-65.69"/>
<polygon fill="midnightblue" stroke="midnightblue" points="305.8,-63.47 314.82,-57.92 304.31,-56.63 305.8,-63.47"/>
</g>
<!-- Node6 -->
<g id="node6" class="node">
<title>Node6</title>
<g id="a_node6"><a xlink:href="classengine_1_1_network_manager.html#a24ad8e55544b747036f628c466e617d8" target="_top" xlink:title=" ">
<polygon fill="white" stroke="black" points="155,-8 155,-38 279,-38 279,-8 155,-8"/>
<text text-anchor="start" x="163" y="-26" font-family="Helvetica,sans-Serif" font-size="10.00">engine::NetworkManager</text>
<text text-anchor="middle" x="217" y="-15" font-family="Helvetica,sans-Serif" font-size="10.00">::removeShared</text>
</a>
</g>
</g>
<!-- Node1&#45;&gt;Node6 -->
<g id="edge5" class="edge">
<title>Node1&#45;&gt;Node6</title>
<path fill="none" stroke="midnightblue" d="M304.69,-37.15C296.26,-35.78 287.59,-34.36 279.14,-32.98"/>
<polygon fill="midnightblue" stroke="midnightblue" points="304.39,-40.65 314.82,-38.81 305.52,-33.74 304.39,-40.65"/>
</g>
<!-- Node3 -->
<g id="node3" class="node">
<title>Node3</title>
<g id="a_node3"><a xlink:href="class_cell.html#aa3317a89121135ce43f0ade0248dd9e0" target="_top" xlink:title=" ">
<polygon fill="white" stroke="black" points="32.5,-114.5 32.5,-133.5 86.5,-133.5 86.5,-114.5 32.5,-114.5"/>
<text text-anchor="middle" x="59.5" y="-121.5" font-family="Helvetica,sans-Serif" font-size="10.00">Cell::Cell</text>
</a>
</g>
</g>
<!-- Node2&#45;&gt;Node3 -->
<g id="edge2" class="edge">
<title>Node2&#45;&gt;Node3</title>
<path fill="none" stroke="midnightblue" d="M153.89,-96.97C130.44,-103.76 105.01,-111.12 86.62,-116.44"/>
<polygon fill="midnightblue" stroke="midnightblue" points="155.16,-100.25 163.79,-94.11 153.21,-93.53 155.16,-100.25"/>
</g>
<!-- Node4 -->
<g id="node4" class="node">
<title>Node4</title>
<g id="a_node4"><a xlink:href="class_factory.html#aaf775d7c3f301fc3af535b99939cfc87" target="_top" xlink:title=" ">
<polygon fill="white" stroke="black" points="16.5,-76.5 16.5,-95.5 102.5,-95.5 102.5,-76.5 16.5,-76.5"/>
<text text-anchor="middle" x="59.5" y="-83.5" font-family="Helvetica,sans-Serif" font-size="10.00">Factory::Factory</text>
</a>
</g>
</g>
<!-- Node2&#45;&gt;Node4 -->
<g id="edge3" class="edge">
<title>Node2&#45;&gt;Node4</title>
<path fill="none" stroke="midnightblue" d="M144.61,-82.21C130.25,-82.86 115.59,-83.52 102.63,-84.1"/>
<polygon fill="midnightblue" stroke="midnightblue" points="145.16,-85.69 154.99,-81.75 144.84,-78.7 145.16,-85.69"/>
</g>
<!-- Node5 -->
<g id="node5" class="node">
<title>Node5</title>
<g id="a_node5"><a xlink:href="class_squads_1_1_squad.html#aa9fb6eb8bb4e7024e829a60d1b9a4ffc" target="_top" xlink:title=" ">
<polygon fill="white" stroke="black" points="2.5,-38.5 2.5,-57.5 116.5,-57.5 116.5,-38.5 2.5,-38.5"/>
<text text-anchor="middle" x="59.5" y="-45.5" font-family="Helvetica,sans-Serif" font-size="10.00">Squads::Squad::Squad</text>
</a>
</g>
</g>
<!-- Node2&#45;&gt;Node5 -->
<g id="edge4" class="edge">
<title>Node2&#45;&gt;Node5</title>
<path fill="none" stroke="midnightblue" d="M145.09,-64.86C132.65,-62.38 119.98,-59.86 108.36,-57.54"/>
<polygon fill="midnightblue" stroke="midnightblue" points="144.5,-68.31 154.99,-66.84 145.87,-61.45 144.5,-68.31"/>
</g>
<!-- Node7 -->
<g id="node7" class="node">
<title>Node7</title>
<g id="a_node7"><a xlink:href="class_squads_1_1_squad.html#a1951c087cfde5954f78a2ee80a688933" target="_top" xlink:title=" ">
<polygon fill="white" stroke="black" points="0,-0.5 0,-19.5 119,-19.5 119,-0.5 0,-0.5"/>
<text text-anchor="middle" x="59.5" y="-7.5" font-family="Helvetica,sans-Serif" font-size="10.00">Squads::Squad::~Squad</text>
</a>
</g>
</g>
<!-- Node6&#45;&gt;Node7 -->
<g id="edge6" class="edge">
<title>Node6&#45;&gt;Node7</title>
<path fill="none" stroke="midnightblue" d="M144.91,-17.06C136.25,-16.33 127.49,-15.6 119.05,-14.89"/>
<polygon fill="midnightblue" stroke="midnightblue" points="144.73,-20.55 154.99,-17.9 145.31,-13.58 144.73,-20.55"/>
</g>
</g>
</svg>
