<?xml version="1.0" encoding="UTF-8" standalone="no"?>
<!DOCTYPE svg PUBLIC "-//W3C//DTD SVG 1.1//EN"
 "http://www.w3.org/Graphics/SVG/1.1/DTD/svg11.dtd">
<!-- Generated by graphviz version 2.47.1 (20210421.1823)
 -->
<!-- Title: Units::ArmoredUnit Pages: 1 -->
<svg width="325pt" height="1060pt"
 viewBox="0.00 0.00 324.50 1060.00" xmlns="http://www.w3.org/2000/svg" xmlns:xlink="http://www.w3.org/1999/xlink">
<g id="graph0" class="graph" transform="scale(1 1) rotate(0) translate(4 1056)">
<title>Units::ArmoredUnit</title>
<polygon fill="white" stroke="transparent" points="-4,4 -4,-1056 320.5,-1056 320.5,4 -4,4"/>
<!-- Node1 -->
<g id="node1" class="node">
<title>Node1</title>
<g id="a_node1"><a xlink:title=" ">
<polygon fill="#bfbfbf" stroke="black" points="99,-0.5 99,-123.5 198,-123.5 198,-0.5 99,-0.5"/>
<text text-anchor="middle" x="148.5" y="-111.5" font-family="Helvetica,sans-Serif" font-size="10.00">Units::ArmoredUnit</text>
<polyline fill="none" stroke="black" points="99,-104.5 198,-104.5 "/>
<text text-anchor="middle" x="148.5" y="-92.5" font-family="Helvetica,sans-Serif" font-size="10.00"> </text>
<polyline fill="none" stroke="black" points="99,-85.5 198,-85.5 "/>
<text text-anchor="start" x="107" y="-73.5" font-family="Helvetica,sans-Serif" font-size="10.00">+ getAsTransport()</text>
<text text-anchor="start" x="107" y="-62.5" font-family="Helvetica,sans-Serif" font-size="10.00">+ ArmoredUnit()</text>
<text text-anchor="start" x="107" y="-51.5" font-family="Helvetica,sans-Serif" font-size="10.00">+ ArmoredUnit()</text>
<text text-anchor="start" x="107" y="-40.5" font-family="Helvetica,sans-Serif" font-size="10.00">+ getAttack()</text>
<text text-anchor="start" x="107" y="-29.5" font-family="Helvetica,sans-Serif" font-size="10.00">+ changeHP()</text>
<text text-anchor="start" x="107" y="-18.5" font-family="Helvetica,sans-Serif" font-size="10.00">+ setStats()</text>
<text text-anchor="start" x="107" y="-7.5" font-family="Helvetica,sans-Serif" font-size="10.00">+ tick()</text>
</a>
</g>
</g>
<!-- Node2 -->
<g id="node2" class="node">
<title>Node2</title>
<g id="a_node2"><a xlink:href="class_units_1_1_unit.html" target="_top" xlink:title=" ">
<polygon fill="white" stroke="black" points="78.5,-161.5 78.5,-449.5 218.5,-449.5 218.5,-161.5 78.5,-161.5"/>
<text text-anchor="middle" x="148.5" y="-437.5" font-family="Helvetica,sans-Serif" font-size="10.00">Units::Unit</text>
<polyline fill="none" stroke="black" points="78.5,-430.5 218.5,-430.5 "/>
<text text-anchor="start" x="86.5" y="-418.5" font-family="Helvetica,sans-Serif" font-size="10.00">+ name</text>
<text text-anchor="start" x="86.5" y="-407.5" font-family="Helvetica,sans-Serif" font-size="10.00">+ texture</text>
<text text-anchor="start" x="86.5" y="-396.5" font-family="Helvetica,sans-Serif" font-size="10.00">+ weight</text>
<text text-anchor="start" x="86.5" y="-385.5" font-family="Helvetica,sans-Serif" font-size="10.00">+ landscapeFlagResists</text>
<text text-anchor="start" x="86.5" y="-374.5" font-family="Helvetica,sans-Serif" font-size="10.00">+ borderFlagResists</text>
<text text-anchor="start" x="86.5" y="-363.5" font-family="Helvetica,sans-Serif" font-size="10.00">+ commonSpeed</text>
<text text-anchor="start" x="86.5" y="-352.5" font-family="Helvetica,sans-Serif" font-size="10.00"># currentUsageOfOrder</text>
<text text-anchor="start" x="86.5" y="-341.5" font-family="Helvetica,sans-Serif" font-size="10.00"># allOrders</text>
<text text-anchor="start" x="86.5" y="-330.5" font-family="Helvetica,sans-Serif" font-size="10.00"># unitLandscapeFlagResists</text>
<text text-anchor="start" x="86.5" y="-319.5" font-family="Helvetica,sans-Serif" font-size="10.00"># unitBorderFlagResists</text>
<text text-anchor="start" x="86.5" y="-308.5" font-family="Helvetica,sans-Serif" font-size="10.00"># unitSpeed</text>
<text text-anchor="start" x="86.5" y="-297.5" font-family="Helvetica,sans-Serif" font-size="10.00"># HP</text>
<text text-anchor="start" x="86.5" y="-286.5" font-family="Helvetica,sans-Serif" font-size="10.00"># fullHP</text>
<polyline fill="none" stroke="black" points="78.5,-279.5 218.5,-279.5 "/>
<text text-anchor="start" x="86.5" y="-267.5" font-family="Helvetica,sans-Serif" font-size="10.00">+ Unit()</text>
<text text-anchor="start" x="86.5" y="-256.5" font-family="Helvetica,sans-Serif" font-size="10.00">+ Unit()</text>
<text text-anchor="start" x="86.5" y="-245.5" font-family="Helvetica,sans-Serif" font-size="10.00">+ setSquad()</text>
<text text-anchor="start" x="86.5" y="-234.5" font-family="Helvetica,sans-Serif" font-size="10.00">+ changeHP()</text>
<text text-anchor="start" x="86.5" y="-223.5" font-family="Helvetica,sans-Serif" font-size="10.00">+ isAlive()</text>
<text text-anchor="start" x="86.5" y="-212.5" font-family="Helvetica,sans-Serif" font-size="10.00">+ tick()</text>
<text text-anchor="start" x="86.5" y="-201.5" font-family="Helvetica,sans-Serif" font-size="10.00">+ getAttack()</text>
<text text-anchor="start" x="86.5" y="-190.5" font-family="Helvetica,sans-Serif" font-size="10.00">+ isOrderPossible()</text>
<text text-anchor="start" x="86.5" y="-179.5" font-family="Helvetica,sans-Serif" font-size="10.00">+ enableOrder()</text>
<text text-anchor="start" x="86.5" y="-168.5" font-family="Helvetica,sans-Serif" font-size="10.00">+ disableOrder()</text>
</a>
</g>
</g>
<!-- Node2&#45;&gt;Node1 -->
<g id="edge1" class="edge">
<title>Node2&#45;&gt;Node1</title>
<path fill="none" stroke="midnightblue" d="M148.5,-151.18C148.5,-141.63 148.5,-132.37 148.5,-123.67"/>
<polygon fill="none" stroke="midnightblue" points="145,-151.23 148.5,-161.23 152,-151.23 145,-151.23"/>
</g>
<!-- Node3 -->
<g id="node3" class="node">
<title>Node3</title>
<g id="a_node3"><a xlink:href="class_unit_order.html" target="_top" xlink:title=" ">
<polygon fill="white" stroke="black" points="77,-558 77,-626 136,-626 136,-558 77,-558"/>
<text text-anchor="middle" x="106.5" y="-614" font-family="Helvetica,sans-Serif" font-size="10.00">UnitOrder</text>
<polyline fill="none" stroke="black" points="77,-607 136,-607 "/>
<text text-anchor="middle" x="106.5" y="-595" font-family="Helvetica,sans-Serif" font-size="10.00"> </text>
<polyline fill="none" stroke="black" points="77,-588 136,-588 "/>
<text text-anchor="start" x="85" y="-576" font-family="Helvetica,sans-Serif" font-size="10.00">+ tick()</text>
<text text-anchor="start" x="85" y="-565" font-family="Helvetica,sans-Serif" font-size="10.00">+ copy()</text>
</a>
</g>
</g>
<!-- Node3&#45;&gt;Node2 -->
<g id="edge2" class="edge">
<title>Node3&#45;&gt;Node2</title>
<path fill="none" stroke="#404040" d="M108.96,-557.76C110.99,-532.96 114.22,-498.27 118.5,-468 118.79,-465.96 119.08,-463.91 119.39,-461.85"/>
<polygon fill="none" stroke="#404040" points="119.39,-461.79 116.34,-455.26 121.19,-449.93 124.25,-456.46 119.39,-461.79"/>
<text text-anchor="middle" x="149.5" y="-471" font-family="Helvetica,sans-Serif" font-size="10.00"> #currentOrder</text>
</g>
<!-- Node4 -->
<g id="node4" class="node">
<title>Node4</title>
<g id="a_node4"><a xlink:href="class_squads_1_1_squad.html" target="_top" xlink:title=" ">
<polygon fill="white" stroke="black" points="154,-497.5 154,-686.5 275,-686.5 275,-497.5 154,-497.5"/>
<text text-anchor="middle" x="214.5" y="-674.5" font-family="Helvetica,sans-Serif" font-size="10.00">Squads::Squad</text>
<polyline fill="none" stroke="black" points="154,-667.5 275,-667.5 "/>
<text text-anchor="start" x="162" y="-655.5" font-family="Helvetica,sans-Serif" font-size="10.00">+ currentSpeed</text>
<text text-anchor="start" x="162" y="-644.5" font-family="Helvetica,sans-Serif" font-size="10.00">+ landscapeFlagResists</text>
<text text-anchor="start" x="162" y="-633.5" font-family="Helvetica,sans-Serif" font-size="10.00">+ borderFlagResists</text>
<polyline fill="none" stroke="black" points="154,-626.5 275,-626.5 "/>
<text text-anchor="start" x="162" y="-614.5" font-family="Helvetica,sans-Serif" font-size="10.00">+ setOwner()</text>
<text text-anchor="start" x="162" y="-603.5" font-family="Helvetica,sans-Serif" font-size="10.00">+ setCell()</text>
<text text-anchor="start" x="162" y="-592.5" font-family="Helvetica,sans-Serif" font-size="10.00">+ damageUnit()</text>
<text text-anchor="start" x="162" y="-581.5" font-family="Helvetica,sans-Serif" font-size="10.00">+ getAttack()</text>
<text text-anchor="start" x="162" y="-570.5" font-family="Helvetica,sans-Serif" font-size="10.00">+ Squad()</text>
<text text-anchor="start" x="162" y="-559.5" font-family="Helvetica,sans-Serif" font-size="10.00">+ ~Squad()</text>
<text text-anchor="start" x="162" y="-548.5" font-family="Helvetica,sans-Serif" font-size="10.00">+ tick()</text>
<text text-anchor="start" x="162" y="-537.5" font-family="Helvetica,sans-Serif" font-size="10.00">+ lateTick()</text>
<text text-anchor="start" x="162" y="-526.5" font-family="Helvetica,sans-Serif" font-size="10.00">+ render()</text>
<text text-anchor="start" x="162" y="-515.5" font-family="Helvetica,sans-Serif" font-size="10.00">+ tryOnClick()</text>
<text text-anchor="start" x="162" y="-504.5" font-family="Helvetica,sans-Serif" font-size="10.00">+ doOnClick()</text>
</a>
</g>
</g>
<!-- Node4&#45;&gt;Node2 -->
<g id="edge3" class="edge">
<title>Node4&#45;&gt;Node2</title>
<path fill="none" stroke="#404040" d="M192.8,-497.45C190.09,-485.79 187.27,-473.63 184.42,-461.35"/>
<polygon fill="none" stroke="#404040" points="184.4,-461.24 179.15,-456.3 181.69,-449.55 186.94,-454.49 184.4,-461.24"/>
<text text-anchor="middle" x="204.5" y="-471" font-family="Helvetica,sans-Serif" font-size="10.00"> #squad</text>
</g>
<!-- Node5 -->
<g id="node5" class="node">
<title>Node5</title>
<g id="a_node5"><a xlink:href="classengine_1_1gameplay_clickable_game_object.html" target="_top" xlink:title=" ">
<polygon fill="white" stroke="black" points="0,-784 0,-852 131,-852 131,-784 0,-784"/>
<text text-anchor="start" x="8" y="-840" font-family="Helvetica,sans-Serif" font-size="10.00">engine::gameplayClickable</text>
<text text-anchor="middle" x="65.5" y="-829" font-family="Helvetica,sans-Serif" font-size="10.00">GameObject</text>
<polyline fill="none" stroke="black" points="0,-822 131,-822 "/>
<text text-anchor="middle" x="65.5" y="-810" font-family="Helvetica,sans-Serif" font-size="10.00"> </text>
<polyline fill="none" stroke="black" points="0,-803 131,-803 "/>
<text text-anchor="start" x="8" y="-791" font-family="Helvetica,sans-Serif" font-size="10.00">+ doOnClick()</text>
</a>
</g>
</g>
<!-- Node5&#45;&gt;Node4 -->
<g id="edge4" class="edge">
<title>Node5&#45;&gt;Node4</title>
<path fill="none" stroke="midnightblue" d="M93.05,-775.59C110.1,-749.95 132.69,-715.99 153.76,-684.31"/>
<polygon fill="none" stroke="midnightblue" points="90.11,-773.68 87.49,-783.95 95.94,-777.56 90.11,-773.68"/>
</g>
<!-- Node5&#45;&gt;Node5 -->
<g id="edge6" class="edge">
<title>Node5&#45;&gt;Node5</title>
<path fill="none" stroke="#404040" d="M131.31,-835.61C141.81,-833.03 149,-827.16 149,-818 149,-812.7 146.6,-808.5 142.54,-805.41"/>
<polygon fill="none" stroke="#404040" points="142.26,-805.28 135.15,-806.49 131.31,-800.39 138.42,-799.18 142.26,-805.28"/>
<text text-anchor="middle" x="182.5" y="-815.5" font-family="Helvetica,sans-Serif" font-size="10.00"> +previousClick</text>
</g>
<!-- Node6 -->
<g id="node6" class="node">
<title>Node6</title>
<g id="a_node6"><a xlink:href="classengine_1_1game_object.html" target="_top" xlink:title=" ">
<polygon fill="white" stroke="black" points="1,-939.5 1,-1051.5 130,-1051.5 130,-939.5 1,-939.5"/>
<text text-anchor="middle" x="65.5" y="-1039.5" font-family="Helvetica,sans-Serif" font-size="10.00">engine::gameObject</text>
<polyline fill="none" stroke="black" points="1,-1032.5 130,-1032.5 "/>
<text text-anchor="start" x="9" y="-1020.5" font-family="Helvetica,sans-Serif" font-size="10.00">+ id</text>
<text text-anchor="start" x="9" y="-1009.5" font-family="Helvetica,sans-Serif" font-size="10.00">+ gameObjectListPosition</text>
<polyline fill="none" stroke="black" points="1,-1002.5 130,-1002.5 "/>
<text text-anchor="start" x="9" y="-990.5" font-family="Helvetica,sans-Serif" font-size="10.00">+ tick()</text>
<text text-anchor="start" x="9" y="-979.5" font-family="Helvetica,sans-Serif" font-size="10.00">+ lateTick()</text>
<text text-anchor="start" x="9" y="-968.5" font-family="Helvetica,sans-Serif" font-size="10.00">+ render()</text>
<text text-anchor="start" x="9" y="-957.5" font-family="Helvetica,sans-Serif" font-size="10.00">+ getRenderEdges()</text>
<text text-anchor="start" x="9" y="-946.5" font-family="Helvetica,sans-Serif" font-size="10.00">+ tryOnClick()</text>
</a>
</g>
</g>
<!-- Node6&#45;&gt;Node5 -->
<g id="edge5" class="edge">
<title>Node6&#45;&gt;Node5</title>
<path fill="none" stroke="midnightblue" d="M65.5,-929.18C65.5,-902.95 65.5,-873.85 65.5,-852.14"/>
<polygon fill="none" stroke="midnightblue" points="62,-929.45 65.5,-939.45 69,-929.45 62,-929.45"/>
</g>
<!-- Node7 -->
<g id="node7" class="node">
<title>Node7</title>
<g id="a_node7"><a xlink:href="class_squads_1_1_action.html" target="_top" xlink:title=" ">
<polygon fill="white" stroke="black" points="234.5,-734.5 234.5,-901.5 316.5,-901.5 316.5,-734.5 234.5,-734.5"/>
<text text-anchor="middle" x="275.5" y="-889.5" font-family="Helvetica,sans-Serif" font-size="10.00">Squads::Action</text>
<polyline fill="none" stroke="black" points="234.5,-882.5 316.5,-882.5 "/>
<text text-anchor="middle" x="275.5" y="-870.5" font-family="Helvetica,sans-Serif" font-size="10.00"> </text>
<polyline fill="none" stroke="black" points="234.5,-863.5 316.5,-863.5 "/>
<text text-anchor="start" x="242.5" y="-851.5" font-family="Helvetica,sans-Serif" font-size="10.00">+ Action()</text>
<text text-anchor="start" x="242.5" y="-840.5" font-family="Helvetica,sans-Serif" font-size="10.00">+ nextStep()</text>
<text text-anchor="start" x="242.5" y="-829.5" font-family="Helvetica,sans-Serif" font-size="10.00">+ move()</text>
<text text-anchor="start" x="242.5" y="-818.5" font-family="Helvetica,sans-Serif" font-size="10.00">+ attack()</text>
<text text-anchor="start" x="242.5" y="-807.5" font-family="Helvetica,sans-Serif" font-size="10.00">+ calcSpeed()</text>
<text text-anchor="start" x="242.5" y="-796.5" font-family="Helvetica,sans-Serif" font-size="10.00">+ findPath()</text>
<text text-anchor="start" x="242.5" y="-785.5" font-family="Helvetica,sans-Serif" font-size="10.00">+ stopAction()</text>
<text text-anchor="start" x="242.5" y="-774.5" font-family="Helvetica,sans-Serif" font-size="10.00">+ setPath()</text>
<text text-anchor="start" x="242.5" y="-763.5" font-family="Helvetica,sans-Serif" font-size="10.00">+ setPath()</text>
<text text-anchor="start" x="242.5" y="-752.5" font-family="Helvetica,sans-Serif" font-size="10.00">+ tick()</text>
<text text-anchor="start" x="242.5" y="-741.5" font-family="Helvetica,sans-Serif" font-size="10.00">+ render()</text>
</a>
</g>
</g>
<!-- Node7&#45;&gt;Node4 -->
<g id="edge7" class="edge">
<title>Node7&#45;&gt;Node4</title>
<path fill="none" stroke="#404040" d="M252.96,-734.23C249.8,-722.64 246.52,-710.6 243.27,-698.65"/>
<polygon fill="none" stroke="#404040" points="243.19,-698.34 237.75,-693.6 240.03,-686.76 245.47,-691.5 243.19,-698.34"/>
<text text-anchor="middle" x="264" y="-708" font-family="Helvetica,sans-Serif" font-size="10.00"> +action</text>
</g>
</g>
</svg>
