<?xml version="1.0" encoding="UTF-8" standalone="no"?>
<!DOCTYPE svg PUBLIC "-//W3C//DTD SVG 1.1//EN"
 "http://www.w3.org/Graphics/SVG/1.1/DTD/svg11.dtd">
<!-- Generated by graphviz version 2.47.1 (20210421.1823)
 -->
<!-- Title: engine::actions::SetSquadPath::apply Pages: 1 -->
<svg width="296pt" height="127pt"
 viewBox="0.00 0.00 296.00 126.50" xmlns="http://www.w3.org/2000/svg" xmlns:xlink="http://www.w3.org/1999/xlink">
<g id="graph0" class="graph" transform="scale(1 1) rotate(0) translate(4 122.5)">
<title>engine::actions::SetSquadPath::apply</title>
<polygon fill="white" stroke="transparent" points="-4,4 -4,-122.5 292,-122.5 292,4 -4,4"/>
<!-- Node1 -->
<g id="node1" class="node">
<title>Node1</title>
<g id="a_node1"><a xlink:title=" ">
<polygon fill="#bfbfbf" stroke="black" points="0,-39 0,-69 128,-69 128,-39 0,-39"/>
<text text-anchor="start" x="8" y="-57" font-family="Helvetica,sans-Serif" font-size="10.00">engine::actions::SetSquad</text>
<text text-anchor="middle" x="64" y="-46" font-family="Helvetica,sans-Serif" font-size="10.00">Path::apply</text>
</a>
</g>
</g>
<!-- Node2 -->
<g id="node2" class="node">
<title>Node2</title>
<g id="a_node2"><a xlink:href="classengine_1_1_network_manager.html#a56504e3d77a73e472701788174bca212" target="_top" xlink:title=" ">
<polygon fill="white" stroke="black" points="164,-88 164,-118 288,-118 288,-88 164,-88"/>
<text text-anchor="start" x="172" y="-106" font-family="Helvetica,sans-Serif" font-size="10.00">engine::NetworkManager</text>
<text text-anchor="middle" x="226" y="-95" font-family="Helvetica,sans-Serif" font-size="10.00">::getShared</text>
</a>
</g>
</g>
<!-- Node1&#45;&gt;Node2 -->
<g id="edge1" class="edge">
<title>Node1&#45;&gt;Node2</title>
<path fill="none" stroke="midnightblue" d="M114.31,-69.1C130.66,-74.11 149.02,-79.73 166.03,-84.94"/>
<polygon fill="midnightblue" stroke="midnightblue" points="165.27,-88.37 175.85,-87.95 167.32,-81.67 165.27,-88.37"/>
</g>
<!-- Node3 -->
<g id="node3" class="node">
<title>Node3</title>
<g id="a_node3"><a xlink:href="classengine_1_1game_controller.html#ae2459bdafdf03e3b1519a14738744f00" target="_top" xlink:title=" ">
<polygon fill="white" stroke="black" points="168.5,-39 168.5,-69 283.5,-69 283.5,-39 168.5,-39"/>
<text text-anchor="start" x="176.5" y="-57" font-family="Helvetica,sans-Serif" font-size="10.00">engine::gameController</text>
<text text-anchor="middle" x="226" y="-46" font-family="Helvetica,sans-Serif" font-size="10.00">::Instance</text>
</a>
</g>
</g>
<!-- Node1&#45;&gt;Node3 -->
<g id="edge2" class="edge">
<title>Node1&#45;&gt;Node3</title>
<path fill="none" stroke="midnightblue" d="M128.24,-54C138.09,-54 148.3,-54 158.23,-54"/>
<polygon fill="midnightblue" stroke="midnightblue" points="158.45,-57.5 168.45,-54 158.45,-50.5 158.45,-57.5"/>
</g>
<!-- Node4 -->
<g id="node4" class="node">
<title>Node4</title>
<g id="a_node4"><a xlink:href="classengine_1_1_logger.html#aa4821d031aaabdef211acc1e04db1f04" target="_top" xlink:title=" ">
<polygon fill="white" stroke="black" points="171.5,-0.5 171.5,-19.5 280.5,-19.5 280.5,-0.5 171.5,-0.5"/>
<text text-anchor="middle" x="226" y="-7.5" font-family="Helvetica,sans-Serif" font-size="10.00">engine::Logger::Trace</text>
</a>
</g>
</g>
<!-- Node1&#45;&gt;Node4 -->
<g id="edge3" class="edge">
<title>Node1&#45;&gt;Node4</title>
<path fill="none" stroke="midnightblue" d="M119.62,-38.98C139.41,-33.54 161.53,-27.46 180.36,-22.28"/>
<polygon fill="midnightblue" stroke="midnightblue" points="181.46,-25.6 190.17,-19.58 179.6,-18.86 181.46,-25.6"/>
</g>
</g>
</svg>
