<?xml version="1.0" encoding="UTF-8" standalone="no"?>
<!DOCTYPE svg PUBLIC "-//W3C//DTD SVG 1.1//EN"
 "http://www.w3.org/Graphics/SVG/1.1/DTD/svg11.dtd">
<!-- Generated by graphviz version 2.47.1 (20210421.1823)
 -->
<!-- Title: Cell Pages: 1 -->
<svg width="317pt" height="519pt"
 viewBox="0.00 0.00 317.00 519.00" xmlns="http://www.w3.org/2000/svg" xmlns:xlink="http://www.w3.org/1999/xlink">
<g id="graph0" class="graph" transform="scale(1 1) rotate(0) translate(4 515)">
<title>Cell</title>
<polygon fill="white" stroke="transparent" points="-4,4 -4,-515 313,-515 313,4 -4,4"/>
<!-- Node1 -->
<g id="node1" class="node">
<title>Node1</title>
<g id="a_node1"><a xlink:title=" ">
<polygon fill="#bfbfbf" stroke="black" points="168.5,-0.5 168.5,-244.5 270.5,-244.5 270.5,-0.5 168.5,-0.5"/>
<text text-anchor="middle" x="219.5" y="-232.5" font-family="Helvetica,sans-Serif" font-size="10.00">Cell</text>
<polyline fill="none" stroke="black" points="168.5,-225.5 270.5,-225.5 "/>
<text text-anchor="start" x="176.5" y="-213.5" font-family="Helvetica,sans-Serif" font-size="10.00">+ center</text>
<text text-anchor="start" x="176.5" y="-202.5" font-family="Helvetica,sans-Serif" font-size="10.00">+ adjacent</text>
<text text-anchor="start" x="176.5" y="-191.5" font-family="Helvetica,sans-Serif" font-size="10.00">+ landscapeFlags</text>
<text text-anchor="start" x="176.5" y="-180.5" font-family="Helvetica,sans-Serif" font-size="10.00">+ bordersFlags</text>
<text text-anchor="start" x="176.5" y="-169.5" font-family="Helvetica,sans-Serif" font-size="10.00">+ vertices</text>
<polyline fill="none" stroke="black" points="168.5,-162.5 270.5,-162.5 "/>
<text text-anchor="start" x="176.5" y="-150.5" font-family="Helvetica,sans-Serif" font-size="10.00">+ Cell()</text>
<text text-anchor="start" x="176.5" y="-139.5" font-family="Helvetica,sans-Serif" font-size="10.00">+ setOwner()</text>
<text text-anchor="start" x="176.5" y="-128.5" font-family="Helvetica,sans-Serif" font-size="10.00">+ isProtected()</text>
<text text-anchor="start" x="176.5" y="-117.5" font-family="Helvetica,sans-Serif" font-size="10.00">+ addSquad()</text>
<text text-anchor="start" x="176.5" y="-106.5" font-family="Helvetica,sans-Serif" font-size="10.00">+ deleteSquad()</text>
<text text-anchor="start" x="176.5" y="-95.5" font-family="Helvetica,sans-Serif" font-size="10.00">+ getSquad()</text>
<text text-anchor="start" x="176.5" y="-84.5" font-family="Helvetica,sans-Serif" font-size="10.00">+ setAdjacent()</text>
<text text-anchor="start" x="176.5" y="-73.5" font-family="Helvetica,sans-Serif" font-size="10.00">+ setBorders()</text>
<text text-anchor="start" x="176.5" y="-62.5" font-family="Helvetica,sans-Serif" font-size="10.00">+ tick()</text>
<text text-anchor="start" x="176.5" y="-51.5" font-family="Helvetica,sans-Serif" font-size="10.00">+ lateTick()</text>
<text text-anchor="start" x="176.5" y="-40.5" font-family="Helvetica,sans-Serif" font-size="10.00">+ render()</text>
<text text-anchor="start" x="176.5" y="-29.5" font-family="Helvetica,sans-Serif" font-size="10.00">+ getRenderEdges()</text>
<text text-anchor="start" x="176.5" y="-18.5" font-family="Helvetica,sans-Serif" font-size="10.00">+ tryOnClick()</text>
<text text-anchor="start" x="176.5" y="-7.5" font-family="Helvetica,sans-Serif" font-size="10.00">+ doOnClick()</text>
</a>
</g>
</g>
<!-- Node2 -->
<g id="node2" class="node">
<title>Node2</title>
<g id="a_node2"><a xlink:href="classengine_1_1gameplay_clickable_game_object.html" target="_top" xlink:title=" ">
<polygon fill="white" stroke="black" points="0,-292.5 0,-360.5 131,-360.5 131,-292.5 0,-292.5"/>
<text text-anchor="start" x="8" y="-348.5" font-family="Helvetica,sans-Serif" font-size="10.00">engine::gameplayClickable</text>
<text text-anchor="middle" x="65.5" y="-337.5" font-family="Helvetica,sans-Serif" font-size="10.00">GameObject</text>
<polyline fill="none" stroke="black" points="0,-330.5 131,-330.5 "/>
<text text-anchor="middle" x="65.5" y="-318.5" font-family="Helvetica,sans-Serif" font-size="10.00"> </text>
<polyline fill="none" stroke="black" points="0,-311.5 131,-311.5 "/>
<text text-anchor="start" x="8" y="-299.5" font-family="Helvetica,sans-Serif" font-size="10.00">+ doOnClick()</text>
</a>
</g>
</g>
<!-- Node2&#45;&gt;Node1 -->
<g id="edge1" class="edge">
<title>Node2&#45;&gt;Node1</title>
<path fill="none" stroke="midnightblue" d="M97.08,-284.08C117.63,-257.13 144.89,-221.37 168.47,-190.44"/>
<polygon fill="none" stroke="midnightblue" points="94.21,-282.07 90.93,-292.14 99.78,-286.31 94.21,-282.07"/>
</g>
<!-- Node2&#45;&gt;Node2 -->
<g id="edge3" class="edge">
<title>Node2&#45;&gt;Node2</title>
<path fill="none" stroke="#404040" d="M131.31,-335.48C141.81,-334.16 149,-331.17 149,-326.5 149,-323.95 146.85,-321.89 143.18,-320.34"/>
<polygon fill="none" stroke="#404040" points="142.98,-320.29 136.22,-322.8 131.31,-317.52 138.07,-315.02 142.98,-320.29"/>
<text text-anchor="middle" x="182.5" y="-324" font-family="Helvetica,sans-Serif" font-size="10.00"> +previousClick</text>
</g>
<!-- Node3 -->
<g id="node3" class="node">
<title>Node3</title>
<g id="a_node3"><a xlink:href="classengine_1_1game_object.html" target="_top" xlink:title=" ">
<polygon fill="white" stroke="black" points="1,-398.5 1,-510.5 130,-510.5 130,-398.5 1,-398.5"/>
<text text-anchor="middle" x="65.5" y="-498.5" font-family="Helvetica,sans-Serif" font-size="10.00">engine::gameObject</text>
<polyline fill="none" stroke="black" points="1,-491.5 130,-491.5 "/>
<text text-anchor="start" x="9" y="-479.5" font-family="Helvetica,sans-Serif" font-size="10.00">+ id</text>
<text text-anchor="start" x="9" y="-468.5" font-family="Helvetica,sans-Serif" font-size="10.00">+ gameObjectListPosition</text>
<polyline fill="none" stroke="black" points="1,-461.5 130,-461.5 "/>
<text text-anchor="start" x="9" y="-449.5" font-family="Helvetica,sans-Serif" font-size="10.00">+ tick()</text>
<text text-anchor="start" x="9" y="-438.5" font-family="Helvetica,sans-Serif" font-size="10.00">+ lateTick()</text>
<text text-anchor="start" x="9" y="-427.5" font-family="Helvetica,sans-Serif" font-size="10.00">+ render()</text>
<text text-anchor="start" x="9" y="-416.5" font-family="Helvetica,sans-Serif" font-size="10.00">+ getRenderEdges()</text>
<text text-anchor="start" x="9" y="-405.5" font-family="Helvetica,sans-Serif" font-size="10.00">+ tryOnClick()</text>
</a>
</g>
</g>
<!-- Node3&#45;&gt;Node2 -->
<g id="edge2" class="edge">
<title>Node3&#45;&gt;Node2</title>
<path fill="none" stroke="midnightblue" d="M65.5,-387.96C65.5,-378.48 65.5,-369.08 65.5,-360.62"/>
<polygon fill="none" stroke="midnightblue" points="62,-388.23 65.5,-398.23 69,-388.23 62,-388.23"/>
</g>
<!-- Node4 -->
<g id="node4" class="node">
<title>Node4</title>
<g id="a_node4"><a xlink:href="struct_player_1_1_player.html" target="_top" xlink:title=" ">
<polygon fill="white" stroke="black" points="234,-292.5 234,-360.5 309,-360.5 309,-292.5 234,-292.5"/>
<text text-anchor="middle" x="271.5" y="-348.5" font-family="Helvetica,sans-Serif" font-size="10.00">Player::Player</text>
<polyline fill="none" stroke="black" points="234,-341.5 309,-341.5 "/>
<text text-anchor="start" x="242" y="-329.5" font-family="Helvetica,sans-Serif" font-size="10.00">+ color</text>
<text text-anchor="start" x="242" y="-318.5" font-family="Helvetica,sans-Serif" font-size="10.00">+ id</text>
<polyline fill="none" stroke="black" points="234,-311.5 309,-311.5 "/>
<text text-anchor="start" x="242" y="-299.5" font-family="Helvetica,sans-Serif" font-size="10.00">+ Player()</text>
</a>
</g>
</g>
<!-- Node4&#45;&gt;Node1 -->
<g id="edge4" class="edge">
<title>Node4&#45;&gt;Node1</title>
<path fill="none" stroke="#404040" d="M262.91,-292.14C260.21,-281.66 257.05,-269.37 253.68,-256.29"/>
<polygon fill="none" stroke="#404040" points="253.67,-256.24 248.3,-251.42 250.68,-244.62 256.05,-249.43 253.67,-256.24"/>
<text text-anchor="middle" x="275" y="-266" font-family="Helvetica,sans-Serif" font-size="10.00"> +owner</text>
</g>
</g>
</svg>
