<?xml version="1.0" encoding="UTF-8" standalone="no"?>
<!DOCTYPE svg PUBLIC "-//W3C//DTD SVG 1.1//EN"
 "http://www.w3.org/Graphics/SVG/1.1/DTD/svg11.dtd">
<!-- Generated by graphviz version 2.47.1 (20210421.1823)
 -->
<!-- Title: Cell Pages: 1 -->
<svg width="317pt" height="563pt"
 viewBox="0.00 0.00 317.00 563.00" xmlns="http://www.w3.org/2000/svg" xmlns:xlink="http://www.w3.org/1999/xlink">
<g id="graph0" class="graph" transform="scale(1 1) rotate(0) translate(4 559)">
<title>Cell</title>
<polygon fill="white" stroke="transparent" points="-4,4 -4,-559 313,-559 313,4 -4,4"/>
<!-- Node1 -->
<g id="node1" class="node">
<title>Node1</title>
<g id="a_node1"><a xlink:title=" ">
<polygon fill="#bfbfbf" stroke="black" points="168.5,-0.5 168.5,-266.5 270.5,-266.5 270.5,-0.5 168.5,-0.5"/>
<text text-anchor="middle" x="219.5" y="-254.5" font-family="Helvetica,sans-Serif" font-size="10.00">Cell</text>
<polyline fill="none" stroke="black" points="168.5,-247.5 270.5,-247.5 "/>
<text text-anchor="start" x="176.5" y="-235.5" font-family="Helvetica,sans-Serif" font-size="10.00">+ visible</text>
<text text-anchor="start" x="176.5" y="-224.5" font-family="Helvetica,sans-Serif" font-size="10.00">+ center</text>
<text text-anchor="start" x="176.5" y="-213.5" font-family="Helvetica,sans-Serif" font-size="10.00">+ adjacent</text>
<text text-anchor="start" x="176.5" y="-202.5" font-family="Helvetica,sans-Serif" font-size="10.00">+ landscapeFlags</text>
<text text-anchor="start" x="176.5" y="-191.5" font-family="Helvetica,sans-Serif" font-size="10.00">+ bordersFlags</text>
<text text-anchor="start" x="176.5" y="-180.5" font-family="Helvetica,sans-Serif" font-size="10.00">+ vertices</text>
<polyline fill="none" stroke="black" points="168.5,-173.5 270.5,-173.5 "/>
<text text-anchor="start" x="176.5" y="-161.5" font-family="Helvetica,sans-Serif" font-size="10.00">+ Cell()</text>
<text text-anchor="start" x="176.5" y="-150.5" font-family="Helvetica,sans-Serif" font-size="10.00">+ setOwner()</text>
<text text-anchor="start" x="176.5" y="-139.5" font-family="Helvetica,sans-Serif" font-size="10.00">+ isProtected()</text>
<text text-anchor="start" x="176.5" y="-128.5" font-family="Helvetica,sans-Serif" font-size="10.00">+ addSquad()</text>
<text text-anchor="start" x="176.5" y="-117.5" font-family="Helvetica,sans-Serif" font-size="10.00">+ deleteSquad()</text>
<text text-anchor="start" x="176.5" y="-106.5" font-family="Helvetica,sans-Serif" font-size="10.00">+ getSquad()</text>
<text text-anchor="start" x="176.5" y="-95.5" font-family="Helvetica,sans-Serif" font-size="10.00">+ setAdjacent()</text>
<text text-anchor="start" x="176.5" y="-84.5" font-family="Helvetica,sans-Serif" font-size="10.00">+ setBorders()</text>
<text text-anchor="start" x="176.5" y="-73.5" font-family="Helvetica,sans-Serif" font-size="10.00">+ tick()</text>
<text text-anchor="start" x="176.5" y="-62.5" font-family="Helvetica,sans-Serif" font-size="10.00">+ lateTick()</text>
<text text-anchor="start" x="176.5" y="-51.5" font-family="Helvetica,sans-Serif" font-size="10.00">+ render()</text>
<text text-anchor="start" x="176.5" y="-40.5" font-family="Helvetica,sans-Serif" font-size="10.00">+ getRenderEdges()</text>
<text text-anchor="start" x="176.5" y="-29.5" font-family="Helvetica,sans-Serif" font-size="10.00">+ tryOnClick()</text>
<text text-anchor="start" x="176.5" y="-18.5" font-family="Helvetica,sans-Serif" font-size="10.00">+ doOnClick()</text>
<text text-anchor="start" x="176.5" y="-7.5" font-family="Helvetica,sans-Serif" font-size="10.00">+ repr()</text>
</a>
</g>
</g>
<!-- Node2 -->
<g id="node2" class="node">
<title>Node2</title>
<g id="a_node2"><a xlink:href="classengine_1_1gameplay_clickable_game_object.html" target="_top" xlink:title=" ">
<polygon fill="white" stroke="black" points="0,-320 0,-388 131,-388 131,-320 0,-320"/>
<text text-anchor="start" x="8" y="-376" font-family="Helvetica,sans-Serif" font-size="10.00">engine::gameplayClickable</text>
<text text-anchor="middle" x="65.5" y="-365" font-family="Helvetica,sans-Serif" font-size="10.00">GameObject</text>
<polyline fill="none" stroke="black" points="0,-358 131,-358 "/>
<text text-anchor="middle" x="65.5" y="-346" font-family="Helvetica,sans-Serif" font-size="10.00"> </text>
<polyline fill="none" stroke="black" points="0,-339 131,-339 "/>
<text text-anchor="start" x="8" y="-327" font-family="Helvetica,sans-Serif" font-size="10.00">+ doOnClick()</text>
</a>
</g>
</g>
<!-- Node2&#45;&gt;Node1 -->
<g id="edge1" class="edge">
<title>Node2&#45;&gt;Node1</title>
<path fill="none" stroke="midnightblue" d="M94.8,-311.42C115.57,-281.96 143.97,-241.66 168.42,-206.97"/>
<polygon fill="none" stroke="midnightblue" points="91.79,-309.62 88.89,-319.81 97.51,-313.66 91.79,-309.62"/>
</g>
<!-- Node2&#45;&gt;Node2 -->
<g id="edge3" class="edge">
<title>Node2&#45;&gt;Node2</title>
<path fill="none" stroke="#404040" d="M131.31,-364.01C141.81,-362.55 149,-359.21 149,-354 149,-351.15 146.85,-348.86 143.18,-347.13"/>
<polygon fill="none" stroke="#404040" points="142.91,-347.06 136.08,-349.39 131.31,-343.99 138.13,-341.65 142.91,-347.06"/>
<text text-anchor="middle" x="182.5" y="-351.5" font-family="Helvetica,sans-Serif" font-size="10.00"> +previousClick</text>
</g>
<!-- Node3 -->
<g id="node3" class="node">
<title>Node3</title>
<g id="a_node3"><a xlink:href="classengine_1_1game_object.html" target="_top" xlink:title=" ">
<polygon fill="white" stroke="black" points="1,-431.5 1,-554.5 130,-554.5 130,-431.5 1,-431.5"/>
<text text-anchor="middle" x="65.5" y="-542.5" font-family="Helvetica,sans-Serif" font-size="10.00">engine::gameObject</text>
<polyline fill="none" stroke="black" points="1,-535.5 130,-535.5 "/>
<text text-anchor="start" x="9" y="-523.5" font-family="Helvetica,sans-Serif" font-size="10.00">+ id</text>
<text text-anchor="start" x="9" y="-512.5" font-family="Helvetica,sans-Serif" font-size="10.00">+ gameObjectListPosition</text>
<polyline fill="none" stroke="black" points="1,-505.5 130,-505.5 "/>
<text text-anchor="start" x="9" y="-493.5" font-family="Helvetica,sans-Serif" font-size="10.00">+ repr()</text>
<text text-anchor="start" x="9" y="-482.5" font-family="Helvetica,sans-Serif" font-size="10.00">+ tick()</text>
<text text-anchor="start" x="9" y="-471.5" font-family="Helvetica,sans-Serif" font-size="10.00">+ lateTick()</text>
<text text-anchor="start" x="9" y="-460.5" font-family="Helvetica,sans-Serif" font-size="10.00">+ render()</text>
<text text-anchor="start" x="9" y="-449.5" font-family="Helvetica,sans-Serif" font-size="10.00">+ getRenderEdges()</text>
<text text-anchor="start" x="9" y="-438.5" font-family="Helvetica,sans-Serif" font-size="10.00">+ tryOnClick()</text>
</a>
</g>
</g>
<!-- Node3&#45;&gt;Node2 -->
<g id="edge2" class="edge">
<title>Node3&#45;&gt;Node2</title>
<path fill="none" stroke="midnightblue" d="M65.5,-421.06C65.5,-409.62 65.5,-398.27 65.5,-388.29"/>
<polygon fill="none" stroke="midnightblue" points="62,-421.11 65.5,-431.11 69,-421.11 62,-421.11"/>
</g>
<!-- Node4 -->
<g id="node4" class="node">
<title>Node4</title>
<g id="a_node4"><a xlink:href="struct_player_1_1_player.html" target="_top" xlink:title=" ">
<polygon fill="white" stroke="black" points="234,-314.5 234,-393.5 309,-393.5 309,-314.5 234,-314.5"/>
<text text-anchor="middle" x="271.5" y="-381.5" font-family="Helvetica,sans-Serif" font-size="10.00">Player::Player</text>
<polyline fill="none" stroke="black" points="234,-374.5 309,-374.5 "/>
<text text-anchor="start" x="242" y="-362.5" font-family="Helvetica,sans-Serif" font-size="10.00">+ color</text>
<text text-anchor="start" x="242" y="-351.5" font-family="Helvetica,sans-Serif" font-size="10.00">+ money</text>
<text text-anchor="start" x="242" y="-340.5" font-family="Helvetica,sans-Serif" font-size="10.00">+ id</text>
<polyline fill="none" stroke="black" points="234,-333.5 309,-333.5 "/>
<text text-anchor="start" x="242" y="-321.5" font-family="Helvetica,sans-Serif" font-size="10.00">+ Player()</text>
</a>
</g>
</g>
<!-- Node4&#45;&gt;Node1 -->
<g id="edge4" class="edge">
<title>Node4&#45;&gt;Node1</title>
<path fill="none" stroke="#404040" d="M262.32,-314.44C259.8,-303.84 256.91,-291.69 253.84,-278.8"/>
<polygon fill="none" stroke="#404040" points="253.76,-278.47 248.48,-273.55 250.98,-266.79 256.26,-271.7 253.76,-278.47"/>
<text text-anchor="middle" x="275" y="-288" font-family="Helvetica,sans-Serif" font-size="10.00"> +owner</text>
</g>
</g>
</svg>
