<?xml version="1.0" encoding="UTF-8" standalone="no"?>
<!DOCTYPE svg PUBLIC "-//W3C//DTD SVG 1.1//EN"
 "http://www.w3.org/Graphics/SVG/1.1/DTD/svg11.dtd">
<!-- Generated by graphviz version 2.47.1 (20210421.1823)
 -->
<!-- Title: engine::gameController::Instance Pages: 1 -->
<svg width="534pt" height="614pt"
 viewBox="0.00 0.00 534.00 613.50" xmlns="http://www.w3.org/2000/svg" xmlns:xlink="http://www.w3.org/1999/xlink">
<g id="graph0" class="graph" transform="scale(1 1) rotate(0) translate(4 609.5)">
<title>engine::gameController::Instance</title>
<polygon fill="white" stroke="transparent" points="-4,4 -4,-609.5 530,-609.5 530,4 -4,4"/>
<!-- Node1 -->
<g id="node1" class="node">
<title>Node1</title>
<g id="a_node1"><a xlink:title=" ">
<polygon fill="#bfbfbf" stroke="black" points="411,-277 411,-307 526,-307 526,-277 411,-277"/>
<text text-anchor="start" x="419" y="-295" font-family="Helvetica,sans-Serif" font-size="10.00">engine::gameController</text>
<text text-anchor="middle" x="468.5" y="-284" font-family="Helvetica,sans-Serif" font-size="10.00">::Instance</text>
</a>
</g>
</g>
<!-- Node2 -->
<g id="node2" class="node">
<title>Node2</title>
<g id="a_node2"><a xlink:href="classengine_1_1actions_1_1_click_action.html#a54693ba253919c87a5f5b828a9138b3c" target="_top" xlink:title=" ">
<polygon fill="white" stroke="black" points="236,-575 236,-605 371,-605 371,-575 236,-575"/>
<text text-anchor="start" x="244" y="-593" font-family="Helvetica,sans-Serif" font-size="10.00">engine::actions::ClickAction</text>
<text text-anchor="middle" x="303.5" y="-582" font-family="Helvetica,sans-Serif" font-size="10.00">::apply</text>
</a>
</g>
</g>
<!-- Node1&#45;&gt;Node2 -->
<g id="edge1" class="edge">
<title>Node1&#45;&gt;Node2</title>
<path fill="none" stroke="midnightblue" d="M466.18,-317.42C462.05,-370.89 445.01,-495.81 375,-566 371.53,-569.48 367.54,-572.45 363.25,-575"/>
<polygon fill="midnightblue" stroke="midnightblue" points="469.7,-317.36 466.88,-307.14 462.71,-316.88 469.7,-317.36"/>
</g>
<!-- Node3 -->
<g id="node3" class="node">
<title>Node3</title>
<g id="a_node3"><a xlink:href="classengine_1_1actions_1_1_set_squad_path.html#a95516a8d5ad9b26f2719847fbbfe0892" target="_top" xlink:title=" ">
<polygon fill="white" stroke="black" points="239.5,-526 239.5,-556 367.5,-556 367.5,-526 239.5,-526"/>
<text text-anchor="start" x="247.5" y="-544" font-family="Helvetica,sans-Serif" font-size="10.00">engine::actions::SetSquad</text>
<text text-anchor="middle" x="303.5" y="-533" font-family="Helvetica,sans-Serif" font-size="10.00">Path::apply</text>
</a>
</g>
</g>
<!-- Node1&#45;&gt;Node3 -->
<g id="edge2" class="edge">
<title>Node1&#45;&gt;Node3</title>
<path fill="none" stroke="midnightblue" d="M464.03,-317.34C456.38,-363.52 433.83,-461.7 375,-517 371.33,-520.45 367.13,-523.41 362.67,-525.95"/>
<polygon fill="midnightblue" stroke="midnightblue" points="467.51,-317.7 465.59,-307.28 460.6,-316.63 467.51,-317.7"/>
</g>
<!-- Node4 -->
<g id="node4" class="node">
<title>Node4</title>
<g id="a_node4"><a xlink:href="classengine_1_1actions_1_1_spawn_action.html#ac4f864831eda5eed4882a861c96ac065" target="_top" xlink:title=" ">
<polygon fill="white" stroke="black" points="232,-477 232,-507 375,-507 375,-477 232,-477"/>
<text text-anchor="start" x="240" y="-495" font-family="Helvetica,sans-Serif" font-size="10.00">engine::actions::SpawnAction</text>
<text text-anchor="middle" x="303.5" y="-484" font-family="Helvetica,sans-Serif" font-size="10.00">::apply</text>
</a>
</g>
</g>
<!-- Node1&#45;&gt;Node4 -->
<g id="edge3" class="edge">
<title>Node1&#45;&gt;Node4</title>
<path fill="none" stroke="midnightblue" d="M460.9,-316.87C449.59,-354.8 422.96,-426.99 375,-468 370.97,-471.45 366.42,-474.4 361.63,-476.94"/>
<polygon fill="midnightblue" stroke="midnightblue" points="464.3,-317.72 463.69,-307.14 457.57,-315.79 464.3,-317.72"/>
</g>
<!-- Node5 -->
<g id="node5" class="node">
<title>Node5</title>
<g id="a_node5"><a xlink:href="class_squads_1_1_squad_template.html#aa6b116668389ee5b7b498d6b99bca5b1" target="_top" xlink:title=" ">
<polygon fill="white" stroke="black" points="242.5,-428 242.5,-458 364.5,-458 364.5,-428 242.5,-428"/>
<text text-anchor="start" x="250.5" y="-446" font-family="Helvetica,sans-Serif" font-size="10.00">Squads::SquadTemplate</text>
<text text-anchor="middle" x="303.5" y="-435" font-family="Helvetica,sans-Serif" font-size="10.00">::build</text>
</a>
</g>
</g>
<!-- Node1&#45;&gt;Node5 -->
<g id="edge4" class="edge">
<title>Node1&#45;&gt;Node5</title>
<path fill="none" stroke="midnightblue" d="M455.48,-316.25C440.35,-344.46 411.82,-390.63 375,-418 369.89,-421.8 364.16,-425.05 358.22,-427.84"/>
<polygon fill="midnightblue" stroke="midnightblue" points="458.74,-317.57 460.27,-307.09 452.54,-314.33 458.74,-317.57"/>
</g>
<!-- Node6 -->
<g id="node6" class="node">
<title>Node6</title>
<g id="a_node6"><a xlink:href="class_cell.html#aa3317a89121135ce43f0ade0248dd9e0" target="_top" xlink:title=" ">
<polygon fill="white" stroke="black" points="276.5,-389.5 276.5,-408.5 330.5,-408.5 330.5,-389.5 276.5,-389.5"/>
<text text-anchor="middle" x="303.5" y="-396.5" font-family="Helvetica,sans-Serif" font-size="10.00">Cell::Cell</text>
</a>
</g>
</g>
<!-- Node1&#45;&gt;Node6 -->
<g id="edge5" class="edge">
<title>Node1&#45;&gt;Node6</title>
<path fill="none" stroke="midnightblue" d="M449.26,-314.89C432.12,-334.9 404.72,-363.3 375,-380 361.41,-387.64 344.6,-392.32 330.81,-395.13"/>
<polygon fill="midnightblue" stroke="midnightblue" points="452,-317.06 455.74,-307.15 446.63,-312.57 452,-317.06"/>
</g>
<!-- Node7 -->
<g id="node7" class="node">
<title>Node7</title>
<g id="a_node7"><a xlink:href="namespaceutil_1_1pathfinding.html#ae3541fb2118bc5a77179c4067c9baf0c" target="_top" xlink:title=" ">
<polygon fill="white" stroke="black" points="261,-340 261,-370 346,-370 346,-340 261,-340"/>
<text text-anchor="start" x="269" y="-358" font-family="Helvetica,sans-Serif" font-size="10.00">util::pathfinding::</text>
<text text-anchor="middle" x="303.5" y="-347" font-family="Helvetica,sans-Serif" font-size="10.00">dijkstraPath</text>
</a>
</g>
</g>
<!-- Node1&#45;&gt;Node7 -->
<g id="edge6" class="edge">
<title>Node1&#45;&gt;Node7</title>
<path fill="none" stroke="midnightblue" d="M422.5,-311C407.46,-317.22 390.56,-324.05 375,-330 365.66,-333.57 355.56,-337.26 346,-340.66"/>
<polygon fill="midnightblue" stroke="midnightblue" points="424.19,-314.09 432.08,-307.03 421.51,-307.63 424.19,-314.09"/>
</g>
<!-- Node9 -->
<g id="node9" class="node">
<title>Node9</title>
<g id="a_node9"><a xlink:href="class_cell.html#a34f5c6147f63470486b6e9e9d6d33ee9" target="_top" xlink:title=" ">
<polygon fill="white" stroke="black" points="262,-301.5 262,-320.5 345,-320.5 345,-301.5 262,-301.5"/>
<text text-anchor="middle" x="303.5" y="-308.5" font-family="Helvetica,sans-Serif" font-size="10.00">Cell::doOnClick</text>
</a>
</g>
</g>
<!-- Node1&#45;&gt;Node9 -->
<g id="edge8" class="edge">
<title>Node1&#45;&gt;Node9</title>
<path fill="none" stroke="midnightblue" d="M400.87,-299.77C381.94,-301.97 361.9,-304.31 345.03,-306.28"/>
<polygon fill="midnightblue" stroke="midnightblue" points="401.42,-303.23 410.95,-298.59 400.61,-296.27 401.42,-303.23"/>
</g>
<!-- Node11 -->
<g id="node11" class="node">
<title>Node11</title>
<g id="a_node11"><a xlink:href="class_factory.html#aaf775d7c3f301fc3af535b99939cfc87" target="_top" xlink:title=" ">
<polygon fill="white" stroke="black" points="260.5,-263.5 260.5,-282.5 346.5,-282.5 346.5,-263.5 260.5,-263.5"/>
<text text-anchor="middle" x="303.5" y="-270.5" font-family="Helvetica,sans-Serif" font-size="10.00">Factory::Factory</text>
</a>
</g>
</g>
<!-- Node1&#45;&gt;Node11 -->
<g id="edge10" class="edge">
<title>Node1&#45;&gt;Node11</title>
<path fill="none" stroke="midnightblue" d="M400.88,-284.23C382.51,-282.09 363.11,-279.83 346.56,-277.9"/>
<polygon fill="midnightblue" stroke="midnightblue" points="400.61,-287.73 410.95,-285.41 401.42,-280.77 400.61,-287.73"/>
</g>
<!-- Node12 -->
<g id="node12" class="node">
<title>Node12</title>
<g id="a_node12"><a xlink:href="namespaceutil_1_1cell_gen.html#a74a1c625c7122deb6e4bc56a24b42148" target="_top" xlink:title=" ">
<polygon fill="white" stroke="black" points="243,-214 243,-244 364,-244 364,-214 243,-214"/>
<text text-anchor="start" x="251" y="-232" font-family="Helvetica,sans-Serif" font-size="10.00">util::cellGen::getRandom</text>
<text text-anchor="middle" x="303.5" y="-221" font-family="Helvetica,sans-Serif" font-size="10.00">Points</text>
</a>
</g>
</g>
<!-- Node1&#45;&gt;Node12 -->
<g id="edge11" class="edge">
<title>Node1&#45;&gt;Node12</title>
<path fill="none" stroke="midnightblue" d="M422.5,-273C407.46,-266.78 390.56,-259.95 375,-254 366.27,-250.66 356.87,-247.22 347.87,-244"/>
<polygon fill="midnightblue" stroke="midnightblue" points="421.51,-276.37 432.08,-276.97 424.19,-269.91 421.51,-276.37"/>
</g>
<!-- Node14 -->
<g id="node14" class="node">
<title>Node14</title>
<g id="a_node14"><a xlink:href="main_8cpp.html#ae66f6b31b5ad750f1fe042a706a4e3d4" target="_top" xlink:title=" ">
<polygon fill="white" stroke="black" points="0,-195.5 0,-214.5 38,-214.5 38,-195.5 0,-195.5"/>
<text text-anchor="middle" x="19" y="-202.5" font-family="Helvetica,sans-Serif" font-size="10.00">main</text>
</a>
</g>
</g>
<!-- Node1&#45;&gt;Node14 -->
<g id="edge16" class="edge">
<title>Node1&#45;&gt;Node14</title>
<path fill="none" stroke="midnightblue" d="M450.96,-268.53C434.48,-247.38 407.06,-217.71 375,-205 254.39,-157.19 92.11,-188.01 38.23,-200.47"/>
<polygon fill="midnightblue" stroke="midnightblue" points="448.32,-270.84 457.13,-276.72 453.91,-266.63 448.32,-270.84"/>
</g>
<!-- Node15 -->
<g id="node15" class="node">
<title>Node15</title>
<g id="a_node15"><a xlink:href="class_squads_1_1_squad_template.html#ac4e3b426950fa595ecc8f1ea23f6eb99" target="_top" xlink:title=" ">
<polygon fill="white" stroke="black" points="242.5,-126 242.5,-156 364.5,-156 364.5,-126 242.5,-126"/>
<text text-anchor="start" x="250.5" y="-144" font-family="Helvetica,sans-Serif" font-size="10.00">Squads::SquadTemplate</text>
<text text-anchor="middle" x="303.5" y="-133" font-family="Helvetica,sans-Serif" font-size="10.00">::hide</text>
</a>
</g>
</g>
<!-- Node1&#45;&gt;Node15 -->
<g id="edge14" class="edge">
<title>Node1&#45;&gt;Node15</title>
<path fill="none" stroke="midnightblue" d="M454.46,-268.25C438.71,-241.47 409.94,-198.13 375,-171 367.44,-165.13 358.55,-160.18 349.68,-156.11"/>
<polygon fill="midnightblue" stroke="midnightblue" points="451.46,-270.05 459.47,-276.98 457.53,-266.56 451.46,-270.05"/>
</g>
<!-- Node17 -->
<g id="node17" class="node">
<title>Node17</title>
<g id="a_node17"><a xlink:href="class_squads_1_1_squad_template.html#aa004e66dc0b72234e0b49a7cd69f9acb" target="_top" xlink:title=" ">
<polygon fill="white" stroke="black" points="242.5,-77 242.5,-107 364.5,-107 364.5,-77 242.5,-77"/>
<text text-anchor="start" x="250.5" y="-95" font-family="Helvetica,sans-Serif" font-size="10.00">Squads::SquadTemplate</text>
<text text-anchor="middle" x="303.5" y="-84" font-family="Helvetica,sans-Serif" font-size="10.00">::show</text>
</a>
</g>
</g>
<!-- Node1&#45;&gt;Node17 -->
<g id="edge17" class="edge">
<title>Node1&#45;&gt;Node17</title>
<path fill="none" stroke="midnightblue" d="M460.9,-267.13C449.59,-229.2 422.96,-157.01 375,-116 370.97,-112.55 366.42,-109.6 361.63,-107.06"/>
<polygon fill="midnightblue" stroke="midnightblue" points="457.57,-268.21 463.69,-276.86 464.3,-266.28 457.57,-268.21"/>
</g>
<!-- Node18 -->
<g id="node18" class="node">
<title>Node18</title>
<g id="a_node18"><a xlink:href="class_squads_1_1_squad.html#aa9fb6eb8bb4e7024e829a60d1b9a4ffc" target="_top" xlink:title=" ">
<polygon fill="white" stroke="black" points="246.5,-38.5 246.5,-57.5 360.5,-57.5 360.5,-38.5 246.5,-38.5"/>
<text text-anchor="middle" x="303.5" y="-45.5" font-family="Helvetica,sans-Serif" font-size="10.00">Squads::Squad::Squad</text>
</a>
</g>
</g>
<!-- Node1&#45;&gt;Node18 -->
<g id="edge19" class="edge">
<title>Node1&#45;&gt;Node18</title>
<path fill="none" stroke="midnightblue" d="M464.42,-266.63C457.38,-219.98 435.74,-120.49 375,-67 370.62,-63.15 365.54,-60.06 360.15,-57.6"/>
<polygon fill="midnightblue" stroke="midnightblue" points="460.99,-267.36 465.84,-276.78 467.92,-266.39 460.99,-267.36"/>
</g>
<!-- Node19 -->
<g id="node19" class="node">
<title>Node19</title>
<g id="a_node19"><a xlink:href="class_squads_1_1_squad.html#a1951c087cfde5954f78a2ee80a688933" target="_top" xlink:title=" ">
<polygon fill="white" stroke="black" points="244,-0.5 244,-19.5 363,-19.5 363,-0.5 244,-0.5"/>
<text text-anchor="middle" x="303.5" y="-7.5" font-family="Helvetica,sans-Serif" font-size="10.00">Squads::Squad::~Squad</text>
</a>
</g>
</g>
<!-- Node1&#45;&gt;Node19 -->
<g id="edge20" class="edge">
<title>Node1&#45;&gt;Node19</title>
<path fill="none" stroke="midnightblue" d="M466.16,-266.85C461.99,-214.62 444.9,-93.85 375,-29 370.82,-25.12 365.93,-22.02 360.71,-19.54"/>
<polygon fill="midnightblue" stroke="midnightblue" points="462.68,-267.19 466.87,-276.92 469.66,-266.7 462.68,-267.19"/>
</g>
<!-- Node8 -->
<g id="node8" class="node">
<title>Node8</title>
<g id="a_node8"><a xlink:href="class_squads_1_1_action.html#a4b58ace38d3be18a91d9c474302dbf46" target="_top" xlink:title=" ">
<polygon fill="white" stroke="black" points="74,-345.5 74,-364.5 196,-364.5 196,-345.5 74,-345.5"/>
<text text-anchor="middle" x="135" y="-352.5" font-family="Helvetica,sans-Serif" font-size="10.00">Squads::Action::findPath</text>
</a>
</g>
</g>
<!-- Node7&#45;&gt;Node8 -->
<g id="edge7" class="edge">
<title>Node7&#45;&gt;Node8</title>
<path fill="none" stroke="midnightblue" d="M250.5,-355C233.29,-355 213.99,-355 196.21,-355"/>
<polygon fill="midnightblue" stroke="midnightblue" points="250.91,-358.5 260.91,-355 250.91,-351.5 250.91,-358.5"/>
</g>
<!-- Node10 -->
<g id="node10" class="node">
<title>Node10</title>
<g id="a_node10"><a xlink:href="class_cell.html#a064227f1968066ac1dfd15229b45c071" target="_top" xlink:title=" ">
<polygon fill="white" stroke="black" points="93.5,-301.5 93.5,-320.5 176.5,-320.5 176.5,-301.5 93.5,-301.5"/>
<text text-anchor="middle" x="135" y="-308.5" font-family="Helvetica,sans-Serif" font-size="10.00">Cell::tryOnClick</text>
</a>
</g>
</g>
<!-- Node9&#45;&gt;Node10 -->
<g id="edge9" class="edge">
<title>Node9&#45;&gt;Node10</title>
<path fill="none" stroke="midnightblue" d="M251.74,-311C227.64,-311 199.24,-311 176.6,-311"/>
<polygon fill="midnightblue" stroke="midnightblue" points="251.77,-314.5 261.77,-311 251.77,-307.5 251.77,-314.5"/>
</g>
<!-- Node13 -->
<g id="node13" class="node">
<title>Node13</title>
<g id="a_node13"><a xlink:href="namespaceutil_1_1cell_gen.html#a42c122e9493a8aaaa3de94db076a6778" target="_top" xlink:title=" ">
<polygon fill="white" stroke="black" points="83,-216.5 83,-235.5 187,-235.5 187,-216.5 83,-216.5"/>
<text text-anchor="middle" x="135" y="-223.5" font-family="Helvetica,sans-Serif" font-size="10.00">util::cellGen::getMap</text>
</a>
</g>
</g>
<!-- Node12&#45;&gt;Node13 -->
<g id="edge12" class="edge">
<title>Node12&#45;&gt;Node13</title>
<path fill="none" stroke="midnightblue" d="M232.48,-227.74C217.3,-227.46 201.53,-227.18 187.24,-226.92"/>
<polygon fill="midnightblue" stroke="midnightblue" points="232.8,-231.24 242.86,-227.93 232.92,-224.25 232.8,-231.24"/>
</g>
<!-- Node13&#45;&gt;Node14 -->
<g id="edge13" class="edge">
<title>Node13&#45;&gt;Node14</title>
<path fill="none" stroke="midnightblue" d="M72.54,-214.68C59.93,-212.36 47.61,-210.09 38.07,-208.33"/>
<polygon fill="midnightblue" stroke="midnightblue" points="72.2,-218.17 82.67,-216.54 73.47,-211.29 72.2,-218.17"/>
</g>
<!-- Node16 -->
<g id="node16" class="node">
<title>Node16</title>
<g id="a_node16"><a xlink:href="class_squads_1_1_squad_template.html#a546f2ecdbf38e384da68c11a6e7158d3" target="_top" xlink:title=" ">
<polygon fill="white" stroke="black" points="74,-102 74,-132 196,-132 196,-102 74,-102"/>
<text text-anchor="start" x="82" y="-120" font-family="Helvetica,sans-Serif" font-size="10.00">Squads::SquadTemplate</text>
<text text-anchor="middle" x="135" y="-109" font-family="Helvetica,sans-Serif" font-size="10.00">::SquadTemplate</text>
</a>
</g>
</g>
<!-- Node15&#45;&gt;Node16 -->
<g id="edge15" class="edge">
<title>Node15&#45;&gt;Node16</title>
<path fill="none" stroke="midnightblue" d="M232.35,-130.89C220.27,-129.15 207.81,-127.35 196.02,-125.65"/>
<polygon fill="midnightblue" stroke="midnightblue" points="231.99,-134.37 242.39,-132.34 232.99,-127.44 231.99,-134.37"/>
</g>
<!-- Node17&#45;&gt;Node16 -->
<g id="edge18" class="edge">
<title>Node17&#45;&gt;Node16</title>
<path fill="none" stroke="midnightblue" d="M232.35,-102.53C220.27,-104.35 207.81,-106.22 196.02,-107.99"/>
<polygon fill="midnightblue" stroke="midnightblue" points="233.02,-105.97 242.39,-101.03 231.98,-99.05 233.02,-105.97"/>
</g>
</g>
</svg>
