<?xml version="1.0" encoding="UTF-8" standalone="no"?>
<!DOCTYPE svg PUBLIC "-//W3C//DTD SVG 1.1//EN"
 "http://www.w3.org/Graphics/SVG/1.1/DTD/svg11.dtd">
<!-- Generated by graphviz version 2.47.1 (20210421.1823)
 -->
<!-- Title: engine::gameController::Instance Pages: 1 -->
<svg width="526pt" height="440pt"
 viewBox="0.00 0.00 526.00 439.50" xmlns="http://www.w3.org/2000/svg" xmlns:xlink="http://www.w3.org/1999/xlink">
<g id="graph0" class="graph" transform="scale(1 1) rotate(0) translate(4 435.5)">
<title>engine::gameController::Instance</title>
<polygon fill="white" stroke="transparent" points="-4,4 -4,-435.5 522,-435.5 522,4 -4,4"/>
<!-- Node1 -->
<g id="node1" class="node">
<title>Node1</title>
<g id="a_node1"><a xlink:title=" ">
<polygon fill="#bfbfbf" stroke="black" points="403,-198 403,-228 518,-228 518,-198 403,-198"/>
<text text-anchor="start" x="411" y="-216" font-family="Helvetica,sans-Serif" font-size="10.00">engine::gameController</text>
<text text-anchor="middle" x="460.5" y="-205" font-family="Helvetica,sans-Serif" font-size="10.00">::Instance</text>
</a>
</g>
</g>
<!-- Node2 -->
<g id="node2" class="node">
<title>Node2</title>
<g id="a_node2"><a xlink:href="classengine_1_1actions_1_1_click_action.html#a54693ba253919c87a5f5b828a9138b3c" target="_top" xlink:title=" ">
<polygon fill="white" stroke="black" points="232,-401 232,-431 367,-431 367,-401 232,-401"/>
<text text-anchor="start" x="240" y="-419" font-family="Helvetica,sans-Serif" font-size="10.00">engine::actions::ClickAction</text>
<text text-anchor="middle" x="299.5" y="-408" font-family="Helvetica,sans-Serif" font-size="10.00">::apply</text>
</a>
</g>
</g>
<!-- Node1&#45;&gt;Node2 -->
<g id="edge1" class="edge">
<title>Node1&#45;&gt;Node2</title>
<path fill="none" stroke="midnightblue" d="M453.01,-237.9C441.79,-276.24 415.19,-349.72 367,-392 363.12,-395.4 358.73,-398.33 354.09,-400.85"/>
<polygon fill="midnightblue" stroke="midnightblue" points="456.44,-238.64 455.78,-228.07 449.7,-236.75 456.44,-238.64"/>
</g>
<!-- Node3 -->
<g id="node3" class="node">
<title>Node3</title>
<g id="a_node3"><a xlink:href="classengine_1_1actions_1_1_set_squad_path.html#a95516a8d5ad9b26f2719847fbbfe0892" target="_top" xlink:title=" ">
<polygon fill="white" stroke="black" points="235.5,-352 235.5,-382 363.5,-382 363.5,-352 235.5,-352"/>
<text text-anchor="start" x="243.5" y="-370" font-family="Helvetica,sans-Serif" font-size="10.00">engine::actions::SetSquad</text>
<text text-anchor="middle" x="299.5" y="-359" font-family="Helvetica,sans-Serif" font-size="10.00">Path::apply</text>
</a>
</g>
</g>
<!-- Node1&#45;&gt;Node3 -->
<g id="edge2" class="edge">
<title>Node1&#45;&gt;Node3</title>
<path fill="none" stroke="midnightblue" d="M447.73,-237.34C432.7,-266.07 404.14,-313.53 367,-342 362.01,-345.83 356.37,-349.12 350.53,-351.94"/>
<polygon fill="midnightblue" stroke="midnightblue" points="450.88,-238.87 452.3,-228.37 444.64,-235.69 450.88,-238.87"/>
</g>
<!-- Node4 -->
<g id="node4" class="node">
<title>Node4</title>
<g id="a_node4"><a xlink:href="class_cell.html#aa3317a89121135ce43f0ade0248dd9e0" target="_top" xlink:title=" ">
<polygon fill="white" stroke="black" points="272.5,-313.5 272.5,-332.5 326.5,-332.5 326.5,-313.5 272.5,-313.5"/>
<text text-anchor="middle" x="299.5" y="-320.5" font-family="Helvetica,sans-Serif" font-size="10.00">Cell::Cell</text>
</a>
</g>
</g>
<!-- Node1&#45;&gt;Node4 -->
<g id="edge3" class="edge">
<title>Node1&#45;&gt;Node4</title>
<path fill="none" stroke="midnightblue" d="M441.65,-236.23C424.6,-256.88 397.11,-286.45 367,-304 354.66,-311.2 339.42,-315.81 326.65,-318.68"/>
<polygon fill="midnightblue" stroke="midnightblue" points="444.53,-238.24 448.08,-228.26 439.08,-233.84 444.53,-238.24"/>
</g>
<!-- Node5 -->
<g id="node5" class="node">
<title>Node5</title>
<g id="a_node5"><a xlink:href="namespaceutil_1_1pathfinding.html#ae3541fb2118bc5a77179c4067c9baf0c" target="_top" xlink:title=" ">
<polygon fill="white" stroke="black" points="257,-264 257,-294 342,-294 342,-264 257,-264"/>
<text text-anchor="start" x="265" y="-282" font-family="Helvetica,sans-Serif" font-size="10.00">util::pathfinding::</text>
<text text-anchor="middle" x="299.5" y="-271" font-family="Helvetica,sans-Serif" font-size="10.00">dijkstraPath</text>
</a>
</g>
</g>
<!-- Node1&#45;&gt;Node5 -->
<g id="edge4" class="edge">
<title>Node1&#45;&gt;Node5</title>
<path fill="none" stroke="midnightblue" d="M417.29,-232.32C401.59,-239.35 383.56,-247.22 367,-254 358.9,-257.32 350.17,-260.72 341.79,-263.9"/>
<polygon fill="midnightblue" stroke="midnightblue" points="419.05,-235.37 426.73,-228.07 416.18,-228.99 419.05,-235.37"/>
</g>
<!-- Node7 -->
<g id="node7" class="node">
<title>Node7</title>
<g id="a_node7"><a xlink:href="class_cell.html#a34f5c6147f63470486b6e9e9d6d33ee9" target="_top" xlink:title=" ">
<polygon fill="white" stroke="black" points="258,-225.5 258,-244.5 341,-244.5 341,-225.5 258,-225.5"/>
<text text-anchor="middle" x="299.5" y="-232.5" font-family="Helvetica,sans-Serif" font-size="10.00">Cell::doOnClick</text>
</a>
</g>
</g>
<!-- Node1&#45;&gt;Node7 -->
<g id="edge6" class="edge">
<title>Node1&#45;&gt;Node7</title>
<path fill="none" stroke="midnightblue" d="M392.83,-222.23C375.35,-224.64 357.02,-227.18 341.34,-229.35"/>
<polygon fill="midnightblue" stroke="midnightblue" points="393.57,-225.66 402.99,-220.82 392.61,-218.72 393.57,-225.66"/>
</g>
<!-- Node9 -->
<g id="node9" class="node">
<title>Node9</title>
<g id="a_node9"><a xlink:href="namespaceutil_1_1cell_gen.html#a74a1c625c7122deb6e4bc56a24b42148" target="_top" xlink:title=" ">
<polygon fill="white" stroke="black" points="239,-176 239,-206 360,-206 360,-176 239,-176"/>
<text text-anchor="start" x="247" y="-194" font-family="Helvetica,sans-Serif" font-size="10.00">util::cellGen::getRandom</text>
<text text-anchor="middle" x="299.5" y="-183" font-family="Helvetica,sans-Serif" font-size="10.00">Points</text>
</a>
</g>
</g>
<!-- Node1&#45;&gt;Node9 -->
<g id="edge8" class="edge">
<title>Node1&#45;&gt;Node9</title>
<path fill="none" stroke="midnightblue" d="M393.06,-203.81C382.11,-202.29 370.82,-200.73 360.05,-199.24"/>
<polygon fill="midnightblue" stroke="midnightblue" points="392.61,-207.28 402.99,-205.18 393.57,-200.34 392.61,-207.28"/>
</g>
<!-- Node11 -->
<g id="node11" class="node">
<title>Node11</title>
<g id="a_node11"><a xlink:href="main_8cpp.html#ae66f6b31b5ad750f1fe042a706a4e3d4" target="_top" xlink:title=" ">
<polygon fill="white" stroke="black" points="0,-157.5 0,-176.5 38,-176.5 38,-157.5 0,-157.5"/>
<text text-anchor="middle" x="19" y="-164.5" font-family="Helvetica,sans-Serif" font-size="10.00">main</text>
</a>
</g>
</g>
<!-- Node1&#45;&gt;Node11 -->
<g id="edge13" class="edge">
<title>Node1&#45;&gt;Node11</title>
<path fill="none" stroke="midnightblue" d="M427.65,-192.58C410.43,-182.75 388.36,-172.02 367,-167 244.14,-138.14 89.98,-156.51 38.03,-164.14"/>
<polygon fill="midnightblue" stroke="midnightblue" points="426.3,-195.84 436.69,-197.91 429.85,-189.81 426.3,-195.84"/>
</g>
<!-- Node12 -->
<g id="node12" class="node">
<title>Node12</title>
<g id="a_node12"><a xlink:href="class_squads_1_1_squad_template.html#ac4e3b426950fa595ecc8f1ea23f6eb99" target="_top" xlink:title=" ">
<polygon fill="white" stroke="black" points="238.5,-88 238.5,-118 360.5,-118 360.5,-88 238.5,-88"/>
<text text-anchor="start" x="246.5" y="-106" font-family="Helvetica,sans-Serif" font-size="10.00">Squads::SquadTemplate</text>
<text text-anchor="middle" x="299.5" y="-95" font-family="Helvetica,sans-Serif" font-size="10.00">::hide</text>
</a>
</g>
</g>
<!-- Node1&#45;&gt;Node12 -->
<g id="edge11" class="edge">
<title>Node1&#45;&gt;Node12</title>
<path fill="none" stroke="midnightblue" d="M437.3,-190.51C419.42,-173.26 393.07,-149.65 367,-133 358.35,-127.48 348.52,-122.45 339.12,-118.15"/>
<polygon fill="midnightblue" stroke="midnightblue" points="435.29,-193.45 444.88,-197.95 440.19,-188.45 435.29,-193.45"/>
</g>
<!-- Node14 -->
<g id="node14" class="node">
<title>Node14</title>
<g id="a_node14"><a xlink:href="class_squads_1_1_squad_template.html#aa004e66dc0b72234e0b49a7cd69f9acb" target="_top" xlink:title=" ">
<polygon fill="white" stroke="black" points="238.5,-39 238.5,-69 360.5,-69 360.5,-39 238.5,-39"/>
<text text-anchor="start" x="246.5" y="-57" font-family="Helvetica,sans-Serif" font-size="10.00">Squads::SquadTemplate</text>
<text text-anchor="middle" x="299.5" y="-46" font-family="Helvetica,sans-Serif" font-size="10.00">::show</text>
</a>
</g>
</g>
<!-- Node1&#45;&gt;Node14 -->
<g id="edge14" class="edge">
<title>Node1&#45;&gt;Node14</title>
<path fill="none" stroke="midnightblue" d="M448.54,-188.38C433.99,-158.32 405.57,-107.82 367,-78 362.63,-74.62 357.74,-71.69 352.65,-69.15"/>
<polygon fill="midnightblue" stroke="midnightblue" points="445.52,-190.17 452.94,-197.73 451.85,-187.19 445.52,-190.17"/>
</g>
<!-- Node15 -->
<g id="node15" class="node">
<title>Node15</title>
<g id="a_node15"><a xlink:href="class_squads_1_1_squad.html#aa9fb6eb8bb4e7024e829a60d1b9a4ffc" target="_top" xlink:title=" ">
<polygon fill="white" stroke="black" points="242.5,-0.5 242.5,-19.5 356.5,-19.5 356.5,-0.5 242.5,-0.5"/>
<text text-anchor="middle" x="299.5" y="-7.5" font-family="Helvetica,sans-Serif" font-size="10.00">Squads::Squad::Squad</text>
</a>
</g>
</g>
<!-- Node1&#45;&gt;Node15 -->
<g id="edge16" class="edge">
<title>Node1&#45;&gt;Node15</title>
<path fill="none" stroke="midnightblue" d="M453.79,-187.85C443.45,-148.14 417.83,-71.09 367,-29 362.28,-25.09 356.81,-21.99 351.06,-19.52"/>
<polygon fill="midnightblue" stroke="midnightblue" points="450.44,-188.92 456.25,-197.78 457.24,-187.23 450.44,-188.92"/>
</g>
<!-- Node6 -->
<g id="node6" class="node">
<title>Node6</title>
<g id="a_node6"><a xlink:href="class_squads_1_1_action.html#a4b58ace38d3be18a91d9c474302dbf46" target="_top" xlink:title=" ">
<polygon fill="white" stroke="black" points="74,-269.5 74,-288.5 196,-288.5 196,-269.5 74,-269.5"/>
<text text-anchor="middle" x="135" y="-276.5" font-family="Helvetica,sans-Serif" font-size="10.00">Squads::Action::findPath</text>
</a>
</g>
</g>
<!-- Node5&#45;&gt;Node6 -->
<g id="edge5" class="edge">
<title>Node5&#45;&gt;Node6</title>
<path fill="none" stroke="midnightblue" d="M246.4,-279C230.37,-279 212.6,-279 196.08,-279"/>
<polygon fill="midnightblue" stroke="midnightblue" points="246.65,-282.5 256.65,-279 246.65,-275.5 246.65,-282.5"/>
</g>
<!-- Node8 -->
<g id="node8" class="node">
<title>Node8</title>
<g id="a_node8"><a xlink:href="class_cell.html#a064227f1968066ac1dfd15229b45c071" target="_top" xlink:title=" ">
<polygon fill="white" stroke="black" points="93.5,-225.5 93.5,-244.5 176.5,-244.5 176.5,-225.5 93.5,-225.5"/>
<text text-anchor="middle" x="135" y="-232.5" font-family="Helvetica,sans-Serif" font-size="10.00">Cell::tryOnClick</text>
</a>
</g>
</g>
<!-- Node7&#45;&gt;Node8 -->
<g id="edge7" class="edge">
<title>Node7&#45;&gt;Node8</title>
<path fill="none" stroke="midnightblue" d="M247.7,-235C224.81,-235 198.16,-235 176.63,-235"/>
<polygon fill="midnightblue" stroke="midnightblue" points="247.91,-238.5 257.91,-235 247.91,-231.5 247.91,-238.5"/>
</g>
<!-- Node10 -->
<g id="node10" class="node">
<title>Node10</title>
<g id="a_node10"><a xlink:href="namespaceutil_1_1cell_gen.html#a42c122e9493a8aaaa3de94db076a6778" target="_top" xlink:title=" ">
<polygon fill="white" stroke="black" points="83,-178.5 83,-197.5 187,-197.5 187,-178.5 83,-178.5"/>
<text text-anchor="middle" x="135" y="-185.5" font-family="Helvetica,sans-Serif" font-size="10.00">util::cellGen::getMap</text>
</a>
</g>
</g>
<!-- Node9&#45;&gt;Node10 -->
<g id="edge9" class="edge">
<title>Node9&#45;&gt;Node10</title>
<path fill="none" stroke="midnightblue" d="M228.8,-189.71C214.77,-189.45 200.27,-189.19 187.02,-188.94"/>
<polygon fill="midnightblue" stroke="midnightblue" points="228.85,-193.21 238.91,-189.9 228.98,-186.22 228.85,-193.21"/>
</g>
<!-- Node10&#45;&gt;Node11 -->
<g id="edge10" class="edge">
<title>Node10&#45;&gt;Node11</title>
<path fill="none" stroke="midnightblue" d="M72.54,-176.68C59.93,-174.36 47.61,-172.09 38.07,-170.33"/>
<polygon fill="midnightblue" stroke="midnightblue" points="72.2,-180.17 82.67,-178.54 73.47,-173.29 72.2,-180.17"/>
</g>
<!-- Node13 -->
<g id="node13" class="node">
<title>Node13</title>
<g id="a_node13"><a xlink:href="class_squads_1_1_squad_template.html#a546f2ecdbf38e384da68c11a6e7158d3" target="_top" xlink:title=" ">
<polygon fill="white" stroke="black" points="74,-64 74,-94 196,-94 196,-64 74,-64"/>
<text text-anchor="start" x="82" y="-82" font-family="Helvetica,sans-Serif" font-size="10.00">Squads::SquadTemplate</text>
<text text-anchor="middle" x="135" y="-71" font-family="Helvetica,sans-Serif" font-size="10.00">::SquadTemplate</text>
</a>
</g>
</g>
<!-- Node12&#45;&gt;Node13 -->
<g id="edge12" class="edge">
<title>Node12&#45;&gt;Node13</title>
<path fill="none" stroke="midnightblue" d="M228.27,-92.63C217.54,-91.04 206.56,-89.42 196.07,-87.87"/>
<polygon fill="midnightblue" stroke="midnightblue" points="228.05,-96.13 238.45,-94.13 229.07,-89.21 228.05,-96.13"/>
</g>
<!-- Node14&#45;&gt;Node13 -->
<g id="edge15" class="edge">
<title>Node14&#45;&gt;Node13</title>
<path fill="none" stroke="midnightblue" d="M228.27,-64.8C217.54,-66.45 206.56,-68.15 196.07,-69.76"/>
<polygon fill="midnightblue" stroke="midnightblue" points="229.1,-68.22 238.45,-63.24 228.04,-61.3 229.1,-68.22"/>
</g>
</g>
</svg>
