<?xml version="1.0" encoding="UTF-8" standalone="no"?>
<!DOCTYPE svg PUBLIC "-//W3C//DTD SVG 1.1//EN"
 "http://www.w3.org/Graphics/SVG/1.1/DTD/svg11.dtd">
<!-- Generated by graphviz version 2.47.1 (20210421.1823)
 -->
<!-- Title: engine::NetworkManager::getShared Pages: 1 -->
<svg width="469pt" height="186pt"
 viewBox="0.00 0.00 469.00 186.00" xmlns="http://www.w3.org/2000/svg" xmlns:xlink="http://www.w3.org/1999/xlink">
<g id="graph0" class="graph" transform="scale(1 1) rotate(0) translate(4 182)">
<title>engine::NetworkManager::getShared</title>
<polygon fill="white" stroke="transparent" points="-4,4 -4,-182 465,-182 465,4 -4,4"/>
<!-- Node1 -->
<g id="node1" class="node">
<title>Node1</title>
<g id="a_node1"><a xlink:title=" ">
<polygon fill="#bfbfbf" stroke="black" points="337,-73.5 337,-103.5 461,-103.5 461,-73.5 337,-73.5"/>
<text text-anchor="start" x="345" y="-91.5" font-family="Helvetica,sans-Serif" font-size="10.00">engine::NetworkManager</text>
<text text-anchor="middle" x="399" y="-80.5" font-family="Helvetica,sans-Serif" font-size="10.00">::getShared</text>
</a>
</g>
</g>
<!-- Node2 -->
<g id="node2" class="node">
<title>Node2</title>
<g id="a_node2"><a xlink:href="classengine_1_1actions_1_1_click_action.html#a54693ba253919c87a5f5b828a9138b3c" target="_top" xlink:title=" ">
<polygon fill="white" stroke="black" points="162,-147.5 162,-177.5 297,-177.5 297,-147.5 162,-147.5"/>
<text text-anchor="start" x="170" y="-165.5" font-family="Helvetica,sans-Serif" font-size="10.00">engine::actions::ClickAction</text>
<text text-anchor="middle" x="229.5" y="-154.5" font-family="Helvetica,sans-Serif" font-size="10.00">::apply</text>
</a>
</g>
</g>
<!-- Node1&#45;&gt;Node2 -->
<g id="edge1" class="edge">
<title>Node1&#45;&gt;Node2</title>
<path fill="none" stroke="midnightblue" d="M362.32,-108.5C344.25,-118.21 321.79,-129.66 301,-138.5 293.62,-141.64 285.68,-144.66 277.89,-147.45"/>
<polygon fill="midnightblue" stroke="midnightblue" points="364.22,-111.45 371.34,-103.6 360.88,-105.3 364.22,-111.45"/>
</g>
<!-- Node3 -->
<g id="node3" class="node">
<title>Node3</title>
<g id="a_node3"><a xlink:href="classengine_1_1actions_1_1_set_squad_path.html#a95516a8d5ad9b26f2719847fbbfe0892" target="_top" xlink:title=" ">
<polygon fill="white" stroke="black" points="165.5,-98.5 165.5,-128.5 293.5,-128.5 293.5,-98.5 165.5,-98.5"/>
<text text-anchor="start" x="173.5" y="-116.5" font-family="Helvetica,sans-Serif" font-size="10.00">engine::actions::SetSquad</text>
<text text-anchor="middle" x="229.5" y="-105.5" font-family="Helvetica,sans-Serif" font-size="10.00">Path::apply</text>
</a>
</g>
</g>
<!-- Node1&#45;&gt;Node3 -->
<g id="edge2" class="edge">
<title>Node1&#45;&gt;Node3</title>
<path fill="none" stroke="midnightblue" d="M326.61,-99.16C315.63,-100.79 304.37,-102.47 293.6,-104.08"/>
<polygon fill="midnightblue" stroke="midnightblue" points="327.21,-102.61 336.58,-97.67 326.17,-95.68 327.21,-102.61"/>
</g>
<!-- Node4 -->
<g id="node4" class="node">
<title>Node4</title>
<g id="a_node4"><a xlink:href="classengine_1_1actions_1_1_spawn_action.html#ac4f864831eda5eed4882a861c96ac065" target="_top" xlink:title=" ">
<polygon fill="white" stroke="black" points="158,-49.5 158,-79.5 301,-79.5 301,-49.5 158,-49.5"/>
<text text-anchor="start" x="166" y="-67.5" font-family="Helvetica,sans-Serif" font-size="10.00">engine::actions::SpawnAction</text>
<text text-anchor="middle" x="229.5" y="-56.5" font-family="Helvetica,sans-Serif" font-size="10.00">::apply</text>
</a>
</g>
</g>
<!-- Node1&#45;&gt;Node4 -->
<g id="edge3" class="edge">
<title>Node1&#45;&gt;Node4</title>
<path fill="none" stroke="midnightblue" d="M326.49,-78.25C318.14,-77.06 309.61,-75.84 301.27,-74.64"/>
<polygon fill="midnightblue" stroke="midnightblue" points="326.18,-81.75 336.58,-79.7 327.18,-74.82 326.18,-81.75"/>
</g>
<!-- Node5 -->
<g id="node5" class="node">
<title>Node5</title>
<g id="a_node5"><a xlink:href="namespaceutil_1_1pathfinding.html#ae3541fb2118bc5a77179c4067c9baf0c" target="_top" xlink:title=" ">
<polygon fill="white" stroke="black" points="187,-0.5 187,-30.5 272,-30.5 272,-0.5 187,-0.5"/>
<text text-anchor="start" x="195" y="-18.5" font-family="Helvetica,sans-Serif" font-size="10.00">util::pathfinding::</text>
<text text-anchor="middle" x="229.5" y="-7.5" font-family="Helvetica,sans-Serif" font-size="10.00">dijkstraPath</text>
</a>
</g>
</g>
<!-- Node1&#45;&gt;Node5 -->
<g id="edge4" class="edge">
<title>Node1&#45;&gt;Node5</title>
<path fill="none" stroke="midnightblue" d="M360.62,-68.71C342.8,-59.61 321.04,-48.98 301,-40.5 291.79,-36.6 281.74,-32.79 272.19,-29.36"/>
<polygon fill="midnightblue" stroke="midnightblue" points="359.06,-71.84 369.55,-73.31 362.27,-65.62 359.06,-71.84"/>
</g>
<!-- Node6 -->
<g id="node6" class="node">
<title>Node6</title>
<g id="a_node6"><a xlink:href="class_squads_1_1_action.html#a4b58ace38d3be18a91d9c474302dbf46" target="_top" xlink:title=" ">
<polygon fill="white" stroke="black" points="0,-6 0,-25 122,-25 122,-6 0,-6"/>
<text text-anchor="middle" x="61" y="-13" font-family="Helvetica,sans-Serif" font-size="10.00">Squads::Action::findPath</text>
</a>
</g>
</g>
<!-- Node5&#45;&gt;Node6 -->
<g id="edge5" class="edge">
<title>Node5&#45;&gt;Node6</title>
<path fill="none" stroke="midnightblue" d="M176.5,-15.5C159.29,-15.5 139.99,-15.5 122.21,-15.5"/>
<polygon fill="midnightblue" stroke="midnightblue" points="176.91,-19 186.91,-15.5 176.91,-12 176.91,-19"/>
</g>
</g>
</svg>
