<?xml version="1.0" encoding="UTF-8" standalone="no"?>
<!DOCTYPE svg PUBLIC "-//W3C//DTD SVG 1.1//EN"
 "http://www.w3.org/Graphics/SVG/1.1/DTD/svg11.dtd">
<!-- Generated by graphviz version 2.47.1 (20210421.1823)
 -->
<!-- Title: Units::LandUnit::setStats Pages: 1 -->
<svg width="304pt" height="78pt"
 viewBox="0.00 0.00 304.00 77.50" xmlns="http://www.w3.org/2000/svg" xmlns:xlink="http://www.w3.org/1999/xlink">
<g id="graph0" class="graph" transform="scale(1 1) rotate(0) translate(4 73.5)">
<title>Units::LandUnit::setStats</title>
<polygon fill="white" stroke="transparent" points="-4,4 -4,-73.5 300,-73.5 300,4 -4,4"/>
<!-- Node1 -->
<g id="node1" class="node">
<title>Node1</title>
<g id="a_node1"><a xlink:title=" ">
<polygon fill="#bfbfbf" stroke="black" points="0,-28 0,-47 125,-47 125,-28 0,-28"/>
<text text-anchor="middle" x="62.5" y="-35" font-family="Helvetica,sans-Serif" font-size="10.00">Units::LandUnit::setStats</text>
</a>
</g>
</g>
<!-- Node2 -->
<g id="node2" class="node">
<title>Node2</title>
<g id="a_node2"><a xlink:href="namespace_flags.html#a95204c880ecfbbc77f73eb8b352071c0" target="_top" xlink:title=" ">
<polygon fill="white" stroke="black" points="161,-50 161,-69 296,-69 296,-50 161,-50"/>
<text text-anchor="middle" x="228.5" y="-57" font-family="Helvetica,sans-Serif" font-size="10.00">Flags::generateBorderFlags</text>
</a>
</g>
</g>
<!-- Node1&#45;&gt;Node2 -->
<g id="edge1" class="edge">
<title>Node1&#45;&gt;Node2</title>
<path fill="none" stroke="midnightblue" d="M125.03,-45.75C133.46,-46.89 142.2,-48.06 150.85,-49.22"/>
<polygon fill="midnightblue" stroke="midnightblue" points="150.58,-52.71 160.95,-50.57 151.51,-45.77 150.58,-52.71"/>
</g>
<!-- Node3 -->
<g id="node3" class="node">
<title>Node3</title>
<g id="a_node3"><a xlink:href="namespace_flags.html#a40b54d107096701f7ddd6ac478074c2f" target="_top" xlink:title=" ">
<polygon fill="white" stroke="black" points="163,-0.5 163,-30.5 294,-30.5 294,-0.5 163,-0.5"/>
<text text-anchor="start" x="171" y="-18.5" font-family="Helvetica,sans-Serif" font-size="10.00">Flags::generateLandscape</text>
<text text-anchor="middle" x="228.5" y="-7.5" font-family="Helvetica,sans-Serif" font-size="10.00">Flags</text>
</a>
</g>
</g>
<!-- Node1&#45;&gt;Node3 -->
<g id="edge2" class="edge">
<title>Node1&#45;&gt;Node3</title>
<path fill="none" stroke="midnightblue" d="M125.03,-29.25C134.11,-28.03 143.55,-26.76 152.85,-25.51"/>
<polygon fill="midnightblue" stroke="midnightblue" points="153.44,-28.97 162.88,-24.17 152.5,-22.03 153.44,-28.97"/>
</g>
</g>
</svg>
