<?xml version="1.0" encoding="UTF-8" standalone="no"?>
<!DOCTYPE svg PUBLIC "-//W3C//DTD SVG 1.1//EN"
 "http://www.w3.org/Graphics/SVG/1.1/DTD/svg11.dtd">
<!-- Generated by graphviz version 2.47.1 (20210421.1823)
 -->
<!-- Title: Cell::tryOnClick Pages: 1 -->
<svg width="431pt" height="165pt"
 viewBox="0.00 0.00 431.00 164.50" xmlns="http://www.w3.org/2000/svg" xmlns:xlink="http://www.w3.org/1999/xlink">
<g id="graph0" class="graph" transform="scale(1 1) rotate(0) translate(4 160.5)">
<title>Cell::tryOnClick</title>
<polygon fill="white" stroke="transparent" points="-4,4 -4,-160.5 427,-160.5 427,4 -4,4"/>
<!-- Node1 -->
<g id="node1" class="node">
<title>Node1</title>
<g id="a_node1"><a xlink:title=" ">
<polygon fill="#bfbfbf" stroke="black" points="0,-41.5 0,-60.5 83,-60.5 83,-41.5 0,-41.5"/>
<text text-anchor="middle" x="41.5" y="-48.5" font-family="Helvetica,sans-Serif" font-size="10.00">Cell::tryOnClick</text>
</a>
</g>
</g>
<!-- Node2 -->
<g id="node2" class="node">
<title>Node2</title>
<g id="a_node2"><a xlink:href="class_cell.html#a34f5c6147f63470486b6e9e9d6d33ee9" target="_top" xlink:title=" ">
<polygon fill="white" stroke="black" points="140.5,-71.5 140.5,-90.5 223.5,-90.5 223.5,-71.5 140.5,-71.5"/>
<text text-anchor="middle" x="182" y="-78.5" font-family="Helvetica,sans-Serif" font-size="10.00">Cell::doOnClick</text>
</a>
</g>
</g>
<!-- Node1&#45;&gt;Node2 -->
<g id="edge1" class="edge">
<title>Node1&#45;&gt;Node2</title>
<path fill="none" stroke="midnightblue" d="M83.31,-59.84C98.1,-63.04 114.99,-66.7 130.51,-70.06"/>
<polygon fill="midnightblue" stroke="midnightblue" points="129.97,-73.53 140.49,-72.22 131.45,-66.69 129.97,-73.53"/>
</g>
<!-- Node6 -->
<g id="node6" class="node">
<title>Node6</title>
<g id="a_node6"><a xlink:href="namespaceutil_1_1geometry.html#aa0e434944c0af835a95ac67327f2bf2b" target="_top" xlink:title=" ">
<polygon fill="white" stroke="black" points="119,-22.5 119,-41.5 245,-41.5 245,-22.5 119,-22.5"/>
<text text-anchor="middle" x="182" y="-29.5" font-family="Helvetica,sans-Serif" font-size="10.00">util::geometry::pointWithin</text>
</a>
</g>
</g>
<!-- Node1&#45;&gt;Node6 -->
<g id="edge5" class="edge">
<title>Node1&#45;&gt;Node6</title>
<path fill="none" stroke="midnightblue" d="M83.31,-45.4C91.42,-44.29 100.17,-43.09 108.98,-41.88"/>
<polygon fill="midnightblue" stroke="midnightblue" points="109.48,-45.34 118.92,-40.52 108.53,-38.41 109.48,-45.34"/>
</g>
<!-- Node3 -->
<g id="node3" class="node">
<title>Node3</title>
<g id="a_node3"><a xlink:href="classengine_1_1_network_manager.html#aacc37ba20779d3514617aadfa2660309" target="_top" xlink:title=" ">
<polygon fill="white" stroke="black" points="290,-126 290,-156 414,-156 414,-126 290,-126"/>
<text text-anchor="start" x="298" y="-144" font-family="Helvetica,sans-Serif" font-size="10.00">engine::NetworkManager</text>
<text text-anchor="middle" x="352" y="-133" font-family="Helvetica,sans-Serif" font-size="10.00">::addAction</text>
</a>
</g>
</g>
<!-- Node2&#45;&gt;Node3 -->
<g id="edge2" class="edge">
<title>Node2&#45;&gt;Node3</title>
<path fill="none" stroke="midnightblue" d="M208.74,-90.63C228.47,-97.97 256.4,-108.27 281,-117 286.15,-118.83 291.51,-120.71 296.88,-122.58"/>
<polygon fill="midnightblue" stroke="midnightblue" points="295.92,-125.95 306.51,-125.91 298.21,-119.33 295.92,-125.95"/>
</g>
<!-- Node4 -->
<g id="node4" class="node">
<title>Node4</title>
<g id="a_node4"><a xlink:href="classengine_1_1game_controller.html#ae2459bdafdf03e3b1519a14738744f00" target="_top" xlink:title=" ">
<polygon fill="white" stroke="black" points="294.5,-77 294.5,-107 409.5,-107 409.5,-77 294.5,-77"/>
<text text-anchor="start" x="302.5" y="-95" font-family="Helvetica,sans-Serif" font-size="10.00">engine::gameController</text>
<text text-anchor="middle" x="352" y="-84" font-family="Helvetica,sans-Serif" font-size="10.00">::Instance</text>
</a>
</g>
</g>
<!-- Node2&#45;&gt;Node4 -->
<g id="edge3" class="edge">
<title>Node2&#45;&gt;Node4</title>
<path fill="none" stroke="midnightblue" d="M223.67,-83.66C241.78,-84.85 263.59,-86.28 284,-87.61"/>
<polygon fill="midnightblue" stroke="midnightblue" points="284,-91.12 294.2,-88.28 284.45,-84.14 284,-91.12"/>
</g>
<!-- Node5 -->
<g id="node5" class="node">
<title>Node5</title>
<g id="a_node5"><a xlink:href="class_squads_1_1_squad.html#aa2375e6681c8d5212eead8b8f9d3430d" target="_top" xlink:title=" ">
<polygon fill="white" stroke="black" points="294,-38.5 294,-57.5 410,-57.5 410,-38.5 294,-38.5"/>
<text text-anchor="middle" x="352" y="-45.5" font-family="Helvetica,sans-Serif" font-size="10.00">Squads::Squad::setCell</text>
</a>
</g>
</g>
<!-- Node2&#45;&gt;Node5 -->
<g id="edge4" class="edge">
<title>Node2&#45;&gt;Node5</title>
<path fill="none" stroke="midnightblue" d="M223.67,-73.01C244.31,-68.96 269.76,-63.96 292.46,-59.5"/>
<polygon fill="midnightblue" stroke="midnightblue" points="293.2,-62.92 302.34,-57.56 291.85,-56.05 293.2,-62.92"/>
</g>
<!-- Node7 -->
<g id="node7" class="node">
<title>Node7</title>
<g id="a_node7"><a xlink:href="namespaceutil_1_1geometry.html#ab231b2cc3de4921367ecbff190cd337d" target="_top" xlink:title=" ">
<polygon fill="white" stroke="black" points="281,-0.5 281,-19.5 423,-19.5 423,-0.5 281,-0.5"/>
<text text-anchor="middle" x="352" y="-7.5" font-family="Helvetica,sans-Serif" font-size="10.00">util::geometry::semiplaneSide</text>
</a>
</g>
</g>
<!-- Node6&#45;&gt;Node7 -->
<g id="edge6" class="edge">
<title>Node6&#45;&gt;Node7</title>
<path fill="none" stroke="midnightblue" d="M245.08,-23.87C253.48,-22.77 262.19,-21.63 270.85,-20.5"/>
<polygon fill="midnightblue" stroke="midnightblue" points="271.5,-23.94 280.96,-19.17 270.59,-17 271.5,-23.94"/>
</g>
</g>
</svg>
