<?xml version="1.0" encoding="UTF-8" standalone="no"?>
<!DOCTYPE svg PUBLIC "-//W3C//DTD SVG 1.1//EN"
 "http://www.w3.org/Graphics/SVG/1.1/DTD/svg11.dtd">
<!-- Generated by graphviz version 2.47.0 (20210407.0042)
 -->
<!-- Title: Units::ArmoredUnit Pages: 1 -->
<svg width="325pt" height="950pt"
 viewBox="0.00 0.00 324.50 950.00" xmlns="http://www.w3.org/2000/svg" xmlns:xlink="http://www.w3.org/1999/xlink">
<g id="graph0" class="graph" transform="scale(1 1) rotate(0) translate(4 946)">
<title>Units::ArmoredUnit</title>
<polygon fill="white" stroke="transparent" points="-4,4 -4,-946 320.5,-946 320.5,4 -4,4"/>
<!-- Node1 -->
<g id="node1" class="node">
<title>Node1</title>
<g id="a_node1"><a xlink:title=" ">
<polygon fill="#bfbfbf" stroke="black" points="99,-0.5 99,-112.5 198,-112.5 198,-0.5 99,-0.5"/>
<text text-anchor="middle" x="148.5" y="-100.5" font-family="Helvetica,sans-Serif" font-size="10.00">Units::ArmoredUnit</text>
<polyline fill="none" stroke="black" points="99,-93.5 198,-93.5 "/>
<text text-anchor="middle" x="148.5" y="-81.5" font-family="Helvetica,sans-Serif" font-size="10.00"> </text>
<polyline fill="none" stroke="black" points="99,-74.5 198,-74.5 "/>
<text text-anchor="start" x="107" y="-62.5" font-family="Helvetica,sans-Serif" font-size="10.00">+ getAsTransport()</text>
<text text-anchor="start" x="107" y="-51.5" font-family="Helvetica,sans-Serif" font-size="10.00">+ ArmoredUnit()</text>
<text text-anchor="start" x="107" y="-40.5" font-family="Helvetica,sans-Serif" font-size="10.00">+ ArmoredUnit()</text>
<text text-anchor="start" x="107" y="-29.5" font-family="Helvetica,sans-Serif" font-size="10.00">+ getAttack()</text>
<text text-anchor="start" x="107" y="-18.5" font-family="Helvetica,sans-Serif" font-size="10.00">+ setStats()</text>
<text text-anchor="start" x="107" y="-7.5" font-family="Helvetica,sans-Serif" font-size="10.00">+ tick()</text>
</a>
</g>
</g>
<!-- Node2 -->
<g id="node2" class="node">
<title>Node2</title>
<g id="a_node2"><a xlink:href="class_units_1_1_unit.html" target="_top" xlink:title=" ">
<polygon fill="white" stroke="black" points="78.5,-150.5 78.5,-405.5 218.5,-405.5 218.5,-150.5 78.5,-150.5"/>
<text text-anchor="middle" x="148.5" y="-393.5" font-family="Helvetica,sans-Serif" font-size="10.00">Units::Unit</text>
<polyline fill="none" stroke="black" points="78.5,-386.5 218.5,-386.5 "/>
<text text-anchor="start" x="86.5" y="-374.5" font-family="Helvetica,sans-Serif" font-size="10.00">+ name</text>
<text text-anchor="start" x="86.5" y="-363.5" font-family="Helvetica,sans-Serif" font-size="10.00">+ texture</text>
<text text-anchor="start" x="86.5" y="-352.5" font-family="Helvetica,sans-Serif" font-size="10.00">+ weight</text>
<text text-anchor="start" x="86.5" y="-341.5" font-family="Helvetica,sans-Serif" font-size="10.00">+ landscapeFlagResists</text>
<text text-anchor="start" x="86.5" y="-330.5" font-family="Helvetica,sans-Serif" font-size="10.00">+ borderFlagResists</text>
<text text-anchor="start" x="86.5" y="-319.5" font-family="Helvetica,sans-Serif" font-size="10.00">+ commonSpeed</text>
<text text-anchor="start" x="86.5" y="-308.5" font-family="Helvetica,sans-Serif" font-size="10.00"># currentUsageOfOrder</text>
<text text-anchor="start" x="86.5" y="-297.5" font-family="Helvetica,sans-Serif" font-size="10.00"># allOrders</text>
<text text-anchor="start" x="86.5" y="-286.5" font-family="Helvetica,sans-Serif" font-size="10.00"># unitLandscapeFlagResists</text>
<text text-anchor="start" x="86.5" y="-275.5" font-family="Helvetica,sans-Serif" font-size="10.00"># unitBorderFlagResists</text>
<text text-anchor="start" x="86.5" y="-264.5" font-family="Helvetica,sans-Serif" font-size="10.00"># unitSpeed</text>
<text text-anchor="start" x="86.5" y="-253.5" font-family="Helvetica,sans-Serif" font-size="10.00"># HP</text>
<polyline fill="none" stroke="black" points="78.5,-246.5 218.5,-246.5 "/>
<text text-anchor="start" x="86.5" y="-234.5" font-family="Helvetica,sans-Serif" font-size="10.00">+ Unit()</text>
<text text-anchor="start" x="86.5" y="-223.5" font-family="Helvetica,sans-Serif" font-size="10.00">+ Unit()</text>
<text text-anchor="start" x="86.5" y="-212.5" font-family="Helvetica,sans-Serif" font-size="10.00">+ setSquad()</text>
<text text-anchor="start" x="86.5" y="-201.5" font-family="Helvetica,sans-Serif" font-size="10.00">+ tick()</text>
<text text-anchor="start" x="86.5" y="-190.5" font-family="Helvetica,sans-Serif" font-size="10.00">+ getAttack()</text>
<text text-anchor="start" x="86.5" y="-179.5" font-family="Helvetica,sans-Serif" font-size="10.00">+ isOrderPossible()</text>
<text text-anchor="start" x="86.5" y="-168.5" font-family="Helvetica,sans-Serif" font-size="10.00">+ enableOrder()</text>
<text text-anchor="start" x="86.5" y="-157.5" font-family="Helvetica,sans-Serif" font-size="10.00">+ disableOrder()</text>
</a>
</g>
</g>
<!-- Node2&#45;&gt;Node1 -->
<g id="edge1" class="edge">
<title>Node2&#45;&gt;Node1</title>
<path fill="none" stroke="midnightblue" d="M148.5,-140.2C148.5,-130.63 148.5,-121.36 148.5,-112.69"/>
<polygon fill="none" stroke="midnightblue" points="145,-140.27 148.5,-150.27 152,-140.27 145,-140.27"/>
</g>
<!-- Node3 -->
<g id="node3" class="node">
<title>Node3</title>
<g id="a_node3"><a xlink:href="class_unit_order.html" target="_top" xlink:title=" ">
<polygon fill="white" stroke="black" points="77,-497.5 77,-565.5 136,-565.5 136,-497.5 77,-497.5"/>
<text text-anchor="middle" x="106.5" y="-553.5" font-family="Helvetica,sans-Serif" font-size="10.00">UnitOrder</text>
<polyline fill="none" stroke="black" points="77,-546.5 136,-546.5 "/>
<text text-anchor="middle" x="106.5" y="-534.5" font-family="Helvetica,sans-Serif" font-size="10.00"> </text>
<polyline fill="none" stroke="black" points="77,-527.5 136,-527.5 "/>
<text text-anchor="start" x="85" y="-515.5" font-family="Helvetica,sans-Serif" font-size="10.00">+ tick()</text>
<text text-anchor="start" x="85" y="-504.5" font-family="Helvetica,sans-Serif" font-size="10.00">+ copy()</text>
</a>
</g>
</g>
<!-- Node3&#45;&gt;Node2 -->
<g id="edge2" class="edge">
<title>Node3&#45;&gt;Node2</title>
<path fill="none" stroke="#404040" d="M109.45,-497.29C111.52,-476.23 114.6,-448.44 118.5,-424 118.83,-421.95 119.16,-419.88 119.51,-417.81"/>
<polygon fill="none" stroke="#404040" points="119.54,-417.62 116.61,-411.03 121.57,-405.8 124.49,-412.39 119.54,-417.62"/>
<text text-anchor="middle" x="149.5" y="-427" font-family="Helvetica,sans-Serif" font-size="10.00"> #currentOrder</text>
</g>
<!-- Node4 -->
<g id="node4" class="node">
<title>Node4</title>
<g id="a_node4"><a xlink:href="class_squads_1_1_squad.html" target="_top" xlink:title=" ">
<polygon fill="white" stroke="black" points="154,-453.5 154,-609.5 275,-609.5 275,-453.5 154,-453.5"/>
<text text-anchor="middle" x="214.5" y="-597.5" font-family="Helvetica,sans-Serif" font-size="10.00">Squads::Squad</text>
<polyline fill="none" stroke="black" points="154,-590.5 275,-590.5 "/>
<text text-anchor="start" x="162" y="-578.5" font-family="Helvetica,sans-Serif" font-size="10.00">+ Action</text>
<text text-anchor="start" x="162" y="-567.5" font-family="Helvetica,sans-Serif" font-size="10.00">+ currentSpeed</text>
<text text-anchor="start" x="162" y="-556.5" font-family="Helvetica,sans-Serif" font-size="10.00">+ landscapeFlagResists</text>
<text text-anchor="start" x="162" y="-545.5" font-family="Helvetica,sans-Serif" font-size="10.00">+ borderFlagResists</text>
<polyline fill="none" stroke="black" points="154,-538.5 275,-538.5 "/>
<text text-anchor="start" x="162" y="-526.5" font-family="Helvetica,sans-Serif" font-size="10.00">+ setCell()</text>
<text text-anchor="start" x="162" y="-515.5" font-family="Helvetica,sans-Serif" font-size="10.00">+ Squad()</text>
<text text-anchor="start" x="162" y="-504.5" font-family="Helvetica,sans-Serif" font-size="10.00">+ tick()</text>
<text text-anchor="start" x="162" y="-493.5" font-family="Helvetica,sans-Serif" font-size="10.00">+ lateTick()</text>
<text text-anchor="start" x="162" y="-482.5" font-family="Helvetica,sans-Serif" font-size="10.00">+ render()</text>
<text text-anchor="start" x="162" y="-471.5" font-family="Helvetica,sans-Serif" font-size="10.00">+ tryOnClick()</text>
<text text-anchor="start" x="162" y="-460.5" font-family="Helvetica,sans-Serif" font-size="10.00">+ doOnClick()</text>
</a>
</g>
</g>
<!-- Node4&#45;&gt;Node2 -->
<g id="edge3" class="edge">
<title>Node4&#45;&gt;Node2</title>
<path fill="none" stroke="#404040" d="M194.25,-453.33C191.23,-441.84 188.05,-429.71 184.83,-417.42"/>
<polygon fill="none" stroke="#404040" points="184.77,-417.21 179.38,-412.42 181.72,-405.6 187.12,-410.39 184.77,-417.21"/>
<text text-anchor="middle" x="206.5" y="-427" font-family="Helvetica,sans-Serif" font-size="10.00"> #squad</text>
</g>
<!-- Node5 -->
<g id="node5" class="node">
<title>Node5</title>
<g id="a_node5"><a xlink:href="classengine_1_1gameplay_clickable_game_object.html" target="_top" xlink:title=" ">
<polygon fill="white" stroke="black" points="0,-690.5 0,-758.5 131,-758.5 131,-690.5 0,-690.5"/>
<text text-anchor="start" x="8" y="-746.5" font-family="Helvetica,sans-Serif" font-size="10.00">engine::gameplayClickable</text>
<text text-anchor="middle" x="65.5" y="-735.5" font-family="Helvetica,sans-Serif" font-size="10.00">GameObject</text>
<polyline fill="none" stroke="black" points="0,-728.5 131,-728.5 "/>
<text text-anchor="middle" x="65.5" y="-716.5" font-family="Helvetica,sans-Serif" font-size="10.00"> </text>
<polyline fill="none" stroke="black" points="0,-709.5 131,-709.5 "/>
<text text-anchor="start" x="8" y="-697.5" font-family="Helvetica,sans-Serif" font-size="10.00">+ doOnClick()</text>
</a>
</g>
</g>
<!-- Node5&#45;&gt;Node4 -->
<g id="edge4" class="edge">
<title>Node5&#45;&gt;Node4</title>
<path fill="none" stroke="midnightblue" d="M97.79,-682.1C114.29,-660.95 134.92,-634.52 154.22,-609.77"/>
<polygon fill="none" stroke="midnightblue" points="94.85,-680.19 91.45,-690.23 100.36,-684.5 94.85,-680.19"/>
</g>
<!-- Node5&#45;&gt;Node5 -->
<g id="edge6" class="edge">
<title>Node5&#45;&gt;Node5</title>
<path fill="none" stroke="#404040" d="M131.31,-739.35C141.81,-737.18 149,-732.23 149,-724.5 149,-720.03 146.6,-716.49 142.54,-713.88"/>
<polygon fill="none" stroke="#404040" points="142.54,-713.88 135.51,-715.51 131.31,-709.65 138.33,-708.02 142.54,-713.88"/>
<text text-anchor="middle" x="182.5" y="-722" font-family="Helvetica,sans-Serif" font-size="10.00"> +previousClick</text>
</g>
<!-- Node6 -->
<g id="node6" class="node">
<title>Node6</title>
<g id="a_node6"><a xlink:href="classengine_1_1game_object.html" target="_top" xlink:title=" ">
<polygon fill="white" stroke="black" points="1,-829.5 1,-941.5 130,-941.5 130,-829.5 1,-829.5"/>
<text text-anchor="middle" x="65.5" y="-929.5" font-family="Helvetica,sans-Serif" font-size="10.00">engine::gameObject</text>
<polyline fill="none" stroke="black" points="1,-922.5 130,-922.5 "/>
<text text-anchor="start" x="9" y="-910.5" font-family="Helvetica,sans-Serif" font-size="10.00">+ id</text>
<text text-anchor="start" x="9" y="-899.5" font-family="Helvetica,sans-Serif" font-size="10.00">+ gameObjectListPosition</text>
<polyline fill="none" stroke="black" points="1,-892.5 130,-892.5 "/>
<text text-anchor="start" x="9" y="-880.5" font-family="Helvetica,sans-Serif" font-size="10.00">+ tick()</text>
<text text-anchor="start" x="9" y="-869.5" font-family="Helvetica,sans-Serif" font-size="10.00">+ lateTick()</text>
<text text-anchor="start" x="9" y="-858.5" font-family="Helvetica,sans-Serif" font-size="10.00">+ render()</text>
<text text-anchor="start" x="9" y="-847.5" font-family="Helvetica,sans-Serif" font-size="10.00">+ getRenderEdges()</text>
<text text-anchor="start" x="9" y="-836.5" font-family="Helvetica,sans-Serif" font-size="10.00">+ tryOnClick()</text>
</a>
</g>
</g>
<!-- Node6&#45;&gt;Node5 -->
<g id="edge5" class="edge">
<title>Node6&#45;&gt;Node5</title>
<path fill="none" stroke="midnightblue" d="M65.5,-819.26C65.5,-798.47 65.5,-776.33 65.5,-758.78"/>
<polygon fill="none" stroke="midnightblue" points="62,-819.34 65.5,-829.34 69,-819.34 62,-819.34"/>
</g>
<!-- Node7 -->
<g id="node7" class="node">
<title>Node7</title>
<g id="a_node7"><a xlink:href="class_squads_1_1_action.html" target="_top" xlink:title=" ">
<polygon fill="white" stroke="black" points="234.5,-657.5 234.5,-791.5 316.5,-791.5 316.5,-657.5 234.5,-657.5"/>
<text text-anchor="middle" x="275.5" y="-779.5" font-family="Helvetica,sans-Serif" font-size="10.00">Squads::Action</text>
<polyline fill="none" stroke="black" points="234.5,-772.5 316.5,-772.5 "/>
<text text-anchor="middle" x="275.5" y="-760.5" font-family="Helvetica,sans-Serif" font-size="10.00"> </text>
<polyline fill="none" stroke="black" points="234.5,-753.5 316.5,-753.5 "/>
<text text-anchor="start" x="242.5" y="-741.5" font-family="Helvetica,sans-Serif" font-size="10.00">+ Action()</text>
<text text-anchor="start" x="242.5" y="-730.5" font-family="Helvetica,sans-Serif" font-size="10.00">+ nextStep()</text>
<text text-anchor="start" x="242.5" y="-719.5" font-family="Helvetica,sans-Serif" font-size="10.00">+ calcSpeed()</text>
<text text-anchor="start" x="242.5" y="-708.5" font-family="Helvetica,sans-Serif" font-size="10.00">+ findPath()</text>
<text text-anchor="start" x="242.5" y="-697.5" font-family="Helvetica,sans-Serif" font-size="10.00">+ setPath()</text>
<text text-anchor="start" x="242.5" y="-686.5" font-family="Helvetica,sans-Serif" font-size="10.00">+ setPath()</text>
<text text-anchor="start" x="242.5" y="-675.5" font-family="Helvetica,sans-Serif" font-size="10.00">+ tick()</text>
<text text-anchor="start" x="242.5" y="-664.5" font-family="Helvetica,sans-Serif" font-size="10.00">+ render()</text>
</a>
</g>
</g>
<!-- Node7&#45;&gt;Node4 -->
<g id="edge7" class="edge">
<title>Node7&#45;&gt;Node4</title>
<path fill="none" stroke="#404040" d="M254.34,-657.23C250.63,-645.64 246.73,-633.41 242.87,-621.32"/>
<polygon fill="none" stroke="#404040" points="242.84,-621.23 237.2,-616.73 239.19,-609.8 244.82,-614.3 242.84,-621.23"/>
<text text-anchor="middle" x="264" y="-631" font-family="Helvetica,sans-Serif" font-size="10.00"> +action</text>
</g>
</g>
</svg>
