<?xml version="1.0" encoding="UTF-8" standalone="no"?>
<!DOCTYPE svg PUBLIC "-//W3C//DTD SVG 1.1//EN"
 "http://www.w3.org/Graphics/SVG/1.1/DTD/svg11.dtd">
<!-- Generated by graphviz version 2.47.1 (20210421.1823)
 -->
<!-- Title: engine::gameController Pages: 1 -->
<svg width="153pt" height="292pt"
 viewBox="0.00 0.00 153.00 292.00" xmlns="http://www.w3.org/2000/svg" xmlns:xlink="http://www.w3.org/1999/xlink">
<g id="graph0" class="graph" transform="scale(1 1) rotate(0) translate(4 288)">
<title>engine::gameController</title>
<polygon fill="white" stroke="transparent" points="-4,4 -4,-288 149,-288 149,4 -4,4"/>
<!-- Node1 -->
<g id="node1" class="node">
<title>Node1</title>
<g id="a_node1"><a xlink:title=" ">
<polygon fill="#bfbfbf" stroke="black" points="0,-0.5 0,-112.5 128,-112.5 128,-0.5 0,-0.5"/>
<text text-anchor="middle" x="64" y="-100.5" font-family="Helvetica,sans-Serif" font-size="10.00">engine::gameController</text>
<polyline fill="none" stroke="black" points="0,-93.5 128,-93.5 "/>
<text text-anchor="start" x="8" y="-81.5" font-family="Helvetica,sans-Serif" font-size="10.00">+ rng</text>
<polyline fill="none" stroke="black" points="0,-74.5 128,-74.5 "/>
<text text-anchor="start" x="8" y="-62.5" font-family="Helvetica,sans-Serif" font-size="10.00">+ registerObject()</text>
<text text-anchor="start" x="8" y="-51.5" font-family="Helvetica,sans-Serif" font-size="10.00">+ registerStaticObject()</text>
<text text-anchor="start" x="8" y="-40.5" font-family="Helvetica,sans-Serif" font-size="10.00">+ unregisterObject()</text>
<text text-anchor="start" x="8" y="-29.5" font-family="Helvetica,sans-Serif" font-size="10.00">+ unregisterStaticObject()</text>
<text text-anchor="start" x="8" y="-18.5" font-family="Helvetica,sans-Serif" font-size="10.00">+ gameLoop()</text>
<text text-anchor="start" x="8" y="-7.5" font-family="Helvetica,sans-Serif" font-size="10.00">+ Instance()</text>
</a>
</g>
</g>
<!-- Node2 -->
<g id="node2" class="node">
<title>Node2</title>
<g id="a_node2"><a xlink:href="classengine_1_1_network_manager.html" target="_top" xlink:title=" ">
<polygon fill="white" stroke="black" points="2,-160.5 2,-283.5 126,-283.5 126,-160.5 2,-160.5"/>
<text text-anchor="middle" x="64" y="-271.5" font-family="Helvetica,sans-Serif" font-size="10.00">engine::NetworkManager</text>
<polyline fill="none" stroke="black" points="2,-264.5 126,-264.5 "/>
<text text-anchor="start" x="10" y="-252.5" font-family="Helvetica,sans-Serif" font-size="10.00">+ serverId</text>
<polyline fill="none" stroke="black" points="2,-245.5 126,-245.5 "/>
<text text-anchor="start" x="10" y="-233.5" font-family="Helvetica,sans-Serif" font-size="10.00">+ connect()</text>
<text text-anchor="start" x="10" y="-222.5" font-family="Helvetica,sans-Serif" font-size="10.00">+ makeShared()</text>
<text text-anchor="start" x="10" y="-211.5" font-family="Helvetica,sans-Serif" font-size="10.00">+ removeShared()</text>
<text text-anchor="start" x="10" y="-200.5" font-family="Helvetica,sans-Serif" font-size="10.00">+ getShared()</text>
<text text-anchor="start" x="10" y="-189.5" font-family="Helvetica,sans-Serif" font-size="10.00">+ addAction()</text>
<text text-anchor="start" x="10" y="-178.5" font-family="Helvetica,sans-Serif" font-size="10.00">+ flushActions()</text>
<text text-anchor="start" x="10" y="-167.5" font-family="Helvetica,sans-Serif" font-size="10.00">+ processActions()</text>
</a>
</g>
</g>
<!-- Node2&#45;&gt;Node1 -->
<g id="edge1" class="edge">
<title>Node2&#45;&gt;Node1</title>
<path fill="none" stroke="#404040" d="M64,-160.12C64,-148.6 64,-136.48 64,-124.77"/>
<polygon fill="none" stroke="#404040" points="64,-124.76 60,-118.76 64,-112.76 68,-118.76 64,-124.76"/>
<text text-anchor="middle" x="104.5" y="-134" font-family="Helvetica,sans-Serif" font-size="10.00"> +networkManager</text>
</g>
</g>
</svg>
