<?xml version="1.0" encoding="UTF-8" standalone="no"?>
<!DOCTYPE svg PUBLIC "-//W3C//DTD SVG 1.1//EN"
 "http://www.w3.org/Graphics/SVG/1.1/DTD/svg11.dtd">
<!-- Generated by graphviz version 2.47.1 (20210421.1823)
 -->
<!-- Title: Cell Pages: 1 -->
<svg width="139pt" height="518pt"
 viewBox="0.00 0.00 139.00 518.00" xmlns="http://www.w3.org/2000/svg" xmlns:xlink="http://www.w3.org/1999/xlink">
<g id="graph0" class="graph" transform="scale(1 1) rotate(0) translate(4 514)">
<title>Cell</title>
<polygon fill="white" stroke="transparent" points="-4,4 -4,-514 135,-514 135,4 -4,4"/>
<!-- Node1 -->
<g id="node1" class="node">
<title>Node1</title>
<g id="a_node1"><a xlink:title=" ">
<polygon fill="#bfbfbf" stroke="black" points="14.5,-0.5 14.5,-255.5 116.5,-255.5 116.5,-0.5 14.5,-0.5"/>
<text text-anchor="middle" x="65.5" y="-243.5" font-family="Helvetica,sans-Serif" font-size="10.00">Cell</text>
<polyline fill="none" stroke="black" points="14.5,-236.5 116.5,-236.5 "/>
<text text-anchor="start" x="22.5" y="-224.5" font-family="Helvetica,sans-Serif" font-size="10.00">+ center</text>
<text text-anchor="start" x="22.5" y="-213.5" font-family="Helvetica,sans-Serif" font-size="10.00">+ owner</text>
<text text-anchor="start" x="22.5" y="-202.5" font-family="Helvetica,sans-Serif" font-size="10.00">+ adjacent</text>
<text text-anchor="start" x="22.5" y="-191.5" font-family="Helvetica,sans-Serif" font-size="10.00">+ landscapeFlags</text>
<text text-anchor="start" x="22.5" y="-180.5" font-family="Helvetica,sans-Serif" font-size="10.00">+ bordersFlags</text>
<text text-anchor="start" x="22.5" y="-169.5" font-family="Helvetica,sans-Serif" font-size="10.00">+ vertices</text>
<polyline fill="none" stroke="black" points="14.5,-162.5 116.5,-162.5 "/>
<text text-anchor="start" x="22.5" y="-150.5" font-family="Helvetica,sans-Serif" font-size="10.00">+ Cell()</text>
<text text-anchor="start" x="22.5" y="-139.5" font-family="Helvetica,sans-Serif" font-size="10.00">+ setOwner()</text>
<text text-anchor="start" x="22.5" y="-128.5" font-family="Helvetica,sans-Serif" font-size="10.00">+ isProtected()</text>
<text text-anchor="start" x="22.5" y="-117.5" font-family="Helvetica,sans-Serif" font-size="10.00">+ addSquad()</text>
<text text-anchor="start" x="22.5" y="-106.5" font-family="Helvetica,sans-Serif" font-size="10.00">+ deleteSquad()</text>
<text text-anchor="start" x="22.5" y="-95.5" font-family="Helvetica,sans-Serif" font-size="10.00">+ getSquad()</text>
<text text-anchor="start" x="22.5" y="-84.5" font-family="Helvetica,sans-Serif" font-size="10.00">+ setAdjacent()</text>
<text text-anchor="start" x="22.5" y="-73.5" font-family="Helvetica,sans-Serif" font-size="10.00">+ setBorders()</text>
<text text-anchor="start" x="22.5" y="-62.5" font-family="Helvetica,sans-Serif" font-size="10.00">+ tick()</text>
<text text-anchor="start" x="22.5" y="-51.5" font-family="Helvetica,sans-Serif" font-size="10.00">+ lateTick()</text>
<text text-anchor="start" x="22.5" y="-40.5" font-family="Helvetica,sans-Serif" font-size="10.00">+ render()</text>
<text text-anchor="start" x="22.5" y="-29.5" font-family="Helvetica,sans-Serif" font-size="10.00">+ getRenderEdges()</text>
<text text-anchor="start" x="22.5" y="-18.5" font-family="Helvetica,sans-Serif" font-size="10.00">+ tryOnClick()</text>
<text text-anchor="start" x="22.5" y="-7.5" font-family="Helvetica,sans-Serif" font-size="10.00">+ doOnClick()</text>
</a>
</g>
</g>
<!-- Node2 -->
<g id="node2" class="node">
<title>Node2</title>
<g id="a_node2"><a xlink:href="classengine_1_1gameplay_clickable_game_object.html" target="_top" xlink:title=" ">
<polygon fill="white" stroke="black" points="0,-292.5 0,-360.5 131,-360.5 131,-292.5 0,-292.5"/>
<text text-anchor="start" x="8" y="-348.5" font-family="Helvetica,sans-Serif" font-size="10.00">engine::gameplayClickable</text>
<text text-anchor="middle" x="65.5" y="-337.5" font-family="Helvetica,sans-Serif" font-size="10.00">GameObject</text>
<polyline fill="none" stroke="black" points="0,-330.5 131,-330.5 "/>
<text text-anchor="start" x="8" y="-318.5" font-family="Helvetica,sans-Serif" font-size="10.00">+ previousClick</text>
<polyline fill="none" stroke="black" points="0,-311.5 131,-311.5 "/>
<text text-anchor="start" x="8" y="-299.5" font-family="Helvetica,sans-Serif" font-size="10.00">+ doOnClick()</text>
</a>
</g>
</g>
<!-- Node2&#45;&gt;Node1 -->
<g id="edge1" class="edge">
<title>Node2&#45;&gt;Node1</title>
<path fill="none" stroke="midnightblue" d="M65.5,-281.98C65.5,-273.89 65.5,-265.07 65.5,-255.88"/>
<polygon fill="none" stroke="midnightblue" points="62,-282.17 65.5,-292.17 69,-282.17 62,-282.17"/>
</g>
<!-- Node3 -->
<g id="node3" class="node">
<title>Node3</title>
<g id="a_node3"><a xlink:href="classengine_1_1game_object.html" target="_top" xlink:title=" ">
<polygon fill="white" stroke="black" points="1,-397.5 1,-509.5 130,-509.5 130,-397.5 1,-397.5"/>
<text text-anchor="middle" x="65.5" y="-497.5" font-family="Helvetica,sans-Serif" font-size="10.00">engine::gameObject</text>
<polyline fill="none" stroke="black" points="1,-490.5 130,-490.5 "/>
<text text-anchor="start" x="9" y="-478.5" font-family="Helvetica,sans-Serif" font-size="10.00">+ id</text>
<text text-anchor="start" x="9" y="-467.5" font-family="Helvetica,sans-Serif" font-size="10.00">+ gameObjectListPosition</text>
<polyline fill="none" stroke="black" points="1,-460.5 130,-460.5 "/>
<text text-anchor="start" x="9" y="-448.5" font-family="Helvetica,sans-Serif" font-size="10.00">+ tick()</text>
<text text-anchor="start" x="9" y="-437.5" font-family="Helvetica,sans-Serif" font-size="10.00">+ lateTick()</text>
<text text-anchor="start" x="9" y="-426.5" font-family="Helvetica,sans-Serif" font-size="10.00">+ render()</text>
<text text-anchor="start" x="9" y="-415.5" font-family="Helvetica,sans-Serif" font-size="10.00">+ getRenderEdges()</text>
<text text-anchor="start" x="9" y="-404.5" font-family="Helvetica,sans-Serif" font-size="10.00">+ tryOnClick()</text>
</a>
</g>
</g>
<!-- Node3&#45;&gt;Node2 -->
<g id="edge2" class="edge">
<title>Node3&#45;&gt;Node2</title>
<path fill="none" stroke="midnightblue" d="M65.5,-387.26C65.5,-377.99 65.5,-368.8 65.5,-360.51"/>
<polygon fill="none" stroke="midnightblue" points="62,-387.31 65.5,-397.31 69,-387.31 62,-387.31"/>
</g>
</g>
</svg>
