<?xml version="1.0" encoding="UTF-8" standalone="no"?>
<!DOCTYPE svg PUBLIC "-//W3C//DTD SVG 1.1//EN"
 "http://www.w3.org/Graphics/SVG/1.1/DTD/svg11.dtd">
<!-- Generated by graphviz version 2.47.1 (20210421.1823)
 -->
<!-- Title: Units::TransportUnit Pages: 1 -->
<svg width="325pt" height="1071pt"
 viewBox="0.00 0.00 324.50 1071.00" xmlns="http://www.w3.org/2000/svg" xmlns:xlink="http://www.w3.org/1999/xlink">
<g id="graph0" class="graph" transform="scale(1 1) rotate(0) translate(4 1067)">
<title>Units::TransportUnit</title>
<polygon fill="white" stroke="transparent" points="-4,4 -4,-1067 320.5,-1067 320.5,4 -4,4"/>
<!-- Node1 -->
<g id="node1" class="node">
<title>Node1</title>
<g id="a_node1"><a xlink:title=" ">
<polygon fill="#bfbfbf" stroke="black" points="96.5,-0.5 96.5,-134.5 200.5,-134.5 200.5,-0.5 96.5,-0.5"/>
<text text-anchor="middle" x="148.5" y="-122.5" font-family="Helvetica,sans-Serif" font-size="10.00">Units::TransportUnit</text>
<polyline fill="none" stroke="black" points="96.5,-115.5 200.5,-115.5 "/>
<text text-anchor="middle" x="148.5" y="-103.5" font-family="Helvetica,sans-Serif" font-size="10.00"> </text>
<polyline fill="none" stroke="black" points="96.5,-96.5 200.5,-96.5 "/>
<text text-anchor="start" x="104.5" y="-84.5" font-family="Helvetica,sans-Serif" font-size="10.00">+ getAttack()</text>
<text text-anchor="start" x="104.5" y="-73.5" font-family="Helvetica,sans-Serif" font-size="10.00">+ isPossibleToAdd()</text>
<text text-anchor="start" x="104.5" y="-62.5" font-family="Helvetica,sans-Serif" font-size="10.00">+ addUnit()</text>
<text text-anchor="start" x="104.5" y="-51.5" font-family="Helvetica,sans-Serif" font-size="10.00">+ deleteUnit()</text>
<text text-anchor="start" x="104.5" y="-40.5" font-family="Helvetica,sans-Serif" font-size="10.00">+ TransportUnit()</text>
<text text-anchor="start" x="104.5" y="-29.5" font-family="Helvetica,sans-Serif" font-size="10.00">+ setStats()</text>
<text text-anchor="start" x="104.5" y="-18.5" font-family="Helvetica,sans-Serif" font-size="10.00">+ tick()</text>
<text text-anchor="start" x="104.5" y="-7.5" font-family="Helvetica,sans-Serif" font-size="10.00">+ changeHP()</text>
</a>
</g>
</g>
<!-- Node2 -->
<g id="node2" class="node">
<title>Node2</title>
<g id="a_node2"><a xlink:href="class_units_1_1_unit.html" target="_top" xlink:title=" ">
<polygon fill="white" stroke="black" points="78.5,-172.5 78.5,-460.5 218.5,-460.5 218.5,-172.5 78.5,-172.5"/>
<text text-anchor="middle" x="148.5" y="-448.5" font-family="Helvetica,sans-Serif" font-size="10.00">Units::Unit</text>
<polyline fill="none" stroke="black" points="78.5,-441.5 218.5,-441.5 "/>
<text text-anchor="start" x="86.5" y="-429.5" font-family="Helvetica,sans-Serif" font-size="10.00">+ name</text>
<text text-anchor="start" x="86.5" y="-418.5" font-family="Helvetica,sans-Serif" font-size="10.00">+ texture</text>
<text text-anchor="start" x="86.5" y="-407.5" font-family="Helvetica,sans-Serif" font-size="10.00">+ weight</text>
<text text-anchor="start" x="86.5" y="-396.5" font-family="Helvetica,sans-Serif" font-size="10.00">+ landscapeFlagResists</text>
<text text-anchor="start" x="86.5" y="-385.5" font-family="Helvetica,sans-Serif" font-size="10.00">+ borderFlagResists</text>
<text text-anchor="start" x="86.5" y="-374.5" font-family="Helvetica,sans-Serif" font-size="10.00">+ commonSpeed</text>
<text text-anchor="start" x="86.5" y="-363.5" font-family="Helvetica,sans-Serif" font-size="10.00"># currentUsageOfOrder</text>
<text text-anchor="start" x="86.5" y="-352.5" font-family="Helvetica,sans-Serif" font-size="10.00"># allOrders</text>
<text text-anchor="start" x="86.5" y="-341.5" font-family="Helvetica,sans-Serif" font-size="10.00"># unitLandscapeFlagResists</text>
<text text-anchor="start" x="86.5" y="-330.5" font-family="Helvetica,sans-Serif" font-size="10.00"># unitBorderFlagResists</text>
<text text-anchor="start" x="86.5" y="-319.5" font-family="Helvetica,sans-Serif" font-size="10.00"># unitSpeed</text>
<text text-anchor="start" x="86.5" y="-308.5" font-family="Helvetica,sans-Serif" font-size="10.00"># HP</text>
<text text-anchor="start" x="86.5" y="-297.5" font-family="Helvetica,sans-Serif" font-size="10.00"># fullHP</text>
<polyline fill="none" stroke="black" points="78.5,-290.5 218.5,-290.5 "/>
<text text-anchor="start" x="86.5" y="-278.5" font-family="Helvetica,sans-Serif" font-size="10.00">+ Unit()</text>
<text text-anchor="start" x="86.5" y="-267.5" font-family="Helvetica,sans-Serif" font-size="10.00">+ Unit()</text>
<text text-anchor="start" x="86.5" y="-256.5" font-family="Helvetica,sans-Serif" font-size="10.00">+ setSquad()</text>
<text text-anchor="start" x="86.5" y="-245.5" font-family="Helvetica,sans-Serif" font-size="10.00">+ changeHP()</text>
<text text-anchor="start" x="86.5" y="-234.5" font-family="Helvetica,sans-Serif" font-size="10.00">+ isAlive()</text>
<text text-anchor="start" x="86.5" y="-223.5" font-family="Helvetica,sans-Serif" font-size="10.00">+ tick()</text>
<text text-anchor="start" x="86.5" y="-212.5" font-family="Helvetica,sans-Serif" font-size="10.00">+ getAttack()</text>
<text text-anchor="start" x="86.5" y="-201.5" font-family="Helvetica,sans-Serif" font-size="10.00">+ isOrderPossible()</text>
<text text-anchor="start" x="86.5" y="-190.5" font-family="Helvetica,sans-Serif" font-size="10.00">+ enableOrder()</text>
<text text-anchor="start" x="86.5" y="-179.5" font-family="Helvetica,sans-Serif" font-size="10.00">+ disableOrder()</text>
</a>
</g>
</g>
<!-- Node2&#45;&gt;Node1 -->
<g id="edge1" class="edge">
<title>Node2&#45;&gt;Node1</title>
<path fill="none" stroke="midnightblue" d="M148.5,-161.91C148.5,-152.52 148.5,-143.38 148.5,-134.73"/>
<polygon fill="none" stroke="midnightblue" points="145,-162.18 148.5,-172.18 152,-162.18 145,-162.18"/>
</g>
<!-- Node3 -->
<g id="node3" class="node">
<title>Node3</title>
<g id="a_node3"><a xlink:href="class_unit_order.html" target="_top" xlink:title=" ">
<polygon fill="white" stroke="black" points="77,-569 77,-637 136,-637 136,-569 77,-569"/>
<text text-anchor="middle" x="106.5" y="-625" font-family="Helvetica,sans-Serif" font-size="10.00">UnitOrder</text>
<polyline fill="none" stroke="black" points="77,-618 136,-618 "/>
<text text-anchor="middle" x="106.5" y="-606" font-family="Helvetica,sans-Serif" font-size="10.00"> </text>
<polyline fill="none" stroke="black" points="77,-599 136,-599 "/>
<text text-anchor="start" x="85" y="-587" font-family="Helvetica,sans-Serif" font-size="10.00">+ tick()</text>
<text text-anchor="start" x="85" y="-576" font-family="Helvetica,sans-Serif" font-size="10.00">+ copy()</text>
</a>
</g>
</g>
<!-- Node3&#45;&gt;Node2 -->
<g id="edge2" class="edge">
<title>Node3&#45;&gt;Node2</title>
<path fill="none" stroke="#404040" d="M108.96,-568.76C110.99,-543.96 114.22,-509.27 118.5,-479 118.79,-476.96 119.08,-474.91 119.39,-472.85"/>
<polygon fill="none" stroke="#404040" points="119.39,-472.79 116.34,-466.26 121.19,-460.93 124.25,-467.46 119.39,-472.79"/>
<text text-anchor="middle" x="149.5" y="-482" font-family="Helvetica,sans-Serif" font-size="10.00"> #currentOrder</text>
</g>
<!-- Node4 -->
<g id="node4" class="node">
<title>Node4</title>
<g id="a_node4"><a xlink:href="class_squads_1_1_squad.html" target="_top" xlink:title=" ">
<polygon fill="white" stroke="black" points="154,-508.5 154,-697.5 275,-697.5 275,-508.5 154,-508.5"/>
<text text-anchor="middle" x="214.5" y="-685.5" font-family="Helvetica,sans-Serif" font-size="10.00">Squads::Squad</text>
<polyline fill="none" stroke="black" points="154,-678.5 275,-678.5 "/>
<text text-anchor="start" x="162" y="-666.5" font-family="Helvetica,sans-Serif" font-size="10.00">+ currentSpeed</text>
<text text-anchor="start" x="162" y="-655.5" font-family="Helvetica,sans-Serif" font-size="10.00">+ landscapeFlagResists</text>
<text text-anchor="start" x="162" y="-644.5" font-family="Helvetica,sans-Serif" font-size="10.00">+ borderFlagResists</text>
<polyline fill="none" stroke="black" points="154,-637.5 275,-637.5 "/>
<text text-anchor="start" x="162" y="-625.5" font-family="Helvetica,sans-Serif" font-size="10.00">+ setOwner()</text>
<text text-anchor="start" x="162" y="-614.5" font-family="Helvetica,sans-Serif" font-size="10.00">+ setCell()</text>
<text text-anchor="start" x="162" y="-603.5" font-family="Helvetica,sans-Serif" font-size="10.00">+ damageUnit()</text>
<text text-anchor="start" x="162" y="-592.5" font-family="Helvetica,sans-Serif" font-size="10.00">+ getAttack()</text>
<text text-anchor="start" x="162" y="-581.5" font-family="Helvetica,sans-Serif" font-size="10.00">+ Squad()</text>
<text text-anchor="start" x="162" y="-570.5" font-family="Helvetica,sans-Serif" font-size="10.00">+ ~Squad()</text>
<text text-anchor="start" x="162" y="-559.5" font-family="Helvetica,sans-Serif" font-size="10.00">+ tick()</text>
<text text-anchor="start" x="162" y="-548.5" font-family="Helvetica,sans-Serif" font-size="10.00">+ lateTick()</text>
<text text-anchor="start" x="162" y="-537.5" font-family="Helvetica,sans-Serif" font-size="10.00">+ render()</text>
<text text-anchor="start" x="162" y="-526.5" font-family="Helvetica,sans-Serif" font-size="10.00">+ tryOnClick()</text>
<text text-anchor="start" x="162" y="-515.5" font-family="Helvetica,sans-Serif" font-size="10.00">+ doOnClick()</text>
</a>
</g>
</g>
<!-- Node4&#45;&gt;Node2 -->
<g id="edge3" class="edge">
<title>Node4&#45;&gt;Node2</title>
<path fill="none" stroke="#404040" d="M192.8,-508.45C190.09,-496.79 187.27,-484.63 184.42,-472.35"/>
<polygon fill="none" stroke="#404040" points="184.4,-472.24 179.15,-467.3 181.69,-460.55 186.94,-465.49 184.4,-472.24"/>
<text text-anchor="middle" x="204.5" y="-482" font-family="Helvetica,sans-Serif" font-size="10.00"> #squad</text>
</g>
<!-- Node5 -->
<g id="node5" class="node">
<title>Node5</title>
<g id="a_node5"><a xlink:href="classengine_1_1gameplay_clickable_game_object.html" target="_top" xlink:title=" ">
<polygon fill="white" stroke="black" points="0,-795 0,-863 131,-863 131,-795 0,-795"/>
<text text-anchor="start" x="8" y="-851" font-family="Helvetica,sans-Serif" font-size="10.00">engine::gameplayClickable</text>
<text text-anchor="middle" x="65.5" y="-840" font-family="Helvetica,sans-Serif" font-size="10.00">GameObject</text>
<polyline fill="none" stroke="black" points="0,-833 131,-833 "/>
<text text-anchor="middle" x="65.5" y="-821" font-family="Helvetica,sans-Serif" font-size="10.00"> </text>
<polyline fill="none" stroke="black" points="0,-814 131,-814 "/>
<text text-anchor="start" x="8" y="-802" font-family="Helvetica,sans-Serif" font-size="10.00">+ doOnClick()</text>
</a>
</g>
</g>
<!-- Node5&#45;&gt;Node4 -->
<g id="edge4" class="edge">
<title>Node5&#45;&gt;Node4</title>
<path fill="none" stroke="midnightblue" d="M93.05,-786.59C110.1,-760.95 132.69,-726.99 153.76,-695.31"/>
<polygon fill="none" stroke="midnightblue" points="90.11,-784.68 87.49,-794.95 95.94,-788.56 90.11,-784.68"/>
</g>
<!-- Node5&#45;&gt;Node5 -->
<g id="edge6" class="edge">
<title>Node5&#45;&gt;Node5</title>
<path fill="none" stroke="#404040" d="M131.31,-846.61C141.81,-844.03 149,-838.16 149,-829 149,-823.7 146.6,-819.5 142.54,-816.41"/>
<polygon fill="none" stroke="#404040" points="142.26,-816.28 135.15,-817.49 131.31,-811.39 138.42,-810.18 142.26,-816.28"/>
<text text-anchor="middle" x="182.5" y="-826.5" font-family="Helvetica,sans-Serif" font-size="10.00"> +previousClick</text>
</g>
<!-- Node6 -->
<g id="node6" class="node">
<title>Node6</title>
<g id="a_node6"><a xlink:href="classengine_1_1game_object.html" target="_top" xlink:title=" ">
<polygon fill="white" stroke="black" points="1,-950.5 1,-1062.5 130,-1062.5 130,-950.5 1,-950.5"/>
<text text-anchor="middle" x="65.5" y="-1050.5" font-family="Helvetica,sans-Serif" font-size="10.00">engine::gameObject</text>
<polyline fill="none" stroke="black" points="1,-1043.5 130,-1043.5 "/>
<text text-anchor="start" x="9" y="-1031.5" font-family="Helvetica,sans-Serif" font-size="10.00">+ id</text>
<text text-anchor="start" x="9" y="-1020.5" font-family="Helvetica,sans-Serif" font-size="10.00">+ gameObjectListPosition</text>
<polyline fill="none" stroke="black" points="1,-1013.5 130,-1013.5 "/>
<text text-anchor="start" x="9" y="-1001.5" font-family="Helvetica,sans-Serif" font-size="10.00">+ tick()</text>
<text text-anchor="start" x="9" y="-990.5" font-family="Helvetica,sans-Serif" font-size="10.00">+ lateTick()</text>
<text text-anchor="start" x="9" y="-979.5" font-family="Helvetica,sans-Serif" font-size="10.00">+ render()</text>
<text text-anchor="start" x="9" y="-968.5" font-family="Helvetica,sans-Serif" font-size="10.00">+ getRenderEdges()</text>
<text text-anchor="start" x="9" y="-957.5" font-family="Helvetica,sans-Serif" font-size="10.00">+ tryOnClick()</text>
</a>
</g>
</g>
<!-- Node6&#45;&gt;Node5 -->
<g id="edge5" class="edge">
<title>Node6&#45;&gt;Node5</title>
<path fill="none" stroke="midnightblue" d="M65.5,-940.18C65.5,-913.95 65.5,-884.85 65.5,-863.14"/>
<polygon fill="none" stroke="midnightblue" points="62,-940.45 65.5,-950.45 69,-940.45 62,-940.45"/>
</g>
<!-- Node7 -->
<g id="node7" class="node">
<title>Node7</title>
<g id="a_node7"><a xlink:href="class_squads_1_1_action.html" target="_top" xlink:title=" ">
<polygon fill="white" stroke="black" points="234.5,-745.5 234.5,-912.5 316.5,-912.5 316.5,-745.5 234.5,-745.5"/>
<text text-anchor="middle" x="275.5" y="-900.5" font-family="Helvetica,sans-Serif" font-size="10.00">Squads::Action</text>
<polyline fill="none" stroke="black" points="234.5,-893.5 316.5,-893.5 "/>
<text text-anchor="middle" x="275.5" y="-881.5" font-family="Helvetica,sans-Serif" font-size="10.00"> </text>
<polyline fill="none" stroke="black" points="234.5,-874.5 316.5,-874.5 "/>
<text text-anchor="start" x="242.5" y="-862.5" font-family="Helvetica,sans-Serif" font-size="10.00">+ Action()</text>
<text text-anchor="start" x="242.5" y="-851.5" font-family="Helvetica,sans-Serif" font-size="10.00">+ nextStep()</text>
<text text-anchor="start" x="242.5" y="-840.5" font-family="Helvetica,sans-Serif" font-size="10.00">+ move()</text>
<text text-anchor="start" x="242.5" y="-829.5" font-family="Helvetica,sans-Serif" font-size="10.00">+ attack()</text>
<text text-anchor="start" x="242.5" y="-818.5" font-family="Helvetica,sans-Serif" font-size="10.00">+ calcSpeed()</text>
<text text-anchor="start" x="242.5" y="-807.5" font-family="Helvetica,sans-Serif" font-size="10.00">+ findPath()</text>
<text text-anchor="start" x="242.5" y="-796.5" font-family="Helvetica,sans-Serif" font-size="10.00">+ stopAction()</text>
<text text-anchor="start" x="242.5" y="-785.5" font-family="Helvetica,sans-Serif" font-size="10.00">+ setPath()</text>
<text text-anchor="start" x="242.5" y="-774.5" font-family="Helvetica,sans-Serif" font-size="10.00">+ setPath()</text>
<text text-anchor="start" x="242.5" y="-763.5" font-family="Helvetica,sans-Serif" font-size="10.00">+ tick()</text>
<text text-anchor="start" x="242.5" y="-752.5" font-family="Helvetica,sans-Serif" font-size="10.00">+ render()</text>
</a>
</g>
</g>
<!-- Node7&#45;&gt;Node4 -->
<g id="edge7" class="edge">
<title>Node7&#45;&gt;Node4</title>
<path fill="none" stroke="#404040" d="M252.96,-745.23C249.8,-733.64 246.52,-721.6 243.27,-709.65"/>
<polygon fill="none" stroke="#404040" points="243.19,-709.34 237.75,-704.6 240.03,-697.76 245.47,-702.5 243.19,-709.34"/>
<text text-anchor="middle" x="264" y="-719" font-family="Helvetica,sans-Serif" font-size="10.00"> +action</text>
</g>
</g>
</svg>
