<?xml version="1.0" encoding="UTF-8" standalone="no"?>
<!DOCTYPE svg PUBLIC "-//W3C//DTD SVG 1.1//EN"
 "http://www.w3.org/Graphics/SVG/1.1/DTD/svg11.dtd">
<!-- Generated by graphviz version 2.47.1 (20210421.1823)
 -->
<!-- Title: Squads::Squad::~Squad Pages: 1 -->
<svg width="432pt" height="137pt"
 viewBox="0.00 0.00 432.00 137.00" xmlns="http://www.w3.org/2000/svg" xmlns:xlink="http://www.w3.org/1999/xlink">
<g id="graph0" class="graph" transform="scale(1 1) rotate(0) translate(4 133)">
<title>Squads::Squad::~Squad</title>
<polygon fill="white" stroke="transparent" points="-4,4 -4,-133 428,-133 428,4 -4,4"/>
<!-- Node1 -->
<g id="node1" class="node">
<title>Node1</title>
<g id="a_node1"><a xlink:title=" ">
<polygon fill="#bfbfbf" stroke="black" points="0,-55 0,-74 119,-74 119,-55 0,-55"/>
<text text-anchor="middle" x="59.5" y="-62" font-family="Helvetica,sans-Serif" font-size="10.00">Squads::Squad::~Squad</text>
</a>
</g>
</g>
<!-- Node2 -->
<g id="node2" class="node">
<title>Node2</title>
<g id="a_node2"><a xlink:href="classengine_1_1game_controller.html#ae2459bdafdf03e3b1519a14738744f00" target="_top" xlink:title=" ">
<polygon fill="white" stroke="black" points="159.5,-98.5 159.5,-128.5 274.5,-128.5 274.5,-98.5 159.5,-98.5"/>
<text text-anchor="start" x="167.5" y="-116.5" font-family="Helvetica,sans-Serif" font-size="10.00">engine::gameController</text>
<text text-anchor="middle" x="217" y="-105.5" font-family="Helvetica,sans-Serif" font-size="10.00">::Instance</text>
</a>
</g>
</g>
<!-- Node1&#45;&gt;Node2 -->
<g id="edge1" class="edge">
<title>Node1&#45;&gt;Node2</title>
<path fill="none" stroke="midnightblue" d="M90.85,-74.06C110.11,-80.13 135.64,-88.18 158.62,-95.42"/>
<polygon fill="midnightblue" stroke="midnightblue" points="157.69,-98.8 168.28,-98.46 159.79,-92.12 157.69,-98.8"/>
</g>
<!-- Node3 -->
<g id="node3" class="node">
<title>Node3</title>
<g id="a_node3"><a xlink:href="classengine_1_1_network_manager.html#a24ad8e55544b747036f628c466e617d8" target="_top" xlink:title=" ">
<polygon fill="white" stroke="black" points="155,-49.5 155,-79.5 279,-79.5 279,-49.5 155,-49.5"/>
<text text-anchor="start" x="163" y="-67.5" font-family="Helvetica,sans-Serif" font-size="10.00">engine::NetworkManager</text>
<text text-anchor="middle" x="217" y="-56.5" font-family="Helvetica,sans-Serif" font-size="10.00">::removeShared</text>
</a>
</g>
</g>
<!-- Node1&#45;&gt;Node3 -->
<g id="edge2" class="edge">
<title>Node1&#45;&gt;Node3</title>
<path fill="none" stroke="midnightblue" d="M119.29,-64.5C127.54,-64.5 136.1,-64.5 144.56,-64.5"/>
<polygon fill="midnightblue" stroke="midnightblue" points="144.8,-68 154.8,-64.5 144.8,-61 144.8,-68"/>
</g>
<!-- Node6 -->
<g id="node6" class="node">
<title>Node6</title>
<g id="a_node6"><a xlink:href="classengine_1_1game_controller.html#ab112a24436bda384e0fa8c28362f5166" target="_top" xlink:title=" ">
<polygon fill="white" stroke="black" points="159.5,-0.5 159.5,-30.5 274.5,-30.5 274.5,-0.5 159.5,-0.5"/>
<text text-anchor="start" x="167.5" y="-18.5" font-family="Helvetica,sans-Serif" font-size="10.00">engine::gameController</text>
<text text-anchor="middle" x="217" y="-7.5" font-family="Helvetica,sans-Serif" font-size="10.00">::unregisterObject</text>
</a>
</g>
</g>
<!-- Node1&#45;&gt;Node6 -->
<g id="edge5" class="edge">
<title>Node1&#45;&gt;Node6</title>
<path fill="none" stroke="midnightblue" d="M90.85,-54.94C110.11,-48.87 135.64,-40.82 158.62,-33.58"/>
<polygon fill="midnightblue" stroke="midnightblue" points="159.79,-36.88 168.28,-30.54 157.69,-30.2 159.79,-36.88"/>
</g>
<!-- Node4 -->
<g id="node4" class="node">
<title>Node4</title>
<g id="a_node4"><a xlink:href="classengine_1_1game_object.html#a8053816dc4af5fb4c0755edd6bae1069" target="_top" xlink:title=" ">
<polygon fill="white" stroke="black" points="318.5,-71.5 318.5,-101.5 420.5,-101.5 420.5,-71.5 318.5,-71.5"/>
<text text-anchor="start" x="326.5" y="-89.5" font-family="Helvetica,sans-Serif" font-size="10.00">engine::gameObject</text>
<text text-anchor="middle" x="369.5" y="-78.5" font-family="Helvetica,sans-Serif" font-size="10.00">::repr</text>
</a>
</g>
</g>
<!-- Node3&#45;&gt;Node4 -->
<g id="edge3" class="edge">
<title>Node3&#45;&gt;Node4</title>
<path fill="none" stroke="midnightblue" d="M279.21,-73.45C288.78,-74.85 298.65,-76.29 308.19,-77.68"/>
<polygon fill="midnightblue" stroke="midnightblue" points="307.98,-81.19 318.39,-79.17 309,-74.26 307.98,-81.19"/>
</g>
<!-- Node5 -->
<g id="node5" class="node">
<title>Node5</title>
<g id="a_node5"><a xlink:href="classengine_1_1_logger.html#aa4821d031aaabdef211acc1e04db1f04" target="_top" xlink:title=" ">
<polygon fill="white" stroke="black" points="315,-33 315,-52 424,-52 424,-33 315,-33"/>
<text text-anchor="middle" x="369.5" y="-40" font-family="Helvetica,sans-Serif" font-size="10.00">engine::Logger::Trace</text>
</a>
</g>
</g>
<!-- Node3&#45;&gt;Node5 -->
<g id="edge4" class="edge">
<title>Node3&#45;&gt;Node5</title>
<path fill="none" stroke="midnightblue" d="M279.21,-55.55C287.55,-54.33 296.11,-53.08 304.49,-51.86"/>
<polygon fill="midnightblue" stroke="midnightblue" points="305.2,-55.29 314.59,-50.38 304.19,-48.36 305.2,-55.29"/>
</g>
</g>
</svg>
