<?xml version="1.0" encoding="UTF-8" standalone="no"?>
<!DOCTYPE svg PUBLIC "-//W3C//DTD SVG 1.1//EN"
 "http://www.w3.org/Graphics/SVG/1.1/DTD/svg11.dtd">
<!-- Generated by graphviz version 2.47.1 (20210421.1823)
 -->
<!-- Title: Units::Unit Pages: 1 -->
<svg width="325pt" height="910pt"
 viewBox="0.00 0.00 324.50 910.00" xmlns="http://www.w3.org/2000/svg" xmlns:xlink="http://www.w3.org/1999/xlink">
<g id="graph0" class="graph" transform="scale(1 1) rotate(0) translate(4 906)">
<title>Units::Unit</title>
<polygon fill="white" stroke="transparent" points="-4,4 -4,-906 320.5,-906 320.5,4 -4,4"/>
<!-- Node1 -->
<g id="node1" class="node">
<title>Node1</title>
<g id="a_node1"><a xlink:title=" ">
<polygon fill="#bfbfbf" stroke="black" points="78.5,-0.5 78.5,-299.5 218.5,-299.5 218.5,-0.5 78.5,-0.5"/>
<text text-anchor="middle" x="148.5" y="-287.5" font-family="Helvetica,sans-Serif" font-size="10.00">Units::Unit</text>
<polyline fill="none" stroke="black" points="78.5,-280.5 218.5,-280.5 "/>
<text text-anchor="start" x="86.5" y="-268.5" font-family="Helvetica,sans-Serif" font-size="10.00">+ name</text>
<text text-anchor="start" x="86.5" y="-257.5" font-family="Helvetica,sans-Serif" font-size="10.00">+ texture</text>
<text text-anchor="start" x="86.5" y="-246.5" font-family="Helvetica,sans-Serif" font-size="10.00">+ weight</text>
<text text-anchor="start" x="86.5" y="-235.5" font-family="Helvetica,sans-Serif" font-size="10.00">+ landscapeFlagResists</text>
<text text-anchor="start" x="86.5" y="-224.5" font-family="Helvetica,sans-Serif" font-size="10.00">+ borderFlagResists</text>
<text text-anchor="start" x="86.5" y="-213.5" font-family="Helvetica,sans-Serif" font-size="10.00">+ commonSpeed</text>
<text text-anchor="start" x="86.5" y="-202.5" font-family="Helvetica,sans-Serif" font-size="10.00"># currentUsageOfOrder</text>
<text text-anchor="start" x="86.5" y="-191.5" font-family="Helvetica,sans-Serif" font-size="10.00"># allOrders</text>
<text text-anchor="start" x="86.5" y="-180.5" font-family="Helvetica,sans-Serif" font-size="10.00"># unitLandscapeFlagResists</text>
<text text-anchor="start" x="86.5" y="-169.5" font-family="Helvetica,sans-Serif" font-size="10.00"># unitBorderFlagResists</text>
<text text-anchor="start" x="86.5" y="-158.5" font-family="Helvetica,sans-Serif" font-size="10.00"># unitSpeed</text>
<text text-anchor="start" x="86.5" y="-147.5" font-family="Helvetica,sans-Serif" font-size="10.00"># HP</text>
<text text-anchor="start" x="86.5" y="-136.5" font-family="Helvetica,sans-Serif" font-size="10.00"># fullHP</text>
<polyline fill="none" stroke="black" points="78.5,-129.5 218.5,-129.5 "/>
<text text-anchor="start" x="86.5" y="-117.5" font-family="Helvetica,sans-Serif" font-size="10.00">+ Unit()</text>
<text text-anchor="start" x="86.5" y="-106.5" font-family="Helvetica,sans-Serif" font-size="10.00">+ Unit()</text>
<text text-anchor="start" x="86.5" y="-95.5" font-family="Helvetica,sans-Serif" font-size="10.00">+ setSquad()</text>
<text text-anchor="start" x="86.5" y="-84.5" font-family="Helvetica,sans-Serif" font-size="10.00">+ changeHP()</text>
<text text-anchor="start" x="86.5" y="-73.5" font-family="Helvetica,sans-Serif" font-size="10.00">+ isAlive()</text>
<text text-anchor="start" x="86.5" y="-62.5" font-family="Helvetica,sans-Serif" font-size="10.00">+ drawHP()</text>
<text text-anchor="start" x="86.5" y="-51.5" font-family="Helvetica,sans-Serif" font-size="10.00">+ tick()</text>
<text text-anchor="start" x="86.5" y="-40.5" font-family="Helvetica,sans-Serif" font-size="10.00">+ getAttack()</text>
<text text-anchor="start" x="86.5" y="-29.5" font-family="Helvetica,sans-Serif" font-size="10.00">+ isOrderPossible()</text>
<text text-anchor="start" x="86.5" y="-18.5" font-family="Helvetica,sans-Serif" font-size="10.00">+ enableOrder()</text>
<text text-anchor="start" x="86.5" y="-7.5" font-family="Helvetica,sans-Serif" font-size="10.00">+ disableOrder()</text>
</a>
</g>
</g>
<!-- Node2 -->
<g id="node2" class="node">
<title>Node2</title>
<g id="a_node2"><a xlink:href="class_unit_order.html" target="_top" xlink:title=" ">
<polygon fill="white" stroke="black" points="77,-408 77,-476 136,-476 136,-408 77,-408"/>
<text text-anchor="middle" x="106.5" y="-464" font-family="Helvetica,sans-Serif" font-size="10.00">UnitOrder</text>
<polyline fill="none" stroke="black" points="77,-457 136,-457 "/>
<text text-anchor="middle" x="106.5" y="-445" font-family="Helvetica,sans-Serif" font-size="10.00"> </text>
<polyline fill="none" stroke="black" points="77,-438 136,-438 "/>
<text text-anchor="start" x="85" y="-426" font-family="Helvetica,sans-Serif" font-size="10.00">+ tick()</text>
<text text-anchor="start" x="85" y="-415" font-family="Helvetica,sans-Serif" font-size="10.00">+ copy()</text>
</a>
</g>
</g>
<!-- Node2&#45;&gt;Node1 -->
<g id="edge1" class="edge">
<title>Node2&#45;&gt;Node1</title>
<path fill="none" stroke="#404040" d="M109.01,-407.76C111.07,-382.97 114.31,-348.29 118.5,-318 118.78,-315.94 119.08,-313.87 119.37,-311.79"/>
<polygon fill="none" stroke="#404040" points="119.4,-311.64 116.31,-305.12 121.15,-299.77 124.23,-306.29 119.4,-311.64"/>
<text text-anchor="middle" x="149.5" y="-321" font-family="Helvetica,sans-Serif" font-size="10.00"> #currentOrder</text>
</g>
<!-- Node3 -->
<g id="node3" class="node">
<title>Node3</title>
<g id="a_node3"><a xlink:href="class_squads_1_1_squad.html" target="_top" xlink:title=" ">
<polygon fill="white" stroke="black" points="154,-347.5 154,-536.5 275,-536.5 275,-347.5 154,-347.5"/>
<text text-anchor="middle" x="214.5" y="-524.5" font-family="Helvetica,sans-Serif" font-size="10.00">Squads::Squad</text>
<polyline fill="none" stroke="black" points="154,-517.5 275,-517.5 "/>
<text text-anchor="start" x="162" y="-505.5" font-family="Helvetica,sans-Serif" font-size="10.00">+ currentSpeed</text>
<text text-anchor="start" x="162" y="-494.5" font-family="Helvetica,sans-Serif" font-size="10.00">+ landscapeFlagResists</text>
<text text-anchor="start" x="162" y="-483.5" font-family="Helvetica,sans-Serif" font-size="10.00">+ borderFlagResists</text>
<polyline fill="none" stroke="black" points="154,-476.5 275,-476.5 "/>
<text text-anchor="start" x="162" y="-464.5" font-family="Helvetica,sans-Serif" font-size="10.00">+ setOwner()</text>
<text text-anchor="start" x="162" y="-453.5" font-family="Helvetica,sans-Serif" font-size="10.00">+ setCell()</text>
<text text-anchor="start" x="162" y="-442.5" font-family="Helvetica,sans-Serif" font-size="10.00">+ damageUnit()</text>
<text text-anchor="start" x="162" y="-431.5" font-family="Helvetica,sans-Serif" font-size="10.00">+ getAttack()</text>
<text text-anchor="start" x="162" y="-420.5" font-family="Helvetica,sans-Serif" font-size="10.00">+ Squad()</text>
<text text-anchor="start" x="162" y="-409.5" font-family="Helvetica,sans-Serif" font-size="10.00">+ ~Squad()</text>
<text text-anchor="start" x="162" y="-398.5" font-family="Helvetica,sans-Serif" font-size="10.00">+ tick()</text>
<text text-anchor="start" x="162" y="-387.5" font-family="Helvetica,sans-Serif" font-size="10.00">+ lateTick()</text>
<text text-anchor="start" x="162" y="-376.5" font-family="Helvetica,sans-Serif" font-size="10.00">+ render()</text>
<text text-anchor="start" x="162" y="-365.5" font-family="Helvetica,sans-Serif" font-size="10.00">+ tryOnClick()</text>
<text text-anchor="start" x="162" y="-354.5" font-family="Helvetica,sans-Serif" font-size="10.00">+ doOnClick()</text>
</a>
</g>
</g>
<!-- Node3&#45;&gt;Node1 -->
<g id="edge2" class="edge">
<title>Node3&#45;&gt;Node1</title>
<path fill="none" stroke="#404040" d="M193.16,-347.25C190.52,-335.65 187.77,-323.54 184.98,-311.29"/>
<polygon fill="none" stroke="#404040" points="184.96,-311.22 179.73,-306.25 182.3,-299.52 187.53,-304.48 184.96,-311.22"/>
<text text-anchor="middle" x="204.5" y="-321" font-family="Helvetica,sans-Serif" font-size="10.00"> #squad</text>
</g>
<!-- Node4 -->
<g id="node4" class="node">
<title>Node4</title>
<g id="a_node4"><a xlink:href="classengine_1_1gameplay_clickable_game_object.html" target="_top" xlink:title=" ">
<polygon fill="white" stroke="black" points="0,-634 0,-702 131,-702 131,-634 0,-634"/>
<text text-anchor="start" x="8" y="-690" font-family="Helvetica,sans-Serif" font-size="10.00">engine::gameplayClickable</text>
<text text-anchor="middle" x="65.5" y="-679" font-family="Helvetica,sans-Serif" font-size="10.00">GameObject</text>
<polyline fill="none" stroke="black" points="0,-672 131,-672 "/>
<text text-anchor="middle" x="65.5" y="-660" font-family="Helvetica,sans-Serif" font-size="10.00"> </text>
<polyline fill="none" stroke="black" points="0,-653 131,-653 "/>
<text text-anchor="start" x="8" y="-641" font-family="Helvetica,sans-Serif" font-size="10.00">+ doOnClick()</text>
</a>
</g>
</g>
<!-- Node4&#45;&gt;Node3 -->
<g id="edge3" class="edge">
<title>Node4&#45;&gt;Node3</title>
<path fill="none" stroke="midnightblue" d="M93.05,-625.59C110.1,-599.95 132.69,-565.99 153.76,-534.31"/>
<polygon fill="none" stroke="midnightblue" points="90.11,-623.68 87.49,-633.95 95.94,-627.56 90.11,-623.68"/>
</g>
<!-- Node4&#45;&gt;Node4 -->
<g id="edge5" class="edge">
<title>Node4&#45;&gt;Node4</title>
<path fill="none" stroke="#404040" d="M131.31,-685.61C141.81,-683.03 149,-677.16 149,-668 149,-662.7 146.6,-658.5 142.54,-655.41"/>
<polygon fill="none" stroke="#404040" points="142.26,-655.28 135.15,-656.49 131.31,-650.39 138.42,-649.18 142.26,-655.28"/>
<text text-anchor="middle" x="182.5" y="-665.5" font-family="Helvetica,sans-Serif" font-size="10.00"> +previousClick</text>
</g>
<!-- Node5 -->
<g id="node5" class="node">
<title>Node5</title>
<g id="a_node5"><a xlink:href="classengine_1_1game_object.html" target="_top" xlink:title=" ">
<polygon fill="white" stroke="black" points="1,-789.5 1,-901.5 130,-901.5 130,-789.5 1,-789.5"/>
<text text-anchor="middle" x="65.5" y="-889.5" font-family="Helvetica,sans-Serif" font-size="10.00">engine::gameObject</text>
<polyline fill="none" stroke="black" points="1,-882.5 130,-882.5 "/>
<text text-anchor="start" x="9" y="-870.5" font-family="Helvetica,sans-Serif" font-size="10.00">+ id</text>
<text text-anchor="start" x="9" y="-859.5" font-family="Helvetica,sans-Serif" font-size="10.00">+ gameObjectListPosition</text>
<polyline fill="none" stroke="black" points="1,-852.5 130,-852.5 "/>
<text text-anchor="start" x="9" y="-840.5" font-family="Helvetica,sans-Serif" font-size="10.00">+ tick()</text>
<text text-anchor="start" x="9" y="-829.5" font-family="Helvetica,sans-Serif" font-size="10.00">+ lateTick()</text>
<text text-anchor="start" x="9" y="-818.5" font-family="Helvetica,sans-Serif" font-size="10.00">+ render()</text>
<text text-anchor="start" x="9" y="-807.5" font-family="Helvetica,sans-Serif" font-size="10.00">+ getRenderEdges()</text>
<text text-anchor="start" x="9" y="-796.5" font-family="Helvetica,sans-Serif" font-size="10.00">+ tryOnClick()</text>
</a>
</g>
</g>
<!-- Node5&#45;&gt;Node4 -->
<g id="edge4" class="edge">
<title>Node5&#45;&gt;Node4</title>
<path fill="none" stroke="midnightblue" d="M65.5,-779.18C65.5,-752.95 65.5,-723.85 65.5,-702.14"/>
<polygon fill="none" stroke="midnightblue" points="62,-779.45 65.5,-789.45 69,-779.45 62,-779.45"/>
</g>
<!-- Node6 -->
<g id="node6" class="node">
<title>Node6</title>
<g id="a_node6"><a xlink:href="class_squads_1_1_action.html" target="_top" xlink:title=" ">
<polygon fill="white" stroke="black" points="234.5,-584.5 234.5,-751.5 316.5,-751.5 316.5,-584.5 234.5,-584.5"/>
<text text-anchor="middle" x="275.5" y="-739.5" font-family="Helvetica,sans-Serif" font-size="10.00">Squads::Action</text>
<polyline fill="none" stroke="black" points="234.5,-732.5 316.5,-732.5 "/>
<text text-anchor="middle" x="275.5" y="-720.5" font-family="Helvetica,sans-Serif" font-size="10.00"> </text>
<polyline fill="none" stroke="black" points="234.5,-713.5 316.5,-713.5 "/>
<text text-anchor="start" x="242.5" y="-701.5" font-family="Helvetica,sans-Serif" font-size="10.00">+ Action()</text>
<text text-anchor="start" x="242.5" y="-690.5" font-family="Helvetica,sans-Serif" font-size="10.00">+ nextStep()</text>
<text text-anchor="start" x="242.5" y="-679.5" font-family="Helvetica,sans-Serif" font-size="10.00">+ move()</text>
<text text-anchor="start" x="242.5" y="-668.5" font-family="Helvetica,sans-Serif" font-size="10.00">+ attack()</text>
<text text-anchor="start" x="242.5" y="-657.5" font-family="Helvetica,sans-Serif" font-size="10.00">+ calcSpeed()</text>
<text text-anchor="start" x="242.5" y="-646.5" font-family="Helvetica,sans-Serif" font-size="10.00">+ findPath()</text>
<text text-anchor="start" x="242.5" y="-635.5" font-family="Helvetica,sans-Serif" font-size="10.00">+ stopAction()</text>
<text text-anchor="start" x="242.5" y="-624.5" font-family="Helvetica,sans-Serif" font-size="10.00">+ setPath()</text>
<text text-anchor="start" x="242.5" y="-613.5" font-family="Helvetica,sans-Serif" font-size="10.00">+ setPath()</text>
<text text-anchor="start" x="242.5" y="-602.5" font-family="Helvetica,sans-Serif" font-size="10.00">+ tick()</text>
<text text-anchor="start" x="242.5" y="-591.5" font-family="Helvetica,sans-Serif" font-size="10.00">+ render()</text>
</a>
</g>
</g>
<!-- Node6&#45;&gt;Node3 -->
<g id="edge6" class="edge">
<title>Node6&#45;&gt;Node3</title>
<path fill="none" stroke="#404040" d="M252.96,-584.23C249.8,-572.64 246.52,-560.6 243.27,-548.65"/>
<polygon fill="none" stroke="#404040" points="243.19,-548.34 237.75,-543.6 240.03,-536.76 245.47,-541.5 243.19,-548.34"/>
<text text-anchor="middle" x="264" y="-558" font-family="Helvetica,sans-Serif" font-size="10.00"> +action</text>
</g>
</g>
</svg>
