<?xml version="1.0" encoding="UTF-8" standalone="no"?>
<!DOCTYPE svg PUBLIC "-//W3C//DTD SVG 1.1//EN"
 "http://www.w3.org/Graphics/SVG/1.1/DTD/svg11.dtd">
<!-- Generated by graphviz version 2.47.1 (20210421.1823)
 -->
<!-- Title: engine::GUI::GuiStrip Pages: 1 -->
<svg width="137pt" height="419pt"
 viewBox="0.00 0.00 137.00 419.00" xmlns="http://www.w3.org/2000/svg" xmlns:xlink="http://www.w3.org/1999/xlink">
<g id="graph0" class="graph" transform="scale(1 1) rotate(0) translate(4 415)">
<title>engine::GUI::GuiStrip</title>
<polygon fill="white" stroke="transparent" points="-4,4 -4,-415 133,-415 133,4 -4,4"/>
<!-- Node1 -->
<g id="node1" class="node">
<title>Node1</title>
<g id="a_node1"><a xlink:title=" ">
<polygon fill="#bfbfbf" stroke="black" points="11,-0.5 11,-156.5 118,-156.5 118,-0.5 11,-0.5"/>
<text text-anchor="middle" x="64.5" y="-144.5" font-family="Helvetica,sans-Serif" font-size="10.00">engine::GUI::GuiStrip</text>
<polyline fill="none" stroke="black" points="11,-137.5 118,-137.5 "/>
<text text-anchor="start" x="19" y="-125.5" font-family="Helvetica,sans-Serif" font-size="10.00">+ background</text>
<text text-anchor="start" x="19" y="-114.5" font-family="Helvetica,sans-Serif" font-size="10.00"># children</text>
<text text-anchor="start" x="19" y="-103.5" font-family="Helvetica,sans-Serif" font-size="10.00"># layerHeight</text>
<text text-anchor="start" x="19" y="-92.5" font-family="Helvetica,sans-Serif" font-size="10.00"># currWidth</text>
<text text-anchor="start" x="19" y="-81.5" font-family="Helvetica,sans-Serif" font-size="10.00"># currHeight</text>
<polyline fill="none" stroke="black" points="11,-74.5 118,-74.5 "/>
<text text-anchor="start" x="19" y="-62.5" font-family="Helvetica,sans-Serif" font-size="10.00">+ GuiStrip()</text>
<text text-anchor="start" x="19" y="-51.5" font-family="Helvetica,sans-Serif" font-size="10.00">+ tick()</text>
<text text-anchor="start" x="19" y="-40.5" font-family="Helvetica,sans-Serif" font-size="10.00">+ lateTick()</text>
<text text-anchor="start" x="19" y="-29.5" font-family="Helvetica,sans-Serif" font-size="10.00">+ render()</text>
<text text-anchor="start" x="19" y="-18.5" font-family="Helvetica,sans-Serif" font-size="10.00">+ tryOnClick()</text>
<text text-anchor="start" x="19" y="-7.5" font-family="Helvetica,sans-Serif" font-size="10.00">+ addChild()</text>
</a>
</g>
</g>
<!-- Node2 -->
<g id="node2" class="node">
<title>Node2</title>
<g id="a_node2"><a xlink:href="classengine_1_1_g_u_i_1_1_gui_object.html" target="_top" xlink:title=" ">
<polygon fill="white" stroke="black" points="6.5,-193.5 6.5,-261.5 122.5,-261.5 122.5,-193.5 6.5,-193.5"/>
<text text-anchor="middle" x="64.5" y="-249.5" font-family="Helvetica,sans-Serif" font-size="10.00">engine::GUI::GuiObject</text>
<polyline fill="none" stroke="black" points="6.5,-242.5 122.5,-242.5 "/>
<text text-anchor="start" x="14.5" y="-230.5" font-family="Helvetica,sans-Serif" font-size="10.00">+ boundary</text>
<polyline fill="none" stroke="black" points="6.5,-223.5 122.5,-223.5 "/>
<text text-anchor="start" x="14.5" y="-211.5" font-family="Helvetica,sans-Serif" font-size="10.00">+ GuiObject()</text>
<text text-anchor="start" x="14.5" y="-200.5" font-family="Helvetica,sans-Serif" font-size="10.00">+ getRenderEdges()</text>
</a>
</g>
</g>
<!-- Node2&#45;&gt;Node1 -->
<g id="edge1" class="edge">
<title>Node2&#45;&gt;Node1</title>
<path fill="none" stroke="midnightblue" d="M64.5,-183C64.5,-174.7 64.5,-165.78 64.5,-156.79"/>
<polygon fill="none" stroke="midnightblue" points="61,-183.14 64.5,-193.14 68,-183.14 61,-183.14"/>
</g>
<!-- Node3 -->
<g id="node3" class="node">
<title>Node3</title>
<g id="a_node3"><a xlink:href="classengine_1_1game_object.html" target="_top" xlink:title=" ">
<polygon fill="white" stroke="black" points="0,-298.5 0,-410.5 129,-410.5 129,-298.5 0,-298.5"/>
<text text-anchor="middle" x="64.5" y="-398.5" font-family="Helvetica,sans-Serif" font-size="10.00">engine::gameObject</text>
<polyline fill="none" stroke="black" points="0,-391.5 129,-391.5 "/>
<text text-anchor="start" x="8" y="-379.5" font-family="Helvetica,sans-Serif" font-size="10.00">+ id</text>
<text text-anchor="start" x="8" y="-368.5" font-family="Helvetica,sans-Serif" font-size="10.00">+ gameObjectListPosition</text>
<polyline fill="none" stroke="black" points="0,-361.5 129,-361.5 "/>
<text text-anchor="start" x="8" y="-349.5" font-family="Helvetica,sans-Serif" font-size="10.00">+ tick()</text>
<text text-anchor="start" x="8" y="-338.5" font-family="Helvetica,sans-Serif" font-size="10.00">+ lateTick()</text>
<text text-anchor="start" x="8" y="-327.5" font-family="Helvetica,sans-Serif" font-size="10.00">+ render()</text>
<text text-anchor="start" x="8" y="-316.5" font-family="Helvetica,sans-Serif" font-size="10.00">+ getRenderEdges()</text>
<text text-anchor="start" x="8" y="-305.5" font-family="Helvetica,sans-Serif" font-size="10.00">+ tryOnClick()</text>
</a>
</g>
</g>
<!-- Node3&#45;&gt;Node2 -->
<g id="edge2" class="edge">
<title>Node3&#45;&gt;Node2</title>
<path fill="none" stroke="midnightblue" d="M64.5,-288.26C64.5,-278.99 64.5,-269.8 64.5,-261.51"/>
<polygon fill="none" stroke="midnightblue" points="61,-288.31 64.5,-298.31 68,-288.31 61,-288.31"/>
</g>
</g>
</svg>
