<?xml version="1.0" encoding="UTF-8" standalone="no"?>
<!DOCTYPE svg PUBLIC "-//W3C//DTD SVG 1.1//EN"
 "http://www.w3.org/Graphics/SVG/1.1/DTD/svg11.dtd">
<!-- Generated by graphviz version 2.47.1 (20210421.1823)
 -->
<!-- Title: engine::gameplayClickableGameObject Pages: 1 -->
<svg width="250pt" height="518pt"
 viewBox="0.00 0.00 249.50 518.00" xmlns="http://www.w3.org/2000/svg" xmlns:xlink="http://www.w3.org/1999/xlink">
<g id="graph0" class="graph" transform="scale(1 1) rotate(0) translate(4 514)">
<title>engine::gameplayClickableGameObject</title>
<polygon fill="white" stroke="transparent" points="-4,4 -4,-514 245.5,-514 245.5,4 -4,4"/>
<!-- Node1 -->
<g id="node1" class="node">
<title>Node1</title>
<g id="a_node1"><a xlink:title=" ">
<polygon fill="#bfbfbf" stroke="black" points="50.5,-292.5 50.5,-360.5 181.5,-360.5 181.5,-292.5 50.5,-292.5"/>
<text text-anchor="start" x="58.5" y="-348.5" font-family="Helvetica,sans-Serif" font-size="10.00">engine::gameplayClickable</text>
<text text-anchor="middle" x="116" y="-337.5" font-family="Helvetica,sans-Serif" font-size="10.00">GameObject</text>
<polyline fill="none" stroke="black" points="50.5,-330.5 181.5,-330.5 "/>
<text text-anchor="start" x="58.5" y="-318.5" font-family="Helvetica,sans-Serif" font-size="10.00">+ previousClick</text>
<polyline fill="none" stroke="black" points="50.5,-311.5 181.5,-311.5 "/>
<text text-anchor="start" x="58.5" y="-299.5" font-family="Helvetica,sans-Serif" font-size="10.00">+ doOnClick()</text>
</a>
</g>
</g>
<!-- Node3 -->
<g id="node3" class="node">
<title>Node3</title>
<g id="a_node3"><a xlink:href="class_cell.html" target="_top" xlink:title=" ">
<polygon fill="white" stroke="black" points="0,-0.5 0,-255.5 102,-255.5 102,-0.5 0,-0.5"/>
<text text-anchor="middle" x="51" y="-243.5" font-family="Helvetica,sans-Serif" font-size="10.00">Cell</text>
<polyline fill="none" stroke="black" points="0,-236.5 102,-236.5 "/>
<text text-anchor="start" x="8" y="-224.5" font-family="Helvetica,sans-Serif" font-size="10.00">+ center</text>
<text text-anchor="start" x="8" y="-213.5" font-family="Helvetica,sans-Serif" font-size="10.00">+ owner</text>
<text text-anchor="start" x="8" y="-202.5" font-family="Helvetica,sans-Serif" font-size="10.00">+ adjacent</text>
<text text-anchor="start" x="8" y="-191.5" font-family="Helvetica,sans-Serif" font-size="10.00">+ landscapeFlags</text>
<text text-anchor="start" x="8" y="-180.5" font-family="Helvetica,sans-Serif" font-size="10.00">+ bordersFlags</text>
<text text-anchor="start" x="8" y="-169.5" font-family="Helvetica,sans-Serif" font-size="10.00">+ vertices</text>
<polyline fill="none" stroke="black" points="0,-162.5 102,-162.5 "/>
<text text-anchor="start" x="8" y="-150.5" font-family="Helvetica,sans-Serif" font-size="10.00">+ Cell()</text>
<text text-anchor="start" x="8" y="-139.5" font-family="Helvetica,sans-Serif" font-size="10.00">+ setOwner()</text>
<text text-anchor="start" x="8" y="-128.5" font-family="Helvetica,sans-Serif" font-size="10.00">+ isProtected()</text>
<text text-anchor="start" x="8" y="-117.5" font-family="Helvetica,sans-Serif" font-size="10.00">+ addSquad()</text>
<text text-anchor="start" x="8" y="-106.5" font-family="Helvetica,sans-Serif" font-size="10.00">+ deleteSquad()</text>
<text text-anchor="start" x="8" y="-95.5" font-family="Helvetica,sans-Serif" font-size="10.00">+ getSquad()</text>
<text text-anchor="start" x="8" y="-84.5" font-family="Helvetica,sans-Serif" font-size="10.00">+ setAdjacent()</text>
<text text-anchor="start" x="8" y="-73.5" font-family="Helvetica,sans-Serif" font-size="10.00">+ setBorders()</text>
<text text-anchor="start" x="8" y="-62.5" font-family="Helvetica,sans-Serif" font-size="10.00">+ tick()</text>
<text text-anchor="start" x="8" y="-51.5" font-family="Helvetica,sans-Serif" font-size="10.00">+ lateTick()</text>
<text text-anchor="start" x="8" y="-40.5" font-family="Helvetica,sans-Serif" font-size="10.00">+ render()</text>
<text text-anchor="start" x="8" y="-29.5" font-family="Helvetica,sans-Serif" font-size="10.00">+ getRenderEdges()</text>
<text text-anchor="start" x="8" y="-18.5" font-family="Helvetica,sans-Serif" font-size="10.00">+ tryOnClick()</text>
<text text-anchor="start" x="8" y="-7.5" font-family="Helvetica,sans-Serif" font-size="10.00">+ doOnClick()</text>
</a>
</g>
</g>
<!-- Node1&#45;&gt;Node3 -->
<g id="edge2" class="edge">
<title>Node1&#45;&gt;Node3</title>
<path fill="none" stroke="midnightblue" d="M101.78,-282.52C99.06,-274.28 96.08,-265.27 92.97,-255.88"/>
<polygon fill="none" stroke="midnightblue" points="98.51,-283.77 104.97,-292.17 105.16,-281.57 98.51,-283.77"/>
</g>
<!-- Node4 -->
<g id="node4" class="node">
<title>Node4</title>
<g id="a_node4"><a xlink:href="class_squads_1_1_squad.html" target="_top" xlink:title=" ">
<polygon fill="white" stroke="black" points="120.5,-28 120.5,-228 241.5,-228 241.5,-28 120.5,-28"/>
<text text-anchor="middle" x="181" y="-216" font-family="Helvetica,sans-Serif" font-size="10.00">Squads::Squad</text>
<polyline fill="none" stroke="black" points="120.5,-209 241.5,-209 "/>
<text text-anchor="start" x="128.5" y="-197" font-family="Helvetica,sans-Serif" font-size="10.00">+ currentSpeed</text>
<text text-anchor="start" x="128.5" y="-186" font-family="Helvetica,sans-Serif" font-size="10.00">+ landscapeFlagResists</text>
<text text-anchor="start" x="128.5" y="-175" font-family="Helvetica,sans-Serif" font-size="10.00">+ borderFlagResists</text>
<text text-anchor="start" x="128.5" y="-164" font-family="Helvetica,sans-Serif" font-size="10.00">+ action</text>
<polyline fill="none" stroke="black" points="120.5,-157 241.5,-157 "/>
<text text-anchor="start" x="128.5" y="-145" font-family="Helvetica,sans-Serif" font-size="10.00">+ setOwner()</text>
<text text-anchor="start" x="128.5" y="-134" font-family="Helvetica,sans-Serif" font-size="10.00">+ setCell()</text>
<text text-anchor="start" x="128.5" y="-123" font-family="Helvetica,sans-Serif" font-size="10.00">+ damageUnit()</text>
<text text-anchor="start" x="128.5" y="-112" font-family="Helvetica,sans-Serif" font-size="10.00">+ getAttack()</text>
<text text-anchor="start" x="128.5" y="-101" font-family="Helvetica,sans-Serif" font-size="10.00">+ Squad()</text>
<text text-anchor="start" x="128.5" y="-90" font-family="Helvetica,sans-Serif" font-size="10.00">+ ~Squad()</text>
<text text-anchor="start" x="128.5" y="-79" font-family="Helvetica,sans-Serif" font-size="10.00">+ tick()</text>
<text text-anchor="start" x="128.5" y="-68" font-family="Helvetica,sans-Serif" font-size="10.00">+ lateTick()</text>
<text text-anchor="start" x="128.5" y="-57" font-family="Helvetica,sans-Serif" font-size="10.00">+ render()</text>
<text text-anchor="start" x="128.5" y="-46" font-family="Helvetica,sans-Serif" font-size="10.00">+ tryOnClick()</text>
<text text-anchor="start" x="128.5" y="-35" font-family="Helvetica,sans-Serif" font-size="10.00">+ doOnClick()</text>
</a>
</g>
</g>
<!-- Node1&#45;&gt;Node4 -->
<g id="edge3" class="edge">
<title>Node1&#45;&gt;Node4</title>
<path fill="none" stroke="midnightblue" d="M130.21,-282.53C135.55,-266.4 141.86,-247.33 148.18,-228.21"/>
<polygon fill="none" stroke="midnightblue" points="126.84,-281.57 127.03,-292.17 133.49,-283.77 126.84,-281.57"/>
</g>
<!-- Node2 -->
<g id="node2" class="node">
<title>Node2</title>
<g id="a_node2"><a xlink:href="classengine_1_1game_object.html" target="_top" xlink:title=" ">
<polygon fill="white" stroke="black" points="51.5,-397.5 51.5,-509.5 180.5,-509.5 180.5,-397.5 51.5,-397.5"/>
<text text-anchor="middle" x="116" y="-497.5" font-family="Helvetica,sans-Serif" font-size="10.00">engine::gameObject</text>
<polyline fill="none" stroke="black" points="51.5,-490.5 180.5,-490.5 "/>
<text text-anchor="start" x="59.5" y="-478.5" font-family="Helvetica,sans-Serif" font-size="10.00">+ id</text>
<text text-anchor="start" x="59.5" y="-467.5" font-family="Helvetica,sans-Serif" font-size="10.00">+ gameObjectListPosition</text>
<polyline fill="none" stroke="black" points="51.5,-460.5 180.5,-460.5 "/>
<text text-anchor="start" x="59.5" y="-448.5" font-family="Helvetica,sans-Serif" font-size="10.00">+ tick()</text>
<text text-anchor="start" x="59.5" y="-437.5" font-family="Helvetica,sans-Serif" font-size="10.00">+ lateTick()</text>
<text text-anchor="start" x="59.5" y="-426.5" font-family="Helvetica,sans-Serif" font-size="10.00">+ render()</text>
<text text-anchor="start" x="59.5" y="-415.5" font-family="Helvetica,sans-Serif" font-size="10.00">+ getRenderEdges()</text>
<text text-anchor="start" x="59.5" y="-404.5" font-family="Helvetica,sans-Serif" font-size="10.00">+ tryOnClick()</text>
</a>
</g>
</g>
<!-- Node2&#45;&gt;Node1 -->
<g id="edge1" class="edge">
<title>Node2&#45;&gt;Node1</title>
<path fill="none" stroke="midnightblue" d="M116,-387.26C116,-377.99 116,-368.8 116,-360.51"/>
<polygon fill="none" stroke="midnightblue" points="112.5,-387.31 116,-397.31 119.5,-387.31 112.5,-387.31"/>
</g>
</g>
</svg>
