<?xml version="1.0" encoding="UTF-8" standalone="no"?>
<!DOCTYPE svg PUBLIC "-//W3C//DTD SVG 1.1//EN"
 "http://www.w3.org/Graphics/SVG/1.1/DTD/svg11.dtd">
<!-- Generated by graphviz version 2.47.0 (20210407.0042)
 -->
<!-- Title: engine::gameController::gameLoop Pages: 1 -->
<svg width="276pt" height="88pt"
 viewBox="0.00 0.00 276.00 88.00" xmlns="http://www.w3.org/2000/svg" xmlns:xlink="http://www.w3.org/1999/xlink">
<g id="graph0" class="graph" transform="scale(1 1) rotate(0) translate(4 84)">
<title>engine::gameController::gameLoop</title>
<polygon fill="white" stroke="transparent" points="-4,4 -4,-84 272,-84 272,4 -4,4"/>
<!-- Node1 -->
<g id="node1" class="node">
<title>Node1</title>
<g id="a_node1"><a xlink:title=" ">
<polygon fill="#bfbfbf" stroke="black" points="0,-24.5 0,-54.5 115,-54.5 115,-24.5 0,-24.5"/>
<text text-anchor="start" x="8" y="-42.5" font-family="Helvetica,sans-Serif" font-size="10.00">engine::gameController</text>
<text text-anchor="middle" x="57.5" y="-31.5" font-family="Helvetica,sans-Serif" font-size="10.00">::gameLoop</text>
</a>
</g>
</g>
<!-- Node2 -->
<g id="node2" class="node">
<title>Node2</title>
<g id="a_node2"><a xlink:href="classgraphics_1_1_s_f_m_l_facade.html#a5a508e4f5515d1407348e1e8253f7015" target="_top" xlink:title=" ">
<polygon fill="white" stroke="black" points="151,-49.5 151,-79.5 268,-79.5 268,-49.5 151,-49.5"/>
<text text-anchor="start" x="159" y="-67.5" font-family="Helvetica,sans-Serif" font-size="10.00">graphics::SFMLFacade</text>
<text text-anchor="middle" x="209.5" y="-56.5" font-family="Helvetica,sans-Serif" font-size="10.00">::Frame</text>
</a>
</g>
</g>
<!-- Node1&#45;&gt;Node2 -->
<g id="edge1" class="edge">
<title>Node1&#45;&gt;Node2</title>
<path fill="none" stroke="midnightblue" d="M115.21,-48.95C123.56,-50.34 132.23,-51.79 140.77,-53.21"/>
<polygon fill="midnightblue" stroke="midnightblue" points="140.27,-56.68 150.71,-54.87 141.43,-49.77 140.27,-56.68"/>
</g>
<!-- Node3 -->
<g id="node3" class="node">
<title>Node3</title>
<g id="a_node3"><a xlink:href="classgraphics_1_1_s_f_m_l_facade.html#aba3633e15a496111908f54a44e1ee44b" target="_top" xlink:title=" ">
<polygon fill="white" stroke="black" points="151,-0.5 151,-30.5 268,-30.5 268,-0.5 151,-0.5"/>
<text text-anchor="start" x="159" y="-18.5" font-family="Helvetica,sans-Serif" font-size="10.00">graphics::SFMLFacade</text>
<text text-anchor="middle" x="209.5" y="-7.5" font-family="Helvetica,sans-Serif" font-size="10.00">::length</text>
</a>
</g>
</g>
<!-- Node1&#45;&gt;Node3 -->
<g id="edge2" class="edge">
<title>Node1&#45;&gt;Node3</title>
<path fill="none" stroke="midnightblue" d="M115.21,-30.43C123.56,-29.09 132.23,-27.7 140.77,-26.34"/>
<polygon fill="midnightblue" stroke="midnightblue" points="141.39,-29.78 150.71,-24.75 140.29,-22.87 141.39,-29.78"/>
</g>
</g>
</svg>
