<?xml version="1.0" encoding="UTF-8" standalone="no"?>
<!DOCTYPE svg PUBLIC "-//W3C//DTD SVG 1.1//EN"
 "http://www.w3.org/Graphics/SVG/1.1/DTD/svg11.dtd">
<!-- Generated by graphviz version 2.47.1 (20210421.1823)
 -->
<!-- Title: Units::LandUnit Pages: 1 -->
<svg width="325pt" height="928pt"
 viewBox="0.00 0.00 324.50 928.00" xmlns="http://www.w3.org/2000/svg" xmlns:xlink="http://www.w3.org/1999/xlink">
<g id="graph0" class="graph" transform="scale(1 1) rotate(0) translate(4 924)">
<title>Units::LandUnit</title>
<polygon fill="white" stroke="transparent" points="-4,4 -4,-924 320.5,-924 320.5,4 -4,4"/>
<!-- Node1 -->
<g id="node1" class="node">
<title>Node1</title>
<g id="a_node1"><a xlink:title=" ">
<polygon fill="#bfbfbf" stroke="black" points="106.5,-0.5 106.5,-90.5 190.5,-90.5 190.5,-0.5 106.5,-0.5"/>
<text text-anchor="middle" x="148.5" y="-78.5" font-family="Helvetica,sans-Serif" font-size="10.00">Units::LandUnit</text>
<polyline fill="none" stroke="black" points="106.5,-71.5 190.5,-71.5 "/>
<text text-anchor="middle" x="148.5" y="-59.5" font-family="Helvetica,sans-Serif" font-size="10.00"> </text>
<polyline fill="none" stroke="black" points="106.5,-52.5 190.5,-52.5 "/>
<text text-anchor="start" x="114.5" y="-40.5" font-family="Helvetica,sans-Serif" font-size="10.00">+ LandUnit()</text>
<text text-anchor="start" x="114.5" y="-29.5" font-family="Helvetica,sans-Serif" font-size="10.00">+ setStats()</text>
<text text-anchor="start" x="114.5" y="-18.5" font-family="Helvetica,sans-Serif" font-size="10.00">+ tick()</text>
<text text-anchor="start" x="114.5" y="-7.5" font-family="Helvetica,sans-Serif" font-size="10.00">+ getAttack()</text>
</a>
</g>
</g>
<!-- Node2 -->
<g id="node2" class="node">
<title>Node2</title>
<g id="a_node2"><a xlink:href="class_units_1_1_unit.html" target="_top" xlink:title=" ">
<polygon fill="white" stroke="black" points="78.5,-128.5 78.5,-383.5 218.5,-383.5 218.5,-128.5 78.5,-128.5"/>
<text text-anchor="middle" x="148.5" y="-371.5" font-family="Helvetica,sans-Serif" font-size="10.00">Units::Unit</text>
<polyline fill="none" stroke="black" points="78.5,-364.5 218.5,-364.5 "/>
<text text-anchor="start" x="86.5" y="-352.5" font-family="Helvetica,sans-Serif" font-size="10.00">+ name</text>
<text text-anchor="start" x="86.5" y="-341.5" font-family="Helvetica,sans-Serif" font-size="10.00">+ texture</text>
<text text-anchor="start" x="86.5" y="-330.5" font-family="Helvetica,sans-Serif" font-size="10.00">+ weight</text>
<text text-anchor="start" x="86.5" y="-319.5" font-family="Helvetica,sans-Serif" font-size="10.00">+ landscapeFlagResists</text>
<text text-anchor="start" x="86.5" y="-308.5" font-family="Helvetica,sans-Serif" font-size="10.00">+ borderFlagResists</text>
<text text-anchor="start" x="86.5" y="-297.5" font-family="Helvetica,sans-Serif" font-size="10.00">+ commonSpeed</text>
<text text-anchor="start" x="86.5" y="-286.5" font-family="Helvetica,sans-Serif" font-size="10.00"># currentUsageOfOrder</text>
<text text-anchor="start" x="86.5" y="-275.5" font-family="Helvetica,sans-Serif" font-size="10.00"># allOrders</text>
<text text-anchor="start" x="86.5" y="-264.5" font-family="Helvetica,sans-Serif" font-size="10.00"># unitLandscapeFlagResists</text>
<text text-anchor="start" x="86.5" y="-253.5" font-family="Helvetica,sans-Serif" font-size="10.00"># unitBorderFlagResists</text>
<text text-anchor="start" x="86.5" y="-242.5" font-family="Helvetica,sans-Serif" font-size="10.00"># unitSpeed</text>
<text text-anchor="start" x="86.5" y="-231.5" font-family="Helvetica,sans-Serif" font-size="10.00"># HP</text>
<polyline fill="none" stroke="black" points="78.5,-224.5 218.5,-224.5 "/>
<text text-anchor="start" x="86.5" y="-212.5" font-family="Helvetica,sans-Serif" font-size="10.00">+ Unit()</text>
<text text-anchor="start" x="86.5" y="-201.5" font-family="Helvetica,sans-Serif" font-size="10.00">+ Unit()</text>
<text text-anchor="start" x="86.5" y="-190.5" font-family="Helvetica,sans-Serif" font-size="10.00">+ setSquad()</text>
<text text-anchor="start" x="86.5" y="-179.5" font-family="Helvetica,sans-Serif" font-size="10.00">+ tick()</text>
<text text-anchor="start" x="86.5" y="-168.5" font-family="Helvetica,sans-Serif" font-size="10.00">+ getAttack()</text>
<text text-anchor="start" x="86.5" y="-157.5" font-family="Helvetica,sans-Serif" font-size="10.00">+ isOrderPossible()</text>
<text text-anchor="start" x="86.5" y="-146.5" font-family="Helvetica,sans-Serif" font-size="10.00">+ enableOrder()</text>
<text text-anchor="start" x="86.5" y="-135.5" font-family="Helvetica,sans-Serif" font-size="10.00">+ disableOrder()</text>
</a>
</g>
</g>
<!-- Node2&#45;&gt;Node1 -->
<g id="edge1" class="edge">
<title>Node2&#45;&gt;Node1</title>
<path fill="none" stroke="midnightblue" d="M148.5,-118.14C148.5,-108.5 148.5,-99.29 148.5,-90.86"/>
<polygon fill="none" stroke="midnightblue" points="145,-118.31 148.5,-128.31 152,-118.31 145,-118.31"/>
</g>
<!-- Node3 -->
<g id="node3" class="node">
<title>Node3</title>
<g id="a_node3"><a xlink:href="class_unit_order.html" target="_top" xlink:title=" ">
<polygon fill="white" stroke="black" points="77,-475.5 77,-543.5 136,-543.5 136,-475.5 77,-475.5"/>
<text text-anchor="middle" x="106.5" y="-531.5" font-family="Helvetica,sans-Serif" font-size="10.00">UnitOrder</text>
<polyline fill="none" stroke="black" points="77,-524.5 136,-524.5 "/>
<text text-anchor="middle" x="106.5" y="-512.5" font-family="Helvetica,sans-Serif" font-size="10.00"> </text>
<polyline fill="none" stroke="black" points="77,-505.5 136,-505.5 "/>
<text text-anchor="start" x="85" y="-493.5" font-family="Helvetica,sans-Serif" font-size="10.00">+ tick()</text>
<text text-anchor="start" x="85" y="-482.5" font-family="Helvetica,sans-Serif" font-size="10.00">+ copy()</text>
</a>
</g>
</g>
<!-- Node3&#45;&gt;Node2 -->
<g id="edge2" class="edge">
<title>Node3&#45;&gt;Node2</title>
<path fill="none" stroke="#404040" d="M109.45,-475.29C111.52,-454.23 114.6,-426.44 118.5,-402 118.83,-399.95 119.16,-397.88 119.51,-395.81"/>
<polygon fill="none" stroke="#404040" points="119.54,-395.62 116.61,-389.03 121.57,-383.8 124.49,-390.39 119.54,-395.62"/>
<text text-anchor="middle" x="149.5" y="-405" font-family="Helvetica,sans-Serif" font-size="10.00"> #currentOrder</text>
</g>
<!-- Node4 -->
<g id="node4" class="node">
<title>Node4</title>
<g id="a_node4"><a xlink:href="class_squads_1_1_squad.html" target="_top" xlink:title=" ">
<polygon fill="white" stroke="black" points="154,-431.5 154,-587.5 275,-587.5 275,-431.5 154,-431.5"/>
<text text-anchor="middle" x="214.5" y="-575.5" font-family="Helvetica,sans-Serif" font-size="10.00">Squads::Squad</text>
<polyline fill="none" stroke="black" points="154,-568.5 275,-568.5 "/>
<text text-anchor="start" x="162" y="-556.5" font-family="Helvetica,sans-Serif" font-size="10.00">+ Action</text>
<text text-anchor="start" x="162" y="-545.5" font-family="Helvetica,sans-Serif" font-size="10.00">+ currentSpeed</text>
<text text-anchor="start" x="162" y="-534.5" font-family="Helvetica,sans-Serif" font-size="10.00">+ landscapeFlagResists</text>
<text text-anchor="start" x="162" y="-523.5" font-family="Helvetica,sans-Serif" font-size="10.00">+ borderFlagResists</text>
<polyline fill="none" stroke="black" points="154,-516.5 275,-516.5 "/>
<text text-anchor="start" x="162" y="-504.5" font-family="Helvetica,sans-Serif" font-size="10.00">+ setCell()</text>
<text text-anchor="start" x="162" y="-493.5" font-family="Helvetica,sans-Serif" font-size="10.00">+ Squad()</text>
<text text-anchor="start" x="162" y="-482.5" font-family="Helvetica,sans-Serif" font-size="10.00">+ tick()</text>
<text text-anchor="start" x="162" y="-471.5" font-family="Helvetica,sans-Serif" font-size="10.00">+ lateTick()</text>
<text text-anchor="start" x="162" y="-460.5" font-family="Helvetica,sans-Serif" font-size="10.00">+ render()</text>
<text text-anchor="start" x="162" y="-449.5" font-family="Helvetica,sans-Serif" font-size="10.00">+ tryOnClick()</text>
<text text-anchor="start" x="162" y="-438.5" font-family="Helvetica,sans-Serif" font-size="10.00">+ doOnClick()</text>
</a>
</g>
</g>
<!-- Node4&#45;&gt;Node2 -->
<g id="edge3" class="edge">
<title>Node4&#45;&gt;Node2</title>
<path fill="none" stroke="#404040" d="M194.25,-431.33C191.23,-419.84 188.05,-407.71 184.83,-395.42"/>
<polygon fill="none" stroke="#404040" points="184.77,-395.21 179.38,-390.42 181.72,-383.6 187.12,-388.39 184.77,-395.21"/>
<text text-anchor="middle" x="206.5" y="-405" font-family="Helvetica,sans-Serif" font-size="10.00"> #squad</text>
</g>
<!-- Node5 -->
<g id="node5" class="node">
<title>Node5</title>
<g id="a_node5"><a xlink:href="classengine_1_1gameplay_clickable_game_object.html" target="_top" xlink:title=" ">
<polygon fill="white" stroke="black" points="0,-668.5 0,-736.5 131,-736.5 131,-668.5 0,-668.5"/>
<text text-anchor="start" x="8" y="-724.5" font-family="Helvetica,sans-Serif" font-size="10.00">engine::gameplayClickable</text>
<text text-anchor="middle" x="65.5" y="-713.5" font-family="Helvetica,sans-Serif" font-size="10.00">GameObject</text>
<polyline fill="none" stroke="black" points="0,-706.5 131,-706.5 "/>
<text text-anchor="middle" x="65.5" y="-694.5" font-family="Helvetica,sans-Serif" font-size="10.00"> </text>
<polyline fill="none" stroke="black" points="0,-687.5 131,-687.5 "/>
<text text-anchor="start" x="8" y="-675.5" font-family="Helvetica,sans-Serif" font-size="10.00">+ doOnClick()</text>
</a>
</g>
</g>
<!-- Node5&#45;&gt;Node4 -->
<g id="edge4" class="edge">
<title>Node5&#45;&gt;Node4</title>
<path fill="none" stroke="midnightblue" d="M97.79,-660.1C114.29,-638.95 134.92,-612.52 154.22,-587.77"/>
<polygon fill="none" stroke="midnightblue" points="94.85,-658.19 91.45,-668.23 100.36,-662.5 94.85,-658.19"/>
</g>
<!-- Node5&#45;&gt;Node5 -->
<g id="edge6" class="edge">
<title>Node5&#45;&gt;Node5</title>
<path fill="none" stroke="#404040" d="M131.31,-717.35C141.81,-715.18 149,-710.23 149,-702.5 149,-698.03 146.6,-694.49 142.54,-691.88"/>
<polygon fill="none" stroke="#404040" points="142.54,-691.88 135.51,-693.51 131.31,-687.65 138.33,-686.02 142.54,-691.88"/>
<text text-anchor="middle" x="182.5" y="-700" font-family="Helvetica,sans-Serif" font-size="10.00"> +previousClick</text>
</g>
<!-- Node6 -->
<g id="node6" class="node">
<title>Node6</title>
<g id="a_node6"><a xlink:href="classengine_1_1game_object.html" target="_top" xlink:title=" ">
<polygon fill="white" stroke="black" points="1,-807.5 1,-919.5 130,-919.5 130,-807.5 1,-807.5"/>
<text text-anchor="middle" x="65.5" y="-907.5" font-family="Helvetica,sans-Serif" font-size="10.00">engine::gameObject</text>
<polyline fill="none" stroke="black" points="1,-900.5 130,-900.5 "/>
<text text-anchor="start" x="9" y="-888.5" font-family="Helvetica,sans-Serif" font-size="10.00">+ id</text>
<text text-anchor="start" x="9" y="-877.5" font-family="Helvetica,sans-Serif" font-size="10.00">+ gameObjectListPosition</text>
<polyline fill="none" stroke="black" points="1,-870.5 130,-870.5 "/>
<text text-anchor="start" x="9" y="-858.5" font-family="Helvetica,sans-Serif" font-size="10.00">+ tick()</text>
<text text-anchor="start" x="9" y="-847.5" font-family="Helvetica,sans-Serif" font-size="10.00">+ lateTick()</text>
<text text-anchor="start" x="9" y="-836.5" font-family="Helvetica,sans-Serif" font-size="10.00">+ render()</text>
<text text-anchor="start" x="9" y="-825.5" font-family="Helvetica,sans-Serif" font-size="10.00">+ getRenderEdges()</text>
<text text-anchor="start" x="9" y="-814.5" font-family="Helvetica,sans-Serif" font-size="10.00">+ tryOnClick()</text>
</a>
</g>
</g>
<!-- Node6&#45;&gt;Node5 -->
<g id="edge5" class="edge">
<title>Node6&#45;&gt;Node5</title>
<path fill="none" stroke="midnightblue" d="M65.5,-797.26C65.5,-776.47 65.5,-754.33 65.5,-736.78"/>
<polygon fill="none" stroke="midnightblue" points="62,-797.34 65.5,-807.34 69,-797.34 62,-797.34"/>
</g>
<!-- Node7 -->
<g id="node7" class="node">
<title>Node7</title>
<g id="a_node7"><a xlink:href="class_squads_1_1_action.html" target="_top" xlink:title=" ">
<polygon fill="white" stroke="black" points="234.5,-635.5 234.5,-769.5 316.5,-769.5 316.5,-635.5 234.5,-635.5"/>
<text text-anchor="middle" x="275.5" y="-757.5" font-family="Helvetica,sans-Serif" font-size="10.00">Squads::Action</text>
<polyline fill="none" stroke="black" points="234.5,-750.5 316.5,-750.5 "/>
<text text-anchor="middle" x="275.5" y="-738.5" font-family="Helvetica,sans-Serif" font-size="10.00"> </text>
<polyline fill="none" stroke="black" points="234.5,-731.5 316.5,-731.5 "/>
<text text-anchor="start" x="242.5" y="-719.5" font-family="Helvetica,sans-Serif" font-size="10.00">+ Action()</text>
<text text-anchor="start" x="242.5" y="-708.5" font-family="Helvetica,sans-Serif" font-size="10.00">+ nextStep()</text>
<text text-anchor="start" x="242.5" y="-697.5" font-family="Helvetica,sans-Serif" font-size="10.00">+ calcSpeed()</text>
<text text-anchor="start" x="242.5" y="-686.5" font-family="Helvetica,sans-Serif" font-size="10.00">+ findPath()</text>
<text text-anchor="start" x="242.5" y="-675.5" font-family="Helvetica,sans-Serif" font-size="10.00">+ setPath()</text>
<text text-anchor="start" x="242.5" y="-664.5" font-family="Helvetica,sans-Serif" font-size="10.00">+ setPath()</text>
<text text-anchor="start" x="242.5" y="-653.5" font-family="Helvetica,sans-Serif" font-size="10.00">+ tick()</text>
<text text-anchor="start" x="242.5" y="-642.5" font-family="Helvetica,sans-Serif" font-size="10.00">+ render()</text>
</a>
</g>
</g>
<!-- Node7&#45;&gt;Node4 -->
<g id="edge7" class="edge">
<title>Node7&#45;&gt;Node4</title>
<path fill="none" stroke="#404040" d="M254.34,-635.23C250.63,-623.64 246.73,-611.41 242.87,-599.32"/>
<polygon fill="none" stroke="#404040" points="242.84,-599.23 237.2,-594.73 239.19,-587.8 244.82,-592.3 242.84,-599.23"/>
<text text-anchor="middle" x="264" y="-609" font-family="Helvetica,sans-Serif" font-size="10.00"> +action</text>
</g>
</g>
</svg>
