<?xml version="1.0" encoding="UTF-8" standalone="no"?>
<!DOCTYPE svg PUBLIC "-//W3C//DTD SVG 1.1//EN"
 "http://www.w3.org/Graphics/SVG/1.1/DTD/svg11.dtd">
<!-- Generated by graphviz version 2.47.1 (20210421.1823)
 -->
<!-- Title: TransportUnitFactory Pages: 1 -->
<svg width="130pt" height="248pt"
 viewBox="0.00 0.00 130.00 248.00" xmlns="http://www.w3.org/2000/svg" xmlns:xlink="http://www.w3.org/1999/xlink">
<g id="graph0" class="graph" transform="scale(1 1) rotate(0) translate(4 244)">
<title>TransportUnitFactory</title>
<polygon fill="white" stroke="transparent" points="-4,4 -4,-244 126,-244 126,4 -4,4"/>
<!-- Node1 -->
<g id="node1" class="node">
<title>Node1</title>
<g id="a_node1"><a xlink:title=" ">
<polygon fill="#bfbfbf" stroke="black" points="0,-0.5 0,-79.5 122,-79.5 122,-0.5 0,-0.5"/>
<text text-anchor="middle" x="61" y="-67.5" font-family="Helvetica,sans-Serif" font-size="10.00">TransportUnitFactory</text>
<polyline fill="none" stroke="black" points="0,-60.5 122,-60.5 "/>
<text text-anchor="middle" x="61" y="-48.5" font-family="Helvetica,sans-Serif" font-size="10.00"> </text>
<polyline fill="none" stroke="black" points="0,-41.5 122,-41.5 "/>
<text text-anchor="start" x="8" y="-29.5" font-family="Helvetica,sans-Serif" font-size="10.00">+ TransportUnitFactory()</text>
<text text-anchor="start" x="8" y="-18.5" font-family="Helvetica,sans-Serif" font-size="10.00">+ isPossible()</text>
<text text-anchor="start" x="8" y="-7.5" font-family="Helvetica,sans-Serif" font-size="10.00">+ createUnit()</text>
</a>
</g>
</g>
<!-- Node2 -->
<g id="node2" class="node">
<title>Node2</title>
<g id="a_node2"><a xlink:href="class_factory.html" target="_top" xlink:title=" ">
<polygon fill="white" stroke="black" points="23,-116.5 23,-239.5 99,-239.5 99,-116.5 23,-116.5"/>
<text text-anchor="middle" x="61" y="-227.5" font-family="Helvetica,sans-Serif" font-size="10.00">Factory</text>
<polyline fill="none" stroke="black" points="23,-220.5 99,-220.5 "/>
<text text-anchor="start" x="31" y="-208.5" font-family="Helvetica,sans-Serif" font-size="10.00">+ name</text>
<text text-anchor="start" x="31" y="-197.5" font-family="Helvetica,sans-Serif" font-size="10.00">+ texture</text>
<text text-anchor="start" x="31" y="-186.5" font-family="Helvetica,sans-Serif" font-size="10.00"># cost</text>
<text text-anchor="start" x="31" y="-175.5" font-family="Helvetica,sans-Serif" font-size="10.00"># weight</text>
<polyline fill="none" stroke="black" points="23,-168.5 99,-168.5 "/>
<text text-anchor="start" x="31" y="-156.5" font-family="Helvetica,sans-Serif" font-size="10.00">+ Factory()</text>
<text text-anchor="start" x="31" y="-145.5" font-family="Helvetica,sans-Serif" font-size="10.00">+ Factory()</text>
<text text-anchor="start" x="31" y="-134.5" font-family="Helvetica,sans-Serif" font-size="10.00">+ isPossible()</text>
<text text-anchor="start" x="31" y="-123.5" font-family="Helvetica,sans-Serif" font-size="10.00">+ createUnit()</text>
</a>
</g>
</g>
<!-- Node2&#45;&gt;Node1 -->
<g id="edge1" class="edge">
<title>Node2&#45;&gt;Node1</title>
<path fill="none" stroke="midnightblue" d="M61,-105.91C61,-96.83 61,-87.82 61,-79.54"/>
<polygon fill="none" stroke="midnightblue" points="57.5,-106.16 61,-116.16 64.5,-106.16 57.5,-106.16"/>
</g>
</g>
</svg>
