<?xml version="1.0" encoding="UTF-8" standalone="no"?>
<!DOCTYPE svg PUBLIC "-//W3C//DTD SVG 1.1//EN"
 "http://www.w3.org/Graphics/SVG/1.1/DTD/svg11.dtd">
<!-- Generated by graphviz version 2.47.1 (20210421.1823)
 -->
<!-- Title: engine::actions::None Pages: 1 -->
<svg width="117pt" height="193pt"
 viewBox="0.00 0.00 117.00 193.00" xmlns="http://www.w3.org/2000/svg" xmlns:xlink="http://www.w3.org/1999/xlink">
<g id="graph0" class="graph" transform="scale(1 1) rotate(0) translate(4 189)">
<title>engine::actions::None</title>
<polygon fill="white" stroke="transparent" points="-4,4 -4,-189 113,-189 113,4 -4,4"/>
<!-- Node1 -->
<g id="node1" class="node">
<title>Node1</title>
<g id="a_node1"><a xlink:title=" ">
<polygon fill="#bfbfbf" stroke="black" points="0,-0.5 0,-79.5 109,-79.5 109,-0.5 0,-0.5"/>
<text text-anchor="middle" x="54.5" y="-67.5" font-family="Helvetica,sans-Serif" font-size="10.00">engine::actions::None</text>
<polyline fill="none" stroke="black" points="0,-60.5 109,-60.5 "/>
<text text-anchor="middle" x="54.5" y="-48.5" font-family="Helvetica,sans-Serif" font-size="10.00"> </text>
<polyline fill="none" stroke="black" points="0,-41.5 109,-41.5 "/>
<text text-anchor="start" x="8" y="-29.5" font-family="Helvetica,sans-Serif" font-size="10.00">+ write()</text>
<text text-anchor="start" x="8" y="-18.5" font-family="Helvetica,sans-Serif" font-size="10.00">+ apply()</text>
<text text-anchor="start" x="8" y="-7.5" font-family="Helvetica,sans-Serif" font-size="10.00">+ read()</text>
</a>
</g>
</g>
<!-- Node2 -->
<g id="node2" class="node">
<title>Node2</title>
<g id="a_node2"><a xlink:href="classengine_1_1_action.html" target="_top" xlink:title=" ">
<polygon fill="white" stroke="black" points="16,-116.5 16,-184.5 93,-184.5 93,-116.5 16,-116.5"/>
<text text-anchor="middle" x="54.5" y="-172.5" font-family="Helvetica,sans-Serif" font-size="10.00">engine::Action</text>
<polyline fill="none" stroke="black" points="16,-165.5 93,-165.5 "/>
<text text-anchor="middle" x="54.5" y="-153.5" font-family="Helvetica,sans-Serif" font-size="10.00"> </text>
<polyline fill="none" stroke="black" points="16,-146.5 93,-146.5 "/>
<text text-anchor="start" x="24" y="-134.5" font-family="Helvetica,sans-Serif" font-size="10.00">+ write()</text>
<text text-anchor="start" x="24" y="-123.5" font-family="Helvetica,sans-Serif" font-size="10.00">+ apply()</text>
</a>
</g>
</g>
<!-- Node2&#45;&gt;Node1 -->
<g id="edge1" class="edge">
<title>Node2&#45;&gt;Node1</title>
<path fill="none" stroke="midnightblue" d="M54.5,-106.27C54.5,-97.48 54.5,-88.28 54.5,-79.65"/>
<polygon fill="none" stroke="midnightblue" points="51,-106.36 54.5,-116.36 58,-106.36 51,-106.36"/>
</g>
</g>
</svg>
