<?xml version="1.0" encoding="UTF-8" standalone="no"?>
<!DOCTYPE svg PUBLIC "-//W3C//DTD SVG 1.1//EN"
 "http://www.w3.org/Graphics/SVG/1.1/DTD/svg11.dtd">
<!-- Generated by graphviz version 2.47.1 (20210421.1823)
 -->
<!-- Title: engine::Action Pages: 1 -->
<svg width="437pt" height="204pt"
 viewBox="0.00 0.00 437.00 204.00" xmlns="http://www.w3.org/2000/svg" xmlns:xlink="http://www.w3.org/1999/xlink">
<g id="graph0" class="graph" transform="scale(1 1) rotate(0) translate(4 200)">
<title>engine::Action</title>
<polygon fill="white" stroke="transparent" points="-4,4 -4,-200 433,-200 433,4 -4,4"/>
<!-- Node1 -->
<g id="node1" class="node">
<title>Node1</title>
<g id="a_node1"><a xlink:title=" ">
<polygon fill="#bfbfbf" stroke="black" points="169,-127.5 169,-195.5 246,-195.5 246,-127.5 169,-127.5"/>
<text text-anchor="middle" x="207.5" y="-183.5" font-family="Helvetica,sans-Serif" font-size="10.00">engine::Action</text>
<polyline fill="none" stroke="black" points="169,-176.5 246,-176.5 "/>
<text text-anchor="middle" x="207.5" y="-164.5" font-family="Helvetica,sans-Serif" font-size="10.00"> </text>
<polyline fill="none" stroke="black" points="169,-157.5 246,-157.5 "/>
<text text-anchor="start" x="177" y="-145.5" font-family="Helvetica,sans-Serif" font-size="10.00">+ write()</text>
<text text-anchor="start" x="177" y="-134.5" font-family="Helvetica,sans-Serif" font-size="10.00">+ apply()</text>
</a>
</g>
</g>
<!-- Node2 -->
<g id="node2" class="node">
<title>Node2</title>
<g id="a_node2"><a xlink:href="classengine_1_1actions_1_1_click_action.html" target="_top" xlink:title=" ">
<polygon fill="white" stroke="black" points="0,-6 0,-85 135,-85 135,-6 0,-6"/>
<text text-anchor="middle" x="67.5" y="-73" font-family="Helvetica,sans-Serif" font-size="10.00">engine::actions::ClickAction</text>
<polyline fill="none" stroke="black" points="0,-66 135,-66 "/>
<text text-anchor="start" x="8" y="-54" font-family="Helvetica,sans-Serif" font-size="10.00">+ id</text>
<polyline fill="none" stroke="black" points="0,-47 135,-47 "/>
<text text-anchor="start" x="8" y="-35" font-family="Helvetica,sans-Serif" font-size="10.00">+ write()</text>
<text text-anchor="start" x="8" y="-24" font-family="Helvetica,sans-Serif" font-size="10.00">+ apply()</text>
<text text-anchor="start" x="8" y="-13" font-family="Helvetica,sans-Serif" font-size="10.00">+ read()</text>
</a>
</g>
</g>
<!-- Node1&#45;&gt;Node2 -->
<g id="edge1" class="edge">
<title>Node1&#45;&gt;Node2</title>
<path fill="none" stroke="midnightblue" d="M160.86,-122.52C146.11,-110.51 129.79,-97.22 114.98,-85.16"/>
<polygon fill="none" stroke="midnightblue" points="158.91,-125.45 168.87,-129.05 163.33,-120.02 158.91,-125.45"/>
</g>
<!-- Node3 -->
<g id="node3" class="node">
<title>Node3</title>
<g id="a_node3"><a xlink:href="classengine_1_1actions_1_1_none.html" target="_top" xlink:title=" ">
<polygon fill="white" stroke="black" points="153,-6 153,-85 262,-85 262,-6 153,-6"/>
<text text-anchor="middle" x="207.5" y="-73" font-family="Helvetica,sans-Serif" font-size="10.00">engine::actions::None</text>
<polyline fill="none" stroke="black" points="153,-66 262,-66 "/>
<text text-anchor="middle" x="207.5" y="-54" font-family="Helvetica,sans-Serif" font-size="10.00"> </text>
<polyline fill="none" stroke="black" points="153,-47 262,-47 "/>
<text text-anchor="start" x="161" y="-35" font-family="Helvetica,sans-Serif" font-size="10.00">+ write()</text>
<text text-anchor="start" x="161" y="-24" font-family="Helvetica,sans-Serif" font-size="10.00">+ apply()</text>
<text text-anchor="start" x="161" y="-13" font-family="Helvetica,sans-Serif" font-size="10.00">+ read()</text>
</a>
</g>
</g>
<!-- Node1&#45;&gt;Node3 -->
<g id="edge2" class="edge">
<title>Node1&#45;&gt;Node3</title>
<path fill="none" stroke="midnightblue" d="M207.5,-117.03C207.5,-106.58 207.5,-95.48 207.5,-85.25"/>
<polygon fill="none" stroke="midnightblue" points="204,-117.22 207.5,-127.22 211,-117.22 204,-117.22"/>
</g>
<!-- Node4 -->
<g id="node4" class="node">
<title>Node4</title>
<g id="a_node4"><a xlink:href="classengine_1_1actions_1_1_set_squad_path.html" target="_top" xlink:title=" ">
<polygon fill="white" stroke="black" points="280,-0.5 280,-90.5 429,-90.5 429,-0.5 280,-0.5"/>
<text text-anchor="middle" x="354.5" y="-78.5" font-family="Helvetica,sans-Serif" font-size="10.00">engine::actions::SetSquadPath</text>
<polyline fill="none" stroke="black" points="280,-71.5 429,-71.5 "/>
<text text-anchor="middle" x="354.5" y="-59.5" font-family="Helvetica,sans-Serif" font-size="10.00"> </text>
<polyline fill="none" stroke="black" points="280,-52.5 429,-52.5 "/>
<text text-anchor="start" x="288" y="-40.5" font-family="Helvetica,sans-Serif" font-size="10.00">+ SetSquadPath()</text>
<text text-anchor="start" x="288" y="-29.5" font-family="Helvetica,sans-Serif" font-size="10.00">+ write()</text>
<text text-anchor="start" x="288" y="-18.5" font-family="Helvetica,sans-Serif" font-size="10.00">+ apply()</text>
<text text-anchor="start" x="288" y="-7.5" font-family="Helvetica,sans-Serif" font-size="10.00">+ read()</text>
</a>
</g>
</g>
<!-- Node1&#45;&gt;Node4 -->
<g id="edge3" class="edge">
<title>Node1&#45;&gt;Node4</title>
<path fill="none" stroke="midnightblue" d="M254.07,-124.38C267.9,-113.66 283.2,-101.79 297.6,-90.62"/>
<polygon fill="none" stroke="midnightblue" points="251.88,-121.65 246.12,-130.55 256.17,-127.19 251.88,-121.65"/>
</g>
</g>
</svg>
