<?xml version="1.0" encoding="UTF-8" standalone="no"?>
<!DOCTYPE svg PUBLIC "-//W3C//DTD SVG 1.1//EN"
 "http://www.w3.org/Graphics/SVG/1.1/DTD/svg11.dtd">
<!-- Generated by graphviz version 2.47.1 (20210421.1823)
 -->
<!-- Title: src Pages: 1 -->
<svg width="396pt" height="132pt"
 viewBox="0.00 0.00 396.00 132.00" xmlns="http://www.w3.org/2000/svg" xmlns:xlink="http://www.w3.org/1999/xlink">
<g id="graph0" class="graph" transform="scale(1 1) rotate(0) translate(4 128)">
<title>src</title>
<polygon fill="white" stroke="transparent" points="-4,4 -4,-128 392,-128 392,4 -4,4"/>
<g id="clust1" class="cluster">
<title>clusterdir_68267d1309a1af8e8297ef4c3efbcdba</title>
<g id="a_clust1"><a xlink:href="dir_68267d1309a1af8e8297ef4c3efbcdba.html" target="_top">
<polygon fill="#eeeeff" stroke="black" points="8,-64 8,-116 380,-116 380,-64 8,-64"/>
</a>
</g>
</g>
<!-- dir_68267d1309a1af8e8297ef4c3efbcdba -->
<g id="node1" class="node">
<title>dir_68267d1309a1af8e8297ef4c3efbcdba</title>
<text text-anchor="middle" x="345" y="-87.5" font-family="Helvetica,sans-Serif" font-size="10.00">src</text>
</g>
<!-- dir_2052808828190f934b76e979ee65af8a -->
<g id="node2" class="node">
<title>dir_2052808828190f934b76e979ee65af8a</title>
<g id="a_node2"><a xlink:href="dir_2052808828190f934b76e979ee65af8a.html" target="_top" xlink:title="engine">
<polygon fill="white" stroke="red" points="300,-108 246,-108 246,-72 300,-72 300,-108"/>
<text text-anchor="middle" x="273" y="-87.5" font-family="Helvetica,sans-Serif" font-size="10.00">engine</text>
</a>
</g>
</g>
<!-- dir_d44c64559bbebec7f509842c48db8b23 -->
<g id="node6" class="node">
<title>dir_d44c64559bbebec7f509842c48db8b23</title>
<g id="a_node6"><a xlink:href="dir_d44c64559bbebec7f509842c48db8b23.html" target="_top" xlink:title="include">
<polygon fill="white" stroke="red" points="181,-36 127,-36 127,0 181,0 181,-36"/>
<text text-anchor="middle" x="154" y="-15.5" font-family="Helvetica,sans-Serif" font-size="10.00">include</text>
</a>
</g>
</g>
<!-- dir_2052808828190f934b76e979ee65af8a&#45;&gt;dir_d44c64559bbebec7f509842c48db8b23 -->
<g id="edge1" class="edge">
<title>dir_2052808828190f934b76e979ee65af8a&#45;&gt;dir_d44c64559bbebec7f509842c48db8b23</title>
<path fill="none" stroke="black" d="M249.23,-71.95C245.2,-69.22 241.02,-66.47 237,-64 222.12,-54.84 205.23,-45.5 190.59,-37.72"/>
<polygon fill="black" stroke="black" points="191.82,-34.41 181.34,-32.85 188.56,-40.61 191.82,-34.41"/>
<g id="a_edge1&#45;headlabel"><a xlink:href="dir_000010_000000.html" target="_top" xlink:title="23">
<text text-anchor="middle" x="196.32" y="-31.07" font-family="Helvetica,sans-Serif" font-size="10.00">23</text>
</a>
</g>
</g>
<!-- dir_43a675281a639807a8e84134baca4472 -->
<g id="node3" class="node">
<title>dir_43a675281a639807a8e84134baca4472</title>
<g id="a_node3"><a xlink:href="dir_43a675281a639807a8e84134baca4472.html" target="_top" xlink:title="GameLogic">
<polygon fill="white" stroke="red" points="227.5,-108 160.5,-108 160.5,-72 227.5,-72 227.5,-108"/>
<text text-anchor="middle" x="194" y="-87.5" font-family="Helvetica,sans-Serif" font-size="10.00">GameLogic</text>
</a>
</g>
</g>
<!-- dir_43a675281a639807a8e84134baca4472&#45;&gt;dir_d44c64559bbebec7f509842c48db8b23 -->
<g id="edge4" class="edge">
<title>dir_43a675281a639807a8e84134baca4472&#45;&gt;dir_d44c64559bbebec7f509842c48db8b23</title>
<path fill="none" stroke="black" d="M184.11,-71.7C179.51,-63.64 173.94,-53.89 168.85,-44.98"/>
<polygon fill="black" stroke="black" points="171.77,-43.05 163.77,-36.1 165.7,-46.52 171.77,-43.05"/>
<g id="a_edge4&#45;headlabel"><a xlink:href="dir_000011_000000.html" target="_top" xlink:title="33">
<text text-anchor="middle" x="176.02" y="-42.26" font-family="Helvetica,sans-Serif" font-size="10.00">33</text>
</a>
</g>
</g>
<!-- dir_560415a5d2bc4999842279f4fc1debef -->
<g id="node4" class="node">
<title>dir_560415a5d2bc4999842279f4fc1debef</title>
<g id="a_node4"><a xlink:href="dir_560415a5d2bc4999842279f4fc1debef.html" target="_top" xlink:title="graphics">
<polygon fill="white" stroke="black" points="142,-108 88,-108 88,-72 142,-72 142,-108"/>
<text text-anchor="middle" x="115" y="-87.5" font-family="Helvetica,sans-Serif" font-size="10.00">graphics</text>
</a>
</g>
</g>
<!-- dir_560415a5d2bc4999842279f4fc1debef&#45;&gt;dir_d44c64559bbebec7f509842c48db8b23 -->
<g id="edge3" class="edge">
<title>dir_560415a5d2bc4999842279f4fc1debef&#45;&gt;dir_d44c64559bbebec7f509842c48db8b23</title>
<path fill="none" stroke="black" d="M124.64,-71.7C129.13,-63.64 134.56,-53.89 139.52,-44.98"/>
<polygon fill="black" stroke="black" points="142.66,-46.54 144.47,-36.1 136.55,-43.14 142.66,-46.54"/>
<g id="a_edge3&#45;headlabel"><a xlink:href="dir_000016_000000.html" target="_top" xlink:title="4">
<text text-anchor="middle" x="143.39" y="-48.57" font-family="Helvetica,sans-Serif" font-size="10.00">4</text>
</a>
</g>
</g>
<!-- dir_b7878ad5ecbf2506f4125b9d34c97e45 -->
<g id="node5" class="node">
<title>dir_b7878ad5ecbf2506f4125b9d34c97e45</title>
<g id="a_node5"><a xlink:href="dir_b7878ad5ecbf2506f4125b9d34c97e45.html" target="_top" xlink:title="util">
<polygon fill="white" stroke="black" points="70,-108 16,-108 16,-72 70,-72 70,-108"/>
<text text-anchor="middle" x="43" y="-87.5" font-family="Helvetica,sans-Serif" font-size="10.00">util</text>
</a>
</g>
</g>
<!-- dir_b7878ad5ecbf2506f4125b9d34c97e45&#45;&gt;dir_d44c64559bbebec7f509842c48db8b23 -->
<g id="edge2" class="edge">
<title>dir_b7878ad5ecbf2506f4125b9d34c97e45&#45;&gt;dir_d44c64559bbebec7f509842c48db8b23</title>
<path fill="none" stroke="black" d="M67.25,-71.83C71.15,-69.17 75.17,-66.48 79,-64 91.52,-55.91 105.47,-47.41 117.91,-40"/>
<polygon fill="black" stroke="black" points="119.83,-42.92 126.65,-34.82 116.27,-36.9 119.83,-42.92"/>
<g id="a_edge2&#45;headlabel"><a xlink:href="dir_000017_000000.html" target="_top" xlink:title="5">
<text text-anchor="middle" x="118.19" y="-44.7" font-family="Helvetica,sans-Serif" font-size="10.00">5</text>
</a>
</g>
</g>
</g>
</svg>
