<?xml version="1.0" encoding="UTF-8" standalone="no"?>
<!DOCTYPE svg PUBLIC "-//W3C//DTD SVG 1.1//EN"
 "http://www.w3.org/Graphics/SVG/1.1/DTD/svg11.dtd">
<!-- Generated by graphviz version 2.47.1 (20210421.1823)
 -->
<!-- Title: include/util Pages: 1 -->
<svg width="108pt" height="167pt"
 viewBox="0.00 0.00 108.00 167.00" xmlns="http://www.w3.org/2000/svg" xmlns:xlink="http://www.w3.org/1999/xlink">
<g id="graph0" class="graph" transform="scale(1 1) rotate(0) translate(4 163)">
<title>include/util</title>
<polygon fill="white" stroke="transparent" points="-4,4 -4,-163 104,-163 104,4 -4,4"/>
<g id="clust1" class="cluster">
<title>clusterdir_d44c64559bbebec7f509842c48db8b23</title>
<g id="a_clust1"><a xlink:href="dir_d44c64559bbebec7f509842c48db8b23.html" target="_top" xlink:title="include">
<polygon fill="#ddddee" stroke="black" points="8,-8 8,-151 92,-151 92,-8 8,-8"/>
<text text-anchor="middle" x="50" y="-139" font-family="Helvetica,sans-Serif" font-size="10.00">include</text>
</a>
</g>
</g>
<!-- dir_82fd054dcd0578f75b3958335ac88715 -->
<g id="node1" class="node">
<title>dir_82fd054dcd0578f75b3958335ac88715</title>
<g id="a_node1"><a xlink:href="dir_82fd054dcd0578f75b3958335ac88715.html" target="_top" xlink:title="GameLogic">
<polygon fill="white" stroke="red" points="83.5,-124 16.5,-124 16.5,-88 83.5,-88 83.5,-124"/>
<text text-anchor="middle" x="50" y="-103.5" font-family="Helvetica,sans-Serif" font-size="10.00">GameLogic</text>
</a>
</g>
</g>
<!-- dir_586ad3c2f85d776b984733890d824e3e -->
<g id="node2" class="node">
<title>dir_586ad3c2f85d776b984733890d824e3e</title>
<g id="a_node2"><a xlink:href="dir_586ad3c2f85d776b984733890d824e3e.html" target="_top" xlink:title="util">
<polygon fill="#eeeeff" stroke="black" points="77,-52 23,-52 23,-16 77,-16 77,-52"/>
<text text-anchor="middle" x="50" y="-31.5" font-family="Helvetica,sans-Serif" font-size="10.00">util</text>
</a>
</g>
</g>
<!-- dir_82fd054dcd0578f75b3958335ac88715&#45;&gt;dir_586ad3c2f85d776b984733890d824e3e -->
<g id="edge2" class="edge">
<title>dir_82fd054dcd0578f75b3958335ac88715&#45;&gt;dir_586ad3c2f85d776b984733890d824e3e</title>
<path fill="none" stroke="black" d="M44.08,-87.7C43.29,-79.98 43.06,-70.71 43.4,-62.11"/>
<polygon fill="black" stroke="black" points="46.9,-62.32 44.1,-52.1 39.92,-61.84 46.9,-62.32"/>
<g id="a_edge2&#45;headlabel"><a xlink:href="dir_000002_000008.html" target="_top" xlink:title="2">
<text text-anchor="middle" x="49.48" y="-63.61" font-family="Helvetica,sans-Serif" font-size="10.00">2</text>
</a>
</g>
</g>
<!-- dir_586ad3c2f85d776b984733890d824e3e&#45;&gt;dir_82fd054dcd0578f75b3958335ac88715 -->
<g id="edge1" class="edge">
<title>dir_586ad3c2f85d776b984733890d824e3e&#45;&gt;dir_82fd054dcd0578f75b3958335ac88715</title>
<path fill="none" stroke="black" d="M55.9,-52.1C56.7,-59.79 56.94,-69.05 56.6,-77.67"/>
<polygon fill="black" stroke="black" points="53.11,-77.48 55.92,-87.7 60.09,-77.96 53.11,-77.48"/>
<g id="a_edge1&#45;headlabel"><a xlink:href="dir_000008_000002.html" target="_top" xlink:title="2">
<text text-anchor="middle" x="50.52" y="-71.2" font-family="Helvetica,sans-Serif" font-size="10.00">2</text>
</a>
</g>
</g>
</g>
</svg>
