<?xml version="1.0" encoding="UTF-8" standalone="no"?>
<!DOCTYPE svg PUBLIC "-//W3C//DTD SVG 1.1//EN"
 "http://www.w3.org/Graphics/SVG/1.1/DTD/svg11.dtd">
<!-- Generated by graphviz version 2.47.1 (20210421.1823)
 -->
<!-- Title: src/engine/Action.cpp Pages: 1 -->
<svg width="1394pt" height="711pt"
 viewBox="0.00 0.00 1394.00 711.00" xmlns="http://www.w3.org/2000/svg" xmlns:xlink="http://www.w3.org/1999/xlink">
<g id="graph0" class="graph" transform="scale(1 1) rotate(0) translate(4 707)">
<title>src/engine/Action.cpp</title>
<polygon fill="white" stroke="transparent" points="-4,4 -4,-707 1390,-707 1390,4 -4,4"/>
<!-- Node1 -->
<g id="node1" class="node">
<title>Node1</title>
<g id="a_node1"><a xlink:title=" ">
<polygon fill="#bfbfbf" stroke="black" points="1255,-683.5 1255,-702.5 1365,-702.5 1365,-683.5 1255,-683.5"/>
<text text-anchor="middle" x="1310" y="-690.5" font-family="Helvetica,sans-Serif" font-size="10.00">src/engine/Action.cpp</text>
</a>
</g>
</g>
<!-- Node2 -->
<g id="node2" class="node">
<title>Node2</title>
<g id="a_node2"><a xlink:href="engine_2_action_8h.html" target="_top" xlink:title=" ">
<polygon fill="white" stroke="black" points="1175.5,-112.5 1175.5,-131.5 1258.5,-131.5 1258.5,-112.5 1175.5,-112.5"/>
<text text-anchor="middle" x="1217" y="-119.5" font-family="Helvetica,sans-Serif" font-size="10.00">engine/Action.h</text>
</a>
</g>
</g>
<!-- Node1&#45;&gt;Node2 -->
<g id="edge1" class="edge">
<title>Node1&#45;&gt;Node2</title>
<path fill="none" stroke="midnightblue" d="M1315.28,-683.23C1325.73,-665.04 1348,-621.6 1348,-582 1348,-582 1348,-582 1348,-345 1348,-256.75 1270.27,-172.74 1234.56,-138.79"/>
<polygon fill="midnightblue" stroke="midnightblue" points="1236.55,-135.86 1226.85,-131.62 1231.79,-140.99 1236.55,-135.86"/>
</g>
<!-- Node3 -->
<g id="node3" class="node">
<title>Node3</title>
<g id="a_node3"><a xlink:title=" ">
<polygon fill="white" stroke="#bfbfbf" points="1321,-56.5 1321,-75.5 1375,-75.5 1375,-56.5 1321,-56.5"/>
<text text-anchor="middle" x="1348" y="-63.5" font-family="Helvetica,sans-Serif" font-size="10.00">iostream</text>
</a>
</g>
</g>
<!-- Node1&#45;&gt;Node3 -->
<g id="edge80" class="edge">
<title>Node1&#45;&gt;Node3</title>
<path fill="none" stroke="midnightblue" d="M1321.54,-683.43C1342.8,-666.57 1386,-626.8 1386,-582 1386,-582 1386,-582 1386,-177 1386,-142.81 1369.4,-105.76 1358.14,-84.57"/>
<polygon fill="midnightblue" stroke="midnightblue" points="1361.18,-82.83 1353.28,-75.77 1355.05,-86.22 1361.18,-82.83"/>
</g>
<!-- Node5 -->
<g id="node5" class="node">
<title>Node5</title>
<g id="a_node5"><a xlink:href="_none_8h.html" target="_top" xlink:title=" ">
<polygon fill="white" stroke="black" points="1118.5,-168.5 1118.5,-187.5 1231.5,-187.5 1231.5,-168.5 1118.5,-168.5"/>
<text text-anchor="middle" x="1175" y="-175.5" font-family="Helvetica,sans-Serif" font-size="10.00">engine/actions/None.h</text>
</a>
</g>
</g>
<!-- Node1&#45;&gt;Node5 -->
<g id="edge4" class="edge">
<title>Node1&#45;&gt;Node5</title>
<path fill="none" stroke="midnightblue" d="M1310,-683.44C1310,-664.94 1310,-619.81 1310,-582 1310,-582 1310,-582 1310,-406.5 1310,-315.55 1229.22,-229.18 1192.64,-194.73"/>
<polygon fill="midnightblue" stroke="midnightblue" points="1194.87,-192.03 1185.15,-187.82 1190.13,-197.17 1194.87,-192.03"/>
</g>
<!-- Node6 -->
<g id="node6" class="node">
<title>Node6</title>
<g id="a_node6"><a xlink:href="_set_squad_path_8h.html" target="_top" xlink:title=" ">
<polygon fill="white" stroke="black" points="823.5,-627.5 823.5,-646.5 976.5,-646.5 976.5,-627.5 823.5,-627.5"/>
<text text-anchor="middle" x="900" y="-634.5" font-family="Helvetica,sans-Serif" font-size="10.00">engine/actions/SetSquadPath.h</text>
</a>
</g>
</g>
<!-- Node1&#45;&gt;Node6 -->
<g id="edge6" class="edge">
<title>Node1&#45;&gt;Node6</title>
<path fill="none" stroke="midnightblue" d="M1254.71,-684.72C1182.49,-675.21 1055.79,-658.52 974.98,-647.88"/>
<polygon fill="midnightblue" stroke="midnightblue" points="975.24,-644.38 964.87,-646.54 974.33,-651.32 975.24,-644.38"/>
</g>
<!-- Node25 -->
<g id="node25" class="node">
<title>Node25</title>
<g id="a_node25"><a xlink:href="game_controller_8h.html" target="_top" xlink:title=" ">
<polygon fill="white" stroke="black" points="1035.5,-280.5 1035.5,-299.5 1156.5,-299.5 1156.5,-280.5 1035.5,-280.5"/>
<text text-anchor="middle" x="1096" y="-287.5" font-family="Helvetica,sans-Serif" font-size="10.00">engine/gameController.h</text>
</a>
</g>
</g>
<!-- Node1&#45;&gt;Node25 -->
<g id="edge79" class="edge">
<title>Node1&#45;&gt;Node25</title>
<path fill="none" stroke="midnightblue" d="M1304.72,-683.23C1294.27,-665.04 1272,-621.6 1272,-582 1272,-582 1272,-582 1272,-468 1272,-385.76 1175.29,-328.19 1125.24,-303.9"/>
<polygon fill="midnightblue" stroke="midnightblue" points="1126.73,-300.73 1116.19,-299.62 1123.74,-307.06 1126.73,-300.73"/>
</g>
<!-- Node2&#45;&gt;Node3 -->
<g id="edge2" class="edge">
<title>Node2&#45;&gt;Node3</title>
<path fill="none" stroke="midnightblue" d="M1237.76,-112.44C1259.32,-103.56 1293.26,-89.56 1317.79,-79.45"/>
<polygon fill="midnightblue" stroke="midnightblue" points="1319.43,-82.56 1327.34,-75.52 1316.76,-76.09 1319.43,-82.56"/>
</g>
<!-- Node4 -->
<g id="node4" class="node">
<title>Node4</title>
<g id="a_node4"><a xlink:title=" ">
<polygon fill="white" stroke="#bfbfbf" points="675.5,-56.5 675.5,-75.5 726.5,-75.5 726.5,-56.5 675.5,-56.5"/>
<text text-anchor="middle" x="701" y="-63.5" font-family="Helvetica,sans-Serif" font-size="10.00">memory</text>
</a>
</g>
</g>
<!-- Node2&#45;&gt;Node4 -->
<g id="edge3" class="edge">
<title>Node2&#45;&gt;Node4</title>
<path fill="none" stroke="midnightblue" d="M1175.49,-118.01C1078.18,-110.88 836.58,-92.31 736.59,-75.97"/>
<polygon fill="midnightblue" stroke="midnightblue" points="736.97,-72.48 726.52,-74.24 735.78,-79.38 736.97,-72.48"/>
</g>
<!-- Node5&#45;&gt;Node2 -->
<g id="edge5" class="edge">
<title>Node5&#45;&gt;Node2</title>
<path fill="none" stroke="midnightblue" d="M1181.94,-168.08C1187.93,-160.38 1196.75,-149.03 1204.05,-139.65"/>
<polygon fill="midnightblue" stroke="midnightblue" points="1206.82,-141.79 1210.19,-131.75 1201.29,-137.5 1206.82,-141.79"/>
</g>
<!-- Node6&#45;&gt;Node2 -->
<g id="edge7" class="edge">
<title>Node6&#45;&gt;Node2</title>
<path fill="none" stroke="midnightblue" d="M953.26,-627.44C1038.48,-612.23 1196,-577.19 1196,-526 1196,-526 1196,-526 1196,-468 1196,-341.96 1230.97,-313.64 1241,-188 1241.71,-179.14 1243.16,-176.62 1241,-168 1238.56,-158.25 1233.56,-148.29 1228.76,-140.23"/>
<polygon fill="midnightblue" stroke="midnightblue" points="1231.69,-138.32 1223.37,-131.77 1225.79,-142.08 1231.69,-138.32"/>
</g>
<!-- Node7 -->
<g id="node7" class="node">
<title>Node7</title>
<g id="a_node7"><a xlink:href="_squad_8h.html" target="_top" xlink:title=" ">
<polygon fill="white" stroke="black" points="675,-571.5 675,-590.5 811,-590.5 811,-571.5 675,-571.5"/>
<text text-anchor="middle" x="743" y="-578.5" font-family="Helvetica,sans-Serif" font-size="10.00">GameLogic/Squad/Squad.h</text>
</a>
</g>
</g>
<!-- Node6&#45;&gt;Node7 -->
<g id="edge8" class="edge">
<title>Node6&#45;&gt;Node7</title>
<path fill="none" stroke="midnightblue" d="M875.12,-627.44C848.71,-618.36 806.78,-603.94 777.26,-593.78"/>
<polygon fill="midnightblue" stroke="midnightblue" points="778.36,-590.46 767.76,-590.52 776.08,-597.08 778.36,-590.46"/>
</g>
<!-- Node8 -->
<g id="node8" class="node">
<title>Node8</title>
<g id="a_node8"><a xlink:href="_cell_8h.html" target="_top" xlink:title=" ">
<polygon fill="white" stroke="black" points="725,-459.5 725,-478.5 819,-478.5 819,-459.5 725,-459.5"/>
<text text-anchor="middle" x="772" y="-466.5" font-family="Helvetica,sans-Serif" font-size="10.00">GameLogic/Cell.h</text>
</a>
</g>
</g>
<!-- Node6&#45;&gt;Node8 -->
<g id="edge78" class="edge">
<title>Node6&#45;&gt;Node8</title>
<path fill="none" stroke="midnightblue" d="M896.01,-627.26C892.12,-605.64 890.92,-548.99 863,-515 850.05,-499.24 830.42,-488.78 812.63,-481.96"/>
<polygon fill="midnightblue" stroke="midnightblue" points="813.59,-478.59 802.99,-478.53 811.24,-485.18 813.59,-478.59"/>
</g>
<!-- Node7&#45;&gt;Node8 -->
<g id="edge9" class="edge">
<title>Node7&#45;&gt;Node8</title>
<path fill="none" stroke="midnightblue" d="M729.39,-571.43C715.88,-558.84 699.77,-534.71 709,-515 715.16,-501.84 727.28,-491.18 739.38,-483.55"/>
<polygon fill="midnightblue" stroke="midnightblue" points="741.18,-486.55 748.11,-478.54 737.69,-480.49 741.18,-486.55"/>
</g>
<!-- Node9 -->
<g id="node9" class="node">
<title>Node9</title>
<g id="a_node9"><a xlink:href="gameplay_clickable_game_object_8h.html" target="_top" xlink:title=" ">
<polygon fill="white" stroke="black" points="979.5,-392.5 979.5,-422.5 1108.5,-422.5 1108.5,-392.5 979.5,-392.5"/>
<text text-anchor="start" x="987.5" y="-410.5" font-family="Helvetica,sans-Serif" font-size="10.00">engine/gameplayClickable</text>
<text text-anchor="middle" x="1044" y="-399.5" font-family="Helvetica,sans-Serif" font-size="10.00">GameObject.h</text>
</a>
</g>
</g>
<!-- Node7&#45;&gt;Node9 -->
<g id="edge72" class="edge">
<title>Node7&#45;&gt;Node9</title>
<path fill="none" stroke="midnightblue" d="M811.26,-572.15C867.02,-564.66 940.48,-552 965,-535 1001.57,-509.64 1024.65,-461.3 1035.86,-432.28"/>
<polygon fill="midnightblue" stroke="midnightblue" points="1039.28,-433.13 1039.46,-422.54 1032.71,-430.71 1039.28,-433.13"/>
</g>
<!-- Node12 -->
<g id="node12" class="node">
<title>Node12</title>
<g id="a_node12"><a xlink:href="config_8h.html" target="_top" xlink:title=" ">
<polygon fill="white" stroke="black" points="765.5,-112.5 765.5,-131.5 846.5,-131.5 846.5,-112.5 765.5,-112.5"/>
<text text-anchor="middle" x="806" y="-119.5" font-family="Helvetica,sans-Serif" font-size="10.00">engine/config.h</text>
</a>
</g>
</g>
<!-- Node7&#45;&gt;Node12 -->
<g id="edge76" class="edge">
<title>Node7&#45;&gt;Node12</title>
<path fill="none" stroke="midnightblue" d="M811.33,-572.24C834.44,-565.98 857.92,-554.82 872,-535 962.79,-407.17 852.87,-200.97 816.74,-140.31"/>
<polygon fill="midnightblue" stroke="midnightblue" points="819.62,-138.3 811.44,-131.57 813.63,-141.93 819.62,-138.3"/>
</g>
<!-- Node15 -->
<g id="node15" class="node">
<title>Node15</title>
<g id="a_node15"><a xlink:href="_facade_8h.html" target="_top" xlink:title=" ">
<polygon fill="white" stroke="black" points="10,-0.5 10,-19.5 66,-19.5 66,-0.5 10,-0.5"/>
<text text-anchor="middle" x="38" y="-7.5" font-family="Helvetica,sans-Serif" font-size="10.00">Facade.h</text>
</a>
</g>
</g>
<!-- Node7&#45;&gt;Node15 -->
<g id="edge77" class="edge">
<title>Node7&#45;&gt;Node15</title>
<path fill="none" stroke="midnightblue" d="M674.76,-577.02C491.09,-568.08 0,-537.85 0,-470 0,-470 0,-470 0,-121 0,-86.81 16.6,-49.76 27.86,-28.57"/>
<polygon fill="midnightblue" stroke="midnightblue" points="30.95,-30.22 32.72,-19.77 24.82,-26.83 30.95,-30.22"/>
</g>
<!-- Node31 -->
<g id="node31" class="node">
<title>Node31</title>
<g id="a_node31"><a xlink:href="_unit_8h.html" target="_top" xlink:title=" ">
<polygon fill="white" stroke="black" points="125,-224.5 125,-243.5 167,-243.5 167,-224.5 125,-224.5"/>
<text text-anchor="middle" x="146" y="-231.5" font-family="Helvetica,sans-Serif" font-size="10.00">Unit.h</text>
</a>
</g>
</g>
<!-- Node7&#45;&gt;Node31 -->
<g id="edge71" class="edge">
<title>Node7&#45;&gt;Node31</title>
<path fill="none" stroke="midnightblue" d="M674.89,-575.39C511.47,-563.05 111,-526.36 111,-470 111,-470 111,-470 111,-345 111,-311.63 122.47,-274.05 132.82,-252.58"/>
<polygon fill="midnightblue" stroke="midnightblue" points="135.95,-254.14 137.59,-243.68 129.78,-250.83 135.95,-254.14"/>
</g>
<!-- Node40 -->
<g id="node40" class="node">
<title>Node40</title>
<g id="a_node40"><a xlink:href="_game_logic_2_squad_2_action_8h.html" target="_top" xlink:title=" ">
<polygon fill="white" stroke="black" points="727,-515.5 727,-534.5 863,-534.5 863,-515.5 727,-515.5"/>
<text text-anchor="middle" x="795" y="-522.5" font-family="Helvetica,sans-Serif" font-size="10.00">GameLogic/Squad/Action.h</text>
</a>
</g>
</g>
<!-- Node7&#45;&gt;Node40 -->
<g id="edge73" class="edge">
<title>Node7&#45;&gt;Node40</title>
<path fill="none" stroke="midnightblue" d="M746.42,-571.08C752.45,-563.06 763.63,-551.1 773.89,-541.51"/>
<polygon fill="midnightblue" stroke="midnightblue" points="776.32,-544.03 781.44,-534.75 771.66,-538.81 776.32,-544.03"/>
</g>
<!-- Node8&#45;&gt;Node3 -->
<g id="edge32" class="edge">
<title>Node8&#45;&gt;Node3</title>
<path fill="none" stroke="midnightblue" d="M819.09,-465.47C901.04,-460.49 1066.09,-447.66 1118,-423 1261.58,-354.78 1326.62,-148.19 1343.43,-85.34"/>
<polygon fill="midnightblue" stroke="midnightblue" points="1346.83,-86.19 1345.94,-75.63 1340.05,-84.44 1346.83,-86.19"/>
</g>
<!-- Node8&#45;&gt;Node5 -->
<g id="edge36" class="edge">
<title>Node8&#45;&gt;Node5</title>
<path fill="none" stroke="midnightblue" d="M788.82,-459.47C805.16,-450.94 830.43,-437.1 851,-423 868.98,-410.67 872.09,-405.76 889,-392 950.27,-342.14 963.66,-327.19 1027,-280 1070.67,-247.47 1123.82,-212.2 1153.06,-193.15"/>
<polygon fill="midnightblue" stroke="midnightblue" points="1155.2,-195.94 1161.68,-187.56 1151.38,-190.07 1155.2,-195.94"/>
</g>
<!-- Node8&#45;&gt;Node6 -->
<g id="edge46" class="edge">
<title>Node8&#45;&gt;Node6</title>
<path fill="none" stroke="midnightblue" d="M818.8,-478.53C840.92,-485.1 865.65,-496.32 881,-515 905.32,-544.61 909.37,-591.41 906.56,-617.28"/>
<polygon fill="midnightblue" stroke="midnightblue" points="903.09,-616.82 904.91,-627.26 909.99,-617.96 903.09,-616.82"/>
</g>
<!-- Node8&#45;&gt;Node7 -->
<g id="edge30" class="edge">
<title>Node8&#45;&gt;Node7</title>
<path fill="none" stroke="midnightblue" d="M762.63,-478.54C751.51,-486.16 734.66,-498.64 727,-515 719.64,-530.71 728.38,-549.22 735.9,-562.46"/>
<polygon fill="midnightblue" stroke="midnightblue" points="733.07,-564.55 741.13,-571.43 739.12,-561.02 733.07,-564.55"/>
</g>
<!-- Node8&#45;&gt;Node9 -->
<g id="edge10" class="edge">
<title>Node8&#45;&gt;Node9</title>
<path fill="none" stroke="midnightblue" d="M810.97,-459.48C852.29,-450.44 918.53,-435.95 969.84,-424.72"/>
<polygon fill="midnightblue" stroke="midnightblue" points="970.87,-428.08 979.89,-422.52 969.38,-421.24 970.87,-428.08"/>
</g>
<!-- Node8&#45;&gt;Node12 -->
<g id="edge28" class="edge">
<title>Node8&#45;&gt;Node12</title>
<path fill="none" stroke="midnightblue" d="M776.84,-459.3C781.59,-450.42 788.73,-436.12 793,-423 812.95,-361.72 819.68,-344.39 817,-280 816.33,-263.96 815.2,-260.01 814,-244 811.29,-207.74 808.6,-165.32 807.13,-141.57"/>
<polygon fill="midnightblue" stroke="midnightblue" points="810.62,-141.28 806.51,-131.51 803.63,-141.71 810.62,-141.28"/>
</g>
<!-- Node8&#45;&gt;Node15 -->
<g id="edge29" class="edge">
<title>Node8&#45;&gt;Node15</title>
<path fill="none" stroke="midnightblue" d="M724.63,-466.24C601.23,-461.36 276.41,-446.41 234,-423 119.52,-359.81 105.04,-309.61 57,-188 35.57,-133.75 35.41,-63.28 36.81,-30"/>
<polygon fill="midnightblue" stroke="midnightblue" points="40.31,-30.03 37.33,-19.86 33.32,-29.67 40.31,-30.03"/>
</g>
<!-- Node17 -->
<g id="node17" class="node">
<title>Node17</title>
<g id="a_node17"><a xlink:href="cellgen_8h.html" target="_top" xlink:title=" ">
<polygon fill="white" stroke="black" points="655.5,-336.5 655.5,-355.5 726.5,-355.5 726.5,-336.5 655.5,-336.5"/>
<text text-anchor="middle" x="691" y="-343.5" font-family="Helvetica,sans-Serif" font-size="10.00">util/cellgen.h</text>
</a>
</g>
</g>
<!-- Node8&#45;&gt;Node17 -->
<g id="edge19" class="edge">
<title>Node8&#45;&gt;Node17</title>
<path fill="none" stroke="midnightblue" d="M768.57,-459.09C762.69,-444.39 749.79,-414.44 734,-392 726.55,-381.42 716.67,-370.89 708.25,-362.68"/>
<polygon fill="midnightblue" stroke="midnightblue" points="710.43,-359.93 700.76,-355.6 705.62,-365.01 710.43,-359.93"/>
</g>
<!-- Node19 -->
<g id="node19" class="node">
<title>Node19</title>
<g id="a_node19"><a xlink:title=" ">
<polygon fill="white" stroke="#bfbfbf" points="773.5,-280.5 773.5,-299.5 808.5,-299.5 808.5,-280.5 773.5,-280.5"/>
<text text-anchor="middle" x="791" y="-287.5" font-family="Helvetica,sans-Serif" font-size="10.00">map</text>
</a>
</g>
</g>
<!-- Node8&#45;&gt;Node19 -->
<g id="edge31" class="edge">
<title>Node8&#45;&gt;Node19</title>
<path fill="none" stroke="midnightblue" d="M772.92,-459.46C775.82,-432.43 784.86,-348.24 788.95,-310.11"/>
<polygon fill="midnightblue" stroke="midnightblue" points="792.46,-310.18 790.05,-299.87 785.5,-309.44 792.46,-310.18"/>
</g>
<!-- Node21 -->
<g id="node21" class="node">
<title>Node21</title>
<g id="a_node21"><a xlink:href="_all_flags_8h.html" target="_top" xlink:title=" ">
<polygon fill="white" stroke="black" points="369.5,-168.5 369.5,-187.5 428.5,-187.5 428.5,-168.5 369.5,-168.5"/>
<text text-anchor="middle" x="399" y="-175.5" font-family="Helvetica,sans-Serif" font-size="10.00">AllFlags.h</text>
</a>
</g>
</g>
<!-- Node8&#45;&gt;Node21 -->
<g id="edge23" class="edge">
<title>Node8&#45;&gt;Node21</title>
<path fill="none" stroke="midnightblue" d="M724.72,-461.06C645.71,-446.71 488.38,-405.74 416,-300 394.8,-269.03 394.78,-223.08 396.79,-197.65"/>
<polygon fill="midnightblue" stroke="midnightblue" points="400.29,-197.82 397.79,-187.53 393.33,-197.14 400.29,-197.82"/>
</g>
<!-- Node24 -->
<g id="node24" class="node">
<title>Node24</title>
<g id="a_node24"><a xlink:href="geometry_8h.html" target="_top" xlink:title=" ">
<polygon fill="white" stroke="black" points="645,-398 645,-417 725,-417 725,-398 645,-398"/>
<text text-anchor="middle" x="685" y="-405" font-family="Helvetica,sans-Serif" font-size="10.00">util/geometry.h</text>
</a>
</g>
</g>
<!-- Node8&#45;&gt;Node24 -->
<g id="edge33" class="edge">
<title>Node8&#45;&gt;Node24</title>
<path fill="none" stroke="midnightblue" d="M759.54,-459.48C745.58,-449.93 722.74,-434.31 706.01,-422.87"/>
<polygon fill="midnightblue" stroke="midnightblue" points="707.67,-419.77 697.44,-417.01 703.72,-425.54 707.67,-419.77"/>
</g>
<!-- Node8&#45;&gt;Node25 -->
<g id="edge37" class="edge">
<title>Node8&#45;&gt;Node25</title>
<path fill="none" stroke="midnightblue" d="M798.67,-459.45C822.82,-451.32 859.08,-438.1 889,-423 961.26,-386.53 1040.22,-331.53 1076.18,-305.56"/>
<polygon fill="midnightblue" stroke="midnightblue" points="1078.33,-308.32 1084.37,-299.61 1074.22,-302.66 1078.33,-308.32"/>
</g>
<!-- Node29 -->
<g id="node29" class="node">
<title>Node29</title>
<g id="a_node29"><a xlink:href="_all_units_8h.html" target="_top" xlink:title=" ">
<polygon fill="white" stroke="black" points="235.5,-336.5 235.5,-355.5 294.5,-355.5 294.5,-336.5 235.5,-336.5"/>
<text text-anchor="middle" x="265" y="-343.5" font-family="Helvetica,sans-Serif" font-size="10.00">AllUnits.h</text>
</a>
</g>
</g>
<!-- Node8&#45;&gt;Node29 -->
<g id="edge47" class="edge">
<title>Node8&#45;&gt;Node29</title>
<path fill="none" stroke="midnightblue" d="M724.94,-466.64C609.5,-462.9 319.22,-450.8 286,-423 269.47,-409.16 265.33,-383.59 264.59,-365.95"/>
<polygon fill="midnightblue" stroke="midnightblue" points="268.09,-365.68 264.5,-355.71 261.09,-365.74 268.09,-365.68"/>
</g>
<!-- Node36 -->
<g id="node36" class="node">
<title>Node36</title>
<g id="a_node36"><a xlink:href="_all_squad_templates_8h.html" target="_top" xlink:title=" ">
<polygon fill="white" stroke="black" points="295.5,-398 295.5,-417 404.5,-417 404.5,-398 295.5,-398"/>
<text text-anchor="middle" x="350" y="-405" font-family="Helvetica,sans-Serif" font-size="10.00">AllSquadTemplates.h</text>
</a>
</g>
</g>
<!-- Node8&#45;&gt;Node36 -->
<g id="edge62" class="edge">
<title>Node8&#45;&gt;Node36</title>
<path fill="none" stroke="midnightblue" d="M724.72,-463.19C656.82,-456.02 527.9,-441.35 419,-423 412.19,-421.85 405.03,-420.51 398,-419.1"/>
<polygon fill="midnightblue" stroke="midnightblue" points="398.36,-415.6 387.86,-417.03 396.95,-422.46 398.36,-415.6"/>
</g>
<!-- Node10 -->
<g id="node10" class="node">
<title>Node10</title>
<g id="a_node10"><a xlink:href="game_object_8h.html" target="_top" xlink:title=" ">
<polygon fill="white" stroke="black" points="856.5,-168.5 856.5,-187.5 933.5,-187.5 933.5,-168.5 856.5,-168.5"/>
<text text-anchor="middle" x="895" y="-175.5" font-family="Helvetica,sans-Serif" font-size="10.00">gameObject.h</text>
</a>
</g>
</g>
<!-- Node9&#45;&gt;Node10 -->
<g id="edge11" class="edge">
<title>Node9&#45;&gt;Node10</title>
<path fill="none" stroke="midnightblue" d="M1026.21,-392.11C995.48,-366.14 932.98,-308.14 904,-244 897.47,-229.55 895.38,-211.59 894.83,-198.21"/>
<polygon fill="midnightblue" stroke="midnightblue" points="898.33,-197.79 894.68,-187.84 891.33,-197.9 898.33,-197.79"/>
</g>
<!-- Node10&#45;&gt;Node2 -->
<g id="edge18" class="edge">
<title>Node10&#45;&gt;Node2</title>
<path fill="none" stroke="midnightblue" d="M933.52,-170.54C991.36,-160.84 1100.73,-142.5 1165.4,-131.65"/>
<polygon fill="midnightblue" stroke="midnightblue" points="1166.1,-135.09 1175.38,-129.98 1164.94,-128.18 1166.1,-135.09"/>
</g>
<!-- Node11 -->
<g id="node11" class="node">
<title>Node11</title>
<g id="a_node11"><a xlink:title=" ">
<polygon fill="white" stroke="#bfbfbf" points="1033.5,-112.5 1033.5,-131.5 1062.5,-131.5 1062.5,-112.5 1033.5,-112.5"/>
<text text-anchor="middle" x="1048" y="-119.5" font-family="Helvetica,sans-Serif" font-size="10.00">list</text>
</a>
</g>
</g>
<!-- Node10&#45;&gt;Node11 -->
<g id="edge12" class="edge">
<title>Node10&#45;&gt;Node11</title>
<path fill="none" stroke="midnightblue" d="M919.24,-168.44C947.76,-158.38 994.84,-141.76 1023.47,-131.66"/>
<polygon fill="midnightblue" stroke="midnightblue" points="1024.86,-134.88 1033.12,-128.25 1022.53,-128.28 1024.86,-134.88"/>
</g>
<!-- Node10&#45;&gt;Node12 -->
<g id="edge13" class="edge">
<title>Node10&#45;&gt;Node12</title>
<path fill="none" stroke="midnightblue" d="M880.7,-168.32C866.82,-159.9 845.51,-146.97 829.2,-137.07"/>
<polygon fill="midnightblue" stroke="midnightblue" points="830.63,-133.85 820.26,-131.65 827,-139.83 830.63,-133.85"/>
</g>
<!-- Node13 -->
<g id="node13" class="node">
<title>Node13</title>
<g id="a_node13"><a xlink:href="_s_f_m_l_facade_8h.html" target="_top" xlink:title=" ">
<polygon fill="white" stroke="black" points="744.5,-56.5 744.5,-75.5 867.5,-75.5 867.5,-56.5 744.5,-56.5"/>
<text text-anchor="middle" x="806" y="-63.5" font-family="Helvetica,sans-Serif" font-size="10.00">graphics/SFMLFacade.h</text>
</a>
</g>
</g>
<!-- Node12&#45;&gt;Node13 -->
<g id="edge14" class="edge">
<title>Node12&#45;&gt;Node13</title>
<path fill="none" stroke="midnightblue" d="M806,-112.08C806,-105.01 806,-94.86 806,-85.99"/>
<polygon fill="midnightblue" stroke="midnightblue" points="809.5,-85.75 806,-75.75 802.5,-85.75 809.5,-85.75"/>
</g>
<!-- Node16 -->
<g id="node16" class="node">
<title>Node16</title>
<g id="a_node16"><a xlink:title=" ">
<polygon fill="white" stroke="#bfbfbf" points="560,-56.5 560,-75.5 658,-75.5 658,-56.5 560,-56.5"/>
<text text-anchor="middle" x="609" y="-63.5" font-family="Helvetica,sans-Serif" font-size="10.00">nlohmann/json.hpp</text>
</a>
</g>
</g>
<!-- Node12&#45;&gt;Node16 -->
<g id="edge17" class="edge">
<title>Node12&#45;&gt;Node16</title>
<path fill="none" stroke="midnightblue" d="M774.78,-112.44C741.07,-103.2 687.2,-88.44 650.07,-78.26"/>
<polygon fill="midnightblue" stroke="midnightblue" points="650.64,-74.78 640.07,-75.52 648.79,-81.54 650.64,-74.78"/>
</g>
<!-- Node14 -->
<g id="node14" class="node">
<title>Node14</title>
<g id="a_node14"><a xlink:title=" ">
<polygon fill="white" stroke="#bfbfbf" points="754,-0.5 754,-19.5 858,-19.5 858,-0.5 754,-0.5"/>
<text text-anchor="middle" x="806" y="-7.5" font-family="Helvetica,sans-Serif" font-size="10.00">SFML/Graphics.hpp</text>
</a>
</g>
</g>
<!-- Node13&#45;&gt;Node14 -->
<g id="edge15" class="edge">
<title>Node13&#45;&gt;Node14</title>
<path fill="none" stroke="midnightblue" d="M806,-56.08C806,-49.01 806,-38.86 806,-29.99"/>
<polygon fill="midnightblue" stroke="midnightblue" points="809.5,-29.75 806,-19.75 802.5,-29.75 809.5,-29.75"/>
</g>
<!-- Node13&#45;&gt;Node15 -->
<g id="edge16" class="edge">
<title>Node13&#45;&gt;Node15</title>
<path fill="none" stroke="midnightblue" d="M744.45,-56.96C741.26,-56.62 738.09,-56.3 735,-56 484.38,-32.05 181.83,-17.35 76.42,-12.65"/>
<polygon fill="midnightblue" stroke="midnightblue" points="76.41,-9.14 66.27,-12.2 76.1,-16.14 76.41,-9.14"/>
</g>
<!-- Node18 -->
<g id="node18" class="node">
<title>Node18</title>
<g id="a_node18"><a xlink:title=" ">
<polygon fill="white" stroke="#bfbfbf" points="473,-56.5 473,-75.5 517,-75.5 517,-56.5 473,-56.5"/>
<text text-anchor="middle" x="495" y="-63.5" font-family="Helvetica,sans-Serif" font-size="10.00">vector</text>
</a>
</g>
</g>
<!-- Node17&#45;&gt;Node18 -->
<g id="edge20" class="edge">
<title>Node17&#45;&gt;Node18</title>
<path fill="none" stroke="midnightblue" d="M667.16,-336.31C639.94,-325.01 601.22,-303.88 618,-280 647.29,-238.32 739.49,-270.19 718,-224 680.66,-143.74 578.93,-96.98 526.77,-77.59"/>
<polygon fill="midnightblue" stroke="midnightblue" points="527.93,-74.28 517.33,-74.18 525.55,-80.87 527.93,-74.28"/>
</g>
<!-- Node17&#45;&gt;Node19 -->
<g id="edge21" class="edge">
<title>Node17&#45;&gt;Node19</title>
<path fill="none" stroke="midnightblue" d="M707.07,-336.32C722.96,-327.74 747.51,-314.49 765.96,-304.52"/>
<polygon fill="midnightblue" stroke="midnightblue" points="767.84,-307.49 774.97,-299.65 764.51,-301.33 767.84,-307.49"/>
</g>
<!-- Node20 -->
<g id="node20" class="node">
<title>Node20</title>
<g id="a_node20"><a xlink:title=" ">
<polygon fill="white" stroke="#bfbfbf" points="627,-280.5 627,-299.5 755,-299.5 755,-280.5 627,-280.5"/>
<text text-anchor="middle" x="691" y="-287.5" font-family="Helvetica,sans-Serif" font-size="10.00">scanline_triangulation.hpp</text>
</a>
</g>
</g>
<!-- Node17&#45;&gt;Node20 -->
<g id="edge22" class="edge">
<title>Node17&#45;&gt;Node20</title>
<path fill="none" stroke="midnightblue" d="M691,-336.08C691,-329.01 691,-318.86 691,-309.99"/>
<polygon fill="midnightblue" stroke="midnightblue" points="694.5,-309.75 691,-299.75 687.5,-309.75 694.5,-309.75"/>
</g>
<!-- Node21&#45;&gt;Node4 -->
<g id="edge27" class="edge">
<title>Node21&#45;&gt;Node4</title>
<path fill="none" stroke="midnightblue" d="M422.7,-168.37C476.17,-148.89 606.34,-101.48 667.81,-79.09"/>
<polygon fill="midnightblue" stroke="midnightblue" points="669.21,-82.3 677.41,-75.59 666.82,-75.73 669.21,-82.3"/>
</g>
<!-- Node22 -->
<g id="node22" class="node">
<title>Node22</title>
<g id="a_node22"><a xlink:href="_flag_8h.html" target="_top" xlink:title=" ">
<polygon fill="white" stroke="black" points="347.5,-112.5 347.5,-131.5 390.5,-131.5 390.5,-112.5 347.5,-112.5"/>
<text text-anchor="middle" x="369" y="-119.5" font-family="Helvetica,sans-Serif" font-size="10.00">Flag.h</text>
</a>
</g>
</g>
<!-- Node21&#45;&gt;Node22 -->
<g id="edge24" class="edge">
<title>Node21&#45;&gt;Node22</title>
<path fill="none" stroke="midnightblue" d="M394.05,-168.08C389.9,-160.61 383.85,-149.72 378.73,-140.52"/>
<polygon fill="midnightblue" stroke="midnightblue" points="381.78,-138.79 373.86,-131.75 375.66,-142.19 381.78,-138.79"/>
</g>
<!-- Node22&#45;&gt;Node18 -->
<g id="edge25" class="edge">
<title>Node22&#45;&gt;Node18</title>
<path fill="none" stroke="midnightblue" d="M388.97,-112.44C409.61,-103.6 442.06,-89.69 465.63,-79.59"/>
<polygon fill="midnightblue" stroke="midnightblue" points="467.32,-82.67 475.13,-75.52 464.56,-76.24 467.32,-82.67"/>
</g>
<!-- Node23 -->
<g id="node23" class="node">
<title>Node23</title>
<g id="a_node23"><a xlink:title=" ">
<polygon fill="white" stroke="#bfbfbf" points="197.5,-56.5 197.5,-75.5 238.5,-75.5 238.5,-56.5 197.5,-56.5"/>
<text text-anchor="middle" x="218" y="-63.5" font-family="Helvetica,sans-Serif" font-size="10.00">string</text>
</a>
</g>
</g>
<!-- Node22&#45;&gt;Node23 -->
<g id="edge26" class="edge">
<title>Node22&#45;&gt;Node23</title>
<path fill="none" stroke="midnightblue" d="M347.37,-113.26C321.4,-103.98 277.69,-88.34 248.35,-77.85"/>
<polygon fill="midnightblue" stroke="midnightblue" points="249.22,-74.45 238.63,-74.38 246.86,-81.04 249.22,-74.45"/>
</g>
<!-- Node24&#45;&gt;Node17 -->
<g id="edge35" class="edge">
<title>Node24&#45;&gt;Node17</title>
<path fill="none" stroke="midnightblue" d="M685.86,-397.98C686.71,-389.58 688.03,-376.48 689.12,-365.66"/>
<polygon fill="midnightblue" stroke="midnightblue" points="692.62,-365.81 690.14,-355.51 685.66,-365.11 692.62,-365.81"/>
</g>
<!-- Node24&#45;&gt;Node18 -->
<g id="edge34" class="edge">
<title>Node24&#45;&gt;Node18</title>
<path fill="none" stroke="midnightblue" d="M677.86,-397.73C669.85,-387.8 656.6,-371.02 646,-356 578.78,-260.74 521.99,-131.7 502.35,-84.89"/>
<polygon fill="midnightblue" stroke="midnightblue" points="505.52,-83.4 498.45,-75.51 499.05,-86.08 505.52,-83.4"/>
</g>
<!-- Node25&#45;&gt;Node10 -->
<g id="edge39" class="edge">
<title>Node25&#45;&gt;Node10</title>
<path fill="none" stroke="midnightblue" d="M1035.43,-286.33C999.11,-281.81 954.09,-270.68 923,-244 909.18,-232.14 901.98,-212.22 898.36,-197.56"/>
<polygon fill="midnightblue" stroke="midnightblue" points="901.74,-196.64 896.25,-187.58 894.9,-198.09 901.74,-196.64"/>
</g>
<!-- Node25&#45;&gt;Node11 -->
<g id="edge38" class="edge">
<title>Node25&#45;&gt;Node11</title>
<path fill="none" stroke="midnightblue" d="M1123.64,-280.45C1152.8,-269.87 1192.54,-250 1177,-224 1159.65,-194.99 1136.89,-208.49 1110,-188 1091.3,-173.76 1073.13,-153.75 1061.35,-139.71"/>
<polygon fill="midnightblue" stroke="midnightblue" points="1063.94,-137.35 1054.89,-131.84 1058.53,-141.79 1063.94,-137.35"/>
</g>
<!-- Node26 -->
<g id="node26" class="node">
<title>Node26</title>
<g id="a_node26"><a xlink:href="_network_manager_8h.html" target="_top" xlink:title=" ">
<polygon fill="white" stroke="black" points="932,-224.5 932,-243.5 1062,-243.5 1062,-224.5 932,-224.5"/>
<text text-anchor="middle" x="997" y="-231.5" font-family="Helvetica,sans-Serif" font-size="10.00">engine/NetworkManager.h</text>
</a>
</g>
</g>
<!-- Node25&#45;&gt;Node26 -->
<g id="edge40" class="edge">
<title>Node25&#45;&gt;Node26</title>
<path fill="none" stroke="midnightblue" d="M1080.09,-280.32C1064.36,-271.74 1040.06,-258.49 1021.79,-248.52"/>
<polygon fill="midnightblue" stroke="midnightblue" points="1023.32,-245.37 1012.87,-243.65 1019.97,-251.52 1023.32,-245.37"/>
</g>
<!-- Node28 -->
<g id="node28" class="node">
<title>Node28</title>
<g id="a_node28"><a xlink:title=" ">
<polygon fill="white" stroke="#bfbfbf" points="1118.5,-224.5 1118.5,-243.5 1167.5,-243.5 1167.5,-224.5 1118.5,-224.5"/>
<text text-anchor="middle" x="1143" y="-231.5" font-family="Helvetica,sans-Serif" font-size="10.00">random</text>
</a>
</g>
</g>
<!-- Node25&#45;&gt;Node28 -->
<g id="edge45" class="edge">
<title>Node25&#45;&gt;Node28</title>
<path fill="none" stroke="midnightblue" d="M1103.76,-280.08C1110.54,-272.3 1120.54,-260.8 1128.76,-251.37"/>
<polygon fill="midnightblue" stroke="midnightblue" points="1131.46,-253.59 1135.38,-243.75 1126.18,-249 1131.46,-253.59"/>
</g>
<!-- Node26&#45;&gt;Node5 -->
<g id="edge42" class="edge">
<title>Node26&#45;&gt;Node5</title>
<path fill="none" stroke="midnightblue" d="M1025.2,-224.44C1055.41,-215.28 1103.51,-200.69 1137.03,-190.52"/>
<polygon fill="midnightblue" stroke="midnightblue" points="1138.37,-193.77 1146.93,-187.52 1136.34,-187.07 1138.37,-193.77"/>
</g>
<!-- Node26&#45;&gt;Node10 -->
<g id="edge41" class="edge">
<title>Node26&#45;&gt;Node10</title>
<path fill="none" stroke="midnightblue" d="M980.61,-224.32C964.33,-215.7 939.13,-202.36 920.28,-192.39"/>
<polygon fill="midnightblue" stroke="midnightblue" points="921.82,-189.24 911.35,-187.65 918.55,-195.43 921.82,-189.24"/>
</g>
<!-- Node26&#45;&gt;Node18 -->
<g id="edge43" class="edge">
<title>Node26&#45;&gt;Node18</title>
<path fill="none" stroke="midnightblue" d="M991.08,-224.28C981.85,-211.09 962.99,-185.7 943,-168 908.57,-137.51 899.28,-127.54 856,-112 727.53,-65.88 686.19,-94.83 551,-76 543.2,-74.91 534.81,-73.63 526.96,-72.37"/>
<polygon fill="midnightblue" stroke="midnightblue" points="527.48,-68.91 517.04,-70.76 526.35,-75.82 527.48,-68.91"/>
</g>
<!-- Node27 -->
<g id="node27" class="node">
<title>Node27</title>
<g id="a_node27"><a xlink:title=" ">
<polygon fill="white" stroke="#bfbfbf" points="990.5,-168.5 990.5,-187.5 1061.5,-187.5 1061.5,-168.5 990.5,-168.5"/>
<text text-anchor="middle" x="1026" y="-175.5" font-family="Helvetica,sans-Serif" font-size="10.00">sys/socket.h</text>
</a>
</g>
</g>
<!-- Node26&#45;&gt;Node27 -->
<g id="edge44" class="edge">
<title>Node26&#45;&gt;Node27</title>
<path fill="none" stroke="midnightblue" d="M1001.79,-224.08C1005.76,-216.69 1011.53,-205.95 1016.43,-196.81"/>
<polygon fill="midnightblue" stroke="midnightblue" points="1019.65,-198.22 1021.3,-187.75 1013.49,-194.91 1019.65,-198.22"/>
</g>
<!-- Node30 -->
<g id="node30" class="node">
<title>Node30</title>
<g id="a_node30"><a xlink:href="_factory_8h.html" target="_top" xlink:title=" ">
<polygon fill="white" stroke="black" points="195,-280.5 195,-299.5 251,-299.5 251,-280.5 195,-280.5"/>
<text text-anchor="middle" x="223" y="-287.5" font-family="Helvetica,sans-Serif" font-size="10.00">Factory.h</text>
</a>
</g>
</g>
<!-- Node29&#45;&gt;Node30 -->
<g id="edge48" class="edge">
<title>Node29&#45;&gt;Node30</title>
<path fill="none" stroke="midnightblue" d="M258.06,-336.08C252.07,-328.38 243.25,-317.03 235.95,-307.65"/>
<polygon fill="midnightblue" stroke="midnightblue" points="238.71,-305.5 229.81,-299.75 233.18,-309.79 238.71,-305.5"/>
</g>
<!-- Node30&#45;&gt;Node8 -->
<g id="edge50" class="edge">
<title>Node30&#45;&gt;Node8</title>
<path fill="none" stroke="midnightblue" d="M222.12,-299.63C221.1,-312.28 220.25,-336.5 226,-356 235.74,-389.05 235.92,-404.52 265,-423 302.22,-446.65 589.72,-460.78 714.51,-465.86"/>
<polygon fill="midnightblue" stroke="midnightblue" points="714.5,-469.36 724.64,-466.26 714.79,-462.36 714.5,-469.36"/>
</g>
<!-- Node30&#45;&gt;Node23 -->
<g id="edge49" class="edge">
<title>Node30&#45;&gt;Node23</title>
<path fill="none" stroke="midnightblue" d="M222.8,-280.3C222.07,-247.63 219.46,-131.87 218.43,-85.96"/>
<polygon fill="midnightblue" stroke="midnightblue" points="221.92,-85.8 218.2,-75.88 214.93,-85.96 221.92,-85.8"/>
</g>
<!-- Node30&#45;&gt;Node31 -->
<g id="edge51" class="edge">
<title>Node30&#45;&gt;Node31</title>
<path fill="none" stroke="midnightblue" d="M210.63,-280.32C198.84,-272.06 180.87,-259.45 166.86,-249.63"/>
<polygon fill="midnightblue" stroke="midnightblue" points="168.54,-246.53 158.34,-243.65 164.52,-252.26 168.54,-246.53"/>
</g>
<!-- Node31&#45;&gt;Node7 -->
<g id="edge56" class="edge">
<title>Node31&#45;&gt;Node7</title>
<path fill="none" stroke="midnightblue" d="M147.39,-243.68C144.4,-262.04 129,-306.34 129,-345 129,-470 129,-470 129,-470 129,-524.19 499.31,-560.21 664.81,-573.86"/>
<polygon fill="midnightblue" stroke="midnightblue" points="664.67,-577.36 674.93,-574.69 665.24,-570.39 664.67,-577.36"/>
</g>
<!-- Node31&#45;&gt;Node21 -->
<g id="edge57" class="edge">
<title>Node31&#45;&gt;Node21</title>
<path fill="none" stroke="midnightblue" d="M167.29,-228.67C204.22,-221.12 282.76,-204.93 359.39,-188.1"/>
<polygon fill="midnightblue" stroke="midnightblue" points="360.19,-191.51 369.2,-185.94 358.68,-184.67 360.19,-191.51"/>
</g>
<!-- Node32 -->
<g id="node32" class="node">
<title>Node32</title>
<g id="a_node32"><a xlink:title=" ">
<polygon fill="white" stroke="#bfbfbf" points="150.5,-168.5 150.5,-187.5 193.5,-187.5 193.5,-168.5 150.5,-168.5"/>
<text text-anchor="middle" x="172" y="-175.5" font-family="Helvetica,sans-Serif" font-size="10.00">cstdio</text>
</a>
</g>
</g>
<!-- Node31&#45;&gt;Node32 -->
<g id="edge52" class="edge">
<title>Node31&#45;&gt;Node32</title>
<path fill="none" stroke="midnightblue" d="M150.29,-224.08C153.85,-216.69 159.02,-205.95 163.42,-196.81"/>
<polygon fill="midnightblue" stroke="midnightblue" points="166.6,-198.28 167.79,-187.75 160.29,-195.24 166.6,-198.28"/>
</g>
<!-- Node33 -->
<g id="node33" class="node">
<title>Node33</title>
<g id="a_node33"><a xlink:href="_unit_order_8h.html" target="_top" xlink:title=" ">
<polygon fill="white" stroke="black" points="66,-168.5 66,-187.5 132,-187.5 132,-168.5 66,-168.5"/>
<text text-anchor="middle" x="99" y="-175.5" font-family="Helvetica,sans-Serif" font-size="10.00">UnitOrder.h</text>
</a>
</g>
</g>
<!-- Node31&#45;&gt;Node33 -->
<g id="edge53" class="edge">
<title>Node31&#45;&gt;Node33</title>
<path fill="none" stroke="midnightblue" d="M133.33,-224.32C125.08,-216.73 114.89,-205.48 107.55,-196.09"/>
<polygon fill="midnightblue" stroke="midnightblue" points="110.25,-193.86 101.54,-187.83 104.59,-197.98 110.25,-193.86"/>
</g>
<!-- Node34 -->
<g id="node34" class="node">
<title>Node34</title>
<g id="a_node34"><a xlink:href="_textures_8h.html" target="_top" xlink:title=" ">
<polygon fill="white" stroke="black" points="250.5,-168.5 250.5,-187.5 351.5,-187.5 351.5,-168.5 250.5,-168.5"/>
<text text-anchor="middle" x="301" y="-175.5" font-family="Helvetica,sans-Serif" font-size="10.00">graphics/Textures.h</text>
</a>
</g>
</g>
<!-- Node31&#45;&gt;Node34 -->
<g id="edge58" class="edge">
<title>Node31&#45;&gt;Node34</title>
<path fill="none" stroke="midnightblue" d="M167.23,-225.6C192.85,-216.68 236.28,-201.55 266.69,-190.95"/>
<polygon fill="midnightblue" stroke="midnightblue" points="268.16,-194.15 276.46,-187.55 265.86,-187.54 268.16,-194.15"/>
</g>
<!-- Node33&#45;&gt;Node23 -->
<g id="edge54" class="edge">
<title>Node33&#45;&gt;Node23</title>
<path fill="none" stroke="midnightblue" d="M108.34,-168.37C128.41,-149.81 175.9,-105.91 201.3,-82.44"/>
<polygon fill="midnightblue" stroke="midnightblue" points="203.74,-84.95 208.71,-75.59 198.99,-79.81 203.74,-84.95"/>
</g>
<!-- Node33&#45;&gt;Node31 -->
<g id="edge55" class="edge">
<title>Node33&#45;&gt;Node31</title>
<path fill="none" stroke="midnightblue" d="M111.75,-187.75C119.97,-195.33 130.1,-206.5 137.41,-215.86"/>
<polygon fill="midnightblue" stroke="midnightblue" points="134.69,-218.06 143.41,-224.08 140.35,-213.94 134.69,-218.06"/>
</g>
<!-- Node34&#45;&gt;Node12 -->
<g id="edge59" class="edge">
<title>Node34&#45;&gt;Node12</title>
<path fill="none" stroke="midnightblue" d="M351.51,-169.12C354.38,-168.73 357.22,-168.35 360,-168 502.9,-149.9 672.3,-134.45 755.18,-127.28"/>
<polygon fill="midnightblue" stroke="midnightblue" points="755.67,-130.75 765.34,-126.41 755.07,-123.78 755.67,-130.75"/>
</g>
<!-- Node34&#45;&gt;Node18 -->
<g id="edge60" class="edge">
<title>Node34&#45;&gt;Node18</title>
<path fill="none" stroke="midnightblue" d="M322.14,-168.49C342.33,-160.08 373.39,-146.42 399,-132 426.56,-116.48 456.45,-95.53 475.43,-81.66"/>
<polygon fill="midnightblue" stroke="midnightblue" points="477.61,-84.4 483.57,-75.65 473.45,-78.77 477.61,-84.4"/>
</g>
<!-- Node35 -->
<g id="node35" class="node">
<title>Node35</title>
<g id="a_node35"><a xlink:title=" ">
<polygon fill="white" stroke="#bfbfbf" points="246.5,-112.5 246.5,-131.5 329.5,-131.5 329.5,-112.5 246.5,-112.5"/>
<text text-anchor="middle" x="288" y="-119.5" font-family="Helvetica,sans-Serif" font-size="10.00">unordered_map</text>
</a>
</g>
</g>
<!-- Node34&#45;&gt;Node35 -->
<g id="edge61" class="edge">
<title>Node34&#45;&gt;Node35</title>
<path fill="none" stroke="midnightblue" d="M298.85,-168.08C297.13,-160.93 294.65,-150.64 292.5,-141.69"/>
<polygon fill="midnightblue" stroke="midnightblue" points="295.85,-140.65 290.11,-131.75 289.04,-142.29 295.85,-140.65"/>
</g>
<!-- Node36&#45;&gt;Node29 -->
<g id="edge70" class="edge">
<title>Node36&#45;&gt;Node29</title>
<path fill="none" stroke="midnightblue" d="M337.82,-397.98C324.19,-388.43 301.87,-372.81 285.53,-361.37"/>
<polygon fill="midnightblue" stroke="midnightblue" points="287.36,-358.38 277.16,-355.51 283.34,-364.11 287.36,-358.38"/>
</g>
<!-- Node37 -->
<g id="node37" class="node">
<title>Node37</title>
<g id="a_node37"><a xlink:href="_squad_template_8h.html" target="_top" xlink:title=" ">
<polygon fill="white" stroke="black" points="313,-336.5 313,-355.5 405,-355.5 405,-336.5 313,-336.5"/>
<text text-anchor="middle" x="359" y="-343.5" font-family="Helvetica,sans-Serif" font-size="10.00">SquadTemplate.h</text>
</a>
</g>
</g>
<!-- Node36&#45;&gt;Node37 -->
<g id="edge63" class="edge">
<title>Node36&#45;&gt;Node37</title>
<path fill="none" stroke="midnightblue" d="M351.29,-397.98C352.56,-389.58 354.54,-376.48 356.18,-365.66"/>
<polygon fill="midnightblue" stroke="midnightblue" points="359.68,-365.92 357.71,-355.51 352.76,-364.87 359.68,-365.92"/>
</g>
<!-- Node37&#45;&gt;Node18 -->
<g id="edge64" class="edge">
<title>Node37&#45;&gt;Node18</title>
<path fill="none" stroke="midnightblue" d="M363.44,-336.17C375.42,-312.32 409.37,-244.62 437,-188 454.89,-151.34 475.44,-108.23 486.64,-84.64"/>
<polygon fill="midnightblue" stroke="midnightblue" points="489.84,-86.06 490.96,-75.53 483.51,-83.06 489.84,-86.06"/>
</g>
<!-- Node37&#45;&gt;Node30 -->
<g id="edge65" class="edge">
<title>Node37&#45;&gt;Node30</title>
<path fill="none" stroke="midnightblue" d="M337.45,-336.44C314.97,-327.52 279.51,-313.44 254.02,-303.32"/>
<polygon fill="midnightblue" stroke="midnightblue" points="255.03,-299.95 244.45,-299.52 252.45,-306.46 255.03,-299.95"/>
</g>
<!-- Node38 -->
<g id="node38" class="node">
<title>Node38</title>
<g id="a_node38"><a xlink:href="_gui_list_8h.html" target="_top" xlink:title=" ">
<polygon fill="white" stroke="black" points="425,-280.5 425,-299.5 533,-299.5 533,-280.5 425,-280.5"/>
<text text-anchor="middle" x="479" y="-287.5" font-family="Helvetica,sans-Serif" font-size="10.00">engine/GUI/GuiList.h</text>
</a>
</g>
</g>
<!-- Node37&#45;&gt;Node38 -->
<g id="edge66" class="edge">
<title>Node37&#45;&gt;Node38</title>
<path fill="none" stroke="midnightblue" d="M378.01,-336.44C397.59,-327.64 428.31,-313.81 450.73,-303.72"/>
<polygon fill="midnightblue" stroke="midnightblue" points="452.39,-306.81 460.07,-299.52 449.52,-300.43 452.39,-306.81"/>
</g>
<!-- Node38&#45;&gt;Node18 -->
<g id="edge69" class="edge">
<title>Node38&#45;&gt;Node18</title>
<path fill="none" stroke="midnightblue" d="M479.63,-280.3C481.98,-247.63 490.32,-131.87 493.63,-85.96"/>
<polygon fill="midnightblue" stroke="midnightblue" points="497.13,-86.11 494.36,-75.88 490.15,-85.61 497.13,-86.11"/>
</g>
<!-- Node39 -->
<g id="node39" class="node">
<title>Node39</title>
<g id="a_node39"><a xlink:href="_gui_object_8h.html" target="_top" xlink:title=" ">
<polygon fill="white" stroke="black" points="589,-224.5 589,-243.5 709,-243.5 709,-224.5 589,-224.5"/>
<text text-anchor="middle" x="649" y="-231.5" font-family="Helvetica,sans-Serif" font-size="10.00">engine/GUI/GuiObject.h</text>
</a>
</g>
</g>
<!-- Node38&#45;&gt;Node39 -->
<g id="edge67" class="edge">
<title>Node38&#45;&gt;Node39</title>
<path fill="none" stroke="midnightblue" d="M505.94,-280.44C534.66,-271.32 580.33,-256.81 612.32,-246.65"/>
<polygon fill="midnightblue" stroke="midnightblue" points="613.72,-249.88 622.19,-243.52 611.6,-243.21 613.72,-249.88"/>
</g>
<!-- Node39&#45;&gt;Node10 -->
<g id="edge68" class="edge">
<title>Node39&#45;&gt;Node10</title>
<path fill="none" stroke="midnightblue" d="M687.98,-224.44C730.89,-215.02 799.95,-199.87 846.37,-189.68"/>
<polygon fill="midnightblue" stroke="midnightblue" points="847.19,-193.08 856.2,-187.52 845.69,-186.24 847.19,-193.08"/>
</g>
<!-- Node40&#45;&gt;Node7 -->
<g id="edge74" class="edge">
<title>Node40&#45;&gt;Node7</title>
<path fill="none" stroke="midnightblue" d="M791.64,-534.83C785.61,-542.87 774.36,-554.91 764.06,-564.54"/>
<polygon fill="midnightblue" stroke="midnightblue" points="761.59,-562.05 756.47,-571.32 766.26,-567.27 761.59,-562.05"/>
</g>
<!-- Node40&#45;&gt;Node8 -->
<g id="edge75" class="edge">
<title>Node40&#45;&gt;Node8</title>
<path fill="none" stroke="midnightblue" d="M791.2,-515.08C788.09,-507.77 783.58,-497.18 779.71,-488.1"/>
<polygon fill="midnightblue" stroke="midnightblue" points="782.87,-486.58 775.73,-478.75 776.43,-489.32 782.87,-486.58"/>
</g>
</g>
</svg>
