<?xml version="1.0" encoding="UTF-8" standalone="no"?>
<!DOCTYPE svg PUBLIC "-//W3C//DTD SVG 1.1//EN"
 "http://www.w3.org/Graphics/SVG/1.1/DTD/svg11.dtd">
<!-- Generated by graphviz version 2.47.1 (20210421.1823)
 -->
<!-- Title: include/engine/gameplayClickableGameObject.h Pages: 1 -->
<svg width="1768pt" height="575pt"
 viewBox="0.00 0.00 1768.03 575.00" xmlns="http://www.w3.org/2000/svg" xmlns:xlink="http://www.w3.org/1999/xlink">
<g id="graph0" class="graph" transform="scale(1 1) rotate(0) translate(4 571)">
<title>include/engine/gameplayClickableGameObject.h</title>
<polygon fill="white" stroke="transparent" points="-4,4 -4,-571 1764.03,-571 1764.03,4 -4,4"/>
<!-- Node1 -->
<g id="node1" class="node">
<title>Node1</title>
<g id="a_node1"><a xlink:title=" ">
<polygon fill="#bfbfbf" stroke="black" points="460.03,-536.5 460.03,-566.5 623.03,-566.5 623.03,-536.5 460.03,-536.5"/>
<text text-anchor="start" x="468.03" y="-554.5" font-family="Helvetica,sans-Serif" font-size="10.00">include/engine/gameplayClickable</text>
<text text-anchor="middle" x="541.53" y="-543.5" font-family="Helvetica,sans-Serif" font-size="10.00">GameObject.h</text>
</a>
</g>
</g>
<!-- Node2 -->
<g id="node2" class="node">
<title>Node2</title>
<g id="a_node2"><a xlink:href="_click_action_8cpp.html" target="_top" xlink:title=" ">
<polygon fill="white" stroke="black" points="277.53,-469.5 277.53,-499.5 373.53,-499.5 373.53,-469.5 277.53,-469.5"/>
<text text-anchor="start" x="285.53" y="-487.5" font-family="Helvetica,sans-Serif" font-size="10.00">src/engine/actions</text>
<text text-anchor="middle" x="325.53" y="-476.5" font-family="Helvetica,sans-Serif" font-size="10.00">/ClickAction.cpp</text>
</a>
</g>
</g>
<!-- Node1&#45;&gt;Node2 -->
<g id="edge1" class="edge">
<title>Node1&#45;&gt;Node2</title>
<path fill="none" stroke="midnightblue" d="M485.3,-533.58C450.22,-523.02 405.59,-509.59 372.42,-499.61"/>
<polygon fill="midnightblue" stroke="midnightblue" points="484.34,-536.95 494.93,-536.48 486.36,-530.24 484.34,-536.95"/>
</g>
<!-- Node3 -->
<g id="node3" class="node">
<title>Node3</title>
<g id="a_node3"><a xlink:href="gameplay_clickable_game_object_8cpp.html" target="_top" xlink:title=" ">
<polygon fill="white" stroke="black" points="391.53,-469.5 391.53,-499.5 537.53,-499.5 537.53,-469.5 391.53,-469.5"/>
<text text-anchor="start" x="399.53" y="-487.5" font-family="Helvetica,sans-Serif" font-size="10.00">src/engine/gameplayClickable</text>
<text text-anchor="middle" x="464.53" y="-476.5" font-family="Helvetica,sans-Serif" font-size="10.00">GameObject.cpp</text>
</a>
</g>
</g>
<!-- Node1&#45;&gt;Node3 -->
<g id="edge2" class="edge">
<title>Node1&#45;&gt;Node3</title>
<path fill="none" stroke="midnightblue" d="M517.1,-529.88C505.4,-520.01 491.69,-508.43 481.2,-499.58"/>
<polygon fill="midnightblue" stroke="midnightblue" points="514.92,-532.62 524.82,-536.4 519.44,-527.27 514.92,-532.62"/>
</g>
<!-- Node4 -->
<g id="node4" class="node">
<title>Node4</title>
<g id="a_node4"><a xlink:href="_cell_8h.html" target="_top" xlink:title=" ">
<polygon fill="white" stroke="black" points="555.53,-475 555.53,-494 683.53,-494 683.53,-475 555.53,-475"/>
<text text-anchor="middle" x="619.53" y="-482" font-family="Helvetica,sans-Serif" font-size="10.00">include/GameLogic/Cell.h</text>
</a>
</g>
</g>
<!-- Node1&#45;&gt;Node4 -->
<g id="edge3" class="edge">
<title>Node1&#45;&gt;Node4</title>
<path fill="none" stroke="midnightblue" d="M566.52,-529.67C580.92,-517.67 598.26,-503.22 609.09,-494.19"/>
<polygon fill="midnightblue" stroke="midnightblue" points="563.89,-527.31 558.45,-536.4 568.38,-532.68 563.89,-527.31"/>
</g>
<!-- Node12 -->
<g id="node12" class="node">
<title>Node12</title>
<g id="a_node12"><a xlink:href="_squad_8h.html" target="_top" xlink:title=" ">
<polygon fill="white" stroke="black" points="800.03,-335.5 800.03,-365.5 931.03,-365.5 931.03,-335.5 800.03,-335.5"/>
<text text-anchor="start" x="808.03" y="-353.5" font-family="Helvetica,sans-Serif" font-size="10.00">include/GameLogic/Squad</text>
<text text-anchor="middle" x="865.53" y="-342.5" font-family="Helvetica,sans-Serif" font-size="10.00">/Squad.h</text>
</a>
</g>
</g>
<!-- Node1&#45;&gt;Node12 -->
<g id="edge68" class="edge">
<title>Node1&#45;&gt;Node12</title>
<path fill="none" stroke="midnightblue" d="M633.43,-536.35C739.38,-517.95 903.71,-482.23 940.53,-433 948.78,-421.97 947,-414.16 940.53,-402 931.9,-385.79 915.49,-373.85 900.22,-365.66"/>
<polygon fill="midnightblue" stroke="midnightblue" points="632.63,-532.94 623.37,-538.08 633.82,-539.84 632.63,-532.94"/>
</g>
<!-- Node5 -->
<g id="node5" class="node">
<title>Node5</title>
<g id="a_node5"><a xlink:href="_cell_8cpp.html" target="_top" xlink:title=" ">
<polygon fill="white" stroke="black" points="604.03,-408 604.03,-427 725.03,-427 725.03,-408 604.03,-408"/>
<text text-anchor="middle" x="664.53" y="-415" font-family="Helvetica,sans-Serif" font-size="10.00">src/GameLogic/Cell.cpp</text>
</a>
</g>
</g>
<!-- Node4&#45;&gt;Node5 -->
<g id="edge4" class="edge">
<title>Node4&#45;&gt;Node5</title>
<path fill="none" stroke="midnightblue" d="M631.36,-466.4C640.11,-453.77 651.65,-437.1 658.56,-427.13"/>
<polygon fill="midnightblue" stroke="midnightblue" points="628.41,-464.52 625.6,-474.73 634.17,-468.5 628.41,-464.52"/>
</g>
<!-- Node6 -->
<g id="node6" class="node">
<title>Node6</title>
<g id="a_node6"><a xlink:href="main_8cpp.html" target="_top" xlink:title=" ">
<polygon fill="white" stroke="black" points="373.53,-73 373.53,-92 445.53,-92 445.53,-73 373.53,-73"/>
<text text-anchor="middle" x="409.53" y="-80" font-family="Helvetica,sans-Serif" font-size="10.00">src/main.cpp</text>
</a>
</g>
</g>
<!-- Node4&#45;&gt;Node6 -->
<g id="edge5" class="edge">
<title>Node4&#45;&gt;Node6</title>
<path fill="none" stroke="midnightblue" d="M609.66,-465.99C596.69,-441.28 575.53,-394.39 575.53,-351.5 575.53,-351.5 575.53,-351.5 575.53,-215.5 575.53,-178.31 581.45,-161.6 556.53,-134 548.43,-125.04 479.79,-103.92 439.23,-92.03"/>
<polygon fill="midnightblue" stroke="midnightblue" points="606.64,-467.75 614.48,-474.87 612.79,-464.41 606.64,-467.75"/>
</g>
<!-- Node7 -->
<g id="node7" class="node">
<title>Node7</title>
<g id="a_node7"><a xlink:href="_set_squad_path_8h.html" target="_top" xlink:title=" ">
<polygon fill="white" stroke="black" points="251.03,-268.5 251.03,-298.5 364.03,-298.5 364.03,-268.5 251.03,-268.5"/>
<text text-anchor="start" x="259.03" y="-286.5" font-family="Helvetica,sans-Serif" font-size="10.00">include/engine/actions</text>
<text text-anchor="middle" x="307.53" y="-275.5" font-family="Helvetica,sans-Serif" font-size="10.00">/SetSquadPath.h</text>
</a>
</g>
</g>
<!-- Node4&#45;&gt;Node7 -->
<g id="edge6" class="edge">
<title>Node4&#45;&gt;Node7</title>
<path fill="none" stroke="midnightblue" d="M560.97,-473.08C488.17,-459.17 373.27,-435.94 369.53,-433 325.03,-398.06 306.89,-328.33 305.12,-298.53"/>
<polygon fill="midnightblue" stroke="midnightblue" points="560.46,-476.55 570.94,-474.98 561.77,-469.67 560.46,-476.55"/>
</g>
<!-- Node10 -->
<g id="node10" class="node">
<title>Node10</title>
<g id="a_node10"><a xlink:href="_game_logic_2_squad_2_action_8h.html" target="_top" xlink:title=" ">
<polygon fill="white" stroke="black" points="800.03,-402.5 800.03,-432.5 931.03,-432.5 931.03,-402.5 800.03,-402.5"/>
<text text-anchor="start" x="808.03" y="-420.5" font-family="Helvetica,sans-Serif" font-size="10.00">include/GameLogic/Squad</text>
<text text-anchor="middle" x="865.53" y="-409.5" font-family="Helvetica,sans-Serif" font-size="10.00">/Action.h</text>
</a>
</g>
</g>
<!-- Node4&#45;&gt;Node10 -->
<g id="edge10" class="edge">
<title>Node4&#45;&gt;Node10</title>
<path fill="none" stroke="midnightblue" d="M661.77,-472.34C703.43,-461.33 767.23,-444.47 812.32,-432.56"/>
<polygon fill="midnightblue" stroke="midnightblue" points="660.72,-469 651.94,-474.94 662.5,-475.76 660.72,-469"/>
</g>
<!-- Node4&#45;&gt;Node12 -->
<g id="edge65" class="edge">
<title>Node4&#45;&gt;Node12</title>
<path fill="none" stroke="midnightblue" d="M644.17,-470.84C666.05,-461.27 698.26,-447.37 725.53,-433 765.81,-411.76 810.36,-382.79 838.38,-365.72"/>
<polygon fill="midnightblue" stroke="midnightblue" points="642.65,-467.68 634.91,-474.91 645.47,-474.09 642.65,-467.68"/>
</g>
<!-- Node23 -->
<g id="node23" class="node">
<title>Node23</title>
<g id="a_node23"><a xlink:href="_factory_8h.html" target="_top" xlink:title=" ">
<polygon fill="white" stroke="black" points="420.03,-201.5 420.03,-231.5 547.03,-231.5 547.03,-201.5 420.03,-201.5"/>
<text text-anchor="start" x="428.03" y="-219.5" font-family="Helvetica,sans-Serif" font-size="10.00">include/GameLogic/Units</text>
<text text-anchor="middle" x="483.53" y="-208.5" font-family="Helvetica,sans-Serif" font-size="10.00">/Factory.h</text>
</a>
</g>
</g>
<!-- Node4&#45;&gt;Node23 -->
<g id="edge66" class="edge">
<title>Node4&#45;&gt;Node23</title>
<path fill="none" stroke="midnightblue" d="M597.99,-468.98C585.86,-459.87 571.25,-447.18 561.53,-433 515.42,-365.72 493.14,-268 486.09,-231.74"/>
<polygon fill="midnightblue" stroke="midnightblue" points="596.11,-471.95 606.27,-474.96 600.21,-466.27 596.11,-471.95"/>
</g>
<!-- Node41 -->
<g id="node41" class="node">
<title>Node41</title>
<g id="a_node41"><a xlink:href="pathfinding_8h.html" target="_top" xlink:title=" ">
<polygon fill="white" stroke="black" points="1096.53,-274 1096.53,-293 1216.53,-293 1216.53,-274 1096.53,-274"/>
<text text-anchor="middle" x="1156.53" y="-281" font-family="Helvetica,sans-Serif" font-size="10.00">include/util/pathfinding.h</text>
</a>
</g>
</g>
<!-- Node4&#45;&gt;Node41 -->
<g id="edge67" class="edge">
<title>Node4&#45;&gt;Node41</title>
<path fill="none" stroke="midnightblue" d="M693.55,-481.14C760.24,-476.88 859.9,-465.13 940.53,-433 1029.73,-397.46 1118.62,-319.62 1147.12,-293.36"/>
<polygon fill="midnightblue" stroke="midnightblue" points="693.32,-477.65 683.55,-481.74 693.74,-484.64 693.32,-477.65"/>
</g>
<!-- Node7&#45;&gt;Node4 -->
<g id="edge9" class="edge">
<title>Node7&#45;&gt;Node4</title>
<path fill="none" stroke="midnightblue" d="M318,-308.34C328.68,-341.62 347.37,-401.47 387.53,-433 391.44,-436.07 517.23,-461.41 582.01,-474.98"/>
<polygon fill="midnightblue" stroke="midnightblue" points="321.23,-306.95 314.79,-298.53 314.57,-309.13 321.23,-306.95"/>
</g>
<!-- Node8 -->
<g id="node8" class="node">
<title>Node8</title>
<g id="a_node8"><a xlink:href="engine_2_action_8cpp.html" target="_top" xlink:title=" ">
<polygon fill="white" stroke="black" points="130.53,-207 130.53,-226 240.53,-226 240.53,-207 130.53,-207"/>
<text text-anchor="middle" x="185.53" y="-214" font-family="Helvetica,sans-Serif" font-size="10.00">src/engine/Action.cpp</text>
</a>
</g>
</g>
<!-- Node7&#45;&gt;Node8 -->
<g id="edge7" class="edge">
<title>Node7&#45;&gt;Node8</title>
<path fill="none" stroke="midnightblue" d="M272.13,-263.64C248.79,-251.2 219.34,-235.51 201.49,-226.01"/>
<polygon fill="midnightblue" stroke="midnightblue" points="270.58,-266.78 281.06,-268.4 273.88,-260.6 270.58,-266.78"/>
</g>
<!-- Node9 -->
<g id="node9" class="node">
<title>Node9</title>
<g id="a_node9"><a xlink:href="_set_squad_path_8cpp.html" target="_top" xlink:title=" ">
<polygon fill="white" stroke="black" points="259.03,-201.5 259.03,-231.5 360.03,-231.5 360.03,-201.5 259.03,-201.5"/>
<text text-anchor="start" x="267.03" y="-219.5" font-family="Helvetica,sans-Serif" font-size="10.00">src/engine/actions</text>
<text text-anchor="middle" x="309.53" y="-208.5" font-family="Helvetica,sans-Serif" font-size="10.00">/SetSquadPath.cpp</text>
</a>
</g>
</g>
<!-- Node7&#45;&gt;Node9 -->
<g id="edge8" class="edge">
<title>Node7&#45;&gt;Node9</title>
<path fill="none" stroke="midnightblue" d="M308.28,-258.11C308.55,-249.15 308.86,-239.32 309.09,-231.58"/>
<polygon fill="midnightblue" stroke="midnightblue" points="304.77,-258.29 307.96,-268.4 311.77,-258.51 304.77,-258.29"/>
</g>
<!-- Node11 -->
<g id="node11" class="node">
<title>Node11</title>
<g id="a_node11"><a xlink:href="_game_logic_2_squad_2_action_8cpp.html" target="_top" xlink:title=" ">
<polygon fill="white" stroke="black" points="1209.53,-201.5 1209.53,-231.5 1323.53,-231.5 1323.53,-201.5 1209.53,-201.5"/>
<text text-anchor="start" x="1217.53" y="-219.5" font-family="Helvetica,sans-Serif" font-size="10.00">src/GameLogic/Squad</text>
<text text-anchor="middle" x="1266.53" y="-208.5" font-family="Helvetica,sans-Serif" font-size="10.00">/Action.cpp</text>
</a>
</g>
</g>
<!-- Node10&#45;&gt;Node11 -->
<g id="edge11" class="edge">
<title>Node10&#45;&gt;Node11</title>
<path fill="none" stroke="midnightblue" d="M895.6,-396.57C909.36,-387.37 925.84,-376.23 940.53,-366 1004.95,-321.11 1015.95,-300.28 1087.53,-268 1126.68,-250.35 1173.46,-237.41 1209.38,-229.04"/>
<polygon fill="midnightblue" stroke="midnightblue" points="893.37,-393.85 886.99,-402.31 897.25,-399.68 893.37,-393.85"/>
</g>
<!-- Node10&#45;&gt;Node12 -->
<g id="edge12" class="edge">
<title>Node10&#45;&gt;Node12</title>
<path fill="none" stroke="midnightblue" d="M858.98,-392.4C858.53,-383.37 858.82,-373.41 859.85,-365.58"/>
<polygon fill="midnightblue" stroke="midnightblue" points="855.5,-392.74 859.85,-402.4 862.47,-392.13 855.5,-392.74"/>
</g>
<!-- Node12&#45;&gt;Node4 -->
<g id="edge15" class="edge">
<title>Node12&#45;&gt;Node4</title>
<path fill="none" stroke="midnightblue" d="M842.9,-371.73C818.67,-389.04 779.4,-414.09 743.53,-433 712.09,-449.58 674.06,-465.52 648.26,-474.91"/>
<polygon fill="midnightblue" stroke="midnightblue" points="845.1,-374.45 851.11,-365.72 840.97,-368.8 845.1,-374.45"/>
</g>
<!-- Node12&#45;&gt;Node7 -->
<g id="edge14" class="edge">
<title>Node12&#45;&gt;Node7</title>
<path fill="none" stroke="midnightblue" d="M789.89,-340.69C676.53,-327.48 465.15,-302.86 364.12,-291.09"/>
<polygon fill="midnightblue" stroke="midnightblue" points="789.54,-344.17 799.88,-341.85 790.35,-337.22 789.54,-344.17"/>
</g>
<!-- Node12&#45;&gt;Node10 -->
<g id="edge16" class="edge">
<title>Node12&#45;&gt;Node10</title>
<path fill="none" stroke="midnightblue" d="M872.07,-375.57C872.52,-384.6 872.23,-394.56 871.21,-402.4"/>
<polygon fill="midnightblue" stroke="midnightblue" points="875.56,-375.24 871.2,-365.58 868.58,-375.84 875.56,-375.24"/>
</g>
<!-- Node13 -->
<g id="node13" class="node">
<title>Node13</title>
<g id="a_node13"><a xlink:href="_squad_8cpp.html" target="_top" xlink:title=" ">
<polygon fill="white" stroke="black" points="473.53,-67.5 473.53,-97.5 587.53,-97.5 587.53,-67.5 473.53,-67.5"/>
<text text-anchor="start" x="481.53" y="-85.5" font-family="Helvetica,sans-Serif" font-size="10.00">src/GameLogic/Squad</text>
<text text-anchor="middle" x="530.53" y="-74.5" font-family="Helvetica,sans-Serif" font-size="10.00">/Squad.cpp</text>
</a>
</g>
</g>
<!-- Node12&#45;&gt;Node13 -->
<g id="edge13" class="edge">
<title>Node12&#45;&gt;Node13</title>
<path fill="none" stroke="midnightblue" d="M817.53,-331.7C770.76,-312.55 699.7,-278.46 650.53,-232 613.24,-196.76 622.96,-172.91 589.53,-134 577.75,-120.3 562.14,-107.1 549.93,-97.64"/>
<polygon fill="midnightblue" stroke="midnightblue" points="816.25,-334.96 826.83,-335.44 818.86,-328.46 816.25,-334.96"/>
</g>
<!-- Node14 -->
<g id="node14" class="node">
<title>Node14</title>
<g id="a_node14"><a xlink:href="_unit_8h.html" target="_top" xlink:title=" ">
<polygon fill="white" stroke="black" points="804.03,-268.5 804.03,-298.5 931.03,-298.5 931.03,-268.5 804.03,-268.5"/>
<text text-anchor="start" x="812.03" y="-286.5" font-family="Helvetica,sans-Serif" font-size="10.00">include/GameLogic/Units</text>
<text text-anchor="middle" x="867.53" y="-275.5" font-family="Helvetica,sans-Serif" font-size="10.00">/Unit.h</text>
</a>
</g>
</g>
<!-- Node12&#45;&gt;Node14 -->
<g id="edge17" class="edge">
<title>Node12&#45;&gt;Node14</title>
<path fill="none" stroke="midnightblue" d="M859.72,-325.4C859.55,-316.37 860.15,-306.41 861.42,-298.58"/>
<polygon fill="midnightblue" stroke="midnightblue" points="856.23,-325.61 860.28,-335.4 863.22,-325.22 856.23,-325.61"/>
</g>
<!-- Node12&#45;&gt;Node41 -->
<g id="edge62" class="edge">
<title>Node12&#45;&gt;Node41</title>
<path fill="none" stroke="midnightblue" d="M938.38,-333.23C995.51,-320.47 1072.76,-303.21 1118.35,-293.03"/>
<polygon fill="midnightblue" stroke="midnightblue" points="937.31,-329.88 928.31,-335.48 938.83,-336.71 937.31,-329.88"/>
</g>
<!-- Node14&#45;&gt;Node12 -->
<g id="edge19" class="edge">
<title>Node14&#45;&gt;Node12</title>
<path fill="none" stroke="midnightblue" d="M873.33,-308.57C873.5,-317.6 872.91,-327.56 871.64,-335.4"/>
<polygon fill="midnightblue" stroke="midnightblue" points="876.83,-308.36 872.77,-298.58 869.84,-308.76 876.83,-308.36"/>
</g>
<!-- Node15 -->
<g id="node15" class="node">
<title>Node15</title>
<g id="a_node15"><a xlink:href="_unit_8cpp.html" target="_top" xlink:title=" ">
<polygon fill="white" stroke="black" points="1372.53,-134.5 1372.53,-164.5 1482.53,-164.5 1482.53,-134.5 1372.53,-134.5"/>
<text text-anchor="start" x="1380.53" y="-152.5" font-family="Helvetica,sans-Serif" font-size="10.00">src/GameLogic/Units</text>
<text text-anchor="middle" x="1427.53" y="-141.5" font-family="Helvetica,sans-Serif" font-size="10.00">/Unit.cpp</text>
</a>
</g>
</g>
<!-- Node14&#45;&gt;Node15 -->
<g id="edge18" class="edge">
<title>Node14&#45;&gt;Node15</title>
<path fill="none" stroke="midnightblue" d="M911.2,-264.45C931.27,-255.56 955.1,-244.15 975.53,-232 995.47,-220.14 995.9,-209.38 1017.53,-201 1161.69,-145.13 1210.98,-190.13 1363.53,-165 1366.45,-164.52 1369.44,-163.99 1372.45,-163.42"/>
<polygon fill="midnightblue" stroke="midnightblue" points="909.74,-261.27 901.98,-268.48 912.55,-267.68 909.74,-261.27"/>
</g>
<!-- Node16 -->
<g id="node16" class="node">
<title>Node16</title>
<g id="a_node16"><a xlink:href="_squad_order_8h.html" target="_top" xlink:title=" ">
<polygon fill="white" stroke="black" points="1629.03,-134.5 1629.03,-164.5 1760.03,-164.5 1760.03,-134.5 1629.03,-134.5"/>
<text text-anchor="start" x="1637.03" y="-152.5" font-family="Helvetica,sans-Serif" font-size="10.00">include/GameLogic/Squad</text>
<text text-anchor="middle" x="1694.53" y="-141.5" font-family="Helvetica,sans-Serif" font-size="10.00">/SquadOrder.h</text>
</a>
</g>
</g>
<!-- Node14&#45;&gt;Node16 -->
<g id="edge20" class="edge">
<title>Node14&#45;&gt;Node16</title>
<path fill="none" stroke="midnightblue" d="M941.6,-268.69C942.92,-268.46 944.23,-268.23 945.53,-268 1041.81,-251.07 1073.44,-272.25 1162.53,-232 1182.39,-223.03 1180.33,-209.19 1200.53,-201 1373.75,-130.8 1434.41,-190.78 1619.53,-165 1622.55,-164.58 1625.63,-164.12 1628.74,-163.62"/>
<polygon fill="midnightblue" stroke="midnightblue" points="940.59,-265.32 931.36,-270.53 941.82,-272.21 940.59,-265.32"/>
</g>
<!-- Node18 -->
<g id="node18" class="node">
<title>Node18</title>
<g id="a_node18"><a xlink:href="_armored_unit_8h.html" target="_top" xlink:title=" ">
<polygon fill="white" stroke="black" points="1227.03,-134.5 1227.03,-164.5 1354.03,-164.5 1354.03,-134.5 1227.03,-134.5"/>
<text text-anchor="start" x="1235.03" y="-152.5" font-family="Helvetica,sans-Serif" font-size="10.00">include/GameLogic/Units</text>
<text text-anchor="middle" x="1290.53" y="-141.5" font-family="Helvetica,sans-Serif" font-size="10.00">/ArmoredUnit.h</text>
</a>
</g>
</g>
<!-- Node14&#45;&gt;Node18 -->
<g id="edge22" class="edge">
<title>Node14&#45;&gt;Node18</title>
<path fill="none" stroke="midnightblue" d="M896.45,-262.68C909.89,-253.42 926.07,-242.21 940.53,-232 959.77,-218.41 961.73,-209.93 983.53,-201 1080.9,-161.13 1113.9,-183.25 1217.53,-165 1220.58,-164.46 1223.71,-163.9 1226.86,-163.32"/>
<polygon fill="midnightblue" stroke="midnightblue" points="894.31,-259.91 888.06,-268.46 898.28,-265.67 894.31,-259.91"/>
</g>
<!-- Node14&#45;&gt;Node23 -->
<g id="edge27" class="edge">
<title>Node14&#45;&gt;Node23</title>
<path fill="none" stroke="midnightblue" d="M793.41,-269.95C721.94,-257.86 614.93,-239.74 547.2,-228.28"/>
<polygon fill="midnightblue" stroke="midnightblue" points="793.24,-273.48 803.69,-271.69 794.41,-266.57 793.24,-273.48"/>
</g>
<!-- Node35 -->
<g id="node35" class="node">
<title>Node35</title>
<g id="a_node35"><a xlink:href="_land_unit_8h.html" target="_top" xlink:title=" ">
<polygon fill="white" stroke="black" points="659.03,-201.5 659.03,-231.5 786.03,-231.5 786.03,-201.5 659.03,-201.5"/>
<text text-anchor="start" x="667.03" y="-219.5" font-family="Helvetica,sans-Serif" font-size="10.00">include/GameLogic/Units</text>
<text text-anchor="middle" x="722.53" y="-208.5" font-family="Helvetica,sans-Serif" font-size="10.00">/LandUnit.h</text>
</a>
</g>
</g>
<!-- Node14&#45;&gt;Node35 -->
<g id="edge50" class="edge">
<title>Node14&#45;&gt;Node35</title>
<path fill="none" stroke="midnightblue" d="M826.86,-264.27C803.76,-253.92 775.29,-241.15 753.93,-231.58"/>
<polygon fill="midnightblue" stroke="midnightblue" points="825.51,-267.5 836.07,-268.4 828.37,-261.11 825.51,-267.5"/>
</g>
<!-- Node37 -->
<g id="node37" class="node">
<title>Node37</title>
<g id="a_node37"><a xlink:href="_transport_unit_8h.html" target="_top" xlink:title=" ">
<polygon fill="white" stroke="black" points="804.03,-201.5 804.03,-231.5 931.03,-231.5 931.03,-201.5 804.03,-201.5"/>
<text text-anchor="start" x="812.03" y="-219.5" font-family="Helvetica,sans-Serif" font-size="10.00">include/GameLogic/Units</text>
<text text-anchor="middle" x="867.53" y="-208.5" font-family="Helvetica,sans-Serif" font-size="10.00">/TransportUnit.h</text>
</a>
</g>
</g>
<!-- Node14&#45;&gt;Node37 -->
<g id="edge53" class="edge">
<title>Node14&#45;&gt;Node37</title>
<path fill="none" stroke="midnightblue" d="M867.53,-258.11C867.53,-249.15 867.53,-239.32 867.53,-231.58"/>
<polygon fill="midnightblue" stroke="midnightblue" points="864.03,-258.4 867.53,-268.4 871.03,-258.4 864.03,-258.4"/>
</g>
<!-- Node39 -->
<g id="node39" class="node">
<title>Node39</title>
<g id="a_node39"><a xlink:href="_unit_order_8h.html" target="_top" xlink:title=" ">
<polygon fill="white" stroke="black" points="1026.03,-201.5 1026.03,-231.5 1153.03,-231.5 1153.03,-201.5 1026.03,-201.5"/>
<text text-anchor="start" x="1034.03" y="-219.5" font-family="Helvetica,sans-Serif" font-size="10.00">include/GameLogic/Units</text>
<text text-anchor="middle" x="1089.53" y="-208.5" font-family="Helvetica,sans-Serif" font-size="10.00">/UnitOrder.h</text>
</a>
</g>
</g>
<!-- Node14&#45;&gt;Node39 -->
<g id="edge57" class="edge">
<title>Node14&#45;&gt;Node39</title>
<path fill="none" stroke="midnightblue" d="M919.76,-265.44C954.67,-254.91 1000.41,-241.55 1035.65,-231.61"/>
<polygon fill="midnightblue" stroke="midnightblue" points="918.31,-262.23 909.76,-268.48 920.34,-268.92 918.31,-262.23"/>
</g>
<!-- Node17 -->
<g id="node17" class="node">
<title>Node17</title>
<g id="a_node17"><a xlink:href="_squad_order_8cpp.html" target="_top" xlink:title=" ">
<polygon fill="white" stroke="black" points="1637.53,-67.5 1637.53,-97.5 1751.53,-97.5 1751.53,-67.5 1637.53,-67.5"/>
<text text-anchor="start" x="1645.53" y="-85.5" font-family="Helvetica,sans-Serif" font-size="10.00">src/GameLogic/Squad</text>
<text text-anchor="middle" x="1694.53" y="-74.5" font-family="Helvetica,sans-Serif" font-size="10.00">/SquadOrder.cpp</text>
</a>
</g>
</g>
<!-- Node16&#45;&gt;Node17 -->
<g id="edge21" class="edge">
<title>Node16&#45;&gt;Node17</title>
<path fill="none" stroke="midnightblue" d="M1694.53,-124.11C1694.53,-115.15 1694.53,-105.32 1694.53,-97.58"/>
<polygon fill="midnightblue" stroke="midnightblue" points="1691.03,-124.4 1694.53,-134.4 1698.03,-124.4 1691.03,-124.4"/>
</g>
<!-- Node19 -->
<g id="node19" class="node">
<title>Node19</title>
<g id="a_node19"><a xlink:href="_armored_unit_8cpp.html" target="_top" xlink:title=" ">
<polygon fill="white" stroke="black" points="1235.53,-67.5 1235.53,-97.5 1345.53,-97.5 1345.53,-67.5 1235.53,-67.5"/>
<text text-anchor="start" x="1243.53" y="-85.5" font-family="Helvetica,sans-Serif" font-size="10.00">src/GameLogic/Units</text>
<text text-anchor="middle" x="1290.53" y="-74.5" font-family="Helvetica,sans-Serif" font-size="10.00">/ArmoredUnit.cpp</text>
</a>
</g>
</g>
<!-- Node18&#45;&gt;Node19 -->
<g id="edge23" class="edge">
<title>Node18&#45;&gt;Node19</title>
<path fill="none" stroke="midnightblue" d="M1290.53,-124.11C1290.53,-115.15 1290.53,-105.32 1290.53,-97.58"/>
<polygon fill="midnightblue" stroke="midnightblue" points="1287.03,-124.4 1290.53,-134.4 1294.03,-124.4 1287.03,-124.4"/>
</g>
<!-- Node20 -->
<g id="node20" class="node">
<title>Node20</title>
<g id="a_node20"><a xlink:href="_armored_unit_factory_8h.html" target="_top" xlink:title=" ">
<polygon fill="white" stroke="black" points="962.03,-67.5 962.03,-97.5 1089.03,-97.5 1089.03,-67.5 962.03,-67.5"/>
<text text-anchor="start" x="970.03" y="-85.5" font-family="Helvetica,sans-Serif" font-size="10.00">include/GameLogic/Units</text>
<text text-anchor="middle" x="1025.53" y="-74.5" font-family="Helvetica,sans-Serif" font-size="10.00">/ArmoredUnitFactory.h</text>
</a>
</g>
</g>
<!-- Node18&#45;&gt;Node20 -->
<g id="edge24" class="edge">
<title>Node18&#45;&gt;Node20</title>
<path fill="none" stroke="midnightblue" d="M1223.47,-132.05C1180.15,-121.43 1124.36,-107.74 1083.06,-97.61"/>
<polygon fill="midnightblue" stroke="midnightblue" points="1222.81,-135.49 1233.35,-134.48 1224.47,-128.69 1222.81,-135.49"/>
</g>
<!-- Node21 -->
<g id="node21" class="node">
<title>Node21</title>
<g id="a_node21"><a xlink:href="_all_units_8cpp.html" target="_top" xlink:title=" ">
<polygon fill="white" stroke="black" points="648.53,-0.5 648.53,-30.5 758.53,-30.5 758.53,-0.5 648.53,-0.5"/>
<text text-anchor="start" x="656.53" y="-18.5" font-family="Helvetica,sans-Serif" font-size="10.00">src/GameLogic/Units</text>
<text text-anchor="middle" x="703.53" y="-7.5" font-family="Helvetica,sans-Serif" font-size="10.00">/AllUnits.cpp</text>
</a>
</g>
</g>
<!-- Node20&#45;&gt;Node21 -->
<g id="edge25" class="edge">
<title>Node20&#45;&gt;Node21</title>
<path fill="none" stroke="midnightblue" d="M951.94,-66.65C893.14,-54.78 812.02,-38.4 758.7,-27.64"/>
<polygon fill="midnightblue" stroke="midnightblue" points="951.42,-70.11 961.91,-68.66 952.8,-63.25 951.42,-70.11"/>
</g>
<!-- Node22 -->
<g id="node22" class="node">
<title>Node22</title>
<g id="a_node22"><a xlink:href="_armored_unit_factory_8cpp.html" target="_top" xlink:title=" ">
<polygon fill="white" stroke="black" points="963.03,-0.5 963.03,-30.5 1088.03,-30.5 1088.03,-0.5 963.03,-0.5"/>
<text text-anchor="start" x="971.03" y="-18.5" font-family="Helvetica,sans-Serif" font-size="10.00">src/GameLogic/Units</text>
<text text-anchor="middle" x="1025.53" y="-7.5" font-family="Helvetica,sans-Serif" font-size="10.00">/ArmoredUnitFactory.cpp</text>
</a>
</g>
</g>
<!-- Node20&#45;&gt;Node22 -->
<g id="edge26" class="edge">
<title>Node20&#45;&gt;Node22</title>
<path fill="none" stroke="midnightblue" d="M1025.53,-57.11C1025.53,-48.15 1025.53,-38.32 1025.53,-30.58"/>
<polygon fill="midnightblue" stroke="midnightblue" points="1022.03,-57.4 1025.53,-67.4 1029.03,-57.4 1022.03,-57.4"/>
</g>
<!-- Node23&#45;&gt;Node20 -->
<g id="edge42" class="edge">
<title>Node23&#45;&gt;Node20</title>
<path fill="none" stroke="midnightblue" d="M557.51,-209.3C674.06,-199.18 890.65,-178.87 923.53,-165 943.61,-156.53 944.53,-147.64 961.53,-134 976.98,-121.6 994.67,-107.66 1007.53,-97.57"/>
<polygon fill="midnightblue" stroke="midnightblue" points="556.89,-205.84 547.23,-210.19 557.5,-212.81 556.89,-205.84"/>
</g>
<!-- Node24 -->
<g id="node24" class="node">
<title>Node24</title>
<g id="a_node24"><a xlink:href="_spawn_action_8cpp.html" target="_top" xlink:title=" ">
<polygon fill="white" stroke="black" points="323.53,-134.5 323.53,-164.5 419.53,-164.5 419.53,-134.5 323.53,-134.5"/>
<text text-anchor="start" x="331.53" y="-152.5" font-family="Helvetica,sans-Serif" font-size="10.00">src/engine/actions</text>
<text text-anchor="middle" x="371.53" y="-141.5" font-family="Helvetica,sans-Serif" font-size="10.00">/SpawnAction.cpp</text>
</a>
</g>
</g>
<!-- Node23&#45;&gt;Node24 -->
<g id="edge28" class="edge">
<title>Node23&#45;&gt;Node24</title>
<path fill="none" stroke="midnightblue" d="M450.44,-196.3C432.91,-186.12 411.77,-173.85 395.78,-164.58"/>
<polygon fill="midnightblue" stroke="midnightblue" points="448.82,-199.4 459.23,-201.4 452.33,-193.35 448.82,-199.4"/>
</g>
<!-- Node25 -->
<g id="node25" class="node">
<title>Node25</title>
<g id="a_node25"><a xlink:href="_factory_8cpp.html" target="_top" xlink:title=" ">
<polygon fill="white" stroke="black" points="437.53,-134.5 437.53,-164.5 547.53,-164.5 547.53,-134.5 437.53,-134.5"/>
<text text-anchor="start" x="445.53" y="-152.5" font-family="Helvetica,sans-Serif" font-size="10.00">src/GameLogic/Units</text>
<text text-anchor="middle" x="492.53" y="-141.5" font-family="Helvetica,sans-Serif" font-size="10.00">/Factory.cpp</text>
</a>
</g>
</g>
<!-- Node23&#45;&gt;Node25 -->
<g id="edge29" class="edge">
<title>Node23&#45;&gt;Node25</title>
<path fill="none" stroke="midnightblue" d="M486.86,-191.4C488.12,-182.37 489.49,-172.41 490.58,-164.58"/>
<polygon fill="midnightblue" stroke="midnightblue" points="483.39,-191.01 485.48,-201.4 490.32,-191.97 483.39,-191.01"/>
</g>
<!-- Node26 -->
<g id="node26" class="node">
<title>Node26</title>
<g id="a_node26"><a xlink:href="_squad_template_8h.html" target="_top" xlink:title=" ">
<polygon fill="white" stroke="black" points="29.03,-134.5 29.03,-164.5 160.03,-164.5 160.03,-134.5 29.03,-134.5"/>
<text text-anchor="start" x="37.03" y="-152.5" font-family="Helvetica,sans-Serif" font-size="10.00">include/GameLogic/Squad</text>
<text text-anchor="middle" x="94.53" y="-141.5" font-family="Helvetica,sans-Serif" font-size="10.00">/SquadTemplate.h</text>
</a>
</g>
</g>
<!-- Node23&#45;&gt;Node26 -->
<g id="edge30" class="edge">
<title>Node23&#45;&gt;Node26</title>
<path fill="none" stroke="midnightblue" d="M409.78,-204.41C345.87,-194.63 250.95,-179.68 168.53,-165 165.82,-164.52 163.06,-164.02 160.27,-163.5"/>
<polygon fill="midnightblue" stroke="midnightblue" points="409.35,-207.89 419.77,-205.94 410.41,-200.97 409.35,-207.89"/>
</g>
<!-- Node30 -->
<g id="node30" class="node">
<title>Node30</title>
<g id="a_node30"><a xlink:href="_all_units_8h.html" target="_top" xlink:title=" ">
<polygon fill="white" stroke="black" points="178.03,-134.5 178.03,-164.5 305.03,-164.5 305.03,-134.5 178.03,-134.5"/>
<text text-anchor="start" x="186.03" y="-152.5" font-family="Helvetica,sans-Serif" font-size="10.00">include/GameLogic/Units</text>
<text text-anchor="middle" x="241.53" y="-141.5" font-family="Helvetica,sans-Serif" font-size="10.00">/AllUnits.h</text>
</a>
</g>
</g>
<!-- Node23&#45;&gt;Node30 -->
<g id="edge35" class="edge">
<title>Node23&#45;&gt;Node30</title>
<path fill="none" stroke="midnightblue" d="M421.54,-198.85C382.08,-188.25 331.54,-174.68 294.06,-164.61"/>
<polygon fill="midnightblue" stroke="midnightblue" points="420.75,-202.26 431.32,-201.48 422.57,-195.5 420.75,-202.26"/>
</g>
<!-- Node31 -->
<g id="node31" class="node">
<title>Node31</title>
<g id="a_node31"><a xlink:href="_land_unit_factory_8h.html" target="_top" xlink:title=" ">
<polygon fill="white" stroke="black" points="642.03,-134.5 642.03,-164.5 769.03,-164.5 769.03,-134.5 642.03,-134.5"/>
<text text-anchor="start" x="650.03" y="-152.5" font-family="Helvetica,sans-Serif" font-size="10.00">include/GameLogic/Units</text>
<text text-anchor="middle" x="705.53" y="-141.5" font-family="Helvetica,sans-Serif" font-size="10.00">/LandUnitFactory.h</text>
</a>
</g>
</g>
<!-- Node23&#45;&gt;Node31 -->
<g id="edge43" class="edge">
<title>Node23&#45;&gt;Node31</title>
<path fill="none" stroke="midnightblue" d="M541.32,-198.58C577.37,-188.02 623.24,-174.59 657.33,-164.61"/>
<polygon fill="midnightblue" stroke="midnightblue" points="540.04,-195.31 531.43,-201.48 542.01,-202.02 540.04,-195.31"/>
</g>
<!-- Node33 -->
<g id="node33" class="node">
<title>Node33</title>
<g id="a_node33"><a xlink:href="_transport_unit_factory_8h.html" target="_top" xlink:title=" ">
<polygon fill="white" stroke="black" points="787.03,-134.5 787.03,-164.5 914.03,-164.5 914.03,-134.5 787.03,-134.5"/>
<text text-anchor="start" x="795.03" y="-152.5" font-family="Helvetica,sans-Serif" font-size="10.00">include/GameLogic/Units</text>
<text text-anchor="middle" x="850.53" y="-141.5" font-family="Helvetica,sans-Serif" font-size="10.00">/TransportUnitFactory.h</text>
</a>
</g>
</g>
<!-- Node23&#45;&gt;Node33 -->
<g id="edge46" class="edge">
<title>Node23&#45;&gt;Node33</title>
<path fill="none" stroke="midnightblue" d="M557.3,-203.48C617.04,-193.61 703.32,-179.01 778.53,-165 781.29,-164.49 784.1,-163.95 786.94,-163.41"/>
<polygon fill="midnightblue" stroke="midnightblue" points="556.51,-200.07 547.21,-205.15 557.65,-206.97 556.51,-200.07"/>
</g>
<!-- Node27 -->
<g id="node27" class="node">
<title>Node27</title>
<g id="a_node27"><a xlink:href="_squad_template_8cpp.html" target="_top" xlink:title=" ">
<polygon fill="white" stroke="black" points="181.53,-67.5 181.53,-97.5 295.53,-97.5 295.53,-67.5 181.53,-67.5"/>
<text text-anchor="start" x="189.53" y="-85.5" font-family="Helvetica,sans-Serif" font-size="10.00">src/GameLogic/Squad</text>
<text text-anchor="middle" x="238.53" y="-74.5" font-family="Helvetica,sans-Serif" font-size="10.00">/SquadTemplate.cpp</text>
</a>
</g>
</g>
<!-- Node26&#45;&gt;Node27 -->
<g id="edge31" class="edge">
<title>Node26&#45;&gt;Node27</title>
<path fill="none" stroke="midnightblue" d="M134.92,-130.27C157.85,-119.92 186.13,-107.15 207.34,-97.58"/>
<polygon fill="midnightblue" stroke="midnightblue" points="133.45,-127.09 125.77,-134.4 136.33,-133.47 133.45,-127.09"/>
</g>
<!-- Node28 -->
<g id="node28" class="node">
<title>Node28</title>
<g id="a_node28"><a xlink:href="_all_squad_templates_8h.html" target="_top" xlink:title=" ">
<polygon fill="white" stroke="black" points="29.03,-67.5 29.03,-97.5 160.03,-97.5 160.03,-67.5 29.03,-67.5"/>
<text text-anchor="start" x="37.03" y="-85.5" font-family="Helvetica,sans-Serif" font-size="10.00">include/GameLogic/Squad</text>
<text text-anchor="middle" x="94.53" y="-74.5" font-family="Helvetica,sans-Serif" font-size="10.00">/AllSquadTemplates.h</text>
</a>
</g>
</g>
<!-- Node26&#45;&gt;Node28 -->
<g id="edge32" class="edge">
<title>Node26&#45;&gt;Node28</title>
<path fill="none" stroke="midnightblue" d="M94.53,-124.11C94.53,-115.15 94.53,-105.32 94.53,-97.58"/>
<polygon fill="midnightblue" stroke="midnightblue" points="91.03,-124.4 94.53,-134.4 98.03,-124.4 91.03,-124.4"/>
</g>
<!-- Node28&#45;&gt;Node4 -->
<g id="edge34" class="edge">
<title>Node28&#45;&gt;Node4</title>
<path fill="none" stroke="midnightblue" d="M54.5,-102.72C41.6,-110.73 28.36,-121.19 19.53,-134 -1.58,-164.62 0.53,-178.31 0.53,-215.5 0.53,-351.5 0.53,-351.5 0.53,-351.5 0.53,-475.61 424.59,-445.86 546.53,-469 556.43,-470.88 567.07,-472.96 577.09,-474.94"/>
<polygon fill="midnightblue" stroke="midnightblue" points="56.46,-105.63 63.33,-97.56 52.93,-99.58 56.46,-105.63"/>
</g>
<!-- Node29 -->
<g id="node29" class="node">
<title>Node29</title>
<g id="a_node29"><a xlink:href="_all_squad_templates_8cpp.html" target="_top" xlink:title=" ">
<polygon fill="white" stroke="black" points="33.53,-0.5 33.53,-30.5 155.53,-30.5 155.53,-0.5 33.53,-0.5"/>
<text text-anchor="start" x="41.53" y="-18.5" font-family="Helvetica,sans-Serif" font-size="10.00">src/GameLogic/Squad</text>
<text text-anchor="middle" x="94.53" y="-7.5" font-family="Helvetica,sans-Serif" font-size="10.00">/AllSquadTemplates.cpp</text>
</a>
</g>
</g>
<!-- Node28&#45;&gt;Node29 -->
<g id="edge33" class="edge">
<title>Node28&#45;&gt;Node29</title>
<path fill="none" stroke="midnightblue" d="M94.53,-57.11C94.53,-48.15 94.53,-38.32 94.53,-30.58"/>
<polygon fill="midnightblue" stroke="midnightblue" points="91.03,-57.4 94.53,-67.4 98.03,-57.4 91.03,-57.4"/>
</g>
<!-- Node30&#45;&gt;Node4 -->
<g id="edge40" class="edge">
<title>Node30&#45;&gt;Node4</title>
<path fill="none" stroke="midnightblue" d="M304.77,-167.82C326.37,-175.69 349.79,-186.55 368.53,-201 469.95,-279.24 445.75,-345.75 539.53,-433 558.65,-450.79 584.88,-465.96 602.01,-474.91"/>
<polygon fill="midnightblue" stroke="midnightblue" points="305.91,-164.51 295.32,-164.52 303.61,-171.12 305.91,-164.51"/>
</g>
<!-- Node30&#45;&gt;Node6 -->
<g id="edge39" class="edge">
<title>Node30&#45;&gt;Node6</title>
<path fill="none" stroke="midnightblue" d="M287.32,-130.78C319.89,-118.18 362.21,-101.81 387.54,-92.01"/>
<polygon fill="midnightblue" stroke="midnightblue" points="286.04,-127.52 277.98,-134.4 288.57,-134.05 286.04,-127.52"/>
</g>
<!-- Node30&#45;&gt;Node13 -->
<g id="edge36" class="edge">
<title>Node30&#45;&gt;Node13</title>
<path fill="none" stroke="midnightblue" d="M313.84,-132.24C363.11,-121.15 427.46,-106.68 473.2,-96.39"/>
<polygon fill="midnightblue" stroke="midnightblue" points="312.87,-128.87 303.88,-134.48 314.41,-135.7 312.87,-128.87"/>
</g>
<!-- Node30&#45;&gt;Node21 -->
<g id="edge38" class="edge">
<title>Node30&#45;&gt;Node21</title>
<path fill="none" stroke="midnightblue" d="M265.75,-127.74C289.35,-108.71 327.04,-81.39 364.53,-67 459.8,-30.43 579.56,-20.19 648.25,-17.42"/>
<polygon fill="midnightblue" stroke="midnightblue" points="263.23,-125.28 257.72,-134.33 267.67,-130.69 263.23,-125.28"/>
</g>
<!-- Node30&#45;&gt;Node27 -->
<g id="edge37" class="edge">
<title>Node30&#45;&gt;Node27</title>
<path fill="none" stroke="midnightblue" d="M240.42,-124.4C240,-115.37 239.54,-105.41 239.18,-97.58"/>
<polygon fill="midnightblue" stroke="midnightblue" points="236.92,-124.57 240.88,-134.4 243.91,-124.25 236.92,-124.57"/>
</g>
<!-- Node30&#45;&gt;Node28 -->
<g id="edge41" class="edge">
<title>Node30&#45;&gt;Node28</title>
<path fill="none" stroke="midnightblue" d="M200.3,-130.27C176.88,-119.92 148.02,-107.15 126.36,-97.58"/>
<polygon fill="midnightblue" stroke="midnightblue" points="199.07,-133.55 209.63,-134.4 201.9,-127.15 199.07,-133.55"/>
</g>
<!-- Node31&#45;&gt;Node21 -->
<g id="edge44" class="edge">
<title>Node31&#45;&gt;Node21</title>
<path fill="none" stroke="midnightblue" d="M668.02,-128.83C656.75,-120.88 645.74,-110.58 639.53,-98 633.43,-85.65 633.52,-79.4 639.53,-67 647.12,-51.33 662.19,-39.06 675.8,-30.54"/>
<polygon fill="midnightblue" stroke="midnightblue" points="666.33,-131.91 676.62,-134.45 670.16,-126.05 666.33,-131.91"/>
</g>
<!-- Node32 -->
<g id="node32" class="node">
<title>Node32</title>
<g id="a_node32"><a xlink:href="_land_unit_factory_8cpp.html" target="_top" xlink:title=" ">
<polygon fill="white" stroke="black" points="648.53,-67.5 648.53,-97.5 758.53,-97.5 758.53,-67.5 648.53,-67.5"/>
<text text-anchor="start" x="656.53" y="-85.5" font-family="Helvetica,sans-Serif" font-size="10.00">src/GameLogic/Units</text>
<text text-anchor="middle" x="703.53" y="-74.5" font-family="Helvetica,sans-Serif" font-size="10.00">/LandUnitFactory.cpp</text>
</a>
</g>
</g>
<!-- Node31&#45;&gt;Node32 -->
<g id="edge45" class="edge">
<title>Node31&#45;&gt;Node32</title>
<path fill="none" stroke="midnightblue" d="M704.78,-124.11C704.5,-115.15 704.2,-105.32 703.96,-97.58"/>
<polygon fill="midnightblue" stroke="midnightblue" points="701.29,-124.51 705.09,-134.4 708.28,-124.29 701.29,-124.51"/>
</g>
<!-- Node33&#45;&gt;Node20 -->
<g id="edge49" class="edge">
<title>Node33&#45;&gt;Node20</title>
<path fill="none" stroke="midnightblue" d="M898.13,-130.82C926.26,-120.37 961.39,-107.32 987.63,-97.58"/>
<polygon fill="midnightblue" stroke="midnightblue" points="896.66,-127.63 888.5,-134.4 899.09,-134.2 896.66,-127.63"/>
</g>
<!-- Node33&#45;&gt;Node21 -->
<g id="edge47" class="edge">
<title>Node33&#45;&gt;Node21</title>
<path fill="none" stroke="midnightblue" d="M830.17,-127.28C813.72,-110.44 789.74,-86.56 767.53,-67 752.87,-54.09 735.42,-40.42 722.44,-30.57"/>
<polygon fill="midnightblue" stroke="midnightblue" points="827.68,-129.74 837.16,-134.48 832.7,-124.86 827.68,-129.74"/>
</g>
<!-- Node34 -->
<g id="node34" class="node">
<title>Node34</title>
<g id="a_node34"><a xlink:href="_transport_unit_factory_8cpp.html" target="_top" xlink:title=" ">
<polygon fill="white" stroke="black" points="815.03,-67.5 815.03,-97.5 944.03,-97.5 944.03,-67.5 815.03,-67.5"/>
<text text-anchor="start" x="823.03" y="-85.5" font-family="Helvetica,sans-Serif" font-size="10.00">src/GameLogic/Units</text>
<text text-anchor="middle" x="879.53" y="-74.5" font-family="Helvetica,sans-Serif" font-size="10.00">/TransportUnitFactory.cpp</text>
</a>
</g>
</g>
<!-- Node33&#45;&gt;Node34 -->
<g id="edge48" class="edge">
<title>Node33&#45;&gt;Node34</title>
<path fill="none" stroke="midnightblue" d="M861.02,-124.99C865.12,-115.8 869.68,-105.58 873.25,-97.58"/>
<polygon fill="midnightblue" stroke="midnightblue" points="857.7,-123.84 856.82,-134.4 864.09,-126.69 857.7,-123.84"/>
</g>
<!-- Node35&#45;&gt;Node31 -->
<g id="edge52" class="edge">
<title>Node35&#45;&gt;Node31</title>
<path fill="none" stroke="midnightblue" d="M716.3,-191.7C713.92,-182.59 711.28,-172.49 709.21,-164.58"/>
<polygon fill="midnightblue" stroke="midnightblue" points="712.92,-192.61 718.84,-201.4 719.69,-190.84 712.92,-192.61"/>
</g>
<!-- Node36 -->
<g id="node36" class="node">
<title>Node36</title>
<g id="a_node36"><a xlink:href="_land_unit_8cpp.html" target="_top" xlink:title=" ">
<polygon fill="white" stroke="black" points="970.53,-134.5 970.53,-164.5 1080.53,-164.5 1080.53,-134.5 970.53,-134.5"/>
<text text-anchor="start" x="978.53" y="-152.5" font-family="Helvetica,sans-Serif" font-size="10.00">src/GameLogic/Units</text>
<text text-anchor="middle" x="1025.53" y="-141.5" font-family="Helvetica,sans-Serif" font-size="10.00">/LandUnit.cpp</text>
</a>
</g>
</g>
<!-- Node35&#45;&gt;Node36 -->
<g id="edge51" class="edge">
<title>Node35&#45;&gt;Node36</title>
<path fill="none" stroke="midnightblue" d="M795.85,-199.77C849.56,-188.25 921.31,-172.86 970.23,-162.36"/>
<polygon fill="midnightblue" stroke="midnightblue" points="795.09,-196.35 786.05,-201.87 796.56,-203.2 795.09,-196.35"/>
</g>
<!-- Node37&#45;&gt;Node18 -->
<g id="edge55" class="edge">
<title>Node37&#45;&gt;Node18</title>
<path fill="none" stroke="midnightblue" d="M941.59,-201.63C942.91,-201.42 944.23,-201.21 945.53,-201 1065.96,-181.85 1097.22,-184.89 1217.53,-165 1220.59,-164.49 1223.72,-163.96 1226.87,-163.4"/>
<polygon fill="midnightblue" stroke="midnightblue" points="940.61,-198.25 931.33,-203.36 941.77,-205.15 940.61,-198.25"/>
</g>
<!-- Node37&#45;&gt;Node33 -->
<g id="edge56" class="edge">
<title>Node37&#45;&gt;Node33</title>
<path fill="none" stroke="midnightblue" d="M861.3,-191.7C858.92,-182.59 856.28,-172.49 854.21,-164.58"/>
<polygon fill="midnightblue" stroke="midnightblue" points="857.92,-192.61 863.84,-201.4 864.69,-190.84 857.92,-192.61"/>
</g>
<!-- Node38 -->
<g id="node38" class="node">
<title>Node38</title>
<g id="a_node38"><a xlink:href="_transport_unit_8cpp.html" target="_top" xlink:title=" ">
<polygon fill="white" stroke="black" points="1098.53,-134.5 1098.53,-164.5 1208.53,-164.5 1208.53,-134.5 1098.53,-134.5"/>
<text text-anchor="start" x="1106.53" y="-152.5" font-family="Helvetica,sans-Serif" font-size="10.00">src/GameLogic/Units</text>
<text text-anchor="middle" x="1153.53" y="-141.5" font-family="Helvetica,sans-Serif" font-size="10.00">/TransportUnit.cpp</text>
</a>
</g>
</g>
<!-- Node37&#45;&gt;Node38 -->
<g id="edge54" class="edge">
<title>Node37&#45;&gt;Node38</title>
<path fill="none" stroke="midnightblue" d="M939.19,-199.21C988.45,-188.02 1052.91,-173.37 1098.22,-163.07"/>
<polygon fill="midnightblue" stroke="midnightblue" points="938.21,-195.85 929.23,-201.48 939.76,-202.67 938.21,-195.85"/>
</g>
<!-- Node39&#45;&gt;Node14 -->
<g id="edge61" class="edge">
<title>Node39&#45;&gt;Node14</title>
<path fill="none" stroke="midnightblue" d="M1037.44,-234.51C1002.41,-245.09 956.43,-258.51 921.09,-268.48"/>
<polygon fill="midnightblue" stroke="midnightblue" points="1038.46,-237.86 1047.01,-231.61 1036.43,-231.16 1038.46,-237.86"/>
</g>
<!-- Node39&#45;&gt;Node15 -->
<g id="edge58" class="edge">
<title>Node39&#45;&gt;Node15</title>
<path fill="none" stroke="midnightblue" d="M1163.61,-201.72C1164.93,-201.48 1166.23,-201.24 1167.53,-201 1254.62,-184.91 1276.76,-182.79 1363.53,-165 1366.43,-164.41 1369.4,-163.78 1372.4,-163.14"/>
<polygon fill="midnightblue" stroke="midnightblue" points="1162.57,-198.36 1153.38,-203.62 1163.85,-205.24 1162.57,-198.36"/>
</g>
<!-- Node39&#45;&gt;Node16 -->
<g id="edge60" class="edge">
<title>Node39&#45;&gt;Node16</title>
<path fill="none" stroke="midnightblue" d="M1163.58,-201.54C1164.91,-201.35 1166.22,-201.17 1167.53,-201 1367.31,-174.55 1419.84,-192.17 1619.53,-165 1622.55,-164.59 1625.64,-164.13 1628.75,-163.65"/>
<polygon fill="midnightblue" stroke="midnightblue" points="1162.66,-198.14 1153.29,-203.09 1163.7,-205.06 1162.66,-198.14"/>
</g>
<!-- Node40 -->
<g id="node40" class="node">
<title>Node40</title>
<g id="a_node40"><a xlink:href="_unit_order_8cpp.html" target="_top" xlink:title=" ">
<polygon fill="white" stroke="black" points="1500.53,-134.5 1500.53,-164.5 1610.53,-164.5 1610.53,-134.5 1500.53,-134.5"/>
<text text-anchor="start" x="1508.53" y="-152.5" font-family="Helvetica,sans-Serif" font-size="10.00">src/GameLogic/Units</text>
<text text-anchor="middle" x="1555.53" y="-141.5" font-family="Helvetica,sans-Serif" font-size="10.00">/UnitOrder.cpp</text>
</a>
</g>
</g>
<!-- Node39&#45;&gt;Node40 -->
<g id="edge59" class="edge">
<title>Node39&#45;&gt;Node40</title>
<path fill="none" stroke="midnightblue" d="M1163.59,-201.6C1164.91,-201.39 1166.23,-201.19 1167.53,-201 1310.85,-179.75 1348.65,-189.04 1491.53,-165 1494.45,-164.51 1497.44,-163.97 1500.45,-163.39"/>
<polygon fill="midnightblue" stroke="midnightblue" points="1162.63,-198.2 1153.32,-203.25 1163.74,-205.12 1162.63,-198.2"/>
</g>
<!-- Node41&#45;&gt;Node11 -->
<g id="edge63" class="edge">
<title>Node41&#45;&gt;Node11</title>
<path fill="none" stroke="midnightblue" d="M1180.05,-268.6C1198.52,-257.69 1224.13,-242.55 1242.69,-231.59"/>
<polygon fill="midnightblue" stroke="midnightblue" points="1178.19,-265.63 1171.36,-273.73 1181.75,-271.66 1178.19,-265.63"/>
</g>
<!-- Node42 -->
<g id="node42" class="node">
<title>Node42</title>
<g id="a_node42"><a xlink:href="pathfinding_8cpp.html" target="_top" xlink:title=" ">
<polygon fill="white" stroke="black" points="1342.03,-207 1342.03,-226 1455.03,-226 1455.03,-207 1342.03,-207"/>
<text text-anchor="middle" x="1398.53" y="-214" font-family="Helvetica,sans-Serif" font-size="10.00">src/util/pathfinding.cpp</text>
</a>
</g>
</g>
<!-- Node41&#45;&gt;Node42 -->
<g id="edge64" class="edge">
<title>Node41&#45;&gt;Node42</title>
<path fill="none" stroke="midnightblue" d="M1198.14,-271.32C1245.92,-258.49 1323.28,-237.71 1366.57,-226.08"/>
<polygon fill="midnightblue" stroke="midnightblue" points="1197.16,-267.96 1188.41,-273.94 1198.98,-274.72 1197.16,-267.96"/>
</g>
</g>
</svg>
