<?xml version="1.0" encoding="UTF-8" standalone="no"?>
<!DOCTYPE svg PUBLIC "-//W3C//DTD SVG 1.1//EN"
 "http://www.w3.org/Graphics/SVG/1.1/DTD/svg11.dtd">
<!-- Generated by graphviz version 2.47.1 (20210421.1823)
 -->
<!-- Title: src/engine/gameplayClickableGameObject.cpp Pages: 1 -->
<svg width="432pt" height="330pt"
 viewBox="0.00 0.00 431.50 330.00" xmlns="http://www.w3.org/2000/svg" xmlns:xlink="http://www.w3.org/1999/xlink">
<g id="graph0" class="graph" transform="scale(1 1) rotate(0) translate(4 326)">
<title>src/engine/gameplayClickableGameObject.cpp</title>
<polygon fill="white" stroke="transparent" points="-4,4 -4,-326 427.5,-326 427.5,4 -4,4"/>
<!-- Node1 -->
<g id="node1" class="node">
<title>Node1</title>
<g id="a_node1"><a xlink:title=" ">
<polygon fill="#bfbfbf" stroke="black" points="155,-291.5 155,-321.5 301,-321.5 301,-291.5 155,-291.5"/>
<text text-anchor="start" x="163" y="-309.5" font-family="Helvetica,sans-Serif" font-size="10.00">src/engine/gameplayClickable</text>
<text text-anchor="middle" x="228" y="-298.5" font-family="Helvetica,sans-Serif" font-size="10.00">GameObject.cpp</text>
</a>
</g>
</g>
<!-- Node2 -->
<g id="node2" class="node">
<title>Node2</title>
<g id="a_node2"><a xlink:href="gameplay_clickable_game_object_8h.html" target="_top" xlink:title=" ">
<polygon fill="white" stroke="black" points="163.5,-224.5 163.5,-254.5 292.5,-254.5 292.5,-224.5 163.5,-224.5"/>
<text text-anchor="start" x="171.5" y="-242.5" font-family="Helvetica,sans-Serif" font-size="10.00">engine/gameplayClickable</text>
<text text-anchor="middle" x="228" y="-231.5" font-family="Helvetica,sans-Serif" font-size="10.00">GameObject.h</text>
</a>
</g>
</g>
<!-- Node1&#45;&gt;Node2 -->
<g id="edge1" class="edge">
<title>Node1&#45;&gt;Node2</title>
<path fill="none" stroke="midnightblue" d="M228,-291.4C228,-283.64 228,-273.81 228,-264.86"/>
<polygon fill="midnightblue" stroke="midnightblue" points="231.5,-264.58 228,-254.58 224.5,-264.58 231.5,-264.58"/>
</g>
<!-- Node3 -->
<g id="node3" class="node">
<title>Node3</title>
<g id="a_node3"><a xlink:href="game_object_8h.html" target="_top" xlink:title=" ">
<polygon fill="white" stroke="black" points="189.5,-168.5 189.5,-187.5 266.5,-187.5 266.5,-168.5 189.5,-168.5"/>
<text text-anchor="middle" x="228" y="-175.5" font-family="Helvetica,sans-Serif" font-size="10.00">gameObject.h</text>
</a>
</g>
</g>
<!-- Node2&#45;&gt;Node3 -->
<g id="edge2" class="edge">
<title>Node2&#45;&gt;Node3</title>
<path fill="none" stroke="midnightblue" d="M228,-224.4C228,-216.47 228,-206.46 228,-197.86"/>
<polygon fill="midnightblue" stroke="midnightblue" points="231.5,-197.66 228,-187.66 224.5,-197.66 231.5,-197.66"/>
</g>
<!-- Node4 -->
<g id="node4" class="node">
<title>Node4</title>
<g id="a_node4"><a xlink:title=" ">
<polygon fill="white" stroke="#bfbfbf" points="140.5,-112.5 140.5,-131.5 169.5,-131.5 169.5,-112.5 140.5,-112.5"/>
<text text-anchor="middle" x="155" y="-119.5" font-family="Helvetica,sans-Serif" font-size="10.00">list</text>
</a>
</g>
</g>
<!-- Node3&#45;&gt;Node4 -->
<g id="edge3" class="edge">
<title>Node3&#45;&gt;Node4</title>
<path fill="none" stroke="midnightblue" d="M216.27,-168.32C205.16,-160.11 188.26,-147.6 175.02,-137.81"/>
<polygon fill="midnightblue" stroke="midnightblue" points="177.06,-134.97 166.94,-131.83 172.9,-140.59 177.06,-134.97"/>
</g>
<!-- Node5 -->
<g id="node5" class="node">
<title>Node5</title>
<g id="a_node5"><a xlink:href="config_8h.html" target="_top" xlink:title=" ">
<polygon fill="white" stroke="black" points="187.5,-112.5 187.5,-131.5 268.5,-131.5 268.5,-112.5 187.5,-112.5"/>
<text text-anchor="middle" x="228" y="-119.5" font-family="Helvetica,sans-Serif" font-size="10.00">engine/config.h</text>
</a>
</g>
</g>
<!-- Node3&#45;&gt;Node5 -->
<g id="edge4" class="edge">
<title>Node3&#45;&gt;Node5</title>
<path fill="none" stroke="midnightblue" d="M228,-168.08C228,-161.01 228,-150.86 228,-141.99"/>
<polygon fill="midnightblue" stroke="midnightblue" points="231.5,-141.75 228,-131.75 224.5,-141.75 231.5,-141.75"/>
</g>
<!-- Node10 -->
<g id="node10" class="node">
<title>Node10</title>
<g id="a_node10"><a xlink:href="engine_2_action_8h.html" target="_top" xlink:title=" ">
<polygon fill="white" stroke="black" points="286.5,-112.5 286.5,-131.5 369.5,-131.5 369.5,-112.5 286.5,-112.5"/>
<text text-anchor="middle" x="328" y="-119.5" font-family="Helvetica,sans-Serif" font-size="10.00">engine/Action.h</text>
</a>
</g>
</g>
<!-- Node3&#45;&gt;Node10 -->
<g id="edge9" class="edge">
<title>Node3&#45;&gt;Node10</title>
<path fill="none" stroke="midnightblue" d="M244.07,-168.32C259.96,-159.74 284.51,-146.49 302.96,-136.52"/>
<polygon fill="midnightblue" stroke="midnightblue" points="304.84,-139.49 311.97,-131.65 301.51,-133.33 304.84,-139.49"/>
</g>
<!-- Node6 -->
<g id="node6" class="node">
<title>Node6</title>
<g id="a_node6"><a xlink:href="_s_f_m_l_facade_8h.html" target="_top" xlink:title=" ">
<polygon fill="white" stroke="black" points="39.5,-56.5 39.5,-75.5 162.5,-75.5 162.5,-56.5 39.5,-56.5"/>
<text text-anchor="middle" x="101" y="-63.5" font-family="Helvetica,sans-Serif" font-size="10.00">graphics/SFMLFacade.h</text>
</a>
</g>
</g>
<!-- Node5&#45;&gt;Node6 -->
<g id="edge5" class="edge">
<title>Node5&#45;&gt;Node6</title>
<path fill="none" stroke="midnightblue" d="M207.88,-112.44C186.98,-103.56 154.07,-89.56 130.28,-79.45"/>
<polygon fill="midnightblue" stroke="midnightblue" points="131.6,-76.21 121.03,-75.52 128.86,-82.65 131.6,-76.21"/>
</g>
<!-- Node9 -->
<g id="node9" class="node">
<title>Node9</title>
<g id="a_node9"><a xlink:title=" ">
<polygon fill="white" stroke="#bfbfbf" points="181,-56.5 181,-75.5 279,-75.5 279,-56.5 181,-56.5"/>
<text text-anchor="middle" x="230" y="-63.5" font-family="Helvetica,sans-Serif" font-size="10.00">nlohmann/json.hpp</text>
</a>
</g>
</g>
<!-- Node5&#45;&gt;Node9 -->
<g id="edge8" class="edge">
<title>Node5&#45;&gt;Node9</title>
<path fill="none" stroke="midnightblue" d="M228.33,-112.08C228.59,-105.01 228.97,-94.86 229.3,-85.99"/>
<polygon fill="midnightblue" stroke="midnightblue" points="232.8,-85.87 229.68,-75.75 225.81,-85.61 232.8,-85.87"/>
</g>
<!-- Node7 -->
<g id="node7" class="node">
<title>Node7</title>
<g id="a_node7"><a xlink:title=" ">
<polygon fill="white" stroke="#bfbfbf" points="0,-0.5 0,-19.5 104,-19.5 104,-0.5 0,-0.5"/>
<text text-anchor="middle" x="52" y="-7.5" font-family="Helvetica,sans-Serif" font-size="10.00">SFML/Graphics.hpp</text>
</a>
</g>
</g>
<!-- Node6&#45;&gt;Node7 -->
<g id="edge6" class="edge">
<title>Node6&#45;&gt;Node7</title>
<path fill="none" stroke="midnightblue" d="M92.91,-56.08C85.84,-48.3 75.41,-36.8 66.85,-27.37"/>
<polygon fill="midnightblue" stroke="midnightblue" points="69.25,-24.8 59.94,-19.75 64.07,-29.51 69.25,-24.8"/>
</g>
<!-- Node8 -->
<g id="node8" class="node">
<title>Node8</title>
<g id="a_node8"><a xlink:href="_facade_8h.html" target="_top" xlink:title=" ">
<polygon fill="white" stroke="black" points="122,-0.5 122,-19.5 178,-19.5 178,-0.5 122,-0.5"/>
<text text-anchor="middle" x="150" y="-7.5" font-family="Helvetica,sans-Serif" font-size="10.00">Facade.h</text>
</a>
</g>
</g>
<!-- Node6&#45;&gt;Node8 -->
<g id="edge7" class="edge">
<title>Node6&#45;&gt;Node8</title>
<path fill="none" stroke="midnightblue" d="M109.09,-56.08C116.16,-48.3 126.59,-36.8 135.15,-27.37"/>
<polygon fill="midnightblue" stroke="midnightblue" points="137.93,-29.51 142.06,-19.75 132.75,-24.8 137.93,-29.51"/>
</g>
<!-- Node11 -->
<g id="node11" class="node">
<title>Node11</title>
<g id="a_node11"><a xlink:title=" ">
<polygon fill="white" stroke="#bfbfbf" points="300,-56.5 300,-75.5 354,-75.5 354,-56.5 300,-56.5"/>
<text text-anchor="middle" x="327" y="-63.5" font-family="Helvetica,sans-Serif" font-size="10.00">iostream</text>
</a>
</g>
</g>
<!-- Node10&#45;&gt;Node11 -->
<g id="edge10" class="edge">
<title>Node10&#45;&gt;Node11</title>
<path fill="none" stroke="midnightblue" d="M327.83,-112.08C327.7,-105.01 327.52,-94.86 327.35,-85.99"/>
<polygon fill="midnightblue" stroke="midnightblue" points="330.85,-85.68 327.16,-75.75 323.85,-85.81 330.85,-85.68"/>
</g>
<!-- Node12 -->
<g id="node12" class="node">
<title>Node12</title>
<g id="a_node12"><a xlink:title=" ">
<polygon fill="white" stroke="#bfbfbf" points="372.5,-56.5 372.5,-75.5 423.5,-75.5 423.5,-56.5 372.5,-56.5"/>
<text text-anchor="middle" x="398" y="-63.5" font-family="Helvetica,sans-Serif" font-size="10.00">memory</text>
</a>
</g>
</g>
<!-- Node10&#45;&gt;Node12 -->
<g id="edge11" class="edge">
<title>Node10&#45;&gt;Node12</title>
<path fill="none" stroke="midnightblue" d="M339.25,-112.32C349.8,-104.18 365.8,-91.84 378.44,-82.09"/>
<polygon fill="midnightblue" stroke="midnightblue" points="380.77,-84.71 386.55,-75.83 376.49,-79.17 380.77,-84.71"/>
</g>
</g>
</svg>
