<?xml version="1.0" encoding="UTF-8" standalone="no"?>
<!DOCTYPE svg PUBLIC "-//W3C//DTD SVG 1.1//EN"
 "http://www.w3.org/Graphics/SVG/1.1/DTD/svg11.dtd">
<!-- Generated by graphviz version 2.47.1 (20210421.1823)
 -->
<!-- Title: include/engine/gameController.h Pages: 1 -->
<svg width="2136pt" height="564pt"
 viewBox="0.00 0.00 2136.00 564.00" xmlns="http://www.w3.org/2000/svg" xmlns:xlink="http://www.w3.org/1999/xlink">
<g id="graph0" class="graph" transform="scale(1 1) rotate(0) translate(4 560)">
<title>include/engine/gameController.h</title>
<polygon fill="white" stroke="transparent" points="-4,4 -4,-560 2132,-560 2132,4 -4,4"/>
<!-- Node1 -->
<g id="node1" class="node">
<title>Node1</title>
<g id="a_node1"><a xlink:title=" ">
<polygon fill="#bfbfbf" stroke="black" points="1606.5,-536.5 1606.5,-555.5 1761.5,-555.5 1761.5,-536.5 1606.5,-536.5"/>
<text text-anchor="middle" x="1684" y="-543.5" font-family="Helvetica,sans-Serif" font-size="10.00">include/engine/gameController.h</text>
</a>
</g>
</g>
<!-- Node2 -->
<g id="node2" class="node">
<title>Node2</title>
<g id="a_node2"><a xlink:href="engine_2_action_8cpp.html" target="_top" xlink:title=" ">
<polygon fill="white" stroke="black" points="171,-207 171,-226 281,-226 281,-207 171,-207"/>
<text text-anchor="middle" x="226" y="-214" font-family="Helvetica,sans-Serif" font-size="10.00">src/engine/Action.cpp</text>
</a>
</g>
</g>
<!-- Node1&#45;&gt;Node2 -->
<g id="edge1" class="edge">
<title>Node1&#45;&gt;Node2</title>
<path fill="none" stroke="midnightblue" d="M1596.07,-544.72C1364.17,-543.47 739.89,-536.7 537,-500 423.25,-479.42 290,-534.1 290,-418.5 290,-418.5 290,-418.5 290,-349.5 290,-298.31 250.55,-246.13 233.59,-226.07"/>
<polygon fill="midnightblue" stroke="midnightblue" points="1596.13,-548.22 1606.15,-544.77 1596.17,-541.22 1596.13,-548.22"/>
</g>
<!-- Node3 -->
<g id="node3" class="node">
<title>Node3</title>
<g id="a_node3"><a xlink:href="_click_action_8cpp.html" target="_top" xlink:title=" ">
<polygon fill="white" stroke="black" points="1750,-469.5 1750,-499.5 1846,-499.5 1846,-469.5 1750,-469.5"/>
<text text-anchor="start" x="1758" y="-487.5" font-family="Helvetica,sans-Serif" font-size="10.00">src/engine/actions</text>
<text text-anchor="middle" x="1798" y="-476.5" font-family="Helvetica,sans-Serif" font-size="10.00">/ClickAction.cpp</text>
</a>
</g>
</g>
<!-- Node1&#45;&gt;Node3 -->
<g id="edge2" class="edge">
<title>Node1&#45;&gt;Node3</title>
<path fill="none" stroke="midnightblue" d="M1709.28,-531.81C1727.63,-522.23 1752.42,-509.29 1771.13,-499.52"/>
<polygon fill="midnightblue" stroke="midnightblue" points="1707.58,-528.75 1700.33,-536.48 1710.82,-534.95 1707.58,-528.75"/>
</g>
<!-- Node4 -->
<g id="node4" class="node">
<title>Node4</title>
<g id="a_node4"><a xlink:href="_set_squad_path_8cpp.html" target="_top" xlink:title=" ">
<polygon fill="white" stroke="black" points="299.5,-201.5 299.5,-231.5 400.5,-231.5 400.5,-201.5 299.5,-201.5"/>
<text text-anchor="start" x="307.5" y="-219.5" font-family="Helvetica,sans-Serif" font-size="10.00">src/engine/actions</text>
<text text-anchor="middle" x="350" y="-208.5" font-family="Helvetica,sans-Serif" font-size="10.00">/SetSquadPath.cpp</text>
</a>
</g>
</g>
<!-- Node1&#45;&gt;Node4 -->
<g id="edge3" class="edge">
<title>Node1&#45;&gt;Node4</title>
<path fill="none" stroke="midnightblue" d="M1596.1,-545.16C1314.95,-544.53 456,-533.22 456,-418.5 456,-418.5 456,-418.5 456,-349.5 456,-296.6 403.6,-252.83 372.48,-231.51"/>
<polygon fill="midnightblue" stroke="midnightblue" points="1596.25,-548.66 1606.25,-545.18 1596.26,-541.66 1596.25,-548.66"/>
</g>
<!-- Node5 -->
<g id="node5" class="node">
<title>Node5</title>
<g id="a_node5"><a xlink:href="game_controller_8cpp.html" target="_top" xlink:title=" ">
<polygon fill="white" stroke="black" points="1864,-475 1864,-494 2012,-494 2012,-475 1864,-475"/>
<text text-anchor="middle" x="1938" y="-482" font-family="Helvetica,sans-Serif" font-size="10.00">src/engine/gameController.cpp</text>
</a>
</g>
</g>
<!-- Node1&#45;&gt;Node5 -->
<g id="edge4" class="edge">
<title>Node1&#45;&gt;Node5</title>
<path fill="none" stroke="midnightblue" d="M1730.16,-534.19C1779.45,-522.64 1856.53,-504.58 1901.68,-494.01"/>
<polygon fill="midnightblue" stroke="midnightblue" points="1729.33,-530.79 1720.39,-536.48 1730.93,-537.6 1729.33,-530.79"/>
</g>
<!-- Node6 -->
<g id="node6" class="node">
<title>Node6</title>
<g id="a_node6"><a xlink:href="_squad_8cpp.html" target="_top" xlink:title=" ">
<polygon fill="white" stroke="black" points="1567,-67.5 1567,-97.5 1681,-97.5 1681,-67.5 1567,-67.5"/>
<text text-anchor="start" x="1575" y="-85.5" font-family="Helvetica,sans-Serif" font-size="10.00">src/GameLogic/Squad</text>
<text text-anchor="middle" x="1624" y="-74.5" font-family="Helvetica,sans-Serif" font-size="10.00">/Squad.cpp</text>
</a>
</g>
</g>
<!-- Node1&#45;&gt;Node6 -->
<g id="edge5" class="edge">
<title>Node1&#45;&gt;Node6</title>
<path fill="none" stroke="midnightblue" d="M1692.99,-527.11C1704.22,-503.05 1722,-458.65 1722,-418.5 1722,-418.5 1722,-418.5 1722,-215.5 1722,-178.31 1724.48,-164.37 1703,-134 1691.72,-118.05 1673.66,-105.96 1657.65,-97.61"/>
<polygon fill="midnightblue" stroke="midnightblue" points="1689.71,-525.85 1688.51,-536.37 1696.01,-528.9 1689.71,-525.85"/>
</g>
<!-- Node7 -->
<g id="node7" class="node">
<title>Node7</title>
<g id="a_node7"><a xlink:href="main_8cpp.html" target="_top" xlink:title=" ">
<polygon fill="white" stroke="black" points="1584,-408 1584,-427 1656,-427 1656,-408 1584,-408"/>
<text text-anchor="middle" x="1620" y="-415" font-family="Helvetica,sans-Serif" font-size="10.00">src/main.cpp</text>
</a>
</g>
</g>
<!-- Node1&#45;&gt;Node7 -->
<g id="edge6" class="edge">
<title>Node1&#45;&gt;Node7</title>
<path fill="none" stroke="midnightblue" d="M1674.91,-527.04C1660.97,-499.48 1634.83,-447.81 1624.43,-427.26"/>
<polygon fill="midnightblue" stroke="midnightblue" points="1671.96,-528.96 1679.6,-536.31 1678.21,-525.8 1671.96,-528.96"/>
</g>
<!-- Node8 -->
<g id="node8" class="node">
<title>Node8</title>
<g id="a_node8"><a xlink:href="cellgen_8cpp.html" target="_top" xlink:title=" ">
<polygon fill="white" stroke="black" points="2030,-475 2030,-494 2128,-494 2128,-475 2030,-475"/>
<text text-anchor="middle" x="2079" y="-482" font-family="Helvetica,sans-Serif" font-size="10.00">src/util/cellgen.cpp</text>
</a>
</g>
</g>
<!-- Node1&#45;&gt;Node8 -->
<g id="edge7" class="edge">
<title>Node1&#45;&gt;Node8</title>
<path fill="none" stroke="midnightblue" d="M1771.97,-535.99C1840.23,-528.34 1937.04,-516.05 2021,-500 2029.67,-498.34 2038.97,-496.19 2047.54,-494.05"/>
<polygon fill="midnightblue" stroke="midnightblue" points="1771.25,-532.55 1761.69,-537.13 1772.02,-539.51 1771.25,-532.55"/>
</g>
<!-- Node9 -->
<g id="node9" class="node">
<title>Node9</title>
<g id="a_node9"><a xlink:href="pathfinding_8cpp.html" target="_top" xlink:title=" ">
<polygon fill="white" stroke="black" points="1437.5,-207 1437.5,-226 1550.5,-226 1550.5,-207 1437.5,-207"/>
<text text-anchor="middle" x="1494" y="-214" font-family="Helvetica,sans-Serif" font-size="10.00">src/util/pathfinding.cpp</text>
</a>
</g>
</g>
<!-- Node1&#45;&gt;Node9 -->
<g id="edge8" class="edge">
<title>Node1&#45;&gt;Node9</title>
<path fill="none" stroke="midnightblue" d="M1685.02,-526.37C1685.82,-498.08 1684.4,-443.23 1665,-402 1626.51,-320.2 1538.46,-250.05 1506.17,-226.2"/>
<polygon fill="midnightblue" stroke="midnightblue" points="1681.52,-526.31 1684.6,-536.44 1688.51,-526.6 1681.52,-526.31"/>
</g>
<!-- Node10 -->
<g id="node10" class="node">
<title>Node10</title>
<g id="a_node10"><a xlink:href="_cell_8h.html" target="_top" xlink:title=" ">
<polygon fill="white" stroke="black" points="1243,-475 1243,-494 1371,-494 1371,-475 1243,-475"/>
<text text-anchor="middle" x="1307" y="-482" font-family="Helvetica,sans-Serif" font-size="10.00">include/GameLogic/Cell.h</text>
</a>
</g>
</g>
<!-- Node1&#45;&gt;Node10 -->
<g id="edge9" class="edge">
<title>Node1&#45;&gt;Node10</title>
<path fill="none" stroke="midnightblue" d="M1620.01,-534.9C1547.13,-523.4 1429.31,-504.8 1360.91,-494.01"/>
<polygon fill="midnightblue" stroke="midnightblue" points="1619.56,-538.37 1629.99,-536.48 1620.65,-531.46 1619.56,-538.37"/>
</g>
<!-- Node10&#45;&gt;Node7 -->
<g id="edge11" class="edge">
<title>Node10&#45;&gt;Node7</title>
<path fill="none" stroke="midnightblue" d="M1369.22,-473.23C1422.73,-463.99 1501.84,-449.39 1570,-433 1577.29,-431.25 1585.11,-429.11 1592.35,-427.01"/>
<polygon fill="midnightblue" stroke="midnightblue" points="1368.47,-469.8 1359.2,-474.94 1369.65,-476.7 1368.47,-469.8"/>
</g>
<!-- Node11 -->
<g id="node11" class="node">
<title>Node11</title>
<g id="a_node11"><a xlink:href="_cell_8cpp.html" target="_top" xlink:title=" ">
<polygon fill="white" stroke="black" points="1354.5,-408 1354.5,-427 1475.5,-427 1475.5,-408 1354.5,-408"/>
<text text-anchor="middle" x="1415" y="-415" font-family="Helvetica,sans-Serif" font-size="10.00">src/GameLogic/Cell.cpp</text>
</a>
</g>
</g>
<!-- Node10&#45;&gt;Node11 -->
<g id="edge10" class="edge">
<title>Node10&#45;&gt;Node11</title>
<path fill="none" stroke="midnightblue" d="M1330.36,-469.44C1351.75,-456.57 1382.72,-437.93 1400.67,-427.13"/>
<polygon fill="midnightblue" stroke="midnightblue" points="1328.33,-466.58 1321.57,-474.73 1331.94,-472.58 1328.33,-466.58"/>
</g>
<!-- Node12 -->
<g id="node12" class="node">
<title>Node12</title>
<g id="a_node12"><a xlink:href="_set_squad_path_8h.html" target="_top" xlink:title=" ">
<polygon fill="white" stroke="black" points="548.5,-268.5 548.5,-298.5 661.5,-298.5 661.5,-268.5 548.5,-268.5"/>
<text text-anchor="start" x="556.5" y="-286.5" font-family="Helvetica,sans-Serif" font-size="10.00">include/engine/actions</text>
<text text-anchor="middle" x="605" y="-275.5" font-family="Helvetica,sans-Serif" font-size="10.00">/SetSquadPath.h</text>
</a>
</g>
</g>
<!-- Node10&#45;&gt;Node12 -->
<g id="edge12" class="edge">
<title>Node10&#45;&gt;Node12</title>
<path fill="none" stroke="midnightblue" d="M1251.84,-472.76C1207.25,-463.03 1143.23,-447.96 1088,-433 921.15,-387.8 725.04,-325.96 643.43,-298.55"/>
<polygon fill="midnightblue" stroke="midnightblue" points="1251.39,-476.25 1261.9,-474.94 1252.87,-469.4 1251.39,-476.25"/>
</g>
<!-- Node13 -->
<g id="node13" class="node">
<title>Node13</title>
<g id="a_node13"><a xlink:href="_game_logic_2_squad_2_action_8h.html" target="_top" xlink:title=" ">
<polygon fill="white" stroke="black" points="1128.5,-402.5 1128.5,-432.5 1259.5,-432.5 1259.5,-402.5 1128.5,-402.5"/>
<text text-anchor="start" x="1136.5" y="-420.5" font-family="Helvetica,sans-Serif" font-size="10.00">include/GameLogic/Squad</text>
<text text-anchor="middle" x="1194" y="-409.5" font-family="Helvetica,sans-Serif" font-size="10.00">/Action.h</text>
</a>
</g>
</g>
<!-- Node10&#45;&gt;Node13 -->
<g id="edge16" class="edge">
<title>Node10&#45;&gt;Node13</title>
<path fill="none" stroke="midnightblue" d="M1282.84,-469.6C1263.87,-458.69 1237.55,-443.55 1218.49,-432.59"/>
<polygon fill="midnightblue" stroke="midnightblue" points="1281.35,-472.78 1291.76,-474.73 1284.84,-466.71 1281.35,-472.78"/>
</g>
<!-- Node15 -->
<g id="node15" class="node">
<title>Node15</title>
<g id="a_node15"><a xlink:href="_squad_8h.html" target="_top" xlink:title=" ">
<polygon fill="white" stroke="black" points="1025.5,-335.5 1025.5,-365.5 1156.5,-365.5 1156.5,-335.5 1025.5,-335.5"/>
<text text-anchor="start" x="1033.5" y="-353.5" font-family="Helvetica,sans-Serif" font-size="10.00">include/GameLogic/Squad</text>
<text text-anchor="middle" x="1091" y="-342.5" font-family="Helvetica,sans-Serif" font-size="10.00">/Squad.h</text>
</a>
</g>
</g>
<!-- Node10&#45;&gt;Node15 -->
<g id="edge70" class="edge">
<title>Node10&#45;&gt;Node15</title>
<path fill="none" stroke="midnightblue" d="M1232.69,-480.87C1191.65,-475.94 1142.63,-463.47 1110,-433 1090.97,-415.23 1084.88,-383.97 1085.75,-365.76"/>
<polygon fill="midnightblue" stroke="midnightblue" points="1232.35,-484.36 1242.66,-481.95 1233.1,-477.4 1232.35,-484.36"/>
</g>
<!-- Node25 -->
<g id="node25" class="node">
<title>Node25</title>
<g id="a_node25"><a xlink:href="_factory_8h.html" target="_top" xlink:title=" ">
<polygon fill="white" stroke="black" points="1159.5,-201.5 1159.5,-231.5 1286.5,-231.5 1286.5,-201.5 1159.5,-201.5"/>
<text text-anchor="start" x="1167.5" y="-219.5" font-family="Helvetica,sans-Serif" font-size="10.00">include/GameLogic/Units</text>
<text text-anchor="middle" x="1223" y="-208.5" font-family="Helvetica,sans-Serif" font-size="10.00">/Factory.h</text>
</a>
</g>
</g>
<!-- Node10&#45;&gt;Node25 -->
<g id="edge71" class="edge">
<title>Node10&#45;&gt;Node25</title>
<path fill="none" stroke="midnightblue" d="M1301.21,-465.17C1285.37,-415.01 1241.56,-276.28 1227.45,-231.58"/>
<polygon fill="midnightblue" stroke="midnightblue" points="1297.95,-466.47 1304.3,-474.95 1304.63,-464.36 1297.95,-466.47"/>
</g>
<!-- Node43 -->
<g id="node43" class="node">
<title>Node43</title>
<g id="a_node43"><a xlink:href="pathfinding_8h.html" target="_top" xlink:title=" ">
<polygon fill="white" stroke="black" points="1316,-274 1316,-293 1436,-293 1436,-274 1316,-274"/>
<text text-anchor="middle" x="1376" y="-281" font-family="Helvetica,sans-Serif" font-size="10.00">include/util/pathfinding.h</text>
</a>
</g>
</g>
<!-- Node10&#45;&gt;Node43 -->
<g id="edge72" class="edge">
<title>Node10&#45;&gt;Node43</title>
<path fill="none" stroke="midnightblue" d="M1313.3,-465.33C1327.68,-423.86 1362.49,-323.45 1372.97,-293.24"/>
<polygon fill="midnightblue" stroke="midnightblue" points="1309.93,-464.35 1309.96,-474.95 1316.55,-466.65 1309.93,-464.35"/>
</g>
<!-- Node12&#45;&gt;Node2 -->
<g id="edge13" class="edge">
<title>Node12&#45;&gt;Node2</title>
<path fill="none" stroke="midnightblue" d="M538.53,-273.1C474.63,-263.77 375.43,-248.51 290,-232 280.83,-230.23 270.96,-228.1 261.8,-226.03"/>
<polygon fill="midnightblue" stroke="midnightblue" points="538.08,-276.57 548.48,-274.55 539.08,-269.65 538.08,-276.57"/>
</g>
<!-- Node12&#45;&gt;Node4 -->
<g id="edge14" class="edge">
<title>Node12&#45;&gt;Node4</title>
<path fill="none" stroke="midnightblue" d="M540.1,-265.96C496.77,-254.91 440.61,-240.6 400.59,-230.39"/>
<polygon fill="midnightblue" stroke="midnightblue" points="539.43,-269.4 549.98,-268.48 541.16,-262.61 539.43,-269.4"/>
</g>
<!-- Node12&#45;&gt;Node10 -->
<g id="edge15" class="edge">
<title>Node12&#45;&gt;Node10</title>
<path fill="none" stroke="midnightblue" d="M663.45,-301.57C756.79,-330.28 945.01,-389.39 1106,-433 1165.54,-449.13 1235.27,-465.38 1275.12,-474.94"/>
<polygon fill="midnightblue" stroke="midnightblue" points="664.21,-298.14 653.63,-298.55 662.16,-304.83 664.21,-298.14"/>
</g>
<!-- Node14 -->
<g id="node14" class="node">
<title>Node14</title>
<g id="a_node14"><a xlink:href="_game_logic_2_squad_2_action_8cpp.html" target="_top" xlink:title=" ">
<polygon fill="white" stroke="black" points="1305,-201.5 1305,-231.5 1419,-231.5 1419,-201.5 1305,-201.5"/>
<text text-anchor="start" x="1313" y="-219.5" font-family="Helvetica,sans-Serif" font-size="10.00">src/GameLogic/Squad</text>
<text text-anchor="middle" x="1362" y="-208.5" font-family="Helvetica,sans-Serif" font-size="10.00">/Action.cpp</text>
</a>
</g>
</g>
<!-- Node13&#45;&gt;Node14 -->
<g id="edge17" class="edge">
<title>Node13&#45;&gt;Node14</title>
<path fill="none" stroke="midnightblue" d="M1209.34,-393.84C1230.07,-363.85 1268.82,-309.87 1307,-268 1318.88,-254.97 1333.66,-241.53 1344.9,-231.8"/>
<polygon fill="midnightblue" stroke="midnightblue" points="1206.28,-392.12 1203.51,-402.34 1212.05,-396.08 1206.28,-392.12"/>
</g>
<!-- Node13&#45;&gt;Node15 -->
<g id="edge18" class="edge">
<title>Node13&#45;&gt;Node15</title>
<path fill="none" stroke="midnightblue" d="M1157.35,-397.3C1140.38,-387.12 1121.11,-374.85 1107.63,-365.58"/>
<polygon fill="midnightblue" stroke="midnightblue" points="1155.58,-400.32 1165.97,-402.4 1159.15,-394.29 1155.58,-400.32"/>
</g>
<!-- Node15&#45;&gt;Node6 -->
<g id="edge19" class="edge">
<title>Node15&#45;&gt;Node6</title>
<path fill="none" stroke="midnightblue" d="M1091.51,-325.11C1093.89,-279.42 1106.13,-181.3 1166,-134 1228.05,-84.98 1441.5,-107.46 1520,-98 1535.2,-96.17 1551.63,-93.98 1566.83,-91.86"/>
<polygon fill="midnightblue" stroke="midnightblue" points="1088,-325.15 1091.09,-335.28 1094.99,-325.43 1088,-325.15"/>
</g>
<!-- Node15&#45;&gt;Node10 -->
<g id="edge21" class="edge">
<title>Node15&#45;&gt;Node10</title>
<path fill="none" stroke="midnightblue" d="M1100.61,-375.66C1105.22,-393.86 1112.09,-418.15 1128,-433 1159.12,-462.06 1205.15,-474.75 1242.8,-480.14"/>
<polygon fill="midnightblue" stroke="midnightblue" points="1103.95,-374.59 1098.1,-365.76 1097.16,-376.31 1103.95,-374.59"/>
</g>
<!-- Node15&#45;&gt;Node12 -->
<g id="edge20" class="edge">
<title>Node15&#45;&gt;Node12</title>
<path fill="none" stroke="midnightblue" d="M1015.41,-342.73C930.9,-334.63 790.1,-319.55 670,-299 667.26,-298.53 664.47,-298.02 661.65,-297.49"/>
<polygon fill="midnightblue" stroke="midnightblue" points="1015.15,-346.22 1025.44,-343.69 1015.81,-339.26 1015.15,-346.22"/>
</g>
<!-- Node15&#45;&gt;Node13 -->
<g id="edge22" class="edge">
<title>Node15&#45;&gt;Node13</title>
<path fill="none" stroke="midnightblue" d="M1127.6,-370.67C1144.57,-380.84 1163.83,-393.11 1177.33,-402.4"/>
<polygon fill="midnightblue" stroke="midnightblue" points="1129.37,-367.65 1118.98,-365.58 1125.81,-373.68 1129.37,-367.65"/>
</g>
<!-- Node16 -->
<g id="node16" class="node">
<title>Node16</title>
<g id="a_node16"><a xlink:href="_unit_8h.html" target="_top" xlink:title=" ">
<polygon fill="white" stroke="black" points="679.5,-268.5 679.5,-298.5 806.5,-298.5 806.5,-268.5 679.5,-268.5"/>
<text text-anchor="start" x="687.5" y="-286.5" font-family="Helvetica,sans-Serif" font-size="10.00">include/GameLogic/Units</text>
<text text-anchor="middle" x="743" y="-275.5" font-family="Helvetica,sans-Serif" font-size="10.00">/Unit.h</text>
</a>
</g>
</g>
<!-- Node15&#45;&gt;Node16 -->
<g id="edge23" class="edge">
<title>Node15&#45;&gt;Node16</title>
<path fill="none" stroke="midnightblue" d="M1014.94,-336.33C952.58,-324.98 865.39,-308.7 806.66,-297.42"/>
<polygon fill="midnightblue" stroke="midnightblue" points="1014.65,-339.84 1025.12,-338.18 1015.9,-332.95 1014.65,-339.84"/>
</g>
<!-- Node15&#45;&gt;Node43 -->
<g id="edge67" class="edge">
<title>Node15&#45;&gt;Node43</title>
<path fill="none" stroke="midnightblue" d="M1162.35,-333.23C1218.3,-320.47 1293.96,-303.21 1338.61,-293.03"/>
<polygon fill="midnightblue" stroke="midnightblue" points="1161.46,-329.84 1152.49,-335.48 1163.02,-336.66 1161.46,-329.84"/>
</g>
<!-- Node16&#45;&gt;Node15 -->
<g id="edge25" class="edge">
<title>Node16&#45;&gt;Node15</title>
<path fill="none" stroke="midnightblue" d="M816.75,-297.25C878.55,-308.48 965.88,-324.79 1025.31,-336.19"/>
<polygon fill="midnightblue" stroke="midnightblue" points="817.14,-293.76 806.67,-295.42 815.89,-300.65 817.14,-293.76"/>
</g>
<!-- Node17 -->
<g id="node17" class="node">
<title>Node17</title>
<g id="a_node17"><a xlink:href="_unit_8cpp.html" target="_top" xlink:title=" ">
<polygon fill="white" stroke="black" points="0,-134.5 0,-164.5 110,-164.5 110,-134.5 0,-134.5"/>
<text text-anchor="start" x="8" y="-152.5" font-family="Helvetica,sans-Serif" font-size="10.00">src/GameLogic/Units</text>
<text text-anchor="middle" x="55" y="-141.5" font-family="Helvetica,sans-Serif" font-size="10.00">/Unit.cpp</text>
</a>
</g>
</g>
<!-- Node16&#45;&gt;Node17 -->
<g id="edge24" class="edge">
<title>Node16&#45;&gt;Node17</title>
<path fill="none" stroke="midnightblue" d="M669.44,-268.01C569.56,-251.58 536.57,-271.15 448,-232 427.75,-223.05 429.42,-209.57 409,-201 289.25,-150.72 246.94,-187.38 119,-165 116.08,-164.49 113.1,-163.93 110.09,-163.35"/>
<polygon fill="midnightblue" stroke="midnightblue" points="668.87,-271.46 679.32,-269.71 670.06,-264.56 668.87,-271.46"/>
</g>
<!-- Node18 -->
<g id="node18" class="node">
<title>Node18</title>
<g id="a_node18"><a xlink:href="_squad_order_8h.html" target="_top" xlink:title=" ">
<polygon fill="white" stroke="black" points="256.5,-134.5 256.5,-164.5 387.5,-164.5 387.5,-134.5 256.5,-134.5"/>
<text text-anchor="start" x="264.5" y="-152.5" font-family="Helvetica,sans-Serif" font-size="10.00">include/GameLogic/Squad</text>
<text text-anchor="middle" x="322" y="-141.5" font-family="Helvetica,sans-Serif" font-size="10.00">/SquadOrder.h</text>
</a>
</g>
</g>
<!-- Node16&#45;&gt;Node18 -->
<g id="edge26" class="edge">
<title>Node16&#45;&gt;Node18</title>
<path fill="none" stroke="midnightblue" d="M692.46,-264.71C671.41,-256.25 647.22,-245.1 627,-232 609.84,-220.88 611.32,-210.08 593,-201 513.25,-161.49 483.45,-181.56 396,-165 393.3,-164.49 390.54,-163.96 387.76,-163.43"/>
<polygon fill="midnightblue" stroke="midnightblue" points="691.29,-268.01 701.88,-268.41 693.85,-261.5 691.29,-268.01"/>
</g>
<!-- Node20 -->
<g id="node20" class="node">
<title>Node20</title>
<g id="a_node20"><a xlink:href="_armored_unit_8h.html" target="_top" xlink:title=" ">
<polygon fill="white" stroke="black" points="405.5,-134.5 405.5,-164.5 532.5,-164.5 532.5,-134.5 405.5,-134.5"/>
<text text-anchor="start" x="413.5" y="-152.5" font-family="Helvetica,sans-Serif" font-size="10.00">include/GameLogic/Units</text>
<text text-anchor="middle" x="469" y="-141.5" font-family="Helvetica,sans-Serif" font-size="10.00">/ArmoredUnit.h</text>
</a>
</g>
</g>
<!-- Node16&#45;&gt;Node20 -->
<g id="edge28" class="edge">
<title>Node16&#45;&gt;Node20</title>
<path fill="none" stroke="midnightblue" d="M714.08,-262.68C700.63,-253.42 684.46,-242.21 670,-232 650.76,-218.41 648.04,-211.61 627,-201 595.63,-185.18 558.27,-172.97 527.76,-164.52"/>
<polygon fill="midnightblue" stroke="midnightblue" points="712.25,-265.67 722.47,-268.46 716.22,-259.91 712.25,-265.67"/>
</g>
<!-- Node16&#45;&gt;Node25 -->
<g id="edge33" class="edge">
<title>Node16&#45;&gt;Node25</title>
<path fill="none" stroke="midnightblue" d="M816.71,-272.52C910.45,-259.82 1070.74,-238.12 1159.38,-226.12"/>
<polygon fill="midnightblue" stroke="midnightblue" points="816.18,-269.06 806.74,-273.87 817.12,-275.99 816.18,-269.06"/>
</g>
<!-- Node37 -->
<g id="node37" class="node">
<title>Node37</title>
<g id="a_node37"><a xlink:href="_land_unit_8h.html" target="_top" xlink:title=" ">
<polygon fill="white" stroke="black" points="824.5,-201.5 824.5,-231.5 951.5,-231.5 951.5,-201.5 824.5,-201.5"/>
<text text-anchor="start" x="832.5" y="-219.5" font-family="Helvetica,sans-Serif" font-size="10.00">include/GameLogic/Units</text>
<text text-anchor="middle" x="888" y="-208.5" font-family="Helvetica,sans-Serif" font-size="10.00">/LandUnit.h</text>
</a>
</g>
</g>
<!-- Node16&#45;&gt;Node37 -->
<g id="edge55" class="edge">
<title>Node16&#45;&gt;Node37</title>
<path fill="none" stroke="midnightblue" d="M783.67,-264.27C806.76,-253.92 835.24,-241.15 856.6,-231.58"/>
<polygon fill="midnightblue" stroke="midnightblue" points="782.16,-261.11 774.46,-268.4 785.02,-267.5 782.16,-261.11"/>
</g>
<!-- Node39 -->
<g id="node39" class="node">
<title>Node39</title>
<g id="a_node39"><a xlink:href="_transport_unit_8h.html" target="_top" xlink:title=" ">
<polygon fill="white" stroke="black" points="679.5,-201.5 679.5,-231.5 806.5,-231.5 806.5,-201.5 679.5,-201.5"/>
<text text-anchor="start" x="687.5" y="-219.5" font-family="Helvetica,sans-Serif" font-size="10.00">include/GameLogic/Units</text>
<text text-anchor="middle" x="743" y="-208.5" font-family="Helvetica,sans-Serif" font-size="10.00">/TransportUnit.h</text>
</a>
</g>
</g>
<!-- Node16&#45;&gt;Node39 -->
<g id="edge58" class="edge">
<title>Node16&#45;&gt;Node39</title>
<path fill="none" stroke="midnightblue" d="M743,-258.11C743,-249.15 743,-239.32 743,-231.58"/>
<polygon fill="midnightblue" stroke="midnightblue" points="739.5,-258.4 743,-268.4 746.5,-258.4 739.5,-258.4"/>
</g>
<!-- Node41 -->
<g id="node41" class="node">
<title>Node41</title>
<g id="a_node41"><a xlink:href="_unit_order_8h.html" target="_top" xlink:title=" ">
<polygon fill="white" stroke="black" points="457.5,-201.5 457.5,-231.5 584.5,-231.5 584.5,-201.5 457.5,-201.5"/>
<text text-anchor="start" x="465.5" y="-219.5" font-family="Helvetica,sans-Serif" font-size="10.00">include/GameLogic/Units</text>
<text text-anchor="middle" x="521" y="-208.5" font-family="Helvetica,sans-Serif" font-size="10.00">/UnitOrder.h</text>
</a>
</g>
</g>
<!-- Node16&#45;&gt;Node41 -->
<g id="edge62" class="edge">
<title>Node16&#45;&gt;Node41</title>
<path fill="none" stroke="midnightblue" d="M679.68,-265.71C642.45,-255.14 596.44,-241.63 563.51,-231.61"/>
<polygon fill="midnightblue" stroke="midnightblue" points="678.86,-269.12 689.43,-268.48 680.77,-262.38 678.86,-269.12"/>
</g>
<!-- Node19 -->
<g id="node19" class="node">
<title>Node19</title>
<g id="a_node19"><a xlink:href="_squad_order_8cpp.html" target="_top" xlink:title=" ">
<polygon fill="white" stroke="black" points="265,-67.5 265,-97.5 379,-97.5 379,-67.5 265,-67.5"/>
<text text-anchor="start" x="273" y="-85.5" font-family="Helvetica,sans-Serif" font-size="10.00">src/GameLogic/Squad</text>
<text text-anchor="middle" x="322" y="-74.5" font-family="Helvetica,sans-Serif" font-size="10.00">/SquadOrder.cpp</text>
</a>
</g>
</g>
<!-- Node18&#45;&gt;Node19 -->
<g id="edge27" class="edge">
<title>Node18&#45;&gt;Node19</title>
<path fill="none" stroke="midnightblue" d="M322,-124.11C322,-115.15 322,-105.32 322,-97.58"/>
<polygon fill="midnightblue" stroke="midnightblue" points="318.5,-124.4 322,-134.4 325.5,-124.4 318.5,-124.4"/>
</g>
<!-- Node21 -->
<g id="node21" class="node">
<title>Node21</title>
<g id="a_node21"><a xlink:href="_armored_unit_8cpp.html" target="_top" xlink:title=" ">
<polygon fill="white" stroke="black" points="414,-67.5 414,-97.5 524,-97.5 524,-67.5 414,-67.5"/>
<text text-anchor="start" x="422" y="-85.5" font-family="Helvetica,sans-Serif" font-size="10.00">src/GameLogic/Units</text>
<text text-anchor="middle" x="469" y="-74.5" font-family="Helvetica,sans-Serif" font-size="10.00">/ArmoredUnit.cpp</text>
</a>
</g>
</g>
<!-- Node20&#45;&gt;Node21 -->
<g id="edge29" class="edge">
<title>Node20&#45;&gt;Node21</title>
<path fill="none" stroke="midnightblue" d="M469,-124.11C469,-115.15 469,-105.32 469,-97.58"/>
<polygon fill="midnightblue" stroke="midnightblue" points="465.5,-124.4 469,-134.4 472.5,-124.4 465.5,-124.4"/>
</g>
<!-- Node22 -->
<g id="node22" class="node">
<title>Node22</title>
<g id="a_node22"><a xlink:href="_armored_unit_factory_8h.html" target="_top" xlink:title=" ">
<polygon fill="white" stroke="black" points="775.5,-67.5 775.5,-97.5 902.5,-97.5 902.5,-67.5 775.5,-67.5"/>
<text text-anchor="start" x="783.5" y="-85.5" font-family="Helvetica,sans-Serif" font-size="10.00">include/GameLogic/Units</text>
<text text-anchor="middle" x="839" y="-74.5" font-family="Helvetica,sans-Serif" font-size="10.00">/ArmoredUnitFactory.h</text>
</a>
</g>
</g>
<!-- Node20&#45;&gt;Node22 -->
<g id="edge30" class="edge">
<title>Node20&#45;&gt;Node22</title>
<path fill="none" stroke="midnightblue" d="M542.62,-133.93C642.91,-116.14 669.86,-115.27 766,-98 769.05,-97.45 772.17,-96.88 775.32,-96.29"/>
<polygon fill="midnightblue" stroke="midnightblue" points="541.9,-130.5 532.68,-135.71 543.13,-137.4 541.9,-130.5"/>
</g>
<!-- Node23 -->
<g id="node23" class="node">
<title>Node23</title>
<g id="a_node23"><a xlink:href="_all_units_8cpp.html" target="_top" xlink:title=" ">
<polygon fill="white" stroke="black" points="981,-0.5 981,-30.5 1091,-30.5 1091,-0.5 981,-0.5"/>
<text text-anchor="start" x="989" y="-18.5" font-family="Helvetica,sans-Serif" font-size="10.00">src/GameLogic/Units</text>
<text text-anchor="middle" x="1036" y="-7.5" font-family="Helvetica,sans-Serif" font-size="10.00">/AllUnits.cpp</text>
</a>
</g>
</g>
<!-- Node22&#45;&gt;Node23 -->
<g id="edge31" class="edge">
<title>Node22&#45;&gt;Node23</title>
<path fill="none" stroke="midnightblue" d="M891.35,-64.23C923.22,-53.71 963.41,-40.45 993.34,-30.58"/>
<polygon fill="midnightblue" stroke="midnightblue" points="890.15,-60.94 881.75,-67.4 892.34,-67.59 890.15,-60.94"/>
</g>
<!-- Node24 -->
<g id="node24" class="node">
<title>Node24</title>
<g id="a_node24"><a xlink:href="_armored_unit_factory_8cpp.html" target="_top" xlink:title=" ">
<polygon fill="white" stroke="black" points="776.5,-0.5 776.5,-30.5 901.5,-30.5 901.5,-0.5 776.5,-0.5"/>
<text text-anchor="start" x="784.5" y="-18.5" font-family="Helvetica,sans-Serif" font-size="10.00">src/GameLogic/Units</text>
<text text-anchor="middle" x="839" y="-7.5" font-family="Helvetica,sans-Serif" font-size="10.00">/ArmoredUnitFactory.cpp</text>
</a>
</g>
</g>
<!-- Node22&#45;&gt;Node24 -->
<g id="edge32" class="edge">
<title>Node22&#45;&gt;Node24</title>
<path fill="none" stroke="midnightblue" d="M839,-57.11C839,-48.15 839,-38.32 839,-30.58"/>
<polygon fill="midnightblue" stroke="midnightblue" points="835.5,-57.4 839,-67.4 842.5,-57.4 835.5,-57.4"/>
</g>
<!-- Node25&#45;&gt;Node22 -->
<g id="edge47" class="edge">
<title>Node25&#45;&gt;Node22</title>
<path fill="none" stroke="midnightblue" d="M1149.51,-209.27C1100.21,-202.93 1034.87,-190.24 982,-165 962.33,-155.61 962.39,-145.69 944,-134 921.64,-119.78 894.67,-106.89 873.66,-97.69"/>
<polygon fill="midnightblue" stroke="midnightblue" points="1149.11,-212.75 1159.46,-210.5 1149.96,-205.8 1149.11,-212.75"/>
</g>
<!-- Node26 -->
<g id="node26" class="node">
<title>Node26</title>
<g id="a_node26"><a xlink:href="_spawn_action_8cpp.html" target="_top" xlink:title=" ">
<polygon fill="white" stroke="black" points="1175,-134.5 1175,-164.5 1271,-164.5 1271,-134.5 1175,-134.5"/>
<text text-anchor="start" x="1183" y="-152.5" font-family="Helvetica,sans-Serif" font-size="10.00">src/engine/actions</text>
<text text-anchor="middle" x="1223" y="-141.5" font-family="Helvetica,sans-Serif" font-size="10.00">/SpawnAction.cpp</text>
</a>
</g>
</g>
<!-- Node25&#45;&gt;Node26 -->
<g id="edge34" class="edge">
<title>Node25&#45;&gt;Node26</title>
<path fill="none" stroke="midnightblue" d="M1223,-191.11C1223,-182.15 1223,-172.32 1223,-164.58"/>
<polygon fill="midnightblue" stroke="midnightblue" points="1219.5,-191.4 1223,-201.4 1226.5,-191.4 1219.5,-191.4"/>
</g>
<!-- Node27 -->
<g id="node27" class="node">
<title>Node27</title>
<g id="a_node27"><a xlink:href="_factory_8cpp.html" target="_top" xlink:title=" ">
<polygon fill="white" stroke="black" points="1289,-134.5 1289,-164.5 1399,-164.5 1399,-134.5 1289,-134.5"/>
<text text-anchor="start" x="1297" y="-152.5" font-family="Helvetica,sans-Serif" font-size="10.00">src/GameLogic/Units</text>
<text text-anchor="middle" x="1344" y="-141.5" font-family="Helvetica,sans-Serif" font-size="10.00">/Factory.cpp</text>
</a>
</g>
</g>
<!-- Node25&#45;&gt;Node27 -->
<g id="edge35" class="edge">
<title>Node25&#45;&gt;Node27</title>
<path fill="none" stroke="midnightblue" d="M1258.23,-196.57C1277.26,-186.35 1300.37,-173.94 1317.8,-164.58"/>
<polygon fill="midnightblue" stroke="midnightblue" points="1256.41,-193.58 1249.26,-201.4 1259.72,-199.75 1256.41,-193.58"/>
</g>
<!-- Node28 -->
<g id="node28" class="node">
<title>Node28</title>
<g id="a_node28"><a xlink:href="_squad_template_8h.html" target="_top" xlink:title=" ">
<polygon fill="white" stroke="black" points="1417.5,-134.5 1417.5,-164.5 1548.5,-164.5 1548.5,-134.5 1417.5,-134.5"/>
<text text-anchor="start" x="1425.5" y="-152.5" font-family="Helvetica,sans-Serif" font-size="10.00">include/GameLogic/Squad</text>
<text text-anchor="middle" x="1483" y="-141.5" font-family="Helvetica,sans-Serif" font-size="10.00">/SquadTemplate.h</text>
</a>
</g>
</g>
<!-- Node25&#45;&gt;Node28 -->
<g id="edge36" class="edge">
<title>Node25&#45;&gt;Node28</title>
<path fill="none" stroke="midnightblue" d="M1289.06,-198.98C1331.53,-188.37 1386.12,-174.72 1426.56,-164.61"/>
<polygon fill="midnightblue" stroke="midnightblue" points="1287.95,-195.66 1279.1,-201.48 1289.65,-202.45 1287.95,-195.66"/>
</g>
<!-- Node32 -->
<g id="node32" class="node">
<title>Node32</title>
<g id="a_node32"><a xlink:href="_all_units_8h.html" target="_top" xlink:title=" ">
<polygon fill="white" stroke="black" points="1566.5,-134.5 1566.5,-164.5 1693.5,-164.5 1693.5,-134.5 1566.5,-134.5"/>
<text text-anchor="start" x="1574.5" y="-152.5" font-family="Helvetica,sans-Serif" font-size="10.00">include/GameLogic/Units</text>
<text text-anchor="middle" x="1630" y="-141.5" font-family="Helvetica,sans-Serif" font-size="10.00">/AllUnits.h</text>
</a>
</g>
</g>
<!-- Node25&#45;&gt;Node32 -->
<g id="edge41" class="edge">
<title>Node25&#45;&gt;Node32</title>
<path fill="none" stroke="midnightblue" d="M1296.73,-200.95C1413.63,-181.69 1445.28,-184.08 1558,-165 1560.77,-164.53 1563.59,-164.04 1566.44,-163.52"/>
<polygon fill="midnightblue" stroke="midnightblue" points="1295.95,-197.53 1286.66,-202.62 1297.1,-204.43 1295.95,-197.53"/>
</g>
<!-- Node33 -->
<g id="node33" class="node">
<title>Node33</title>
<g id="a_node33"><a xlink:href="_land_unit_factory_8h.html" target="_top" xlink:title=" ">
<polygon fill="white" stroke="black" points="991.5,-134.5 991.5,-164.5 1118.5,-164.5 1118.5,-134.5 991.5,-134.5"/>
<text text-anchor="start" x="999.5" y="-152.5" font-family="Helvetica,sans-Serif" font-size="10.00">include/GameLogic/Units</text>
<text text-anchor="middle" x="1055" y="-141.5" font-family="Helvetica,sans-Serif" font-size="10.00">/LandUnitFactory.h</text>
</a>
</g>
</g>
<!-- Node25&#45;&gt;Node33 -->
<g id="edge48" class="edge">
<title>Node25&#45;&gt;Node33</title>
<path fill="none" stroke="midnightblue" d="M1176.95,-197.68C1150,-187.26 1116.46,-174.28 1091.38,-164.58"/>
<polygon fill="midnightblue" stroke="midnightblue" points="1175.96,-201.05 1186.55,-201.4 1178.48,-194.52 1175.96,-201.05"/>
</g>
<!-- Node35 -->
<g id="node35" class="node">
<title>Node35</title>
<g id="a_node35"><a xlink:href="_transport_unit_factory_8h.html" target="_top" xlink:title=" ">
<polygon fill="white" stroke="black" points="679.5,-134.5 679.5,-164.5 806.5,-164.5 806.5,-134.5 679.5,-134.5"/>
<text text-anchor="start" x="687.5" y="-152.5" font-family="Helvetica,sans-Serif" font-size="10.00">include/GameLogic/Units</text>
<text text-anchor="middle" x="743" y="-141.5" font-family="Helvetica,sans-Serif" font-size="10.00">/TransportUnitFactory.h</text>
</a>
</g>
</g>
<!-- Node25&#45;&gt;Node35 -->
<g id="edge51" class="edge">
<title>Node25&#45;&gt;Node35</title>
<path fill="none" stroke="midnightblue" d="M1149.16,-207.97C1067.45,-199.26 931.95,-183.68 816,-165 812.94,-164.51 809.81,-163.98 806.65,-163.43"/>
<polygon fill="midnightblue" stroke="midnightblue" points="1149.04,-211.48 1159.35,-209.05 1149.77,-204.51 1149.04,-211.48"/>
</g>
<!-- Node29 -->
<g id="node29" class="node">
<title>Node29</title>
<g id="a_node29"><a xlink:href="_squad_template_8cpp.html" target="_top" xlink:title=" ">
<polygon fill="white" stroke="black" points="1397,-67.5 1397,-97.5 1511,-97.5 1511,-67.5 1397,-67.5"/>
<text text-anchor="start" x="1405" y="-85.5" font-family="Helvetica,sans-Serif" font-size="10.00">src/GameLogic/Squad</text>
<text text-anchor="middle" x="1454" y="-74.5" font-family="Helvetica,sans-Serif" font-size="10.00">/SquadTemplate.cpp</text>
</a>
</g>
</g>
<!-- Node28&#45;&gt;Node29 -->
<g id="edge37" class="edge">
<title>Node28&#45;&gt;Node29</title>
<path fill="none" stroke="midnightblue" d="M1472.51,-124.99C1468.41,-115.8 1463.85,-105.58 1460.28,-97.58"/>
<polygon fill="midnightblue" stroke="midnightblue" points="1469.44,-126.69 1476.71,-134.4 1475.83,-123.84 1469.44,-126.69"/>
</g>
<!-- Node30 -->
<g id="node30" class="node">
<title>Node30</title>
<g id="a_node30"><a xlink:href="_all_squad_templates_8h.html" target="_top" xlink:title=" ">
<polygon fill="white" stroke="black" points="1699.5,-67.5 1699.5,-97.5 1830.5,-97.5 1830.5,-67.5 1699.5,-67.5"/>
<text text-anchor="start" x="1707.5" y="-85.5" font-family="Helvetica,sans-Serif" font-size="10.00">include/GameLogic/Squad</text>
<text text-anchor="middle" x="1765" y="-74.5" font-family="Helvetica,sans-Serif" font-size="10.00">/AllSquadTemplates.h</text>
</a>
</g>
</g>
<!-- Node28&#45;&gt;Node30 -->
<g id="edge38" class="edge">
<title>Node28&#45;&gt;Node30</title>
<path fill="none" stroke="midnightblue" d="M1553.78,-132.19C1599.96,-121.54 1659.64,-107.78 1703.78,-97.61"/>
<polygon fill="midnightblue" stroke="midnightblue" points="1552.8,-128.82 1543.84,-134.48 1554.37,-135.64 1552.8,-128.82"/>
</g>
<!-- Node30&#45;&gt;Node10 -->
<g id="edge40" class="edge">
<title>Node30&#45;&gt;Node10</title>
<path fill="none" stroke="midnightblue" d="M1755.62,-107.08C1728.79,-171.24 1645.09,-349.74 1514,-433 1471.06,-460.27 1414.53,-472.81 1371.4,-478.58"/>
<polygon fill="midnightblue" stroke="midnightblue" points="1758.87,-108.37 1759.44,-97.8 1752.4,-105.71 1758.87,-108.37"/>
</g>
<!-- Node31 -->
<g id="node31" class="node">
<title>Node31</title>
<g id="a_node31"><a xlink:href="_all_squad_templates_8cpp.html" target="_top" xlink:title=" ">
<polygon fill="white" stroke="black" points="1704,-0.5 1704,-30.5 1826,-30.5 1826,-0.5 1704,-0.5"/>
<text text-anchor="start" x="1712" y="-18.5" font-family="Helvetica,sans-Serif" font-size="10.00">src/GameLogic/Squad</text>
<text text-anchor="middle" x="1765" y="-7.5" font-family="Helvetica,sans-Serif" font-size="10.00">/AllSquadTemplates.cpp</text>
</a>
</g>
</g>
<!-- Node30&#45;&gt;Node31 -->
<g id="edge39" class="edge">
<title>Node30&#45;&gt;Node31</title>
<path fill="none" stroke="midnightblue" d="M1765,-57.11C1765,-48.15 1765,-38.32 1765,-30.58"/>
<polygon fill="midnightblue" stroke="midnightblue" points="1761.5,-57.4 1765,-67.4 1768.5,-57.4 1761.5,-57.4"/>
</g>
<!-- Node32&#45;&gt;Node6 -->
<g id="edge42" class="edge">
<title>Node32&#45;&gt;Node6</title>
<path fill="none" stroke="midnightblue" d="M1627.78,-124.4C1626.94,-115.37 1626.02,-105.41 1625.3,-97.58"/>
<polygon fill="midnightblue" stroke="midnightblue" points="1624.29,-124.76 1628.7,-134.4 1631.26,-124.12 1624.29,-124.76"/>
</g>
<!-- Node32&#45;&gt;Node10 -->
<g id="edge45" class="edge">
<title>Node32&#45;&gt;Node10</title>
<path fill="none" stroke="midnightblue" d="M1624.59,-174.6C1611.06,-229.17 1570.55,-362.9 1485,-433 1452.95,-459.27 1408,-471.88 1371.29,-477.94"/>
<polygon fill="midnightblue" stroke="midnightblue" points="1628.02,-175.32 1626.94,-164.78 1621.21,-173.69 1628.02,-175.32"/>
</g>
<!-- Node32&#45;&gt;Node23 -->
<g id="edge44" class="edge">
<title>Node32&#45;&gt;Node23</title>
<path fill="none" stroke="midnightblue" d="M1600.65,-128.63C1587.45,-119.51 1571.78,-108.43 1558,-98 1540.62,-84.84 1540.12,-75.37 1520,-67 1443.65,-35.25 1201.07,-22.53 1091.12,-18.3"/>
<polygon fill="midnightblue" stroke="midnightblue" points="1598.69,-131.53 1608.92,-134.31 1602.66,-125.76 1598.69,-131.53"/>
</g>
<!-- Node32&#45;&gt;Node29 -->
<g id="edge43" class="edge">
<title>Node32&#45;&gt;Node29</title>
<path fill="none" stroke="midnightblue" d="M1582.12,-130.82C1553.83,-120.37 1518.51,-107.32 1492.11,-97.58"/>
<polygon fill="midnightblue" stroke="midnightblue" points="1581.22,-134.21 1591.81,-134.4 1583.64,-127.65 1581.22,-134.21"/>
</g>
<!-- Node32&#45;&gt;Node30 -->
<g id="edge46" class="edge">
<title>Node32&#45;&gt;Node30</title>
<path fill="none" stroke="midnightblue" d="M1668.44,-129.99C1689.84,-119.69 1716.05,-107.07 1735.76,-97.58"/>
<polygon fill="midnightblue" stroke="midnightblue" points="1666.78,-126.9 1659.29,-134.4 1669.82,-133.21 1666.78,-126.9"/>
</g>
<!-- Node33&#45;&gt;Node23 -->
<g id="edge49" class="edge">
<title>Node33&#45;&gt;Node23</title>
<path fill="none" stroke="midnightblue" d="M1069.12,-125.54C1077.42,-109.06 1085.02,-86.42 1078,-67 1072.88,-52.84 1061.88,-39.86 1052.41,-30.6"/>
<polygon fill="midnightblue" stroke="midnightblue" points="1065.97,-124.01 1064.26,-134.46 1072.12,-127.36 1065.97,-124.01"/>
</g>
<!-- Node34 -->
<g id="node34" class="node">
<title>Node34</title>
<g id="a_node34"><a xlink:href="_land_unit_factory_8cpp.html" target="_top" xlink:title=" ">
<polygon fill="white" stroke="black" points="959,-67.5 959,-97.5 1069,-97.5 1069,-67.5 959,-67.5"/>
<text text-anchor="start" x="967" y="-85.5" font-family="Helvetica,sans-Serif" font-size="10.00">src/GameLogic/Units</text>
<text text-anchor="middle" x="1014" y="-74.5" font-family="Helvetica,sans-Serif" font-size="10.00">/LandUnitFactory.cpp</text>
</a>
</g>
</g>
<!-- Node33&#45;&gt;Node34 -->
<g id="edge50" class="edge">
<title>Node33&#45;&gt;Node34</title>
<path fill="none" stroke="midnightblue" d="M1040.72,-125.87C1034.79,-116.46 1028.09,-105.83 1022.88,-97.58"/>
<polygon fill="midnightblue" stroke="midnightblue" points="1037.81,-127.81 1046.1,-134.4 1043.73,-124.07 1037.81,-127.81"/>
</g>
<!-- Node35&#45;&gt;Node22 -->
<g id="edge54" class="edge">
<title>Node35&#45;&gt;Node22</title>
<path fill="none" stroke="midnightblue" d="M772.19,-128.73C787.05,-118.68 804.76,-106.68 818.21,-97.58"/>
<polygon fill="midnightblue" stroke="midnightblue" points="770.15,-125.89 763.83,-134.4 774.07,-131.69 770.15,-125.89"/>
</g>
<!-- Node35&#45;&gt;Node23 -->
<g id="edge52" class="edge">
<title>Node35&#45;&gt;Node23</title>
<path fill="none" stroke="midnightblue" d="M816.71,-132.82C846.94,-124.76 881.66,-113.34 911,-98 930.62,-87.74 931.74,-79.53 950,-67 969.42,-53.68 992.48,-40.26 1009.83,-30.61"/>
<polygon fill="midnightblue" stroke="midnightblue" points="815.44,-129.53 806.64,-135.43 817.2,-136.31 815.44,-129.53"/>
</g>
<!-- Node36 -->
<g id="node36" class="node">
<title>Node36</title>
<g id="a_node36"><a xlink:href="_transport_unit_factory_8cpp.html" target="_top" xlink:title=" ">
<polygon fill="white" stroke="black" points="628.5,-67.5 628.5,-97.5 757.5,-97.5 757.5,-67.5 628.5,-67.5"/>
<text text-anchor="start" x="636.5" y="-85.5" font-family="Helvetica,sans-Serif" font-size="10.00">src/GameLogic/Units</text>
<text text-anchor="middle" x="693" y="-74.5" font-family="Helvetica,sans-Serif" font-size="10.00">/TransportUnitFactory.cpp</text>
</a>
</g>
</g>
<!-- Node35&#45;&gt;Node36 -->
<g id="edge53" class="edge">
<title>Node35&#45;&gt;Node36</title>
<path fill="none" stroke="midnightblue" d="M726.04,-126.45C718.69,-116.9 710.31,-106 703.83,-97.58"/>
<polygon fill="midnightblue" stroke="midnightblue" points="723.28,-128.6 732.15,-134.4 728.83,-124.34 723.28,-128.6"/>
</g>
<!-- Node37&#45;&gt;Node33 -->
<g id="edge57" class="edge">
<title>Node37&#45;&gt;Node33</title>
<path fill="none" stroke="midnightblue" d="M933.78,-197.68C960.56,-187.26 993.9,-174.28 1018.83,-164.58"/>
<polygon fill="midnightblue" stroke="midnightblue" points="932.29,-194.51 924.24,-201.4 934.83,-201.03 932.29,-194.51"/>
</g>
<!-- Node38 -->
<g id="node38" class="node">
<title>Node38</title>
<g id="a_node38"><a xlink:href="_land_unit_8cpp.html" target="_top" xlink:title=" ">
<polygon fill="white" stroke="black" points="825,-134.5 825,-164.5 935,-164.5 935,-134.5 825,-134.5"/>
<text text-anchor="start" x="833" y="-152.5" font-family="Helvetica,sans-Serif" font-size="10.00">src/GameLogic/Units</text>
<text text-anchor="middle" x="880" y="-141.5" font-family="Helvetica,sans-Serif" font-size="10.00">/LandUnit.cpp</text>
</a>
</g>
</g>
<!-- Node37&#45;&gt;Node38 -->
<g id="edge56" class="edge">
<title>Node37&#45;&gt;Node38</title>
<path fill="none" stroke="midnightblue" d="M885.03,-191.4C883.92,-182.37 882.7,-172.41 881.73,-164.58"/>
<polygon fill="midnightblue" stroke="midnightblue" points="881.57,-191.9 886.26,-201.4 888.52,-191.04 881.57,-191.9"/>
</g>
<!-- Node39&#45;&gt;Node20 -->
<g id="edge60" class="edge">
<title>Node39&#45;&gt;Node20</title>
<path fill="none" stroke="midnightblue" d="M673.95,-199.12C629.11,-188.48 571.28,-174.76 528.48,-164.61"/>
<polygon fill="midnightblue" stroke="midnightblue" points="673.35,-202.57 683.88,-201.48 674.96,-195.76 673.35,-202.57"/>
</g>
<!-- Node39&#45;&gt;Node35 -->
<g id="edge61" class="edge">
<title>Node39&#45;&gt;Node35</title>
<path fill="none" stroke="midnightblue" d="M743,-191.11C743,-182.15 743,-172.32 743,-164.58"/>
<polygon fill="midnightblue" stroke="midnightblue" points="739.5,-191.4 743,-201.4 746.5,-191.4 739.5,-191.4"/>
</g>
<!-- Node40 -->
<g id="node40" class="node">
<title>Node40</title>
<g id="a_node40"><a xlink:href="_transport_unit_8cpp.html" target="_top" xlink:title=" ">
<polygon fill="white" stroke="black" points="551,-134.5 551,-164.5 661,-164.5 661,-134.5 551,-134.5"/>
<text text-anchor="start" x="559" y="-152.5" font-family="Helvetica,sans-Serif" font-size="10.00">src/GameLogic/Units</text>
<text text-anchor="middle" x="606" y="-141.5" font-family="Helvetica,sans-Serif" font-size="10.00">/TransportUnit.cpp</text>
</a>
</g>
</g>
<!-- Node39&#45;&gt;Node40 -->
<g id="edge59" class="edge">
<title>Node39&#45;&gt;Node40</title>
<path fill="none" stroke="midnightblue" d="M703.99,-196.99C682.28,-186.69 655.67,-174.07 635.67,-164.58"/>
<polygon fill="midnightblue" stroke="midnightblue" points="702.74,-200.27 713.27,-201.4 705.74,-193.95 702.74,-200.27"/>
</g>
<!-- Node41&#45;&gt;Node16 -->
<g id="edge66" class="edge">
<title>Node41&#45;&gt;Node16</title>
<path fill="none" stroke="midnightblue" d="M584.64,-234.38C621.93,-244.97 667.92,-258.47 700.77,-268.48"/>
<polygon fill="midnightblue" stroke="midnightblue" points="585.45,-230.97 574.87,-231.61 583.54,-237.7 585.45,-230.97"/>
</g>
<!-- Node41&#45;&gt;Node17 -->
<g id="edge63" class="edge">
<title>Node41&#45;&gt;Node17</title>
<path fill="none" stroke="midnightblue" d="M446.94,-201.6C445.62,-201.39 444.3,-201.19 443,-201 299.68,-179.75 261.88,-189.04 119,-165 116.08,-164.51 113.09,-163.97 110.08,-163.39"/>
<polygon fill="midnightblue" stroke="midnightblue" points="446.78,-205.12 457.21,-203.25 447.9,-198.2 446.78,-205.12"/>
</g>
<!-- Node41&#45;&gt;Node18 -->
<g id="edge65" class="edge">
<title>Node41&#45;&gt;Node18</title>
<path fill="none" stroke="midnightblue" d="M468.12,-198.23C435.93,-187.71 395.33,-174.45 365.1,-164.58"/>
<polygon fill="midnightblue" stroke="midnightblue" points="467.23,-201.62 477.82,-201.4 469.4,-194.96 467.23,-201.62"/>
</g>
<!-- Node42 -->
<g id="node42" class="node">
<title>Node42</title>
<g id="a_node42"><a xlink:href="_unit_order_8cpp.html" target="_top" xlink:title=" ">
<polygon fill="white" stroke="black" points="128,-134.5 128,-164.5 238,-164.5 238,-134.5 128,-134.5"/>
<text text-anchor="start" x="136" y="-152.5" font-family="Helvetica,sans-Serif" font-size="10.00">src/GameLogic/Units</text>
<text text-anchor="middle" x="183" y="-141.5" font-family="Helvetica,sans-Serif" font-size="10.00">/UnitOrder.cpp</text>
</a>
</g>
</g>
<!-- Node41&#45;&gt;Node42 -->
<g id="edge64" class="edge">
<title>Node41&#45;&gt;Node42</title>
<path fill="none" stroke="midnightblue" d="M446.92,-201.72C445.6,-201.48 444.3,-201.24 443,-201 355.91,-184.91 333.76,-182.79 247,-165 244.1,-164.41 241.13,-163.78 238.13,-163.14"/>
<polygon fill="midnightblue" stroke="midnightblue" points="446.68,-205.24 457.15,-203.62 447.96,-198.36 446.68,-205.24"/>
</g>
<!-- Node43&#45;&gt;Node9 -->
<g id="edge69" class="edge">
<title>Node43&#45;&gt;Node9</title>
<path fill="none" stroke="midnightblue" d="M1400.89,-268.79C1424.28,-255.9 1458.56,-237.02 1478.34,-226.13"/>
<polygon fill="midnightblue" stroke="midnightblue" points="1398.98,-265.84 1391.91,-273.73 1402.36,-271.97 1398.98,-265.84"/>
</g>
<!-- Node43&#45;&gt;Node14 -->
<g id="edge68" class="edge">
<title>Node43&#45;&gt;Node14</title>
<path fill="none" stroke="midnightblue" d="M1371.96,-263.74C1369.75,-253.49 1367.06,-241 1365.03,-231.59"/>
<polygon fill="midnightblue" stroke="midnightblue" points="1368.58,-264.69 1374.11,-273.73 1375.43,-263.22 1368.58,-264.69"/>
</g>
</g>
</svg>
