<?xml version="1.0" encoding="UTF-8" standalone="no"?>
<!DOCTYPE svg PUBLIC "-//W3C//DTD SVG 1.1//EN"
 "http://www.w3.org/Graphics/SVG/1.1/DTD/svg11.dtd">
<!-- Generated by graphviz version 2.47.1 (20210421.1823)
 -->
<!-- Title: include/engine/gameController.h Pages: 1 -->
<svg width="2021pt" height="564pt"
 viewBox="0.00 0.00 2021.22 564.00" xmlns="http://www.w3.org/2000/svg" xmlns:xlink="http://www.w3.org/1999/xlink">
<g id="graph0" class="graph" transform="scale(1 1) rotate(0) translate(4 560)">
<title>include/engine/gameController.h</title>
<polygon fill="white" stroke="transparent" points="-4,4 -4,-560 2017.22,-560 2017.22,4 -4,4"/>
<!-- Node1 -->
<g id="node1" class="node">
<title>Node1</title>
<g id="a_node1"><a xlink:title=" ">
<polygon fill="#bfbfbf" stroke="black" points="369.72,-536.5 369.72,-555.5 524.72,-555.5 524.72,-536.5 369.72,-536.5"/>
<text text-anchor="middle" x="447.22" y="-543.5" font-family="Helvetica,sans-Serif" font-size="10.00">include/engine/gameController.h</text>
</a>
</g>
</g>
<!-- Node2 -->
<g id="node2" class="node">
<title>Node2</title>
<g id="a_node2"><a xlink:href="engine_2_action_8cpp.html" target="_top" xlink:title=" ">
<polygon fill="white" stroke="black" points="69.22,-207 69.22,-226 179.22,-226 179.22,-207 69.22,-207"/>
<text text-anchor="middle" x="124.22" y="-214" font-family="Helvetica,sans-Serif" font-size="10.00">src/engine/Action.cpp</text>
</a>
</g>
</g>
<!-- Node1&#45;&gt;Node2 -->
<g id="edge1" class="edge">
<title>Node1&#45;&gt;Node2</title>
<path fill="none" stroke="midnightblue" d="M359.26,-540.99C289.58,-535.96 199.68,-524.76 173.22,-500 146.06,-474.59 154.22,-455.69 154.22,-418.5 154.22,-418.5 154.22,-418.5 154.22,-349.5 154.22,-302.03 135.54,-247.29 127.66,-226.31"/>
<polygon fill="midnightblue" stroke="midnightblue" points="359.17,-544.49 369.39,-541.68 359.65,-537.5 359.17,-544.49"/>
</g>
<!-- Node3 -->
<g id="node3" class="node">
<title>Node3</title>
<g id="a_node3"><a xlink:href="_click_action_8cpp.html" target="_top" xlink:title=" ">
<polygon fill="white" stroke="black" points="30.22,-469.5 30.22,-499.5 126.22,-499.5 126.22,-469.5 30.22,-469.5"/>
<text text-anchor="start" x="38.22" y="-487.5" font-family="Helvetica,sans-Serif" font-size="10.00">src/engine/actions</text>
<text text-anchor="middle" x="78.22" y="-476.5" font-family="Helvetica,sans-Serif" font-size="10.00">/ClickAction.cpp</text>
</a>
</g>
</g>
<!-- Node1&#45;&gt;Node3 -->
<g id="edge2" class="edge">
<title>Node1&#45;&gt;Node3</title>
<path fill="none" stroke="midnightblue" d="M367.31,-535.16C305.17,-527.06 216.92,-514.56 140.22,-500 135.77,-499.15 131.15,-498.21 126.54,-497.21"/>
<polygon fill="midnightblue" stroke="midnightblue" points="367.07,-538.66 377.44,-536.47 367.97,-531.72 367.07,-538.66"/>
</g>
<!-- Node4 -->
<g id="node4" class="node">
<title>Node4</title>
<g id="a_node4"><a xlink:href="_set_squad_path_8cpp.html" target="_top" xlink:title=" ">
<polygon fill="white" stroke="black" points="368.72,-201.5 368.72,-231.5 469.72,-231.5 469.72,-201.5 368.72,-201.5"/>
<text text-anchor="start" x="376.72" y="-219.5" font-family="Helvetica,sans-Serif" font-size="10.00">src/engine/actions</text>
<text text-anchor="middle" x="419.22" y="-208.5" font-family="Helvetica,sans-Serif" font-size="10.00">/SetSquadPath.cpp</text>
</a>
</g>
</g>
<!-- Node1&#45;&gt;Node4 -->
<g id="edge3" class="edge">
<title>Node1&#45;&gt;Node4</title>
<path fill="none" stroke="midnightblue" d="M458.64,-527.44C463.2,-519.42 467.91,-509.58 470.22,-500 473.44,-486.6 471.6,-482.71 470.22,-469 461.01,-377.24 433.35,-269.44 423.1,-231.53"/>
<polygon fill="midnightblue" stroke="midnightblue" points="455.53,-525.83 453.32,-536.19 461.51,-529.46 455.53,-525.83"/>
</g>
<!-- Node5 -->
<g id="node5" class="node">
<title>Node5</title>
<g id="a_node5"><a xlink:href="game_controller_8cpp.html" target="_top" xlink:title=" ">
<polygon fill="white" stroke="black" points="182.22,-475 182.22,-494 330.22,-494 330.22,-475 182.22,-475"/>
<text text-anchor="middle" x="256.22" y="-482" font-family="Helvetica,sans-Serif" font-size="10.00">src/engine/gameController.cpp</text>
</a>
</g>
</g>
<!-- Node1&#45;&gt;Node5 -->
<g id="edge4" class="edge">
<title>Node1&#45;&gt;Node5</title>
<path fill="none" stroke="midnightblue" d="M409.92,-533.38C372.79,-521.82 316.7,-504.34 283.53,-494.01"/>
<polygon fill="midnightblue" stroke="midnightblue" points="409.26,-536.84 419.85,-536.48 411.35,-530.16 409.26,-536.84"/>
</g>
<!-- Node6 -->
<g id="node6" class="node">
<title>Node6</title>
<g id="a_node6"><a xlink:href="_logger_8cpp.html" target="_top" xlink:title=" ">
<polygon fill="white" stroke="black" points="348.72,-475 348.72,-494 461.72,-494 461.72,-475 348.72,-475"/>
<text text-anchor="middle" x="405.22" y="-482" font-family="Helvetica,sans-Serif" font-size="10.00">src/engine/Logger.cpp</text>
</a>
</g>
</g>
<!-- Node1&#45;&gt;Node6 -->
<g id="edge5" class="edge">
<title>Node1&#45;&gt;Node6</title>
<path fill="none" stroke="midnightblue" d="M435.22,-528.01C427.38,-516.89 417.46,-502.84 411.23,-494.01"/>
<polygon fill="midnightblue" stroke="midnightblue" points="432.58,-530.32 441.2,-536.48 438.29,-526.29 432.58,-530.32"/>
</g>
<!-- Node7 -->
<g id="node7" class="node">
<title>Node7</title>
<g id="a_node7"><a xlink:href="_squad_8cpp.html" target="_top" xlink:title=" ">
<polygon fill="white" stroke="black" points="1899.22,-67.5 1899.22,-97.5 2013.22,-97.5 2013.22,-67.5 1899.22,-67.5"/>
<text text-anchor="start" x="1907.22" y="-85.5" font-family="Helvetica,sans-Serif" font-size="10.00">src/GameLogic/Squad</text>
<text text-anchor="middle" x="1956.22" y="-74.5" font-family="Helvetica,sans-Serif" font-size="10.00">/Squad.cpp</text>
</a>
</g>
</g>
<!-- Node1&#45;&gt;Node7 -->
<g id="edge6" class="edge">
<title>Node1&#45;&gt;Node7</title>
<path fill="none" stroke="midnightblue" d="M535.08,-545.74C723.3,-546.37 1179.16,-542.88 1558.22,-500 1754.1,-477.84 1994.22,-615.63 1994.22,-418.5 1994.22,-418.5 1994.22,-418.5 1994.22,-215.5 1994.22,-171.14 1974.16,-121.56 1963.19,-97.76"/>
<polygon fill="midnightblue" stroke="midnightblue" points="534.98,-542.24 524.96,-545.7 534.95,-549.24 534.98,-542.24"/>
</g>
<!-- Node8 -->
<g id="node8" class="node">
<title>Node8</title>
<g id="a_node8"><a xlink:href="main_8cpp.html" target="_top" xlink:title=" ">
<polygon fill="white" stroke="black" points="171.22,-73 171.22,-92 243.22,-92 243.22,-73 171.22,-73"/>
<text text-anchor="middle" x="207.22" y="-80" font-family="Helvetica,sans-Serif" font-size="10.00">src/main.cpp</text>
</a>
</g>
</g>
<!-- Node1&#45;&gt;Node8 -->
<g id="edge7" class="edge">
<title>Node1&#45;&gt;Node8</title>
<path fill="none" stroke="midnightblue" d="M359.22,-541.1C241.89,-535.08 46,-521.89 21.22,-500 -6.66,-475.38 2.22,-455.69 2.22,-418.5 2.22,-418.5 2.22,-418.5 2.22,-215.5 2.22,-136.13 112.19,-102.21 171.04,-89.75"/>
<polygon fill="midnightblue" stroke="midnightblue" points="359.11,-544.6 369.28,-541.6 359.47,-537.6 359.11,-544.6"/>
</g>
<!-- Node9 -->
<g id="node9" class="node">
<title>Node9</title>
<g id="a_node9"><a xlink:href="cellgen_8cpp.html" target="_top" xlink:title=" ">
<polygon fill="white" stroke="black" points="750.22,-475 750.22,-494 848.22,-494 848.22,-475 750.22,-475"/>
<text text-anchor="middle" x="799.22" y="-482" font-family="Helvetica,sans-Serif" font-size="10.00">src/util/cellgen.cpp</text>
</a>
</g>
</g>
<!-- Node1&#45;&gt;Node9 -->
<g id="edge8" class="edge">
<title>Node1&#45;&gt;Node9</title>
<path fill="none" stroke="midnightblue" d="M524.74,-535.14C584.22,-527.09 668.24,-514.67 741.22,-500 749.77,-498.28 758.95,-496.13 767.43,-494.01"/>
<polygon fill="midnightblue" stroke="midnightblue" points="524.12,-531.69 514.67,-536.49 525.05,-538.63 524.12,-531.69"/>
</g>
<!-- Node10 -->
<g id="node10" class="node">
<title>Node10</title>
<g id="a_node10"><a xlink:href="pathfinding_8cpp.html" target="_top" xlink:title=" ">
<polygon fill="white" stroke="black" points="1852.72,-207 1852.72,-226 1965.72,-226 1965.72,-207 1852.72,-207"/>
<text text-anchor="middle" x="1909.22" y="-214" font-family="Helvetica,sans-Serif" font-size="10.00">src/util/pathfinding.cpp</text>
</a>
</g>
</g>
<!-- Node1&#45;&gt;Node10 -->
<g id="edge9" class="edge">
<title>Node1&#45;&gt;Node10</title>
<path fill="none" stroke="midnightblue" d="M534.95,-542.02C850.21,-530.74 1907.22,-487.77 1907.22,-418.5 1907.22,-418.5 1907.22,-418.5 1907.22,-349.5 1907.22,-302.97 1908.48,-247.23 1909,-226.15"/>
<polygon fill="midnightblue" stroke="midnightblue" points="534.81,-538.52 524.94,-542.38 535.06,-545.52 534.81,-538.52"/>
</g>
<!-- Node11 -->
<g id="node11" class="node">
<title>Node11</title>
<g id="a_node11"><a xlink:href="_cell_8h.html" target="_top" xlink:title=" ">
<polygon fill="white" stroke="black" points="604.22,-475 604.22,-494 732.22,-494 732.22,-475 604.22,-475"/>
<text text-anchor="middle" x="668.22" y="-482" font-family="Helvetica,sans-Serif" font-size="10.00">include/GameLogic/Cell.h</text>
</a>
</g>
</g>
<!-- Node1&#45;&gt;Node11 -->
<g id="edge10" class="edge">
<title>Node1&#45;&gt;Node11</title>
<path fill="none" stroke="midnightblue" d="M488.74,-533.82C531.67,-522.26 597.75,-504.47 636.61,-494.01"/>
<polygon fill="midnightblue" stroke="midnightblue" points="487.63,-530.5 478.88,-536.48 489.45,-537.25 487.63,-530.5"/>
</g>
<!-- Node11&#45;&gt;Node8 -->
<g id="edge12" class="edge">
<title>Node11&#45;&gt;Node8</title>
<path fill="none" stroke="midnightblue" d="M593.81,-477.64C463.39,-465.29 207.22,-430.93 207.22,-351.5 207.22,-351.5 207.22,-351.5 207.22,-215.5 207.22,-168.98 207.22,-113.24 207.22,-92.15"/>
<polygon fill="midnightblue" stroke="midnightblue" points="593.84,-481.15 604.12,-478.59 594.48,-474.18 593.84,-481.15"/>
</g>
<!-- Node12 -->
<g id="node12" class="node">
<title>Node12</title>
<g id="a_node12"><a xlink:href="_cell_8cpp.html" target="_top" xlink:title=" ">
<polygon fill="white" stroke="black" points="790.72,-408 790.72,-427 911.72,-427 911.72,-408 790.72,-408"/>
<text text-anchor="middle" x="851.22" y="-415" font-family="Helvetica,sans-Serif" font-size="10.00">src/GameLogic/Cell.cpp</text>
</a>
</g>
</g>
<!-- Node11&#45;&gt;Node12 -->
<g id="edge11" class="edge">
<title>Node11&#45;&gt;Node12</title>
<path fill="none" stroke="midnightblue" d="M702.18,-471.44C738.49,-458.54 795.12,-438.42 827.11,-427.06"/>
<polygon fill="midnightblue" stroke="midnightblue" points="700.77,-468.22 692.52,-474.87 703.11,-474.82 700.77,-468.22"/>
</g>
<!-- Node13 -->
<g id="node13" class="node">
<title>Node13</title>
<g id="a_node13"><a xlink:href="_set_squad_path_8h.html" target="_top" xlink:title=" ">
<polygon fill="white" stroke="black" points="526.72,-268.5 526.72,-298.5 639.72,-298.5 639.72,-268.5 526.72,-268.5"/>
<text text-anchor="start" x="534.72" y="-286.5" font-family="Helvetica,sans-Serif" font-size="10.00">include/engine/actions</text>
<text text-anchor="middle" x="583.22" y="-275.5" font-family="Helvetica,sans-Serif" font-size="10.00">/SetSquadPath.h</text>
</a>
</g>
</g>
<!-- Node11&#45;&gt;Node13 -->
<g id="edge13" class="edge">
<title>Node11&#45;&gt;Node13</title>
<path fill="none" stroke="midnightblue" d="M656.77,-466.11C636.42,-427.26 596.71,-334.02 585.54,-298.53"/>
<polygon fill="midnightblue" stroke="midnightblue" points="653.74,-467.86 661.61,-474.95 659.88,-464.5 653.74,-467.86"/>
</g>
<!-- Node14 -->
<g id="node14" class="node">
<title>Node14</title>
<g id="a_node14"><a xlink:href="_game_logic_2_squad_2_action_8h.html" target="_top" xlink:title=" ">
<polygon fill="white" stroke="black" points="1366.72,-402.5 1366.72,-432.5 1497.72,-432.5 1497.72,-402.5 1366.72,-402.5"/>
<text text-anchor="start" x="1374.72" y="-420.5" font-family="Helvetica,sans-Serif" font-size="10.00">include/GameLogic/Squad</text>
<text text-anchor="middle" x="1432.22" y="-409.5" font-family="Helvetica,sans-Serif" font-size="10.00">/Action.h</text>
</a>
</g>
</g>
<!-- Node11&#45;&gt;Node14 -->
<g id="edge17" class="edge">
<title>Node11&#45;&gt;Node14</title>
<path fill="none" stroke="midnightblue" d="M716.55,-473.03C724.75,-471.5 733.21,-470.08 741.22,-469 969.78,-438.07 1243.62,-425.14 1366.68,-420.6"/>
<polygon fill="midnightblue" stroke="midnightblue" points="715.87,-469.6 706.71,-474.93 717.2,-476.47 715.87,-469.6"/>
</g>
<!-- Node16 -->
<g id="node16" class="node">
<title>Node16</title>
<g id="a_node16"><a xlink:href="_squad_8h.html" target="_top" xlink:title=" ">
<polygon fill="white" stroke="black" points="1366.72,-335.5 1366.72,-365.5 1497.72,-365.5 1497.72,-335.5 1366.72,-335.5"/>
<text text-anchor="start" x="1374.72" y="-353.5" font-family="Helvetica,sans-Serif" font-size="10.00">include/GameLogic/Squad</text>
<text text-anchor="middle" x="1432.22" y="-342.5" font-family="Helvetica,sans-Serif" font-size="10.00">/Squad.h</text>
</a>
</g>
</g>
<!-- Node11&#45;&gt;Node16 -->
<g id="edge72" class="edge">
<title>Node11&#45;&gt;Node16</title>
<path fill="none" stroke="midnightblue" d="M678.41,-467.13C696.51,-447.72 734.19,-416.21 773.22,-402 880.44,-362.97 1221.97,-354.09 1366.61,-352.08"/>
<polygon fill="midnightblue" stroke="midnightblue" points="675.62,-465 671.73,-474.86 680.92,-469.59 675.62,-465"/>
</g>
<!-- Node26 -->
<g id="node26" class="node">
<title>Node26</title>
<g id="a_node26"><a xlink:href="_factory_8h.html" target="_top" xlink:title=" ">
<polygon fill="white" stroke="black" points="696.72,-201.5 696.72,-231.5 823.72,-231.5 823.72,-201.5 696.72,-201.5"/>
<text text-anchor="start" x="704.72" y="-219.5" font-family="Helvetica,sans-Serif" font-size="10.00">include/GameLogic/Units</text>
<text text-anchor="middle" x="760.22" y="-208.5" font-family="Helvetica,sans-Serif" font-size="10.00">/Factory.h</text>
</a>
</g>
</g>
<!-- Node11&#45;&gt;Node26 -->
<g id="edge73" class="edge">
<title>Node11&#45;&gt;Node26</title>
<path fill="none" stroke="midnightblue" d="M674.45,-465.48C691.7,-415.6 739.86,-276.38 755.35,-231.58"/>
<polygon fill="midnightblue" stroke="midnightblue" points="671.14,-464.36 671.18,-474.95 677.75,-466.64 671.14,-464.36"/>
</g>
<!-- Node44 -->
<g id="node44" class="node">
<title>Node44</title>
<g id="a_node44"><a xlink:href="pathfinding_8h.html" target="_top" xlink:title=" ">
<polygon fill="white" stroke="black" points="1758.22,-274 1758.22,-293 1878.22,-293 1878.22,-274 1758.22,-274"/>
<text text-anchor="middle" x="1818.22" y="-281" font-family="Helvetica,sans-Serif" font-size="10.00">include/util/pathfinding.h</text>
</a>
</g>
</g>
<!-- Node11&#45;&gt;Node44 -->
<g id="edge74" class="edge">
<title>Node11&#45;&gt;Node44</title>
<path fill="none" stroke="midnightblue" d="M715.41,-473.06C723.96,-471.47 732.83,-470.02 741.22,-469 910.37,-448.34 1341.95,-474.54 1507.22,-433 1630.82,-401.94 1764.04,-319.76 1805.31,-293.03"/>
<polygon fill="midnightblue" stroke="midnightblue" points="714.71,-469.63 705.56,-474.97 716.04,-476.5 714.71,-469.63"/>
</g>
<!-- Node13&#45;&gt;Node2 -->
<g id="edge14" class="edge">
<title>Node13&#45;&gt;Node2</title>
<path fill="none" stroke="midnightblue" d="M516.54,-273.06C425.51,-260.17 264.01,-237.3 179.4,-225.31"/>
<polygon fill="midnightblue" stroke="midnightblue" points="516.08,-276.53 526.48,-274.46 517.07,-269.6 516.08,-276.53"/>
</g>
<!-- Node13&#45;&gt;Node4 -->
<g id="edge15" class="edge">
<title>Node13&#45;&gt;Node4</title>
<path fill="none" stroke="midnightblue" d="M538.26,-264.68C511.96,-254.26 479.22,-241.28 454.74,-231.58"/>
<polygon fill="midnightblue" stroke="midnightblue" points="537.05,-267.97 547.63,-268.4 539.63,-261.46 537.05,-267.97"/>
</g>
<!-- Node13&#45;&gt;Node11 -->
<g id="edge16" class="edge">
<title>Node13&#45;&gt;Node11</title>
<path fill="none" stroke="midnightblue" d="M597.62,-307.63C619.89,-351.75 659.67,-446.11 667.52,-474.95"/>
<polygon fill="midnightblue" stroke="midnightblue" points="600.6,-305.79 592.88,-298.53 594.39,-309.02 600.6,-305.79"/>
</g>
<!-- Node15 -->
<g id="node15" class="node">
<title>Node15</title>
<g id="a_node15"><a xlink:href="_game_logic_2_squad_2_action_8cpp.html" target="_top" xlink:title=" ">
<polygon fill="white" stroke="black" points="1720.22,-201.5 1720.22,-231.5 1834.22,-231.5 1834.22,-201.5 1720.22,-201.5"/>
<text text-anchor="start" x="1728.22" y="-219.5" font-family="Helvetica,sans-Serif" font-size="10.00">src/GameLogic/Squad</text>
<text text-anchor="middle" x="1777.22" y="-208.5" font-family="Helvetica,sans-Serif" font-size="10.00">/Action.cpp</text>
</a>
</g>
</g>
<!-- Node14&#45;&gt;Node15 -->
<g id="edge18" class="edge">
<title>Node14&#45;&gt;Node15</title>
<path fill="none" stroke="midnightblue" d="M1492.24,-399.4C1550.59,-380.87 1639.88,-347.33 1706.22,-299 1732.46,-279.88 1755.66,-249.38 1767.94,-231.62"/>
<polygon fill="midnightblue" stroke="midnightblue" points="1490.94,-396.14 1482.43,-402.46 1493.02,-402.82 1490.94,-396.14"/>
</g>
<!-- Node14&#45;&gt;Node16 -->
<g id="edge19" class="edge">
<title>Node14&#45;&gt;Node16</title>
<path fill="none" stroke="midnightblue" d="M1425.67,-392.4C1425.22,-383.37 1425.51,-373.41 1426.54,-365.58"/>
<polygon fill="midnightblue" stroke="midnightblue" points="1422.19,-392.74 1426.54,-402.4 1429.16,-392.13 1422.19,-392.74"/>
</g>
<!-- Node16&#45;&gt;Node7 -->
<g id="edge20" class="edge">
<title>Node16&#45;&gt;Node7</title>
<path fill="none" stroke="midnightblue" d="M1474.88,-331.38C1523.53,-310.05 1604.78,-272.39 1670.22,-232 1689.66,-220 1690.2,-209.95 1711.22,-201 1804.79,-161.14 1862.79,-234.32 1937.22,-165 1955.82,-147.67 1957.87,-115.95 1957.3,-97.61"/>
<polygon fill="midnightblue" stroke="midnightblue" points="1473.37,-328.22 1465.6,-335.42 1476.17,-334.64 1473.37,-328.22"/>
</g>
<!-- Node16&#45;&gt;Node11 -->
<g id="edge22" class="edge">
<title>Node16&#45;&gt;Node11</title>
<path fill="none" stroke="midnightblue" d="M1356.44,-352.4C1209.95,-354.95 893.66,-364.71 791.22,-402 746.41,-418.31 703.39,-457.42 681.65,-474.86"/>
<polygon fill="midnightblue" stroke="midnightblue" points="1356.75,-355.89 1366.69,-352.23 1356.63,-348.89 1356.75,-355.89"/>
</g>
<!-- Node16&#45;&gt;Node13 -->
<g id="edge21" class="edge">
<title>Node16&#45;&gt;Node13</title>
<path fill="none" stroke="midnightblue" d="M1356.67,-343.72C1188.87,-330.87 788.26,-300.2 639.82,-288.83"/>
<polygon fill="midnightblue" stroke="midnightblue" points="1356.42,-347.21 1366.66,-344.48 1356.95,-340.23 1356.42,-347.21"/>
</g>
<!-- Node16&#45;&gt;Node14 -->
<g id="edge23" class="edge">
<title>Node16&#45;&gt;Node14</title>
<path fill="none" stroke="midnightblue" d="M1438.76,-375.57C1439.21,-384.6 1438.93,-394.56 1437.9,-402.4"/>
<polygon fill="midnightblue" stroke="midnightblue" points="1442.25,-375.24 1437.89,-365.58 1435.27,-375.84 1442.25,-375.24"/>
</g>
<!-- Node17 -->
<g id="node17" class="node">
<title>Node17</title>
<g id="a_node17"><a xlink:href="_unit_8h.html" target="_top" xlink:title=" ">
<polygon fill="white" stroke="black" points="1368.72,-268.5 1368.72,-298.5 1495.72,-298.5 1495.72,-268.5 1368.72,-268.5"/>
<text text-anchor="start" x="1376.72" y="-286.5" font-family="Helvetica,sans-Serif" font-size="10.00">include/GameLogic/Units</text>
<text text-anchor="middle" x="1432.22" y="-275.5" font-family="Helvetica,sans-Serif" font-size="10.00">/Unit.h</text>
</a>
</g>
</g>
<!-- Node16&#45;&gt;Node17 -->
<g id="edge24" class="edge">
<title>Node16&#45;&gt;Node17</title>
<path fill="none" stroke="midnightblue" d="M1425.67,-325.4C1425.22,-316.37 1425.51,-306.41 1426.54,-298.58"/>
<polygon fill="midnightblue" stroke="midnightblue" points="1422.19,-325.74 1426.54,-335.4 1429.16,-325.13 1422.19,-325.74"/>
</g>
<!-- Node16&#45;&gt;Node44 -->
<g id="edge69" class="edge">
<title>Node16&#45;&gt;Node44</title>
<path fill="none" stroke="midnightblue" d="M1508.23,-336.7C1585.03,-323.77 1701.51,-304.15 1767.66,-293.01"/>
<polygon fill="midnightblue" stroke="midnightblue" points="1507.42,-333.29 1498.14,-338.4 1508.58,-340.19 1507.42,-333.29"/>
</g>
<!-- Node17&#45;&gt;Node16 -->
<g id="edge26" class="edge">
<title>Node17&#45;&gt;Node16</title>
<path fill="none" stroke="midnightblue" d="M1438.76,-308.57C1439.21,-317.6 1438.93,-327.56 1437.9,-335.4"/>
<polygon fill="midnightblue" stroke="midnightblue" points="1442.25,-308.24 1437.89,-298.58 1435.27,-308.84 1442.25,-308.24"/>
</g>
<!-- Node18 -->
<g id="node18" class="node">
<title>Node18</title>
<g id="a_node18"><a xlink:href="_unit_8cpp.html" target="_top" xlink:title=" ">
<polygon fill="white" stroke="black" points="1818.22,-134.5 1818.22,-164.5 1928.22,-164.5 1928.22,-134.5 1818.22,-134.5"/>
<text text-anchor="start" x="1826.22" y="-152.5" font-family="Helvetica,sans-Serif" font-size="10.00">src/GameLogic/Units</text>
<text text-anchor="middle" x="1873.22" y="-141.5" font-family="Helvetica,sans-Serif" font-size="10.00">/Unit.cpp</text>
</a>
</g>
</g>
<!-- Node17&#45;&gt;Node18 -->
<g id="edge25" class="edge">
<title>Node17&#45;&gt;Node18</title>
<path fill="none" stroke="midnightblue" d="M1505.9,-271.18C1545.47,-263.38 1594.37,-250.94 1635.22,-232 1656.59,-222.09 1656.89,-211.01 1678.22,-201 1690.96,-195.02 1764.8,-176.59 1817.85,-163.73"/>
<polygon fill="midnightblue" stroke="midnightblue" points="1505.21,-267.74 1496.05,-273.06 1506.53,-274.62 1505.21,-267.74"/>
</g>
<!-- Node19 -->
<g id="node19" class="node">
<title>Node19</title>
<g id="a_node19"><a xlink:href="_squad_order_8h.html" target="_top" xlink:title=" ">
<polygon fill="white" stroke="black" points="1540.72,-134.5 1540.72,-164.5 1671.72,-164.5 1671.72,-134.5 1540.72,-134.5"/>
<text text-anchor="start" x="1548.72" y="-152.5" font-family="Helvetica,sans-Serif" font-size="10.00">include/GameLogic/Squad</text>
<text text-anchor="middle" x="1606.22" y="-141.5" font-family="Helvetica,sans-Serif" font-size="10.00">/SquadOrder.h</text>
</a>
</g>
</g>
<!-- Node17&#45;&gt;Node19 -->
<g id="edge27" class="edge">
<title>Node17&#45;&gt;Node19</title>
<path fill="none" stroke="midnightblue" d="M1444.24,-259.12C1454.44,-241.22 1470.53,-216.97 1490.22,-201 1510.26,-184.74 1536.35,-172.77 1558.7,-164.57"/>
<polygon fill="midnightblue" stroke="midnightblue" points="1440.94,-257.87 1439.2,-268.32 1447.07,-261.24 1440.94,-257.87"/>
</g>
<!-- Node21 -->
<g id="node21" class="node">
<title>Node21</title>
<g id="a_node21"><a xlink:href="_armored_unit_8h.html" target="_top" xlink:title=" ">
<polygon fill="white" stroke="black" points="1395.72,-134.5 1395.72,-164.5 1522.72,-164.5 1522.72,-134.5 1395.72,-134.5"/>
<text text-anchor="start" x="1403.72" y="-152.5" font-family="Helvetica,sans-Serif" font-size="10.00">include/GameLogic/Units</text>
<text text-anchor="middle" x="1459.22" y="-141.5" font-family="Helvetica,sans-Serif" font-size="10.00">/ArmoredUnit.h</text>
</a>
</g>
</g>
<!-- Node17&#45;&gt;Node21 -->
<g id="edge29" class="edge">
<title>Node17&#45;&gt;Node21</title>
<path fill="none" stroke="midnightblue" d="M1437.15,-258.39C1442.77,-230.9 1451.78,-186.89 1456.35,-164.52"/>
<polygon fill="midnightblue" stroke="midnightblue" points="1433.68,-257.88 1435.11,-268.37 1440.54,-259.28 1433.68,-257.88"/>
</g>
<!-- Node17&#45;&gt;Node26 -->
<g id="edge34" class="edge">
<title>Node17&#45;&gt;Node26</title>
<path fill="none" stroke="midnightblue" d="M1358.64,-275.38C1226.09,-262.56 949.37,-235.8 824.18,-223.69"/>
<polygon fill="midnightblue" stroke="midnightblue" points="1358.41,-278.88 1368.7,-276.36 1359.08,-271.91 1358.41,-278.88"/>
</g>
<!-- Node38 -->
<g id="node38" class="node">
<title>Node38</title>
<g id="a_node38"><a xlink:href="_land_unit_8h.html" target="_top" xlink:title=" ">
<polygon fill="white" stroke="black" points="1130.72,-201.5 1130.72,-231.5 1257.72,-231.5 1257.72,-201.5 1130.72,-201.5"/>
<text text-anchor="start" x="1138.72" y="-219.5" font-family="Helvetica,sans-Serif" font-size="10.00">include/GameLogic/Units</text>
<text text-anchor="middle" x="1194.22" y="-208.5" font-family="Helvetica,sans-Serif" font-size="10.00">/LandUnit.h</text>
</a>
</g>
</g>
<!-- Node17&#45;&gt;Node38 -->
<g id="edge57" class="edge">
<title>Node17&#45;&gt;Node38</title>
<path fill="none" stroke="midnightblue" d="M1370.76,-265.71C1332.03,-255.14 1282.59,-241.63 1245.89,-231.61"/>
<polygon fill="midnightblue" stroke="midnightblue" points="1370.3,-269.22 1380.87,-268.48 1372.15,-262.46 1370.3,-269.22"/>
</g>
<!-- Node40 -->
<g id="node40" class="node">
<title>Node40</title>
<g id="a_node40"><a xlink:href="_transport_unit_8h.html" target="_top" xlink:title=" ">
<polygon fill="white" stroke="black" points="1276.72,-201.5 1276.72,-231.5 1403.72,-231.5 1403.72,-201.5 1276.72,-201.5"/>
<text text-anchor="start" x="1284.72" y="-219.5" font-family="Helvetica,sans-Serif" font-size="10.00">include/GameLogic/Units</text>
<text text-anchor="middle" x="1340.22" y="-208.5" font-family="Helvetica,sans-Serif" font-size="10.00">/TransportUnit.h</text>
</a>
</g>
</g>
<!-- Node17&#45;&gt;Node40 -->
<g id="edge60" class="edge">
<title>Node17&#45;&gt;Node40</title>
<path fill="none" stroke="midnightblue" d="M1403.84,-262.45C1389.69,-252.45 1372.91,-240.6 1360.14,-231.58"/>
<polygon fill="midnightblue" stroke="midnightblue" points="1402.07,-265.48 1412.26,-268.4 1406.11,-259.77 1402.07,-265.48"/>
</g>
<!-- Node42 -->
<g id="node42" class="node">
<title>Node42</title>
<g id="a_node42"><a xlink:href="_unit_order_8h.html" target="_top" xlink:title=" ">
<polygon fill="white" stroke="black" points="1498.72,-201.5 1498.72,-231.5 1625.72,-231.5 1625.72,-201.5 1498.72,-201.5"/>
<text text-anchor="start" x="1506.72" y="-219.5" font-family="Helvetica,sans-Serif" font-size="10.00">include/GameLogic/Units</text>
<text text-anchor="middle" x="1562.22" y="-208.5" font-family="Helvetica,sans-Serif" font-size="10.00">/UnitOrder.h</text>
</a>
</g>
</g>
<!-- Node17&#45;&gt;Node42 -->
<g id="edge64" class="edge">
<title>Node17&#45;&gt;Node42</title>
<path fill="none" stroke="midnightblue" d="M1463.61,-263.71C1483.21,-253.46 1508.34,-240.98 1528.39,-231.58"/>
<polygon fill="midnightblue" stroke="midnightblue" points="1461.95,-260.63 1454.75,-268.4 1465.23,-266.82 1461.95,-260.63"/>
</g>
<!-- Node20 -->
<g id="node20" class="node">
<title>Node20</title>
<g id="a_node20"><a xlink:href="_squad_order_8cpp.html" target="_top" xlink:title=" ">
<polygon fill="white" stroke="black" points="1549.22,-67.5 1549.22,-97.5 1663.22,-97.5 1663.22,-67.5 1549.22,-67.5"/>
<text text-anchor="start" x="1557.22" y="-85.5" font-family="Helvetica,sans-Serif" font-size="10.00">src/GameLogic/Squad</text>
<text text-anchor="middle" x="1606.22" y="-74.5" font-family="Helvetica,sans-Serif" font-size="10.00">/SquadOrder.cpp</text>
</a>
</g>
</g>
<!-- Node19&#45;&gt;Node20 -->
<g id="edge28" class="edge">
<title>Node19&#45;&gt;Node20</title>
<path fill="none" stroke="midnightblue" d="M1606.22,-124.11C1606.22,-115.15 1606.22,-105.32 1606.22,-97.58"/>
<polygon fill="midnightblue" stroke="midnightblue" points="1602.72,-124.4 1606.22,-134.4 1609.72,-124.4 1602.72,-124.4"/>
</g>
<!-- Node22 -->
<g id="node22" class="node">
<title>Node22</title>
<g id="a_node22"><a xlink:href="_armored_unit_8cpp.html" target="_top" xlink:title=" ">
<polygon fill="white" stroke="black" points="1404.22,-67.5 1404.22,-97.5 1514.22,-97.5 1514.22,-67.5 1404.22,-67.5"/>
<text text-anchor="start" x="1412.22" y="-85.5" font-family="Helvetica,sans-Serif" font-size="10.00">src/GameLogic/Units</text>
<text text-anchor="middle" x="1459.22" y="-74.5" font-family="Helvetica,sans-Serif" font-size="10.00">/ArmoredUnit.cpp</text>
</a>
</g>
</g>
<!-- Node21&#45;&gt;Node22 -->
<g id="edge30" class="edge">
<title>Node21&#45;&gt;Node22</title>
<path fill="none" stroke="midnightblue" d="M1459.22,-124.11C1459.22,-115.15 1459.22,-105.32 1459.22,-97.58"/>
<polygon fill="midnightblue" stroke="midnightblue" points="1455.72,-124.4 1459.22,-134.4 1462.72,-124.4 1455.72,-124.4"/>
</g>
<!-- Node23 -->
<g id="node23" class="node">
<title>Node23</title>
<g id="a_node23"><a xlink:href="_armored_unit_factory_8h.html" target="_top" xlink:title=" ">
<polygon fill="white" stroke="black" points="1116.72,-67.5 1116.72,-97.5 1243.72,-97.5 1243.72,-67.5 1116.72,-67.5"/>
<text text-anchor="start" x="1124.72" y="-85.5" font-family="Helvetica,sans-Serif" font-size="10.00">include/GameLogic/Units</text>
<text text-anchor="middle" x="1180.22" y="-74.5" font-family="Helvetica,sans-Serif" font-size="10.00">/ArmoredUnitFactory.h</text>
</a>
</g>
</g>
<!-- Node21&#45;&gt;Node23 -->
<g id="edge31" class="edge">
<title>Node21&#45;&gt;Node23</title>
<path fill="none" stroke="midnightblue" d="M1389.19,-132.19C1343.5,-121.54 1284.45,-107.78 1240.79,-97.61"/>
<polygon fill="midnightblue" stroke="midnightblue" points="1388.49,-135.62 1399.02,-134.48 1390.08,-128.8 1388.49,-135.62"/>
</g>
<!-- Node24 -->
<g id="node24" class="node">
<title>Node24</title>
<g id="a_node24"><a xlink:href="_all_units_8cpp.html" target="_top" xlink:title=" ">
<polygon fill="white" stroke="black" points="803.22,-0.5 803.22,-30.5 913.22,-30.5 913.22,-0.5 803.22,-0.5"/>
<text text-anchor="start" x="811.22" y="-18.5" font-family="Helvetica,sans-Serif" font-size="10.00">src/GameLogic/Units</text>
<text text-anchor="middle" x="858.22" y="-7.5" font-family="Helvetica,sans-Serif" font-size="10.00">/AllUnits.cpp</text>
</a>
</g>
</g>
<!-- Node23&#45;&gt;Node24 -->
<g id="edge32" class="edge">
<title>Node23&#45;&gt;Node24</title>
<path fill="none" stroke="midnightblue" d="M1106.63,-66.65C1047.83,-54.78 966.71,-38.4 913.39,-27.64"/>
<polygon fill="midnightblue" stroke="midnightblue" points="1106.11,-70.11 1116.6,-68.66 1107.49,-63.25 1106.11,-70.11"/>
</g>
<!-- Node25 -->
<g id="node25" class="node">
<title>Node25</title>
<g id="a_node25"><a xlink:href="_armored_unit_factory_8cpp.html" target="_top" xlink:title=" ">
<polygon fill="white" stroke="black" points="1117.72,-0.5 1117.72,-30.5 1242.72,-30.5 1242.72,-0.5 1117.72,-0.5"/>
<text text-anchor="start" x="1125.72" y="-18.5" font-family="Helvetica,sans-Serif" font-size="10.00">src/GameLogic/Units</text>
<text text-anchor="middle" x="1180.22" y="-7.5" font-family="Helvetica,sans-Serif" font-size="10.00">/ArmoredUnitFactory.cpp</text>
</a>
</g>
</g>
<!-- Node23&#45;&gt;Node25 -->
<g id="edge33" class="edge">
<title>Node23&#45;&gt;Node25</title>
<path fill="none" stroke="midnightblue" d="M1180.22,-57.11C1180.22,-48.15 1180.22,-38.32 1180.22,-30.58"/>
<polygon fill="midnightblue" stroke="midnightblue" points="1176.72,-57.4 1180.22,-67.4 1183.72,-57.4 1176.72,-57.4"/>
</g>
<!-- Node26&#45;&gt;Node23 -->
<g id="edge49" class="edge">
<title>Node26&#45;&gt;Node23</title>
<path fill="none" stroke="midnightblue" d="M834.24,-209.34C917.81,-201.49 1047.91,-186.35 1092.22,-165 1100.94,-160.8 1143.44,-119.68 1166.04,-97.51"/>
<polygon fill="midnightblue" stroke="midnightblue" points="833.67,-205.87 824.03,-210.28 834.31,-212.84 833.67,-205.87"/>
</g>
<!-- Node27 -->
<g id="node27" class="node">
<title>Node27</title>
<g id="a_node27"><a xlink:href="_spawn_action_8cpp.html" target="_top" xlink:title=" ">
<polygon fill="white" stroke="black" points="696.22,-134.5 696.22,-164.5 792.22,-164.5 792.22,-134.5 696.22,-134.5"/>
<text text-anchor="start" x="704.22" y="-152.5" font-family="Helvetica,sans-Serif" font-size="10.00">src/engine/actions</text>
<text text-anchor="middle" x="744.22" y="-141.5" font-family="Helvetica,sans-Serif" font-size="10.00">/SpawnAction.cpp</text>
</a>
</g>
</g>
<!-- Node26&#45;&gt;Node27 -->
<g id="edge35" class="edge">
<title>Node26&#45;&gt;Node27</title>
<path fill="none" stroke="midnightblue" d="M754.29,-191.4C752.06,-182.37 749.61,-172.41 747.68,-164.58"/>
<polygon fill="midnightblue" stroke="midnightblue" points="750.96,-192.52 756.75,-201.4 757.76,-190.85 750.96,-192.52"/>
</g>
<!-- Node28 -->
<g id="node28" class="node">
<title>Node28</title>
<g id="a_node28"><a xlink:href="_factory_8cpp.html" target="_top" xlink:title=" ">
<polygon fill="white" stroke="black" points="568.22,-134.5 568.22,-164.5 678.22,-164.5 678.22,-134.5 568.22,-134.5"/>
<text text-anchor="start" x="576.22" y="-152.5" font-family="Helvetica,sans-Serif" font-size="10.00">src/GameLogic/Units</text>
<text text-anchor="middle" x="623.22" y="-141.5" font-family="Helvetica,sans-Serif" font-size="10.00">/Factory.cpp</text>
</a>
</g>
</g>
<!-- Node26&#45;&gt;Node28 -->
<g id="edge36" class="edge">
<title>Node26&#45;&gt;Node28</title>
<path fill="none" stroke="midnightblue" d="M721.21,-196.99C699.49,-186.69 672.89,-174.07 652.89,-164.58"/>
<polygon fill="midnightblue" stroke="midnightblue" points="719.96,-200.27 730.49,-201.4 722.96,-193.95 719.96,-200.27"/>
</g>
<!-- Node29 -->
<g id="node29" class="node">
<title>Node29</title>
<g id="a_node29"><a xlink:href="_squad_template_8h.html" target="_top" xlink:title=" ">
<polygon fill="white" stroke="black" points="273.72,-134.5 273.72,-164.5 404.72,-164.5 404.72,-134.5 273.72,-134.5"/>
<text text-anchor="start" x="281.72" y="-152.5" font-family="Helvetica,sans-Serif" font-size="10.00">include/GameLogic/Squad</text>
<text text-anchor="middle" x="339.22" y="-141.5" font-family="Helvetica,sans-Serif" font-size="10.00">/SquadTemplate.h</text>
</a>
</g>
</g>
<!-- Node26&#45;&gt;Node29 -->
<g id="edge37" class="edge">
<title>Node26&#45;&gt;Node29</title>
<path fill="none" stroke="midnightblue" d="M686.34,-205.82C615.98,-196.34 507.17,-181.03 413.22,-165 410.51,-164.54 407.75,-164.05 404.96,-163.55"/>
<polygon fill="midnightblue" stroke="midnightblue" points="686.06,-209.31 696.43,-207.17 686.99,-202.37 686.06,-209.31"/>
</g>
<!-- Node33 -->
<g id="node33" class="node">
<title>Node33</title>
<g id="a_node33"><a xlink:href="_all_units_8h.html" target="_top" xlink:title=" ">
<polygon fill="white" stroke="black" points="422.72,-134.5 422.72,-164.5 549.72,-164.5 549.72,-134.5 422.72,-134.5"/>
<text text-anchor="start" x="430.72" y="-152.5" font-family="Helvetica,sans-Serif" font-size="10.00">include/GameLogic/Units</text>
<text text-anchor="middle" x="486.22" y="-141.5" font-family="Helvetica,sans-Serif" font-size="10.00">/AllUnits.h</text>
</a>
</g>
</g>
<!-- Node26&#45;&gt;Node33 -->
<g id="edge42" class="edge">
<title>Node26&#45;&gt;Node33</title>
<path fill="none" stroke="midnightblue" d="M691.17,-199.12C646.33,-188.48 588.5,-174.76 545.7,-164.61"/>
<polygon fill="midnightblue" stroke="midnightblue" points="690.56,-202.57 701.1,-201.48 692.18,-195.76 690.56,-202.57"/>
</g>
<!-- Node34 -->
<g id="node34" class="node">
<title>Node34</title>
<g id="a_node34"><a xlink:href="_land_unit_factory_8h.html" target="_top" xlink:title=" ">
<polygon fill="white" stroke="black" points="810.72,-134.5 810.72,-164.5 937.72,-164.5 937.72,-134.5 810.72,-134.5"/>
<text text-anchor="start" x="818.72" y="-152.5" font-family="Helvetica,sans-Serif" font-size="10.00">include/GameLogic/Units</text>
<text text-anchor="middle" x="874.22" y="-141.5" font-family="Helvetica,sans-Serif" font-size="10.00">/LandUnitFactory.h</text>
</a>
</g>
</g>
<!-- Node26&#45;&gt;Node34 -->
<g id="edge50" class="edge">
<title>Node26&#45;&gt;Node34</title>
<path fill="none" stroke="midnightblue" d="M793.9,-196.3C811.74,-186.12 833.26,-173.85 849.53,-164.58"/>
<polygon fill="midnightblue" stroke="midnightblue" points="791.91,-193.4 784.96,-201.4 795.38,-199.48 791.91,-193.4"/>
</g>
<!-- Node36 -->
<g id="node36" class="node">
<title>Node36</title>
<g id="a_node36"><a xlink:href="_transport_unit_factory_8h.html" target="_top" xlink:title=" ">
<polygon fill="white" stroke="black" points="955.72,-134.5 955.72,-164.5 1082.72,-164.5 1082.72,-134.5 955.72,-134.5"/>
<text text-anchor="start" x="963.72" y="-152.5" font-family="Helvetica,sans-Serif" font-size="10.00">include/GameLogic/Units</text>
<text text-anchor="middle" x="1019.22" y="-141.5" font-family="Helvetica,sans-Serif" font-size="10.00">/TransportUnitFactory.h</text>
</a>
</g>
</g>
<!-- Node26&#45;&gt;Node36 -->
<g id="edge53" class="edge">
<title>Node26&#45;&gt;Node36</title>
<path fill="none" stroke="midnightblue" d="M826.03,-198.98C868.33,-188.37 922.71,-174.72 962.99,-164.61"/>
<polygon fill="midnightblue" stroke="midnightblue" points="824.95,-195.65 816.1,-201.48 826.65,-202.44 824.95,-195.65"/>
</g>
<!-- Node30 -->
<g id="node30" class="node">
<title>Node30</title>
<g id="a_node30"><a xlink:href="_squad_template_8cpp.html" target="_top" xlink:title=" ">
<polygon fill="white" stroke="black" points="426.22,-67.5 426.22,-97.5 540.22,-97.5 540.22,-67.5 426.22,-67.5"/>
<text text-anchor="start" x="434.22" y="-85.5" font-family="Helvetica,sans-Serif" font-size="10.00">src/GameLogic/Squad</text>
<text text-anchor="middle" x="483.22" y="-74.5" font-family="Helvetica,sans-Serif" font-size="10.00">/SquadTemplate.cpp</text>
</a>
</g>
</g>
<!-- Node29&#45;&gt;Node30 -->
<g id="edge38" class="edge">
<title>Node29&#45;&gt;Node30</title>
<path fill="none" stroke="midnightblue" d="M379.61,-130.27C402.54,-119.92 430.82,-107.15 452.03,-97.58"/>
<polygon fill="midnightblue" stroke="midnightblue" points="378.14,-127.09 370.46,-134.4 381.02,-133.47 378.14,-127.09"/>
</g>
<!-- Node31 -->
<g id="node31" class="node">
<title>Node31</title>
<g id="a_node31"><a xlink:href="_all_squad_templates_8h.html" target="_top" xlink:title=" ">
<polygon fill="white" stroke="black" points="273.72,-67.5 273.72,-97.5 404.72,-97.5 404.72,-67.5 273.72,-67.5"/>
<text text-anchor="start" x="281.72" y="-85.5" font-family="Helvetica,sans-Serif" font-size="10.00">include/GameLogic/Squad</text>
<text text-anchor="middle" x="339.22" y="-74.5" font-family="Helvetica,sans-Serif" font-size="10.00">/AllSquadTemplates.h</text>
</a>
</g>
</g>
<!-- Node29&#45;&gt;Node31 -->
<g id="edge39" class="edge">
<title>Node29&#45;&gt;Node31</title>
<path fill="none" stroke="midnightblue" d="M339.22,-124.11C339.22,-115.15 339.22,-105.32 339.22,-97.58"/>
<polygon fill="midnightblue" stroke="midnightblue" points="335.72,-124.4 339.22,-134.4 342.72,-124.4 335.72,-124.4"/>
</g>
<!-- Node31&#45;&gt;Node11 -->
<g id="edge41" class="edge">
<title>Node31&#45;&gt;Node11</title>
<path fill="none" stroke="midnightblue" d="M301.6,-102.59C274.46,-118.85 245.62,-143.01 264.22,-165 326.5,-238.64 407.54,-135.37 478.22,-201 505.55,-226.38 498.22,-245.2 498.22,-282.5 498.22,-351.5 498.22,-351.5 498.22,-351.5 498.22,-421 587.96,-459.19 637.04,-474.88"/>
<polygon fill="midnightblue" stroke="midnightblue" points="303.36,-105.62 310.28,-97.6 299.87,-99.55 303.36,-105.62"/>
</g>
<!-- Node32 -->
<g id="node32" class="node">
<title>Node32</title>
<g id="a_node32"><a xlink:href="_all_squad_templates_8cpp.html" target="_top" xlink:title=" ">
<polygon fill="white" stroke="black" points="278.22,-0.5 278.22,-30.5 400.22,-30.5 400.22,-0.5 278.22,-0.5"/>
<text text-anchor="start" x="286.22" y="-18.5" font-family="Helvetica,sans-Serif" font-size="10.00">src/GameLogic/Squad</text>
<text text-anchor="middle" x="339.22" y="-7.5" font-family="Helvetica,sans-Serif" font-size="10.00">/AllSquadTemplates.cpp</text>
</a>
</g>
</g>
<!-- Node31&#45;&gt;Node32 -->
<g id="edge40" class="edge">
<title>Node31&#45;&gt;Node32</title>
<path fill="none" stroke="midnightblue" d="M339.22,-57.11C339.22,-48.15 339.22,-38.32 339.22,-30.58"/>
<polygon fill="midnightblue" stroke="midnightblue" points="335.72,-57.4 339.22,-67.4 342.72,-57.4 335.72,-57.4"/>
</g>
<!-- Node33&#45;&gt;Node7 -->
<g id="edge43" class="edge">
<title>Node33&#45;&gt;Node7</title>
<path fill="none" stroke="midnightblue" d="M560.05,-134.06C1052.67,-78.16 1181.1,-118.48 1672.22,-98 1750.9,-94.72 1841.78,-89.9 1899.12,-86.73"/>
<polygon fill="midnightblue" stroke="midnightblue" points="559.36,-130.62 549.82,-135.23 560.16,-137.57 559.36,-130.62"/>
</g>
<!-- Node33&#45;&gt;Node8 -->
<g id="edge46" class="edge">
<title>Node33&#45;&gt;Node8</title>
<path fill="none" stroke="midnightblue" d="M412.61,-132.25C369.33,-122.57 313.59,-109.89 264.22,-98 256.38,-96.11 247.95,-94.01 240.04,-92"/>
<polygon fill="midnightblue" stroke="midnightblue" points="411.96,-135.69 422.48,-134.45 413.49,-128.86 411.96,-135.69"/>
</g>
<!-- Node33&#45;&gt;Node11 -->
<g id="edge47" class="edge">
<title>Node33&#45;&gt;Node11</title>
<path fill="none" stroke="midnightblue" d="M549.47,-167.9C602.02,-186.65 668.22,-222.24 668.22,-282.5 668.22,-351.5 668.22,-351.5 668.22,-351.5 668.22,-398.02 668.22,-453.76 668.22,-474.85"/>
<polygon fill="midnightblue" stroke="midnightblue" points="550.44,-164.53 539.84,-164.59 548.16,-171.15 550.44,-164.53"/>
</g>
<!-- Node33&#45;&gt;Node24 -->
<g id="edge45" class="edge">
<title>Node33&#45;&gt;Node24</title>
<path fill="none" stroke="midnightblue" d="M535.31,-131.08C609.85,-104.63 750.14,-54.85 818.61,-30.56"/>
<polygon fill="midnightblue" stroke="midnightblue" points="533.93,-127.86 525.68,-134.5 536.27,-134.45 533.93,-127.86"/>
</g>
<!-- Node33&#45;&gt;Node30 -->
<g id="edge44" class="edge">
<title>Node33&#45;&gt;Node30</title>
<path fill="none" stroke="midnightblue" d="M485.11,-124.4C484.69,-115.37 484.23,-105.41 483.87,-97.58"/>
<polygon fill="midnightblue" stroke="midnightblue" points="481.61,-124.57 485.57,-134.4 488.6,-124.25 481.61,-124.57"/>
</g>
<!-- Node33&#45;&gt;Node31 -->
<g id="edge48" class="edge">
<title>Node33&#45;&gt;Node31</title>
<path fill="none" stroke="midnightblue" d="M444.99,-130.27C421.57,-119.92 392.71,-107.15 371.05,-97.58"/>
<polygon fill="midnightblue" stroke="midnightblue" points="443.76,-133.55 454.32,-134.4 446.59,-127.15 443.76,-133.55"/>
</g>
<!-- Node34&#45;&gt;Node24 -->
<g id="edge51" class="edge">
<title>Node34&#45;&gt;Node24</title>
<path fill="none" stroke="midnightblue" d="M827.38,-129.53C814.29,-121.8 801.63,-111.44 794.22,-98 787.57,-85.93 788.21,-79.4 794.22,-67 801.81,-51.33 816.88,-39.06 830.49,-30.54"/>
<polygon fill="midnightblue" stroke="midnightblue" points="825.99,-132.76 836.45,-134.47 829.34,-126.61 825.99,-132.76"/>
</g>
<!-- Node35 -->
<g id="node35" class="node">
<title>Node35</title>
<g id="a_node35"><a xlink:href="_land_unit_factory_8cpp.html" target="_top" xlink:title=" ">
<polygon fill="white" stroke="black" points="803.22,-67.5 803.22,-97.5 913.22,-97.5 913.22,-67.5 803.22,-67.5"/>
<text text-anchor="start" x="811.22" y="-85.5" font-family="Helvetica,sans-Serif" font-size="10.00">src/GameLogic/Units</text>
<text text-anchor="middle" x="858.22" y="-74.5" font-family="Helvetica,sans-Serif" font-size="10.00">/LandUnitFactory.cpp</text>
</a>
</g>
</g>
<!-- Node34&#45;&gt;Node35 -->
<g id="edge52" class="edge">
<title>Node34&#45;&gt;Node35</title>
<path fill="none" stroke="midnightblue" d="M868.29,-124.4C866.06,-115.37 863.61,-105.41 861.68,-97.58"/>
<polygon fill="midnightblue" stroke="midnightblue" points="864.96,-125.52 870.75,-134.4 871.76,-123.85 864.96,-125.52"/>
</g>
<!-- Node36&#45;&gt;Node23 -->
<g id="edge56" class="edge">
<title>Node36&#45;&gt;Node23</title>
<path fill="none" stroke="midnightblue" d="M1063.69,-130.54C1089.46,-120.14 1121.42,-107.24 1145.35,-97.58"/>
<polygon fill="midnightblue" stroke="midnightblue" points="1062.12,-127.41 1054.15,-134.4 1064.74,-133.9 1062.12,-127.41"/>
</g>
<!-- Node36&#45;&gt;Node24 -->
<g id="edge54" class="edge">
<title>Node36&#45;&gt;Node24</title>
<path fill="none" stroke="midnightblue" d="M994.72,-127.56C975.22,-110.97 947.14,-87.29 922.22,-67 906.85,-54.49 889.15,-40.56 876.27,-30.5"/>
<polygon fill="midnightblue" stroke="midnightblue" points="992.64,-130.39 1002.53,-134.21 997.18,-125.06 992.64,-130.39"/>
</g>
<!-- Node37 -->
<g id="node37" class="node">
<title>Node37</title>
<g id="a_node37"><a xlink:href="_transport_unit_factory_8cpp.html" target="_top" xlink:title=" ">
<polygon fill="white" stroke="black" points="969.72,-67.5 969.72,-97.5 1098.72,-97.5 1098.72,-67.5 969.72,-67.5"/>
<text text-anchor="start" x="977.72" y="-85.5" font-family="Helvetica,sans-Serif" font-size="10.00">src/GameLogic/Units</text>
<text text-anchor="middle" x="1034.22" y="-74.5" font-family="Helvetica,sans-Serif" font-size="10.00">/TransportUnitFactory.cpp</text>
</a>
</g>
</g>
<!-- Node36&#45;&gt;Node37 -->
<g id="edge55" class="edge">
<title>Node36&#45;&gt;Node37</title>
<path fill="none" stroke="midnightblue" d="M1024.78,-124.4C1026.86,-115.37 1029.16,-105.41 1030.97,-97.58"/>
<polygon fill="midnightblue" stroke="midnightblue" points="1021.31,-123.87 1022.47,-134.4 1028.13,-125.44 1021.31,-123.87"/>
</g>
<!-- Node38&#45;&gt;Node34 -->
<g id="edge59" class="edge">
<title>Node38&#45;&gt;Node34</title>
<path fill="none" stroke="midnightblue" d="M1120.55,-200.54C1065.36,-189.33 990.61,-174.14 937.98,-163.45"/>
<polygon fill="midnightblue" stroke="midnightblue" points="1120.12,-204.02 1130.61,-202.58 1121.51,-197.16 1120.12,-204.02"/>
</g>
<!-- Node39 -->
<g id="node39" class="node">
<title>Node39</title>
<g id="a_node39"><a xlink:href="_land_unit_8cpp.html" target="_top" xlink:title=" ">
<polygon fill="white" stroke="black" points="1139.22,-134.5 1139.22,-164.5 1249.22,-164.5 1249.22,-134.5 1139.22,-134.5"/>
<text text-anchor="start" x="1147.22" y="-152.5" font-family="Helvetica,sans-Serif" font-size="10.00">src/GameLogic/Units</text>
<text text-anchor="middle" x="1194.22" y="-141.5" font-family="Helvetica,sans-Serif" font-size="10.00">/LandUnit.cpp</text>
</a>
</g>
</g>
<!-- Node38&#45;&gt;Node39 -->
<g id="edge58" class="edge">
<title>Node38&#45;&gt;Node39</title>
<path fill="none" stroke="midnightblue" d="M1194.22,-191.11C1194.22,-182.15 1194.22,-172.32 1194.22,-164.58"/>
<polygon fill="midnightblue" stroke="midnightblue" points="1190.72,-191.4 1194.22,-201.4 1197.72,-191.4 1190.72,-191.4"/>
</g>
<!-- Node40&#45;&gt;Node21 -->
<g id="edge62" class="edge">
<title>Node40&#45;&gt;Node21</title>
<path fill="none" stroke="midnightblue" d="M1374.87,-196.57C1393.59,-186.35 1416.31,-173.94 1433.45,-164.58"/>
<polygon fill="midnightblue" stroke="midnightblue" points="1373.14,-193.53 1366.04,-201.4 1376.49,-199.67 1373.14,-193.53"/>
</g>
<!-- Node40&#45;&gt;Node36 -->
<g id="edge63" class="edge">
<title>Node40&#45;&gt;Node36</title>
<path fill="none" stroke="midnightblue" d="M1266.3,-200.53C1210.85,-189.3 1135.71,-174.09 1082.9,-163.4"/>
<polygon fill="midnightblue" stroke="midnightblue" points="1265.92,-204.03 1276.42,-202.58 1267.31,-197.17 1265.92,-204.03"/>
</g>
<!-- Node41 -->
<g id="node41" class="node">
<title>Node41</title>
<g id="a_node41"><a xlink:href="_transport_unit_8cpp.html" target="_top" xlink:title=" ">
<polygon fill="white" stroke="black" points="1267.22,-134.5 1267.22,-164.5 1377.22,-164.5 1377.22,-134.5 1267.22,-134.5"/>
<text text-anchor="start" x="1275.22" y="-152.5" font-family="Helvetica,sans-Serif" font-size="10.00">src/GameLogic/Units</text>
<text text-anchor="middle" x="1322.22" y="-141.5" font-family="Helvetica,sans-Serif" font-size="10.00">/TransportUnit.cpp</text>
</a>
</g>
</g>
<!-- Node40&#45;&gt;Node41 -->
<g id="edge61" class="edge">
<title>Node40&#45;&gt;Node41</title>
<path fill="none" stroke="midnightblue" d="M1333.63,-191.7C1331.1,-182.59 1328.31,-172.49 1326.12,-164.58"/>
<polygon fill="midnightblue" stroke="midnightblue" points="1330.27,-192.69 1336.31,-201.4 1337.02,-190.82 1330.27,-192.69"/>
</g>
<!-- Node42&#45;&gt;Node17 -->
<g id="edge68" class="edge">
<title>Node42&#45;&gt;Node17</title>
<path fill="none" stroke="midnightblue" d="M1530.89,-236.26C1511.29,-246.5 1486.16,-258.98 1466.11,-268.4"/>
<polygon fill="midnightblue" stroke="midnightblue" points="1532.54,-239.34 1539.74,-231.58 1529.26,-233.16 1532.54,-239.34"/>
</g>
<!-- Node42&#45;&gt;Node18 -->
<g id="edge65" class="edge">
<title>Node42&#45;&gt;Node18</title>
<path fill="none" stroke="midnightblue" d="M1635.67,-200.91C1684.84,-191.03 1750.98,-177.55 1809.22,-165 1812.11,-164.38 1815.08,-163.73 1818.08,-163.07"/>
<polygon fill="midnightblue" stroke="midnightblue" points="1634.87,-197.5 1625.75,-202.89 1636.25,-204.36 1634.87,-197.5"/>
</g>
<!-- Node42&#45;&gt;Node19 -->
<g id="edge67" class="edge">
<title>Node42&#45;&gt;Node19</title>
<path fill="none" stroke="midnightblue" d="M1577.54,-192.87C1583.91,-183.46 1591.1,-172.83 1596.69,-164.58"/>
<polygon fill="midnightblue" stroke="midnightblue" points="1574.47,-191.15 1571.77,-201.4 1580.27,-195.08 1574.47,-191.15"/>
</g>
<!-- Node43 -->
<g id="node43" class="node">
<title>Node43</title>
<g id="a_node43"><a xlink:href="_unit_order_8cpp.html" target="_top" xlink:title=" ">
<polygon fill="white" stroke="black" points="1690.22,-134.5 1690.22,-164.5 1800.22,-164.5 1800.22,-134.5 1690.22,-134.5"/>
<text text-anchor="start" x="1698.22" y="-152.5" font-family="Helvetica,sans-Serif" font-size="10.00">src/GameLogic/Units</text>
<text text-anchor="middle" x="1745.22" y="-141.5" font-family="Helvetica,sans-Serif" font-size="10.00">/UnitOrder.cpp</text>
</a>
</g>
</g>
<!-- Node42&#45;&gt;Node43 -->
<g id="edge66" class="edge">
<title>Node42&#45;&gt;Node43</title>
<path fill="none" stroke="midnightblue" d="M1611.61,-197.96C1641.09,-187.48 1678.03,-174.37 1705.59,-164.58"/>
<polygon fill="midnightblue" stroke="midnightblue" points="1610.18,-194.75 1601.93,-201.4 1612.52,-201.35 1610.18,-194.75"/>
</g>
<!-- Node44&#45;&gt;Node10 -->
<g id="edge71" class="edge">
<title>Node44&#45;&gt;Node10</title>
<path fill="none" stroke="midnightblue" d="M1838.63,-267.92C1856.62,-255.07 1882.22,-236.78 1897.14,-226.13"/>
<polygon fill="midnightblue" stroke="midnightblue" points="1836.59,-265.07 1830.49,-273.73 1840.66,-270.77 1836.59,-265.07"/>
</g>
<!-- Node44&#45;&gt;Node15 -->
<g id="edge70" class="edge">
<title>Node44&#45;&gt;Node15</title>
<path fill="none" stroke="midnightblue" d="M1807.2,-265.03C1800.59,-254.56 1792.3,-241.4 1786.11,-231.59"/>
<polygon fill="midnightblue" stroke="midnightblue" points="1804.39,-267.14 1812.69,-273.73 1810.31,-263.41 1804.39,-267.14"/>
</g>
</g>
</svg>
