<?xml version="1.0" encoding="UTF-8" standalone="no"?>
<!DOCTYPE svg PUBLIC "-//W3C//DTD SVG 1.1//EN"
 "http://www.w3.org/Graphics/SVG/1.1/DTD/svg11.dtd">
<!-- Generated by graphviz version 2.47.1 (20210421.1823)
 -->
<!-- Title: include/engine/gameController.h Pages: 1 -->
<svg width="629pt" height="308pt"
 viewBox="0.00 0.00 629.00 308.00" xmlns="http://www.w3.org/2000/svg" xmlns:xlink="http://www.w3.org/1999/xlink">
<g id="graph0" class="graph" transform="scale(1 1) rotate(0) translate(4 304)">
<title>include/engine/gameController.h</title>
<polygon fill="white" stroke="transparent" points="-4,4 -4,-304 625,-304 625,4 -4,4"/>
<!-- Node1 -->
<g id="node1" class="node">
<title>Node1</title>
<g id="a_node1"><a xlink:title=" ">
<polygon fill="#bfbfbf" stroke="black" points="91,-280.5 91,-299.5 246,-299.5 246,-280.5 91,-280.5"/>
<text text-anchor="middle" x="168.5" y="-287.5" font-family="Helvetica,sans-Serif" font-size="10.00">include/engine/gameController.h</text>
</a>
</g>
</g>
<!-- Node2 -->
<g id="node2" class="node">
<title>Node2</title>
<g id="a_node2"><a xlink:title=" ">
<polygon fill="white" stroke="#bfbfbf" points="39,-112.5 39,-131.5 68,-131.5 68,-112.5 39,-112.5"/>
<text text-anchor="middle" x="53.5" y="-119.5" font-family="Helvetica,sans-Serif" font-size="10.00">list</text>
</a>
</g>
</g>
<!-- Node1&#45;&gt;Node2 -->
<g id="edge1" class="edge">
<title>Node1&#45;&gt;Node2</title>
<path fill="none" stroke="midnightblue" d="M153.45,-280.45C128.62,-265.4 79.69,-231.6 58.5,-188 51.47,-173.53 50.7,-155.08 51.41,-141.54"/>
<polygon fill="midnightblue" stroke="midnightblue" points="54.91,-141.77 52.25,-131.51 47.93,-141.18 54.91,-141.77"/>
</g>
<!-- Node3 -->
<g id="node3" class="node">
<title>Node3</title>
<g id="a_node3"><a xlink:href="game_object_8h.html" target="_top" xlink:title=" ">
<polygon fill="white" stroke="black" points="67.5,-168.5 67.5,-187.5 175.5,-187.5 175.5,-168.5 67.5,-168.5"/>
<text text-anchor="middle" x="121.5" y="-175.5" font-family="Helvetica,sans-Serif" font-size="10.00">engine/gameObject.h</text>
</a>
</g>
</g>
<!-- Node1&#45;&gt;Node3 -->
<g id="edge2" class="edge">
<title>Node1&#45;&gt;Node3</title>
<path fill="none" stroke="midnightblue" d="M164.81,-280.37C157.16,-262.46 139.41,-220.92 129.17,-196.95"/>
<polygon fill="midnightblue" stroke="midnightblue" points="132.32,-195.41 125.17,-187.59 125.88,-198.16 132.32,-195.41"/>
</g>
<!-- Node14 -->
<g id="node14" class="node">
<title>Node14</title>
<g id="a_node14"><a xlink:href="_network_manager_8h.html" target="_top" xlink:title=" ">
<polygon fill="white" stroke="black" points="188.5,-224.5 188.5,-243.5 318.5,-243.5 318.5,-224.5 188.5,-224.5"/>
<text text-anchor="middle" x="253.5" y="-231.5" font-family="Helvetica,sans-Serif" font-size="10.00">engine/NetworkManager.h</text>
</a>
</g>
</g>
<!-- Node1&#45;&gt;Node14 -->
<g id="edge16" class="edge">
<title>Node1&#45;&gt;Node14</title>
<path fill="none" stroke="midnightblue" d="M182.16,-280.32C195.42,-271.9 215.77,-258.97 231.35,-249.07"/>
<polygon fill="midnightblue" stroke="midnightblue" points="233.31,-251.97 239.88,-243.65 229.56,-246.06 233.31,-251.97"/>
</g>
<!-- Node20 -->
<g id="node20" class="node">
<title>Node20</title>
<g id="a_node20"><a xlink:title=" ">
<polygon fill="white" stroke="#bfbfbf" points="337,-224.5 337,-243.5 386,-243.5 386,-224.5 337,-224.5"/>
<text text-anchor="middle" x="361.5" y="-231.5" font-family="Helvetica,sans-Serif" font-size="10.00">random</text>
</a>
</g>
</g>
<!-- Node1&#45;&gt;Node20 -->
<g id="edge24" class="edge">
<title>Node1&#45;&gt;Node20</title>
<path fill="none" stroke="midnightblue" d="M199.08,-280.44C233.96,-270.68 290.85,-254.77 327.2,-244.6"/>
<polygon fill="midnightblue" stroke="midnightblue" points="328.19,-247.95 336.88,-241.89 326.31,-241.21 328.19,-247.95"/>
</g>
<!-- Node3&#45;&gt;Node2 -->
<g id="edge4" class="edge">
<title>Node3&#45;&gt;Node2</title>
<path fill="none" stroke="midnightblue" d="M110.57,-168.32C100.33,-160.18 84.78,-147.84 72.5,-138.09"/>
<polygon fill="midnightblue" stroke="midnightblue" points="74.63,-135.31 64.62,-131.83 70.28,-140.79 74.63,-135.31"/>
</g>
<!-- Node4 -->
<g id="node4" class="node">
<title>Node4</title>
<g id="a_node4"><a xlink:title=" ">
<polygon fill="white" stroke="#bfbfbf" points="93,-112.5 93,-131.5 134,-131.5 134,-112.5 93,-112.5"/>
<text text-anchor="middle" x="113.5" y="-119.5" font-family="Helvetica,sans-Serif" font-size="10.00">string</text>
</a>
</g>
</g>
<!-- Node3&#45;&gt;Node4 -->
<g id="edge3" class="edge">
<title>Node3&#45;&gt;Node4</title>
<path fill="none" stroke="midnightblue" d="M120.18,-168.08C119.12,-160.93 117.59,-150.64 116.27,-141.69"/>
<polygon fill="midnightblue" stroke="midnightblue" points="119.72,-141.13 114.8,-131.75 112.8,-142.16 119.72,-141.13"/>
</g>
<!-- Node5 -->
<g id="node5" class="node">
<title>Node5</title>
<g id="a_node5"><a xlink:href="config_8h.html" target="_top" xlink:title=" ">
<polygon fill="white" stroke="black" points="152,-112.5 152,-131.5 233,-131.5 233,-112.5 152,-112.5"/>
<text text-anchor="middle" x="192.5" y="-119.5" font-family="Helvetica,sans-Serif" font-size="10.00">engine/config.h</text>
</a>
</g>
</g>
<!-- Node3&#45;&gt;Node5 -->
<g id="edge5" class="edge">
<title>Node3&#45;&gt;Node5</title>
<path fill="none" stroke="midnightblue" d="M132.91,-168.32C143.61,-160.18 159.84,-147.84 172.66,-138.09"/>
<polygon fill="midnightblue" stroke="midnightblue" points="175.04,-140.67 180.89,-131.83 170.81,-135.1 175.04,-140.67"/>
</g>
<!-- Node11 -->
<g id="node11" class="node">
<title>Node11</title>
<g id="a_node11"><a xlink:href="engine_2_action_8h.html" target="_top" xlink:title=" ">
<polygon fill="white" stroke="black" points="490,-112.5 490,-131.5 573,-131.5 573,-112.5 490,-112.5"/>
<text text-anchor="middle" x="531.5" y="-119.5" font-family="Helvetica,sans-Serif" font-size="10.00">engine/Action.h</text>
</a>
</g>
</g>
<!-- Node3&#45;&gt;Node11 -->
<g id="edge13" class="edge">
<title>Node3&#45;&gt;Node11</title>
<path fill="none" stroke="midnightblue" d="M175.79,-169.2C178.74,-168.79 181.65,-168.39 184.5,-168 289.27,-153.72 411.99,-138.06 479.81,-129.49"/>
<polygon fill="midnightblue" stroke="midnightblue" points="480.33,-132.95 489.81,-128.23 479.45,-126.01 480.33,-132.95"/>
</g>
<!-- Node6 -->
<g id="node6" class="node">
<title>Node6</title>
<g id="a_node6"><a xlink:href="_s_f_m_l_facade_8h.html" target="_top" xlink:title=" ">
<polygon fill="white" stroke="black" points="131,-56.5 131,-75.5 254,-75.5 254,-56.5 131,-56.5"/>
<text text-anchor="middle" x="192.5" y="-63.5" font-family="Helvetica,sans-Serif" font-size="10.00">graphics/SFMLFacade.h</text>
</a>
</g>
</g>
<!-- Node5&#45;&gt;Node6 -->
<g id="edge6" class="edge">
<title>Node5&#45;&gt;Node6</title>
<path fill="none" stroke="midnightblue" d="M192.5,-112.08C192.5,-105.01 192.5,-94.86 192.5,-85.99"/>
<polygon fill="midnightblue" stroke="midnightblue" points="196,-85.75 192.5,-75.75 189,-85.75 196,-85.75"/>
</g>
<!-- Node9 -->
<g id="node9" class="node">
<title>Node9</title>
<g id="a_node9"><a xlink:href="_fan_facade_8h.html" target="_top" xlink:title=" ">
<polygon fill="white" stroke="black" points="0,-56.5 0,-75.5 113,-75.5 113,-56.5 0,-56.5"/>
<text text-anchor="middle" x="56.5" y="-63.5" font-family="Helvetica,sans-Serif" font-size="10.00">graphics/FanFacade.h</text>
</a>
</g>
</g>
<!-- Node5&#45;&gt;Node9 -->
<g id="edge9" class="edge">
<title>Node5&#45;&gt;Node9</title>
<path fill="none" stroke="midnightblue" d="M170.95,-112.44C148.47,-103.52 113.01,-89.44 87.52,-79.32"/>
<polygon fill="midnightblue" stroke="midnightblue" points="88.53,-75.95 77.95,-75.52 85.95,-82.46 88.53,-75.95"/>
</g>
<!-- Node10 -->
<g id="node10" class="node">
<title>Node10</title>
<g id="a_node10"><a xlink:title=" ">
<polygon fill="white" stroke="#bfbfbf" points="272.5,-56.5 272.5,-75.5 370.5,-75.5 370.5,-56.5 272.5,-56.5"/>
<text text-anchor="middle" x="321.5" y="-63.5" font-family="Helvetica,sans-Serif" font-size="10.00">nlohmann/json.hpp</text>
</a>
</g>
</g>
<!-- Node5&#45;&gt;Node10 -->
<g id="edge12" class="edge">
<title>Node5&#45;&gt;Node10</title>
<path fill="none" stroke="midnightblue" d="M212.94,-112.44C234.17,-103.56 267.6,-89.56 291.75,-79.45"/>
<polygon fill="midnightblue" stroke="midnightblue" points="293.28,-82.61 301.16,-75.52 290.58,-76.15 293.28,-82.61"/>
</g>
<!-- Node7 -->
<g id="node7" class="node">
<title>Node7</title>
<g id="a_node7"><a xlink:title=" ">
<polygon fill="white" stroke="#bfbfbf" points="23.5,-0.5 23.5,-19.5 127.5,-19.5 127.5,-0.5 23.5,-0.5"/>
<text text-anchor="middle" x="75.5" y="-7.5" font-family="Helvetica,sans-Serif" font-size="10.00">SFML/Graphics.hpp</text>
</a>
</g>
</g>
<!-- Node6&#45;&gt;Node7 -->
<g id="edge7" class="edge">
<title>Node6&#45;&gt;Node7</title>
<path fill="none" stroke="midnightblue" d="M173.96,-56.44C154.88,-47.64 124.93,-33.81 103.06,-23.72"/>
<polygon fill="midnightblue" stroke="midnightblue" points="104.5,-20.53 93.95,-19.52 101.57,-26.88 104.5,-20.53"/>
</g>
<!-- Node8 -->
<g id="node8" class="node">
<title>Node8</title>
<g id="a_node8"><a xlink:href="_facade_8h.html" target="_top" xlink:title=" ">
<polygon fill="white" stroke="black" points="154.5,-0.5 154.5,-19.5 210.5,-19.5 210.5,-0.5 154.5,-0.5"/>
<text text-anchor="middle" x="182.5" y="-7.5" font-family="Helvetica,sans-Serif" font-size="10.00">Facade.h</text>
</a>
</g>
</g>
<!-- Node6&#45;&gt;Node8 -->
<g id="edge8" class="edge">
<title>Node6&#45;&gt;Node8</title>
<path fill="none" stroke="midnightblue" d="M190.85,-56.08C189.52,-48.93 187.62,-38.64 185.96,-29.69"/>
<polygon fill="midnightblue" stroke="midnightblue" points="189.38,-28.95 184.12,-19.75 182.5,-30.22 189.38,-28.95"/>
</g>
<!-- Node9&#45;&gt;Node7 -->
<g id="edge10" class="edge">
<title>Node9&#45;&gt;Node7</title>
<path fill="none" stroke="midnightblue" d="M59.64,-56.08C62.18,-48.85 65.86,-38.41 69.03,-29.4"/>
<polygon fill="midnightblue" stroke="midnightblue" points="72.4,-30.35 72.42,-19.75 65.8,-28.02 72.4,-30.35"/>
</g>
<!-- Node9&#45;&gt;Node8 -->
<g id="edge11" class="edge">
<title>Node9&#45;&gt;Node8</title>
<path fill="none" stroke="midnightblue" d="M76.47,-56.44C97.11,-47.6 129.56,-33.69 153.13,-23.59"/>
<polygon fill="midnightblue" stroke="midnightblue" points="154.82,-26.67 162.63,-19.52 152.06,-20.24 154.82,-26.67"/>
</g>
<!-- Node12 -->
<g id="node12" class="node">
<title>Node12</title>
<g id="a_node12"><a xlink:title=" ">
<polygon fill="white" stroke="#bfbfbf" points="543.5,-56.5 543.5,-75.5 597.5,-75.5 597.5,-56.5 543.5,-56.5"/>
<text text-anchor="middle" x="570.5" y="-63.5" font-family="Helvetica,sans-Serif" font-size="10.00">iostream</text>
</a>
</g>
</g>
<!-- Node11&#45;&gt;Node12 -->
<g id="edge14" class="edge">
<title>Node11&#45;&gt;Node12</title>
<path fill="none" stroke="midnightblue" d="M537.94,-112.08C543.45,-104.46 551.53,-93.26 558.26,-83.94"/>
<polygon fill="midnightblue" stroke="midnightblue" points="561.16,-85.91 564.18,-75.75 555.49,-81.81 561.16,-85.91"/>
</g>
<!-- Node13 -->
<g id="node13" class="node">
<title>Node13</title>
<g id="a_node13"><a xlink:title=" ">
<polygon fill="white" stroke="#bfbfbf" points="474,-56.5 474,-75.5 525,-75.5 525,-56.5 474,-56.5"/>
<text text-anchor="middle" x="499.5" y="-63.5" font-family="Helvetica,sans-Serif" font-size="10.00">memory</text>
</a>
</g>
</g>
<!-- Node11&#45;&gt;Node13 -->
<g id="edge15" class="edge">
<title>Node11&#45;&gt;Node13</title>
<path fill="none" stroke="midnightblue" d="M526.22,-112.08C521.79,-104.61 515.34,-93.72 509.88,-84.52"/>
<polygon fill="midnightblue" stroke="midnightblue" points="512.79,-82.57 504.69,-75.75 506.77,-86.14 512.79,-82.57"/>
</g>
<!-- Node14&#45;&gt;Node3 -->
<g id="edge17" class="edge">
<title>Node14&#45;&gt;Node3</title>
<path fill="none" stroke="midnightblue" d="M232.58,-224.44C210.76,-215.52 176.35,-201.44 151.61,-191.32"/>
<polygon fill="midnightblue" stroke="midnightblue" points="152.9,-188.06 142.32,-187.52 150.25,-194.54 152.9,-188.06"/>
</g>
<!-- Node15 -->
<g id="node15" class="node">
<title>Node15</title>
<g id="a_node15"><a xlink:href="_none_8h.html" target="_top" xlink:title=" ">
<polygon fill="white" stroke="black" points="508,-168.5 508,-187.5 621,-187.5 621,-168.5 508,-168.5"/>
<text text-anchor="middle" x="564.5" y="-175.5" font-family="Helvetica,sans-Serif" font-size="10.00">engine/actions/None.h</text>
</a>
</g>
</g>
<!-- Node14&#45;&gt;Node15 -->
<g id="edge18" class="edge">
<title>Node14&#45;&gt;Node15</title>
<path fill="none" stroke="midnightblue" d="M302.78,-224.44C357.83,-214.89 446.9,-199.42 505.58,-189.23"/>
<polygon fill="midnightblue" stroke="midnightblue" points="506.2,-192.68 515.45,-187.52 505,-185.78 506.2,-192.68"/>
</g>
<!-- Node16 -->
<g id="node16" class="node">
<title>Node16</title>
<g id="a_node16"><a xlink:title=" ">
<polygon fill="white" stroke="#bfbfbf" points="193.5,-168.5 193.5,-187.5 237.5,-187.5 237.5,-168.5 193.5,-168.5"/>
<text text-anchor="middle" x="215.5" y="-175.5" font-family="Helvetica,sans-Serif" font-size="10.00">vector</text>
</a>
</g>
</g>
<!-- Node14&#45;&gt;Node16 -->
<g id="edge20" class="edge">
<title>Node14&#45;&gt;Node16</title>
<path fill="none" stroke="midnightblue" d="M247.23,-224.08C241.86,-216.46 233.98,-205.26 227.42,-195.94"/>
<polygon fill="midnightblue" stroke="midnightblue" points="230.28,-193.91 221.66,-187.75 224.55,-197.94 230.28,-193.91"/>
</g>
<!-- Node17 -->
<g id="node17" class="node">
<title>Node17</title>
<g id="a_node17"><a xlink:title=" ">
<polygon fill="white" stroke="#bfbfbf" points="256,-168.5 256,-187.5 327,-187.5 327,-168.5 256,-168.5"/>
<text text-anchor="middle" x="291.5" y="-175.5" font-family="Helvetica,sans-Serif" font-size="10.00">sys/socket.h</text>
</a>
</g>
</g>
<!-- Node14&#45;&gt;Node17 -->
<g id="edge21" class="edge">
<title>Node14&#45;&gt;Node17</title>
<path fill="none" stroke="midnightblue" d="M259.77,-224.08C265.14,-216.46 273.02,-205.26 279.58,-195.94"/>
<polygon fill="midnightblue" stroke="midnightblue" points="282.45,-197.94 285.34,-187.75 276.72,-193.91 282.45,-197.94"/>
</g>
<!-- Node18 -->
<g id="node18" class="node">
<title>Node18</title>
<g id="a_node18"><a xlink:title=" ">
<polygon fill="white" stroke="#bfbfbf" points="345.5,-168.5 345.5,-187.5 409.5,-187.5 409.5,-168.5 345.5,-168.5"/>
<text text-anchor="middle" x="377.5" y="-175.5" font-family="Helvetica,sans-Serif" font-size="10.00">netinet/in.h</text>
</a>
</g>
</g>
<!-- Node14&#45;&gt;Node18 -->
<g id="edge22" class="edge">
<title>Node14&#45;&gt;Node18</title>
<path fill="none" stroke="midnightblue" d="M273.15,-224.44C293.46,-215.6 325.4,-201.69 348.6,-191.59"/>
<polygon fill="midnightblue" stroke="midnightblue" points="350.17,-194.72 357.94,-187.52 347.38,-188.3 350.17,-194.72"/>
</g>
<!-- Node19 -->
<g id="node19" class="node">
<title>Node19</title>
<g id="a_node19"><a xlink:title=" ">
<polygon fill="white" stroke="#bfbfbf" points="427.5,-168.5 427.5,-187.5 489.5,-187.5 489.5,-168.5 427.5,-168.5"/>
<text text-anchor="middle" x="458.5" y="-175.5" font-family="Helvetica,sans-Serif" font-size="10.00">arpa/inet.h</text>
</a>
</g>
</g>
<!-- Node14&#45;&gt;Node19 -->
<g id="edge23" class="edge">
<title>Node14&#45;&gt;Node19</title>
<path fill="none" stroke="midnightblue" d="M285.98,-224.44C321.53,-215.08 378.6,-200.05 417.28,-189.86"/>
<polygon fill="midnightblue" stroke="midnightblue" points="418.4,-193.18 427.18,-187.25 416.62,-186.41 418.4,-193.18"/>
</g>
<!-- Node15&#45;&gt;Node11 -->
<g id="edge19" class="edge">
<title>Node15&#45;&gt;Node11</title>
<path fill="none" stroke="midnightblue" d="M559.05,-168.08C554.49,-160.61 547.83,-149.72 542.21,-140.52"/>
<polygon fill="midnightblue" stroke="midnightblue" points="545.05,-138.46 536.85,-131.75 539.08,-142.11 545.05,-138.46"/>
</g>
</g>
</svg>
