<?xml version="1.0" encoding="UTF-8" standalone="no"?>
<!DOCTYPE svg PUBLIC "-//W3C//DTD SVG 1.1//EN"
 "http://www.w3.org/Graphics/SVG/1.1/DTD/svg11.dtd">
<!-- Generated by graphviz version 2.47.1 (20210421.1823)
 -->
<!-- Title: src/engine/gameController.cpp Pages: 1 -->
<svg width="514pt" height="364pt"
 viewBox="0.00 0.00 513.54 364.00" xmlns="http://www.w3.org/2000/svg" xmlns:xlink="http://www.w3.org/1999/xlink">
<g id="graph0" class="graph" transform="scale(1 1) rotate(0) translate(4 360)">
<title>src/engine/gameController.cpp</title>
<polygon fill="white" stroke="transparent" points="-4,4 -4,-360 509.54,-360 509.54,4 -4,4"/>
<!-- Node1 -->
<g id="node1" class="node">
<title>Node1</title>
<g id="a_node1"><a xlink:title=" ">
<polygon fill="#bfbfbf" stroke="black" points="305.54,-336.5 305.54,-355.5 453.54,-355.5 453.54,-336.5 305.54,-336.5"/>
<text text-anchor="middle" x="379.54" y="-343.5" font-family="Helvetica,sans-Serif" font-size="10.00">src/engine/gameController.cpp</text>
</a>
</g>
</g>
<!-- Node2 -->
<g id="node2" class="node">
<title>Node2</title>
<g id="a_node2"><a xlink:href="game_controller_8h.html" target="_top" xlink:title=" ">
<polygon fill="white" stroke="black" points="213.04,-280.5 213.04,-299.5 334.04,-299.5 334.04,-280.5 213.04,-280.5"/>
<text text-anchor="middle" x="273.54" y="-287.5" font-family="Helvetica,sans-Serif" font-size="10.00">engine/gameController.h</text>
</a>
</g>
</g>
<!-- Node1&#45;&gt;Node2 -->
<g id="edge1" class="edge">
<title>Node1&#45;&gt;Node2</title>
<path fill="none" stroke="midnightblue" d="M362.51,-336.32C345.51,-327.66 319.17,-314.24 299.55,-304.25"/>
<polygon fill="midnightblue" stroke="midnightblue" points="301.03,-301.08 290.53,-299.65 297.85,-307.31 301.03,-301.08"/>
</g>
<!-- Node4 -->
<g id="node4" class="node">
<title>Node4</title>
<g id="a_node4"><a xlink:href="game_object_8h.html" target="_top" xlink:title=" ">
<polygon fill="white" stroke="black" points="296.54,-168.5 296.54,-187.5 404.54,-187.5 404.54,-168.5 296.54,-168.5"/>
<text text-anchor="middle" x="350.54" y="-175.5" font-family="Helvetica,sans-Serif" font-size="10.00">engine/gameObject.h</text>
</a>
</g>
</g>
<!-- Node1&#45;&gt;Node4 -->
<g id="edge21" class="edge">
<title>Node1&#45;&gt;Node4</title>
<path fill="none" stroke="midnightblue" d="M378.39,-336.46C375.67,-316.64 368.5,-265.99 360.54,-224 358.88,-215.24 356.78,-205.59 354.92,-197.47"/>
<polygon fill="midnightblue" stroke="midnightblue" points="358.3,-196.54 352.62,-187.59 351.48,-198.13 358.3,-196.54"/>
</g>
<!-- Node5 -->
<g id="node5" class="node">
<title>Node5</title>
<g id="a_node5"><a xlink:href="config_8h.html" target="_top" xlink:title=" ">
<polygon fill="white" stroke="black" points="351.04,-112.5 351.04,-131.5 432.04,-131.5 432.04,-112.5 351.04,-112.5"/>
<text text-anchor="middle" x="391.54" y="-119.5" font-family="Helvetica,sans-Serif" font-size="10.00">engine/config.h</text>
</a>
</g>
</g>
<!-- Node1&#45;&gt;Node5 -->
<g id="edge20" class="edge">
<title>Node1&#45;&gt;Node5</title>
<path fill="none" stroke="midnightblue" d="M383.7,-336.48C395.68,-310.86 428.43,-232.32 413.54,-168 411.31,-158.36 406.72,-148.41 402.31,-140.31"/>
<polygon fill="midnightblue" stroke="midnightblue" points="405.24,-138.4 397.18,-131.52 399.19,-141.92 405.24,-138.4"/>
</g>
<!-- Node3 -->
<g id="node3" class="node">
<title>Node3</title>
<g id="a_node3"><a xlink:title=" ">
<polygon fill="white" stroke="#bfbfbf" points="34.04,-112.5 34.04,-131.5 63.04,-131.5 63.04,-112.5 34.04,-112.5"/>
<text text-anchor="middle" x="48.54" y="-119.5" font-family="Helvetica,sans-Serif" font-size="10.00">list</text>
</a>
</g>
</g>
<!-- Node2&#45;&gt;Node3 -->
<g id="edge2" class="edge">
<title>Node2&#45;&gt;Node3</title>
<path fill="none" stroke="midnightblue" d="M212.93,-286.83C147.23,-280.74 46.06,-259.52 3.54,-188 -7.09,-170.12 10.65,-150.62 26.88,-137.7"/>
<polygon fill="midnightblue" stroke="midnightblue" points="29.16,-140.36 35.08,-131.58 24.97,-134.75 29.16,-140.36"/>
</g>
<!-- Node2&#45;&gt;Node4 -->
<g id="edge3" class="edge">
<title>Node2&#45;&gt;Node4</title>
<path fill="none" stroke="midnightblue" d="M274.55,-280.29C276.41,-267.1 281.4,-241.73 293.54,-224 302.03,-211.61 314.97,-201 326.37,-193.2"/>
<polygon fill="midnightblue" stroke="midnightblue" points="328.58,-195.94 335.07,-187.57 324.77,-190.07 328.58,-195.94"/>
</g>
<!-- Node13 -->
<g id="node13" class="node">
<title>Node13</title>
<g id="a_node13"><a xlink:href="_network_manager_8h.html" target="_top" xlink:title=" ">
<polygon fill="white" stroke="black" points="115.54,-224.5 115.54,-243.5 245.54,-243.5 245.54,-224.5 115.54,-224.5"/>
<text text-anchor="middle" x="180.54" y="-231.5" font-family="Helvetica,sans-Serif" font-size="10.00">engine/NetworkManager.h</text>
</a>
</g>
</g>
<!-- Node2&#45;&gt;Node13 -->
<g id="edge13" class="edge">
<title>Node2&#45;&gt;Node13</title>
<path fill="none" stroke="midnightblue" d="M258.6,-280.32C243.96,-271.82 221.41,-258.73 204.31,-248.8"/>
<polygon fill="midnightblue" stroke="midnightblue" points="205.85,-245.65 195.45,-243.65 202.34,-251.7 205.85,-245.65"/>
</g>
<!-- Node17 -->
<g id="node17" class="node">
<title>Node17</title>
<g id="a_node17"><a xlink:title=" ">
<polygon fill="white" stroke="#bfbfbf" points="302.04,-224.5 302.04,-243.5 351.04,-243.5 351.04,-224.5 302.04,-224.5"/>
<text text-anchor="middle" x="326.54" y="-231.5" font-family="Helvetica,sans-Serif" font-size="10.00">random</text>
</a>
</g>
</g>
<!-- Node2&#45;&gt;Node17 -->
<g id="edge19" class="edge">
<title>Node2&#45;&gt;Node17</title>
<path fill="none" stroke="midnightblue" d="M282.29,-280.08C290.01,-272.22 301.45,-260.57 310.76,-251.08"/>
<polygon fill="midnightblue" stroke="midnightblue" points="313.45,-253.34 317.95,-243.75 308.45,-248.44 313.45,-253.34"/>
</g>
<!-- Node4&#45;&gt;Node3 -->
<g id="edge4" class="edge">
<title>Node4&#45;&gt;Node3</title>
<path fill="none" stroke="midnightblue" d="M296.47,-169.09C228.92,-159.04 117.25,-141.83 76.54,-132 75.45,-131.74 74.34,-131.45 73.22,-131.15"/>
<polygon fill="midnightblue" stroke="midnightblue" points="73.83,-127.68 63.25,-128.18 71.83,-134.39 73.83,-127.68"/>
</g>
<!-- Node4&#45;&gt;Node5 -->
<g id="edge5" class="edge">
<title>Node4&#45;&gt;Node5</title>
<path fill="none" stroke="midnightblue" d="M357.31,-168.08C363.1,-160.46 371.6,-149.26 378.68,-139.94"/>
<polygon fill="midnightblue" stroke="midnightblue" points="381.64,-141.83 384.9,-131.75 376.06,-137.6 381.64,-141.83"/>
</g>
<!-- Node10 -->
<g id="node10" class="node">
<title>Node10</title>
<g id="a_node10"><a xlink:href="engine_2_action_8h.html" target="_top" xlink:title=" ">
<polygon fill="white" stroke="black" points="86.04,-112.5 86.04,-131.5 169.04,-131.5 169.04,-112.5 86.04,-112.5"/>
<text text-anchor="middle" x="127.54" y="-119.5" font-family="Helvetica,sans-Serif" font-size="10.00">engine/Action.h</text>
</a>
</g>
</g>
<!-- Node4&#45;&gt;Node10 -->
<g id="edge10" class="edge">
<title>Node4&#45;&gt;Node10</title>
<path fill="none" stroke="midnightblue" d="M315.21,-168.44C276.63,-159.1 214.76,-144.12 172.69,-133.93"/>
<polygon fill="midnightblue" stroke="midnightblue" points="173.26,-130.47 162.71,-131.52 171.61,-137.27 173.26,-130.47"/>
</g>
<!-- Node6 -->
<g id="node6" class="node">
<title>Node6</title>
<g id="a_node6"><a xlink:href="_s_f_m_l_facade_8h.html" target="_top" xlink:title=" ">
<polygon fill="white" stroke="black" points="266.04,-56.5 266.04,-75.5 389.04,-75.5 389.04,-56.5 266.04,-56.5"/>
<text text-anchor="middle" x="327.54" y="-63.5" font-family="Helvetica,sans-Serif" font-size="10.00">graphics/SFMLFacade.h</text>
</a>
</g>
</g>
<!-- Node5&#45;&gt;Node6 -->
<g id="edge6" class="edge">
<title>Node5&#45;&gt;Node6</title>
<path fill="none" stroke="midnightblue" d="M381.26,-112.32C371.71,-104.26 357.26,-92.08 345.76,-82.37"/>
<polygon fill="midnightblue" stroke="midnightblue" points="347.91,-79.61 338.01,-75.83 343.4,-84.96 347.91,-79.61"/>
</g>
<!-- Node9 -->
<g id="node9" class="node">
<title>Node9</title>
<g id="a_node9"><a xlink:title=" ">
<polygon fill="white" stroke="#bfbfbf" points="407.54,-56.5 407.54,-75.5 505.54,-75.5 505.54,-56.5 407.54,-56.5"/>
<text text-anchor="middle" x="456.54" y="-63.5" font-family="Helvetica,sans-Serif" font-size="10.00">nlohmann/json.hpp</text>
</a>
</g>
</g>
<!-- Node5&#45;&gt;Node9 -->
<g id="edge9" class="edge">
<title>Node5&#45;&gt;Node9</title>
<path fill="none" stroke="midnightblue" d="M401.99,-112.32C411.69,-104.26 426.36,-92.08 438.04,-82.37"/>
<polygon fill="midnightblue" stroke="midnightblue" points="440.45,-84.92 445.91,-75.83 435.98,-79.53 440.45,-84.92"/>
</g>
<!-- Node7 -->
<g id="node7" class="node">
<title>Node7</title>
<g id="a_node7"><a xlink:title=" ">
<polygon fill="white" stroke="#bfbfbf" points="226.54,-0.5 226.54,-19.5 330.54,-19.5 330.54,-0.5 226.54,-0.5"/>
<text text-anchor="middle" x="278.54" y="-7.5" font-family="Helvetica,sans-Serif" font-size="10.00">SFML/Graphics.hpp</text>
</a>
</g>
</g>
<!-- Node6&#45;&gt;Node7 -->
<g id="edge7" class="edge">
<title>Node6&#45;&gt;Node7</title>
<path fill="none" stroke="midnightblue" d="M319.45,-56.08C312.39,-48.3 301.96,-36.8 293.39,-27.37"/>
<polygon fill="midnightblue" stroke="midnightblue" points="295.8,-24.8 286.48,-19.75 290.61,-29.51 295.8,-24.8"/>
</g>
<!-- Node8 -->
<g id="node8" class="node">
<title>Node8</title>
<g id="a_node8"><a xlink:href="_facade_8h.html" target="_top" xlink:title=" ">
<polygon fill="white" stroke="black" points="348.54,-0.5 348.54,-19.5 404.54,-19.5 404.54,-0.5 348.54,-0.5"/>
<text text-anchor="middle" x="376.54" y="-7.5" font-family="Helvetica,sans-Serif" font-size="10.00">Facade.h</text>
</a>
</g>
</g>
<!-- Node6&#45;&gt;Node8 -->
<g id="edge8" class="edge">
<title>Node6&#45;&gt;Node8</title>
<path fill="none" stroke="midnightblue" d="M335.63,-56.08C342.7,-48.3 353.13,-36.8 361.69,-27.37"/>
<polygon fill="midnightblue" stroke="midnightblue" points="364.47,-29.51 368.6,-19.75 359.29,-24.8 364.47,-29.51"/>
</g>
<!-- Node11 -->
<g id="node11" class="node">
<title>Node11</title>
<g id="a_node11"><a xlink:title=" ">
<polygon fill="white" stroke="#bfbfbf" points="65.54,-56.5 65.54,-75.5 119.54,-75.5 119.54,-56.5 65.54,-56.5"/>
<text text-anchor="middle" x="92.54" y="-63.5" font-family="Helvetica,sans-Serif" font-size="10.00">iostream</text>
</a>
</g>
</g>
<!-- Node10&#45;&gt;Node11 -->
<g id="edge11" class="edge">
<title>Node10&#45;&gt;Node11</title>
<path fill="none" stroke="midnightblue" d="M121.76,-112.08C116.87,-104.53 109.72,-93.49 103.71,-84.23"/>
<polygon fill="midnightblue" stroke="midnightblue" points="106.59,-82.24 98.22,-75.75 100.72,-86.05 106.59,-82.24"/>
</g>
<!-- Node12 -->
<g id="node12" class="node">
<title>Node12</title>
<g id="a_node12"><a xlink:title=" ">
<polygon fill="white" stroke="#bfbfbf" points="138.04,-56.5 138.04,-75.5 189.04,-75.5 189.04,-56.5 138.04,-56.5"/>
<text text-anchor="middle" x="163.54" y="-63.5" font-family="Helvetica,sans-Serif" font-size="10.00">memory</text>
</a>
</g>
</g>
<!-- Node10&#45;&gt;Node12 -->
<g id="edge12" class="edge">
<title>Node10&#45;&gt;Node12</title>
<path fill="none" stroke="midnightblue" d="M133.49,-112.08C138.52,-104.53 145.88,-93.49 152.06,-84.23"/>
<polygon fill="midnightblue" stroke="midnightblue" points="155.07,-86.01 157.71,-75.75 149.25,-82.13 155.07,-86.01"/>
</g>
<!-- Node13&#45;&gt;Node4 -->
<g id="edge14" class="edge">
<title>Node13&#45;&gt;Node4</title>
<path fill="none" stroke="midnightblue" d="M207.48,-224.44C236.2,-215.32 281.87,-200.81 313.86,-190.65"/>
<polygon fill="midnightblue" stroke="midnightblue" points="315.26,-193.88 323.73,-187.52 313.14,-187.21 315.26,-193.88"/>
</g>
<!-- Node14 -->
<g id="node14" class="node">
<title>Node14</title>
<g id="a_node14"><a xlink:href="_none_8h.html" target="_top" xlink:title=" ">
<polygon fill="white" stroke="black" points="13.04,-168.5 13.04,-187.5 126.04,-187.5 126.04,-168.5 13.04,-168.5"/>
<text text-anchor="middle" x="69.54" y="-175.5" font-family="Helvetica,sans-Serif" font-size="10.00">engine/actions/None.h</text>
</a>
</g>
</g>
<!-- Node13&#45;&gt;Node14 -->
<g id="edge15" class="edge">
<title>Node13&#45;&gt;Node14</title>
<path fill="none" stroke="midnightblue" d="M162.71,-224.32C144.83,-215.62 117.07,-202.12 96.5,-192.11"/>
<polygon fill="midnightblue" stroke="midnightblue" points="97.86,-188.88 87.33,-187.65 94.79,-195.18 97.86,-188.88"/>
</g>
<!-- Node15 -->
<g id="node15" class="node">
<title>Node15</title>
<g id="a_node15"><a xlink:title=" ">
<polygon fill="white" stroke="#bfbfbf" points="144.54,-168.5 144.54,-187.5 188.54,-187.5 188.54,-168.5 144.54,-168.5"/>
<text text-anchor="middle" x="166.54" y="-175.5" font-family="Helvetica,sans-Serif" font-size="10.00">vector</text>
</a>
</g>
</g>
<!-- Node13&#45;&gt;Node15 -->
<g id="edge17" class="edge">
<title>Node13&#45;&gt;Node15</title>
<path fill="none" stroke="midnightblue" d="M178.23,-224.08C176.38,-216.93 173.71,-206.64 171.39,-197.69"/>
<polygon fill="midnightblue" stroke="midnightblue" points="174.71,-196.55 168.81,-187.75 167.93,-198.31 174.71,-196.55"/>
</g>
<!-- Node16 -->
<g id="node16" class="node">
<title>Node16</title>
<g id="a_node16"><a xlink:title=" ">
<polygon fill="white" stroke="#bfbfbf" points="207.04,-168.5 207.04,-187.5 278.04,-187.5 278.04,-168.5 207.04,-168.5"/>
<text text-anchor="middle" x="242.54" y="-175.5" font-family="Helvetica,sans-Serif" font-size="10.00">sys/socket.h</text>
</a>
</g>
</g>
<!-- Node13&#45;&gt;Node16 -->
<g id="edge18" class="edge">
<title>Node13&#45;&gt;Node16</title>
<path fill="none" stroke="midnightblue" d="M190.5,-224.32C199.67,-216.34 213.48,-204.31 224.57,-194.65"/>
<polygon fill="midnightblue" stroke="midnightblue" points="227.16,-197.04 232.4,-187.83 222.56,-191.76 227.16,-197.04"/>
</g>
<!-- Node14&#45;&gt;Node10 -->
<g id="edge16" class="edge">
<title>Node14&#45;&gt;Node10</title>
<path fill="none" stroke="midnightblue" d="M78.86,-168.32C87.44,-160.34 100.36,-148.31 110.73,-138.65"/>
<polygon fill="midnightblue" stroke="midnightblue" points="113.12,-141.21 118.05,-131.83 108.35,-136.09 113.12,-141.21"/>
</g>
</g>
</svg>
