<?xml version="1.0" encoding="UTF-8" standalone="no"?>
<!DOCTYPE svg PUBLIC "-//W3C//DTD SVG 1.1//EN"
 "http://www.w3.org/Graphics/SVG/1.1/DTD/svg11.dtd">
<!-- Generated by graphviz version 2.47.1 (20210421.1823)
 -->
<!-- Title: src/util/geometry.cpp Pages: 1 -->
<svg width="253pt" height="196pt"
 viewBox="0.00 0.00 253.00 196.00" xmlns="http://www.w3.org/2000/svg" xmlns:xlink="http://www.w3.org/1999/xlink">
<g id="graph0" class="graph" transform="scale(1 1) rotate(0) translate(4 192)">
<title>src/util/geometry.cpp</title>
<polygon fill="white" stroke="transparent" points="-4,4 -4,-192 249,-192 249,4 -4,4"/>
<!-- Node1 -->
<g id="node1" class="node">
<title>Node1</title>
<g id="a_node1"><a xlink:title=" ">
<polygon fill="#bfbfbf" stroke="black" points="83.5,-168.5 83.5,-187.5 190.5,-187.5 190.5,-168.5 83.5,-168.5"/>
<text text-anchor="middle" x="137" y="-175.5" font-family="Helvetica,sans-Serif" font-size="10.00">src/util/geometry.cpp</text>
</a>
</g>
</g>
<!-- Node2 -->
<g id="node2" class="node">
<title>Node2</title>
<g id="a_node2"><a xlink:href="geometry_8h.html" target="_top" xlink:title=" ">
<polygon fill="white" stroke="black" points="11,-112.5 11,-131.5 91,-131.5 91,-112.5 11,-112.5"/>
<text text-anchor="middle" x="51" y="-119.5" font-family="Helvetica,sans-Serif" font-size="10.00">util/geometry.h</text>
</a>
</g>
</g>
<!-- Node1&#45;&gt;Node2 -->
<g id="edge1" class="edge">
<title>Node1&#45;&gt;Node2</title>
<path fill="none" stroke="midnightblue" d="M123.18,-168.32C109.77,-159.9 89.18,-146.97 73.41,-137.07"/>
<polygon fill="midnightblue" stroke="midnightblue" points="75.11,-134.01 64.78,-131.65 71.39,-139.94 75.11,-134.01"/>
</g>
<!-- Node7 -->
<g id="node7" class="node">
<title>Node7</title>
<g id="a_node7"><a xlink:title=" ">
<polygon fill="white" stroke="#bfbfbf" points="109,-112.5 109,-131.5 165,-131.5 165,-112.5 109,-112.5"/>
<text text-anchor="middle" x="137" y="-119.5" font-family="Helvetica,sans-Serif" font-size="10.00">algorithm</text>
</a>
</g>
</g>
<!-- Node1&#45;&gt;Node7 -->
<g id="edge7" class="edge">
<title>Node1&#45;&gt;Node7</title>
<path fill="none" stroke="midnightblue" d="M137,-168.08C137,-161.01 137,-150.86 137,-141.99"/>
<polygon fill="midnightblue" stroke="midnightblue" points="140.5,-141.75 137,-131.75 133.5,-141.75 140.5,-141.75"/>
</g>
<!-- Node8 -->
<g id="node8" class="node">
<title>Node8</title>
<g id="a_node8"><a xlink:title=" ">
<polygon fill="white" stroke="#bfbfbf" points="183,-112.5 183,-131.5 227,-131.5 227,-112.5 183,-112.5"/>
<text text-anchor="middle" x="205" y="-119.5" font-family="Helvetica,sans-Serif" font-size="10.00">cmath</text>
</a>
</g>
</g>
<!-- Node1&#45;&gt;Node8 -->
<g id="edge8" class="edge">
<title>Node1&#45;&gt;Node8</title>
<path fill="none" stroke="midnightblue" d="M147.93,-168.32C158.17,-160.18 173.72,-147.84 186,-138.09"/>
<polygon fill="midnightblue" stroke="midnightblue" points="188.22,-140.79 193.88,-131.83 183.87,-135.31 188.22,-140.79"/>
</g>
<!-- Node3 -->
<g id="node3" class="node">
<title>Node3</title>
<g id="a_node3"><a xlink:title=" ">
<polygon fill="white" stroke="#bfbfbf" points="0,-0.5 0,-19.5 44,-19.5 44,-0.5 0,-0.5"/>
<text text-anchor="middle" x="22" y="-7.5" font-family="Helvetica,sans-Serif" font-size="10.00">vector</text>
</a>
</g>
</g>
<!-- Node2&#45;&gt;Node3 -->
<g id="edge2" class="edge">
<title>Node2&#45;&gt;Node3</title>
<path fill="none" stroke="midnightblue" d="M48.41,-112.4C45.71,-103.37 41.4,-88.73 38,-76 33.87,-60.54 29.55,-42.91 26.45,-29.92"/>
<polygon fill="midnightblue" stroke="midnightblue" points="29.77,-28.78 24.06,-19.86 22.96,-30.4 29.77,-28.78"/>
</g>
<!-- Node4 -->
<g id="node4" class="node">
<title>Node4</title>
<g id="a_node4"><a xlink:href="cellgen_8h.html" target="_top" xlink:title=" ">
<polygon fill="white" stroke="black" points="47.5,-56.5 47.5,-75.5 118.5,-75.5 118.5,-56.5 47.5,-56.5"/>
<text text-anchor="middle" x="83" y="-63.5" font-family="Helvetica,sans-Serif" font-size="10.00">util/cellgen.h</text>
</a>
</g>
</g>
<!-- Node2&#45;&gt;Node4 -->
<g id="edge3" class="edge">
<title>Node2&#45;&gt;Node4</title>
<path fill="none" stroke="midnightblue" d="M56.28,-112.08C60.71,-104.61 67.16,-93.72 72.62,-84.52"/>
<polygon fill="midnightblue" stroke="midnightblue" points="75.73,-86.14 77.81,-75.75 69.71,-82.57 75.73,-86.14"/>
</g>
<!-- Node4&#45;&gt;Node3 -->
<g id="edge4" class="edge">
<title>Node4&#45;&gt;Node3</title>
<path fill="none" stroke="midnightblue" d="M73.2,-56.32C64.18,-48.34 50.59,-36.31 39.68,-26.65"/>
<polygon fill="midnightblue" stroke="midnightblue" points="41.79,-23.84 31.98,-19.83 37.15,-29.08 41.79,-23.84"/>
</g>
<!-- Node5 -->
<g id="node5" class="node">
<title>Node5</title>
<g id="a_node5"><a xlink:title=" ">
<polygon fill="white" stroke="#bfbfbf" points="63.5,-0.5 63.5,-19.5 98.5,-19.5 98.5,-0.5 63.5,-0.5"/>
<text text-anchor="middle" x="81" y="-7.5" font-family="Helvetica,sans-Serif" font-size="10.00">map</text>
</a>
</g>
</g>
<!-- Node4&#45;&gt;Node5 -->
<g id="edge5" class="edge">
<title>Node4&#45;&gt;Node5</title>
<path fill="none" stroke="midnightblue" d="M82.67,-56.08C82.41,-49.01 82.03,-38.86 81.7,-29.99"/>
<polygon fill="midnightblue" stroke="midnightblue" points="85.19,-29.61 81.32,-19.75 78.2,-29.87 85.19,-29.61"/>
</g>
<!-- Node6 -->
<g id="node6" class="node">
<title>Node6</title>
<g id="a_node6"><a xlink:title=" ">
<polygon fill="white" stroke="#bfbfbf" points="117,-0.5 117,-19.5 245,-19.5 245,-0.5 117,-0.5"/>
<text text-anchor="middle" x="181" y="-7.5" font-family="Helvetica,sans-Serif" font-size="10.00">scanline_triangulation.hpp</text>
</a>
</g>
</g>
<!-- Node4&#45;&gt;Node6 -->
<g id="edge6" class="edge">
<title>Node4&#45;&gt;Node6</title>
<path fill="none" stroke="midnightblue" d="M98.75,-56.32C114.32,-47.74 138.38,-34.49 156.46,-24.52"/>
<polygon fill="midnightblue" stroke="midnightblue" points="158.22,-27.55 165.29,-19.65 154.85,-21.42 158.22,-27.55"/>
</g>
</g>
</svg>
