<?xml version="1.0" encoding="UTF-8" standalone="no"?>
<!DOCTYPE svg PUBLIC "-//W3C//DTD SVG 1.1//EN"
 "http://www.w3.org/Graphics/SVG/1.1/DTD/svg11.dtd">
<!-- Generated by graphviz version 2.47.1 (20210421.1823)
 -->
<!-- Title: include/util/geometry.h Pages: 1 -->
<svg width="1804pt" height="553pt"
 viewBox="0.00 0.00 1803.50 553.00" xmlns="http://www.w3.org/2000/svg" xmlns:xlink="http://www.w3.org/1999/xlink">
<g id="graph0" class="graph" transform="scale(1 1) rotate(0) translate(4 549)">
<title>include/util/geometry.h</title>
<polygon fill="white" stroke="transparent" points="-4,4 -4,-549 1799.5,-549 1799.5,4 -4,4"/>
<!-- Node1 -->
<g id="node1" class="node">
<title>Node1</title>
<g id="a_node1"><a xlink:title=" ">
<polygon fill="#bfbfbf" stroke="black" points="1063,-525.5 1063,-544.5 1176,-544.5 1176,-525.5 1063,-525.5"/>
<text text-anchor="middle" x="1119.5" y="-532.5" font-family="Helvetica,sans-Serif" font-size="10.00">include/util/geometry.h</text>
</a>
</g>
</g>
<!-- Node2 -->
<g id="node2" class="node">
<title>Node2</title>
<g id="a_node2"><a xlink:href="geometry_8cpp.html" target="_top" xlink:title=" ">
<polygon fill="white" stroke="black" points="998,-469.5 998,-488.5 1105,-488.5 1105,-469.5 998,-469.5"/>
<text text-anchor="middle" x="1051.5" y="-476.5" font-family="Helvetica,sans-Serif" font-size="10.00">src/util/geometry.cpp</text>
</a>
</g>
</g>
<!-- Node1&#45;&gt;Node2 -->
<g id="edge1" class="edge">
<title>Node1&#45;&gt;Node2</title>
<path fill="none" stroke="midnightblue" d="M1100.74,-519.1C1088.5,-509.38 1072.94,-497.03 1062.62,-488.83"/>
<polygon fill="midnightblue" stroke="midnightblue" points="1098.57,-521.85 1108.57,-525.32 1102.92,-516.36 1098.57,-521.85"/>
</g>
<!-- Node3 -->
<g id="node3" class="node">
<title>Node3</title>
<g id="a_node3"><a xlink:href="_cell_8h.html" target="_top" xlink:title=" ">
<polygon fill="white" stroke="black" points="1123.5,-469.5 1123.5,-488.5 1251.5,-488.5 1251.5,-469.5 1123.5,-469.5"/>
<text text-anchor="middle" x="1187.5" y="-476.5" font-family="Helvetica,sans-Serif" font-size="10.00">include/GameLogic/Cell.h</text>
</a>
</g>
</g>
<!-- Node1&#45;&gt;Node3 -->
<g id="edge2" class="edge">
<title>Node1&#45;&gt;Node3</title>
<path fill="none" stroke="midnightblue" d="M1138.26,-519.1C1150.5,-509.38 1166.06,-497.03 1176.38,-488.83"/>
<polygon fill="midnightblue" stroke="midnightblue" points="1136.08,-516.36 1130.43,-525.32 1140.43,-521.85 1136.08,-516.36"/>
</g>
<!-- Node4 -->
<g id="node4" class="node">
<title>Node4</title>
<g id="a_node4"><a xlink:href="_cell_8cpp.html" target="_top" xlink:title=" ">
<polygon fill="white" stroke="black" points="847,-408 847,-427 968,-427 968,-408 847,-408"/>
<text text-anchor="middle" x="907.5" y="-415" font-family="Helvetica,sans-Serif" font-size="10.00">src/GameLogic/Cell.cpp</text>
</a>
</g>
</g>
<!-- Node3&#45;&gt;Node4 -->
<g id="edge3" class="edge">
<title>Node3&#45;&gt;Node4</title>
<path fill="none" stroke="midnightblue" d="M1137.29,-467.33C1082.99,-455.79 997.51,-437.63 947.54,-427.01"/>
<polygon fill="midnightblue" stroke="midnightblue" points="1136.87,-470.82 1147.38,-469.48 1138.33,-463.97 1136.87,-470.82"/>
</g>
<!-- Node5 -->
<g id="node5" class="node">
<title>Node5</title>
<g id="a_node5"><a xlink:href="main_8cpp.html" target="_top" xlink:title=" ">
<polygon fill="white" stroke="black" points="1723.5,-73 1723.5,-92 1795.5,-92 1795.5,-73 1723.5,-73"/>
<text text-anchor="middle" x="1759.5" y="-80" font-family="Helvetica,sans-Serif" font-size="10.00">src/main.cpp</text>
</a>
</g>
</g>
<!-- Node3&#45;&gt;Node5 -->
<g id="edge4" class="edge">
<title>Node3&#45;&gt;Node5</title>
<path fill="none" stroke="midnightblue" d="M1261.9,-475.86C1375.17,-471.75 1585.04,-460.59 1654.5,-433 1709.4,-411.19 1759.5,-410.57 1759.5,-351.5 1759.5,-351.5 1759.5,-351.5 1759.5,-215.5 1759.5,-168.98 1759.5,-113.24 1759.5,-92.15"/>
<polygon fill="midnightblue" stroke="midnightblue" points="1261.45,-472.37 1251.58,-476.22 1261.7,-479.36 1261.45,-472.37"/>
</g>
<!-- Node6 -->
<g id="node6" class="node">
<title>Node6</title>
<g id="a_node6"><a xlink:href="_set_squad_path_8h.html" target="_top" xlink:title=" ">
<polygon fill="white" stroke="black" points="412,-268.5 412,-298.5 525,-298.5 525,-268.5 412,-268.5"/>
<text text-anchor="start" x="420" y="-286.5" font-family="Helvetica,sans-Serif" font-size="10.00">include/engine/actions</text>
<text text-anchor="middle" x="468.5" y="-275.5" font-family="Helvetica,sans-Serif" font-size="10.00">/SetSquadPath.h</text>
</a>
</g>
</g>
<!-- Node3&#45;&gt;Node6 -->
<g id="edge5" class="edge">
<title>Node3&#45;&gt;Node6</title>
<path fill="none" stroke="midnightblue" d="M1151.26,-465.87C1107.75,-449.81 1032.99,-421.29 967.5,-402 924.73,-389.4 646.96,-326.61 525.3,-298.34"/>
<polygon fill="midnightblue" stroke="midnightblue" points="1150.24,-469.22 1160.83,-469.38 1152.65,-462.65 1150.24,-469.22"/>
</g>
<!-- Node9 -->
<g id="node9" class="node">
<title>Node9</title>
<g id="a_node9"><a xlink:href="_game_logic_2_squad_2_action_8h.html" target="_top" xlink:title=" ">
<polygon fill="white" stroke="black" points="1122,-402.5 1122,-432.5 1253,-432.5 1253,-402.5 1122,-402.5"/>
<text text-anchor="start" x="1130" y="-420.5" font-family="Helvetica,sans-Serif" font-size="10.00">include/GameLogic/Squad</text>
<text text-anchor="middle" x="1187.5" y="-409.5" font-family="Helvetica,sans-Serif" font-size="10.00">/Action.h</text>
</a>
</g>
</g>
<!-- Node3&#45;&gt;Node9 -->
<g id="edge9" class="edge">
<title>Node3&#45;&gt;Node9</title>
<path fill="none" stroke="midnightblue" d="M1187.5,-459.23C1187.5,-450.59 1187.5,-440.5 1187.5,-432.52"/>
<polygon fill="midnightblue" stroke="midnightblue" points="1184,-459.48 1187.5,-469.48 1191,-459.48 1184,-459.48"/>
</g>
<!-- Node11 -->
<g id="node11" class="node">
<title>Node11</title>
<g id="a_node11"><a xlink:href="_squad_8h.html" target="_top" xlink:title=" ">
<polygon fill="white" stroke="black" points="1043,-335.5 1043,-365.5 1174,-365.5 1174,-335.5 1043,-335.5"/>
<text text-anchor="start" x="1051" y="-353.5" font-family="Helvetica,sans-Serif" font-size="10.00">include/GameLogic/Squad</text>
<text text-anchor="middle" x="1108.5" y="-342.5" font-family="Helvetica,sans-Serif" font-size="10.00">/Squad.h</text>
</a>
</g>
</g>
<!-- Node3&#45;&gt;Node11 -->
<g id="edge64" class="edge">
<title>Node3&#45;&gt;Node11</title>
<path fill="none" stroke="midnightblue" d="M1143.65,-465.43C1128.09,-458.3 1112.35,-447.78 1103.5,-433 1091.05,-412.22 1093.45,-382.84 1099.1,-365.62"/>
<polygon fill="midnightblue" stroke="midnightblue" points="1142.68,-468.81 1153.26,-469.44 1145.38,-462.36 1142.68,-468.81"/>
</g>
<!-- Node22 -->
<g id="node22" class="node">
<title>Node22</title>
<g id="a_node22"><a xlink:href="_factory_8h.html" target="_top" xlink:title=" ">
<polygon fill="white" stroke="black" points="1167,-201.5 1167,-231.5 1294,-231.5 1294,-201.5 1167,-201.5"/>
<text text-anchor="start" x="1175" y="-219.5" font-family="Helvetica,sans-Serif" font-size="10.00">include/GameLogic/Units</text>
<text text-anchor="middle" x="1230.5" y="-208.5" font-family="Helvetica,sans-Serif" font-size="10.00">/Factory.h</text>
</a>
</g>
</g>
<!-- Node3&#45;&gt;Node22 -->
<g id="edge65" class="edge">
<title>Node3&#45;&gt;Node22</title>
<path fill="none" stroke="midnightblue" d="M1223.74,-465.15C1238.17,-458.05 1253.28,-447.62 1261.5,-433 1299.48,-365.46 1256.75,-267.9 1238.22,-231.71"/>
<polygon fill="midnightblue" stroke="midnightblue" points="1222.1,-462.05 1214.43,-469.36 1224.98,-468.43 1222.1,-462.05"/>
</g>
<!-- Node40 -->
<g id="node40" class="node">
<title>Node40</title>
<g id="a_node40"><a xlink:href="pathfinding_8h.html" target="_top" xlink:title=" ">
<polygon fill="white" stroke="black" points="1309.5,-274 1309.5,-293 1429.5,-293 1429.5,-274 1309.5,-274"/>
<text text-anchor="middle" x="1369.5" y="-281" font-family="Helvetica,sans-Serif" font-size="10.00">include/util/pathfinding.h</text>
</a>
</g>
</g>
<!-- Node3&#45;&gt;Node40 -->
<g id="edge66" class="edge">
<title>Node3&#45;&gt;Node40</title>
<path fill="none" stroke="midnightblue" d="M1234.73,-466.41C1255.33,-459.46 1278.59,-448.81 1295.5,-433 1339.69,-391.69 1361.18,-318.23 1367.47,-293.16"/>
<polygon fill="midnightblue" stroke="midnightblue" points="1233.66,-463.08 1225.18,-469.44 1235.77,-469.75 1233.66,-463.08"/>
</g>
<!-- Node6&#45;&gt;Node3 -->
<g id="edge8" class="edge">
<title>Node6&#45;&gt;Node3</title>
<path fill="none" stroke="midnightblue" d="M534.87,-298.29C664.64,-326.54 942.71,-389.39 985.5,-402 1056.09,-422.8 1137.46,-454.31 1171.59,-469.38"/>
<polygon fill="midnightblue" stroke="midnightblue" points="535.55,-294.86 525.04,-296.15 534.06,-301.7 535.55,-294.86"/>
</g>
<!-- Node7 -->
<g id="node7" class="node">
<title>Node7</title>
<g id="a_node7"><a xlink:href="engine_2_action_8cpp.html" target="_top" xlink:title=" ">
<polygon fill="white" stroke="black" points="154.5,-207 154.5,-226 264.5,-226 264.5,-207 154.5,-207"/>
<text text-anchor="middle" x="209.5" y="-214" font-family="Helvetica,sans-Serif" font-size="10.00">src/engine/Action.cpp</text>
</a>
</g>
</g>
<!-- Node6&#45;&gt;Node7 -->
<g id="edge6" class="edge">
<title>Node6&#45;&gt;Node7</title>
<path fill="none" stroke="midnightblue" d="M402.71,-265.99C351.96,-253.25 283.81,-236.15 243.48,-226.03"/>
<polygon fill="midnightblue" stroke="midnightblue" points="402.07,-269.44 412.62,-268.48 403.77,-262.65 402.07,-269.44"/>
</g>
<!-- Node8 -->
<g id="node8" class="node">
<title>Node8</title>
<g id="a_node8"><a xlink:href="_set_squad_path_8cpp.html" target="_top" xlink:title=" ">
<polygon fill="white" stroke="black" points="35,-201.5 35,-231.5 136,-231.5 136,-201.5 35,-201.5"/>
<text text-anchor="start" x="43" y="-219.5" font-family="Helvetica,sans-Serif" font-size="10.00">src/engine/actions</text>
<text text-anchor="middle" x="85.5" y="-208.5" font-family="Helvetica,sans-Serif" font-size="10.00">/SetSquadPath.cpp</text>
</a>
</g>
</g>
<!-- Node6&#45;&gt;Node8 -->
<g id="edge7" class="edge">
<title>Node6&#45;&gt;Node8</title>
<path fill="none" stroke="midnightblue" d="M401.76,-273.69C336.25,-264.67 233.62,-249.5 145.5,-232 142.45,-231.39 139.32,-230.74 136.17,-230.06"/>
<polygon fill="midnightblue" stroke="midnightblue" points="401.56,-277.2 411.95,-275.09 402.51,-270.27 401.56,-277.2"/>
</g>
<!-- Node10 -->
<g id="node10" class="node">
<title>Node10</title>
<g id="a_node10"><a xlink:href="_game_logic_2_squad_2_action_8cpp.html" target="_top" xlink:title=" ">
<polygon fill="white" stroke="black" points="1312.5,-201.5 1312.5,-231.5 1426.5,-231.5 1426.5,-201.5 1312.5,-201.5"/>
<text text-anchor="start" x="1320.5" y="-219.5" font-family="Helvetica,sans-Serif" font-size="10.00">src/GameLogic/Squad</text>
<text text-anchor="middle" x="1369.5" y="-208.5" font-family="Helvetica,sans-Serif" font-size="10.00">/Action.cpp</text>
</a>
</g>
</g>
<!-- Node9&#45;&gt;Node10 -->
<g id="edge10" class="edge">
<title>Node9&#45;&gt;Node10</title>
<path fill="none" stroke="midnightblue" d="M1201.85,-393.66C1221.74,-363.03 1259.85,-307.9 1300.5,-268 1314.59,-254.17 1332.66,-241.08 1346.78,-231.69"/>
<polygon fill="midnightblue" stroke="midnightblue" points="1198.74,-392.03 1196.28,-402.34 1204.63,-395.81 1198.74,-392.03"/>
</g>
<!-- Node9&#45;&gt;Node11 -->
<g id="edge11" class="edge">
<title>Node9&#45;&gt;Node11</title>
<path fill="none" stroke="midnightblue" d="M1156.48,-396.17C1143.65,-386.23 1129.62,-374.51 1119.93,-365.58"/>
<polygon fill="midnightblue" stroke="midnightblue" points="1154.6,-399.14 1164.68,-402.4 1158.83,-393.56 1154.6,-399.14"/>
</g>
<!-- Node11&#45;&gt;Node3 -->
<g id="edge14" class="edge">
<title>Node11&#45;&gt;Node3</title>
<path fill="none" stroke="midnightblue" d="M1111.47,-375.96C1111.07,-393.12 1111.29,-415.95 1121.5,-433 1132.19,-450.85 1152.92,-462.48 1168.5,-469.44"/>
<polygon fill="midnightblue" stroke="midnightblue" points="1114.98,-375.7 1111.73,-365.62 1107.98,-375.52 1114.98,-375.7"/>
</g>
<!-- Node11&#45;&gt;Node6 -->
<g id="edge13" class="edge">
<title>Node11&#45;&gt;Node6</title>
<path fill="none" stroke="midnightblue" d="M1032.43,-335.51C1031.11,-335.34 1029.8,-335.16 1028.5,-335 809.67,-307.29 751.73,-331.1 533.5,-299 530.75,-298.6 527.95,-298.14 525.13,-297.65"/>
<polygon fill="midnightblue" stroke="midnightblue" points="1032.27,-339.03 1042.66,-336.99 1033.27,-332.1 1032.27,-339.03"/>
</g>
<!-- Node11&#45;&gt;Node9 -->
<g id="edge15" class="edge">
<title>Node11&#45;&gt;Node9</title>
<path fill="none" stroke="midnightblue" d="M1139.48,-371.8C1152.31,-381.74 1166.34,-393.45 1176.04,-402.4"/>
<polygon fill="midnightblue" stroke="midnightblue" points="1141.36,-368.84 1131.28,-365.58 1137.13,-374.41 1141.36,-368.84"/>
</g>
<!-- Node12 -->
<g id="node12" class="node">
<title>Node12</title>
<g id="a_node12"><a xlink:href="_squad_8cpp.html" target="_top" xlink:title=" ">
<polygon fill="white" stroke="black" points="1234.5,-67.5 1234.5,-97.5 1348.5,-97.5 1348.5,-67.5 1234.5,-67.5"/>
<text text-anchor="start" x="1242.5" y="-85.5" font-family="Helvetica,sans-Serif" font-size="10.00">src/GameLogic/Squad</text>
<text text-anchor="middle" x="1291.5" y="-74.5" font-family="Helvetica,sans-Serif" font-size="10.00">/Squad.cpp</text>
</a>
</g>
</g>
<!-- Node11&#45;&gt;Node12 -->
<g id="edge12" class="edge">
<title>Node11&#45;&gt;Node12</title>
<path fill="none" stroke="midnightblue" d="M1108.19,-325.19C1108.95,-281.52 1116.68,-189.2 1165.5,-134 1183.22,-113.96 1209.99,-101.77 1234.31,-94.4"/>
<polygon fill="midnightblue" stroke="midnightblue" points="1104.69,-325.41 1108.13,-335.43 1111.69,-325.45 1104.69,-325.41"/>
</g>
<!-- Node13 -->
<g id="node13" class="node">
<title>Node13</title>
<g id="a_node13"><a xlink:href="_unit_8h.html" target="_top" xlink:title=" ">
<polygon fill="white" stroke="black" points="543,-268.5 543,-298.5 670,-298.5 670,-268.5 543,-268.5"/>
<text text-anchor="start" x="551" y="-286.5" font-family="Helvetica,sans-Serif" font-size="10.00">include/GameLogic/Units</text>
<text text-anchor="middle" x="606.5" y="-275.5" font-family="Helvetica,sans-Serif" font-size="10.00">/Unit.h</text>
</a>
</g>
</g>
<!-- Node11&#45;&gt;Node13 -->
<g id="edge16" class="edge">
<title>Node11&#45;&gt;Node13</title>
<path fill="none" stroke="midnightblue" d="M1032.87,-337.11C1028.34,-336.37 1023.86,-335.66 1019.5,-335 896,-316.44 751.35,-300.35 670.09,-291.57"/>
<polygon fill="midnightblue" stroke="midnightblue" points="1032.4,-340.58 1042.84,-338.78 1033.56,-333.67 1032.4,-340.58"/>
</g>
<!-- Node11&#45;&gt;Node40 -->
<g id="edge61" class="edge">
<title>Node11&#45;&gt;Node40</title>
<path fill="none" stroke="midnightblue" d="M1174.79,-332.99C1225.94,-320.25 1294.62,-303.15 1335.25,-293.03"/>
<polygon fill="midnightblue" stroke="midnightblue" points="1173.67,-329.66 1164.81,-335.48 1175.36,-336.46 1173.67,-329.66"/>
</g>
<!-- Node13&#45;&gt;Node11 -->
<g id="edge18" class="edge">
<title>Node13&#45;&gt;Node11</title>
<path fill="none" stroke="midnightblue" d="M680.52,-291.33C766.68,-300.05 912.87,-316.27 1037.5,-335 1039.18,-335.25 1040.87,-335.51 1042.57,-335.78"/>
<polygon fill="midnightblue" stroke="midnightblue" points="680.61,-287.82 670.31,-290.31 679.91,-294.79 680.61,-287.82"/>
</g>
<!-- Node14 -->
<g id="node14" class="node">
<title>Node14</title>
<g id="a_node14"><a xlink:href="_unit_8cpp.html" target="_top" xlink:title=" ">
<polygon fill="white" stroke="black" points="277.5,-134.5 277.5,-164.5 387.5,-164.5 387.5,-134.5 277.5,-134.5"/>
<text text-anchor="start" x="285.5" y="-152.5" font-family="Helvetica,sans-Serif" font-size="10.00">src/GameLogic/Units</text>
<text text-anchor="middle" x="332.5" y="-141.5" font-family="Helvetica,sans-Serif" font-size="10.00">/Unit.cpp</text>
</a>
</g>
</g>
<!-- Node13&#45;&gt;Node14 -->
<g id="edge17" class="edge">
<title>Node13&#45;&gt;Node14</title>
<path fill="none" stroke="midnightblue" d="M566.21,-264.2C546.93,-255.08 523.71,-243.55 503.5,-232 481.78,-219.58 478.64,-212.66 456.5,-201 429.35,-186.7 397.23,-173.72 372.49,-164.5"/>
<polygon fill="midnightblue" stroke="midnightblue" points="564.78,-267.4 575.32,-268.48 567.75,-261.06 564.78,-267.4"/>
</g>
<!-- Node15 -->
<g id="node15" class="node">
<title>Node15</title>
<g id="a_node15"><a xlink:href="_squad_order_8h.html" target="_top" xlink:title=" ">
<polygon fill="white" stroke="black" points="0,-134.5 0,-164.5 131,-164.5 131,-134.5 0,-134.5"/>
<text text-anchor="start" x="8" y="-152.5" font-family="Helvetica,sans-Serif" font-size="10.00">include/GameLogic/Squad</text>
<text text-anchor="middle" x="65.5" y="-141.5" font-family="Helvetica,sans-Serif" font-size="10.00">/SquadOrder.h</text>
</a>
</g>
</g>
<!-- Node13&#45;&gt;Node15 -->
<g id="edge19" class="edge">
<title>Node13&#45;&gt;Node15</title>
<path fill="none" stroke="midnightblue" d="M532.94,-268.01C433.04,-251.62 399.82,-271.71 311.5,-232 291.62,-223.06 293.02,-210.7 273.5,-201 248.71,-188.68 182.31,-173.59 131.14,-163.13"/>
<polygon fill="midnightblue" stroke="midnightblue" points="532.37,-271.46 542.82,-269.71 533.56,-264.57 532.37,-271.46"/>
</g>
<!-- Node17 -->
<g id="node17" class="node">
<title>Node17</title>
<g id="a_node17"><a xlink:href="_armored_unit_8h.html" target="_top" xlink:title=" ">
<polygon fill="white" stroke="black" points="406,-134.5 406,-164.5 533,-164.5 533,-134.5 406,-134.5"/>
<text text-anchor="start" x="414" y="-152.5" font-family="Helvetica,sans-Serif" font-size="10.00">include/GameLogic/Units</text>
<text text-anchor="middle" x="469.5" y="-141.5" font-family="Helvetica,sans-Serif" font-size="10.00">/ArmoredUnit.h</text>
</a>
</g>
</g>
<!-- Node13&#45;&gt;Node17 -->
<g id="edge21" class="edge">
<title>Node13&#45;&gt;Node17</title>
<path fill="none" stroke="midnightblue" d="M573.69,-262.83C560.52,-254.19 545.63,-243.41 533.5,-232 511.1,-210.91 490.07,-181.63 478.57,-164.51"/>
<polygon fill="midnightblue" stroke="midnightblue" points="572.16,-266.01 582.47,-268.46 575.94,-260.12 572.16,-266.01"/>
</g>
<!-- Node13&#45;&gt;Node22 -->
<g id="edge26" class="edge">
<title>Node13&#45;&gt;Node22</title>
<path fill="none" stroke="midnightblue" d="M680.17,-274.83C803.61,-261.97 1050.15,-236.29 1166.67,-224.15"/>
<polygon fill="midnightblue" stroke="midnightblue" points="679.64,-271.36 670.06,-275.88 680.37,-278.32 679.64,-271.36"/>
</g>
<!-- Node34 -->
<g id="node34" class="node">
<title>Node34</title>
<g id="a_node34"><a xlink:href="_land_unit_8h.html" target="_top" xlink:title=" ">
<polygon fill="white" stroke="black" points="688,-201.5 688,-231.5 815,-231.5 815,-201.5 688,-201.5"/>
<text text-anchor="start" x="696" y="-219.5" font-family="Helvetica,sans-Serif" font-size="10.00">include/GameLogic/Units</text>
<text text-anchor="middle" x="751.5" y="-208.5" font-family="Helvetica,sans-Serif" font-size="10.00">/LandUnit.h</text>
</a>
</g>
</g>
<!-- Node13&#45;&gt;Node34 -->
<g id="edge49" class="edge">
<title>Node13&#45;&gt;Node34</title>
<path fill="none" stroke="midnightblue" d="M647.17,-264.27C670.26,-253.92 698.74,-241.15 720.1,-231.58"/>
<polygon fill="midnightblue" stroke="midnightblue" points="645.66,-261.11 637.96,-268.4 648.52,-267.5 645.66,-261.11"/>
</g>
<!-- Node36 -->
<g id="node36" class="node">
<title>Node36</title>
<g id="a_node36"><a xlink:href="_transport_unit_8h.html" target="_top" xlink:title=" ">
<polygon fill="white" stroke="black" points="543,-201.5 543,-231.5 670,-231.5 670,-201.5 543,-201.5"/>
<text text-anchor="start" x="551" y="-219.5" font-family="Helvetica,sans-Serif" font-size="10.00">include/GameLogic/Units</text>
<text text-anchor="middle" x="606.5" y="-208.5" font-family="Helvetica,sans-Serif" font-size="10.00">/TransportUnit.h</text>
</a>
</g>
</g>
<!-- Node13&#45;&gt;Node36 -->
<g id="edge52" class="edge">
<title>Node13&#45;&gt;Node36</title>
<path fill="none" stroke="midnightblue" d="M606.5,-258.11C606.5,-249.15 606.5,-239.32 606.5,-231.58"/>
<polygon fill="midnightblue" stroke="midnightblue" points="603,-258.4 606.5,-268.4 610,-258.4 603,-258.4"/>
</g>
<!-- Node38 -->
<g id="node38" class="node">
<title>Node38</title>
<g id="a_node38"><a xlink:href="_unit_order_8h.html" target="_top" xlink:title=" ">
<polygon fill="white" stroke="black" points="321,-201.5 321,-231.5 448,-231.5 448,-201.5 321,-201.5"/>
<text text-anchor="start" x="329" y="-219.5" font-family="Helvetica,sans-Serif" font-size="10.00">include/GameLogic/Units</text>
<text text-anchor="middle" x="384.5" y="-208.5" font-family="Helvetica,sans-Serif" font-size="10.00">/UnitOrder.h</text>
</a>
</g>
</g>
<!-- Node13&#45;&gt;Node38 -->
<g id="edge56" class="edge">
<title>Node13&#45;&gt;Node38</title>
<path fill="none" stroke="midnightblue" d="M543.18,-265.71C505.95,-255.14 459.94,-241.63 427.01,-231.61"/>
<polygon fill="midnightblue" stroke="midnightblue" points="542.36,-269.12 552.93,-268.48 544.27,-262.38 542.36,-269.12"/>
</g>
<!-- Node16 -->
<g id="node16" class="node">
<title>Node16</title>
<g id="a_node16"><a xlink:href="_squad_order_8cpp.html" target="_top" xlink:title=" ">
<polygon fill="white" stroke="black" points="8.5,-67.5 8.5,-97.5 122.5,-97.5 122.5,-67.5 8.5,-67.5"/>
<text text-anchor="start" x="16.5" y="-85.5" font-family="Helvetica,sans-Serif" font-size="10.00">src/GameLogic/Squad</text>
<text text-anchor="middle" x="65.5" y="-74.5" font-family="Helvetica,sans-Serif" font-size="10.00">/SquadOrder.cpp</text>
</a>
</g>
</g>
<!-- Node15&#45;&gt;Node16 -->
<g id="edge20" class="edge">
<title>Node15&#45;&gt;Node16</title>
<path fill="none" stroke="midnightblue" d="M65.5,-124.11C65.5,-115.15 65.5,-105.32 65.5,-97.58"/>
<polygon fill="midnightblue" stroke="midnightblue" points="62,-124.4 65.5,-134.4 69,-124.4 62,-124.4"/>
</g>
<!-- Node18 -->
<g id="node18" class="node">
<title>Node18</title>
<g id="a_node18"><a xlink:href="_armored_unit_8cpp.html" target="_top" xlink:title=" ">
<polygon fill="white" stroke="black" points="414.5,-67.5 414.5,-97.5 524.5,-97.5 524.5,-67.5 414.5,-67.5"/>
<text text-anchor="start" x="422.5" y="-85.5" font-family="Helvetica,sans-Serif" font-size="10.00">src/GameLogic/Units</text>
<text text-anchor="middle" x="469.5" y="-74.5" font-family="Helvetica,sans-Serif" font-size="10.00">/ArmoredUnit.cpp</text>
</a>
</g>
</g>
<!-- Node17&#45;&gt;Node18 -->
<g id="edge22" class="edge">
<title>Node17&#45;&gt;Node18</title>
<path fill="none" stroke="midnightblue" d="M469.5,-124.11C469.5,-115.15 469.5,-105.32 469.5,-97.58"/>
<polygon fill="midnightblue" stroke="midnightblue" points="466,-124.4 469.5,-134.4 473,-124.4 466,-124.4"/>
</g>
<!-- Node19 -->
<g id="node19" class="node">
<title>Node19</title>
<g id="a_node19"><a xlink:href="_armored_unit_factory_8h.html" target="_top" xlink:title=" ">
<polygon fill="white" stroke="black" points="685,-67.5 685,-97.5 812,-97.5 812,-67.5 685,-67.5"/>
<text text-anchor="start" x="693" y="-85.5" font-family="Helvetica,sans-Serif" font-size="10.00">include/GameLogic/Units</text>
<text text-anchor="middle" x="748.5" y="-74.5" font-family="Helvetica,sans-Serif" font-size="10.00">/ArmoredUnitFactory.h</text>
</a>
</g>
</g>
<!-- Node17&#45;&gt;Node19 -->
<g id="edge23" class="edge">
<title>Node17&#45;&gt;Node19</title>
<path fill="none" stroke="midnightblue" d="M539.53,-132.19C585.22,-121.54 644.27,-107.78 687.93,-97.61"/>
<polygon fill="midnightblue" stroke="midnightblue" points="538.64,-128.8 529.7,-134.48 540.23,-135.62 538.64,-128.8"/>
</g>
<!-- Node20 -->
<g id="node20" class="node">
<title>Node20</title>
<g id="a_node20"><a xlink:href="_all_units_8cpp.html" target="_top" xlink:title=" ">
<polygon fill="white" stroke="black" points="1015.5,-0.5 1015.5,-30.5 1125.5,-30.5 1125.5,-0.5 1015.5,-0.5"/>
<text text-anchor="start" x="1023.5" y="-18.5" font-family="Helvetica,sans-Serif" font-size="10.00">src/GameLogic/Units</text>
<text text-anchor="middle" x="1070.5" y="-7.5" font-family="Helvetica,sans-Serif" font-size="10.00">/AllUnits.cpp</text>
</a>
</g>
</g>
<!-- Node19&#45;&gt;Node20 -->
<g id="edge24" class="edge">
<title>Node19&#45;&gt;Node20</title>
<path fill="none" stroke="midnightblue" d="M822.09,-66.65C880.89,-54.78 962.01,-38.4 1015.33,-27.64"/>
<polygon fill="midnightblue" stroke="midnightblue" points="821.23,-63.25 812.12,-68.66 822.61,-70.11 821.23,-63.25"/>
</g>
<!-- Node21 -->
<g id="node21" class="node">
<title>Node21</title>
<g id="a_node21"><a xlink:href="_armored_unit_factory_8cpp.html" target="_top" xlink:title=" ">
<polygon fill="white" stroke="black" points="686,-0.5 686,-30.5 811,-30.5 811,-0.5 686,-0.5"/>
<text text-anchor="start" x="694" y="-18.5" font-family="Helvetica,sans-Serif" font-size="10.00">src/GameLogic/Units</text>
<text text-anchor="middle" x="748.5" y="-7.5" font-family="Helvetica,sans-Serif" font-size="10.00">/ArmoredUnitFactory.cpp</text>
</a>
</g>
</g>
<!-- Node19&#45;&gt;Node21 -->
<g id="edge25" class="edge">
<title>Node19&#45;&gt;Node21</title>
<path fill="none" stroke="midnightblue" d="M748.5,-57.11C748.5,-48.15 748.5,-38.32 748.5,-30.58"/>
<polygon fill="midnightblue" stroke="midnightblue" points="745,-57.4 748.5,-67.4 752,-57.4 745,-57.4"/>
</g>
<!-- Node22&#45;&gt;Node19 -->
<g id="edge41" class="edge">
<title>Node22&#45;&gt;Node19</title>
<path fill="none" stroke="midnightblue" d="M1156.87,-211.42C1058.95,-205.09 891.79,-190.84 836.5,-165 827.73,-160.9 785.25,-119.73 762.67,-97.53"/>
<polygon fill="midnightblue" stroke="midnightblue" points="1156.79,-214.93 1167,-212.07 1157.24,-207.94 1156.79,-214.93"/>
</g>
<!-- Node23 -->
<g id="node23" class="node">
<title>Node23</title>
<g id="a_node23"><a xlink:href="_spawn_action_8cpp.html" target="_top" xlink:title=" ">
<polygon fill="white" stroke="black" points="1174.5,-134.5 1174.5,-164.5 1270.5,-164.5 1270.5,-134.5 1174.5,-134.5"/>
<text text-anchor="start" x="1182.5" y="-152.5" font-family="Helvetica,sans-Serif" font-size="10.00">src/engine/actions</text>
<text text-anchor="middle" x="1222.5" y="-141.5" font-family="Helvetica,sans-Serif" font-size="10.00">/SpawnAction.cpp</text>
</a>
</g>
</g>
<!-- Node22&#45;&gt;Node23 -->
<g id="edge27" class="edge">
<title>Node22&#45;&gt;Node23</title>
<path fill="none" stroke="midnightblue" d="M1227.53,-191.4C1226.42,-182.37 1225.2,-172.41 1224.23,-164.58"/>
<polygon fill="midnightblue" stroke="midnightblue" points="1224.07,-191.9 1228.76,-201.4 1231.02,-191.04 1224.07,-191.9"/>
</g>
<!-- Node24 -->
<g id="node24" class="node">
<title>Node24</title>
<g id="a_node24"><a xlink:href="_factory_8cpp.html" target="_top" xlink:title=" ">
<polygon fill="white" stroke="black" points="1288.5,-134.5 1288.5,-164.5 1398.5,-164.5 1398.5,-134.5 1288.5,-134.5"/>
<text text-anchor="start" x="1296.5" y="-152.5" font-family="Helvetica,sans-Serif" font-size="10.00">src/GameLogic/Units</text>
<text text-anchor="middle" x="1343.5" y="-141.5" font-family="Helvetica,sans-Serif" font-size="10.00">/Factory.cpp</text>
</a>
</g>
</g>
<!-- Node22&#45;&gt;Node24 -->
<g id="edge28" class="edge">
<title>Node22&#45;&gt;Node24</title>
<path fill="none" stroke="midnightblue" d="M1263.89,-196.3C1281.57,-186.12 1302.9,-173.85 1319.03,-164.58"/>
<polygon fill="midnightblue" stroke="midnightblue" points="1261.94,-193.38 1255.02,-201.4 1265.43,-199.44 1261.94,-193.38"/>
</g>
<!-- Node25 -->
<g id="node25" class="node">
<title>Node25</title>
<g id="a_node25"><a xlink:href="_squad_template_8h.html" target="_top" xlink:title=" ">
<polygon fill="white" stroke="black" points="1417,-134.5 1417,-164.5 1548,-164.5 1548,-134.5 1417,-134.5"/>
<text text-anchor="start" x="1425" y="-152.5" font-family="Helvetica,sans-Serif" font-size="10.00">include/GameLogic/Squad</text>
<text text-anchor="middle" x="1482.5" y="-141.5" font-family="Helvetica,sans-Serif" font-size="10.00">/SquadTemplate.h</text>
</a>
</g>
</g>
<!-- Node22&#45;&gt;Node25 -->
<g id="edge29" class="edge">
<title>Node22&#45;&gt;Node25</title>
<path fill="none" stroke="midnightblue" d="M1294.79,-198.92C1335.91,-188.31 1388.68,-174.7 1427.79,-164.61"/>
<polygon fill="midnightblue" stroke="midnightblue" points="1293.68,-195.59 1284.87,-201.48 1295.43,-202.37 1293.68,-195.59"/>
</g>
<!-- Node29 -->
<g id="node29" class="node">
<title>Node29</title>
<g id="a_node29"><a xlink:href="_all_units_8h.html" target="_top" xlink:title=" ">
<polygon fill="white" stroke="black" points="1566,-134.5 1566,-164.5 1693,-164.5 1693,-134.5 1566,-134.5"/>
<text text-anchor="start" x="1574" y="-152.5" font-family="Helvetica,sans-Serif" font-size="10.00">include/GameLogic/Units</text>
<text text-anchor="middle" x="1629.5" y="-141.5" font-family="Helvetica,sans-Serif" font-size="10.00">/AllUnits.h</text>
</a>
</g>
</g>
<!-- Node22&#45;&gt;Node29 -->
<g id="edge34" class="edge">
<title>Node22&#45;&gt;Node29</title>
<path fill="none" stroke="midnightblue" d="M1304.25,-200.94C1417.18,-182.03 1447.71,-183.53 1556.5,-165 1559.56,-164.48 1562.68,-163.93 1565.84,-163.36"/>
<polygon fill="midnightblue" stroke="midnightblue" points="1303.44,-197.52 1294.16,-202.64 1304.61,-204.43 1303.44,-197.52"/>
</g>
<!-- Node30 -->
<g id="node30" class="node">
<title>Node30</title>
<g id="a_node30"><a xlink:href="_land_unit_factory_8h.html" target="_top" xlink:title=" ">
<polygon fill="white" stroke="black" points="991,-134.5 991,-164.5 1118,-164.5 1118,-134.5 991,-134.5"/>
<text text-anchor="start" x="999" y="-152.5" font-family="Helvetica,sans-Serif" font-size="10.00">include/GameLogic/Units</text>
<text text-anchor="middle" x="1054.5" y="-141.5" font-family="Helvetica,sans-Serif" font-size="10.00">/LandUnitFactory.h</text>
</a>
</g>
</g>
<!-- Node22&#45;&gt;Node30 -->
<g id="edge42" class="edge">
<title>Node22&#45;&gt;Node30</title>
<path fill="none" stroke="midnightblue" d="M1182.62,-197.82C1154.33,-187.37 1119.01,-174.32 1092.61,-164.58"/>
<polygon fill="midnightblue" stroke="midnightblue" points="1181.72,-201.21 1192.31,-201.4 1184.14,-194.65 1181.72,-201.21"/>
</g>
<!-- Node32 -->
<g id="node32" class="node">
<title>Node32</title>
<g id="a_node32"><a xlink:href="_transport_unit_factory_8h.html" target="_top" xlink:title=" ">
<polygon fill="white" stroke="black" points="846,-134.5 846,-164.5 973,-164.5 973,-134.5 846,-134.5"/>
<text text-anchor="start" x="854" y="-152.5" font-family="Helvetica,sans-Serif" font-size="10.00">include/GameLogic/Units</text>
<text text-anchor="middle" x="909.5" y="-141.5" font-family="Helvetica,sans-Serif" font-size="10.00">/TransportUnitFactory.h</text>
</a>
</g>
</g>
<!-- Node22&#45;&gt;Node32 -->
<g id="edge45" class="edge">
<title>Node22&#45;&gt;Node32</title>
<path fill="none" stroke="midnightblue" d="M1156.58,-200.53C1101.13,-189.3 1025.99,-174.09 973.18,-163.4"/>
<polygon fill="midnightblue" stroke="midnightblue" points="1156.2,-204.03 1166.7,-202.58 1157.59,-197.17 1156.2,-204.03"/>
</g>
<!-- Node26 -->
<g id="node26" class="node">
<title>Node26</title>
<g id="a_node26"><a xlink:href="_squad_template_8cpp.html" target="_top" xlink:title=" ">
<polygon fill="white" stroke="black" points="1403.5,-67.5 1403.5,-97.5 1517.5,-97.5 1517.5,-67.5 1403.5,-67.5"/>
<text text-anchor="start" x="1411.5" y="-85.5" font-family="Helvetica,sans-Serif" font-size="10.00">src/GameLogic/Squad</text>
<text text-anchor="middle" x="1460.5" y="-74.5" font-family="Helvetica,sans-Serif" font-size="10.00">/SquadTemplate.cpp</text>
</a>
</g>
</g>
<!-- Node25&#45;&gt;Node26 -->
<g id="edge30" class="edge">
<title>Node25&#45;&gt;Node26</title>
<path fill="none" stroke="midnightblue" d="M1474.44,-124.7C1471.36,-115.59 1467.94,-105.49 1465.26,-97.58"/>
<polygon fill="midnightblue" stroke="midnightblue" points="1471.21,-126.05 1477.73,-134.4 1477.84,-123.8 1471.21,-126.05"/>
</g>
<!-- Node27 -->
<g id="node27" class="node">
<title>Node27</title>
<g id="a_node27"><a xlink:href="_all_squad_templates_8h.html" target="_top" xlink:title=" ">
<polygon fill="white" stroke="black" points="1574,-67.5 1574,-97.5 1705,-97.5 1705,-67.5 1574,-67.5"/>
<text text-anchor="start" x="1582" y="-85.5" font-family="Helvetica,sans-Serif" font-size="10.00">include/GameLogic/Squad</text>
<text text-anchor="middle" x="1639.5" y="-74.5" font-family="Helvetica,sans-Serif" font-size="10.00">/AllSquadTemplates.h</text>
</a>
</g>
</g>
<!-- Node25&#45;&gt;Node27 -->
<g id="edge31" class="edge">
<title>Node25&#45;&gt;Node27</title>
<path fill="none" stroke="midnightblue" d="M1525.87,-130.54C1550.99,-120.14 1582.16,-107.24 1605.5,-97.58"/>
<polygon fill="midnightblue" stroke="midnightblue" points="1524.47,-127.34 1516.57,-134.4 1527.14,-133.8 1524.47,-127.34"/>
</g>
<!-- Node27&#45;&gt;Node3 -->
<g id="edge33" class="edge">
<title>Node27&#45;&gt;Node3</title>
<path fill="none" stroke="midnightblue" d="M1672.45,-103.4C1683.51,-111.59 1694.94,-122 1702.5,-134 1722.32,-165.47 1721.5,-178.31 1721.5,-215.5 1721.5,-351.5 1721.5,-351.5 1721.5,-351.5 1721.5,-447.07 1393.53,-470.54 1251.65,-476.22"/>
<polygon fill="midnightblue" stroke="midnightblue" points="1674.34,-100.44 1664.14,-97.57 1670.32,-106.18 1674.34,-100.44"/>
</g>
<!-- Node28 -->
<g id="node28" class="node">
<title>Node28</title>
<g id="a_node28"><a xlink:href="_all_squad_templates_8cpp.html" target="_top" xlink:title=" ">
<polygon fill="white" stroke="black" points="1578.5,-0.5 1578.5,-30.5 1700.5,-30.5 1700.5,-0.5 1578.5,-0.5"/>
<text text-anchor="start" x="1586.5" y="-18.5" font-family="Helvetica,sans-Serif" font-size="10.00">src/GameLogic/Squad</text>
<text text-anchor="middle" x="1639.5" y="-7.5" font-family="Helvetica,sans-Serif" font-size="10.00">/AllSquadTemplates.cpp</text>
</a>
</g>
</g>
<!-- Node27&#45;&gt;Node28 -->
<g id="edge32" class="edge">
<title>Node27&#45;&gt;Node28</title>
<path fill="none" stroke="midnightblue" d="M1639.5,-57.11C1639.5,-48.15 1639.5,-38.32 1639.5,-30.58"/>
<polygon fill="midnightblue" stroke="midnightblue" points="1636,-57.4 1639.5,-67.4 1643,-57.4 1636,-57.4"/>
</g>
<!-- Node29&#45;&gt;Node3 -->
<g id="edge39" class="edge">
<title>Node29&#45;&gt;Node3</title>
<path fill="none" stroke="midnightblue" d="M1622.18,-174.4C1614.8,-200.65 1604.5,-244.17 1604.5,-282.5 1604.5,-351.5 1604.5,-351.5 1604.5,-351.5 1604.5,-424.32 1368.71,-459.15 1251.74,-471.95"/>
<polygon fill="midnightblue" stroke="midnightblue" points="1625.6,-175.17 1625.03,-164.59 1618.88,-173.22 1625.6,-175.17"/>
</g>
<!-- Node29&#45;&gt;Node5 -->
<g id="edge38" class="edge">
<title>Node29&#45;&gt;Node5</title>
<path fill="none" stroke="midnightblue" d="M1666.89,-129.8C1691.82,-117.34 1723.39,-101.56 1742.49,-92.01"/>
<polygon fill="midnightblue" stroke="midnightblue" points="1665.09,-126.79 1657.71,-134.4 1668.22,-133.05 1665.09,-126.79"/>
</g>
<!-- Node29&#45;&gt;Node12 -->
<g id="edge35" class="edge">
<title>Node29&#45;&gt;Node12</title>
<path fill="none" stroke="midnightblue" d="M1555.84,-133.88C1478.17,-118.79 1400.13,-103.98 1348.65,-94.26"/>
<polygon fill="midnightblue" stroke="midnightblue" points="1555.32,-137.34 1565.8,-135.82 1556.66,-130.47 1555.32,-137.34"/>
</g>
<!-- Node29&#45;&gt;Node20 -->
<g id="edge37" class="edge">
<title>Node29&#45;&gt;Node20</title>
<path fill="none" stroke="midnightblue" d="M1603.03,-128.16C1591.19,-119.01 1577.09,-108.03 1564.5,-98 1547.45,-84.42 1546.6,-75.43 1526.5,-67 1455.35,-37.14 1230.7,-23.55 1125.65,-18.71"/>
<polygon fill="midnightblue" stroke="midnightblue" points="1601.14,-131.13 1611.2,-134.47 1605.42,-125.59 1601.14,-131.13"/>
</g>
<!-- Node29&#45;&gt;Node26 -->
<g id="edge36" class="edge">
<title>Node29&#45;&gt;Node26</title>
<path fill="none" stroke="midnightblue" d="M1583.17,-130.68C1556.07,-120.26 1522.33,-107.28 1497.1,-97.58"/>
<polygon fill="midnightblue" stroke="midnightblue" points="1582.24,-134.07 1592.83,-134.4 1584.75,-127.54 1582.24,-134.07"/>
</g>
<!-- Node29&#45;&gt;Node27 -->
<g id="edge40" class="edge">
<title>Node29&#45;&gt;Node27</title>
<path fill="none" stroke="midnightblue" d="M1633.21,-124.4C1634.6,-115.37 1636.13,-105.41 1637.33,-97.58"/>
<polygon fill="midnightblue" stroke="midnightblue" points="1629.73,-123.98 1631.67,-134.4 1636.65,-125.04 1629.73,-123.98"/>
</g>
<!-- Node30&#45;&gt;Node20 -->
<g id="edge43" class="edge">
<title>Node30&#45;&gt;Node20</title>
<path fill="none" stroke="midnightblue" d="M1101.34,-129.53C1114.43,-121.8 1127.09,-111.44 1134.5,-98 1141.15,-85.93 1140.51,-79.4 1134.5,-67 1126.91,-51.33 1111.84,-39.06 1098.22,-30.54"/>
<polygon fill="midnightblue" stroke="midnightblue" points="1099.38,-126.61 1092.27,-134.47 1102.73,-132.76 1099.38,-126.61"/>
</g>
<!-- Node31 -->
<g id="node31" class="node">
<title>Node31</title>
<g id="a_node31"><a xlink:href="_land_unit_factory_8cpp.html" target="_top" xlink:title=" ">
<polygon fill="white" stroke="black" points="1015.5,-67.5 1015.5,-97.5 1125.5,-97.5 1125.5,-67.5 1015.5,-67.5"/>
<text text-anchor="start" x="1023.5" y="-85.5" font-family="Helvetica,sans-Serif" font-size="10.00">src/GameLogic/Units</text>
<text text-anchor="middle" x="1070.5" y="-74.5" font-family="Helvetica,sans-Serif" font-size="10.00">/LandUnitFactory.cpp</text>
</a>
</g>
</g>
<!-- Node30&#45;&gt;Node31 -->
<g id="edge44" class="edge">
<title>Node30&#45;&gt;Node31</title>
<path fill="none" stroke="midnightblue" d="M1060.43,-124.4C1062.66,-115.37 1065.11,-105.41 1067.04,-97.58"/>
<polygon fill="midnightblue" stroke="midnightblue" points="1056.96,-123.85 1057.97,-134.4 1063.76,-125.52 1056.96,-123.85"/>
</g>
<!-- Node32&#45;&gt;Node19 -->
<g id="edge48" class="edge">
<title>Node32&#45;&gt;Node19</title>
<path fill="none" stroke="midnightblue" d="M865.02,-130.54C839.26,-120.14 807.3,-107.24 783.37,-97.58"/>
<polygon fill="midnightblue" stroke="midnightblue" points="863.98,-133.9 874.57,-134.4 866.6,-127.41 863.98,-133.9"/>
</g>
<!-- Node32&#45;&gt;Node20 -->
<g id="edge46" class="edge">
<title>Node32&#45;&gt;Node20</title>
<path fill="none" stroke="midnightblue" d="M933.99,-127.56C953.5,-110.97 981.58,-87.29 1006.5,-67 1021.87,-54.49 1039.57,-40.56 1052.45,-30.5"/>
<polygon fill="midnightblue" stroke="midnightblue" points="931.54,-125.06 926.19,-134.21 936.07,-130.39 931.54,-125.06"/>
</g>
<!-- Node33 -->
<g id="node33" class="node">
<title>Node33</title>
<g id="a_node33"><a xlink:href="_transport_unit_factory_8cpp.html" target="_top" xlink:title=" ">
<polygon fill="white" stroke="black" points="830,-67.5 830,-97.5 959,-97.5 959,-67.5 830,-67.5"/>
<text text-anchor="start" x="838" y="-85.5" font-family="Helvetica,sans-Serif" font-size="10.00">src/GameLogic/Units</text>
<text text-anchor="middle" x="894.5" y="-74.5" font-family="Helvetica,sans-Serif" font-size="10.00">/TransportUnitFactory.cpp</text>
</a>
</g>
</g>
<!-- Node32&#45;&gt;Node33 -->
<g id="edge47" class="edge">
<title>Node32&#45;&gt;Node33</title>
<path fill="none" stroke="midnightblue" d="M903.94,-124.4C901.85,-115.37 899.56,-105.41 897.75,-97.58"/>
<polygon fill="midnightblue" stroke="midnightblue" points="900.59,-125.44 906.25,-134.4 907.41,-123.87 900.59,-125.44"/>
</g>
<!-- Node34&#45;&gt;Node30 -->
<g id="edge51" class="edge">
<title>Node34&#45;&gt;Node30</title>
<path fill="none" stroke="midnightblue" d="M824.93,-199.75C875.62,-188.87 942.36,-174.56 990.8,-164.16"/>
<polygon fill="midnightblue" stroke="midnightblue" points="824.06,-196.35 815.02,-201.87 825.53,-203.2 824.06,-196.35"/>
</g>
<!-- Node35 -->
<g id="node35" class="node">
<title>Node35</title>
<g id="a_node35"><a xlink:href="_land_unit_8cpp.html" target="_top" xlink:title=" ">
<polygon fill="white" stroke="black" points="679.5,-134.5 679.5,-164.5 789.5,-164.5 789.5,-134.5 679.5,-134.5"/>
<text text-anchor="start" x="687.5" y="-152.5" font-family="Helvetica,sans-Serif" font-size="10.00">src/GameLogic/Units</text>
<text text-anchor="middle" x="734.5" y="-141.5" font-family="Helvetica,sans-Serif" font-size="10.00">/LandUnit.cpp</text>
</a>
</g>
</g>
<!-- Node34&#45;&gt;Node35 -->
<g id="edge50" class="edge">
<title>Node34&#45;&gt;Node35</title>
<path fill="none" stroke="midnightblue" d="M745.27,-191.7C742.89,-182.59 740.25,-172.49 738.18,-164.58"/>
<polygon fill="midnightblue" stroke="midnightblue" points="741.89,-192.61 747.81,-201.4 748.67,-190.84 741.89,-192.61"/>
</g>
<!-- Node36&#45;&gt;Node17 -->
<g id="edge54" class="edge">
<title>Node36&#45;&gt;Node17</title>
<path fill="none" stroke="midnightblue" d="M567.49,-196.99C545.78,-186.69 519.17,-174.07 499.17,-164.58"/>
<polygon fill="midnightblue" stroke="midnightblue" points="566.24,-200.27 576.77,-201.4 569.24,-193.95 566.24,-200.27"/>
</g>
<!-- Node36&#45;&gt;Node32 -->
<g id="edge55" class="edge">
<title>Node36&#45;&gt;Node32</title>
<path fill="none" stroke="midnightblue" d="M679.93,-199.75C730.62,-188.87 797.36,-174.56 845.8,-164.16"/>
<polygon fill="midnightblue" stroke="midnightblue" points="679.06,-196.35 670.02,-201.87 680.53,-203.2 679.06,-196.35"/>
</g>
<!-- Node37 -->
<g id="node37" class="node">
<title>Node37</title>
<g id="a_node37"><a xlink:href="_transport_unit_8cpp.html" target="_top" xlink:title=" ">
<polygon fill="white" stroke="black" points="551.5,-134.5 551.5,-164.5 661.5,-164.5 661.5,-134.5 551.5,-134.5"/>
<text text-anchor="start" x="559.5" y="-152.5" font-family="Helvetica,sans-Serif" font-size="10.00">src/GameLogic/Units</text>
<text text-anchor="middle" x="606.5" y="-141.5" font-family="Helvetica,sans-Serif" font-size="10.00">/TransportUnit.cpp</text>
</a>
</g>
</g>
<!-- Node36&#45;&gt;Node37 -->
<g id="edge53" class="edge">
<title>Node36&#45;&gt;Node37</title>
<path fill="none" stroke="midnightblue" d="M606.5,-191.11C606.5,-182.15 606.5,-172.32 606.5,-164.58"/>
<polygon fill="midnightblue" stroke="midnightblue" points="603,-191.4 606.5,-201.4 610,-191.4 603,-191.4"/>
</g>
<!-- Node38&#45;&gt;Node13 -->
<g id="edge60" class="edge">
<title>Node38&#45;&gt;Node13</title>
<path fill="none" stroke="midnightblue" d="M448.14,-234.38C485.43,-244.97 531.42,-258.47 564.27,-268.48"/>
<polygon fill="midnightblue" stroke="midnightblue" points="448.95,-230.97 438.37,-231.61 447.04,-237.7 448.95,-230.97"/>
</g>
<!-- Node38&#45;&gt;Node14 -->
<g id="edge57" class="edge">
<title>Node38&#45;&gt;Node14</title>
<path fill="none" stroke="midnightblue" d="M366.86,-193.45C359.22,-183.9 350.5,-173 343.76,-164.58"/>
<polygon fill="midnightblue" stroke="midnightblue" points="364.24,-195.77 373.22,-201.4 369.7,-191.4 364.24,-195.77"/>
</g>
<!-- Node38&#45;&gt;Node15 -->
<g id="edge59" class="edge">
<title>Node38&#45;&gt;Node15</title>
<path fill="none" stroke="midnightblue" d="M310.81,-200.48C256.52,-189.42 183.36,-174.52 131.09,-163.87"/>
<polygon fill="midnightblue" stroke="midnightblue" points="310.21,-203.94 320.71,-202.5 311.61,-197.08 310.21,-203.94"/>
</g>
<!-- Node39 -->
<g id="node39" class="node">
<title>Node39</title>
<g id="a_node39"><a xlink:href="_unit_order_8cpp.html" target="_top" xlink:title=" ">
<polygon fill="white" stroke="black" points="149.5,-134.5 149.5,-164.5 259.5,-164.5 259.5,-134.5 149.5,-134.5"/>
<text text-anchor="start" x="157.5" y="-152.5" font-family="Helvetica,sans-Serif" font-size="10.00">src/GameLogic/Units</text>
<text text-anchor="middle" x="204.5" y="-141.5" font-family="Helvetica,sans-Serif" font-size="10.00">/UnitOrder.cpp</text>
</a>
</g>
</g>
<!-- Node38&#45;&gt;Node39 -->
<g id="edge58" class="edge">
<title>Node38&#45;&gt;Node39</title>
<path fill="none" stroke="midnightblue" d="M335.91,-197.96C306.92,-187.48 270.59,-174.37 243.48,-164.58"/>
<polygon fill="midnightblue" stroke="midnightblue" points="334.85,-201.29 345.44,-201.4 337.23,-194.71 334.85,-201.29"/>
</g>
<!-- Node40&#45;&gt;Node10 -->
<g id="edge62" class="edge">
<title>Node40&#45;&gt;Node10</title>
<path fill="none" stroke="midnightblue" d="M1369.5,-263.41C1369.5,-253.22 1369.5,-240.9 1369.5,-231.59"/>
<polygon fill="midnightblue" stroke="midnightblue" points="1366,-263.73 1369.5,-273.73 1373,-263.73 1366,-263.73"/>
</g>
<!-- Node41 -->
<g id="node41" class="node">
<title>Node41</title>
<g id="a_node41"><a xlink:href="pathfinding_8cpp.html" target="_top" xlink:title=" ">
<polygon fill="white" stroke="black" points="1445,-207 1445,-226 1558,-226 1558,-207 1445,-207"/>
<text text-anchor="middle" x="1501.5" y="-214" font-family="Helvetica,sans-Serif" font-size="10.00">src/util/pathfinding.cpp</text>
</a>
</g>
</g>
<!-- Node40&#45;&gt;Node41 -->
<g id="edge63" class="edge">
<title>Node40&#45;&gt;Node41</title>
<path fill="none" stroke="midnightblue" d="M1396.01,-269.44C1422.16,-256.57 1461.38,-237.26 1483.9,-226.17"/>
<polygon fill="midnightblue" stroke="midnightblue" points="1394.45,-266.31 1387.03,-273.87 1397.55,-272.59 1394.45,-266.31"/>
</g>
</g>
</svg>
