<?xml version="1.0" encoding="UTF-8" standalone="no"?>
<!DOCTYPE svg PUBLIC "-//W3C//DTD SVG 1.1//EN"
 "http://www.w3.org/Graphics/SVG/1.1/DTD/svg11.dtd">
<!-- Generated by graphviz version 2.47.1 (20210421.1823)
 -->
<!-- Title: Graphical Class Hierarchy Pages: 1 -->
<svg width="224pt" height="104pt"
 viewBox="0.00 0.00 224.00 104.00" xmlns="http://www.w3.org/2000/svg" xmlns:xlink="http://www.w3.org/1999/xlink">
<g id="graph0" class="graph" transform="scale(1 1) rotate(0) translate(4 100)">
<title>Graphical Class Hierarchy</title>
<polygon fill="white" stroke="transparent" points="-4,4 -4,-100 220,-100 220,4 -4,4"/>
<!-- Node0 -->
<g id="node1" class="node">
<title>Node0</title>
<g id="a_node1"><a xlink:href="class_factory.html" target="_top" xlink:title=" ">
<polygon fill="white" stroke="black" points="0,-38.5 0,-57.5 49,-57.5 49,-38.5 0,-38.5"/>
<text text-anchor="middle" x="24.5" y="-45.5" font-family="Helvetica,sans-Serif" font-size="10.00">Factory</text>
</a>
</g>
</g>
<!-- Node1 -->
<g id="node2" class="node">
<title>Node1</title>
<g id="a_node2"><a xlink:href="class_land_unit_factory.html" target="_top" xlink:title=" ">
<polygon fill="white" stroke="black" points="106,-76.5 106,-95.5 195,-95.5 195,-76.5 106,-76.5"/>
<text text-anchor="middle" x="150.5" y="-83.5" font-family="Helvetica,sans-Serif" font-size="10.00">LandUnitFactory</text>
</a>
</g>
</g>
<!-- Node0&#45;&gt;Node1 -->
<g id="edge1" class="edge">
<title>Node0&#45;&gt;Node1</title>
<path fill="none" stroke="midnightblue" d="M58.84,-58.79C67.35,-61.51 76.51,-64.39 85,-67 95.27,-70.15 106.48,-73.49 116.64,-76.48"/>
<polygon fill="midnightblue" stroke="midnightblue" points="59.79,-55.42 49.2,-55.7 57.66,-62.09 59.79,-55.42"/>
</g>
<!-- Node2 -->
<g id="node3" class="node">
<title>Node2</title>
<g id="a_node3"><a xlink:href="class_transport_unit_factory.html" target="_top" xlink:title=" ">
<polygon fill="white" stroke="black" points="96.5,-38.5 96.5,-57.5 204.5,-57.5 204.5,-38.5 96.5,-38.5"/>
<text text-anchor="middle" x="150.5" y="-45.5" font-family="Helvetica,sans-Serif" font-size="10.00">TransportUnitFactory</text>
</a>
</g>
</g>
<!-- Node0&#45;&gt;Node2 -->
<g id="edge2" class="edge">
<title>Node0&#45;&gt;Node2</title>
<path fill="none" stroke="midnightblue" d="M59.14,-48C70.63,-48 83.78,-48 96.43,-48"/>
<polygon fill="midnightblue" stroke="midnightblue" points="59.12,-44.5 49.12,-48 59.12,-51.5 59.12,-44.5"/>
</g>
<!-- Node3 -->
<g id="node4" class="node">
<title>Node3</title>
<g id="a_node4"><a xlink:href="class_units_1_1_armored_unit_factory.html" target="_top" xlink:title=" ">
<polygon fill="white" stroke="black" points="85,-0.5 85,-19.5 216,-19.5 216,-0.5 85,-0.5"/>
<text text-anchor="middle" x="150.5" y="-7.5" font-family="Helvetica,sans-Serif" font-size="10.00">Units::ArmoredUnitFactory</text>
</a>
</g>
</g>
<!-- Node0&#45;&gt;Node3 -->
<g id="edge3" class="edge">
<title>Node0&#45;&gt;Node3</title>
<path fill="none" stroke="midnightblue" d="M58.84,-37.21C67.35,-34.49 76.51,-31.61 85,-29 95.27,-25.85 106.48,-22.51 116.64,-19.52"/>
<polygon fill="midnightblue" stroke="midnightblue" points="57.66,-33.91 49.2,-40.3 59.79,-40.58 57.66,-33.91"/>
</g>
</g>
</svg>
