<?xml version="1.0" encoding="UTF-8" standalone="no"?>
<!DOCTYPE svg PUBLIC "-//W3C//DTD SVG 1.1//EN"
 "http://www.w3.org/Graphics/SVG/1.1/DTD/svg11.dtd">
<!-- Generated by graphviz version 2.47.1 (20210421.1823)
 -->
<!-- Title: main Pages: 1 -->
<svg width="565pt" height="488pt"
 viewBox="0.00 0.00 565.00 488.00" xmlns="http://www.w3.org/2000/svg" xmlns:xlink="http://www.w3.org/1999/xlink">
<g id="graph0" class="graph" transform="scale(1 1) rotate(0) translate(4 484)">
<title>main</title>
<polygon fill="white" stroke="transparent" points="-4,4 -4,-484 561,-484 561,4 -4,4"/>
<!-- Node1 -->
<g id="node1" class="node">
<title>Node1</title>
<g id="a_node1"><a xlink:title=" ">
<polygon fill="#bfbfbf" stroke="black" points="0,-156 0,-175 38,-175 38,-156 0,-156"/>
<text text-anchor="middle" x="19" y="-163" font-family="Helvetica,sans-Serif" font-size="10.00">main</text>
</a>
</g>
</g>
<!-- Node2 -->
<g id="node2" class="node">
<title>Node2</title>
<g id="a_node2"><a xlink:href="classengine_1_1game_controller.html#a8b6d49e687f038d5f9a275a6b2c664fb" target="_top" xlink:title=" ">
<polygon fill="white" stroke="black" points="75,-400.5 75,-430.5 190,-430.5 190,-400.5 75,-400.5"/>
<text text-anchor="start" x="83" y="-418.5" font-family="Helvetica,sans-Serif" font-size="10.00">engine::gameController</text>
<text text-anchor="middle" x="132.5" y="-407.5" font-family="Helvetica,sans-Serif" font-size="10.00">::gameLoop</text>
</a>
</g>
</g>
<!-- Node1&#45;&gt;Node2 -->
<g id="edge1" class="edge">
<title>Node1&#45;&gt;Node2</title>
<path fill="none" stroke="midnightblue" d="M22.64,-175.14C29.55,-199.79 49.34,-266.91 74,-319.5 86.05,-345.2 103.07,-372.83 115.47,-391.82"/>
<polygon fill="midnightblue" stroke="midnightblue" points="112.71,-393.99 121.14,-400.4 118.55,-390.13 112.71,-393.99"/>
</g>
<!-- Node5 -->
<g id="node5" class="node">
<title>Node5</title>
<g id="a_node5"><a xlink:href="namespaceutil_1_1cell_gen.html#a42c122e9493a8aaaa3de94db076a6778" target="_top" xlink:title=" ">
<polygon fill="white" stroke="black" points="80.5,-291 80.5,-310 184.5,-310 184.5,-291 80.5,-291"/>
<text text-anchor="middle" x="132.5" y="-298" font-family="Helvetica,sans-Serif" font-size="10.00">util::cellGen::getMap</text>
</a>
</g>
</g>
<!-- Node1&#45;&gt;Node5 -->
<g id="edge4" class="edge">
<title>Node1&#45;&gt;Node5</title>
<path fill="none" stroke="midnightblue" d="M25.11,-175.01C33.94,-191.03 53.14,-224.04 74,-248.5 85.25,-261.68 99.72,-274.76 111.34,-284.5"/>
<polygon fill="midnightblue" stroke="midnightblue" points="109.25,-287.32 119.2,-290.96 113.7,-281.91 109.25,-287.32"/>
</g>
<!-- Node10 -->
<g id="node10" class="node">
<title>Node10</title>
<g id="a_node10"><a xlink:href="classengine_1_1game_controller.html#ae2459bdafdf03e3b1519a14738744f00" target="_top" xlink:title=" ">
<polygon fill="white" stroke="black" points="438.5,-241.5 438.5,-271.5 553.5,-271.5 553.5,-241.5 438.5,-241.5"/>
<text text-anchor="start" x="446.5" y="-259.5" font-family="Helvetica,sans-Serif" font-size="10.00">engine::gameController</text>
<text text-anchor="middle" x="496" y="-248.5" font-family="Helvetica,sans-Serif" font-size="10.00">::Instance</text>
</a>
</g>
</g>
<!-- Node1&#45;&gt;Node10 -->
<g id="edge11" class="edge">
<title>Node1&#45;&gt;Node10</title>
<path fill="none" stroke="midnightblue" d="M27.15,-175.21C36.47,-187.02 53.95,-206.5 74,-215.5 135.53,-243.13 325.52,-252.22 427.94,-255.15"/>
<polygon fill="midnightblue" stroke="midnightblue" points="428.08,-258.65 438.17,-255.43 428.27,-251.65 428.08,-258.65"/>
</g>
<!-- Node11 -->
<g id="node11" class="node">
<title>Node11</title>
<g id="a_node11"><a xlink:href="classgraphics_1_1_s_f_m_l_facade.html#a0405c3741136d136b5db63559f5b042b" target="_top" xlink:title=" ">
<polygon fill="white" stroke="black" points="74,-175.5 74,-205.5 191,-205.5 191,-175.5 74,-175.5"/>
<text text-anchor="start" x="82" y="-193.5" font-family="Helvetica,sans-Serif" font-size="10.00">graphics::SFMLFacade</text>
<text text-anchor="middle" x="132.5" y="-182.5" font-family="Helvetica,sans-Serif" font-size="10.00">::Init</text>
</a>
</g>
</g>
<!-- Node1&#45;&gt;Node11 -->
<g id="edge10" class="edge">
<title>Node1&#45;&gt;Node11</title>
<path fill="none" stroke="midnightblue" d="M38.41,-169.63C45.67,-171.25 54.48,-173.23 63.76,-175.31"/>
<polygon fill="midnightblue" stroke="midnightblue" points="63.03,-178.73 73.55,-177.51 64.56,-171.9 63.03,-178.73"/>
</g>
<!-- Node12 -->
<g id="node12" class="node">
<title>Node12</title>
<g id="a_node12"><a xlink:href="namespacegraphics_1_1_textures.html#a1b96bb21c0f36a72cb80cfbf286ba9fd" target="_top" xlink:title=" ">
<polygon fill="white" stroke="black" points="85,-126.5 85,-156.5 180,-156.5 180,-126.5 85,-126.5"/>
<text text-anchor="start" x="93" y="-144.5" font-family="Helvetica,sans-Serif" font-size="10.00">graphics::Textures</text>
<text text-anchor="middle" x="132.5" y="-133.5" font-family="Helvetica,sans-Serif" font-size="10.00">::loadTextures</text>
</a>
</g>
</g>
<!-- Node1&#45;&gt;Node12 -->
<g id="edge12" class="edge">
<title>Node1&#45;&gt;Node12</title>
<path fill="none" stroke="midnightblue" d="M38.41,-161.54C48.47,-159.37 61.52,-156.56 74.66,-153.74"/>
<polygon fill="midnightblue" stroke="midnightblue" points="75.63,-157.11 84.67,-151.58 74.16,-150.26 75.63,-157.11"/>
</g>
<!-- Node13 -->
<g id="node13" class="node">
<title>Node13</title>
<g id="a_node13"><a xlink:href="_cell_8cpp.html#a72d9f2f451ca865d77172139a0d5ec79" target="_top" xlink:title=" ">
<polygon fill="white" stroke="black" points="95.5,-88 95.5,-107 169.5,-107 169.5,-88 95.5,-88"/>
<text text-anchor="middle" x="132.5" y="-95" font-family="Helvetica,sans-Serif" font-size="10.00">makeSurface</text>
</a>
</g>
</g>
<!-- Node1&#45;&gt;Node13 -->
<g id="edge13" class="edge">
<title>Node1&#45;&gt;Node13</title>
<path fill="none" stroke="midnightblue" d="M28.67,-155.78C38.67,-145.09 56.04,-128.04 74,-117.5 78.22,-115.02 82.8,-112.79 87.46,-110.79"/>
<polygon fill="midnightblue" stroke="midnightblue" points="89.05,-113.92 97.07,-107.01 86.49,-107.41 89.05,-113.92"/>
</g>
<!-- Node18 -->
<g id="node18" class="node">
<title>Node18</title>
<g id="a_node18"><a xlink:href="main_8cpp.html#ab258248e0ec5c328881af14a8cff6741" target="_top" xlink:title=" ">
<polygon fill="white" stroke="black" points="107,-50 107,-69 158,-69 158,-50 107,-50"/>
<text text-anchor="middle" x="132.5" y="-57" font-family="Helvetica,sans-Serif" font-size="10.00">readFile</text>
</a>
</g>
</g>
<!-- Node1&#45;&gt;Node18 -->
<g id="edge18" class="edge">
<title>Node1&#45;&gt;Node18</title>
<path fill="none" stroke="midnightblue" d="M23.41,-155.87C30.22,-138 47.19,-99.62 74,-78.5 80.69,-73.23 88.91,-69.39 97.02,-66.6"/>
<polygon fill="midnightblue" stroke="midnightblue" points="98.16,-69.92 106.74,-63.71 96.16,-63.21 98.16,-69.92"/>
</g>
<!-- Node19 -->
<g id="node19" class="node">
<title>Node19</title>
<g id="a_node19"><a xlink:href="classengine_1_1game_controller.html#acbec181b8935b2fd7670808494823345" target="_top" xlink:title=" ">
<polygon fill="white" stroke="black" points="75,-0.5 75,-30.5 190,-30.5 190,-0.5 75,-0.5"/>
<text text-anchor="start" x="83" y="-18.5" font-family="Helvetica,sans-Serif" font-size="10.00">engine::gameController</text>
<text text-anchor="middle" x="132.5" y="-7.5" font-family="Helvetica,sans-Serif" font-size="10.00">::registerObject</text>
</a>
</g>
</g>
<!-- Node1&#45;&gt;Node19 -->
<g id="edge19" class="edge">
<title>Node1&#45;&gt;Node19</title>
<path fill="none" stroke="midnightblue" d="M21.69,-155.67C26.15,-132.59 40.27,-74.31 74,-40.5 75.44,-39.06 76.98,-37.69 78.59,-36.39"/>
<polygon fill="midnightblue" stroke="midnightblue" points="80.9,-39.06 87.19,-30.53 76.96,-33.27 80.9,-39.06"/>
</g>
<!-- Node3 -->
<g id="node3" class="node">
<title>Node3</title>
<g id="a_node3"><a xlink:href="classgraphics_1_1_s_f_m_l_facade.html#a5a508e4f5515d1407348e1e8253f7015" target="_top" xlink:title=" ">
<polygon fill="white" stroke="black" points="254.5,-449.5 254.5,-479.5 371.5,-479.5 371.5,-449.5 254.5,-449.5"/>
<text text-anchor="start" x="262.5" y="-467.5" font-family="Helvetica,sans-Serif" font-size="10.00">graphics::SFMLFacade</text>
<text text-anchor="middle" x="313" y="-456.5" font-family="Helvetica,sans-Serif" font-size="10.00">::Frame</text>
</a>
</g>
</g>
<!-- Node2&#45;&gt;Node3 -->
<g id="edge2" class="edge">
<title>Node2&#45;&gt;Node3</title>
<path fill="none" stroke="midnightblue" d="M188.51,-430.6C207.09,-435.7 228.01,-441.44 247.27,-446.73"/>
<polygon fill="midnightblue" stroke="midnightblue" points="246.6,-450.18 257.17,-449.45 248.45,-443.43 246.6,-450.18"/>
</g>
<!-- Node4 -->
<g id="node4" class="node">
<title>Node4</title>
<g id="a_node4"><a xlink:href="classgraphics_1_1_s_f_m_l_facade.html#aba3633e15a496111908f54a44e1ee44b" target="_top" xlink:title=" ">
<polygon fill="white" stroke="black" points="254.5,-400.5 254.5,-430.5 371.5,-430.5 371.5,-400.5 254.5,-400.5"/>
<text text-anchor="start" x="262.5" y="-418.5" font-family="Helvetica,sans-Serif" font-size="10.00">graphics::SFMLFacade</text>
<text text-anchor="middle" x="313" y="-407.5" font-family="Helvetica,sans-Serif" font-size="10.00">::length</text>
</a>
</g>
</g>
<!-- Node2&#45;&gt;Node4 -->
<g id="edge3" class="edge">
<title>Node2&#45;&gt;Node4</title>
<path fill="none" stroke="midnightblue" d="M190.47,-415.5C207.53,-415.5 226.4,-415.5 244.09,-415.5"/>
<polygon fill="midnightblue" stroke="midnightblue" points="244.35,-419 254.35,-415.5 244.35,-412 244.35,-419"/>
</g>
<!-- Node6 -->
<g id="node6" class="node">
<title>Node6</title>
<g id="a_node6"><a xlink:href="namespaceutil_1_1cell_gen.html#a4574c3b7d7e54b43a417cdd9f4333d90" target="_top" xlink:title=" ">
<polygon fill="white" stroke="black" points="247,-351.5 247,-381.5 379,-381.5 379,-351.5 247,-351.5"/>
<text text-anchor="start" x="255" y="-369.5" font-family="Helvetica,sans-Serif" font-size="10.00">util::cellGen::circumscribed</text>
<text text-anchor="middle" x="313" y="-358.5" font-family="Helvetica,sans-Serif" font-size="10.00">Center</text>
</a>
</g>
</g>
<!-- Node5&#45;&gt;Node6 -->
<g id="edge5" class="edge">
<title>Node5&#45;&gt;Node6</title>
<path fill="none" stroke="midnightblue" d="M153.26,-310.04C171.99,-318.87 201.02,-332.03 227,-341.5 233.41,-343.84 240.15,-346.11 246.91,-348.28"/>
<polygon fill="midnightblue" stroke="midnightblue" points="246.21,-351.73 256.8,-351.38 248.3,-345.05 246.21,-351.73"/>
</g>
<!-- Node7 -->
<g id="node7" class="node">
<title>Node7</title>
<g id="a_node7"><a xlink:href="namespaceutil_1_1cell_gen.html#af3b45f58c0e7835cecd1eb44549613cc" target="_top" xlink:title=" ">
<polygon fill="white" stroke="black" points="253.5,-313 253.5,-332 372.5,-332 372.5,-313 253.5,-313"/>
<text text-anchor="middle" x="313" y="-320" font-family="Helvetica,sans-Serif" font-size="10.00">util::cellGen::convexHull</text>
</a>
</g>
</g>
<!-- Node5&#45;&gt;Node7 -->
<g id="edge6" class="edge">
<title>Node5&#45;&gt;Node7</title>
<path fill="none" stroke="midnightblue" d="M184.65,-306.8C202.9,-309.05 223.76,-311.62 243.25,-314.03"/>
<polygon fill="midnightblue" stroke="midnightblue" points="242.94,-317.51 253.29,-315.26 243.79,-310.57 242.94,-317.51"/>
</g>
<!-- Node9 -->
<g id="node9" class="node">
<title>Node9</title>
<g id="a_node9"><a xlink:href="namespaceutil_1_1cell_gen.html#a74a1c625c7122deb6e4bc56a24b42148" target="_top" xlink:title=" ">
<polygon fill="white" stroke="black" points="252.5,-263.5 252.5,-293.5 373.5,-293.5 373.5,-263.5 252.5,-263.5"/>
<text text-anchor="start" x="260.5" y="-281.5" font-family="Helvetica,sans-Serif" font-size="10.00">util::cellGen::getRandom</text>
<text text-anchor="middle" x="313" y="-270.5" font-family="Helvetica,sans-Serif" font-size="10.00">Points</text>
</a>
</g>
</g>
<!-- Node5&#45;&gt;Node9 -->
<g id="edge8" class="edge">
<title>Node5&#45;&gt;Node9</title>
<path fill="none" stroke="midnightblue" d="M184.65,-294.2C202.64,-291.98 223.16,-289.45 242.4,-287.08"/>
<polygon fill="midnightblue" stroke="midnightblue" points="242.83,-290.55 252.33,-285.85 241.98,-283.6 242.83,-290.55"/>
</g>
<!-- Node8 -->
<g id="node8" class="node">
<title>Node8</title>
<g id="a_node8"><a xlink:href="namespaceutil_1_1cell_gen.html#af9981b34d944b165df9a4f8f4f2cb200" target="_top" xlink:title=" ">
<polygon fill="white" stroke="black" points="442.5,-313 442.5,-332 549.5,-332 549.5,-313 442.5,-313"/>
<text text-anchor="middle" x="496" y="-320" font-family="Helvetica,sans-Serif" font-size="10.00">util::cellGen::isHigher</text>
</a>
</g>
</g>
<!-- Node7&#45;&gt;Node8 -->
<g id="edge7" class="edge">
<title>Node7&#45;&gt;Node8</title>
<path fill="none" stroke="midnightblue" d="M372.77,-322.5C391.75,-322.5 412.87,-322.5 432.14,-322.5"/>
<polygon fill="midnightblue" stroke="midnightblue" points="432.33,-326 442.33,-322.5 432.33,-319 432.33,-326"/>
</g>
<!-- Node9&#45;&gt;Node10 -->
<g id="edge9" class="edge">
<title>Node9&#45;&gt;Node10</title>
<path fill="none" stroke="midnightblue" d="M373.52,-271.27C391,-269.14 410.23,-266.8 428.14,-264.63"/>
<polygon fill="midnightblue" stroke="midnightblue" points="428.71,-268.08 438.21,-263.4 427.87,-261.13 428.71,-268.08"/>
</g>
<!-- Node14 -->
<g id="node14" class="node">
<title>Node14</title>
<g id="a_node14"><a xlink:href="namespace_squads.html#a9514eb273efdac8a60d2818aac4cfcb9" target="_top" xlink:title=" ">
<polygon fill="white" stroke="black" points="227,-126 227,-145 399,-145 399,-126 227,-126"/>
<text text-anchor="middle" x="313" y="-133" font-family="Helvetica,sans-Serif" font-size="10.00">Squads::setDefaultSquadTemplates</text>
</a>
</g>
</g>
<!-- Node13&#45;&gt;Node14 -->
<g id="edge14" class="edge">
<title>Node13&#45;&gt;Node14</title>
<path fill="none" stroke="midnightblue" d="M169.62,-105.19C194.77,-110.54 228.77,-117.78 257.24,-123.84"/>
<polygon fill="midnightblue" stroke="midnightblue" points="256.55,-127.27 267.06,-125.93 258.01,-120.43 256.55,-127.27"/>
</g>
<!-- Node16 -->
<g id="node16" class="node">
<title>Node16</title>
<g id="a_node16"><a xlink:href="namespace_flags.html#af24c2fab93a3733f1eeddb4a9d7a8ea0" target="_top" xlink:title=" ">
<polygon fill="white" stroke="black" points="271.5,-88 271.5,-107 354.5,-107 354.5,-88 271.5,-88"/>
<text text-anchor="middle" x="313" y="-95" font-family="Helvetica,sans-Serif" font-size="10.00">Flags::setFlags</text>
</a>
</g>
</g>
<!-- Node13&#45;&gt;Node16 -->
<g id="edge16" class="edge">
<title>Node13&#45;&gt;Node16</title>
<path fill="none" stroke="midnightblue" d="M169.62,-97.5C195.96,-97.5 232,-97.5 261.23,-97.5"/>
<polygon fill="midnightblue" stroke="midnightblue" points="261.25,-101 271.25,-97.5 261.25,-94 261.25,-101"/>
</g>
<!-- Node17 -->
<g id="node17" class="node">
<title>Node17</title>
<g id="a_node17"><a xlink:href="namespace_units.html#a22de1e70007104dbc48811a834119d63" target="_top" xlink:title=" ">
<polygon fill="white" stroke="black" points="272.5,-50 272.5,-69 353.5,-69 353.5,-50 272.5,-50"/>
<text text-anchor="middle" x="313" y="-57" font-family="Helvetica,sans-Serif" font-size="10.00">Units::setUnits</text>
</a>
</g>
</g>
<!-- Node13&#45;&gt;Node17 -->
<g id="edge17" class="edge">
<title>Node13&#45;&gt;Node17</title>
<path fill="none" stroke="midnightblue" d="M169.62,-89.81C196.23,-84.15 232.75,-76.37 262.13,-70.12"/>
<polygon fill="midnightblue" stroke="midnightblue" points="263.15,-73.48 272.2,-67.97 261.7,-66.63 263.15,-73.48"/>
</g>
<!-- Node15 -->
<g id="node15" class="node">
<title>Node15</title>
<g id="a_node15"><a xlink:href="class_squads_1_1_squad_template.html#a802b8fd430eda0b96170c9d84b0a788e" target="_top" xlink:title=" ">
<polygon fill="white" stroke="black" points="435,-120.5 435,-150.5 557,-150.5 557,-120.5 435,-120.5"/>
<text text-anchor="start" x="443" y="-138.5" font-family="Helvetica,sans-Serif" font-size="10.00">Squads::SquadTemplate</text>
<text text-anchor="middle" x="496" y="-127.5" font-family="Helvetica,sans-Serif" font-size="10.00">::addFactory</text>
</a>
</g>
</g>
<!-- Node14&#45;&gt;Node15 -->
<g id="edge15" class="edge">
<title>Node14&#45;&gt;Node15</title>
<path fill="none" stroke="midnightblue" d="M399.2,-135.5C407.74,-135.5 416.34,-135.5 424.7,-135.5"/>
<polygon fill="midnightblue" stroke="midnightblue" points="424.76,-139 434.76,-135.5 424.76,-132 424.76,-139"/>
</g>
</g>
</svg>
