<?xml version="1.0" encoding="UTF-8" standalone="no"?>
<!DOCTYPE svg PUBLIC "-//W3C//DTD SVG 1.1//EN"
 "http://www.w3.org/Graphics/SVG/1.1/DTD/svg11.dtd">
<!-- Generated by graphviz version 2.47.1 (20210421.1823)
 -->
<!-- Title: main Pages: 1 -->
<svg width="565pt" height="615pt"
 viewBox="0.00 0.00 565.00 614.50" xmlns="http://www.w3.org/2000/svg" xmlns:xlink="http://www.w3.org/1999/xlink">
<g id="graph0" class="graph" transform="scale(1 1) rotate(0) translate(4 610.5)">
<title>main</title>
<polygon fill="white" stroke="transparent" points="-4,4 -4,-610.5 561,-610.5 561,4 -4,4"/>
<!-- Node1 -->
<g id="node1" class="node">
<title>Node1</title>
<g id="a_node1"><a xlink:title=" ">
<polygon fill="#bfbfbf" stroke="black" points="0,-203 0,-222 38,-222 38,-203 0,-203"/>
<text text-anchor="middle" x="19" y="-210" font-family="Helvetica,sans-Serif" font-size="10.00">main</text>
</a>
</g>
</g>
<!-- Node2 -->
<g id="node2" class="node">
<title>Node2</title>
<g id="a_node2"><a xlink:href="classengine_1_1game_controller.html#a8b6d49e687f038d5f9a275a6b2c664fb" target="_top" xlink:title=" ">
<polygon fill="white" stroke="black" points="75,-513.5 75,-543.5 190,-543.5 190,-513.5 75,-513.5"/>
<text text-anchor="start" x="83" y="-531.5" font-family="Helvetica,sans-Serif" font-size="10.00">engine::gameController</text>
<text text-anchor="middle" x="132.5" y="-520.5" font-family="Helvetica,sans-Serif" font-size="10.00">::gameLoop</text>
</a>
</g>
</g>
<!-- Node1&#45;&gt;Node2 -->
<g id="edge1" class="edge">
<title>Node1&#45;&gt;Node2</title>
<path fill="none" stroke="midnightblue" d="M22.02,-222.02C28.21,-250.61 48.11,-338.05 74,-407.5 86.85,-441.98 105.78,-480.05 118.36,-504.11"/>
<polygon fill="midnightblue" stroke="midnightblue" points="115.41,-506 123.17,-513.21 121.6,-502.73 115.41,-506"/>
</g>
<!-- Node6 -->
<g id="node6" class="node">
<title>Node6</title>
<g id="a_node6"><a xlink:href="namespaceutil_1_1cell_gen.html#a42c122e9493a8aaaa3de94db076a6778" target="_top" xlink:title=" ">
<polygon fill="white" stroke="black" points="80.5,-379 80.5,-398 184.5,-398 184.5,-379 80.5,-379"/>
<text text-anchor="middle" x="132.5" y="-386" font-family="Helvetica,sans-Serif" font-size="10.00">util::cellGen::getMap</text>
</a>
</g>
</g>
<!-- Node1&#45;&gt;Node6 -->
<g id="edge5" class="edge">
<title>Node1&#45;&gt;Node6</title>
<path fill="none" stroke="midnightblue" d="M22.69,-222.23C29.05,-244.13 46.59,-298.37 74,-336.5 83.86,-350.22 97.88,-362.99 109.6,-372.44"/>
<polygon fill="midnightblue" stroke="midnightblue" points="107.6,-375.32 117.64,-378.7 111.9,-369.79 107.6,-375.32"/>
</g>
<!-- Node11 -->
<g id="node11" class="node">
<title>Node11</title>
<g id="a_node11"><a xlink:href="classengine_1_1game_controller.html#ae2459bdafdf03e3b1519a14738744f00" target="_top" xlink:title=" ">
<polygon fill="white" stroke="black" points="438.5,-329.5 438.5,-359.5 553.5,-359.5 553.5,-329.5 438.5,-329.5"/>
<text text-anchor="start" x="446.5" y="-347.5" font-family="Helvetica,sans-Serif" font-size="10.00">engine::gameController</text>
<text text-anchor="middle" x="496" y="-336.5" font-family="Helvetica,sans-Serif" font-size="10.00">::Instance</text>
</a>
</g>
</g>
<!-- Node1&#45;&gt;Node11 -->
<g id="edge13" class="edge">
<title>Node1&#45;&gt;Node11</title>
<path fill="none" stroke="midnightblue" d="M22.59,-222.27C28.26,-241.54 43.77,-284.28 74,-303.5 103.15,-322.03 316.81,-335.47 428.06,-341.29"/>
<polygon fill="midnightblue" stroke="midnightblue" points="428,-344.79 438.17,-341.81 428.36,-337.8 428,-344.79"/>
</g>
<!-- Node12 -->
<g id="node12" class="node">
<title>Node12</title>
<g id="a_node12"><a xlink:href="classgraphics_1_1_s_f_m_l_facade.html#a0405c3741136d136b5db63559f5b042b" target="_top" xlink:title=" ">
<polygon fill="white" stroke="black" points="74,-263.5 74,-293.5 191,-293.5 191,-263.5 74,-263.5"/>
<text text-anchor="start" x="82" y="-281.5" font-family="Helvetica,sans-Serif" font-size="10.00">graphics::SFMLFacade</text>
<text text-anchor="middle" x="132.5" y="-270.5" font-family="Helvetica,sans-Serif" font-size="10.00">::Init</text>
</a>
</g>
</g>
<!-- Node1&#45;&gt;Node12 -->
<g id="edge11" class="edge">
<title>Node1&#45;&gt;Node12</title>
<path fill="none" stroke="midnightblue" d="M31.03,-222.13C41.57,-231.03 58.15,-244.22 74,-253.5 77.24,-255.4 80.66,-257.24 84.14,-259.01"/>
<polygon fill="midnightblue" stroke="midnightblue" points="82.91,-262.3 93.43,-263.49 85.95,-255.99 82.91,-262.3"/>
</g>
<!-- Node13 -->
<g id="node13" class="node">
<title>Node13</title>
<g id="a_node13"><a xlink:href="classengine_1_1_logger.html#a3e7741f963ea5d9be0fc7a54ec4f47c7" target="_top" xlink:title=" ">
<polygon fill="white" stroke="black" points="83.5,-225 83.5,-244 181.5,-244 181.5,-225 83.5,-225"/>
<text text-anchor="middle" x="132.5" y="-232" font-family="Helvetica,sans-Serif" font-size="10.00">engine::Logger::Init</text>
</a>
</g>
</g>
<!-- Node1&#45;&gt;Node13 -->
<g id="edge12" class="edge">
<title>Node1&#45;&gt;Node13</title>
<path fill="none" stroke="midnightblue" d="M38.41,-216.13C48.08,-218.04 60.51,-220.49 73.12,-222.98"/>
<polygon fill="midnightblue" stroke="midnightblue" points="72.74,-226.47 83.23,-224.98 74.09,-219.61 72.74,-226.47"/>
</g>
<!-- Node14 -->
<g id="node14" class="node">
<title>Node14</title>
<g id="a_node14"><a xlink:href="namespacegraphics_1_1_textures.html#a1b96bb21c0f36a72cb80cfbf286ba9fd" target="_top" xlink:title=" ">
<polygon fill="white" stroke="black" points="85,-175.5 85,-205.5 180,-205.5 180,-175.5 85,-175.5"/>
<text text-anchor="start" x="93" y="-193.5" font-family="Helvetica,sans-Serif" font-size="10.00">graphics::Textures</text>
<text text-anchor="middle" x="132.5" y="-182.5" font-family="Helvetica,sans-Serif" font-size="10.00">::loadTextures</text>
</a>
</g>
</g>
<!-- Node1&#45;&gt;Node14 -->
<g id="edge14" class="edge">
<title>Node1&#45;&gt;Node14</title>
<path fill="none" stroke="midnightblue" d="M38.41,-208.87C48.47,-206.88 61.52,-204.31 74.66,-201.72"/>
<polygon fill="midnightblue" stroke="midnightblue" points="75.54,-205.11 84.67,-199.74 74.18,-198.24 75.54,-205.11"/>
</g>
<!-- Node15 -->
<g id="node15" class="node">
<title>Node15</title>
<g id="a_node15"><a xlink:href="_cell_8cpp.html#a72d9f2f451ca865d77172139a0d5ec79" target="_top" xlink:title=" ">
<polygon fill="white" stroke="black" points="95.5,-137 95.5,-156 169.5,-156 169.5,-137 95.5,-137"/>
<text text-anchor="middle" x="132.5" y="-144" font-family="Helvetica,sans-Serif" font-size="10.00">makeSurface</text>
</a>
</g>
</g>
<!-- Node1&#45;&gt;Node15 -->
<g id="edge15" class="edge">
<title>Node1&#45;&gt;Node15</title>
<path fill="none" stroke="midnightblue" d="M29.12,-202.84C39.24,-192.59 56.47,-176.54 74,-166.5 78.42,-163.97 83.2,-161.69 88.07,-159.64"/>
<polygon fill="midnightblue" stroke="midnightblue" points="89.38,-162.89 97.44,-156.01 86.85,-156.36 89.38,-162.89"/>
</g>
<!-- Node20 -->
<g id="node20" class="node">
<title>Node20</title>
<g id="a_node20"><a xlink:href="main_8cpp.html#ab258248e0ec5c328881af14a8cff6741" target="_top" xlink:title=" ">
<polygon fill="white" stroke="black" points="107,-99 107,-118 158,-118 158,-99 107,-99"/>
<text text-anchor="middle" x="132.5" y="-106" font-family="Helvetica,sans-Serif" font-size="10.00">readFile</text>
</a>
</g>
</g>
<!-- Node1&#45;&gt;Node20 -->
<g id="edge20" class="edge">
<title>Node1&#45;&gt;Node20</title>
<path fill="none" stroke="midnightblue" d="M23.58,-202.81C30.57,-185.24 47.66,-148.03 74,-127.5 80.72,-122.26 88.95,-118.44 97.06,-115.65"/>
<polygon fill="midnightblue" stroke="midnightblue" points="98.2,-118.97 106.78,-112.75 96.19,-112.26 98.2,-118.97"/>
</g>
<!-- Node21 -->
<g id="node21" class="node">
<title>Node21</title>
<g id="a_node21"><a xlink:href="classengine_1_1game_controller.html#acbec181b8935b2fd7670808494823345" target="_top" xlink:title=" ">
<polygon fill="white" stroke="black" points="75,-49.5 75,-79.5 190,-79.5 190,-49.5 75,-49.5"/>
<text text-anchor="start" x="83" y="-67.5" font-family="Helvetica,sans-Serif" font-size="10.00">engine::gameController</text>
<text text-anchor="middle" x="132.5" y="-56.5" font-family="Helvetica,sans-Serif" font-size="10.00">::registerObject</text>
</a>
</g>
</g>
<!-- Node1&#45;&gt;Node21 -->
<g id="edge21" class="edge">
<title>Node1&#45;&gt;Node21</title>
<path fill="none" stroke="midnightblue" d="M21.74,-202.83C26.3,-180.11 40.63,-122.75 74,-89.5 75.45,-88.06 76.99,-86.7 78.61,-85.41"/>
<polygon fill="midnightblue" stroke="midnightblue" points="80.91,-88.07 87.21,-79.55 76.98,-82.28 80.91,-88.07"/>
</g>
<!-- Node22 -->
<g id="node22" class="node">
<title>Node22</title>
<g id="a_node22"><a xlink:href="classengine_1_1game_controller.html#ae124e19bf29bef364aded5e60d333542" target="_top" xlink:title=" ">
<polygon fill="white" stroke="black" points="75,-0.5 75,-30.5 190,-30.5 190,-0.5 75,-0.5"/>
<text text-anchor="start" x="83" y="-18.5" font-family="Helvetica,sans-Serif" font-size="10.00">engine::gameController</text>
<text text-anchor="middle" x="132.5" y="-7.5" font-family="Helvetica,sans-Serif" font-size="10.00">::registerStaticObject</text>
</a>
</g>
</g>
<!-- Node1&#45;&gt;Node22 -->
<g id="edge22" class="edge">
<title>Node1&#45;&gt;Node22</title>
<path fill="none" stroke="midnightblue" d="M20.27,-202.89C21.6,-174.28 29.29,-88.57 74,-39.5 74.88,-38.53 75.81,-37.6 76.77,-36.71"/>
<polygon fill="midnightblue" stroke="midnightblue" points="79.01,-39.41 84.83,-30.56 74.76,-33.85 79.01,-39.41"/>
</g>
<!-- Node3 -->
<g id="node3" class="node">
<title>Node3</title>
<g id="a_node3"><a xlink:href="classengine_1_1_logger.html#a2131f107cf1aa6d5051dd2a4b9720717" target="_top" xlink:title=" ">
<polygon fill="white" stroke="black" points="261,-587 261,-606 365,-606 365,-587 261,-587"/>
<text text-anchor="middle" x="313" y="-594" font-family="Helvetica,sans-Serif" font-size="10.00">engine::Logger::flush</text>
</a>
</g>
</g>
<!-- Node2&#45;&gt;Node3 -->
<g id="edge2" class="edge">
<title>Node2&#45;&gt;Node3</title>
<path fill="none" stroke="midnightblue" d="M158.07,-543.67C176.47,-554.45 202.57,-568.54 227,-577.5 234.57,-580.27 242.67,-582.72 250.76,-584.85"/>
<polygon fill="midnightblue" stroke="midnightblue" points="250.03,-588.27 260.58,-587.29 251.72,-581.48 250.03,-588.27"/>
</g>
<!-- Node4 -->
<g id="node4" class="node">
<title>Node4</title>
<g id="a_node4"><a xlink:href="classgraphics_1_1_s_f_m_l_facade.html#a5a508e4f5515d1407348e1e8253f7015" target="_top" xlink:title=" ">
<polygon fill="white" stroke="black" points="254.5,-537.5 254.5,-567.5 371.5,-567.5 371.5,-537.5 254.5,-537.5"/>
<text text-anchor="start" x="262.5" y="-555.5" font-family="Helvetica,sans-Serif" font-size="10.00">graphics::SFMLFacade</text>
<text text-anchor="middle" x="313" y="-544.5" font-family="Helvetica,sans-Serif" font-size="10.00">::Frame</text>
</a>
</g>
</g>
<!-- Node2&#45;&gt;Node4 -->
<g id="edge3" class="edge">
<title>Node2&#45;&gt;Node4</title>
<path fill="none" stroke="midnightblue" d="M190.47,-536.16C207.53,-538.45 226.4,-540.99 244.09,-543.37"/>
<polygon fill="midnightblue" stroke="midnightblue" points="243.97,-546.88 254.35,-544.75 244.9,-539.95 243.97,-546.88"/>
</g>
<!-- Node5 -->
<g id="node5" class="node">
<title>Node5</title>
<g id="a_node5"><a xlink:href="classgraphics_1_1_s_f_m_l_facade.html#aba3633e15a496111908f54a44e1ee44b" target="_top" xlink:title=" ">
<polygon fill="white" stroke="black" points="254.5,-488.5 254.5,-518.5 371.5,-518.5 371.5,-488.5 254.5,-488.5"/>
<text text-anchor="start" x="262.5" y="-506.5" font-family="Helvetica,sans-Serif" font-size="10.00">graphics::SFMLFacade</text>
<text text-anchor="middle" x="313" y="-495.5" font-family="Helvetica,sans-Serif" font-size="10.00">::length</text>
</a>
</g>
</g>
<!-- Node2&#45;&gt;Node5 -->
<g id="edge4" class="edge">
<title>Node2&#45;&gt;Node5</title>
<path fill="none" stroke="midnightblue" d="M190.47,-520.52C207.53,-518.13 226.4,-515.49 244.09,-513.01"/>
<polygon fill="midnightblue" stroke="midnightblue" points="244.93,-516.43 254.35,-511.57 243.96,-509.5 244.93,-516.43"/>
</g>
<!-- Node7 -->
<g id="node7" class="node">
<title>Node7</title>
<g id="a_node7"><a xlink:href="namespaceutil_1_1cell_gen.html#a4574c3b7d7e54b43a417cdd9f4333d90" target="_top" xlink:title=" ">
<polygon fill="white" stroke="black" points="247,-439.5 247,-469.5 379,-469.5 379,-439.5 247,-439.5"/>
<text text-anchor="start" x="255" y="-457.5" font-family="Helvetica,sans-Serif" font-size="10.00">util::cellGen::circumscribed</text>
<text text-anchor="middle" x="313" y="-446.5" font-family="Helvetica,sans-Serif" font-size="10.00">Center</text>
</a>
</g>
</g>
<!-- Node6&#45;&gt;Node7 -->
<g id="edge6" class="edge">
<title>Node6&#45;&gt;Node7</title>
<path fill="none" stroke="midnightblue" d="M153.26,-398.04C171.99,-406.87 201.02,-420.03 227,-429.5 233.41,-431.84 240.15,-434.11 246.91,-436.28"/>
<polygon fill="midnightblue" stroke="midnightblue" points="246.21,-439.73 256.8,-439.38 248.3,-433.05 246.21,-439.73"/>
</g>
<!-- Node8 -->
<g id="node8" class="node">
<title>Node8</title>
<g id="a_node8"><a xlink:href="namespaceutil_1_1cell_gen.html#af3b45f58c0e7835cecd1eb44549613cc" target="_top" xlink:title=" ">
<polygon fill="white" stroke="black" points="253.5,-401 253.5,-420 372.5,-420 372.5,-401 253.5,-401"/>
<text text-anchor="middle" x="313" y="-408" font-family="Helvetica,sans-Serif" font-size="10.00">util::cellGen::convexHull</text>
</a>
</g>
</g>
<!-- Node6&#45;&gt;Node8 -->
<g id="edge7" class="edge">
<title>Node6&#45;&gt;Node8</title>
<path fill="none" stroke="midnightblue" d="M184.65,-394.8C202.9,-397.05 223.76,-399.62 243.25,-402.03"/>
<polygon fill="midnightblue" stroke="midnightblue" points="242.94,-405.51 253.29,-403.26 243.79,-398.57 242.94,-405.51"/>
</g>
<!-- Node10 -->
<g id="node10" class="node">
<title>Node10</title>
<g id="a_node10"><a xlink:href="namespaceutil_1_1cell_gen.html#a74a1c625c7122deb6e4bc56a24b42148" target="_top" xlink:title=" ">
<polygon fill="white" stroke="black" points="252.5,-351.5 252.5,-381.5 373.5,-381.5 373.5,-351.5 252.5,-351.5"/>
<text text-anchor="start" x="260.5" y="-369.5" font-family="Helvetica,sans-Serif" font-size="10.00">util::cellGen::getRandom</text>
<text text-anchor="middle" x="313" y="-358.5" font-family="Helvetica,sans-Serif" font-size="10.00">Points</text>
</a>
</g>
</g>
<!-- Node6&#45;&gt;Node10 -->
<g id="edge9" class="edge">
<title>Node6&#45;&gt;Node10</title>
<path fill="none" stroke="midnightblue" d="M184.65,-382.2C202.64,-379.98 223.16,-377.45 242.4,-375.08"/>
<polygon fill="midnightblue" stroke="midnightblue" points="242.83,-378.55 252.33,-373.85 241.98,-371.6 242.83,-378.55"/>
</g>
<!-- Node9 -->
<g id="node9" class="node">
<title>Node9</title>
<g id="a_node9"><a xlink:href="namespaceutil_1_1cell_gen.html#af9981b34d944b165df9a4f8f4f2cb200" target="_top" xlink:title=" ">
<polygon fill="white" stroke="black" points="442.5,-401 442.5,-420 549.5,-420 549.5,-401 442.5,-401"/>
<text text-anchor="middle" x="496" y="-408" font-family="Helvetica,sans-Serif" font-size="10.00">util::cellGen::isHigher</text>
</a>
</g>
</g>
<!-- Node8&#45;&gt;Node9 -->
<g id="edge8" class="edge">
<title>Node8&#45;&gt;Node9</title>
<path fill="none" stroke="midnightblue" d="M372.77,-410.5C391.75,-410.5 412.87,-410.5 432.14,-410.5"/>
<polygon fill="midnightblue" stroke="midnightblue" points="432.33,-414 442.33,-410.5 432.33,-407 432.33,-414"/>
</g>
<!-- Node10&#45;&gt;Node11 -->
<g id="edge10" class="edge">
<title>Node10&#45;&gt;Node11</title>
<path fill="none" stroke="midnightblue" d="M373.52,-359.27C391,-357.14 410.23,-354.8 428.14,-352.63"/>
<polygon fill="midnightblue" stroke="midnightblue" points="428.71,-356.08 438.21,-351.4 427.87,-349.13 428.71,-356.08"/>
</g>
<!-- Node16 -->
<g id="node16" class="node">
<title>Node16</title>
<g id="a_node16"><a xlink:href="namespace_squads.html#a9514eb273efdac8a60d2818aac4cfcb9" target="_top" xlink:title=" ">
<polygon fill="white" stroke="black" points="227,-175 227,-194 399,-194 399,-175 227,-175"/>
<text text-anchor="middle" x="313" y="-182" font-family="Helvetica,sans-Serif" font-size="10.00">Squads::setDefaultSquadTemplates</text>
</a>
</g>
</g>
<!-- Node15&#45;&gt;Node16 -->
<g id="edge16" class="edge">
<title>Node15&#45;&gt;Node16</title>
<path fill="none" stroke="midnightblue" d="M169.62,-154.19C194.77,-159.54 228.77,-166.78 257.24,-172.84"/>
<polygon fill="midnightblue" stroke="midnightblue" points="256.55,-176.27 267.06,-174.93 258.01,-169.43 256.55,-176.27"/>
</g>
<!-- Node18 -->
<g id="node18" class="node">
<title>Node18</title>
<g id="a_node18"><a xlink:href="namespace_flags.html#af24c2fab93a3733f1eeddb4a9d7a8ea0" target="_top" xlink:title=" ">
<polygon fill="white" stroke="black" points="271.5,-137 271.5,-156 354.5,-156 354.5,-137 271.5,-137"/>
<text text-anchor="middle" x="313" y="-144" font-family="Helvetica,sans-Serif" font-size="10.00">Flags::setFlags</text>
</a>
</g>
</g>
<!-- Node15&#45;&gt;Node18 -->
<g id="edge18" class="edge">
<title>Node15&#45;&gt;Node18</title>
<path fill="none" stroke="midnightblue" d="M169.62,-146.5C195.96,-146.5 232,-146.5 261.23,-146.5"/>
<polygon fill="midnightblue" stroke="midnightblue" points="261.25,-150 271.25,-146.5 261.25,-143 261.25,-150"/>
</g>
<!-- Node19 -->
<g id="node19" class="node">
<title>Node19</title>
<g id="a_node19"><a xlink:href="namespace_units.html#a22de1e70007104dbc48811a834119d63" target="_top" xlink:title=" ">
<polygon fill="white" stroke="black" points="272.5,-99 272.5,-118 353.5,-118 353.5,-99 272.5,-99"/>
<text text-anchor="middle" x="313" y="-106" font-family="Helvetica,sans-Serif" font-size="10.00">Units::setUnits</text>
</a>
</g>
</g>
<!-- Node15&#45;&gt;Node19 -->
<g id="edge19" class="edge">
<title>Node15&#45;&gt;Node19</title>
<path fill="none" stroke="midnightblue" d="M169.62,-138.81C196.23,-133.15 232.75,-125.37 262.13,-119.12"/>
<polygon fill="midnightblue" stroke="midnightblue" points="263.15,-122.48 272.2,-116.97 261.7,-115.63 263.15,-122.48"/>
</g>
<!-- Node17 -->
<g id="node17" class="node">
<title>Node17</title>
<g id="a_node17"><a xlink:href="class_squads_1_1_squad_template.html#a802b8fd430eda0b96170c9d84b0a788e" target="_top" xlink:title=" ">
<polygon fill="white" stroke="black" points="435,-169.5 435,-199.5 557,-199.5 557,-169.5 435,-169.5"/>
<text text-anchor="start" x="443" y="-187.5" font-family="Helvetica,sans-Serif" font-size="10.00">Squads::SquadTemplate</text>
<text text-anchor="middle" x="496" y="-176.5" font-family="Helvetica,sans-Serif" font-size="10.00">::addFactory</text>
</a>
</g>
</g>
<!-- Node16&#45;&gt;Node17 -->
<g id="edge17" class="edge">
<title>Node16&#45;&gt;Node17</title>
<path fill="none" stroke="midnightblue" d="M399.2,-184.5C407.74,-184.5 416.34,-184.5 424.7,-184.5"/>
<polygon fill="midnightblue" stroke="midnightblue" points="424.76,-188 434.76,-184.5 424.76,-181 424.76,-188"/>
</g>
</g>
</svg>
