<?xml version="1.0" encoding="UTF-8" standalone="no"?>
<!DOCTYPE svg PUBLIC "-//W3C//DTD SVG 1.1//EN"
 "http://www.w3.org/Graphics/SVG/1.1/DTD/svg11.dtd">
<!-- Generated by graphviz version 2.47.1 (20210421.1823)
 -->
<!-- Title: main Pages: 1 -->
<svg width="565pt" height="527pt"
 viewBox="0.00 0.00 565.00 526.50" xmlns="http://www.w3.org/2000/svg" xmlns:xlink="http://www.w3.org/1999/xlink">
<g id="graph0" class="graph" transform="scale(1 1) rotate(0) translate(4 522.5)">
<title>main</title>
<polygon fill="white" stroke="transparent" points="-4,4 -4,-522.5 561,-522.5 561,4 -4,4"/>
<!-- Node1 -->
<g id="node1" class="node">
<title>Node1</title>
<g id="a_node1"><a xlink:title=" ">
<polygon fill="#bfbfbf" stroke="black" points="0,-170.5 0,-189.5 38,-189.5 38,-170.5 0,-170.5"/>
<text text-anchor="middle" x="19" y="-177.5" font-family="Helvetica,sans-Serif" font-size="10.00">main</text>
</a>
</g>
</g>
<!-- Node2 -->
<g id="node2" class="node">
<title>Node2</title>
<g id="a_node2"><a xlink:href="classengine_1_1game_controller.html#a8b6d49e687f038d5f9a275a6b2c664fb" target="_top" xlink:title=" ">
<polygon fill="white" stroke="black" points="75,-439 75,-469 190,-469 190,-439 75,-439"/>
<text text-anchor="start" x="83" y="-457" font-family="Helvetica,sans-Serif" font-size="10.00">engine::gameController</text>
<text text-anchor="middle" x="132.5" y="-446" font-family="Helvetica,sans-Serif" font-size="10.00">::gameLoop</text>
</a>
</g>
</g>
<!-- Node1&#45;&gt;Node2 -->
<g id="edge1" class="edge">
<title>Node1&#45;&gt;Node2</title>
<path fill="none" stroke="midnightblue" d="M22.03,-189.56C27.97,-216.7 46.66,-296.29 74,-358 85.43,-383.8 102.4,-411.22 114.94,-430.12"/>
<polygon fill="midnightblue" stroke="midnightblue" points="112.21,-432.34 120.7,-438.67 118.02,-428.42 112.21,-432.34"/>
</g>
<!-- Node5 -->
<g id="node5" class="node">
<title>Node5</title>
<g id="a_node5"><a xlink:href="namespaceutil_1_1cell_gen.html#a42c122e9493a8aaaa3de94db076a6778" target="_top" xlink:title=" ">
<polygon fill="white" stroke="black" points="80.5,-329.5 80.5,-348.5 184.5,-348.5 184.5,-329.5 80.5,-329.5"/>
<text text-anchor="middle" x="132.5" y="-336.5" font-family="Helvetica,sans-Serif" font-size="10.00">util::cellGen::getMap</text>
</a>
</g>
</g>
<!-- Node1&#45;&gt;Node5 -->
<g id="edge4" class="edge">
<title>Node1&#45;&gt;Node5</title>
<path fill="none" stroke="midnightblue" d="M23.43,-189.53C30.75,-209.08 49.27,-254.57 74,-287 84.38,-300.61 98.63,-313.52 110.35,-323.08"/>
<polygon fill="midnightblue" stroke="midnightblue" points="108.33,-325.95 118.34,-329.41 112.67,-320.46 108.33,-325.95"/>
</g>
<!-- Node10 -->
<g id="node10" class="node">
<title>Node10</title>
<g id="a_node10"><a xlink:href="classengine_1_1game_controller.html#ae2459bdafdf03e3b1519a14738744f00" target="_top" xlink:title=" ">
<polygon fill="white" stroke="black" points="438.5,-280 438.5,-310 553.5,-310 553.5,-280 438.5,-280"/>
<text text-anchor="start" x="446.5" y="-298" font-family="Helvetica,sans-Serif" font-size="10.00">engine::gameController</text>
<text text-anchor="middle" x="496" y="-287" font-family="Helvetica,sans-Serif" font-size="10.00">::Instance</text>
</a>
</g>
</g>
<!-- Node1&#45;&gt;Node10 -->
<g id="edge11" class="edge">
<title>Node1&#45;&gt;Node10</title>
<path fill="none" stroke="midnightblue" d="M23.91,-189.75C31.08,-206.22 48.03,-239.18 74,-254 103.99,-271.12 317.26,-285.22 428.24,-291.49"/>
<polygon fill="midnightblue" stroke="midnightblue" points="428.14,-294.99 438.32,-292.06 428.53,-288 428.14,-294.99"/>
</g>
<!-- Node11 -->
<g id="node11" class="node">
<title>Node11</title>
<g id="a_node11"><a xlink:href="classgraphics_1_1_s_f_m_l_facade.html#a0405c3741136d136b5db63559f5b042b" target="_top" xlink:title=" ">
<polygon fill="white" stroke="black" points="74,-214 74,-244 191,-244 191,-214 74,-214"/>
<text text-anchor="start" x="82" y="-232" font-family="Helvetica,sans-Serif" font-size="10.00">graphics::SFMLFacade</text>
<text text-anchor="middle" x="132.5" y="-221" font-family="Helvetica,sans-Serif" font-size="10.00">::Init</text>
</a>
</g>
</g>
<!-- Node1&#45;&gt;Node11 -->
<g id="edge10" class="edge">
<title>Node1&#45;&gt;Node11</title>
<path fill="none" stroke="midnightblue" d="M38.42,-188.74C48.82,-193.62 62.09,-199.76 74,-205 77.79,-206.67 81.73,-208.37 85.69,-210.06"/>
<polygon fill="midnightblue" stroke="midnightblue" points="84.34,-213.29 94.91,-213.97 87.07,-206.85 84.34,-213.29"/>
</g>
<!-- Node12 -->
<g id="node12" class="node">
<title>Node12</title>
<g id="a_node12"><a xlink:href="namespacegraphics_1_1_textures.html#a1b96bb21c0f36a72cb80cfbf286ba9fd" target="_top" xlink:title=" ">
<polygon fill="white" stroke="black" points="85,-165 85,-195 180,-195 180,-165 85,-165"/>
<text text-anchor="start" x="93" y="-183" font-family="Helvetica,sans-Serif" font-size="10.00">graphics::Textures</text>
<text text-anchor="middle" x="132.5" y="-172" font-family="Helvetica,sans-Serif" font-size="10.00">::loadTextures</text>
</a>
</g>
</g>
<!-- Node1&#45;&gt;Node12 -->
<g id="edge12" class="edge">
<title>Node1&#45;&gt;Node12</title>
<path fill="none" stroke="midnightblue" d="M38.41,-180C48.47,-180 61.52,-180 74.66,-180"/>
<polygon fill="midnightblue" stroke="midnightblue" points="74.67,-183.5 84.67,-180 74.67,-176.5 74.67,-183.5"/>
</g>
<!-- Node13 -->
<g id="node13" class="node">
<title>Node13</title>
<g id="a_node13"><a xlink:href="_cell_8cpp.html#a72d9f2f451ca865d77172139a0d5ec79" target="_top" xlink:title=" ">
<polygon fill="white" stroke="black" points="95.5,-126.5 95.5,-145.5 169.5,-145.5 169.5,-126.5 95.5,-126.5"/>
<text text-anchor="middle" x="132.5" y="-133.5" font-family="Helvetica,sans-Serif" font-size="10.00">makeSurface</text>
</a>
</g>
</g>
<!-- Node1&#45;&gt;Node13 -->
<g id="edge13" class="edge">
<title>Node1&#45;&gt;Node13</title>
<path fill="none" stroke="midnightblue" d="M38.33,-171.4C48.71,-166.64 61.98,-160.75 74,-156 80.06,-153.6 86.54,-151.2 92.89,-148.93"/>
<polygon fill="midnightblue" stroke="midnightblue" points="94.39,-152.12 102.66,-145.5 92.07,-145.51 94.39,-152.12"/>
</g>
<!-- Node18 -->
<g id="node18" class="node">
<title>Node18</title>
<g id="a_node18"><a xlink:href="main_8cpp.html#ab258248e0ec5c328881af14a8cff6741" target="_top" xlink:title=" ">
<polygon fill="white" stroke="black" points="107,-88.5 107,-107.5 158,-107.5 158,-88.5 107,-88.5"/>
<text text-anchor="middle" x="132.5" y="-95.5" font-family="Helvetica,sans-Serif" font-size="10.00">readFile</text>
</a>
</g>
</g>
<!-- Node1&#45;&gt;Node18 -->
<g id="edge18" class="edge">
<title>Node1&#45;&gt;Node18</title>
<path fill="none" stroke="midnightblue" d="M25.76,-170.46C34.52,-156.72 52.46,-131.44 74,-117 81.02,-112.3 89.29,-108.67 97.34,-105.92"/>
<polygon fill="midnightblue" stroke="midnightblue" points="98.42,-109.25 106.96,-102.97 96.37,-102.55 98.42,-109.25"/>
</g>
<!-- Node19 -->
<g id="node19" class="node">
<title>Node19</title>
<g id="a_node19"><a xlink:href="classengine_1_1game_controller.html#acbec181b8935b2fd7670808494823345" target="_top" xlink:title=" ">
<polygon fill="white" stroke="black" points="75,-39 75,-69 190,-69 190,-39 75,-39"/>
<text text-anchor="start" x="83" y="-57" font-family="Helvetica,sans-Serif" font-size="10.00">engine::gameController</text>
<text text-anchor="middle" x="132.5" y="-46" font-family="Helvetica,sans-Serif" font-size="10.00">::registerObject</text>
</a>
</g>
</g>
<!-- Node1&#45;&gt;Node19 -->
<g id="edge19" class="edge">
<title>Node1&#45;&gt;Node19</title>
<path fill="none" stroke="midnightblue" d="M22.79,-170.31C28.92,-150.59 45.35,-105.42 74,-79 75.69,-77.44 77.49,-75.97 79.38,-74.58"/>
<polygon fill="midnightblue" stroke="midnightblue" points="81.54,-77.35 88.08,-69.01 77.77,-71.45 81.54,-77.35"/>
</g>
<!-- Node20 -->
<g id="node20" class="node">
<title>Node20</title>
<g id="a_node20"><a xlink:href="class_squads_1_1_squad.html#aa2375e6681c8d5212eead8b8f9d3430d" target="_top" xlink:title=" ">
<polygon fill="white" stroke="black" points="74.5,-0.5 74.5,-19.5 190.5,-19.5 190.5,-0.5 74.5,-0.5"/>
<text text-anchor="middle" x="132.5" y="-7.5" font-family="Helvetica,sans-Serif" font-size="10.00">Squads::Squad::setCell</text>
</a>
</g>
</g>
<!-- Node1&#45;&gt;Node20 -->
<g id="edge20" class="edge">
<title>Node1&#45;&gt;Node20</title>
<path fill="none" stroke="midnightblue" d="M20.61,-170.33C22.81,-143.85 32.56,-69.45 74,-29 75.62,-27.42 77.37,-25.97 79.23,-24.64"/>
<polygon fill="midnightblue" stroke="midnightblue" points="81.04,-27.63 87.9,-19.55 77.5,-21.6 81.04,-27.63"/>
</g>
<!-- Node3 -->
<g id="node3" class="node">
<title>Node3</title>
<g id="a_node3"><a xlink:href="classgraphics_1_1_s_f_m_l_facade.html#a5a508e4f5515d1407348e1e8253f7015" target="_top" xlink:title=" ">
<polygon fill="white" stroke="black" points="254.5,-488 254.5,-518 371.5,-518 371.5,-488 254.5,-488"/>
<text text-anchor="start" x="262.5" y="-506" font-family="Helvetica,sans-Serif" font-size="10.00">graphics::SFMLFacade</text>
<text text-anchor="middle" x="313" y="-495" font-family="Helvetica,sans-Serif" font-size="10.00">::Frame</text>
</a>
</g>
</g>
<!-- Node2&#45;&gt;Node3 -->
<g id="edge2" class="edge">
<title>Node2&#45;&gt;Node3</title>
<path fill="none" stroke="midnightblue" d="M188.51,-469.1C207.09,-474.2 228.01,-479.94 247.27,-485.23"/>
<polygon fill="midnightblue" stroke="midnightblue" points="246.6,-488.68 257.17,-487.95 248.45,-481.93 246.6,-488.68"/>
</g>
<!-- Node4 -->
<g id="node4" class="node">
<title>Node4</title>
<g id="a_node4"><a xlink:href="classgraphics_1_1_s_f_m_l_facade.html#aba3633e15a496111908f54a44e1ee44b" target="_top" xlink:title=" ">
<polygon fill="white" stroke="black" points="254.5,-439 254.5,-469 371.5,-469 371.5,-439 254.5,-439"/>
<text text-anchor="start" x="262.5" y="-457" font-family="Helvetica,sans-Serif" font-size="10.00">graphics::SFMLFacade</text>
<text text-anchor="middle" x="313" y="-446" font-family="Helvetica,sans-Serif" font-size="10.00">::length</text>
</a>
</g>
</g>
<!-- Node2&#45;&gt;Node4 -->
<g id="edge3" class="edge">
<title>Node2&#45;&gt;Node4</title>
<path fill="none" stroke="midnightblue" d="M190.47,-454C207.53,-454 226.4,-454 244.09,-454"/>
<polygon fill="midnightblue" stroke="midnightblue" points="244.35,-457.5 254.35,-454 244.35,-450.5 244.35,-457.5"/>
</g>
<!-- Node6 -->
<g id="node6" class="node">
<title>Node6</title>
<g id="a_node6"><a xlink:href="namespaceutil_1_1cell_gen.html#a4574c3b7d7e54b43a417cdd9f4333d90" target="_top" xlink:title=" ">
<polygon fill="white" stroke="black" points="247,-390 247,-420 379,-420 379,-390 247,-390"/>
<text text-anchor="start" x="255" y="-408" font-family="Helvetica,sans-Serif" font-size="10.00">util::cellGen::circumscribed</text>
<text text-anchor="middle" x="313" y="-397" font-family="Helvetica,sans-Serif" font-size="10.00">Center</text>
</a>
</g>
</g>
<!-- Node5&#45;&gt;Node6 -->
<g id="edge5" class="edge">
<title>Node5&#45;&gt;Node6</title>
<path fill="none" stroke="midnightblue" d="M153.26,-348.54C171.99,-357.37 201.02,-370.53 227,-380 233.41,-382.34 240.15,-384.61 246.91,-386.78"/>
<polygon fill="midnightblue" stroke="midnightblue" points="246.21,-390.23 256.8,-389.88 248.3,-383.55 246.21,-390.23"/>
</g>
<!-- Node7 -->
<g id="node7" class="node">
<title>Node7</title>
<g id="a_node7"><a xlink:href="namespaceutil_1_1cell_gen.html#af3b45f58c0e7835cecd1eb44549613cc" target="_top" xlink:title=" ">
<polygon fill="white" stroke="black" points="253.5,-351.5 253.5,-370.5 372.5,-370.5 372.5,-351.5 253.5,-351.5"/>
<text text-anchor="middle" x="313" y="-358.5" font-family="Helvetica,sans-Serif" font-size="10.00">util::cellGen::convexHull</text>
</a>
</g>
</g>
<!-- Node5&#45;&gt;Node7 -->
<g id="edge6" class="edge">
<title>Node5&#45;&gt;Node7</title>
<path fill="none" stroke="midnightblue" d="M184.65,-345.3C202.9,-347.55 223.76,-350.12 243.25,-352.53"/>
<polygon fill="midnightblue" stroke="midnightblue" points="242.94,-356.01 253.29,-353.76 243.79,-349.07 242.94,-356.01"/>
</g>
<!-- Node9 -->
<g id="node9" class="node">
<title>Node9</title>
<g id="a_node9"><a xlink:href="namespaceutil_1_1cell_gen.html#a74a1c625c7122deb6e4bc56a24b42148" target="_top" xlink:title=" ">
<polygon fill="white" stroke="black" points="252.5,-302 252.5,-332 373.5,-332 373.5,-302 252.5,-302"/>
<text text-anchor="start" x="260.5" y="-320" font-family="Helvetica,sans-Serif" font-size="10.00">util::cellGen::getRandom</text>
<text text-anchor="middle" x="313" y="-309" font-family="Helvetica,sans-Serif" font-size="10.00">Points</text>
</a>
</g>
</g>
<!-- Node5&#45;&gt;Node9 -->
<g id="edge8" class="edge">
<title>Node5&#45;&gt;Node9</title>
<path fill="none" stroke="midnightblue" d="M184.65,-332.7C202.64,-330.48 223.16,-327.95 242.4,-325.58"/>
<polygon fill="midnightblue" stroke="midnightblue" points="242.83,-329.05 252.33,-324.35 241.98,-322.1 242.83,-329.05"/>
</g>
<!-- Node8 -->
<g id="node8" class="node">
<title>Node8</title>
<g id="a_node8"><a xlink:href="namespaceutil_1_1cell_gen.html#af9981b34d944b165df9a4f8f4f2cb200" target="_top" xlink:title=" ">
<polygon fill="white" stroke="black" points="442.5,-351.5 442.5,-370.5 549.5,-370.5 549.5,-351.5 442.5,-351.5"/>
<text text-anchor="middle" x="496" y="-358.5" font-family="Helvetica,sans-Serif" font-size="10.00">util::cellGen::isHigher</text>
</a>
</g>
</g>
<!-- Node7&#45;&gt;Node8 -->
<g id="edge7" class="edge">
<title>Node7&#45;&gt;Node8</title>
<path fill="none" stroke="midnightblue" d="M372.77,-361C391.75,-361 412.87,-361 432.14,-361"/>
<polygon fill="midnightblue" stroke="midnightblue" points="432.33,-364.5 442.33,-361 432.33,-357.5 432.33,-364.5"/>
</g>
<!-- Node9&#45;&gt;Node10 -->
<g id="edge9" class="edge">
<title>Node9&#45;&gt;Node10</title>
<path fill="none" stroke="midnightblue" d="M373.52,-309.77C391,-307.64 410.23,-305.3 428.14,-303.13"/>
<polygon fill="midnightblue" stroke="midnightblue" points="428.71,-306.58 438.21,-301.9 427.87,-299.63 428.71,-306.58"/>
</g>
<!-- Node14 -->
<g id="node14" class="node">
<title>Node14</title>
<g id="a_node14"><a xlink:href="namespace_squads.html#a9514eb273efdac8a60d2818aac4cfcb9" target="_top" xlink:title=" ">
<polygon fill="white" stroke="black" points="227,-164.5 227,-183.5 399,-183.5 399,-164.5 227,-164.5"/>
<text text-anchor="middle" x="313" y="-171.5" font-family="Helvetica,sans-Serif" font-size="10.00">Squads::setDefaultSquadTemplates</text>
</a>
</g>
</g>
<!-- Node13&#45;&gt;Node14 -->
<g id="edge14" class="edge">
<title>Node13&#45;&gt;Node14</title>
<path fill="none" stroke="midnightblue" d="M169.62,-143.69C194.77,-149.04 228.77,-156.28 257.24,-162.34"/>
<polygon fill="midnightblue" stroke="midnightblue" points="256.55,-165.77 267.06,-164.43 258.01,-158.93 256.55,-165.77"/>
</g>
<!-- Node16 -->
<g id="node16" class="node">
<title>Node16</title>
<g id="a_node16"><a xlink:href="namespace_flags.html#af24c2fab93a3733f1eeddb4a9d7a8ea0" target="_top" xlink:title=" ">
<polygon fill="white" stroke="black" points="271.5,-126.5 271.5,-145.5 354.5,-145.5 354.5,-126.5 271.5,-126.5"/>
<text text-anchor="middle" x="313" y="-133.5" font-family="Helvetica,sans-Serif" font-size="10.00">Flags::setFlags</text>
</a>
</g>
</g>
<!-- Node13&#45;&gt;Node16 -->
<g id="edge16" class="edge">
<title>Node13&#45;&gt;Node16</title>
<path fill="none" stroke="midnightblue" d="M169.62,-136C195.96,-136 232,-136 261.23,-136"/>
<polygon fill="midnightblue" stroke="midnightblue" points="261.25,-139.5 271.25,-136 261.25,-132.5 261.25,-139.5"/>
</g>
<!-- Node17 -->
<g id="node17" class="node">
<title>Node17</title>
<g id="a_node17"><a xlink:href="namespace_units.html#a22de1e70007104dbc48811a834119d63" target="_top" xlink:title=" ">
<polygon fill="white" stroke="black" points="272.5,-88.5 272.5,-107.5 353.5,-107.5 353.5,-88.5 272.5,-88.5"/>
<text text-anchor="middle" x="313" y="-95.5" font-family="Helvetica,sans-Serif" font-size="10.00">Units::setUnits</text>
</a>
</g>
</g>
<!-- Node13&#45;&gt;Node17 -->
<g id="edge17" class="edge">
<title>Node13&#45;&gt;Node17</title>
<path fill="none" stroke="midnightblue" d="M169.62,-128.31C196.23,-122.65 232.75,-114.87 262.13,-108.62"/>
<polygon fill="midnightblue" stroke="midnightblue" points="263.15,-111.98 272.2,-106.47 261.7,-105.13 263.15,-111.98"/>
</g>
<!-- Node15 -->
<g id="node15" class="node">
<title>Node15</title>
<g id="a_node15"><a xlink:href="class_squads_1_1_squad_template.html#a802b8fd430eda0b96170c9d84b0a788e" target="_top" xlink:title=" ">
<polygon fill="white" stroke="black" points="435,-159 435,-189 557,-189 557,-159 435,-159"/>
<text text-anchor="start" x="443" y="-177" font-family="Helvetica,sans-Serif" font-size="10.00">Squads::SquadTemplate</text>
<text text-anchor="middle" x="496" y="-166" font-family="Helvetica,sans-Serif" font-size="10.00">::addFactory</text>
</a>
</g>
</g>
<!-- Node14&#45;&gt;Node15 -->
<g id="edge15" class="edge">
<title>Node14&#45;&gt;Node15</title>
<path fill="none" stroke="midnightblue" d="M399.2,-174C407.74,-174 416.34,-174 424.7,-174"/>
<polygon fill="midnightblue" stroke="midnightblue" points="424.76,-177.5 434.76,-174 424.76,-170.5 424.76,-177.5"/>
</g>
</g>
</svg>
