<?xml version="1.0" encoding="UTF-8" standalone="no"?>
<!DOCTYPE svg PUBLIC "-//W3C//DTD SVG 1.1//EN"
 "http://www.w3.org/Graphics/SVG/1.1/DTD/svg11.dtd">
<!-- Generated by graphviz version 2.47.1 (20210421.1823)
 -->
<!-- Title: include/util/pathfinding.h Pages: 1 -->
<svg width="1398pt" height="599pt"
 viewBox="0.00 0.00 1398.00 599.00" xmlns="http://www.w3.org/2000/svg" xmlns:xlink="http://www.w3.org/1999/xlink">
<g id="graph0" class="graph" transform="scale(1 1) rotate(0) translate(4 595)">
<title>include/util/pathfinding.h</title>
<polygon fill="white" stroke="transparent" points="-4,4 -4,-595 1394,-595 1394,4 -4,4"/>
<!-- Node1 -->
<g id="node1" class="node">
<title>Node1</title>
<g id="a_node1"><a xlink:title=" ">
<polygon fill="#bfbfbf" stroke="black" points="484,-571.5 484,-590.5 604,-590.5 604,-571.5 484,-571.5"/>
<text text-anchor="middle" x="544" y="-578.5" font-family="Helvetica,sans-Serif" font-size="10.00">include/util/pathfinding.h</text>
</a>
</g>
</g>
<!-- Node2 -->
<g id="node2" class="node">
<title>Node2</title>
<g id="a_node2"><a xlink:title=" ">
<polygon fill="white" stroke="#bfbfbf" points="1275.5,-112.5 1275.5,-131.5 1304.5,-131.5 1304.5,-112.5 1275.5,-112.5"/>
<text text-anchor="middle" x="1290" y="-119.5" font-family="Helvetica,sans-Serif" font-size="10.00">list</text>
</a>
</g>
</g>
<!-- Node1&#45;&gt;Node2 -->
<g id="edge1" class="edge">
<title>Node1&#45;&gt;Node2</title>
<path fill="none" stroke="midnightblue" d="M604.16,-578.51C797.44,-572.92 1390,-549.33 1390,-470 1390,-470 1390,-470 1390,-233 1390,-187.82 1343.24,-152.99 1313.67,-135.49"/>
<polygon fill="midnightblue" stroke="midnightblue" points="1315.18,-132.32 1304.76,-130.42 1311.72,-138.4 1315.18,-132.32"/>
</g>
<!-- Node3 -->
<g id="node3" class="node">
<title>Node3</title>
<g id="a_node3"><a xlink:href="_cell_8h.html" target="_top" xlink:title=" ">
<polygon fill="white" stroke="black" points="497,-515.5 497,-534.5 591,-534.5 591,-515.5 497,-515.5"/>
<text text-anchor="middle" x="544" y="-522.5" font-family="Helvetica,sans-Serif" font-size="10.00">GameLogic/Cell.h</text>
</a>
</g>
</g>
<!-- Node1&#45;&gt;Node3 -->
<g id="edge2" class="edge">
<title>Node1&#45;&gt;Node3</title>
<path fill="none" stroke="midnightblue" d="M544,-571.08C544,-564.01 544,-553.86 544,-544.99"/>
<polygon fill="midnightblue" stroke="midnightblue" points="547.5,-544.75 544,-534.75 540.5,-544.75 547.5,-544.75"/>
</g>
<!-- Node21 -->
<g id="node21" class="node">
<title>Node21</title>
<g id="a_node21"><a xlink:href="_squad_8h.html" target="_top" xlink:title=" ">
<polygon fill="white" stroke="black" points="188,-403.5 188,-422.5 240,-422.5 240,-403.5 188,-403.5"/>
<text text-anchor="middle" x="214" y="-410.5" font-family="Helvetica,sans-Serif" font-size="10.00">Squad.h</text>
</a>
</g>
</g>
<!-- Node1&#45;&gt;Node21 -->
<g id="edge83" class="edge">
<title>Node1&#45;&gt;Node21</title>
<path fill="none" stroke="midnightblue" d="M483.76,-577.04C413.55,-570.31 298.66,-548.58 232,-479 220.24,-466.72 216.03,-447.47 214.59,-433.09"/>
<polygon fill="midnightblue" stroke="midnightblue" points="218.06,-432.6 213.93,-422.84 211.08,-433.04 218.06,-432.6"/>
</g>
<!-- Node4 -->
<g id="node4" class="node">
<title>Node4</title>
<g id="a_node4"><a xlink:href="gameplay_clickable_game_object_8h.html" target="_top" xlink:title=" ">
<polygon fill="white" stroke="black" points="880.5,-336.5 880.5,-366.5 1009.5,-366.5 1009.5,-336.5 880.5,-336.5"/>
<text text-anchor="start" x="888.5" y="-354.5" font-family="Helvetica,sans-Serif" font-size="10.00">engine/gameplayClickable</text>
<text text-anchor="middle" x="945" y="-343.5" font-family="Helvetica,sans-Serif" font-size="10.00">GameObject.h</text>
</a>
</g>
</g>
<!-- Node3&#45;&gt;Node4 -->
<g id="edge3" class="edge">
<title>Node3&#45;&gt;Node4</title>
<path fill="none" stroke="midnightblue" d="M587.28,-515.47C621.98,-507.93 671.55,-495.54 713,-479 788.98,-448.68 871.67,-399.22 914.86,-372"/>
<polygon fill="midnightblue" stroke="midnightblue" points="916.9,-374.86 923.46,-366.54 913.15,-368.95 916.9,-374.86"/>
</g>
<!-- Node6 -->
<g id="node6" class="node">
<title>Node6</title>
<g id="a_node6"><a xlink:href="config_8h.html" target="_top" xlink:title=" ">
<polygon fill="white" stroke="black" points="228.5,-112.5 228.5,-131.5 309.5,-131.5 309.5,-112.5 228.5,-112.5"/>
<text text-anchor="middle" x="269" y="-119.5" font-family="Helvetica,sans-Serif" font-size="10.00">engine/config.h</text>
</a>
</g>
</g>
<!-- Node3&#45;&gt;Node6 -->
<g id="edge23" class="edge">
<title>Node3&#45;&gt;Node6</title>
<path fill="none" stroke="midnightblue" d="M496.94,-521.51C431.69,-517.11 318.32,-505.76 288,-479 265.34,-459 268,-444.23 268,-414 268,-414 268,-414 268,-233 268,-200.95 268.43,-163.64 268.73,-141.75"/>
<polygon fill="midnightblue" stroke="midnightblue" points="272.23,-141.61 268.87,-131.56 265.23,-141.51 272.23,-141.61"/>
</g>
<!-- Node9 -->
<g id="node9" class="node">
<title>Node9</title>
<g id="a_node9"><a xlink:href="_facade_8h.html" target="_top" xlink:title=" ">
<polygon fill="white" stroke="black" points="164,-0.5 164,-19.5 220,-19.5 220,-0.5 164,-0.5"/>
<text text-anchor="middle" x="192" y="-7.5" font-family="Helvetica,sans-Serif" font-size="10.00">Facade.h</text>
</a>
</g>
</g>
<!-- Node3&#45;&gt;Node9 -->
<g id="edge24" class="edge">
<title>Node3&#45;&gt;Node9</title>
<path fill="none" stroke="midnightblue" d="M496.68,-524.42C364.32,-524.34 0,-514.93 0,-414 0,-414 0,-414 0,-121 0,-50.84 97.72,-24.8 153.73,-15.64"/>
<polygon fill="midnightblue" stroke="midnightblue" points="154.31,-19.09 163.67,-14.12 153.26,-12.17 154.31,-19.09"/>
</g>
<!-- Node12 -->
<g id="node12" class="node">
<title>Node12</title>
<g id="a_node12"><a xlink:title=" ">
<polygon fill="white" stroke="#bfbfbf" points="1045,-56.5 1045,-75.5 1099,-75.5 1099,-56.5 1045,-56.5"/>
<text text-anchor="middle" x="1072" y="-63.5" font-family="Helvetica,sans-Serif" font-size="10.00">iostream</text>
</a>
</g>
</g>
<!-- Node3&#45;&gt;Node12 -->
<g id="edge45" class="edge">
<title>Node3&#45;&gt;Node12</title>
<path fill="none" stroke="midnightblue" d="M591.37,-522.56C719.95,-518.34 1073.49,-504.69 1187,-479 1263.87,-461.6 1352,-492.82 1352,-414 1352,-414 1352,-414 1352,-177 1352,-143.54 1341.37,-131.25 1314,-112 1281.52,-89.16 1168.66,-75.77 1109.25,-70.14"/>
<polygon fill="midnightblue" stroke="midnightblue" points="1109.43,-66.64 1099.15,-69.21 1108.79,-73.61 1109.43,-66.64"/>
</g>
<!-- Node14 -->
<g id="node14" class="node">
<title>Node14</title>
<g id="a_node14"><a xlink:href="cellgen_8h.html" target="_top" xlink:title=" ">
<polygon fill="white" stroke="black" points="1002.5,-403.5 1002.5,-422.5 1073.5,-422.5 1073.5,-403.5 1002.5,-403.5"/>
<text text-anchor="middle" x="1038" y="-410.5" font-family="Helvetica,sans-Serif" font-size="10.00">util/cellgen.h</text>
</a>
</g>
</g>
<!-- Node3&#45;&gt;Node14 -->
<g id="edge14" class="edge">
<title>Node3&#45;&gt;Node14</title>
<path fill="none" stroke="midnightblue" d="M591.21,-520.88C655.05,-515.88 772.06,-504 869,-479 920.31,-465.77 977.32,-441.78 1010.28,-426.94"/>
<polygon fill="midnightblue" stroke="midnightblue" points="1012.05,-429.98 1019.7,-422.65 1009.15,-423.61 1012.05,-429.98"/>
</g>
<!-- Node16 -->
<g id="node16" class="node">
<title>Node16</title>
<g id="a_node16"><a xlink:title=" ">
<polygon fill="white" stroke="#bfbfbf" points="1212.5,-342 1212.5,-361 1247.5,-361 1247.5,-342 1212.5,-342"/>
<text text-anchor="middle" x="1230" y="-349" font-family="Helvetica,sans-Serif" font-size="10.00">map</text>
</a>
</g>
</g>
<!-- Node3&#45;&gt;Node16 -->
<g id="edge44" class="edge">
<title>Node3&#45;&gt;Node16</title>
<path fill="none" stroke="midnightblue" d="M591.1,-521.23C661.74,-516.42 799,-504.47 913,-479 990.64,-461.66 1009.05,-452.32 1083,-423 1137.71,-401.31 1150.39,-393.38 1203,-367 1203.81,-366.59 1204.63,-366.18 1205.46,-365.75"/>
<polygon fill="midnightblue" stroke="midnightblue" points="1207.14,-368.83 1214.37,-361.08 1203.89,-362.63 1207.14,-368.83"/>
</g>
<!-- Node18 -->
<g id="node18" class="node">
<title>Node18</title>
<g id="a_node18"><a xlink:href="_all_flags_8h.html" target="_top" xlink:title=" ">
<polygon fill="white" stroke="black" points="518.5,-224.5 518.5,-243.5 577.5,-243.5 577.5,-224.5 518.5,-224.5"/>
<text text-anchor="middle" x="548" y="-231.5" font-family="Helvetica,sans-Serif" font-size="10.00">AllFlags.h</text>
</a>
</g>
</g>
<!-- Node3&#45;&gt;Node18 -->
<g id="edge18" class="edge">
<title>Node3&#45;&gt;Node18</title>
<path fill="none" stroke="midnightblue" d="M546.97,-515.28C552.97,-496.82 566,-452.37 566,-414 566,-414 566,-414 566,-350.5 566,-315.95 558.04,-276.28 552.71,-253.57"/>
<polygon fill="midnightblue" stroke="midnightblue" points="556.05,-252.51 550.28,-243.62 549.25,-254.17 556.05,-252.51"/>
</g>
<!-- Node3&#45;&gt;Node21 -->
<g id="edge25" class="edge">
<title>Node3&#45;&gt;Node21</title>
<path fill="none" stroke="midnightblue" d="M496.79,-521.79C422.96,-517.38 284.94,-505.54 245,-479 228.64,-468.13 217.82,-448.06 213.35,-433.08"/>
<polygon fill="midnightblue" stroke="midnightblue" points="216.68,-431.92 211.18,-422.86 209.83,-433.37 216.68,-431.92"/>
</g>
<!-- Node28 -->
<g id="node28" class="node">
<title>Node28</title>
<g id="a_node28"><a xlink:href="geometry_8h.html" target="_top" xlink:title=" ">
<polygon fill="white" stroke="black" points="780,-459.5 780,-478.5 860,-478.5 860,-459.5 780,-459.5"/>
<text text-anchor="middle" x="820" y="-466.5" font-family="Helvetica,sans-Serif" font-size="10.00">util/geometry.h</text>
</a>
</g>
</g>
<!-- Node3&#45;&gt;Node28 -->
<g id="edge46" class="edge">
<title>Node3&#45;&gt;Node28</title>
<path fill="none" stroke="midnightblue" d="M587.73,-515.44C637.18,-505.77 717.56,-490.04 769.6,-479.86"/>
<polygon fill="midnightblue" stroke="midnightblue" points="770.47,-483.26 779.61,-477.9 769.13,-476.39 770.47,-483.26"/>
</g>
<!-- Node29 -->
<g id="node29" class="node">
<title>Node29</title>
<g id="a_node29"><a xlink:href="_none_8h.html" target="_top" xlink:title=" ">
<polygon fill="white" stroke="black" points="1129.5,-168.5 1129.5,-187.5 1242.5,-187.5 1242.5,-168.5 1129.5,-168.5"/>
<text text-anchor="middle" x="1186" y="-175.5" font-family="Helvetica,sans-Serif" font-size="10.00">engine/actions/None.h</text>
</a>
</g>
</g>
<!-- Node3&#45;&gt;Node29 -->
<g id="edge49" class="edge">
<title>Node3&#45;&gt;Node29</title>
<path fill="none" stroke="midnightblue" d="M591.01,-522.27C758.19,-515.49 1314,-487.43 1314,-414 1314,-414 1314,-414 1314,-350.5 1314,-280.29 1244.24,-220.28 1207.72,-193.67"/>
<polygon fill="midnightblue" stroke="midnightblue" points="1209.4,-190.57 1199.22,-187.64 1205.35,-196.28 1209.4,-190.57"/>
</g>
<!-- Node30 -->
<g id="node30" class="node">
<title>Node30</title>
<g id="a_node30"><a xlink:href="game_controller_8h.html" target="_top" xlink:title=" ">
<polygon fill="white" stroke="black" points="1123.5,-280.5 1123.5,-299.5 1244.5,-299.5 1244.5,-280.5 1123.5,-280.5"/>
<text text-anchor="middle" x="1184" y="-287.5" font-family="Helvetica,sans-Serif" font-size="10.00">engine/gameController.h</text>
</a>
</g>
</g>
<!-- Node3&#45;&gt;Node30 -->
<g id="edge51" class="edge">
<title>Node3&#45;&gt;Node30</title>
<path fill="none" stroke="midnightblue" d="M591.22,-522.59C669.58,-519.45 831.06,-509.52 964,-479 1099.88,-447.8 1179.28,-482.74 1257,-367 1264.68,-355.56 1263.72,-348.03 1257,-336 1248.84,-321.39 1233.78,-310.94 1219.45,-303.8"/>
<polygon fill="midnightblue" stroke="midnightblue" points="1220.76,-300.56 1210.21,-299.59 1217.85,-306.92 1220.76,-300.56"/>
</g>
<!-- Node34 -->
<g id="node34" class="node">
<title>Node34</title>
<g id="a_node34"><a xlink:href="_set_squad_path_8h.html" target="_top" xlink:title=" ">
<polygon fill="white" stroke="black" points="296.5,-459.5 296.5,-478.5 449.5,-478.5 449.5,-459.5 296.5,-459.5"/>
<text text-anchor="middle" x="373" y="-466.5" font-family="Helvetica,sans-Serif" font-size="10.00">engine/actions/SetSquadPath.h</text>
</a>
</g>
</g>
<!-- Node3&#45;&gt;Node34 -->
<g id="edge60" class="edge">
<title>Node3&#45;&gt;Node34</title>
<path fill="none" stroke="midnightblue" d="M511.82,-515.44C481.06,-506.36 435.19,-491.94 404.62,-481.78"/>
<polygon fill="midnightblue" stroke="midnightblue" points="405.48,-478.38 394.89,-478.52 403.26,-485.02 405.48,-478.38"/>
</g>
<!-- Node35 -->
<g id="node35" class="node">
<title>Node35</title>
<g id="a_node35"><a xlink:href="_all_units_8h.html" target="_top" xlink:title=" ">
<polygon fill="white" stroke="black" points="478.5,-403.5 478.5,-422.5 537.5,-422.5 537.5,-403.5 478.5,-403.5"/>
<text text-anchor="middle" x="508" y="-410.5" font-family="Helvetica,sans-Serif" font-size="10.00">AllUnits.h</text>
</a>
</g>
</g>
<!-- Node3&#45;&gt;Node35 -->
<g id="edge64" class="edge">
<title>Node3&#45;&gt;Node35</title>
<path fill="none" stroke="midnightblue" d="M541.18,-515.37C535.34,-497.54 521.84,-456.3 513.98,-432.27"/>
<polygon fill="midnightblue" stroke="midnightblue" points="517.25,-431.01 510.81,-422.59 510.6,-433.18 517.25,-431.01"/>
</g>
<!-- Node37 -->
<g id="node37" class="node">
<title>Node37</title>
<g id="a_node37"><a xlink:href="_all_squad_templates_8h.html" target="_top" xlink:title=" ">
<polygon fill="white" stroke="black" points="594.5,-459.5 594.5,-478.5 703.5,-478.5 703.5,-459.5 594.5,-459.5"/>
<text text-anchor="middle" x="649" y="-466.5" font-family="Helvetica,sans-Serif" font-size="10.00">AllSquadTemplates.h</text>
</a>
</g>
</g>
<!-- Node3&#45;&gt;Node37 -->
<g id="edge69" class="edge">
<title>Node3&#45;&gt;Node37</title>
<path fill="none" stroke="midnightblue" d="M560.87,-515.32C577.71,-506.66 603.81,-493.24 623.24,-483.25"/>
<polygon fill="midnightblue" stroke="midnightblue" points="624.88,-486.34 632.17,-478.65 621.68,-480.12 624.88,-486.34"/>
</g>
<!-- Node5 -->
<g id="node5" class="node">
<title>Node5</title>
<g id="a_node5"><a xlink:href="game_object_8h.html" target="_top" xlink:title=" ">
<polygon fill="white" stroke="black" points="906.5,-168.5 906.5,-187.5 983.5,-187.5 983.5,-168.5 906.5,-168.5"/>
<text text-anchor="middle" x="945" y="-175.5" font-family="Helvetica,sans-Serif" font-size="10.00">gameObject.h</text>
</a>
</g>
</g>
<!-- Node4&#45;&gt;Node5 -->
<g id="edge4" class="edge">
<title>Node4&#45;&gt;Node5</title>
<path fill="none" stroke="midnightblue" d="M945,-336.47C945,-305.7 945,-232.33 945,-197.7"/>
<polygon fill="midnightblue" stroke="midnightblue" points="948.5,-197.56 945,-187.56 941.5,-197.56 948.5,-197.56"/>
</g>
<!-- Node5&#45;&gt;Node2 -->
<g id="edge5" class="edge">
<title>Node5&#45;&gt;Node2</title>
<path fill="none" stroke="midnightblue" d="M983.57,-170.96C1055.08,-159.77 1206.32,-136.1 1265.52,-126.83"/>
<polygon fill="midnightblue" stroke="midnightblue" points="1266.12,-130.28 1275.46,-125.28 1265.04,-123.36 1266.12,-130.28"/>
</g>
<!-- Node5&#45;&gt;Node6 -->
<g id="edge6" class="edge">
<title>Node5&#45;&gt;Node6</title>
<path fill="none" stroke="midnightblue" d="M906.39,-175.65C809.51,-171.97 548.17,-160.15 319.77,-131.95"/>
<polygon fill="midnightblue" stroke="midnightblue" points="319.96,-128.45 309.6,-130.68 319.09,-135.39 319.96,-128.45"/>
</g>
<!-- Node11 -->
<g id="node11" class="node">
<title>Node11</title>
<g id="a_node11"><a xlink:href="engine_2_action_8h.html" target="_top" xlink:title=" ">
<polygon fill="white" stroke="black" points="903.5,-112.5 903.5,-131.5 986.5,-131.5 986.5,-112.5 903.5,-112.5"/>
<text text-anchor="middle" x="945" y="-119.5" font-family="Helvetica,sans-Serif" font-size="10.00">engine/Action.h</text>
</a>
</g>
</g>
<!-- Node5&#45;&gt;Node11 -->
<g id="edge11" class="edge">
<title>Node5&#45;&gt;Node11</title>
<path fill="none" stroke="midnightblue" d="M945,-168.08C945,-161.01 945,-150.86 945,-141.99"/>
<polygon fill="midnightblue" stroke="midnightblue" points="948.5,-141.75 945,-131.75 941.5,-141.75 948.5,-141.75"/>
</g>
<!-- Node7 -->
<g id="node7" class="node">
<title>Node7</title>
<g id="a_node7"><a xlink:href="_s_f_m_l_facade_8h.html" target="_top" xlink:title=" ">
<polygon fill="white" stroke="black" points="336.5,-56.5 336.5,-75.5 459.5,-75.5 459.5,-56.5 336.5,-56.5"/>
<text text-anchor="middle" x="398" y="-63.5" font-family="Helvetica,sans-Serif" font-size="10.00">graphics/SFMLFacade.h</text>
</a>
</g>
</g>
<!-- Node6&#45;&gt;Node7 -->
<g id="edge7" class="edge">
<title>Node6&#45;&gt;Node7</title>
<path fill="none" stroke="midnightblue" d="M289.44,-112.44C310.67,-103.56 344.1,-89.56 368.25,-79.45"/>
<polygon fill="midnightblue" stroke="midnightblue" points="369.78,-82.61 377.66,-75.52 367.08,-76.15 369.78,-82.61"/>
</g>
<!-- Node10 -->
<g id="node10" class="node">
<title>Node10</title>
<g id="a_node10"><a xlink:title=" ">
<polygon fill="white" stroke="#bfbfbf" points="220,-56.5 220,-75.5 318,-75.5 318,-56.5 220,-56.5"/>
<text text-anchor="middle" x="269" y="-63.5" font-family="Helvetica,sans-Serif" font-size="10.00">nlohmann/json.hpp</text>
</a>
</g>
</g>
<!-- Node6&#45;&gt;Node10 -->
<g id="edge10" class="edge">
<title>Node6&#45;&gt;Node10</title>
<path fill="none" stroke="midnightblue" d="M269,-112.08C269,-105.01 269,-94.86 269,-85.99"/>
<polygon fill="midnightblue" stroke="midnightblue" points="272.5,-85.75 269,-75.75 265.5,-85.75 272.5,-85.75"/>
</g>
<!-- Node8 -->
<g id="node8" class="node">
<title>Node8</title>
<g id="a_node8"><a xlink:title=" ">
<polygon fill="white" stroke="#bfbfbf" points="346,-0.5 346,-19.5 450,-19.5 450,-0.5 346,-0.5"/>
<text text-anchor="middle" x="398" y="-7.5" font-family="Helvetica,sans-Serif" font-size="10.00">SFML/Graphics.hpp</text>
</a>
</g>
</g>
<!-- Node7&#45;&gt;Node8 -->
<g id="edge8" class="edge">
<title>Node7&#45;&gt;Node8</title>
<path fill="none" stroke="midnightblue" d="M398,-56.08C398,-49.01 398,-38.86 398,-29.99"/>
<polygon fill="midnightblue" stroke="midnightblue" points="401.5,-29.75 398,-19.75 394.5,-29.75 401.5,-29.75"/>
</g>
<!-- Node7&#45;&gt;Node9 -->
<g id="edge9" class="edge">
<title>Node7&#45;&gt;Node9</title>
<path fill="none" stroke="midnightblue" d="M365.36,-56.44C328.6,-46.81 268.93,-31.17 230.07,-20.98"/>
<polygon fill="midnightblue" stroke="midnightblue" points="230.75,-17.54 220.19,-18.39 228.97,-24.31 230.75,-17.54"/>
</g>
<!-- Node11&#45;&gt;Node12 -->
<g id="edge12" class="edge">
<title>Node11&#45;&gt;Node12</title>
<path fill="none" stroke="midnightblue" d="M965.12,-112.44C986.02,-103.56 1018.93,-89.56 1042.72,-79.45"/>
<polygon fill="midnightblue" stroke="midnightblue" points="1044.14,-82.65 1051.97,-75.52 1041.4,-76.21 1044.14,-82.65"/>
</g>
<!-- Node13 -->
<g id="node13" class="node">
<title>Node13</title>
<g id="a_node13"><a xlink:title=" ">
<polygon fill="white" stroke="#bfbfbf" points="791.5,-56.5 791.5,-75.5 842.5,-75.5 842.5,-56.5 791.5,-56.5"/>
<text text-anchor="middle" x="817" y="-63.5" font-family="Helvetica,sans-Serif" font-size="10.00">memory</text>
</a>
</g>
</g>
<!-- Node11&#45;&gt;Node13 -->
<g id="edge13" class="edge">
<title>Node11&#45;&gt;Node13</title>
<path fill="none" stroke="midnightblue" d="M924.72,-112.44C903.65,-103.56 870.48,-89.56 846.51,-79.45"/>
<polygon fill="midnightblue" stroke="midnightblue" points="847.76,-76.18 837.19,-75.52 845.04,-82.63 847.76,-76.18"/>
</g>
<!-- Node15 -->
<g id="node15" class="node">
<title>Node15</title>
<g id="a_node15"><a xlink:title=" ">
<polygon fill="white" stroke="#bfbfbf" points="660,-112.5 660,-131.5 704,-131.5 704,-112.5 660,-112.5"/>
<text text-anchor="middle" x="682" y="-119.5" font-family="Helvetica,sans-Serif" font-size="10.00">vector</text>
</a>
</g>
</g>
<!-- Node14&#45;&gt;Node15 -->
<g id="edge15" class="edge">
<title>Node14&#45;&gt;Node15</title>
<path fill="none" stroke="midnightblue" d="M1037.54,-403.36C1036.4,-388.54 1032.46,-357.74 1019,-336 946.59,-219 783.42,-155.27 714.11,-132.63"/>
<polygon fill="midnightblue" stroke="midnightblue" points="714.8,-129.17 704.21,-129.46 712.67,-135.84 714.8,-129.17"/>
</g>
<!-- Node14&#45;&gt;Node16 -->
<g id="edge16" class="edge">
<title>Node14&#45;&gt;Node16</title>
<path fill="none" stroke="midnightblue" d="M1073.52,-404.76C1107.45,-397.28 1159.7,-384.27 1203,-367 1204.04,-366.59 1205.09,-366.14 1206.14,-365.68"/>
<polygon fill="midnightblue" stroke="midnightblue" points="1208.01,-368.66 1215.44,-361.1 1204.92,-362.38 1208.01,-368.66"/>
</g>
<!-- Node17 -->
<g id="node17" class="node">
<title>Node17</title>
<g id="a_node17"><a xlink:title=" ">
<polygon fill="white" stroke="#bfbfbf" points="1066,-342 1066,-361 1194,-361 1194,-342 1066,-342"/>
<text text-anchor="middle" x="1130" y="-349" font-family="Helvetica,sans-Serif" font-size="10.00">scanline_triangulation.hpp</text>
</a>
</g>
</g>
<!-- Node14&#45;&gt;Node17 -->
<g id="edge17" class="edge">
<title>Node14&#45;&gt;Node17</title>
<path fill="none" stroke="midnightblue" d="M1051.18,-403.48C1066.07,-393.84 1090.54,-378.02 1108.27,-366.55"/>
<polygon fill="midnightblue" stroke="midnightblue" points="1110.35,-369.38 1116.84,-361.01 1106.55,-363.5 1110.35,-369.38"/>
</g>
<!-- Node18&#45;&gt;Node13 -->
<g id="edge22" class="edge">
<title>Node18&#45;&gt;Node13</title>
<path fill="none" stroke="midnightblue" d="M540.59,-224.41C530.3,-211.37 514.21,-186.2 526,-168 581.63,-82.12 716.68,-68.19 781.34,-66.64"/>
<polygon fill="midnightblue" stroke="midnightblue" points="781.51,-70.14 791.46,-66.48 781.41,-63.14 781.51,-70.14"/>
</g>
<!-- Node19 -->
<g id="node19" class="node">
<title>Node19</title>
<g id="a_node19"><a xlink:href="_flag_8h.html" target="_top" xlink:title=" ">
<polygon fill="white" stroke="black" points="534.5,-168.5 534.5,-187.5 577.5,-187.5 577.5,-168.5 534.5,-168.5"/>
<text text-anchor="middle" x="556" y="-175.5" font-family="Helvetica,sans-Serif" font-size="10.00">Flag.h</text>
</a>
</g>
</g>
<!-- Node18&#45;&gt;Node19 -->
<g id="edge19" class="edge">
<title>Node18&#45;&gt;Node19</title>
<path fill="none" stroke="midnightblue" d="M549.32,-224.08C550.38,-216.93 551.91,-206.64 553.23,-197.69"/>
<polygon fill="midnightblue" stroke="midnightblue" points="556.7,-198.16 554.7,-187.75 549.78,-197.13 556.7,-198.16"/>
</g>
<!-- Node19&#45;&gt;Node15 -->
<g id="edge20" class="edge">
<title>Node19&#45;&gt;Node15</title>
<path fill="none" stroke="midnightblue" d="M575.97,-168.44C596.61,-159.6 629.06,-145.69 652.63,-135.59"/>
<polygon fill="midnightblue" stroke="midnightblue" points="654.32,-138.67 662.13,-131.52 651.56,-132.24 654.32,-138.67"/>
</g>
<!-- Node20 -->
<g id="node20" class="node">
<title>Node20</title>
<g id="a_node20"><a xlink:title=" ">
<polygon fill="white" stroke="#bfbfbf" points="436.5,-112.5 436.5,-131.5 477.5,-131.5 477.5,-112.5 436.5,-112.5"/>
<text text-anchor="middle" x="457" y="-119.5" font-family="Helvetica,sans-Serif" font-size="10.00">string</text>
</a>
</g>
</g>
<!-- Node19&#45;&gt;Node20 -->
<g id="edge21" class="edge">
<title>Node19&#45;&gt;Node20</title>
<path fill="none" stroke="midnightblue" d="M540.09,-168.32C524.36,-159.74 500.06,-146.49 481.79,-136.52"/>
<polygon fill="midnightblue" stroke="midnightblue" points="483.32,-133.37 472.87,-131.65 479.97,-139.52 483.32,-133.37"/>
</g>
<!-- Node21&#45;&gt;Node3 -->
<g id="edge26" class="edge">
<title>Node21&#45;&gt;Node3</title>
<path fill="none" stroke="midnightblue" d="M222.28,-422.86C230.66,-437.23 242.47,-465.36 263,-479 299.1,-502.99 415.3,-514.97 486.55,-520.3"/>
<polygon fill="midnightblue" stroke="midnightblue" points="486.49,-523.81 496.72,-521.04 487,-516.83 486.49,-523.81"/>
</g>
<!-- Node21&#45;&gt;Node4 -->
<g id="edge38" class="edge">
<title>Node21&#45;&gt;Node4</title>
<path fill="none" stroke="midnightblue" d="M240.29,-410.62C325.82,-406.01 603.85,-390.14 833,-367 844.96,-365.79 857.62,-364.33 869.96,-362.81"/>
<polygon fill="midnightblue" stroke="midnightblue" points="870.74,-366.24 880.22,-361.52 869.86,-359.29 870.74,-366.24"/>
</g>
<!-- Node21&#45;&gt;Node6 -->
<g id="edge42" class="edge">
<title>Node21&#45;&gt;Node6</title>
<path fill="none" stroke="midnightblue" d="M215.96,-403.25C220.23,-383.39 230,-333.38 230,-291 230,-291 230,-291 230,-233 230,-198.72 247.04,-161.7 258.59,-140.54"/>
<polygon fill="midnightblue" stroke="midnightblue" points="261.69,-142.17 263.58,-131.75 255.6,-138.72 261.69,-142.17"/>
</g>
<!-- Node21&#45;&gt;Node9 -->
<g id="edge43" class="edge">
<title>Node21&#45;&gt;Node9</title>
<path fill="none" stroke="midnightblue" d="M211.3,-403.29C205.43,-383.53 192,-333.7 192,-291 192,-291 192,-291 192,-121 192,-88.95 192,-51.64 192,-29.75"/>
<polygon fill="midnightblue" stroke="midnightblue" points="195.5,-29.56 192,-19.56 188.5,-29.56 195.5,-29.56"/>
</g>
<!-- Node22 -->
<g id="node22" class="node">
<title>Node22</title>
<g id="a_node22"><a xlink:href="_unit_8h.html" target="_top" xlink:title=" ">
<polygon fill="white" stroke="black" points="324,-280.5 324,-299.5 446,-299.5 446,-280.5 324,-280.5"/>
<text text-anchor="middle" x="385" y="-287.5" font-family="Helvetica,sans-Serif" font-size="10.00">GameLogic/Units/Unit.h</text>
</a>
</g>
</g>
<!-- Node21&#45;&gt;Node22 -->
<g id="edge27" class="edge">
<title>Node21&#45;&gt;Node22</title>
<path fill="none" stroke="midnightblue" d="M222.59,-403.3C248.04,-382.63 321.53,-330.43 360.47,-305.15"/>
<polygon fill="midnightblue" stroke="midnightblue" points="362.58,-307.96 369.13,-299.62 358.81,-302.06 362.58,-307.96"/>
</g>
<!-- Node27 -->
<g id="node27" class="node">
<title>Node27</title>
<g id="a_node27"><a xlink:href="_game_logic_2_squad_2_action_8h.html" target="_top" xlink:title=" ">
<polygon fill="white" stroke="black" points="28,-342 28,-361 164,-361 164,-342 28,-342"/>
<text text-anchor="middle" x="96" y="-349" font-family="Helvetica,sans-Serif" font-size="10.00">GameLogic/Squad/Action.h</text>
</a>
</g>
</g>
<!-- Node21&#45;&gt;Node27 -->
<g id="edge39" class="edge">
<title>Node21&#45;&gt;Node27</title>
<path fill="none" stroke="midnightblue" d="M192.19,-403.48C170.6,-393.67 138.13,-377.43 116.87,-365.92"/>
<polygon fill="midnightblue" stroke="midnightblue" points="118.42,-362.78 107.98,-361.01 115.04,-368.91 118.42,-362.78"/>
</g>
<!-- Node22&#45;&gt;Node18 -->
<g id="edge33" class="edge">
<title>Node22&#45;&gt;Node18</title>
<path fill="none" stroke="midnightblue" d="M410.83,-280.44C438.25,-271.36 481.78,-256.94 512.43,-246.78"/>
<polygon fill="midnightblue" stroke="midnightblue" points="513.9,-249.98 522.29,-243.52 511.7,-243.34 513.9,-249.98"/>
</g>
<!-- Node22&#45;&gt;Node21 -->
<g id="edge32" class="edge">
<title>Node22&#45;&gt;Node21</title>
<path fill="none" stroke="midnightblue" d="M376.46,-299.66C351.02,-320.34 277.25,-372.72 238.34,-397.97"/>
<polygon fill="midnightblue" stroke="midnightblue" points="236.24,-395.16 229.69,-403.49 240,-401.06 236.24,-395.16"/>
</g>
<!-- Node23 -->
<g id="node23" class="node">
<title>Node23</title>
<g id="a_node23"><a xlink:title=" ">
<polygon fill="white" stroke="#bfbfbf" points="296.5,-224.5 296.5,-243.5 339.5,-243.5 339.5,-224.5 296.5,-224.5"/>
<text text-anchor="middle" x="318" y="-231.5" font-family="Helvetica,sans-Serif" font-size="10.00">cstdio</text>
</a>
</g>
</g>
<!-- Node22&#45;&gt;Node23 -->
<g id="edge28" class="edge">
<title>Node22&#45;&gt;Node23</title>
<path fill="none" stroke="midnightblue" d="M374.24,-280.32C364.23,-272.26 349.11,-260.08 337.07,-250.37"/>
<polygon fill="midnightblue" stroke="midnightblue" points="338.94,-247.38 328.96,-243.83 334.55,-252.83 338.94,-247.38"/>
</g>
<!-- Node24 -->
<g id="node24" class="node">
<title>Node24</title>
<g id="a_node24"><a xlink:href="_unit_order_8h.html" target="_top" xlink:title=" ">
<polygon fill="white" stroke="black" points="396,-224.5 396,-243.5 462,-243.5 462,-224.5 396,-224.5"/>
<text text-anchor="middle" x="429" y="-231.5" font-family="Helvetica,sans-Serif" font-size="10.00">UnitOrder.h</text>
</a>
</g>
</g>
<!-- Node22&#45;&gt;Node24 -->
<g id="edge29" class="edge">
<title>Node22&#45;&gt;Node24</title>
<path fill="none" stroke="midnightblue" d="M387.1,-280.08C391.85,-272.22 400.99,-260.57 409.66,-251.08"/>
<polygon fill="midnightblue" stroke="midnightblue" points="412.31,-253.38 416.74,-243.75 407.28,-248.52 412.31,-253.38"/>
</g>
<!-- Node25 -->
<g id="node25" class="node">
<title>Node25</title>
<g id="a_node25"><a xlink:href="_textures_8h.html" target="_top" xlink:title=" ">
<polygon fill="white" stroke="black" points="300.5,-168.5 300.5,-187.5 401.5,-187.5 401.5,-168.5 300.5,-168.5"/>
<text text-anchor="middle" x="351" y="-175.5" font-family="Helvetica,sans-Serif" font-size="10.00">graphics/Textures.h</text>
</a>
</g>
</g>
<!-- Node22&#45;&gt;Node25 -->
<g id="edge34" class="edge">
<title>Node22&#45;&gt;Node25</title>
<path fill="none" stroke="midnightblue" d="M382.33,-280.37C376.82,-262.54 364.07,-221.3 356.65,-197.27"/>
<polygon fill="midnightblue" stroke="midnightblue" points="359.95,-196.11 353.66,-187.59 353.26,-198.18 359.95,-196.11"/>
</g>
<!-- Node24&#45;&gt;Node20 -->
<g id="edge30" class="edge">
<title>Node24&#45;&gt;Node20</title>
<path fill="none" stroke="midnightblue" d="M431.2,-224.37C435.72,-206.62 446.14,-165.67 452.27,-141.6"/>
<polygon fill="midnightblue" stroke="midnightblue" points="455.74,-142.15 454.81,-131.59 448.95,-140.42 455.74,-142.15"/>
</g>
<!-- Node24&#45;&gt;Node22 -->
<g id="edge31" class="edge">
<title>Node24&#45;&gt;Node22</title>
<path fill="none" stroke="midnightblue" d="M427,-243.75C422.31,-251.56 413.2,-263.2 404.52,-272.72"/>
<polygon fill="midnightblue" stroke="midnightblue" points="401.84,-270.45 397.43,-280.08 406.89,-275.3 401.84,-270.45"/>
</g>
<!-- Node25&#45;&gt;Node6 -->
<g id="edge35" class="edge">
<title>Node25&#45;&gt;Node6</title>
<path fill="none" stroke="midnightblue" d="M337.83,-168.32C325.15,-159.98 305.77,-147.21 290.79,-137.35"/>
<polygon fill="midnightblue" stroke="midnightblue" points="292.42,-134.23 282.14,-131.65 288.57,-140.08 292.42,-134.23"/>
</g>
<!-- Node25&#45;&gt;Node15 -->
<g id="edge36" class="edge">
<title>Node25&#45;&gt;Node15</title>
<path fill="none" stroke="midnightblue" d="M401.63,-168.74C470.68,-157.48 592.36,-137.62 650,-128.22"/>
<polygon fill="midnightblue" stroke="midnightblue" points="650.69,-131.65 659.99,-126.59 649.56,-124.75 650.69,-131.65"/>
</g>
<!-- Node26 -->
<g id="node26" class="node">
<title>Node26</title>
<g id="a_node26"><a xlink:title=" ">
<polygon fill="white" stroke="#bfbfbf" points="327.5,-112.5 327.5,-131.5 410.5,-131.5 410.5,-112.5 327.5,-112.5"/>
<text text-anchor="middle" x="369" y="-119.5" font-family="Helvetica,sans-Serif" font-size="10.00">unordered_map</text>
</a>
</g>
</g>
<!-- Node25&#45;&gt;Node26 -->
<g id="edge37" class="edge">
<title>Node25&#45;&gt;Node26</title>
<path fill="none" stroke="midnightblue" d="M353.97,-168.08C356.38,-160.85 359.86,-150.41 362.87,-141.4"/>
<polygon fill="midnightblue" stroke="midnightblue" points="366.24,-142.34 366.08,-131.75 359.6,-140.13 366.24,-142.34"/>
</g>
<!-- Node27&#45;&gt;Node3 -->
<g id="edge41" class="edge">
<title>Node27&#45;&gt;Node3</title>
<path fill="none" stroke="midnightblue" d="M102.17,-361.12C119.53,-384.64 171.5,-450.05 232,-479 275.88,-499.99 409.27,-513.53 486.69,-519.84"/>
<polygon fill="midnightblue" stroke="midnightblue" points="486.52,-523.34 496.77,-520.65 487.08,-516.36 486.52,-523.34"/>
</g>
<!-- Node27&#45;&gt;Node21 -->
<g id="edge40" class="edge">
<title>Node27&#45;&gt;Node21</title>
<path fill="none" stroke="midnightblue" d="M117.77,-361.01C139.35,-370.81 171.83,-387.04 193.09,-398.56"/>
<polygon fill="midnightblue" stroke="midnightblue" points="191.55,-401.7 201.99,-403.48 194.93,-395.58 191.55,-401.7"/>
</g>
<!-- Node28&#45;&gt;Node14 -->
<g id="edge48" class="edge">
<title>Node28&#45;&gt;Node14</title>
<path fill="none" stroke="midnightblue" d="M854.54,-459.44C892.25,-450.1 952.74,-435.12 993.86,-424.93"/>
<polygon fill="midnightblue" stroke="midnightblue" points="994.75,-428.32 1003.62,-422.52 993.07,-421.52 994.75,-428.32"/>
</g>
<!-- Node28&#45;&gt;Node15 -->
<g id="edge47" class="edge">
<title>Node28&#45;&gt;Node15</title>
<path fill="none" stroke="midnightblue" d="M779.95,-464.63C728.14,-459.36 642.25,-447.14 623,-423 553.51,-335.84 637.73,-189.8 670.24,-140.14"/>
<polygon fill="midnightblue" stroke="midnightblue" points="673.34,-141.79 675.99,-131.53 667.52,-137.9 673.34,-141.79"/>
</g>
<!-- Node29&#45;&gt;Node11 -->
<g id="edge50" class="edge">
<title>Node29&#45;&gt;Node11</title>
<path fill="none" stroke="midnightblue" d="M1147.81,-168.44C1105.86,-159.04 1038.41,-143.93 992.93,-133.74"/>
<polygon fill="midnightblue" stroke="midnightblue" points="993.53,-130.29 983.01,-131.52 992,-137.12 993.53,-130.29"/>
</g>
<!-- Node30&#45;&gt;Node2 -->
<g id="edge52" class="edge">
<title>Node30&#45;&gt;Node2</title>
<path fill="none" stroke="midnightblue" d="M1191.05,-280.23C1198.12,-271.3 1209.2,-256.96 1218,-244 1242.15,-208.43 1267.1,-164.62 1280.35,-140.69"/>
<polygon fill="midnightblue" stroke="midnightblue" points="1283.53,-142.18 1285.28,-131.73 1277.39,-138.8 1283.53,-142.18"/>
</g>
<!-- Node30&#45;&gt;Node5 -->
<g id="edge53" class="edge">
<title>Node30&#45;&gt;Node5</title>
<path fill="none" stroke="midnightblue" d="M1123.1,-283.27C1085.94,-277.6 1038.7,-266.33 1002,-244 982.44,-232.1 965.95,-211.29 955.81,-196.43"/>
<polygon fill="midnightblue" stroke="midnightblue" points="958.5,-194.13 950.11,-187.67 952.63,-197.96 958.5,-194.13"/>
</g>
<!-- Node31 -->
<g id="node31" class="node">
<title>Node31</title>
<g id="a_node31"><a xlink:href="_network_manager_8h.html" target="_top" xlink:title=" ">
<polygon fill="white" stroke="black" points="1011,-224.5 1011,-243.5 1141,-243.5 1141,-224.5 1011,-224.5"/>
<text text-anchor="middle" x="1076" y="-231.5" font-family="Helvetica,sans-Serif" font-size="10.00">engine/NetworkManager.h</text>
</a>
</g>
</g>
<!-- Node30&#45;&gt;Node31 -->
<g id="edge54" class="edge">
<title>Node30&#45;&gt;Node31</title>
<path fill="none" stroke="midnightblue" d="M1166.65,-280.32C1149.33,-271.66 1122.48,-258.24 1102.5,-248.25"/>
<polygon fill="midnightblue" stroke="midnightblue" points="1103.82,-245 1093.31,-243.65 1100.69,-251.26 1103.82,-245"/>
</g>
<!-- Node33 -->
<g id="node33" class="node">
<title>Node33</title>
<g id="a_node33"><a xlink:title=" ">
<polygon fill="white" stroke="#bfbfbf" points="1159.5,-224.5 1159.5,-243.5 1208.5,-243.5 1208.5,-224.5 1159.5,-224.5"/>
<text text-anchor="middle" x="1184" y="-231.5" font-family="Helvetica,sans-Serif" font-size="10.00">random</text>
</a>
</g>
</g>
<!-- Node30&#45;&gt;Node33 -->
<g id="edge59" class="edge">
<title>Node30&#45;&gt;Node33</title>
<path fill="none" stroke="midnightblue" d="M1184,-280.08C1184,-273.01 1184,-262.86 1184,-253.99"/>
<polygon fill="midnightblue" stroke="midnightblue" points="1187.5,-253.75 1184,-243.75 1180.5,-253.75 1187.5,-253.75"/>
</g>
<!-- Node31&#45;&gt;Node5 -->
<g id="edge55" class="edge">
<title>Node31&#45;&gt;Node5</title>
<path fill="none" stroke="midnightblue" d="M1055.24,-224.44C1033.68,-215.56 999.74,-201.56 975.21,-191.45"/>
<polygon fill="midnightblue" stroke="midnightblue" points="976.24,-188.09 965.66,-187.52 973.57,-194.56 976.24,-188.09"/>
</g>
<!-- Node31&#45;&gt;Node15 -->
<g id="edge57" class="edge">
<title>Node31&#45;&gt;Node15</title>
<path fill="none" stroke="midnightblue" d="M1067.8,-224.08C1053.93,-209.63 1024.3,-181.38 993,-168 897.61,-127.21 772.33,-122.19 714.2,-122.31"/>
<polygon fill="midnightblue" stroke="midnightblue" points="714.12,-118.81 704.15,-122.38 714.18,-125.81 714.12,-118.81"/>
</g>
<!-- Node31&#45;&gt;Node29 -->
<g id="edge56" class="edge">
<title>Node31&#45;&gt;Node29</title>
<path fill="none" stroke="midnightblue" d="M1093.67,-224.32C1111.39,-215.62 1138.9,-202.12 1159.29,-192.11"/>
<polygon fill="midnightblue" stroke="midnightblue" points="1160.94,-195.2 1168.37,-187.65 1157.85,-188.92 1160.94,-195.2"/>
</g>
<!-- Node32 -->
<g id="node32" class="node">
<title>Node32</title>
<g id="a_node32"><a xlink:title=" ">
<polygon fill="white" stroke="#bfbfbf" points="1040.5,-168.5 1040.5,-187.5 1111.5,-187.5 1111.5,-168.5 1040.5,-168.5"/>
<text text-anchor="middle" x="1076" y="-175.5" font-family="Helvetica,sans-Serif" font-size="10.00">sys/socket.h</text>
</a>
</g>
</g>
<!-- Node31&#45;&gt;Node32 -->
<g id="edge58" class="edge">
<title>Node31&#45;&gt;Node32</title>
<path fill="none" stroke="midnightblue" d="M1076,-224.08C1076,-217.01 1076,-206.86 1076,-197.99"/>
<polygon fill="midnightblue" stroke="midnightblue" points="1079.5,-197.75 1076,-187.75 1072.5,-197.75 1079.5,-197.75"/>
</g>
<!-- Node34&#45;&gt;Node3 -->
<g id="edge63" class="edge">
<title>Node34&#45;&gt;Node3</title>
<path fill="none" stroke="midnightblue" d="M405.05,-478.52C435.76,-487.59 481.63,-502 512.24,-512.17"/>
<polygon fill="midnightblue" stroke="midnightblue" points="511.4,-515.58 521.99,-515.44 513.63,-508.94 511.4,-515.58"/>
</g>
<!-- Node34&#45;&gt;Node11 -->
<g id="edge61" class="edge">
<title>Node34&#45;&gt;Node11</title>
<path fill="none" stroke="midnightblue" d="M376.08,-459.35C384.69,-436.26 411.2,-372.46 453,-336 588.36,-217.94 799.2,-156.84 894.83,-133.91"/>
<polygon fill="midnightblue" stroke="midnightblue" points="895.88,-137.25 904.81,-131.55 894.27,-130.44 895.88,-137.25"/>
</g>
<!-- Node34&#45;&gt;Node21 -->
<g id="edge62" class="edge">
<title>Node34&#45;&gt;Node21</title>
<path fill="none" stroke="midnightblue" d="M347.81,-459.44C321.06,-450.36 278.6,-435.94 248.69,-425.78"/>
<polygon fill="midnightblue" stroke="midnightblue" points="249.67,-422.42 239.08,-422.52 247.42,-429.05 249.67,-422.42"/>
</g>
<!-- Node36 -->
<g id="node36" class="node">
<title>Node36</title>
<g id="a_node36"><a xlink:href="_factory_8h.html" target="_top" xlink:title=" ">
<polygon fill="white" stroke="black" points="462,-342 462,-361 518,-361 518,-342 462,-342"/>
<text text-anchor="middle" x="490" y="-349" font-family="Helvetica,sans-Serif" font-size="10.00">Factory.h</text>
</a>
</g>
</g>
<!-- Node35&#45;&gt;Node36 -->
<g id="edge65" class="edge">
<title>Node35&#45;&gt;Node36</title>
<path fill="none" stroke="midnightblue" d="M505.42,-403.48C502.85,-394.99 498.83,-381.7 495.54,-370.82"/>
<polygon fill="midnightblue" stroke="midnightblue" points="498.82,-369.57 492.57,-361.01 492.12,-371.59 498.82,-369.57"/>
</g>
<!-- Node36&#45;&gt;Node3 -->
<g id="edge67" class="edge">
<title>Node36&#45;&gt;Node3</title>
<path fill="none" stroke="midnightblue" d="M484.15,-361.25C475.95,-374.64 462.8,-400.99 470,-423 481.24,-457.37 509.13,-489.73 527.28,-508.17"/>
<polygon fill="midnightblue" stroke="midnightblue" points="525.03,-510.87 534.61,-515.4 529.95,-505.89 525.03,-510.87"/>
</g>
<!-- Node36&#45;&gt;Node20 -->
<g id="edge66" class="edge">
<title>Node36&#45;&gt;Node20</title>
<path fill="none" stroke="midnightblue" d="M488.75,-341.86C483.92,-308.57 466.45,-188.15 459.69,-141.57"/>
<polygon fill="midnightblue" stroke="midnightblue" points="463.15,-141.04 458.25,-131.65 456.23,-142.05 463.15,-141.04"/>
</g>
<!-- Node36&#45;&gt;Node22 -->
<g id="edge68" class="edge">
<title>Node36&#45;&gt;Node22</title>
<path fill="none" stroke="midnightblue" d="M474.96,-341.98C457.72,-332.21 429.26,-316.08 408.97,-304.58"/>
<polygon fill="midnightblue" stroke="midnightblue" points="410.44,-301.39 400.02,-299.51 406.99,-307.48 410.44,-301.39"/>
</g>
<!-- Node37&#45;&gt;Node35 -->
<g id="edge82" class="edge">
<title>Node37&#45;&gt;Node35</title>
<path fill="none" stroke="midnightblue" d="M626.66,-459.44C603.25,-450.48 566.26,-436.31 539.81,-426.18"/>
<polygon fill="midnightblue" stroke="midnightblue" points="540.83,-422.82 530.24,-422.52 538.32,-429.36 540.83,-422.82"/>
</g>
<!-- Node38 -->
<g id="node38" class="node">
<title>Node38</title>
<g id="a_node38"><a xlink:href="_squad_template_8h.html" target="_top" xlink:title=" ">
<polygon fill="white" stroke="black" points="632,-403.5 632,-422.5 724,-422.5 724,-403.5 632,-403.5"/>
<text text-anchor="middle" x="678" y="-410.5" font-family="Helvetica,sans-Serif" font-size="10.00">SquadTemplate.h</text>
</a>
</g>
</g>
<!-- Node37&#45;&gt;Node38 -->
<g id="edge70" class="edge">
<title>Node37&#45;&gt;Node38</title>
<path fill="none" stroke="midnightblue" d="M653.79,-459.08C657.76,-451.69 663.53,-440.95 668.43,-431.81"/>
<polygon fill="midnightblue" stroke="midnightblue" points="671.65,-433.22 673.3,-422.75 665.49,-429.91 671.65,-433.22"/>
</g>
<!-- Node38&#45;&gt;Node15 -->
<g id="edge71" class="edge">
<title>Node38&#45;&gt;Node15</title>
<path fill="none" stroke="midnightblue" d="M676.44,-403.33C673.14,-384.56 665.58,-338.76 663,-300 659.14,-242.07 671.17,-173.85 677.86,-141.64"/>
<polygon fill="midnightblue" stroke="midnightblue" points="681.29,-142.33 679.96,-131.82 674.44,-140.86 681.29,-142.33"/>
</g>
<!-- Node38&#45;&gt;Node36 -->
<g id="edge72" class="edge">
<title>Node38&#45;&gt;Node36</title>
<path fill="none" stroke="midnightblue" d="M651.06,-403.48C618.4,-393.14 563.18,-375.66 526.66,-364.1"/>
<polygon fill="midnightblue" stroke="midnightblue" points="527.48,-360.69 516.89,-361.01 525.36,-367.36 527.48,-360.69"/>
</g>
<!-- Node39 -->
<g id="node39" class="node">
<title>Node39</title>
<g id="a_node39"><a xlink:href="_gui_list_8h.html" target="_top" xlink:title=" ">
<polygon fill="white" stroke="black" points="672,-280.5 672,-299.5 780,-299.5 780,-280.5 672,-280.5"/>
<text text-anchor="middle" x="726" y="-287.5" font-family="Helvetica,sans-Serif" font-size="10.00">engine/GUI/GuiList.h</text>
</a>
</g>
</g>
<!-- Node38&#45;&gt;Node39 -->
<g id="edge73" class="edge">
<title>Node38&#45;&gt;Node39</title>
<path fill="none" stroke="midnightblue" d="M679.6,-403.31C682.43,-388.92 688.97,-359.4 699,-336 703.13,-326.37 709,-316.31 714.21,-308.15"/>
<polygon fill="midnightblue" stroke="midnightblue" points="717.28,-309.86 719.88,-299.59 711.44,-305.99 717.28,-309.86"/>
</g>
<!-- Node41 -->
<g id="node41" class="node">
<title>Node41</title>
<g id="a_node41"><a xlink:href="_gui_scroll_8h.html" target="_top" xlink:title=" ">
<polygon fill="white" stroke="black" points="708,-342 708,-361 824,-361 824,-342 708,-342"/>
<text text-anchor="middle" x="766" y="-349" font-family="Helvetica,sans-Serif" font-size="10.00">engine/GUI/GuiScroll.h</text>
</a>
</g>
</g>
<!-- Node38&#45;&gt;Node41 -->
<g id="edge77" class="edge">
<title>Node38&#45;&gt;Node41</title>
<path fill="none" stroke="midnightblue" d="M690.61,-403.48C704.72,-393.93 727.83,-378.31 744.75,-366.87"/>
<polygon fill="midnightblue" stroke="midnightblue" points="747.09,-369.51 753.42,-361.01 743.17,-363.71 747.09,-369.51"/>
</g>
<!-- Node42 -->
<g id="node42" class="node">
<title>Node42</title>
<g id="a_node42"><a xlink:href="_button_8h.html" target="_top" xlink:title=" ">
<polygon fill="white" stroke="black" points="798.5,-280.5 798.5,-299.5 903.5,-299.5 903.5,-280.5 798.5,-280.5"/>
<text text-anchor="middle" x="851" y="-287.5" font-family="Helvetica,sans-Serif" font-size="10.00">engine/GUI/Button.h</text>
</a>
</g>
</g>
<!-- Node38&#45;&gt;Node42 -->
<g id="edge80" class="edge">
<title>Node38&#45;&gt;Node42</title>
<path fill="none" stroke="midnightblue" d="M724.35,-403.86C764.37,-395.91 818.03,-382.73 833,-367 847.5,-351.75 851.04,-327.06 851.57,-309.98"/>
<polygon fill="midnightblue" stroke="midnightblue" points="855.07,-309.58 851.56,-299.58 848.07,-309.59 855.07,-309.58"/>
</g>
<!-- Node39&#45;&gt;Node15 -->
<g id="edge76" class="edge">
<title>Node39&#45;&gt;Node15</title>
<path fill="none" stroke="midnightblue" d="M724.06,-280.45C719.52,-260.6 707.7,-209.9 696,-168 693.52,-159.12 690.51,-149.35 687.92,-141.18"/>
<polygon fill="midnightblue" stroke="midnightblue" points="691.23,-140.03 684.83,-131.58 684.57,-142.17 691.23,-140.03"/>
</g>
<!-- Node40 -->
<g id="node40" class="node">
<title>Node40</title>
<g id="a_node40"><a xlink:href="_gui_object_8h.html" target="_top" xlink:title=" ">
<polygon fill="white" stroke="black" points="759,-224.5 759,-243.5 879,-243.5 879,-224.5 759,-224.5"/>
<text text-anchor="middle" x="819" y="-231.5" font-family="Helvetica,sans-Serif" font-size="10.00">engine/GUI/GuiObject.h</text>
</a>
</g>
</g>
<!-- Node39&#45;&gt;Node40 -->
<g id="edge74" class="edge">
<title>Node39&#45;&gt;Node40</title>
<path fill="none" stroke="midnightblue" d="M740.94,-280.32C755.59,-271.82 778.13,-258.73 795.24,-248.8"/>
<polygon fill="midnightblue" stroke="midnightblue" points="797.2,-251.7 804.1,-243.65 793.69,-245.65 797.2,-251.7"/>
</g>
<!-- Node40&#45;&gt;Node5 -->
<g id="edge75" class="edge">
<title>Node40&#45;&gt;Node5</title>
<path fill="none" stroke="midnightblue" d="M838.97,-224.44C859.61,-215.6 892.06,-201.69 915.63,-191.59"/>
<polygon fill="midnightblue" stroke="midnightblue" points="917.32,-194.67 925.13,-187.52 914.56,-188.24 917.32,-194.67"/>
</g>
<!-- Node41&#45;&gt;Node2 -->
<g id="edge79" class="edge">
<title>Node41&#45;&gt;Node2</title>
<path fill="none" stroke="midnightblue" d="M824.26,-342.08C839.76,-339.97 856.5,-337.79 872,-336 956.7,-326.22 1190.58,-356.99 1254,-300 1299.25,-259.34 1296.59,-178.65 1292.65,-141.96"/>
<polygon fill="midnightblue" stroke="midnightblue" points="1296.08,-141.19 1291.38,-131.7 1289.14,-142.05 1296.08,-141.19"/>
</g>
<!-- Node41&#45;&gt;Node39 -->
<g id="edge78" class="edge">
<title>Node41&#45;&gt;Node39</title>
<path fill="none" stroke="midnightblue" d="M760.27,-341.98C754.33,-333.14 744.88,-319.09 737.41,-307.98"/>
<polygon fill="midnightblue" stroke="midnightblue" points="740.2,-305.86 731.72,-299.51 734.39,-309.76 740.2,-305.86"/>
</g>
<!-- Node42&#45;&gt;Node40 -->
<g id="edge81" class="edge">
<title>Node42&#45;&gt;Node40</title>
<path fill="none" stroke="midnightblue" d="M845.72,-280.08C841.29,-272.61 834.84,-261.72 829.38,-252.52"/>
<polygon fill="midnightblue" stroke="midnightblue" points="832.29,-250.57 824.19,-243.75 826.27,-254.14 832.29,-250.57"/>
</g>
</g>
</svg>
