<?xml version="1.0" encoding="UTF-8" standalone="no"?>
<!DOCTYPE svg PUBLIC "-//W3C//DTD SVG 1.1//EN"
 "http://www.w3.org/Graphics/SVG/1.1/DTD/svg11.dtd">
<!-- Generated by graphviz version 2.47.1 (20210421.1823)
 -->
<!-- Title: include/util/pathfinding.h Pages: 1 -->
<svg width="1507pt" height="599pt"
 viewBox="0.00 0.00 1506.50 599.00" xmlns="http://www.w3.org/2000/svg" xmlns:xlink="http://www.w3.org/1999/xlink">
<g id="graph0" class="graph" transform="scale(1 1) rotate(0) translate(4 595)">
<title>include/util/pathfinding.h</title>
<polygon fill="white" stroke="transparent" points="-4,4 -4,-595 1502.5,-595 1502.5,4 -4,4"/>
<!-- Node1 -->
<g id="node1" class="node">
<title>Node1</title>
<g id="a_node1"><a xlink:title=" ">
<polygon fill="#bfbfbf" stroke="black" points="787.5,-571.5 787.5,-590.5 907.5,-590.5 907.5,-571.5 787.5,-571.5"/>
<text text-anchor="middle" x="847.5" y="-578.5" font-family="Helvetica,sans-Serif" font-size="10.00">include/util/pathfinding.h</text>
</a>
</g>
</g>
<!-- Node2 -->
<g id="node2" class="node">
<title>Node2</title>
<g id="a_node2"><a xlink:title=" ">
<polygon fill="white" stroke="#bfbfbf" points="1103,-112.5 1103,-131.5 1132,-131.5 1132,-112.5 1103,-112.5"/>
<text text-anchor="middle" x="1117.5" y="-119.5" font-family="Helvetica,sans-Serif" font-size="10.00">list</text>
</a>
</g>
</g>
<!-- Node1&#45;&gt;Node2 -->
<g id="edge1" class="edge">
<title>Node1&#45;&gt;Node2</title>
<path fill="none" stroke="midnightblue" d="M907.52,-574.33C994,-564.36 1157.04,-538.77 1282.5,-479 1342.74,-450.3 1367.17,-431.95 1382.5,-367 1402.89,-280.61 1426.51,-232.47 1365.5,-168 1335.19,-135.97 1198.87,-126.48 1142.26,-123.89"/>
<polygon fill="midnightblue" stroke="midnightblue" points="1142.2,-120.39 1132.06,-123.46 1141.9,-127.38 1142.2,-120.39"/>
</g>
<!-- Node3 -->
<g id="node3" class="node">
<title>Node3</title>
<g id="a_node3"><a xlink:href="_cell_8h.html" target="_top" xlink:title=" ">
<polygon fill="white" stroke="black" points="800.5,-515.5 800.5,-534.5 894.5,-534.5 894.5,-515.5 800.5,-515.5"/>
<text text-anchor="middle" x="847.5" y="-522.5" font-family="Helvetica,sans-Serif" font-size="10.00">GameLogic/Cell.h</text>
</a>
</g>
</g>
<!-- Node1&#45;&gt;Node3 -->
<g id="edge2" class="edge">
<title>Node1&#45;&gt;Node3</title>
<path fill="none" stroke="midnightblue" d="M847.5,-571.08C847.5,-564.01 847.5,-553.86 847.5,-544.99"/>
<polygon fill="midnightblue" stroke="midnightblue" points="851,-544.75 847.5,-534.75 844,-544.75 851,-544.75"/>
</g>
<!-- Node22 -->
<g id="node22" class="node">
<title>Node22</title>
<g id="a_node22"><a xlink:href="_squad_8h.html" target="_top" xlink:title=" ">
<polygon fill="white" stroke="black" points="369.5,-403.5 369.5,-422.5 421.5,-422.5 421.5,-403.5 369.5,-403.5"/>
<text text-anchor="middle" x="395.5" y="-410.5" font-family="Helvetica,sans-Serif" font-size="10.00">Squad.h</text>
</a>
</g>
</g>
<!-- Node1&#45;&gt;Node22 -->
<g id="edge91" class="edge">
<title>Node1&#45;&gt;Node22</title>
<path fill="none" stroke="midnightblue" d="M787.21,-579.59C700.68,-576.09 539.98,-558.36 433.5,-479 417.81,-467.31 407.48,-447.07 401.6,-432.27"/>
<polygon fill="midnightblue" stroke="midnightblue" points="404.81,-430.86 398.1,-422.66 398.24,-433.26 404.81,-430.86"/>
</g>
<!-- Node4 -->
<g id="node4" class="node">
<title>Node4</title>
<g id="a_node4"><a xlink:title=" ">
<polygon fill="white" stroke="#bfbfbf" points="1321,-342 1321,-361 1356,-361 1356,-342 1321,-342"/>
<text text-anchor="middle" x="1338.5" y="-349" font-family="Helvetica,sans-Serif" font-size="10.00">map</text>
</a>
</g>
</g>
<!-- Node3&#45;&gt;Node4 -->
<g id="edge3" class="edge">
<title>Node3&#45;&gt;Node4</title>
<path fill="none" stroke="midnightblue" d="M894.72,-522.07C952.07,-518.47 1051,-508.21 1130.5,-479 1206.21,-451.19 1284.62,-394.55 1319.64,-367.51"/>
<polygon fill="midnightblue" stroke="midnightblue" points="1321.85,-370.23 1327.58,-361.31 1317.55,-364.71 1321.85,-370.23"/>
</g>
<!-- Node5 -->
<g id="node5" class="node">
<title>Node5</title>
<g id="a_node5"><a xlink:title=" ">
<polygon fill="white" stroke="#bfbfbf" points="1210.5,-459.5 1210.5,-478.5 1240.5,-478.5 1240.5,-459.5 1210.5,-459.5"/>
<text text-anchor="middle" x="1225.5" y="-466.5" font-family="Helvetica,sans-Serif" font-size="10.00">set</text>
</a>
</g>
</g>
<!-- Node3&#45;&gt;Node5 -->
<g id="edge4" class="edge">
<title>Node3&#45;&gt;Node5</title>
<path fill="none" stroke="midnightblue" d="M894.51,-520.53C961.95,-514.97 1089.8,-502.25 1196.5,-479 1197.77,-478.72 1199.07,-478.41 1200.38,-478.08"/>
<polygon fill="midnightblue" stroke="midnightblue" points="1201.62,-481.37 1210.28,-475.26 1199.7,-474.64 1201.62,-481.37"/>
</g>
<!-- Node6 -->
<g id="node6" class="node">
<title>Node6</title>
<g id="a_node6"><a xlink:href="gameplay_clickable_game_object_8h.html" target="_top" xlink:title=" ">
<polygon fill="white" stroke="black" points="913,-336.5 913,-366.5 1042,-366.5 1042,-336.5 913,-336.5"/>
<text text-anchor="start" x="921" y="-354.5" font-family="Helvetica,sans-Serif" font-size="10.00">engine/gameplayClickable</text>
<text text-anchor="middle" x="977.5" y="-343.5" font-family="Helvetica,sans-Serif" font-size="10.00">GameObject.h</text>
</a>
</g>
</g>
<!-- Node3&#45;&gt;Node6 -->
<g id="edge5" class="edge">
<title>Node3&#45;&gt;Node6</title>
<path fill="none" stroke="midnightblue" d="M875.79,-515.36C894.51,-508.31 918.31,-496.61 933.5,-479 958.97,-449.47 969.96,-404.33 974.5,-376.71"/>
<polygon fill="midnightblue" stroke="midnightblue" points="977.98,-377.12 975.99,-366.72 971.05,-376.09 977.98,-377.12"/>
</g>
<!-- Node8 -->
<g id="node8" class="node">
<title>Node8</title>
<g id="a_node8"><a xlink:href="config_8h.html" target="_top" xlink:title=" ">
<polygon fill="white" stroke="black" points="236,-112.5 236,-131.5 317,-131.5 317,-112.5 236,-112.5"/>
<text text-anchor="middle" x="276.5" y="-119.5" font-family="Helvetica,sans-Serif" font-size="10.00">engine/config.h</text>
</a>
</g>
</g>
<!-- Node3&#45;&gt;Node8 -->
<g id="edge25" class="edge">
<title>Node3&#45;&gt;Node8</title>
<path fill="none" stroke="midnightblue" d="M800.39,-520.62C655.7,-509.62 227.5,-472.14 227.5,-414 227.5,-414 227.5,-414 227.5,-233 227.5,-197.47 249.1,-160.63 263.62,-139.88"/>
<polygon fill="midnightblue" stroke="midnightblue" points="266.63,-141.69 269.69,-131.54 260.97,-137.57 266.63,-141.69"/>
</g>
<!-- Node11 -->
<g id="node11" class="node">
<title>Node11</title>
<g id="a_node11"><a xlink:href="_facade_8h.html" target="_top" xlink:title=" ">
<polygon fill="white" stroke="black" points="146.5,-0.5 146.5,-19.5 202.5,-19.5 202.5,-0.5 146.5,-0.5"/>
<text text-anchor="middle" x="174.5" y="-7.5" font-family="Helvetica,sans-Serif" font-size="10.00">Facade.h</text>
</a>
</g>
</g>
<!-- Node3&#45;&gt;Node11 -->
<g id="edge26" class="edge">
<title>Node3&#45;&gt;Node11</title>
<path fill="none" stroke="midnightblue" d="M894.85,-521.9C998.19,-516.92 1240.97,-502.99 1319.5,-479 1412.67,-450.54 1498.5,-449.92 1498.5,-352.5 1498.5,-352.5 1498.5,-352.5 1498.5,-121 1498.5,-83.16 1477.54,-72.53 1443.5,-56 1386.79,-28.47 418.02,-14.21 212.59,-11.48"/>
<polygon fill="midnightblue" stroke="midnightblue" points="212.62,-7.98 202.57,-11.35 212.53,-14.98 212.62,-7.98"/>
</g>
<!-- Node14 -->
<g id="node14" class="node">
<title>Node14</title>
<g id="a_node14"><a xlink:title=" ">
<polygon fill="white" stroke="#bfbfbf" points="1380.5,-56.5 1380.5,-75.5 1434.5,-75.5 1434.5,-56.5 1380.5,-56.5"/>
<text text-anchor="middle" x="1407.5" y="-63.5" font-family="Helvetica,sans-Serif" font-size="10.00">iostream</text>
</a>
</g>
</g>
<!-- Node3&#45;&gt;Node14 -->
<g id="edge50" class="edge">
<title>Node3&#45;&gt;Node14</title>
<path fill="none" stroke="midnightblue" d="M894.74,-522.39C992.36,-518.53 1213.02,-506.92 1282.5,-479 1389.27,-436.1 1460.5,-406.07 1460.5,-291 1460.5,-291 1460.5,-291 1460.5,-177 1460.5,-140.99 1437.17,-104.34 1421.46,-83.75"/>
<polygon fill="midnightblue" stroke="midnightblue" points="1424.05,-81.38 1415.09,-75.72 1418.57,-85.73 1424.05,-81.38"/>
</g>
<!-- Node16 -->
<g id="node16" class="node">
<title>Node16</title>
<g id="a_node16"><a xlink:href="cellgen_8h.html" target="_top" xlink:title=" ">
<polygon fill="white" stroke="black" points="1083,-403.5 1083,-422.5 1154,-422.5 1154,-403.5 1083,-403.5"/>
<text text-anchor="middle" x="1118.5" y="-410.5" font-family="Helvetica,sans-Serif" font-size="10.00">util/cellgen.h</text>
</a>
</g>
</g>
<!-- Node3&#45;&gt;Node16 -->
<g id="edge16" class="edge">
<title>Node3&#45;&gt;Node16</title>
<path fill="none" stroke="midnightblue" d="M894.73,-522.66C962.88,-519.67 1083.76,-510.02 1112.5,-479 1123.79,-466.81 1124.12,-447.26 1122.33,-432.78"/>
<polygon fill="midnightblue" stroke="midnightblue" points="1125.79,-432.2 1120.71,-422.9 1118.88,-433.34 1125.79,-432.2"/>
</g>
<!-- Node19 -->
<g id="node19" class="node">
<title>Node19</title>
<g id="a_node19"><a xlink:href="_all_flags_8h.html" target="_top" xlink:title=" ">
<polygon fill="white" stroke="black" points="554,-224.5 554,-243.5 613,-243.5 613,-224.5 554,-224.5"/>
<text text-anchor="middle" x="583.5" y="-231.5" font-family="Helvetica,sans-Serif" font-size="10.00">AllFlags.h</text>
</a>
</g>
</g>
<!-- Node3&#45;&gt;Node19 -->
<g id="edge20" class="edge">
<title>Node3&#45;&gt;Node19</title>
<path fill="none" stroke="midnightblue" d="M829.34,-515.47C783.61,-493.85 666.42,-437.62 653.5,-423 608.76,-372.36 591.63,-290.51 585.96,-253.83"/>
<polygon fill="midnightblue" stroke="midnightblue" points="589.38,-253.01 584.5,-243.6 582.45,-254 589.38,-253.01"/>
</g>
<!-- Node3&#45;&gt;Node22 -->
<g id="edge27" class="edge">
<title>Node3&#45;&gt;Node22</title>
<path fill="none" stroke="midnightblue" d="M800.38,-522.27C710.12,-518.21 517.07,-506.28 457.5,-479 433.84,-468.17 412.7,-446.47 401.79,-431.13"/>
<polygon fill="midnightblue" stroke="midnightblue" points="404.68,-429.15 396.39,-422.55 398.75,-432.88 404.68,-429.15"/>
</g>
<!-- Node29 -->
<g id="node29" class="node">
<title>Node29</title>
<g id="a_node29"><a xlink:href="_player_8h.html" target="_top" xlink:title=" ">
<polygon fill="white" stroke="black" points="110,-342 110,-361 161,-361 161,-342 110,-342"/>
<text text-anchor="middle" x="135.5" y="-349" font-family="Helvetica,sans-Serif" font-size="10.00">Player.h</text>
</a>
</g>
</g>
<!-- Node3&#45;&gt;Node29 -->
<g id="edge90" class="edge">
<title>Node3&#45;&gt;Node29</title>
<path fill="none" stroke="midnightblue" d="M800.23,-523.11C661.7,-520.17 263.29,-509.15 213.5,-479 172.8,-454.35 150.26,-399.56 140.84,-370.85"/>
<polygon fill="midnightblue" stroke="midnightblue" points="144.16,-369.76 137.86,-361.24 137.48,-371.83 144.16,-369.76"/>
</g>
<!-- Node30 -->
<g id="node30" class="node">
<title>Node30</title>
<g id="a_node30"><a xlink:href="geometry_8h.html" target="_top" xlink:title=" ">
<polygon fill="white" stroke="black" points="1023.5,-459.5 1023.5,-478.5 1103.5,-478.5 1103.5,-459.5 1023.5,-459.5"/>
<text text-anchor="middle" x="1063.5" y="-466.5" font-family="Helvetica,sans-Serif" font-size="10.00">util/geometry.h</text>
</a>
</g>
</g>
<!-- Node3&#45;&gt;Node30 -->
<g id="edge51" class="edge">
<title>Node3&#45;&gt;Node30</title>
<path fill="none" stroke="midnightblue" d="M881.73,-515.44C919.01,-506.12 978.77,-491.18 1019.51,-481"/>
<polygon fill="midnightblue" stroke="midnightblue" points="1020.58,-484.34 1029.43,-478.52 1018.88,-477.55 1020.58,-484.34"/>
</g>
<!-- Node31 -->
<g id="node31" class="node">
<title>Node31</title>
<g id="a_node31"><a xlink:href="_none_8h.html" target="_top" xlink:title=" ">
<polygon fill="white" stroke="black" points="1243,-168.5 1243,-187.5 1356,-187.5 1356,-168.5 1243,-168.5"/>
<text text-anchor="middle" x="1299.5" y="-175.5" font-family="Helvetica,sans-Serif" font-size="10.00">engine/actions/None.h</text>
</a>
</g>
</g>
<!-- Node3&#45;&gt;Node31 -->
<g id="edge54" class="edge">
<title>Node3&#45;&gt;Node31</title>
<path fill="none" stroke="midnightblue" d="M894.54,-522.52C986.73,-519 1187.54,-508.14 1249.5,-479 1314.35,-448.5 1337.5,-432.97 1365.5,-367 1391.81,-305.03 1339.98,-228.64 1313.6,-195.56"/>
<polygon fill="midnightblue" stroke="midnightblue" points="1316.27,-193.28 1307.22,-187.77 1310.85,-197.72 1316.27,-193.28"/>
</g>
<!-- Node32 -->
<g id="node32" class="node">
<title>Node32</title>
<g id="a_node32"><a xlink:href="game_controller_8h.html" target="_top" xlink:title=" ">
<polygon fill="white" stroke="black" points="1087,-280.5 1087,-299.5 1208,-299.5 1208,-280.5 1087,-280.5"/>
<text text-anchor="middle" x="1147.5" y="-287.5" font-family="Helvetica,sans-Serif" font-size="10.00">engine/gameController.h</text>
</a>
</g>
</g>
<!-- Node3&#45;&gt;Node32 -->
<g id="edge56" class="edge">
<title>Node3&#45;&gt;Node32</title>
<path fill="none" stroke="midnightblue" d="M875.01,-515.46C897.27,-507.84 928.84,-495.35 953.5,-479 1030.97,-427.62 1104.77,-343.11 1134.15,-307.56"/>
<polygon fill="midnightblue" stroke="midnightblue" points="1137.01,-309.59 1140.63,-299.63 1131.59,-305.16 1137.01,-309.59"/>
</g>
<!-- Node36 -->
<g id="node36" class="node">
<title>Node36</title>
<g id="a_node36"><a xlink:href="_set_squad_path_8h.html" target="_top" xlink:title=" ">
<polygon fill="white" stroke="black" points="771,-459.5 771,-478.5 924,-478.5 924,-459.5 771,-459.5"/>
<text text-anchor="middle" x="847.5" y="-466.5" font-family="Helvetica,sans-Serif" font-size="10.00">engine/actions/SetSquadPath.h</text>
</a>
</g>
</g>
<!-- Node3&#45;&gt;Node36 -->
<g id="edge65" class="edge">
<title>Node3&#45;&gt;Node36</title>
<path fill="none" stroke="midnightblue" d="M842.33,-515.08C840.82,-507.93 840.39,-497.64 841.04,-488.69"/>
<polygon fill="midnightblue" stroke="midnightblue" points="844.52,-489.13 842.37,-478.75 837.58,-488.2 844.52,-489.13"/>
</g>
<!-- Node37 -->
<g id="node37" class="node">
<title>Node37</title>
<g id="a_node37"><a xlink:href="_all_units_8h.html" target="_top" xlink:title=" ">
<polygon fill="white" stroke="black" points="547,-403.5 547,-422.5 606,-422.5 606,-403.5 547,-403.5"/>
<text text-anchor="middle" x="576.5" y="-410.5" font-family="Helvetica,sans-Serif" font-size="10.00">AllUnits.h</text>
</a>
</g>
</g>
<!-- Node3&#45;&gt;Node37 -->
<g id="edge69" class="edge">
<title>Node3&#45;&gt;Node37</title>
<path fill="none" stroke="midnightblue" d="M800.37,-522.29C733.4,-518.83 615.58,-508.61 586.5,-479 574.76,-467.04 573.19,-447.43 574,-432.87"/>
<polygon fill="midnightblue" stroke="midnightblue" points="577.52,-432.81 575,-422.52 570.55,-432.14 577.52,-432.81"/>
</g>
<!-- Node39 -->
<g id="node39" class="node">
<title>Node39</title>
<g id="a_node39"><a xlink:href="_all_squad_templates_8h.html" target="_top" xlink:title=" ">
<polygon fill="white" stroke="black" points="595,-459.5 595,-478.5 704,-478.5 704,-459.5 595,-459.5"/>
<text text-anchor="middle" x="649.5" y="-466.5" font-family="Helvetica,sans-Serif" font-size="10.00">AllSquadTemplates.h</text>
</a>
</g>
</g>
<!-- Node3&#45;&gt;Node39 -->
<g id="edge75" class="edge">
<title>Node3&#45;&gt;Node39</title>
<path fill="none" stroke="midnightblue" d="M816.13,-515.44C782.24,-506.2 728.1,-491.44 690.78,-481.26"/>
<polygon fill="midnightblue" stroke="midnightblue" points="691.3,-477.77 680.73,-478.52 689.45,-484.52 691.3,-477.77"/>
</g>
<!-- Node7 -->
<g id="node7" class="node">
<title>Node7</title>
<g id="a_node7"><a xlink:href="game_object_8h.html" target="_top" xlink:title=" ">
<polygon fill="white" stroke="black" points="981,-168.5 981,-187.5 1058,-187.5 1058,-168.5 981,-168.5"/>
<text text-anchor="middle" x="1019.5" y="-175.5" font-family="Helvetica,sans-Serif" font-size="10.00">gameObject.h</text>
</a>
</g>
</g>
<!-- Node6&#45;&gt;Node7 -->
<g id="edge6" class="edge">
<title>Node6&#45;&gt;Node7</title>
<path fill="none" stroke="midnightblue" d="M980.94,-336.47C988.47,-305.7 1006.44,-232.33 1014.92,-197.7"/>
<polygon fill="midnightblue" stroke="midnightblue" points="1018.42,-198.11 1017.4,-187.56 1011.63,-196.44 1018.42,-198.11"/>
</g>
<!-- Node7&#45;&gt;Node2 -->
<g id="edge7" class="edge">
<title>Node7&#45;&gt;Node2</title>
<path fill="none" stroke="midnightblue" d="M1035.25,-168.32C1051.1,-159.59 1075.73,-146.01 1093.92,-135.99"/>
<polygon fill="midnightblue" stroke="midnightblue" points="1095.69,-139.02 1102.76,-131.12 1092.31,-132.89 1095.69,-139.02"/>
</g>
<!-- Node7&#45;&gt;Node8 -->
<g id="edge8" class="edge">
<title>Node7&#45;&gt;Node8</title>
<path fill="none" stroke="midnightblue" d="M980.89,-175.58C876.69,-171.51 581.07,-158.35 336.5,-132 333.46,-131.67 330.33,-131.3 327.18,-130.91"/>
<polygon fill="midnightblue" stroke="midnightblue" points="327.48,-127.41 317.11,-129.56 326.56,-134.35 327.48,-127.41"/>
</g>
<!-- Node13 -->
<g id="node13" class="node">
<title>Node13</title>
<g id="a_node13"><a xlink:href="engine_2_action_8h.html" target="_top" xlink:title=" ">
<polygon fill="white" stroke="black" points="1258,-112.5 1258,-131.5 1341,-131.5 1341,-112.5 1258,-112.5"/>
<text text-anchor="middle" x="1299.5" y="-119.5" font-family="Helvetica,sans-Serif" font-size="10.00">engine/Action.h</text>
</a>
</g>
</g>
<!-- Node7&#45;&gt;Node13 -->
<g id="edge13" class="edge">
<title>Node7&#45;&gt;Node13</title>
<path fill="none" stroke="midnightblue" d="M1058.14,-169.55C1107.43,-160.04 1192.85,-143.57 1247.73,-132.98"/>
<polygon fill="midnightblue" stroke="midnightblue" points="1248.45,-136.41 1257.61,-131.08 1247.13,-129.54 1248.45,-136.41"/>
</g>
<!-- Node9 -->
<g id="node9" class="node">
<title>Node9</title>
<g id="a_node9"><a xlink:href="_s_f_m_l_facade_8h.html" target="_top" xlink:title=" ">
<polygon fill="white" stroke="black" points="0,-56.5 0,-75.5 123,-75.5 123,-56.5 0,-56.5"/>
<text text-anchor="middle" x="61.5" y="-63.5" font-family="Helvetica,sans-Serif" font-size="10.00">graphics/SFMLFacade.h</text>
</a>
</g>
</g>
<!-- Node8&#45;&gt;Node9 -->
<g id="edge9" class="edge">
<title>Node8&#45;&gt;Node9</title>
<path fill="none" stroke="midnightblue" d="M242.43,-112.44C205.32,-103.12 145.84,-88.18 105.29,-78"/>
<polygon fill="midnightblue" stroke="midnightblue" points="105.96,-74.56 95.41,-75.52 104.25,-81.35 105.96,-74.56"/>
</g>
<!-- Node12 -->
<g id="node12" class="node">
<title>Node12</title>
<g id="a_node12"><a xlink:title=" ">
<polygon fill="white" stroke="#bfbfbf" points="227.5,-56.5 227.5,-75.5 325.5,-75.5 325.5,-56.5 227.5,-56.5"/>
<text text-anchor="middle" x="276.5" y="-63.5" font-family="Helvetica,sans-Serif" font-size="10.00">nlohmann/json.hpp</text>
</a>
</g>
</g>
<!-- Node8&#45;&gt;Node12 -->
<g id="edge12" class="edge">
<title>Node8&#45;&gt;Node12</title>
<path fill="none" stroke="midnightblue" d="M276.5,-112.08C276.5,-105.01 276.5,-94.86 276.5,-85.99"/>
<polygon fill="midnightblue" stroke="midnightblue" points="280,-85.75 276.5,-75.75 273,-85.75 280,-85.75"/>
</g>
<!-- Node10 -->
<g id="node10" class="node">
<title>Node10</title>
<g id="a_node10"><a xlink:title=" ">
<polygon fill="white" stroke="#bfbfbf" points="9.5,-0.5 9.5,-19.5 113.5,-19.5 113.5,-0.5 9.5,-0.5"/>
<text text-anchor="middle" x="61.5" y="-7.5" font-family="Helvetica,sans-Serif" font-size="10.00">SFML/Graphics.hpp</text>
</a>
</g>
</g>
<!-- Node9&#45;&gt;Node10 -->
<g id="edge10" class="edge">
<title>Node9&#45;&gt;Node10</title>
<path fill="none" stroke="midnightblue" d="M61.5,-56.08C61.5,-49.01 61.5,-38.86 61.5,-29.99"/>
<polygon fill="midnightblue" stroke="midnightblue" points="65,-29.75 61.5,-19.75 58,-29.75 65,-29.75"/>
</g>
<!-- Node9&#45;&gt;Node11 -->
<g id="edge11" class="edge">
<title>Node9&#45;&gt;Node11</title>
<path fill="none" stroke="midnightblue" d="M79.41,-56.44C97.75,-47.68 126.51,-33.94 147.59,-23.86"/>
<polygon fill="midnightblue" stroke="midnightblue" points="149.17,-26.99 156.68,-19.52 146.15,-20.67 149.17,-26.99"/>
</g>
<!-- Node13&#45;&gt;Node14 -->
<g id="edge14" class="edge">
<title>Node13&#45;&gt;Node14</title>
<path fill="none" stroke="midnightblue" d="M1316.85,-112.32C1334.17,-103.66 1361.02,-90.24 1381,-80.25"/>
<polygon fill="midnightblue" stroke="midnightblue" points="1382.81,-83.26 1390.19,-75.65 1379.68,-77 1382.81,-83.26"/>
</g>
<!-- Node15 -->
<g id="node15" class="node">
<title>Node15</title>
<g id="a_node15"><a xlink:title=" ">
<polygon fill="white" stroke="#bfbfbf" points="900,-56.5 900,-75.5 951,-75.5 951,-56.5 900,-56.5"/>
<text text-anchor="middle" x="925.5" y="-63.5" font-family="Helvetica,sans-Serif" font-size="10.00">memory</text>
</a>
</g>
</g>
<!-- Node13&#45;&gt;Node15 -->
<g id="edge15" class="edge">
<title>Node13&#45;&gt;Node15</title>
<path fill="none" stroke="midnightblue" d="M1257.69,-114.96C1183.71,-104.28 1031.03,-82.24 961.46,-72.19"/>
<polygon fill="midnightblue" stroke="midnightblue" points="961.82,-68.71 951.42,-70.74 960.82,-75.64 961.82,-68.71"/>
</g>
<!-- Node16&#45;&gt;Node4 -->
<g id="edge18" class="edge">
<title>Node16&#45;&gt;Node4</title>
<path fill="none" stroke="midnightblue" d="M1154.16,-404.86C1201.66,-395.15 1283.01,-377.75 1311.5,-367 1312.7,-366.55 1313.92,-366.05 1315.14,-365.52"/>
<polygon fill="midnightblue" stroke="midnightblue" points="1316.82,-368.59 1324.26,-361.05 1313.74,-362.31 1316.82,-368.59"/>
</g>
<!-- Node17 -->
<g id="node17" class="node">
<title>Node17</title>
<g id="a_node17"><a xlink:title=" ">
<polygon fill="white" stroke="#bfbfbf" points="657.5,-112.5 657.5,-131.5 701.5,-131.5 701.5,-112.5 657.5,-112.5"/>
<text text-anchor="middle" x="679.5" y="-119.5" font-family="Helvetica,sans-Serif" font-size="10.00">vector</text>
</a>
</g>
</g>
<!-- Node16&#45;&gt;Node17 -->
<g id="edge17" class="edge">
<title>Node16&#45;&gt;Node17</title>
<path fill="none" stroke="midnightblue" d="M1113.38,-403.11C1095.82,-373.41 1034.96,-276.46 959.5,-224 879.78,-168.58 766.25,-140.1 711.48,-128.87"/>
<polygon fill="midnightblue" stroke="midnightblue" points="712.14,-125.44 701.65,-126.92 710.77,-132.3 712.14,-125.44"/>
</g>
<!-- Node18 -->
<g id="node18" class="node">
<title>Node18</title>
<g id="a_node18"><a xlink:title=" ">
<polygon fill="white" stroke="#bfbfbf" points="1174.5,-342 1174.5,-361 1302.5,-361 1302.5,-342 1174.5,-342"/>
<text text-anchor="middle" x="1238.5" y="-349" font-family="Helvetica,sans-Serif" font-size="10.00">scanline_triangulation.hpp</text>
</a>
</g>
</g>
<!-- Node16&#45;&gt;Node18 -->
<g id="edge19" class="edge">
<title>Node16&#45;&gt;Node18</title>
<path fill="none" stroke="midnightblue" d="M1135.69,-403.48C1155.74,-393.53 1189.1,-376.99 1212.36,-365.46"/>
<polygon fill="midnightblue" stroke="midnightblue" points="1213.93,-368.59 1221.34,-361.01 1210.82,-362.32 1213.93,-368.59"/>
</g>
<!-- Node19&#45;&gt;Node15 -->
<g id="edge24" class="edge">
<title>Node19&#45;&gt;Node15</title>
<path fill="none" stroke="midnightblue" d="M576.12,-224.19C566.28,-211.31 551.23,-186.83 561.5,-168 583.52,-127.63 605.57,-128.48 648.5,-112 731.01,-80.33 835.68,-70.95 889.67,-68.17"/>
<polygon fill="midnightblue" stroke="midnightblue" points="889.94,-71.66 899.77,-67.7 889.62,-64.67 889.94,-71.66"/>
</g>
<!-- Node20 -->
<g id="node20" class="node">
<title>Node20</title>
<g id="a_node20"><a xlink:href="_flag_8h.html" target="_top" xlink:title=" ">
<polygon fill="white" stroke="black" points="570,-168.5 570,-187.5 613,-187.5 613,-168.5 570,-168.5"/>
<text text-anchor="middle" x="591.5" y="-175.5" font-family="Helvetica,sans-Serif" font-size="10.00">Flag.h</text>
</a>
</g>
</g>
<!-- Node19&#45;&gt;Node20 -->
<g id="edge21" class="edge">
<title>Node19&#45;&gt;Node20</title>
<path fill="none" stroke="midnightblue" d="M584.82,-224.08C585.88,-216.93 587.41,-206.64 588.73,-197.69"/>
<polygon fill="midnightblue" stroke="midnightblue" points="592.2,-198.16 590.2,-187.75 585.28,-197.13 592.2,-198.16"/>
</g>
<!-- Node20&#45;&gt;Node17 -->
<g id="edge22" class="edge">
<title>Node20&#45;&gt;Node17</title>
<path fill="none" stroke="midnightblue" d="M605.64,-168.32C619.37,-159.9 640.44,-146.97 656.56,-137.07"/>
<polygon fill="midnightblue" stroke="midnightblue" points="658.7,-139.87 665.4,-131.65 655.04,-133.9 658.7,-139.87"/>
</g>
<!-- Node21 -->
<g id="node21" class="node">
<title>Node21</title>
<g id="a_node21"><a xlink:title=" ">
<polygon fill="white" stroke="#bfbfbf" points="472,-112.5 472,-131.5 513,-131.5 513,-112.5 472,-112.5"/>
<text text-anchor="middle" x="492.5" y="-119.5" font-family="Helvetica,sans-Serif" font-size="10.00">string</text>
</a>
</g>
</g>
<!-- Node20&#45;&gt;Node21 -->
<g id="edge23" class="edge">
<title>Node20&#45;&gt;Node21</title>
<path fill="none" stroke="midnightblue" d="M575.59,-168.32C559.86,-159.74 535.56,-146.49 517.29,-136.52"/>
<polygon fill="midnightblue" stroke="midnightblue" points="518.82,-133.37 508.37,-131.65 515.47,-139.52 518.82,-133.37"/>
</g>
<!-- Node22&#45;&gt;Node3 -->
<g id="edge28" class="edge">
<title>Node22&#45;&gt;Node3</title>
<path fill="none" stroke="midnightblue" d="M407.26,-422.55C422.03,-437 446.93,-465.92 475.5,-479 530.68,-504.27 700.35,-516.36 790.32,-521.24"/>
<polygon fill="midnightblue" stroke="midnightblue" points="790.18,-524.74 800.35,-521.77 790.55,-517.75 790.18,-524.74"/>
</g>
<!-- Node22&#45;&gt;Node6 -->
<g id="edge41" class="edge">
<title>Node22&#45;&gt;Node6</title>
<path fill="none" stroke="midnightblue" d="M421.52,-409.82C492.67,-403.77 696.48,-386.03 865.5,-367 877.65,-365.63 890.52,-364.07 903.04,-362.49"/>
<polygon fill="midnightblue" stroke="midnightblue" points="903.51,-365.96 912.99,-361.22 902.63,-359.02 903.51,-365.96"/>
</g>
<!-- Node22&#45;&gt;Node8 -->
<g id="edge45" class="edge">
<title>Node22&#45;&gt;Node8</title>
<path fill="none" stroke="midnightblue" d="M373.45,-403.45C336.36,-387.46 265.5,-349.27 265.5,-291 265.5,-291 265.5,-291 265.5,-233 265.5,-200.79 270.23,-163.53 273.48,-141.69"/>
<polygon fill="midnightblue" stroke="midnightblue" points="276.99,-141.95 275.06,-131.53 270.07,-140.87 276.99,-141.95"/>
</g>
<!-- Node22&#45;&gt;Node11 -->
<g id="edge46" class="edge">
<title>Node22&#45;&gt;Node11</title>
<path fill="none" stroke="midnightblue" d="M369.41,-408.95C313.98,-400.87 189.5,-373.54 189.5,-291 189.5,-291 189.5,-291 189.5,-121 189.5,-88.5 182.99,-51.1 178.55,-29.34"/>
<polygon fill="midnightblue" stroke="midnightblue" points="181.96,-28.56 176.46,-19.5 175.11,-30.01 181.96,-28.56"/>
</g>
<!-- Node23 -->
<g id="node23" class="node">
<title>Node23</title>
<g id="a_node23"><a xlink:href="_unit_8h.html" target="_top" xlink:title=" ">
<polygon fill="white" stroke="black" points="342.5,-280.5 342.5,-299.5 464.5,-299.5 464.5,-280.5 342.5,-280.5"/>
<text text-anchor="middle" x="403.5" y="-287.5" font-family="Helvetica,sans-Serif" font-size="10.00">GameLogic/Units/Unit.h</text>
</a>
</g>
</g>
<!-- Node22&#45;&gt;Node23 -->
<g id="edge29" class="edge">
<title>Node22&#45;&gt;Node23</title>
<path fill="none" stroke="midnightblue" d="M375.6,-403.37C363.11,-395.36 348.77,-382.38 342.5,-367 337.3,-354.24 336.77,-348.53 342.5,-336 348.39,-323.11 360.01,-312.49 371.66,-304.82"/>
<polygon fill="midnightblue" stroke="midnightblue" points="373.71,-307.67 380.49,-299.53 370.11,-301.67 373.71,-307.67"/>
</g>
<!-- Node28 -->
<g id="node28" class="node">
<title>Node28</title>
<g id="a_node28"><a xlink:href="_game_logic_2_squad_2_action_8h.html" target="_top" xlink:title=" ">
<polygon fill="white" stroke="black" points="360.5,-342 360.5,-361 496.5,-361 496.5,-342 360.5,-342"/>
<text text-anchor="middle" x="428.5" y="-349" font-family="Helvetica,sans-Serif" font-size="10.00">GameLogic/Squad/Action.h</text>
</a>
</g>
</g>
<!-- Node22&#45;&gt;Node28 -->
<g id="edge42" class="edge">
<title>Node22&#45;&gt;Node28</title>
<path fill="none" stroke="midnightblue" d="M395.33,-403.48C398.3,-394.64 405.67,-380.59 412.92,-369.48"/>
<polygon fill="midnightblue" stroke="midnightblue" points="415.99,-371.2 418.88,-361.01 410.26,-367.17 415.99,-371.2"/>
</g>
<!-- Node22&#45;&gt;Node29 -->
<g id="edge47" class="edge">
<title>Node22&#45;&gt;Node29</title>
<path fill="none" stroke="midnightblue" d="M369.47,-407.94C327.99,-401.19 244.54,-386.46 175.5,-367 172.7,-366.21 169.82,-365.32 166.94,-364.38"/>
<polygon fill="midnightblue" stroke="midnightblue" points="167.91,-361.02 157.32,-361.06 165.63,-367.63 167.91,-361.02"/>
</g>
<!-- Node23&#45;&gt;Node8 -->
<g id="edge40" class="edge">
<title>Node23&#45;&gt;Node8</title>
<path fill="none" stroke="midnightblue" d="M379.23,-280.5C361.64,-273.24 338.43,-261.21 323.5,-244 297.26,-213.75 284.8,-167.19 279.64,-141.54"/>
<polygon fill="midnightblue" stroke="midnightblue" points="283.07,-140.84 277.8,-131.65 276.18,-142.12 283.07,-140.84"/>
</g>
<!-- Node23&#45;&gt;Node19 -->
<g id="edge35" class="edge">
<title>Node23&#45;&gt;Node19</title>
<path fill="none" stroke="midnightblue" d="M432.02,-280.44C462.57,-271.28 511.21,-256.69 545.1,-246.52"/>
<polygon fill="midnightblue" stroke="midnightblue" points="546.54,-249.74 555.11,-243.52 544.53,-243.04 546.54,-249.74"/>
</g>
<!-- Node23&#45;&gt;Node22 -->
<g id="edge34" class="edge">
<title>Node23&#45;&gt;Node22</title>
<path fill="none" stroke="midnightblue" d="M394.73,-299.69C384.08,-307.4 367.85,-319.93 360.5,-336 354.77,-348.53 355.3,-354.24 360.5,-367 365.2,-378.53 374.44,-388.72 382.45,-396.47"/>
<polygon fill="midnightblue" stroke="midnightblue" points="380.14,-399.1 389.84,-403.37 384.92,-393.98 380.14,-399.1"/>
</g>
<!-- Node24 -->
<g id="node24" class="node">
<title>Node24</title>
<g id="a_node24"><a xlink:title=" ">
<polygon fill="white" stroke="#bfbfbf" points="332,-224.5 332,-243.5 375,-243.5 375,-224.5 332,-224.5"/>
<text text-anchor="middle" x="353.5" y="-231.5" font-family="Helvetica,sans-Serif" font-size="10.00">cstdio</text>
</a>
</g>
</g>
<!-- Node23&#45;&gt;Node24 -->
<g id="edge30" class="edge">
<title>Node23&#45;&gt;Node24</title>
<path fill="none" stroke="midnightblue" d="M395.24,-280.08C388.04,-272.3 377.39,-260.8 368.65,-251.37"/>
<polygon fill="midnightblue" stroke="midnightblue" points="370.97,-248.71 361.6,-243.75 365.83,-253.47 370.97,-248.71"/>
</g>
<!-- Node25 -->
<g id="node25" class="node">
<title>Node25</title>
<g id="a_node25"><a xlink:href="_unit_order_8h.html" target="_top" xlink:title=" ">
<polygon fill="white" stroke="black" points="431.5,-224.5 431.5,-243.5 497.5,-243.5 497.5,-224.5 431.5,-224.5"/>
<text text-anchor="middle" x="464.5" y="-231.5" font-family="Helvetica,sans-Serif" font-size="10.00">UnitOrder.h</text>
</a>
</g>
</g>
<!-- Node23&#45;&gt;Node25 -->
<g id="edge31" class="edge">
<title>Node23&#45;&gt;Node25</title>
<path fill="none" stroke="midnightblue" d="M408.41,-280.08C415.92,-271.9 429.47,-259.63 441.49,-249.95"/>
<polygon fill="midnightblue" stroke="midnightblue" points="443.73,-252.65 449.48,-243.75 439.44,-247.12 443.73,-252.65"/>
</g>
<!-- Node26 -->
<g id="node26" class="node">
<title>Node26</title>
<g id="a_node26"><a xlink:href="_textures_8h.html" target="_top" xlink:title=" ">
<polygon fill="white" stroke="black" points="336,-168.5 336,-187.5 437,-187.5 437,-168.5 336,-168.5"/>
<text text-anchor="middle" x="386.5" y="-175.5" font-family="Helvetica,sans-Serif" font-size="10.00">graphics/Textures.h</text>
</a>
</g>
</g>
<!-- Node23&#45;&gt;Node26 -->
<g id="edge36" class="edge">
<title>Node23&#45;&gt;Node26</title>
<path fill="none" stroke="midnightblue" d="M402.17,-280.37C399.42,-262.62 393.09,-221.67 389.37,-197.6"/>
<polygon fill="midnightblue" stroke="midnightblue" points="392.81,-196.94 387.83,-187.59 385.9,-198.01 392.81,-196.94"/>
</g>
<!-- Node25&#45;&gt;Node21 -->
<g id="edge32" class="edge">
<title>Node25&#45;&gt;Node21</title>
<path fill="none" stroke="midnightblue" d="M466.7,-224.37C471.22,-206.62 481.64,-165.67 487.77,-141.6"/>
<polygon fill="midnightblue" stroke="midnightblue" points="491.24,-142.15 490.31,-131.59 484.45,-140.42 491.24,-142.15"/>
</g>
<!-- Node25&#45;&gt;Node23 -->
<g id="edge33" class="edge">
<title>Node25&#45;&gt;Node23</title>
<path fill="none" stroke="midnightblue" d="M459.67,-243.83C452.16,-252.03 438.52,-264.38 426.44,-274.1"/>
<polygon fill="midnightblue" stroke="midnightblue" points="424.17,-271.43 418.42,-280.32 428.46,-276.96 424.17,-271.43"/>
</g>
<!-- Node26&#45;&gt;Node8 -->
<g id="edge37" class="edge">
<title>Node26&#45;&gt;Node8</title>
<path fill="none" stroke="midnightblue" d="M368.83,-168.32C351.11,-159.62 323.6,-146.12 303.21,-136.11"/>
<polygon fill="midnightblue" stroke="midnightblue" points="304.65,-132.92 294.13,-131.65 301.56,-139.2 304.65,-132.92"/>
</g>
<!-- Node26&#45;&gt;Node17 -->
<g id="edge38" class="edge">
<title>Node26&#45;&gt;Node17</title>
<path fill="none" stroke="midnightblue" d="M432.93,-168.44C492.86,-157.4 595.59,-138.46 647.49,-128.9"/>
<polygon fill="midnightblue" stroke="midnightblue" points="648.27,-132.32 657.47,-127.06 647,-125.43 648.27,-132.32"/>
</g>
<!-- Node27 -->
<g id="node27" class="node">
<title>Node27</title>
<g id="a_node27"><a xlink:title=" ">
<polygon fill="white" stroke="#bfbfbf" points="345,-112.5 345,-131.5 428,-131.5 428,-112.5 345,-112.5"/>
<text text-anchor="middle" x="386.5" y="-119.5" font-family="Helvetica,sans-Serif" font-size="10.00">unordered_map</text>
</a>
</g>
</g>
<!-- Node26&#45;&gt;Node27 -->
<g id="edge39" class="edge">
<title>Node26&#45;&gt;Node27</title>
<path fill="none" stroke="midnightblue" d="M386.5,-168.08C386.5,-161.01 386.5,-150.86 386.5,-141.99"/>
<polygon fill="midnightblue" stroke="midnightblue" points="390,-141.75 386.5,-131.75 383,-141.75 390,-141.75"/>
</g>
<!-- Node28&#45;&gt;Node3 -->
<g id="edge44" class="edge">
<title>Node28&#45;&gt;Node3</title>
<path fill="none" stroke="midnightblue" d="M433.5,-361.11C447.63,-384.59 490.49,-449.93 545.5,-479 586.85,-500.85 714.67,-513.96 790.12,-519.99"/>
<polygon fill="midnightblue" stroke="midnightblue" points="790.16,-523.51 800.4,-520.8 790.71,-516.53 790.16,-523.51"/>
</g>
<!-- Node28&#45;&gt;Node22 -->
<g id="edge43" class="edge">
<title>Node28&#45;&gt;Node22</title>
<path fill="none" stroke="midnightblue" d="M428.68,-361.01C425.71,-369.84 418.34,-383.89 411.09,-395.01"/>
<polygon fill="midnightblue" stroke="midnightblue" points="408.02,-393.28 405.13,-403.48 413.75,-397.31 408.02,-393.28"/>
</g>
<!-- Node29&#45;&gt;Node9 -->
<g id="edge49" class="edge">
<title>Node29&#45;&gt;Node9</title>
<path fill="none" stroke="midnightblue" d="M129.03,-341.74C115.92,-323.11 87.5,-277.78 87.5,-235 87.5,-235 87.5,-235 87.5,-177 87.5,-143.93 76.23,-106.73 68.53,-85.17"/>
<polygon fill="midnightblue" stroke="midnightblue" points="71.77,-83.83 65.01,-75.68 65.21,-86.27 71.77,-83.83"/>
</g>
<!-- Node29&#45;&gt;Node11 -->
<g id="edge48" class="edge">
<title>Node29&#45;&gt;Node11</title>
<path fill="none" stroke="midnightblue" d="M137.53,-341.86C141.83,-322.73 151.5,-275.28 151.5,-235 151.5,-235 151.5,-235 151.5,-121 151.5,-88.12 161.47,-50.86 168.28,-29.24"/>
<polygon fill="midnightblue" stroke="midnightblue" points="171.61,-30.3 171.4,-19.71 164.96,-28.12 171.61,-30.3"/>
</g>
<!-- Node30&#45;&gt;Node16 -->
<g id="edge53" class="edge">
<title>Node30&#45;&gt;Node16</title>
<path fill="none" stroke="midnightblue" d="M1072.58,-459.08C1080.67,-451.14 1092.7,-439.34 1102.41,-429.8"/>
<polygon fill="midnightblue" stroke="midnightblue" points="1104.9,-432.25 1109.59,-422.75 1100,-427.26 1104.9,-432.25"/>
</g>
<!-- Node30&#45;&gt;Node17 -->
<g id="edge52" class="edge">
<title>Node30&#45;&gt;Node17</title>
<path fill="none" stroke="midnightblue" d="M1023.31,-465.29C956.06,-458.85 819.45,-437.41 731.5,-367 662.16,-311.48 670.55,-188.32 676.62,-141.52"/>
<polygon fill="midnightblue" stroke="midnightblue" points="680.09,-141.98 678.04,-131.59 673.16,-141 680.09,-141.98"/>
</g>
<!-- Node31&#45;&gt;Node13 -->
<g id="edge55" class="edge">
<title>Node31&#45;&gt;Node13</title>
<path fill="none" stroke="midnightblue" d="M1299.5,-168.08C1299.5,-161.01 1299.5,-150.86 1299.5,-141.99"/>
<polygon fill="midnightblue" stroke="midnightblue" points="1303,-141.75 1299.5,-131.75 1296,-141.75 1303,-141.75"/>
</g>
<!-- Node32&#45;&gt;Node2 -->
<g id="edge57" class="edge">
<title>Node32&#45;&gt;Node2</title>
<path fill="none" stroke="midnightblue" d="M1174.43,-280.36C1191.22,-273.41 1211.48,-261.82 1221.5,-244 1225.86,-236.25 1223.42,-232.68 1221.5,-224 1215.58,-197.2 1214.03,-188.24 1195.5,-168 1180.59,-151.71 1158.38,-139.69 1141.47,-132.2"/>
<polygon fill="midnightblue" stroke="midnightblue" points="1142.8,-128.96 1132.22,-128.31 1140.08,-135.41 1142.8,-128.96"/>
</g>
<!-- Node32&#45;&gt;Node7 -->
<g id="edge58" class="edge">
<title>Node32&#45;&gt;Node7</title>
<path fill="none" stroke="midnightblue" d="M1129.97,-280.47C1114.25,-272.34 1091.03,-259.13 1073.5,-244 1056.92,-229.69 1041.31,-209.96 1031.18,-196.01"/>
<polygon fill="midnightblue" stroke="midnightblue" points="1033.99,-193.92 1025.36,-187.78 1028.28,-197.97 1033.99,-193.92"/>
</g>
<!-- Node33 -->
<g id="node33" class="node">
<title>Node33</title>
<g id="a_node33"><a xlink:href="_network_manager_8h.html" target="_top" xlink:title=" ">
<polygon fill="white" stroke="black" points="1082.5,-224.5 1082.5,-243.5 1212.5,-243.5 1212.5,-224.5 1082.5,-224.5"/>
<text text-anchor="middle" x="1147.5" y="-231.5" font-family="Helvetica,sans-Serif" font-size="10.00">engine/NetworkManager.h</text>
</a>
</g>
</g>
<!-- Node32&#45;&gt;Node33 -->
<g id="edge59" class="edge">
<title>Node32&#45;&gt;Node33</title>
<path fill="none" stroke="midnightblue" d="M1147.5,-280.08C1147.5,-273.01 1147.5,-262.86 1147.5,-253.99"/>
<polygon fill="midnightblue" stroke="midnightblue" points="1151,-253.75 1147.5,-243.75 1144,-253.75 1151,-253.75"/>
</g>
<!-- Node35 -->
<g id="node35" class="node">
<title>Node35</title>
<g id="a_node35"><a xlink:title=" ">
<polygon fill="white" stroke="#bfbfbf" points="1269,-224.5 1269,-243.5 1318,-243.5 1318,-224.5 1269,-224.5"/>
<text text-anchor="middle" x="1293.5" y="-231.5" font-family="Helvetica,sans-Serif" font-size="10.00">random</text>
</a>
</g>
</g>
<!-- Node32&#45;&gt;Node35 -->
<g id="edge64" class="edge">
<title>Node32&#45;&gt;Node35</title>
<path fill="none" stroke="midnightblue" d="M1170.63,-280.44C1194.98,-271.44 1233.51,-257.19 1260.92,-247.05"/>
<polygon fill="midnightblue" stroke="midnightblue" points="1262.31,-250.27 1270.47,-243.52 1259.88,-243.7 1262.31,-250.27"/>
</g>
<!-- Node33&#45;&gt;Node7 -->
<g id="edge60" class="edge">
<title>Node33&#45;&gt;Node7</title>
<path fill="none" stroke="midnightblue" d="M1127.22,-224.44C1106.15,-215.56 1072.98,-201.56 1049.01,-191.45"/>
<polygon fill="midnightblue" stroke="midnightblue" points="1050.26,-188.18 1039.69,-187.52 1047.54,-194.63 1050.26,-188.18"/>
</g>
<!-- Node33&#45;&gt;Node17 -->
<g id="edge62" class="edge">
<title>Node33&#45;&gt;Node17</title>
<path fill="none" stroke="midnightblue" d="M1140.13,-224.44C1127.11,-210 1098.5,-181.07 1067.5,-168 1003.44,-141 793.08,-128.38 711.88,-124.43"/>
<polygon fill="midnightblue" stroke="midnightblue" points="711.91,-120.93 701.75,-123.95 711.57,-127.92 711.91,-120.93"/>
</g>
<!-- Node33&#45;&gt;Node31 -->
<g id="edge61" class="edge">
<title>Node33&#45;&gt;Node31</title>
<path fill="none" stroke="midnightblue" d="M1171.58,-224.44C1197.04,-215.4 1237.39,-201.06 1265.96,-190.92"/>
<polygon fill="midnightblue" stroke="midnightblue" points="1267.28,-194.16 1275.53,-187.52 1264.93,-187.57 1267.28,-194.16"/>
</g>
<!-- Node34 -->
<g id="node34" class="node">
<title>Node34</title>
<g id="a_node34"><a xlink:title=" ">
<polygon fill="white" stroke="#bfbfbf" points="1115,-168.5 1115,-187.5 1186,-187.5 1186,-168.5 1115,-168.5"/>
<text text-anchor="middle" x="1150.5" y="-175.5" font-family="Helvetica,sans-Serif" font-size="10.00">sys/socket.h</text>
</a>
</g>
</g>
<!-- Node33&#45;&gt;Node34 -->
<g id="edge63" class="edge">
<title>Node33&#45;&gt;Node34</title>
<path fill="none" stroke="midnightblue" d="M1148,-224.08C1148.39,-217.01 1148.95,-206.86 1149.45,-197.99"/>
<polygon fill="midnightblue" stroke="midnightblue" points="1152.95,-197.93 1150.01,-187.75 1145.96,-197.54 1152.95,-197.93"/>
</g>
<!-- Node36&#45;&gt;Node3 -->
<g id="edge68" class="edge">
<title>Node36&#45;&gt;Node3</title>
<path fill="none" stroke="midnightblue" d="M852.63,-478.75C854.16,-485.86 854.6,-496.14 853.97,-505.1"/>
<polygon fill="midnightblue" stroke="midnightblue" points="850.49,-504.71 852.67,-515.08 857.43,-505.62 850.49,-504.71"/>
</g>
<!-- Node36&#45;&gt;Node13 -->
<g id="edge66" class="edge">
<title>Node36&#45;&gt;Node13</title>
<path fill="none" stroke="midnightblue" d="M869.95,-459.49C954.39,-427.18 1251.98,-310.61 1327.5,-244 1355.82,-219.02 1383.15,-201.39 1365.5,-168 1358.08,-153.95 1344.08,-143.47 1330.88,-136.17"/>
<polygon fill="midnightblue" stroke="midnightblue" points="1332.46,-133.04 1321.96,-131.62 1329.28,-139.28 1332.46,-133.04"/>
</g>
<!-- Node36&#45;&gt;Node22 -->
<g id="edge67" class="edge">
<title>Node36&#45;&gt;Node22</title>
<path fill="none" stroke="midnightblue" d="M775.88,-459.44C678.13,-447.77 506.57,-427.27 431.92,-418.35"/>
<polygon fill="midnightblue" stroke="midnightblue" points="431.97,-414.83 421.63,-417.12 431.14,-421.78 431.97,-414.83"/>
</g>
<!-- Node38 -->
<g id="node38" class="node">
<title>Node38</title>
<g id="a_node38"><a xlink:href="_factory_8h.html" target="_top" xlink:title=" ">
<polygon fill="white" stroke="black" points="514.5,-342 514.5,-361 570.5,-361 570.5,-342 514.5,-342"/>
<text text-anchor="middle" x="542.5" y="-349" font-family="Helvetica,sans-Serif" font-size="10.00">Factory.h</text>
</a>
</g>
</g>
<!-- Node37&#45;&gt;Node38 -->
<g id="edge70" class="edge">
<title>Node37&#45;&gt;Node38</title>
<path fill="none" stroke="midnightblue" d="M571.63,-403.48C566.63,-394.73 558.71,-380.87 552.39,-369.81"/>
<polygon fill="midnightblue" stroke="midnightblue" points="555.36,-367.96 547.36,-361.01 549.28,-371.43 555.36,-367.96"/>
</g>
<!-- Node38&#45;&gt;Node3 -->
<g id="edge72" class="edge">
<title>Node38&#45;&gt;Node3</title>
<path fill="none" stroke="midnightblue" d="M541.61,-361.07C540.62,-371.1 539.08,-388.24 538.5,-403 537.05,-439.8 541.11,-458.21 571.5,-479 606.16,-502.71 720.01,-514.92 790.2,-520.35"/>
<polygon fill="midnightblue" stroke="midnightblue" points="789.99,-523.85 800.22,-521.11 790.51,-516.87 789.99,-523.85"/>
</g>
<!-- Node38&#45;&gt;Node7 -->
<g id="edge74" class="edge">
<title>Node38&#45;&gt;Node7</title>
<path fill="none" stroke="midnightblue" d="M560.56,-341.89C588.82,-328.47 645.26,-301.81 693.5,-280 750.08,-254.42 762.52,-243.41 821.5,-224 871.51,-207.54 930.55,-194.97 971.07,-187.35"/>
<polygon fill="midnightblue" stroke="midnightblue" points="971.76,-190.79 980.96,-185.52 970.49,-183.9 971.76,-190.79"/>
</g>
<!-- Node38&#45;&gt;Node21 -->
<g id="edge71" class="edge">
<title>Node38&#45;&gt;Node21</title>
<path fill="none" stroke="midnightblue" d="M540.6,-341.86C533.28,-308.57 506.82,-188.15 496.58,-141.57"/>
<polygon fill="midnightblue" stroke="midnightblue" points="499.97,-140.66 494.4,-131.65 493.13,-142.17 499.97,-140.66"/>
</g>
<!-- Node38&#45;&gt;Node23 -->
<g id="edge73" class="edge">
<title>Node38&#45;&gt;Node23</title>
<path fill="none" stroke="midnightblue" d="M522.58,-341.98C499.05,-331.9 459.69,-315.05 432.71,-303.5"/>
<polygon fill="midnightblue" stroke="midnightblue" points="433.95,-300.23 423.38,-299.51 431.19,-306.66 433.95,-300.23"/>
</g>
<!-- Node39&#45;&gt;Node37 -->
<g id="edge89" class="edge">
<title>Node39&#45;&gt;Node37</title>
<path fill="none" stroke="midnightblue" d="M637.77,-459.32C626.66,-451.11 609.76,-438.6 596.52,-428.81"/>
<polygon fill="midnightblue" stroke="midnightblue" points="598.56,-425.97 588.44,-422.83 594.4,-431.59 598.56,-425.97"/>
</g>
<!-- Node40 -->
<g id="node40" class="node">
<title>Node40</title>
<g id="a_node40"><a xlink:href="_squad_template_8h.html" target="_top" xlink:title=" ">
<polygon fill="white" stroke="black" points="662.5,-403.5 662.5,-422.5 754.5,-422.5 754.5,-403.5 662.5,-403.5"/>
<text text-anchor="middle" x="708.5" y="-410.5" font-family="Helvetica,sans-Serif" font-size="10.00">SquadTemplate.h</text>
</a>
</g>
</g>
<!-- Node39&#45;&gt;Node40 -->
<g id="edge76" class="edge">
<title>Node39&#45;&gt;Node40</title>
<path fill="none" stroke="midnightblue" d="M658.98,-459.32C667.7,-451.34 680.84,-439.31 691.4,-429.65"/>
<polygon fill="midnightblue" stroke="midnightblue" points="693.83,-432.17 698.85,-422.83 689.11,-427 693.83,-432.17"/>
</g>
<!-- Node40&#45;&gt;Node17 -->
<g id="edge77" class="edge">
<title>Node40&#45;&gt;Node17</title>
<path fill="none" stroke="midnightblue" d="M703.36,-403.4C692.79,-385.14 668.88,-340.82 660.5,-300 655.26,-274.48 643.2,-295.53 665.5,-168 667.07,-159.03 669.92,-149.36 672.64,-141.29"/>
<polygon fill="midnightblue" stroke="midnightblue" points="675.96,-142.39 676.02,-131.8 669.37,-140.04 675.96,-142.39"/>
</g>
<!-- Node40&#45;&gt;Node29 -->
<g id="edge88" class="edge">
<title>Node40&#45;&gt;Node29</title>
<path fill="none" stroke="midnightblue" d="M662.09,-407.18C550.79,-395.62 270.52,-366.52 171.13,-356.2"/>
<polygon fill="midnightblue" stroke="midnightblue" points="171.31,-352.7 161,-355.15 170.59,-359.66 171.31,-352.7"/>
</g>
<!-- Node40&#45;&gt;Node38 -->
<g id="edge78" class="edge">
<title>Node40&#45;&gt;Node38</title>
<path fill="none" stroke="midnightblue" d="M684.72,-403.48C656.12,-393.22 607.95,-375.96 575.7,-364.4"/>
<polygon fill="midnightblue" stroke="midnightblue" points="576.83,-361.09 566.24,-361.01 574.47,-367.68 576.83,-361.09"/>
</g>
<!-- Node41 -->
<g id="node41" class="node">
<title>Node41</title>
<g id="a_node41"><a xlink:href="_gui_list_8h.html" target="_top" xlink:title=" ">
<polygon fill="white" stroke="black" points="702.5,-280.5 702.5,-299.5 810.5,-299.5 810.5,-280.5 702.5,-280.5"/>
<text text-anchor="middle" x="756.5" y="-287.5" font-family="Helvetica,sans-Serif" font-size="10.00">engine/GUI/GuiList.h</text>
</a>
</g>
</g>
<!-- Node40&#45;&gt;Node41 -->
<g id="edge79" class="edge">
<title>Node40&#45;&gt;Node41</title>
<path fill="none" stroke="midnightblue" d="M710.48,-403.36C713.89,-389.03 721.5,-359.61 731.5,-336 735.51,-326.54 740.96,-316.49 745.75,-308.3"/>
<polygon fill="midnightblue" stroke="midnightblue" points="748.78,-310.05 750.94,-299.68 742.78,-306.44 748.78,-310.05"/>
</g>
<!-- Node43 -->
<g id="node43" class="node">
<title>Node43</title>
<g id="a_node43"><a xlink:href="_gui_scroll_8h.html" target="_top" xlink:title=" ">
<polygon fill="white" stroke="black" points="740.5,-342 740.5,-361 856.5,-361 856.5,-342 740.5,-342"/>
<text text-anchor="middle" x="798.5" y="-349" font-family="Helvetica,sans-Serif" font-size="10.00">engine/GUI/GuiScroll.h</text>
</a>
</g>
</g>
<!-- Node40&#45;&gt;Node43 -->
<g id="edge83" class="edge">
<title>Node40&#45;&gt;Node43</title>
<path fill="none" stroke="midnightblue" d="M721.39,-403.48C735.96,-393.84 759.9,-378.02 777.25,-366.55"/>
<polygon fill="midnightblue" stroke="midnightblue" points="779.22,-369.44 785.63,-361.01 775.36,-363.6 779.22,-369.44"/>
</g>
<!-- Node44 -->
<g id="node44" class="node">
<title>Node44</title>
<g id="a_node44"><a xlink:href="_button_8h.html" target="_top" xlink:title=" ">
<polygon fill="white" stroke="black" points="867,-280.5 867,-299.5 972,-299.5 972,-280.5 867,-280.5"/>
<text text-anchor="middle" x="919.5" y="-287.5" font-family="Helvetica,sans-Serif" font-size="10.00">engine/GUI/Button.h</text>
</a>
</g>
</g>
<!-- Node40&#45;&gt;Node44 -->
<g id="edge86" class="edge">
<title>Node40&#45;&gt;Node44</title>
<path fill="none" stroke="midnightblue" d="M754.62,-407.02C787.93,-401.57 832.64,-390.27 865.5,-367 886.7,-351.99 902.54,-325.93 911.41,-308.57"/>
<polygon fill="midnightblue" stroke="midnightblue" points="914.6,-310.03 915.82,-299.51 908.3,-306.97 914.6,-310.03"/>
</g>
<!-- Node41&#45;&gt;Node17 -->
<g id="edge82" class="edge">
<title>Node41&#45;&gt;Node17</title>
<path fill="none" stroke="midnightblue" d="M752.36,-280.08C740.13,-253.72 704.03,-175.88 687.69,-140.66"/>
<polygon fill="midnightblue" stroke="midnightblue" points="690.86,-139.17 683.47,-131.57 684.51,-142.11 690.86,-139.17"/>
</g>
<!-- Node42 -->
<g id="node42" class="node">
<title>Node42</title>
<g id="a_node42"><a xlink:href="_gui_object_8h.html" target="_top" xlink:title=" ">
<polygon fill="white" stroke="black" points="830.5,-224.5 830.5,-243.5 950.5,-243.5 950.5,-224.5 830.5,-224.5"/>
<text text-anchor="middle" x="890.5" y="-231.5" font-family="Helvetica,sans-Serif" font-size="10.00">engine/GUI/GuiObject.h</text>
</a>
</g>
</g>
<!-- Node41&#45;&gt;Node42 -->
<g id="edge80" class="edge">
<title>Node41&#45;&gt;Node42</title>
<path fill="none" stroke="midnightblue" d="M777.73,-280.44C799.88,-271.52 834.82,-257.44 859.94,-247.32"/>
<polygon fill="midnightblue" stroke="midnightblue" points="861.4,-250.5 869.37,-243.52 858.78,-244.01 861.4,-250.5"/>
</g>
<!-- Node42&#45;&gt;Node7 -->
<g id="edge81" class="edge">
<title>Node42&#45;&gt;Node7</title>
<path fill="none" stroke="midnightblue" d="M910.94,-224.44C932.17,-215.56 965.6,-201.56 989.75,-191.45"/>
<polygon fill="midnightblue" stroke="midnightblue" points="991.28,-194.61 999.16,-187.52 988.58,-188.15 991.28,-194.61"/>
</g>
<!-- Node43&#45;&gt;Node2 -->
<g id="edge85" class="edge">
<title>Node43&#45;&gt;Node2</title>
<path fill="none" stroke="midnightblue" d="M803.24,-341.88C808.36,-332.07 816.21,-315.42 819.5,-300 826.55,-266.95 801.84,-251.48 821.5,-224 885.46,-134.6 1033.38,-123.43 1092.46,-122.67"/>
<polygon fill="midnightblue" stroke="midnightblue" points="1092.74,-126.17 1102.73,-122.64 1092.72,-119.17 1092.74,-126.17"/>
</g>
<!-- Node43&#45;&gt;Node41 -->
<g id="edge84" class="edge">
<title>Node43&#45;&gt;Node41</title>
<path fill="none" stroke="midnightblue" d="M792.48,-341.98C786.24,-333.14 776.33,-319.09 768.48,-307.98"/>
<polygon fill="midnightblue" stroke="midnightblue" points="771.13,-305.66 762.51,-299.51 765.41,-309.7 771.13,-305.66"/>
</g>
<!-- Node44&#45;&gt;Node42 -->
<g id="edge87" class="edge">
<title>Node44&#45;&gt;Node42</title>
<path fill="none" stroke="midnightblue" d="M914.71,-280.08C910.74,-272.69 904.97,-261.95 900.07,-252.81"/>
<polygon fill="midnightblue" stroke="midnightblue" points="903.01,-250.91 895.2,-243.75 896.85,-254.22 903.01,-250.91"/>
</g>
</g>
</svg>
