<?xml version="1.0" encoding="UTF-8" standalone="no"?>
<!DOCTYPE svg PUBLIC "-//W3C//DTD SVG 1.1//EN"
 "http://www.w3.org/Graphics/SVG/1.1/DTD/svg11.dtd">
<!-- Generated by graphviz version 2.47.0 (20210407.0042)
 -->
<!-- Title: src/engine/actions/ClickAction.cpp Pages: 1 -->
<svg width="726pt" height="386pt"
 viewBox="0.00 0.00 725.50 386.00" xmlns="http://www.w3.org/2000/svg" xmlns:xlink="http://www.w3.org/1999/xlink">
<g id="graph0" class="graph" transform="scale(1 1) rotate(0) translate(4 382)">
<title>src/engine/actions/ClickAction.cpp</title>
<polygon fill="white" stroke="transparent" points="-4,4 -4,-382 721.5,-382 721.5,4 -4,4"/>
<!-- Node1 -->
<g id="node1" class="node">
<title>Node1</title>
<g id="a_node1"><a xlink:title=" ">
<polygon fill="#bfbfbf" stroke="black" points="291,-347.5 291,-377.5 387,-377.5 387,-347.5 291,-347.5"/>
<text text-anchor="start" x="299" y="-365.5" font-family="Helvetica,sans-Serif" font-size="10.00">src/engine/actions</text>
<text text-anchor="middle" x="339" y="-354.5" font-family="Helvetica,sans-Serif" font-size="10.00">/ClickAction.cpp</text>
</a>
</g>
</g>
<!-- Node2 -->
<g id="node2" class="node">
<title>Node2</title>
<g id="a_node2"><a xlink:href="_click_action_8h.html" target="_top" xlink:title=" ">
<polygon fill="white" stroke="black" points="0,-224.5 0,-243.5 140,-243.5 140,-224.5 0,-224.5"/>
<text text-anchor="middle" x="70" y="-231.5" font-family="Helvetica,sans-Serif" font-size="10.00">engine/actions/ClickAction.h</text>
</a>
</g>
</g>
<!-- Node1&#45;&gt;Node2 -->
<g id="edge1" class="edge">
<title>Node1&#45;&gt;Node2</title>
<path fill="none" stroke="midnightblue" d="M290.69,-354.68C251.93,-347.76 197.07,-334.58 154,-311 125.69,-295.5 99.15,-268.63 83.75,-251.35"/>
<polygon fill="midnightblue" stroke="midnightblue" points="86.32,-248.97 77.12,-243.72 81.04,-253.57 86.32,-248.97"/>
</g>
<!-- Node3 -->
<g id="node3" class="node">
<title>Node3</title>
<g id="a_node3"><a xlink:href="engine_2_action_8h.html" target="_top" xlink:title=" ">
<polygon fill="white" stroke="black" points="168.5,-112.5 168.5,-131.5 251.5,-131.5 251.5,-112.5 168.5,-112.5"/>
<text text-anchor="middle" x="210" y="-119.5" font-family="Helvetica,sans-Serif" font-size="10.00">engine/Action.h</text>
</a>
</g>
</g>
<!-- Node1&#45;&gt;Node3 -->
<g id="edge5" class="edge">
<title>Node1&#45;&gt;Node3</title>
<path fill="none" stroke="midnightblue" d="M319.79,-347.47C285.28,-320.94 213.92,-259.59 187,-188 180.96,-171.95 188.88,-153.51 197.03,-140.38"/>
<polygon fill="midnightblue" stroke="midnightblue" points="200.09,-142.11 202.81,-131.87 194.3,-138.18 200.09,-142.11"/>
</g>
<!-- Node6 -->
<g id="node6" class="node">
<title>Node6</title>
<g id="a_node6"><a xlink:href="game_controller_8h.html" target="_top" xlink:title=" ">
<polygon fill="white" stroke="black" points="449.5,-286 449.5,-305 570.5,-305 570.5,-286 449.5,-286"/>
<text text-anchor="middle" x="510" y="-293" font-family="Helvetica,sans-Serif" font-size="10.00">engine/gameController.h</text>
</a>
</g>
</g>
<!-- Node1&#45;&gt;Node6 -->
<g id="edge6" class="edge">
<title>Node1&#45;&gt;Node6</title>
<path fill="none" stroke="midnightblue" d="M376.1,-347.4C406.51,-335.84 449.08,-319.66 478,-308.66"/>
<polygon fill="midnightblue" stroke="midnightblue" points="479.52,-311.83 487.62,-305.01 477.03,-305.29 479.52,-311.83"/>
</g>
<!-- Node19 -->
<g id="node19" class="node">
<title>Node19</title>
<g id="a_node19"><a xlink:href="gameplay_clickable_game_object_8h.html" target="_top" xlink:title=" ">
<polygon fill="white" stroke="black" points="588.5,-280.5 588.5,-310.5 717.5,-310.5 717.5,-280.5 588.5,-280.5"/>
<text text-anchor="start" x="596.5" y="-298.5" font-family="Helvetica,sans-Serif" font-size="10.00">engine/gameplayClickable</text>
<text text-anchor="middle" x="653" y="-287.5" font-family="Helvetica,sans-Serif" font-size="10.00">GameObject.h</text>
</a>
</g>
</g>
<!-- Node1&#45;&gt;Node19 -->
<g id="edge23" class="edge">
<title>Node1&#45;&gt;Node19</title>
<path fill="none" stroke="midnightblue" d="M387.03,-351.56C437.95,-341.02 519.03,-324.23 578.3,-311.96"/>
<polygon fill="midnightblue" stroke="midnightblue" points="579.27,-315.34 588.35,-309.88 577.85,-308.48 579.27,-315.34"/>
</g>
<!-- Node2&#45;&gt;Node3 -->
<g id="edge2" class="edge">
<title>Node2&#45;&gt;Node3</title>
<path fill="none" stroke="midnightblue" d="M80.99,-224.37C104.81,-205.65 161.44,-161.15 191.12,-137.83"/>
<polygon fill="midnightblue" stroke="midnightblue" points="193.36,-140.52 199.07,-131.59 189.04,-135.02 193.36,-140.52"/>
</g>
<!-- Node4 -->
<g id="node4" class="node">
<title>Node4</title>
<g id="a_node4"><a xlink:title=" ">
<polygon fill="white" stroke="#bfbfbf" points="148,-56.5 148,-75.5 202,-75.5 202,-56.5 148,-56.5"/>
<text text-anchor="middle" x="175" y="-63.5" font-family="Helvetica,sans-Serif" font-size="10.00">iostream</text>
</a>
</g>
</g>
<!-- Node3&#45;&gt;Node4 -->
<g id="edge3" class="edge">
<title>Node3&#45;&gt;Node4</title>
<path fill="none" stroke="midnightblue" d="M204.22,-112.08C199.33,-104.53 192.17,-93.49 186.17,-84.23"/>
<polygon fill="midnightblue" stroke="midnightblue" points="189.05,-82.24 180.67,-75.75 183.17,-86.05 189.05,-82.24"/>
</g>
<!-- Node5 -->
<g id="node5" class="node">
<title>Node5</title>
<g id="a_node5"><a xlink:title=" ">
<polygon fill="white" stroke="#bfbfbf" points="220.5,-56.5 220.5,-75.5 271.5,-75.5 271.5,-56.5 220.5,-56.5"/>
<text text-anchor="middle" x="246" y="-63.5" font-family="Helvetica,sans-Serif" font-size="10.00">memory</text>
</a>
</g>
</g>
<!-- Node3&#45;&gt;Node5 -->
<g id="edge4" class="edge">
<title>Node3&#45;&gt;Node5</title>
<path fill="none" stroke="midnightblue" d="M215.94,-112.08C220.98,-104.53 228.34,-93.49 234.51,-84.23"/>
<polygon fill="midnightblue" stroke="midnightblue" points="237.53,-86.01 240.17,-75.75 231.71,-82.13 237.53,-86.01"/>
</g>
<!-- Node7 -->
<g id="node7" class="node">
<title>Node7</title>
<g id="a_node7"><a xlink:title=" ">
<polygon fill="white" stroke="#bfbfbf" points="596.5,-112.5 596.5,-131.5 625.5,-131.5 625.5,-112.5 596.5,-112.5"/>
<text text-anchor="middle" x="611" y="-119.5" font-family="Helvetica,sans-Serif" font-size="10.00">list</text>
</a>
</g>
</g>
<!-- Node6&#45;&gt;Node7 -->
<g id="edge7" class="edge">
<title>Node6&#45;&gt;Node7</title>
<path fill="none" stroke="midnightblue" d="M537.11,-285.92C556.8,-278.21 582.3,-264.83 596,-244 616.47,-212.86 615.88,-167.33 613.52,-141.93"/>
<polygon fill="midnightblue" stroke="midnightblue" points="616.97,-141.34 612.37,-131.79 610.02,-142.12 616.97,-141.34"/>
</g>
<!-- Node8 -->
<g id="node8" class="node">
<title>Node8</title>
<g id="a_node8"><a xlink:href="game_object_8h.html" target="_top" xlink:title=" ">
<polygon fill="white" stroke="black" points="480,-168.5 480,-187.5 588,-187.5 588,-168.5 480,-168.5"/>
<text text-anchor="middle" x="534" y="-175.5" font-family="Helvetica,sans-Serif" font-size="10.00">engine/gameObject.h</text>
</a>
</g>
</g>
<!-- Node6&#45;&gt;Node8 -->
<g id="edge8" class="edge">
<title>Node6&#45;&gt;Node8</title>
<path fill="none" stroke="midnightblue" d="M511.8,-285.82C515.68,-267.17 524.87,-222.94 530.13,-197.63"/>
<polygon fill="midnightblue" stroke="midnightblue" points="533.57,-198.28 532.18,-187.78 526.71,-196.86 533.57,-198.28"/>
</g>
<!-- Node14 -->
<g id="node14" class="node">
<title>Node14</title>
<g id="a_node14"><a xlink:href="_network_manager_8h.html" target="_top" xlink:title=" ">
<polygon fill="white" stroke="black" points="352,-224.5 352,-243.5 482,-243.5 482,-224.5 352,-224.5"/>
<text text-anchor="middle" x="417" y="-231.5" font-family="Helvetica,sans-Serif" font-size="10.00">engine/NetworkManager.h</text>
</a>
</g>
</g>
<!-- Node6&#45;&gt;Node14 -->
<g id="edge16" class="edge">
<title>Node6&#45;&gt;Node14</title>
<path fill="none" stroke="midnightblue" d="M496.68,-285.98C481.62,-276.34 456.88,-260.52 438.96,-249.05"/>
<polygon fill="midnightblue" stroke="midnightblue" points="440.61,-245.95 430.3,-243.51 436.84,-251.85 440.61,-245.95"/>
</g>
<!-- Node18 -->
<g id="node18" class="node">
<title>Node18</title>
<g id="a_node18"><a xlink:title=" ">
<polygon fill="white" stroke="#bfbfbf" points="538.5,-224.5 538.5,-243.5 587.5,-243.5 587.5,-224.5 538.5,-224.5"/>
<text text-anchor="middle" x="563" y="-231.5" font-family="Helvetica,sans-Serif" font-size="10.00">random</text>
</a>
</g>
</g>
<!-- Node6&#45;&gt;Node18 -->
<g id="edge22" class="edge">
<title>Node6&#45;&gt;Node18</title>
<path fill="none" stroke="midnightblue" d="M517.59,-285.98C525.7,-276.87 538.73,-262.24 548.76,-250.98"/>
<polygon fill="midnightblue" stroke="midnightblue" points="551.38,-253.3 555.42,-243.51 546.16,-248.65 551.38,-253.3"/>
</g>
<!-- Node8&#45;&gt;Node3 -->
<g id="edge15" class="edge">
<title>Node8&#45;&gt;Node3</title>
<path fill="none" stroke="midnightblue" d="M482.66,-168.44C422.27,-158.38 322.59,-141.77 261.94,-131.66"/>
<polygon fill="midnightblue" stroke="midnightblue" points="262.27,-128.16 251.83,-129.97 261.11,-135.07 262.27,-128.16"/>
</g>
<!-- Node8&#45;&gt;Node7 -->
<g id="edge9" class="edge">
<title>Node8&#45;&gt;Node7</title>
<path fill="none" stroke="midnightblue" d="M546.37,-168.32C558.16,-160.06 576.13,-147.45 590.14,-137.63"/>
<polygon fill="midnightblue" stroke="midnightblue" points="592.48,-140.26 598.66,-131.65 588.46,-134.53 592.48,-140.26"/>
</g>
<!-- Node9 -->
<g id="node9" class="node">
<title>Node9</title>
<g id="a_node9"><a xlink:href="config_8h.html" target="_top" xlink:title=" ">
<polygon fill="white" stroke="black" points="493.5,-112.5 493.5,-131.5 574.5,-131.5 574.5,-112.5 493.5,-112.5"/>
<text text-anchor="middle" x="534" y="-119.5" font-family="Helvetica,sans-Serif" font-size="10.00">engine/config.h</text>
</a>
</g>
</g>
<!-- Node8&#45;&gt;Node9 -->
<g id="edge10" class="edge">
<title>Node8&#45;&gt;Node9</title>
<path fill="none" stroke="midnightblue" d="M534,-168.08C534,-161.01 534,-150.86 534,-141.99"/>
<polygon fill="midnightblue" stroke="midnightblue" points="537.5,-141.75 534,-131.75 530.5,-141.75 537.5,-141.75"/>
</g>
<!-- Node10 -->
<g id="node10" class="node">
<title>Node10</title>
<g id="a_node10"><a xlink:href="_s_f_m_l_facade_8h.html" target="_top" xlink:title=" ">
<polygon fill="white" stroke="black" points="408.5,-56.5 408.5,-75.5 531.5,-75.5 531.5,-56.5 408.5,-56.5"/>
<text text-anchor="middle" x="470" y="-63.5" font-family="Helvetica,sans-Serif" font-size="10.00">graphics/SFMLFacade.h</text>
</a>
</g>
</g>
<!-- Node9&#45;&gt;Node10 -->
<g id="edge11" class="edge">
<title>Node9&#45;&gt;Node10</title>
<path fill="none" stroke="midnightblue" d="M523.72,-112.32C514.16,-104.26 499.72,-92.08 488.22,-82.37"/>
<polygon fill="midnightblue" stroke="midnightblue" points="490.37,-79.61 480.47,-75.83 485.86,-84.96 490.37,-79.61"/>
</g>
<!-- Node13 -->
<g id="node13" class="node">
<title>Node13</title>
<g id="a_node13"><a xlink:title=" ">
<polygon fill="white" stroke="#bfbfbf" points="550,-56.5 550,-75.5 648,-75.5 648,-56.5 550,-56.5"/>
<text text-anchor="middle" x="599" y="-63.5" font-family="Helvetica,sans-Serif" font-size="10.00">nlohmann/json.hpp</text>
</a>
</g>
</g>
<!-- Node9&#45;&gt;Node13 -->
<g id="edge14" class="edge">
<title>Node9&#45;&gt;Node13</title>
<path fill="none" stroke="midnightblue" d="M544.44,-112.32C554.15,-104.26 568.82,-92.08 580.5,-82.37"/>
<polygon fill="midnightblue" stroke="midnightblue" points="582.91,-84.92 588.37,-75.83 578.44,-79.53 582.91,-84.92"/>
</g>
<!-- Node11 -->
<g id="node11" class="node">
<title>Node11</title>
<g id="a_node11"><a xlink:title=" ">
<polygon fill="white" stroke="#bfbfbf" points="369,-0.5 369,-19.5 473,-19.5 473,-0.5 369,-0.5"/>
<text text-anchor="middle" x="421" y="-7.5" font-family="Helvetica,sans-Serif" font-size="10.00">SFML/Graphics.hpp</text>
</a>
</g>
</g>
<!-- Node10&#45;&gt;Node11 -->
<g id="edge12" class="edge">
<title>Node10&#45;&gt;Node11</title>
<path fill="none" stroke="midnightblue" d="M461.91,-56.08C454.84,-48.3 444.41,-36.8 435.85,-27.37"/>
<polygon fill="midnightblue" stroke="midnightblue" points="438.25,-24.8 428.94,-19.75 433.07,-29.51 438.25,-24.8"/>
</g>
<!-- Node12 -->
<g id="node12" class="node">
<title>Node12</title>
<g id="a_node12"><a xlink:href="_facade_8h.html" target="_top" xlink:title=" ">
<polygon fill="white" stroke="black" points="491,-0.5 491,-19.5 547,-19.5 547,-0.5 491,-0.5"/>
<text text-anchor="middle" x="519" y="-7.5" font-family="Helvetica,sans-Serif" font-size="10.00">Facade.h</text>
</a>
</g>
</g>
<!-- Node10&#45;&gt;Node12 -->
<g id="edge13" class="edge">
<title>Node10&#45;&gt;Node12</title>
<path fill="none" stroke="midnightblue" d="M478.09,-56.08C485.16,-48.3 495.59,-36.8 504.15,-27.37"/>
<polygon fill="midnightblue" stroke="midnightblue" points="506.93,-29.51 511.06,-19.75 501.75,-24.8 506.93,-29.51"/>
</g>
<!-- Node14&#45;&gt;Node8 -->
<g id="edge17" class="edge">
<title>Node14&#45;&gt;Node8</title>
<path fill="none" stroke="midnightblue" d="M435.54,-224.44C454.62,-215.64 484.57,-201.81 506.44,-191.72"/>
<polygon fill="midnightblue" stroke="midnightblue" points="507.93,-194.88 515.55,-187.52 505,-188.53 507.93,-194.88"/>
</g>
<!-- Node15 -->
<g id="node15" class="node">
<title>Node15</title>
<g id="a_node15"><a xlink:href="_none_8h.html" target="_top" xlink:title=" ">
<polygon fill="white" stroke="black" points="196.5,-168.5 196.5,-187.5 309.5,-187.5 309.5,-168.5 196.5,-168.5"/>
<text text-anchor="middle" x="253" y="-175.5" font-family="Helvetica,sans-Serif" font-size="10.00">engine/actions/None.h</text>
</a>
</g>
</g>
<!-- Node14&#45;&gt;Node15 -->
<g id="edge18" class="edge">
<title>Node14&#45;&gt;Node15</title>
<path fill="none" stroke="midnightblue" d="M391.01,-224.44C363.3,-215.32 319.25,-200.81 288.38,-190.65"/>
<polygon fill="midnightblue" stroke="midnightblue" points="289.46,-187.32 278.86,-187.52 287.27,-193.97 289.46,-187.32"/>
</g>
<!-- Node16 -->
<g id="node16" class="node">
<title>Node16</title>
<g id="a_node16"><a xlink:title=" ">
<polygon fill="white" stroke="#bfbfbf" points="328,-168.5 328,-187.5 372,-187.5 372,-168.5 328,-168.5"/>
<text text-anchor="middle" x="350" y="-175.5" font-family="Helvetica,sans-Serif" font-size="10.00">vector</text>
</a>
</g>
</g>
<!-- Node14&#45;&gt;Node16 -->
<g id="edge20" class="edge">
<title>Node14&#45;&gt;Node16</title>
<path fill="none" stroke="midnightblue" d="M406.24,-224.32C396.23,-216.26 381.11,-204.08 369.07,-194.37"/>
<polygon fill="midnightblue" stroke="midnightblue" points="370.94,-191.38 360.96,-187.83 366.55,-196.83 370.94,-191.38"/>
</g>
<!-- Node17 -->
<g id="node17" class="node">
<title>Node17</title>
<g id="a_node17"><a xlink:title=" ">
<polygon fill="white" stroke="#bfbfbf" points="390.5,-168.5 390.5,-187.5 461.5,-187.5 461.5,-168.5 390.5,-168.5"/>
<text text-anchor="middle" x="426" y="-175.5" font-family="Helvetica,sans-Serif" font-size="10.00">sys/socket.h</text>
</a>
</g>
</g>
<!-- Node14&#45;&gt;Node17 -->
<g id="edge21" class="edge">
<title>Node14&#45;&gt;Node17</title>
<path fill="none" stroke="midnightblue" d="M418.49,-224.08C419.68,-216.93 421.39,-206.64 422.88,-197.69"/>
<polygon fill="midnightblue" stroke="midnightblue" points="426.35,-198.19 424.54,-187.75 419.45,-197.04 426.35,-198.19"/>
</g>
<!-- Node15&#45;&gt;Node3 -->
<g id="edge19" class="edge">
<title>Node15&#45;&gt;Node3</title>
<path fill="none" stroke="midnightblue" d="M245.9,-168.08C239.76,-160.38 230.73,-149.03 223.26,-139.65"/>
<polygon fill="midnightblue" stroke="midnightblue" points="225.94,-137.39 216.97,-131.75 220.46,-141.75 225.94,-137.39"/>
</g>
<!-- Node19&#45;&gt;Node8 -->
<g id="edge24" class="edge">
<title>Node19&#45;&gt;Node8</title>
<path fill="none" stroke="midnightblue" d="M643.27,-280.34C632.63,-265.41 614.61,-241.66 596,-224 583.81,-212.43 568.56,-201.32 556.23,-193.04"/>
<polygon fill="midnightblue" stroke="midnightblue" points="558.13,-190.1 547.85,-187.53 554.29,-195.95 558.13,-190.1"/>
</g>
</g>
</svg>
