<?xml version="1.0" encoding="UTF-8" standalone="no"?>
<!DOCTYPE svg PUBLIC "-//W3C//DTD SVG 1.1//EN"
 "http://www.w3.org/Graphics/SVG/1.1/DTD/svg11.dtd">
<!-- Generated by graphviz version 2.47.0 (20210407.0042)
 -->
<!-- Title: include/GameLogic/Units/Factory.h Pages: 1 -->
<svg width="1400pt" height="554pt"
 viewBox="0.00 0.00 1400.00 554.00" xmlns="http://www.w3.org/2000/svg" xmlns:xlink="http://www.w3.org/1999/xlink">
<g id="graph0" class="graph" transform="scale(1 1) rotate(0) translate(4 550)">
<title>include/GameLogic/Units/Factory.h</title>
<polygon fill="white" stroke="transparent" points="-4,4 -4,-550 1396,-550 1396,4 -4,4"/>
<!-- Node1 -->
<g id="node1" class="node">
<title>Node1</title>
<g id="a_node1"><a xlink:title=" ">
<polygon fill="#bfbfbf" stroke="black" points="12.5,-515.5 12.5,-545.5 139.5,-545.5 139.5,-515.5 12.5,-515.5"/>
<text text-anchor="start" x="20.5" y="-533.5" font-family="Helvetica,sans-Serif" font-size="10.00">include/GameLogic/Units</text>
<text text-anchor="middle" x="76" y="-522.5" font-family="Helvetica,sans-Serif" font-size="10.00">/Factory.h</text>
</a>
</g>
</g>
<!-- Node2 -->
<g id="node2" class="node">
<title>Node2</title>
<g id="a_node2"><a xlink:title=" ">
<polygon fill="white" stroke="#bfbfbf" points="108.5,-112.5 108.5,-131.5 149.5,-131.5 149.5,-112.5 108.5,-112.5"/>
<text text-anchor="middle" x="129" y="-119.5" font-family="Helvetica,sans-Serif" font-size="10.00">string</text>
</a>
</g>
</g>
<!-- Node1&#45;&gt;Node2 -->
<g id="edge1" class="edge">
<title>Node1&#45;&gt;Node2</title>
<path fill="none" stroke="midnightblue" d="M58.75,-515.43C36.33,-495.44 0,-456.49 0,-414 0,-414 0,-414 0,-233 0,-181.4 60.51,-148.88 98.65,-133.51"/>
<polygon fill="midnightblue" stroke="midnightblue" points="100.2,-136.66 108.27,-129.8 97.68,-130.13 100.2,-136.66"/>
</g>
<!-- Node3 -->
<g id="node3" class="node">
<title>Node3</title>
<g id="a_node3"><a xlink:href="_cell_8h.html" target="_top" xlink:title=" ">
<polygon fill="white" stroke="black" points="544.5,-459.5 544.5,-478.5 585.5,-478.5 585.5,-459.5 544.5,-459.5"/>
<text text-anchor="middle" x="565" y="-466.5" font-family="Helvetica,sans-Serif" font-size="10.00">Cell.h</text>
</a>
</g>
</g>
<!-- Node1&#45;&gt;Node3 -->
<g id="edge2" class="edge">
<title>Node1&#45;&gt;Node3</title>
<path fill="none" stroke="midnightblue" d="M139.93,-521.72C246.25,-508.78 455.49,-483.32 534.14,-473.75"/>
<polygon fill="midnightblue" stroke="midnightblue" points="534.85,-477.2 544.35,-472.51 534,-470.25 534.85,-477.2"/>
</g>
<!-- Node22 -->
<g id="node22" class="node">
<title>Node22</title>
<g id="a_node22"><a xlink:href="_unit_8h.html" target="_top" xlink:title=" ">
<polygon fill="white" stroke="black" points="132,-286 132,-305 254,-305 254,-286 132,-286"/>
<text text-anchor="middle" x="193" y="-293" font-family="Helvetica,sans-Serif" font-size="10.00">GameLogic/Units/Unit.h</text>
</a>
</g>
</g>
<!-- Node1&#45;&gt;Node22 -->
<g id="edge75" class="edge">
<title>Node1&#45;&gt;Node22</title>
<path fill="none" stroke="midnightblue" d="M75.28,-515.25C74.34,-482.49 76.1,-400.49 113,-347 124.62,-330.16 143.87,-317.75 160.57,-309.45"/>
<polygon fill="midnightblue" stroke="midnightblue" points="162.46,-312.43 170.04,-305.03 159.5,-306.09 162.46,-312.43"/>
</g>
<!-- Node4 -->
<g id="node4" class="node">
<title>Node4</title>
<g id="a_node4"><a xlink:href="gameplay_clickable_game_object_8h.html" target="_top" xlink:title=" ">
<polygon fill="white" stroke="black" points="578.5,-280.5 578.5,-310.5 707.5,-310.5 707.5,-280.5 578.5,-280.5"/>
<text text-anchor="start" x="586.5" y="-298.5" font-family="Helvetica,sans-Serif" font-size="10.00">engine/gameplayClickable</text>
<text text-anchor="middle" x="643" y="-287.5" font-family="Helvetica,sans-Serif" font-size="10.00">GameObject.h</text>
</a>
</g>
</g>
<!-- Node3&#45;&gt;Node4 -->
<g id="edge3" class="edge">
<title>Node3&#45;&gt;Node4</title>
<path fill="none" stroke="midnightblue" d="M572.65,-459.21C579.94,-450.5 590.83,-436.53 598,-423 615.94,-389.15 629.39,-346.62 636.72,-320.51"/>
<polygon fill="midnightblue" stroke="midnightblue" points="640.14,-321.29 639.4,-310.72 633.39,-319.44 640.14,-321.29"/>
</g>
<!-- Node7 -->
<g id="node7" class="node">
<title>Node7</title>
<g id="a_node7"><a xlink:href="config_8h.html" target="_top" xlink:title=" ">
<polygon fill="white" stroke="black" points="268.5,-112.5 268.5,-131.5 349.5,-131.5 349.5,-112.5 268.5,-112.5"/>
<text text-anchor="middle" x="309" y="-119.5" font-family="Helvetica,sans-Serif" font-size="10.00">engine/config.h</text>
</a>
</g>
</g>
<!-- Node3&#45;&gt;Node7 -->
<g id="edge23" class="edge">
<title>Node3&#45;&gt;Node7</title>
<path fill="none" stroke="midnightblue" d="M544.49,-467.9C471,-467.23 221.59,-462.05 154,-423 127.29,-407.57 124.46,-395.64 113,-367 89.24,-307.63 72.53,-283.08 97,-224 110.47,-191.48 122.69,-185.89 153,-168 171.38,-157.15 222.62,-143.39 261.4,-133.96"/>
<polygon fill="midnightblue" stroke="midnightblue" points="262.57,-137.28 271.47,-131.54 260.93,-130.47 262.57,-137.28"/>
</g>
<!-- Node10 -->
<g id="node10" class="node">
<title>Node10</title>
<g id="a_node10"><a xlink:href="_facade_8h.html" target="_top" xlink:title=" ">
<polygon fill="white" stroke="black" points="388,-0.5 388,-19.5 444,-19.5 444,-0.5 388,-0.5"/>
<text text-anchor="middle" x="416" y="-7.5" font-family="Helvetica,sans-Serif" font-size="10.00">Facade.h</text>
</a>
</g>
</g>
<!-- Node3&#45;&gt;Node10 -->
<g id="edge24" class="edge">
<title>Node3&#45;&gt;Node10</title>
<path fill="none" stroke="midnightblue" d="M585.76,-467.91C688.27,-467.3 1140.77,-462.35 1275,-423 1332.08,-406.26 1392,-417.49 1392,-358 1392,-358 1392,-358 1392,-121 1392,-24.87 634.66,-12.74 454.24,-11.22"/>
<polygon fill="midnightblue" stroke="midnightblue" points="454.18,-7.72 444.16,-11.14 454.13,-14.72 454.18,-7.72"/>
</g>
<!-- Node13 -->
<g id="node13" class="node">
<title>Node13</title>
<g id="a_node13"><a xlink:title=" ">
<polygon fill="white" stroke="#bfbfbf" points="1118,-56.5 1118,-75.5 1172,-75.5 1172,-56.5 1118,-56.5"/>
<text text-anchor="middle" x="1145" y="-63.5" font-family="Helvetica,sans-Serif" font-size="10.00">iostream</text>
</a>
</g>
</g>
<!-- Node3&#45;&gt;Node13 -->
<g id="edge45" class="edge">
<title>Node3&#45;&gt;Node13</title>
<path fill="none" stroke="midnightblue" d="M585.72,-467.37C680.43,-464.38 1072.63,-450.52 1192,-423 1267.6,-405.57 1354,-435.58 1354,-358 1354,-358 1354,-358 1354,-177 1354,-100.41 1242.74,-77.03 1182.57,-69.98"/>
<polygon fill="midnightblue" stroke="midnightblue" points="1182.64,-66.47 1172.32,-68.88 1181.89,-73.43 1182.64,-66.47"/>
</g>
<!-- Node15 -->
<g id="node15" class="node">
<title>Node15</title>
<g id="a_node15"><a xlink:href="cellgen_8h.html" target="_top" xlink:title=" ">
<polygon fill="white" stroke="black" points="984.5,-347.5 984.5,-366.5 1055.5,-366.5 1055.5,-347.5 984.5,-347.5"/>
<text text-anchor="middle" x="1020" y="-354.5" font-family="Helvetica,sans-Serif" font-size="10.00">util/cellgen.h</text>
</a>
</g>
</g>
<!-- Node3&#45;&gt;Node15 -->
<g id="edge14" class="edge">
<title>Node3&#45;&gt;Node15</title>
<path fill="none" stroke="midnightblue" d="M585.69,-467.2C667.92,-463.86 968.74,-449.88 1001,-423 1014.39,-411.85 1018.64,-391.82 1019.85,-376.93"/>
<polygon fill="midnightblue" stroke="midnightblue" points="1023.36,-376.92 1020.28,-366.78 1016.36,-376.62 1023.36,-376.92"/>
</g>
<!-- Node17 -->
<g id="node17" class="node">
<title>Node17</title>
<g id="a_node17"><a xlink:title=" ">
<polygon fill="white" stroke="#bfbfbf" points="1252.5,-286 1252.5,-305 1287.5,-305 1287.5,-286 1252.5,-286"/>
<text text-anchor="middle" x="1270" y="-293" font-family="Helvetica,sans-Serif" font-size="10.00">map</text>
</a>
</g>
</g>
<!-- Node3&#45;&gt;Node17 -->
<g id="edge44" class="edge">
<title>Node3&#45;&gt;Node17</title>
<path fill="none" stroke="midnightblue" d="M585.58,-466.97C663.11,-462.96 937.35,-447.31 1021,-423 1111.04,-396.84 1207.13,-338.02 1248.75,-310.81"/>
<polygon fill="midnightblue" stroke="midnightblue" points="1250.82,-313.64 1257.24,-305.21 1246.96,-307.8 1250.82,-313.64"/>
</g>
<!-- Node19 -->
<g id="node19" class="node">
<title>Node19</title>
<g id="a_node19"><a xlink:href="_all_flags_8h.html" target="_top" xlink:title=" ">
<polygon fill="white" stroke="black" points="328.5,-224.5 328.5,-243.5 387.5,-243.5 387.5,-224.5 328.5,-224.5"/>
<text text-anchor="middle" x="358" y="-231.5" font-family="Helvetica,sans-Serif" font-size="10.00">AllFlags.h</text>
</a>
</g>
</g>
<!-- Node3&#45;&gt;Node19 -->
<g id="edge18" class="edge">
<title>Node3&#45;&gt;Node19</title>
<path fill="none" stroke="midnightblue" d="M564.36,-459.39C561.69,-429.74 548.78,-330.87 493,-280 466.63,-255.95 427.03,-244.71 397.53,-239.49"/>
<polygon fill="midnightblue" stroke="midnightblue" points="397.98,-236.01 387.55,-237.88 396.87,-242.93 397.98,-236.01"/>
</g>
<!-- Node21 -->
<g id="node21" class="node">
<title>Node21</title>
<g id="a_node21"><a xlink:href="_squad_8h.html" target="_top" xlink:title=" ">
<polygon fill="white" stroke="black" points="301,-347.5 301,-366.5 353,-366.5 353,-347.5 301,-347.5"/>
<text text-anchor="middle" x="327" y="-354.5" font-family="Helvetica,sans-Serif" font-size="10.00">Squad.h</text>
</a>
</g>
</g>
<!-- Node3&#45;&gt;Node21 -->
<g id="edge25" class="edge">
<title>Node3&#45;&gt;Node21</title>
<path fill="none" stroke="midnightblue" d="M544.26,-466.41C495.29,-461.87 375.89,-447.55 346,-423 331.93,-411.44 324.76,-391.48 322.97,-376.72"/>
<polygon fill="midnightblue" stroke="midnightblue" points="326.47,-376.54 322.63,-366.67 319.47,-376.78 326.47,-376.54"/>
</g>
<!-- Node28 -->
<g id="node28" class="node">
<title>Node28</title>
<g id="a_node28"><a xlink:href="geometry_8h.html" target="_top" xlink:title=" ">
<polygon fill="white" stroke="black" points="912,-403.5 912,-422.5 992,-422.5 992,-403.5 912,-403.5"/>
<text text-anchor="middle" x="952" y="-410.5" font-family="Helvetica,sans-Serif" font-size="10.00">util/geometry.h</text>
</a>
</g>
</g>
<!-- Node3&#45;&gt;Node28 -->
<g id="edge46" class="edge">
<title>Node3&#45;&gt;Node28</title>
<path fill="none" stroke="midnightblue" d="M585.69,-465.43C638.04,-458.88 780.03,-440.8 898,-423 899.27,-422.81 900.55,-422.61 901.85,-422.41"/>
<polygon fill="midnightblue" stroke="midnightblue" points="902.59,-425.84 911.92,-420.82 901.49,-418.93 902.59,-425.84"/>
</g>
<!-- Node29 -->
<g id="node29" class="node">
<title>Node29</title>
<g id="a_node29"><a xlink:href="_none_8h.html" target="_top" xlink:title=" ">
<polygon fill="white" stroke="black" points="1136.5,-168.5 1136.5,-187.5 1249.5,-187.5 1249.5,-168.5 1136.5,-168.5"/>
<text text-anchor="middle" x="1193" y="-175.5" font-family="Helvetica,sans-Serif" font-size="10.00">engine/actions/None.h</text>
</a>
</g>
</g>
<!-- Node3&#45;&gt;Node29 -->
<g id="edge49" class="edge">
<title>Node3&#45;&gt;Node29</title>
<path fill="none" stroke="midnightblue" d="M585.87,-467.2C707.16,-462.3 1316,-433.93 1316,-358 1316,-358 1316,-358 1316,-294.5 1316,-244.08 1260.4,-209.25 1223.96,-191.84"/>
<polygon fill="midnightblue" stroke="midnightblue" points="1225.26,-188.58 1214.71,-187.59 1222.33,-194.94 1225.26,-188.58"/>
</g>
<!-- Node30 -->
<g id="node30" class="node">
<title>Node30</title>
<g id="a_node30"><a xlink:href="game_controller_8h.html" target="_top" xlink:title=" ">
<polygon fill="white" stroke="black" points="966.5,-286 966.5,-305 1087.5,-305 1087.5,-286 966.5,-286"/>
<text text-anchor="middle" x="1027" y="-293" font-family="Helvetica,sans-Serif" font-size="10.00">engine/gameController.h</text>
</a>
</g>
</g>
<!-- Node3&#45;&gt;Node30 -->
<g id="edge51" class="edge">
<title>Node3&#45;&gt;Node30</title>
<path fill="none" stroke="midnightblue" d="M585.59,-461.74C634.51,-446.72 761.41,-406.9 865,-367 912.99,-348.52 967.6,-324.01 999.58,-309.29"/>
<polygon fill="midnightblue" stroke="midnightblue" points="1001.14,-312.43 1008.75,-305.05 998.2,-306.07 1001.14,-312.43"/>
</g>
<!-- Node34 -->
<g id="node34" class="node">
<title>Node34</title>
<g id="a_node34"><a xlink:href="_set_squad_path_8h.html" target="_top" xlink:title=" ">
<polygon fill="white" stroke="black" points="364.5,-403.5 364.5,-422.5 517.5,-422.5 517.5,-403.5 364.5,-403.5"/>
<text text-anchor="middle" x="441" y="-410.5" font-family="Helvetica,sans-Serif" font-size="10.00">engine/actions/SetSquadPath.h</text>
</a>
</g>
</g>
<!-- Node3&#45;&gt;Node34 -->
<g id="edge60" class="edge">
<title>Node3&#45;&gt;Node34</title>
<path fill="none" stroke="midnightblue" d="M544.34,-461.05C522.26,-452.43 487.72,-437.55 464.62,-426.83"/>
<polygon fill="midnightblue" stroke="midnightblue" points="466.03,-423.62 455.49,-422.52 463.04,-429.96 466.03,-423.62"/>
</g>
<!-- Node35 -->
<g id="node35" class="node">
<title>Node35</title>
<g id="a_node35"><a xlink:href="_all_units_8h.html" target="_top" xlink:title=" ">
<polygon fill="white" stroke="black" points="122.5,-347.5 122.5,-366.5 181.5,-366.5 181.5,-347.5 122.5,-347.5"/>
<text text-anchor="middle" x="152" y="-354.5" font-family="Helvetica,sans-Serif" font-size="10.00">AllUnits.h</text>
</a>
</g>
</g>
<!-- Node3&#45;&gt;Node35 -->
<g id="edge64" class="edge">
<title>Node3&#45;&gt;Node35</title>
<path fill="none" stroke="midnightblue" d="M544.49,-466.97C467.67,-462.95 199.83,-447.29 171,-423 157.67,-411.77 153.41,-391.76 152.18,-376.89"/>
<polygon fill="midnightblue" stroke="midnightblue" points="155.67,-376.6 151.73,-366.76 148.68,-376.91 155.67,-376.6"/>
</g>
<!-- Node36 -->
<g id="node36" class="node">
<title>Node36</title>
<g id="a_node36"><a xlink:href="_all_squad_templates_8h.html" target="_top" xlink:title=" ">
<polygon fill="white" stroke="black" points="180.5,-403.5 180.5,-422.5 289.5,-422.5 289.5,-403.5 180.5,-403.5"/>
<text text-anchor="middle" x="235" y="-410.5" font-family="Helvetica,sans-Serif" font-size="10.00">AllSquadTemplates.h</text>
</a>
</g>
</g>
<!-- Node3&#45;&gt;Node36 -->
<g id="edge66" class="edge">
<title>Node3&#45;&gt;Node36</title>
<path fill="none" stroke="midnightblue" d="M544.36,-464.62C495.84,-456.68 372.98,-436.58 297.5,-424.23"/>
<polygon fill="midnightblue" stroke="midnightblue" points="297.61,-420.7 287.18,-422.54 296.48,-427.61 297.61,-420.7"/>
</g>
<!-- Node5 -->
<g id="node5" class="node">
<title>Node5</title>
<g id="a_node5"><a xlink:href="game_object_8h.html" target="_top" xlink:title=" ">
<polygon fill="white" stroke="black" points="913.5,-168.5 913.5,-187.5 990.5,-187.5 990.5,-168.5 913.5,-168.5"/>
<text text-anchor="middle" x="952" y="-175.5" font-family="Helvetica,sans-Serif" font-size="10.00">gameObject.h</text>
</a>
</g>
</g>
<!-- Node4&#45;&gt;Node5 -->
<g id="edge4" class="edge">
<title>Node4&#45;&gt;Node5</title>
<path fill="none" stroke="midnightblue" d="M666.71,-280.39C693.64,-264.85 739.28,-239.93 781,-224 821.2,-208.65 868.64,-196.62 903.34,-188.87"/>
<polygon fill="midnightblue" stroke="midnightblue" points="904.21,-192.27 913.23,-186.71 902.71,-185.43 904.21,-192.27"/>
</g>
<!-- Node6 -->
<g id="node6" class="node">
<title>Node6</title>
<g id="a_node6"><a xlink:title=" ">
<polygon fill="white" stroke="#bfbfbf" points="1137.5,-112.5 1137.5,-131.5 1166.5,-131.5 1166.5,-112.5 1137.5,-112.5"/>
<text text-anchor="middle" x="1152" y="-119.5" font-family="Helvetica,sans-Serif" font-size="10.00">list</text>
</a>
</g>
</g>
<!-- Node5&#45;&gt;Node6 -->
<g id="edge5" class="edge">
<title>Node5&#45;&gt;Node6</title>
<path fill="none" stroke="midnightblue" d="M983.69,-168.44C1023.59,-157.67 1091.28,-139.39 1127.47,-129.62"/>
<polygon fill="midnightblue" stroke="midnightblue" points="1128.46,-132.98 1137.2,-127 1126.64,-126.22 1128.46,-132.98"/>
</g>
<!-- Node5&#45;&gt;Node7 -->
<g id="edge6" class="edge">
<title>Node5&#45;&gt;Node7</title>
<path fill="none" stroke="midnightblue" d="M913.23,-173.74C802.44,-164.44 484.49,-137.74 359.92,-127.28"/>
<polygon fill="midnightblue" stroke="midnightblue" points="360.14,-123.78 349.89,-126.43 359.56,-130.76 360.14,-123.78"/>
</g>
<!-- Node12 -->
<g id="node12" class="node">
<title>Node12</title>
<g id="a_node12"><a xlink:href="engine_2_action_8h.html" target="_top" xlink:title=" ">
<polygon fill="white" stroke="black" points="910.5,-112.5 910.5,-131.5 993.5,-131.5 993.5,-112.5 910.5,-112.5"/>
<text text-anchor="middle" x="952" y="-119.5" font-family="Helvetica,sans-Serif" font-size="10.00">engine/Action.h</text>
</a>
</g>
</g>
<!-- Node5&#45;&gt;Node12 -->
<g id="edge11" class="edge">
<title>Node5&#45;&gt;Node12</title>
<path fill="none" stroke="midnightblue" d="M952,-168.08C952,-161.01 952,-150.86 952,-141.99"/>
<polygon fill="midnightblue" stroke="midnightblue" points="955.5,-141.75 952,-131.75 948.5,-141.75 955.5,-141.75"/>
</g>
<!-- Node8 -->
<g id="node8" class="node">
<title>Node8</title>
<g id="a_node8"><a xlink:href="_s_f_m_l_facade_8h.html" target="_top" xlink:title=" ">
<polygon fill="white" stroke="black" points="148.5,-56.5 148.5,-75.5 271.5,-75.5 271.5,-56.5 148.5,-56.5"/>
<text text-anchor="middle" x="210" y="-63.5" font-family="Helvetica,sans-Serif" font-size="10.00">graphics/SFMLFacade.h</text>
</a>
</g>
</g>
<!-- Node7&#45;&gt;Node8 -->
<g id="edge7" class="edge">
<title>Node7&#45;&gt;Node8</title>
<path fill="none" stroke="midnightblue" d="M293.09,-112.32C277.36,-103.74 253.06,-90.49 234.79,-80.52"/>
<polygon fill="midnightblue" stroke="midnightblue" points="236.32,-77.37 225.87,-75.65 232.97,-83.52 236.32,-77.37"/>
</g>
<!-- Node11 -->
<g id="node11" class="node">
<title>Node11</title>
<g id="a_node11"><a xlink:title=" ">
<polygon fill="white" stroke="#bfbfbf" points="290,-56.5 290,-75.5 388,-75.5 388,-56.5 290,-56.5"/>
<text text-anchor="middle" x="339" y="-63.5" font-family="Helvetica,sans-Serif" font-size="10.00">nlohmann/json.hpp</text>
</a>
</g>
</g>
<!-- Node7&#45;&gt;Node11 -->
<g id="edge10" class="edge">
<title>Node7&#45;&gt;Node11</title>
<path fill="none" stroke="midnightblue" d="M313.95,-112.08C318.1,-104.61 324.15,-93.72 329.27,-84.52"/>
<polygon fill="midnightblue" stroke="midnightblue" points="332.34,-86.19 334.14,-75.75 326.22,-82.79 332.34,-86.19"/>
</g>
<!-- Node9 -->
<g id="node9" class="node">
<title>Node9</title>
<g id="a_node9"><a xlink:title=" ">
<polygon fill="white" stroke="#bfbfbf" points="158,-0.5 158,-19.5 262,-19.5 262,-0.5 158,-0.5"/>
<text text-anchor="middle" x="210" y="-7.5" font-family="Helvetica,sans-Serif" font-size="10.00">SFML/Graphics.hpp</text>
</a>
</g>
</g>
<!-- Node8&#45;&gt;Node9 -->
<g id="edge8" class="edge">
<title>Node8&#45;&gt;Node9</title>
<path fill="none" stroke="midnightblue" d="M210,-56.08C210,-49.01 210,-38.86 210,-29.99"/>
<polygon fill="midnightblue" stroke="midnightblue" points="213.5,-29.75 210,-19.75 206.5,-29.75 213.5,-29.75"/>
</g>
<!-- Node8&#45;&gt;Node10 -->
<g id="edge9" class="edge">
<title>Node8&#45;&gt;Node10</title>
<path fill="none" stroke="midnightblue" d="M242.64,-56.44C279.4,-46.81 339.07,-31.17 377.93,-20.98"/>
<polygon fill="midnightblue" stroke="midnightblue" points="379.03,-24.31 387.81,-18.39 377.25,-17.54 379.03,-24.31"/>
</g>
<!-- Node12&#45;&gt;Node13 -->
<g id="edge12" class="edge">
<title>Node12&#45;&gt;Node13</title>
<path fill="none" stroke="midnightblue" d="M982.58,-112.44C1016.68,-102.9 1071.82,-87.47 1108.24,-77.28"/>
<polygon fill="midnightblue" stroke="midnightblue" points="1109.3,-80.62 1117.99,-74.56 1107.41,-73.88 1109.3,-80.62"/>
</g>
<!-- Node14 -->
<g id="node14" class="node">
<title>Node14</title>
<g id="a_node14"><a xlink:title=" ">
<polygon fill="white" stroke="#bfbfbf" points="720.5,-56.5 720.5,-75.5 771.5,-75.5 771.5,-56.5 720.5,-56.5"/>
<text text-anchor="middle" x="746" y="-63.5" font-family="Helvetica,sans-Serif" font-size="10.00">memory</text>
</a>
</g>
</g>
<!-- Node12&#45;&gt;Node14 -->
<g id="edge13" class="edge">
<title>Node12&#45;&gt;Node14</title>
<path fill="none" stroke="midnightblue" d="M919.36,-112.44C881.76,-102.59 820.21,-86.45 781.46,-76.3"/>
<polygon fill="midnightblue" stroke="midnightblue" points="782.22,-72.88 771.65,-73.73 780.44,-79.65 782.22,-72.88"/>
</g>
<!-- Node16 -->
<g id="node16" class="node">
<title>Node16</title>
<g id="a_node16"><a xlink:title=" ">
<polygon fill="white" stroke="#bfbfbf" points="664,-112.5 664,-131.5 708,-131.5 708,-112.5 664,-112.5"/>
<text text-anchor="middle" x="686" y="-119.5" font-family="Helvetica,sans-Serif" font-size="10.00">vector</text>
</a>
</g>
</g>
<!-- Node15&#45;&gt;Node16 -->
<g id="edge15" class="edge">
<title>Node15&#45;&gt;Node16</title>
<path fill="none" stroke="midnightblue" d="M1003.66,-347.37C989.96,-339.44 970.66,-326.59 958,-311 931.28,-278.11 949.15,-253.78 919,-224 861.72,-167.43 767.61,-140.17 718.35,-129.2"/>
<polygon fill="midnightblue" stroke="midnightblue" points="718.78,-125.71 708.27,-127.04 717.31,-132.55 718.78,-125.71"/>
</g>
<!-- Node15&#45;&gt;Node17 -->
<g id="edge16" class="edge">
<title>Node15&#45;&gt;Node17</title>
<path fill="none" stroke="midnightblue" d="M1055.63,-352.09C1100.4,-346.43 1179.09,-334.04 1243,-311 1244.21,-310.56 1245.43,-310.08 1246.66,-309.56"/>
<polygon fill="midnightblue" stroke="midnightblue" points="1248.32,-312.65 1255.79,-305.14 1245.26,-306.35 1248.32,-312.65"/>
</g>
<!-- Node18 -->
<g id="node18" class="node">
<title>Node18</title>
<g id="a_node18"><a xlink:title=" ">
<polygon fill="white" stroke="#bfbfbf" points="1106,-286 1106,-305 1234,-305 1234,-286 1106,-286"/>
<text text-anchor="middle" x="1170" y="-293" font-family="Helvetica,sans-Serif" font-size="10.00">scanline_triangulation.hpp</text>
</a>
</g>
</g>
<!-- Node15&#45;&gt;Node18 -->
<g id="edge17" class="edge">
<title>Node15&#45;&gt;Node18</title>
<path fill="none" stroke="midnightblue" d="M1041.49,-347.48C1067.11,-337.31 1110.11,-320.26 1139.24,-308.7"/>
<polygon fill="midnightblue" stroke="midnightblue" points="1140.54,-311.95 1148.55,-305.01 1137.96,-305.44 1140.54,-311.95"/>
</g>
<!-- Node19&#45;&gt;Node14 -->
<g id="edge22" class="edge">
<title>Node19&#45;&gt;Node14</title>
<path fill="none" stroke="midnightblue" d="M378.04,-224.42C441.9,-197.1 640.82,-112 716.43,-79.65"/>
<polygon fill="midnightblue" stroke="midnightblue" points="718.03,-82.78 725.84,-75.62 715.27,-76.34 718.03,-82.78"/>
</g>
<!-- Node20 -->
<g id="node20" class="node">
<title>Node20</title>
<g id="a_node20"><a xlink:href="_flag_8h.html" target="_top" xlink:title=" ">
<polygon fill="white" stroke="black" points="336.5,-168.5 336.5,-187.5 379.5,-187.5 379.5,-168.5 336.5,-168.5"/>
<text text-anchor="middle" x="358" y="-175.5" font-family="Helvetica,sans-Serif" font-size="10.00">Flag.h</text>
</a>
</g>
</g>
<!-- Node19&#45;&gt;Node20 -->
<g id="edge19" class="edge">
<title>Node19&#45;&gt;Node20</title>
<path fill="none" stroke="midnightblue" d="M358,-224.08C358,-217.01 358,-206.86 358,-197.99"/>
<polygon fill="midnightblue" stroke="midnightblue" points="361.5,-197.75 358,-187.75 354.5,-197.75 361.5,-197.75"/>
</g>
<!-- Node20&#45;&gt;Node2 -->
<g id="edge21" class="edge">
<title>Node20&#45;&gt;Node2</title>
<path fill="none" stroke="midnightblue" d="M336.26,-172.7C301.03,-165.61 229.14,-150.61 159.36,-132.21"/>
<polygon fill="midnightblue" stroke="midnightblue" points="160.1,-128.79 149.54,-129.59 158.3,-135.55 160.1,-128.79"/>
</g>
<!-- Node20&#45;&gt;Node16 -->
<g id="edge20" class="edge">
<title>Node20&#45;&gt;Node16</title>
<path fill="none" stroke="midnightblue" d="M379.52,-173.46C435.8,-164.19 587.57,-139.21 654.06,-128.26"/>
<polygon fill="midnightblue" stroke="midnightblue" points="654.67,-131.71 663.97,-126.63 653.53,-124.8 654.67,-131.71"/>
</g>
<!-- Node21&#45;&gt;Node3 -->
<g id="edge26" class="edge">
<title>Node21&#45;&gt;Node3</title>
<path fill="none" stroke="midnightblue" d="M333.72,-366.67C339.56,-380.75 346.34,-408.5 364,-423 390.11,-444.44 484.47,-458.07 534.19,-464.21"/>
<polygon fill="midnightblue" stroke="midnightblue" points="534.02,-467.72 544.37,-465.44 534.86,-460.77 534.02,-467.72"/>
</g>
<!-- Node21&#45;&gt;Node4 -->
<g id="edge38" class="edge">
<title>Node21&#45;&gt;Node4</title>
<path fill="none" stroke="midnightblue" d="M353.13,-351.08C399.78,-342.3 499,-323.61 568.29,-310.57"/>
<polygon fill="midnightblue" stroke="midnightblue" points="569.11,-313.98 578.28,-308.69 567.81,-307.1 569.11,-313.98"/>
</g>
<!-- Node21&#45;&gt;Node7 -->
<g id="edge42" class="edge">
<title>Node21&#45;&gt;Node7</title>
<path fill="none" stroke="midnightblue" d="M321.62,-347.44C316.44,-338.68 308.99,-324.47 306,-311 292.53,-250.3 300.77,-175.85 305.86,-141.72"/>
<polygon fill="midnightblue" stroke="midnightblue" points="309.33,-142.19 307.44,-131.76 302.42,-141.1 309.33,-142.19"/>
</g>
<!-- Node21&#45;&gt;Node10 -->
<g id="edge43" class="edge">
<title>Node21&#45;&gt;Node10</title>
<path fill="none" stroke="midnightblue" d="M326.17,-347.2C325.19,-332.13 325.19,-300.98 339,-280 355.47,-254.97 377.8,-267.8 396,-244 414.36,-219.99 416,-209.23 416,-179 416,-179 416,-179 416,-121 416,-88.95 416,-51.64 416,-29.75"/>
<polygon fill="midnightblue" stroke="midnightblue" points="419.5,-29.56 416,-19.56 412.5,-29.56 419.5,-29.56"/>
</g>
<!-- Node21&#45;&gt;Node22 -->
<g id="edge27" class="edge">
<title>Node21&#45;&gt;Node22</title>
<path fill="none" stroke="midnightblue" d="M302.9,-347.48C278.34,-337.53 240.83,-320.99 216.5,-309.46"/>
<polygon fill="midnightblue" stroke="midnightblue" points="217.79,-306.2 207.27,-305.01 214.76,-312.5 217.79,-306.2"/>
</g>
<!-- Node27 -->
<g id="node27" class="node">
<title>Node27</title>
<g id="a_node27"><a xlink:href="_game_logic_2_squad_2_action_8h.html" target="_top" xlink:title=" ">
<polygon fill="white" stroke="black" points="348,-286 348,-305 484,-305 484,-286 348,-286"/>
<text text-anchor="middle" x="416" y="-293" font-family="Helvetica,sans-Serif" font-size="10.00">GameLogic/Squad/Action.h</text>
</a>
</g>
</g>
<!-- Node21&#45;&gt;Node27 -->
<g id="edge39" class="edge">
<title>Node21&#45;&gt;Node27</title>
<path fill="none" stroke="midnightblue" d="M334.85,-347.48C347.27,-337.75 370.95,-321.73 389.66,-310.24"/>
<polygon fill="midnightblue" stroke="midnightblue" points="391.6,-313.15 398.37,-305.01 388,-307.15 391.6,-313.15"/>
</g>
<!-- Node22&#45;&gt;Node19 -->
<g id="edge33" class="edge">
<title>Node22&#45;&gt;Node19</title>
<path fill="none" stroke="midnightblue" d="M216.64,-285.98C244.94,-275.77 292.53,-258.61 324.59,-247.05"/>
<polygon fill="midnightblue" stroke="midnightblue" points="326.18,-250.19 334.4,-243.51 323.81,-243.61 326.18,-250.19"/>
</g>
<!-- Node22&#45;&gt;Node21 -->
<g id="edge32" class="edge">
<title>Node22&#45;&gt;Node21</title>
<path fill="none" stroke="midnightblue" d="M217.06,-305.01C241.6,-314.94 279.11,-331.48 303.46,-343.02"/>
<polygon fill="midnightblue" stroke="midnightblue" points="302.17,-346.29 312.7,-347.48 305.21,-339.98 302.17,-346.29"/>
</g>
<!-- Node23 -->
<g id="node23" class="node">
<title>Node23</title>
<g id="a_node23"><a xlink:title=" ">
<polygon fill="white" stroke="#bfbfbf" points="228.5,-224.5 228.5,-243.5 271.5,-243.5 271.5,-224.5 228.5,-224.5"/>
<text text-anchor="middle" x="250" y="-231.5" font-family="Helvetica,sans-Serif" font-size="10.00">cstdio</text>
</a>
</g>
</g>
<!-- Node22&#45;&gt;Node23 -->
<g id="edge28" class="edge">
<title>Node22&#45;&gt;Node23</title>
<path fill="none" stroke="midnightblue" d="M201.17,-285.98C209.89,-276.87 223.9,-262.24 234.69,-250.98"/>
<polygon fill="midnightblue" stroke="midnightblue" points="237.46,-253.15 241.85,-243.51 232.4,-248.31 237.46,-253.15"/>
</g>
<!-- Node24 -->
<g id="node24" class="node">
<title>Node24</title>
<g id="a_node24"><a xlink:href="_unit_order_8h.html" target="_top" xlink:title=" ">
<polygon fill="white" stroke="black" points="106,-224.5 106,-243.5 172,-243.5 172,-224.5 106,-224.5"/>
<text text-anchor="middle" x="139" y="-231.5" font-family="Helvetica,sans-Serif" font-size="10.00">UnitOrder.h</text>
</a>
</g>
</g>
<!-- Node22&#45;&gt;Node24 -->
<g id="edge29" class="edge">
<title>Node22&#45;&gt;Node24</title>
<path fill="none" stroke="midnightblue" d="M180.36,-285.98C170.32,-277.05 156.98,-262.81 147.97,-251.64"/>
<polygon fill="midnightblue" stroke="midnightblue" points="150.65,-249.38 141.83,-243.51 145.06,-253.6 150.65,-249.38"/>
</g>
<!-- Node25 -->
<g id="node25" class="node">
<title>Node25</title>
<g id="a_node25"><a xlink:href="_textures_8h.html" target="_top" xlink:title=" ">
<polygon fill="white" stroke="black" points="162.5,-168.5 162.5,-187.5 263.5,-187.5 263.5,-168.5 162.5,-168.5"/>
<text text-anchor="middle" x="213" y="-175.5" font-family="Helvetica,sans-Serif" font-size="10.00">graphics/Textures.h</text>
</a>
</g>
</g>
<!-- Node22&#45;&gt;Node25 -->
<g id="edge34" class="edge">
<title>Node22&#45;&gt;Node25</title>
<path fill="none" stroke="midnightblue" d="M194.5,-285.82C197.72,-267.26 205.32,-223.34 209.71,-197.97"/>
<polygon fill="midnightblue" stroke="midnightblue" points="213.22,-198.23 211.48,-187.78 206.32,-197.04 213.22,-198.23"/>
</g>
<!-- Node24&#45;&gt;Node2 -->
<g id="edge30" class="edge">
<title>Node24&#45;&gt;Node2</title>
<path fill="none" stroke="midnightblue" d="M138.22,-224.37C136.6,-206.62 132.88,-165.67 130.69,-141.6"/>
<polygon fill="midnightblue" stroke="midnightblue" points="134.17,-141.23 129.78,-131.59 127.2,-141.87 134.17,-141.23"/>
</g>
<!-- Node24&#45;&gt;Node22 -->
<g id="edge31" class="edge">
<title>Node24&#45;&gt;Node22</title>
<path fill="none" stroke="midnightblue" d="M151.62,-243.51C161.66,-252.43 175,-266.67 184.01,-277.84"/>
<polygon fill="midnightblue" stroke="midnightblue" points="181.34,-280.11 190.16,-285.98 186.92,-275.89 181.34,-280.11"/>
</g>
<!-- Node25&#45;&gt;Node7 -->
<g id="edge35" class="edge">
<title>Node25&#45;&gt;Node7</title>
<path fill="none" stroke="midnightblue" d="M228.42,-168.32C243.54,-159.82 266.82,-146.73 284.47,-136.8"/>
<polygon fill="midnightblue" stroke="midnightblue" points="286.61,-139.61 293.61,-131.65 283.18,-133.51 286.61,-139.61"/>
</g>
<!-- Node25&#45;&gt;Node16 -->
<g id="edge36" class="edge">
<title>Node25&#45;&gt;Node16</title>
<path fill="none" stroke="midnightblue" d="M263.62,-171.22C361.24,-160.08 573,-135.9 653.79,-126.68"/>
<polygon fill="midnightblue" stroke="midnightblue" points="654.32,-130.14 663.86,-125.53 653.53,-123.18 654.32,-130.14"/>
</g>
<!-- Node26 -->
<g id="node26" class="node">
<title>Node26</title>
<g id="a_node26"><a xlink:title=" ">
<polygon fill="white" stroke="#bfbfbf" points="167.5,-112.5 167.5,-131.5 250.5,-131.5 250.5,-112.5 167.5,-112.5"/>
<text text-anchor="middle" x="209" y="-119.5" font-family="Helvetica,sans-Serif" font-size="10.00">unordered_map</text>
</a>
</g>
</g>
<!-- Node25&#45;&gt;Node26 -->
<g id="edge37" class="edge">
<title>Node25&#45;&gt;Node26</title>
<path fill="none" stroke="midnightblue" d="M212.34,-168.08C211.82,-161.01 211.06,-150.86 210.41,-141.99"/>
<polygon fill="midnightblue" stroke="midnightblue" points="213.88,-141.47 209.65,-131.75 206.9,-141.98 213.88,-141.47"/>
</g>
<!-- Node27&#45;&gt;Node3 -->
<g id="edge41" class="edge">
<title>Node27&#45;&gt;Node3</title>
<path fill="none" stroke="midnightblue" d="M426.59,-305.11C447.3,-322.28 493.94,-362.61 526,-403 537.74,-417.78 548.56,-436.41 555.82,-449.93"/>
<polygon fill="midnightblue" stroke="midnightblue" points="552.89,-451.88 560.62,-459.12 559.09,-448.64 552.89,-451.88"/>
</g>
<!-- Node27&#45;&gt;Node21 -->
<g id="edge40" class="edge">
<title>Node27&#45;&gt;Node21</title>
<path fill="none" stroke="midnightblue" d="M408.17,-305.01C395.76,-314.72 372.09,-330.75 353.37,-342.24"/>
<polygon fill="midnightblue" stroke="midnightblue" points="351.43,-339.33 344.65,-347.48 355.03,-345.33 351.43,-339.33"/>
</g>
<!-- Node28&#45;&gt;Node15 -->
<g id="edge48" class="edge">
<title>Node28&#45;&gt;Node15</title>
<path fill="none" stroke="midnightblue" d="M962.93,-403.32C973.17,-395.18 988.72,-382.84 1001,-373.09"/>
<polygon fill="midnightblue" stroke="midnightblue" points="1003.22,-375.79 1008.88,-366.83 998.87,-370.31 1003.22,-375.79"/>
</g>
<!-- Node28&#45;&gt;Node16 -->
<g id="edge47" class="edge">
<title>Node28&#45;&gt;Node16</title>
<path fill="none" stroke="midnightblue" d="M911.62,-407.57C860.78,-401.21 777.37,-387.89 755,-367 721.42,-335.65 696.73,-193.23 688.76,-141.69"/>
<polygon fill="midnightblue" stroke="midnightblue" points="692.19,-141.01 687.24,-131.64 685.27,-142.05 692.19,-141.01"/>
</g>
<!-- Node29&#45;&gt;Node12 -->
<g id="edge50" class="edge">
<title>Node29&#45;&gt;Node12</title>
<path fill="none" stroke="midnightblue" d="M1154.81,-168.44C1112.86,-159.04 1045.41,-143.93 999.93,-133.74"/>
<polygon fill="midnightblue" stroke="midnightblue" points="1000.53,-130.29 990.01,-131.52 999,-137.12 1000.53,-130.29"/>
</g>
<!-- Node30&#45;&gt;Node5 -->
<g id="edge53" class="edge">
<title>Node30&#45;&gt;Node5</title>
<path fill="none" stroke="midnightblue" d="M1029.19,-285.99C1032.28,-272 1036.38,-243.73 1025,-224 1016.58,-209.4 1001.33,-198.92 986.94,-191.76"/>
<polygon fill="midnightblue" stroke="midnightblue" points="988.24,-188.5 977.69,-187.53 985.32,-194.87 988.24,-188.5"/>
</g>
<!-- Node30&#45;&gt;Node6 -->
<g id="edge52" class="edge">
<title>Node30&#45;&gt;Node6</title>
<path fill="none" stroke="midnightblue" d="M1068.95,-285.98C1115.6,-275.99 1187.5,-258.9 1211,-244 1238.69,-226.45 1247.63,-218.74 1259,-188 1272.74,-150.87 1212.75,-133.67 1177,-126.84"/>
<polygon fill="midnightblue" stroke="midnightblue" points="1177.25,-123.33 1166.79,-125.04 1176.03,-130.22 1177.25,-123.33"/>
</g>
<!-- Node31 -->
<g id="node31" class="node">
<title>Node31</title>
<g id="a_node31"><a xlink:href="_network_manager_8h.html" target="_top" xlink:title=" ">
<polygon fill="white" stroke="black" points="1072,-224.5 1072,-243.5 1202,-243.5 1202,-224.5 1072,-224.5"/>
<text text-anchor="middle" x="1137" y="-231.5" font-family="Helvetica,sans-Serif" font-size="10.00">engine/NetworkManager.h</text>
</a>
</g>
</g>
<!-- Node30&#45;&gt;Node31 -->
<g id="edge54" class="edge">
<title>Node30&#45;&gt;Node31</title>
<path fill="none" stroke="midnightblue" d="M1042.76,-285.98C1060.98,-276.12 1091.17,-259.79 1112.47,-248.27"/>
<polygon fill="midnightblue" stroke="midnightblue" points="1114.14,-251.35 1121.27,-243.51 1110.81,-245.19 1114.14,-251.35"/>
</g>
<!-- Node33 -->
<g id="node33" class="node">
<title>Node33</title>
<g id="a_node33"><a xlink:title=" ">
<polygon fill="white" stroke="#bfbfbf" points="966.5,-224.5 966.5,-243.5 1015.5,-243.5 1015.5,-224.5 966.5,-224.5"/>
<text text-anchor="middle" x="991" y="-231.5" font-family="Helvetica,sans-Serif" font-size="10.00">random</text>
</a>
</g>
</g>
<!-- Node30&#45;&gt;Node33 -->
<g id="edge59" class="edge">
<title>Node30&#45;&gt;Node33</title>
<path fill="none" stroke="midnightblue" d="M1021.84,-285.98C1016.55,-277.23 1008.16,-263.37 1001.47,-252.31"/>
<polygon fill="midnightblue" stroke="midnightblue" points="1004.32,-250.25 996.15,-243.51 998.33,-253.88 1004.32,-250.25"/>
</g>
<!-- Node31&#45;&gt;Node5 -->
<g id="edge55" class="edge">
<title>Node31&#45;&gt;Node5</title>
<path fill="none" stroke="midnightblue" d="M1107.69,-224.44C1076.16,-215.24 1025.87,-200.56 991.01,-190.39"/>
<polygon fill="midnightblue" stroke="midnightblue" points="991.76,-186.96 981.18,-187.52 989.8,-193.68 991.76,-186.96"/>
</g>
<!-- Node31&#45;&gt;Node16 -->
<g id="edge57" class="edge">
<title>Node31&#45;&gt;Node16</title>
<path fill="none" stroke="midnightblue" d="M1117.73,-224.45C1097.88,-215.57 1066.11,-201.17 1039,-188 1021.48,-179.49 1018.56,-173.91 1000,-168 900.45,-136.32 776.03,-126.88 718.25,-124.12"/>
<polygon fill="midnightblue" stroke="midnightblue" points="718.4,-120.62 708.26,-123.67 718.09,-127.61 718.4,-120.62"/>
</g>
<!-- Node31&#45;&gt;Node29 -->
<g id="edge56" class="edge">
<title>Node31&#45;&gt;Node29</title>
<path fill="none" stroke="midnightblue" d="M1146,-224.32C1154.19,-216.42 1166.51,-204.55 1176.47,-194.94"/>
<polygon fill="midnightblue" stroke="midnightblue" points="1179.07,-197.29 1183.84,-187.83 1174.21,-192.26 1179.07,-197.29"/>
</g>
<!-- Node32 -->
<g id="node32" class="node">
<title>Node32</title>
<g id="a_node32"><a xlink:title=" ">
<polygon fill="white" stroke="#bfbfbf" points="1047.5,-168.5 1047.5,-187.5 1118.5,-187.5 1118.5,-168.5 1047.5,-168.5"/>
<text text-anchor="middle" x="1083" y="-175.5" font-family="Helvetica,sans-Serif" font-size="10.00">sys/socket.h</text>
</a>
</g>
</g>
<!-- Node31&#45;&gt;Node32 -->
<g id="edge58" class="edge">
<title>Node31&#45;&gt;Node32</title>
<path fill="none" stroke="midnightblue" d="M1128.08,-224.08C1120.22,-216.22 1108.57,-204.57 1099.08,-195.08"/>
<polygon fill="midnightblue" stroke="midnightblue" points="1101.3,-192.35 1091.75,-187.75 1096.35,-197.3 1101.3,-192.35"/>
</g>
<!-- Node34&#45;&gt;Node3 -->
<g id="edge63" class="edge">
<title>Node34&#45;&gt;Node3</title>
<path fill="none" stroke="midnightblue" d="M465.64,-422.52C487.66,-431.27 519.47,-445.01 541.22,-455.1"/>
<polygon fill="midnightblue" stroke="midnightblue" points="539.9,-458.34 550.44,-459.44 542.89,-452.01 539.9,-458.34"/>
</g>
<!-- Node34&#45;&gt;Node12 -->
<g id="edge61" class="edge">
<title>Node34&#45;&gt;Node12</title>
<path fill="none" stroke="midnightblue" d="M447.26,-403.41C464.36,-380.48 514.27,-317.03 569,-280 680.98,-204.22 835.24,-155.03 909.15,-134.27"/>
<polygon fill="midnightblue" stroke="midnightblue" points="910.33,-137.58 919.03,-131.53 908.46,-130.83 910.33,-137.58"/>
</g>
<!-- Node34&#45;&gt;Node21 -->
<g id="edge62" class="edge">
<title>Node34&#45;&gt;Node21</title>
<path fill="none" stroke="midnightblue" d="M422.94,-403.44C404.43,-394.68 375.42,-380.94 354.14,-370.86"/>
<polygon fill="midnightblue" stroke="midnightblue" points="355.51,-367.63 344.98,-366.52 352.52,-373.96 355.51,-367.63"/>
</g>
<!-- Node35&#45;&gt;Node1 -->
<g id="edge65" class="edge">
<title>Node35&#45;&gt;Node1</title>
<path fill="none" stroke="midnightblue" d="M148.21,-366.56C136.96,-391.93 103.54,-467.35 86.4,-506.04"/>
<polygon fill="midnightblue" stroke="midnightblue" points="83.07,-504.9 82.22,-515.47 89.47,-507.74 83.07,-504.9"/>
</g>
<!-- Node36&#45;&gt;Node35 -->
<g id="edge74" class="edge">
<title>Node36&#45;&gt;Node35</title>
<path fill="none" stroke="midnightblue" d="M221.66,-403.32C208.84,-394.98 189.22,-382.21 174.06,-372.35"/>
<polygon fill="midnightblue" stroke="midnightblue" points="175.59,-369.17 165.3,-366.65 171.78,-375.04 175.59,-369.17"/>
</g>
<!-- Node37 -->
<g id="node37" class="node">
<title>Node37</title>
<g id="a_node37"><a xlink:href="_squad_template_8h.html" target="_top" xlink:title=" ">
<polygon fill="white" stroke="black" points="764,-347.5 764,-366.5 856,-366.5 856,-347.5 764,-347.5"/>
<text text-anchor="middle" x="810" y="-354.5" font-family="Helvetica,sans-Serif" font-size="10.00">SquadTemplate.h</text>
</a>
</g>
</g>
<!-- Node36&#45;&gt;Node37 -->
<g id="edge67" class="edge">
<title>Node36&#45;&gt;Node37</title>
<path fill="none" stroke="midnightblue" d="M289.61,-406.87C398.78,-396.62 642.95,-373.69 753.59,-363.3"/>
<polygon fill="midnightblue" stroke="midnightblue" points="754.24,-366.75 763.87,-362.33 753.58,-359.78 754.24,-366.75"/>
</g>
<!-- Node37&#45;&gt;Node1 -->
<g id="edge69" class="edge">
<title>Node37&#45;&gt;Node1</title>
<path fill="none" stroke="midnightblue" d="M856.03,-358.97C925.19,-361.99 1043.53,-374.22 1001,-423 945.27,-486.92 359.45,-517.61 149.96,-526.59"/>
<polygon fill="midnightblue" stroke="midnightblue" points="149.52,-523.11 139.68,-527.03 149.82,-530.1 149.52,-523.11"/>
</g>
<!-- Node37&#45;&gt;Node16 -->
<g id="edge68" class="edge">
<title>Node37&#45;&gt;Node16</title>
<path fill="none" stroke="midnightblue" d="M804.54,-347.47C789.1,-323.15 744.16,-251.11 713,-188 705.32,-172.44 697.85,-154.14 692.72,-140.92"/>
<polygon fill="midnightblue" stroke="midnightblue" points="695.99,-139.67 689.15,-131.57 689.45,-142.16 695.99,-139.67"/>
</g>
<!-- Node38 -->
<g id="node38" class="node">
<title>Node38</title>
<g id="a_node38"><a xlink:href="_gui_list_8h.html" target="_top" xlink:title=" ">
<polygon fill="white" stroke="black" points="802,-286 802,-305 910,-305 910,-286 802,-286"/>
<text text-anchor="middle" x="856" y="-293" font-family="Helvetica,sans-Serif" font-size="10.00">engine/GUI/GuiList.h</text>
</a>
</g>
</g>
<!-- Node37&#45;&gt;Node38 -->
<g id="edge70" class="edge">
<title>Node37&#45;&gt;Node38</title>
<path fill="none" stroke="midnightblue" d="M816.59,-347.48C823.49,-338.55 834.5,-324.31 843.13,-313.14"/>
<polygon fill="midnightblue" stroke="midnightblue" points="846.07,-315.06 849.42,-305.01 840.54,-310.78 846.07,-315.06"/>
</g>
<!-- Node38&#45;&gt;Node16 -->
<g id="edge73" class="edge">
<title>Node38&#45;&gt;Node16</title>
<path fill="none" stroke="midnightblue" d="M840.33,-285.91C824.4,-276.74 799.51,-261.21 781,-244 745.94,-211.41 713.41,-165.15 697.05,-140.33"/>
<polygon fill="midnightblue" stroke="midnightblue" points="699.8,-138.15 691.42,-131.66 693.93,-141.96 699.8,-138.15"/>
</g>
<!-- Node39 -->
<g id="node39" class="node">
<title>Node39</title>
<g id="a_node39"><a xlink:href="_gui_object_8h.html" target="_top" xlink:title=" ">
<polygon fill="white" stroke="black" points="790,-224.5 790,-243.5 910,-243.5 910,-224.5 790,-224.5"/>
<text text-anchor="middle" x="850" y="-231.5" font-family="Helvetica,sans-Serif" font-size="10.00">engine/GUI/GuiObject.h</text>
</a>
</g>
</g>
<!-- Node38&#45;&gt;Node39 -->
<g id="edge71" class="edge">
<title>Node38&#45;&gt;Node39</title>
<path fill="none" stroke="midnightblue" d="M855.14,-285.98C854.29,-277.58 852.97,-264.48 851.88,-253.66"/>
<polygon fill="midnightblue" stroke="midnightblue" points="855.34,-253.11 850.86,-243.51 848.38,-253.81 855.34,-253.11"/>
</g>
<!-- Node39&#45;&gt;Node5 -->
<g id="edge72" class="edge">
<title>Node39&#45;&gt;Node5</title>
<path fill="none" stroke="midnightblue" d="M866.39,-224.32C882.67,-215.7 907.87,-202.36 926.72,-192.39"/>
<polygon fill="midnightblue" stroke="midnightblue" points="928.45,-195.43 935.65,-187.65 925.18,-189.24 928.45,-195.43"/>
</g>
</g>
</svg>
