<?xml version="1.0" encoding="UTF-8" standalone="no"?>
<!DOCTYPE svg PUBLIC "-//W3C//DTD SVG 1.1//EN"
 "http://www.w3.org/Graphics/SVG/1.1/DTD/svg11.dtd">
<!-- Generated by graphviz version 2.47.0 (20210407.0042)
 -->
<!-- Title: include/GameLogic/Squad/Action.h Pages: 1 -->
<svg width="1366pt" height="575pt"
 viewBox="0.00 0.00 1366.00 575.00" xmlns="http://www.w3.org/2000/svg" xmlns:xlink="http://www.w3.org/1999/xlink">
<g id="graph0" class="graph" transform="scale(1 1) rotate(0) translate(4 571)">
<title>include/GameLogic/Squad/Action.h</title>
<polygon fill="white" stroke="transparent" points="-4,4 -4,-571 1362,-571 1362,4 -4,4"/>
<!-- Node1 -->
<g id="node1" class="node">
<title>Node1</title>
<g id="a_node1"><a xlink:title=" ">
<polygon fill="#bfbfbf" stroke="black" points="397.5,-536.5 397.5,-566.5 528.5,-566.5 528.5,-536.5 397.5,-536.5"/>
<text text-anchor="start" x="405.5" y="-554.5" font-family="Helvetica,sans-Serif" font-size="10.00">include/GameLogic/Squad</text>
<text text-anchor="middle" x="463" y="-543.5" font-family="Helvetica,sans-Serif" font-size="10.00">/Action.h</text>
</a>
</g>
</g>
<!-- Node2 -->
<g id="node2" class="node">
<title>Node2</title>
<g id="a_node2"><a xlink:href="_squad_8h.html" target="_top" xlink:title=" ">
<polygon fill="white" stroke="black" points="397.5,-469.5 397.5,-499.5 528.5,-499.5 528.5,-469.5 397.5,-469.5"/>
<text text-anchor="start" x="405.5" y="-487.5" font-family="Helvetica,sans-Serif" font-size="10.00">include/GameLogic/Squad</text>
<text text-anchor="middle" x="463" y="-476.5" font-family="Helvetica,sans-Serif" font-size="10.00">/Squad.h</text>
</a>
</g>
</g>
<!-- Node1&#45;&gt;Node2 -->
<g id="edge1" class="edge">
<title>Node1&#45;&gt;Node2</title>
<path fill="none" stroke="midnightblue" d="M456.45,-526.4C456.01,-517.37 456.3,-507.41 457.33,-499.58"/>
<polygon fill="midnightblue" stroke="midnightblue" points="452.97,-526.74 457.32,-536.4 459.94,-526.13 452.97,-526.74"/>
</g>
<!-- Node2&#45;&gt;Node1 -->
<g id="edge32" class="edge">
<title>Node2&#45;&gt;Node1</title>
<path fill="none" stroke="midnightblue" d="M469.54,-509.57C469.99,-518.6 469.71,-528.56 468.68,-536.4"/>
<polygon fill="midnightblue" stroke="midnightblue" points="473.03,-509.24 468.67,-499.58 466.05,-509.84 473.03,-509.24"/>
</g>
<!-- Node3 -->
<g id="node3" class="node">
<title>Node3</title>
<g id="a_node3"><a xlink:href="_squad_8cpp.html" target="_top" xlink:title=" ">
<polygon fill="white" stroke="black" points="84,-201.5 84,-231.5 198,-231.5 198,-201.5 84,-201.5"/>
<text text-anchor="start" x="92" y="-219.5" font-family="Helvetica,sans-Serif" font-size="10.00">src/GameLogic/Squad</text>
<text text-anchor="middle" x="141" y="-208.5" font-family="Helvetica,sans-Serif" font-size="10.00">/Squad.cpp</text>
</a>
</g>
</g>
<!-- Node2&#45;&gt;Node3 -->
<g id="edge2" class="edge">
<title>Node2&#45;&gt;Node3</title>
<path fill="none" stroke="midnightblue" d="M425.16,-464.81C368.69,-435.52 261.41,-374.29 190,-299 170.57,-278.52 155.24,-249.03 147.19,-231.71"/>
<polygon fill="midnightblue" stroke="midnightblue" points="423.6,-467.95 434.1,-469.4 426.8,-461.72 423.6,-467.95"/>
</g>
<!-- Node4 -->
<g id="node4" class="node">
<title>Node4</title>
<g id="a_node4"><a xlink:href="_set_squad_path_8h.html" target="_top" xlink:title=" ">
<polygon fill="white" stroke="black" points="299.5,-67.5 299.5,-97.5 412.5,-97.5 412.5,-67.5 299.5,-67.5"/>
<text text-anchor="start" x="307.5" y="-85.5" font-family="Helvetica,sans-Serif" font-size="10.00">include/engine/actions</text>
<text text-anchor="middle" x="356" y="-74.5" font-family="Helvetica,sans-Serif" font-size="10.00">/SetSquadPath.h</text>
</a>
</g>
</g>
<!-- Node2&#45;&gt;Node4 -->
<g id="edge3" class="edge">
<title>Node2&#45;&gt;Node4</title>
<path fill="none" stroke="midnightblue" d="M538.82,-479.75C748.38,-468.39 1320,-430.19 1320,-351.5 1320,-351.5 1320,-351.5 1320,-215.5 1320,-123.33 619.34,-92.38 412.7,-85.25"/>
<polygon fill="midnightblue" stroke="midnightblue" points="538.62,-476.26 528.82,-480.29 539,-483.25 538.62,-476.26"/>
</g>
<!-- Node7 -->
<g id="node7" class="node">
<title>Node7</title>
<g id="a_node7"><a xlink:href="_cell_8h.html" target="_top" xlink:title=" ">
<polygon fill="white" stroke="black" points="181,-140 181,-159 309,-159 309,-140 181,-140"/>
<text text-anchor="middle" x="245" y="-147" font-family="Helvetica,sans-Serif" font-size="10.00">include/GameLogic/Cell.h</text>
</a>
</g>
</g>
<!-- Node2&#45;&gt;Node7 -->
<g id="edge31" class="edge">
<title>Node2&#45;&gt;Node7</title>
<path fill="none" stroke="midnightblue" d="M387.41,-475.86C265.18,-461 38,-423.17 38,-351.5 38,-351.5 38,-351.5 38,-282.5 38,-244.2 38.35,-227.51 66,-201 96.34,-171.92 142.65,-159.49 180.65,-154.23"/>
<polygon fill="midnightblue" stroke="midnightblue" points="387.11,-479.35 397.46,-477.06 387.94,-472.4 387.11,-479.35"/>
</g>
<!-- Node20 -->
<g id="node20" class="node">
<title>Node20</title>
<g id="a_node20"><a xlink:href="pathfinding_8h.html" target="_top" xlink:title=" ">
<polygon fill="white" stroke="black" points="924,-73 924,-92 1044,-92 1044,-73 924,-73"/>
<text text-anchor="middle" x="984" y="-80" font-family="Helvetica,sans-Serif" font-size="10.00">include/util/pathfinding.h</text>
</a>
</g>
</g>
<!-- Node2&#45;&gt;Node20 -->
<g id="edge47" class="edge">
<title>Node2&#45;&gt;Node20</title>
<path fill="none" stroke="midnightblue" d="M538.82,-481.3C696.72,-476.2 1056.03,-461.75 1175,-433 1261.54,-412.09 1358,-440.53 1358,-351.5 1358,-351.5 1358,-351.5 1358,-215.5 1358,-149.74 1149.81,-108.63 1044.09,-91.99"/>
<polygon fill="midnightblue" stroke="midnightblue" points="538.6,-477.8 528.72,-481.62 538.82,-484.8 538.6,-477.8"/>
</g>
<!-- Node23 -->
<g id="node23" class="node">
<title>Node23</title>
<g id="a_node23"><a xlink:href="_unit_8h.html" target="_top" xlink:title=" ">
<polygon fill="white" stroke="black" points="790.5,-402.5 790.5,-432.5 917.5,-432.5 917.5,-402.5 790.5,-402.5"/>
<text text-anchor="start" x="798.5" y="-420.5" font-family="Helvetica,sans-Serif" font-size="10.00">include/GameLogic/Units</text>
<text text-anchor="middle" x="854" y="-409.5" font-family="Helvetica,sans-Serif" font-size="10.00">/Unit.h</text>
</a>
</g>
</g>
<!-- Node2&#45;&gt;Node23 -->
<g id="edge33" class="edge">
<title>Node2&#45;&gt;Node23</title>
<path fill="none" stroke="midnightblue" d="M538.99,-469.94C612.2,-457.48 721.6,-439.33 790.36,-428.25"/>
<polygon fill="midnightblue" stroke="midnightblue" points="538.18,-466.52 528.91,-471.65 539.35,-473.42 538.18,-466.52"/>
</g>
<!-- Node5 -->
<g id="node5" class="node">
<title>Node5</title>
<g id="a_node5"><a xlink:href="engine_2_action_8cpp.html" target="_top" xlink:title=" ">
<polygon fill="white" stroke="black" points="239,-6 239,-25 349,-25 349,-6 239,-6"/>
<text text-anchor="middle" x="294" y="-13" font-family="Helvetica,sans-Serif" font-size="10.00">src/engine/Action.cpp</text>
</a>
</g>
</g>
<!-- Node4&#45;&gt;Node5 -->
<g id="edge4" class="edge">
<title>Node4&#45;&gt;Node5</title>
<path fill="none" stroke="midnightblue" d="M335.49,-60C324.17,-48.13 310.74,-34.05 302.29,-25.19"/>
<polygon fill="midnightblue" stroke="midnightblue" points="333.11,-62.58 342.55,-67.4 338.18,-57.74 333.11,-62.58"/>
</g>
<!-- Node6 -->
<g id="node6" class="node">
<title>Node6</title>
<g id="a_node6"><a xlink:href="_set_squad_path_8cpp.html" target="_top" xlink:title=" ">
<polygon fill="white" stroke="black" points="367.5,-0.5 367.5,-30.5 468.5,-30.5 468.5,-0.5 367.5,-0.5"/>
<text text-anchor="start" x="375.5" y="-18.5" font-family="Helvetica,sans-Serif" font-size="10.00">src/engine/actions</text>
<text text-anchor="middle" x="418" y="-7.5" font-family="Helvetica,sans-Serif" font-size="10.00">/SetSquadPath.cpp</text>
</a>
</g>
</g>
<!-- Node4&#45;&gt;Node6 -->
<g id="edge5" class="edge">
<title>Node4&#45;&gt;Node6</title>
<path fill="none" stroke="midnightblue" d="M376.48,-60.02C385.72,-50.34 396.37,-39.17 404.57,-30.58"/>
<polygon fill="midnightblue" stroke="midnightblue" points="373.82,-57.74 369.45,-67.4 378.89,-62.58 373.82,-57.74"/>
</g>
<!-- Node4&#45;&gt;Node7 -->
<g id="edge6" class="edge">
<title>Node4&#45;&gt;Node7</title>
<path fill="none" stroke="midnightblue" d="M328.87,-103.05C308.92,-115.32 282.45,-130.52 264.5,-139.87"/>
<polygon fill="midnightblue" stroke="midnightblue" points="330.89,-105.91 337.52,-97.65 327.18,-99.97 330.89,-105.91"/>
</g>
<!-- Node7&#45;&gt;Node1 -->
<g id="edge10" class="edge">
<title>Node7&#45;&gt;Node1</title>
<path fill="none" stroke="midnightblue" d="M170.88,-156.06C131.5,-162.16 84.11,-174.81 49,-201 15.12,-226.27 0,-240.24 0,-282.5 0,-418.5 0,-418.5 0,-418.5 0,-500.1 269.33,-534.01 397.16,-545.51"/>
<polygon fill="midnightblue" stroke="midnightblue" points="171.57,-159.5 180.97,-154.61 170.58,-152.57 171.57,-159.5"/>
</g>
<!-- Node7&#45;&gt;Node2 -->
<g id="edge11" class="edge">
<title>Node7&#45;&gt;Node2</title>
<path fill="none" stroke="midnightblue" d="M170.56,-159.02C140.48,-165.98 107.46,-178.51 84,-201 56.35,-227.51 56,-244.2 56,-282.5 56,-351.5 56,-351.5 56,-351.5 56,-423.01 282.15,-460.83 397.35,-475.76"/>
<polygon fill="midnightblue" stroke="midnightblue" points="171.58,-162.38 180.63,-156.87 170.11,-155.53 171.58,-162.38"/>
</g>
<!-- Node7&#45;&gt;Node4 -->
<g id="edge9" class="edge">
<title>Node7&#45;&gt;Node4</title>
<path fill="none" stroke="midnightblue" d="M263.79,-134.15C280.97,-123.27 306.38,-108.4 326.26,-97.59"/>
<polygon fill="midnightblue" stroke="midnightblue" points="261.67,-131.36 255.18,-139.73 265.48,-137.23 261.67,-131.36"/>
</g>
<!-- Node8 -->
<g id="node8" class="node">
<title>Node8</title>
<g id="a_node8"><a xlink:href="_cell_8cpp.html" target="_top" xlink:title=" ">
<polygon fill="white" stroke="black" points="69.5,-73 69.5,-92 190.5,-92 190.5,-73 69.5,-73"/>
<text text-anchor="middle" x="130" y="-80" font-family="Helvetica,sans-Serif" font-size="10.00">src/GameLogic/Cell.cpp</text>
</a>
</g>
</g>
<!-- Node7&#45;&gt;Node8 -->
<g id="edge7" class="edge">
<title>Node7&#45;&gt;Node8</title>
<path fill="none" stroke="midnightblue" d="M220.74,-134.79C197.95,-121.9 164.54,-103.02 145.26,-92.13"/>
<polygon fill="midnightblue" stroke="midnightblue" points="219.06,-137.86 229.49,-139.73 222.51,-131.77 219.06,-137.86"/>
</g>
<!-- Node9 -->
<g id="node9" class="node">
<title>Node9</title>
<g id="a_node9"><a xlink:href="main_8cpp.html" target="_top" xlink:title=" ">
<polygon fill="white" stroke="black" points="209,-73 209,-92 281,-92 281,-73 209,-73"/>
<text text-anchor="middle" x="245" y="-80" font-family="Helvetica,sans-Serif" font-size="10.00">src/main.cpp</text>
</a>
</g>
</g>
<!-- Node7&#45;&gt;Node9 -->
<g id="edge8" class="edge">
<title>Node7&#45;&gt;Node9</title>
<path fill="none" stroke="midnightblue" d="M245,-129.54C245,-117.17 245,-101.62 245,-92.13"/>
<polygon fill="midnightblue" stroke="midnightblue" points="241.5,-129.73 245,-139.73 248.5,-129.73 241.5,-129.73"/>
</g>
<!-- Node10 -->
<g id="node10" class="node">
<title>Node10</title>
<g id="a_node10"><a xlink:href="_factory_8h.html" target="_top" xlink:title=" ">
<polygon fill="white" stroke="black" points="423.5,-335.5 423.5,-365.5 550.5,-365.5 550.5,-335.5 423.5,-335.5"/>
<text text-anchor="start" x="431.5" y="-353.5" font-family="Helvetica,sans-Serif" font-size="10.00">include/GameLogic/Units</text>
<text text-anchor="middle" x="487" y="-342.5" font-family="Helvetica,sans-Serif" font-size="10.00">/Factory.h</text>
</a>
</g>
</g>
<!-- Node7&#45;&gt;Node10 -->
<g id="edge12" class="edge">
<title>Node7&#45;&gt;Node10</title>
<path fill="none" stroke="midnightblue" d="M235.39,-168.28C223.84,-190.75 205.13,-230.96 198,-268 195.39,-281.53 189.14,-288.45 198,-299 226.18,-332.53 346.95,-343.8 423.18,-347.59"/>
<polygon fill="midnightblue" stroke="midnightblue" points="238.56,-169.76 240.12,-159.28 232.37,-166.5 238.56,-169.76"/>
</g>
<!-- Node7&#45;&gt;Node20 -->
<g id="edge28" class="edge">
<title>Node7&#45;&gt;Node20</title>
<path fill="none" stroke="midnightblue" d="M319.54,-141.94C466.17,-129.05 789.52,-100.61 923.76,-88.8"/>
<polygon fill="midnightblue" stroke="midnightblue" points="318.94,-138.48 309.29,-142.85 319.56,-145.46 318.94,-138.48"/>
</g>
<!-- Node11 -->
<g id="node11" class="node">
<title>Node11</title>
<g id="a_node11"><a xlink:href="_factory_8cpp.html" target="_top" xlink:title=" ">
<polygon fill="white" stroke="black" points="502,-268.5 502,-298.5 612,-298.5 612,-268.5 502,-268.5"/>
<text text-anchor="start" x="510" y="-286.5" font-family="Helvetica,sans-Serif" font-size="10.00">src/GameLogic/Units</text>
<text text-anchor="middle" x="557" y="-275.5" font-family="Helvetica,sans-Serif" font-size="10.00">/Factory.cpp</text>
</a>
</g>
</g>
<!-- Node10&#45;&gt;Node11 -->
<g id="edge13" class="edge">
<title>Node10&#45;&gt;Node11</title>
<path fill="none" stroke="midnightblue" d="M509.82,-328.31C520.32,-318.56 532.49,-307.26 541.84,-298.58"/>
<polygon fill="midnightblue" stroke="midnightblue" points="507.14,-326.03 502.19,-335.4 511.9,-331.16 507.14,-326.03"/>
</g>
<!-- Node12 -->
<g id="node12" class="node">
<title>Node12</title>
<g id="a_node12"><a xlink:href="_squad_template_8h.html" target="_top" xlink:title=" ">
<polygon fill="white" stroke="black" points="352.5,-268.5 352.5,-298.5 483.5,-298.5 483.5,-268.5 352.5,-268.5"/>
<text text-anchor="start" x="360.5" y="-286.5" font-family="Helvetica,sans-Serif" font-size="10.00">include/GameLogic/Squad</text>
<text text-anchor="middle" x="418" y="-275.5" font-family="Helvetica,sans-Serif" font-size="10.00">/SquadTemplate.h</text>
</a>
</g>
</g>
<!-- Node10&#45;&gt;Node12 -->
<g id="edge14" class="edge">
<title>Node10&#45;&gt;Node12</title>
<path fill="none" stroke="midnightblue" d="M464.51,-328.31C454.16,-318.56 442.16,-307.26 432.94,-298.58"/>
<polygon fill="midnightblue" stroke="midnightblue" points="462.35,-331.09 472.03,-335.4 467.15,-325.99 462.35,-331.09"/>
</g>
<!-- Node16 -->
<g id="node16" class="node">
<title>Node16</title>
<g id="a_node16"><a xlink:href="_all_units_8h.html" target="_top" xlink:title=" ">
<polygon fill="white" stroke="black" points="207.5,-268.5 207.5,-298.5 334.5,-298.5 334.5,-268.5 207.5,-268.5"/>
<text text-anchor="start" x="215.5" y="-286.5" font-family="Helvetica,sans-Serif" font-size="10.00">include/GameLogic/Units</text>
<text text-anchor="middle" x="271" y="-275.5" font-family="Helvetica,sans-Serif" font-size="10.00">/AllUnits.h</text>
</a>
</g>
</g>
<!-- Node10&#45;&gt;Node16 -->
<g id="edge19" class="edge">
<title>Node10&#45;&gt;Node16</title>
<path fill="none" stroke="midnightblue" d="M430.77,-332.58C395.69,-322.02 351.06,-308.59 317.89,-298.61"/>
<polygon fill="midnightblue" stroke="midnightblue" points="429.81,-335.95 440.4,-335.48 431.83,-329.24 429.81,-335.95"/>
</g>
<!-- Node18 -->
<g id="node18" class="node">
<title>Node18</title>
<g id="a_node18"><a xlink:href="_land_unit_factory_8h.html" target="_top" xlink:title=" ">
<polygon fill="white" stroke="black" points="630.5,-268.5 630.5,-298.5 757.5,-298.5 757.5,-268.5 630.5,-268.5"/>
<text text-anchor="start" x="638.5" y="-286.5" font-family="Helvetica,sans-Serif" font-size="10.00">include/GameLogic/Units</text>
<text text-anchor="middle" x="694" y="-275.5" font-family="Helvetica,sans-Serif" font-size="10.00">/LandUnitFactory.h</text>
</a>
</g>
</g>
<!-- Node10&#45;&gt;Node18 -->
<g id="edge25" class="edge">
<title>Node10&#45;&gt;Node18</title>
<path fill="none" stroke="midnightblue" d="M541.32,-332.44C574.87,-321.91 617.41,-308.55 649.06,-298.61"/>
<polygon fill="midnightblue" stroke="midnightblue" points="540.15,-329.14 531.66,-335.48 542.25,-335.82 540.15,-329.14"/>
</g>
<!-- Node13 -->
<g id="node13" class="node">
<title>Node13</title>
<g id="a_node13"><a xlink:href="_squad_template_8cpp.html" target="_top" xlink:title=" ">
<polygon fill="white" stroke="black" points="292,-201.5 292,-231.5 406,-231.5 406,-201.5 292,-201.5"/>
<text text-anchor="start" x="300" y="-219.5" font-family="Helvetica,sans-Serif" font-size="10.00">src/GameLogic/Squad</text>
<text text-anchor="middle" x="349" y="-208.5" font-family="Helvetica,sans-Serif" font-size="10.00">/SquadTemplate.cpp</text>
</a>
</g>
</g>
<!-- Node12&#45;&gt;Node13 -->
<g id="edge15" class="edge">
<title>Node12&#45;&gt;Node13</title>
<path fill="none" stroke="midnightblue" d="M395.51,-261.31C385.16,-251.56 373.16,-240.26 363.94,-231.58"/>
<polygon fill="midnightblue" stroke="midnightblue" points="393.35,-264.09 403.03,-268.4 398.15,-258.99 393.35,-264.09"/>
</g>
<!-- Node14 -->
<g id="node14" class="node">
<title>Node14</title>
<g id="a_node14"><a xlink:href="_all_squad_templates_8h.html" target="_top" xlink:title=" ">
<polygon fill="white" stroke="black" points="424.5,-201.5 424.5,-231.5 555.5,-231.5 555.5,-201.5 424.5,-201.5"/>
<text text-anchor="start" x="432.5" y="-219.5" font-family="Helvetica,sans-Serif" font-size="10.00">include/GameLogic/Squad</text>
<text text-anchor="middle" x="490" y="-208.5" font-family="Helvetica,sans-Serif" font-size="10.00">/AllSquadTemplates.h</text>
</a>
</g>
</g>
<!-- Node12&#45;&gt;Node14 -->
<g id="edge16" class="edge">
<title>Node12&#45;&gt;Node14</title>
<path fill="none" stroke="midnightblue" d="M441.15,-261.6C452.02,-251.78 464.7,-240.34 474.41,-231.58"/>
<polygon fill="midnightblue" stroke="midnightblue" points="438.7,-259.1 433.62,-268.4 443.39,-264.29 438.7,-259.1"/>
</g>
<!-- Node14&#45;&gt;Node7 -->
<g id="edge18" class="edge">
<title>Node14&#45;&gt;Node7</title>
<path fill="none" stroke="midnightblue" d="M427.47,-198.91C379.49,-186.18 315.21,-169.13 277.15,-159.03"/>
<polygon fill="midnightblue" stroke="midnightblue" points="426.58,-202.29 437.14,-201.48 428.37,-195.53 426.58,-202.29"/>
</g>
<!-- Node15 -->
<g id="node15" class="node">
<title>Node15</title>
<g id="a_node15"><a xlink:href="_all_squad_templates_8cpp.html" target="_top" xlink:title=" ">
<polygon fill="white" stroke="black" points="429,-134.5 429,-164.5 551,-164.5 551,-134.5 429,-134.5"/>
<text text-anchor="start" x="437" y="-152.5" font-family="Helvetica,sans-Serif" font-size="10.00">src/GameLogic/Squad</text>
<text text-anchor="middle" x="490" y="-141.5" font-family="Helvetica,sans-Serif" font-size="10.00">/AllSquadTemplates.cpp</text>
</a>
</g>
</g>
<!-- Node14&#45;&gt;Node15 -->
<g id="edge17" class="edge">
<title>Node14&#45;&gt;Node15</title>
<path fill="none" stroke="midnightblue" d="M490,-191.11C490,-182.15 490,-172.32 490,-164.58"/>
<polygon fill="midnightblue" stroke="midnightblue" points="486.5,-191.4 490,-201.4 493.5,-191.4 486.5,-191.4"/>
</g>
<!-- Node16&#45;&gt;Node3 -->
<g id="edge20" class="edge">
<title>Node16&#45;&gt;Node3</title>
<path fill="none" stroke="midnightblue" d="M233.71,-263.85C213.15,-253.58 188.05,-241.03 169.15,-231.58"/>
<polygon fill="midnightblue" stroke="midnightblue" points="232.28,-267.05 242.79,-268.4 235.41,-260.79 232.28,-267.05"/>
</g>
<!-- Node16&#45;&gt;Node7 -->
<g id="edge23" class="edge">
<title>Node16&#45;&gt;Node7</title>
<path fill="none" stroke="midnightblue" d="M266.24,-258.32C260.34,-228.38 250.6,-178.91 246.69,-159.1"/>
<polygon fill="midnightblue" stroke="midnightblue" points="262.85,-259.24 268.22,-268.37 269.72,-257.89 262.85,-259.24"/>
</g>
<!-- Node16&#45;&gt;Node13 -->
<g id="edge21" class="edge">
<title>Node16&#45;&gt;Node13</title>
<path fill="none" stroke="midnightblue" d="M295.74,-261.88C307.59,-252.01 321.48,-240.43 332.11,-231.58"/>
<polygon fill="midnightblue" stroke="midnightblue" points="293.37,-259.31 287.92,-268.4 297.85,-264.68 293.37,-259.31"/>
</g>
<!-- Node16&#45;&gt;Node14 -->
<g id="edge24" class="edge">
<title>Node16&#45;&gt;Node14</title>
<path fill="none" stroke="midnightblue" d="M328.01,-265.58C363.58,-255.02 408.83,-241.59 442.46,-231.61"/>
<polygon fill="midnightblue" stroke="midnightblue" points="326.84,-262.28 318.25,-268.48 328.83,-268.99 326.84,-262.28"/>
</g>
<!-- Node17 -->
<g id="node17" class="node">
<title>Node17</title>
<g id="a_node17"><a xlink:href="_all_units_8cpp.html" target="_top" xlink:title=" ">
<polygon fill="white" stroke="black" points="574,-201.5 574,-231.5 684,-231.5 684,-201.5 574,-201.5"/>
<text text-anchor="start" x="582" y="-219.5" font-family="Helvetica,sans-Serif" font-size="10.00">src/GameLogic/Units</text>
<text text-anchor="middle" x="629" y="-208.5" font-family="Helvetica,sans-Serif" font-size="10.00">/AllUnits.cpp</text>
</a>
</g>
</g>
<!-- Node16&#45;&gt;Node17 -->
<g id="edge22" class="edge">
<title>Node16&#45;&gt;Node17</title>
<path fill="none" stroke="midnightblue" d="M344.61,-267.75C442.62,-250.2 469.43,-250.23 564,-232 567.18,-231.39 570.44,-230.73 573.73,-230.06"/>
<polygon fill="midnightblue" stroke="midnightblue" points="343.8,-264.34 334.58,-269.56 345.04,-271.23 343.8,-264.34"/>
</g>
<!-- Node18&#45;&gt;Node17 -->
<g id="edge26" class="edge">
<title>Node18&#45;&gt;Node17</title>
<path fill="none" stroke="midnightblue" d="M672.81,-261.31C663.06,-251.56 651.76,-240.26 643.08,-231.58"/>
<polygon fill="midnightblue" stroke="midnightblue" points="670.35,-263.8 679.9,-268.4 675.3,-258.85 670.35,-263.8"/>
</g>
<!-- Node19 -->
<g id="node19" class="node">
<title>Node19</title>
<g id="a_node19"><a xlink:href="_land_unit_factory_8cpp.html" target="_top" xlink:title=" ">
<polygon fill="white" stroke="black" points="702,-201.5 702,-231.5 812,-231.5 812,-201.5 702,-201.5"/>
<text text-anchor="start" x="710" y="-219.5" font-family="Helvetica,sans-Serif" font-size="10.00">src/GameLogic/Units</text>
<text text-anchor="middle" x="757" y="-208.5" font-family="Helvetica,sans-Serif" font-size="10.00">/LandUnitFactory.cpp</text>
</a>
</g>
</g>
<!-- Node18&#45;&gt;Node19 -->
<g id="edge27" class="edge">
<title>Node18&#45;&gt;Node19</title>
<path fill="none" stroke="midnightblue" d="M714.81,-261.02C724.2,-251.34 735.02,-240.17 743.36,-231.58"/>
<polygon fill="midnightblue" stroke="midnightblue" points="712.12,-258.78 707.67,-268.4 717.14,-263.65 712.12,-258.78"/>
</g>
<!-- Node21 -->
<g id="node21" class="node">
<title>Node21</title>
<g id="a_node21"><a xlink:href="_game_logic_2_squad_2_action_8cpp.html" target="_top" xlink:title=" ">
<polygon fill="white" stroke="black" points="861,-0.5 861,-30.5 975,-30.5 975,-0.5 861,-0.5"/>
<text text-anchor="start" x="869" y="-18.5" font-family="Helvetica,sans-Serif" font-size="10.00">src/GameLogic/Squad</text>
<text text-anchor="middle" x="918" y="-7.5" font-family="Helvetica,sans-Serif" font-size="10.00">/Action.cpp</text>
</a>
</g>
</g>
<!-- Node20&#45;&gt;Node21 -->
<g id="edge29" class="edge">
<title>Node20&#45;&gt;Node21</title>
<path fill="none" stroke="midnightblue" d="M967.87,-65.62C957,-54.91 942.78,-40.9 932.31,-30.59"/>
<polygon fill="midnightblue" stroke="midnightblue" points="965.52,-68.21 975.1,-72.73 970.43,-63.22 965.52,-68.21"/>
</g>
<!-- Node22 -->
<g id="node22" class="node">
<title>Node22</title>
<g id="a_node22"><a xlink:href="pathfinding_8cpp.html" target="_top" xlink:title=" ">
<polygon fill="white" stroke="black" points="993.5,-6 993.5,-25 1106.5,-25 1106.5,-6 993.5,-6"/>
<text text-anchor="middle" x="1050" y="-13" font-family="Helvetica,sans-Serif" font-size="10.00">src/util/pathfinding.cpp</text>
</a>
</g>
</g>
<!-- Node20&#45;&gt;Node22 -->
<g id="edge30" class="edge">
<title>Node20&#45;&gt;Node22</title>
<path fill="none" stroke="midnightblue" d="M1000.25,-65.5C1013.19,-52.75 1030.81,-35.39 1041.24,-25.13"/>
<polygon fill="midnightblue" stroke="midnightblue" points="997.57,-63.22 992.9,-72.73 1002.48,-68.21 997.57,-63.22"/>
</g>
<!-- Node23&#45;&gt;Node2 -->
<g id="edge35" class="edge">
<title>Node23&#45;&gt;Node2</title>
<path fill="none" stroke="midnightblue" d="M780.27,-431.68C707.79,-444.02 598.3,-462.19 528.71,-473.42"/>
<polygon fill="midnightblue" stroke="midnightblue" points="780.97,-435.11 790.24,-429.98 779.8,-428.21 780.97,-435.11"/>
</g>
<!-- Node23&#45;&gt;Node10 -->
<g id="edge38" class="edge">
<title>Node23&#45;&gt;Node10</title>
<path fill="none" stroke="midnightblue" d="M780.39,-403.46C713.1,-391.55 614.61,-374.1 550.65,-362.77"/>
<polygon fill="midnightblue" stroke="midnightblue" points="780.04,-406.95 790.49,-405.25 781.26,-400.06 780.04,-406.95"/>
</g>
<!-- Node24 -->
<g id="node24" class="node">
<title>Node24</title>
<g id="a_node24"><a xlink:href="_unit_8cpp.html" target="_top" xlink:title=" ">
<polygon fill="white" stroke="black" points="1182,-268.5 1182,-298.5 1292,-298.5 1292,-268.5 1182,-268.5"/>
<text text-anchor="start" x="1190" y="-286.5" font-family="Helvetica,sans-Serif" font-size="10.00">src/GameLogic/Units</text>
<text text-anchor="middle" x="1237" y="-275.5" font-family="Helvetica,sans-Serif" font-size="10.00">/Unit.cpp</text>
</a>
</g>
</g>
<!-- Node23&#45;&gt;Node24 -->
<g id="edge34" class="edge">
<title>Node23&#45;&gt;Node24</title>
<path fill="none" stroke="midnightblue" d="M927.78,-402.61C968.53,-393.99 1019.72,-381.57 1064,-366 1118.18,-346.95 1178.14,-316.43 1211.32,-298.64"/>
<polygon fill="midnightblue" stroke="midnightblue" points="927,-399.2 917.92,-404.67 928.43,-406.05 927,-399.2"/>
</g>
<!-- Node25 -->
<g id="node25" class="node">
<title>Node25</title>
<g id="a_node25"><a xlink:href="_squad_order_8h.html" target="_top" xlink:title=" ">
<polygon fill="white" stroke="black" points="904.5,-268.5 904.5,-298.5 1035.5,-298.5 1035.5,-268.5 904.5,-268.5"/>
<text text-anchor="start" x="912.5" y="-286.5" font-family="Helvetica,sans-Serif" font-size="10.00">include/GameLogic/Squad</text>
<text text-anchor="middle" x="970" y="-275.5" font-family="Helvetica,sans-Serif" font-size="10.00">/SquadOrder.h</text>
</a>
</g>
</g>
<!-- Node23&#45;&gt;Node25 -->
<g id="edge36" class="edge">
<title>Node23&#45;&gt;Node25</title>
<path fill="none" stroke="midnightblue" d="M870.69,-394.16C883.44,-377.45 901.7,-354.26 919,-335 930.49,-322.21 944.41,-308.53 954.81,-298.64"/>
<polygon fill="midnightblue" stroke="midnightblue" points="867.81,-392.16 864.56,-402.25 873.39,-396.39 867.81,-392.16"/>
</g>
<!-- Node27 -->
<g id="node27" class="node">
<title>Node27</title>
<g id="a_node27"><a xlink:href="_land_unit_8h.html" target="_top" xlink:title=" ">
<polygon fill="white" stroke="black" points="744.5,-335.5 744.5,-365.5 871.5,-365.5 871.5,-335.5 744.5,-335.5"/>
<text text-anchor="start" x="752.5" y="-353.5" font-family="Helvetica,sans-Serif" font-size="10.00">include/GameLogic/Units</text>
<text text-anchor="middle" x="808" y="-342.5" font-family="Helvetica,sans-Serif" font-size="10.00">/LandUnit.h</text>
</a>
</g>
</g>
<!-- Node23&#45;&gt;Node27 -->
<g id="edge39" class="edge">
<title>Node23&#45;&gt;Node27</title>
<path fill="none" stroke="midnightblue" d="M838.19,-394.16C831.48,-384.68 823.87,-373.92 817.96,-365.58"/>
<polygon fill="midnightblue" stroke="midnightblue" points="835.38,-396.26 844.02,-402.4 841.1,-392.21 835.38,-396.26"/>
</g>
<!-- Node29 -->
<g id="node29" class="node">
<title>Node29</title>
<g id="a_node29"><a xlink:href="_unit_order_8h.html" target="_top" xlink:title=" ">
<polygon fill="white" stroke="black" points="928.5,-335.5 928.5,-365.5 1055.5,-365.5 1055.5,-335.5 928.5,-335.5"/>
<text text-anchor="start" x="936.5" y="-353.5" font-family="Helvetica,sans-Serif" font-size="10.00">include/GameLogic/Units</text>
<text text-anchor="middle" x="992" y="-342.5" font-family="Helvetica,sans-Serif" font-size="10.00">/UnitOrder.h</text>
</a>
</g>
</g>
<!-- Node23&#45;&gt;Node29 -->
<g id="edge42" class="edge">
<title>Node23&#45;&gt;Node29</title>
<path fill="none" stroke="midnightblue" d="M887.42,-397.85C908.32,-387.58 935.14,-375.03 956.44,-365.58"/>
<polygon fill="midnightblue" stroke="midnightblue" points="885.67,-394.81 878.27,-402.4 888.78,-401.08 885.67,-394.81"/>
</g>
<!-- Node26 -->
<g id="node26" class="node">
<title>Node26</title>
<g id="a_node26"><a xlink:href="_squad_order_8cpp.html" target="_top" xlink:title=" ">
<polygon fill="white" stroke="black" points="913,-201.5 913,-231.5 1027,-231.5 1027,-201.5 913,-201.5"/>
<text text-anchor="start" x="921" y="-219.5" font-family="Helvetica,sans-Serif" font-size="10.00">src/GameLogic/Squad</text>
<text text-anchor="middle" x="970" y="-208.5" font-family="Helvetica,sans-Serif" font-size="10.00">/SquadOrder.cpp</text>
</a>
</g>
</g>
<!-- Node25&#45;&gt;Node26 -->
<g id="edge37" class="edge">
<title>Node25&#45;&gt;Node26</title>
<path fill="none" stroke="midnightblue" d="M970,-258.11C970,-249.15 970,-239.32 970,-231.58"/>
<polygon fill="midnightblue" stroke="midnightblue" points="966.5,-258.4 970,-268.4 973.5,-258.4 966.5,-258.4"/>
</g>
<!-- Node27&#45;&gt;Node18 -->
<g id="edge41" class="edge">
<title>Node27&#45;&gt;Node18</title>
<path fill="none" stroke="midnightblue" d="M774.32,-330.3C756.48,-320.12 734.96,-307.85 718.69,-298.58"/>
<polygon fill="midnightblue" stroke="midnightblue" points="772.84,-333.48 783.26,-335.4 776.31,-327.4 772.84,-333.48"/>
</g>
<!-- Node28 -->
<g id="node28" class="node">
<title>Node28</title>
<g id="a_node28"><a xlink:href="_land_unit_8cpp.html" target="_top" xlink:title=" ">
<polygon fill="white" stroke="black" points="776,-268.5 776,-298.5 886,-298.5 886,-268.5 776,-268.5"/>
<text text-anchor="start" x="784" y="-286.5" font-family="Helvetica,sans-Serif" font-size="10.00">src/GameLogic/Units</text>
<text text-anchor="middle" x="831" y="-275.5" font-family="Helvetica,sans-Serif" font-size="10.00">/LandUnit.cpp</text>
</a>
</g>
</g>
<!-- Node27&#45;&gt;Node28 -->
<g id="edge40" class="edge">
<title>Node27&#45;&gt;Node28</title>
<path fill="none" stroke="midnightblue" d="M816.42,-325.7C819.65,-316.59 823.22,-306.49 826.02,-298.58"/>
<polygon fill="midnightblue" stroke="midnightblue" points="813.03,-324.8 812.99,-335.4 819.63,-327.14 813.03,-324.8"/>
</g>
<!-- Node29&#45;&gt;Node23 -->
<g id="edge46" class="edge">
<title>Node29&#45;&gt;Node23</title>
<path fill="none" stroke="midnightblue" d="M958.64,-370.12C937.75,-380.39 910.94,-392.94 889.62,-402.4"/>
<polygon fill="midnightblue" stroke="midnightblue" points="960.39,-373.16 967.79,-365.58 957.28,-366.89 960.39,-373.16"/>
</g>
<!-- Node29&#45;&gt;Node24 -->
<g id="edge43" class="edge">
<title>Node29&#45;&gt;Node24</title>
<path fill="none" stroke="midnightblue" d="M1054.76,-332.85C1094.7,-322.25 1145.87,-308.68 1183.81,-298.61"/>
<polygon fill="midnightblue" stroke="midnightblue" points="1053.63,-329.53 1044.86,-335.48 1055.42,-336.29 1053.63,-329.53"/>
</g>
<!-- Node29&#45;&gt;Node25 -->
<g id="edge45" class="edge">
<title>Node29&#45;&gt;Node25</title>
<path fill="none" stroke="midnightblue" d="M983.94,-325.7C980.86,-316.59 977.44,-306.49 974.76,-298.58"/>
<polygon fill="midnightblue" stroke="midnightblue" points="980.71,-327.05 987.23,-335.4 987.34,-324.8 980.71,-327.05"/>
</g>
<!-- Node30 -->
<g id="node30" class="node">
<title>Node30</title>
<g id="a_node30"><a xlink:href="_unit_order_8cpp.html" target="_top" xlink:title=" ">
<polygon fill="white" stroke="black" points="1054,-268.5 1054,-298.5 1164,-298.5 1164,-268.5 1054,-268.5"/>
<text text-anchor="start" x="1062" y="-286.5" font-family="Helvetica,sans-Serif" font-size="10.00">src/GameLogic/Units</text>
<text text-anchor="middle" x="1109" y="-275.5" font-family="Helvetica,sans-Serif" font-size="10.00">/UnitOrder.cpp</text>
</a>
</g>
</g>
<!-- Node29&#45;&gt;Node30 -->
<g id="edge44" class="edge">
<title>Node29&#45;&gt;Node30</title>
<path fill="none" stroke="midnightblue" d="M1026.32,-330.44C1044.67,-320.24 1066.88,-307.9 1083.66,-298.58"/>
<polygon fill="midnightblue" stroke="midnightblue" points="1024.43,-327.48 1017.39,-335.4 1027.83,-333.6 1024.43,-327.48"/>
</g>
</g>
</svg>
