<?xml version="1.0" encoding="UTF-8" standalone="no"?>
<!DOCTYPE svg PUBLIC "-//W3C//DTD SVG 1.1//EN"
 "http://www.w3.org/Graphics/SVG/1.1/DTD/svg11.dtd">
<!-- Generated by graphviz version 2.47.0 (20210407.0042)
 -->
<!-- Title: include/GameLogic/Units/UnitOrder.h Pages: 1 -->
<svg width="1190pt" height="575pt"
 viewBox="0.00 0.00 1189.50 575.00" xmlns="http://www.w3.org/2000/svg" xmlns:xlink="http://www.w3.org/1999/xlink">
<g id="graph0" class="graph" transform="scale(1 1) rotate(0) translate(4 571)">
<title>include/GameLogic/Units/UnitOrder.h</title>
<polygon fill="white" stroke="transparent" points="-4,4 -4,-571 1185.5,-571 1185.5,4 -4,4"/>
<!-- Node1 -->
<g id="node1" class="node">
<title>Node1</title>
<g id="a_node1"><a xlink:title=" ">
<polygon fill="#bfbfbf" stroke="black" points="263.5,-536.5 263.5,-566.5 390.5,-566.5 390.5,-536.5 263.5,-536.5"/>
<text text-anchor="start" x="271.5" y="-554.5" font-family="Helvetica,sans-Serif" font-size="10.00">include/GameLogic/Units</text>
<text text-anchor="middle" x="327" y="-543.5" font-family="Helvetica,sans-Serif" font-size="10.00">/UnitOrder.h</text>
</a>
</g>
</g>
<!-- Node2 -->
<g id="node2" class="node">
<title>Node2</title>
<g id="a_node2"><a xlink:href="_unit_8cpp.html" target="_top" xlink:title=" ">
<polygon fill="white" stroke="black" points="0,-402.5 0,-432.5 110,-432.5 110,-402.5 0,-402.5"/>
<text text-anchor="start" x="8" y="-420.5" font-family="Helvetica,sans-Serif" font-size="10.00">src/GameLogic/Units</text>
<text text-anchor="middle" x="55" y="-409.5" font-family="Helvetica,sans-Serif" font-size="10.00">/Unit.cpp</text>
</a>
</g>
</g>
<!-- Node1&#45;&gt;Node2 -->
<g id="edge1" class="edge">
<title>Node1&#45;&gt;Node2</title>
<path fill="none" stroke="midnightblue" d="M289.08,-532.1C234.1,-505.42 133.42,-456.55 83.96,-432.56"/>
<polygon fill="midnightblue" stroke="midnightblue" points="287.62,-535.28 298.15,-536.5 290.68,-528.98 287.62,-535.28"/>
</g>
<!-- Node3 -->
<g id="node3" class="node">
<title>Node3</title>
<g id="a_node3"><a xlink:href="_unit_order_8cpp.html" target="_top" xlink:title=" ">
<polygon fill="white" stroke="black" points="409,-469.5 409,-499.5 519,-499.5 519,-469.5 409,-469.5"/>
<text text-anchor="start" x="417" y="-487.5" font-family="Helvetica,sans-Serif" font-size="10.00">src/GameLogic/Units</text>
<text text-anchor="middle" x="464" y="-476.5" font-family="Helvetica,sans-Serif" font-size="10.00">/UnitOrder.cpp</text>
</a>
</g>
</g>
<!-- Node1&#45;&gt;Node3 -->
<g id="edge2" class="edge">
<title>Node1&#45;&gt;Node3</title>
<path fill="none" stroke="midnightblue" d="M366.01,-531.99C387.72,-521.69 414.33,-509.07 434.33,-499.58"/>
<polygon fill="midnightblue" stroke="midnightblue" points="364.26,-528.95 356.73,-536.4 367.26,-535.27 364.26,-528.95"/>
</g>
<!-- Node4 -->
<g id="node4" class="node">
<title>Node4</title>
<g id="a_node4"><a xlink:href="_squad_order_8h.html" target="_top" xlink:title=" ">
<polygon fill="white" stroke="black" points="128.5,-402.5 128.5,-432.5 259.5,-432.5 259.5,-402.5 128.5,-402.5"/>
<text text-anchor="start" x="136.5" y="-420.5" font-family="Helvetica,sans-Serif" font-size="10.00">include/GameLogic/Squad</text>
<text text-anchor="middle" x="194" y="-409.5" font-family="Helvetica,sans-Serif" font-size="10.00">/SquadOrder.h</text>
</a>
</g>
</g>
<!-- Node1&#45;&gt;Node4 -->
<g id="edge3" class="edge">
<title>Node1&#45;&gt;Node4</title>
<path fill="none" stroke="midnightblue" d="M293.71,-530.83C280.59,-522.24 265.86,-511.51 254,-500 232.44,-479.07 212.92,-449.74 202.32,-432.57"/>
<polygon fill="midnightblue" stroke="midnightblue" points="292.17,-533.99 302.48,-536.41 295.93,-528.09 292.17,-533.99"/>
</g>
<!-- Node6 -->
<g id="node6" class="node">
<title>Node6</title>
<g id="a_node6"><a xlink:href="_unit_8h.html" target="_top" xlink:title=" ">
<polygon fill="white" stroke="black" points="263.5,-469.5 263.5,-499.5 390.5,-499.5 390.5,-469.5 263.5,-469.5"/>
<text text-anchor="start" x="271.5" y="-487.5" font-family="Helvetica,sans-Serif" font-size="10.00">include/GameLogic/Units</text>
<text text-anchor="middle" x="327" y="-476.5" font-family="Helvetica,sans-Serif" font-size="10.00">/Unit.h</text>
</a>
</g>
</g>
<!-- Node1&#45;&gt;Node6 -->
<g id="edge5" class="edge">
<title>Node1&#45;&gt;Node6</title>
<path fill="none" stroke="midnightblue" d="M320.45,-526.4C320.01,-517.37 320.3,-507.41 321.33,-499.58"/>
<polygon fill="midnightblue" stroke="midnightblue" points="316.97,-526.74 321.32,-536.4 323.94,-526.13 316.97,-526.74"/>
</g>
<!-- Node5 -->
<g id="node5" class="node">
<title>Node5</title>
<g id="a_node5"><a xlink:href="_squad_order_8cpp.html" target="_top" xlink:title=" ">
<polygon fill="white" stroke="black" points="71,-335.5 71,-365.5 185,-365.5 185,-335.5 71,-335.5"/>
<text text-anchor="start" x="79" y="-353.5" font-family="Helvetica,sans-Serif" font-size="10.00">src/GameLogic/Squad</text>
<text text-anchor="middle" x="128" y="-342.5" font-family="Helvetica,sans-Serif" font-size="10.00">/SquadOrder.cpp</text>
</a>
</g>
</g>
<!-- Node4&#45;&gt;Node5 -->
<g id="edge4" class="edge">
<title>Node4&#45;&gt;Node5</title>
<path fill="none" stroke="midnightblue" d="M172.49,-395.31C162.59,-385.56 151.11,-374.26 142.29,-365.58"/>
<polygon fill="midnightblue" stroke="midnightblue" points="170.1,-397.87 179.68,-402.4 175.01,-392.89 170.1,-397.87"/>
</g>
<!-- Node6&#45;&gt;Node1 -->
<g id="edge47" class="edge">
<title>Node6&#45;&gt;Node1</title>
<path fill="none" stroke="midnightblue" d="M333.54,-509.57C333.99,-518.6 333.71,-528.56 332.68,-536.4"/>
<polygon fill="midnightblue" stroke="midnightblue" points="337.03,-509.24 332.67,-499.58 330.05,-509.84 337.03,-509.24"/>
</g>
<!-- Node6&#45;&gt;Node2 -->
<g id="edge6" class="edge">
<title>Node6&#45;&gt;Node2</title>
<path fill="none" stroke="midnightblue" d="M258.46,-467.12C212.64,-456.17 153.14,-441.95 110.33,-431.72"/>
<polygon fill="midnightblue" stroke="midnightblue" points="257.78,-470.56 268.31,-469.48 259.4,-463.75 257.78,-470.56"/>
</g>
<!-- Node6&#45;&gt;Node4 -->
<g id="edge42" class="edge">
<title>Node6&#45;&gt;Node4</title>
<path fill="none" stroke="midnightblue" d="M289.13,-464.99C268.05,-454.69 242.22,-442.07 222.8,-432.58"/>
<polygon fill="midnightblue" stroke="midnightblue" points="287.62,-468.15 298.14,-469.4 290.69,-461.86 287.62,-468.15"/>
</g>
<!-- Node7 -->
<g id="node7" class="node">
<title>Node7</title>
<g id="a_node7"><a xlink:href="_squad_8h.html" target="_top" xlink:title=" ">
<polygon fill="white" stroke="black" points="616.5,-402.5 616.5,-432.5 747.5,-432.5 747.5,-402.5 616.5,-402.5"/>
<text text-anchor="start" x="624.5" y="-420.5" font-family="Helvetica,sans-Serif" font-size="10.00">include/GameLogic/Squad</text>
<text text-anchor="middle" x="682" y="-409.5" font-family="Helvetica,sans-Serif" font-size="10.00">/Squad.h</text>
</a>
</g>
</g>
<!-- Node6&#45;&gt;Node7 -->
<g id="edge7" class="edge">
<title>Node6&#45;&gt;Node7</title>
<path fill="none" stroke="midnightblue" d="M398.99,-467.5C475.7,-453.09 559.8,-438.22 616.45,-428.67"/>
<polygon fill="midnightblue" stroke="midnightblue" points="397.88,-464.15 388.7,-469.44 399.18,-471.02 397.88,-464.15"/>
</g>
<!-- Node16 -->
<g id="node16" class="node">
<title>Node16</title>
<g id="a_node16"><a xlink:href="_factory_8h.html" target="_top" xlink:title=" ">
<polygon fill="white" stroke="black" points="369.5,-201.5 369.5,-231.5 496.5,-231.5 496.5,-201.5 369.5,-201.5"/>
<text text-anchor="start" x="377.5" y="-219.5" font-family="Helvetica,sans-Serif" font-size="10.00">include/GameLogic/Units</text>
<text text-anchor="middle" x="433" y="-208.5" font-family="Helvetica,sans-Serif" font-size="10.00">/Factory.h</text>
</a>
</g>
</g>
<!-- Node6&#45;&gt;Node16 -->
<g id="edge43" class="edge">
<title>Node6&#45;&gt;Node16</title>
<path fill="none" stroke="midnightblue" d="M376.83,-464.6C390.74,-456.9 404.39,-446.55 413,-433 454.42,-367.83 442.23,-268.43 435.81,-231.74"/>
<polygon fill="midnightblue" stroke="midnightblue" points="375,-461.61 367.7,-469.29 378.19,-467.84 375,-461.61"/>
</g>
<!-- Node29 -->
<g id="node29" class="node">
<title>Node29</title>
<g id="a_node29"><a xlink:href="_land_unit_8h.html" target="_top" xlink:title=" ">
<polygon fill="white" stroke="black" points="277.5,-402.5 277.5,-432.5 404.5,-432.5 404.5,-402.5 277.5,-402.5"/>
<text text-anchor="start" x="285.5" y="-420.5" font-family="Helvetica,sans-Serif" font-size="10.00">include/GameLogic/Units</text>
<text text-anchor="middle" x="341" y="-409.5" font-family="Helvetica,sans-Serif" font-size="10.00">/LandUnit.h</text>
</a>
</g>
</g>
<!-- Node6&#45;&gt;Node29 -->
<g id="edge44" class="edge">
<title>Node6&#45;&gt;Node29</title>
<path fill="none" stroke="midnightblue" d="M332.19,-459.4C334.14,-450.37 336.28,-440.41 337.97,-432.58"/>
<polygon fill="midnightblue" stroke="midnightblue" points="328.72,-458.88 330.04,-469.4 335.56,-460.36 328.72,-458.88"/>
</g>
<!-- Node7&#45;&gt;Node6 -->
<g id="edge40" class="edge">
<title>Node7&#45;&gt;Node6</title>
<path fill="none" stroke="midnightblue" d="M606.27,-433C551.46,-442.88 475.71,-456.4 409,-469 403.03,-470.13 396.8,-471.33 390.53,-472.54"/>
<polygon fill="midnightblue" stroke="midnightblue" points="607.04,-436.42 616.26,-431.2 605.8,-429.53 607.04,-436.42"/>
</g>
<!-- Node8 -->
<g id="node8" class="node">
<title>Node8</title>
<g id="a_node8"><a xlink:href="_squad_8cpp.html" target="_top" xlink:title=" ">
<polygon fill="white" stroke="black" points="788,-67.5 788,-97.5 902,-97.5 902,-67.5 788,-67.5"/>
<text text-anchor="start" x="796" y="-85.5" font-family="Helvetica,sans-Serif" font-size="10.00">src/GameLogic/Squad</text>
<text text-anchor="middle" x="845" y="-74.5" font-family="Helvetica,sans-Serif" font-size="10.00">/Squad.cpp</text>
</a>
</g>
</g>
<!-- Node7&#45;&gt;Node8 -->
<g id="edge8" class="edge">
<title>Node7&#45;&gt;Node8</title>
<path fill="none" stroke="midnightblue" d="M757.64,-402.86C857.83,-382.61 1022,-340.82 1022,-284.5 1022,-284.5 1022,-284.5 1022,-215.5 1022,-152.06 948.02,-115.48 895.72,-97.54"/>
<polygon fill="midnightblue" stroke="midnightblue" points="756.68,-399.49 747.56,-404.87 758.05,-406.35 756.68,-399.49"/>
</g>
<!-- Node9 -->
<g id="node9" class="node">
<title>Node9</title>
<g id="a_node9"><a xlink:href="_set_squad_path_8h.html" target="_top" xlink:title=" ">
<polygon fill="white" stroke="black" points="719.5,-335.5 719.5,-365.5 832.5,-365.5 832.5,-335.5 719.5,-335.5"/>
<text text-anchor="start" x="727.5" y="-353.5" font-family="Helvetica,sans-Serif" font-size="10.00">include/engine/actions</text>
<text text-anchor="middle" x="776" y="-342.5" font-family="Helvetica,sans-Serif" font-size="10.00">/SetSquadPath.h</text>
</a>
</g>
</g>
<!-- Node7&#45;&gt;Node9 -->
<g id="edge9" class="edge">
<title>Node7&#45;&gt;Node9</title>
<path fill="none" stroke="midnightblue" d="M710.99,-396.45C725.45,-386.45 742.59,-374.6 755.64,-365.58"/>
<polygon fill="midnightblue" stroke="midnightblue" points="708.63,-393.83 702.4,-402.4 712.61,-399.59 708.63,-393.83"/>
</g>
<!-- Node12 -->
<g id="node12" class="node">
<title>Node12</title>
<g id="a_node12"><a xlink:href="_cell_8h.html" target="_top" xlink:title=" ">
<polygon fill="white" stroke="black" points="618,-274 618,-293 746,-293 746,-274 618,-274"/>
<text text-anchor="middle" x="682" y="-281" font-family="Helvetica,sans-Serif" font-size="10.00">include/GameLogic/Cell.h</text>
</a>
</g>
</g>
<!-- Node7&#45;&gt;Node12 -->
<g id="edge38" class="edge">
<title>Node7&#45;&gt;Node12</title>
<path fill="none" stroke="midnightblue" d="M676.64,-392.32C674.31,-362.38 674.91,-312.91 678.45,-293.1"/>
<polygon fill="midnightblue" stroke="midnightblue" points="673.17,-392.77 677.63,-402.37 680.13,-392.08 673.17,-392.77"/>
</g>
<!-- Node15 -->
<g id="node15" class="node">
<title>Node15</title>
<g id="a_node15"><a xlink:href="_game_logic_2_squad_2_action_8h.html" target="_top" xlink:title=" ">
<polygon fill="white" stroke="black" points="1050.5,-201.5 1050.5,-231.5 1181.5,-231.5 1181.5,-201.5 1050.5,-201.5"/>
<text text-anchor="start" x="1058.5" y="-219.5" font-family="Helvetica,sans-Serif" font-size="10.00">include/GameLogic/Squad</text>
<text text-anchor="middle" x="1116" y="-208.5" font-family="Helvetica,sans-Serif" font-size="10.00">/Action.h</text>
</a>
</g>
</g>
<!-- Node7&#45;&gt;Node15 -->
<g id="edge39" class="edge">
<title>Node7&#45;&gt;Node15</title>
<path fill="none" stroke="midnightblue" d="M757.72,-413.24C845.78,-408.21 984.33,-395.77 1027,-366 1074.55,-332.82 1096.4,-262.13 1108.03,-231.8"/>
<polygon fill="midnightblue" stroke="midnightblue" points="757.3,-409.76 747.51,-413.81 757.69,-416.75 757.3,-409.76"/>
</g>
<!-- Node26 -->
<g id="node26" class="node">
<title>Node26</title>
<g id="a_node26"><a xlink:href="pathfinding_8h.html" target="_top" xlink:title=" ">
<polygon fill="white" stroke="black" points="606,-207 606,-226 726,-226 726,-207 606,-207"/>
<text text-anchor="middle" x="666" y="-214" font-family="Helvetica,sans-Serif" font-size="10.00">include/util/pathfinding.h</text>
</a>
</g>
</g>
<!-- Node7&#45;&gt;Node26 -->
<g id="edge41" class="edge">
<title>Node7&#45;&gt;Node26</title>
<path fill="none" stroke="midnightblue" d="M662.92,-394.37C645.01,-372.03 619.46,-335.66 609,-299 605.22,-285.75 603.35,-280.56 609,-268 617.41,-249.31 636.53,-234.74 650.31,-226.15"/>
<polygon fill="midnightblue" stroke="midnightblue" points="660.31,-396.71 669.36,-402.22 665.72,-392.27 660.31,-396.71"/>
</g>
<!-- Node10 -->
<g id="node10" class="node">
<title>Node10</title>
<g id="a_node10"><a xlink:href="engine_2_action_8cpp.html" target="_top" xlink:title=" ">
<polygon fill="white" stroke="black" points="764,-274 764,-293 874,-293 874,-274 764,-274"/>
<text text-anchor="middle" x="819" y="-281" font-family="Helvetica,sans-Serif" font-size="10.00">src/engine/Action.cpp</text>
</a>
</g>
</g>
<!-- Node9&#45;&gt;Node10 -->
<g id="edge10" class="edge">
<title>Node9&#45;&gt;Node10</title>
<path fill="none" stroke="midnightblue" d="M790.9,-326.97C798.6,-315.33 807.56,-301.8 813.25,-293.19"/>
<polygon fill="midnightblue" stroke="midnightblue" points="787.93,-325.12 785.33,-335.4 793.77,-328.99 787.93,-325.12"/>
</g>
<!-- Node11 -->
<g id="node11" class="node">
<title>Node11</title>
<g id="a_node11"><a xlink:href="_set_squad_path_8cpp.html" target="_top" xlink:title=" ">
<polygon fill="white" stroke="black" points="892.5,-268.5 892.5,-298.5 993.5,-298.5 993.5,-268.5 892.5,-268.5"/>
<text text-anchor="start" x="900.5" y="-286.5" font-family="Helvetica,sans-Serif" font-size="10.00">src/engine/actions</text>
<text text-anchor="middle" x="943" y="-275.5" font-family="Helvetica,sans-Serif" font-size="10.00">/SetSquadPath.cpp</text>
</a>
</g>
</g>
<!-- Node9&#45;&gt;Node11 -->
<g id="edge11" class="edge">
<title>Node9&#45;&gt;Node11</title>
<path fill="none" stroke="midnightblue" d="M821.78,-331.68C848.56,-321.26 881.9,-308.28 906.83,-298.58"/>
<polygon fill="midnightblue" stroke="midnightblue" points="820.29,-328.51 812.24,-335.4 822.83,-335.03 820.29,-328.51"/>
</g>
<!-- Node9&#45;&gt;Node12 -->
<g id="edge12" class="edge">
<title>Node9&#45;&gt;Node12</title>
<path fill="none" stroke="midnightblue" d="M741.31,-329.84C722.66,-317.62 701.3,-302.52 689.8,-293.19"/>
<polygon fill="midnightblue" stroke="midnightblue" points="739.62,-332.92 749.92,-335.4 743.42,-327.03 739.62,-332.92"/>
</g>
<!-- Node12&#45;&gt;Node7 -->
<g id="edge18" class="edge">
<title>Node12&#45;&gt;Node7</title>
<path fill="none" stroke="midnightblue" d="M686.87,-303.06C689.53,-329.75 689.37,-378.4 686.37,-402.37"/>
<polygon fill="midnightblue" stroke="midnightblue" points="690.33,-302.55 685.55,-293.1 683.39,-303.47 690.33,-302.55"/>
</g>
<!-- Node12&#45;&gt;Node9 -->
<g id="edge15" class="edge">
<title>Node12&#45;&gt;Node9</title>
<path fill="none" stroke="midnightblue" d="M707.57,-298.28C724.83,-309.2 746.82,-324.39 761.28,-335.4"/>
<polygon fill="midnightblue" stroke="midnightblue" points="709.38,-295.29 699.04,-293.01 705.7,-301.24 709.38,-295.29"/>
</g>
<!-- Node13 -->
<g id="node13" class="node">
<title>Node13</title>
<g id="a_node13"><a xlink:href="_cell_8cpp.html" target="_top" xlink:title=" ">
<polygon fill="white" stroke="black" points="782.5,-207 782.5,-226 903.5,-226 903.5,-207 782.5,-207"/>
<text text-anchor="middle" x="843" y="-214" font-family="Helvetica,sans-Serif" font-size="10.00">src/GameLogic/Cell.cpp</text>
</a>
</g>
</g>
<!-- Node12&#45;&gt;Node13 -->
<g id="edge13" class="edge">
<title>Node12&#45;&gt;Node13</title>
<path fill="none" stroke="midnightblue" d="M712.7,-270.1C744.67,-257.2 793.89,-237.33 821.79,-226.06"/>
<polygon fill="midnightblue" stroke="midnightblue" points="711.34,-266.88 703.38,-273.87 713.96,-273.37 711.34,-266.88"/>
</g>
<!-- Node14 -->
<g id="node14" class="node">
<title>Node14</title>
<g id="a_node14"><a xlink:href="main_8cpp.html" target="_top" xlink:title=" ">
<polygon fill="white" stroke="black" points="922,-207 922,-226 994,-226 994,-207 922,-207"/>
<text text-anchor="middle" x="958" y="-214" font-family="Helvetica,sans-Serif" font-size="10.00">src/main.cpp</text>
</a>
</g>
</g>
<!-- Node12&#45;&gt;Node14 -->
<g id="edge14" class="edge">
<title>Node12&#45;&gt;Node14</title>
<path fill="none" stroke="midnightblue" d="M733.17,-271.82C790.22,-259.82 878.84,-240.85 912,-232 918.63,-230.23 925.74,-228.11 932.33,-226.04"/>
<polygon fill="midnightblue" stroke="midnightblue" points="732.32,-268.42 723.25,-273.9 733.76,-275.27 732.32,-268.42"/>
</g>
<!-- Node12&#45;&gt;Node15 -->
<g id="edge16" class="edge">
<title>Node12&#45;&gt;Node15</title>
<path fill="none" stroke="midnightblue" d="M732.84,-272.02C740.26,-270.6 747.82,-269.21 755,-268 810.3,-258.65 962.08,-238.04 1050.23,-226.24"/>
<polygon fill="midnightblue" stroke="midnightblue" points="732,-268.61 722.85,-273.96 733.33,-275.48 732,-268.61"/>
</g>
<!-- Node12&#45;&gt;Node16 -->
<g id="edge19" class="edge">
<title>Node12&#45;&gt;Node16</title>
<path fill="none" stroke="midnightblue" d="M639.51,-271.41C597.35,-260.4 532.6,-243.5 486.86,-231.56"/>
<polygon fill="midnightblue" stroke="midnightblue" points="638.63,-274.8 649.19,-273.94 640.4,-268.02 638.63,-274.8"/>
</g>
<!-- Node12&#45;&gt;Node26 -->
<g id="edge35" class="edge">
<title>Node12&#45;&gt;Node26</title>
<path fill="none" stroke="midnightblue" d="M677.43,-263.91C674.37,-251.49 670.48,-235.72 668.12,-226.13"/>
<polygon fill="midnightblue" stroke="midnightblue" points="674.05,-264.86 679.84,-273.73 680.85,-263.19 674.05,-264.86"/>
</g>
<!-- Node15&#45;&gt;Node7 -->
<g id="edge17" class="edge">
<title>Node15&#45;&gt;Node7</title>
<path fill="none" stroke="midnightblue" d="M1116.2,-241.77C1109.89,-275.58 1087.91,-336.06 1045,-366 998.67,-398.33 839.29,-410.21 747.79,-414.38"/>
<polygon fill="midnightblue" stroke="midnightblue" points="1119.67,-242.21 1117.7,-231.8 1112.75,-241.17 1119.67,-242.21"/>
</g>
<!-- Node17 -->
<g id="node17" class="node">
<title>Node17</title>
<g id="a_node17"><a xlink:href="_factory_8cpp.html" target="_top" xlink:title=" ">
<polygon fill="white" stroke="black" points="186,-134.5 186,-164.5 296,-164.5 296,-134.5 186,-134.5"/>
<text text-anchor="start" x="194" y="-152.5" font-family="Helvetica,sans-Serif" font-size="10.00">src/GameLogic/Units</text>
<text text-anchor="middle" x="241" y="-141.5" font-family="Helvetica,sans-Serif" font-size="10.00">/Factory.cpp</text>
</a>
</g>
</g>
<!-- Node16&#45;&gt;Node17 -->
<g id="edge20" class="edge">
<title>Node16&#45;&gt;Node17</title>
<path fill="none" stroke="midnightblue" d="M381.58,-198.09C350.58,-187.6 311.62,-174.41 282.58,-164.58"/>
<polygon fill="midnightblue" stroke="midnightblue" points="380.74,-201.5 391.34,-201.4 382.99,-194.87 380.74,-201.5"/>
</g>
<!-- Node18 -->
<g id="node18" class="node">
<title>Node18</title>
<g id="a_node18"><a xlink:href="_squad_template_8h.html" target="_top" xlink:title=" ">
<polygon fill="white" stroke="black" points="314.5,-134.5 314.5,-164.5 445.5,-164.5 445.5,-134.5 314.5,-134.5"/>
<text text-anchor="start" x="322.5" y="-152.5" font-family="Helvetica,sans-Serif" font-size="10.00">include/GameLogic/Squad</text>
<text text-anchor="middle" x="380" y="-141.5" font-family="Helvetica,sans-Serif" font-size="10.00">/SquadTemplate.h</text>
</a>
</g>
</g>
<!-- Node16&#45;&gt;Node18 -->
<g id="edge21" class="edge">
<title>Node16&#45;&gt;Node18</title>
<path fill="none" stroke="midnightblue" d="M415.02,-193.45C407.23,-183.9 398.35,-173 391.48,-164.58"/>
<polygon fill="midnightblue" stroke="midnightblue" points="412.47,-195.86 421.5,-201.4 417.89,-191.43 412.47,-195.86"/>
</g>
<!-- Node22 -->
<g id="node22" class="node">
<title>Node22</title>
<g id="a_node22"><a xlink:href="_all_units_8h.html" target="_top" xlink:title=" ">
<polygon fill="white" stroke="black" points="463.5,-134.5 463.5,-164.5 590.5,-164.5 590.5,-134.5 463.5,-134.5"/>
<text text-anchor="start" x="471.5" y="-152.5" font-family="Helvetica,sans-Serif" font-size="10.00">include/GameLogic/Units</text>
<text text-anchor="middle" x="527" y="-141.5" font-family="Helvetica,sans-Serif" font-size="10.00">/AllUnits.h</text>
</a>
</g>
</g>
<!-- Node16&#45;&gt;Node22 -->
<g id="edge26" class="edge">
<title>Node16&#45;&gt;Node22</title>
<path fill="none" stroke="midnightblue" d="M461.99,-195.45C476.45,-185.45 493.59,-173.6 506.64,-164.58"/>
<polygon fill="midnightblue" stroke="midnightblue" points="459.63,-192.83 453.4,-201.4 463.61,-198.59 459.63,-192.83"/>
</g>
<!-- Node24 -->
<g id="node24" class="node">
<title>Node24</title>
<g id="a_node24"><a xlink:href="_land_unit_factory_8h.html" target="_top" xlink:title=" ">
<polygon fill="white" stroke="black" points="40.5,-134.5 40.5,-164.5 167.5,-164.5 167.5,-134.5 40.5,-134.5"/>
<text text-anchor="start" x="48.5" y="-152.5" font-family="Helvetica,sans-Serif" font-size="10.00">include/GameLogic/Units</text>
<text text-anchor="middle" x="104" y="-141.5" font-family="Helvetica,sans-Serif" font-size="10.00">/LandUnitFactory.h</text>
</a>
</g>
</g>
<!-- Node16&#45;&gt;Node24 -->
<g id="edge32" class="edge">
<title>Node16&#45;&gt;Node24</title>
<path fill="none" stroke="midnightblue" d="M359.37,-201C308.21,-190.92 238.45,-177.16 177,-165 173.96,-164.4 170.84,-163.78 167.7,-163.16"/>
<polygon fill="midnightblue" stroke="midnightblue" points="358.86,-204.47 369.35,-202.97 360.21,-197.6 358.86,-204.47"/>
</g>
<!-- Node19 -->
<g id="node19" class="node">
<title>Node19</title>
<g id="a_node19"><a xlink:href="_squad_template_8cpp.html" target="_top" xlink:title=" ">
<polygon fill="white" stroke="black" points="326,-67.5 326,-97.5 440,-97.5 440,-67.5 326,-67.5"/>
<text text-anchor="start" x="334" y="-85.5" font-family="Helvetica,sans-Serif" font-size="10.00">src/GameLogic/Squad</text>
<text text-anchor="middle" x="383" y="-74.5" font-family="Helvetica,sans-Serif" font-size="10.00">/SquadTemplate.cpp</text>
</a>
</g>
</g>
<!-- Node18&#45;&gt;Node19 -->
<g id="edge22" class="edge">
<title>Node18&#45;&gt;Node19</title>
<path fill="none" stroke="midnightblue" d="M381.11,-124.4C381.53,-115.37 381.99,-105.41 382.35,-97.58"/>
<polygon fill="midnightblue" stroke="midnightblue" points="377.62,-124.25 380.65,-134.4 384.61,-124.57 377.62,-124.25"/>
</g>
<!-- Node20 -->
<g id="node20" class="node">
<title>Node20</title>
<g id="a_node20"><a xlink:href="_all_squad_templates_8h.html" target="_top" xlink:title=" ">
<polygon fill="white" stroke="black" points="461.5,-67.5 461.5,-97.5 592.5,-97.5 592.5,-67.5 461.5,-67.5"/>
<text text-anchor="start" x="469.5" y="-85.5" font-family="Helvetica,sans-Serif" font-size="10.00">include/GameLogic/Squad</text>
<text text-anchor="middle" x="527" y="-74.5" font-family="Helvetica,sans-Serif" font-size="10.00">/AllSquadTemplates.h</text>
</a>
</g>
</g>
<!-- Node18&#45;&gt;Node20 -->
<g id="edge23" class="edge">
<title>Node18&#45;&gt;Node20</title>
<path fill="none" stroke="midnightblue" d="M421.23,-130.27C444.64,-119.92 473.51,-107.15 495.17,-97.58"/>
<polygon fill="midnightblue" stroke="midnightblue" points="419.63,-127.15 411.9,-134.4 422.46,-133.55 419.63,-127.15"/>
</g>
<!-- Node20&#45;&gt;Node12 -->
<g id="edge25" class="edge">
<title>Node20&#45;&gt;Node12</title>
<path fill="none" stroke="midnightblue" d="M602.78,-83.87C691.37,-86.1 830.11,-95.8 863,-134 871.99,-144.44 870.72,-153.59 863,-165 838.85,-200.67 809.6,-178.28 773,-201 755.07,-212.13 710.03,-255.2 690.86,-273.83"/>
<polygon fill="midnightblue" stroke="midnightblue" points="602.85,-80.37 592.77,-83.64 602.69,-87.37 602.85,-80.37"/>
</g>
<!-- Node21 -->
<g id="node21" class="node">
<title>Node21</title>
<g id="a_node21"><a xlink:href="_all_squad_templates_8cpp.html" target="_top" xlink:title=" ">
<polygon fill="white" stroke="black" points="466,-0.5 466,-30.5 588,-30.5 588,-0.5 466,-0.5"/>
<text text-anchor="start" x="474" y="-18.5" font-family="Helvetica,sans-Serif" font-size="10.00">src/GameLogic/Squad</text>
<text text-anchor="middle" x="527" y="-7.5" font-family="Helvetica,sans-Serif" font-size="10.00">/AllSquadTemplates.cpp</text>
</a>
</g>
</g>
<!-- Node20&#45;&gt;Node21 -->
<g id="edge24" class="edge">
<title>Node20&#45;&gt;Node21</title>
<path fill="none" stroke="midnightblue" d="M527,-57.11C527,-48.15 527,-38.32 527,-30.58"/>
<polygon fill="midnightblue" stroke="midnightblue" points="523.5,-57.4 527,-67.4 530.5,-57.4 523.5,-57.4"/>
</g>
<!-- Node22&#45;&gt;Node8 -->
<g id="edge27" class="edge">
<title>Node22&#45;&gt;Node8</title>
<path fill="none" stroke="midnightblue" d="M600.63,-133.45C657.67,-121.79 735.55,-105.87 787.93,-95.17"/>
<polygon fill="midnightblue" stroke="midnightblue" points="599.68,-130.07 590.59,-135.5 601.09,-136.93 599.68,-130.07"/>
</g>
<!-- Node22&#45;&gt;Node12 -->
<g id="edge30" class="edge">
<title>Node22&#45;&gt;Node12</title>
<path fill="none" stroke="midnightblue" d="M543.22,-173.15C556.42,-190.57 576.2,-214.53 597,-232 618.03,-249.66 645.98,-264.97 663.98,-273.97"/>
<polygon fill="midnightblue" stroke="midnightblue" points="545.72,-170.65 536.95,-164.7 540.1,-174.82 545.72,-170.65"/>
</g>
<!-- Node22&#45;&gt;Node19 -->
<g id="edge28" class="edge">
<title>Node22&#45;&gt;Node19</title>
<path fill="none" stroke="midnightblue" d="M486.61,-130.27C463.68,-119.92 435.4,-107.15 414.18,-97.58"/>
<polygon fill="midnightblue" stroke="midnightblue" points="485.2,-133.47 495.75,-134.4 488.08,-127.09 485.2,-133.47"/>
</g>
<!-- Node22&#45;&gt;Node20 -->
<g id="edge31" class="edge">
<title>Node22&#45;&gt;Node20</title>
<path fill="none" stroke="midnightblue" d="M527,-124.11C527,-115.15 527,-105.32 527,-97.58"/>
<polygon fill="midnightblue" stroke="midnightblue" points="523.5,-124.4 527,-134.4 530.5,-124.4 523.5,-124.4"/>
</g>
<!-- Node23 -->
<g id="node23" class="node">
<title>Node23</title>
<g id="a_node23"><a xlink:href="_all_units_8cpp.html" target="_top" xlink:title=" ">
<polygon fill="white" stroke="black" points="189,-67.5 189,-97.5 299,-97.5 299,-67.5 189,-67.5"/>
<text text-anchor="start" x="197" y="-85.5" font-family="Helvetica,sans-Serif" font-size="10.00">src/GameLogic/Units</text>
<text text-anchor="middle" x="244" y="-74.5" font-family="Helvetica,sans-Serif" font-size="10.00">/AllUnits.cpp</text>
</a>
</g>
</g>
<!-- Node22&#45;&gt;Node23 -->
<g id="edge29" class="edge">
<title>Node22&#45;&gt;Node23</title>
<path fill="none" stroke="midnightblue" d="M456.12,-132.22C407.54,-121.06 344.02,-106.47 299.2,-96.18"/>
<polygon fill="midnightblue" stroke="midnightblue" points="455.41,-135.65 465.94,-134.48 456.98,-128.83 455.41,-135.65"/>
</g>
<!-- Node24&#45;&gt;Node23 -->
<g id="edge33" class="edge">
<title>Node24&#45;&gt;Node23</title>
<path fill="none" stroke="midnightblue" d="M143.57,-130.13C165.81,-119.8 193.15,-107.11 213.68,-97.58"/>
<polygon fill="midnightblue" stroke="midnightblue" points="141.97,-127.01 134.38,-134.4 144.92,-133.36 141.97,-127.01"/>
</g>
<!-- Node25 -->
<g id="node25" class="node">
<title>Node25</title>
<g id="a_node25"><a xlink:href="_land_unit_factory_8cpp.html" target="_top" xlink:title=" ">
<polygon fill="white" stroke="black" points="49,-67.5 49,-97.5 159,-97.5 159,-67.5 49,-67.5"/>
<text text-anchor="start" x="57" y="-85.5" font-family="Helvetica,sans-Serif" font-size="10.00">src/GameLogic/Units</text>
<text text-anchor="middle" x="104" y="-74.5" font-family="Helvetica,sans-Serif" font-size="10.00">/LandUnitFactory.cpp</text>
</a>
</g>
</g>
<!-- Node24&#45;&gt;Node25 -->
<g id="edge34" class="edge">
<title>Node24&#45;&gt;Node25</title>
<path fill="none" stroke="midnightblue" d="M104,-124.11C104,-115.15 104,-105.32 104,-97.58"/>
<polygon fill="midnightblue" stroke="midnightblue" points="100.5,-124.4 104,-134.4 107.5,-124.4 100.5,-124.4"/>
</g>
<!-- Node27 -->
<g id="node27" class="node">
<title>Node27</title>
<g id="a_node27"><a xlink:href="_game_logic_2_squad_2_action_8cpp.html" target="_top" xlink:title=" ">
<polygon fill="white" stroke="black" points="609,-134.5 609,-164.5 723,-164.5 723,-134.5 609,-134.5"/>
<text text-anchor="start" x="617" y="-152.5" font-family="Helvetica,sans-Serif" font-size="10.00">src/GameLogic/Squad</text>
<text text-anchor="middle" x="666" y="-141.5" font-family="Helvetica,sans-Serif" font-size="10.00">/Action.cpp</text>
</a>
</g>
</g>
<!-- Node26&#45;&gt;Node27 -->
<g id="edge36" class="edge">
<title>Node26&#45;&gt;Node27</title>
<path fill="none" stroke="midnightblue" d="M666,-196.41C666,-186.22 666,-173.9 666,-164.59"/>
<polygon fill="midnightblue" stroke="midnightblue" points="662.5,-196.73 666,-206.73 669.5,-196.73 662.5,-196.73"/>
</g>
<!-- Node28 -->
<g id="node28" class="node">
<title>Node28</title>
<g id="a_node28"><a xlink:href="pathfinding_8cpp.html" target="_top" xlink:title=" ">
<polygon fill="white" stroke="black" points="741.5,-140 741.5,-159 854.5,-159 854.5,-140 741.5,-140"/>
<text text-anchor="middle" x="798" y="-147" font-family="Helvetica,sans-Serif" font-size="10.00">src/util/pathfinding.cpp</text>
</a>
</g>
</g>
<!-- Node26&#45;&gt;Node28 -->
<g id="edge37" class="edge">
<title>Node26&#45;&gt;Node28</title>
<path fill="none" stroke="midnightblue" d="M692.51,-202.44C718.66,-189.57 757.88,-170.26 780.4,-159.17"/>
<polygon fill="midnightblue" stroke="midnightblue" points="690.95,-199.31 683.53,-206.87 694.05,-205.59 690.95,-199.31"/>
</g>
<!-- Node29&#45;&gt;Node24 -->
<g id="edge46" class="edge">
<title>Node29&#45;&gt;Node24</title>
<path fill="none" stroke="midnightblue" d="M339.34,-391.95C337.26,-374.92 332.57,-352.29 322,-335 272.6,-254.2 175.56,-191.27 129.47,-164.52"/>
<polygon fill="midnightblue" stroke="midnightblue" points="335.89,-392.62 340.37,-402.22 342.86,-391.92 335.89,-392.62"/>
</g>
<!-- Node30 -->
<g id="node30" class="node">
<title>Node30</title>
<g id="a_node30"><a xlink:href="_land_unit_8cpp.html" target="_top" xlink:title=" ">
<polygon fill="white" stroke="black" points="203,-335.5 203,-365.5 313,-365.5 313,-335.5 203,-335.5"/>
<text text-anchor="start" x="211" y="-353.5" font-family="Helvetica,sans-Serif" font-size="10.00">src/GameLogic/Units</text>
<text text-anchor="middle" x="258" y="-342.5" font-family="Helvetica,sans-Serif" font-size="10.00">/LandUnit.cpp</text>
</a>
</g>
</g>
<!-- Node29&#45;&gt;Node30 -->
<g id="edge45" class="edge">
<title>Node29&#45;&gt;Node30</title>
<path fill="none" stroke="midnightblue" d="M315.04,-396.17C302.35,-386.23 287.39,-374.51 275.97,-365.58"/>
<polygon fill="midnightblue" stroke="midnightblue" points="312.96,-398.99 322.99,-402.4 317.28,-393.47 312.96,-398.99"/>
</g>
</g>
</svg>
