<?xml version="1.0" encoding="UTF-8" standalone="no"?>
<!DOCTYPE svg PUBLIC "-//W3C//DTD SVG 1.1//EN"
 "http://www.w3.org/Graphics/SVG/1.1/DTD/svg11.dtd">
<!-- Generated by graphviz version 2.47.0 (20210407.0042)
 -->
<!-- Title: Units::Unit Pages: 1 -->
<svg width="325pt" height="778pt"
 viewBox="0.00 0.00 324.50 778.00" xmlns="http://www.w3.org/2000/svg" xmlns:xlink="http://www.w3.org/1999/xlink">
<g id="graph0" class="graph" transform="scale(1 1) rotate(0) translate(4 774)">
<title>Units::Unit</title>
<polygon fill="white" stroke="transparent" points="-4,4 -4,-774 320.5,-774 320.5,4 -4,4"/>
<!-- Node1 -->
<g id="node1" class="node">
<title>Node1</title>
<g id="a_node1"><a xlink:title=" ">
<polygon fill="#bfbfbf" stroke="black" points="78.5,-0.5 78.5,-222.5 218.5,-222.5 218.5,-0.5 78.5,-0.5"/>
<text text-anchor="middle" x="148.5" y="-210.5" font-family="Helvetica,sans-Serif" font-size="10.00">Units::Unit</text>
<polyline fill="none" stroke="black" points="78.5,-203.5 218.5,-203.5 "/>
<text text-anchor="start" x="86.5" y="-191.5" font-family="Helvetica,sans-Serif" font-size="10.00">+ landscapeFlagResists</text>
<text text-anchor="start" x="86.5" y="-180.5" font-family="Helvetica,sans-Serif" font-size="10.00">+ borderFlagResists</text>
<text text-anchor="start" x="86.5" y="-169.5" font-family="Helvetica,sans-Serif" font-size="10.00">+ commonSpeed</text>
<text text-anchor="start" x="86.5" y="-158.5" font-family="Helvetica,sans-Serif" font-size="10.00"># currentUsageOfOrder</text>
<text text-anchor="start" x="86.5" y="-147.5" font-family="Helvetica,sans-Serif" font-size="10.00"># allOrders</text>
<text text-anchor="start" x="86.5" y="-136.5" font-family="Helvetica,sans-Serif" font-size="10.00"># unitLandscapeFlagResists</text>
<text text-anchor="start" x="86.5" y="-125.5" font-family="Helvetica,sans-Serif" font-size="10.00"># unitBorderFlagResists</text>
<text text-anchor="start" x="86.5" y="-114.5" font-family="Helvetica,sans-Serif" font-size="10.00"># unitSpeed</text>
<text text-anchor="start" x="86.5" y="-103.5" font-family="Helvetica,sans-Serif" font-size="10.00"># name</text>
<text text-anchor="start" x="86.5" y="-92.5" font-family="Helvetica,sans-Serif" font-size="10.00"># texture</text>
<polyline fill="none" stroke="black" points="78.5,-85.5 218.5,-85.5 "/>
<text text-anchor="start" x="86.5" y="-73.5" font-family="Helvetica,sans-Serif" font-size="10.00">+ Unit()</text>
<text text-anchor="start" x="86.5" y="-62.5" font-family="Helvetica,sans-Serif" font-size="10.00">+ Unit()</text>
<text text-anchor="start" x="86.5" y="-51.5" font-family="Helvetica,sans-Serif" font-size="10.00">+ setSquad()</text>
<text text-anchor="start" x="86.5" y="-40.5" font-family="Helvetica,sans-Serif" font-size="10.00">+ tick()</text>
<text text-anchor="start" x="86.5" y="-29.5" font-family="Helvetica,sans-Serif" font-size="10.00">+ isOrderPossible()</text>
<text text-anchor="start" x="86.5" y="-18.5" font-family="Helvetica,sans-Serif" font-size="10.00">+ enableOrder()</text>
<text text-anchor="start" x="86.5" y="-7.5" font-family="Helvetica,sans-Serif" font-size="10.00">+ disableOrder()</text>
</a>
</g>
</g>
<!-- Node2 -->
<g id="node2" class="node">
<title>Node2</title>
<g id="a_node2"><a xlink:href="class_unit_order.html" target="_top" xlink:title=" ">
<polygon fill="white" stroke="black" points="77,-320 77,-388 136,-388 136,-320 77,-320"/>
<text text-anchor="middle" x="106.5" y="-376" font-family="Helvetica,sans-Serif" font-size="10.00">UnitOrder</text>
<polyline fill="none" stroke="black" points="77,-369 136,-369 "/>
<text text-anchor="middle" x="106.5" y="-357" font-family="Helvetica,sans-Serif" font-size="10.00"> </text>
<polyline fill="none" stroke="black" points="77,-350 136,-350 "/>
<text text-anchor="start" x="85" y="-338" font-family="Helvetica,sans-Serif" font-size="10.00">+ tick()</text>
<text text-anchor="start" x="85" y="-327" font-family="Helvetica,sans-Serif" font-size="10.00">+ copy()</text>
</a>
</g>
</g>
<!-- Node2&#45;&gt;Node1 -->
<g id="edge1" class="edge">
<title>Node2&#45;&gt;Node1</title>
<path fill="none" stroke="#404040" d="M109.01,-319.53C110.94,-297.19 114.05,-267.22 118.5,-241 118.85,-238.94 119.21,-236.87 119.59,-234.78"/>
<polygon fill="none" stroke="#404040" points="119.63,-234.52 116.81,-227.88 121.85,-222.72 124.67,-229.36 119.63,-234.52"/>
<text text-anchor="middle" x="149.5" y="-244" font-family="Helvetica,sans-Serif" font-size="10.00"> #currentOrder</text>
</g>
<!-- Node3 -->
<g id="node3" class="node">
<title>Node3</title>
<g id="a_node3"><a xlink:href="class_squads_1_1_squad.html" target="_top" xlink:title=" ">
<polygon fill="white" stroke="black" points="154,-270.5 154,-437.5 275,-437.5 275,-270.5 154,-270.5"/>
<text text-anchor="middle" x="214.5" y="-425.5" font-family="Helvetica,sans-Serif" font-size="10.00">Squads::Squad</text>
<polyline fill="none" stroke="black" points="154,-418.5 275,-418.5 "/>
<text text-anchor="start" x="162" y="-406.5" font-family="Helvetica,sans-Serif" font-size="10.00">+ Action</text>
<text text-anchor="start" x="162" y="-395.5" font-family="Helvetica,sans-Serif" font-size="10.00">+ currentSpeed</text>
<text text-anchor="start" x="162" y="-384.5" font-family="Helvetica,sans-Serif" font-size="10.00">+ landscapeFlagResists</text>
<text text-anchor="start" x="162" y="-373.5" font-family="Helvetica,sans-Serif" font-size="10.00">+ borderFlagResists</text>
<polyline fill="none" stroke="black" points="154,-366.5 275,-366.5 "/>
<text text-anchor="start" x="162" y="-354.5" font-family="Helvetica,sans-Serif" font-size="10.00">+ setCell()</text>
<text text-anchor="start" x="162" y="-343.5" font-family="Helvetica,sans-Serif" font-size="10.00">+ Squad()</text>
<text text-anchor="start" x="162" y="-332.5" font-family="Helvetica,sans-Serif" font-size="10.00">+ Squad()</text>
<text text-anchor="start" x="162" y="-321.5" font-family="Helvetica,sans-Serif" font-size="10.00">+ tick()</text>
<text text-anchor="start" x="162" y="-310.5" font-family="Helvetica,sans-Serif" font-size="10.00">+ lateTick()</text>
<text text-anchor="start" x="162" y="-299.5" font-family="Helvetica,sans-Serif" font-size="10.00">+ render()</text>
<text text-anchor="start" x="162" y="-288.5" font-family="Helvetica,sans-Serif" font-size="10.00">+ tryOnClick()</text>
<text text-anchor="start" x="162" y="-277.5" font-family="Helvetica,sans-Serif" font-size="10.00">+ doOnClick()</text>
</a>
</g>
</g>
<!-- Node3&#45;&gt;Node1 -->
<g id="edge2" class="edge">
<title>Node3&#45;&gt;Node1</title>
<path fill="none" stroke="#404040" d="M191.79,-270.23C188.59,-258.6 185.26,-246.44 181.92,-234.27"/>
<polygon fill="none" stroke="#404040" points="181.89,-234.17 176.45,-229.45 178.72,-222.6 184.16,-227.33 181.89,-234.17"/>
<text text-anchor="middle" x="202.5" y="-244" font-family="Helvetica,sans-Serif" font-size="10.00"> #squad</text>
</g>
<!-- Node4 -->
<g id="node4" class="node">
<title>Node4</title>
<g id="a_node4"><a xlink:href="classengine_1_1gameplay_clickable_game_object.html" target="_top" xlink:title=" ">
<polygon fill="white" stroke="black" points="0,-518.5 0,-586.5 131,-586.5 131,-518.5 0,-518.5"/>
<text text-anchor="start" x="8" y="-574.5" font-family="Helvetica,sans-Serif" font-size="10.00">engine::gameplayClickable</text>
<text text-anchor="middle" x="65.5" y="-563.5" font-family="Helvetica,sans-Serif" font-size="10.00">GameObject</text>
<polyline fill="none" stroke="black" points="0,-556.5 131,-556.5 "/>
<text text-anchor="middle" x="65.5" y="-544.5" font-family="Helvetica,sans-Serif" font-size="10.00"> </text>
<polyline fill="none" stroke="black" points="0,-537.5 131,-537.5 "/>
<text text-anchor="start" x="8" y="-525.5" font-family="Helvetica,sans-Serif" font-size="10.00">+ doOnClick()</text>
</a>
</g>
</g>
<!-- Node4&#45;&gt;Node3 -->
<g id="edge3" class="edge">
<title>Node4&#45;&gt;Node3</title>
<path fill="none" stroke="midnightblue" d="M96.88,-510.12C113.38,-488.35 134.2,-460.9 153.71,-435.17"/>
<polygon fill="none" stroke="midnightblue" points="94.03,-508.08 90.78,-518.17 99.61,-512.31 94.03,-508.08"/>
</g>
<!-- Node4&#45;&gt;Node4 -->
<g id="edge5" class="edge">
<title>Node4&#45;&gt;Node4</title>
<path fill="none" stroke="#404040" d="M131.31,-567.35C141.81,-565.18 149,-560.23 149,-552.5 149,-548.03 146.6,-544.49 142.54,-541.88"/>
<polygon fill="none" stroke="#404040" points="142.54,-541.88 135.51,-543.51 131.31,-537.65 138.33,-536.02 142.54,-541.88"/>
<text text-anchor="middle" x="182.5" y="-550" font-family="Helvetica,sans-Serif" font-size="10.00"> +previousClick</text>
</g>
<!-- Node5 -->
<g id="node5" class="node">
<title>Node5</title>
<g id="a_node5"><a xlink:href="classengine_1_1game_object.html" target="_top" xlink:title=" ">
<polygon fill="white" stroke="black" points="1,-657.5 1,-769.5 130,-769.5 130,-657.5 1,-657.5"/>
<text text-anchor="middle" x="65.5" y="-757.5" font-family="Helvetica,sans-Serif" font-size="10.00">engine::gameObject</text>
<polyline fill="none" stroke="black" points="1,-750.5 130,-750.5 "/>
<text text-anchor="start" x="9" y="-738.5" font-family="Helvetica,sans-Serif" font-size="10.00">+ id</text>
<text text-anchor="start" x="9" y="-727.5" font-family="Helvetica,sans-Serif" font-size="10.00">+ gameObjectListPosition</text>
<polyline fill="none" stroke="black" points="1,-720.5 130,-720.5 "/>
<text text-anchor="start" x="9" y="-708.5" font-family="Helvetica,sans-Serif" font-size="10.00">+ tick()</text>
<text text-anchor="start" x="9" y="-697.5" font-family="Helvetica,sans-Serif" font-size="10.00">+ lateTick()</text>
<text text-anchor="start" x="9" y="-686.5" font-family="Helvetica,sans-Serif" font-size="10.00">+ render()</text>
<text text-anchor="start" x="9" y="-675.5" font-family="Helvetica,sans-Serif" font-size="10.00">+ getRenderEdges()</text>
<text text-anchor="start" x="9" y="-664.5" font-family="Helvetica,sans-Serif" font-size="10.00">+ tryOnClick()</text>
</a>
</g>
</g>
<!-- Node5&#45;&gt;Node4 -->
<g id="edge4" class="edge">
<title>Node5&#45;&gt;Node4</title>
<path fill="none" stroke="midnightblue" d="M65.5,-647.26C65.5,-626.47 65.5,-604.33 65.5,-586.78"/>
<polygon fill="none" stroke="midnightblue" points="62,-647.34 65.5,-657.34 69,-647.34 62,-647.34"/>
</g>
<!-- Node6 -->
<g id="node6" class="node">
<title>Node6</title>
<g id="a_node6"><a xlink:href="class_squads_1_1_action.html" target="_top" xlink:title=" ">
<polygon fill="white" stroke="black" points="234.5,-485.5 234.5,-619.5 316.5,-619.5 316.5,-485.5 234.5,-485.5"/>
<text text-anchor="middle" x="275.5" y="-607.5" font-family="Helvetica,sans-Serif" font-size="10.00">Squads::Action</text>
<polyline fill="none" stroke="black" points="234.5,-600.5 316.5,-600.5 "/>
<text text-anchor="middle" x="275.5" y="-588.5" font-family="Helvetica,sans-Serif" font-size="10.00"> </text>
<polyline fill="none" stroke="black" points="234.5,-581.5 316.5,-581.5 "/>
<text text-anchor="start" x="242.5" y="-569.5" font-family="Helvetica,sans-Serif" font-size="10.00">+ Action()</text>
<text text-anchor="start" x="242.5" y="-558.5" font-family="Helvetica,sans-Serif" font-size="10.00">+ nextStep()</text>
<text text-anchor="start" x="242.5" y="-547.5" font-family="Helvetica,sans-Serif" font-size="10.00">+ calcSpeed()</text>
<text text-anchor="start" x="242.5" y="-536.5" font-family="Helvetica,sans-Serif" font-size="10.00">+ findPath()</text>
<text text-anchor="start" x="242.5" y="-525.5" font-family="Helvetica,sans-Serif" font-size="10.00">+ setPath()</text>
<text text-anchor="start" x="242.5" y="-514.5" font-family="Helvetica,sans-Serif" font-size="10.00">+ setPath()</text>
<text text-anchor="start" x="242.5" y="-503.5" font-family="Helvetica,sans-Serif" font-size="10.00">+ tick()</text>
<text text-anchor="start" x="242.5" y="-492.5" font-family="Helvetica,sans-Serif" font-size="10.00">+ render()</text>
</a>
</g>
</g>
<!-- Node6&#45;&gt;Node3 -->
<g id="edge6" class="edge">
<title>Node6&#45;&gt;Node3</title>
<path fill="none" stroke="#404040" d="M254.93,-485.25C251.34,-473.68 247.55,-461.45 243.77,-449.3"/>
<polygon fill="none" stroke="#404040" points="243.73,-449.16 238.13,-444.61 240.17,-437.7 245.77,-442.24 243.73,-449.16"/>
<text text-anchor="middle" x="266" y="-459" font-family="Helvetica,sans-Serif" font-size="10.00"> +action</text>
</g>
</g>
</svg>
