<?xml version="1.0" encoding="UTF-8" standalone="no"?>
<!DOCTYPE svg PUBLIC "-//W3C//DTD SVG 1.1//EN"
 "http://www.w3.org/Graphics/SVG/1.1/DTD/svg11.dtd">
<!-- Generated by graphviz version 2.47.0 (20210407.0042)
 -->
<!-- Title: engine::NetworkManager::makeShared Pages: 1 -->
<svg width="282pt" height="66pt"
 viewBox="0.00 0.00 282.00 66.00" xmlns="http://www.w3.org/2000/svg" xmlns:xlink="http://www.w3.org/1999/xlink">
<g id="graph0" class="graph" transform="scale(1 1) rotate(0) translate(4 62)">
<title>engine::NetworkManager::makeShared</title>
<polygon fill="white" stroke="transparent" points="-4,4 -4,-62 278,-62 278,4 -4,4"/>
<!-- Node1 -->
<g id="node1" class="node">
<title>Node1</title>
<g id="a_node1"><a xlink:title=" ">
<polygon fill="#bfbfbf" stroke="black" points="150,-14 150,-44 274,-44 274,-14 150,-14"/>
<text text-anchor="start" x="158" y="-32" font-family="Helvetica,sans-Serif" font-size="10.00">engine::NetworkManager</text>
<text text-anchor="middle" x="212" y="-21" font-family="Helvetica,sans-Serif" font-size="10.00">::makeShared</text>
</a>
</g>
</g>
<!-- Node2 -->
<g id="node2" class="node">
<title>Node2</title>
<g id="a_node2"><a xlink:href="class_cell.html#aa3317a89121135ce43f0ade0248dd9e0" target="_top" xlink:title=" ">
<polygon fill="white" stroke="black" points="30,-38.5 30,-57.5 84,-57.5 84,-38.5 30,-38.5"/>
<text text-anchor="middle" x="57" y="-45.5" font-family="Helvetica,sans-Serif" font-size="10.00">Cell::Cell</text>
</a>
</g>
</g>
<!-- Node1&#45;&gt;Node2 -->
<g id="edge1" class="edge">
<title>Node1&#45;&gt;Node2</title>
<path fill="none" stroke="midnightblue" d="M139.68,-37.86C119.89,-40.31 99.62,-42.83 84.23,-44.74"/>
<polygon fill="midnightblue" stroke="midnightblue" points="140.16,-41.32 149.65,-36.62 139.3,-34.38 140.16,-41.32"/>
</g>
<!-- Node3 -->
<g id="node3" class="node">
<title>Node3</title>
<g id="a_node3"><a xlink:href="class_squads_1_1_squad.html#ad82f4b89c84cd81737ba8cb5db9882ae" target="_top" xlink:title=" ">
<polygon fill="white" stroke="black" points="0,-0.5 0,-19.5 114,-19.5 114,-0.5 0,-0.5"/>
<text text-anchor="middle" x="57" y="-7.5" font-family="Helvetica,sans-Serif" font-size="10.00">Squads::Squad::Squad</text>
</a>
</g>
</g>
<!-- Node1&#45;&gt;Node3 -->
<g id="edge2" class="edge">
<title>Node1&#45;&gt;Node3</title>
<path fill="none" stroke="midnightblue" d="M139.46,-20.12C131.06,-19.07 122.57,-18.02 114.41,-17"/>
<polygon fill="midnightblue" stroke="midnightblue" points="139.3,-23.62 149.65,-21.38 140.16,-16.68 139.3,-23.62"/>
</g>
</g>
</svg>
