<?xml version="1.0" encoding="UTF-8" standalone="no"?>
<!DOCTYPE svg PUBLIC "-//W3C//DTD SVG 1.1//EN"
 "http://www.w3.org/Graphics/SVG/1.1/DTD/svg11.dtd">
<!-- Generated by graphviz version 2.47.0 (20210407.0042)
 -->
<!-- Title: Squads::Action::calcSpeed Pages: 1 -->
<svg width="419pt" height="39pt"
 viewBox="0.00 0.00 419.00 39.00" xmlns="http://www.w3.org/2000/svg" xmlns:xlink="http://www.w3.org/1999/xlink">
<g id="graph0" class="graph" transform="scale(1 1) rotate(0) translate(4 35)">
<title>Squads::Action::calcSpeed</title>
<polygon fill="white" stroke="transparent" points="-4,4 -4,-35 415,-35 415,4 -4,4"/>
<!-- Node1 -->
<g id="node1" class="node">
<title>Node1</title>
<g id="a_node1"><a xlink:title=" ">
<polygon fill="#bfbfbf" stroke="black" points="279,-6 279,-25 411,-25 411,-6 279,-6"/>
<text text-anchor="middle" x="345" y="-13" font-family="Helvetica,sans-Serif" font-size="10.00">Squads::Action::calcSpeed</text>
</a>
</g>
</g>
<!-- Node2 -->
<g id="node2" class="node">
<title>Node2</title>
<g id="a_node2"><a xlink:href="namespaceutil_1_1pathfinding.html#ae3541fb2118bc5a77179c4067c9baf0c" target="_top" xlink:title=" ">
<polygon fill="white" stroke="black" points="158,-0.5 158,-30.5 243,-30.5 243,-0.5 158,-0.5"/>
<text text-anchor="start" x="166" y="-18.5" font-family="Helvetica,sans-Serif" font-size="10.00">util::pathfinding::</text>
<text text-anchor="middle" x="200.5" y="-7.5" font-family="Helvetica,sans-Serif" font-size="10.00">dijkstraPath</text>
</a>
</g>
</g>
<!-- Node1&#45;&gt;Node2 -->
<g id="edge1" class="edge">
<title>Node1&#45;&gt;Node2</title>
<path fill="none" stroke="midnightblue" d="M268.44,-15.5C259.81,-15.5 251.25,-15.5 243.3,-15.5"/>
<polygon fill="midnightblue" stroke="midnightblue" points="268.59,-19 278.59,-15.5 268.59,-12 268.59,-19"/>
</g>
<!-- Node3 -->
<g id="node3" class="node">
<title>Node3</title>
<g id="a_node3"><a xlink:href="class_squads_1_1_action.html#a4b58ace38d3be18a91d9c474302dbf46" target="_top" xlink:title=" ">
<polygon fill="white" stroke="black" points="0,-6 0,-25 122,-25 122,-6 0,-6"/>
<text text-anchor="middle" x="61" y="-13" font-family="Helvetica,sans-Serif" font-size="10.00">Squads::Action::findPath</text>
</a>
</g>
</g>
<!-- Node2&#45;&gt;Node3 -->
<g id="edge2" class="edge">
<title>Node2&#45;&gt;Node3</title>
<path fill="none" stroke="midnightblue" d="M147.82,-15.5C139.39,-15.5 130.6,-15.5 122,-15.5"/>
<polygon fill="midnightblue" stroke="midnightblue" points="147.87,-19 157.87,-15.5 147.87,-12 147.87,-19"/>
</g>
</g>
</svg>
