<?xml version="1.0" encoding="UTF-8" standalone="no"?>
<!DOCTYPE svg PUBLIC "-//W3C//DTD SVG 1.1//EN"
 "http://www.w3.org/Graphics/SVG/1.1/DTD/svg11.dtd">
<!-- Generated by graphviz version 2.47.0 (20210407.0042)
 -->
<!-- Title: include/engine/gameplayClickableGameObject.h Pages: 1 -->
<svg width="1394pt" height="575pt"
 viewBox="0.00 0.00 1393.50 575.00" xmlns="http://www.w3.org/2000/svg" xmlns:xlink="http://www.w3.org/1999/xlink">
<g id="graph0" class="graph" transform="scale(1 1) rotate(0) translate(4 571)">
<title>include/engine/gameplayClickableGameObject.h</title>
<polygon fill="white" stroke="transparent" points="-4,4 -4,-571 1389.5,-571 1389.5,4 -4,4"/>
<!-- Node1 -->
<g id="node1" class="node">
<title>Node1</title>
<g id="a_node1"><a xlink:title=" ">
<polygon fill="#bfbfbf" stroke="black" points="407,-536.5 407,-566.5 570,-566.5 570,-536.5 407,-536.5"/>
<text text-anchor="start" x="415" y="-554.5" font-family="Helvetica,sans-Serif" font-size="10.00">include/engine/gameplayClickable</text>
<text text-anchor="middle" x="488.5" y="-543.5" font-family="Helvetica,sans-Serif" font-size="10.00">GameObject.h</text>
</a>
</g>
</g>
<!-- Node2 -->
<g id="node2" class="node">
<title>Node2</title>
<g id="a_node2"><a xlink:href="_click_action_8cpp.html" target="_top" xlink:title=" ">
<polygon fill="white" stroke="black" points="251.5,-469.5 251.5,-499.5 347.5,-499.5 347.5,-469.5 251.5,-469.5"/>
<text text-anchor="start" x="259.5" y="-487.5" font-family="Helvetica,sans-Serif" font-size="10.00">src/engine/actions</text>
<text text-anchor="middle" x="299.5" y="-476.5" font-family="Helvetica,sans-Serif" font-size="10.00">/ClickAction.cpp</text>
</a>
</g>
</g>
<!-- Node1&#45;&gt;Node2 -->
<g id="edge1" class="edge">
<title>Node1&#45;&gt;Node2</title>
<path fill="none" stroke="midnightblue" d="M437.88,-533.09C407.37,-522.6 369.02,-509.41 340.43,-499.58"/>
<polygon fill="midnightblue" stroke="midnightblue" points="436.9,-536.45 447.49,-536.4 439.17,-529.83 436.9,-536.45"/>
</g>
<!-- Node3 -->
<g id="node3" class="node">
<title>Node3</title>
<g id="a_node3"><a xlink:href="gameplay_clickable_game_object_8cpp.html" target="_top" xlink:title=" ">
<polygon fill="white" stroke="black" points="365.5,-469.5 365.5,-499.5 511.5,-499.5 511.5,-469.5 365.5,-469.5"/>
<text text-anchor="start" x="373.5" y="-487.5" font-family="Helvetica,sans-Serif" font-size="10.00">src/engine/gameplayClickable</text>
<text text-anchor="middle" x="438.5" y="-476.5" font-family="Helvetica,sans-Serif" font-size="10.00">GameObject.cpp</text>
</a>
</g>
</g>
<!-- Node1&#45;&gt;Node3 -->
<g id="edge2" class="edge">
<title>Node1&#45;&gt;Node3</title>
<path fill="none" stroke="midnightblue" d="M471.54,-528.45C464.19,-518.9 455.81,-508 449.33,-499.58"/>
<polygon fill="midnightblue" stroke="midnightblue" points="468.78,-530.6 477.65,-536.4 474.33,-526.34 468.78,-530.6"/>
</g>
<!-- Node4 -->
<g id="node4" class="node">
<title>Node4</title>
<g id="a_node4"><a xlink:href="_cell_8h.html" target="_top" xlink:title=" ">
<polygon fill="white" stroke="black" points="801.5,-475 801.5,-494 929.5,-494 929.5,-475 801.5,-475"/>
<text text-anchor="middle" x="865.5" y="-482" font-family="Helvetica,sans-Serif" font-size="10.00">include/GameLogic/Cell.h</text>
</a>
</g>
</g>
<!-- Node1&#45;&gt;Node4 -->
<g id="edge3" class="edge">
<title>Node1&#45;&gt;Node4</title>
<path fill="none" stroke="midnightblue" d="M580.13,-534.7C654.41,-521.9 756.24,-504.34 816.03,-494.03"/>
<polygon fill="midnightblue" stroke="midnightblue" points="579.1,-531.33 569.84,-536.48 580.29,-538.23 579.1,-531.33"/>
</g>
<!-- Node11 -->
<g id="node11" class="node">
<title>Node11</title>
<g id="a_node11"><a xlink:href="_squad_8h.html" target="_top" xlink:title=" ">
<polygon fill="white" stroke="black" points="568,-335.5 568,-365.5 699,-365.5 699,-335.5 568,-335.5"/>
<text text-anchor="start" x="576" y="-353.5" font-family="Helvetica,sans-Serif" font-size="10.00">include/GameLogic/Squad</text>
<text text-anchor="middle" x="633.5" y="-342.5" font-family="Helvetica,sans-Serif" font-size="10.00">/Squad.h</text>
</a>
</g>
</g>
<!-- Node1&#45;&gt;Node11 -->
<g id="edge51" class="edge">
<title>Node1&#45;&gt;Node11</title>
<path fill="none" stroke="midnightblue" d="M504.06,-528.03C509.63,-519.47 515.71,-509.49 520.5,-500 541.55,-458.29 529.34,-438.5 558.5,-402 570.75,-386.67 588.92,-374.27 604.3,-365.59"/>
<polygon fill="midnightblue" stroke="midnightblue" points="501.15,-526.09 498.52,-536.35 506.97,-529.97 501.15,-526.09"/>
</g>
<!-- Node5 -->
<g id="node5" class="node">
<title>Node5</title>
<g id="a_node5"><a xlink:href="_cell_8cpp.html" target="_top" xlink:title=" ">
<polygon fill="white" stroke="black" points="850,-408 850,-427 971,-427 971,-408 850,-408"/>
<text text-anchor="middle" x="910.5" y="-415" font-family="Helvetica,sans-Serif" font-size="10.00">src/GameLogic/Cell.cpp</text>
</a>
</g>
</g>
<!-- Node4&#45;&gt;Node5 -->
<g id="edge4" class="edge">
<title>Node4&#45;&gt;Node5</title>
<path fill="none" stroke="midnightblue" d="M877.34,-466.4C886.08,-453.77 897.62,-437.1 904.53,-427.13"/>
<polygon fill="midnightblue" stroke="midnightblue" points="874.38,-464.52 871.57,-474.73 880.14,-468.5 874.38,-464.52"/>
</g>
<!-- Node6 -->
<g id="node6" class="node">
<title>Node6</title>
<g id="a_node6"><a xlink:href="main_8cpp.html" target="_top" xlink:title=" ">
<polygon fill="white" stroke="black" points="1313.5,-408 1313.5,-427 1385.5,-427 1385.5,-408 1313.5,-408"/>
<text text-anchor="middle" x="1349.5" y="-415" font-family="Helvetica,sans-Serif" font-size="10.00">src/main.cpp</text>
</a>
</g>
</g>
<!-- Node4&#45;&gt;Node6 -->
<g id="edge5" class="edge">
<title>Node4&#45;&gt;Node6</title>
<path fill="none" stroke="midnightblue" d="M939.66,-478.64C1026.54,-472.09 1174.51,-458.21 1299.5,-433 1307.3,-431.43 1315.64,-429.22 1323.24,-427.01"/>
<polygon fill="midnightblue" stroke="midnightblue" points="939.35,-475.16 929.64,-479.39 939.87,-482.14 939.35,-475.16"/>
</g>
<!-- Node7 -->
<g id="node7" class="node">
<title>Node7</title>
<g id="a_node7"><a xlink:href="_set_squad_path_8h.html" target="_top" xlink:title=" ">
<polygon fill="white" stroke="black" points="1028,-268.5 1028,-298.5 1141,-298.5 1141,-268.5 1028,-268.5"/>
<text text-anchor="start" x="1036" y="-286.5" font-family="Helvetica,sans-Serif" font-size="10.00">include/engine/actions</text>
<text text-anchor="middle" x="1084.5" y="-275.5" font-family="Helvetica,sans-Serif" font-size="10.00">/SetSquadPath.h</text>
</a>
</g>
</g>
<!-- Node4&#45;&gt;Node7 -->
<g id="edge6" class="edge">
<title>Node4&#45;&gt;Node7</title>
<path fill="none" stroke="midnightblue" d="M924.3,-472.5C951.23,-465.15 982,-453 1004.5,-433 1046.57,-395.59 1065.94,-327.82 1076.73,-298.57"/>
<polygon fill="midnightblue" stroke="midnightblue" points="923.39,-469.12 914.58,-474.99 925.13,-475.9 923.39,-469.12"/>
</g>
<!-- Node10 -->
<g id="node10" class="node">
<title>Node10</title>
<g id="a_node10"><a xlink:href="_game_logic_2_squad_2_action_8h.html" target="_top" xlink:title=" ">
<polygon fill="white" stroke="black" points="568,-402.5 568,-432.5 699,-432.5 699,-402.5 568,-402.5"/>
<text text-anchor="start" x="576" y="-420.5" font-family="Helvetica,sans-Serif" font-size="10.00">include/GameLogic/Squad</text>
<text text-anchor="middle" x="633.5" y="-409.5" font-family="Helvetica,sans-Serif" font-size="10.00">/Action.h</text>
</a>
</g>
</g>
<!-- Node4&#45;&gt;Node10 -->
<g id="edge10" class="edge">
<title>Node4&#45;&gt;Node10</title>
<path fill="none" stroke="midnightblue" d="M824.91,-472.13C785.58,-461.11 725.83,-444.37 683.57,-432.53"/>
<polygon fill="midnightblue" stroke="midnightblue" points="824.12,-475.54 834.69,-474.87 826.01,-468.8 824.12,-475.54"/>
</g>
<!-- Node4&#45;&gt;Node11 -->
<g id="edge48" class="edge">
<title>Node4&#45;&gt;Node11</title>
<path fill="none" stroke="midnightblue" d="M832.61,-470.58C811.54,-460.6 784.13,-446.28 760.5,-433 720.19,-410.34 674.22,-382.32 649.92,-365.74"/>
<polygon fill="midnightblue" stroke="midnightblue" points="831.26,-473.81 841.81,-474.84 834.2,-467.46 831.26,-473.81"/>
</g>
<!-- Node17 -->
<g id="node17" class="node">
<title>Node17</title>
<g id="a_node17"><a xlink:href="_factory_8h.html" target="_top" xlink:title=" ">
<polygon fill="white" stroke="black" points="712,-201.5 712,-231.5 839,-231.5 839,-201.5 712,-201.5"/>
<text text-anchor="start" x="720" y="-219.5" font-family="Helvetica,sans-Serif" font-size="10.00">include/GameLogic/Units</text>
<text text-anchor="middle" x="775.5" y="-208.5" font-family="Helvetica,sans-Serif" font-size="10.00">/Factory.h</text>
</a>
</g>
</g>
<!-- Node4&#45;&gt;Node17 -->
<g id="edge49" class="edge">
<title>Node4&#45;&gt;Node17</title>
<path fill="none" stroke="midnightblue" d="M856.17,-465.53C851.43,-456.01 845.78,-444.03 841.5,-433 812.67,-358.77 787.97,-266.38 779.05,-231.61"/>
<polygon fill="midnightblue" stroke="midnightblue" points="853.2,-467.41 860.85,-474.73 859.44,-464.23 853.2,-467.41"/>
</g>
<!-- Node31 -->
<g id="node31" class="node">
<title>Node31</title>
<g id="a_node31"><a xlink:href="pathfinding_8h.html" target="_top" xlink:title=" ">
<polygon fill="white" stroke="black" points="627.5,-274 627.5,-293 747.5,-293 747.5,-274 627.5,-274"/>
<text text-anchor="middle" x="687.5" y="-281" font-family="Helvetica,sans-Serif" font-size="10.00">include/util/pathfinding.h</text>
</a>
</g>
</g>
<!-- Node4&#45;&gt;Node31 -->
<g id="edge50" class="edge">
<title>Node4&#45;&gt;Node31</title>
<path fill="none" stroke="midnightblue" d="M846.46,-468.36C834.76,-458.71 819.73,-445.69 807.5,-433 759.88,-383.6 710.81,-317 693.77,-293.31"/>
<polygon fill="midnightblue" stroke="midnightblue" points="844.33,-471.14 854.3,-474.73 848.75,-465.71 844.33,-471.14"/>
</g>
<!-- Node7&#45;&gt;Node4 -->
<g id="edge9" class="edge">
<title>Node7&#45;&gt;Node4</title>
<path fill="none" stroke="midnightblue" d="M1085.21,-308.6C1079.77,-341.27 1060.3,-399.39 1022.5,-433 997.04,-455.64 960.97,-468.22 929.76,-475.16"/>
<polygon fill="midnightblue" stroke="midnightblue" points="1088.7,-308.94 1086.53,-298.57 1081.76,-308.03 1088.7,-308.94"/>
</g>
<!-- Node8 -->
<g id="node8" class="node">
<title>Node8</title>
<g id="a_node8"><a xlink:href="engine_2_action_8cpp.html" target="_top" xlink:title=" ">
<polygon fill="white" stroke="black" points="1027.5,-207 1027.5,-226 1137.5,-226 1137.5,-207 1027.5,-207"/>
<text text-anchor="middle" x="1082.5" y="-214" font-family="Helvetica,sans-Serif" font-size="10.00">src/engine/Action.cpp</text>
</a>
</g>
</g>
<!-- Node7&#45;&gt;Node8 -->
<g id="edge7" class="edge">
<title>Node7&#45;&gt;Node8</title>
<path fill="none" stroke="midnightblue" d="M1083.75,-258.25C1083.41,-247.02 1083.02,-234.38 1082.77,-226.19"/>
<polygon fill="midnightblue" stroke="midnightblue" points="1080.26,-258.51 1084.07,-268.4 1087.26,-258.29 1080.26,-258.51"/>
</g>
<!-- Node9 -->
<g id="node9" class="node">
<title>Node9</title>
<g id="a_node9"><a xlink:href="_set_squad_path_8cpp.html" target="_top" xlink:title=" ">
<polygon fill="white" stroke="black" points="1156,-201.5 1156,-231.5 1257,-231.5 1257,-201.5 1156,-201.5"/>
<text text-anchor="start" x="1164" y="-219.5" font-family="Helvetica,sans-Serif" font-size="10.00">src/engine/actions</text>
<text text-anchor="middle" x="1206.5" y="-208.5" font-family="Helvetica,sans-Serif" font-size="10.00">/SetSquadPath.cpp</text>
</a>
</g>
</g>
<!-- Node7&#45;&gt;Node9 -->
<g id="edge8" class="edge">
<title>Node7&#45;&gt;Node9</title>
<path fill="none" stroke="midnightblue" d="M1120.02,-263.57C1139.21,-253.35 1162.5,-240.94 1180.08,-231.58"/>
<polygon fill="midnightblue" stroke="midnightblue" points="1118.15,-260.6 1110.97,-268.4 1121.44,-266.78 1118.15,-260.6"/>
</g>
<!-- Node10&#45;&gt;Node11 -->
<g id="edge11" class="edge">
<title>Node10&#45;&gt;Node11</title>
<path fill="none" stroke="midnightblue" d="M626.95,-392.4C626.51,-383.37 626.8,-373.41 627.83,-365.58"/>
<polygon fill="midnightblue" stroke="midnightblue" points="623.47,-392.74 627.82,-402.4 630.44,-392.13 623.47,-392.74"/>
</g>
<!-- Node11&#45;&gt;Node4 -->
<g id="edge14" class="edge">
<title>Node11&#45;&gt;Node4</title>
<path fill="none" stroke="midnightblue" d="M671.63,-370.76C700.9,-387.6 742.02,-412.49 778.5,-433 805.75,-448.32 838.03,-465 854.9,-474.84"/>
<polygon fill="midnightblue" stroke="midnightblue" points="672.99,-367.5 662.57,-365.59 669.52,-373.58 672.99,-367.5"/>
</g>
<!-- Node11&#45;&gt;Node7 -->
<g id="edge13" class="edge">
<title>Node11&#45;&gt;Node7</title>
<path fill="none" stroke="midnightblue" d="M709.21,-338.59C799.14,-325.63 947.11,-304.3 1027.76,-292.68"/>
<polygon fill="midnightblue" stroke="midnightblue" points="708.48,-335.16 699.08,-340.05 709.48,-342.09 708.48,-335.16"/>
</g>
<!-- Node11&#45;&gt;Node10 -->
<g id="edge15" class="edge">
<title>Node11&#45;&gt;Node10</title>
<path fill="none" stroke="midnightblue" d="M640.04,-375.57C640.49,-384.6 640.21,-394.56 639.18,-402.4"/>
<polygon fill="midnightblue" stroke="midnightblue" points="643.53,-375.24 639.17,-365.58 636.55,-375.84 643.53,-375.24"/>
</g>
<!-- Node12 -->
<g id="node12" class="node">
<title>Node12</title>
<g id="a_node12"><a xlink:href="_squad_8cpp.html" target="_top" xlink:title=" ">
<polygon fill="white" stroke="black" points="763.5,-67.5 763.5,-97.5 877.5,-97.5 877.5,-67.5 763.5,-67.5"/>
<text text-anchor="start" x="771.5" y="-85.5" font-family="Helvetica,sans-Serif" font-size="10.00">src/GameLogic/Squad</text>
<text text-anchor="middle" x="820.5" y="-74.5" font-family="Helvetica,sans-Serif" font-size="10.00">/Squad.cpp</text>
</a>
</g>
</g>
<!-- Node11&#45;&gt;Node12 -->
<g id="edge12" class="edge">
<title>Node11&#45;&gt;Node12</title>
<path fill="none" stroke="midnightblue" d="M611.85,-327.94C584.17,-297.7 543.02,-241.8 571.5,-201 598.06,-162.95 628.77,-187.23 669.5,-165 689.55,-154.05 690.89,-145.72 710.5,-134 734.31,-119.77 762.81,-106.78 784.83,-97.55"/>
<polygon fill="midnightblue" stroke="midnightblue" points="609.49,-330.53 618.89,-335.41 614.58,-325.73 609.49,-330.53"/>
</g>
<!-- Node13 -->
<g id="node13" class="node">
<title>Node13</title>
<g id="a_node13"><a xlink:href="_unit_8h.html" target="_top" xlink:title=" ">
<polygon fill="white" stroke="black" points="351,-268.5 351,-298.5 478,-298.5 478,-268.5 351,-268.5"/>
<text text-anchor="start" x="359" y="-286.5" font-family="Helvetica,sans-Serif" font-size="10.00">include/GameLogic/Units</text>
<text text-anchor="middle" x="414.5" y="-275.5" font-family="Helvetica,sans-Serif" font-size="10.00">/Unit.h</text>
</a>
</g>
</g>
<!-- Node11&#45;&gt;Node13 -->
<g id="edge16" class="edge">
<title>Node11&#45;&gt;Node13</title>
<path fill="none" stroke="midnightblue" d="M570.95,-332.71C534.21,-322.14 488.82,-308.63 456.36,-298.61"/>
<polygon fill="midnightblue" stroke="midnightblue" points="570,-336.08 580.58,-335.48 571.93,-329.35 570,-336.08"/>
</g>
<!-- Node11&#45;&gt;Node31 -->
<g id="edge45" class="edge">
<title>Node11&#45;&gt;Node31</title>
<path fill="none" stroke="midnightblue" d="M651.65,-327.66C661.44,-315.86 672.99,-301.97 680.28,-293.19"/>
<polygon fill="midnightblue" stroke="midnightblue" points="648.92,-325.47 645.22,-335.4 654.3,-329.94 648.92,-325.47"/>
</g>
<!-- Node13&#45;&gt;Node11 -->
<g id="edge18" class="edge">
<title>Node13&#45;&gt;Node11</title>
<path fill="none" stroke="midnightblue" d="M477.36,-301.38C514.16,-311.97 559.53,-325.47 591.92,-335.48"/>
<polygon fill="midnightblue" stroke="midnightblue" points="478.3,-298 467.72,-298.61 476.37,-304.73 478.3,-298"/>
</g>
<!-- Node14 -->
<g id="node14" class="node">
<title>Node14</title>
<g id="a_node14"><a xlink:href="_unit_8cpp.html" target="_top" xlink:title=" ">
<polygon fill="white" stroke="black" points="277.5,-134.5 277.5,-164.5 387.5,-164.5 387.5,-134.5 277.5,-134.5"/>
<text text-anchor="start" x="285.5" y="-152.5" font-family="Helvetica,sans-Serif" font-size="10.00">src/GameLogic/Units</text>
<text text-anchor="middle" x="332.5" y="-141.5" font-family="Helvetica,sans-Serif" font-size="10.00">/Unit.cpp</text>
</a>
</g>
</g>
<!-- Node13&#45;&gt;Node14 -->
<g id="edge17" class="edge">
<title>Node13&#45;&gt;Node14</title>
<path fill="none" stroke="midnightblue" d="M400.42,-259.83C383.42,-232.47 355.35,-187.28 341.21,-164.52"/>
<polygon fill="midnightblue" stroke="midnightblue" points="397.47,-261.73 405.72,-268.37 403.42,-258.03 397.47,-261.73"/>
</g>
<!-- Node15 -->
<g id="node15" class="node">
<title>Node15</title>
<g id="a_node15"><a xlink:href="_squad_order_8h.html" target="_top" xlink:title=" ">
<polygon fill="white" stroke="black" points="0,-134.5 0,-164.5 131,-164.5 131,-134.5 0,-134.5"/>
<text text-anchor="start" x="8" y="-152.5" font-family="Helvetica,sans-Serif" font-size="10.00">include/GameLogic/Squad</text>
<text text-anchor="middle" x="65.5" y="-141.5" font-family="Helvetica,sans-Serif" font-size="10.00">/SquadOrder.h</text>
</a>
</g>
</g>
<!-- Node13&#45;&gt;Node15 -->
<g id="edge19" class="edge">
<title>Node13&#45;&gt;Node15</title>
<path fill="none" stroke="midnightblue" d="M340.67,-270.44C299.39,-262.32 247.54,-249.8 203.5,-232 158.61,-213.85 110.99,-182.72 85.09,-164.64"/>
<polygon fill="midnightblue" stroke="midnightblue" points="340.17,-273.91 350.65,-272.36 341.49,-267.03 340.17,-273.91"/>
</g>
<!-- Node13&#45;&gt;Node17 -->
<g id="edge21" class="edge">
<title>Node13&#45;&gt;Node17</title>
<path fill="none" stroke="midnightblue" d="M488.27,-270.03C546.51,-260.08 629.77,-245.6 702.5,-232 705.55,-231.43 708.67,-230.84 711.82,-230.24"/>
<polygon fill="midnightblue" stroke="midnightblue" points="487.33,-266.64 478.06,-271.78 488.51,-273.54 487.33,-266.64"/>
</g>
<!-- Node27 -->
<g id="node27" class="node">
<title>Node27</title>
<g id="a_node27"><a xlink:href="_land_unit_8h.html" target="_top" xlink:title=" ">
<polygon fill="white" stroke="black" points="397,-201.5 397,-231.5 524,-231.5 524,-201.5 397,-201.5"/>
<text text-anchor="start" x="405" y="-219.5" font-family="Helvetica,sans-Serif" font-size="10.00">include/GameLogic/Units</text>
<text text-anchor="middle" x="460.5" y="-208.5" font-family="Helvetica,sans-Serif" font-size="10.00">/LandUnit.h</text>
</a>
</g>
</g>
<!-- Node13&#45;&gt;Node27 -->
<g id="edge37" class="edge">
<title>Node13&#45;&gt;Node27</title>
<path fill="none" stroke="midnightblue" d="M430.31,-260.16C437.02,-250.68 444.63,-239.92 450.54,-231.58"/>
<polygon fill="midnightblue" stroke="midnightblue" points="427.4,-258.21 424.48,-268.4 433.12,-262.26 427.4,-258.21"/>
</g>
<!-- Node29 -->
<g id="node29" class="node">
<title>Node29</title>
<g id="a_node29"><a xlink:href="_unit_order_8h.html" target="_top" xlink:title=" ">
<polygon fill="white" stroke="black" points="213,-201.5 213,-231.5 340,-231.5 340,-201.5 213,-201.5"/>
<text text-anchor="start" x="221" y="-219.5" font-family="Helvetica,sans-Serif" font-size="10.00">include/GameLogic/Units</text>
<text text-anchor="middle" x="276.5" y="-208.5" font-family="Helvetica,sans-Serif" font-size="10.00">/UnitOrder.h</text>
</a>
</g>
</g>
<!-- Node13&#45;&gt;Node29 -->
<g id="edge40" class="edge">
<title>Node13&#45;&gt;Node29</title>
<path fill="none" stroke="midnightblue" d="M369.66,-264.27C346.73,-253.92 319.78,-241.15 300.71,-231.58"/>
<polygon fill="midnightblue" stroke="midnightblue" points="368.32,-267.5 378.88,-268.4 371.18,-261.12 368.32,-267.5"/>
</g>
<!-- Node16 -->
<g id="node16" class="node">
<title>Node16</title>
<g id="a_node16"><a xlink:href="_squad_order_8cpp.html" target="_top" xlink:title=" ">
<polygon fill="white" stroke="black" points="8.5,-67.5 8.5,-97.5 122.5,-97.5 122.5,-67.5 8.5,-67.5"/>
<text text-anchor="start" x="16.5" y="-85.5" font-family="Helvetica,sans-Serif" font-size="10.00">src/GameLogic/Squad</text>
<text text-anchor="middle" x="65.5" y="-74.5" font-family="Helvetica,sans-Serif" font-size="10.00">/SquadOrder.cpp</text>
</a>
</g>
</g>
<!-- Node15&#45;&gt;Node16 -->
<g id="edge20" class="edge">
<title>Node15&#45;&gt;Node16</title>
<path fill="none" stroke="midnightblue" d="M65.5,-124.11C65.5,-115.15 65.5,-105.32 65.5,-97.58"/>
<polygon fill="midnightblue" stroke="midnightblue" points="62,-124.4 65.5,-134.4 69,-124.4 62,-124.4"/>
</g>
<!-- Node18 -->
<g id="node18" class="node">
<title>Node18</title>
<g id="a_node18"><a xlink:href="_factory_8cpp.html" target="_top" xlink:title=" ">
<polygon fill="white" stroke="black" points="719.5,-134.5 719.5,-164.5 829.5,-164.5 829.5,-134.5 719.5,-134.5"/>
<text text-anchor="start" x="727.5" y="-152.5" font-family="Helvetica,sans-Serif" font-size="10.00">src/GameLogic/Units</text>
<text text-anchor="middle" x="774.5" y="-141.5" font-family="Helvetica,sans-Serif" font-size="10.00">/Factory.cpp</text>
</a>
</g>
</g>
<!-- Node17&#45;&gt;Node18 -->
<g id="edge22" class="edge">
<title>Node17&#45;&gt;Node18</title>
<path fill="none" stroke="midnightblue" d="M775.12,-191.11C774.99,-182.15 774.84,-172.32 774.72,-164.58"/>
<polygon fill="midnightblue" stroke="midnightblue" points="771.63,-191.45 775.28,-201.4 778.63,-191.34 771.63,-191.45"/>
</g>
<!-- Node19 -->
<g id="node19" class="node">
<title>Node19</title>
<g id="a_node19"><a xlink:href="_squad_template_8h.html" target="_top" xlink:title=" ">
<polygon fill="white" stroke="black" points="993,-134.5 993,-164.5 1124,-164.5 1124,-134.5 993,-134.5"/>
<text text-anchor="start" x="1001" y="-152.5" font-family="Helvetica,sans-Serif" font-size="10.00">include/GameLogic/Squad</text>
<text text-anchor="middle" x="1058.5" y="-141.5" font-family="Helvetica,sans-Serif" font-size="10.00">/SquadTemplate.h</text>
</a>
</g>
</g>
<!-- Node17&#45;&gt;Node19 -->
<g id="edge23" class="edge">
<title>Node17&#45;&gt;Node19</title>
<path fill="none" stroke="midnightblue" d="M846.53,-199.19C892.88,-188.54 952.77,-174.78 997.06,-164.61"/>
<polygon fill="midnightblue" stroke="midnightblue" points="845.52,-195.83 836.56,-201.48 847.09,-202.65 845.52,-195.83"/>
</g>
<!-- Node23 -->
<g id="node23" class="node">
<title>Node23</title>
<g id="a_node23"><a xlink:href="_all_units_8h.html" target="_top" xlink:title=" ">
<polygon fill="white" stroke="black" points="848,-134.5 848,-164.5 975,-164.5 975,-134.5 848,-134.5"/>
<text text-anchor="start" x="856" y="-152.5" font-family="Helvetica,sans-Serif" font-size="10.00">include/GameLogic/Units</text>
<text text-anchor="middle" x="911.5" y="-141.5" font-family="Helvetica,sans-Serif" font-size="10.00">/AllUnits.h</text>
</a>
</g>
</g>
<!-- Node17&#45;&gt;Node23 -->
<g id="edge28" class="edge">
<title>Node17&#45;&gt;Node23</title>
<path fill="none" stroke="midnightblue" d="M814.22,-196.99C835.78,-186.69 862.19,-174.07 882.05,-164.58"/>
<polygon fill="midnightblue" stroke="midnightblue" points="812.52,-193.93 805.01,-201.4 815.54,-200.24 812.52,-193.93"/>
</g>
<!-- Node25 -->
<g id="node25" class="node">
<title>Node25</title>
<g id="a_node25"><a xlink:href="_land_unit_factory_8h.html" target="_top" xlink:title=" ">
<polygon fill="white" stroke="black" points="534,-134.5 534,-164.5 661,-164.5 661,-134.5 534,-134.5"/>
<text text-anchor="start" x="542" y="-152.5" font-family="Helvetica,sans-Serif" font-size="10.00">include/GameLogic/Units</text>
<text text-anchor="middle" x="597.5" y="-141.5" font-family="Helvetica,sans-Serif" font-size="10.00">/LandUnitFactory.h</text>
</a>
</g>
</g>
<!-- Node17&#45;&gt;Node25 -->
<g id="edge34" class="edge">
<title>Node17&#45;&gt;Node25</title>
<path fill="none" stroke="midnightblue" d="M727.45,-197.96C698.78,-187.48 662.86,-174.37 636.05,-164.58"/>
<polygon fill="midnightblue" stroke="midnightblue" points="726.28,-201.25 736.88,-201.4 728.68,-194.68 726.28,-201.25"/>
</g>
<!-- Node20 -->
<g id="node20" class="node">
<title>Node20</title>
<g id="a_node20"><a xlink:href="_squad_template_8cpp.html" target="_top" xlink:title=" ">
<polygon fill="white" stroke="black" points="895.5,-67.5 895.5,-97.5 1009.5,-97.5 1009.5,-67.5 895.5,-67.5"/>
<text text-anchor="start" x="903.5" y="-85.5" font-family="Helvetica,sans-Serif" font-size="10.00">src/GameLogic/Squad</text>
<text text-anchor="middle" x="952.5" y="-74.5" font-family="Helvetica,sans-Serif" font-size="10.00">/SquadTemplate.cpp</text>
</a>
</g>
</g>
<!-- Node19&#45;&gt;Node20 -->
<g id="edge24" class="edge">
<title>Node19&#45;&gt;Node20</title>
<path fill="none" stroke="midnightblue" d="M1026.72,-129.02C1010.23,-118.9 990.45,-106.77 975.46,-97.58"/>
<polygon fill="midnightblue" stroke="midnightblue" points="1025.15,-132.15 1035.5,-134.4 1028.8,-126.18 1025.15,-132.15"/>
</g>
<!-- Node21 -->
<g id="node21" class="node">
<title>Node21</title>
<g id="a_node21"><a xlink:href="_all_squad_templates_8h.html" target="_top" xlink:title=" ">
<polygon fill="white" stroke="black" points="1028,-67.5 1028,-97.5 1159,-97.5 1159,-67.5 1028,-67.5"/>
<text text-anchor="start" x="1036" y="-85.5" font-family="Helvetica,sans-Serif" font-size="10.00">include/GameLogic/Squad</text>
<text text-anchor="middle" x="1093.5" y="-74.5" font-family="Helvetica,sans-Serif" font-size="10.00">/AllSquadTemplates.h</text>
</a>
</g>
</g>
<!-- Node19&#45;&gt;Node21 -->
<g id="edge25" class="edge">
<title>Node19&#45;&gt;Node21</title>
<path fill="none" stroke="midnightblue" d="M1070.84,-125.58C1075.87,-116.24 1081.52,-105.75 1085.92,-97.58"/>
<polygon fill="midnightblue" stroke="midnightblue" points="1067.75,-123.93 1066.09,-134.4 1073.92,-127.25 1067.75,-123.93"/>
</g>
<!-- Node21&#45;&gt;Node4 -->
<g id="edge27" class="edge">
<title>Node21&#45;&gt;Node4</title>
<path fill="none" stroke="midnightblue" d="M1162.69,-100.67C1217.71,-118.95 1285.5,-153.97 1285.5,-215.5 1285.5,-351.5 1285.5,-351.5 1285.5,-351.5 1285.5,-425.16 1047.4,-462.73 929.75,-476.8"/>
<polygon fill="midnightblue" stroke="midnightblue" points="1163.53,-97.26 1152.94,-97.56 1161.4,-103.93 1163.53,-97.26"/>
</g>
<!-- Node22 -->
<g id="node22" class="node">
<title>Node22</title>
<g id="a_node22"><a xlink:href="_all_squad_templates_8cpp.html" target="_top" xlink:title=" ">
<polygon fill="white" stroke="black" points="1032.5,-0.5 1032.5,-30.5 1154.5,-30.5 1154.5,-0.5 1032.5,-0.5"/>
<text text-anchor="start" x="1040.5" y="-18.5" font-family="Helvetica,sans-Serif" font-size="10.00">src/GameLogic/Squad</text>
<text text-anchor="middle" x="1093.5" y="-7.5" font-family="Helvetica,sans-Serif" font-size="10.00">/AllSquadTemplates.cpp</text>
</a>
</g>
</g>
<!-- Node21&#45;&gt;Node22 -->
<g id="edge26" class="edge">
<title>Node21&#45;&gt;Node22</title>
<path fill="none" stroke="midnightblue" d="M1093.5,-57.11C1093.5,-48.15 1093.5,-38.32 1093.5,-30.58"/>
<polygon fill="midnightblue" stroke="midnightblue" points="1090,-57.4 1093.5,-67.4 1097,-57.4 1090,-57.4"/>
</g>
<!-- Node23&#45;&gt;Node4 -->
<g id="edge32" class="edge">
<title>Node23&#45;&gt;Node4</title>
<path fill="none" stroke="midnightblue" d="M948.1,-170.16C960.05,-178.25 972.33,-188.64 980.5,-201 1001.01,-232.03 999.5,-245.31 999.5,-282.5 999.5,-351.5 999.5,-351.5 999.5,-351.5 999.5,-388.69 1004.26,-404.39 980.5,-433 962.18,-455.06 932.34,-467.78 907.64,-474.94"/>
<polygon fill="midnightblue" stroke="midnightblue" points="949.83,-167.11 939.52,-164.68 946.07,-173.01 949.83,-167.11"/>
</g>
<!-- Node23&#45;&gt;Node12 -->
<g id="edge29" class="edge">
<title>Node23&#45;&gt;Node12</title>
<path fill="none" stroke="midnightblue" d="M883.43,-128.45C869.43,-118.45 852.84,-106.6 840.21,-97.58"/>
<polygon fill="midnightblue" stroke="midnightblue" points="881.58,-131.43 891.75,-134.4 885.65,-125.74 881.58,-131.43"/>
</g>
<!-- Node23&#45;&gt;Node20 -->
<g id="edge30" class="edge">
<title>Node23&#45;&gt;Node20</title>
<path fill="none" stroke="midnightblue" d="M925.78,-125.87C931.71,-116.46 938.41,-105.83 943.62,-97.58"/>
<polygon fill="midnightblue" stroke="midnightblue" points="922.77,-124.07 920.4,-134.4 928.69,-127.81 922.77,-124.07"/>
</g>
<!-- Node23&#45;&gt;Node21 -->
<g id="edge33" class="edge">
<title>Node23&#45;&gt;Node21</title>
<path fill="none" stroke="midnightblue" d="M960.63,-130.96C989.94,-120.48 1026.68,-107.37 1054.09,-97.58"/>
<polygon fill="midnightblue" stroke="midnightblue" points="959.23,-127.74 950.99,-134.4 961.59,-134.33 959.23,-127.74"/>
</g>
<!-- Node24 -->
<g id="node24" class="node">
<title>Node24</title>
<g id="a_node24"><a xlink:href="_all_units_8cpp.html" target="_top" xlink:title=" ">
<polygon fill="white" stroke="black" points="635.5,-67.5 635.5,-97.5 745.5,-97.5 745.5,-67.5 635.5,-67.5"/>
<text text-anchor="start" x="643.5" y="-85.5" font-family="Helvetica,sans-Serif" font-size="10.00">src/GameLogic/Units</text>
<text text-anchor="middle" x="690.5" y="-74.5" font-family="Helvetica,sans-Serif" font-size="10.00">/AllUnits.cpp</text>
</a>
</g>
</g>
<!-- Node23&#45;&gt;Node24 -->
<g id="edge31" class="edge">
<title>Node23&#45;&gt;Node24</title>
<path fill="none" stroke="midnightblue" d="M853.97,-131.58C818.08,-121.02 772.41,-107.59 738.48,-97.61"/>
<polygon fill="midnightblue" stroke="midnightblue" points="853.24,-135.01 863.82,-134.48 855.21,-128.3 853.24,-135.01"/>
</g>
<!-- Node25&#45;&gt;Node24 -->
<g id="edge35" class="edge">
<title>Node25&#45;&gt;Node24</title>
<path fill="none" stroke="midnightblue" d="M626.19,-128.45C640.49,-118.45 657.45,-106.6 670.36,-97.58"/>
<polygon fill="midnightblue" stroke="midnightblue" points="623.87,-125.8 617.68,-134.4 627.88,-131.54 623.87,-125.8"/>
</g>
<!-- Node26 -->
<g id="node26" class="node">
<title>Node26</title>
<g id="a_node26"><a xlink:href="_land_unit_factory_8cpp.html" target="_top" xlink:title=" ">
<polygon fill="white" stroke="black" points="507.5,-67.5 507.5,-97.5 617.5,-97.5 617.5,-67.5 507.5,-67.5"/>
<text text-anchor="start" x="515.5" y="-85.5" font-family="Helvetica,sans-Serif" font-size="10.00">src/GameLogic/Units</text>
<text text-anchor="middle" x="562.5" y="-74.5" font-family="Helvetica,sans-Serif" font-size="10.00">/LandUnitFactory.cpp</text>
</a>
</g>
</g>
<!-- Node25&#45;&gt;Node26 -->
<g id="edge36" class="edge">
<title>Node25&#45;&gt;Node26</title>
<path fill="none" stroke="midnightblue" d="M585.16,-125.58C580.13,-116.24 574.48,-105.75 570.08,-97.58"/>
<polygon fill="midnightblue" stroke="midnightblue" points="582.08,-127.25 589.91,-134.4 588.25,-123.93 582.08,-127.25"/>
</g>
<!-- Node27&#45;&gt;Node25 -->
<g id="edge39" class="edge">
<title>Node27&#45;&gt;Node25</title>
<path fill="none" stroke="midnightblue" d="M499.51,-196.99C521.22,-186.69 547.83,-174.07 567.83,-164.58"/>
<polygon fill="midnightblue" stroke="midnightblue" points="497.76,-193.95 490.23,-201.4 500.76,-200.27 497.76,-193.95"/>
</g>
<!-- Node28 -->
<g id="node28" class="node">
<title>Node28</title>
<g id="a_node28"><a xlink:href="_land_unit_8cpp.html" target="_top" xlink:title=" ">
<polygon fill="white" stroke="black" points="405.5,-134.5 405.5,-164.5 515.5,-164.5 515.5,-134.5 405.5,-134.5"/>
<text text-anchor="start" x="413.5" y="-152.5" font-family="Helvetica,sans-Serif" font-size="10.00">src/GameLogic/Units</text>
<text text-anchor="middle" x="460.5" y="-141.5" font-family="Helvetica,sans-Serif" font-size="10.00">/LandUnit.cpp</text>
</a>
</g>
</g>
<!-- Node27&#45;&gt;Node28 -->
<g id="edge38" class="edge">
<title>Node27&#45;&gt;Node28</title>
<path fill="none" stroke="midnightblue" d="M460.5,-191.11C460.5,-182.15 460.5,-172.32 460.5,-164.58"/>
<polygon fill="midnightblue" stroke="midnightblue" points="457,-191.4 460.5,-201.4 464,-191.4 457,-191.4"/>
</g>
<!-- Node29&#45;&gt;Node13 -->
<g id="edge44" class="edge">
<title>Node29&#45;&gt;Node13</title>
<path fill="none" stroke="midnightblue" d="M321.28,-235.7C344.2,-246.05 371.15,-258.81 390.23,-268.4"/>
<polygon fill="midnightblue" stroke="midnightblue" points="322.62,-232.47 312.06,-231.58 319.76,-238.86 322.62,-232.47"/>
</g>
<!-- Node29&#45;&gt;Node14 -->
<g id="edge41" class="edge">
<title>Node29&#45;&gt;Node14</title>
<path fill="none" stroke="midnightblue" d="M295.25,-193.74C303.54,-184.12 313.04,-173.09 320.37,-164.58"/>
<polygon fill="midnightblue" stroke="midnightblue" points="292.53,-191.54 288.65,-201.4 297.83,-196.1 292.53,-191.54"/>
</g>
<!-- Node29&#45;&gt;Node15 -->
<g id="edge43" class="edge">
<title>Node29&#45;&gt;Node15</title>
<path fill="none" stroke="midnightblue" d="M221.13,-198.44C186.93,-187.91 143.57,-174.55 111.31,-164.61"/>
<polygon fill="midnightblue" stroke="midnightblue" points="220.39,-201.88 230.98,-201.48 222.45,-195.19 220.39,-201.88"/>
</g>
<!-- Node30 -->
<g id="node30" class="node">
<title>Node30</title>
<g id="a_node30"><a xlink:href="_unit_order_8cpp.html" target="_top" xlink:title=" ">
<polygon fill="white" stroke="black" points="149.5,-134.5 149.5,-164.5 259.5,-164.5 259.5,-134.5 149.5,-134.5"/>
<text text-anchor="start" x="157.5" y="-152.5" font-family="Helvetica,sans-Serif" font-size="10.00">src/GameLogic/Units</text>
<text text-anchor="middle" x="204.5" y="-141.5" font-family="Helvetica,sans-Serif" font-size="10.00">/UnitOrder.cpp</text>
</a>
</g>
</g>
<!-- Node29&#45;&gt;Node30 -->
<g id="edge42" class="edge">
<title>Node29&#45;&gt;Node30</title>
<path fill="none" stroke="midnightblue" d="M253.35,-194.6C242.48,-184.78 229.8,-173.34 220.09,-164.58"/>
<polygon fill="midnightblue" stroke="midnightblue" points="251.11,-197.29 260.88,-201.4 255.8,-192.1 251.11,-197.29"/>
</g>
<!-- Node32 -->
<g id="node32" class="node">
<title>Node32</title>
<g id="a_node32"><a xlink:href="_game_logic_2_squad_2_action_8cpp.html" target="_top" xlink:title=" ">
<polygon fill="white" stroke="black" points="857.5,-201.5 857.5,-231.5 971.5,-231.5 971.5,-201.5 857.5,-201.5"/>
<text text-anchor="start" x="865.5" y="-219.5" font-family="Helvetica,sans-Serif" font-size="10.00">src/GameLogic/Squad</text>
<text text-anchor="middle" x="914.5" y="-208.5" font-family="Helvetica,sans-Serif" font-size="10.00">/Action.cpp</text>
</a>
</g>
</g>
<!-- Node31&#45;&gt;Node32 -->
<g id="edge46" class="edge">
<title>Node31&#45;&gt;Node32</title>
<path fill="none" stroke="midnightblue" d="M727.46,-271.06C765.95,-260.04 824.24,-243.34 865.51,-231.53"/>
<polygon fill="midnightblue" stroke="midnightblue" points="726.29,-267.75 717.64,-273.87 728.22,-274.48 726.29,-267.75"/>
</g>
<!-- Node33 -->
<g id="node33" class="node">
<title>Node33</title>
<g id="a_node33"><a xlink:href="pathfinding_8cpp.html" target="_top" xlink:title=" ">
<polygon fill="white" stroke="black" points="581,-207 581,-226 694,-226 694,-207 581,-207"/>
<text text-anchor="middle" x="637.5" y="-214" font-family="Helvetica,sans-Serif" font-size="10.00">src/util/pathfinding.cpp</text>
</a>
</g>
</g>
<!-- Node31&#45;&gt;Node33 -->
<g id="edge47" class="edge">
<title>Node31&#45;&gt;Node33</title>
<path fill="none" stroke="midnightblue" d="M674.63,-265.77C664.88,-253.1 651.89,-236.2 644.14,-226.13"/>
<polygon fill="midnightblue" stroke="midnightblue" points="671.89,-267.94 680.76,-273.73 677.43,-263.67 671.89,-267.94"/>
</g>
</g>
</svg>
